<?xml version="1.0" encoding="utf-8"?><svg version="1.1" id="Layer_1" xmlns="http://www.w3.org/2000/svg" xmlns:xlink="http://www.w3.org/1999/xlink" x="0px" y="0px" viewBox="0 0 80 77.1" style="enable-background:new 0 0 80 77.1;" xml:space="preserve"><style type="text/css">.st0{fill:#FFFFFF;stroke:#000000;stroke-width:3;stroke-linecap:round;stroke-linejoin:round;}.st1{fill:none;}</style><path class="st0" d="M39.9,75.6L39.9,75.6c0.1,0,0.2,0,0.3,0"/><path class="st0" d="M40.2,75.6c6.9-0.1,16.7-1.8,22.4-4c-0.7-6.6-2.7-45.5-2.7-45.5s2.1,5.1,3.2,7.9c4.7-0.4,12.3-1.3,15.3-6.2C75.5,21,73.3,13.2,71,8.1c0,0-10.4-3.8-18.6-6.4c0,0-0.9-0.3-1.3,0.4c-3,4.2-4.5,7.1-11.2,7.1l0,0c-6.4-0.1-8-2.9-10.9-7.1c-0.5-0.7-1.4-0.4-1.4-0.4C19.5,4.2,9,8.1,9,8.1c-2.3,5.1-4.5,13-7.4,19.7c3,4.8,10.4,5.8,15.3,6.2c1.1-2.8,3.2-7.9,3.2-7.9S18,65,17.4,71.6c5.8,2.2,15.5,4,22.4,4l0,0"/><rect x="23.5" y="23.1" class="st1" width="33.6" height="47.1"/><path d="M46.5,39.7c2.8,1,5.8,3.2,5.8,7.7c0,5.4-4.6,9.3-10.5,9.3H30.2c-0.5,0-0.9-0.4-0.9-0.9V24c0-0.5,0.4-0.9,0.9-0.9h11c5.7,0,10.1,3.8,10.1,8.9c0,3.6-2.3,6.2-4.8,7.5V39.7z M40.7,37.2c2.4,0,4-1.9,4-4.3c0-2.4-1.6-4.1-4-4.1h-5.2v8.4H40.7z M41.4,51c2.4,0,4.2-1.9,4.2-4.4c0-2.4-1.8-4.2-4.2-4.2h-5.9V51H41.4z"/></svg>