<?xml version="1.0" encoding="utf-8"?><svg version="1.1" id="Layer_1" xmlns="http://www.w3.org/2000/svg" xmlns:xlink="http://www.w3.org/1999/xlink" x="0px" y="0px" viewBox="0 0 80 77.1" style="enable-background:new 0 0 80 77.1;" xml:space="preserve"><style type="text/css">.st0{fill:#FFFFFF;stroke:#000000;stroke-width:3;stroke-linecap:round;stroke-linejoin:round;}</style><path class="st0" d="M39.9,75.6L39.9,75.6c0.1,0,0.2,0,0.3,0"/><path class="st0" d="M40.2,75.6c6.9-0.1,16.7-1.8,22.4-4c-0.7-6.6-2.7-45.5-2.7-45.5s2.1,5.1,3.2,7.9c4.7-0.4,12.3-1.3,15.3-6.2C75.5,21,73.3,13.2,71,8.1c0,0-10.4-3.8-18.6-6.4c0,0-0.9-0.3-1.3,0.4c-3,4.2-4.5,7.1-11.2,7.1l0,0c-6.4-0.1-8-2.9-10.9-7.1c-0.5-0.7-1.4-0.4-1.4-0.4C19.5,4.2,9,8.1,9,8.1c-2.3,5.1-4.5,13-7.4,19.7c3,4.8,10.4,5.8,15.3,6.2c1.1-2.8,3.2-7.9,3.2-7.9S18,65,17.4,71.6c5.8,2.2,15.5,4,22.4,4l0,0"/><path d="M23.6,55.4l14.9-32.3c0.1-0.3,0.4-0.5,0.8-0.5h0.5c0.5,0,0.7,0.2,0.8,0.5l14.8,32.3c0.3,0.6-0.1,1.2-0.8,1.2h-4.2c-0.7,0-1.1-0.3-1.4-1l-2.4-5.2H32.3l-2.4,5.2c-0.2,0.5-0.6,1-1.4,1h-4.2C23.7,56.7,23.3,56.1,23.6,55.4z M44.3,45.2l-4.8-10.6h-0.1l-4.7,10.6H44.3z"/></svg>