<?xml version="1.0" encoding="utf-8"?><svg version="1.1" id="Layer_1" xmlns="http://www.w3.org/2000/svg" xmlns:xlink="http://www.w3.org/1999/xlink" x="0px" y="0px" viewBox="0 0 512 512" style="enable-background:new 0 0 512 512;" xml:space="preserve"><style type="text/css"> .st0{fill:#FFFFFF;stroke:#B22B18;stroke-width:7;stroke-linecap:round;stroke-linejoin:round;} .st1{fill:#B22B18;} .st2{fill:none;stroke:#B22B18;stroke-width:6;} .st3{fill:none;stroke:#B22B18;stroke-width:5.3;stroke-linecap:round;stroke-linejoin:round;} .st4{fill:#29573D;} .st5{fill:#FFFFFF;} .st6{fill:#387855;} .st7{fill:#29573D;stroke:#FFFFFF;stroke-width:2.5;stroke-linecap:round;stroke-linejoin:round;} .st8{fill:#387854;} .st9{fill:#265037;} .st10{fill:#FFFFFF;stroke:#000000;stroke-width:1.5;stroke-linecap:round;} .st11{fill:#B22B18;stroke:#000000;stroke-width:1.5;stroke-linecap:round;} .st12{fill:#FFFFFF;stroke:#000000;stroke-width:0.8;stroke-linecap:round;} .st13{fill:#B22B18;stroke:#000000;stroke-width:0.8;} </style><path class="st0" d="M255.5,88.5c-6.7,9.1-19.4,14-58.2,14H97.1v223.2c0,37,12.7,51.6,24.9,65.5c9.7,11.5,34.6,33.4,74,52.2 c15.2,7.3,49.7,21.2,59.5,34.6 M255.5,88.5c6.7,9.1,19.4,14,58.2,14h100.1v223.2c0,37-12.7,51.6-24.9,65.5 c-9.7,11.5-34.6,33.4-74,52.2c-15.2,7.3-49.7,21.2-59.5,34.6"/><path class="st1" d="M255.5,101.3c-7.3,15.2-100.1,9.1-150.4,9.1c0,0,0,142.6,0,203.2c0,38.2,7.3,51,18.2,64.9 c16.4,20.6,38.8,37.6,73.4,55.8c22.4,11.5,51.6,20.6,58.8,32.2V101.3z"/><path class="st2" d="M255.5,88.5v-37"/><circle class="st3" cx="255.5" cy="44.2" r="7.3"/><circle class="st3" cx="268.8" cy="61.8" r="7.3"/><circle class="st3" cx="242.1" cy="71.5" r="7.3"/><path class="st2" d="M242.1,97V78.8"/><path class="st2" d="M268.8,97V68.5"/><path class="st4" d="M117.5,263.1c0,0-11.4,33.5-8.1,35.6c6,4,17.2-12.6,17.2-12.6"/><path class="st4" d="M112.9,285.4c0,0-11.2,10.7-13.9,9.2c-4.5-2.4,7.4-45.6,7.4-45.6"/><path class="st4" d="M95.7,250c0,0-17.6,34.5-15.3,37.2c4.6,5.5,20.5-9,20.5-9"/><path class="st4" d="M89.2,266.5c0,0-17.8,21.5-24,17c-4.3-3.2,20.6-50.2,20.6-50.2"/><path class="st4" d="M76.3,258.2c0,0-26.3,23.3-31.1,17.6c-4.9-6,31.8-45.3,31.6-45.7"/><path class="st4" d="M59,255c0,0-31.1,13.2-34.3,4c-0.8-2.3,29.7-29.5,52.6-41.1"/><path class="st4" d="M51.6,239.4c0,0-32.5,6.5-34.7-2c-1-4,17.9-13.2,49.5-24.7"/><path class="st4" d="M54.1,218.5c-4.7,1.2-34.3,8.3-44.7-5.5c-1.9-2.5,49.5-12.3,49.5-12.3"/><path class="st4" d="M57.4,201.6c-29.4,4.9-58.1-2.1-48.1-6.7c6.1-2.8,21.9-4.5,21.9-4.5"/><path class="st4" d="M65.3,192.3c0,0-28.5,0-37.9-1.9c-3.6-0.7-26.1-5.8-26.8-10.5c-0.6-4.2,8.4-6.9,14.1-7.3 c5.8-0.4,22.8,1.7,22.8,1.7"/><path class="st4" d="M168.3,207.1c0,0-39.5-30.6-69.8-37.5c-19.8-4.5-16.5,0-11.3,8.1c8.4,13,48.2,28.8,53.5,29.9"/><path class="st4" d="M216.1,267c-23.8,0.7-40.2,1.9-46.6-1c-6.4-2.8-3.4-8.2,8.1-12.6"/><path class="st4" d="M205.2,249.1c-25.9,6.7-53.6,7.5-60.6,4c-6-3,2.4-10,37-16.4"/><path class="st4" d="M193.1,266.4c-27.5,11-71.5,10.4-59.3,2.7L161,252"/><path class="st4" d="M209.1,265.3c0.1-0.1-19.4,16.5-24.6,26.4c-8.3,15.9,21.4,0.4,37-6.7"/><path class="st4" d="M150.8,258.3c-13,6.2-47.4,11.2-42.4,2.5c3.1-5.6,32.8-22.6,32.8-22.6"/><path class="st4" d="M133.1,245.7c-22.5,7.8-59.2,5.1-49.4-1.6c3.1-2.1,56.1-22,70.8-24.3"/><path class="st4" d="M117.5,231.5c-19.5,9.6-54.4,0.1-46.7-4.5c22.7-13.5,73.6-18.6,73.6-18.6"/><path class="st4" d="M87.6,221.6c0,0-26.5-4.9-26.5-8.7c0-4.2,15.7-6.2,15.7-6.2"/><path class="st4" d="M133.6,210.1c-41.9,4.8-104.6-12.7-80.1-16.9c16.9-2.9,35.6-0.6,55.7-2.2"/><path class="st4" d="M98.9,187c0-0.2-50-9.8-66.1-12.7c-12.3-2.2-28.6-15-24.9-20.6c1.2-1.8,10.3-0.6,28.6,4.9"/><path class="st4" d="M68.8,193.1c-19.2-12.4-20.5-14.5-5.8-14.7"/><path class="st4" d="M190.3,286.2c0,0-23.9,4.1-30.6,1.1c-3.1-1.4-8.1-2.9-2.1-8.2c2.5-2.2,8.6-7.1,8.6-7.1"/><path class="st4" d="M216.1,254.6c-19.5-6.9-42.4-19-62.2-31.8c-5.9-3.8-26.9-29.5-10.7-25.3c2.4,0.6,35.6,13.2,75.2,31.3"/><path class="st4" d="M197.5,294c0,0-6,16.4-1.5,17.6c2.8,0.7,26.6-20.4,27.1-21.5"/><path class="st4" d="M185.6,296.8c0,0-6.4,16.4-1.7,18.9c2,1,13.6-17.2,14.5-18"/><path class="st4" d="M185,286.1c-5.3,6.2-18.2,27.1-15.9,28.4c5.7,3.2,11.9-4,14.2-8.5"/><path class="st4" d="M174.5,286.3c-1,2.3-13.9,20.6-9.4,26.6c1.4,1.9,6.8-1.8,6.8-1.8"/><path class="st4" d="M162,285.1c0,0-10.1,23.2-6.4,25.9c2.7,2.1,11.8-5.7,11.8-5.7"/><path class="st4" d="M153.9,272.5c0,0-10,34.6-7,36.9c2.7,2.1,10-8.2,10-8.2"/><path class="st4" d="M142,272.6c0,0-9.5,33.7-6.4,35c4.4,1.8,14.4-11.6,14.4-11.6"/><path class="st4" d="M133.7,261.6c0,0-15.9,38.7-10.9,40.9c6.2,2.8,15.5-8,15.5-8"/><path class="st4" d="M85.7,175.9c-41.8-3.8-51.5-16.5-56.7-25c-6.4-10.4-4-10.6,1.9-8.5c20.4,7,62.8,24,67.9,27.2"/><path class="st4" d="M152.1,221.6c-11.8,0.9-28.9,6.7-32.5,10.9c-6.8,7.9,9.7,7.1,62.1,5.3"/><path class="st4" d="M219.7,292.3l-50.4,14.2L82,268.6l-42.3-53.8l3.5-14.3L26.5,187l24-25.5l62.2,21.4l107.5,50.4L219.7,292.3z"/><path class="st5" d="M27.3,140.8c-0.5-0.1-1-0.1-1.4,0.1c-0.4,0.1-0.8,0.4-1,0.8c-0.4,0.8-0.2,1.9,0.4,3.4c0.6,1.5,1.7,3.5,3.3,6.1 c1.1,1.7,2.4,3.6,4.1,5.6c-7.4-2.1-13.3-3.5-17.3-4.1c-2.2-0.3-3.8-0.4-5.1-0.4c-1.3,0.1-2.2,0.3-2.6,1c-1.1,1.7-0.7,3.8,0.6,5.9 c1.3,2.1,3.4,4.4,6,6.5c3.2,2.6,7.1,4.9,11.1,6.7c-4.1-0.3-8.1-0.6-10.5-0.5c-2.9,0.2-6.6,1-9.6,2.2c-1.5,0.6-2.8,1.4-3.7,2.3 c-0.9,0.9-1.5,2.1-1.3,3.4c0.1,0.8,0.6,1.5,1.4,2.1s1.7,1.2,2.9,1.8c2.3,1.2,5.3,2.3,8.4,3.3c5.2,1.7,10.1,2.8,12.8,3.4 c-5.2,0.7-12.4,1.9-16.4,3.8c-1.2,0.6-2,1.1-2.3,2c-0.1,0.4-0.1,0.9,0,1.3c0.2,0.4,0.4,0.7,0.8,1.1c1.4,1.3,4.3,2.3,8.2,3.2 c6.4,1.4,15.7,2.2,25.9,1.9c-6.1,1.3-12.4,2.5-18.3,3.9c-4.2,1-8,2-10.6,2.9c-1.3,0.4-2.3,0.8-3,1.2c-0.4,0.2-0.6,0.4-0.8,0.6 c-0.1,0.1-0.2,0.3-0.2,0.5c0,0.2,0,0.5,0.2,0.6c4.1,5.4,10.9,7.7,18,8.4c5.6,0.6,11.2,0.1,16-0.6c-7.7,3.2-14.2,6.2-18.6,8.7 c-2.7,1.5-4.8,2.9-6.1,4.1c-0.7,0.6-1.2,1.2-1.5,1.8s-0.5,1.2-0.3,1.8c0.4,1.7,1.8,2.8,3.7,3.5c1.9,0.7,4.2,1.1,6.9,1.2 c4.7,0.3,10.2-0.2,14.9-0.8c-0.3,0.3-0.7,0.5-1,0.8c-5,4.1-9.2,7.9-12.1,10.8c-1.5,1.5-2.6,2.7-3.4,3.7c-0.4,0.5-0.7,0.9-0.9,1.3 c-0.2,0.4-0.4,0.7-0.2,1.2c0.7,2,2.5,3,4.8,3.4c2.3,0.4,5.1,0.2,8.2-0.3c5.6-0.9,11.6-2.9,16-4.5c-2.7,3.6-5.1,7.2-6.8,10.1 c-1,1.8-1.7,3.4-2,4.8c-0.3,1.4-0.3,2.6,0.4,3.4c0.5,0.6,1.3,1,2.2,1.1c0.9,0.1,1.8,0,2.9-0.3c2.1-0.6,4.5-1.8,7.1-3.4 c4.6-2.8,9.4-6.5,13.3-9.5c-1.9,4.4-3.6,8.5-4.7,11.9c-0.6,2-1.1,3.7-1.3,5c-0.1,0.7-0.1,1.2,0,1.7c0.1,0.5,0.3,1,0.7,1.3 c1.4,1,3.2,0.9,5,0.2c1.9-0.7,3.9-2,5.9-3.6c3.1-2.4,6.1-5.4,8.6-8c-1.4,3.1-2.7,6.3-3.6,8.7c-0.5,1.5-0.9,2.9-1.1,3.9 c-0.1,0.5-0.2,1-0.1,1.4c0,0.4,0.1,0.8,0.3,1.1c1,1.3,2.6,1.6,4.3,1.4c1.7-0.2,3.5-0.9,5.4-1.9c3.3-1.7,6.5-4.2,8.8-6 c-0.4,2.5-0.8,4.9-0.9,6.9c-0.1,1.8-0.2,3.3,0,4.6c0.1,1.2,0.4,2.2,1.2,2.6c0.7,0.4,1.5,0.2,2.4-0.1c0.9-0.3,1.9-0.9,2.9-1.6 c1.8-1.2,3.7-2.8,5.4-4.2c-0.3,1.6-0.8,3.4-1,4.7c-0.2,1.3-0.3,2.4-0.2,3.3c0.1,0.9,0.2,1.6,0.8,2c1.2,0.8,2.5,0.9,3.8,0.5 c1.3-0.3,2.7-1.1,4-2.1c2-1.5,3.9-3.5,5.6-5.4c-0.4,1.6-0.7,3.1-0.9,4.4c-0.2,1.6-0.3,2.9-0.2,3.9c0.1,1.1,0.5,2,1.3,2.3 c2.3,1,5,0.4,7.4-0.9c2.1-1.1,4-2.6,5.5-4c-0.3,1.7-0.7,3.6-0.8,4.9c-0.1,1.3-0.2,2.4-0.1,3.2c0,0.4,0.1,0.8,0.2,1.1 c0.1,0.3,0.4,0.6,0.7,0.8c0.9,0.4,1.9,0.2,2.9-0.2c1-0.4,2-1.1,3.1-1.9c1.9-1.4,3.7-3.4,5.2-5.1c-0.2,1-0.5,2.4-0.7,3.3 c-0.2,1.4-0.3,2.5-0.3,3.5c0,0.9,0.1,1.7,0.7,2.1c0.7,0.5,1.6,0.5,2.4,0.2c0.8-0.3,1.6-0.9,2.4-1.6c1.3-1.1,2.5-2.4,3.5-3.7 c-0.3,1.3-0.5,2.6-0.5,3.6c0,1.4,0.2,2.5,1,3.1c0.6,0.4,1.3,0.5,2.1,0.4c0.7-0.1,1.5-0.4,2.4-0.7c1.4-0.6,2.8-1.5,4-2.4 c-0.1,1.7,0,3.3,0.9,4.4c0.5,0.7,1.3,0.8,2.1,0.8c0.5,0,1.1-0.3,1.6-0.5c0,0.2-0.1,0.5,0,0.7c0.1,0.3,0.2,0.6,0.5,0.8 c2.7,1.5,5.6,0.9,8-0.7c2-1.2,3.6-3.1,4.9-4.9c-0.1,1.2-0.2,2.5,0,3.5c0.2,1.4,0.8,2.6,1.9,3.2c0.4,0.2,0.9,0.1,1.3-0.1 c0.4-0.2,0.7-0.5,1.2-0.9c0.8-0.8,1.8-2,2.9-3.3c1.7-2.1,3.5-4.7,5.1-7.1c0,0.1,0,0.2,0,0.2c-0.2,1.7-0.3,3.2-0.1,4.5 c0.1,0.6,0.3,1.2,0.6,1.7c0.3,0.5,0.8,0.8,1.4,1c0.6,0.2,1.1-0.1,1.8-0.4c0.7-0.3,1.5-0.8,2.5-1.5c1.9-1.3,4.2-3,6.7-5 c5-4,10.5-8.8,13.8-11.8l0.4-0.4l-0.8-0.9l-0.4,0.4c-3.3,3-8.8,7.8-13.7,11.7c-2.5,2-4.8,3.8-6.6,5c-0.9,0.6-1.7,1.1-2.3,1.4 s-1.1,0.3-1,0.3c-0.3-0.1-0.5-0.2-0.7-0.5c-0.2-0.3-0.3-0.7-0.4-1.2c-0.2-1.1-0.1-2.5,0.1-4.1c0.1-0.9,0.4-1.8,0.6-2.7l0-0.1 c0.5-2.3,1.1-4.5,1.6-6c6.9-2.6,14.9-6.4,21.4-9.4l0.5-0.2l-0.5-1l-0.5,0.2c-6.6,3.1-14.7,6.9-21.5,9.5l-0.4,0.1 c-1.4,0.5-2.8,1-4,1.4c-1.8,0.6-3.5,0.9-4.8,1.1c-1.4,0.1-2.4,0-3-0.3c-0.6-0.3-0.9-0.7-0.9-1.6c0-0.9,0.4-2.3,1.4-4.1 c2-3.7,6.2-8.6,10.5-13.2c4.3-4.5,8.8-8.6,11.5-11c3.3-0.1,5.4-0.1,9-0.3l0.6,0l0-1.2l-0.6,0c-3.7,0.1-5.9,0.1-9.1,0.3l-0.3,0 c-6,0.2-12,0.4-16.7,0.5l0-0.1l-0.4,0.1c-0.9,0-2.4,0.1-3.3,0.1c-7.9,0-13.5-0.4-16.6-1.8c-1.4-0.6-2.3-1.4-2.7-2.1 c-0.4-0.7-0.4-1.5,0-2.4c0.9-1.8,3.7-4,8.4-6.1c8.6-0.8,18-2.4,27.3-4.6l0.5-0.1c4.3,1.9,8.6,3.6,12.6,5l0.5,0.2l0.4-1.1l-0.5-0.2 c-19.4-6.9-42.3-19-62.1-31.7c-0.7-0.5-1.7-1.3-2.8-2.4l-0.1-0.1c-1-1-2.2-2.2-3.4-3.5c-2.4-2.7-4.9-6-6.8-9l-0.1-0.1 c-0.1-0.1-0.2-0.2-0.2-0.3c-2-3.1-3.1-6.1-3-7.6c0.1-0.8,0.4-1.2,1.2-1.4s2.2-0.2,4.1,0.3c0.2,0.1,1,0.3,2.2,0.8 c1.2,0.4,2.9,1,4.9,1.8c4.1,1.5,9.7,3.7,16.4,6.5c0.4,0.2,1,0.4,1.5,0.6l0.3,0.1c13.4,5.4,30.7,12.8,49.8,21.5l0.5,0.2l0.5-1 l-0.5-0.2c-19.1-8.8-36.5-16.1-49.9-21.6l-0.1-0.1c0,0-9.9-7.7-23.6-16.2c-13.4-8.4-30.5-17.6-45.6-21.2l-0.3-0.2 c-1.4-0.9-4.9-2.5-10-4.7c-5-2.2-11.4-4.8-18.3-7.6c-13.8-5.5-29.5-11.5-39.7-15.1C29.6,141.3,28.3,140.9,27.3,140.8z M27.2,141.9 c0.9,0.1,2.1,0.5,3.6,1c10.2,3.5,25.9,9.5,39.7,15.1c6.9,2.8,13.3,5.4,18.3,7.6c3.1,1.3,4.2,1.9,6,2.8c-2.9-0.6-5.3-0.9-7-1 c-1.2,0-2.2,0-3,0.2c-0.8,0.2-1.4,0.6-1.7,1.1s-0.4,1.2-0.3,1.9c0.1,0.7,0.4,1.4,0.8,2.2c0.4,0.7,1,1.7,1.5,2.5 c-20.3-1.9-33-6-41.1-10.6c-4.1-2.4-7.1-4.8-9.4-7.3l-0.1-0.1c-2.2-2.4-3.7-4.7-5-6.7c-1.6-2.6-2.6-4.5-3.2-5.9 c-0.6-1.4-0.6-2.2-0.4-2.5c0.1-0.1,0.1-0.2,0.3-0.2C26.4,141.9,26.7,141.9,27.2,141.9L27.2,141.9z M10.2,153.5 c1.1-0.1,2.7,0,4.9,0.3c4.2,0.6,10.4,2.1,18.6,4.5l0.2,0.1c2.3,2.5,5.3,5,9.5,7.3c8.4,4.8,21.4,8.9,42.3,10.8l0.1,0 c0.4,0.6,0.6,1,1,1.6c1.6,2.4,4.3,4.9,7.5,7.3c-7.5-1.5-22.8-4.4-37.6-7.2l-0.3,0c-9.2-1.7-18.4-3.6-23.5-4.5 c-0.9-0.2-1.8-0.5-2.7-0.7c0,0-0.8-0.2-0.9-0.2c-5.1-1.6-10.4-4.6-14.5-7.9c-2.5-2.1-4.6-4.2-5.7-6.2s-1.4-3.5-0.6-4.7 C8.5,153.9,9.1,153.6,10.2,153.5L10.2,153.5z M87.6,168.5c2.3,0.1,5.8,0.6,10.8,1.8c0.2,0,0.4,0.1,0.6,0.2l0,0l0,0 c14.9,3.5,32,12.7,45.4,21.1c10.1,6.3,16.5,11,20,13.6c-5.3-2.1-10.4-4.1-13.8-5.4c-2-0.8-3.7-1.4-4.9-1.8c-1.2-0.4-2-0.7-2.3-0.8 c-2.1-0.5-3.6-0.6-4.8-0.3c-1.1,0.4-1.8,1.3-2,2.4c-0.2,2,1,4.6,2.7,7.5c-1.7-0.5-4.5-1.4-8.5-3.1c-4.6-1.9-10.3-4.3-16-7.2 c-3.5-1.7-7-3.6-10.3-5.6l-0.1,0c-7.5-4.4-14-9.1-16.8-13.3c-1.3-2-2.5-3.8-3.2-5.3c-0.4-0.7-0.6-1.3-0.7-1.8s0-0.8,0.1-1.1 c0.2-0.2,0.4-0.5,1-0.6C85.6,168.5,86.5,168.4,87.6,168.5L87.6,168.5z M14.7,173.1c2.9-0.2,9.2,0.3,14.3,0.8c1.2,0.4,2.5,0.8,3.7,1 c4.6,0.8,12.9,2.5,21.1,4c-0.4,0.2-0.8,0.4-1.1,0.8c-0.3,0.4-0.3,1-0.2,1.5c0.2,0.5,0.5,1,0.9,1.5c1.7,2,5.7,4.8,11.6,8.7 c-1,0.1-2,0.2-3,0.2c-3.7,0-10.3-0.1-17.1-0.4c-6.9-0.3-13.9-0.7-17.6-1.5c-1.8-0.4-8.3-1.8-14.4-3.8c-3.1-1-6-2.1-8.2-3.2 c-1.1-0.6-2-1.1-2.6-1.7s-0.9-1-1-1.4c-0.1-0.9,0.2-1.6,1-2.4c0.8-0.8,2-1.5,3.4-2.1C8.3,174.1,12,173.3,14.7,173.1z M56.4,179.4 c15.5,2.9,32.5,6.1,39.4,7.5l0.5,0.1c1.9,1.3,3.9,2.6,6,3.9c-12.3,0.5-24,0-35.2,0.5l-0.2-0.1c-6.7-4.4-10.9-7.4-12.5-9.3 c-0.4-0.5-0.6-0.9-0.7-1.1c-0.1-0.3-0.1-0.4,0-0.5c0.2-0.3,1-0.7,2.5-0.9L56.4,179.4z M29,191.2c4,0.6,9.9,1.1,16.1,1.3 c3.5,0.1,5.7,0.1,8.7,0.2c-0.1,0-0.3,0-0.4,0.1c-3,0.5-4.8,1.1-5.6,2.3c-0.4,0.6-0.4,1.3-0.2,1.9c0.3,0.6,0.8,1.2,1.6,1.7 c1.1,0.8,2.9,1.7,4.9,2.5c-1.3,0.3-2.6,0.5-4.3,0.8c-0.2,0-0.5,0.1-0.6,0.1l-0.1,0c-13,1.3-25.2,0.3-32.9-1.4c-3.9-0.9-6.6-2-7.7-3 c-0.3-0.2-0.4-0.5-0.5-0.6c-0.1-0.2-0.1-0.3,0-0.4c0.1-0.3,0.6-0.8,1.7-1.3c4.3-2,14.2-3.5,19-4.2L29,191.2z M104.1,192 c3.3,1.9,6.7,3.7,10.2,5.5c5.8,2.8,11.5,5.3,16.1,7.2c4.6,1.9,8.2,3.1,9.9,3.5l0,0c0,0.1,0.1,0.1,0.1,0.2c-2.7,0.3-6.9,0.9-11.6,1.6 c-16.8,1.2-35.9-0.8-51.4-3.7l0-0.2l-0.6,0.1c0,0-0.1,0-0.1,0c-3.3-0.7-6.7-1.3-9.6-2c-4.3-1.1-8-2.2-10.9-3.3l0,0 c-2.8-1.1-5-2.1-6.3-3.1c-0.6-0.5-1-0.9-1.2-1.3c-0.2-0.3-0.1-0.5,0.1-0.8c0.4-0.5,2-1.3,4.9-1.8c2.8-0.5,5.7-0.8,8.7-1 c0.1,0,0.9-0.1,0.9-0.1c12.7-0.9,26.4,0,40.9-0.8L104.1,192z M56,201.9c3,1.1,6.7,2.2,10.8,3.3c2,0.5,4.5,0.9,6.7,1.4 c-1.4,0.3-3,0.6-4.7,1c-2,0.5-4,1.2-5.5,2c-0.8,0.4-1.4,0.9-1.9,1.4c-0.5,0.5-0.8,1.2-0.8,1.9c0,0.4,0.2,0.8,0.5,1.1 c-4.6,1.7-8.9,3.4-12.9,5c-0.5,0.2-0.8,0.3-1.2,0.5l-0.2,0c-5.3,0.9-12.7,1.8-19.6,1.1c-6.8-0.7-13.2-2.8-17-7.7 c0.1-0.1,0.2-0.1,0.3-0.2c0.6-0.3,1.6-0.7,2.8-1.1c2.6-0.8,6.3-1.8,10.5-2.8c8.2-2,18.3-4,25.5-5.5l0.4-0.1c0.1,0,0.2,0,0.3-0.1 c2.3-0.5,4.3-0.8,5.8-1.1L56,201.9z M76.6,207.2c13,2.5,28.4,4.4,43.1,4.2c-11.1,2-24.1,4.9-35.3,8.9l0,0l-0.6-0.1 c-2.3-0.5-5.3-1.2-8.4-1.9l0-0.1l-0.1,0.1c-1.9-0.5-3.8-0.9-5.5-1.5c-2.4-0.7-4.5-1.5-6-2.2c-0.7-0.4-1.3-0.7-1.7-1.1 c-0.4-0.3-0.5-0.6-0.5-0.7c0-0.3,0.2-0.7,0.5-1.1c0.4-0.4,0.9-0.8,1.6-1.2c1.4-0.7,3.3-1.4,5.3-1.9 C72.8,207.8,76.2,207.3,76.6,207.2L76.6,207.2z M141.2,209.4c1.8,2.6,3.8,5.3,5.9,7.6c1,1.2,2,2.2,3,3.1c-5.4,1.3-13,3.7-21.1,6.4 c0,0-0.7,0.2-0.8,0.3c-5.5,1.9-11.2,3.8-16.6,5.7c-1.6,0.6-2.7,1-4.3,1.6c-7.7,1.4-16.2,1.1-23.1-0.1c-5.1-0.9-9.3-2.2-11.7-3.5 c-1.2-0.7-1.9-1.3-2-1.8c-0.1-0.2-0.1-0.3,0-0.5c0.1-0.2,0.3-0.4,0.7-0.7c14.6-8.7,41.1-13.9,57.9-16.5c0.2,0,1.1-0.1,1.1-0.1 c4.3-0.7,8.5-1.2,10.9-1.5L141.2,209.4z M62.1,214.8c0.4,0.3,0.8,0.5,1.3,0.8c1.6,0.8,3.8,1.6,6.1,2.3c1.4,0.4,2.9,0.8,4.4,1.2 c-10.2,5.6-21.2,13.6-30.4,21l-0.3,0c-4.9,0.7-11.1,1.2-16.2,0.9c-2.6-0.1-4.8-0.5-6.5-1.2c-1.7-0.7-2.7-1.5-3-2.7 c-0.1-0.2,0-0.5,0.2-0.9s0.7-0.9,1.3-1.5c1.2-1.1,3.2-2.5,5.9-4c5.1-2.9,12.7-6.4,22.3-10.2l0.2-0.1c0.4-0.2,0.7-0.3,1.1-0.5 C52.7,218.4,57.2,216.6,62.1,214.8L62.1,214.8z M75.5,219.5c2.6,0.6,4.9,1.2,7,1.6c-4.4,1.7-8.5,3.4-11.9,5.5 c-0.5,0.3-0.9,0.7-1.2,1.1c-0.2,0.5-0.3,1-0.1,1.5c0.3,0.9,1.3,1.7,2.6,2.4c0.6,0.3,1.5,0.6,2.2,0.9c-4,4.5-12.3,14-19.2,23 c-0.2,0.3-0.3,0.5-0.5,0.7l-0.3,0.1c-4.4,1.6-11.2,3.9-17.1,4.9c-3,0.5-5.7,0.7-7.8,0.3c-2.1-0.4-3.4-1.2-3.9-2.7 c0.1,0.2,0,0,0.2-0.2c0.1-0.3,0.4-0.6,0.8-1.1c0.7-0.9,1.9-2.1,3.3-3.6c2.9-2.9,7.1-6.7,12.1-10.8C51.4,235,64.2,225.5,75.5,219.5 L75.5,219.5z M151,221.1c1,0.9,1.9,1.7,2.7,2.2c7.6,4.9,15.7,9.6,23.8,14.1c-15.9,0.5-28.2,1-37.5,1l-0.2,0c-4.8,0-9,0-12.2-0.2 c-4.7-0.3-7.7-0.9-8.8-1.8c-0.6-0.4-0.7-0.7-0.6-1.3c0.1-0.5,0.5-1.3,1.3-2.2c1.2-1.4,4.7-3.4,9-5.1 C137.2,224.9,145.4,222.3,151,221.1L151,221.1z M120.4,230.7c-0.8,0.5-1.4,1.1-1.9,1.6c-0.9,1-1.4,1.9-1.6,2.8 c-0.1,0.9,0.3,1.8,1.1,2.4c1.6,1.2,4.6,1.7,9.4,2c2.8,0.2,6.4,0.2,10.4,0.2c-2.5,1.6-6.9,4.4-11.4,7.4l-0.5,0.1 c-11.1,2.6-23.9,3.2-32.7,2.4c-4.4-0.4-7.9-1.2-9.6-2.1c-0.8-0.5-1.1-0.9-1.1-1.2c0-0.3,0.3-0.9,1.4-1.6c0.2-0.2,1.3-0.7,2.9-1.4 c1.6-0.7,3.7-1.5,6.2-2.5c3.8-1.5,9.1-3.5,14.3-5.4c5.2-1.9,10.8-3.9,10.8-3.9C118.9,231.2,119.6,230.9,120.4,230.7z M75.2,232.9 c2.4,0.9,5.2,1.7,8.7,2.3c0.1,0,0.2,0,0.3,0c-2.4,4.7-8.2,15.9-12.9,26.4c0,0.1-0.1,0.2-0.1,0.2L71,262c-3.9,3.2-9.6,7.6-14.6,10.6 c-2.5,1.5-4.9,2.7-6.8,3.2c-1,0.3-1.8,0.4-2.4,0.3c-0.6-0.1-1.1-0.3-1.4-0.7c-0.3-0.4-0.4-1.2-0.1-2.4c0.3-1.2,1-2.8,1.9-4.5 c1.9-3.5,5-7.9,8.4-12.3c6.8-9,15.2-18.4,19.2-23L75.2,232.9z M85.3,235.3c5.2,0.8,11.1,1.1,16.9,0.6c-3.3,1.2-7.1,2.6-9.7,3.6 c-2.5,1-4.6,1.9-6.2,2.5c-1.6,0.7-2.6,1.1-3.1,1.5c-1.2,0.8-1.9,1.6-1.9,2.6c0,0.9,0.7,1.7,1.7,2.2c2,1.1,5.5,1.9,10,2.3 c0.5,0,1,0,1.5,0.1l-0.1,0.1c-1.4,2.8-5.4,10.9-8.9,18.7c-2.6,2.9-6.7,7.1-10.6,10.1c-2,1.5-3.9,2.8-5.6,3.4c-1.7,0.6-3,0.6-3.9-0.1 c-0.1,0-0.2-0.2-0.2-0.5c-0.1-0.3-0.1-0.8,0-1.4c0.1-1.2,0.6-2.9,1.2-4.8c1.2-3.8,3.3-8.6,5.5-13.7l0-0.1c0.1-0.1,0.1-0.3,0.2-0.4 c4.7-10.5,10.5-21.8,12.9-26.5L85.3,235.3z M179.4,238.5c7.4,4,14.8,7.7,22,10.9c-8.8,2.1-17.7,3.5-25.8,4.3l-0.5,0.1 c-2.9,0.3-5.8,0.5-8.4,0.6c-5.2,0.3-9.9,0.2-13.7-0.1c-3.8-0.3-6.6-0.9-8.2-1.7c-0.6-0.3-1-0.7-1.3-1c-0.2-0.3-0.3-0.6-0.2-1 c0.2-0.8,1.3-2,3.4-3.2c4.3-2.6,12.9-5.6,26.9-8.5l0.6-0.2c1.7-0.1,2.7-0.1,4.6-0.1L179.4,238.5z M168.6,238.8 c-11,2.6-18.3,5.2-22.3,7.5c-2.3,1.3-3.6,2.6-4,3.9c-0.2,0.7-0.1,1.4,0.3,1.9c0.4,0.6,1,1,1.7,1.4c1.8,0.9,4.8,1.5,8.6,1.8 c0.4,0,1,0,1.5,0.1l-2.5,1.6l0,0c-9.7,4.1-22.2,7-31.2,7.6c-4.5,0.3-8.2,0.1-10.1-0.7c-1-0.4-1.4-0.8-1.5-1.3 c-0.1-0.5,0.1-1.3,1-2.3c0.7-0.9,2.7-2.5,5.2-4.3c2.5-1.9,5.7-4,8.9-6.2c6.4-4.3,13.1-8.5,16-10.3l0,0 C147.3,239.5,157.5,239.2,168.6,238.8L168.6,238.8z M123.9,248.7c-0.2,0.1-0.3,0.2-0.5,0.3c-3.2,2.2-6.4,4.3-8.9,6.2 c-2.6,1.9-4.5,3.4-5.4,4.5c-1,1.2-1.5,2.3-1.3,3.3c0.2,1,1.1,1.7,2.2,2.2c1.4,0.6,3.5,0.8,5.9,0.8c-1.3,4.1-3.8,11.7-5.5,18.7 c-0.3,1.1-0.4,1.9-0.6,2.9l0,0l-0.4,0.4c-1.8,1.5-4,3.3-5.9,4.6c-1,0.6-1.9,1.2-2.7,1.5c-0.7,0.3-1.3,0.3-1.5,0.2 c-0.2-0.1-0.5-0.6-0.6-1.7c-0.1-1.1-0.1-2.6,0-4.3c0.3-3.5,1.1-8.2,2-13c1.9-9.7,4.7-20.1,5.7-24.1l0-0.2 C112.2,250.5,118.2,249.8,123.9,248.7L123.9,248.7z M105.3,250.8c-1.1,4.1-3.8,14.4-5.7,24c-0.3,1.6-0.6,3-0.8,4.5l-0.2,0.1 c-2.2,1.8-5.9,4.7-9.5,6.6c-1.8,0.9-3.5,1.6-5,1.8c-1.5,0.2-2.5-0.1-3.3-1c0,0-0.1-0.1-0.1-0.4c0-0.3,0-0.7,0.1-1.1 c0.2-1,0.6-2.3,1.1-3.8c1.1-3,2.7-6.9,4.5-10.9c0.1-0.2,0.1-0.3,0.2-0.5c0,0,0,0,0,0l0.2-0.6c3.5-7.7,7.3-15.5,8.7-18.3l0.3-0.6 C96,250.8,101.9,251,105.3,250.8L105.3,250.8z M172.4,255.1c-3.3,1.7-5.4,3.5-6.3,5.4c-0.6,1.2-0.6,2.4,0,3.4c0.6,1,1.7,1.9,3.2,2.6 c3.3,1.4,8.8,1.8,16.2,1.8c-12.9,3.9-27.6,5.8-38.4,5.9c-5.9,0-10.7-0.5-13.1-1.4c-0.6-0.2-1-0.5-1.3-0.7c-0.3-0.2-0.3-0.4-0.3-0.6 c0-0.2,0.1-0.4,0.3-0.8c0.3-0.3,0.8-0.7,1.5-1.2l18.3-11.5l0.4-0.2l0-0.1l3.3-2.1l0.3-0.2c3.1,0.1,6.5,0.1,10.3,0 C168.5,255.5,170.5,255.3,172.4,255.1L172.4,255.1z M147.2,260.1l-13.6,8.6c-0.8,0.5-1.3,0.9-1.7,1.4s-0.6,1-0.6,1.5 c0,0.5,0.3,1,0.7,1.4s1,0.7,1.6,0.9c1.6,0.6,4.2,1,7.2,1.2c-1.1,3.9-3.1,11.5-4.5,18.4c-0.2,1-0.3,1.8-0.5,2.8l-0.4,0.3 c-1.6,1.5-3.7,3.3-6,4.4c-2.2,1.2-4.5,1.7-6.4,0.8c-0.3-0.1-0.5-0.5-0.6-1.4c-0.1-0.9,0-2.1,0.2-3.6c0.3-1.8,0.8-4.1,1.5-6.5 l0.1-0.3c0.4-1.4,0.8-2.8,1.2-4.3c2.6-8.3,6.1-17.5,7.8-21.7l0.1-0.2C138,263,142.7,261.7,147.2,260.1z M132,264.2 c-1.7,4.4-5.1,13.1-7.7,21.3c-0.5,1.5-0.9,3-1.3,4.4l0,0c-1.9,2.3-4.4,5-6.9,6.9c-1.2,0.9-2.5,1.6-3.6,1.9c-1.1,0.3-2.1,0.2-2.9-0.4 c0,0-0.3-0.4-0.3-1.1c0-0.7,0-1.8,0.2-3c0.3-2.5,1.1-5.8,2-9.2c1.8-6.9,4.3-14.7,5.6-18.8l0.1-0.2c1.2,0,2.2,0,3.5-0.1 C124.1,265.6,128,265,132,264.2L132,264.2z M205.4,267.9c-2.7,2.4-6.6,6-10.6,10.1c-2.6,2.7-5,5.4-7.1,8.1l-0.2,0 c-3.2,0.5-8.9,1.2-14.3,1.6c-5.4,0.3-10.8,0.2-13.2-0.9c-1.6-0.7-3.5-1.5-4.2-2.5c-0.4-0.5-0.5-0.9-0.2-1.7c0.3-0.8,1-1.8,2.5-3.1 c1.5-1.3,4.3-3.6,6.3-5.2l0.4-0.3c8.4-1.1,17.2-2.9,25.1-5.7l0,0C194.2,268.2,199.9,268,205.4,267.9L205.4,267.9z M162.5,274.3 c-1.9,1.5-4.1,3.3-5.3,4.4c-1.5,1.4-2.4,2.5-2.8,3.6c-0.4,1.1-0.2,2,0.4,2.8c1.1,1.5,3.2,2.1,4.7,2.8c0.2,0.1,0.5,0.1,0.8,0.2 c-1.4,3.6-3.6,9.4-4.9,14.5l-0.1,0l-0.4,0.5c-1.1,1.4-2.8,3.3-4.3,4.7c-0.8,0.7-1.5,1.2-2.1,1.4c-0.6,0.2-1,0.2-1.2,0 c0,0-0.2-0.5-0.3-1.3c0-0.8,0.1-1.9,0.2-3.3c0.4-2.6,1.1-6.1,2-9.8c1.8-7.3,4.2-15.4,5.3-19.5l0-0.1 C157.1,274.9,159.7,274.6,162.5,274.3L162.5,274.3z M153.2,275.1c-1.1,4.1-3.5,12-5.2,19.3c-0.4,1.8-0.6,2.8-1,4.5l-0.2,0.3 l-0.4,0.4c-1.6,1.9-3.7,4.1-5.7,5.6c-1,0.8-2,1.4-2.8,1.7c-0.8,0.3-1.5,0.4-2,0.2c0,0,0,0-0.1-0.2c-0.1-0.2-0.1-0.4-0.2-0.8 c-0.1-0.7,0-1.7,0.1-3c0.2-2.5,0.9-5.8,1.6-9.4c1.5-7,3.6-14.8,4.6-18.6c1.6,0.1,3.2,0.2,5.1,0.2 C148.9,275.4,151.1,275.2,153.2,275.1L153.2,275.1z M186.7,287.4c-1,1.4-2,2.8-2.6,4.1c-1,1.9-1.5,3.4-1.5,4.6 c0,1.2,0.6,2.2,1.5,2.7c0.1,0,0.2,0,0.2,0.1c-0.7,2-1.6,5.2-2.2,8.3l-0.3,0.5c-1.3,2.1-3.4,4.5-5.6,5.9s-4.5,1.9-6.8,0.7 c0,0,0,0.1,0,0c0-0.1,0-0.3,0-0.6c0-0.1,0.1-0.3,0.1-0.4l0-0.1c0.1-0.5,0.3-1.1,0.6-1.9c0.8-2,2.2-4.6,3.8-7.4 c3.2-5.7,7.5-12.1,10.4-15.8l0.2-0.2C185.3,287.6,186.1,287.5,186.7,287.4L186.7,287.4z M183,287.9c-2.9,3.8-6.8,9.8-9.9,15.2 c-1.6,2.9-3,5.5-3.9,7.6c-0.3,0.6-0.4,1.1-0.5,1.6l0,0c-0.7,0.3-1.4,0.5-2,0.6c-0.6,0.1-0.9,0-1.1-0.3c-0.8-1-1-2.6-0.7-4.6l0-0.2 c0.3-2,1.1-4.3,2.1-6.6c2.1-4.7,5-9.5,6.7-12.4l0,0C177,288.6,180.1,288.2,183,287.9L183,287.9z M161.3,288.4 c2.8,0.7,6.8,0.7,11,0.5c-1.7,2.9-4.4,7.3-6.4,11.9c-1,2.3-1.8,4.6-2.1,6.7c-1.4,1-3.1,2.1-4.6,2.8c-0.8,0.3-1.5,0.6-2,0.6 s-1,0-1.2-0.2c-0.3-0.2-0.6-1-0.6-2.2c0-1.2,0.3-2.8,0.7-4.6C157.3,298.6,159.8,292.1,161.3,288.4z M196,296.8 c-0.5,1.5-0.9,3.2-1.4,5.2l-0.2,0.2c-1.9,2.8-4.4,6.3-6.5,8.9c-1.1,1.3-2,2.5-2.8,3.2c-0.4,0.4-0.7,0.6-0.9,0.8 c-0.2,0.1-0.3,0.1-0.1,0.1c-0.7-0.4-1.1-1.2-1.3-2.4c-0.2-1.2-0.1-2.8,0.2-4.5c0.5-3.3,1.6-7,2.4-9.3c0.7,0.1,1.4,0.1,2.3,0 c1.5-0.2,3.2-0.6,5.1-1.1C193.8,297.7,194.9,297.2,196,296.8L196,296.8z"/><path class="st4" d="M393.5,263.1c0,0,11.4,33.5,8.1,35.6c-6,4-17.2-12.6-17.2-12.6"/><path class="st4" d="M398,285.4c0,0,11.2,10.7,13.9,9.2c4.5-2.4-7.4-45.6-7.4-45.6"/><path class="st4" d="M415.3,250c0,0,17.6,34.5,15.3,37.2c-4.6,5.5-20.5-9-20.5-9"/><path class="st4" d="M421.8,266.5c0,0,17.8,21.5,24,17c4.3-3.2-20.6-50.2-20.6-50.2"/><path class="st4" d="M434.6,258.2c0,0,26.3,23.3,31.1,17.6c4.9-6-31.8-45.3-31.6-45.7"/><path class="st4" d="M452,255c0,0,31.1,13.2,34.3,4c0.8-2.3-29.7-29.5-52.6-41.1"/><path class="st4" d="M459.3,239.4c0,0,32.5,6.5,34.7-2c1-4-17.9-13.2-49.5-24.7"/><path class="st4" d="M456.9,218.5c4.7,1.2,34.3,8.3,44.7-5.5c1.9-2.5-49.5-12.3-49.5-12.3"/><path class="st4" d="M453.5,201.6c29.4,4.9,58.1-2.1,48.1-6.7c-6.1-2.8-21.9-4.5-21.9-4.5"/><path class="st4" d="M445.7,192.3c0,0,28.5,0,37.9-1.9c3.6-0.7,26.1-5.8,26.8-10.5c0.6-4.2-8.4-6.9-14.1-7.3 c-5.8-0.4-22.8,1.7-22.8,1.7"/><path class="st4" d="M342.7,207.1c0,0,39.5-30.6,69.8-37.5c19.8-4.5,16.5,0,11.3,8.1c-8.4,13-48.2,28.8-53.5,29.9"/><path class="st4" d="M294.8,267c23.8,0.7,40.2,1.9,46.6-1c6.4-2.8,3.4-8.2-8.1-12.6"/><path class="st4" d="M305.8,249.1c25.9,6.7,53.6,7.5,60.6,4c6-3-2.4-10-37-16.4"/><path class="st4" d="M317.8,266.4c27.5,11,71.5,10.4,59.3,2.7L350,252"/><path class="st4" d="M301.8,265.3c-0.1-0.1,19.4,16.5,24.6,26.4c8.3,15.9-21.4,0.4-37-6.7"/><path class="st4" d="M360.2,258.3c13,6.2,47.4,11.2,42.4,2.5c-3.1-5.6-32.8-22.6-32.8-22.6"/><path class="st4" d="M377.9,245.7c22.5,7.8,59.2,5.1,49.4-1.6c-3.1-2.1-56.1-22-70.8-24.3"/><path class="st4" d="M393.4,231.5c19.5,9.6,54.4,0.1,46.7-4.5c-22.7-13.5-73.6-18.6-73.6-18.6"/><path class="st4" d="M423.3,221.6c0,0,26.5-4.9,26.5-8.7c0-4.2-15.7-6.2-15.7-6.2"/><path class="st4" d="M377.4,210.1c41.9,4.8,104.6-12.7,80.1-16.9c-16.9-2.9-35.6-0.6-55.7-2.2"/><path class="st4" d="M412,187c0-0.2,50-9.8,66.1-12.7c12.3-2.2,28.6-15,24.9-20.6c-1.2-1.8-10.3-0.6-28.6,4.9"/><path class="st4" d="M442.1,193.1c19.2-12.4,20.5-14.5,5.8-14.7"/><path class="st4" d="M320.6,286.2c0,0,23.9,4.1,30.6,1.1c3.1-1.4,8.1-2.9,2.1-8.2c-2.5-2.2-8.6-7.1-8.6-7.1"/><path class="st4" d="M294.8,254.6c19.5-6.9,42.4-19,62.2-31.8c5.9-3.8,26.9-29.5,10.7-25.3c-2.4,0.6-35.6,13.2-75.2,31.3"/><path class="st4" d="M313.4,294c0,0,6,16.4,1.5,17.6c-2.8,0.7-26.6-20.4-27.1-21.5"/><path class="st4" d="M325.3,296.8c0,0,6.4,16.4,1.7,18.9c-2,1-13.6-17.2-14.5-18"/><path class="st4" d="M325.9,286.1c5.3,6.2,18.2,27.1,15.9,28.4c-5.7,3.2-11.9-4-14.2-8.5"/><path class="st4" d="M336.5,286.3c1,2.3,13.9,20.6,9.4,26.6c-1.4,1.9-6.8-1.8-6.8-1.8"/><path class="st4" d="M348.9,285.1c0,0,10.1,23.2,6.4,25.9c-2.7,2.1-11.8-5.7-11.8-5.7"/><path class="st4" d="M357.1,272.5c0,0,10,34.6,7,36.9c-2.7,2.1-10-8.2-10-8.2"/><path class="st4" d="M368.9,272.6c0,0,9.5,33.7,6.4,35c-4.4,1.8-14.4-11.6-14.4-11.6"/><path class="st4" d="M377.3,261.6c0,0,15.9,38.7,10.9,40.9c-6.2,2.8-15.5-8-15.5-8"/><path class="st4" d="M425.2,175.9c41.8-3.8,51.5-16.5,56.7-25c6.4-10.4,4-10.6-1.9-8.5c-20.4,7-62.8,24-67.9,27.2"/><path class="st4" d="M358.8,221.6c11.8,0.9,28.9,6.7,32.5,10.9c6.8,7.9-9.7,7.1-62.1,5.3"/><path class="st4" d="M291.2,292.3l50.4,14.2l87.4-37.9l42.3-53.8l-3.5-14.3l16.7-13.5l-24-25.5l-62.2,21.4l-107.2,49L291.2,292.3z" /><path class="st5" d="M483.7,140.8c0.5-0.1,1-0.1,1.4,0.1c0.4,0.1,0.8,0.4,1,0.8c0.4,0.8,0.2,1.9-0.4,3.4c-0.6,1.5-1.7,3.5-3.3,6.1 c-1.1,1.7-2.4,3.6-4.1,5.6c7.4-2.1,13.3-3.5,17.3-4.1c2.2-0.3,3.8-0.4,5.1-0.4c1.3,0.1,2.2,0.3,2.6,1c1.1,1.7,0.7,3.8-0.6,5.9 c-1.3,2.1-3.4,4.4-6,6.5c-3.2,2.6-7.1,4.9-11.1,6.7c4.1-0.3,8.1-0.6,10.5-0.5c2.9,0.2,6.6,1,9.6,2.2c1.5,0.6,2.8,1.4,3.7,2.3 c0.9,0.9,1.5,2.1,1.3,3.4c-0.1,0.8-0.6,1.5-1.4,2.1s-1.7,1.2-2.9,1.8c-2.3,1.2-5.3,2.3-8.4,3.3c-5.2,1.7-10.1,2.8-12.8,3.4 c5.2,0.7,12.4,1.9,16.4,3.8c1.2,0.6,2,1.1,2.3,2c0.1,0.4,0.1,0.9,0,1.3c-0.2,0.4-0.4,0.7-0.8,1.1c-1.4,1.3-4.3,2.3-8.2,3.2 c-6.4,1.4-15.7,2.2-25.9,1.9c6.1,1.3,12.4,2.5,18.3,3.9c4.2,1,8,2,10.6,2.9c1.3,0.4,2.3,0.8,3,1.2c0.4,0.2,0.6,0.4,0.8,0.6 c0.1,0.1,0.2,0.3,0.2,0.5c0,0.2,0,0.5-0.2,0.6c-4.1,5.4-10.9,7.7-18,8.4c-5.6,0.6-11.2,0.1-16-0.6c7.7,3.2,14.2,6.2,18.6,8.7 c2.7,1.5,4.8,2.9,6.1,4.1c0.7,0.6,1.2,1.2,1.5,1.8c0.3,0.6,0.5,1.2,0.3,1.8c-0.4,1.7-1.8,2.8-3.7,3.5c-1.9,0.7-4.2,1.1-6.9,1.2 c-4.7,0.3-10.2-0.2-14.9-0.8c0.3,0.3,0.7,0.5,1,0.8c5,4.1,9.2,7.9,12.1,10.8c1.5,1.5,2.6,2.7,3.4,3.7c0.4,0.5,0.7,0.9,0.9,1.3 c0.2,0.4,0.4,0.7,0.2,1.2c-0.7,2-2.5,3-4.8,3.4c-2.3,0.4-5.1,0.2-8.2-0.3c-5.6-0.9-11.6-2.9-16-4.5c2.7,3.6,5.1,7.2,6.8,10.1 c1,1.8,1.7,3.4,2,4.8c0.3,1.4,0.3,2.6-0.4,3.4c-0.5,0.6-1.3,1-2.2,1.1s-1.8,0-2.9-0.3c-2.1-0.6-4.5-1.8-7.1-3.4 c-4.6-2.8-9.4-6.5-13.3-9.5c1.9,4.4,3.6,8.5,4.7,11.9c0.6,2,1.1,3.7,1.3,5c0.1,0.7,0.1,1.2,0,1.7c-0.1,0.5-0.3,1-0.7,1.3 c-1.4,1-3.2,0.9-5,0.2c-1.9-0.7-3.9-2-5.9-3.6c-3.1-2.4-6.1-5.4-8.6-8c1.4,3.1,2.7,6.3,3.6,8.7c0.5,1.5,0.9,2.9,1.1,3.9 c0.1,0.5,0.2,1,0.1,1.4c0,0.4-0.1,0.8-0.3,1.1c-1,1.3-2.6,1.6-4.3,1.4c-1.7-0.2-3.5-0.9-5.4-1.9c-3.3-1.7-6.5-4.2-8.8-6 c0.4,2.5,0.8,4.9,0.9,6.9c0.1,1.8,0.2,3.3,0,4.6c-0.1,1.2-0.4,2.2-1.2,2.6c-0.7,0.4-1.5,0.2-2.4-0.1c-0.9-0.3-1.9-0.9-2.9-1.6 c-1.8-1.2-3.7-2.8-5.4-4.2c0.3,1.6,0.8,3.4,1,4.7c0.2,1.3,0.3,2.4,0.2,3.3c-0.1,0.9-0.2,1.6-0.8,2c-1.2,0.8-2.5,0.9-3.8,0.5 c-1.3-0.3-2.7-1.1-4-2.1c-2-1.5-3.9-3.5-5.6-5.4c0.4,1.6,0.7,3.1,0.9,4.4c0.2,1.6,0.3,2.9,0.2,3.9c-0.1,1.1-0.5,2-1.3,2.3 c-2.3,1-5,0.4-7.4-0.9c-2.1-1.1-4-2.6-5.5-4c0.3,1.7,0.7,3.6,0.8,4.9c0.1,1.3,0.2,2.4,0.1,3.2c0,0.4-0.1,0.8-0.2,1.1 c-0.1,0.3-0.4,0.6-0.7,0.8c-0.9,0.4-1.9,0.2-2.9-0.2c-1-0.4-2-1.1-3.1-1.9c-1.9-1.4-3.7-3.4-5.2-5.1c0.2,1,0.5,2.4,0.7,3.3 c0.2,1.4,0.3,2.5,0.2,3.5c0,0.9-0.1,1.7-0.7,2.1c-0.7,0.5-1.6,0.5-2.4,0.2c-0.8-0.3-1.6-0.9-2.4-1.6c-1.3-1.1-2.5-2.4-3.5-3.7 c0.3,1.3,0.5,2.6,0.5,3.6c0,1.4-0.2,2.5-1,3.1c-0.6,0.4-1.3,0.5-2.1,0.4c-0.7-0.1-1.5-0.4-2.4-0.7c-1.4-0.6-2.8-1.5-4-2.4 c0.1,1.7,0,3.3-0.9,4.4c-0.5,0.7-1.3,0.8-2.1,0.8c-0.5,0-1.1-0.3-1.6-0.5c0,0.2,0.1,0.5,0,0.7c-0.1,0.3-0.2,0.6-0.5,0.8 c-2.7,1.5-5.6,0.9-8-0.7c-2-1.2-3.6-3.1-4.9-4.9c0.1,1.2,0.2,2.5,0,3.5c-0.2,1.4-0.8,2.6-1.9,3.2c-0.4,0.2-0.9,0.1-1.3-0.1 c-0.4-0.2-0.7-0.5-1.2-0.9c-0.8-0.8-1.8-2-2.9-3.3c-1.7-2.1-3.5-4.7-5.1-7.1c0,0.1,0,0.2,0,0.2c0.2,1.7,0.3,3.2,0.1,4.5 c-0.1,0.6-0.3,1.2-0.6,1.7c-0.3,0.5-0.8,0.8-1.4,1c-0.6,0.2-1.1-0.1-1.8-0.4c-0.7-0.3-1.5-0.8-2.5-1.5c-1.9-1.3-4.2-3-6.7-5 c-5-4-10.5-8.8-13.8-11.8l-0.4-0.4l0.8-0.9l0.4,0.4c3.3,3,8.8,7.8,13.7,11.7c2.5,2,4.8,3.8,6.6,5c0.9,0.6,1.7,1.1,2.3,1.4 s1.1,0.3,1,0.3c0.3-0.1,0.5-0.2,0.7-0.5s0.3-0.7,0.4-1.2c0.2-1.1,0.1-2.5-0.1-4.1c-0.1-0.9-0.4-1.8-0.6-2.7l0-0.1 c-0.5-2.3-1.1-4.5-1.6-6c-6.9-2.6-14.9-6.4-21.4-9.4l-0.5-0.2l0.5-1l0.5,0.2c6.6,3.1,14.7,6.9,21.5,9.5l0.4,0.1c1.4,0.5,2.8,1,4,1.4 c1.8,0.6,3.5,0.9,4.8,1.1c1.4,0.1,2.4,0,3-0.3c0.6-0.3,0.9-0.7,0.9-1.6c0-0.9-0.4-2.3-1.4-4.1c-2-3.7-6.2-8.6-10.5-13.2 c-4.3-4.5-8.8-8.6-11.5-11c-3.3-0.1-5.4-0.1-9-0.3l-0.6,0l0-1.2l0.6,0c3.7,0.1,5.9,0.1,9.1,0.3l0.3,0c6,0.2,12,0.4,16.7,0.5l0-0.1 l0.4,0.1c0.9,0,2.4,0.1,3.3,0.1c7.9,0,13.5-0.4,16.6-1.8c1.4-0.6,2.3-1.4,2.7-2.1c0.4-0.7,0.4-1.5,0-2.4c-0.9-1.8-3.7-4-8.4-6.1 c-8.6-0.8-18-2.4-27.3-4.6l-0.5-0.1c-4.3,1.9-8.6,3.6-12.6,5l-0.5,0.2l-0.4-1.1l0.5-0.2c19.4-6.9,42.3-19,62.1-31.7 c0.7-0.5,1.7-1.3,2.8-2.4l0.1-0.1c1-1,2.2-2.2,3.4-3.5c2.4-2.7,4.9-6,6.8-9l0.1-0.1c0.1-0.1,0.2-0.2,0.2-0.3c2-3.1,3.1-6.1,3-7.6 c-0.1-0.8-0.4-1.2-1.2-1.4s-2.2-0.2-4.1,0.3c-0.2,0.1-1,0.3-2.2,0.8c-1.2,0.4-2.9,1-4.9,1.8c-4.1,1.5-9.7,3.7-16.4,6.5 c-0.4,0.2-1,0.4-1.5,0.6l-0.3,0.1c-13.4,5.4-30.7,12.8-49.8,21.5l-0.5,0.2l-0.5-1l0.5-0.2c19.1-8.8,36.5-16.1,49.9-21.6l0.1-0.1 c0,0,9.9-7.7,23.6-16.2c13.4-8.4,30.5-17.6,45.6-21.2l0.3-0.2c1.4-0.9,4.9-2.5,10-4.7c5-2.2,11.4-4.8,18.3-7.6 c13.8-5.5,29.5-11.5,39.7-15.1C481.3,141.3,482.6,140.9,483.7,140.8L483.7,140.8z M483.8,141.9c-0.9,0.1-2.1,0.5-3.6,1 c-10.2,3.5-25.9,9.5-39.7,15.1c-6.9,2.8-13.3,5.4-18.3,7.6c-3.1,1.3-4.2,1.9-6,2.8c2.9-0.6,5.3-0.9,7-1c1.2,0,2.2,0,3,0.2 c0.8,0.2,1.4,0.6,1.7,1.1c0.3,0.5,0.4,1.2,0.3,1.9c-0.1,0.7-0.4,1.4-0.8,2.2c-0.4,0.7-1,1.7-1.5,2.5c20.3-1.9,33-6,41.1-10.6 c4.1-2.4,7.1-4.8,9.4-7.3l0.1-0.1c2.2-2.4,3.7-4.7,5-6.7c1.6-2.6,2.6-4.5,3.2-5.9c0.6-1.4,0.6-2.2,0.4-2.5c-0.1-0.1-0.1-0.2-0.3-0.2 S484.2,141.9,483.8,141.9L483.8,141.9z M500.7,153.5c-1.1-0.1-2.7,0-4.9,0.3c-4.2,0.6-10.4,2.1-18.6,4.5l-0.2,0.1 c-2.3,2.5-5.3,5-9.5,7.3c-8.4,4.8-21.4,8.9-42.3,10.8l-0.1,0c-0.4,0.6-0.6,1-1,1.6c-1.6,2.4-4.3,4.9-7.5,7.3 c7.5-1.5,22.8-4.4,37.6-7.2l0.3,0c9.2-1.7,18.4-3.6,23.5-4.5c0.9-0.2,1.8-0.5,2.7-0.7c0,0,0.8-0.2,0.9-0.2 c5.1-1.6,10.4-4.6,14.5-7.9c2.5-2.1,4.6-4.2,5.7-6.2s1.4-3.5,0.6-4.7C502.4,153.9,501.9,153.6,500.7,153.5L500.7,153.5z M423.3,168.5c-2.3,0.1-5.8,0.6-10.8,1.8c-0.2,0-0.4,0.1-0.6,0.2l0,0l0,0c-14.9,3.5-32,12.7-45.4,21.1c-10.1,6.3-16.5,11-20,13.6 c5.3-2.1,10.4-4.1,13.8-5.4c2-0.8,3.7-1.4,4.9-1.8c1.2-0.4,2-0.7,2.3-0.8c2.1-0.5,3.6-0.6,4.8-0.3c1.1,0.4,1.8,1.3,2,2.4 c0.2,2-1,4.6-2.7,7.5c1.7-0.5,4.5-1.4,8.5-3.1c4.6-1.9,10.3-4.3,16-7.2c3.5-1.7,7-3.6,10.3-5.6l0.1,0c7.5-4.4,14-9.1,16.8-13.3 c1.3-2,2.5-3.8,3.2-5.3c0.4-0.7,0.6-1.3,0.7-1.8c0.1-0.5,0-0.8-0.1-1.1s-0.4-0.5-1-0.6C425.4,168.5,424.5,168.4,423.3,168.5 L423.3,168.5z M496.2,173.1c-2.9-0.2-9.2,0.3-14.3,0.8c-1.2,0.4-2.5,0.8-3.7,1c-4.6,0.8-12.9,2.5-21.1,4c0.4,0.2,0.8,0.4,1.1,0.8 c0.3,0.4,0.3,1,0.2,1.5s-0.5,1-0.9,1.5c-1.7,2-5.7,4.8-11.6,8.7c1,0.1,2,0.2,3,0.2c3.7,0,10.3-0.1,17.1-0.4 c6.9-0.3,13.9-0.7,17.6-1.5c1.8-0.4,8.3-1.8,14.4-3.8c3.1-1,6-2.1,8.2-3.2c1.1-0.6,2-1.1,2.6-1.7s0.9-1,1-1.4c0.1-0.9-0.2-1.6-1-2.4 c-0.8-0.8-2-1.5-3.4-2.1C502.6,174.1,499,173.3,496.2,173.1z M454.6,179.4c-15.5,2.9-32.5,6.1-39.4,7.5l-0.5,0.1 c-1.9,1.3-3.9,2.6-6,3.9c12.3,0.5,24,0,35.2,0.5l0.2-0.1c6.7-4.4,10.9-7.4,12.5-9.3c0.4-0.5,0.6-0.9,0.7-1.1c0.1-0.3,0.1-0.4,0-0.5 c-0.2-0.3-1-0.7-2.5-0.9L454.6,179.4z M481.9,191.2c-4,0.6-9.9,1.1-16.1,1.3c-3.5,0.1-5.7,0.1-8.7,0.2c0.1,0,0.3,0,0.4,0.1 c3,0.5,4.8,1.1,5.6,2.3c0.4,0.6,0.4,1.3,0.2,1.9c-0.3,0.6-0.8,1.2-1.6,1.7c-1.1,0.8-2.9,1.7-4.9,2.5c1.3,0.3,2.6,0.5,4.3,0.8 c0.2,0,0.5,0.1,0.6,0.1l0.1,0c13,1.3,25.2,0.3,32.9-1.4c3.9-0.9,6.6-2,7.7-3c0.3-0.2,0.4-0.5,0.5-0.6c0.1-0.2,0.1-0.3,0-0.4 c-0.1-0.3-0.6-0.8-1.7-1.3c-4.3-2-14.2-3.5-19-4.2L481.9,191.2z M406.8,192c-3.3,1.9-6.7,3.7-10.2,5.5c-5.8,2.8-11.5,5.3-16.1,7.2 c-4.6,1.9-8.2,3.1-9.9,3.5l0,0c0,0.1-0.1,0.1-0.1,0.2c2.7,0.3,6.9,0.9,11.6,1.6c16.8,1.2,35.9-0.8,51.4-3.7l0-0.2l0.6,0.1 c0,0,0.1,0,0.1,0c3.3-0.7,6.7-1.3,9.6-2c4.3-1.1,8-2.2,10.9-3.3l0,0c2.8-1.1,5-2.1,6.3-3.1c0.6-0.5,1-0.9,1.2-1.3 c0.2-0.3,0.1-0.5-0.1-0.8c-0.4-0.5-2-1.3-4.9-1.8c-2.8-0.5-5.7-0.8-8.7-1c-0.1,0-0.9-0.1-0.9-0.1c-12.7-0.9-26.4,0-40.9-0.8 L406.8,192z M455,201.9c-3,1.1-6.7,2.2-10.8,3.3c-2,0.5-4.5,0.9-6.7,1.4c1.4,0.3,3,0.6,4.7,1c2,0.5,4,1.2,5.5,2 c0.8,0.4,1.4,0.9,1.9,1.4c0.5,0.5,0.8,1.2,0.8,1.9c0,0.4-0.2,0.8-0.5,1.1c4.6,1.7,8.9,3.4,12.9,5c0.5,0.2,0.8,0.3,1.2,0.5l0.2,0 c5.3,0.9,12.7,1.8,19.6,1.1c6.8-0.7,13.2-2.8,17-7.7c-0.1-0.1-0.2-0.1-0.3-0.2c-0.6-0.3-1.6-0.7-2.8-1.1c-2.6-0.8-6.3-1.8-10.5-2.8 c-8.2-2-18.3-4-25.5-5.5l-0.4-0.1c-0.1,0-0.2,0-0.3-0.1c-2.3-0.5-4.3-0.8-5.8-1.1L455,201.9z M434.3,207.2 c-13,2.5-28.4,4.4-43.1,4.2c11.1,2,24.1,4.9,35.3,8.9l0,0l0.6-0.1c2.3-0.5,5.3-1.2,8.4-1.9l0-0.1l0.1,0.1c1.9-0.5,3.8-0.9,5.5-1.5 c2.4-0.7,4.5-1.5,6-2.2c0.7-0.4,1.3-0.7,1.7-1.1c0.4-0.3,0.5-0.6,0.5-0.7c0-0.3-0.2-0.7-0.5-1.1c-0.4-0.4-0.9-0.8-1.6-1.2 c-1.4-0.7-3.3-1.4-5.3-1.9C438.2,207.8,434.8,207.3,434.3,207.2L434.3,207.2z M369.8,209.4c-1.8,2.6-3.8,5.3-5.9,7.6 c-1,1.2-2,2.2-3,3.1c5.4,1.3,13,3.7,21.1,6.4c0,0,0.7,0.2,0.8,0.3c5.5,1.9,11.2,3.8,16.6,5.7c1.6,0.6,2.7,1,4.3,1.6 c7.7,1.4,16.2,1.1,23.1-0.1c5.1-0.9,9.3-2.2,11.7-3.5c1.2-0.7,1.9-1.3,2-1.8c0.1-0.2,0.1-0.3,0-0.5c-0.1-0.2-0.3-0.4-0.7-0.7 c-14.6-8.7-41.1-13.9-57.9-16.5c-0.2,0-1.1-0.1-1.1-0.1c-4.3-0.7-8.5-1.2-10.9-1.5L369.8,209.4z M448.8,214.8 c-0.4,0.3-0.8,0.5-1.3,0.8c-1.6,0.8-3.8,1.6-6.1,2.3c-1.4,0.4-2.9,0.8-4.4,1.2c10.2,5.6,21.2,13.6,30.4,21l0.3,0 c4.9,0.7,11.1,1.2,16.2,0.9c2.6-0.1,4.8-0.5,6.5-1.2c1.7-0.7,2.7-1.5,3-2.7c0.1-0.2,0-0.5-0.2-0.9c-0.2-0.4-0.7-0.9-1.3-1.5 c-1.2-1.1-3.2-2.5-5.9-4c-5.1-2.9-12.7-6.4-22.3-10.2l-0.2-0.1c-0.4-0.2-0.7-0.3-1.1-0.5C458.2,218.4,453.7,216.6,448.8,214.8 L448.8,214.8z M435.4,219.5c-2.6,0.6-4.9,1.2-7,1.6c4.4,1.7,8.5,3.4,11.9,5.5c0.5,0.3,0.9,0.7,1.2,1.1c0.2,0.5,0.3,1,0.1,1.5 c-0.3,0.9-1.3,1.7-2.6,2.4c-0.6,0.3-1.5,0.6-2.2,0.9c4,4.5,12.3,14,19.2,23c0.2,0.3,0.3,0.5,0.5,0.7l0.3,0.1 c4.4,1.6,11.2,3.9,17.1,4.9c3,0.5,5.7,0.7,7.8,0.3c2.1-0.4,3.4-1.2,3.9-2.7c-0.1,0.2,0,0-0.2-0.2c-0.1-0.3-0.4-0.6-0.8-1.1 c-0.7-0.9-1.9-2.1-3.3-3.6c-2.9-2.9-7.1-6.7-12.1-10.8C459.5,235,446.7,225.5,435.4,219.5L435.4,219.5z M360,221.1 c-1,0.9-1.9,1.7-2.7,2.2c-7.6,4.9-15.7,9.6-23.8,14.1c15.9,0.5,28.2,1,37.5,1l0.2,0c4.8,0,9,0,12.2-0.2c4.7-0.3,7.7-0.9,8.8-1.8 c0.6-0.4,0.7-0.7,0.6-1.3c-0.1-0.5-0.5-1.3-1.3-2.2c-1.2-1.4-4.7-3.4-9-5.1C373.8,224.9,365.5,222.3,360,221.1L360,221.1z M390.6,230.7c0.8,0.5,1.4,1.1,1.9,1.6c0.9,1,1.4,1.9,1.6,2.8c0.1,0.9-0.3,1.8-1.1,2.4c-1.6,1.2-4.6,1.7-9.4,2 c-2.8,0.2-6.4,0.2-10.4,0.2c2.5,1.6,6.9,4.4,11.4,7.4l0.5,0.1c11.1,2.6,23.9,3.2,32.7,2.4c4.4-0.4,7.9-1.2,9.6-2.1 c0.8-0.5,1.1-0.9,1.1-1.2c0-0.3-0.3-0.9-1.4-1.6c-0.2-0.2-1.3-0.7-2.9-1.4c-1.6-0.7-3.7-1.5-6.2-2.5c-3.8-1.5-9.1-3.5-14.3-5.4 c-5.2-1.9-10.8-3.9-10.8-3.9C392,231.2,391.3,230.9,390.6,230.7z M435.7,232.9c-2.4,0.9-5.2,1.7-8.7,2.3c-0.1,0-0.2,0-0.3,0 c2.4,4.7,8.2,15.9,12.9,26.4c0,0.1,0.1,0.2,0.1,0.2l0.2,0.1c3.9,3.2,9.6,7.6,14.6,10.6c2.5,1.5,4.9,2.7,6.8,3.2 c1,0.3,1.8,0.4,2.4,0.3s1.1-0.3,1.4-0.7c0.3-0.4,0.4-1.2,0.1-2.4c-0.3-1.2-1-2.8-1.9-4.5c-1.9-3.5-5-7.9-8.4-12.3 c-6.8-9-15.2-18.4-19.2-23L435.7,232.9z M425.6,235.3c-5.2,0.8-11.1,1.1-16.9,0.6c3.3,1.2,7.1,2.6,9.7,3.6c2.5,1,4.6,1.9,6.2,2.5 c1.6,0.7,2.6,1.1,3.1,1.5c1.2,0.8,1.9,1.6,1.9,2.6c0,0.9-0.7,1.7-1.7,2.2c-2,1.1-5.5,1.9-10,2.3c-0.5,0-1,0-1.5,0.1l0.1,0.1 c1.4,2.8,5.4,10.9,8.9,18.7c2.6,2.9,6.7,7.1,10.6,10.1c2,1.5,3.9,2.8,5.6,3.4c1.7,0.6,3,0.6,3.9-0.1c0.1,0,0.2-0.2,0.2-0.5 c0.1-0.3,0.1-0.8,0-1.4c-0.1-1.2-0.6-2.9-1.2-4.8c-1.2-3.8-3.3-8.6-5.5-13.7l0-0.1c-0.1-0.1-0.1-0.3-0.2-0.4 c-4.7-10.5-10.5-21.8-12.9-26.5L425.6,235.3z M331.5,238.5c-7.4,4-14.8,7.7-22,10.9c8.8,2.1,17.7,3.5,25.8,4.3l0.5,0.1 c2.9,0.3,5.8,0.5,8.4,0.6c5.2,0.3,9.9,0.2,13.7-0.1c3.8-0.3,6.6-0.9,8.2-1.7c0.6-0.3,1-0.7,1.3-1c0.2-0.3,0.3-0.6,0.2-1 c-0.2-0.8-1.3-2-3.4-3.2c-4.3-2.6-12.9-5.6-26.9-8.5l-0.6-0.2c-1.7-0.1-2.7-0.1-4.6-0.1L331.5,238.5z M342.4,238.8 c11,2.6,18.3,5.2,22.3,7.5c2.3,1.3,3.6,2.6,4,3.9c0.2,0.7,0.1,1.4-0.3,1.9c-0.4,0.6-1,1-1.7,1.4c-1.8,0.9-4.8,1.5-8.6,1.8 c-0.4,0-1,0-1.5,0.1l2.5,1.6l0,0c9.7,4.1,22.2,7,31.2,7.6c4.5,0.3,8.2,0.1,10.1-0.7c1-0.4,1.4-0.8,1.5-1.3c0.1-0.5-0.1-1.3-1-2.3 c-0.7-0.9-2.7-2.5-5.2-4.3c-2.5-1.9-5.7-4-8.9-6.2c-6.4-4.3-13.1-8.5-16-10.3l0,0C363.6,239.5,353.5,239.2,342.4,238.8L342.4,238.8z M387,248.7c0.2,0.1,0.3,0.2,0.5,0.3c3.2,2.2,6.4,4.3,8.9,6.2c2.6,1.9,4.5,3.4,5.4,4.5c1,1.2,1.5,2.3,1.3,3.3 c-0.2,1-1.1,1.7-2.2,2.2c-1.4,0.6-3.5,0.8-5.9,0.8c1.3,4.1,3.8,11.7,5.5,18.7c0.3,1.1,0.4,1.9,0.6,2.9l0,0l0.4,0.4 c1.8,1.5,4,3.3,5.9,4.6c1,0.6,1.9,1.2,2.7,1.5c0.7,0.3,1.3,0.3,1.5,0.2c0.2-0.1,0.5-0.6,0.6-1.7c0.1-1.1,0.1-2.6,0-4.3 c-0.3-3.5-1.1-8.2-2-13c-1.9-9.7-4.7-20.1-5.7-24.1l0-0.2C398.8,250.5,392.8,249.8,387,248.7L387,248.7z M405.7,250.8 c1.1,4.1,3.8,14.4,5.7,24c0.3,1.6,0.6,3,0.8,4.5l0.2,0.1c2.2,1.8,5.9,4.7,9.5,6.6c1.8,0.9,3.5,1.6,5,1.8c1.5,0.2,2.5-0.1,3.3-1 c0,0,0.1-0.1,0.1-0.4c0-0.3,0-0.7-0.1-1.1c-0.2-1-0.6-2.3-1.1-3.8c-1.1-3-2.7-6.9-4.5-10.9c-0.1-0.2-0.1-0.3-0.2-0.5c0,0,0,0,0,0 l-0.2-0.6c-3.5-7.7-7.3-15.5-8.7-18.3l-0.3-0.6C415,250.8,409,251,405.7,250.8L405.7,250.8z M338.6,255.1c3.3,1.7,5.4,3.5,6.3,5.4 c0.6,1.2,0.6,2.4,0,3.4c-0.6,1-1.7,1.9-3.2,2.6c-3.3,1.4-8.8,1.8-16.2,1.8c12.9,3.9,27.6,5.8,38.4,5.9c5.9,0,10.7-0.5,13.1-1.4 c0.6-0.2,1-0.5,1.3-0.7c0.3-0.2,0.3-0.4,0.3-0.6c0-0.2-0.1-0.4-0.3-0.8c-0.3-0.3-0.8-0.7-1.5-1.2l-18.3-11.5l-0.4-0.2l0-0.1 l-3.3-2.1l-0.3-0.2c-3.1,0.1-6.5,0.1-10.3,0C342.4,255.5,340.5,255.3,338.6,255.1L338.6,255.1z M363.8,260.1l13.6,8.6 c0.8,0.5,1.3,0.9,1.7,1.4s0.6,1,0.6,1.5c0,0.5-0.3,1-0.7,1.4s-1,0.7-1.6,0.9c-1.6,0.6-4.2,1-7.2,1.2c1.1,3.9,3.1,11.5,4.5,18.4 c0.2,1,0.3,1.8,0.5,2.8l0.4,0.3c1.6,1.5,3.7,3.3,6,4.4c2.2,1.2,4.5,1.7,6.4,0.8c0.3-0.1,0.5-0.5,0.6-1.4c0.1-0.9,0-2.1-0.2-3.6 c-0.3-1.8-0.8-4.1-1.5-6.5l-0.1-0.3c-0.4-1.4-0.8-2.8-1.2-4.3c-2.6-8.3-6.1-17.5-7.8-21.7l-0.1-0.2C373,263,368.3,261.7,363.8,260.1 z M379,264.2c1.7,4.4,5.1,13.1,7.7,21.3c0.5,1.5,0.9,3,1.3,4.4l0,0c1.9,2.3,4.4,5,6.9,6.9c1.2,0.9,2.5,1.6,3.6,1.9 c1.1,0.3,2.1,0.2,2.9-0.4c0,0,0.3-0.4,0.3-1.1c0-0.7,0-1.8-0.2-3c-0.3-2.5-1.1-5.8-2-9.2c-1.8-6.9-4.3-14.7-5.6-18.8l-0.1-0.2 c-1.2,0-2.2,0-3.5-0.1C386.9,265.6,383,265,379,264.2L379,264.2z M305.6,267.9c2.7,2.4,6.6,6,10.6,10.1c2.6,2.7,5,5.4,7.1,8.1l0.2,0 c3.2,0.5,8.9,1.2,14.3,1.6c5.4,0.3,10.8,0.2,13.2-0.9c1.6-0.7,3.5-1.5,4.2-2.5c0.4-0.5,0.5-0.9,0.2-1.7c-0.3-0.8-1-1.8-2.5-3.1 c-1.5-1.3-4.3-3.6-6.3-5.2l-0.4-0.3c-8.4-1.1-17.2-2.9-25.1-5.7l0,0C316.8,268.2,311.1,268,305.6,267.9L305.6,267.9z M348.4,274.3 c1.9,1.5,4.1,3.3,5.3,4.4c1.5,1.4,2.4,2.5,2.8,3.6c0.4,1.1,0.2,2-0.4,2.8c-1.1,1.5-3.2,2.1-4.7,2.8c-0.2,0.1-0.5,0.1-0.8,0.2 c1.4,3.6,3.6,9.4,4.9,14.5l0.1,0l0.4,0.5c1.1,1.4,2.8,3.3,4.3,4.7c0.8,0.7,1.5,1.2,2.1,1.4c0.6,0.2,1,0.2,1.2,0c0,0,0.2-0.5,0.3-1.3 c0-0.8-0.1-1.9-0.2-3.3c-0.4-2.6-1.1-6.1-2-9.8c-1.8-7.3-4.2-15.4-5.3-19.5l0-0.1C353.9,274.9,351.2,274.6,348.4,274.3L348.4,274.3z M357.7,275.1c1.1,4.1,3.5,12,5.2,19.3c0.4,1.8,0.6,2.8,1,4.5l0.2,0.3l0.4,0.4c1.6,1.9,3.7,4.1,5.7,5.6c1,0.8,2,1.4,2.8,1.7 c0.8,0.3,1.5,0.4,2,0.2c0,0,0,0,0.1-0.2c0.1-0.2,0.1-0.4,0.2-0.8c0.1-0.7,0-1.7-0.1-3c-0.2-2.5-0.9-5.8-1.6-9.4 c-1.5-7-3.6-14.8-4.6-18.6c-1.6,0.1-3.2,0.2-5.1,0.2C362,275.4,359.8,275.2,357.7,275.1L357.7,275.1z M324.3,287.4 c1,1.4,2,2.8,2.6,4.1c1,1.9,1.5,3.4,1.5,4.6c0,1.2-0.6,2.2-1.5,2.7c-0.1,0-0.2,0-0.2,0.1c0.7,2,1.6,5.2,2.2,8.3l0.3,0.5 c1.3,2.1,3.4,4.5,5.6,5.9s4.5,1.9,6.8,0.7c0,0,0,0.1,0,0c0-0.1,0-0.3,0-0.6c0-0.1-0.1-0.3-0.1-0.4l0-0.1c-0.1-0.5-0.3-1.1-0.6-1.9 c-0.8-2-2.2-4.6-3.8-7.4c-3.2-5.7-7.5-12.1-10.4-15.8l-0.2-0.2C325.7,287.6,324.9,287.5,324.3,287.4L324.3,287.4z M328,287.9 c2.9,3.8,6.8,9.8,9.9,15.2c1.6,2.9,3,5.5,3.9,7.6c0.3,0.6,0.4,1.1,0.5,1.6l0,0c0.7,0.3,1.4,0.5,2,0.6c0.6,0.1,0.9,0,1.1-0.3 c0.8-1,1-2.6,0.7-4.6l0-0.2c-0.3-2-1.1-4.3-2.1-6.6c-2.1-4.7-5-9.5-6.7-12.4l0,0C333.9,288.6,330.8,288.2,328,287.9z M349.6,288.4 c-2.8,0.7-6.8,0.7-11,0.5c1.7,2.9,4.4,7.3,6.4,11.9c1,2.3,1.8,4.6,2.1,6.7c1.4,1,3.1,2.1,4.6,2.8c0.8,0.3,1.5,0.6,2,0.6s1,0,1.2-0.2 c0.3-0.2,0.6-1,0.6-2.2c0-1.2-0.3-2.8-0.7-4.6C353.6,298.6,351.1,292.1,349.6,288.4z M314.9,296.8c0.5,1.5,0.9,3.2,1.4,5.2l0.2,0.2 c1.9,2.8,4.4,6.3,6.5,8.9c1.1,1.3,2,2.5,2.8,3.2c0.4,0.4,0.7,0.6,0.9,0.8c0.2,0.1,0.3,0.1,0.1,0.1c0.7-0.4,1.1-1.2,1.3-2.4 c0.2-1.2,0.1-2.8-0.2-4.5c-0.5-3.3-1.6-7-2.4-9.3c-0.7,0.1-1.4,0.1-2.3,0c-1.5-0.2-3.2-0.6-5.1-1.1 C317.2,297.7,316,297.2,314.9,296.8L314.9,296.8z"/><g><path class="st4" d="M221,295.8l-12.9,19.1l-8.4,21.4l11.1,11.5l7.9,1.6l6.1,6.2l12.3-0.3l11.1-1.6l13.7-1.9l12,3.5l11.7,0.6 l6.7-6.5l16.7-10.1l3.2-8.3l-8.1-14.5l-14.5-20.4L221,295.8z"/><path class="st4" d="M221,295.8c0,0-19.4,23.2-15.3,31.6c1.5,3.1,10-8.5,10-8.5"/><path class="st4" d="M222.9,302.9c0,0-13.4,26.3-9.1,27.9c2.3,0.9,9.9-8.8,9.9-8.8"/><path class="st4" d="M226.2,309.1c0,0-6.3,25.8-2.1,27.7c3.3,1.5,5.3-6.5,5.3-6.5"/><path class="st4" d="M232.4,319.8c-1.5,3.7-5.4,18.1-3.2,19.7c2.1,1.5,9-5.7,9-5.7"/><path class="st4" d="M239,326.5c0,0-3.1,17.9,1.9,18.4c2.4,0.2,8.2-12.5,8.2-12.5"/><path class="st4" d="M208.1,314.9c-6.1,7.7-17.9,15.4-14.5,23c0.8,1.8,6.5-1.2,6.5-1.2"/><path class="st4" d="M205.4,326.5c-3.1,6.3-8.5,14.3-6.1,17.5c1.3,1.7,6.3-1.9,6.3-1.9"/><path class="st4" d="M213,329.7c-0.5,0.8-11.2,13.8-7.5,18.7c1,1.4,5.3-0.7,5.3-0.7"/><path class="st4" d="M217,329.2c0,0-9.3,23.2-6.3,24.8c2.4,1.3,8-4.6,8-4.6"/><path class="st4" d="M223.2,335.7c0,0-8.2,22-5.9,23.3c2.7,1.5,8-3,8-3"/><path class="st4" d="M229.2,339.6c-0.1,0.2-7,19.8-2.5,22.9c3,2,9.9-6.7,10.4-7.1"/><path class="st4" d="M238.3,340.6c0,0-3.9,24.3,2.7,25.1c2.8,0.3,7.2-12,7.2-12"/><path class="st4" d="M290,295.8c0,0,19.4,23.2,15.3,31.6c-1.5,3.1-10-8.5-10-8.5"/><path class="st4" d="M288.1,302.9c0,0,13.4,26.3,9.1,27.9c-2.3,0.9-9.9-8.8-9.9-8.8"/><path class="st4" d="M284.7,309.1c0,0,6.3,25.8,2.1,27.7c-3.3,1.5-5.3-6.5-5.3-6.5"/><path class="st4" d="M278.6,319.8c1.5,3.7,5.4,18.1,3.2,19.7c-2.1,1.5-9-5.7-9-5.7"/><path class="st4" d="M272,326.5c0,0,3.1,17.9-1.9,18.4c-2.4,0.2-8.2-12.6-8.2-12.6"/><path class="st4" d="M302.8,314.9c6.1,7.7,17.9,15.4,14.5,23c-0.8,1.8-6.5-1.1-6.5-1.1"/><path class="st4" d="M305.6,326.5c3.1,6.3,8.5,14.3,6.1,17.5c-1.3,1.7-6.3-1.9-6.3-1.9"/><path class="st4" d="M298,329.7c0.5,0.8,11.2,13.8,7.5,18.7c-1,1.4-5.3-0.7-5.3-0.7"/><path class="st4" d="M294,329.2c0,0,9.3,23.2,6.3,24.8c-2.4,1.3-8-4.6-8-4.6"/><path class="st4" d="M287.7,335.7c0,0,8.2,22,5.9,23.3c-2.7,1.5-8-3-8-3"/><path class="st4" d="M281.7,339.6c0.1,0.2,7,19.8,2.5,22.9c-3,2-9.9-6.7-10.4-7.1"/><path class="st4" d="M272.7,340.6c0,0,3.9,24.3-2.7,25.1c-2.8,0.3-8.2-13.9-8.2-13.9"/><path class="st4" d="M246.8,337c1.1,16,2.4,35.5,7.7,31.4c5-3.7,9.7-21.1,8.8-33"/></g><path class="st5" d="M220.5,295.5c0,0-4.9,5.8-9.2,12.7c-1.3,2.1-3.5,6.3-3.5,6.3c-3,3.8-7.6,7.7-10.9,11.6c-1.7,1.9-3,3.9-3.8,5.9 c-0.8,2-0.9,4.1,0.1,6.1c0.2,0.4,0.5,0.6,0.8,0.8s0.7,0.2,1.1,0.2c0.7,0,1.6-0.2,2.3-0.5c0.9-0.3,1.2-0.5,1.7-0.7 c-0.4,1-0.7,2-0.9,2.9c-0.2,1.4-0.1,2.6,0.6,3.6c0.5,0.6,1.3,0.7,2,0.6c0.7-0.1,1.5-0.4,2.3-0.8c0.8-0.4,0.9-0.5,1.4-0.9 c0,0.1,0,0.1-0.1,0.2c-0.5,2-0.5,3.9,0.5,5.4c0.4,0.5,1.1,0.7,1.7,0.7c0.6,0,1.3-0.1,1.9-0.3c0.7-0.2,0.9-0.3,1.4-0.5 c0,0.2-0.2,0.5-0.2,0.7c-0.2,1.2-0.4,2.3-0.3,3.2c0,0.4,0.1,0.8,0.2,1.2c0.1,0.3,0.3,0.7,0.7,0.8c0.8,0.5,1.8,0.2,2.7-0.2 c0.9-0.4,1.9-1,2.8-1.7c1-0.8,1.3-1.1,1.9-1.7c-0.3,1.2-0.8,2.6-1,3.7c-0.2,1.1-0.4,2.1-0.4,2.9c0,0.4,0,0.7,0.1,1s0.3,0.6,0.6,0.8 c0.8,0.5,1.8,0.4,2.8,0.2c1-0.2,1.9-0.7,2.8-1.2c1.1-0.6,1.5-1,2-1.4c0,0.2,0,0.4,0,0.5c0,2.3,0.3,4.3,1.7,5.3 c1,0.7,2.2,0.4,3.4-0.2c1.2-0.6,2.3-1.5,3.4-2.5c1.1-1,2.1-2.1,2.9-2.9c0.2-0.2,0.4-0.4,0.5-0.6c0.1,1.8,0.2,3.4,0.6,4.9 c0.3,1.2,0.7,2.3,1.3,3.1c0.6,0.8,1.4,1.4,2.4,1.5c0.6,0.1,1.1-0.2,1.5-0.5s0.9-0.8,1.3-1.4c0.8-1.2,1.7-2.7,2.4-4.2 c1.1-2.2,1.4-3.3,1.9-4.4c0.2,1.6,0.3,3.3,0.6,4.7c0.6,3.2,1.2,5.8,2.2,7.4c0.5,0.8,1.1,1.4,1.8,1.7c0.7,0.2,1.6,0,2.3-0.5 c1.4-1,2.6-2.9,3.8-5.3c1.1-2.4,2.2-5.3,3-8.5c0.1-0.5,0.2-1,0.4-1.6c0.4,1.1,1.1,2.8,2.4,5.6c0.9,1.8,1.8,3.5,2.7,4.9 c0.5,0.7,0.9,1.2,1.4,1.6c0.5,0.4,1,0.7,1.6,0.6c1-0.1,1.8-0.7,2.4-1.5c0.6-0.8,1-1.9,1.3-3.1c0.3-1.4,0.5-3.1,0.6-4.9 c0.2,0.2,0.3,0.4,0.5,0.6c0.8,0.8,1.8,1.9,2.9,2.9s2.3,2,3.4,2.5c1.2,0.6,2.4,0.8,3.4,0.2c1.4-1,1.8-3,1.7-5.3c0-0.2,0-0.4,0-0.5 c0.5,0.4,0.9,0.8,2,1.4c0.9,0.5,1.8,0.9,2.8,1.2c1,0.2,1.9,0.3,2.8-0.2c0.3-0.2,0.5-0.5,0.6-0.8s0.1-0.7,0.1-1 c0-0.8-0.1-1.8-0.4-2.9c-0.2-1.1-0.7-2.4-1-3.7c0.6,0.6,0.8,0.9,1.9,1.7c0.9,0.7,1.8,1.3,2.8,1.7c0.9,0.4,1.9,0.6,2.7,0.2 c0.3-0.2,0.5-0.5,0.7-0.8c0.1-0.3,0.2-0.7,0.2-1.2c0-0.9-0.1-1.9-0.3-3.2c0-0.2-0.1-0.5-0.2-0.7c0.4,0.2,0.7,0.3,1.4,0.5 c0.6,0.2,1.3,0.3,1.9,0.3c0.6,0,1.3-0.1,1.7-0.7c1.1-1.4,1-3.3,0.5-5.4c0-0.1,0-0.1-0.1-0.2c0.5,0.3,0.7,0.5,1.4,0.9 c0.7,0.4,1.5,0.7,2.3,0.8c0.7,0.1,1.6,0,2-0.6c0.7-1,0.8-2.2,0.6-3.6c-0.1-0.9-0.5-1.8-0.8-2.8c0.6,0.3,0.8,0.4,1.7,0.7 c0.8,0.3,1.6,0.5,2.3,0.5c0.4,0,0.7,0,1.1-0.2c0.3-0.1,0.6-0.4,0.8-0.8c0.9-2,0.8-4.1,0.1-6.1c-0.8-2-2.1-4-3.8-5.9 c-3.3-3.9-8-7.9-11-11.7c0,0-2.2-4.1-3.5-6.2c-4.4-6.9-9.2-12.7-9.2-12.7l-0.8,0.7c0,0,4.8,5.8,9.1,12.6c2.2,3.4,4.2,7.1,5.4,10.4 s1.6,6.2,0.7,8.1c-0.1,0.2-0.1,0.2-0.3,0.2c-0.2,0-0.6-0.2-1.1-0.5c-0.9-0.6-2.1-1.7-3.2-3c-2.3-2.5-4.4-5.4-4.4-5.4l0,0 c-0.3-0.9-0.6-1.7-1-2.6c-2.8-6.8-6.2-13.4-6.2-13.4l-1,0.5c0,0,3.3,6.6,6.1,13.3c1.4,3.4,2.7,6.8,3.3,9.4c0.3,1.3,0.5,2.4,0.4,3.2 c0,0.4-0.1,0.7-0.2,0.9c-0.1,0.2-0.2,0.3-0.3,0.3c-0.1,0-0.3,0-0.7-0.1s-0.8-0.4-1.3-0.8c-1-0.8-2.1-1.9-3.2-3 c-2.1-2.3-3.9-4.6-4-4.6c-1.1-6.5-2.5-12.7-2.5-12.7l-1.1,0.3c0,0,1.6,6.4,2.6,13.1c0.5,3.3,0.9,6.7,0.9,9.4c0,1.3-0.1,2.4-0.3,3.3 c-0.2,0.8-0.5,1.2-0.8,1.4c-0.6,0.3-1.1,0.2-1.6-0.3c-0.6-0.5-1.1-1.3-1.5-2.1c-0.9-1.7-1.4-3.7-1.4-3.7l0,0 c-0.9-4.3-2.2-8.7-3-10.6l-1,0.4c0.7,1.7,2.1,6.3,3,10.5c0.4,2.1,0.8,4.2,0.8,5.8c0,0.8,0,1.5-0.1,2c-0.1,0.5-0.3,0.8-0.3,0.8 c-0.1,0.1-0.3,0.1-0.6,0.1c-0.3,0-0.7-0.2-1.1-0.4c-0.9-0.4-1.9-1.2-2.9-2c-1.9-1.6-3.6-3.3-3.6-3.3c-0.3-3.8-0.8-7.1-0.8-7.1 l-1.1,0.2c0,0,0.8,4.5,0.9,8.9c0.1,2.2,0,4.5-0.4,6.2c-0.2,0.8-0.5,1.5-0.8,2s-0.7,0.7-1.1,0.7c0,0-0.3-0.1-0.6-0.3 s-0.7-0.7-1.2-1.3c-0.9-1.1-1.8-2.7-2.7-4.3c-1.7-3.1-3.2-6.3-3.2-6.3l-1,0.5c0,0,1,1.9,1.5,3c0.4,5.8-0.6,13.1-2.2,19.3 c-0.8,3.1-1.9,6-3,8.3c-1.1,2.3-2.3,4-3.4,4.9c-0.6,0.4-1,0.5-1.3,0.4c-0.4-0.1-0.8-0.5-1.2-1.2c-0.8-1.4-1.5-3.9-2.1-7.1 c-1.1-6.3-1.7-15-2.3-23c1-2,2.3-4.5,2.3-4.5l-1-0.5c0,0-1.5,3.2-3.2,6.3c-0.9,1.6-1.8,3.1-2.7,4.2c-0.4,0.6-0.8,1-1.2,1.3 s-0.6,0.3-0.6,0.3c-0.5,0-0.8-0.3-1.1-0.7c-0.3-0.4-0.6-1.1-0.8-2c-0.4-1.7-0.5-3.9-0.4-6.2c0.1-4.5,0.9-8.9,0.9-8.9l-1.1-0.2 c0,0-0.5,3.4-0.8,7.1c0,0-1.7,1.8-3.6,3.3c-1,0.8-2,1.5-2.9,2c-0.4,0.2-0.8,0.3-1.1,0.4c-0.3,0-0.5,0-0.6-0.1 c-0.1-0.1-0.2-0.3-0.3-0.8c-0.1-0.5-0.1-1.2-0.1-2c0.1-1.6,0.4-3.6,0.8-5.8c0.9-4.2,2.2-8.8,3-10.5l-1-0.4c-0.8,1.9-2.1,6.3-3,10.6 l0,0c0,0-0.5,2-1.4,3.7c-0.4,0.9-1,1.7-1.5,2.1c-0.6,0.5-1,0.6-1.6,0.3c-0.3-0.1-0.6-0.6-0.8-1.4s-0.3-1.9-0.3-3.3 c0-2.6,0.4-6,0.9-9.4c1.1-6.7,2.6-13.1,2.6-13.1l-1.1-0.3c0,0-1.5,6.2-2.5,12.7c-0.1,0.1-1.8,2.4-4,4.6c-1.1,1.1-2.2,2.3-3.2,3 c-0.5,0.4-1,0.7-1.3,0.8s-0.6,0.2-0.7,0.1c-0.1,0-0.2-0.1-0.3-0.3c-0.1-0.2-0.2-0.5-0.2-0.9c0-0.8,0.1-1.9,0.4-3.2 c0.6-2.6,1.9-6.1,3.3-9.4c2.8-6.7,6.1-13.3,6.1-13.3l-1-0.5c0,0-3.3,6.6-6.2,13.4c-0.4,0.9-0.7,1.7-1,2.6l0,0c0,0-2.1,2.9-4.4,5.4 c-1.1,1.2-2.3,2.4-3.2,3c-0.5,0.3-0.9,0.4-1.1,0.5s-0.2,0-0.3-0.2c-0.9-1.9-0.5-4.8,0.7-8.1s3.2-7,5.4-10.4 c4.3-6.8,9.1-12.6,9.1-12.6L220.5,295.5z M304.6,317.6c2.8,3.1,6.1,6.2,8.6,9.2c1.6,1.9,2.9,3.8,3.6,5.6s0.8,3.5,0,5.3 c0,0.1-0.1,0.1-0.2,0.2c-0.1,0.1-0.4,0.1-0.6,0.1c-0.5,0-1.3-0.2-2-0.4c-1.3-0.5-2.4-1-2.6-1.1c0-0.1-0.1-0.2-0.1-0.3 c-1.4-3.2-3.5-6.7-5.1-9.8c0.5-2.2,0-4.8-1-7.6C305,318.4,304.7,318,304.6,317.6z M206.3,317.7c-0.2,0.4-0.4,0.8-0.5,1.1 c-1,2.8-1.5,5.5-1,7.6c-1.5,3.1-3.6,6.6-5.1,9.8c0,0.1-0.1,0.1-0.1,0.2c-0.2,0.1-1.3,0.7-2.7,1.2c-0.7,0.3-1.5,0.4-2,0.5 c-0.3,0-0.5,0-0.6-0.1c-0.1-0.1-0.2-0.1-0.2-0.2c-0.8-1.8-0.7-3.5,0-5.3c0.7-1.8,2-3.7,3.6-5.6C200.3,323.8,203.5,320.7,206.3,317.7 L206.3,317.7z M214.1,321.8c-0.5,1.4-0.9,2.7-1.2,3.9c-0.3,1.4-0.5,2.6-0.5,3.5c0,0.1,0.1,0.2,0.1,0.4c0,0-0.2,0.3-0.5,0.7 c-0.3,0.4-0.8,1-1.3,1.8c-1,1.4-2.3,3.3-3.4,5.3c-0.8,1.4-1.5,2.9-2,4.4c-0.1,0.1-1.2,0.9-2.5,1.5c-0.7,0.3-1.4,0.6-1.9,0.7 c-0.6,0.1-0.8,0-1-0.2c-0.5-0.6-0.6-1.6-0.4-2.8c0.2-1.2,0.7-2.7,1.4-4.2c1.3-2.8,3.1-5.9,4.6-8.8c0.3,0.5,0.8,0.7,1.3,0.7 c0.5,0,1.1-0.3,1.6-0.6c1.1-0.7,2.3-1.9,3.5-3.2C212.9,323.3,213.2,322.8,214.1,321.8z M296.9,321.8c0.8,1.1,1.2,1.6,2.4,3 c1.2,1.3,2.4,2.4,3.5,3.2c0.5,0.4,1.1,0.6,1.6,0.6c0.5,0,1-0.3,1.3-0.7c1.5,2.9,3.3,6,4.6,8.8c0.7,1.6,1.2,3,1.4,4.2 c0.2,1.2,0.1,2.1-0.4,2.8c-0.2,0.2-0.5,0.3-1,0.2c-0.6-0.1-1.3-0.4-1.9-0.7c-1.3-0.6-2.4-1.4-2.5-1.5c-0.6-1.5-1.2-2.9-2-4.4 c-1.2-2-2.4-3.9-3.4-5.3c-0.5-0.7-1-1.3-1.3-1.8c-0.3-0.4-0.5-0.7-0.5-0.7c0-0.1,0.1-0.2,0.1-0.4c0-1-0.1-2.2-0.5-3.5 C297.8,324.5,297.4,323.1,296.9,321.8z M222.8,323.7c-0.4,2.8-0.7,5.7-0.7,8c0,1.4,0.1,2.6,0.3,3.5c0.1,0.2,0.1,0.4,0.2,0.5 c-0.1,0.2-2,5.4-3.7,10.9c-0.3,0.8-0.4,1.6-0.6,2.4c0,0-1.4,1.4-3,2.7c-0.8,0.6-1.7,1.2-2.5,1.6c-0.8,0.3-1.4,0.4-1.8,0.2 c0,0-0.1-0.1-0.2-0.3c-0.1-0.2-0.1-0.5-0.1-0.8c0-0.7,0.1-1.7,0.3-2.9c0.4-2.4,1.3-5.4,2.3-8.4c1.9-6,4.3-11.8,4.3-11.8l0,0 c0.8-0.7,1.7-1.5,2.5-2.4C221.5,325.4,222.1,324.6,222.8,323.7L222.8,323.7z M288.1,323.7c0.7,0.9,1.3,1.7,2.9,3.4 c0.8,0.9,1.7,1.6,2.5,2.4l0,0c0,0,2.3,5.8,4.3,11.8c1,3,1.9,6,2.3,8.4c0.2,1.2,0.3,2.2,0.3,2.9c0,0.4-0.1,0.6-0.1,0.8 s-0.1,0.2-0.2,0.3c-0.4,0.2-1,0.1-1.8-0.2c-0.8-0.3-1.7-0.9-2.5-1.6c-1.7-1.3-3-2.7-3-2.7c-0.2-0.8-0.4-1.5-0.6-2.4 c-1.7-5.6-3.6-10.7-3.7-10.9c0.1-0.2,0.2-0.3,0.2-0.5c0.2-1,0.3-2.2,0.3-3.5C288.8,329.4,288.5,326.5,288.1,323.7L288.1,323.7z M215.8,330.7c-0.7,1.8-2.1,5.5-3.7,10.2c-0.8,2.3-1.3,4.5-1.8,6.5c-0.2,0.1-1,0.4-2,0.7c-0.6,0.2-1.2,0.3-1.6,0.3 c-0.5,0-0.7-0.1-0.8-0.2c-0.8-1-0.8-2.6-0.3-4.4c0.5-1.8,1.5-3.9,2.6-5.9s2.4-3.8,3.4-5.2c0.5-0.7,0.9-1.3,1.3-1.7 c0.1-0.1,0.1-0.1,0.1-0.2c0.2,0.2,0.3,0.5,0.6,0.6c0.5,0.2,1,0.1,1.5-0.1C215.3,331.1,215.6,330.8,215.8,330.7z M295.1,330.7 c0.3,0.2,0.5,0.4,0.8,0.5c0.5,0.2,1,0.3,1.5,0.1c0.3-0.1,0.4-0.4,0.6-0.6c0.1,0.1,0.1,0.1,0.1,0.2c0.3,0.4,0.8,1,1.3,1.7 c1,1.4,2.3,3.2,3.4,5.2c1.1,2,2.1,4,2.6,5.9c0.5,1.8,0.4,3.4-0.3,4.4c-0.1,0.1-0.4,0.2-0.8,0.2c-0.5,0-1.1-0.1-1.6-0.3 c-1.1-0.3-1.9-0.7-2-0.7c-0.5-2.1-1-4.2-1.8-6.5C297.2,336.2,295.8,332.5,295.1,330.7z M228.2,334.8c0,0.5-0.2,1-0.2,1.5 c0,0.8,0,1.6,0.1,2.2c0.1,0.5,0.3,0.9,0.5,1.2c-0.1,0.2-0.1,0.4-0.2,0.6c-0.2,0.6-0.4,1.4-0.7,2.3c-0.6,1.9-1.3,4.5-1.9,7.2 c-0.4,2-0.7,4-0.9,5.8c-0.2,0.1-1.2,1-2.7,1.9c-0.8,0.5-1.7,0.9-2.5,1.1c-0.8,0.2-1.5,0.2-2-0.1c0,0,0,0-0.1-0.1 c0-0.2-0.1-0.4-0.1-0.7c0-0.7,0.1-1.6,0.3-2.7c0.4-2.2,1.2-5.1,2.1-7.9c1.6-5.1,3.1-9.2,3.4-10.1c0.1,0.1,0.2,0.3,0.4,0.4 c1,0.5,2,0.2,2.8-0.4C227.3,336.4,227.8,335.6,228.2,334.8L228.2,334.8z M282.8,334.8c0.4,0.8,0.9,1.5,1.6,2.1 c0.8,0.6,1.8,0.9,2.8,0.4c0.2-0.1,0.3-0.3,0.4-0.4c0.3,0.9,1.9,5,3.4,10.1c0.9,2.8,1.7,5.7,2.1,7.9c0.2,1.1,0.3,2,0.3,2.7 c0,0.3,0,0.6-0.1,0.7c0,0.2-0.1,0.2-0.1,0.1c-0.5,0.3-1.2,0.3-2,0.1c-0.8-0.2-1.7-0.6-2.5-1.1c-1.5-0.8-2.5-1.7-2.7-1.9 c-0.2-1.9-0.5-3.9-0.9-5.8c-0.6-2.7-1.3-5.3-1.9-7.2c-0.3-1-0.6-1.8-0.7-2.3c-0.1-0.3-0.2-0.5-0.2-0.6c0.3-0.3,0.4-0.7,0.5-1.2 c0.1-0.6,0.1-1.4,0.1-2.2C282.9,335.9,282.8,335.3,282.8,334.8L282.8,334.8z M237.5,335.2c0,0.1,0,0.2,0,0.3c-0.1,1.8,0,3.5,0.3,5.1 l-0.1,0c0,0-1,6.1-1.2,12.3c0,0.8,0,1.5,0,2.3c0,0,0,0-0.1,0c-0.1,0.1-0.2,0.2-0.3,0.3c-0.2,0.3-0.6,0.6-1,1.1 c-0.8,0.8-1.8,1.9-2.8,2.9c-1.1,1-2.2,1.9-3.2,2.4c-1,0.5-1.7,0.6-2.3,0.2c-0.8-0.6-1.3-2.2-1.3-4.4c0-2.2,0.5-4.9,1-7.6 c0.6-2.6,1.3-5.2,1.9-7.1c0.3-1,0.6-1.7,0.7-2.3c0.1-0.2,0.1-0.3,0.1-0.4c0.2,0,0.4,0,0.6,0c0.5-0.1,1-0.2,1.5-0.5 c1-0.5,2.1-1.3,3.1-2.1C236.2,336.5,237,335.7,237.5,335.2L237.5,335.2z M273.4,335.2c0.6,0.6,1.3,1.4,2.8,2.6 c1,0.8,2.1,1.6,3.1,2.1c0.5,0.2,1,0.4,1.5,0.5c0.2,0,0.4,0,0.6,0c0,0.1,0.1,0.2,0.1,0.4c0.2,0.6,0.4,1.3,0.7,2.3 c0.6,1.9,1.3,4.5,1.9,7.1c0.6,2.6,1,5.4,1,7.6c0,2.2-0.4,3.8-1.3,4.4c-0.5,0.3-1.3,0.3-2.3-0.2s-2.1-1.4-3.2-2.4 c-1.1-1-2.1-2-2.8-2.9c-0.4-0.4-0.7-0.8-1-1.1c-0.1-0.1-0.2-0.3-0.3-0.3c0,0,0,0-0.1,0c0-0.8,0-1.5,0-2.3 c-0.2-6.2-1.2-12.3-1.2-12.3l-0.1,0c0.2-1.6,0.3-3.3,0.3-5.1C273.4,335.4,273.4,335.3,273.4,335.2L273.4,335.2z M263.9,337.8 c0.3,0.6,0.3,0.6,0.6,1.2c0.9,1.6,1.8,3.2,2.8,4.4c0.5,0.6,0.9,1.1,1.3,1.5c0.4,0.4,0.9,0.7,1.4,0.6c0.8-0.1,1.4-0.5,1.9-1.2 c0.2-0.3,0.3-0.8,0.5-1.2c0.3,2.2,0.7,5.6,0.8,9.7c0.1,3.1-0.1,6.1-0.6,8.5c-0.3,1.2-0.6,2.1-1.1,2.8c-0.5,0.7-1,1-1.6,1.1 c-0.1,0-0.4-0.1-0.7-0.4c-0.4-0.3-0.8-0.8-1.2-1.4c-0.9-1.2-1.8-3-2.6-4.7c-1.7-3.4-2.9-6.7-3-6.9 C263.4,347.1,264,342.2,263.9,337.8z M246.4,339c0.3,5,0.8,9.9,1.3,14.5l0,0c0,0-1.1,3.1-2.6,6.1c-0.7,1.5-1.5,3-2.3,4 c-0.4,0.5-0.8,0.9-1.1,1.2c-0.3,0.3-0.6,0.3-0.7,0.3c-0.7-0.1-1.2-0.4-1.6-1.1c-0.5-0.7-0.8-1.6-1.1-2.8c-0.5-2.3-0.7-5.4-0.6-8.5 c0.1-4.2,0.5-7.5,0.8-9.7c0.2,0.4,0.3,0.9,0.5,1.2c0.5,0.6,1.1,1.1,1.9,1.2c0.5,0.1,1-0.2,1.4-0.6s0.9-0.9,1.3-1.5 C244.5,342.2,245.5,340.6,246.4,339L246.4,339z"/><path class="st6" d="M222.1,223.6c-0.2,3.4-3.9,6.1-3.9,6.1l1.2,7.2c0.4,0-3.1,12.3-3.1,17.8c0,60.7,22.5,75.5,39.3,79.5 c16.7-4,39.3-18.7,39.3-79.5c0-5.5-3.5-17.8-3.1-17.8l1.2-7.2c0,0-3.8-2.7-3.9-6.1"/><path class="st4" d="M218.5,231.9l0.6,3.8c9.6,6.8,21.3,14.4,33.4,21.6c-5.6,3.1-11,6.1-16.3,9c-7.4-4.5-14.1-8.9-19.9-12.8 c0,0.4,0,0.8,0,1.1c0,0.7,0,1.5,0,2.2c5.1,3.4,10.9,7.2,17.2,11c-5.7,3-11.1,5.8-16.1,8.3c0.2,1.5,0.4,3,0.6,4.4 c4.6,3,9.6,6.2,14.9,9.5c-4.1,2.1-8,4-11.8,5.8c0.3,0.9,0.5,1.8,0.8,2.7c4.4-2.1,9-4.3,13.7-6.8c5.5,3.4,11.3,6.8,17.1,10.1 c-5,2.9-9.9,5.6-14.6,8.2c-5.8-3.4-11.1-6.7-15.5-9.5c0.5,1.5,1,2.9,1.6,4.2c3.4,2.1,7.1,4.4,11.1,6.8c-2.1,1.1-4.1,2.2-6.1,3.2 c0.5,0.8,1,1.6,1.5,2.3c2.4-1.2,4.8-2.5,7.3-3.9c4.8,2.8,9.9,5.7,14.8,8.4c-4.3,2.1-8.4,4.1-12.2,5.7c0.9,0.7,1.8,1.3,2.7,1.8 c3.9-1.7,8.1-3.7,12.4-5.9c4.1,2.2,8,4.3,11.7,6.1c0.9-0.5,1.8-1.1,2.7-1.7c-3.6-1.7-7.4-3.7-11.4-5.9c5.1-2.6,10.2-5.5,15.2-8.3 c2.3,1.2,4.6,2.3,6.8,3.4c0.5-0.7,1-1.5,1.5-2.3c-1.8-0.9-3.6-1.8-5.5-2.7c3.5-2.1,6.9-4.1,10-6.1c0.6-1.4,1.1-2.8,1.7-4.3 c-4.4,2.8-9.3,5.9-14.6,9c-5-2.6-10.2-5.4-15.6-8.4c5.8-3.4,11.6-6.8,17.2-10.1c4.7,2.4,9.4,4.7,13.9,6.9c0.3-0.9,0.5-1.7,0.8-2.6 c-3.9-1.8-7.9-3.8-11.9-5.9c5.4-3.2,10.4-6.3,15-9.2c0.2-1.5,0.4-3,0.6-4.5c-5.3-2.5-10.8-5.3-16.5-8.3c6.2-3.9,12.2-7.7,17.6-11.5 c0-0.7,0-1.3,0-2c0-0.4,0-0.8-0.1-1.3c-6.1,4.3-13,8.8-20.3,13.2c-5.4-2.9-10.9-6-16.4-9.2c11.5-6.6,23.2-13.7,33.6-20.7l0.6-3.7 c-11.3,7.7-24.2,15.5-36.9,22.7C241.8,247.7,228.8,239.3,218.5,231.9L218.5,231.9z M255.3,258.9c5.4,3.2,11,6.3,16.4,9.3 c-5.3,3.2-10.7,6.4-16.2,9.5c-5.7-3.2-11.3-6.5-16.6-9.8C244.2,265.1,249.7,262,255.3,258.9z M236.1,269.4 c5.3,3.3,10.9,6.6,16.6,9.9c-5.8,3.2-11.5,6.4-17.1,9.3c-5.9-3.6-11.4-7.1-16.4-10.4C224.5,275.5,230.1,272.6,236.1,269.4z M274.5,269.7c5.9,3.2,11.7,6.1,17.2,8.7c-5,3.1-10.5,6.5-16.5,10.1c-5.6-2.9-11.3-6-16.9-9.2C263.8,276.1,269.2,272.9,274.5,269.7z M255.5,280.8c5.6,3.2,11.3,6.3,17,9.3c-5.6,3.3-11.4,6.7-17.1,10.1c-5.7-3.3-11.4-6.6-17-10C244,287.2,249.7,284.1,255.5,280.8z M255.3,303.4c5.3,3,10.5,5.9,15.5,8.5c-5,2.9-10.2,5.7-15.2,8.2c-5-2.7-10.1-5.6-15-8.5C245.4,309,250.3,306.2,255.3,303.4z"/><path class="st7" d="M255.5,180.1c-4.6,0-12.3,0.8-19,4.9l-16.4-6.7l8.9,15.5c-4.5,6.4-7,18.9-6.9,29.9l1.1,0.5l4.2,14l4.5-8.6 l3.9,10.1l7-7.3l6.6,8.3l6-9 M255.5,180.1c4.6,0,12.3,0.8,19,4.9l16.4-6.7l-8.9,15.5c4.5,6.4,7,18.9,6.9,29.9l-1.1,0.5l-4.2,14 l-4.5-8.6l-3.9,10.1l-7-7.3l-6.6,8.3l-6-9"/><path class="st5" d="M288.9,222.8c-0.4,0-0.8,0.3-0.8,0.7c0,0,0,0.1,0,0.1c0.2,3.6,3.3,5.9,3.9,6.3l-1.1,6.7c0,0,0,0,0,0.1 c0,0.2,0,0.2,0,0.3c0,0.2,0,0.3,0.1,0.5c0.1,0.4,0.2,0.9,0.3,1.5c0.3,1.2,0.7,2.9,1.1,4.8c0.8,3.7,1.7,8.2,1.7,10.8 c0,30.3-5.6,49-13.2,60.6c-7.6,11.5-17.1,16.1-25.3,18.1c-8.2-2-17.7-6.6-25.3-18.1c-7.6-11.6-13.2-30.3-13.2-60.6 c0-2.6,0.9-7.1,1.7-10.8c0.4-1.9,0.8-3.6,1.1-4.8c0.1-0.6,0.2-1.1,0.3-1.5c0-0.2,0.1-0.3,0.1-0.5c0-0.1,0-0.2,0-0.3c0,0,0,0,0-0.1 l-1.1-6.7c0.6-0.4,3.7-2.7,3.9-6.3c0-0.4-0.3-0.8-0.7-0.8c-0.4,0-0.8,0.3-0.8,0.7c0,0,0,0,0,0c-0.2,2.9-3.6,5.5-3.6,5.5l-0.4,0.3 l1.2,7.7c0,0.1,0,0.1,0,0.2c-0.1,0.3-0.2,0.8-0.3,1.4c-0.3,1.2-0.7,2.9-1.1,4.8c-0.8,3.8-1.7,8.2-1.7,11.1 c0,30.5,5.6,49.5,13.5,61.4c7.8,11.9,17.9,16.8,26.4,18.8l0.2,0l0.2,0c8.5-2,18.5-6.8,26.4-18.8c7.8-11.9,13.5-31,13.5-61.4 c0-2.9-0.9-7.4-1.7-11.1c-0.4-1.9-0.8-3.6-1.1-4.8c-0.1-0.6-0.2-1.1-0.3-1.4c0-0.1,0-0.2,0-0.2l1.2-7.7l-0.4-0.3 c0,0-3.5-2.6-3.6-5.5C289.6,223.1,289.3,222.8,288.9,222.8z"/><path class="st5" d="M235.8,200.8c0.3-5,2.2-3.6,4.2-1.8l4.5,3.9c1.2,1,2,2.1,2.1,3.9c0.2,2.6-1.3,2.3-4.1,1.5 C237.6,206.8,235.4,206.1,235.8,200.8z M275.2,200.8c-0.3-5-2.2-3.6-4.2-1.8l-4.5,3.9c-1.2,1-2,2.1-2.1,3.9 c-0.2,2.6,1.3,2.3,4.1,1.5C273.4,206.8,275.5,206.1,275.2,200.8z"/><path class="st8" d="M241,315.1c-3.4-1.5-3.8-1.6-5.8-2.2c-3.5-1-6.2,2.2,0.5,6.5 M236.9,318.4c-2.8,1.1-5.3,1.3-5.3,4 c-0.1,4,6.4,4.1,7.4,1.2c0.2-0.5-2.1-0.4-1.8-1.2c0.4-1.4,2.9-1.1,4.4-1.3c3.3-0.4,5,2.3,3.6,2.9c-2.8,1.4-3.9,2.4-3.9,3.1 c0,1,7.4,2.1,9.4-1.6c3.1-5.6-9.5-17.4-11.4-17.4c-2,0-6.7,0.5-0.4,6.6"/><path class="st9" d="M235.2,312.9c-3.5-1-6.2,2.2,0.5,6.5 M231.6,322.4c-0.1,4,6.4,4.1,7.4,1.2 M245.2,324c-2.8,1.4-3.9,2.4-3.9,3.1 c0,1,7.4,2.1,9.4-1.6 M239.3,308.1c-2,0-6.7,0.5-0.4,6.6"/><path class="st5" d="M239.3,307.8c-0.5,0-1.2,0-1.9,0.2s-1.3,0.4-1.7,1c-0.4,0.5-0.4,1.3,0,2.3c0.3,0.5,0.7,1.2,1.3,1.9 c-0.5-0.2-1-0.3-1.7-0.5c-0.9-0.3-1.8-0.3-2.5,0c-0.7,0.2-1.3,0.8-1.4,1.5s0.1,1.6,0.7,2.5c0.5,0.7,1.4,1.5,2.5,2.3 c-0.4,0.2-0.8,0.3-1.2,0.5c-1.2,0.6-2.1,1.6-2.1,3c0,1.1,0.4,2,1.1,2.5s1.6,0.9,2.5,1c0.9,0.1,1.9-0.1,2.7-0.4s1.5-1,1.7-1.8 c0.1-0.2,0-0.4-0.1-0.5c-0.1-0.1-0.2-0.2-0.3-0.2c-0.2-0.1-0.5-0.1-0.7-0.2c-0.2-0.1-0.5-0.1-0.6-0.2c-0.1,0-0.1-0.1-0.1-0.1 c0,0,0,0,0-0.1c0.1-0.3,0.2-0.5,0.5-0.6c0.3-0.1,0.6-0.2,1-0.3c0.8-0.1,1.8-0.1,2.6-0.1c1.5-0.2,2.7,0.4,3.3,1 c0.3,0.3,0.4,0.6,0.5,0.9c0,0.2,0,0.4-0.3,0.5c-1.4,0.7-2.4,1.3-3.1,1.9c-0.6,0.5-1,1-1,1.5c0,0.3,0.2,0.5,0.5,0.6s0.6,0.3,0.9,0.4 c0.8,0.2,1.8,0.3,2.8,0.3c2.1-0.1,4.6-0.7,5.7-2.7c0.8-1.5,0.6-3.4-0.2-5.3s-2.2-4-3.7-5.8s-3.2-3.5-4.6-4.7 c-0.7-0.6-1.3-1.1-1.9-1.4C240.1,308,239.7,307.8,239.3,307.8L239.3,307.8z M239.3,308.4c0.1,0,0.5,0.1,1,0.5 c0.5,0.3,1.1,0.8,1.8,1.4c1.4,1.2,3,2.8,4.5,4.6c1.5,1.8,2.8,3.8,3.6,5.6c0.8,1.9,0.9,3.5,0.2,4.8c-0.9,1.7-3.1,2.3-5.2,2.4 c-1,0-2-0.1-2.7-0.3c-0.3-0.1-0.6-0.2-0.8-0.3c-0.2-0.1-0.2-0.2-0.2-0.1c0-0.2,0.2-0.5,0.8-1c0.6-0.5,1.5-1.1,2.9-1.8 c0.4-0.2,0.7-0.7,0.6-1.1c0-0.4-0.3-0.9-0.6-1.2c-0.7-0.8-2.1-1.4-3.8-1.2c-0.7,0.1-1.7,0-2.6,0.1c-0.5,0.1-0.9,0.2-1.2,0.4 c-0.4,0.2-0.7,0.5-0.8,1c0,0.2,0,0.3,0,0.5c0.1,0.1,0.2,0.3,0.3,0.3c0.2,0.2,0.5,0.2,0.8,0.3s0.5,0.1,0.7,0.2c0,0,0,0,0,0 c-0.2,0.6-0.7,1-1.4,1.3c-0.7,0.3-1.5,0.5-2.4,0.4s-1.6-0.3-2.1-0.8c-0.6-0.5-0.9-1.1-0.9-2.1c0-1.2,0.7-1.9,1.8-2.5 c0.4-0.2,1-0.4,1.4-0.6c0.2,0.1,0.3,0.2,0.4,0.3l0.3-0.5c0,0-0.1-0.1-0.1-0.1c-1.1-0.9-2.4-1.7-3.2-2.8c-0.6-0.8-0.8-1.5-0.6-2 c0.1-0.5,0.5-0.8,1-1s1.3-0.2,2.2,0c1.1,0.3,1.9,0.6,2.8,0.9c0.3,0.3,0.5,0.5,0.8,0.9l0.4-0.4c-0.9-1.2-2.2-2.3-2.8-3.6 c-0.4-0.8-0.3-1.3-0.1-1.7c0.2-0.3,0.8-0.6,1.3-0.7C238.2,308.5,238.8,308.4,239.3,308.4L239.3,308.4z"/><path class="st8" d="M269.9,315.1c3.4-1.5,3.8-1.6,5.8-2.2c3.5-1,6.2,2.2-0.5,6.5 M274,318.4c2.8,1.1,5.3,1.3,5.3,4 c0.1,4-6.4,4.1-7.4,1.2c-0.2-0.5,2.1-0.4,1.8-1.2c-0.4-1.4-2.9-1.1-4.4-1.3c-3.3-0.4-5,2.3-3.6,2.9c2.8,1.4,3.9,2.4,3.9,3.1 c0,1-7.4,2.1-9.4-1.6c-3.1-5.6,9.5-17.4,11.4-17.4c2,0,6.7,0.5,0.4,6.6"/><path class="st9" d="M275.7,312.9c3.5-1,6.2,2.2-0.5,6.5 M279.3,322.4c0.1,4-6.4,4.1-7.4,1.2 M265.7,324c2.8,1.4,3.9,2.4,3.9,3.1 c0,1-7.4,2.1-9.4-1.6 M271.6,308.1c2,0,6.7,0.5,0.4,6.6"/><path class="st5" d="M271.6,307.8c0.5,0,1.2,0,1.9,0.2s1.3,0.4,1.7,1c0.4,0.5,0.4,1.3,0,2.3c-0.3,0.5-0.7,1.2-1.3,1.9 c0.5-0.2,1-0.3,1.7-0.5c0.9-0.3,1.8-0.3,2.5,0c0.7,0.2,1.3,0.8,1.4,1.5c0.2,0.7-0.1,1.6-0.7,2.5c-0.5,0.7-1.4,1.5-2.5,2.3 c0.4,0.2,0.8,0.3,1.2,0.5c1.2,0.6,2.1,1.6,2.1,3c0,1.1-0.4,2-1.1,2.5c-0.7,0.6-1.6,0.9-2.5,1s-1.9-0.1-2.7-0.4 c-0.8-0.4-1.5-1-1.7-1.8c-0.1-0.2,0-0.4,0.1-0.5c0.1-0.1,0.2-0.2,0.3-0.2c0.2-0.1,0.5-0.1,0.7-0.2c0.2-0.1,0.5-0.1,0.6-0.2 c0.1,0,0.1-0.1,0.1-0.1c0,0,0,0,0-0.1c-0.1-0.3-0.2-0.5-0.5-0.6s-0.6-0.2-1-0.3c-0.8-0.1-1.8-0.1-2.6-0.1c-1.5-0.2-2.7,0.4-3.3,1 c-0.3,0.3-0.4,0.6-0.5,0.9c0,0.2,0,0.4,0.3,0.5c1.4,0.7,2.4,1.3,3.1,1.9s1,1,1,1.5c0,0.3-0.2,0.5-0.5,0.6c-0.2,0.1-0.6,0.3-0.9,0.4 c-0.8,0.2-1.8,0.3-2.8,0.3c-2.1-0.1-4.6-0.7-5.7-2.7c-0.8-1.5-0.6-3.4,0.2-5.3s2.2-4,3.7-5.8s3.2-3.5,4.6-4.7 c0.7-0.6,1.3-1.1,1.9-1.4C270.9,308,271.2,307.8,271.6,307.8L271.6,307.8z M271.6,308.4c-0.1,0-0.5,0.1-1,0.5 c-0.5,0.3-1.1,0.8-1.8,1.4c-1.4,1.2-3,2.8-4.5,4.6c-1.5,1.8-2.8,3.8-3.6,5.6c-0.8,1.9-0.9,3.5-0.2,4.8c0.9,1.7,3.1,2.3,5.2,2.4 c1,0,2-0.1,2.7-0.3c0.3-0.1,0.6-0.2,0.8-0.3c0.2-0.1,0.2-0.2,0.2-0.1c0-0.2-0.2-0.5-0.8-1c-0.6-0.5-1.5-1.1-2.9-1.8 c-0.4-0.2-0.7-0.7-0.6-1.1c0-0.4,0.3-0.9,0.6-1.2c0.7-0.8,2.1-1.4,3.8-1.2c0.7,0.1,1.7,0,2.6,0.1c0.5,0.1,0.9,0.2,1.2,0.4 c0.4,0.2,0.7,0.5,0.8,1c0,0.2,0,0.3,0,0.5c-0.1,0.1-0.2,0.3-0.3,0.3c-0.2,0.2-0.5,0.2-0.8,0.3s-0.5,0.1-0.7,0.2c0,0,0,0,0,0 c0.2,0.6,0.7,1,1.4,1.3c0.7,0.3,1.5,0.5,2.4,0.4c0.8-0.1,1.6-0.3,2.1-0.8s0.9-1.1,0.9-2.1c0-1.2-0.7-1.9-1.8-2.5 c-0.4-0.2-1-0.4-1.4-0.6c-0.2,0.1-0.3,0.2-0.4,0.3l-0.3-0.5c0,0,0.1-0.1,0.1-0.1c1.1-0.9,2.4-1.7,3.2-2.8c0.6-0.8,0.8-1.5,0.6-2 c-0.1-0.5-0.5-0.8-1-1c-0.6-0.2-1.3-0.2-2.2,0c-1.1,0.3-1.9,0.6-2.8,0.9c-0.3,0.3-0.5,0.5-0.8,0.9l-0.4-0.4c0.9-1.2,2.2-2.3,2.8-3.6 c0.4-0.8,0.3-1.3,0.1-1.7c-0.2-0.3-0.8-0.6-1.3-0.7C272.8,308.5,272.1,308.4,271.6,308.4L271.6,308.4z"/><path class="st5" d="M255.5,228.1c4.1-0.6,6.7-11.5,6.7-12.6c0-0.7-3.2-7.3-6.7-7.3c-3.5,0-6.7,6.6-6.7,7.3 C248.8,216.5,251.4,227.5,255.5,228.1"/><g><path class="st1" d="M111.7,93.4h5.5v-9.7h9.7v9.7h5.5V72.2c0-1.5-1.5-3-3-3h-14.6c-1.5,0-3,1.5-3,3V93.4 M117.2,78.8V74h9.7v4.9 H117.2"/><path class="st1" d="M143.5,93.4h14.6c1.5,0,3-1.5,3-3V69.1h-5.5v18.8H146V69.1h-5.5v21.2C140.5,91.9,142,93.4,143.5,93.4"/><path class="st1" d="M172.4,93.4H190V78.2h-7.9v5.5h2.4v4.2h-9.7V74h9.7v2.4h5.5v-7.3h-17.6c-1.5,0-3,1.5-3,3v18.2 C169.3,91.9,170.8,93.4,172.4,93.4"/><path class="st1" d="M198.1,93.4h17.6c1.5,0,3-1.5,3-3v-9.1c0-1.5-1.5-3-3-3h-12.1V74h9.7v2.4h5.5v-7.3h-17.6c-1.5,0-3,1.5-3,3v8.5 c0,1.5,1.5,3,3,3h12.1v4.2h-9.7v-2.4h-5.5V93.4"/></g><g><path class="st1" d="M292.2,93.4h17.6c1.5,0,3-1.5,3-3v-7.9c0-0.6-0.6-1.2-1.2-1.2c0.6,0,1.2-0.6,1.2-1.2v-7.9c0-1.5-1.5-3-3-3 h-17.6V93.4 M297.6,87.9v-4.2h9.7v4.2H297.6 M297.6,78.8v-4.2h9.7v4.2H297.6"/><path class="st1" d="M324.6,93.4h14.6c1.5,0,3-1.5,3-3V69.1h-5.5v18.8h-9.7V69.1h-5.5v21.2C321.6,91.9,323.1,93.4,324.6,93.4"/><path class="st1" d="M349.8,93.4h5.5V83.1h9.7v10.3h5.5V81.9c0-0.6-0.6-1.2-1.2-1.2c0.6,0,1.2-0.6,1.2-1.2v-7.3c0-1.5-1.5-3-3-3 h-17.6V93.4 M355.3,78.2V74h9.7v4.2H355.3"/><path class="st1" d="M381.7,93.4h17.6V78.2h-7.9v5.5h2.4v4.2h-9.7V74h9.7v2.4h5.5v-7.3h-17.6c-1.5,0-3,1.5-3,3v18.2 C378.6,91.9,380.1,93.4,381.7,93.4"/></g><g><path class="st10" d="M177.2,164.4h14.6l4.9-4.9V128l-4.9-4.9h-14.6l-4.9,4.9v31.5L177.2,164.4 M179,157.7v-27.9H190v27.9H179"/><path class="st10" d="M209.2,123.1v6.7h2.4l5.6,27.9h-2.4v6.7H227v-6.7h-2.4l4.9-9.7l4.9,9.7h-2.4v6.7h12.1v-6.7h-2.4l5.6-27.9h2.4 v-6.7h-12.1v6.7h2.4l-3.3,18.5l-7.2-14.3l-7.2,14.3l-3.3-18.5h2.4v-6.7H209.2z"/></g><g><path class="st11" d="M262.4,123.1v6.7h2.4v27.9h-2.4v6.7h26.7v-9.7h-6.7v3h-10.3v-27.9h2.4v-6.7H262.4z"/><path class="st11" d="M306.4,123.1l-4.9,4.9v14.3l4.9,4.9h12.1v10.6h-10.3v-3h-6.7v4.9l4.9,4.9h14l4.9-4.9v-14.3l-4.9-4.9h-12.1 v-10.6h10.3v3h6.7V128l-4.9-4.9H306.4z"/></g><g><path class="st12" d="M162.4,377.3l-2.4,2.4v20l2.4,2.4h3v1.8h3.6v-1.8h3l2.4-2.4v-20l-2.4-2.4H162.4 M163.6,380.9h7.3v17.6H169 v-1.8h-3.6v1.8h-1.8V380.9z"/><path class="st12" d="M182.1,377.3v3.6h1.8v18.8l2.4,2.4h9.7l2.4-2.4v-18.8h1.8v-3.6H193v3.6h1.8v17.6h-7.3v-17.6h1.8v-3.6H182.1z" /><path class="st12" d="M207.8,377.3v3.6h1.8v17.6h-1.8v3.6h7.3v-3.6h-1.8v-17.6h1.8v-3.6H207.8z"/><path class="st12" d="M223,377.3v3.6h1.8v17.6H223v3.6h14l2.4-2.4v-20l-2.4-2.4H223 M228.5,380.9h7.3v17.6h-7.3V380.9z"/><path class="st5" d="M247.3,377.3v3.6h1.8v17.6h-1.8v3.6h8.2v-3.6h-2.7v-17.6h2.7v-3.6H247.3z"/><path d="M255.7,380.7h-3.2v18.1h3l0.5-0.5h-3v-17.1h2.7L255.7,380.7z M255.7,377.1h-8.4l-0.2,0v4.1h1.8v17.1H247v4.1h9.1l-0.5-0.5 h-8.1v-3.2h1.8v-18.1h-1.8v-3.2h8.2L255.7,377.1z"/></g><g><path class="st1" d="M255.5,377.3v3.6h4.5v17.6h-4.5v3.6h5.8l2.4-2.4v-20l-2.4-2.4H255.5z"/><path d="M255.2,377.5h5.9l2.3,2.3v19.8l-2.3,2.3h-5.9l0,0.5h6.1l2.6-2.6v-20.2l-2.6-2.6h-5.9l-0.2,0.2L255.2,377.5z M255.2,381.2 h4.5v17.1h-4.5l0,0.5h5v-18.1h-5L255.2,381.2z"/><path class="st13" d="M270.9,377.3v3.6h1.8v17.6h-1.8v3.6h7.3v-3.6h-1.8v-17.6h1.8v-3.6H270.9z"/><path class="st13" d="M286.1,377.3v5.5h3.6v-1.8h3.6v17.6h-1.8v3.6h7.3v-3.6H297v-17.6h3.6v1.8h3.6v-5.5H286.1z"/><path class="st13" d="M314,377.3l-2.4,2.4v20l2.4,2.4h9.7l2.4-2.4v-4.9h-3.6v3.6h-7.3v-17.6h7.3v3.6h3.6v-4.9l-2.4-2.4H314z"/><path class="st13" d="M333.7,377.9v3.6h1.8v17.6h-1.8v3.6h7.3v-3.6h-1.8v-7h7.3v7h-1.8v3.6h7.3v-3.6h-1.8v-17.6h1.8v-3.6h-7.3v3.6 h1.8v7h-7.3v-7h1.8v-3.6H333.7z"/></g></svg> 