<svg version="1.1" id="Ebene_1" xmlns="http://www.w3.org/2000/svg" xmlns:xlink="http://www.w3.org/1999/xlink" x="0px" y="0px"
	 viewBox="0 0 512 512" style="enable-background:new 0 0 512 512;" xml:space="preserve">
<circle fill="#FFFFFF" cx="256" cy="256" r="256"/>
<path fill="#283680" d="M292,274.4c4.7,4.6,4.7,7.6,0,13.1c4-1.4,7-3.2,9.7-5.4c6.8-5.6,7.1-10.6,0.8-16.8c-5-4.9-10.9-8.5-17.1-11.5
	c-15.4-7.6-30.8-15.1-46.3-22.6c-1.8-0.9-3.4-1.8-4.9-3c-30.2-25.3-52.6-55.8-63.8-94c-0.2-0.8-0.1-2.1-1.7-2
	c0.4,1.8,0.8,3.5,1.1,5.3c5.1,27.2,15.2,52.2,33.4,73.4c0,0.3,0,0.5,0.1,0.8c-0.2-0.1-0.4-0.2-0.6-0.3
	c-37.5-22.2-69.7-49.5-86.4-91.6c-0.2,0.5-0.3,0.7-0.2,0.8c5.8,21,15.5,40,29.8,56.5c18.4,21.2,40.6,37.7,64.7,51.8
	c20.6,12.1,42.1,22.5,63.2,33.5C280.2,265.7,286.7,269.2,292,274.4z"/>
<path fill="#283680" d="M331.7,311.5c1.8-3.8,5.2-4.1,7.6-0.8c1.6,2.3,3.7,3.9,6,5.3c3.4,2,6.4,4.5,9.3,7.1c0.4,0.4,1.5,0.9,0.8,1.3
	c-2.2,1.3-0.5,1.6,0.4,2.1c2.7,1.5,5.5,2.5,8.1,0.2c2.6-2.3,2.1-5.4,1.5-8.4c-0.4-2-3.9-3.5-1.2-6.2c0.1-0.1-0.4-0.7-0.7-1
	c-2.3-2.8-3.7-6.1-5.1-9.3c-2.6-5.9-6.1-11.2-10.9-15.5c-0.5-0.4-1.4-1.6-1.6-0.8c-0.7,2.7-1.5,0.4-1.9,0.1
	c-3.9-3.4-7.7-7-11.5-10.4c-0.2-0.2-0.5-0.3-0.8-0.4c-0.7,0.6,0.5,1.5-0.6,2.2c-6.1-4.2-12.4-8.4-19-12.9c0.5,4.3,0.9,8,1.2,11.6
	c-1.6,0.1-2.4-1.2-3.9-0.8c0.4,1.2,1,2.3,1,3.3c-0.1,3.5,4.9,6.5,1,10.4c-0.1,0.1,0.1,0.4,0.2,0.6c4.6,5.7,5,14.4,12.5,18.3
	c1.9,1,3.4,3,4.9,4.6C330.2,313.5,330.8,313.3,331.7,311.5z M355.5,308.7c0.3,1-0.4,1-1.1,0.7c-0.3-0.1-0.5-0.4-1.3-0.9
	C354.4,308.3,355.3,308.1,355.5,308.7z M353.1,304.3c-0.6,1.3-0.7,2.6,0.1,3.8C351,306.9,351.3,305.6,353.1,304.3z"/>
<path fill="#283680" d="M307.9,349.6c1.8-1.5,1.8-3.6,3.4-4.6c1,1.4-0.3,2.6,0,4.4c1.4-1.9,2.5-3.4,3.8-5.2c1.1,1.7-0.5,2.7-0.5,4.6
	c1.4-1.5,2.4-2.4,3.3-3.5c2.6-3.2,1.8-5.5-2.2-6.7c-1.8-0.5-3.6-0.8-5.4-1.1c-11.5-2-22.7-5.3-33.3-10.4c-6.5-3.2-12.4-7.1-17-12.7
	c-5.1-6.2-7.1-13.2-5.5-21.2c1.4-6.9,4.9-12.9,9-18.5c0.7-0.9,1.3-1.7,2-2.6c-8.6,2.4-16.7,5.4-23,11.6c-5.5,5.5-6.6,12-3.1,18.9
	c3,5.8,7.6,10.2,12.7,14c10.8,8.2,22.9,13.7,35.9,17.6c5.3,1.6,5.5,2.5,1.6,6.3c-2,1.9-2.9,4.1-1.4,6.7c1,1.7,2.4,3,4.5,4.9
	c-1.4-3.7-1.9-6.5,1.1-8.5c3.6-2.4,7.6-2.4,11.5-1.1C308.5,343.6,308.3,346.5,307.9,349.6z"/>
<path fill="#283680" d="M406.5,415.5c0.1-2.3,1.3-4.7,1.2-7.2c0-1.5-0.4-1.9-2-2.1c-4.8-0.6-8.4,0.4-10.2,5.4c-0.3,0.8-0.7,1.8-1.8,2.3
	c-0.6-0.9-1.3-1.7-1.7-2.7c-1.7-4.2-4.8-5.5-9.1-5c-2,0.2-2.9,0.6-2.7,2.7c0.6,5.1,2,10.1,1.4,15.3c-0.1,0.9,0.3,1.9-0.5,2.8
	c-1.8,2-0.7,4.5-0.8,6.8c0,1.4,1.5,1,2.3,0.9c2.5-0.3,5.7,1.4,7.5-0.9c1-1.3,0.9-4.5-0.1-5.9c-1.8-2.5-0.6-4.8-0.5-7.4
	c1.4,2.3,2.8,4.6,4.4,7.4c1.5-2.6,2.9-5,4.3-7.3c0.3,2.3,1.4,4.6,0,6.5c-1.5,2.2-1.1,4.7-0.6,6.7c0.5,1.8,3,0.6,4.6,0.8
	c1.3,0.2,2.6,0,3.9,0c0.9,0,1.5-0.3,1.5-1.2c0-1.7,0.6-3.8-0.1-5.1C405,424.1,406.3,419.7,406.5,415.5z"/>
<path fill="#283680" d="M239.7,106.4c0.2,3.8,3.3,1.1,5,1.8c0.6,0.3,1.5-0.1,2.2,0.1c2.4,0.4,2.6-0.8,2.9-2.9c0.4-3.5-2.8-6.4-1.1-10.4
	c1.8,3.3,3.7,6.1,4.9,9.1c1.4,3.5,3.6,4.5,7.2,4.2c2-0.2,2.6-0.6,2.5-2.6c-0.1-5.2-0.1-10.4,0-15.5c0-0.9-0.4-1.9,0.4-2.7
	c2-2,1.6-5.1,0.7-6.5c-1.5-2.4-4.9-0.6-7.4-1c-0.8-0.1-2.2-0.6-2.3,0.9c-0.1,2-0.7,4.6,0.3,6c1.5,2.1,0.5,3.8,0.7,5.7
	c-1.8-2.5-3.5-4.9-4.5-7.6c-1.6-4.4-4.5-5.7-8.9-5.1c-2,0.2-3,0.5-2.7,2.7c0.8,5.1,1.8,10.2,1.3,15.3c-0.1,0.9,0.4,2.1-0.4,2.8
	C238.7,102.4,239.6,104.5,239.7,106.4z"/>
<path fill="#283680" d="M295.4,408.6c0-0.8,0.4-2.1-0.8-2.2c-2.9-0.2-5.8-0.1-8.7,0c-0.2,0-0.6,0.6-0.7,1c0,1.9-0.4,4,0.2,5.8
	c1.2,3.7,1.4,3.7-2.4,3.6c-3-0.1-3.3-0.6-1.9-3c1.2-2.1,1.3-5,0.3-6.4c-1.6-2.4-4.9-0.6-7.5-0.9c-0.8-0.1-2.2-0.5-2.4,0.9
	c-0.2,2-0.6,4.4,0.2,6c2.2,4.4,1.2,8.9,0.6,13.1c-0.3,2.1-0.7,4.4-1,6.7c-0.1,0.8,0,1.6,1.1,1.6c2.7,0,5.4,0,8.1,0
	c0.3,0,0.9-0.5,0.9-0.7c-0.1-2.2,0.8-4.6-0.5-6.5c-0.7-1-1.2-2.3-0.4-2.8c1.6-0.9,3.7-0.8,5.3-0.1c1,0.4,0.5,1.7-0.2,2.7
	c-1.5,2.1-1,4.7-0.4,6.8c0.5,1.4,2.9,0.4,4.5,0.6c0.6,0,1.3-0.1,1.9,0c2.9,0.5,3.6-0.7,3.6-3.5c0-3.2-1.5-6-1.7-9.2
	C293.7,417.3,295.6,413.1,295.4,408.6z"/>
<path fill="#283680" d="M98.5,84c-0.7-2.4-3-4.7-6.5-4.2c-1.7,0.2-3.4,0-5.2,0c-1.9,0-3.9,0.2-5.8,0c-2.3-0.2-3,0.4-3.2,2.9
	c-0.3,3.2,1.6,5.8,1.7,8.9c0.1,4.7-1.2,9.1-1.6,13.7c-0.2,2.2,0.4,3.1,2.8,2.9c3.8-0.2,7.6-0.3,11.3,0c3.3,0.3,4.9-1.9,6.5-3.9
	c1.1-1.5,0.4-7.6-1-8.8c-1.3-1.2-1.2-1.9,0-3C100.1,90,99.3,86.6,98.5,84z M88.8,87.3c1.6-0.1,2.8-0.2,2.7,1.7
	c-0.1,1.8-1.3,1.4-2.3,1.4c-1.1,0-2.4,0.5-2.4-1.5C86.7,86.8,88.1,87.4,88.8,87.3z M89.2,100.8c-1.3,0-2.6,0.3-2.5-1.6
	c0.1-2,1.5-1.4,2.6-1.5c1.1-0.1,2.1-0.2,2.2,1.5C91.5,101.3,90.1,100.8,89.2,100.8z"/>
<path fill="#283680" d="M127.3,106c0.1,1-0.3,2.3,1.4,2.3c2.5,0,5,0,7.4,0c0.6,0,1.3-0.2,1.2-0.8c-0.3-2.2,1-4.7-0.8-6.7
	c-0.7-0.7-0.7-1.8-0.3-2.4c0.8-1.2,2.2-0.5,3.3-0.6c1.2-0.1,1.2,0.9,1.2,1.8c0,2.3,0,4.5,0,6.8c0,0.9,0,1.8,1.2,1.8
	c2.2,0,4.3,0,6.5,0c0.8,0,1.1-0.4,1.1-1.2c0.1-4.2-0.4-8.3-3-11.7c-1-1.2-0.6-1.7,0.3-2.6c2.7-2.6,1.8-6.1,1-8.8
	c-0.8-2.4-3.1-4.6-6.6-4.1c-1.7,0.3-3.4,0-5.2,0c-2.2,0-4.3,0.1-6.5,0c-1.9-0.1-2.2,0.6-2.4,2.4c-0.3,4,1.7,7.6,1.7,11.7
	C128.9,98.1,126.8,101.9,127.3,106z M138.8,87.3c1.3-0.2,2.1,0.1,2,1.7c-0.1,2-1.6,1.1-2.5,1.4c-1.2,0-2.3,0.2-2.3-1.5
	C136.1,86.5,137.8,87.5,138.8,87.3z"/>
<path fill="#283680" d="M172.7,105.8c0.2,2,0.7,2.6,2.6,2.5c2.6-0.2,5.2,0,7.8,0c1.3,0,2.6,0,3.9,0c7.5,0,7.6,0,6.7-7.7
	c-0.1-0.6,0-1.7-0.7-1.5c-2.3,0.4-5-1.5-7,1.3c-0.9,1.2-2.6,0.6-3.9,0.4c-0.8-0.1-0.6-1.1-0.5-1.6c0.2-1.7,1.5-1.3,2.5-1.2
	c2,0.2,2.4-0.7,2.3-2.4c-0.1-1.3,0.2-2.6-0.1-3.9c-0.5-2.1,0.5-2.2,2.2-2.3c5.2-0.1,5.2-0.2,5.2-5.5c0-0.5-0.1-1.1,0-1.6
	c0.2-1.7-0.4-2.2-2.2-2.2c-5.4,0.1-10.8,0.2-16.2,0c-2.3-0.1-2.6,0.8-2.6,2.7c0,4.2,1.7,8.1,1.6,12.4
	C174.3,98.8,172.3,102.1,172.7,105.8z M183.8,87.3c1.5-0.2,2.5,0.2,2.5,1.9c0,1.8-1.5,0.8-2.3,1.1c-1.1-0.1-2.5,0.3-2.5-1.6
	C181.6,87.1,182.8,87.4,183.8,87.3z"/>
<path fill="#283680" d="M209.1,413.6c0-4.9-2.5-7.3-7.5-7.3c-3.6,0-7.1,0.1-10.7,0c-2.1-0.1-2.5,0.5-2.8,2.6c-0.5,3.4,1.5,6,1.7,9.2
	c0.3,4.9-1.4,9.4-1.6,14.1c-0.1,2,0.6,2.6,2.6,2.5c3.7-0.2,7.3,0,11,0c5,0,7.4-2.4,7.4-7.4c0-2.3,0-4.5,0-6.8
	C209.1,418.1,209.1,415.9,209.1,413.6z M199.2,427.3c-2.4,0-2.3-1.3-2.2-2.9c0-2.9,0.1-5.8,0-8.7c-0.1-1.9,0.9-2,2.4-2
	c1.4,0,2.6,0,2.4,2c-0.1,1.6,0,3.2,0,4.8c0,1.3-0.1,2.6,0,3.9C201.8,426.2,201.5,427.3,199.2,427.3z"/>
<path fill="#283680" d="M186.3,413.8c0-5.2-2.4-7.5-7.6-7.5c-3.7,0-7.3,0.1-11,0c-1.8-0.1-2.1,0.6-2.5,2.3c-0.6,3.2,1.4,5.6,1.6,8.5
	c0.4,5-1,9.8-1.5,14.7c-0.2,2.2,0.4,3.1,2.8,2.9c3.7-0.2,7.3-0.1,11-0.1c4.7,0,7.2-2.5,7.2-7.3c0-2.3,0-4.5,0-6.8
	S186.3,416.1,186.3,413.8z M176.5,427.3c-1.5,0-2.5-0.2-2.3-2.1c0.1-0.7,0.1-1.5,0.1-2.3c0-0.8,0-1.5,0-2.3c0-0.7,0-1.4,0-2.1
	c0-0.7,0-1.4,0-2.1c-0.1-1.6-0.1-2.8,2.2-2.8c2.5,0,2.5,1.1,2.5,2.9c-0.1,2.9-0.1,5.8,0,8.7C179,427.3,177.9,427.2,176.5,427.3z"/>
<path fill="#283680" d="M271.3,108.2c0.2,0.1,0.4,0,0.6,0c5.2,0,5.2,0,5-5.1c0-0.7,0.2-1.5-0.4-2.1c-1.4-1.6-0.2-1.9,1.1-2
	c0.9,0,1.7,0,2.6,0c1.6,0.1,2.4,0.1,1.2,2.2c-1.1,1.9-1,4.6-0.1,6.6c0.6,1.3,3,0.3,4.6,0.5c0.1,0,0.2,0,0.3,0c0.6,0,1.3-0.1,1.9,0
	c2.5,0.4,3.1-0.5,3.4-3.1c0.2-2.7-1.5-4.2-2-6.4c-0.9-3.4-1.7-6.9-2.6-10.4c-2.2-8.7-2.2-8.6-11.1-8.6c-2.1,0-2.8,0.7-3.2,2.6
	c-1.1,5.2-2.5,10.3-3.8,15.4c-0.2,0.9-0.3,2.2-0.9,2.7c-2.6,2-1.4,4.7-1,6.8C267.1,109.3,269.7,107.8,271.3,108.2z M279,87.9
	c0.4,1.7,1.3,2.9,0.7,4.2c-0.2,0.4-1.2,0.4-1.4,0C277.6,90.8,278.4,89.6,279,87.9z"/>
<path fill="#283680" d="M111,106.9c-0.3-2.1,0.8-4.2-0.7-6.2c-0.7-1-0.1-1.6,0.9-1.7c1.3-0.1,2.6-0.1,3.9,0c1,0.1,1.5,0.8,0.7,1.8
	c-1.4,1.8-0.9,4-0.6,5.8c0.6,3.3,3.4,1,5.2,1.6c0.9,0.3,1.9,0,2.9,0.1c1.7,0.2,2.1-0.5,2.3-2.2c0.2-2.8-1-4.9-1.9-7.3
	c-1.5-4.2-2.3-8.7-3.4-13.1c-1.4-5.7-1.4-5.7-7.2-5.7c-0.6,0-1.3,0.1-1.9,0c-2.9-0.5-4.2,0.5-4.7,3.5c-0.9,4.9-2.3,9.6-3.5,14.5
	c-0.2,0.8-0.2,2-0.7,2.4c-2.7,1.9-1,4.5-1.4,6.8c-0.1,0.8,0.4,1.2,1.2,1.2c2.6,0,5.2,0,7.8,0C110.6,108.3,111.2,107.8,111,106.9z
	 M113,88.5c0.6,1.3,1.5,2.4,0.7,3.8c-0.1,0.2-1,0.2-1.2,0C111.5,90.9,112.9,89.8,113,88.5z"/>
<path fill="#283680" d="M324.9,107.2c-0.2,1.4,1.4,1.1,2.3,1c2.7-0.4,6,1.4,7.8-0.9c1-1.3,0.9-4.4-0.2-6.2c-1.1-1.8-0.5-2,1-2.1
	c1.1-0.1,2.2-0.1,3.2,0c1.3,0.1,1.6,0.6,1,1.9c-2.4,5.1-1,7.4,4.4,7.4c1.1,0,2.2-0.1,3.2,0c1.5,0.1,2.1-0.4,2-2
	c-0.1-2.6-0.6-4.9-1.7-7.4c-1.8-4.2-2.5-8.9-3.6-13.4c-1.4-5.5-1.4-5.5-7-5.5c-0.6,0-1.3,0.1-1.9,0c-3-0.5-4.4,0.5-5,3.7
	c-0.8,4.8-2.2,9.4-3.4,14.1c-0.2,0.9-0.3,2.2-0.9,2.7C323.5,102.4,325.2,105,324.9,107.2z M337.4,87.8c0.2,1.8,1.3,3,0.5,4.4
	c-0.1,0.2-1.3,0.1-1.4-0.1C336,90.8,336.6,89.6,337.4,87.8z"/>
<path fill="#283680" d="M143.8,406.3c-0.9-0.3-1.9,0-2.9-0.1c-1.7-0.2-2.2,0.5-2.2,2.2c0,2.4,0.6,4.6,1.2,7c0.7,2.9,0.1,6.2,0.2,9.3
	c0.1,1.7-0.3,2.5-2.3,2.5c-2,0-2.6-0.7-2.5-2.6c0.1-2.9,0-5.8,0-8.7c0-0.6-0.1-1.6,0.3-1.8c2.2-1.7,1.1-4.1,1-6
	c-0.3-3.9-3.6-1-5.3-1.8c-0.5-0.3-1.3,0-1.9-0.1c-2.3-0.3-2.9,0.6-2.9,2.8c0.1,4.5,2.7,8.8,1.5,12.6c0,2.4,0,4,0,5.7
	c0,4.8,2.4,7.3,7.2,7.3c1.6,0,3.2,0,4.9,0c5.1,0,7.5-2.4,7.5-7.6c0-3.6,0-7.1,0-10.7c0-0.8-0.3-1.8,0.4-2.5c1.8-1.7,1-3.9,0.8-5.8
	C148.5,404.4,145.5,406.9,143.8,406.3z"/>
<path fill="#283680" d="M340.2,414c1.2-0.4,3.1-0.8,3.7,0c2,3.2,5.1,1.8,7.2,1.2c1.7-0.5,0.4-3.5,0.7-5.3c0.1-0.4,0-0.9,0-1.3
	c0.3-2.1-0.7-2.5-2.6-2.5c-5.3,0.1-10.6,0.1-15.9,0c-2.1-0.1-2.2,0.8-2.5,2.6c-0.5,3.3,1.4,6,1.7,9.2c0.3,4.9-1.5,9.3-1.6,14.1
	c0,1.9,0.4,2.7,2.5,2.6c2.7-0.2,5.4,0,8.1,0c2.8,0,5.6,0,8.4,0c1,0,2,0,1.9-1.5c0-2.2,0-4.3,0-6.5c0-0.7-0.2-1.5-1-1.3
	c-2.2,0.5-4.8-1.6-6.7,1.3c-0.8,1.2-2.4,0.6-3.6,0.4c-1-0.2-0.9-1.2-0.7-1.9c0.4-1.6,1.7-0.8,2.7-1c0.6-0.1,1.5,0.3,1.8-0.4
	c0.7-2,0.4-4.1,0.2-6.1c-0.2-1.8-1.9-0.7-3-1c-0.7-0.2-1.6,0.1-1.7-1C339.7,415.1,339.4,414.3,340.2,414z"/>
<path fill="#283680" d="M373.1,411.9c-1.4-5.6-1.4-5.6-7.3-5.6c-0.6,0-1.3,0.1-1.9,0c-3-0.6-4.1,0.9-4.7,3.6c-1,4.9-2.3,9.7-3.6,14.5
	c-0.2,0.9-0.2,1.9-1,2.7c-2.2,2-1.2,4.7-0.8,6.9c0.3,1.6,2.8,0.5,4.3,0.7c0.2,0,0.4,0,0.6,0c5.6,0,5.9-0.4,5.2-6
	c-0.1-0.6-0.2-1-0.6-1.4c-1.1-1.3-0.2-1.7,0.9-1.8c0.9-0.1,1.7,0,2.6,0c1.6,0,2.7-0.1,1.4,2.3c-0.9,1.7-0.8,4.5-0.1,6.3
	c0.6,1.5,3.1,0.4,4.8,0.6c1,0.1,2-0.1,2.9,0c1.8,0.2,2.3-0.4,2.5-2.3c0.2-2.8-1.1-4.9-1.9-7.4C375.1,420.7,374.2,416.3,373.1,411.9z
	 M366.6,418.6c-0.1,0.2-1,0.2-1.2,0c-1.3-1.3,0.6-2.5,0.3-3.8C366.5,416.1,367.3,417.3,366.6,418.6z"/>
<path fill="#283680" d="M124.8,414.1c0-5.1-2.8-7.9-7.9-7.9c-1.4,0-2.8,0-4.2,0c-5,0-7.4,2.4-7.4,7.4c0,2.3,0,4.5,0,6.8
	c0,2.7,0,5.4,0,8.1c0,3.1,2.3,5.7,5.3,6.2c0.5,0.1,1.1,0,1.6,0.3c4.7,2.5,6.8,2.2,9.9-1.5c0.3-0.3,0.6-0.6,0.9-0.9
	c1.5-1.1,2-2.6,1.9-4.5C124.7,423.4,124.8,418.8,124.8,414.1z M114.9,427.3c-2,0-2.2-0.9-2.2-2.5c0.1-3,0.1-6,0-9
	c-0.1-2,0.9-2,2.4-2c1.5,0,2.5,0.1,2.4,2c-0.1,0.8-0.1,1.6-0.1,2.4c0,0.8,0,1.6,0,2.4c0,0.3,0,0.7,0,1.1c0,0.7,0,1.4,0,2.1
	c0,0.3,0,0.7,0.1,1C117.6,426.8,116.8,427.3,114.9,427.3z"/>
<path fill="#283680" d="M195.1,231.9c-30.6-13.5-57.4-32.1-80.1-56.5c0.5,5.4,2.8,9.9,5.9,14.1c4.8,6.4,10.7,11.6,17.1,16.2
	c16.8,11.9,35.6,19.7,54.9,26.5C193.5,232.4,194.1,232.7,195.1,231.9z"/>
<path fill="#283680" d="M358.6,108.2c2.1,0,4.1,0,6.2,0c3.5,0,6.2-2.8,6.2-6.3c0-1.7,0-3.5,0-5.2c0-6.4,0-6.4-6.4-6.3
	c-1,0-2.8-0.8-2.9,0.9c-0.1,2.1-1.3,4.8,0.7,6.3c1.2,0.9,1.4,1.7,1,2.6c-0.6,1.4-2.1,0.5-3.2,0.7c-1.5,0.2-1.4-1-1.4-1.9
	c0-3,0-6.1,0-9.1c0-2.2,2.8-4,3.9-2.3c1.9,2.6,4.1,1.3,6.2,1.7c1.6,0.3,1.9-0.6,2-2c0.1-4.5-2.5-7.2-6.9-7.2c-1.8,0-3.7,0-5.5,0
	c-4.6,0-7.1,2.5-7.1,7c0,2.4,0,4.8,0,7.1c0,2.4,0,4.8,0,7.1C351.4,105.8,354,108.2,358.6,108.2z"/>
<path fill="#283680" d="M429.6,90.4c-1,0-1.9,0-2.9,0c-0.9,0-1-0.6-1-1.3c0-0.6-0.1-1.6,0.7-1.6c1.4,0,2.9-0.9,4,0.9
	c0.6,0.9,6.2,1.6,6.8,0.7c1.1-1.6,1-3.8,0.2-5.2c-1.3-2-2.8-4.4-6.1-4c-2.2,0.3-4.5,0.1-6.8,0c-1.6-0.1-2.7,0.6-4,1.6
	c-3.4,2.5-2.2,6-2.3,9.2c-0.1,4.5,2.5,7.1,7,7.1c1.3,0,2.6,0,3.9,0c0.8,0,1.2,0.4,1.2,1.2c0,0.6,0.2,1.7-0.5,1.7
	c-1.4,0.1-2.9,1-4.1-0.6c-1.9-2.5-4.6-1.3-6.7-0.9c-1.8,0.3-0.5,2.8-0.8,4.3c-0.1,0.8,0.6,1.3,1,1.9c2.1,3.3,5.4,3.1,8.6,2.9
	c3-0.1,6,0.7,8.5-2.4c2-2.4,1.2-4.9,1.3-7.4C437.9,92.8,435.3,90.4,429.6,90.4z"/>
<path fill="#283680" d="M224.7,108.2c2.2,0,4.3-0.1,6.5,0c1.7,0.1,2.7-0.6,3.9-1.6c2.2-1.8,2.9-3.9,2.7-6.7c-0.3-4.3-0.1-8.6-0.1-12.9
	c0-4.6-2.5-7.1-7-7.1c-1.8,0-3.7,0-5.5,0c-4.5,0-7,2.5-7,7.1c0,2.3,0,4.5,0,6.8c0,2.6,0,5.2,0,7.8
	C218.2,105.5,220.9,108.2,224.7,108.2z M228,87.2c2.3,0,2.3,1.2,2.3,2.8c-0.1,3-0.1,6,0,9c0.1,1.7-0.8,1.9-2.2,1.8
	c-1.2-0.1-2.7,0.4-2.6-1.7c0.1-0.9,0.1-1.7,0-2.6c0-0.9,0-1.7,0-2.6c0-0.6,0-1.3,0-1.9s0-1.3,0-1.9C225.4,88.3,225.6,87.2,228,87.2z
	"/>
<path fill="#283680" d="M302.1,106.1c0,1.7,0.5,2.3,2.2,2.2c2.7-0.1,5.4,0,8.1,0c1.3,0,2.6,0,3.9,0c7.3,0,7.9-0.7,6.7-7.9
	c-0.1-0.5,0-1.4-0.6-1.3c-2.3,0.4-4.9-1.6-6.9,1.3c-0.9,1.2-2.6,0.6-3.9,0.4c-0.9-0.1-0.7-1.2-0.6-1.9c0.3-1.7,1.7-0.8,2.6-1
	c0.6-0.1,1.7-0.1,1.8-0.3c0.6-2,0.4-4.1,0.2-6.1c-0.2-1.8-1.9-0.9-2.9-1c-1.1-0.1-1.8-0.3-1.8-1.6c0-1.4,0.8-1.4,1.9-1.5
	c1.7-0.3,2.4,1.3,3.5,1.7c1.8,0.7,4.2,0.7,6,0.1c1.4-0.5,0.4-2.5,0.6-3.8c0.1-1-0.1-1.9,0-2.9c0.2-1.8-0.4-2.4-2.3-2.4
	c-5.4,0.1-10.8,0.1-16.2,0c-2.2-0.1-2.2,0.9-2.5,2.6c-0.6,3.4,1.5,6.2,1.7,9.5C303.9,96.9,302.1,101.3,302.1,106.1z"/>
<path fill="#283680" d="M415.6,99.1c-2.1-0.3-5.1-1.3-6.3,0.6c-1.2,1.8-2.3,0.9-3.5,1.2c-1.1,0.3-1.5-0.4-1.5-1.5c0-1,0.3-1.8,1.4-1.6
	c3.9,0.8,3.3-1.8,3.4-4.2c0.1-2.3-0.3-3.8-3.1-3.3c-0.7,0.1-1.6,0.2-1.7-0.9c-0.1-0.7-0.4-1.8,0.5-2c1.2-0.3,3.1-0.8,3.7,0.2
	c1.9,3.3,5,1.7,7.1,1.3c1.6-0.3,0.4-3.2,0.7-5c0.1-0.6-0.1-1.3,0-1.9c0.2-1.8-0.6-2.2-2.2-2.1c-2.7,0.1-5.4,0-8.1,0
	c-2.8,0-5.6,0.1-8.4,0c-1.8-0.1-1.9,0.7-2.2,2.2c-0.7,3.2,1.3,5.8,1.6,8.9c0.5,5.2-1.5,9.9-1.6,14.9c0,1.8,0.4,2.5,2.3,2.4
	c4.2-0.1,8.4,0,12.6,0c6,0,6.1,0,6-6.1C416.4,101.1,417.1,99.3,415.6,99.1z"/>
<path fill="#283680" d="M262.6,406.3c-1.7,0-3.4,0-5.2,0c-4.7,0-7.2,2.5-7.2,7.3c0,2.3,0,4.5,0,6.8c0,2.4,0,4.7,0,7.1
	c0,4.7,2.5,7.3,7.2,7.2c1.7,0,3.4,0,5.2,0c4.8,0,7.5-2.9,7.2-7.6c-0.1-0.6,0.1-1.7-0.6-1.6c-2.3,0.2-5-1.3-6.8,0.9
	c-1.2,1.4-2.6,0.9-3.8,0.7c-1.4-0.2-0.8-1.5-0.8-2.4c-0.1-2.8,0-5.6,0-8.4c0-2.2,2.7-3.9,3.9-2.3c1.9,2.6,4.2,1.3,6.3,1.6
	c1.3,0.3,1.8-0.3,1.9-1.7C270.1,409.2,267.4,406.3,262.6,406.3z"/>
<path fill="#283680" d="M329,411.4c0.2-0.8-0.1-1.7,0.1-2.6c0.3-2.3-0.7-2.7-2.8-2.6c-4.3,0.1-8.6,0-12.9,0c-7.6,0-7.6,0-7.1,7.6
	c0,0.2,0,0.4,0,0.6c0,1.1,0.6,1.8,1.6,1.4c1.8-0.8,4.3,0.3,5.8-2c0.3,4.1,0.3,8.1,0.3,12c0,0.6-0.2,1.2-0.8,1.2c-2.2,0-2,1.4-2,2.8
	c0.1,1.4,0,2.8,0.2,4.2c0.1,0.5,0.8,0.5,1.4,0.5c3.3,0,6.7,0,10,0c0.9,0,1.6-0.5,1.3-1.3c-0.7-2.1,2.1-5.6-2.3-6.4
	c-0.2,0-0.4-0.7-0.4-1.1c0-3.9,0-7.9,0-11.8c2,2.7,4.8,1.8,6.9,1.4C330,415,328.8,412.8,329,411.4z"/>
<path fill="#283680" d="M158.4,108.2c1.9,0,3.9,0,5.8,0c4.5,0,7.6-3.8,6.7-8.1c-0.1-0.4-0.2-0.9-0.5-1.1c-0.8-0.7-6.4-0.1-6.9,0.8
	c-1,1.9-2.7,1-4,0.9c-1.4-0.1-0.8-1.6-0.8-2.4c-0.1-2.8-0.1-5.6,0-8.4c0-0.9-0.6-2.3,0.8-2.4c1.3-0.1,2.9-1,4,0.9
	c0.5,0.9,6.4,1.5,6.8,0.7c1-1.7,1.1-3.9,0-5.5c-1.5-2.2-3.3-4.3-6.6-3.7c-1.7,0.3-3.4,0.1-5.2,0.1c-4.8,0-7.2,2.4-7.2,7.2
	c0,2.3,0,4.5,0,6.8c0,2.5,0,5,0,7.5C151.4,105.7,154,108.2,158.4,108.2z"/>
<path fill="#283680" d="M248.4,411.8c0.1-1.1-0.1-2.2,0-3.2c0.2-1.8-0.4-2.5-2.3-2.4c-4.5,0.1-9.1,0-13.6,0c-7.5,0-7.5,0-6.9,7.5
	c0,0.2,0,0.4,0,0.6c0,0.8,0.4,1.3,1.2,1.2c2.1-0.2,4.6,1,6.2-1.8c0.3,2.4,0.6,4.7,0.2,6.8c-0.4,2.4,2.1,6-2.4,7.1
	c-0.1,0-0.1,0.6-0.2,0.9c-1,5.2-0.2,6.1,5,6.1c1,0,1.9,0,2.9,0c5.2,0,5.1,0,4.9-5.3c0-1.1,0.1-2.2-1.5-2.2c-1,0-1.2-0.7-1.2-1.5
	c0-3.9,0-7.7,0-12.4c1.4,1.3,1.1,2.7,2.1,2.6c1.7-0.1,3.5-0.2,5-0.8C249.1,414.5,248.2,412.9,248.4,411.8z"/>
<path fill="#283680" d="M195.5,105.5c-0.3,2,0.3,3,2.5,2.8c2.6-0.2,5.2,0,7.8-0.1c1.5,0,3,0,4.5,0c6.1,0,6.1,0,6-6c0-1.1,0.9-3.1-1-3.2
	c-2.1-0.1-4.8-1.4-6.3,0.8c-1.3,1.8-2.7,1-4,0.9c-1.6-0.1-0.8-1.7-0.9-2.6c-0.1-1.7-0.1-3.5,0-5.2c0.1-1.8-0.8-3.9,0.4-5.3
	c1.8-2,1-4.2,0.8-6.1c-0.4-3.4-3.4-1-5.1-1.6c-0.9-0.3-1.9,0-2.9-0.1c-1.6-0.2-2.2,0.5-2,2c0.4,2,0.4,3.9,0.9,6
	c1.1,3.9,1,8.4,0.1,12.4C196.1,102,195.8,103.8,195.5,105.5z"/>
<path fill="#283680" d="M372.7,105.7c0,1.9,0.4,2.7,2.5,2.6c2.7-0.2,5.4,0,8.1,0c1.2,0,2.4,0,3.6,0c7.5,0,7.5,0,6.8-7.5
	c0-0.3,0-0.6-0.1-1c-0.1-0.5-0.4-0.9-0.8-0.8c-2.2,0.7-5-1.7-6.8,1.5c-0.6,1-2.5,0.5-3.7,0.3c-1.1-0.2-0.6-1.4-0.7-2.2
	c-0.1-1.6-0.1-3.2,0-4.9c0.2-2.4-0.2-4.8,1.1-7.3c2-4,0-6.4-4.3-6.4c-0.9,0-1.7,0.1-2.6,0c-2.3-0.3-3,0.4-3.2,2.9
	c-0.2,3.5,1.6,6.4,1.7,9.8C374.5,97.2,372.8,101.3,372.7,105.7z"/>
<path fill="#283680" d="M161.3,426.9c-0.2,0-0.5-0.6-0.4-0.8c1.4-4.2-3.1-9.5,2.4-12.8c0.1-0.1,0.2-0.4,0.2-0.6c0-2,0.7-4.3-0.3-6
	c-0.8-1.3-2.8-0.4-4.3-0.5c-1.6-0.1-3.3,0.2-4.8-0.1c-3-0.4-4,0.7-3.4,3.5c0.3,1.3-1,3.5,1,3.9c2,0.3,1.8,1.3,1.8,2.6
	c0,1.3,0.3,2.7-0.1,3.9c-0.7,2.5,2.4,6.4-2.5,7.6c-0.1,0-0.2,0.6-0.2,0.9c-0.9,5.3-0.3,6.1,5,6.1c0.4,0,0.9,0,1.3,0
	c1.6,0,3.2,0,4.8,0c0.9,0,2.1-0.2,1.7-1.3C162.9,431.2,165.8,427.7,161.3,426.9z"/>
<path fill="#283680" d="M221.6,427c-0.8-0.2-0.6-1.1-0.6-1.7c0-1.5-0.3-3.1,0.1-4.5c0.6-2.6-2.3-6.4,2.5-7.6c0.1,0,0.2-0.6,0.2-0.9
	c0.9-5.3,0.3-6.1-5-6.1c-1,0-1.9,0-2.9,0c-5.1,0-5.1,0-5,4.9c0,1.3-0.2,2.7,1.8,2.7c1.1,0,1,0.9,1,1.7c0,1.4,0.3,2.9-0.1,4.2
	c-0.7,2.7,2.2,6.6-2.5,8c-0.2,0-0.1,0.8-0.2,1.2c-0.6,5.7-0.6,5.7,5.1,5.7c0.4,0,0.9,0,1.3,0c1.1,0,2.2,0.1,3.2,0
	c1.1-0.2,3.2,0.6,3-0.7C223.2,431.6,226.1,428.2,221.6,427z"/>
<path fill="#283680" d="M133.2,220.4c0.3,1.9,1.1,3.3,2.1,4.5c1.9,2.4,4.3,4.2,7,5.6c7,3.7,14.5,5.4,22.2,6.5c6.6,0.9,13.2,1.7,19.8,1
	C166.7,234.4,150,228.1,133.2,220.4z"/>
<path fill="#283680" d="M180.6,249.3c-13.3,0-26.1-1.4-39.2-5.2C147.3,252.6,172.1,255.7,180.6,249.3z"/>
<path fill="#283680" d="M161.2,265.3c7.6,0,14.9-1.6,21.9-4.8c-11,1-22,1.3-33.7-0.6C153,264,156.9,265.3,161.2,265.3z"/>
<path fill="#AB8C31" d="M398.2,383.5c-0.1-0.3-0.2-0.7-0.3-1.1c-0.1-0.3-0.1-0.6-0.2-0.9c-0.1-0.5-0.3-1.1-0.3-1.6
	c-0.5-7.9-3.1-14.4-8-19.7c-2-2.8-4.5-5.1-7.2-7.4c-2.9-2.5-6.1-4.5-9.2-6.5c-2.1-1.4-4.3-2.8-6.4-4.3c-2.3-1.7-4.6-3.7-5.1-7.7
	l-0.1-0.5l-0.2,0.5c-1.2,2.4-0.3,3.9,0.5,5.2c1,1.6,2.1,3.2,3.1,4.7c0.6,0.8,1.1,1.7,1.7,2.5c0.7,1,1.3,1.9,2.2,2
	c0.6,0.1,1.3-0.2,2-0.9c0.8-0.8,1.5-0.2,2.1,0.3c0.1,0.1,0.3,0.2,0.4,0.3c0.2,0.1,0.3,0.3,0.3,0.4c0,0.2-0.3,0.4-0.6,0.6
	c-0.2,0.1-0.3,0.2-0.5,0.4c-0.7,0.8-1.1,1.7-0.9,2.5c0.2,0.8,0.7,1.4,1.6,1.9c-0.1,0.1-0.1,0.2-0.1,0.3c0,0.1-0.1,0.1-0.2,0.2
	c-0.2,0.2-0.4,0.4-0.3,0.6c0.1,0.2,0.2,0.3,0.4,0.4c0.3,0.1,0.6-0.1,0.8-0.2c0.6-0.2,1.2-0.6,1.8-0.9c1.6-0.9,3-1.8,4.9-0.6
	c-0.4,0.2-0.8,0.5-1.2,0.7c-1,0.6-2.1,1.3-3.2,1.9c-1.8,0.9-2.5,2.4-1.9,3.7c0.1,0.3,0.3,0.5,0.6,0.6c0.4,0.1,0.8-0.1,1.2-0.4
	c0.3-0.2,0.7-0.4,1-0.4c0,0,0,0,0,0c-0.3,0.3-0.6,0.5-0.9,0.8l-0.5,0.4l-0.2,0.1c-0.4,0.2-0.8,0.4-0.9,0.8c-0.1,0.2,0,0.4,0.2,0.6
	c0.2,0.2,0.4,0.4,0.6,0.4c0,0,0,0,0,0c0.4,0,0.8-0.4,1.1-0.7l0.7-0.4l1.9-1.2l2.2-0.9c-0.2,0.2-0.3,0.3-0.3,0.5
	c0,0.1,0.1,0.2,0.2,0.3c0.7,0.6,1.3,0.2,1.8-0.2c0.2-0.1,0.4-0.2,0.6-0.3c-0.2,0.6-0.8,0.9-1.4,1.1c-0.5,0.2-0.9,0.4-1.2,0.8
	c-0.1,0-0.2,0.1-0.3,0.1c-0.8,0.3-1.7,0.5-2.2,1.8l-0.1,0.2l2-0.2l-0.4,0.5c-0.5,0.1-1.1,0.2-1.3,0.6c0,0.1-0.1,0.3,0,0.5
	c0.1,0.3,0.4,0.5,0.7,0.5c0.1,0,0.2,0,0.3,0c0.5,0,1-0.3,1.4-0.5l1.1-0.3c-0.4,0.4-0.8,0.8-0.7,1.2c0.1,0.4,0.5,0.7,1.4,1
	c3,1,5.3,3.3,7.6,5.4c0.4,0.4,0.8,0.8,1.3,1.2c0.1,0.1,0.1,0.1,0.2,0.2c0.4,0.4,0.8,0.7,0.7,1.2c-0.1,0.5-0.5,0.5-1.1,0.5
	c-0.1,0-0.3,0-0.4,0c-2.2,0-4-0.5-5.7-1.8c-12-9.2-25.2-17.9-42.2-15.7c-1,0.1-2,0.1-3,0l-0.8,0c-3.1-0.1-6-0.3-7.6-3.6l-0.3-0.6
	l0,0.6c-0.1,2.9,1.9,4,3.7,4.7c5.6,2.1,11.2,4.6,16.5,7.3c1.8,0.9,2.9,0.6,4.2-1.2c0.1-0.2,0.2-0.4,0.4-0.6c1-1.6,2.1-3.2,4.1-3.4
	c-0.6,0.4-1,0.9-1.2,1.6c-0.2,0.1-0.3,0.3-0.4,0.4l-2.2,2.9c-0.1,0.2-0.3,0.3-0.4,0.5c-0.1,0.1-0.2,0.2-0.3,0.2
	c-0.4,0.3-0.9,0.8-0.6,1.5c0.1,0.2,0.5,0.2,0.9,0.2c0.1,0,0.2,0,0.3,0c0.2,1.4,1.1,2.1,2.2,2.8l0.5,0.3l0.1-0.2
	c0-0.1,0.1-0.3,0.1-0.4c0.2-0.7,0.3-1.5,0.8-1.5c0,0,0,0,0,0c1.7,0.2,2.1-1,2.5-2.1c0.4-1.1,0.7-2.1,2.2-1.9c0.1,0,0.2,0,0.2-0.1
	c0.1-0.2-0.1-0.9-0.3-1.2c-0.2-0.2-0.2-0.4-0.2-0.6c0-0.2,0.2-0.5,0.4-0.5c0.3-0.1,0.4,0,0.7,0.3c0.3,0.3,0.6,0.6,1.2,0.5
	c0.1,0,0.2,0.1,0.2,0.2c0.1,0.3,0.1,0.7-0.1,0.8c-0.8,0.7-1.1,1.6-1.4,2.6c-0.4,1-0.7,1.9-1.6,2.6c-0.1-0.3-0.2-0.5-0.4-0.6
	c-0.3-0.2-0.6-0.1-1.1,0.1c-0.2,0.1-0.7,0.5-0.6,0.8c0.1,0.7,0.5,0.7,0.9,0.7c0.1,0,0.1,0,0.2,0c-0.4,0.5-0.4,1.1-0.5,1.7
	c-0.1,1-0.2,1.9-1.5,2.2l-0.2,0l0.1,0.2c0.1,0.2,0.1,0.5,0.1,0.8c0,0.4,0,0.7,0.2,0.9c0.1,0.1,0.3,0.1,0.5,0.1
	c1.1-0.3,2.4-0.3,3.5-0.2c1.7,0,3.4,0.1,5.1-0.8l0,0c0,0,0.1,0,0.1-0.1l0,0l0,0c0.1-0.1,0.2-0.2,0.2-0.3l0.9-0.9v0
	c0.2-0.2,0.4-0.4,0.6-0.6l1.5-1.6h0l1.5-1.5c1.2-0.9,1.9-1.3,2.4-1.1c0.5,0.2,1,0.8,1.5,2.3c-0.5-0.1-1,0-1.2,0.7
	c-1.3,0.7-2.8,1.8-2.4,3.2c0.4,1.3,1.6,1.4,2.7,1.5c0.9,0.1,1.7,0.2,2.3,0.8c-0.3,0.6-0.6,1.3-1,1.9c-1.2,2.1-2.5,4.3,0,6.8
	c-0.4-0.1-0.7-0.1-0.8,0.1c-0.4,0.8,0,2.3,0.6,3.4c0.6,1.2,1.7,2.7,2.6,2.8c0.4,0.1,0.7,0,0.9-0.2c0.1-0.1,0.3-0.4,0.2-0.8
	c-0.1-0.6-0.2-1.2-0.3-1.8c0,0,0,0,0,0c0.6,0.8,1.1,1.6,0.5,2.7c-0.2,0.3-0.2,0.6-0.1,0.9c0.1,0.4,0.6,0.6,0.9,0.8
	c1.5,0.6,2.9,0.9,4.2,0.9c1.3,0,2.5-0.3,3.6-0.8l0.1,0l0-0.1c-0.1-0.9-0.6-1.1-1-1.3c-0.1-0.1-0.2-0.1-0.3-0.2l0.8,0.3l-0.3-0.2
	c0,0,0,0,0,0c1.2,0.4,2.5,0.9,3.8-0.7l0.1-0.1l-0.2-0.1c-0.9-0.4-1.8-0.7-2.7-0.9c-1.5-0.4-3-0.8-4-2c0.1,0.1,0.3,0.1,0.4,0.2
	c0.7,0.3,1.4,0.7,2.1,1c2.5,1.2,4.3,1.4,5.5,0.7c1.7-1,2.1-3.6,2.4-6.4C398.7,385.2,398.4,384.3,398.2,383.5z M377.4,359.9
	c0.2-0.4,0.6-0.7,1.2-0.8l-0.6,0.5L377.4,359.9C377.4,359.9,377.4,359.9,377.4,359.9z M390.2,367.6c0,0-0.1,0.1-0.1,0.1l-0.1,0.1
	c-0.6,0.2-1.1,0.2-1.7,0.1c-0.6-0.1-1.3-0.2-1.9,0.1c0.6-0.8,1.4-1.1,2.2-1.3c0.4-0.1,0.9-0.3,1.3-0.5c0.4-0.2,0.9-0.5,1.2-0.5
	c0.1,0,0.2,0,0.3,0.1c0.3,0.1,0.4,0.5,0.5,1c0.1,0.3,0,0.6-0.1,0.7c0,0-0.1,0.1-0.1,0.1c0,0-0.1,0-0.1,0c-0.1,0-0.3,0-0.4,0
	C390.8,367.5,390.4,367.4,390.2,367.6z M385.4,359.3c0.1-0.1,0.2-0.1,0.2-0.2c0.1-0.1,0.2-0.1,0.3-0.1c0.1,0,0.2,0,0.3,0.1
	c0,0,0,0.1,0.1,0.2L385.4,359.3z M384.2,358c-0.1,0-0.2,0-0.4,0l-0.1-0.8c0.1,0,0.3,0.1,0.5,0.1c0.2,0,0.4,0,0.5,0.1l0,0
	c0.1,0.1,0.1,0.1,0.1,0.2c0,0.1,0,0.1,0,0.2C384.8,357.9,384.5,357.9,384.2,358z M381.5,363.3c0.9-0.2,1.7-0.6,2.4-1.1l0.1-0.1
	c0.6-0.3,1.1-0.6,1.7-0.8c0.3-0.1,0.6-0.2,0.9-0.2c0.6-0.1,1.2-0.1,1.8,0.1c0.2,0.4,0.3,0.8,0.4,1.1c0,0.2,0,0.4-0.1,0.6
	c-0.2,0.2-0.4,0.3-0.9,0.3c0.1-0.1,0.1-0.1,0.2-0.2c0.3-0.3,0.7-0.6,0.3-1.2c-0.5-0.7-1.2-0.4-1.9-0.1c-0.6,0.2-1.3,0.6-1.9,0.9
	c-1.2,0.6-2.4,1.2-3.7,1.3L381.5,363.3z M385.1,364.2c-0.6,0.6-1.4,0.9-2.3,0.9C383.5,364.7,384.2,364.4,385.1,364.2z M372.9,368.6
	C372.9,368.6,373,368.6,372.9,368.6c0.2-0.2,0.3-0.4,0.4-0.4h0c0.1,0,0.2,0,0.3,0c0.1,0,0,0.1,0,0.2c0,0.1-0.2,0.2-0.3,0.3
	c0,0-0.1,0.1-0.1,0.1L372.9,368.6z M374.1,370.8c-0.2,0.2-0.4,0.4-0.6,0.7l-0.6,0.7l-3.2,3.2l-0.6,0.6c0,0,0,0-0.1,0
	c-0.1,0-0.1,0-0.1,0c-0.1,0-0.1,0-0.2-0.1c2-2.4,4.2-4.6,6.9-6.9c0,0.7-0.4,0.9-0.7,1.1C374.5,370.3,374.2,370.5,374.1,370.8z
	 M370,371.5c0.1-0.1,0.2-0.1,0.3-0.2c-0.3,0.7-0.7,1.2-1.5,1.6C369.2,372.2,369.5,371.8,370,371.5z M371.5,370.1L371.5,370.1
	L371.5,370.1C371.6,370.1,371.6,370.1,371.5,370.1C371.6,370.1,371.5,370.1,371.5,370.1z M361.8,362.7c-0.1,0.3-0.3,0.4-0.6,0.5
	l0.2-0.6L361.8,362.7z M360.1,364.2c0,0.1,0,0.1,0,0.2c-0.1,0.3-0.2,0.6-0.3,0.8c-0.3,0.5-0.7,0.9-1.2,1.2l0.3-0.6l0.5-0.7l0.5-0.7
	C360,364.3,360.1,364.3,360.1,364.2z M356.9,368.3l0.5-0.7l0.8-0.6c-0.2,0.7-0.5,1.3-1.1,1.7c-0.1,0.1-0.3,0.2-0.4,0.3L356.9,368.3z
	 M379,375.9c-0.1,0.2-0.3,0.4-0.4,0.6c-0.6-0.5-0.5-1-0.5-1.6c0-0.3,0.1-0.6,0-0.9c0.1,0,0.1,0,0.2,0c0.4,0,0.7-0.4,0.9-0.7
	C380.1,374.3,379.6,375,379,375.9z"/>
</svg>
