<svg version="1.1" xmlns="http://www.w3.org/2000/svg" xmlns:xlink="http://www.w3.org/1999/xlink" x="0px" y="0px"
	 viewBox="0 0 512 512" style="enable-background:new 0 0 512 512;" xml:space="preserve">
<g id="Ebene_3">
	<path fill="#FFFFFF" d="M498.2,198.6l-6.8-2.5l0,0l-7.5-1.2l0,0l-9.9-1.2l0,0l-7.6-0.6l-1.7-2.3l0.5-3.3l0-20.5l11.1-0.1l0,0l1.3-3.2
		l0-94.2l-0.7-3.2l0,0l-11.7-0.1l0,0l0,0l-0.1-56.8l-0.6-3.5v0l0,0h0h0l-3.5-0.6l-68.7,0l-313.2,0L75.5,6l-0.2,3.7l-0.4,56.6l-5.3,0
		l-9.1,0.6l-0.1,0l0,0l0,0h0v0l-0.6,3.2l0,93.1l0.6,3.2l2.9,0.5l9,0l2.5,2.5l0,14.9l1.2,9.7l0,0l0,0l0,0l0,0v0l-0.1,0l0,0l0,0l0,0
		l0,0l-5.5,0.5l-19.3,1.7l-5,1.2l-2.5,1.3l0,0l0,0l-0.6,1.1l0.7,2.4l8,8.2l3.7,4.4l0,0l4.4,7.3l9.3,23.1l0,0l0,0l1.9,5.6l0,0l0,24.4
		l-7.4,30.3v0l0.6,3.3l8.7,13.5l0,0l0.7,1.2l1.2,3.2h0l0,0l1.4,8.8l1.1-0.1l0,0l0,0l-0.1,6l0,14.1l-0.7,12.1l2.9,1.4l9,0.5l-2.5,0.1
		l-6.7,4.3l0,0h0l-2,2.6l-1.1-0.2l0.6,4.4l1.2,5l3.7,11.2v0l4.4,8.1l0,0l6.2,8.7l8.1,8.1l0,0l2.5,1.3l72.8,35.5l0,0l2.6,0.5l1.8,2.7
		l-0.6,1.7l0,0l-0.6,0.6v0l0,0L178,476l-1.2,1.9h0l0,0l-6.2,6.8l-1.3,1.2l0,0l-0.6,3.1l1.9,2.4l15-1.8l1.2-1.2l2.5-1.3l2-0.5
		l14.7-10.1l6.9-2.5l0.4,3l36.9,18.1v0l15.5,7.6l2.6,0.6l0,0l0,0l6.2-0.3l5.1-2.7h0l158.5-77.8l1.1-0.6l8.2-6.2l1.9-1.9v0l4.7-7
		l3.4-7.3l3.8-8.1l0,0l2.5-6.8l0-4.9l0,0l-0.8-5.8l0,0h0l2-4.2h0l0,0l0.7-1.3l1.2-0.5l-1.2-3.8l0,0l0-26.1l0.7-4.3l0,0l1.8-7.5l0,0
		l0.7-2.4l3.7-8.8l0,0l6.9-6.6l-3.8-14.5l-5.5-35.5l0,0l0.5-2.5l1.3-1.2l2.1-10.8l1.7-7.3l3.2-6.2l5-9.9l0,0l2.5-4.4l4.4-6.2l0,0
		l8.6-8.4l-0.5-1L498.2,198.6z M72.9,155.1L72.9,155.1L72.9,155.1L72.9,155.1z M212.8,473.5L212.8,473.5L212.8,473.5L212.8,473.5z
		 M223.3,354.1l0-0.1L223.3,354.1L223.3,354.1z M325.5,351.6v-0.1l0,0h0L325.5,351.6L325.5,351.6z M464.7,66.2L464.7,66.2
		L464.7,66.2L464.7,66.2z M470.3,271.4L470.3,271.4L470.3,271.4L470.3,271.4L470.3,271.4z M470.3,271.4L470.3,271.4l-0.2-0.6
		L470.3,271.4z M473.3,243.5l0-0.2L473.3,243.5L473.3,243.5z"/>
	<path fill="#509D2F" d="M502.3,199.8l-0.1-0.2l0-1c0-1.7-1.1-3.1-2.6-3.7l-6.8-2.5c-0.3-0.1-0.5-0.2-0.8-0.2l-7.4-1.2
		c-0.1,0-0.1,0-0.2,0l-9.9-1.2c-0.1,0-0.1,0-0.2,0l-5.3-0.4l0.2-1.3c0-0.2,0-0.4,0-0.6l0-16.5l7.1,0c1.6,0,3.1-1,3.7-2.5l1.3-3.2
		c0.2-0.5,0.3-1,0.3-1.5l0-94.2c0-0.3,0-0.5-0.1-0.8l-0.7-3.2c-0.4-1.8-2-3.2-3.9-3.2l-7.8-0.1l-0.1-52.8c0-0.2,0-0.4-0.1-0.7
		l-0.6-3.4c-0.3-1.8-1.7-3.2-3.5-3.4l-3.4-0.6c-0.2,0-0.4-0.1-0.7-0.1l-68.7,0c0,0,0,0,0,0l-313.2,0c-0.2,0-0.5,0-0.7,0.1l-3.8,0.7
		c-1.8,0.3-3.2,1.9-3.3,3.7l-0.2,3.7c0,0.1,0,0.1,0,0.2l-0.4,52.6l-1.3,0c0,0,0,0,0,0c-0.1,0-0.2,0-0.3,0l-9,0.6
		c-2,0-3.6,1.5-3.9,3.5l-0.6,3c0,0.2-0.1,0.5-0.1,0.7l0,93.1c0,0.3,0,0.5,0.1,0.7l0.6,3.2c0.3,1.6,1.6,2.9,3.2,3.2l2.9,0.5
		c0.2,0,0.5,0.1,0.7,0.1c0,0,0,0,0,0l7.3,0l0.1,0.1l0,13.2c0,0.2,0,0.3,0,0.5l0.7,5.6l-1.6,0.2l-19.2,1.7c-0.2,0-0.4,0.1-0.6,0.1
		l-5,1.2c-0.3,0.1-0.6,0.2-0.9,0.4l-2.5,1.3c-0.7,0.4-1.3,1-1.7,1.7l-0.6,1.1c-0.5,0.9-0.6,2-0.3,3.1l0.7,2.4c0.2,0.6,0.5,1.2,1,1.6
		l7.9,8.1l3.4,4.1l4.1,6.8l9.1,22.7l1.6,4.9l0,23.3l-7.3,29.9c-0.1,0.5-0.2,1.1-0.1,1.6l0.6,3.3c0.1,0.5,0.3,1.1,0.6,1.5l8.7,13.4
		l0.5,0.8l0.9,2.5l1.4,8.4c0.1,0.8,0.5,1.5,1,2.1l0,3.1c0,0,0,0,0,0.1l0,14l-0.7,12c-0.1,1.6,0.8,3.1,2.3,3.8l1,0.5l-0.5,0.7
		c-0.8,0.1-1.5,0.5-2,1.1c-0.9,0.9-1.3,2.1-1.2,3.4l0.6,4.4c0,0.1,0,0.3,0.1,0.4l1.2,5c0,0.1,0.1,0.2,0.1,0.4l3.7,11.2
		c0.1,0.2,0.2,0.4,0.3,0.6l4.4,8.1c0.1,0.1,0.2,0.3,0.3,0.4l6.2,8.7c0.1,0.2,0.3,0.4,0.4,0.5l8.1,8.1c0.3,0.3,0.6,0.5,1,0.7l2.5,1.3
		c0,0,0.1,0,0.1,0l72.8,35.5c0.3,0.1,0.6,0.3,1,0.3l0.2,0c-0.2,0.4-0.3,0.9-0.3,1.4l-0.6,10.8l-0.5,0.7l-5.9,6.5l-1.2,1.2
		c-0.6,0.6-1,1.3-1.2,2.1l-0.6,3.1c-0.2,1.1,0.1,2.3,0.8,3.2l1.9,2.4c0.8,1,1.9,1.6,3.2,1.6c0.2,0,0.3,0,0.5,0l15-1.8
		c0.9-0.1,1.7-0.5,2.3-1.1l0.8-0.8l1.5-0.8l1.5-0.4c0.5-0.1,0.9-0.3,1.3-0.6l14.3-9.8l2.2-0.8c0.4,0.6,0.9,1,1.6,1.4l36.9,18.1
		l15.5,7.6c0.3,0.1,0.6,0.2,0.9,0.3l2.6,0.6c0.3,0.1,0.6,0.1,0.9,0.1c0.1,0,0.1,0,0.2,0l6.2-0.3c0.6,0,1.1-0.2,1.7-0.5l5-2.7
		l158.4-77.8c0.1,0,0.1-0.1,0.2-0.1l1.1-0.6c0.2-0.1,0.3-0.2,0.5-0.3l8.2-6.2c0.2-0.1,0.3-0.2,0.4-0.4l1.9-1.9
		c0.2-0.2,0.3-0.4,0.5-0.6l4.7-7c0.1-0.2,0.2-0.4,0.3-0.6l3.4-7.3l3.8-8.1c0.1-0.1,0.1-0.2,0.1-0.3l2.5-6.8c0.2-0.4,0.2-0.9,0.2-1.3
		l0-4.9c0-0.2,0-0.4,0-0.6l-0.6-4.6l1.4-3c0,0,0,0,0,0c1.8-0.9,2.7-2.9,2.1-4.8l-1-3.2l0-25.2l0.6-3.8l1.7-7.3l0.6-2.1l3.3-7.8
		l6.3-6.1c1.1-1,1.5-2.5,1.1-3.9l-3.8-14.3l-5.4-34.5l0.1-0.5l0.3-0.3c0.6-0.6,1.1-1.4,1.2-2.2l2.1-10.8l1.5-6.7l2.9-5.7l5-9.9
		l2.3-4.1l4-5.7l8.3-8.1C502.8,203.2,503.1,201.3,502.3,199.8z M490.2,210l-4.4,6.2l-2.5,4.4l0,0l-5,9.9l-3.2,6.2l-1.7,7.3
		l-2.1,10.8l-1.3,1.2l-0.5,2.5l0,0l5.5,35.5l3.8,14.5l-6.9,6.6l0,0l-3.7,8.8l-0.7,2.4l0,0l-1.8,7.5l0,0l-0.7,4.3l0,26.1l0,0l1.2,3.8
		l-1.2,0.5l-0.7,1.3l0,0h0l-2,4.2h0l0,0l0.8,5.8l0,0l0,4.9l-2.5,6.8l0,0l-3.8,8.1l-3.4,7.3l-4.7,7v0l-1.9,1.9l-8.2,6.2l-1.1,0.6
		l-158.5,77.8h0l-5.1,2.7l-6.2,0.3l0,0l0,0l-2.6-0.6l-15.5-7.6v0l-36.9-18.1l-0.4-3l-6.9,2.5l-14.7,10.1l-2,0.5l-2.5,1.3l-1.2,1.2
		l-15,1.8l-1.9-2.4l0.6-3.1l0,0l1.3-1.2l6.2-6.8l0,0h0l1.2-1.9l0.6-11.8l0,0v0l0.6-0.6l0,0l0.6-1.7l-1.8-2.7l-2.6-0.5l0,0
		l-72.8-35.5l-2.5-1.3l0,0l-8.1-8.1l-6.2-8.7l0,0l-4.4-8.1v0l-3.7-11.2l-1.2-5l-0.6-4.4l1.1,0.2l2-2.6h0l0,0l6.7-4.3l2.5-0.1l-9-0.5
		l-2.9-1.4l0.7-12.1l0-14.1l0.1-6l0,0l0,0l-1.1,0.1l-1.4-8.8l0,0h0l-1.2-3.2l-0.7-1.2l0,0L64.2,309l-0.6-3.3v0l7.4-30.3l0-24.4l0,0
		l-1.9-5.6l0,0l0,0l-9.3-23.1l-4.4-7.3l0,0l-3.7-4.4l-8-8.2l-0.7-2.4l0.6-1.1l0,0l0,0l2.5-1.3l5-1.2l19.3-1.7l5.5-0.5l0,0l0,0l0.1,0
		v0l0,0l0,0l-1.2-9.7l0-14.9l-2.5-2.5l-9,0l-2.9-0.5l-0.6-3.2l0-93.1l0.6-3.2v0h0l0,0l0,0l0.1,0l9.1-0.6l5.3,0l0.4-56.6L75.5,6
		l3.8-0.7l313.2,0l68.7,0l3.5,0.6h0h0l0,0v0l0.6,3.5l0.1,56.8l0,0l0,0l11.7,0.1l0,0l0.7,3.2l0,94.2l-1.3,3.2l0,0l-11.1,0.1l0,20.5
		l-0.5,3.3l1.7,2.3l7.6,0.6l0,0l9.9,1.2l0,0l7.5,1.2l0,0l6.8,2.5l0,1.9l0.5,1L490.2,210L490.2,210z"/>
</g>
<g id="Ebene_1">
	<path fill="#509D2F" d="M464.7,369.9c-0.1-0.1-0.2-0.2-0.4-0.3c-0.6-0.3-1.2-0.3-1.8-0.1c-2.1-0.4-4.3-0.4-6.5-0.1c0,0-0.1,0-0.1,0
		c-0.8-0.2-1.6-0.2-2.4-0.2c-14.1,1.7-26,7.9-36,17.9c-5.9,5.9-10.6,12.7-14.4,20.1c-1.3,2.7-1.6,2.7-3.4,0.2
		c-2.2-3.1-4.6-6.1-7.1-9c-16.3-18.7-36.2-31.6-60.4-37.6c-5-1.3-5-1.3-5.5-6.5c-0.1-0.7-0.1-1.5-0.6-2.1c-0.2-0.3-0.5-0.4-0.7-0.4
		c0,0,0-0.1,0-0.1c0-0.3-0.1-0.7-0.1-1c0.1-1.1,0.1-2.3-0.5-3.3c0,0,0,0,0,0c-0.9-3.6-1.5-7.3-3.3-10.6c0-0.2,0-0.4,0-0.6
		c0.2-1.8,1.5-2.6,2.8-3.5c10.7-7.4,19.6-16.3,26.5-27.4c1.3-2.1,2.7-4.2,2.9-6.7c0-0.3,0-0.7,0.1-1c0.6-1.5,1.3-2.9,1.9-4.4
		c4-10.2,5.5-20.6,3.7-31.5c0.1-1.1,0.1-2.2-0.5-3.3c0,0,0,0,0,0c-0.9-4.8-2.1-9.4-3.7-14c-0.1-0.6-0.2-1.3-0.2-1.9
		c-0.4-4-2.8-7.3-4.4-10.9c-0.7-1.5-0.4-2,1.2-2.1c4.4-0.3,8.5-1.6,12.6-3.3c8.3-3.4,16-7.8,23.5-12.5c8.8-5.5,18.3-9.1,28.1-12.2
		c11.9-3.7,24.1-5.8,36.5-6.6c2.8-0.6,5.7-0.1,8.6-0.3c0.4,0,0.7-0.1,1.1-0.2c0.5-3.1,1.8-2.1,0.5-4.3c0,0,0,0,0,0
		c-2.9,0-5.8-0.1-8.7-0.1c0,0,0,0,0,0c0-0.2,0-0.4,0.1-0.5c-0.1-10.7-0.1-21.5-0.2-32.2c0-1.5,0.5-1.9,2-1.9
		c2.9,0.1,5.8-0.1,8.7-0.1c0,0,0,0,0.1,0c1.8,0.2,1.2-1.3,1.2-2.1c0.1-4,0-8.1,0-12.1c0-20.3,0-40.5,0.1-60.8c0-2.3-0.4-3.1-2.9-2.9
		c-2.4,0.2-4.9,0.1-7.3,0.1c-0.6,0-1.1,0-1.7,0c0-18-0.2-36,0-54.1c0-3-0.7-3.7-3.7-3.7c-120,0.1-240.1,0.1-360.1,0
		c-3,0-3.7,0.8-3.7,3.7c0.1,18,0,36,0,54.1c0,0,0,0,0,0c-1.5,0-3,0-4.5,0c-0.3,0-0.6,0-0.9,0c-1.2,0-2.5-0.3-3.7-0.2
		c-0.9,0-1.7,0.1-2.3,0.1c-0.1,0-0.3,0-0.4,0c-2.4-0.1-3.1,0.5-3.1,3c0.1,15.3,0.1,30.6,0.1,46c0,8.8,0,17.6,0,26.4
		c0,0.9-0.9,2.5,1.2,2.5c0,0,0,0,0,0c3.8,0,7.6,0.2,11.5,0.1c1.7,0,2.3,0.4,2.3,2.2c-0.1,10.6-0.1,21.3-0.1,31.9
		c-0.6,0.1-1.2,0.1-1.8,0.2c-2.5,0.1-5.1-0.1-7.6,0.4c-0.2,0-0.3,0.1-0.5,0.1c0.1,0.2,0.2,0.3,0.4,0.5c0,0,0,0.1,0.1,0.1
		c0,0,0,0,0,0c0.3,1.1-0.5,2.8,1.5,3.1c0,0,0,0,0,0c0,0,0,0,0,0c25.2-0.2,49.1,5,71.6,16.5c7.4,3.8,14.2,8.8,21.9,12.4
		c6.8,3.2,13.6,6,21.7,5.9c-6,11.7-10.8,23.5-11.3,36.6c-0.1,1.1-0.2,2.1-0.2,3.2c0,0.8,0,1.6,0,2.4c0,1,0.1,2.1,0.2,3.1
		c0.4,13.1,5.1,24.6,12.5,35.1c7.9,11.2,18,20,29.7,26.9c1.9,1.1,2.2,2,1.4,4c-1.5,3.9-2.6,8.1-2.6,12.4c0,0.4-0.1,0.8-0.1,1.2
		c0,0.2,0,0.3,0,0.5c0,0,0,0.1,0,0.1c-0.8,4.8-0.9,4.7-6.1,5.7c-22,4.1-41.2,13.6-57.4,29.1c-0.3,0.2-0.6,0.4-0.8,0.7
		c-2.3,1.8-4.3,4-6.2,6.2c-0.3,0.4-0.6,0.8-1,1.2c-4.3,4.1-7.6,9.1-11.3,14.2c-4-7.4-7.8-14.5-13.5-20.4c-0.3-0.4-0.6-0.8-0.9-1.1
		c-1.3-1.6-2.8-3.1-4.4-4.4c-0.3-0.2-0.5-0.4-0.8-0.6c-8.1-7.6-17.7-12.2-28.5-14.3c-1.3-0.2-2.6-0.5-3.9-0.7
		c-0.8,0-1.6,0.1-2.5,0.1c-2.1-0.3-4.1-0.4-6.2,0c-0.7,0.1-2.4-0.4-1.4,1.1c0.7,1.1,0,2.4,1,3.2c0,0,0,0,0,0c0.3,0,0.5,0,0.8,0
		c0,0,0,0,0,0c1.6-0.4,3.3-0.4,4.9,0c2.3-0.6,3.2,0.3,3.8,2.6c1.8,8,5.2,15.5,9.7,22.4c4.8,7.4,10.8,13.2,19.1,17
		c21.6,10,42.8,20.8,64.2,31.3c0.9,0.5,1.8,0.9,3.1,1.6c-2.6,2.9-5.2,5.7-6.9,9.1c1.2,0.8,3,0.2,3.8,1.9
		c5.3-9.1,13.5-14.3,23.5-16.8c7.5-1.9,13.8,4.5,12.2,12c-1.3,6-4.5,11-7.9,16c0,0,0,0,0,0c0,0,0,0,0,0c0.5,1.6,3,0.7,3.3,2.6
		c0,0,0,0,0,0c0,0,0,0,0,0c1.2-1.7,2.6-3.3,3.4-5.2c1.2-2.8,2.5-3.1,5.3-1.7c15.3,7.7,30.8,15.2,46.2,22.8c1.6,0.8,2.8,0.7,4.3-0.1
		c39-19.1,78.1-38.2,117.2-57.3c11.9-5.8,23.8-11.7,35.9-17.1c6.4-2.8,10.9-7.3,14.9-12.7c5.7-7.8,9.8-16.3,12-25.7
		c0.5-2,1.3-2.7,3.3-2.7c2.5,0,4.9-0.6,7.4,0.1c0,0,0,0,0,0C463.6,372.9,464.2,371.4,464.7,369.9
		C464.7,369.9,464.7,369.9,464.7,369.9C464.7,369.9,464.7,369.9,464.7,369.9C464.7,369.9,464.7,369.9,464.7,369.9z M289.6,402.2
		c-1.2,0.4-2.3,0.8-3.5,1.2v0c-1,0.2-2,0.3-3,0.5c-9.3,1.4-18.4,1-27.2-2.9c-4.7-2.4-9.1-5.1-13.2-8.6c-1.1-1.1-2.1-2.1-3.2-3.2
		c-1.8-2.4-3.6-4.7-5.4-7.1c0,0,0,0,0,0c-5-8.7-7.2-18.1-6.9-28.1c0.5-1.3,0.5-2.6,0.5-4c0.4-3.4,1.2-6.7,2.6-9.8c0,0,0,0,0,0
		c3.7-8.4,8.8-15.8,16.5-21c16.4-11.2,33.7-12.6,51-2.8c17.5,9.9,25.7,25.8,23.6,45.8C319.4,381.9,308.1,395.2,289.6,402.2z
		 M229.6,182c-1.7,0.4-3.5,0.4-5.3,0.1c-3-0.4-3.3-1.2-2.1-4.3c1.4,1.3,3.1,1.6,4.8,1.5c0.9-0.1,1.9-0.4,2.3-1.3
		c0.5-1.2-0.8-1.5-1.2-2.2c-0.6-0.4-1.2-0.8-1.9-1.1c-2.5-1-4.7-2.3-4.7-5.4c0-3.1,2.2-4.1,4.6-5.1c0,0,0,0,0,0c1.7,0,3.5,0,5.2,0
		c1.5,0.4,1.6,1.5,1.6,2.8c0,1.2-0.6,1-1.4,0.9c-1.6-0.8-3.3-1.2-4.9,0c-1.7,1.5-0.5,2.3,0.7,3c1.2,0.7,2.6,1.2,3.9,2
		c2,1.2,2.7,3,2.3,5.3C233.1,180.4,231.6,181.5,229.6,182z M220.2,134.3c-2-0.7-1.4-1.8-1.1-3.1c0.5-2.1,1.7-0.8,2.5-0.5
		c2.3,1,4.8,1.5,7.3,1.1c2.3-0.3,4.4-1.1,5.1-3.7c0.8-1.5,0.7-2.9-0.1-4.3c-1.2-2.8-3.8-3.5-6.3-4.5c-3.8-1.5-7-3.5-8.4-7.6
		c0,0,0,0,0,0c-0.3-1.2-0.6-2.2,0-3.6c1-2.5,2.3-4.5,4.3-6.2c4-1.5,8.1-2,12.3-0.6c1.3,0.4,2.1,0.8,1.5,2.6
		c-0.6,1.6-1.2,1.6-2.7,1.1c-5.2-1.8-8.5-0.9-10.4,2.6c-0.5,1-0.7,2-0.1,3.1c0.4,2.6,2.6,3.3,4.4,4.3c2,1,4.2,1.8,6.1,2.9
		c3.5,2.1,4.9,5.3,4.4,9.2c-0.5,3.9-2.8,6.4-6.4,7.7C228.4,136.2,224.3,135.7,220.2,134.3z M308.5,180.3c1-2,1.7-4.2,2.6-6.2
		c1-1.9,2-3.9,2.6-6.1c-2.8-0.1-5.4-0.3-8-0.4c0.3-1.1-0.3-2.4,0.7-3.3c3.6,0,7.2,0,10.9,0v0c1.4,0.9,0.8,2.1,0.4,3.3
		c-1.7,4.3-3.5,8.6-5,12.9c-0.5,1.5-1.4,1.8-2.8,1.8C308.2,182.1,307.7,181.9,308.5,180.3z M319.8,134.8L319.8,134.8
		c-1,0.2-2.1,0.5-3.1,0.7c0,0,0,0,0,0c0,0,0,0,0,0c-1.9,0-3.7,0-5.6-0.1c-1.6-0.5-3.4-0.2-4.8-1.4c-1.5-1.2-0.5-2.6,0-3.6
		c0.8-1.4,1.8,0.1,2.6,0.3c4,1.1,8.1,2.3,11.4-1.6c1.6-2.1,1.6-4.1,0-6.2c-0.9-2.2-3-2.6-4.8-3.5c-1.6-0.8-3.5-1.4-5-2.4
		c-3.2-2-4.8-4.8-4.3-8.6c0.5-3.6,2.7-6,6-7.2c3.5-1.3,7.1-1,10.7,0c1.6,0.5,1.7,1.3,1.2,2.8c-0.6,1.7-1.3,1.2-2.5,0.9
		c-3.4-1-6.9-1.9-9.7,1.3c-1.4,1.5-1.6,3.1-0.7,4.9c0.6,2,2.4,2.7,4,3.6c1.4,0.7,2.8,1.2,4.2,1.8c3.6,1.7,6.4,4.1,6.6,8.5
		C326.3,129.9,323.8,132.9,319.8,134.8z M300.6,182.1c-2.1,0.1-4.1,0.1-6.2,0c-1,0-2.4,0.7-2.5-1.3c-0.2-2.1,1.3-1.7,2.4-1.8
		c0.7-0.1,1.1-0.4,1.2-1.2c0-2.9,0-5.8,0-8.7c0-2-1.2-0.5-1.8-0.6c-0.8-0.1-1.9,0.3-1.9-1.2c0-1.1,0.2-1.8,1.4-1.9
		c0.2,0,0.4,0,0.6-0.1c5.6-1.2,5.5-1.2,5.6,4.5c0.1,3-0.6,6.1,0.4,9.1c0.2,0,0.4,0.1,0.6,0.1c1.1,0.3,2.9-0.4,2.6,1.9
		C302.9,182.8,301.5,182,300.6,182.1z M291.3,101.3c0.2-0.2,0.5-0.4,0.7-0.6c1.2,0,2.4,0,3.6,0.1c0.6,10.9,0.3,21.8,0.1,32.7
		c0,3.1-2.9,0.9-4.4,1.4C291.3,123.7,291.3,112.5,291.3,101.3z M296.2,50.3c4.5,0.2,9.1,0.1,13.7,0c1.3,0,2.4-0.2,2.4,1.8
		c0,1.8-0.9,2-2.3,2c-3.2-0.1-6.4,0.1-9.6-0.1c-1.8-0.1-2.3,0.6-2.2,2.3c0.1,2.2,0.1,4.4,0,6.5c-0.1,1.7,0.6,2.1,2.1,2
		c2.9-0.1,5.8,0,8.7,0c1.2,0,2.5-0.2,2.5,1.8c0,1.9-1,1.9-2.4,1.9c-2.9,0-5.8,0.1-8.7,0c-1.8-0.1-2.4,0.5-2.3,2.3
		c0.2,3.2-1,7.3,0.6,9.3c1.7,2.1,6,0.5,9.2,0.7c1.1,0.1,2.3,0.1,3.4,0c1.4-0.1,1.7,0.6,1.7,1.8c0,1.2-0.1,1.9-1.6,1.9
		c-5.3-0.1-10.6-0.1-15.8,0c-1.7,0-1.8-0.8-1.8-2.1c0-5,0-9.9,0-14.9c0-4.9,0.1-9.7,0-14.6C293.6,51,294,50.2,296.2,50.3z
		 M326.6,77.7c0,2.4,0.4,3.3,3,3.1c3-0.3,6-0.1,9,0c1,0,2.1-0.4,2.8,0.8v0c0,0.7,0,1.5,0,2.2c-0.5,0.9-1.4,0.8-2.2,0.8
		c-5,0-10-0.1-14.9,0c-1.9,0.1-2.2-0.7-2.2-2.4c0.1-9.8,0.1-19.7,0-29.5c0-1.6,0.3-2.4,2.2-2.4c2.1,0,2.3,0.8,2.3,2.6
		C326.6,61.1,326.8,69.4,326.6,77.7z M275.8,253.5c-2.5-0.6-2.6-0.6-2.6,1.8c0,9.4,0,18.9,0,28.3c0,1.2,0.7,2.9-1.7,2.8
		c-2.2-0.1-1.4-1.7-1.4-2.7c-0.1-9.3-0.1-18.6,0-28c0-1.7-0.3-2.4-2.2-2.8c-8.5-1.9-14.3-9.6-13.6-17.9c0.7-9.1,7.3-15.7,16.4-16.5
		c8-0.6,15.7,5,17.9,13c2.2,8.3-2,16.9-10.1,20.5C277.5,252.4,276.3,252.4,275.8,253.5L275.8,253.5z M251.5,83
		C251.5,83,251.5,83,251.5,83c-2.2-9.3-2.2-9.3-11.4-9.3c-0.4,0-0.8,0.1-1.2,0c-1.7-0.3-2.6,0.3-3.1,2.1c-0.8,2.9-1.8,5.7-2.7,8.5
		c-1.6-0.1-3.2,0.7-4.7-0.6c3.7-11,7.5-21.9,11.2-32.9c4.3-1.6,5.6-1,7,3c0.9,2.6,1.9,5.2,2.8,7.7c0,0,0,0,0,0
		c2.5,7.6,5,15.1,7.4,22.7C255,84.1,252.8,85.6,251.5,83z M248.4,134.8c0-10.3,0-20.6,0-30.9c0-1.1-0.4-2.3,0.6-3.2
		c1.2,0,2.5,0.1,3.7,0.1v0c0.1,10.8,0.2,21.5,0.1,32.3C252.7,136.7,249.9,134.3,248.4,134.8z M269.6,168.4c-1.7-2.6-4-0.7-6.2,0.1
		c-1-2.3,0-3.4,2.2-3.9c5.5-1.4,8.5,0.9,8.3,6.5c-0.3,0.5-0.5,1.1-0.8,1.6c-1.4,1.5-2.9,3-4.3,4.5c-0.5,0.3-1.2,0.5-1.3,1.3
		c1.4,1.1,3.1,0.3,4.6,0.5c1.1,0.1,1.7,0.2,1.7,1.5c0,1.4-0.5,1.8-1.8,1.8c-2.5-0.1-5,0-7.5,0c-0.8,0-2,0.6-2.4-0.7
		c-0.3-1.1-0.3-2.2,0.8-3.1c1.5-1.3,2.9-2.7,4.3-4.1C268.8,172.5,271.1,170.8,269.6,168.4z M277.5,70.9c-1.3-1-2.9-1.6-4.4-2.2
		c-1.9-0.8-3.8-1.6-5.4-2.9c-4.7-4-4.2-11,1.2-14.2c4-2.4,8.3-2.1,12.6-0.7c1.5,0.5,1.5,1.3,1.1,2.6c-0.5,1.5-1.1,1.6-2.5,1
		c-2-0.8-4.2-1.2-6.4-0.7c-2.3,0.5-4.1,1.7-4.6,4.1c-0.5,2.6,0.8,4.4,3,5.6c2.5,1.4,5.3,2.3,7.8,3.8c4.5,2.7,5.8,7.9,3.5,12.4
		c-0.9,1.8-2.6,2.9-4.1,4.1l0,0c-5.1,1.7-10.2,1.9-15.2-0.6c0.4-3.9,0.4-3.9,3.7-2.8c2.6,0.9,5.2,1.3,7.9,0.5
		c2.3-0.7,3.8-2.2,4.1-4.5C280.1,74.1,279.3,72.3,277.5,70.9z M288,179.4c-3.5,3.7-6.6,3.9-10.4,0.6c0,0,0,0,0,0
		c-1.6-3-1.3-6.3-1.3-9.5c0,0,0,0,0,0c0.7-1.5,1-3.3,2.3-4.6c2.6-2.6,6.3-2.2,9.4,0.9C289.6,171,289.6,175.2,288,179.4z
		 M264.5,100.7c1.2,0,2.5,0,3.7,0.1c0.2,0.2,0.4,0.4,0.5,0.7l0,0c0,9.3-0.1,18.6-0.2,27.8c0,1.7,0.7,2,2.2,2c4.1-0.1,8.2,0,12.4,0.1
		c0.6,2.9-0.3,3.9-3.4,3.7c-5.2-0.3-10.4-0.2-15.6-0.2c0-10.3,0-20.5,0-30.8C264,102.9,263.7,101.7,264.5,100.7z M199.9,83.7
		c0-10.9,0.1-21.8,0.1-32.8c5.8-1,11.6-1.9,17.2,1.3c2.7,2.2,3.6,5.1,3.1,8.5c-1.1,2.2-2.6,4.2-5.3,5.3c4,1.7,6.7,4.1,6.7,8.4
		c0.1,4.2-1.9,7.5-5.9,8.9C210.6,85.1,205.3,85.5,199.9,83.7z M238.4,167.9c-4-0.3-4-0.3-3.1-3.7c4.3,0,8.6,0,12.9,0
		c1.4,0.9,0.6,2.3,0.7,3.5c0,0,0,0,0,0c-1.6,0.5-3.5-0.9-4.9,0.8c0,3.6-0.1,7.1-0.1,10.7c0,3.4-0.9,3.8-4.2,2.2
		c0.1-4,0.1-8,0.2-11.9C239.9,168.4,239.8,167.5,238.4,167.9z M250.6,178.3c1.4,0.1,2.2,0.8,2.1,2.2c-0.1,1.3-1,1.8-2.1,1.8
		c-1.3,0-2.3-0.6-2.3-2C248.4,178.9,249.4,178.4,250.6,178.3z M332.1,266.7c-0.3,0.6-0.8,1.2-1.2,1.8c-1.2,1.2-2.5,2.4-3.7,3.6
		c-2.1,1.5-4.6,2.3-7,3.1c0,0,0,0,0,0c-0.4,0.1-0.7,0.1-1.1,0.2c-1.1,0.7-0.5,1.9-0.5,2.8c-0.1,6.6,0,13.2,0,19.8
		c0,1,0.5,2.3-1.4,2.4c-2.1,0.1-1.7-1.3-1.7-2.5c0-6.6,0-13.2,0-19.8c0-0.9,0.6-2.1-0.6-2.8c-1.2-0.3-2.3-0.5-3.5-0.8
		c-9.4-4.8-13.5-12.3-11.2-21c1.9-7,6.6-11.5,13.7-12.8c7.1-1.3,13.2,1.1,17.3,7.1C335.4,253.9,335.5,260.3,332.1,266.7z M334,177
		C334,177,334,177,334,177c-0.1-0.1-0.2-0.1-0.3,0c-1.2-0.1-2.4-0.2-3.7-0.3c-1-0.1-2.2,0.3-2.2-1.4c-0.1-1.6,1-1.5,2.1-1.5
		c0.8,0,1.7,0,2.5,0C335,173.8,335.5,174.9,334,177z M352,131.9c-2-3.5-4.4-6.7-6.7-10.1c-2.5-3.6-2.5-3.6-5-0.1v0l0,0c0,0,0,0,0,0
		c-1.2,3.5-0.3,7.1-0.5,10.6c-0.1,1.6,0,2.7-2.2,2.7c-2.1,0-2.3-0.9-2.3-2.6c0.1-10.5,0-21,0.1-31.5c0,0,0,0,0,0
		c1.4,0,2.8-0.1,4.3-0.1c0,4.7,0.1,9.5,0.1,14.2c0,0.5-0.5,1.3,0.5,1.4c0.2,0,0.5-0.6,0.7-0.9c0,0,0,0,0,0c0.4-0.6,0.9-1.2,1.3-1.7
		c3.7-4.4,7.5-8.8,11.2-13.1c1.6,0.1,3.2,0.1,4.8,0.2c-3.4,4.1-6.8,8.3-10.3,12.3c-1.4,1.6-1.7,2.6-0.3,4.4
		c3.4,4.7,6.5,9.5,9.8,14.3c0.6,0.8,1.1,1.7,1.6,2.6C355.9,135.5,353.7,134.9,352,131.9z M380.5,134.1
		C380.5,134.1,380.5,134.1,380.5,134.1c-4.4,1.9-8.8,1.7-13.3,0.7c-0.7-0.8-2.3-0.4-2.4-2c-0.1-2,1.2-2.7,3.1-2.1
		c4.1,1.3,8.2,2.6,11.6-1.4c1.5-1.7,1.5-3.6,0.5-5.6c-1-2.5-3.4-3.2-5.5-4.2c-1.7-0.8-3.5-1.4-5-2.4c-3-1.9-4.6-4.7-4.2-8.4
		c0.4-3.6,2.5-6.1,5.9-7.3c3.5-1.4,7.1-1.2,10.6-0.1c1.3,0.4,2.1,0.9,1.5,2.6c-0.6,1.7-1.3,1.6-2.7,1c-2-0.9-4.2-1-6.4-0.6
		c-2.2,0.4-3.8,1.6-4.3,3.9c-0.5,2.3,0.5,4,2.3,5.3c1.8,1.3,3.9,1.9,5.9,2.8C386.8,120.4,387.9,128,380.5,134.1z M168.6,134.8
		C168.6,134.8,168.6,134.8,168.6,134.8c-3.6,0.5-7.3,0.6-10.9,0.6c-2.4-0.1-2.8-1.4-2.8-3.6c0.1-9.3,0.1-18.6,0-27.9
		c0-2.2,0.7-3,2.7-3c2.7,0,5.4-0.3,8-0.2c4.8,0.3,8.3,2.8,9.2,6.1c1,3.9-0.2,6.6-4.8,9.9c2.2,0.9,4,2.2,5.4,4
		c0.4,1.7,0.8,3.4,1.2,5.2C176,130.7,173.1,133.5,168.6,134.8z M197.8,177C197.8,177,197.8,177,197.8,177c-2,0-4-0.1-6-0.1
		c0-1-0.9-2.6,0.6-2.8c1.9-0.3,4-0.7,5.7,0.2C198.9,174.8,198.6,176.2,197.8,177z M206,132.3c-1-2.6-0.9-6.2-3-7.5
		c-2.1-1.2-5.4-0.2-8.2-0.5c-2.8-0.3-4.2,0.7-4.6,3.4c-0.2,1.3-1,2.5-1.2,3.8c-0.6,3.3-2.4,4.2-5.6,3.1c1.9-5.9,3.9-11.9,5.8-17.8
		c1.7-5.1,3.4-10.2,5.1-15.3v0c0.2-0.2,0.4-0.5,0.5-0.7c1.8,0.2,3.8-0.5,5.5,0.6c2.9,8.9,5.9,17.7,8.8,26.6c0.8,2.1,1.6,4.1,2.4,6.2
		C208.3,135.9,207.2,135.4,206,132.3z M209,180.1c0.1-5.3,0.1-10.5,0.2-15.8c0,0,0,0,0,0c3,0,6.1-0.1,9.1-0.1
		c1.4,0.9,0.7,2.3,0.7,3.5c-1.9,0.1-3.7,0.1-5.6,0.2c-1.1,3.3-1,3.6,2.2,3.6c0.6,0,1.2,0,1.9,0c1.2-0.1,1.3,0.7,1.3,1.6
		c0,0.9-0.1,1.7-1.3,1.6c-1,0-2.1,0.1-3.1,0c-1.6-0.1-1.5,1-1.5,2c0,1.1-0.1,2.1,1.5,2.1c1.7,0,3.5,0.1,5.2,0.2c0,1-0.1,2-0.1,3.1
		c-2.8,0-5.6-0.1-8.4,0C209.7,182.2,208.9,181.9,209,180.1z M213.3,259.7c1-8.5,7.7-15,16-15.4c8.6-0.5,16.1,4.9,18.1,12.9
		c2.1,8.3-2,16.7-9.8,20.3c-0.7,0.3-1.3,0.6-1.9,0.9c0,0,0,0,0,0c-1,0.2-2,0.4-3,0.7c0,0,0,0,0,0c-1.1,0.7-0.6,1.9-0.6,2.8
		c-0.1,6.9,0,13.9,0,20.8c0,1.1,0.6,2.6-1.6,2.6c-2.2,0-1.5-1.5-1.5-2.6c0-6.9,0-13.9-0.1-20.8c0-0.9,0.6-2.1-0.6-2.8
		c-1-0.2-2-0.4-3-0.7C216.4,274.2,212.3,267.9,213.3,259.7z M222.1,444.5c-0.3,0.2-0.8,0.4-1.1,0.4c-2.3-0.3-6.2-5.1-6.1-7.5
		c0.1-2.1,0.3-4.1,0.5-6.7c4.5,3.5,8.7,6.9,13.2,10.4C226.2,442.4,224.2,443.5,222.1,444.5z M325.4,435.7c-7.7,4.3-16.2,6.1-24.9,7
		c-12.5,1.3-24.7-1.4-37-3.4c-7.9-1.3-15.6-3-23.4-4.6c-2.4-0.5-4.8-0.9-7-0.1c-3.8,1.4-6.8,0.1-9.3-2.6c-0.4-0.4-0.9-0.8-1.4-1.2
		c0.8-1.6,2.5-1.9,3.7-2.8c4.2-1.2,8.5-1.3,12.7-1.2c1.3,0.5,2.6,0.5,4,0.5c4.3,1.2,8.8,1.7,13.3,2.3c11.1,1.3,22.2,2.4,33.4,0.8
		c1.1,0.1,2.3,0,3.3-0.5c0,0,0,0,0,0c3.9-0.3,7.5-1.4,11-3.2c7.5-2.7,11.5-10,9.7-18.1c-0.8-3.6-2.2-6.9-4.5-9.8
		c-0.8-1-1.2-1.7,0-2.8c6.1-5.3,10.5-11.9,13.7-19.7c8.1,7.6,13.8,16.3,16.6,26.9C343,417,338.1,428.5,325.4,435.7z"/>
	<path fill="#509D2F" d="M140.9,396.9c-0.1,1.1-0.8,2.6,1.3,2.8c2.4,0.2,1.6-1.5,1.9-2.7c0.1-0.7,0.1-1.4,0.2-2.2
		c1.3-28.8,6.2-57,14.3-84.6c2.7-9.2,5.8-18.3,8.8-27.4c1.9-3.8,3.1-7.9,4.5-11.9c1-2.7,0.1-2.8-2.1-2c0,0,0,0,0,0
		c-0.3,0.5-0.6,1.1-0.8,1.6c-14.3,35-23.4,71.3-26.9,109C141.6,385.4,141.3,391.2,140.9,396.9z"/>
	<path fill="#509D2F" d="M80.9,298.4C80.9,298.4,80.9,298.4,80.9,298.4c2.7-2.7,5.5-5.5,8.2-8.2c1.7-1.1,3.1-2.6,4.5-4.2
		c1-0.9,2-1.8,3-2.6c19.1-16.4,39.8-30.3,62.5-41.3c1.1-0.5,1.6-1,0.9-2.3c-0.7-1.4-1.4-1-2.5-0.5c-9.7,4.8-19.1,9.9-28.2,15.8
		c-13.4,8.6-26.3,18-37.8,29.1c-2.6,2.2-5.3,4.1-7.3,6.8c-4.2,3.9-8.1,8.1-11.9,12.5c-1,0.6-1.8,1.2-0.5,2.2
		c0.9,0.7,1.7,1.5,2.7,0.1c0.7-1,1.5-1.9,2.3-2.8C78.2,301.5,79.7,300.1,80.9,298.4z"/>
	<path fill="#509D2F" d="M72.9,213.2c0.8-0.1,1.7-0.1,2.5-0.2c13-1.7,26-1.4,38.9,0.6c14.4,2.2,28.1,6.6,41.3,12.8
		c1.2,0.5,1.9,1,2.7-0.6c0.6-1.2,0.1-1.6-0.9-2.1c-12.3-5.8-25-10.2-38.5-12.4c-1.4,0-2.9,0-4.2-0.7c-1-0.5-2.1-0.6-3.3-0.5
		c-0.5,0-1.1-0.1-1.6-0.1c-1.1-0.6-2.2-0.5-3.4-0.5c-8-1.2-16.1-1-24.2-0.5c-4,0.2-7.9,1-11.8,1.7c-0.5,0.1-2.2,0-1.6,1.8
		c0.5,1.4,1.2,1.5,2.3,1.3C71.8,213.7,72.4,213.4,72.9,213.2z"/>
	<path fill="#509D2F" d="M162,255.7c-2.6,2.8-5.1,5.6-7.6,8.4c-0.3,0.3-0.7,0.5-1,0.8c-25.8,27.5-47.9,57.6-66.5,90.3
		c-0.6,1.1-1.5,2,0.3,3c1.8,1,1.9-0.5,2.4-1.3c5.6-9.8,11.6-19.4,17.8-28.8c10.6-16,22.3-31.1,34.6-45.8c0.7-0.8,1.3-1.6,2-2.3
		c2.6-2.6,5.1-5.3,7.3-8.3c1.7-1.8,3.8-3.3,5.2-5.4c3.2-3.1,6.3-6.1,9.1-9.5c0.1-0.4,1-0.5,0.5-1.2
		C164.5,253.6,163.2,254.4,162,255.7z"/>
	<path fill="#509D2F" d="M452.7,356.7c0.7,1.2,1,2.5,2.9,1.2c1.7-1.2,0.3-2-0.2-2.8c-8.5-15-17.9-29.6-28-43.6
		c-9.1-12.6-18.6-24.9-29.2-36.2c-0.9-1.8-2.7-2.7-3.9-4.2c-4.6-5.9-10.2-11-15.3-16.5c-1.6-1.7-2,0.1-2.7,0.9
		c-0.4,0.2-0.4,0.5-0.2,0.7c3.4,3.5,6.8,7,10.2,10.5c17.1,18.4,32.8,37.9,46.8,58.7C440,335.6,446.5,346,452.7,356.7z"/>
	<path fill="#509D2F" d="M463.5,296.4c-2.8-3.3-6-6.4-9.3-9.2c-0.2-0.2-0.3-0.5-0.6-0.7c-20.4-19.2-43.5-34.7-68.6-47.1
		c-1.1-0.5-1.9-1.1-2.7,0.5c-0.9,1.8,0.5,2,1.4,2.4c23.1,11.3,44.3,25.5,63.5,42.5c2,1.9,4.1,3.7,6.1,5.6c0,0,0,0,0,0
		c4.8,5,9.5,10,14.3,15.1c0.8,0.8,1.3,1.5,2.5,0.4c1.1-1,0.8-1.7,0-2.5C467.9,301,465.7,298.7,463.5,296.4z"/>
	<path fill="#509D2F" d="M478.9,210.6c-7.1-1.4-14.4-1.9-22.3-1.8c-7.4-0.1-15.4,0.7-23.4,2c-14.1,2.3-27.5,6.6-40.4,12.7
		c-0.7,0.3-2.1,0.3-1.7,1.7c0.2,0.6,0.6,1.5,1.2,1.7c0.9,0.4,1.7-0.5,2.5-0.9c26.7-12.1,54.4-17.1,83.5-12.3c1.4,0.2,2.1,0,2.4-1.4
		C481.1,210.5,479.8,210.8,478.9,210.6z"/>
	<path fill="#509D2F" d="M396.9,376.3c0.4,7.2,0.9,14.4,1.3,21.6c0.1,1,0.2,1.8,1.5,1.8c1.5,0,1.7-0.7,1.7-1.9
		c-0.2-3.7-0.2-7.4-0.8-11.1c0-1.8,0.1-3.6-0.4-5.3c0-0.1-0.2-1.6-0.2-2.1c0.1-1.6,0.1-3.1-0.5-4.6c0,0,0,0,0,0
		c0-0.5-0.6-5.6-0.6-5.6c0-0.5-0.1-3.9-0.6-4.9c0,0,0-3.4-0.6-4.4c0,0,0,0,0,0c-0.9-5.1-1.7-10.2-2.6-15.3c0-0.3,0-0.6,0-0.9
		c-4.9-25.4-12.4-49.9-22.2-73.8c-0.4-0.9-0.5-2.1-2.1-1.4c-1.5,0.6-1.4,1.4-0.9,2.6c2.5,6.3,4.9,12.5,7.2,18.8
		c5,13.5,8.6,27.4,12.2,41.3c1.5,7.6,3,15.2,4.5,22.8c0,1.1,0.5,3.2,0.5,3.2c-0.1,1.7,0.6,7.2,1.2,8.2c0,0,0,0,0,0
		c0,0.5,0,3.9,0.6,5c0,0,0.1,1.1,0.1,1.6C396.3,373.2,396.8,376.2,396.9,376.3z"/>
	<path fill="#509D2F" d="M262.4,327.7c2.9-3.9,4.7-8.2,5-13.3c0-0.5,0.2-1.4-0.9-1.5c-1.1-0.1-1.3,0.7-1.3,1.6
		c-0.3,7-4.1,12.2-8.9,16.8c-6.3,6-13.9,9.6-22.4,11.3c-0.7,0.1-1.8,0-1.7,1.3c0.1,1.2,1,1,1.9,0.8
		C245.5,342.4,255.3,337.1,262.4,327.7z"/>
	<path fill="#509D2F" d="M288.4,329.1c6.9,8.4,16,13.3,26.5,15.5c0.8,0.2,2.2,1.2,2.5-0.5c0.3-1.6-1.3-1.3-2.2-1.5
		c-6.2-1.4-12-3.8-17.2-7.5c-7.1-5.2-12.9-11.4-13.5-20.8c0-0.7-0.2-1.2-1.1-1.3c-1.4,0.1-0.9,1.3-0.9,2.1
		C282.7,320.4,285,325,288.4,329.1z"/>
	<path fill="#509D2F" d="M262.7,379.4c0.1-1.4-1.1-1.2-2-1.3c-1.4-0.2-2.9-0.3-4.3-0.5c-6.2-1.1-12.3-2.8-18.3-4.8
		c-0.7-0.2-1.6-0.9-2.1,0.3c-0.5,1.2,0.5,1.4,1.3,1.6c7.6,2.4,15.2,4.7,23.5,5.5C261.3,380.1,262.6,380.9,262.7,379.4z"/>
	<path fill="#509D2F" d="M309.8,373c-7.4,2.2-14.8,4.7-22.7,5.1c-0.9,0.1-1.7,0.3-1.6,1.4c0.1,1,1,0.8,1.8,0.8
		c7.9-0.7,15.5-2.9,23.1-5.4c0.8-0.3,2.2-0.2,1.8-1.6C311.8,371.6,310.6,372.8,309.8,373z"/>
	<path fill="#509D2F" d="M261.6,387.4c-1.8-0.1-3.7-0.2-5.5-0.5c-4.7-0.6-9.3-1.9-13.9-3.2c-0.8-0.2-1.9-1-2.3,0.5
		c-0.4,1.3,0.8,1.2,1.5,1.4c5.9,1.7,11.9,3.3,18.5,3.8c0.4,0,1.1,0.1,1.8,0c0.8-0.2,2.2,0.4,2.1-1
		C263.7,387.1,262.5,387.4,261.6,387.4z"/>
	<path fill="#509D2F" d="M305.7,383.8c-6.2,1.6-12.3,3.4-18.8,3.6c-1,0-2.4-0.4-2.5,1c0,1.6,1.6,0.8,2.4,1c0.3,0.1,0.6,0,0.9,0
		c6.3-0.3,12.4-1.9,18.5-3.7c0.8-0.2,2.5,0.1,2-1.6C307.9,382.6,306.6,383.6,305.7,383.8z"/>
	<path fill="#509D2F" d="M310.4,353.6c0.6-0.2,1.2-0.4,1.9-0.6c0.6-0.2,1.2-0.4,1.8-0.6c0.6-0.2,1.2-0.3,1.4-1
		c-0.9-0.3-1.5-0.2-2.1,0.4c0,0,0,0,0,0c-0.7,0.1-1.4,0.1-1.9,0.6c0,0,0,0,0,0c-0.7,0.2-1.3,0.4-2,0.6c0,0,0,0,0,0
		c-1,0.1-2.1,0.1-3,0.7c-14.4,2.7-28.9,3.7-43.6,2.5c-6-0.5-11.9-1.3-17.9-1.9c-0.1-0.6-0.5-0.7-1-0.6c-0.8-0.5-1.7-0.6-2.6-0.6
		c-0.2-0.1-0.3-0.1-0.5-0.1c-0.7-0.2-1.4-0.4-2.2-0.6c-0.5-0.7-1.2-0.5-1.9-0.6c-0.5-0.5-1.2-0.8-1.4,0c-0.1,0.5,0.8,0.8,1.4,0.8
		c0,0,0,0,0,0c0.6,0.2,1.3,0.4,1.9,0.6c0.6,0.2,1.2,0.4,1.9,0.6c0.6,0.2,1.3,0.4,1.9,0.6c0,0,0,0,0,0c0.8,0.2,1.6,0.4,2.5,0.7v0
		c1.5,0.4,2.9,0.9,4.4,1.2c19.6,4.1,39,3.8,58.3-1.8C308.8,354.1,309.6,353.8,310.4,353.6z"/>
	<path fill="#509D2F" d="M285.6,237.5c0.3-1,0.3-2.1,0-3.1c-0.5-7-6.3-12.4-13.5-12.7c-7.2-0.3-13.4,4.9-14.4,12.1
		c-0.4,1.4-0.4,2.9,0,4.3c1.1,7.3,7.2,12.3,14.5,12C279.3,249.8,285,244.4,285.6,237.5z"/>
	<path fill="#509D2F" d="M204.6,58.9c-0.2,1.4-0.1,2.9,0,4.3c0,0.7-0.1,1.5,1,1.5c3.1,0,6.4,0.5,8.6-2.5c2.4-2.4,2.4-4.3,0-6.4
		c-2.2-3.1-5.5-2.7-8.4-2C203.3,54.4,204.9,57.1,204.6,58.9z"/>
	<path fill="#509D2F" d="M216.6,72.7c-0.2-1.1-0.6-2.1-1.8-2.4c-1.9-1.6-4.3-1.5-6.5-2c-2.5-0.6-4.2,0.1-3.6,3.2c0.2,1.4,0,2.9,0,4.3
		c0,6.1,0.6,6.5,6.7,5.1c0.1,0,0.2-0.1,0.3-0.1c2.4-0.3,4.1-1.4,4.9-3.8C217.2,75.6,217.3,74.1,216.6,72.7z"/>
	<path fill="#509D2F" d="M319.9,244c-6.3-1.4-12.6,1.7-15.6,7.8c-0.5,0.6-0.8,1.4-0.8,2.2c0,0,0,0,0,0c-2.4,7.9,2.1,15.8,10.1,17.6
		c2.3,0.8,4.5,0.8,6.8,0c6.4-1.4,10.8-6.9,10.8-13.6C331.3,251.2,326.7,245.6,319.9,244z"/>
	<path fill="#509D2F" d="M233.4,275.4c6.5-1.1,11.2-6.6,11.4-13.2c0.3-7-4.2-12.9-11.1-14.6c-6.3-1.6-12.9,1.7-15.9,7.8
		c-2.4,5-2,9.8,1.2,14.3c2.2,3,4.9,5.1,8.8,5.6C229.7,276.1,231.5,276,233.4,275.4z"/>
	<path fill="#509D2F" d="M169.3,120.6c-2.6-2.2-5.8-1.8-8.8-1.9c-1.5,0-1.2,1.1-1.2,2c0,3,0.1,6,0,8.9c-0.1,1.6,0.4,2.2,2,2.2
		c2.6,0,5.1-0.1,7.4-1.4C172.7,127.7,172.9,123.7,169.3,120.6z"/>
	<path fill="#509D2F" d="M159.3,113.7c0,1.1,0.2,1.8,1.5,1.7c2.3-0.1,4.6,0.2,6.6-1.1c1.2-0.4,2.1-1.1,2.5-2.4c1-1.5,0.9-3,0-4.5
		c0,0,0,0,0,0s0,0,0,0c-1.5-2.7-4.1-3.1-6.9-3.2c-2.7-0.1-4.3,0.4-3.9,3.7C159.5,109.7,159.4,111.7,159.3,113.7z"/>
	<path fill="#509D2F" d="M242.5,54.6c-0.7,2.6-1.3,4.4-1.8,6.3c-0.6,1.9-1.1,3.7-1.7,5.6c-1.6,4.2-2.2,3.8,2.3,3.8c1,0,2,0,3.1,0
		c3.4,0,3.4,0,2-3.2C245.2,63.1,243.9,59.1,242.5,54.6z"/>
	<path fill="#509D2F" d="M197.9,107.5c0-0.6,0.2-1.4-0.5-1.6c-0.7-0.2-0.6,0.5-0.6,1c-1.3,4.1-2.6,8.3-3.8,12.4
		c-0.5,0.8-0.9,1.6,0.5,1.6c2.5,0.1,5.1,0,7.6,0c1.5,0,1.1-0.8,0.5-1.6C200.4,115.4,199.1,111.4,197.9,107.5z"/>
	<path fill="#509D2F" d="M280.7,170.3c-0.6,2.3-0.4,4.5,0,6.8c0.2,1.2,0.7,2.2,2.1,2.1c1.3-0.1,1.9-1.2,2.1-2.4c0.4-2.3,0.5-4.7,0-7.1
		c-0.3-1.6-1.3-2.2-3.1-2.1C281,168.3,280.6,169.2,280.7,170.3z"/>
</g>
</svg>
