<?xml version="1.0" encoding="utf-8"?><svg version="1.1" id="Layer_1" xmlns="http://www.w3.org/2000/svg" xmlns:xlink="http://www.w3.org/1999/xlink" x="0px" y="0px" viewBox="0 0 512 512" style="enable-background:new 0 0 512 512;" xml:space="preserve"><style type="text/css"> .st0{fill:#15253A;} .st1{fill:#172C4B;} .st2{fill:#E9F3FB;} .st3{fill:#8EBEE8;} .st4{fill:#2E6FB5;} .st5{fill:#09488D;} .st6{fill:#CCDCE9;} .st7{fill:#07060D;} .st8{fill:#191F35;} .st9{fill:#5D596F;} .st10{fill:#23415F;} </style><g id="Ebene_4"><path class="st0" d="M101.1,77.4c-1.3-0.1-2.5-0.3-3.7-0.4c-5.4-0.5-10.8-1-16.2-1.5C75,75.1,68.7,74.4,62.5,75 c-2.9,0.3-5.3,1.3-6.7,4.2c-2.6,5.4-4.9,10.9-6.7,16.6c-4.9,15.8-7,32.1-7.9,48.6c-0.1,2.5,0.1,5.1-0.7,7.6v28.7 c0.8,1.9,0.3,4,0.4,6c0.1,0.8,0.3,1.6,0.3,2.4c0.3,10.8,1.4,21.4,2.5,32.1c1.3,11.7,2.9,23.4,4.8,35.1c3.1,18.6,7.2,36.8,13.5,54.5 c3.8,10.6,7.9,21.2,12.5,31.4v0.3h0.1c10,22.6,22.2,44.2,36.9,64.5c12.8,18,56.9,61.3,78.4,74.7c22.8,12.6,40.7,23.7,63.5,28.9 c0.4,0.1,1,0.1,1.1,0.7h1.6c0,0,0-295.2,0-425.9C223.9,84.7,128.7,78.2,101.1,77.4z"/><path class="st1" d="M471.5,185.5c0-14.1-0.5-43.2-0.5-43.7c-0.5-8-1.4-16-2.7-23.9c-2.2-13.4-5.6-26.5-11.8-38.7 c-1.3-2.7-3.3-4.1-6.1-4.5c-4.7-0.7-9.2-0.4-13.9,0c-8.1,0.7-16.2,1.7-24.3,2.4c-0.6,0.1-1.2,0.1-1.7,0.1c-1.7,0.1-3.5,0.3-5.3,0.5 c-0.6,0.1-1.2,0.1-1.8,0.1c-1.2,0.1-2.3,0.1-3.5,0.1c-0.6,0-1.2,0-1.8-0.1c-8.9-0.3-124.5,7.7-142.1,7.4c0,130.7,0,425.9,0,425.9 h1.2c0.1-0.5,0.5-0.3,0.8-0.4c2.3-0.5,4.7-1.2,6.9-1.9c3.8-1.1,7.6-2.5,11.3-3.9c23.2-8.7,44.6-21,64.3-35.9c1.3-1,2.5-1.9,3.8-2.9 c8.8-6.9,17.2-14.4,25.1-22.4c1.3-0.9,2.7-2.3,4.3-3.8c0.4-0.4,0.8-0.8,1.2-1.3c0.2-0.2,0.4-0.4,0.6-0.7c0.4-0.5,0.9-0.9,1.3-1.4 c0.4-0.5,0.9-0.9,1.3-1.5c0.7-0.7,1.3-1.5,2.1-2.3c0.5-0.5,0.9-1.1,1.4-1.6c7.8-9.2,16.2-20.4,19.8-25c0.1-0.1,0.2-0.3,0.3-0.4 c0.5-0.6,0.8-1.1,1.1-1.5c0.1-0.1,0.1-0.2,0.2-0.3s0.1-0.1,0.1-0.1c4.5-6.3,8.8-12.8,12.8-19.5c20.3-34,35.9-69.8,44.4-108.6 c4.2-18.9,6.9-38.1,8.8-57.3c0.9-8.8,1.4-17.6,2.1-26.4C471.3,190.1,470.9,187.8,471.5,185.5z"/><path class="st2" d="M462.8,120.4c-2.1-12.6-5.4-24.7-11.2-36.2c-1.3-2.6-3.3-3.9-6-4.3c-1.4-0.2-2.8-0.4-4.2-0.4 c-7.7-0.1-15.2,1-22.8,1.8c2.8,1.5,5.6,2.9,8.4,4.3c3.7-0.7,7.5-0.5,11.3-0.3c3.5,0.2,6,1.7,7.6,5.1c2.4,5.3,4.7,10.7,6.3,16.3 c4.7,16,6.6,32.5,7.4,49.1c0.9,18.8,0.2,37.5-1.4,56.1c-1.1,12.6-2.6,25.1-4.5,37.5c-2.3,14.4-4.6,28.8-8.7,42.8 c-7.7,26.3-18.2,51.4-31.5,75.4c-5.2,9.2-10.6,18.2-16.8,26.8c-9.4,15.7-36.4,44-42.3,48.7c-15.4,14.2-32.3,26.3-50.6,36.6 c-12.6,7-25.8,12.8-39.6,17c-0.8,0.3-1.5,0.4-2.3,0.6c-2.2,1.4-4.5,2.2-7.1,1c-2.9-0.3-5.7-1.3-8.4-2.3 c-11.4-3.5-22.2-8.2-32.7-13.6c-19.7-10.1-37.6-22.8-54-37.5c-7.5-5.1-36.2-38.9-44-50.2c-6.5-9.1-12.3-18.6-17.7-28.4 c-12.9-23.3-23.2-47.6-30.6-73.2c-6.9-23.7-10.1-48.2-12.7-72.6c-1.1-11-1.9-22-2.3-33c-0.7-21.2-0.3-42.2,3.3-63.2 c2-11.8,5.2-23.3,10.4-34.1c1.5-3.1,3.6-4.3,6.8-4.7c4.1-0.5,8.2,0,12.4,0c2.3-1.8,5.3-2.6,7.5-4.5c-8-0.7-16-1.7-24.1-1.3 c-3.8,0.1-6.6,1.4-8.2,5.3c-2.1,4.9-4.2,9.6-5.8,14.6c-4.6,14.6-6.7,29.6-7.7,44.8c-1.4,19.5-0.9,39,0.5,58.4 c0.8,11.1,2,22.2,3.5,33.3c2.1,16,4.6,31.8,8.4,47.4c6.3,25.6,16.2,49.9,27.9,73.4c6.7,13.5,14.4,26.3,22.8,38.8 c0.3,0.4,0.5,0.9,0.8,1.3c8.8,13.9,39.8,46.7,40.2,47c15,14.4,31.5,26.9,49.5,37.4c17.2,10,35.1,18.2,54.5,23 c0.9,0.2,1.8,0.2,2.7,0c5.7-1.3,11.3-3.1,16.8-5.1c23.1-8.5,44.2-20.6,63.7-35.3c8.6-6.5,17-13.4,24.6-21.2 c14.9-13.6,35.5-39.9,38.4-44.8c21.9-31.5,37.9-65.8,49-102.4c8.1-26.9,11.5-54.7,14.3-82.6c1-9.6,1.6-19.2,1.9-28.8 C466.8,163.1,466.4,141.6,462.8,120.4z"/></g><g id="Ebene_8"><path class="st2" d="M228,149.9c9.3-3.3,18.9-2.7,28.5-1.7c12.3,1.3,23.8,5.3,34.7,11.1c1.6,0.9,3.2,1.7,1.4,4.1 c4.8-2.4,7.2,1.5,10,3.5c6.9,4.9,12.9,10.9,18.2,17.5c10.1,12.6,17.2,26.9,21.1,42.6c0.3,1.5-0.1,2.6-0.6,3.8 c-1.6,2-2.7,4.3-4.1,6.5c-1.7,2.8-3.1,5.8-5.1,8.4c-1.6-11.6-5.2-22.7-11-32.9c-5.3-9.2-11.8-17.3-20-23.9c-2.5-2.3-5.1-4.3-8-5.9 c-1.1-1.2-2.4-1.8-4.1-1.3c1.1-2.7-1-3.5-2.8-4.5c-5.6-3-11.4-5.5-17.6-7.3c-0.8-0.3-1.6-0.6-2.4-0.9c-11.4-3.1-22.9-3.8-34.5-2.3 c-10.6,1.3-20.7,4.5-30.1,9.6c-0.1-0.1-0.3-0.3-0.4-0.5c0.7-0.3,1-1,1.4-1.6c5.3-7.5,11-14.5,18.5-20 C223.3,152.5,225.9,151.5,228,149.9z"/><path class="st3" d="M332.2,245.6c2.1-2.6,3.4-5.6,5.1-8.4c1.3-2.2,2.4-4.5,4.1-6.5c0.7-1.7,1.1-3.6,0.9-2.5c1,3.3,1.9,7,2.2,10.2 c0.2,1.5,0.3,2.3,0.5,5.3c-2.1,2.2-3.2,5-4.7,7.5c-2.6,4.5-5.1,9-7.7,13.4C333.1,258.4,332.9,252,332.2,245.6z"/><path class="st4" d="M204.8,156.9c-0.1,0.1-0.3,0.3-0.4,0.4l0,0l0,0l0,0c-0.1,0.3-0.1,0.7-0.3,0.9c-5.1,5.5-9,11.7-12.8,18 c-1.8,3-4,5.7-5.1,9.1c1.6-0.7,2.8-2,4.3-2.9c0.5-0.5,1.1-1.1,1.6-1.5c0.1-0.1,0.3-0.3,0.5-0.4v-0.1c0.3-0.6,0.5-1.2,0.9-1.7 c4.5-6.9,9.8-13.2,15.7-19c2.6-2.5,5.3-5.1,7.8-7.6C212.6,153.3,208.7,155.1,204.8,156.9z"/><path class="st3" d="M226.8,149.4c-3.4,0.2-9.8,2.8-10,2.8c-2.6,2.5-5.3,5-7.8,7.5c-5.9,5.7-11.2,12-15.7,19 c-0.3,0.5-0.6,1.1-0.9,1.7c1.4-0.2,1.4-0.2,0,0v0.1c-0.1,0.1-0.3,0.3-0.5,0.4c-0.5,0.5-1.1,1.1-1.6,1.5c-1.5,0.9-2.7,2.2-4.3,2.9 c-0.6,0.8-1.3,1.6-1.9,2.4c2.9-0.7,4.6-2.9,6.7-4.7c3.6-2.3,7.2-4.5,10.8-6.8c-0.1-0.1-0.3-0.3-0.4-0.5c0.7-0.3,1-1,1.4-1.6 c5.3-7.5,11-14.5,18.5-20c2.2-1.6,4.7-2.7,6.9-4.3C227.7,149.4,227.3,149.4,226.8,149.4z"/><path class="st5" d="M344.9,243.8c-2.1,2.2-3.2,5-4.7,7.5c-2.6,4.5-5.1,9-7.7,13.4c-0.6,3.7-1.1,7.4-1.7,11.1l0,0 c-0.4,0.3-0.4,0.8-0.3,1.2l0,0l0,0c-0.3,0.2-0.4,0.5-0.3,0.9c-0.1,0.3-0.1,0.5-0.1,0.7c0.9,0.1,1.6-0.4,2.1-0.9 c2.2-2.1,4.5-4.1,6.4-6.5c1.7-2.1,3.9-4.1,4.5-7c0.3-1.9,0.7-3.8,0.5-5.7c-0.2-2.8,1.1-5.3,0.9-8c0-0.4,0.3-0.5,0.7-0.6 C345.1,247.9,345.1,245.9,344.9,243.8z"/><path class="st5" d="M240.4,175.8c-0.6-0.5-0.5-1.1-0.4-1.7c0.3-2.1-0.7-2.4-2.5-2.3c-4.3,0.1-8.5,0.4-12.8,1.3 c-3.4,0.8-6.7,1.5-10,2.5c-5.8,1.9-11.3,4.3-16.7,7.2c-1.2,0.7-2.4,1.5-3.7,2.1c-1.5,0.7-3.5,1.3-4.5,3v-0.1 c-1.7,0.5-5.2,2.9-4.4,4.5c0.1,0,0.1-0.1,0.3-0.1c-0.1,0-0.1,0.1-0.3,0.1c0.2,0.1,0.3,0.3,0.5,0.3c4.3-0.3,8.5-0.5,12.8-0.8 c2.4-0.2,4.9-0.5,7.3-0.8c0.9-0.1,14-3.6,15.4-4.2c4.2-1.9,8.6-3,12.5-5.5c1.6-1,3.5-1.7,4.5-3.5c0.6-0.9,1.3-1.3,2.3-1.3 C240.4,176.3,240.4,176,240.4,175.8z"/><g><path class="st6" d="M359.8,245.9c-0.3-4.3-1-8.4-1.3-12.6c-0.7-1.9-0.9-4-1.3-6c-0.2-0.8-0.5-1.5-0.7-2.3 c-0.1-0.7-0.2-1.5-0.5-2.3c-1.1-3.1-1.5-6.4-2.7-9.4c-2.2-5.3-4.3-10.6-6.5-16c-1.1-1.8-2.6-3.4-3.1-5.6c-0.7-1.1-1.4-2.2-2.1-3.3 c-1.5-0.8-1.9-2.5-2.5-3.7c-1.1-2.1-2.5-3.8-3.8-5.6c-1-1.4-1.3-2.7-1.3-4.1c-1.3,0.4-2.1-0.1-2.9-1.1c-4.1-5-8.4-9.8-13.7-13.8 c-0.3-0.3-0.5-0.6-0.5-1c-1.1,0.1-1.8-0.1-2.2-1.3c-0.5-1.4-2.3-1.5-3.1-2.8c-1.1-0.1-1.7-1.2-2.7-1.5c-2.8-2.1-5.7-3.9-8.6-5.7 c-2.5-1.5-4.9-3-7.6-4c-1.9-0.7-3.5-2.1-5.6-2.4c-0.7-0.1-1.6-0.4-1.8-1.4c-3.5-0.7-6.9-1.7-10.1-3.5c-2.6-0.5-5.3-0.7-7.8-1.7 c-5.3-0.8-10.5-1.7-15.8-2c-11.2-0.5-22.3,0.5-33.2,3.4c-21.8,5.8-40,17.3-55.1,33.9c-2.3,2.5-3.5,3.3-5.3,6.3 c0,0-1.6,2.1-1.7,2.3c-14.9,20.5-23.2,43.4-24.9,68.7c-0.8,12.2,0.2,24.3,2.9,36.2c0.9,4,1.9,8,3.3,11.8c0.3,1.1,1.7,5.6,2.1,6.3 c6.6,17.2,16.3,32.4,29.7,45.1c21.4,20.4,46.8,31.3,76.6,31.3l0,0c0,4.9,0.1,99.3,0.1,116.9c2.7,0.9,5.5,1.9,8.4,2.3 c0-17.6,0-35.3,0-53l0,0c0-5.3-0.1-57.3-0.1-66.3l0,0c2.4-0.3,4.7-0.6,7.1-0.9c0.7-0.5,1.4-0.3,2.1-0.4 c31.7-5.9,56.3-22.6,74.5-48.8c11.1-16,17.8-33.8,20.7-53C360.2,265.4,360.4,255.7,359.8,245.9z M355.5,269.6 c-5.1,40.1-24.1,71.5-59.7,91.8c-16,9.1-33.3,13.2-51.8,12.9c-26.5-0.5-49.5-10-69.3-27.5c-14.3-12.6-24.6-28.2-31.5-46 c-0.2-0.5-0.6-1.8-0.7-1.8l0,0c-2.8-8-4.9-16.1-6.2-24.5c-1.5-9.8-1.9-19.7-1-29.5c1.4-17.2,6.1-33.5,14.2-48.8 c3.2-5.9,7.6-12.4,11.6-17.8c15.1-18.8,33.9-32.1,57.3-38.3c26.1-6.9,51.4-4.3,75.2,8.3c29.5,15.6,48,40.2,57.5,71.9 C356.2,236.5,357.7,253,355.5,269.6z"/><path class="st6" d="M144.8,280.7c1.3,6.3,6.1,20,6.4,20.6c7.4,17.6,18.2,32.5,33.3,44.3c21.9,17.2,46.7,24.5,74.3,20.7 c27.5-3.7,49.6-17.4,66.4-39.2c21.7-28.4,28.5-60.6,21.7-95.5c-5.7-28.9-20.3-52.6-44.5-69.7c-24.1-17.1-50.8-22.3-79.6-15.5 c-21,4.9-38.3,16.2-52.4,32.4c-0.1,0.1-1.3,1.4-1.7,1.9c-5.6,6.7-10.2,13.9-14.2,21.6c-8.3,16.6-12.3,34.3-12.4,52.9 C142.1,263.8,143,272.3,144.8,280.7z M175.2,179.1c0.2-0.2,0.3-0.4,0.5-0.6c7.7-8,16.4-14.9,26.2-20.1c0.8-0.4,1.5-1.1,2.5-1.1 l0,0c0.1-0.1,0.3-0.3,0.4-0.5c3.9-1.9,7.8-3.7,12-4.7c0.3-0.1,6.7-2.5,10-2.8c0.5-0.1,0.9,0,1.2,0.5c9.3-3.3,18.9-2.7,28.5-1.7 c12.3,1.3,23.8,5.3,34.7,11.1c1.6,0.9,3.2,1.7,1.4,4.1c4.8-2.4,7.2,1.5,10,3.5c6.9,4.9,12.9,10.9,18.2,17.5 c10.1,12.6,17.2,26.9,21.1,42.6c0.3,1.5,1.7,5.7,1.7,5.7s1.2,6.6,1.3,11.1c0.1,2.1,0.2,4.1,0.3,6.2c1.1,29.3-7.1,55.5-25.9,78.1 c-13.9,16.7-31.4,27.8-52.6,32.9c-2.3,0.5-4.6,0.9-6.9,1.3c-9.6,1.7-19.2,1.6-28.7,0.1c-18.6-3-34.9-11-48.9-23.5 c-11.6-10.3-20.4-22.7-26.7-36.9c-0.3-0.6-0.6-1.2-0.9-1.7c-2.5-7.1-5-14.3-6.3-21.8C141.8,241.1,149.8,207.8,175.2,179.1z"/></g><g><path class="st3" d="M191.5,274.7c1.3,2.1,2.9,3.9,3.8,6.2c0.5,1.5,1.5,2.2,2.9,2.8c5.7,2.5,11.6,2.5,17.6,1.2 c10.5-2.4,18.8-8.6,26.7-15.5c0.6-0.5,0.7-0.9,0.3-1.7c-4.8-9.8-4.3-19.9-1.2-30.1c1.1-4.5,3.3-8.6,4.7-12.9l0,0 c0.3-0.6,0.7-1.2,1.1-1.9c1.5-3,3.2-5.9,5.1-8.6c3.4-5.8,18.2-22.4,28.2-29.3c0.5-0.3,1.1-0.7,1.6-1.1c0.2-0.3,0.4-0.6,0.8-0.7 l0.1-0.1c0.1-0.4,0.3-0.7-0.2-1c-5-2.7-10-5.3-15.6-6.5c-1.3-0.4-2.5-1.4-4-1.2c-0.9-0.3-1.9-0.5-2.8-0.7 c-5.1-1.3-10.4-1.7-15.6-2.3c-4.5-0.5-4.7-0.3-4.7,4.3c0,0.3,0.1,0.5,0.1,0.8c-0.3,2.6-1.7,4.7-3.7,6.3c-1.3,1.1-2.7,1.9-4.2,2.6 c-10.5,4.6-21.5,7.3-32.9,8.8c-0.9,0.1-1.9,0.3-2.8,0.3c-0.1,0.2-0.3,0.2-0.4,0c-3.9,0.4-7.8,0.5-11.6-0.1 c-1.7-0.3-3.4-0.5-4.9,1.1c-2.4,2.5-4.9,4.9-7.2,7.7c-2.5,3-4.5,6.3-6.7,9.5c-2.5,5.4-5.1,10.7-6.9,16.4 c-0.9,3.5-1.9,6.9-2.7,10.4c-1.2,5.1-1.3,10.2-1.4,15.4c0,1.4,1.2,1.2,1.7,1.9c3.5-0.1,6.7,1.2,10,1.9c0,0,0-0.1-0.1-0.1 c0,0.1,0,0.1,0.1,0.1c1.7,0.7,3.5,1.4,5.2,2.1c2.3,1.1,4.8,1.9,6.8,3.5c0.7,0.1,1.1,1.1,2,0.9c-0.1-1.4-0.1-1.4,0,0 c1.4,1.1,3.2,1.7,4.3,3.2c1.1,0.3,1.9,1.3,2.9,1.9C188.9,272,190.9,272.8,191.5,274.7z"/><path class="st3" d="M324.5,286.5c0.3-1.3,1-2.4,0.9-3.7c-0.8,0.3-1.6,0.5-2.4,0.8c-4.2,1.3-8.4,2.5-12.6,3.4 c-13,2.7-26.1,3.8-39.3,0.9c-10.5-2.3-19.6-7.1-25.8-16.2c-0.8-1.2-1.2-0.7-1.9-0.1c-5.1,4.8-10.6,9.1-16.8,12.4 c-9.1,4.7-18.6,6.6-28.6,2.7c-0.1,0-0.2,0.1-0.4,0.2c1.4,6.9,1,13.8-1.1,20.6c-1.5,5.5-3.7,10.7-6.7,15.6c0.1,0.9,0.9,1.3,1.5,1.7 c14.1,10,29.7,15.8,47.1,16.8c0.8,0.2,1.5,0.2,2.3,0.2c0.3,0,0.6,0,0.9,0c2.9,0.1,5.7,0,8.5-0.2c12.8-0.9,24.9-4.7,36.1-11 c12.4-6.9,22.4-16.4,30.4-28.1C317.4,301,324.3,287,324.5,286.5z"/></g><g><path class="st7" d="M252.7,218.1L252.7,218.1L252.7,218.1z"/><path class="st7" d="M332.2,245.6c-1.6-11.6-5.2-22.7-11-32.9c-5.3-9.2-11.8-17.3-20-23.9c-2.5-2.3-5.1-4.3-8-5.9 c-1.1-1.2-2.4-1.8-4.1-1.3c1.1-2.7-1-3.5-2.8-4.5c-5.6-3-11.4-5.5-17.6-7.3c-0.8-0.3-1.6-0.6-2.4-0.9c-11.4-3.1-22.9-3.8-34.5-2.3 c-10.6,1.3-20.7,4.5-30.1,9.6c-3.6,2.3-7.2,4.5-10.8,6.8c-2.1,1.7-3.8,4.1-6.7,4.7c-0.1-0.1-0.1-0.1-0.3-0.1 c-0.6,0.1-0.9,0.5-1.3,0.9c-3,2.9-6,5.8-8.7,9c-10.6,12.4-17.1,26.8-20.2,42.8c-1.1,5.9-1.5,11.8-1.7,17.8 c0.1,0.3,0.1,0.5,0.2,0.7l0,0c0,1.6,0,3.2,0.1,4.8h-0.1c0,0.3,0,0.6,0,0.9c0,0.7,0.1,1.3,0.1,1.9c0.1,0.3,0.3,0.6,0.3,0.9 c0.3,5.1,1.3,10.2,2.9,15c0.1,1.9,1.3,3.4,1.5,5.2c0.8,2,5.5,11.2,6,12c5.3,8.2,11,16,18.6,22.4c1.5,1.3,2.7,2.9,4.8,3.4 c0.9,0.2,1.1,0.9,0.7,1.7c-0.6,1.1-0.2,1.8,0.9,2.6c6.7,4.9,13.9,8.8,21.6,11.8c7.7,3,15.6,5,23.7,5.6c9.5,0.7,19.1,0.5,28.4-2.2 c7.5-1.5,14.5-4.3,21.1-7.9c7.4-4.1,14.3-8.8,20.2-15c4.3-4.5,9-8.8,11.8-14.6c0.8-1.5,2.3-2.9,2-4.9c-7.9,11.8-18,21.2-30.4,28.1 c-11.2,6.3-23.2,10-36.1,11c-2.9,0.2-5.7,0.3-8.5,0.2c-0.3,0-0.6,0-0.9,0c-0.8-0.1-1.6-0.1-2.3-0.2c-17.4-1-33-6.7-47.1-16.8 c-0.6-0.5-1.5-0.7-1.5-1.7l0,0c3-4.9,5.3-10,6.7-15.6c2.1-6.8,2.5-13.6,1.1-20.6c0.2-0.1,0.3-0.2,0.4-0.2c10,3.9,19.4,2,28.6-2.7 c6.3-3.3,11.7-7.6,16.8-12.4c0.7-0.7,1.1-1.1,1.9,0.1c6.3,9.1,15.3,13.9,25.8,16.2c13.2,2.9,26.3,1.8,39.3-0.9 c4.3-0.9,8.5-2.1,12.6-3.4c0.8-0.3,1.6-0.5,2.4-0.8c0.6,0.1,0.8-0.5,1.2-0.9c0.4-0.3,0.3-0.7,0.4-1.1c0.1-0.1,0.3-0.3,0.3-0.4 v-0.1c0.9-0.5,2.3-0.3,2.8-1.5c0.1-0.3,0.1-0.5,0.1-0.7c-0.1-0.3,0-0.7,0.3-0.9l0,0c-0.1-0.5-0.1-0.9,0.3-1.2 c0.6-3.7,1.1-7.4,1.7-11.1C333.1,258.4,332.9,252,332.2,245.6z M195.5,295c0.5,4.9,0.3,9.6-0.7,14.4c-0.7,3.6-2.6,6.7-3.9,10 c-0.9,1.5-3.1,2.1-2.8,4.4c0.4-0.2,0.4-0.2,0,0c-0.3,0.5-0.7,0.3-1,0c-7.7-6.7-13.9-14.5-18.9-23.4c-0.1-0.1-0.1-0.4-0.1-0.6 c-1.1-1.9-2.1-3.7-3.3-5.6c-0.4-1.4-1.8-4.3-1.9-4.5v-0.1c-0.1,0.1-0.1,0.1,0,0c-0.5-1-1.9-6.5-2.8-7.8l0,0 c0.2-2.1-0.5-3.9-1.3-5.8c-0.1-0.3-0.3-0.5-0.3-0.7c0.4-2.7-1.7-10.6-1.5-12c0.1-1.3,1.5-0.7,2.3-0.7c2.3,0,4.2,1.6,6.5,1.9 c1.3,0.2,2.4,1.3,3.8,1.3c1.7,1.5,4.1,1.4,5.9,2.7c0.5,0.3,5,3.1,6.1,3.9c0.7,0.5,4.1,3.4,4.1,3.4c0.1,0.1,1.5,1.6,1.5,1.6 c0.6,0,2.9,3.6,3.2,3.6c0-0.2,0-0.2,0,0c2,3.8,3.9,7.7,4.9,11.9c0.6,0.1,0.6,0.1,0,0C195.3,293.7,195.4,294.4,195.5,295z M242.5,269.4c-7.8,7-16.2,13.1-26.7,15.5c-6,1.4-11.8,1.3-17.6-1.2c-1.3-0.6-2.3-1.3-2.9-2.8c-0.9-2.3-2.5-4.1-3.8-6.2 c-0.6-1.9-5.2-6.1-6.4-6.4c-1.1-1.5-5.5-4-6.3-4.1c-2.1-1.6-4.5-2.4-6.8-3.5c-1.7-0.8-3.5-1.5-5.2-2.1c-3.3-0.7-6.5-1.9-10-1.9 c-0.5,0.2-0.5,0.2,0,0c-0.5-0.7-1.7-0.5-1.7-1.9c0.1-5.2,0.2-10.3,1.4-15.4c0.8-3.5,1.8-6.9,2.7-10.4l0,0c1.8-5.7,4.3-11,6.9-16.4 c-0.3-0.2-0.3-0.2,0,0c2.2-3.2,4.2-6.5,6.7-9.5c2.2-2.7,4.8-5.1,7.2-7.7c1.5-1.6,3.1-1.4,4.9-1.1c3.9,0.6,7.8,0.5,11.6,0.1 c0.1-0.1,0.3-0.1,0.4,0c0.9-0.1,1.9-0.3,2.8-0.3c11.3-1.6,22.4-4.3,32.9-8.8c1.5-0.7,2.9-1.5,4.2-2.6c2.1-1.6,3.4-3.7,3.7-6.3 c-1,0-1.7,0.3-2.3,1.3c-1,1.7-2.9,2.5-4.5,3.5c-3.9,2.5-8.4,3.6-12.5,5.5c-1.3,0.6-14.4,4.1-15.4,4.2c-2.4,0.3-4.8,0.6-7.3,0.8 c-4.3,0.3-8.5,0.5-12.8,0.8c-0.1,0-0.3-0.2-0.5-0.3c-0.8-1.5,2.8-3.9,4.4-4.5v0.1c1.1-1.7,3-2.3,4.5-3c1.3-0.6,2.5-1.4,3.7-2.1 c5.4-2.9,10.9-5.3,16.7-7.2c3.3-1.1,6.7-1.8,10-2.5c4.3-1,8.5-1.2,12.8-1.3c1.8-0.1,2.8,0.3,2.5,2.3c-0.1,0.5-0.2,1.2,0.4,1.7 c0.1-4.6,0.3-4.8,4.7-4.3c5.3,0.5,10.5,1,15.6,2.3c0.9,0.3,1.9,0.5,2.8,0.7c-0.1-0.1-0.1-0.1-0.1-0.1c0,0.1,0,0.1,0.1,0.1 c1.5-0.2,2.7,0.7,4,1.2c5.6,1.3,10.6,3.9,15.6,6.5c0.5,0.3,0.4,0.6,0.2,1c-0.1,0.1-0.7,0.4-0.9,0.7c-0.5,0.3-1.1,0.7-1.6,1.1 c-10.1,6.9-18.2,15.6-25.7,25.1c-0.5,1.3-2.4,3.9-2.5,4.1c-2,2.7-3.6,5.7-5.1,8.6c-0.3,0.7-0.7,1.3-1.1,1.9 c-1.4,4.4-3.7,8.4-4.7,12.9c-3.1,10.2-3.6,20.2,1.2,30.1C243.2,268.4,243.1,268.9,242.5,269.4z M326.9,261.3 c-0.3,5.4-1.1,10.8-2.3,16.1c-0.2,0.8-0.8,1.1-1.5,1.3c-4.5,1.2-9,2.5-13.6,3.3c-3.7,0.7-7,0.9-11.1,1.5c-2.9,0.3-3.5,0.3-6.3,0.6 c-4.3,0.3-8.6-0.3-12.8-0.9c-6.9-1.1-13.4-3-19.5-6.4c-5.5-3.1-9.8-7.3-13.2-12.6c-0.3-0.5-0.8-1.3-1.2-2.3 c-0.8-2.3-0.9-1.7-1.3-3.2c-0.3-0.9-0.5-1.9-0.7-2.8c-0.3-0.8-0.3-0.8,0,0c0-3.3-0.1-6.7,0.1-9.9c0.2-3.7,1-7.3,2.2-10.7 c0.8-2.3,1.3-4.7,2.3-7c1.2-2.6,2.3-5.3,3.5-7.8c0.3-1,0.7-1.8,1.5-2.4c0.1-1.3,1.5-1.9,1.6-3.2c3.1-4,6.1-8,9.7-11.7 c5-5.1,10.4-9.8,16.2-13.9c1.4-1,4.1-3.1,4.1-3.1l0,0c1.6-1.3,2.5-2.3,4.3-1.7c0.3,0.1,0.6,0.1,0.9,0.1l0,0 c1.8,1.5,3.9,2.8,5.3,4.8c1.7,0.3,2.4,2.1,3.9,2.8c0.1-0.5,0.1-0.5,0,0c7.7,7.3,13.9,15.5,18.7,24.9c2.7,5.4,4.9,11.1,6.5,17 C326.3,242.9,327.3,252.1,326.9,261.3z"/></g><path class="st5" d="M323.9,234c-1.6-5.9-3.7-11.6-6.5-17c-4.8-9.4-11-17.6-18.7-24.9c-1.5-1.5-7.4-6.1-9.2-7.6 c-0.3,0-0.7,0-0.9-0.1c-1.8-0.7-2.5,0.4-4.3,1.7c-1.3,1.1-2.7,2.1-4.1,3.1c-5.8,4.1-11.2,8.8-16.2,13.9c-3.5,3.6-6.6,7.7-9.7,11.7 c-0.1,1.3-1.5,1.9-1.6,3.2c-0.8,0.6-1.3,1.4-1.5,2.4c-1.2,2.6-2.3,5.3-3.5,7.8c-1.1,2.3-1.5,4.7-2.3,7c-1.1,3.5-2,7.1-2.2,10.7 c-0.1,3.3-0.1,6.7-0.1,9.9c0.3,0.9,0.5,1.9,0.7,2.8c0.5,1.5,2.3,5.1,2.5,5.5c3.5,5.3,7.7,9.5,13.2,12.6c6.1,3.4,12.6,5.3,19.5,6.4 c4.3,0.7,8.6,1.2,12.8,0.9c4.2-0.3,13.7-1.4,17.4-2.1c4.6-0.9,9.1-2.1,13.6-3.3c0.7-0.2,1.3-0.5,1.5-1.3c1.2-5.3,2.1-10.6,2.3-16.1 C327.3,252.1,326.3,242.9,323.9,234z M256.7,216.5L256.7,216.5L256.7,216.5L256.7,216.5z"/><path class="st5" d="M195.5,295c-0.1-0.7-0.1-1.3-0.1-2c-1-4.2-2.9-8-4.9-11.9c-0.3,0-3.5-4.9-4.3-4.9v-0.1 c-0.1-0.1-0.2-0.3-0.3-0.4c0,0-3.4-2.9-4.1-3.4c-1.1-0.8-2.1-1.7-3.2-2.5c-0.4-0.1-2.5-1.1-2.9-1.4c-1.8-1.3-4.1-1.3-5.9-2.7 c-1.4,0-2.5-1.1-3.8-1.3c-2.3-0.3-4.1-2-6.5-1.9c-0.8,0-2.1-0.6-2.3,0.7c-0.7,4.1,2.3,15.6,3.1,18.5c0.9,1.5,2.3,6.9,2.8,7.8 c0,0,1.5,3.1,1.9,4.5c1.1,1.9,3.3,6,3.3,6.1c5,8.8,11.2,16.7,18.9,23.4c0.3,0.3,0.7,0.5,1,0c-0.3-2.3,1.9-2.9,2.8-4.4 c1.3-3.3,3.3-6.4,3.9-10C195.7,304.7,196,299.9,195.5,295z"/><path class="st5" d="M439.1,162.6c2.1,1.5,4.3,3.1,6.3,4.6c1,0.7,2,1.5,2.9,2.9c-2.3-0.3-3.9-1.3-5.6-2c-2.1-0.8-5.1,0.3-6.5,2 c-3.4,4.2-4.9,9.2-7.3,13.9c-2.1,4-3.7,8.2-5.2,12.5c-0.5,1.5-0.4,3.4-0.8,5.1c-1.1,4.7-3.4,8.6-6.5,12.2c-2.8,3.3-6.1,6.1-9.7,8.4 c-3.1,2-6.2,3.9-9.6,5.5c-3.9,1.7-7.7,3.3-11.8,4.3c-3.3,0.8-6.9,1-10.3-0.5c-2.9-1.3-6-1-9-0.2c-2.3,0.6-5.3,1.8-7.4,3 c0-0.7,0-0.5-0.1-1.1c-0.7-1.9-0.9-4-1.3-6c0.1-0.8,0.7-1.2,1.2-1.8c2.1-2.6,4.8-4.6,7.3-6.8c3.3-2.9,6.9-5.1,10.9-6.8 c6.7-2.7,13.4-4.9,19.7-8.4c1.5-0.9,3.1-1.9,4.9-2.2c2.1,1.4,3.7,1.3,5.1-0.5c0.9-1.1,1.9-1.8,2.9-2.7c2-1.7,4-3.3,5.9-5 c1.3-1.1,2.5-2.4,2.7-4.3c0.2-0.5,0.7-0.7,1.1-1.1c3.6-3.8,6.2-8,4.7-13.5c1.3-0.5,1.5-1.6,1.5-2.7c0-1.7,0.8-3.1,1.3-4.7 c0.4-1.3,1.2-2.5,1.2-3.9C430.1,159.5,435.4,159.7,439.1,162.6z"/><path class="st4" d="M375.1,138.2c0.9,3.5-1,5.9-3.1,8.1c-1.3,1.4-2,3-1.2,4.9c0.6,1.5,1.5,2.3,3.2,2.2c1.8-0.1,3.6,0.2,5.3,0.5 c0.3,0.1,0.8,0.1,0.9,0.6c0.1,0.4-0.3,0.7-0.5,0.7c-2.5,0.7-4.9,1.5-7.4,0.6c-2.7-0.9-3.7-2.8-2.8-5.5c1.6-4.7-0.7-7.7-6.7-7.5 c-0.7,0-1.2-0.3-1.7-0.7c-1.2-0.6-2.7-0.7-4.1-0.7c-5.8-0.1-11.6-0.1-17.4-0.1c-0.2,0-0.3,0.2-0.5,0.3c-2.2,0.1-4.3,0.3-5.9,2 c-2.5-0.1-5.1,0-7.7,0.3c0.5-1.2,1.7-1.9,2.6-2.7c1.1-0.9,1.9-2.1,2.7-3.2c1.1-0.9,2.2-1.7,2.9-3.1c2.7-3.2,6.1-5.1,9.9-6.5 c4.7-0.7,9.2-0.7,13.8,0.4c5.9,1.4,11.4,3.3,16,7.5C374.1,137,374.6,137.6,375.1,138.2z"/><path class="st5" d="M412.4,155.8c0.1,1.6-0.6,3.1-1,4.6c-0.4,1.7-0.7,3.3-0.7,5c-1.8,1.9-1.9,4.1-1.5,6.5c-1.6,1-3.3,1.2-5.1,1.1 c-4.8-0.4-9.4-1.5-13.4-4.3c-2.1-1.5-4.3-2.7-5.9-4.8c1.8-0.2,3.6,0.5,5.5,0c3.5-0.8,9.6-6.2,10.3-9.6c0.5-2.5-1.1-6.9-3.1-7.8 c-1.5-0.6-3.2-0.5-4.7-1.3c0.5-0.7,0.9-1.4,1.3-2.1c3.3-0.2,6.2,0.6,8.7,2.7c0.3,0.3,0.7,0.3,1.1,0.5c3.3,0.7,5.6,2.3,7.2,5.6 C411.7,153.1,412.5,154.2,412.4,155.8z"/><path class="st3" d="M356.6,224.9c-0.1-0.7-0.2-1.5-0.5-2.3c-1.1-3.1-1.5-6.4-2.7-9.4c1.1-0.7,1.7-1.7,2.5-2.6 c2.5-2.6,5.1-4.9,8.7-5.7c2.3-0.5,4.6-0.7,6.8-1.3c3.3-0.9,6.9-1.5,8.9-4.5c1.5-2,2.6-4,5.2-4.7c-4.4-1.4-8.7-1.9-13.2-1.5 c-2.3,0.3-4.3,1.2-6.6,1.3c1.6-2.9,4.1-4.5,7.2-5.6c5.4-2,10.9-1.6,16.5-1.5c3.4,0.1,6.7,0.7,9.8,2.1c2.7,1.3,5.7,1.3,8.6,0.9 c3.4-0.5,6.8-1,10.2-1.5c-0.3,1.8-1.5,3.1-2.7,4.3c-1.9,1.7-3.9,3.3-5.9,5c-1.3,0.1-2.7-0.6-3.9,0.1c-0.3-0.5-0.8-0.3-1.3-0.2 c-2.9,0.4-5.7,0.9-8.6,1.7c-11.6,3.2-22.2,8.4-31.1,16.8C361.4,219,359.1,222.1,356.6,224.9z"/><path class="st4" d="M417.9,188.9c-3.4,0.5-6.8,1-10.2,1.5c-2.9,0.4-5.9,0.3-8.6-0.9c-3.1-1.4-6.4-2.1-9.8-2.1 c-5.5-0.1-11.1-0.5-16.5,1.5c-3,1.1-5.6,2.7-7.2,5.6c-1.4,1-2.9,1.8-4.7,2.3c-1.3-0.5-2.8,0.3-4.1-0.6c0.3-0.8,1.1-0.9,1.7-1.3 c3.3-1.9,6.5-3.7,9.3-6.4c2.2-2.1,4.9-3.3,7.9-3.9c2.1-0.5,4.1-0.3,6.1-0.5c2.8,0,5.6,0.5,8.3,1.1c1.6,0.3,3.2,0.5,4.9,0.7 c6.6,1.4,13.2,1.6,19.9,0.7c3.6-0.5,7.7-6.1,7.7-9.2c0-1.4,0-2.8,0-4.3c0.6,0.3,0.5,0.9,0.8,1.3c1.5,5.6-1.1,9.7-4.7,13.5 C418.6,188.1,418.1,188.3,417.9,188.9z"/><path class="st4" d="M356.6,224.9c2.5-2.9,4.9-5.9,7.7-8.6c8.9-8.3,19.4-13.5,31.1-16.8c2.8-0.8,5.7-1.3,8.6-1.7 c0.5-0.1,0.9-0.3,1.3,0.2c-0.9,1.6-3.1,1.7-4.1,3.1c-1.8,0.3-3.3,1.4-4.9,2.2c-6.3,3.5-13.1,5.8-19.7,8.4 c-4.1,1.7-7.7,3.9-10.9,6.8c-2.5,2.2-5.1,4.2-7.3,6.8c-0.5,0.5-1.1,1-1.2,1.8C357,226.5,356.8,225.7,356.6,224.9z"/><path class="st3" d="M309.1,153.3c-2.8-2.1-5.7-3.9-8.6-5.7c-2.5-1.5-4.9-3-7.6-4c-1.9-0.7-3.5-2.1-5.6-2.4 c-0.7-0.1-1.6-0.4-1.8-1.4c2.1,0.3,4.1,1.1,6.1,1.9c5.5,2.4,11.1,4.1,17.1,4.1c5.8,0.2,11.5-0.3,17.1-1.7c2.5-0.3,5.1-0.4,7.7-0.3 c2.1,0.7,4.1,1.3,6.4,1.3c4.7,0.7,9.3-0.4,14.1-0.2c-4.3,1.2-8.6,2.3-12.9,3.5c-3.1,0.7-6.3,1.2-9.4,2.3c-1.8,0.1-3.6,0.4-5.3,1 c-0.1,0-0.3,0-0.4,0c-2.3-0.1-4.7,0.7-7.1,0.1c-3.1-0.9-6.1-0.1-9.1,0.8C309.2,152.8,309.1,153,309.1,153.3z"/><path class="st4" d="M308.6,145.8c-6.1,0-11.6-1.7-17.1-4.1c-1.9-0.9-3.9-1.6-6.1-1.9c-3.5-0.7-6.9-1.7-10.1-3.5 c3.4-0.1,6.7,1,9.9,1.8C293.2,140.3,301,142.5,308.6,145.8z"/><path class="st5" d="M333.8,135.2c-0.7,1.3-1.7,2.2-2.9,3.1c-0.7-1.7-0.9-3.5-0.8-5.3c0.1-0.5,0-1.2,0.6-1.3c0.7-0.2,0.7,0.5,1,1 C332.4,133.6,332.2,135,333.8,135.2z"/><path class="st4" d="M384.8,163.8c1.5,2.1,3.8,3.4,5.9,4.8c4,2.8,8.6,3.9,13.4,4.3c1.8,0.1,3.6-0.1,5.1-1.1 c0.3-0.1,0.5-0.1,0.7-0.1c1.2,0.3,0.5,1,0.3,1.5c-0.9,1.9-2.6,3.1-4.3,4.2c-2.1,0.9-4.3,1.3-6.5,1.8c-1.6,0.3-3.4,0.3-4.4-1 c-3.1-3.8-7-6.5-11-8.9c-8-4.7-16.3-6.7-24.7-0.8c-1.3-0.4-2.4-1.1-3.5-1.9c-2.5-1.7-4.5-4.1-7.2-5.6c-1.5-0.9-3.1-1.7-4.7-2.6 c0.8-1.1,2.1-1.1,3.2-1.4c4.3-1.5,8.7-2.6,13.2-2.7c4.4-0.1,8.6,1.3,12.6,3.2c3.4,1.5,6.6,3.5,9.6,5.5 C383.4,163.4,384.1,163.8,384.8,163.8z"/><path class="st3" d="M344.1,158.5c1.5,0.9,3.1,1.7,4.7,2.6c2.7,1.5,4.7,3.9,7.2,5.6c1.1,0.7,2.2,1.5,3.5,1.9c4,2.3,8.4,3.2,12.8,4 c4.9,0.9,9.8,1.3,14.8,1.5c-3.9,1.9-7.9,2.5-12.2,2.5c-4.7-0.1-9-1.7-13.6-2.4c0.1-0.2,0.8-0.4,0.4-0.5c-1.7-0.4-3.3-0.6-5-0.9 c-0.1,0-0.3,0-0.4-0.1c-0.3,0-0.5,0-0.8,0c-0.3-0.1-0.5-0.3-0.7-0.3c-6.3-1.7-12.6-3.7-18.7-5.9c-6.4-2.3-11.9-6.7-18.9-7.4 c-1.1,0.1-1.8-0.1-2.2-1.3c-0.5-1.4-2.3-1.5-3.1-2.8c1.1-0.7,2.3-0.8,3.6-0.7c3.1,0.1,6.2,0.2,9.2,0.3c5.5,0.7,11,1.5,16.4,3.1 C342,157.9,342.9,158.5,344.1,158.5z"/><path class="st5" d="M341,157.6c-5.3-1.6-10.8-2.5-16.4-3.1c0.1-1,1.2-1.6,1.1-2.7c0.1,0,0.3,0,0.4,0c1.6,1.6,4.5,1.1,5.3-1 c3.1-1.1,6.3-1.7,9.4-2.3C341.5,151.5,342.2,154.5,341,157.6z"/><path class="st5" d="M339.8,145.1c-2.2,0-4.3-0.7-6.4-1.3c1.6-1.8,3.7-1.9,5.9-2C339.4,142.9,340,144,339.8,145.1z"/><path class="st8" d="M351.4,220.4c-9.4-31.7-28-56.3-57.5-71.9c-23.9-12.6-49.2-15.2-75.2-8.3c-23.4,6.3-42.2,19.6-57.3,38.3 c-0.3,0.3-0.5,0.5-0.7,0.9c-4,5.4-7.7,11-10.8,16.9c-8.1,15.2-12.8,31.5-14.2,48.8c-0.8,9.9-0.5,19.8,1,29.5 c1.3,8.4,3.4,16.5,6.2,24.5c0.1,0,0.5,1.3,0.7,1.8c6.9,17.8,17.2,33.3,31.5,46c19.7,17.5,42.6,27,69.3,27.5 c18.4,0.3,35.9-3.7,51.8-12.9c35.5-20.4,54.5-51.8,59.7-91.8C357.7,253,356.2,236.5,351.4,220.4z M325.1,327.1 c-16.7,21.9-38.8,35.5-66.4,39.2c-27.6,3.7-52.4-3.6-74.3-20.7c-15-11.8-25.9-26.7-33.3-44.3c-0.3-0.6-0.4-1.3-0.6-1.9 c-0.1-0.1-0.3-0.3-0.4-0.4c-2-6.1-4.1-12.1-5.4-18.4c-1.8-8.4-2.7-16.9-2.7-25.5c0.1-18.6,4.1-36.3,12.4-52.9 c3.9-7.8,8.6-15,14.2-21.6c0.4-0.5,33.1-29.3,54.1-34.3c28.7-6.8,55.5-1.6,79.6,15.5c24.1,17.2,38.8,40.8,44.5,69.7 C353.7,266.5,346.8,298.7,325.1,327.1z"/><path class="st9" d="M261.5,394.5L261.5,394.5c0-2.1,0-4.1,0-6.2v-0.1l0,0c0-3.7,0-7.3,0-11c-2.4,0.3-4.7,0.6-7.1,0.9 c0,5.5,0.1,101.6,0.1,119.2c2.6,1.2,4.9,0.4,7.1-1C261.5,480,261.5,419,261.5,394.5z"/><path class="st5" d="M361.1,174c4.6,0.7,9,2.3,13.6,2.4c4.3,0.1,8.4-0.5,12.2-2.5c-5-0.3-9.9-0.6-14.8-1.5c-4.5-0.8-8.8-1.8-12.8-4 c8.4-5.9,16.7-3.9,24.7,0.8c4.1,2.4,8,5.1,11,8.9c1,1.3,2.8,1.3,4.4,1c2.2-0.5,4.4-0.9,6.5-1.8c-0.1,2-1.5,3.1-2.9,3.9 c-2.1,1.3-4.1,3.2-6.8,3.3c-0.7,0-0.9,0.7-1.2,1.2c-1.6-0.3-3.3-0.4-4.9-0.7c-2.7-0.6-5.5-1.1-8.3-1.1c0-0.3,0.1-0.6-0.1-0.7 c-2.9-2.8-6.5-4.5-10.5-4c-4.4,0.5-8.4,2.4-12.6,3.9c-1.9,0.7-3.8,1.7-5.4,3.1c-2.3,2.1-3.3,4.9-4.9,7.5c-1.6-0.7-3.2-1.3-4.8-2 c-0.7-1.1-1.4-2.2-2.1-3.3c4.3-6.3,9.3-11.6,16.6-14.6C359.2,173.7,360.1,173.8,361.1,174z"/><path class="st2" d="M361,196.7c1.7-0.5,3.2-1.3,4.7-2.3c2.3-0.1,4.3-1.1,6.6-1.3c4.5-0.5,8.8,0.1,13.2,1.5 c-2.6,0.7-3.8,2.7-5.2,4.7c-2.1,2.9-5.7,3.5-8.9,4.5c-2.3,0.6-4.6,0.8-6.8,1.3c-3.6,0.9-6.3,3.1-8.7,5.7c-0.8,0.9-1.4,1.9-2.5,2.6 c-2.2-5.3-4.3-10.6-6.5-16c1.4-0.2,2.2,0.9,3.1,1.6c1.1,1,2.4,1.5,3.8,1.2C356.4,199.6,359,198.8,361,196.7z"/><path class="st3" d="M358.2,173.9c-7.2,3-12.2,8.3-16.6,14.6c-1.5-0.8-1.9-2.5-2.5-3.7c-1.1-2.1-2.5-3.8-3.8-5.6 c-1-1.4-1.3-2.7-1.3-4.1c3.6-1.5,7.1-3.6,11.3-2.5c1.4,0.3,2.8,0.7,4.3,0.5c0.3,0.4,2.8,0.3,3.6,0.3c0.1,0,0.3,0,0.4,0 c0.4,0,0.8,0,1.2,0C355.9,174.1,357.1,173.5,358.2,173.9z"/><path class="st2" d="M361.5,173.5c-1.7-0.4-5-0.9-5.4-0.9c-0.3,0-0.5,0-0.8,0c-0.3-0.1-0.5-0.3-0.7-0.3c-6.3-1.7-12.6-3.7-18.7-5.9 c-6.4-2.3-11.9-6.7-18.9-7.4c0,0.5,0.2,0.7,0.5,1c5.2,4,9.5,8.8,13.7,13.8c0.9,1.1,1.7,1.5,2.9,1.1c3.6-1.5,7.1-3.6,11.3-2.5 c1.4,0.3,2.8,0.7,4.3,0.5c0.3,0.1,0.9,0.3,1.5,0.3c0.8,0.1,1.3,0,2.1,0c0.1,0,0.3,0,0.4,0c0.4,0,0.8,0,1.2,0c1,0.8,2.2,0.1,3.3,0.5 c1-0.2,1.9-0.1,2.9,0.1C361.2,173.8,361.9,173.6,361.5,173.5z"/><path class="st3" d="M361,196.7c-2,2.1-4.7,2.9-7.3,3.4c-1.4,0.3-2.7-0.2-3.8-1.2c-0.9-0.7-1.7-1.8-3.1-1.6 c-1.1-1.8-2.6-3.4-3.1-5.6c1.6,0.7,3.2,1.3,4.8,2c2.7,1.1,5.3,2.5,8.4,2.4C358.2,197,359.6,196.2,361,196.7z"/><path class="st4" d="M325.8,151.8c0.1,1.1-1,1.7-1.1,2.7c-3.1-0.1-6.2-0.2-9.2-0.3c-1.3-0.1-2.5,0.1-3.6,0.7 c-1.1-0.1-1.7-1.2-2.7-1.5c0-0.3,0.2-0.6,0.5-0.7c3-0.9,6-1.7,9.1-0.8C321.1,152.5,323.4,151.7,325.8,151.8z"/></g><g id="Ebene_3"><path class="st10" d="M446.1,140.1c-0.7-3.5-2.1-6.9-3.4-10.3c-0.3-0.7-0.6-1.3-0.2-2.1c1.8-2.9,1.5-6.4,2.1-9.6 c0.3-1.8,0.7-3.7,1-5.5c0.7-4.4-0.7-8.2-2.6-12c-2.3-4.5-6.1-7.6-9.8-10.7c-1.8-1.5-4-2.7-5.6-4.5c-2.8-1.5-5.6-2.9-8.4-4.3 c-3.9-1.1-7.7-2.6-11.8-2.8c-1.6-0.1-3.3,0.4-4.9,0.6c-1.5,0.2-2.9,0.4-3.7-1.3c-4.9-6.3-11.5-10.3-18.8-13.3 c-6.7-2.7-13.5-4.9-20.3-7.1c-0.7-0.2-1.4-0.4-2.1-0.5c-2.7-0.5-2.7-0.4-2.7-3.3c0-9.3,0-18.6,0-27.9c0-6.8-5.1-13.4-11.8-14.8 c-4.1-0.9-8.4-2-12.6-2.1c-3.2-0.1-5.9-1.1-8.8-2.2c-3.7-1.4-7.7-1.5-11.5-2.3c-6.1-1.3-12.2-1.9-18.4-2.1 c-2.5-0.1-4.9-0.1-7.2,1.1c-0.7,0.4-1.2,0.2-1.7-0.3c-1.7-1.3-3.5-2.3-5.6-2.5c-2.6,0-5.1,0-7.7,0c-0.5,0-1.1,0.1-1.5-0.4 c-1.9,0-3.7,0-5.6,0c-4,2.3-8,1.1-12,0c-5.2,0-10.4,0-15.6,0c-0.3,0.8-1.1,0.6-1.7,0.7c-4.1,0.3-8.3,0.6-12.4,1 c-7.1,0.7-14.1,1.6-21.1,2.7c-0.1,0-0.1,0-0.2,0.1c-4.5,2.6-9.6,1.9-14.5,2.7c-6.8,1.1-13.6,2.7-20.1,4.8c-6.2,2-9.8,6.5-10.7,13 c0,0-0.1,0.3-0.1,0.5c0,10.8,0,21.6,0,32.3c0,1.3-1.1,2.1-1.7,3.1c-0.7,1.2-1.5,2.4-2.3,3.7c-1.2-2.2-2.8-3.9-5.3-4.4 c-2.5-0.5-4.7,0.1-7,1.1c-5.2,2.3-10.4,4.7-15.6,7c-2.7,1.2-5.1,2.9-6.9,5.3c-0.5,0.7-1.1,1.1-2,1c-4.1-0.3-8,1-11.7,2.7 c-2.7,1.6-5.6,2.9-8.4,4C91,83,88,83.8,85.8,85.6c-2.3,1.3-4.6,2.7-7,3.8c-8.1,4-13.4,10.2-14.9,19.2c-0.1,0.6-0.1,1.2-0.1,1.8 c0,17.4,0,34.9,0,52.3c0,1.8,0.1,3.6,1.2,5.1c2,2.7,5.1,3.1,8.5,0.9c6.9-4.5,14.3-8.2,21.6-12.2c3.5-1.9,7.3-3.6,10.6-5.9 c2.4-1.6,4.7-3.5,6.9-5.3c0.7-0.5,1.3-1.1,2.1-0.9c3.9,1.3,7.3-0.5,10.6-1.9c6.8-2.7,13.7-5.1,20.7-7.5c4.1-1.4,8.9-1.6,12.3-4.8 c2.7-2.5,5.3-3.3,9-2.8c6.5,0.9,12.9-0.4,19.2-2c5.9-1.5,11.7-3.3,16.7-7c0.7-0.5,1.5-1.1,2.3-0.5c4.1,3,8.7,2.1,13.2,1.3 c3-0.5,6.1-0.3,9.1-0.7c6.2-0.9,12.6-1,18.8-1.1c4.3,0,7.7-1.2,10.6-4.3c0.1-0.1,0.2-0.2,0.3-0.3c0.9-0.6,0.7-2.3,2-2.2 c0.9,0.1,1.7,0.9,2.5,1.5c1.8,1.3,3.7,2.6,5.7,3.5c1.2-0.1,2.1,0.7,3.1,1.1c5.9,1.7,11.8,3.3,18.1,3.5c3.6,0.1,7.1,0.1,10.6-0.3 c0.9-0.1,2,0.1,2.9,0.3c5.1,1.2,10.2,2.3,15.3,3.7c3.3,0.9,6.6,0,9-2.8c0.9-1,1.4-1.1,2,0.1c1.8,3.7,5.3,5.3,8.6,7 c1.5,0.7,37.8,10.1,38.3,10.6c1.7-0.1,3.3,0.5,4.9,0.4c4.5-0.1,7.1-2.7,7.1-7.3c0-1.3,0-2.5,0-3.8c0-0.7,0.3-1.4,1.1-1.3 c0.7,0.1,1.3,0.5,1.3,1.3c0,0.7,0.1,1.3-0.1,2c-1.1,5.3,1.3,9.4,4.5,13.4c1.9,1.2,17.1,12.6,18.4,12.8c4.5,2.2,8.8,4.4,13.6,5.9 c8.8,1.7,14.8-1.4,15.8-2.3c2.5-2.4,3.6-5.3,4.3-8.7C447.4,147.6,446.8,143.8,446.1,140.1z"/><g id="Ebene_2"><path class="st2" d="M207.8,75.2c0.1-6.1,0-12.1,0.2-18.2c0.1-1.3-0.4-1.5-1.6-1.3c-5,1.1-10,2.3-15,3.3c-1.5,0.3-2,1-2,2.5 c0.1,10.6,0.1,21.2,0.1,31.7c0,4.4-0.7,5.3-5,6.3c-3.3,0.7-4.6-0.3-4.6-3.7c0-11.2-0.1-22.5,0-33.7c0-1.4-0.3-1.8-1.7-1.3 c-5,1.7-10,3.3-15,4.7c-1.3,0.4-1.6,1-1.6,2.3c0.1,11.1,0,22.2,0.1,33.3c0,1.5,0.2,3.1,0.5,4.7c1.1,6.4,6.2,10.7,12.4,10.4 c5.5-0.3,10.9-1.1,16.2-2.7c11.3-3.6,16.8-11,17-22.8C207.8,85.6,207.8,80.4,207.8,75.2z"/><path class="st2" d="M93.4,146.4c4.4-2.3,9-4.3,13-7.3c5.5-4.2,10.1-9,11.1-16.2c0.2-1.6,0.3-3.1,0.1-4.5c0-0.1,0-0.1-0.1-0.2 c-0.1-0.3-0.1-0.5-0.1-0.8c-0.1-0.2-0.1-0.4-0.1-0.6c0-0.1-0.1-0.3-0.1-0.3c-0.9-3.1-3.3-5.2-7.5-5.5c-0.1,0-0.1-0.2-0.1-0.3 c5-5.3,8-11.2,6.3-18.8c-1-4.2-4.2-6.3-8.4-5.4c-2.4,0.5-4.6,1.3-6.7,2.4c-8.1,4.1-16.1,8.4-23.9,13c-1.3,0.7-1.7,1.6-1.7,3 c0,15.8,0,31.7,0,47.5l0,0c0,1.3,0,2.6,0,3.9c0.1,0,0.2,0,0.3,0c0.4-0.1,0.7-0.2,1.1-0.4c0.2-0.1,0.4-0.3,0.6-0.4 C82.3,152.5,87.8,149.3,93.4,146.4z M91.8,110.1c0-0.2,0-0.4,0-0.6c0-4.5,0-4.5,4.2-6.1c1.3-0.5,2.3-0.5,2.9,0.3 c0.4,0.4,0.6,1.1,0.7,1.9c0.3,3.9-1.8,6.2-5,7.9c-2.7,1.5-2.7,1.5-2.7-1.6C91.8,111.3,91.8,110.7,91.8,110.1z M91.6,125.5 c0-0.4,0.1-0.8,0.5-1c1.6-0.9,3.2-1.9,5-2.4l0,0c1.1-0.3,1.8,0.2,2.3,1.1c0.1,0.1,0.1,0.3,0.2,0.5c0.3,0.6,0.4,1.3,0.5,1.9 c0,0.1,0,0.3,0,0.5c0,0.5-0.1,0.9-0.1,1.3c-0.3,1.1-0.7,2.1-1.4,3c-1.6,2.4-4.1,3.6-6.9,4.9C91.6,131.8,91.6,128.7,91.6,125.5z"/><path class="st2" d="M339.8,64.5c-0.3-1.1-0.9-1.7-2-1.9c-5.8-1.2-11.6-2.5-17.3-3.8c-1.4-0.3-2,0-2.5,1.3 c-3.6,9.6-7.3,19.1-10.9,28.7c-2.3,6.1-4.6,12-6.9,18.1c-0.2,0.7-1,1.5,0.5,1.8c5.7,1.3,11.2,2.7,16.8,4.1c0.9,0.2,1.1,0,1.3-0.9 c0.5-2.2,1.1-4.4,1.7-6.6c0.2-0.8,0.4-1.3,1.5-1c4.5,1.1,9.2,2.1,13.8,3c0.9,0.2,1.3,0.6,1.5,1.5c0.5,2.5,1.1,4.9,1.7,7.4 c0.1,0.6,0.2,1.3,1.1,1.4c5.5,0.9,11,1.9,16.4,2.9c1.6,0.2,0.7-0.7,0.5-1.3C351.4,101.1,345.6,82.8,339.8,64.5z M333,93.7 c-2.7-0.6-5.5-1.1-8.2-1.7c-0.1,0-0.3-0.1-0.3-0.1c0,0-0.1,0-0.1-0.1c-0.1,0-0.1-0.1-0.1-0.1c-0.1-0.1-0.2-0.3-0.1-0.7 c1.5-5.5,3.1-11,4.7-16.6c0.1,0,0.2,0,0.3,0c1.5,6.1,3.1,12.2,4.6,18.3C334,93.5,333.9,93.9,333,93.7z"/><path class="st2" d="M216.2,108.6c1.8-0.3,3.7-0.4,5.5-0.6c8.7-0.8,17.4-1.4,26.1-1.5c0.9,0,1.5-0.2,1.7-1.2c1-4.1,2.1-8,3.2-12.1 c0.1-0.4,0.1-0.7,0.1-0.9c-0.1-0.2-0.5-0.3-1-0.4l0,0c-1.5,0.1-2.9,0.1-4.3,0.2c-4.3,0.1-8.6,0.3-13,0.4c-0.1,0-0.1,0-0.1,0 c-0.1,0-0.3,0.1-0.4,0.1c-0.1,0-0.2,0.1-0.3,0.1c-0.1,0-0.3,0-0.4,0c-0.3-0.1-0.4-0.3-0.3-0.9c0.3-1.8-1.2-4,0.9-5.5 c0.1-0.1,0.4,0,0.6,0c1.6-0.1,3.2-0.2,4.8-0.3c1.6-0.1,3.2-0.1,4.8-0.2c1.1,0,1.5-0.3,1.6-1.2c0-0.1,0-0.3,0-0.4 c-0.1-3.3-0.1-6.7,0-10c0-0.3,0-0.5-0.1-0.7c-0.1-0.2-0.1-0.4-0.3-0.5c-0.2-0.2-0.5-0.3-0.9-0.3c-0.1,0-0.3,0-0.4,0 c-1.2,0.1-2.5,0.1-3.7,0.1c-1.3,0.1-2.5,0.1-3.7,0.2c-3.1,0.3-3.7,0.3-3.8-1.7c0-0.3,0-0.7-0.1-1.1c0-0.2,0-0.4,0-0.7 c0-1.5,0.6-1.7,1.9-1.7c5.2-0.1,10.4-0.5,15.6-0.6c1.4,0,1.6-0.4,1.3-1.7c-0.9-3.7-1.8-7.3-2.6-11c-0.3-1.3-0.7-1.7-2.1-1.7 c-2.5,0.1-5.1,0.1-7.7,0.3c-1.3,0.1-2.5,0.1-3.8,0.2c-2.5,0.1-5.1,0.3-7.6,0.5c-3.8,0.3-7.6,0.6-11.4,1c-1.5,0.2-2,0.8-2,2.4 c0,2.1,0.1,4.1,0.1,6.2c0,2.1,0,4.1,0,6.2s0,4.1,0,6.2s0,4.1,0,6.2l0,0l0,0c0.1,5.2,0.1,10.4,0,15.5c0,3.2,0,6.5,0,9.6 c0,0.5,0.1,0.9,0.2,1.1C214.9,108.6,215.4,108.8,216.2,108.6z"/><path class="st2" d="M379.6,113.4c2.3,1.1,4.7,1.7,7.2,2.3c4.5,1,12-1.5,13.1-8c0.2-1.3,0.3-2.7,0.4-4c0.1-9.4-4.7-18.9-12.8-24 l0,0c-3.4-2.2-7.1-3.7-10.8-5.1c-5.5-2-11-4-16.6-5.7c-0.1,0.3-0.2,0.4-0.2,0.6c0,13,0.1,26.1,0,39.2c0,4.4,0,8.7,0,13.1 c0,1.2,0.6,1.4,1.5,1.7c4.9,1.3,9.8,2.7,14.6,4.1c1.5,0.5,1.7,0.1,1.7-1.3c-0.1-3.9,0-7.7-0.1-11.5c0,0,0,0,0-0.1l0,0 C377.7,113.4,377.8,112.6,379.6,113.4z M377.7,97c0-1,0-2,0-3c0-1.5,0-3.1,0-4.8l0,0c0-0.3,0.1-0.5,0.1-0.7c0.1-0.1,0.4-0.1,0.8,0 l0,0c4.1,1,6.8,4.1,6.9,8.4c0.1,3.3-1.7,4.8-4.9,3.9C377.7,100,377.7,100,377.7,97L377.7,97L377.7,97z"/><path class="st2" d="M297.1,108.2c0.6-4.7,1.2-9.3,1.9-14c0.2-1.3,0-1.6-1.4-1.2c-5.5,1.6-10.8,0.5-16-1.3 c-2.1-0.7-3.7-2.1-4.2-4.4c-0.3-1.7-0.7-3.4-0.9-5.1c-0.1-0.5-0.1-0.9-0.1-1.4c-0.1-6.2,2.4-10.6,9.8-11.5 c4.3-0.6,8.3,0.4,12.4,2.7c-0.9-5.8-1.8-11.2-2.7-16.7c-0.1-0.7-0.5-1-1.1-1.1c-4.1-0.9-8.2-1.5-12.4-1.4 c-1.4,0.1-2.8,0.1-4.3,0.4c-8.5,1.3-19,9.8-20.9,21c-2.6,15,5.9,26.5,15.9,31.4c5.7,2.8,12,3.9,18.4,3.9c1.5,0,2.9,0,4.3-0.1 C296.7,109.4,297,109,297.1,108.2z"/><path class="st2" d="M402.8,138.8c2.7,1.8,5.3,3.8,8.1,5.5c4.8,2.8,9.6,5.6,15.2,6.9c6.8,1.7,11.3-1.8,11.2-8.8 c0.1-6.9-3-12.7-7.1-18c-3.3-4.4-7.2-8.3-10.8-12.4c-0.7-0.8-1.5-1.8-0.7-2.9c0.8-1.1,2.1-0.7,3.1-0.3c0.3,0.1,0.6,0.3,0.9,0.5 c3.3,1.6,6.2,3.9,9,6.2c0.7,0.7,1.5,1.3,2.5,2.1c0.3-2.3,0.5-4.3,0.9-6.3c0.9-5.2,1.1-6.7-0.9-8.8c-0.8-0.8-1.9-1.7-3.5-2.9 c-5.8-4.5-12-8-19.8-7.9c-5.1,0.1-8.4,3.5-8.6,8.7c-0.2,4.9,1.3,9.2,3.9,13.3c2.3,3.7,5.1,6.9,8.2,10c1,1,2.1,2,3.1,2.9 c0.5,0.5,1,0.9,1.4,1.3c0.8,0.8,1.5,1.7,1.9,2.7c0.3,0.9,0.5,1.9-0.1,2.7c-0.6,0.7-1.5,0.3-2.3,0.1c-0.7-0.2-1.3-0.5-2-0.8 c-4.3-1.9-7.8-5-12.1-7.5c-0.5,2.2-0.9,4.4-1.3,6.5c-0.4,1.9-0.7,3.7-1.1,5.5C401.7,137.8,402.1,138.3,402.8,138.8z"/><path class="st2" d="M157.9,106.6c0.3-1.5-0.1-1.7-1.4-1.3c-4.7,1.5-9.5,3-14.2,4.6c-1.6,0.5-2.1,0.5-2.1-1.5v-0.1l0,0 c0.1-11.6,0-23.2,0.1-34.9c0-1.7-0.4-1.7-1.7-1.1c-4.7,2.1-9.3,4.2-14,6.2c-1.4,0.6-1.8,1.3-1.8,2.8c0.1,16.4,0.1,32.8,0.1,49.2 v0.1c0,0.6,0,1.1,0,1.7c0.3,0,0.5,0,0.7-0.1c9.9-4,20-7.7,30.2-10.7c0.3-0.1,0.6-0.2,0.8-0.4c0.3-0.3,0.4-0.7,0.5-1.2 C156,115.6,156.9,111.1,157.9,106.6z"/><path class="st2" d="M332.2,40.8c-3.5-6.5-7.1-12.8-10.5-19.2c-0.5-0.9-0.9-1.5-2-1.7c-3.3-0.5-6.5-1.1-9.8-1.7 c-1.1-0.3-1.5,0.1-1.5,1.3c0.1,11.2,0.1,22.5,0,33.7c0,1.1,0.5,1.3,1.4,1.4c3,0.3,6,0.5,8.9,1c1.3,0.2,1.7-0.1,1.7-1.5 c-0.1-4.9,0-9.7,0-14.6c0.1-0.5-0.2-1.1,0.3-1.8c0.3,0.6,0.7,1.1,0.9,1.6c3.3,5.9,6.5,11.9,9.7,17.8c0.3,0.5,0.5,1.2,1.3,1.4 c3.9,0.9,7.8,1.9,11.8,2.9c0-11.8,0-23.5,0-35.1c0-1-0.3-1.5-1.3-1.6c-2.9-0.5-5.8-0.9-8.6-1.6c-0.2-0.1-0.5-0.1-0.6-0.1 c-0.2,0-0.3,0-0.5,0c-0.2,0-0.3,0.1-0.5,0.2c-0.1,0.1-0.2,0.2-0.3,0.4c-0.1,0.1-0.1,0.2-0.1,0.3c0,0.2-0.1,0.4-0.1,0.7 c0,0.1,0,0.2,0,0.3c0.1,5.3,0,10.4,0,15.7c-0.1,0-0.1,0-0.2,0C332.4,40.7,332.3,40.8,332.2,40.8z"/><path class="st2" d="M166.7,61.5c2.7-0.7,5.4-1.4,8.2-2.1c2.8-0.7,5.7-1.4,8.5-1.9c3.1-0.5,5.9-1.6,8.5-3.2c6-3.7,8-13.7-0.6-17 c1.3-0.9,2.3-2,3.3-3.2c0.1-0.3,0.3-0.5,0.5-0.7c2.3-4.3,1.2-9.9-2.5-11.8c-1.1-0.6-2.4-0.9-3.6-0.9c-0.7,0-1.5,0.1-2.2,0.2 c-6.4,1.1-12.7,2.7-19,4.3c-1.4,0.3-1.4,1.1-1.4,2.2c0,8.2,0,16.4,0,24.7c0,2.7,0.1,5.4,0.1,8C166.5,60.5,166.2,61,166.7,61.5z M178.6,35.8c0.1-0.8,0.1-1.5,0.1-2.3c-0.1-1.6-0.5-3.4,2.2-3.5c1.1,0,2.2-0.4,2.9,0.7c0.8,1.3,0.7,2.6-0.1,3.8 c-0.1,0.2-0.3,0.3-0.3,0.5c-0.9,1.3-2.5,1.5-4.1,1.7C178.6,36.7,178.6,36.3,178.6,35.8z M180.8,42.8c0.3,0,0.6-0.1,0.9-0.1 c0.9-0.1,1.7-0.2,2.3,0.7c0.9,1.3,0.9,2.7,0.1,4.1c-0.2,0.3-0.4,0.6-0.6,0.9c-0.1,0.1-0.2,0.2-0.3,0.3l0,0c-0.7,0.7-1.7,1-2.7,1.3 c-0.4,0.1-0.8,0.2-1.1,0.3c-0.1,0-0.2,0-0.3,0c-0.5,0-0.5-0.4-0.5-0.9c0-0.9,0-1.7,0-2.6c0-0.4,0.1-0.8-0.1-1.2 C178,43.7,178.9,43,180.8,42.8z"/><path class="st2" d="M260.2,49.6c0.1,0,0.2,0,0.3,0c1.5-0.1,1.5-0.6,0.9-1.8c-1.9-3.8-3.5-7.7-5.5-11.5c-0.7-1.4-0.8-2.3,0.7-3.2 c1.6-0.9,3.1-2.3,3.6-4.3c1.3-5.6-0.6-13.6-9.5-14.6c-1.7-0.1-3.3-0.2-4.9-0.3c-5,0-9.9,0.6-14.9,0.8c-0.9,0.1-1.2,0.4-1.2,1.3 c0,11.3,0.1,22.6,0,33.9c0,0.9,0.2,1.2,0.9,1.1c0.1,0,0.2,0,0.3,0c3.2-0.5,6.3-0.8,9.5-1.1c1.3-0.1,1.7-0.5,1.7-1.8 c-0.1-4.3,0-8.6,0-13.1h0.1l0,0c0.7,0.3,0.7,0.7,0.8,1.1c0.9,2.1,1.9,4.2,2.8,6.3c0.9,2.1,1.9,4.2,2.8,6.3 c0.3,0.7,0.7,1.3,1.2,1.5c0.2,0.1,0.5,0.1,0.9,0.1c0.2,0,0.3,0,0.5-0.1C254.1,50,257.2,49.8,260.2,49.6z M248.4,29.1 c-0.1,0.9-0.5,1.7-1.1,2.3c-0.2,0.2-0.4,0.4-0.7,0.6c-0.3,0.2-0.5,0.3-0.7,0.5c-0.1,0.1-0.3,0.1-0.4,0.2c-0.3,0.1-0.5,0.2-0.9,0.3 c-0.3,0.1-0.6,0.1-0.9,0.1c-0.1,0-0.3,0-0.5,0c-0.8,0-1.1-0.3-1.1-1.1c0-1.3,0-2.5,0-3.8c0-0.9,0-1.7,0-2.6c0-2,0.3-2.3,2.3-1.8 C247.4,24.5,248.8,26.3,248.4,29.1z"/><path class="st2" d="M222.7,51.5c0.9-0.1,1.5-0.3,1.7-1.5c0.5-2.5,1.2-4.9,1.9-7.3c0.1-0.3,0.1-0.5,0.1-0.7c0-0.5-0.4-0.6-1.3-0.5 c-3.5,0.4-7,0.8-10.5,1.1c-0.6,0.1-1.5,0.3-1.5-0.5c0-0.1,0-0.3,0.1-0.4c0-0.1,0-0.1,0-0.2c0-0.6-0.3-1.3-0.3-1.9 c0-0.5,0.3-1,1.3-1.2c1.9-0.3,3.9-0.5,5.9-0.7c1-0.1,1.3-0.5,1.3-1.5c-0.1-1-0.1-2-0.1-3c0-1,0-2,0.1-3c0.1-1.3-0.5-1.5-1.7-1.3 c-1.7,0.3-3.5,0.5-5.3,0.7c-0.8,0.1-1.5,0.1-1.5-0.7c0-0.1,0-0.3,0-0.5c0-0.1,0-0.2,0-0.3c0-0.3-0.1-0.7-0.1-1 c0-0.6,0.2-1.1,1.4-1.1c3.3-0.2,6.6-0.7,9.9-0.9c0.8-0.1,1.3-0.2,1.3-0.7c0-0.2,0-0.4-0.1-0.7c-0.7-2.4-1.2-4.8-1.7-7.2 c-0.2-0.9-0.5-1-1.3-0.9c-6.9,0.7-13.6,1.5-20.4,2.5c-1.3,0.2-1.5,0.7-1.5,1.8c0,5.5,0,11,0,16.5c0,0.1,0,0.1,0,0.1 c0,5.5,0.1,10.8,0.1,16.2c0,1.1,0.3,1.5,1.1,1.5c0.1,0,0.3,0,0.4-0.1c0.8-0.1,1.7-0.3,2.5-0.4c2.8-0.5,5.6-0.9,8.4-1.2 C216.4,52.2,219.5,51.8,222.7,51.5z"/><path class="st2" d="M264.5,16.1c0,1.3,0,2.7,0,4.1c0,4,0,8,0,12c0,5.5,0,10.9,0.1,16.3c0,0.9-0.1,1.6,1.2,1.7 c6.7,0.3,13.2,0.8,19.9,1.2c0.6,0.1,1-0.1,1.3-0.3c0.2-0.2,0.3-0.5,0.3-0.9c0.5-2.4,1-4.7,1.7-7c0.4-1.5,0.1-1.9-1.3-2 c-2.9-0.1-5.7-0.5-8.5-0.5c-1.7,0-2.2-0.6-2.2-2.3c0.1-7.4,0.1-14.8,0.1-22.3c0-0.9,0.1-1.7-1.3-1.7c-3.2,0.1-6.4,0.1-9.6,0 c-0.5,0-0.9,0.1-1.1,0.2C264.6,14.8,264.5,15.3,264.5,16.1z"/><path class="st2" d="M291.6,17.4c0,11.2,0,22.4,0,33.5c0,0.9,0.2,1.3,1.2,1.4c3.2,0.1,6.4,0.3,9.5,0.6c0.1,0,0.3,0,0.4,0 c1-0.1,1.2-0.6,1.2-1.7c-0.1-5.4,0-10.8,0-16.2c0-5.5,0-11-0.1-16.6c0-0.7,0.3-1.7-1-1.7c-3.3-0.1-6.6-0.4-9.9-0.7 c-0.1,0-0.2,0-0.3,0C291.9,16.2,291.6,16.5,291.6,17.4z"/></g></g></svg> 