<?xml version="1.0" encoding="utf-8"?><svg version="1.1" id="Layer_1" xmlns="http://www.w3.org/2000/svg" xmlns:xlink="http://www.w3.org/1999/xlink" x="0px" y="0px" viewBox="0 0 512 512" style="enable-background:new 0 0 512 512;" xml:space="preserve"><style type="text/css"> .st0{fill:url(#path3424-8-57-0-3-4_1_);} .st1{fill:#FF0000;fill-opacity:0.6406;} .st2{fill:#112B00;} .st3{fill:url(#path4601-9-6_1_);} .st4{fill:#44AA00;} .st5{fill:#B6C2AF;} .st6{fill:url(#path4410-0-5-9-4-8-84-0_1_);} .st7{fill:#70F25D;} .st8{fill:#FFFF00;stroke:#000000;stroke-width:2.0686;stroke-linecap:round;} .st9{fill:#B59100;stroke:#000000;stroke-width:2.0686;} .st10{fill:#FFFF00;} .st11{fill:none;stroke:url(#path4905-6-9-5-7-1-3_1_);stroke-width:38.8942;} .st12{fill:#FFCC00;} .st13{fill:url(#path3398-7-5-3-9-2-8-9-3-6_1_);} .st14{fill:none;stroke:#000000;stroke-width:10.343;} .st15{fill:#93969B;} .st16{fill:#031422;} .st17{fill:#F7FAFD;} .st18{fill:#CACACB;} </style><g id="layer1" ><g id="g11723" transform="translate(-805.89753,-279.03737)"><radialGradient id="path3424-8-57-0-3-4_1_" cx="1912.0247" cy="535.0148" r="214.2082" gradientTransform="matrix(0.7807 -1.349874e-02 -1.245423e-02 -0.7203 -423.4402 890.2526)" gradientUnits="userSpaceOnUse"><stop offset="0" style="stop-color:#6DD5D5"/><stop offset="1" style="stop-color:#3281B8"/></radialGradient><path id="path3424-8-57-0-3-4" class="st0" d="M890,393.7 c0,143.1,49.9,286.3,171.3,364.1c121.4-77.8,171.2-221,171.2-364.2C1139.1,350.1,980.3,350.1,890,393.7z"/><path id="path4955-9-8-3-9-8-7" class="st1" d=" M1064,425.7l-91.1,57.7l3.2,19l88.6-75.6L1064,425.7z"/><path id="path4597-43-6" class="st2" d="M1096.4,437.2 c-5.9,1-11.8,3-12.4,11.4c-1.9,8.7-8.7,17.7-5.2,26.8c2.9,3.9,8.6,3.7,13,3.9c5-0.8,9.7-4,10.1-9.4c2.2-10.3,0.8-21.5-3.1-31.2 C1098.4,437.8,1097.5,437.1,1096.4,437.2L1096.4,437.2z"/><linearGradient id="path4601-9-6_1_" gradientUnits="userSpaceOnUse" x1="1965.0873" y1="585.5567" x2="2044.0005" y2="439.0039" gradientTransform="matrix(0.8 0 0 -0.8 -465.3645 908.6942)"><stop offset="0" style="stop-color:#3B9500"/><stop offset="1" style="stop-color:#0D2000"/></linearGradient><path id="path4601-9-6" class="st3" d=" M1114.9,378.5c-6.6,5.7-11,13.3-16,20.3c-7.2,1.6-14.6,3.7-21.2,7.5c-3.5,1.9-6.8,3.3-8.9,6.7c-1,1.7-1.5,3.8-2.8,5.2 c-8.9,1.5-15.6,5-18.9,12.7c-1.7,4.2-1.9,12.2,0.5,16.2c2.6,3,6.9,3.9,10.6,4.7c4.3,0.6,8.8,1,13-0.1c4.9-2.1,8.2-6.6,12.6-9.5 c4.5-3.3,9.8-6.6,15.6-6.3c1.3,8.3,2.9,16.6,3.7,25c0.2,3.7,0.1,7.4-0.3,11.1c0.5,1.8,2.7,0.9,3.1-0.5c5.3-8.6,4.1-19.1,6.1-28.5 c0.7-4.3,4.1-8.7,8.9-8.4c2.8-0.1,5.6,0,8.3,0.8c1.9-0.2,2.8-2.5,4.7-2.9c1.6-1,4.4-0.5,5.3-2.4c0.1-1.9-2.5-2.2-3.7-3.1 c-2.2-1.1-4.4-2.1-6.4-3.4c2.2-2.8,4.6-5.5,6.2-8.7c0.5-2.1-2.1-2.6-3.6-2.5c-1.9-0.1-3.9-0.3-5.8,0.3c0.8-3.4,1.8-6.7,2.1-10.2 c-0.8-2-3.3-0.6-4.7-0.3c-2.2,0.8,1.1-0.6,1.9-1c1.4-0.5,3.1-1.4,4.4-1.6c-0.6,3.5-1.5,6.9-2,10.4c0.8,2,3.5,1.2,5.2,1.8 c1.7,0.4,4.2,0.7,5.2,1.6c-2.3,3.1-4.9,6.2-6.9,9.5c-0.3,2.1,2.6,2.3,4.1,2.4c7.1,0.3,14.5,2.2,20.2,6.6 c4.8,3.5,8.7,8.4,10.9,14.1c5.7,12.8,5.4,27.8,0.9,41c-5.6,17.1-16.8,31.5-27.9,45.3c-13.7,17.3-28.3,33.9-41.3,51.7 c-1.1,1.4-8.5,11.3-7.2,11.3c12.8,2.5,34.8-3.9,47.8-2.4c2.2-0.1,1.4-2.8,2.2-4.2c2.7-8.1,9.2-13.9,14.2-20.6 c1.7-2.1,3.3-4.3,4.9-6.5c2.9,0.3,6.2,1,8.8-0.6c0.6-5.1-0.3-10.3,1.2-15.4c1.5-6,3.8-11.7,6.1-17.4c3.5-0.3,7-0.9,10.2-2.6 c2.3-0.3,2.6-2.5,1.6-4.3c-3.1-8.8-2.5-18.3-0.2-27.2c0.7-2.4,0.8-5.1,1.9-7.4c3.2-1.2,6.3-3.1,9.1-5.1c1.2-1.7-0.8-3.4-1.2-5.1 c-3.4-8-4.5-16.7-5-25.4c2.9-2.1,6.8-3,9-5.9c-0.7-2.2-2.9-3.7-4.1-5.7c-5.1-6.8-9.3-14.2-13-21.8c2.2-2.7,4.2-5.7,5.3-9.1 c-0.2-2-2.9-1.9-4.3-2.6c-9-3-17.9-6.9-26.6-10.8c-1.9-3.2-3.2-6.6-4.4-10c-1.6-1.7-4.2-0.1-6.1,0.3c-8.5,2.7-16.7,6.5-25.7,7.5 c-1,0.1-2.6,0.8-2.8-0.7c-2.3-4-1.8-8.7-2.3-13.1C1116.6,378.2,1115.6,378.1,1114.9,378.5L1114.9,378.5z"/><path id="path4603-5-5" class="st4" d="M1139.5,426.2 c-1.7,0-1.8,2.3-0.4,2.8c1.9,1.1,1.8,1.7-0.3,1.9c-2.9,0.7-6.2,1.7-7.7,4.5c0.4,2,3.1,1.9,4.4,3.1c6.3,4,9.3,11.7,9.2,19 c0.6,10.3-1.9,20.5-5.5,30c-6.4,16.4-19,29.7-33.8,38.9c-15.4,10-32.7,16.8-47.4,27.9c-5.2,4.2-12,9.9-15.8,15.5 c-0.9,2.1-0.2,5.4,1.1,6c12.5,9,25.4,18.6,44.2,20c1.8-0.5,10.8-13.2,12-14.5c16.3-22.1,34.2-43,50.6-65 c9.5-13,17.4-27.9,19.2-44.1c1.2-11.6-1.3-23.8-7.8-33.6C1156.4,431.6,1148.1,427.2,1139.5,426.2z"/><path id="path4493-88-8" d=" M1152.7,385.2c0.9,4.6,2.4,7.2,4.8,11.3c10.8,4.1,21.1,9.5,30.6,11.7c-1.9,4.2-2.6,6-5.7,9.2c4.9,10.5,11.1,20.7,17.3,27.6 c-3.1,2.9-5.5,3.1-9,5.4c0.4,12.5,2.7,22.5,6.8,30.1c-4,2.7-5.3,3.9-9.7,5.3c-3.9,16-6,23.3-1,37.8c-4.9,2.8-6.7,3-12,3.4 c-4.2,10.6-9.1,20.9-7.3,33.2c-3.7,1.2-5.1,0.5-8.7,0l0,0c-6,10.3-20.5,21.5-20.3,32.3c0,2.1,6,2,5.9-0.1 c1.8-12,9.9-19.7,15.9-28.7c4.3,0.6,8.3-0.1,12.2-1.1c-3.1-13.8,0.2-20.5,5-32c6.3-1.9,10.7-3.6,14.5-5.8l1.1-0.6l-0.4-1.2 c-6.2-12.9-4.7-22.1-2.2-34.5c5.7-2.7,8.9-4.6,13.2-7.5c-7.6-10.5-9.4-17.5-9.8-29.1c5-3.1,7.4-4.5,10.8-8.2 c-8.6-8.1-13.8-16.2-18.5-25.6c3-3.8,4.3-9.2,6.2-13.7c-13.4-2.5-21.1-5.6-32.1-9.9c-2.6-3.5-4.8-7.8-5.6-14.8 c-13.6,4.2-19.7,9.6-34,11.6c-3.5-5.3-3-11.6-3.1-17.5c-10.5,3.9-14.9,15.6-20.2,23.9c-24.5,8.9-21.8,6.5-32.5,19.2 c-12.1,1.8-23.7,10.5-19.2,31.7l0,0l0,0c2.6,3.1,7.5,4.7,12.8,5.5c5.2,0.8,10.6,0.7,14.3-0.6l0.1,0l0.1-0.1 c4.2-2.5,7.4-5.7,10.6-8.6c-0.9,9.5-11.9,25.6-5.5,33.6l0.2,0.2l0.3,0.1c3.6,1.8,8.6,2.6,13.5,2.1s9.9-2.2,13.1-5.8 c7.2-8,5.6-19.6,6.7-28c0.5-4.2,2.4-7.4,4.3-9.1c7.3-4.2,19.1,1.3,23.2,7.6c3,4.9,4.6,12.8,2.1,25.9 c-5.4,29.1-22.8,42.8-43.1,54.8c-20.2,12-43.2,22-58.4,43.5c-1.2,1.7,1.4,3.5,2.5,1.8c14.6-20.6,37.6-28.6,58-40.8 c20.4-12.1,38.3-28.7,43.9-58.7c2.5-13.5,1-22.3-2.6-28.1c-2.6-4.2-6.3-6.7-10-8.2c0.6-0.7,1.2-1.2,1.8-1.7 c2.8-1.8,6.2-1.9,9.3-2.8c-0.9-1.2-3.8-2.9-4.8-3.9c13.8,1.7,21.3,9.1,25.3,18.2c5.9,13.4,5.7,26.6,1.6,39.5 c-4,12.9-12,25.6-21.5,37.8c-19,24.3-38.6,47.7-51.3,66.2c-1.2,1.7,1.4,2,2.6,0.2c12.3-17.9,31.9-39.9,51.2-64.6 c9.6-12.3,17.8-25.3,22-38.8c4.2-13.5,4.5-27.5-1.8-41.7c-4.9-11.1-15.3-20.2-33.6-20.4c-0.4-0.2-0.9-0.4-1.3-0.6 c2.9-3.8,4.9-7.2,8.2-10.6c-3.8-1.4-8-2.6-11.6-2.5c1.2-5.6,1.5-7.2,2.6-12.2c-4.9,1-9.8,3.5-13,5.5c-1.8,1.1-0.7,2.8,1.1,1.7 c3.1-1.9,5.1-1.9,7.8-2.8c-1.2,5.5-1.3,7.2-3,12.3c3.5-1.9,7.8-1.3,10.7-0.5c-2.7,3.5-4.4,6.7-7.4,9.6c2.2,1.5,4.3,2.8,6.5,3.7 c0.9,0.4,3.8,1.5,4.9,2.5c-5.3,1.2-5.7,1.1-9.2,4.4c-0.2-0.1-0.4-0.2-0.6-0.3c-2.5-0.6-4.7-0.9-6.7-0.9c-3.2,0-5.7,0.9-7.5,2.5 c-2.9,2.6-3.9,6.6-4.4,11c-1.1,8.6-0.8,19-6.4,25.7c1.2-4.8,0.8-10.6,0.1-16.4c-0.9-7.7-2.7-15.4-3.2-19.9l-0.2-1.4h-1.4 c-6.2,0-11.3,3-15.2,6c-4.7,3.1-7.8,7.1-12,9.7c-2.7,1-7.9,1.2-12.7,0.5c-4.8-0.7-9.2-2.5-10.8-4.3c-5.7-19,7.8-26.6,18.8-27.2 c7.7-14.3,13.4-12.4,31.6-18.9c0.2,0,0.4-0.1,0.6-0.3c0.2-0.1,0.4-0.3,0.5-0.5c4.9-6.8,9.4-15,15.9-20c-0.2,6.5,0.2,9.9,3.1,14.9 C1135.6,392.8,1139.4,388.3,1152.7,385.2L1152.7,385.2z M1097.7,437.7c2.9,5.1,3.7,11.2,4.5,18c0.9,7.5-0.6,15.3-2.9,19.2 c-0.1,0.2-0.2,0.5-0.2,0.7c-2.1,1-4.1,2.4-6.5,2.7c-4.3,0.4-9.3-0.3-12.2-1.7c-7-9.5,6-22.9,5.4-33.6 C1088.8,440.8,1093.2,438,1097.7,437.7L1097.7,437.7z"/><path id="path3351-0-6-9-3-2-7-49-0" d=" M1095.7,415.3c-6.7,5.4-15.6,7.2-18,12.8c-0.3,2.1,1.6,3.3,1.6,3.3c9,3.2,11-7,14-12.2C1094.2,417.7,1094.7,417.3,1095.7,415.3z M1053.3,437c-0.1,0-0.2,0-0.3,0c-1.2,0.2-1.4,0.5-1.7,3.4c-0.3,2.7-0.2,3.1,1.1,3.7c1.7,0.7,1.8,0.6,1.7-3.4 C1054,437.4,1054,436.9,1053.3,437L1053.3,437z M1062.5,437.5c-0.4,0-0.7,0.3-0.9,1c-0.5,1.3-0.6,5.2-0.2,5.9 c0.4,0.7,1.2,0.6,1.9-0.2c0.9-1,0.4-6.4-0.6-6.6C1062.6,437.5,1062.6,437.5,1062.5,437.5L1062.5,437.5z M1081.7,445.1 c-0.3,0-0.6,0.1-0.8,0.3c-0.3,0.2-0.6,0.6-0.6,1c-0.3,1.3,0.4,2.4,1.2,3.1c0.4,0.4,0.8,0.6,1.2,0.8c0.2,0.1,0.4,0.2,0.5,0.2 c0.2,0,0.4,0.1,0.7,0c0.2-0.1,0.4-0.4,0.4-0.6c0-0.2,0-0.2-0.1-0.3c0-0.1-0.1-0.3-0.2-0.4c-0.1-0.3-0.3-0.6-0.5-1 c-0.4-0.8-0.8-1.7-0.9-2.5c0-0.3-0.3-0.6-0.6-0.6C1081.9,445.1,1081.8,445,1081.7,445.1L1081.7,445.1z M1081.6,446.5 c0.1,0.6,0.3,1.1,0.6,1.6C1081.7,447.7,1081.4,447.2,1081.6,446.5z M1096.3,446.8c-2.1,0-7,0.6-7,0.9c0,0.2,0.9,0.5,1.9,0.6 c3.3,0.4,5.3,0.2,5.8-0.5c0.2-0.4,0.3-0.8,0.2-0.9C1097.1,446.8,1096.8,446.8,1096.3,446.8L1096.3,446.8z M1076,449.6 c-0.1,0-0.2,0-0.2,0.1v0c-0.3,0.1-0.6,0.2-0.8,0.4c-0.3,0.2-0.5,0.5-0.7,0.9c0,0,0,0.1,0,0.1c-0.2,1.4,0.6,2.7,1.4,3.7 c0.4,0.5,0.8,0.9,1.2,1.1c0.2,0.1,0.3,0.2,0.5,0.3c0.1,0,0.1,0.1,0.2,0.1c0.1,0,0.2,0.1,0.5,0c0.2-0.1,0.4-0.3,0.4-0.5 c0-0.2,0-0.3,0-0.4c0-0.2-0.1-0.3-0.1-0.5c-0.1-0.4-0.3-0.8-0.5-1.3c-0.4-1-0.9-2.3-1.1-3.6c0-0.2-0.2-0.4-0.4-0.5 C1076.3,449.6,1076.2,449.6,1076,449.6L1076,449.6L1076,449.6z M1075.8,451.1c0.2,1.1,0.6,2.1,0.9,3c0,0,0,0,0,0 c-0.7-0.8-1.2-1.8-1.1-2.6C1075.6,451.3,1075.7,451.2,1075.8,451.1z M1085.3,451.7c-0.1,0-0.1,0-0.2,0c-0.2,0-0.3,0.1-0.5,0.3 c-0.5,0.8-0.7,1.9-0.6,2.9c0.1,0.5,0.2,1,0.4,1.4c0.3,0.4,0.7,0.8,1.2,1c0.1,0,0.1,0,0.2,0.1c0.4,0.1,0.8,0,1.1-0.2 c0.3-0.2,0.5-0.4,0.7-0.6c0,0,0.1-0.1,0.1-0.1c0.2-0.3,0.2-0.6,0.1-0.9c-0.1-0.3-0.3-0.5-0.4-0.5c-0.8-0.5-0.9-0.9-1-1.3 c-0.1-0.4-0.1-1-0.4-1.7v0c-0.1-0.2-0.3-0.3-0.5-0.4C1085.5,451.7,1085.4,451.7,1085.3,451.7L1085.3,451.7L1085.3,451.7z M1052.8,451.5c-0.4,0-0.3,1.3-0.3,1.6c0,2.7,1,5.4,2.1,7.3c0.6,1,1.1,1.7,1.7,2.2c0.3,0.3,0.6,0.5,0.9,0.6 c0.3,0.1,0.8,0.1,1.1-0.1c0.3-0.2,0.3-0.5,0.3-0.6c0-0.1,0-0.2,0-0.3c0-0.2-0.1-0.4-0.2-0.6c-0.1-0.5-0.3-1.1-0.5-1.8 c-0.4-1.5-0.8-3.5-0.6-5.5c0-0.3,0.2-1.2,0-1.3l-3.4-1.2c-0.1-0.8-0.8-0.1-0.9-0.1L1052.8,451.5z M1089.2,452.9 c-0.5,0-0.5,0.1-0.2,0.4c0.4,0.5,1.9,1.1,4.2,1.7l2.4,0.2c0,0,1.5,0.3,2.1,0c0.4-0.2,1.7-0.6,0.7-1c-0.3-0.1-1.8-0.4-3.1-0.6 c-1.4-0.2-3.5-0.4-4.7-0.6C1090,453,1089.5,453,1089.2,452.9L1089.2,452.9z M1053.8,454l2.2,0.7c-0.1,2.1,0.3,4,0.7,5.5 c0.2,0.7,0.3,1.2,0.5,1.6c0,0,0,0-0.1,0c-0.4-0.4-1-1.1-1.5-1.9C1054.7,458.3,1054,456.2,1053.8,454z M1068.7,452.9l-0.5,0.1 l-3.6,0.5c-0.4,0-0.2,1.2-0.1,1.5c0.2,3,1.3,5.1,2.3,6.5c0.5,0.7,1.1,1.2,1.5,1.5c0.2,0.2,0.4,0.3,0.6,0.4c0.2,0.1,0.4,0.2,0.8,0 c0.2-0.1,0.3-0.3,0.4-0.5c0-0.1,0-0.2,0-0.3c0-0.2-0.1-0.4-0.1-0.6c-0.1-0.4-0.3-1-0.5-1.7c-0.4-1.4-0.8-3.3-0.9-5.5 c0-0.4,0.2-1.5-0.1-1.5L1068.7,452.9z M1085.3,454.2c0.2,0.6,0.5,1.2,1.3,1.7c-0.1,0.1-0.2,0.2-0.3,0.3c0,0-0.1,0-0.2,0 c-0.3-0.2-0.5-0.3-0.6-0.5c-0.1-0.2-0.2-0.5-0.3-0.9C1085.2,454.6,1085.3,454.4,1085.3,454.2L1085.3,454.2z M1067.5,455.5 c0.1,2.1,0.5,3.9,0.9,5.2c0.1,0.4,0.2,0.6,0.3,0.9c-0.3-0.2-0.5-0.4-0.8-0.8c-0.8-1.1-1.7-2.8-2-5.2L1067.5,455.5z M1095.9,456.3 c-0.5,0-0.9,0.4-0.9,0.9c0.1,1.1,0.7,2.3,1.6,3.4c0.9,1,1.8,1.8,3.1,1.8c0.1,0,0.1,0,0.2,0c0.4-0.1,0.7-0.4,0.9-0.8 c0.1-0.4,0.1-0.7,0.1-1.1c0,0,0-0.1,0-0.1c-0.1-0.4-0.2-0.7-0.4-0.9c-0.2-0.2-0.5-0.3-0.5-0.3l0,0c-1.1-0.2-1.6-0.6-2.1-1.1 c-0.5-0.5-0.8-1.1-1.5-1.6v0C1096.3,456.4,1096.1,456.3,1095.9,456.3L1095.9,456.3z M1082.4,458.6c-0.1,0-0.1,0-0.2,0 c-0.2,0-0.3,0.1-0.5,0.3c-0.6,0.7-0.8,1.8-0.8,2.9c0,0.5,0.1,1,0.3,1.4c0.2,0.5,0.6,0.8,1.1,1.1c0.1,0,0.1,0.1,0.2,0.1 c0.4,0.1,0.8,0.1,1.1-0.1c0.3-0.1,0.5-0.4,0.8-0.6c0,0,0.1-0.1,0.1-0.1c0.2-0.3,0.3-0.6,0.2-0.9c-0.1-0.3-0.3-0.5-0.3-0.5 c-0.7-0.6-0.9-1-0.9-1.4s0-1-0.3-1.7v0c-0.1-0.2-0.3-0.4-0.4-0.4C1082.6,458.7,1082.5,458.7,1082.4,458.6 C1082.4,458.6,1082.4,458.7,1082.4,458.6L1082.4,458.6L1082.4,458.6z M1097.2,459.1c0.6,0.5,1.3,1,2.5,1.3c0,0,0,0.1,0.1,0.2 c0,0.3,0,0.5,0,0.5c0,0,0,0,0,0c-0.8-0.1-1.3-0.4-2-1.3C1097.5,459.5,1097.4,459.3,1097.2,459.1L1097.2,459.1z M1088.2,460.1 c-0.1,0-0.1,0-0.2,0c-0.6,0.2-0.3,0.6,0.8,1c1.1,0.4,5.5,0.6,6,0.2C1095.2,461.1,1089.4,460,1088.2,460.1L1088.2,460.1z M1082.2,461.2c0.1,0.6,0.5,1.2,1.2,1.8c-0.1,0.1-0.2,0.2-0.3,0.2c-0.1,0-0.1,0-0.2,0c-0.3-0.2-0.5-0.3-0.6-0.5 c-0.1-0.2-0.2-0.5-0.2-1C1082.1,461.6,1082.2,461.4,1082.2,461.2z M1094.2,464.2c-0.4,0-0.8,0.4-0.8,0.8c-0.1,1.3,0.5,3,1.4,4.5 c0.9,1.5,1.8,2.5,3.5,2.9c0.1,0,0.1,0,0.2,0c0.5-0.1,0.9-0.4,1.2-0.8c0.2-0.4,0.3-0.8,0.4-1.3c0,0,0-0.1,0-0.1 c0-0.5-0.2-0.8-0.3-1.1c-0.2-0.3-0.5-0.4-0.6-0.4c-1.4-0.5-2-1.2-2.5-1.9c-0.5-0.7-0.9-1.6-1.6-2.4v0 C1094.8,464.3,1094.5,464.2,1094.2,464.2L1094.2,464.2z M1094.9,466.6c0.2,0.3,0.4,0.7,0.7,1.1c0.6,0.9,1.5,1.7,3.1,2.3v0 c0,0,0.1,0.2,0.1,0.4c-0.1,0.4-0.1,0.6-0.2,0.7c-0.1,0.1-0.1,0.1-0.2,0.1c-1.1-0.3-1.7-0.9-2.5-2.2 C1095.4,468.2,1095.1,467.3,1094.9,466.6L1094.9,466.6z M1080.4,466.9c0,0-0.1,0-0.1,0l0,0c-0.4,0-0.7,0.3-0.9,0.7 c-0.6,1.7-0.5,4.1,0.1,6.4c0.3,1.1,0.5,2,0.9,2.8c0.4,0.8,1.1,1.4,2,1.9c0,0,0.1,0,0.1,0c1.2,0.3,2.1,0.3,2.8-0.1 c0.7-0.4,1-1,1.2-1.5l0,0c0.2-0.4,0-0.9-0.3-1.2c-3.3-2.4-3.6-5.9-5-8.5v0C1081.1,467.1,1080.8,466.9,1080.4,466.9L1080.4,466.9z M1088,466.9c0,0-0.1,0-0.1,0l0,0c-0.4,0-0.7,0.3-0.9,0.7c-0.6,1.7-0.5,4.1,0.1,6.4c0.6,2.3,1.4,3.9,3.4,4.9 c0.1,0,0.1,0.1,0.2,0.1c1.1,0.1,2.4,0.1,3.3-0.9c0,0,0.1-0.1,0.1-0.2c0.1-0.3,0.1-0.3,0.1-0.5c0-0.1,0-0.3,0-0.5 c0-0.2,0-0.3,0-0.5c0-0.1,0-0.2-0.1-0.2c0-0.1-0.1-0.2-0.3-0.4c-3.3-2.4-3.6-5.9-5-8.5v0C1088.6,467.1,1088.3,466.9,1088,466.9 L1088,466.9z M1080.5,468.7c0.9,2.2,1.7,5.5,4.9,8c-0.2,0.4-0.4,0.6-0.6,0.8c-0.3,0.2-0.8,0.3-1.7,0c-0.8-0.4-1.1-0.8-1.4-1.4 c-0.3-0.6-0.5-1.4-0.8-2.5C1080.3,471.8,1080.2,470,1080.5,468.7L1080.5,468.7z M1088,468.8c0.9,2.2,1.7,5.5,4.9,8 c0,0.1,0,0.2,0,0.3c0,0.1,0,0.2,0,0.3c-0.4,0.3-1.2,0.5-1.9,0.4c-1.5-0.8-2.1-2-2.7-4.1C1087.8,471.9,1087.8,470.1,1088,468.8 L1088,468.8z"/><path id="path3436-9-2-9-6-3-5-3-8" class="st5" d=" M1081.9,445.7c-0.6,0-1.1,0.3-1,0.7c-0.5,2.1,2.3,3.7,2.7,3.5C1083.8,449.8,1082,447.7,1081.9,445.7L1081.9,445.7z M1076,450.2 c-0.4,0-1,0.5-1.2,1c-0.3,2.3,2.7,4.7,3,4.6c0.4-0.1-1.3-2.8-1.6-5.5C1076.1,450.2,1076.1,450.2,1076,450.2L1076,450.2z M1085.2,452.3c-0.1,0-0.2,0-0.2,0.1c-0.4,0.6-0.6,1.5-0.5,2.5c0.1,0.9,0.4,1.5,1.3,2c0.5,0.1,0.8-0.1,1.2-0.6 c0.2-0.4,0-0.6,0-0.6c-1.7-1.2-1.1-2.2-1.6-3.3C1085.4,452.3,1085.3,452.3,1085.2,452.3L1085.2,452.3z M1053.1,452.7 c0.1,5.2,3.5,10.7,4.8,9.9c0.3-0.2-1.7-4.5-1.3-8.9L1053.1,452.7z M1065.1,454.4c0.5,5.7,3.9,8.6,4.4,8.4c0.4-0.2-1.3-3.9-1.4-8.6 L1065.1,454.4z M1095.8,456.9c-0.1,0-0.2,0.1-0.2,0.2c0.1,0.9,0.7,2,1.5,3c0.8,1,1.5,1.5,2.6,1.6c0.5-0.2,0.6-0.6,0.6-1.3 c-0.1-0.6-0.4-0.7-0.5-0.7c-2.4-0.5-2.7-1.9-3.9-2.8C1095.9,456.9,1095.9,456.9,1095.8,456.9L1095.8,456.9z M1082.3,459.3 c-0.1,0-0.2,0-0.2,0.1c-0.4,0.6-0.7,1.5-0.6,2.4c0.1,0.9,0.3,1.6,1.1,2.1c0.5,0.1,0.9-0.1,1.2-0.5c0.2-0.4,0.1-0.6,0-0.6 c-1.6-1.3-1-2.3-1.4-3.4C1082.4,459.3,1082.4,459.3,1082.3,459.3L1082.3,459.3z M1094.2,464.9c-0.1,0-0.2,0.1-0.2,0.2 c-0.1,1.1,0.4,2.8,1.3,4.2c0.8,1.4,1.6,2.3,3,2.6c0.7-0.1,0.9-0.6,1-1.5c0-0.8-0.4-0.9-0.5-1c-3-1.1-3.1-3-4.4-4.4 C1094.4,464.9,1094.3,464.8,1094.2,464.9L1094.2,464.9z M1080.3,467.5c-0.1,0-0.3,0.1-0.3,0.2c-0.5,1.5-0.4,3.8,0.1,6 s0.8,3.4,2.6,4.3c2.2,0.6,2.8-0.3,3.2-1.3c0.1-0.2,0-0.3-0.1-0.4c-3.5-2.6-3.9-6.3-5.2-8.7 C1080.6,467.5,1080.4,467.5,1080.3,467.5L1080.3,467.5z M1087.8,467.5c-0.1,0-0.3,0.1-0.3,0.2c-0.5,1.5-0.4,3.8,0.1,6 c0.6,2.2,1.3,3.6,3.1,4.5c1,0.1,2.1,0,2.7-0.7c0.1-0.2,0.1-1.1-0.1-1.2c-3.5-2.6-3.9-6.3-5.2-8.7 C1088.1,467.6,1087.9,467.5,1087.8,467.5L1087.8,467.5z"/><path id="path4955-2-5-6-2-0" class="st1" d=" M1080.5,428.4l-99.4,50.1l2.8,15.3l97.2-64.3L1080.5,428.4z"/><linearGradient id="path4410-0-5-9-4-8-84-0_1_" gradientUnits="userSpaceOnUse" x1="1810.0444" y1="310.3018" x2="1867.8831" y2="427.1342" gradientTransform="matrix(0.8 0 0 -0.8 -465.3645 908.6942)"><stop offset="0" style="stop-color:#003D00"/><stop offset="1" style="stop-color:#24B30F"/></linearGradient><path id="path4410-0-5-9-4-8-84-0" class="st6" d="M895.6,471.6 c15.3,113.3,65.4,218.9,161.5,282.8c2.4,0.4,4.7,0.9,7.1,1.3c66.3-43.4,110.9-106.4,137.5-178.2c-42.6,15.3-93.1,18.5-133.9,6.7 c-38.3-11.1-68-42.9-96.8-65.5C947.5,500.3,921.7,479.9,895.6,471.6L895.6,471.6z"/><path id="path4538-2" class="st7" d="M927.4,509.1 c160.3,131.8,220.1,100.7,281.2,87.5c-1.2,12.2,1.2,12.1-6.6,16.8C1166.2,634.7,1082.1,671.2,927.4,509.1z"/><path id="path4410-0-5-9-4-8-8-9-1" d=" M895.4,469.4l0.3,4.2c13,5.4,24.8,11.7,35.8,18.7c0.2,0.5,0.3,1,0.4,1.4c0.2,1.5,0,2.6-0.7,3.5c-1.4,1.9-5.1,3.3-11.1,2.7 c-5.5-0.5-12.7-2.6-21.2-6.8c0.3,1.7,0.6,3.4,0.9,5.1c6.6,4.3,10.9,8.6,13.4,12.5c3,4.8,3.1,8.7,1.4,11.3 c-1.4,2.2-4.3,3.8-8.7,4.2c0.3,1.2,0.6,2.4,0.9,3.7c4.6-0.5,8.1-2.2,10.3-5c10.6,5.8,16.7,11.3,19.4,15.8c1.4,2.3,1.9,4.3,1.7,5.9 c-0.1,1.6-0.8,3-2,4.3c-2.5,2.5-7.7,4.3-14.5,4.3c-2.5,0-5.2-0.3-8-0.7c0.4,1.3,0.8,2.7,1.3,4c2.3,0.3,4.6,0.5,6.7,0.5 c6.8,0,12.4-1.4,16.1-4.4c8.7,4.8,14.3,9.9,17.4,14.4c3.2,4.7,3.5,8.5,1.9,11s-5.3,4.3-11.7,4.1c-6-0.2-14.2-2.3-24.1-7.2 c0.7,1.8,1.4,3.7,2.1,5.5c7.3,4.4,11.9,8.7,14.2,12.3c2.8,4.4,2.4,7.5,0.2,9.9c-0.9,1-2.3,1.8-4,2.5c0.5,1.1,1.1,2.3,1.6,3.4 c1.5-0.6,2.9-1.4,4.1-2.4c10.2,5,16.3,10.3,19.1,14.7c2.8,4.5,2.5,7.8,0.3,10.4c-1.7,2-5,3.7-9.5,4.2c0.7,1.2,1.3,2.3,2,3.5 c4.3-0.8,7.7-2.5,10-5c12.3,5.5,20.1,11,24.1,15.7c2.1,2.4,3.1,4.6,3.4,6.4c0.3,1.8-0.1,3.1-1.1,4.3c-2.1,2.5-7.4,4.5-15.4,4.2 c-1.6,0-3.2-0.2-5-0.4c0.9,1.3,1.9,2.7,2.8,4c0.7,0,1.4,0.1,2,0.1c8.4,0.3,14.8-1.5,18.2-5.3c11.7,4.7,19,10,22.8,14.6 c3.9,4.8,4.1,8.6,2.2,11.4c-1.9,2.8-6.6,4.9-13.6,4.6c-3.9-0.1-8.6-1-13.8-2.7c1.5,1.7,3,3.5,4.5,5.2c3.3,0.8,6.3,1.2,9.1,1.3 c7.5,0.2,13.4-1.8,16.4-5.8c11.6,3.3,19.6,7.4,24.2,11.2c2.4,2,3.9,3.9,4.6,5.5c0.7,1.6,0.6,2.8,0.1,4c-1.1,2.3-5.1,4.6-12.3,5.2 c-6.2,0.5-14.5-0.3-24.5-3c2.7,2.6,5.4,5.2,8.2,7.7c5.3,2.6,9.3,5.3,12,7.9c2.2,2.1,3.5,4.1,4.2,5.8c1.4,1.1,2.8,2.2,4.3,3.4 c0.1-1.3-0.1-2.6-0.5-3.9c-0.9-2.7-2.7-5.3-5.4-7.9c-2.3-2.2-5.4-4.4-9.1-6.5c4.1,0.4,7.9,0.5,11.1,0.3c6.8-0.5,11.9-2.4,14.4-5.7 c12,3.5,20.3,7.6,25.1,11.4c2.5,2,4,3.9,4.8,5.5c0.7,1.6,0.7,2.8,0.2,3.9c-1.1,2.3-5.1,4.8-12.3,5.7c-6.7,0.8-15.9,0.4-27.2-1.9 c3.7,2.8,7.4,5.5,11.3,8.2c4,1.6,7.3,3.2,10,4.8c1,0.2,2.1,0.4,3.1,0.6c0.8-0.5,1.5-1,2.3-1.5c0,0,0,0,0,0 c-2.8-2-6.6-4.1-11.3-6.2c4.6,0.3,8.8,0.2,12.3-0.3c7.8-1,13.2-3.5,15.2-7.8c1,0.2,1.9,0.4,2.8,0.5c1.6-1.3,3.3-2.5,4.9-3.8 c-2.2-0.1-4.5-0.2-7-0.4c-0.1-1.1-0.3-2.3-0.9-3.4c-1.1-2.4-3-4.6-5.8-6.8c-2.4-1.9-5.5-3.8-9.3-5.6c4,0.2,7.5,0.1,10.6-0.4 c7.4-1.1,12.4-4.1,14-8.6c0.1-0.2,0.1-0.3,0.2-0.5c9.2,1.1,16.2,3.2,20.9,5.8c0.9-0.9,1.9-1.8,2.8-2.7c-1.9-1.1-4.2-2.2-6.8-3.1 c4.4-0.4,8.2-1.2,11.4-2.3c0.4-0.1,0.8-0.3,1.2-0.4c3.5-3.7,6.9-7.4,10.3-11.2c-0.1,0-0.2,0-0.3,0c0-4.5-3.2-8.8-8.5-12.2 c-2-1.3-4.3-2.4-6.9-3.4c3.5-0.3,6.7-0.8,9.3-1.5c5.3-1.4,9.1-3.7,10.8-6.8c2.2,0.4,4.3,0.6,6.3,0.8c2.4,0.4,4.7,0.9,6.7,1.4 c1.3-1.7,2.5-3.4,3.7-5.1c-2.9,0.3-6.2,0.2-10-0.1c-1.8-0.3-3.7-0.6-5.8-0.8c0-1.6-0.5-3.2-1.4-4.6c-1.2-2-3.2-3.7-5.7-5.4 c-1.9-1.2-4.2-2.4-6.8-3.4c2.6-0.3,5-0.7,7.1-1.4c6.2-1.9,10.5-5.1,11.9-9.4c0,0,0-0.1,0-0.1c1.9,0.3,3.7,0.5,5.5,0.6 c6.7,1,11.9,3.1,15.4,5.5c0.6,0.5,1.2,0.9,1.8,1.4c0.7-1.1,1.3-2.1,2-3.2c-0.5-0.4-1.1-0.8-1.6-1.2c-1.5-1.1-3.3-2-5.2-2.9 c2.4-0.4,4.6-1,6.5-1.7c2.6-1,4.7-2.4,6.3-4.1c1.4-2.4,2.7-4.7,4-7.1c-0.2,0-0.5,0-0.7,0c0,0,0-0.1,0-0.1 c0.2-4.7-2.6-9.5-7.7-13.1c-2.1-1.4-4.5-2.7-7.3-3.8c4-0.6,7.5-1.6,10.2-2.9c4.7-2.1,7.8-5.2,8.8-8.6c3.9,0.2,7.2,0.6,10.2,1.3 c0.9-2,1.8-3.9,2.6-5.9c-3.4,0.7-7.6,1-12.5,0.9c-0.4-3.9-3.2-7.5-7.7-10.4c-1-0.6-2.1-1.2-3.2-1.8c9.5-2,19.4-4.5,29.9-7.7 c0,0,0.1,0.1,0.1,0.1c0.3,0.2,0.5,0.3,0.8,0.5c0.1-0.3,0.2-0.7,0.4-1c0,0,0,0,0.1,0l1.6-4.5c-0.2,0.1-3.2,1-3.4,1.1 c-84.9,25.7-132.7,10.5-173.4-16.7c-40.4-27-73.5-66.3-127.5-89.1C897.8,470.4,895.9,469.6,895.4,469.4L895.4,469.4z M935.7,494.9 c4.5,3,8.9,6.1,13.2,9.2c-2.4-0.9-5-2-7.7-3.5c-1.8-1.2-3.7-2.4-5.8-3.5l-0.1,0.2C935.5,496.6,935.6,495.8,935.7,494.9 L935.7,494.9z M933.6,500.1l-0.1,0.2c1.9,1.3,3.9,2.5,5.7,3.5c4.9,3.3,8.5,7,10.9,10.4c3.2,4.6,3.9,8.8,2.9,11.4 c-1,2.6-3.7,4.4-9.5,4.2c-5.6-0.2-13.8-2.6-24.5-8.2c1.2-3.8,0.3-8.3-2.5-12.9c-1.4-2.3-3.4-4.6-5.9-7c3.4,1,6.5,1.6,9.3,1.9 C925.9,504.2,930.8,503.1,933.6,500.1z M950.3,508.5c2.2,0.6,4.2,1.1,6.2,1.3c9.1,7,17.7,14.2,26.3,21.3c-1.3,0.2-2.7,0.3-4.4,0.2 c-5.5-0.2-12.9-2.2-21.4-6.5c0.6-3.9-0.8-8.3-3.9-12.8C952.3,510.9,951.3,509.7,950.3,508.5L950.3,508.5z M955.7,528.4 c8.5,4.4,13.6,9.3,16.1,13.5c2.5,4.3,2.3,7.8,0.4,10.4c-1.9,2.6-5.9,4.5-11.7,4.6c-5.3,0-12.2-1.5-20-5.3c0.9-1.4,1.5-3,1.6-4.8 c0.2-2.6-0.6-5.3-2.3-8.1c-1.3-2.2-3.3-4.5-5.8-6.9c3.5,1,6.7,1.5,9.4,1.6C949.2,533.7,953.6,531.8,955.7,528.4L955.7,528.4z M970.1,533.9c3,0.7,5.7,1.1,8.2,1.2c3.1,0.1,5.8-0.2,8.1-1c8.4,7,16.8,13.8,25.5,20.3c-0.1,0.2-0.2,0.3-0.3,0.5 c-1.7,2.6-5.7,4.6-11.9,4.7c-6.1,0.1-14.3-1.7-23.7-6.5c1.9-3.7,1.6-8.5-1-13.1C973.8,538,972.2,536,970.1,533.9L970.1,533.9z M974.2,556.5c8.7,4.6,14.6,9.6,17.8,14.1c3.2,4.5,3.6,8.2,2.3,10.7c-1.3,2.6-4.8,4.7-11,5.1c-5.7,0.3-13.5-0.8-23.2-4.2 c0.1-0.1,0.1-0.2,0.2-0.3c2.5-4.1,1.7-9.6-2-15c-1.6-2.4-3.8-4.8-6.5-7.2c3.1,0.7,6,1,8.7,1c5.6,0,10.3-1.6,13.3-4.4L974.2,556.5z M1014,557.9c9.2,4.3,15,9.1,17.8,13.3c3,4.3,2.9,7.8,1.1,10.4s-6.1,4.8-12.4,5c-5.9,0.2-13.5-1.2-22.3-4.9 c1.4-4,0.2-8.7-3.1-13.4c-1.5-2.1-3.4-4.2-5.7-6.2c3.8,0.9,7.3,1.3,10.5,1.3C1006.2,563.3,1011.2,561.3,1014,557.9L1014,557.9z M1035.8,570.4c8.3,4.8,17,9.1,26.4,12.6c-1.5,0.7-3.2,1.3-5.3,1.6c-5,0.8-11.7,0.2-19.9-2.6 C1038.5,578.6,1038.1,574.4,1035.8,570.4z M1066.6,584.6c5.6,1.9,11.3,3.5,17.3,4.8c0.7,0.7,1.2,1.3,1.7,2 c2.9,3.9,3.4,7.6,2.2,10.7c0,0,0,0.1,0,0.1c-0.1,0.2-0.2,0.3-0.2,0.5c-1.4,2.8-4.3,5.2-9,6.5c-4.8,1.2-11.4,1.1-19.5-1.3 c1.6-4.2,0-9.2-4.1-13.8c-1.7-1.9-3.8-3.8-6.4-5.6c3.2,0.3,6.2,0.3,8.8-0.1C1061.1,587.7,1064.2,586.4,1066.6,584.6L1066.6,584.6z M996.2,585c10.2,4.8,16.7,9.7,20,13.9c1.8,2.2,2.6,4.2,2.9,5.8c0.2,1.6-0.1,2.9-1,4c-1.8,2.3-6.2,4.1-13.1,4 c-6.4-0.1-14.8-1.9-24.5-6.1c0.2-0.7,0.3-1.4,0.3-2.1c0-2.3-0.9-4.8-2.5-7.3c-1.8-2.7-4.6-5.5-8.4-8.4c5.2,1.1,9.8,1.5,13.6,1.3 C989.3,589.7,993.7,587.9,996.2,585L996.2,585z M957,585.1c9.7,5.1,15.5,10.1,18.2,14.1c1.4,2.1,1.9,3.8,1.9,5.2 c0,1.4-0.5,2.5-1.5,3.6c-2,2.1-6.5,3.5-12.6,3.2c-5.9-0.3-13.2-2.2-21.1-6.1c1.9-3.5,1.7-8-1.2-12.5c-1.3-2.1-3.3-4.3-5.7-6.5 c3.8,1,7.2,1.6,10.3,1.7C950.1,587.9,954.1,587,957,585.1L957,585.1z M1034.8,585.2c8.3,3.4,14,7.5,17.4,11.3 c3.6,4.1,4.3,7.7,3.4,10.1c-1,2.4-3.9,4.5-9.6,4.8c-5.5,0.3-13.3-1.1-23.1-5.2c0.1-0.7,0-1.4-0.1-2.1c-0.3-2.5-1.6-5-3.6-7.6 c-1.8-2.2-4.2-4.5-7.3-6.8c3.2,0.5,6.1,0.7,8.8,0.6C1026.8,590.1,1031.7,588.3,1034.8,585.2L1034.8,585.2z M1162.8,589.2 c3.3,1,6,2.2,8.1,3.6c4.3,2.8,6.1,5.9,6,8.5c-0.1,2.6-2,5.4-7,7.7c-4.6,2.1-11.7,3.5-21.3,3.4c-0.5-3.9-2.9-7.9-6.7-11.2 c-1.8-1.6-4-3.1-6.5-4.4c3.6-0.3,6.6-0.9,9.2-2c2.3-0.9,4.2-2.2,5.6-3.6C1154.2,590.6,1158.5,590,1162.8,589.2L1162.8,589.2z M1089.6,590.5c9,1.6,18.6,2.6,28.9,2.7c0,0.2-0.1,0.4-0.1,0.6c-0.8,3.2-3.4,6.1-8.1,7.8c-4.4,1.5-10.5,1.9-18.4,0.2 C1092.7,598.2,1092,594.3,1089.6,590.5L1089.6,590.5z M1139.9,592.3c-2.9,0.7-6.5,1-10.9,0.7 C1132.5,592.9,1136.2,592.7,1139.9,592.3z M1121.6,596c7.9,1.5,13.9,4.5,17.8,7.9c4,3.5,5.8,7.4,5.5,10.7 c-0.2,3.3-2.3,6.3-7.2,8.3c-4.8,2-12.2,2.8-22.3,1.3c0.3-4.3-1.8-8.7-5.7-12.6c-1.8-1.8-3.9-3.4-6.5-4.9c3.1-0.1,5.9-0.7,8.3-1.5 C1116.6,603.3,1120.1,600,1121.6,596L1121.6,596z M1090.3,605.5c7.5,1.9,13.2,5.2,16.8,8.7c3.6,3.6,5,7.4,4.5,10.4 c-0.5,3-2.7,5.6-7.7,7.2c-4.8,1.5-12.2,1.7-22.2-0.3c1.2-4-0.3-8.6-4-12.6c-1.6-1.8-3.7-3.5-6.3-5.2c3,0,5.7-0.3,8.1-0.9 C1084.5,611.5,1088.2,608.9,1090.3,605.5L1090.3,605.5z M1021.8,609.9c9.4,4.6,15.5,9.5,18.7,14c3.4,4.7,3.7,8.5,2.1,11.3 c-1.6,2.8-5.7,5.1-12.1,5.6c-6,0.4-14.1-0.7-23.6-4.2c1.6-4.4-0.4-9.7-4.9-14.9c-1.9-2.1-4.3-4.3-7.1-6.5 c3.7,0.8,7.1,1.2,10.1,1.3c7.5,0.2,13.2-1.7,16.1-5.5C1021.4,610.6,1021.6,610.3,1021.8,609.9L1021.8,609.9z M978.8,610 c9.6,4.5,16.3,9.5,20.3,14.1c4.2,4.8,5.2,8.9,4.1,11.4c-1.1,2.5-4.7,4.5-11.7,4.4c-6.7-0.1-16.2-2.2-28.2-7.3 c1.4-3.5,0.9-7.7-1.7-11.9c-1.4-2.3-3.4-4.5-6-6.8c2.5,0.5,4.9,0.9,7.1,1c6.8,0.3,12.3-1.1,15.5-4.3 C978.4,610.4,978.6,610.2,978.8,610L978.8,610z M1057,611.1c8.7,2.8,14.6,6.5,17.9,10.2c3.3,3.7,4,7,3,9.6c-1,2.5-4,4.8-9.4,5.6 c-5.2,0.8-12.4,0.1-21.4-2.7c0.7-3.7-0.5-8-3.5-12.1c-1.8-2.5-4.3-4.9-7.4-7.4c3.8,0.7,7.2,1,10.1,0.9 C1050.9,614.9,1054.6,613.5,1057,611.1L1057,611.1z M1148.5,616.2c7.9,0.8,13.9,3,17.9,5.8c4.4,3.1,6.3,6.7,6.1,9.8 s-2.2,6.1-7.3,8.1c-3.9,1.6-9.6,2.4-17,1.9c-1.7-0.3-3.6-0.5-5.5-0.6c-0.3-3.1-2.2-6.2-5.5-8.9c-1.8-1.5-4.1-2.8-6.8-4 c3.3-0.4,6.3-1.1,8.7-2.1C1144.4,624.2,1147.7,620.5,1148.5,616.2L1148.5,616.2z M1114.5,627.8c9.9,1.6,16.6,4.5,20.4,7.5 c3.8,3.1,4.7,6,3.9,8.6c-0.9,2.6-3.9,5.3-9.4,7c-5.2,1.5-12.3,2.1-21.2,0.8c0.2-3.8-2.2-7.8-6.4-11.2c-1.6-1.3-3.6-2.6-5.9-3.8 c3.5-0.1,6.5-0.5,9.1-1.3C1109.8,633.9,1113,631.2,1114.5,627.8L1114.5,627.8z M1079.9,634.9c9,2,15.5,5.2,19.6,8.5 c4.1,3.3,5.4,6.5,4.9,8.8c-0.5,2.3-2.9,4.6-8.4,5.8c-5.2,1.1-12.9,1.1-23.1-0.9c0.4-3.7-1.6-7.8-5.4-11.6 c-1.8-1.7-3.9-3.4-6.5-5.1c3,0.2,5.7,0.1,8.2-0.2C1073.9,639.5,1077.7,637.6,1079.9,634.9L1079.9,634.9z M1045.7,637.3 c9,3.3,15.4,7.2,19.1,10.9c4,3.9,4.9,7.3,4,9.8c-0.9,2.4-4.1,4.7-10.2,5.4c-5.9,0.7-14.2,0-24.9-3.1c0.1-3.4-1.7-7.2-5.1-10.8 c-1.7-1.8-3.8-3.6-6.4-5.3c3.1,0.4,5.9,0.4,8.5,0.3C1037.8,644,1043.1,641.5,1045.7,637.3L1045.7,637.3z M1004.8,639.7 c10.2,3.8,17.2,8.3,21.1,12.4c4.1,4.3,4.8,7.8,3.6,10.2c-1.2,2.4-4.9,4.6-11.6,4.8c-6.3,0.2-15-1.3-25.7-5.5 c0.4-1.3,0.5-2.8,0.3-4.3c-0.4-2.7-1.9-5.4-4.3-8.2c-2-2.3-4.6-4.6-7.9-7c4.2,0.9,7.9,1.4,11.1,1.5 C997.5,643.8,1002.2,642.4,1004.8,639.7L1004.8,639.7z M1107.1,655.3c9.7,1.7,16.7,4.3,21.1,7c2.3,1.4,3.8,2.9,4.6,4.2 c0.8,1.3,1,2.4,0.8,3.4c-0.5,2-3.2,4.5-9,6.1c-5.5,1.5-13.4,2.1-23.7,1.3c0-3.5-2-7.1-5.7-10.2c-1.9-1.6-4.3-3.2-7.2-4.6 c3.3,0,6.2-0.3,8.7-0.8C1101.8,660.6,1105.4,658.4,1107.1,655.3L1107.1,655.3z M1071.6,660.7c10.2,2.5,17.2,5.9,21.2,9.3 c4.2,3.6,5.1,6.8,4,9.5c-1.1,2.7-4.7,5.5-11,7c-5.8,1.4-13.9,1.6-23.7,0c1.4-4.3-0.4-9.3-4.9-13.8c-1.9-1.9-4.4-3.8-7.4-5.5 c3.5,0.3,6.6,0.2,9.3-0.1C1065.1,666.3,1069.5,664.1,1071.6,660.7L1071.6,660.7z M1032.9,664c10.4,3.3,17.6,7.4,21.6,11.4 c4.2,4.2,5.1,7.8,3.8,10.6s-5.3,5.5-12.2,6.5c-6.4,0.9-15.3,0.5-26.2-2.3c1.1-3.9-0.2-8.5-3.7-12.9c-1.9-2.4-4.6-4.8-7.9-7.1 c3.7,0.6,7,0.9,9.9,0.8C1025.4,670.7,1030.7,668.3,1032.9,664C1032.8,664,1032.9,664,1032.9,664L1032.9,664z M1100.1,681.1 c9.2,1.2,16.3,3.7,21,6.7c4.9,3.1,7,6.6,6.8,9.4s-2.6,5.7-8.6,7.8c-5.8,2-14.7,3-26.9,2.1c-0.2-0.9-0.5-1.9-0.9-2.8 c-1.1-2.4-3-4.7-5.7-6.8c-2.6-2.1-6-4.2-10.2-6.1c4.2,0,7.9-0.5,11.1-1.2C1093.5,688.5,1098.3,685.4,1100.1,681.1L1100.1,681.1z M1060.1,690c11,2.8,18.7,6.5,23.3,10.3c2.4,1.9,3.9,3.8,4.7,5.5c0.8,1.7,0.9,3.1,0.4,4.3c-0.9,2.5-4.3,5.1-11,6.1 c-6.3,1-15.3,0.5-26.6-2.2c0.3-1.7,0.1-3.4-0.6-5.1c-1-2.4-2.9-4.7-5.7-6.9c-2.2-1.8-5-3.6-8.4-5.3c3.9,0.2,7.3,0.1,10.4-0.4 C1052.8,695.3,1057.4,693.2,1060.1,690z"/><path id="path4370-2-1-1-2-3-8" class="st8" d=" M1029.5,361.5c-23.1,1.3-45.7,4.2-67.1,8.6c-0.2,0.6-0.3,1.3-0.1,2c0.4,2,2.5,3.3,4.5,2.9C981.1,367.2,1007.7,365.5,1029.5,361.5z M1031.9,365.9c-0.3,0-0.5,0-0.7,0.1c-22,4.8-52,6.2-65.8,14.5c-2,0.4-3.3,2.4-2.9,4.5c0.4,2,2.5,3.3,4.5,2.8 c14-12.3,65.3-3.2,65-21.5C1031.9,366.1,1031.9,366,1031.9,365.9C1031.9,365.9,1031.9,365.9,1031.9,365.9L1031.9,365.9z M1030.7,378.9c-0.3,0-0.5,0-0.7,0.1c-21.8,4.7-47.8,5.2-65.3,14.2c-2,0.4-3.4,2.4-2.9,4.5c0.4,2,2.5,3.3,4.5,2.8 c15.8-12.3,63.1-2.4,65.1-21.5c-0.1,0-0.3,0-0.4,0C1030.9,378.9,1030.8,378.9,1030.7,378.9L1030.7,378.9z M1028.3,392.7 c-0.1,0-0.2,0-0.3,0c-0.2,0-0.4,0-0.6,0.1c-20.7,4.2-44.7,3.4-62,12.7c-2.1,0.4-3.4,2.4-3,4.4c0.4,2,2.4,3.4,4.5,2.9 c16.9-13.3,58.2-1.1,62.2-20C1028.9,392.7,1028.6,392.7,1028.3,392.7L1028.3,392.7z M1024,406.5c-0.3,0-0.5,0-0.7,0.1 c-18.5,4.1-40.3,2.6-55.6,12.3c-2,0.4-3.3,2.4-2.9,4.5c0.5,2,2.5,3.3,4.5,2.8c16.2-14.2,50.4-0.7,56.2-19.4 c-0.4-0.2-0.8-0.2-1.2-0.3C1024.2,406.5,1024.1,406.5,1024,406.5L1024,406.5z M1019.3,420.1c-0.3,0-0.5,0-0.7,0.1 c-16.1,3.3-37.7,2.2-47.2,10.5c-2,0.4-3.3,2.4-2.9,4.5c0.5,2,2.5,3.3,4.5,2.8c15.3-12.4,40.9-0.6,47.7-17.7 c-0.4-0.1-0.7-0.2-1.1-0.2C1019.5,420,1019.4,420,1019.3,420.1L1019.3,420.1z M1012.7,434.5c-0.3,0-0.7,0-1,0.1 c-12,2.8-24,0.7-35.9,8.6c-2,0.5-3.3,2.5-2.8,4.5c0.5,2,2.5,3.3,4.6,2.7c13-10.7,29.8-1.3,36.7-15.7 C1013.8,434.6,1013.2,434.5,1012.7,434.5L1012.7,434.5z M1004.2,449.7c-0.3,0-0.7,0-1,0.1c-8.2,1.9-16.3,0.2-24.5,5.8 c-2,0.5-3.3,2.5-2.8,4.5c0.5,2,2.5,3.3,4.6,2.8c11.4-5.2,19.6-2.6,25.6-12.7C1005.5,449.9,1004.9,449.7,1004.2,449.7L1004.2,449.7 z M952.9,538.8c-3.5,0-5.1,4.4-2.4,6.6c5.4,10.6,13.6,11.6,20.5,17.1c0.7,0.6,1.4,0.9,2.2,0.9c2.3-13.3-14.2-15.5-17.9-23.7 C954.7,539.1,953.8,538.8,952.9,538.8z M943.5,546.9c-3.5-0.1-5.2,4.3-2.5,6.6c5.7,10.1,19.6,17,29.4,25.5c0.5,0.4,1,0.7,1.6,0.8 c2.2-15.6-19.6-22.3-26.1-32C945.2,547.3,944.4,546.9,943.5,546.9L943.5,546.9z M932.9,554.1c-3.5-0.1-5.2,4.3-2.5,6.6 c8.6,13.6,25.5,22.1,38.3,33.2c0.4,0.4,0.9,0.6,1.4,0.8c2.6-18.9-27-26.2-34.8-39.6C934.6,554.4,933.7,554.1,932.9,554.1 L932.9,554.1z M926.2,564.6c-3.5-0.1-5.2,4.3-2.5,6.6c13.3,18.1,28.6,24.7,42.9,37.1c0.3,0.2,0.6,0.4,0.9,0.6 c2.6-19.5-29.8-29.7-38.9-43.3C927.9,565,927,564.6,926.2,564.6L926.2,564.6z M922.2,577.3c-0.2,0-0.5,0-0.7,0.1 c2.1,5.6,4.3,11.2,6.6,16.7c10.7,11.2,23.6,17.9,34.8,27.9c0.4,0.4,0.8,0.6,1.3,0.8c2.4-18.6-30.4-32.7-39.3-44.6 c-0.7-0.6-1.5-0.9-2.4-1C922.4,577.3,922.3,577.3,922.2,577.3L922.2,577.3z M932.6,604.5c2.2,4.9,4.5,9.8,6.9,14.6 c7.2,5.3,14.7,10.7,20.5,15.6c0.2,0.2,0.5,0.4,0.7,0.5C966,620.8,941.6,612,932.6,604.5z M945.1,629.8c3,5.6,6.2,11.1,9.4,16.5 l0.9,0.8c0.6,0.6,1.4,0.9,2.2,1c-0.5-0.9-0.5-2-0.2-3C961.2,637.7,949.9,633.3,945.1,629.8z"/><path id="path3383-8-2-3-2-6-10-9-4" class="st9" d=" M966.8,372.3c-0.2-0.1-0.3-1.2-0.1-2.4c0-0.2,0-0.4,0.1-0.7c-1.7,0.3-3.3,0.6-4.9,1c-0.1,0.6-0.2,1.2-0.3,1.7 c-0.7,10.6-1.1,22.8-0.4,32.3c0.3,5,0.4,11.4,0.2,13c0.3,7.4,0.8,17.3,1.3,24.5c0.6,8.5,0.8,13.7,2.6,21.7 c0.5,2.5,3.3,10.9,3.1,11.5c-0.2,0.6,0.8,2.3,2.3,4c1.6,1.8,3.8,2.6,4.3,1.6c0.2-0.3,0.3-1.6,0.2-2.7c-0.1-1.7,0.1-2.7,1-5.1 c2-3.7,2.3-7.1,3-10c0.7-3.2,0.8-4.2,0.3-5.9c-0.5-3.4-1.6-7-2.8-10.1c-2-6.5-4.4-12.8-6.9-19.2l-2.1-7.5 c-1.2-7.4-0.9-15.3-1.7-22.3C965.8,388.9,966.2,380.8,966.8,372.3L966.8,372.3z M955.7,522.7c-0.4,0-0.9,0.1-1.5,0.3 c-0.7,0.2-1.4,0.8-1.5,1.3c-0.2,0.5-0.9,1.3-1.6,1.8c-0.7,0.5-1.8,1.4-2.3,2s-1.7,1.8-2.5,2.6c-3.4,3.7-6.9,8.4-9.2,11.2 c-2.4,2.8-5.8,7.6-8,11.1c-0.6,1-1.6,2.5-2.2,3.4c-0.6,0.8-1.7,2.8-2.4,4.3c-1.6,3.4-3.5,6.9-5.3,10c1,2.8,2,5.5,3,8.2 c3.3-19.6,22-24.8,30-34.7c2.5-4.4,4.5-8.7,5.3-13.4C957.3,528.8,957.4,522.8,955.7,522.7L955.7,522.7z"/><path id="path4382-9-8-3-3-9-0-2-2" class="st10" d="M1087.9,422.2 l-8.5,6C1083.7,434.2,1089.8,427.3,1087.9,422.2z"/><radialGradient id="path4905-6-9-5-7-1-3_1_" cx="2056.6824" cy="615.6933" r="165.6358" gradientTransform="matrix(0.3112 0 0 -0.3112 325.9597 692.5752)" gradientUnits="userSpaceOnUse"><stop offset="0" style="stop-color:#FF0000"/><stop offset="1" style="stop-color:#FF0000;stop-opacity:0"/></radialGradient><circle id="path4905-6-9-5-7-1-3" class="st11" cx="965.9" cy="501" r="38.1"/><path id="path3428-8-8-7-6-5-7-1-9-1" class="st12" d=" M943.7,479.9c-8.7,11-7.5,25.8-3.5,32.4c1.7,2.9,3.9,6.2,6.2,8.6c2.8,2.4,6.4,4.6,9.4,6.7c4.4,2.2,10.6,0.6,15.3,0.1 c3.3-0.1,5.2,1.6,8.9-2.8c2.5-1.4,4.4-2.2,6.3-4.5c2.4-3.9,3.9-7.7,6.5-11.4c1.3-2.8,1.9-7.5,1.8-10.6c-0.6-5.4-1.7-9.6-5.4-13.5 c-2-2.1-4.7-6.6-7.4-8C964.5,465.1,953.7,469.8,943.7,479.9z"/><radialGradient id="path3398-7-5-3-9-2-8-9-3-6_1_" cx="3051.8645" cy="522.887" r="73.8765" gradientTransform="matrix(0.4137 0 0 -0.4206 -297.2195 720.0023)" gradientUnits="userSpaceOnUse"><stop offset="0" style="stop-color:#000000"/><stop offset="0.6" style="stop-color:#000000"/><stop offset="1" style="stop-color:#800000"/></radialGradient><path id="path3398-7-5-3-9-2-8-9-3-6" class="st13" d=" M953.9,528.1c-5.7-3.2-8.4-5.5-12.1-10.1c-5.3-6.4-7.9-16.9-6.6-24c2.7-14,14.6-24.5,28-25.1c14-0.6,24,7.6,27.3,12.3 c9.6,13.8,5.9,33.6-5.6,42.7C972.4,534,960.1,531.6,953.9,528.1z M974.6,526c-6.1-5.1,4.5-17.2,9.7-15.3 c-2.1,2.2-13.1,7.6-7.3,14.2c10.9-3.5,16.7-17.5,16.1-26.7c-1.8-11.5-11.8-28-28.1-24.4c-3.1,0.7-8.4,4.2-6.1,7.5 c4.1,5.9,14.3,10.4,17.1,16.7c4.9,11-4.8,16.9-12.5,14.2c-3.5-1.2-8.9-4.1-9.7-7.6c-2.1-9,7.6-10.1,6.8-5.4 c-4.5,0.3-6.9,4.1-3.5,6.8c1.4,1.1,6.4,4.1,9,4.3c10.7,1.2,9.8-6.5,7.8-11.1c-3.8-8.9-20.7-14.5-17.2-22.3 c1.3-2.5,1.7-3.6,1.4-3.5c-13.1,6.3-18.3,13.6-19,26.4c5.6,2.2,12.5,6.2,15.2,12.4c0.6,1.5,0.7,2.2,0.2,3.2 c-3.6-3.7-9-12.8-16-11.7C941.1,514.9,955.8,531.9,974.6,526L974.6,526z"/><path id="path3424-0-4-10-4-2-6" class="st14" d="M890.6,393.2 c0,143.1,49.9,286.3,171.3,364.1c121.4-77.8,171.2-221,171.2-364.2C1139.7,349.5,980.9,349.5,890.6,393.2L890.6,393.2z"/><g id="g3409-4-9-9-6-5" transform="matrix(1.0984023,0,0,1.0984023,-455.51438,682.30783)"><path id="path3435-9-9-9-38-2" class="st15" d="M1381.4-367.1 c-51.9,38.8-120.9,64.8-181.3,90.6c0,253.3,181.3,375.5,181.3,375.5s181.2-122.3,181.2-375.5 C1502.2-302.4,1433.2-328.3,1381.4-367.1z M1381.4-289.5c51.8,0,103.5,12.9,142.4,38.8c0,207.1-142.4,310.8-142.4,310.8 S1239-43.5,1239-250.6C1277.8-276.5,1329.6-289.5,1381.4-289.5z"/><path id="path3437-3-8-5-9-3" class="st16" d="M1381.4-367.1c-51.9,38.8-120.9,64.8-181.3,90.6 c0,253.3,181.3,375.5,181.3,375.5s181.2-122.3,181.2-375.5C1502.2-302.4,1433.2-328.3,1381.4-367.1z M1381.4-364 c51.6,38.3,119.3,63.8,178.6,89.2c-0.8,244.9-170.6,365-178.6,370.6c-8.1-5.5-177.9-125.7-178.7-370.6 C1262.2-300.2,1329.8-325.8,1381.4-364z M1381.4-292.1c-52.2,0-104.5,13-143.9,39.3l-1.2,0.8v1.4 c0,208.4,143.5,312.9,143.5,312.9l1.6,1.1l1.5-1.1c0,0,143.5-104.5,143.5-312.9v-1.4l-1.2-0.8 C1485.8-279.1,1433.6-292.1,1381.4-292.1L1381.4-292.1z M1381.4-289.5c51.8,0,103.5,12.9,142.4,38.8 c0,207.1-142.4,310.8-142.4,310.8S1239-43.5,1239-250.6C1277.8-276.5,1329.6-289.5,1381.4-289.5z"/><path id="path3439-7-7-2-1-8" class="st17" d="M1381.4-357.6c-51.2,37-116,62-173.4,86.3 c2.2,228.4,151.8,345,173.4,360.8c21.7-15.7,171.1-132.4,173.3-360.8C1497.4-295.7,1432.5-320.6,1381.4-357.6z M1381.4-297.1 c53,0,106.2,13.1,146.7,40.1l3.4,2.3v4.2c0,210.7-145.6,317.1-145.6,317.1l-4.6,3.3l-4.6-3.3c0,0-145.7-106.3-145.7-317.1v-4.2 l3.5-2.3C1275.2-284,1328.3-297.1,1381.4-297.1L1381.4-297.1z"/><path id="path3441-8-0-1-9-5" class="st18" d="M1381.4-357.6c-51.2,37-116,62-173.4,86.3 c2.2,228.4,151.8,345,173.4,360.8c21.7-15.7,171.1-132.4,173.3-360.8C1497.4-295.7,1432.5-320.6,1381.4-357.6z M1381.4-353 c50.6,36,113.5,60.5,169.4,84.2c-3.2,220.2-143.6,334.2-169.4,353.3c-25.8-19.1-166.2-133.1-169.5-353.3 C1267.8-292.5,1330.7-316.9,1381.4-353L1381.4-353z M1381.4-301c-53.8,0-107.6,13.2-149,40.8l-5.1,3.5v6.2 c0,212.5,147.2,320.2,147.2,320.2l0,0l6.9,5l6.8-5l0,0c0,0,147.2-107.7,147.2-320.2v-6.2l-5.1-3.5 C1488.9-287.8,1435.1-301,1381.4-301L1381.4-301z M1381.4-297.1c53,0,106.2,13.1,146.7,40.1l3.4,2.3v4.2 c0,210.7-145.6,317.1-145.6,317.1l-4.6,3.3l-4.6-3.3c0,0-145.7-106.3-145.7-317.1v-4.2l3.5-2.3 C1275.2-284,1328.3-297.1,1381.4-297.1L1381.4-297.1z"/><path id="path3443-2-0-5-2-1" class="st16" d="M1381.4-343.2c-8.3,0-15,6.7-15,14.9 c0,7.6,5.7,13.6,13,14.6v24.3c0.7,0,1.3,0,1.9,0c0.6,0,1.2,0,1.8,0v-24.3c7.3-1,13-7,13-14.6 C1396.3-336.5,1389.6-343.2,1381.4-343.2z M1381.4-339.3c6.1,0,11,4.9,11,11c0,6.1-4.9,11-11,11s-11.1-4.9-11.1-11 C1370.4-334.4,1375.3-339.3,1381.4-339.3z M1433.2-330.2c-8.2,0-14.9,6.7-14.9,14.9c0,7.6,5.7,13.6,13,14.6v15.4 c1.3,0.2,2.4,0.4,3.7,0.7v-16.1c7.3-1,13-7,13-14.6C1448.1-323.5,1441.4-330.2,1433.2-330.2z M1433.2-326.4c6.1,0,11,4.9,11,11 c0,6.1-4.9,11.1-11,11.1s-11-5-11-11.1C1422.2-321.5,1427.1-326.4,1433.2-326.4z M1329.6-317.3c-8.2,0-14.9,6.7-14.9,15 c0,7.5,5.7,13.6,13,14.6v3.1c1.3-0.3,2.5-0.5,3.8-0.7v-2.4c7.3-1,13-7.1,13-14.6C1344.5-310.6,1337.8-317.3,1329.6-317.3z M1329.6-313.4c6.1,0,11.1,5,11.1,11.1c0,6.1-5,11-11.1,11c-6.1,0-11-4.9-11-11C1318.6-308.5,1323.5-313.4,1329.6-313.4z"/><path id="path3445-5-1-4-9-8" class="st18" d="M1381.4-341.9c-7.6,0-13.6,6.1-13.6,13.6 c0,7.3,5.7,13.3,13,13.6v25.2c0.2,0,0.4,0,0.6,0c0.2,0,0.4,0,0.6,0v-25.2c7.2-0.3,13-6.3,13-13.6 C1395-335.8,1388.9-341.9,1381.4-341.9z M1381.4-340.6c6.8,0,12.2,5.5,12.2,12.3c0,6.8-5.4,12.3-12.2,12.3 c-6.8,0-12.3-5.5-12.3-12.3C1369.1-335.1,1374.6-340.6,1381.4-340.6z M1433.2-329c-7.5,0-13.6,6.1-13.6,13.6 c0,7.4,5.8,13.3,13,13.6v16.6c0.4,0.1,0.8,0.2,1.2,0.2v-16.8c7.2-0.3,13-6.2,13-13.6C1446.8-322.9,1440.7-329,1433.2-329 L1433.2-329z M1433.2-327.6c6.8,0,12.3,5.4,12.3,12.2c0,6.8-5.5,12.3-12.3,12.3c-6.8,0-12.3-5.5-12.3-12.3 C1420.9-322.2,1426.4-327.6,1433.2-327.6z M1329.6-316c-7.5,0-13.6,6-13.6,13.6c0,7.3,5.8,13.2,13,13.5v3.9 c0.4,0,0.8-0.1,1.2-0.2v-3.7c7.3-0.3,13-6.2,13-13.5C1343.2-309.9,1337.2-316,1329.6-316L1329.6-316z M1329.6-314.7 c6.8,0,12.3,5.5,12.3,12.3c0,6.8-5.5,12.2-12.3,12.2c-6.8,0-12.2-5.4-12.2-12.2C1317.3-309.2,1322.8-314.7,1329.6-314.7 L1329.6-314.7z"/></g><circle id="path3638-1" cx="1082.3" cy="427.2" r="1.9"/></g></g></svg> 