<?xml version="1.0" encoding="utf-8"?><svg version="1.1" id="Layer_1" xmlns="http://www.w3.org/2000/svg" xmlns:xlink="http://www.w3.org/1999/xlink" x="0px" y="0px" viewBox="0 0 512 512" style="enable-background:new 0 0 512 512;" xml:space="preserve"><style type="text/css"> .st0{fill:#5E5E5E;} .st1{fill:#FEFEFE;} </style><g><path d="M2.7,122.5c1.8,2.5,3.5,4.6,5.4,6.6c8.1,8.4,17.6,15,27.8,20.5c12.5,6.8,25.7,11.9,39.4,15.8c9.1,2.6,18.2,4.7,27.5,6.4 c6,1.1,12,2,18,2.8c4.3,0.6,8.6,0.9,12.9,1.4c6.2,0.7,12.5,0.7,18.7,2.3c7.7,2,13.6,6.2,17.8,12.9c3.1,5,6.1,10.1,9.7,14.8 c7,9.2,16,16,26.4,21.1c1.5,0.7,3,1.3,4.4,2.1c1.4,0.8,2.3,0.5,3.4-0.6c6.3-5.9,13.5-10.2,21.7-13c6.6-2.3,13.4-3.6,20.3-3.5 c15.6,0.4,29.6,5.4,41.3,16.1c1.5,1.3,2.5,1.6,4.4,0.8c9.6-4.3,18.3-9.8,25.6-17.4c3.8-4,7-8.5,9.9-13.2c2.2-3.5,4.3-7.2,6.9-10.5 c3.9-5.1,9.2-8,15.3-9.6c4.4-1.2,8.9-1.5,13.4-1.9c4.2-0.3,8.4-0.8,12.7-1.2c4.4-0.5,8.8-1,13.2-1.7c7-1.1,14-2.3,21-3.9 c11-2.4,21.8-5.4,32.4-9.3c14.2-5.2,27.8-11.8,40-20.9c6.5-4.8,12.4-10.2,17.2-16.8c0.4,1-0.1,1.9-0.2,2.8 c-0.1,0.9-0.4,1.8-0.6,2.7c-2.5,10.1-8,18.3-15.5,25.4c-8.2,7.7-17.9,13.2-28.2,17.6c-10.5,4.5-21.4,7.8-32.5,10.3 c-5.7,1.3-11.5,2.4-17.2,3.3c-4.3,0.7-8.7,1.2-13.1,1.7c-6.7,0.8-13.5,0.6-20.2,1c-12.1,0.8-23.6,3.3-33.8,10.4 c-3.2,2.2-5.9,4.9-8.5,7.8c-7,7.5-15.1,13.8-24,19c-4.3,2.5-8.7,4.8-13.3,6.6c-0.8,0.3-0.9,0.5-0.3,1.2c8,8.8,13.1,19.1,15.1,30.8 c3,17.9-1,34.1-12.1,48.4c-9.7,12.6-22.6,20.3-38.2,23c-19.8,3.3-37.3-1.8-52.2-15.1c-11.6-10.3-18.2-23.4-19.9-38.8 c-2-18.3,3.3-34.3,15.5-48.1c0.7-0.8,0.7-1-0.3-1.5C195,225,182,216,171.2,204.1c-6.3-6.9-14.2-11.1-23.1-13.7 c-5-1.5-10.1-2.3-15.4-2.7c-4.6-0.3-9.1-0.4-13.7-0.5c-3.7-0.1-7.4-0.5-11.1-1c-3.8-0.5-7.7-1-11.5-1.6c-5.7-0.9-11.3-1.9-16.9-3.2 c-11.4-2.6-22.6-6-33.4-10.8c-8.3-3.7-16.3-8.1-23.3-13.9c-9.3-7.6-16.3-16.8-19.2-28.7C3.2,126.3,2.8,124.6,2.7,122.5z"/><path class="st0" d="M58.9,215.2c1.8,0.7,3.5,1.3,5.2,2c0.4,0.2,0.6,0.4,0.5,0.9c-0.7,3.8-1.4,7.7-1.9,11.6 c-0.4,2.9-0.6,5.9-0.9,8.9c-0.6,6.3-0.9,12.7-0.8,19c0.1,5.7,0.4,11.4,1,17c0.7,6.8,1.6,13.5,3,20.2c1.3,6.6,3,13,5.1,19.4 c2.9,8.9,6.3,17.7,10.4,26.1c3.4,7.1,7.3,14,11.6,20.6c4,6.3,8.5,12.3,13.2,18.1c2.7,3.3,5.5,6.5,8.4,9.5c1.5,1.6,3,3.2,4.5,4.8 c7.7,7.5,15.8,14.6,24.6,20.8c6.3,4.4,12.7,8.5,19.5,12.2c9.6,5.3,19.5,9.6,29.8,13.3c8.4,2.9,16.9,5.2,25.6,7 c4.7,1,9.4,1.7,14.2,2.2c5.9,0.7,11.7,1.1,17.6,1.4c3.7,0.2,7.5,0.2,11.2,0.1c4.9-0.2,9.9-0.4,14.8-0.9c4.9-0.5,9.9-1.1,14.7-2 c6.4-1.1,12.8-2.6,19.1-4.4c7.4-2.1,14.7-4.6,21.8-7.5c6.5-2.7,12.8-5.7,19-9.1c5.7-3.2,11.3-6.5,16.7-10.3 c4.9-3.4,9.6-7,14.2-10.8c5-4.1,9.7-8.4,14.2-13c7.2-7.4,13.9-15.2,19.9-23.7c5.3-7.5,10.1-15.2,14.3-23.4 c4.5-8.6,8.3-17.5,11.5-26.7c3-8.6,5.3-17.4,7.1-26.4c1.1-5.8,1.9-11.7,2.5-17.6c0.4-4.3,0.6-8.5,0.8-12.8 c0.2-3.6,0.3-7.2,0.1-10.8c-0.2-5-0.4-10-0.9-15.1c-0.7-6.2-1.4-12.3-2.7-18.4c-0.1-0.5,0.2-0.7,0.6-0.9c1.5-0.5,3-1,4.5-1.7 c0.6-0.3,0.8,0,0.9,0.5c0.8,4.4,1.6,8.8,2.1,13.2c0.8,6.6,1.3,13.3,1.6,20c0.3,5.8,0.1,11.6-0.2,17.3c-0.2,6.1-0.9,12.1-1.8,18.1 c-1.2,8.2-2.9,16.3-5.1,24.3c-2.2,8.1-4.9,16-8.1,23.8c-3.2,7.6-6.8,15.1-10.9,22.3c-4.5,7.9-9.5,15.4-15,22.7 c-3,3.9-6.2,7.7-9.4,11.4c-4.2,4.8-8.6,9.2-13.2,13.6c-4.6,4.4-9.6,8.5-14.6,12.4c-7.1,5.5-14.6,10.5-22.3,15 c-6.6,3.8-13.3,7.2-20.3,10.2c-6.2,2.7-12.5,5.1-18.9,7.2c-7.3,2.3-14.7,4.2-22.2,5.7c-4.6,0.9-9.2,1.7-13.9,2.3 c-4.2,0.5-8.5,0.9-12.8,1.2c-5.6,0.3-11.3,0.6-16.9,0.4c-5.5-0.2-10.9-0.4-16.4-1c-13.2-1.5-26.2-4-39-8 c-7.7-2.4-15.2-5.3-22.5-8.5c-11.5-5.1-22.3-11.3-32.6-18.4c-5.1-3.5-9.9-7.3-14.7-11.3c-5.2-4.4-10.2-9.1-15-13.9 c-4.2-4.3-8.1-8.8-11.9-13.4c-4.9-5.9-9.3-12.1-13.4-18.5c-2.9-4.5-5.5-9.1-8.1-13.8c-5.7-10.6-10.3-21.6-14-33.1 c-2.3-7.3-4.2-14.7-5.7-22.2c-1.1-5.3-1.9-10.7-2.5-16.1c-0.4-3.5-0.7-7-0.9-10.6c-0.3-5.6-0.6-11.3-0.4-16.9 c0.2-5.6,0.4-11.1,1-16.6C56.7,227.9,57.6,221.6,58.9,215.2z"/><path class="st0" d="M432.8,158.6c0,0.4-0.3,0.5-0.6,0.6c-1.4,0.4-2.8,0.6-4.1,1.1c-0.8,0.3-1.2,0.1-1.6-0.7 c-2.6-4.7-5.4-9.3-8.5-13.7c-4.1-5.9-8.4-11.7-13.1-17.2c-3.7-4.3-7.5-8.5-11.5-12.4c-7.4-7.2-15.2-13.9-23.7-19.9 c-7.5-5.3-15.3-10.1-23.4-14.3c-8.3-4.4-17-8-25.8-11.2c-8.4-3-17-5.3-25.7-7c-4.7-1-9.4-1.7-14.1-2.2c-6-0.7-11.9-1.1-17.9-1.4 c-5.8-0.3-11.7-0.1-17.5,0.2c-6.7,0.3-13.4,1-20,2.1c-9.6,1.6-19.1,3.8-28.3,6.8c-7.3,2.3-14.4,5.1-21.4,8.2 c-8.5,3.8-16.6,8.3-24.4,13.3c-6.9,4.4-13.4,9.2-19.6,14.4c-3.5,2.9-6.7,5.9-10.1,9c-3.1,2.8-6,5.9-8.8,9 c-5.4,5.8-10.5,12-15.1,18.5c-4,5.7-7.9,11.5-11.2,17.7c-0.5,1-1.1,1.4-2.3,1c-1.2-0.4-2.4-0.8-3.6-1c-0.9-0.1-0.9-0.4-0.5-1.1 c1.5-2.5,2.9-5.1,4.4-7.6c3.5-5.9,7.5-11.6,11.7-17.1c3-3.9,6.2-7.7,9.5-11.5c3.5-4,7.3-7.8,11.1-11.6c5.3-5.2,11-10,16.8-14.5 c7.1-5.5,14.6-10.5,22.3-15c6.4-3.7,13-7.1,19.8-10c6.3-2.7,12.7-5.2,19.3-7.3c7.3-2.4,14.8-4.2,22.3-5.7 c5.3-1.1,10.7-1.9,16.1-2.5c3.5-0.4,7-0.7,10.6-0.9c5.7-0.3,11.4-0.6,17.1-0.4c5.4,0.2,10.8,0.4,16.2,1c10.6,1.1,21.1,3,31.4,5.8 c8.4,2.3,16.7,5.1,24.7,8.4c5,2.1,9.9,4.3,14.7,6.8c9.4,4.9,18.4,10.4,27,16.7c5.2,3.8,10.1,7.8,14.9,12c4.8,4.2,9.3,8.6,13.7,13.3 c6.5,7,12.6,14.4,18,22.3c3.9,5.6,7.5,11.4,10.8,17.3C432.5,157.8,432.6,158.2,432.8,158.6z"/><path class="st0" d="M378.4,196.1c1.7,0.1,3.5,0.1,5.2,0.3c3.4,0.3,6.9,0.4,10.3,0.6c6.1,0.3,12.1,0.3,18.2,0.1 c5-0.1,9.9-0.6,14.9-1.2c8.3-1,16.4-2.8,24.2-5.6c8.2-2.9,15.8-6.9,22.6-12.4c1.2-1,2.2-2.2,3.8-2.7c1-0.3,1.7,0,2.3,0.7 c0.7,0.9,0.6,1.8-0.1,2.6c-2.2,2.4-4.7,4.4-7.4,6.2c-7.9,5.1-16.7,8.2-25.7,10.4c-5.5,1.3-11,2.3-16.7,2.8 c-3.9,0.4-7.8,0.6-11.8,0.8c-3.8,0.2-7.5,0.2-11.3,0.1c-5.5-0.2-11-0.5-16.5-1c-3.9-0.4-7.8-0.9-11.7-1.3c-0.1,0-0.2-0.1-0.3-0.2 C378.4,196.3,378.4,196.2,378.4,196.1z"/><path class="st0" d="M134.1,196.4c-1.9,0.2-3.6,0.5-5.3,0.7c-3,0.3-6.1,0.7-9.1,1c-2.8,0.3-5.7,0.5-8.5,0.6 c-4.9,0.1-9.7,0.5-14.6,0.2c-5.4-0.3-10.9-0.6-16.3-1.2c-8.8-1-17.3-2.9-25.6-5.8c-6.9-2.4-13.3-5.7-19-10.2c-1.1-0.9-2.1-2-3.1-3 c-0.7-0.8-0.8-1.7-0.1-2.6c0.6-0.8,1.4-1.1,2.4-0.7c1.5,0.6,2.5,1.7,3.7,2.7c5.2,4.1,10.9,7.4,16.9,10.1c5.4,2.4,11,4.2,16.7,5.5 c4.3,1,8.6,1.7,12.9,2.3c10.1,1.4,20.2,1.4,30.3,1.2c5.6-0.1,11.3-0.4,16.9-0.9C132.7,196.1,133.4,195.9,134.1,196.4z"/><path class="st0" d="M150.7,204c-3.4,1.2-6.7,2.2-10,3.1c-5.8,1.6-11.7,3-17.7,4.1c-4.5,0.8-9.1,1.5-13.7,2 c-6.2,0.6-12.4,1.2-18.6,0.9c-8.5-0.3-16.9-1.4-24.9-4.4c-3.3-1.2-6.3-2.8-9.3-4.6c-0.3-0.2-0.6-0.5-0.9-0.8 c-0.7-0.8-1.2-1.6-0.5-2.7c0.6-0.8,1.8-1,2.9-0.4c4.7,2.8,9.6,4.9,14.9,6.4c4.1,1.2,8.3,2,12.6,2.6c7.2,1,14.4,0.9,21.6,0.7 c4.2-0.1,8.3-0.7,12.5-1.2c7.4-1,14.6-2.3,21.8-4c2.7-0.6,5.3-1.3,7.9-2C149.8,203.8,150.2,203.7,150.7,204z"/><path class="st0" d="M361.6,203.8c0.4-0.4,0.8-0.3,1.1-0.2c5.8,1.6,11.6,2.9,17.4,4.1c4.8,0.9,9.6,1.6,14.4,2.2 c8.2,1.1,16.5,1.3,24.8,0.9c8.7-0.4,17.1-1.9,25.3-5.1c3.2-1.2,6.3-2.6,9.2-4.5c1.6-1.1,3.4-0.5,3.6,1.1c0.1,1.3-0.8,2-1.7,2.6 c-5.6,3.6-11.8,5.8-18.3,7.2c-7.4,1.5-15,2.1-22.5,1.8c-6.7-0.3-13.3-0.9-19.9-2c-9.2-1.4-18.2-3.5-27.1-6.1 C365.8,205.2,363.7,204.5,361.6,203.8z"/><path class="st0" d="M354.3,212.9c1-0.2,1.9,0.4,2.7,0.7c7.6,2.9,15.3,5.4,23.2,7.2c4.6,1.1,9.3,1.8,14,2.3 c4.7,0.5,9.5,0.7,14.2,0.4c7.9-0.4,15.7-1.8,23.1-4.6c0.9-0.3,1.9-0.7,2.9-0.2c0.6,0.3,1.1,0.9,1,1.6c-0.2,1.1-1,2-2.1,2.3 c-1.8,0.6-3.6,1.1-5.5,1.6c-5.3,1.3-10.6,2.1-16.1,2.4c-5.8,0.4-11.6-0.1-17.4-0.8c-10.6-1.4-20.7-4.6-30.6-8.5 C360.6,216,357.4,214.6,354.3,212.9z"/><path class="st0" d="M158,212.9c-2.3,1.4-4.7,2.3-7.1,3.3c-4.8,2-9.7,3.9-14.7,5.4c-6,1.9-12.2,3.3-18.4,4.2 c-5.2,0.7-10.3,1.1-15.6,0.9c-7.9-0.3-15.7-1.6-23.2-4.1c-0.1,0-0.2,0-0.3,0c-1.2-0.5-2.2-1.9-1.9-2.7c0.4-1.3,1.6-1.7,3.3-1.1 c5.1,1.7,10.3,3.2,15.6,3.9c6.2,0.9,12.3,1.1,18.6,0.7c3.6-0.2,7.2-0.6,10.8-1.2c4.1-0.6,8.2-1.6,12.3-2.7 c6.7-1.8,13.3-4.1,19.8-6.6C157.4,212.8,157.7,212.7,158,212.9z"/><path class="st0" d="M168.6,220.8c-2.1,1.4-4.4,2.4-6.6,3.6c-9.4,4.7-19.1,8.5-29.4,10.8c-4.1,0.9-8.4,1.5-12.6,1.8 c-5.8,0.4-11.4-0.2-17-1.4c-0.1,0-0.3,0-0.4-0.1c-1.5-0.5-2.3-1.5-2-2.6c0.3-1.2,1.7-1.9,3.1-1.4c6.8,2.1,13.8,2.4,20.8,2 c5.5-0.3,10.8-1.3,16.1-2.7c8.2-2.2,16-5.3,23.7-8.6c1.1-0.5,2.2-0.9,3.3-1.4C167.9,220.6,168.2,220.6,168.6,220.8z"/><path class="st0" d="M343.7,220.6c1.6,0.2,2.9,1,4.3,1.6c8.8,3.7,17.7,7.2,27,9.4c3.5,0.8,7.1,1.4,10.8,1.7 c3.8,0.4,7.5,0.4,11.3,0.2c3.8-0.2,7.6-0.9,11.3-1.9c0.3-0.1,0.6-0.1,0.9-0.2c1.2-0.1,2.3,0.5,2.5,1.5c0.2,1.1-0.3,1.9-1.4,2.3 c-2,0.7-4.1,1.1-6.2,1.3c-3.1,0.4-6.2,0.7-9.3,0.5c-7.1-0.3-14.1-1.4-21-3.4c-9.6-2.8-18.8-6.8-27.6-11.4c-0.8-0.4-1.5-0.9-2.3-1.3 C343.8,221,343.8,220.8,343.7,220.6z"/><path class="st0" d="M178.6,228.7c-2.6,1.7-4.8,3.4-7.1,4.8c-5.1,3.2-10.4,5.9-16.1,7.8c-5.1,1.7-10.4,2.7-15.8,3 c-3.1,0.2-6.1,0.1-9.2-0.1c-0.8,0-1.5-0.3-2.1-0.9c-0.5-0.5-1-1-0.7-1.8c0.3-0.9,1-1.3,1.9-1.4c0.8,0,1.6,0.1,2.5,0.2 c2.6,0.3,5.2,0.6,7.8,0.6c5.1-0.1,10-0.9,14.9-2.3c6-1.7,11.7-4.1,17.3-7c1.6-0.8,3.1-1.7,4.7-2.6 C177.2,228.9,177.6,228.5,178.6,228.7z"/><path class="st0" d="M333.9,228.6c0.9,0,1.5,0.5,2.1,0.8c7.8,4.5,16,8,24.8,10.1c4.8,1.1,9.7,1.7,14.7,1.4c2.1-0.1,4.2-0.6,6.3-0.7 c1.7-0.1,2.9,0.7,2.9,1.8c0,1-1.5,2.3-2.9,2.3c-3.1,0.2-6.2,0.3-9.3,0c-4.3-0.3-8.4-1-12.5-2.1c-9.5-2.6-17.7-7.5-25.6-13.1 C334.1,229,334.1,228.8,333.9,228.6z"/><path class="st0" d="M189.6,234.2c-0.7,1.2-1.9,1.7-2.9,2.5c-6.6,4.8-13.7,8.4-21.8,9.9c-2.1,0.4-4.3,0.6-6.5,0.6 c-0.6,0-1.1-0.2-1.6-0.5c-0.8-0.3-1.1-1.1-1.2-1.8c0-0.7,0.6-1.3,1.3-1.6c0.7-0.3,1.3-0.4,2.1-0.3c7.1,0.9,13.8-0.1,20.3-3.2 c3.3-1.5,6.4-3.5,9.4-5.4C189,234.3,189.2,233.9,189.6,234.2z"/><path class="st0" d="M322.7,234c1.3,0.8,2.4,1.5,3.5,2.2c5,3.3,10.5,5.8,16.4,6.8c3.4,0.6,6.9,0.6,10.3,0.1c0.3-0.1,0.7-0.1,1.1,0 c1.3,0.1,2.6,1,2.6,1.9c0,1.1-1.3,2.2-2.7,2.2c-3.1,0-6.1-0.4-9.1-1.1c-8.1-1.9-15.1-6-21.6-11C323.1,234.8,322.7,234.6,322.7,234z "/><path class="st0" d="M202.1,237.6c-2.1,2.1-4.2,3.9-6.7,5.3c-4.5,2.8-9.3,4.3-14.7,4.1c0,0-0.1,0-0.1,0c-1.7-0.1-3.1-0.9-3-1.9 c0.1-1.1,1.8-1.9,3.4-1.7c3.5,0.4,6.9,0.5,10.4-0.3c3.6-0.8,6.6-2.8,9.5-5.1C201.3,237.8,201.4,237.4,202.1,237.6z"/><path class="st0" d="M310.7,237.2c0.9,0.7,1.9,1.4,2.8,2.1c3.8,3,8.2,4.2,13,4.3c1.6,0,3.1-0.1,4.7-0.3c0.8-0.1,1.5,0,2.2,0.2 c0.8,0.2,1.4,0.7,1.4,1.5c0,0.8-0.6,1.4-1.3,1.6c-1.4,0.5-2.8,0.4-4.3,0.3c-5.5-0.5-10.4-2.5-14.7-5.9c-1.4-1.1-2.8-2.1-4-3.5 C310.6,237.4,310.7,237.3,310.7,237.2z"/><path class="st1" d="M313.7,272.4c-0.1,10.2-2.8,19.8-7.9,28.6c0,0.1-0.1,0.1-0.2,0.2c-0.5,0.5-1,0.1-1.4-0.2 c-4.3-2.8-6.7-6.9-7.1-12c-0.3-3.9,1.7-6.3,5.5-7.1c0.4-0.1,0.9-0.1,1.3-0.2c1.3-0.3,1.6-0.8,0.9-2c-0.8-1.4-2.1-1.9-3.5-1.9 c-3,0-5.3,2.2-5.4,5.3c0,0.3,0,0.5,0,0.8c-0.1,0.4-0.1,0.7-0.5,0.8c-0.5,0.1-0.7-0.2-0.9-0.6c-0.6-1.1-0.8-2.2-1.1-3.4 c-1.3-4.8-2-9.6-0.7-14.5c0.7-2.7,2-5,4.7-6.2c3.3-1.4,7.2-0.1,8.7,3c0.6,1.3,0.7,2.8-0.1,4.5c2.2-3.8,2.6-7.4,0-10.8 c-5-6.8-14.3-7.1-19.8-0.5c-3.5,4.2-4.1,9-3,14.1c1.3,5.7,4.1,10.7,7.4,15.5c2.7,3.8,5.6,7.4,8.9,10.8c0.1,0.1,0.2,0.3,0.3,0.4 c1,1.2,0.9,1.7-0.6,2c-2.5,0.5-4.3,1.9-5.8,3.9c-1.6,2.2-2.9,4.5-4.3,6.8c-1.7,2.8-3.7,5.3-6.1,7.6c-0.6,0.5-1.2,0.9-1.5,1.1 c4.6-2.2,8.1-6.4,11.9-10.1c2-2,4.4-3.3,7.2-3.8c0.6-0.1,1.2-0.1,1.8,0c0.6,0.1,1,0.4,0.6,1c-5.7,7.6-12.6,13.8-21.2,18.1 c-9.4,4.7-19.4,6.8-29.9,6c-17.7-1.4-31.9-9.3-42.6-23.5c-0.3-0.4-0.7-0.7-0.6-1.3c1.7-0.8,3.3-0.2,4.8,0.3 c1.9,0.7,3.6,1.8,5.1,3.2c2.4,2.4,4.6,4.9,7.3,7c1.6,1.3,3.3,2.3,4.4,3c-2.8-1.9-5.2-5-7.3-8.4c-1.4-2.4-2.8-4.8-4.4-7 c-1.4-1.9-3.2-3.3-5.7-3.8c-1.6-0.3-1.8-0.8-0.6-2.1c3.3-3.5,6.5-7.2,9.2-11.2c3.7-5.3,6.7-10.9,7.7-17.4c1.1-7.2-3-14.2-9.6-16.3 c-4.9-1.6-11,0.6-13.8,5c-1.8,2.9-1.9,5.9-0.5,9c0.2,0.5,0.5,0.9,0.8,1.5c-0.1-0.3,0,0,0-0.1c-1.4-3.9,0.2-6.5,3.9-7.7 c3.8-1.2,7.1,0.6,8.8,4.5c1.2,2.7,1.4,5.5,1.3,8.4c-0.1,3.3-0.8,6.4-1.7,9.6c-0.2,0.7-0.4,1.4-0.8,2.1c-0.2,0.3-0.4,0.5-0.8,0.4 c-0.4-0.1-0.5-0.3-0.6-0.6c-0.1-0.4-0.1-0.9-0.1-1.3c-0.1-3.6-4.4-6.1-7.6-4.4c-0.5,0.3-0.9,0.6-1.1,1.1c-0.9,1.4-0.6,2.1,1,2.3 c5.6,0.7,7.4,4.5,6.3,9.5c-0.9,4.2-3.2,7.4-6.8,9.8c-0.4,0.3-0.8,0.8-1.4,0.4c-2.1-2.8-3.4-6-4.6-9.2c-2.3-5.9-3.5-12-3.7-18.3 c0-0.6,0-1.1,0.1-1.7c0.7-0.4,1,0.2,1.4,0.6c1.3,1.1,2.7,1.9,4.4,2.2c1.8,0.3,3.4-0.3,4.6-1.7c0.8-0.9,0.5-1.9-0.5-2.6 c-0.5-0.3-0.7,0.1-1,0.3c-2.7,1.5-5.6,1.6-8.5,1c-0.2,0-0.3-0.2-0.4-0.3c-0.5-2-0.1-4,0.1-6c2.9-25.6,22.2-46,47.6-50.5 c29.5-5.1,58.2,13.5,65.6,42.6c1.1,4.4,1.8,8.8,1.7,13.4c-0.1,0.5-0.4,0.8-1,0.9c-2.7,0.4-5.3,0.3-7.8-1c-0.5-0.3-0.9-0.9-1.5-0.1 c-0.6,0.7-0.9,1.3-0.3,2.1c1,1.4,2.4,2,4.1,1.9c1.9-0.1,3.4-1,4.9-2.1C312.6,272.5,313,271.8,313.7,272.4z"/><path class="st0" d="M206.7,301.3c5-2.8,7.8-7.1,8-12.8c0.2-3.5-2-5.8-5.5-6.3c-0.4-0.1-0.9-0.2-1.3-0.2c-1.4-0.2-1.6-0.7-1.2-2.1 c0.7-2.1,3.4-2.9,5-2.5c3.7,0.8,5,2.7,5,7c0.4,0.2,0.5-0.1,0.6-0.4c1.2-3.3,2.1-6.7,2.4-10.2c0.3-3.2,0.1-6.3-1.1-9.2 c-2.4-5.8-8.1-5.7-11-2.9c-1.6,1.6-1.8,3.5-1.1,5.6c0.1,0.4,0.3,0.7,0.3,1.1c-1.2-0.6-1.6-1.8-2.1-3c-1.5-3.8-0.2-8.1,2.9-10.9 c2.5-2.3,5.4-3.5,8.7-3.4c5.2,0.1,9.1,2.7,11.6,7.3c2.8,5,2.2,10.2,0.5,15.3c-1.9,5.7-5.1,10.6-8.7,15.3c-2.2,2.9-4.6,5.8-7.3,8.4 c-0.2,0.2-0.6,0.4-0.5,0.9c0.1,0.4,0.5,0.2,0.8,0.2c3.1,0.5,5.1,2.4,6.9,4.9c2.4,3.4,4.1,7.2,6.8,10.4c1.6,1.9,3.4,3.7,5.5,5.3 c-1.2-0.2-2.3-0.8-3.3-1.4c-4-2.5-7-6.1-10.4-9.3c-1.5-1.5-3.3-2.5-5.3-3.2c-1.3-0.5-2.7-0.4-4.1-0.4 C207.9,303.6,207.3,302.5,206.7,301.3z"/><path class="st0" d="M303.1,305.3c0.2-0.7-0.2-0.7-0.7-0.7c-3.2-0.1-5.9,1.2-8.2,3.4c-2.1,1.9-4,4-6.1,6c-2.2,2.1-4.6,3.8-7.4,5 c-0.2,0.1-0.3,0.1-0.6-0.1c1.5-1,2.8-2.2,4-3.4c2.8-2.8,4.6-6.3,6.7-9.6c1.4-2.2,2.7-4.4,4.9-6c1.1-0.8,2.4-1.2,3.7-1.4 c0.9-0.1,1-0.4,0.4-1c-1.9-1.8-3.5-3.7-5.2-5.7c-2.7-3.1-5-6.5-7.1-10c-2.2-3.6-3.9-7.5-4.8-11.7c-1.3-6.1-0.1-11.5,4.6-15.8 c4.2-3.8,9.9-4.5,15.1-1.3c2.7,1.6,4.7,3.8,5.4,7c0.6,2.7-0.2,6.5-2.6,8.5c0.2-1.2,0.8-2.2,0.8-3.3c0.1-2.4-2-4.6-4.3-5.1 c-4.7-1.1-7.6,1.9-8.7,6c-1.4,4.9-0.6,9.7,0.7,14.5c0.3,1.2,0.8,2.4,1.2,3.6c0.1,0.2,0.2,0.4,0.5,0.3c0.2-1.2-0.2-2.4,0.4-3.6 c1.5-3,4.9-4.3,7.9-2.9c1.1,0.5,1.7,1.4,1.9,2.5c0.2,0.9,0.2,1.6-1.2,1.7c-1.6,0.1-3.3,0.4-4.7,1.5c-2.2,1.6-2.6,3.9-2.2,6.3 c0.5,3,1.4,5.8,3.6,8.1c1.3,1.3,2.5,2.7,4.4,3.3C304.8,302.5,303.9,303.9,303.1,305.3z"/><path class="st0" d="M313.7,272.4c-1.3,0.3-1.9,1.4-3,2c-2.7,1.4-5.6,1.4-7.5-0.6c-1.3-1.4-1.3-2,0.1-3.4c0.3-0.3,0.7-0.7,1.1-1.1 c0,1.4,1.1,1.6,1.9,1.9c2.2,0.7,4.5,0.8,6.8,0.3c0.3-0.1,0.4-0.3,0.6-0.5C313.7,271.5,313.7,271.9,313.7,272.4z"/><path class="st0" d="M198.6,271.5c2,0.2,4,0.4,6.1,0c0.9-0.2,1.8-0.6,2.6-1c0.6-0.2,0.3-0.7,0.5-1.1c0.4,0.1,0.6,0.4,0.9,0.7 c1.7,1.7,1.5,3.1-0.7,4.4c-2.2,1.3-4.4,1-6.5-0.3c-1.1-0.6-2-1.5-3-2.2C198.6,271.9,198.6,271.7,198.6,271.5z"/><path d="M252.5,255.5c1.5-1.2,3-2.2,4.2-3.4c1.6-1.6,3.5-1.8,5.5-1.6c6.8,0.8,10.9,5.3,10.9,12.2c0,5.9,0,11.8,0,17.7 c0,1.3,0.2,2.3,1.3,3.1c0.6,0.4,0.8,0.9,0.1,1.4c-1.2,0.8-1.4,1.9-1.3,3.3c0.1,2.8,0,5.5,0,8.3c0,1.2,0.3,2.4,0.8,3.5 c0.4,0.9,1,1.5,2.2,1.7c-2.9,2-5.6,3.8-8.4,5.7c-4,2.8-8.1,5.5-12.1,8.3c-0.9,0.6-1.7,0.9-2.8,0.7c-6.6-1.2-10.6-6.1-10.7-12.8 c0-5.2,0-10.5,0-15.7c0-1.3-0.2-2.3-1.3-3.1c-0.6-0.5-0.9-1-0.1-1.5c1.2-0.8,1.4-2,1.4-3.3c0-8.5-0.4-17,0.2-25.5 c0.6-8.4,2.8-16.2,8.5-22.7c0.2-0.3,0.4-0.5,0.7-0.9c-2.3-1.2-4.8-1.7-7.2-2.2c-2.5-0.4-5-0.5-7.4-0.1c-2.3,0.5-3.8,1.9-3.9,3.6 c-0.1,1.2,0.6,2,1.6,2.5c1.1,0.5,2.2,0.5,3.2-0.4c0.6-0.6,0.9-1.2,0.3-2c-0.4-0.5-0.4-1.2,0-1.7c0.4-0.5,0.9-0.5,1.5-0.3 c0.7,0.2,0.9,0.6,0.9,1.3c-0.3,2.6-4.1,4.9-6.5,3.9c-1.6-0.6-2.5-1.8-2.5-3.5c0-1.6,0.7-2.9,2.1-3.8c2.9-1.8,6.1-2,9.4-1.7 c3.4,0.4,6.8,1.2,10,2.2c0.7,0.2,1.2,0.1,1.8-0.3c4-3,8.4-4.8,13.4-5.3c2.4-0.2,4.7,0.2,6.8,1.4c3.2,1.8,3.2,5.7,0,7.8 c-2.4,1.5-5.2,1.9-8,2c-2.6,0.1-5.3-0.1-7.8-0.8c-1-0.3-1.6,0.1-2,1c-2.1,4.2-3.3,8.6-4,13.3C252.7,250.3,252.5,252.8,252.5,255.5z "/><path class="st1" d="M266.5,303.4c-1.6,1.5-3.2,2.9-5.1,3.4c-2.1,0.6-4.1-0.4-5.8-1.7c-2.1-1.7-3-4-3.1-6.5 c-0.1-3.8,0-7.6-0.1-11.5c0-1.1,0.8-1.6,1.4-2.2c0.5-0.5,0.6-0.9,0-1.3c-1.2-0.8-1.4-2-1.4-3.4c0.1-6.7,0-13.4,0-20.2 c0-0.6,0.1-0.9,0.8-0.9c1.6,0,3.2,0,4.7,0.4c3.1,0.8,4.6,2.8,4.6,6.4c0.1,5.2,0,10.4,0.1,15.5c0,1-0.6,1.4-1.1,1.9 c-0.6,0.5-0.8,1,0,1.5c1,0.7,1.2,1.7,1.2,2.9c0,3.6-0.4,7.3,0.3,10.9c0.1,0.7,0.3,1.4,0.6,2.1C264,302.2,264.9,303.2,266.5,303.4z" /><path class="st1" d="M266,231.9c-1.3,0-3.3-0.3-5.4-0.8c-0.8-0.2-0.8-0.5-0.3-1c2.7-2.9,7.8-5.4,12.5-4c0.9,0.3,1.7,0.7,1.9,1.7 c0.3,1.1-0.4,1.8-1.2,2.4C271.5,231.8,269.2,231.9,266,231.9z"/></g></svg> 