<?xml version="1.0" encoding="utf-8"?><svg version="1.1" id="Layer_1" xmlns="http://www.w3.org/2000/svg" xmlns:xlink="http://www.w3.org/1999/xlink" x="0px" y="0px" viewBox="0 0 512 512" style="enable-background:new 0 0 512 512;" xml:space="preserve"><style type="text/css"> .st0{fill:#003366;} .st1{fill:#6699FF;stroke:#FFFFFF;stroke-width:5;stroke-miterlimit:10;} .st2{fill:#6699FF;} </style><g id="Außenlinie_dunkelblau"><path class="st0" d="M302.8,373c-2.2-5.1-100.3,7-111.8-19.4c-3.6-8.1,11.7-19.9,17.1-25.3c9.6-9.4,67.3-20.8,77.7-25.9 c10.8-5.2,18.3-12.7,22.5-22.2C440.7,243.6,451.1,134,377.1,0l-13.6,30.7c-10.7,24.2-25.6,41-38.7,55.8 c-13.6,15.4-25.4,28.8-29.4,46.2c-3.1,10.1-0.7,20.7,1.9,31.8c2.1,9.3,4.2,17.9,3.5,26.2c-0.1-1.4-4.8-5.9-6.7-6.8 c-1.5-0.7-24.7-13.2-29.3-16.6c-6.4-4.8-19.2-42.8-20.3-45.4c-5.8-13.5-16.2-22.9-26.9-35c-13.1-14.8-27.9-31.6-38.7-55.8 L165.2,0.5c-103.1,178.6-6.1,263.7,47.3,271.5c-2,1.3-4.6-0.1-45.3,25.2c-17.5,10.9-34,36.5-38.8,48.7 c-15.3,38.5-12.3,82.5,42.8,117.1c6.1,3.8,90.5,65.2,194.6,44.3c16-3.2-26.5-27.9-42.2-71.1C315,412.5,308.1,384.8,302.8,373z"/></g><g id="Schwanz"><path class="st1" d="M300.1,419.8c-0.7-9.5-13.8-38.3-14.8-34.7c-10.6,35.8-103.8,37.5-118.6-18.7c-0.8,62.5,94,96.3,145.9,93 c3.9-0.2-13.5-19.9-10.3-28.1c0.5-1.5-7.9,15.9-66.5-4.3C233.6,426.3,301.4,435.8,300.1,419.8z"/><path class="st1" d="M238,297.4c-147.8,59.4-8.2,130.4,30,94.2C190.8,393,174,340.4,238,297.4z"/><path class="st1" d="M181,313.4C53.4,408.2,223.1,499,347.5,498.6c7.1-0.8-31.6-16.2-29.9-30.1C199.6,472.4,103.6,382.4,181,313.4z "/></g><g id="Körper"><g><path class="st2" d="M218.5,253.9c-0.3-0.1-0.5-0.3-0.8-0.4h-0.1L218.5,253.9z"/></g><path class="st1" d="M407.2,152.7c1.3-7.5,0.3-15.3-0.5-23.4c-7.8,9-20,11.9-33.2,11.2c18-7.6,31.6-17.2,30.7-28.1 c-0.7-8-3.6-16-6.1-24.3c-7.2,11.2-20.3,16.1-35.3,17.1c18.2-10.5,31.9-22.6,29.6-34v-0.1c-4.1-11-8.9-22.4-14.6-34 c-22.6,51-61.2,71-67.3,99.8c-6.8,19.9,28.1,61.8-19.5,95.5L290,233c-5.4-2.7-20.7-15-5.2-20.4l11.5,7c0.9-4.3-0.4-8.6-5.8-12.6 c1.7-3.6-3.3-8.2-3.3-8.2s-8.5-3.9-15.3-6.3c-8.4-5.4-14.6-11.2-16.9-17.8c-0.7,8.1,3.4,14.6,12.7,18.1c-5.4,1.1-10.8-2.9-20.2-11 c5.1,8.8,10.6,14.7,20.2,15.9c-20.9,2.8-8.3,25.8-17.9,34.2c-44.8-33.5-10.8-74.5-17.6-94.1c-6.1-28.9-44.7-48.9-67.3-99.8 c-5.6,11.7-10.5,23-14.6,34V72c-2.4,11.4,11.3,23.6,29.6,34c-15-1-28.1-5.9-35.3-17.1c-2.5,8.3-5.4,16.3-6.1,24.3 c-0.9,10.8,12.7,20.5,30.7,28.1c-13.2,0.8-25.3-2.1-33.2-11.2c-0.8,8.1-1.8,15.9-0.5,23.4c1.6,10,15.6,16.3,32.8,19.9 c-11,3-22.1,2.5-30.8-4.3c1.5,8.1,3.2,16.1,7.1,23.1c4.4,8,17.2,10.6,31.9,10.5c-7.7,4.3-16.3,6-25.2,2.3 c5.4,8.8,11.5,17.9,20.7,24.5c6.4,4.7,17,3.2,27.9-0.3c-4.3,5.2-10.4,8.5-18.8,7.8c7.8,5.9,16.8,11.6,26.9,16.4 c6.8,3.3,15.9,1.4,24.8-3c-2.3,4.4-6.6,7.7-13.6,8.2c8.4,3.6,17.5,7,27.3,10c18.2,12.7-25.4,4.2-68.7,47.7 c-0.3,0.3,1.5-1.7,1.9-1.9c35.7-19.9,109.6-11.5,116.4-46.6c9.9-3.1,19-6.4,27.4-10.1c-7-0.5-11.2-3.8-13.6-8.2 c8.9,4.4,18,6.2,24.8,3c10.1-4.9,19-10.5,26.9-16.4c-8.4,0.7-14.5-2.6-18.8-7.8c10.8,3.5,21.5,4.9,27.9,0.3 c9.2-6.6,15.2-15.7,20.7-24.5c-8.8,3.7-17.5,2-25.2-2.3c14.7,0.1,27.5-2.5,31.9-10.5c3.8-7,5.6-15,7.1-23.1 c-8.8,6.7-19.8,7.2-30.8,4.3C391.7,169,405.6,162.7,407.2,152.7z M276.3,202l-2.7-1.2c3.5-1.3,10.5,1.8,13.7,5.9l-2.5-1.1 C284.8,207.7,276.9,208.2,276.3,202z"/></g></svg> 