<?xml version="1.0" encoding="utf-8"?><svg version="1.1" id="Layer_1" xmlns="http://www.w3.org/2000/svg" xmlns:xlink="http://www.w3.org/1999/xlink" x="0px" y="0px" viewBox="0 0 512 512" style="enable-background:new 0 0 512 512;" xml:space="preserve"><style type="text/css"> .st0{fill:#000030;} .st1{fill:#52526A;} .st2{fill:#515169;} .st3{fill:#420F1C;} .st4{fill:#7A1E34;} .st5{fill:#FBFBFC;} .st6{fill:#FCFCFC;} .st7{fill:#FDFDFD;} .st8{fill:#F8F8F9;} .st9{fill:#FCFCFD;} .st10{fill:#781D34;} .st11{fill:#761D34;} .st12{fill:#EAEAEC;} .st13{fill:#ECECEE;} .st14{fill:#E8E8EB;} .st15{fill:#E3E3E6;} .st16{fill:#F2F2F3;} .st17{fill:#F3F3F4;} .st18{fill:#F0F0F2;} .st19{fill:#F6F6F7;} .st20{fill:#751C34;} .st21{fill:#741C34;} .st22{fill:#721C34;} .st23{fill:#751D34;} .st24{fill:#731C34;} .st25{fill:#771D34;} .st26{fill:#6F1B33;} .st27{fill:#711C34;} .st28{fill:#F1F1F3;} .st29{fill:#701B33;} .st30{fill:#F5F5F6;} .st31{fill:#6C1A33;} .st32{fill:#0D0D38;} .st33{fill:#EBEBEE;} .st34{fill:#F8F8F8;} .st35{fill:#661933;} .st36{fill:#41121F;} .st37{fill:#EEEEF0;} .st38{fill:#EDEDF0;} .st39{fill:#0D0330;} .st40{fill:#110430;} .st41{fill:#171740;} .st42{fill:#611833;} .st43{fill:#1C0731;} .st44{fill:#0F0430;} .st45{fill:#150530;} .st46{fill:#12123C;} .st47{fill:#100430;} .st48{fill:#651933;} .st49{fill:#140530;} .st50{fill:#1B0731;} .st51{fill:#1D0731;} .st52{fill:#6E1B33;} .st53{fill:#0B0330;} .st54{fill:#160530;} .st55{fill:#1A0631;} .st56{fill:#505069;} .st57{fill:#130530;} .st58{fill:#190630;} .st59{fill:#0D0D39;} .st60{fill:#200831;} .st61{fill:#1F0831;} .st62{fill:#1B072F;} .st63{fill:#5F1733;} .st64{fill:#1A0731;} .st65{fill:#5B1633;} .st66{fill:#120530;} .st67{fill:#210831;} .st68{fill:#260931;} .st69{fill:#44101B;} .st70{fill:#741C33;} .st71{fill:#731C33;} .st72{fill:#721C33;} .st73{fill:#711C33;} .st74{fill:#6D1B33;} .st75{fill:#170630;} .st76{fill:#6F1B32;} .st77{fill:#230930;} .st78{fill:#160531;} .st79{fill:#1F0830;} .st80{fill:#120430;} .st81{fill:#1C0730;} .st82{fill:#22082F;} .st83{fill:#1E0731;} .st84{fill:#0A0230;} .st85{fill:#6F1B31;} .st86{fill:#701B32;} .st87{fill:#1D0730;} .st88{fill:#200830;} .st89{fill:#220830;} .st90{fill:#180630;} .st91{fill:#190631;} .st92{fill:#0E0330;} .st93{fill:#080230;} .st94{fill:#040130;} .st95{fill:#3B0F31;} .st96{fill:#050130;} .st97{fill:#280A31;} .st98{fill:#220831;} .st99{fill:#030130;} .st100{fill:#060230;} .st101{fill:#180631;} .st102{fill:#14143E;} .st103{fill:#090936;} .st104{fill:#0A0A36;} .st105{fill:#250931;} .st106{fill:#060130;} .st107{fill:#160630;} .st108{fill:#7B1E34;} .st109{fill:#010030;} .st110{fill:#2F0C31;} </style><g><g><g><path class="st0" d="M431.2,167.3c-6-1.7-11.9-3.5-16.9-7.3c-16.2-12.2-23.2-28.3-20-48.5c1.1-6.8,0.5-7.5-5.9-9.2 c-33.7-9.1-68-14.5-102.8-15.8c-25.1-0.9-50.2-1-75.3,1.7c-28.3,3.1-56.3,8.2-83.7,15.8c-7.4,2-8.5,3.6-7.4,11.3 c2.6,18.5-7,37.7-23.5,46.7c-4.5,2.5-9.2,4.4-14.2,5.8c-4.7,1.3-5.5,2.8-4.8,7.6c0.2,1.6,0.6,3.3,0.9,4.9 c6,30.2,14.4,59.7,25.3,88.4c9.5,25.1,20.6,49.4,34.4,72.5c1.8,2,4.3,2.6,6.7,3.5c9.5,3.4,19.4,5.1,29,8 c24.1,7.3,42.8,22.6,60.2,40.8c-1.2-0.3-1.7-0.9-2.5-0.9c-0.4,0-0.8,0.2-1.1,0.5c-0.6,0.9-0.8,2-2,2.5c-0.7,0-1.3-0.4-2-0.4 c-0.9,0-1.7-0.2-2.5-0.7c-0.4-0.1-0.7-0.2-1.1-0.1c-1,0.7-2,0.6-2.9,0c-0.9-0.2-1.8,0.1-2.6-0.4c-0.5-0.2-0.9-0.5-1.4-0.6 c-1.6-0.7,0.1-2.5-1-3.3c-0.4-0.2-0.8-0.2-1.2-0.1c-1.9,0.2-1.2,4.1-4.1,2.8c-0.3-0.2-0.7-0.2-1.1-0.2c-1.5,0.5-1.1-1-1.7-1.5 c-0.3-0.2-0.7-0.3-1.1-0.3c-1.2,0.2-1.4,2.3-3.1,1.4c-0.4-0.3-0.9-0.6-1.5-0.4c-0.8,0.6-1.6,0.9-2.4,0c-0.4-0.2-0.7-0.2-1.1-0.2 c-0.7,0.3-1.5,1-2.2-0.1c-0.4-0.5-0.8-0.8-1.4-0.7c-0.9,0.5-1.3,1.7-2.5,1.8c-0.7-0.1-1.3-0.4-2.1-0.4c-1.9,0.6-0.7-1.1-1.2-1.6 c-0.3-0.6-0.8-0.9-1.4-0.8c-0.9,0.5-1.3,1.7-2.6,1.9c-0.7-0.1-1.3-0.4-2.1-0.4c-1.9,0.6-0.7-1.1-1.2-1.5 c-0.3-0.6-0.7-0.9-1.4-0.9c-0.9,0.4-1.7,1-2.6,0.1c-0.4-0.2-0.8-0.2-1.2-0.2c-0.6,0.2-1.1,0.5-1.6,0.9c-2.4,2-0.6,3.4,0.6,4.8 c7.2,8.8,14.4,17.6,22.7,25.3c2.8,2.6,3,5.1,1.7,8.4c-1,2.5-2.1,2.4-3.9,0.9c-1.5-1.2-2.4-3.6-5-3.1c-1.7,0.2-2.8-1-4-1.8 c-7-4.6-14-9.4-21-14c-0.9-0.6-1.6-1.9-3.3-0.9c0,17.3,0,34.8,0,52.2c0,1.6-0.3,3.2-0.5,4.7c-0.3,2.7,0.6,5.5,1.1,8.3 c4.3-2.1,4.4,2.3,5.7,4.1c1.7,2.3,2.8,2,4.6,0.5c3.6-2.8,7.2-5.4,10.9-8c0.9-0.6,1.6-2,3-1.1c3.7,2.2,8.1,3.8,11,6.8 c1.5,1.6,0.5,5.7,0.5,8.7c0,0.2-0.2,0.4-0.6,1c-3.5-2.4-7-4.9-10.5-7.3c-1.2,2.1,0.2,4.3-1.2,6.3c-1.7-2.6-3.2-4.9-4.9-7.4 c-1.4,2.2-2.7,3.9-3.7,5.8c-1.5,3-2.9,3.5-5.7,1.2c-3-2.5-6.1-5-9.9-6.7c-0.5,8,0.5,15.3-0.6,22.7c-0.4,2.7,1.8,3.4,3.2,4.7 c1.7,1.6,2.7-0.6,3.7-1.3c7.2-5,7.2-5.1,12,2c0.2,0.4,0.5,0.7,1,1.2c1.7-2.4,3.2-4.6,5.9-8.4c-1.4,6.5,1.3,6.2,4.6,5.1 c1.3-0.4,3.1,0.3,3.9,0.2c3-0.6,5.7,4,9,0c4.5-5.5,4.8-5.3,10.5-0.8c0.4,0.3,0.8,0.5,1.1,0.8c2.8,3.2,6.1,0.8,7.8-0.6 c1.7-1.3,2.3-0.9,3.6-0.2c3,1.5,5.5,3.9,9.6,4.7c-1.3-3.2-0.7-5.6,2.4-4.6c5.3,1.8,10.6-0.2,15.8,0.5c3.2,0.4,5.1-1.8,2.7-5 c-5.1-6.6,1.2-12.4,1.2-18.6c0-4,4.9-4.8,8.7-5.5c8.5-1.6,8.5-1.7,9.3-10.1c0.2-1.1,0.3-2.2,0.4-3.3c0,1.1,0.1,2.2,0.4,3.3 c0,2.2,0.1,4.5,0.1,6.7c0,5.4,0,5.4,5.1,4.3c2-0.4,4.1-0.9,6.1-1.2c3.5-0.4,2.7,2.9,3.2,4.5c0.7,2.2-1.5,2.1-2.9,1.8 c-2.5-0.5-4.7,0.4-7,1c-0.3,1-0.5,2-0.5,3c0-1.1-0.2-2.1-0.4-3.2c-3.4-1.9-6.9-0.5-8.1,3.2c-2-2-2.6-5-5.1-6.8 c-1.1,1.7-2,3.6-3.3,5c-5.5,6.1-6.9,12.1-0.4,18.4c1.9,1.8,1.8,7.9,6.6,2.9c0.2-0.2,0.6-0.1,0.9-0.1c5.2,0.6,10.3-0.9,15.6,0 c2.8,0.5,5.8,1.3,8.4,1.4c2.7,0.1,4.5-4.3,7-6.4c0.2-0.2,0.5-0.2,0.8-0.3c0.2,0.9,0.7,1.8,0.5,2.6c-0.5,2.8,1.9,3.5,3.5,4.2 c1.9,0.9,2.3-1.7,3.6-2.6c1.9-1.4,2.9-3.8,5.2-4.8c0.6,6.5,0.6,6.5,6.8,5c0.1,0,0.3-0.1,0.4-0.1c0.3-1.1,0.5-2.1,0.5-3.2 c0,1.1,0.1,2.3,0.3,3.5c4.5,1.7,7.1,0.3,7.8-4.4c1.8,2.6,3.5,5.1,5.2,7.5c2.8-2.3,5.5-3.2,9.2-2.5c2.3,0.4,6.5,1.4,6.7-3.2 c0.3-6.1,0.1-12.3,0.1-18.5c0-0.9,0.3-2.6-1.4-1.9c-3,1.2-5.9-0.3-8.9,0.2c-1.3,0.2-2.5,0.9-3.4-1c-0.8-1.7-0.3-2.7,0.8-3.9 c3.4-3.8,6.7-7.7,9.9-11.7c2.6-3.2,7.5-6.1,7.3-9.8c-0.2-3.3-4.5-6.4-7-9.5c-2.2-2.8-6-5.5-6.3-8.5c-0.2-3.3,4.3-5.7,6.5-8.6 c0.3-0.4,0.6-0.7,0.9-1c0.9-0.8,1-1.8,0.4-2.8c-2.9-5-5.8-10-8.8-15.3c-4.6,5.3-8.8,10.2-13.9,16c0.2-3.5,0.3-5.6,0.5-7.6 c1-2.5-0.7-3.1-2.5-2.9c-2.9,0.2-6,0.3-8.6,2.1c-0.2,0.2-0.3,0.3-0.1,0.4c0.5,0.4-0.5,0.1-0.4,0.1c2.7-2.7,5.2-4.8,7.3-7.3 c4.9-5.9,10.8-11.1,14.4-18.1c0-0.4-0.1-0.8-0.4-1.2c-0.5-0.4-1-0.7-1.6-0.8c-0.8,0-1.4,0.4-2,0.8c-0.7,0.2-1.3,0.1-2,0 c-0.3,0-0.7,0.1-1,0.3c-1.1,0.7-2.1-0.3-3.1-0.1c-0.8,0.5-1.6,1.1-2.7,0.8c-0.7,0-1.4,0.3-2.1,0.4c-0.9-0.1-1.7-0.6-2.7-0.3 c-0.9,0.4-1.7,0.6-2.7,0.7c-0.8,0.1-1.6,0.9-2.5,0.3c-0.7-0.6-1-1.5-1.9-1.9c-0.4-0.1-0.7,0-1.1,0.2c-0.6,1.1-1.4,1.4-2.4,0.7 c-0.4-0.1-0.7,0-1.1,0.1c-0.8,0.8-1.6,0.4-2.5,0c-0.6-0.1-1.1,0.1-1.6,0.5c-0.6,0.6-1.3,0.5-2.1,0.3c-0.4-0.1-0.8-0.1-1.1,0 c-0.9,0.5-1.8,0.1-2.7-0.1c-0.4,0-0.8,0.1-1.1,0.3c-1.8,1.3-3.8,0.6-5.8,0.5c-0.4,0-0.8,0-1.2,0.1c-1.1,0.8-2.2,0.2-3.2-0.2 c-0.4,0-0.8,0-1.1,0.2c-0.7,0.8-1.6,0.9-2.6,0.8c-1.2,0.2-1.5-0.2-0.7-1.1c0.7-0.9,1.4-1.7,2.5-2.1c0.3-0.2,0.6-0.4,0.9-0.7 c0.2-1.2,1-2,1.8-2.8c0.6-1,0.7-2-0.1-2.9c-5.1,1.1-6.9,6.2-11.2,8.9c13.8-14.2,28.3-26.7,46-35.3c10.2-4.9,21.4-7,32.2-10.1 c6.2-1.8,12.6-2.9,18-6.7c3.9-5.7,7.1-11.9,10.3-18c10.9-20.8,20.3-42.3,28.1-64.5c9.7-27.4,17.1-55.5,22.7-84 C437,169.9,436,168.6,431.2,167.3z M220.1,490.8c-0.7,0.2-1.3-0.5-1.4-1.2c-0.1-0.8,0.6-1.4,1.4-1.5c0.6-0.1,1.1,0.3,1.2,1.2 C220.9,489.8,220.6,490.6,220.1,490.8z M221.9,485.7c-3.7-5.7-3.9-5.9-9.4-1.2c-3,2.6-4.6,2.4-7.5-0.3c-4.2-3.9-5.8-7.6-2.5-12.7 c0.5-0.8,0.8-1.9,1.3-2.9c5.3,2.8,10.5,5.5,15.6,8.2C225,479.9,225,479.9,221.9,485.7z M230.7,489.2c-0.7-2.2-1.3-4.4-2-6.6 C231.9,483.4,231.9,483.4,230.7,489.2z M232.5,474.2c3.3,1.2,4.2,4.4,5.8,6.9l0,0C232.2,482.3,234.6,476.4,232.5,474.2z M250.8,482.2c-0.6-1.3-1.2-2.4-1.9-3.7c-2,2.3-4.4,3.1-7.5,2.2c3.8-0.7,2.2-9.1,8.7-5.6C253.2,476.7,253.9,479.4,250.8,482.2z M276.9,459.5c0-2-0.1-3.9-0.1-5.6C277.2,455.5,277,457.4,276.9,459.5z M270.9,501.9c-1.3-0.3-0.7-1.2-0.6-1.9c0,0,0,0-0.1,0 c0,0,0.1-0.1,0.1-0.1c0,0,0,0.1,0,0.1c1,0.1,1.9,0.3,2.9,0.4C273.2,502,272.1,502.1,270.9,501.9z M281,494.3 C281,494.2,281,494.2,281,494.3c0-2.2,0.3-4.4,0.3-6.6C281.5,489.9,281.6,492.1,281,494.3z M323.8,497.3c-0.1-2-0.3-4,0.1-5.6 C323.9,493.4,323.8,495.3,323.8,497.3z M338.3,490.7c0.7,1.6,0.5,3.1,0.1,4.8C336.3,493.6,336.2,492.2,338.3,490.7z M329.6,450.1 c5.7,4,5.7,4.5,0,9.9C329.6,456.2,329.6,453.2,329.6,450.1z M308.9,438.7c0.8-0.6,1-2.3,2.6-1.7c0,4,0,8,0,12.1 c0,1.2,0.5,3.1-1.4,3.2c-2.3,0.2-1.3-1.9-1.3-2.9C308.7,445.8,308.8,442.2,308.9,438.7z M311.7,471.2c-1.5,6.2,1.4,6.1,5.2,4.8 c2-0.6,4.1-0.9,6.2-1.3c6.4-1.4,6.4-1.4,9.3,5.3c-2.7,0.8-5.5,1.6-8.3,1.3c-6.5-0.6-7.5,0.2-8,6.7c-4.5-2.9-7.1-7.6-11.6-10.9 c0,3.8,0,7.2,0,11.2c-4.7-3-7.4-7.1-11.5-10.9C299.3,475.3,305.2,473.4,311.7,471.2z"/></g></g><path class="st1" d="M323.3,503.7c0-4.4,0-8.9,0-13.3c0.3,0,0.5,0,0.8,0c0,4.5,0,9.1,0,13.6C323.8,504,323.6,503.9,323.3,503.7z"/><path class="st2" d="M281.9,482.2c0,4.2,0,8.3,0,12.5c-0.3,0-0.6,0-0.9,0c0-4.2,0-8.4,0-12.7C281.3,482.1,281.6,482.1,281.9,482.2z "/><path class="st3" d="M276.5,465.1c0-4,0-7.9,0-11.9c0.2,0,0.5,0,0.7,0c0,4,0,7.9,0,11.9c0,0-0.4,0-0.4,0L276.5,465.1z"/><path class="st4" d="M149.2,173.2c8.3,4.7,16,9.2,23.8,13.7c2.5,1.4,4.9,2.9,7.4,4.3c0.7,0.4,1.6,1.3,2.4,0.5 c0.8-0.7,0.2-1.7,0-2.5c-1.2-3.9-3.8-7.2-5.7-10.7c-3.3-6.1-6.6-12.1-10.2-18.1c-1.7-2.9-1.7-5.6-0.3-8.5c8.7-18,17.4-36,26.2-54 c0.7-1.4,2-2.5,3.9-4.7c1,7.5,2,13.9,2.8,20.3c1,8,1.7,16.1,2.9,24.1c1.5,9.7,15.6,19.8,25.2,18.9c7-0.6,14.1-0.3,21.2-0.3 c12.3,0,24.7,0,37,0c10.8,0,19.1-5.8,23-16c3.2-8.4,3.4-17.3,4.4-26.1c0.8-6.9,2-13.8,4.1-21.5c6.7,13.7,13,26.5,19.3,39.3 c3,6.1,5.7,12.3,9,18.2c2.4,4.2,2,7.7-0.4,11.8c-5.1,8.6-10.4,17.2-14.6,26.4c-0.5,1-1.7,2.3-0.7,3.3c1.3,1.3,2.4-0.3,3.5-0.9 c9.9-5.6,19.8-11.3,29.7-17c1.3,1.3,0.9,2.5,0.8,3.6c-0.2,11.8,1.1,23.6,0.3,35.5c-0.5,7.2-1.1,13.9-5.1,20.1 c-3.8,5.9-6.9,12.3-10.3,18.5c-1.4,2.5-3.6,4.2-6.2,3.6c-3.7-0.9-3.4,1.1-3.1,3.3c0.9,6.7,1.7,13.4,3,20c0.8,4.2-0.3,7.5-3.2,10.2 c-17.3,16-34.5,32.2-52.2,47.8c-9.1,8-14.9,17.9-20.7,28.1c-3.1,5.4-6.3,10.8-9.6,16.6c-3.2-3.3-5.3-6.8-7-10.4 c-8.9-18.7-22.3-33.6-38.1-46.8c-9.3-7.8-18-16.4-26.9-24.6c-4-3.7-7.9-7.4-11.9-11c-2.8-2.5-3.5-5.4-3-9 c1.1-6.8,2.2-13.6,3.3-20.4c0.3-2.3,0.9-4.6-3.1-3.9c-2,0.4-4.4-0.6-5.4-2.6c-5.6-10.9-14.2-20.3-16.2-32.9 c-0.9-5.4-0.7-10.9-0.2-16.2C149.4,193.4,148.6,183.7,149.2,173.2z"/><path class="st5" d="M318.7,462.1c-6.8,2.2-13.1,4.3-20.2,6.6c0-2.7,0-5,0-7.3c0-11.6,0.2-23.2-0.1-34.7c-0.1-3.4,1.9-3.7,4.1-3.8 c2.9-0.1,1.5,2.4,1.5,3.6c0.1,10.2,0.1,20.4,0,30.7c0,2.8,0.3,3.6,3.5,2.6c11.4-3.6,11.4-3.5,11.4-15.4c0-5.4,0.3-10.9-0.1-16.2 c-0.3-4.3,1.3-5.6,5.5-5.2c0,14.2,0,28.5,0,42.8c0,3.9-3.7,1.3-5.1,4.4C318.9,466.5,318.8,464.5,318.7,462.1z"/><path class="st6" d="M189.8,435.6c-2.3,2.7-4.3,5.3-6.6,7.6c-1.7,1.7-1.3,2.8,0.4,4.2c2.7,2.3,7.6,5.4,7.2,7.3 c-0.6,3.3-5.6,4.7-8.6,7.1c-3,2.3-6.1,4.3-9.2,6.5c-1.8,1.3-3.3,2.6-5-0.2c-1.5-2.6,1.1-2.6,2-3.4c3.6-2.7,7.2-5.4,11-7.8 c2.2-1.4,2.6-2.4,0.4-4.2c-2.5-2.1-6.3-4.2-6.8-6.8c-0.5-2.8,3.6-5,5.6-7.5c1.1-1.4,1.2-2.1-0.4-3.1c-2.4-1.5-4.7-3.1-7.7-5.3 c0,8.5,0,16.2,0,23.9c0,5,0,5-5.4,7.5c0-13.7,0-27.3,0-41.7C174.7,425.2,182.1,430.4,189.8,435.6z"/><path class="st7" d="M223.9,472.2c-7.8-4.1-14.4-7.6-21-11.1c-2.2-1.2-0.4-2.6-0.1-3.8c0.4-1.7,1.5-1.3,2.7-0.6 c3,1.7,6,3.3,10.2,5.5c-2.6-9-5-16.9-7.4-24.9c-0.4,0-0.8,0-1.2,0c-3.4,9.3-7,18.5-10.1,27.8c-1.1,3.3-2.4,2.3-4.4,1.2 c-1.3-0.8-1-1.6-0.6-2.6c5.3-14.3,10.5-28.6,16.2-43.9C213.5,437.3,218.5,454.1,223.9,472.2z"/><path class="st4" d="M238.4,400c-1.2-1.8-2.1-3.4,1.5-2.9c1.3,0.2,2.6,0,4,0c2.8-2.6,5-5.7,8-8.1c2.3-5.4,3.7-5.9,7.5-2.6 c1.6,0.8,1.9,2.6,2.7,4c1.6,2.3,3.4,4.5,6.3,5.4c0.9,0.4,1.9,0.2,2.7,0.6c1.5,1.2,6.3,1.1,1.9,4.6c-1.3,3-4.2,4-6.8,5.3 c-5.3,2-10.8,2.5-16.5,1.7c-0.7,0-1.3-0.1-1.9-0.4c-2.4-1.9-5.1-3.2-7.5-5.2C239.3,401.8,238.9,400.9,238.4,400z"/><path class="st8" d="M271.5,439.2c4-2.1,7.4-3.8,10.8-5.6c1.2,4.4,0,7.3-4.1,8.6c-5.9,1.8-7.6,5.8-6.8,11.7 c0.5,3.5-0.2,7.2,0.2,10.8c0.3,3.2-1.9,3.3-3.9,3.5c-3.2,0.4-1.7-2.2-1.7-3.4c-0.1-12.6-0.1-25.3-0.1-37.9c0-1.8-0.4-3.4,2.3-3.9 c2.7-0.5,3.4-0.1,3.3,2.6C271.4,429.9,271.5,434.3,271.5,439.2z"/><path class="st9" d="M343.3,420.1c3.6,3.4,2.6,5.9-0.1,9c-6.5,7.2-6.2,7.3-0.1,14.9c2.8,3.5,7.9,6.7,7.6,10.5 c-0.3,3.5-5,6.7-7.8,10c-1.7,2.1-3.5,4.1-5.2,6.2c-4.1-3.8-4.1-4-0.7-8c2.3-2.7,6.3-5.5,6.3-8.3c0-2.8-4-5.6-6.1-8.5 c-2.4-3.2-7.1-6-6.9-9.5c0.2-3.2,4.4-6.1,6.9-9.1C339.1,425,341.2,422.6,343.3,420.1z"/><path class="st6" d="M239.3,420.1c3.2,3.3,2.3,5.8,0,8.7c-3.3,3.9-6,8.3-9.2,12.2c-2.1,2.6-2.4,4.5-0.2,7.3c3.5,4.5,6.4,9.5,9.8,14 c2.2,2.9,3.3,5.4-1.2,7.7c-5.4-7.9-10.9-16.1-16.5-24.2c-0.6-0.9-0.7-1.4-0.1-2.4C227.7,435.7,233.5,427.9,239.3,420.1z"/><path class="st6" d="M257.4,420.1c3,3.3,2.3,5.9-0.1,8.8c-3.6,4.4-6.7,9.2-10.3,13.7c-1.3,1.6-1.1,2.7,0,4.3 c3.7,5.1,7.2,10.4,10.7,15.6c2.7,4,2.7,4-1,7.9c-5.6-8.2-11.2-16.4-16.7-24.6c-0.4-0.7-0.8-1.2-0.2-2 C245.7,435.9,251.6,428,257.4,420.1z"/><path class="st10" d="M373.9,341.2c0.2,2-1.7,2.4-2.7,3.5c-0.6,0.9-1.5,1.4-2.4,1.9c-1.7,0.6-3.4,1.1-5,1.8 c-0.7,0.3-1.4,0.6-1.9,1.1c-1.2,2.9,2.9,5,1.3,7.9c0.5,1.2,0.6,2.3-1,2.8c-2.2-0.8-2.3-3.1-3.2-4.7c-0.2-0.4-0.3-0.7-0.5-1.1 c-1-1.8-1.6-4.2-4.5-3.4c-0.6,0.2-1.2,0.3-1.7,0.4c-1.7,0.4-3.5,0.8-5.2,1.3c-1.1,0.3-2.2,0.4-3.3,0.8c-0.9,0.2-1.7,0.5-2.4,1.1 c-0.3,0.2-0.6,0.4-1,0.5c-0.7,0-1.5,0-2.2,0.1c-0.7,0-1.4,0.1-2,0.5c-0.9,0.7-1.8,1.4-2.9,1.7c-0.4,0.1-0.8,0.2-1.2,0.2 c-1.9,0-3.5,0.7-4.8,2c-0.5,0.3-1.1,0.5-1.7,0.7c-0.9,0.2-1.9,0.4-2.8,0.8c-1.3,0.4-2.3,1.2-3.3,2c-0.3,0.2-0.6,0.4-0.9,0.6 c-1.3,0.7-2.8,1-3.8,2.2c-0.5,0.5-1.1,1-1.8,1.4c-0.7,0.4-1.3,0.7-2,0.9c-0.7,0.3-1.4,0.6-2,1.1c-1.4,1.2-2.6,2.6-4.1,3.6 c-1.6,1.1-3.1,2.4-4.7,3.6c-2.4,2.2-5.2,3.9-7.4,6.3c-0.4,0.4-0.9,0.8-1.3,1.2c-0.5,0.4-1,0.6-1.6,0.6c-3.4,3.3-6.9,6.7-10.3,10 c-0.8,0.7-1.4,2.6-2.7,1.4c-1.2-1.1,0.2-2.2,1-3c7.4-7.9,15.5-15,23.9-21.8c15.8-12.8,34.2-19.5,53.8-23.8 C361.8,345.7,367.8,343.2,373.9,341.2z"/><path class="st10" d="M150.8,359.2c-2.4,1.2-1.5-0.8-1.7-1.7c-0.9-2.9,2.5-4.9,1.7-7.8c-0.2-0.3-0.4-0.6-0.6-0.9 c-0.3-0.2-0.5-0.5-0.8-0.7c-0.8-0.5-1.7-0.5-2.5-0.6c-0.6-0.1-1.1-0.2-1.7-0.3c-1.6-0.5-2.8-1.5-4.2-2.4c-1.6-0.7-2-2.3-2.7-3.7 c11.1,4.2,22.6,6.7,34,9.9c24.9,7,44.2,22.9,61.7,41.2c0.6,0.6,1,1.5,1.4,2.3c0.2,0.3,0,0.8,0,1.5c-2.5-0.2-3.1-2.8-5-3.5 c-1.3-0.2-1.8-1.4-2.5-2.2c-1-1.1-2.1-2.2-3.2-3.2c-0.9-0.8-1.9-1.2-2.9-1.7c-0.4-0.2-0.7-0.4-1-0.7c-1.9-2.3-3.6-4.8-6.2-6.4 c-0.3-0.2-0.7-0.5-1-0.7c-0.9-0.8-1.7-1.7-2.6-2.4c-1.1-0.8-2.3-1.6-3.3-2.5c-0.5-0.3-1-0.7-1.5-1c-0.3-0.2-0.7-0.5-1-0.7 c-1.2-1.1-2.5-2-3.9-2.7c-1-0.6-1.9-1.3-2.8-2c-0.6-0.4-1.2-0.8-1.9-1.2c-1-0.5-2-1.1-3-1.8c-2.7-1.6-5.5-2.9-8.3-4.2 c-1.3-0.7-2.7-1.4-4.2-1.7c-0.9-0.2-1.7-0.6-2.6-0.9c-0.3-0.1-0.6-0.3-1-0.5c-0.7-0.3-1.3-0.5-2-0.7c-0.4-0.1-0.7-0.2-1.1-0.3 c-1.1-0.4-2.1-0.7-3.2-1c-1.3-0.2-2.5-0.7-3.8-0.8c-0.6,0-1.1,0-1.7,0c-1.2-0.6-2.5-1.2-3.8-1.4c-0.7-0.2-1.4-0.4-2.2-0.6 c-1.1-0.2-2.1-0.7-3.2-0.6c-0.9,0.2-1.1,1-1.5,1.6c-0.9,1.7-1.7,3.5-2.6,5.2C152,358.2,151.6,358.9,150.8,359.2z"/><path class="st8" d="M290.2,444.8c0,6.5-0.2,12.9,0.1,19.4c0.2,3.3-1.5,3.9-3.9,4c-2.9,0.1-1.6-2.3-1.6-3.5 c-0.1-12.6,0.1-25.3-0.2-37.9c-0.1-3.3,1.6-3.9,3.9-4c3-0.2,1.5,2.3,1.6,3.5C290.3,432.5,290.2,438.7,290.2,444.8z"/><path class="st11" d="M247.5,407.1c0.6,0,1.2,0,1.8,0c2.6,1,5.7,0,8.2,1.8c-2.1,3-4,6.2-7.1,9.1c-2.1-6.4-6.4-10.3-12.2-12.6 c-2.9-1.1-2.5-2.9-0.5-4.7c0.9,0.4,1.8,0.8,2.5,1.4C242.4,404.2,245.5,404.8,247.5,407.1z"/><path class="st12" d="M278.1,484c0,4.8,0,9.5,0,14.3c4.5,0.2,6.3-1.5,5.7-5.8c-0.3-2.2-0.1-4.5,0-6.8c0-0.8,0.3-1.5,1.2-1.6 c1.1-0.1,1.1,0.7,1.1,1.5c0,4.8,0.1,9.6-0.1,14.4c0,1.5-0.6,3-2.4,0.8c-1.6-2-3.3,0-4.8,0.3c-2,0.5-3,0.7-2.9-1.9 c0.1-5.1,0-10.2,0-15.3C276.8,484,277.5,484,278.1,484z"/><path class="st13" d="M244,483.9c0,5.3,0.1,10.6-0.1,15.8c-0.1,2-0.3,3.2-2.6,0.7c-1.5-1.6-4.5,1.5-7.3,1.2c0-5.1,0-10.2,0-15.3 c0-1-0.1-2.4,1.5-2.2c1.2,0.2,0.8,1.4,0.8,2.2c0,3-0.1,6,0.1,9c0.1,1.1-0.9,3.2,1.4,2.9c1.7-0.2,4.2-0.1,4.1-3c0-3.2,0-6.3,0-9.5 C242,485,242.2,484.3,244,483.9z"/><path class="st14" d="M164.5,499.3c-2-5-0.2-10.2-1-15.7c3.6,0.9,7.7,3.3,7.9,5.2c0.3,2.9-1.5,5.9,1.5,8.4c-2.6,1.9-5,4-8.1,5 c-0.2,0.1-0.6-0.4-1-0.7c0.5-0.5,1-1,1.4-1.5c0.7-1.1,1.8-1.9,2.2-3.3C166.9,498.2,165.9,499,164.5,499.3z"/><path class="st15" d="M294.5,483.1c3.4,3.4,6.2,6.1,8.9,8.9c0.5,0.5,1.5,1,0.8,1.8c-2.6,2.9-5.2,5.8-8,8.5 c-0.8,0.8-1.6-0.7-1.5-0.8c2.4-2.8-1.1-5.2-0.4-8.1C295.1,490.4,294.5,487.2,294.5,483.1z"/><path class="st16" d="M180.2,502.4c-6.6-9.4-6.6-9.4-0.1-18.8C187.5,490.7,187.5,494.7,180.2,502.4z"/><path class="st17" d="M270.4,499.8c-0.8,0.9-1.5,1.8-2.3,2.7c-7.1-9.2-7.1-9.2-0.2-19.1c2.5,2.2,3.8,5.3,5.4,8 c2.3,3.8-2.7,5.4-3,8.5C270.3,499.9,270.4,499.8,270.4,499.8z"/><path class="st18" d="M223.4,497.5c-1.6,0.7-0.7,4.4-3,3.4c-1.5-0.7,0.3-3.1,0.9-4.6c1.4-4.1,2.9-8.1,4.8-13.4 c2.2,7.5,4,13.8,6.1,21c-3.3-2.6-7.3-2.5-8.5-6.5c2.5-0.3,4.1-1,2-4C225.1,494.9,224.5,496.3,223.4,497.5z"/><path class="st18" d="M250.8,496.2c-2,1.5-1.9,6.2-3.8,5.2c-2.2-1.1,0.7-4.3,1.6-6.3c1.1-2.5,0-4.3-0.6-6.4 c-0.5-1.6-2.4-3.3-0.3-5.3c1.7,1.6,1.8,3.9,2.9,5.6c1.4-0.6,1.3-2.1,2-3.1c0.6-0.8,0.5-2.8,2.1-2c1.5,0.7,0.3,2.3-0.2,3.1 c-2.5,3.9-2.5,7.7-0.3,11.7c0.5,0.9,1.3,2.2,0.1,2.8c-1.8,0.9-1.5-1.2-2.1-2.1C251.6,498.5,251.3,497.3,250.8,496.2z"/><path class="st11" d="M271,396.3c-0.9,0.5-1.8,0.6-2.7,0c-3.2-1-5-3.4-6.7-6c-1-1.1-1-2.6-1.4-3.9c4-1.4,12.4,3.3,13.1,7.4 C273.7,395.7,272.5,396.1,271,396.3z"/><path class="st19" d="M190.8,494.8c-0.7,2.3,0.6,5-1.8,8.3c0-6.9,0-12.5,0-18.4c2.6,0.8,4.5,2.9,6.8,4.4c0.6,0.4,1.5,0.9,0.6,1.7 c-3.3,3.1-1.4,5.7,0.5,8.5c0.5,0.8,1.6,1.8,0.1,2.5c-1.1,0.5-1.5-0.6-1.9-1.3c-1.2-1.9-2.4-3.7-3.7-5.6c-0.7-1.1,0.2-2,0.2-2.9 C191.1,492.7,191.2,493.8,190.8,494.8z"/><path class="st20" d="M338.7,390.9c-0.3-0.3-0.7-0.5-1-0.8c-2.8-2.1-3.5-5.4-4.8-8.4c-0.2-0.4-0.3-0.7-0.5-1.1 c-1.8-3.6-3.4-7.3-5-11c-0.4-0.9-0.9-1.8-1.3-2.7c-0.5-1.1-1.1-2.2-1.7-3.3c-0.4-1.4-1.5-2.8,0.5-3.8c3.3-0.6,3.4,2.5,4.8,4.1 c0.2,0.3,0.4,0.7,0.5,1.1c0.9,3.1,2.1,6.2,3.9,8.9c0.3,0.3,0.4,0.7,0.6,1.1c1,3.1,2,6.1,3.9,8.8c0.3,0.3,0.4,0.7,0.6,1.1 C339.3,386.9,341.6,389.1,338.7,390.9z"/><path class="st21" d="M333.2,390.9c-1.2,4.1-2.3,0.2-3.5,0c-0.3-0.2-0.6-0.6-0.9-0.9c-1.4-3-2.7-6.1-4-9.1 c-0.2-0.4-0.4-0.7-0.6-1.1c-2.4-4.9-4.5-9.8-6.6-14.8c-0.1-1,0.6-1.5,1.3-2l0,0c2.3-1.3,2.5,1.1,3.6,2c0.2,0.3,0.4,0.7,0.5,1.1 c0.9,3.2,1.9,6.4,4.1,9c0.2,0.4,0.4,0.7,0.5,1.2c0.8,3,2.4,5.7,3.9,8.4c0.2,0.3,0.4,0.7,0.6,1.1C332.2,387.5,333.4,389,333.2,390.9 z"/><path class="st11" d="M312.5,366.5c0.5-0.3,1.1-0.6,1.6-0.9c0.7,0,1.2,0.3,1.6,0.8c1.1,1.9,2.3,3.8,2.7,6c-0.1,1.4,0.4,2.6,1.4,3.5 c0.2,0.3,0.4,0.7,0.5,1.1c1,3,2,6,3.9,8.7c0.2,0.3,0.4,0.7,0.6,1.1c0.3,2.3,2.1,4.5,0.3,6.8c-0.9-0.6-1.7-1.2-2.6-1.8 c-0.5-0.4-0.9-0.9-1.1-1.4c-0.9-2.3-2.1-4.4-3.2-6.6c-0.6-1.1-1-2.3-1.5-3.5c-1.5-3.8-3.9-7.2-4.9-11.3 C311.7,368.1,312,367.3,312.5,366.5z"/><path class="st22" d="M327,376.2c0-0.2,0-0.5,0-0.7c-2.3-2.9-3.5-6.4-4.5-9.9l0,0c-0.8-1.4-3-3,0.4-4.1c1,0.2,1.4,1,1.8,1.8 c0.7,1.3,1.3,2.6,1.8,3.9c0.5,0.9,0.7,1.9,1.3,2.8c1.9,3.6,3.2,7.5,5.5,10.9l0,0.1c0.1,2.2,1.3,3.9,2.2,5.8c0.8,1.6,1.7,3.2,0.5,5 c-0.7,0-1.4-0.2-1.8-0.9c-1.8-1.4-1.8-3.6-2.7-5.5l0,0C329.7,382.6,328.2,379.5,327,376.2z"/><path class="st23" d="M179,389.2c-0.7,0.8-0.8,2.4-2.2,2.1c-1-0.2-0.5-1.4-0.5-2.2c-0.2-2.2,1.3-3.9,1.9-5.8c1.2-3.4,3-6.5,4.4-9.8 c1.4-3.5,3-6.9,4.8-10.2c0.8-1.1,1.7-2.4,3.2-1.2c1.1,0.8,0.7,2.1,0.4,3.3c-0.3,1-0.8,1.9-1.2,2.9c-1.6,4.1-3.9,7.9-5.4,12.1 C182.7,383.3,182,386.9,179,389.2z"/><path class="st24" d="M174.4,390c-0.8-0.4-0.9-1.1-1-1.8c-1.2-3.7,2.1-6,2.8-9.1c1.3-3.2,2.8-6.3,4.3-9.4c0.6-1.2,0.9-2.5,1.4-3.7 c0.7-1.5,1.3-3,2.2-4.3c0.8-1.2,1.8-2.7,3.5-1.7c1.6,1,0.2,2.3-0.2,3.5c-1.3,3.5-3.3,6.7-4.6,10.1c-1.5,3.3-3,6.6-4.5,9.9 c-1.1,1.8-1.3,4.1-3.1,5.5C175,389.4,174.7,389.7,174.4,390z"/><path class="st24" d="M317.9,372.7c-1-2-2.4-3.8-2.7-6.1c-0.4-1.6,0.5-2,1.8-2.1c3,3.3,3.5,7.8,5.7,11.4c0.9,1.4,1.1,3.1,2.4,4.2 l0,0c1.1,3.5,2.2,6.9,4.5,9.8c0,0.3,0,0.7,0,1c-0.1,0.9,0,1.9-1.1,2.2c-0.8,0.2-1.3-0.5-1.6-1.2c-1.9-1.4-1.8-3.6-2.6-5.5l0,0 c-2.1-3-3.6-6.3-4.5-9.9l0-0.1C318.8,375.4,318,374.2,317.9,372.7z"/><path class="st25" d="M242.9,396.2c-4.9-1.5-4.9-1.6-1.4-5.4c2-2.1,4.1-3.8,6.8-4.9c2.2-0.9,3.1-0.2,2.8,2.1 C249.7,392.2,247.7,395.6,242.9,396.2z"/><path class="st23" d="M273.8,401.8c1-0.5,2-0.9,2.4,0.7c0.4,1.4-0.4,2.3-1.7,2.7c-5.5,1.7-9.1,5.4-11.8,11 c-1.4-2.4-2.5-4.4-3.6-6.3c-0.1-2,1.4-2.4,2.9-2.7c1.6-0.3,3.1-1,4.7-1.4C269.2,404.8,271.1,402.6,273.8,401.8z"/><path class="st23" d="M181.6,391.8c-2.4,1.2-1.8-0.6-1.8-1.8c0.5-3.7,3-6.6,4.2-10c1.3-4,3.7-7.4,5.2-11.3c1.5-1.8,0.5-6,4.8-5.3 c0.4,0.2,0.7,0.6,0.8,1c-0.4,3.8-2.8,6.9-4.2,10.4c-1.4,3.4-3,6.7-4.6,10C184.3,387,184.5,390.4,181.6,391.8z"/><path class="st11" d="M196.8,364.7c0.8,0,1.5,0.2,2,0.9c-0.1,0.2-0.1,0.4-0.2,0.6c-0.6,1.3-1.2,2.6-1.7,3.9 c-1.4,3.2-3.5,6.1-4.7,9.4c-1.9,3.6-2.3,8-5.9,10.7c-0.7,1.2-0.6,3.4-3,2.6c-0.9-3.2,1.5-5.4,2.4-8c1.5-3.4,3.1-6.7,4.6-10 c1.4-3.1,2.8-6.3,4.3-9.4C195.1,364.5,195.8,364,196.8,364.7z"/><path class="st26" d="M322.4,389.9c0,0.6,0,1.2,0,1.8c-0.3,1.9-1.2,2.5-2.8,1c-2-1-2-3.3-3-4.8c-0.2-0.3-0.4-0.7-0.6-1 c-1-2.2-1.9-4.4-3.3-6.4c-0.4-0.5-0.7-1-1-1.6c-0.7-1.8-1.2-3.6-2-5.4c-0.4-1.8-2-4,1.4-4.7c0.7,0.2,1.1,0.8,1.5,1.2 c0.9,3.6,2.9,6.6,4.5,9.9c0.2,1.2,0.6,2.4,1.1,3.5C319.8,385.5,320.2,388.3,322.4,389.9z"/><path class="st24" d="M193.5,391c-0.7,1.2-0.7,3.3-3,2.6c-1.6-3.3,1.1-5.5,2-8.2c1.7-3.2,2.8-6.7,4.5-9.9c0.7-1.5,1.2-3.2,2-4.7 c0.6-1,1.2-1.9,2.4-2.1c2.3,0,2.4,1.3,1.8,3c-0.7,2.1-1.8,4-2.1,6.1c-0.3,1.6-1,3-1.8,4.4C197.1,385,196.2,388.6,193.5,391z"/><path class="st27" d="M299.7,392.7c-0.1,0.7-0.1,1.4-0.2,2.1c-1.8-1.3-4.4,1.1-6-1.2c-3.4-2.1-3.5-5.3-3-8.8c1.4-1.3,1.8,0.2,2.5,1 c0.4,1,1,1.9,1.5,2.9c-0.4-0.8-0.6-1.6-1.2-2.3c-0.2-1.2-1.7-2.1-0.9-3.5c1.1-1.6,2.5-1.6,3.9-0.5c0.3,0.3,0.5,0.7,0.6,1.1 C296.7,386.9,299.9,389.3,299.7,392.7z"/><path class="st22" d="M198.7,382c0.6-1.5,1.2-3.1,1.9-4.6c0.7-2,1.6-3.9,2.6-5.8c0.8-1,1.7-1.4,2.9-0.6l0,0 c1.1,1.3,0.3,2.4-0.1,3.6c-1.8,3.9-3.5,7.9-5.2,11.8c-0.1,0.4-0.3,0.7-0.5,1.1c-0.8,1.5-1.5,3.3-3.1,4.2c-0.6,0.8-0.7,2.2-2,2.2 c-1.3-0.1-0.8-1.3-0.8-2.2C194.8,388.1,197,385.2,198.7,382z"/><path class="st24" d="M188.8,392.7c-2.3,1.1-1.7-0.6-1.8-1.8c1.1-4.2,3.2-7.9,5-11.8c1-3.6,3.3-6.5,4.6-9.9 c0.6-0.7,0.7-1.7,1.5-2.2c3.5,0.2,2,2.1,1.2,3.8c-0.7,1.6-1.4,3.2-2.1,4.8c-1.4,3.3-2.9,6.6-4.5,9.9 C191.3,387.8,191.2,390.9,188.8,392.7z"/><path class="st28" d="M211.1,488.9c0.8-0.7,1.4-1.2,2-1.6c1.5-0.9,3.3-3.7,4.5-2.6c2.2,2.1-1.6,2.3-2.2,3.7 c-1.1,2.8,2.6,2.9,2.5,5.3c-1,1-2.3,2.2-3.4,3.2c0.5,2.4,5,3,3.2,4.9c-1.5,1.6-3.4-2.1-5.4-3.1c-1.3-0.7-1.9-1.7-0.3-2.6 C216.6,493.4,213.5,491.4,211.1,488.9z"/><path class="st29" d="M314.2,390.9c-0.2,1.1,0.9,2.7-0.8,3.1c-1.1,0.3-1.4-1.3-2-2.1c-1-0.7-1.8-1.5-2.3-2.7 c-0.6-1.1-1-2.2-1.4-3.3c-0.8-2.3-2.1-4.4-3.1-6.6c-0.2-0.4-0.3-0.8-0.5-1.2c-0.3-1.7-1.4-3.5,0.8-4.7c0.7-0.1,1.3,0.2,1.8,0.7 c2.3,2.7,2.6,6.5,5,9.2c0.6,0.8,1,1.7,1.2,2.7C312.9,387.7,314.5,389.1,314.2,390.9z"/><path class="st21" d="M312.5,386.4c-0.3-0.9-0.6-1.9-0.9-2.8c-2.3-3-3.4-6.6-5-10c-0.4-1.2-0.3-2.2,0.9-2.8 c1.8,0.3,2.3,1.8,2.8,3.2c0.6,1.7,1.4,3.4,2,5.1c0.3,0.3,0.7,0.5,1,0.8c1,2.6,1.7,5.3,3.6,7.4l0,0c0.2,1.4,1,2.7,1.3,4.2 c0.3,1.6,0.1,3-2.1,2.1c-0.4-0.9-0.7-1.7-1.1-2.6C313.7,389.7,313.2,388,312.5,386.4z"/><path class="st30" d="M326.7,502c0-4.3,0.1-8.3,0-12.3c0-1,0.7-2.5-1-3c-0.9-0.3-2.4,0.6-2.4-1c0-1.7,1.8-1.2,2.8-1.5 c0.7-0.2,1.5-0.3,2.2-0.3c1.4-0.1,3.3-1.6,3.9,0c0.8,1.9-1.6,1.5-2.7,2c-1.2,0.6-0.7,1.8-0.7,2.7c-0.1,3.4,0,6.9,0,10.3 C328.8,499.9,329.2,501.3,326.7,502z"/><path class="st31" d="M200.7,391.9c-0.4,1.1-0.6,2.5-2.1,2.1c-1-0.2-0.6-1.4-0.7-2.2c0.5-1.5,1.2-3,1.8-4.5l0,0 c2-4.2,4-8.5,5.9-12.8c0.4-1.1,0.9-2,2.3-1.9c1.6,1,1.8,2.4,1,4.1c-1,2.1-2.1,4.1-3,6.2c-0.7,1.5-1.1,3.1-1.9,4.5 C203,389,202.5,390.9,200.7,391.9z"/><path class="st7" d="M319,501.9c0-5.4,0-10.5,0-15.6c0-0.9-0.1-2.1,1-2.2c1.8-0.2,1.1,1.4,1.1,2.3c0.1,4.2,0,8.4,0,12.6 C321.2,500.2,321.3,501.5,319,501.9z"/><path class="st7" d="M291.3,492.8c0,2.5,0,5.1,0,7.6c0,0.8-0.5,1.4-1.5,1.2c-0.9-0.1-0.6-0.9-0.6-1.4c0-4.8,0-9.6,0-14.4 c0-0.8,0.2-1.7,1.1-1.7c1.4-0.1,1.1,1.1,1.1,1.9C291.4,488.3,291.4,490.5,291.3,492.8C291.4,492.8,291.3,492.8,291.3,492.8z"/><path class="st32" d="M201.4,499.2c-1-0.1-1.7-0.5-1.7-1.6c0-4.3-0.1-8.5,0-12.8c0-1.2,0.4-2.2,1.8-1c0.2,3.6-0.1,7.2,0,9.1 c0.1-3.9,0.1-3.9,2.8-4.2c1.6,1.5,4.1,2.9,3.1,5.5C206.4,496.7,204.8,499.2,201.4,499.2z"/><path class="st33" d="M337.5,483.7c1.2,0.2,1.6,1.3,0.9,1.9c-5.3,4.9-5.1,9.7-0.2,14.6c0.6,0.6,0.6,1.3-0.2,1.9 c-1.1,0.8-1.2-0.3-1.6-0.8c-1.6-2.3-3.2-4.7-4.8-7.1c-0.2-0.2-0.4-0.5-0.5-0.8C330.9,492.7,336.6,483.8,337.5,483.7z"/><path class="st32" d="M307.9,499.2c-1-0.1-1.7-0.5-1.7-1.6c0-4.3-0.1-8.5,0-12.8c0-1.2,0.4-2.2,1.8-1c0.2,3.6-0.1,7.2,0,9 c0.1-3.8,0.1-3.8,2.8-4.2c1.6,1.5,4.1,2.9,3.1,5.5C312.9,496.7,311.3,499.2,307.9,499.2z"/><path class="st21" d="M205.1,390.9c-0.5,0.9-0.8,1.9-1.5,2.7c-1.3,1.4-2,0.8-2.1-0.9c0.3-2,1.1-3.9,2.2-5.6c0.6-1.5,1.3-3,1.8-4.5 c0.8-2.2,2.1-4.1,2.9-6.2c0.6-0.7,1.2-1.3,2.2-1.3c0.7,0.2,1.1,0.7,1.4,1.3c-0.1,4.2-3,7.2-4.3,10.9 C207.1,388.7,206.6,390.2,205.1,390.9z"/><path class="st34" d="M341.8,502.1c0-6.2,0-12.1,0-18c2.2,1.8,0.9,4.1,1.8,6c1.1,0.4,1.7-0.6,2.5-0.8c0.6-0.2,1.4-1,1.7,0.3 c0.2,0.6,0.2,1.3-0.5,1.5c-5.1,1.3-4,5.5-4.1,9C343.2,500.8,342.9,501.5,341.8,502.1z"/><path class="st27" d="M305.3,378.2c0,0.3,0,0.5,0,0.8c0.5,2.6,2.3,4.6,2.9,7.1c0.2,0.9,0.8,1.8,1.1,2.7c0.4,1,1.2,1.9,1.4,3.1 c-0.1,0.8,0.4,2.1-0.5,2.3c-1.5,0.3-1.6-1.4-2.2-2.2c-3.1-2.1-3.2-5.9-5-8.7c-0.2-0.4-0.4-0.8-0.6-1.2c-0.6-2.2-3.1-4-1.5-6.7 C303.9,373.9,303.9,377.1,305.3,378.2z"/><path class="st24" d="M303.5,381.8c0,0.3,0,0.7,0.1,1c0.6,3.5,3,6.4,3.6,9.9c-0.1,0.7,0.1,1.6-0.9,1.6c-1,0-1.4-0.9-1.8-1.6 c-1-0.9-1.6-2.1-2.3-3.3c-0.2-0.3-0.4-0.7-0.6-1.1c-1.2-2.4-2.5-4.8-3.5-7.3c-0.6-1.4-0.7-2.8,0.8-3.6c1.9-1,2.2,0.9,2.8,1.9 C302.1,380.3,302.4,381.3,303.5,381.8z"/><path class="st24" d="M208,392.7c-0.4,1-0.9,2.3-2.1,1.6c-1.7-1,0.5-2.2,0.2-3.4c0.3-1.4,0.9-2.7,1.5-4c1.3-3.4,3.1-6.6,4.7-9.8 c0.7-0.3,1.3-0.2,1.8,0.3l0,0c0.7,0.7,0.9,1.6,0.7,2.6C212.4,384.1,211.8,389.3,208,392.7z"/><path class="st35" d="M213.3,390c-0.7,1.3-1.2,2.8-2.1,3.9c-1.9,2.1-2.3,0.6-2.4-1.2c1.7-4.1,3.4-8.2,5.4-12.1 c2.7-2,3.7-0.5,3.2,1.9C216.7,385.3,215.9,388.2,213.3,390z"/><path class="st36" d="M311.5,437c-0.9,0.6-1.8,1.1-2.6,1.7c0.6-4.9-1.5-10.1,1.4-14.6c0.4,0,0.8,0.1,1.2,0.1 C311.5,428.5,311.5,432.7,311.5,437z"/><path class="st37" d="M201.4,499.2c1-0.1,1.4-1,2.1-1.5c3.5-2.5,4.4-5.3,0.6-8.3c0.1-0.6,0.5-0.9,1-1.1c5.6,4.7,5.6,4.7,0.7,9.9 c-0.8,0.9-1.6,1.8-2.4,2.6c-0.7,0.7-1.3,2.1-2.4,1.5C199.4,501.3,201.6,500.3,201.4,499.2z"/><path class="st38" d="M307.9,499.2c1-0.1,1.4-1,2.1-1.5c3.5-2.5,4.4-5.3,0.6-8.3c0.1-0.6,0.5-0.9,1-1.1c5.6,4.7,5.6,4.7,0.7,9.9 c-0.8,0.9-1.6,1.8-2.4,2.6c-0.7,0.7-1.3,2.1-2.4,1.5C306,501.3,308.1,500.3,307.9,499.2z"/><path class="st29" d="M274.5,410.4c-1.1,3.5-5.2,6.1-8.2,5.3c-2.1-0.5-0.9-1.9-0.4-2.7C268.1,410,271.5,411.1,274.5,410.4z"/><path class="st6" d="M349.2,501.7c-0.5-5.9-1.4-11.8,0.6-17.7C350.2,490,351,495.9,349.2,501.7z"/><path class="st24" d="M296.3,383.7c0-0.3,0-0.6,0-0.9c-1.1-0.7-1.5-1.5-0.4-2.4c1.2-0.9,1.9,0,2.5,0.9c1.5,2.5,2.4,5.4,4.2,7.8l0,0 c0.2,1.2,0.8,2.3,0.8,3.6c-0.1,0.7,0.1,1.5-0.9,1.6c-1,0-1.4-0.8-1.8-1.5C298.3,390.2,297.4,386.9,296.3,383.7z"/><path class="st6" d="M311.7,488.3c-0.3,0.4-0.7,0.7-1,1.1c-1.9-1.3-1.6,0.2-1.8,1.3c-0.3,2.5,0.9,5.2-1.4,7.5 c0-4.8-1.9-9.6,0.6-14.3C309.3,485.3,310.5,486.8,311.7,488.3z"/><path class="st6" d="M205.1,488.3c-0.3,0.4-0.7,0.7-1,1.1c-1.9-1.3-1.6,0.2-1.7,1.3c-0.2,2.5,0.7,5.2-1.4,7.5c0-4.8-2-9.6,0.5-14.3 C202.7,485.3,203.9,486.8,205.1,488.3z"/><path class="st39" d="M267.3,406.2c-2.4,1.9-6.2,1-8.3,3.7c-0.6-0.3-1.1-0.6-1.7-0.9c-2.8-0.2-5.6-0.4-8.2-1.8 c5.8,0.1,11.5-0.1,17.1-1.9C267.3,404.8,267.5,405.3,267.3,406.2z"/><path class="st22" d="M215.2,393.7c-0.8,0.6-1.9,2.7-2-0.3c0-1.1,0.6-2.3,0.9-3.4c0.8-2.1,1.3-4.3,2.5-6.2c0.5-0.8,0.5-2.3,2-1.9 c1.2,0.3,1.4,1.5,1.6,2.5C219.3,387.9,218.1,391.2,215.2,393.7z"/><path class="st29" d="M221.5,384.6c0.2,0,0.4-0.1,0.5-0.1c1.3,1.1,0.8,2.5,0.8,3.8c0,0.4-0.1,0.8-0.3,1.1c-0.8,1.3-1.6,2.7-2.2,4.1 c-0.2,0.4-0.5,0.6-0.8,0.9c-1.2,0.4-2.3,1.9-3.6,0.1c0.6-3.8,2.9-6.8,4.4-10.1C220.8,384.2,221.2,384.3,221.5,384.6z"/><path class="st40" d="M221.5,384.6c-0.4,0-0.7,0-1.1,0c-0.2,0.5-0.5,0.4-0.7,0c-0.4-1.3-0.4-3.8-2.4-0.9c-1.3,2-1.3,4.6-3.2,6.3 c-0.3,0-0.5,0-0.8,0c1-2.4,2.2-4.8,3.1-7.2c1-2.6,0-3-2.2-1.7c-0.3-0.2-0.4-0.5-0.3-0.7c0.1-0.3,0.1-0.4,0.2-0.4c0-0.9,0-1.7,0-2.6 C217.7,378.6,219.8,381.4,221.5,384.6z"/><path class="st41" d="M223.4,497.5c0.2-2.5,1.2-4.8,2.7-7.6c0.4,1.2,0.6,1.7,0.7,2.2c0.6,2.1,1.2,4.3,1.9,6.6 c-2.1,0.5-3.1-1.9-4.9-1.3C223.8,497.4,223.4,497.5,223.4,497.5z"/><path class="st31" d="M219.5,394.4c0-0.3,0-0.5,0-0.8c1.1-1.3,1.6-3.1,2.7-4.5c0-0.2,0-0.5,0-0.7c0.3-1,0.9-1.5,2-1.3 c2.7,3.3,0.3,5.3-1.8,7.5C221.4,396.3,220.4,396.4,219.5,394.4z"/><path class="st42" d="M287.9,390c-0.3-1.2-0.4-2.2,1.1-2.7c2.1,1.6,2.7,4,3.6,6.3c-1.2,4.1-2.3,0.5-3.4,0 C288.1,392.6,287.1,391.6,287.9,390z"/><path class="st43" d="M192.3,379.1c-1.1,4.2-3.1,8-5.2,11.8c-0.3-0.3-0.5-0.6-0.8-0.8c1.9-3.6,2.8-7.7,5.5-10.9 C191.9,379.2,192.1,379.2,192.3,379.1z"/><path class="st44" d="M214.1,380c0,0.4,0,0.7,0.1,1.1c-1.2,4.2-2.8,8.1-5.4,11.7c-0.3,0-0.5,0-0.8,0 C210,388.5,211.1,383.8,214.1,380z"/><path class="st45" d="M222.4,394.6c0.2-2.5,3.6-4.3,1.5-7.2c0.1-0.5,0.4-0.8,0.9-0.9c1.5,0.8,2.7,2,3.6,3.6 c-0.1,0.6-0.5,1.1-1.1,1.4c-1.8,0.5-1.8,3.4-4.2,3.1C223,394.5,222.7,394.5,222.4,394.6z"/><path class="st46" d="M164.5,499.3c2-1.3,1.1-3.5,1.7-5.5c1.7,0.5,3.5,1.7,3.3,2.9c-0.3,1.8-2.6,2.5-4.2,3.4 C165,499.8,164.8,499.5,164.5,499.3z"/><path class="st47" d="M242.9,396.2c4-1.4,6.1-4.8,8.2-8.2c0.3,0.3,0.5,0.6,0.8,0.9c-1.8,3.6-3.9,6.8-8,8.1 C243.5,396.8,243.2,396.5,242.9,396.2z"/><path class="st48" d="M284.5,392.7c0.2-1.5,0.9-2.6,2.6-2.6c0.7,1.1,1.2,2.3,1.2,3.6c0,0.7,0.6,1.5-0.2,2c-1.2,0.7-1.6-1-2.7-1.1 C284.8,394.1,284.5,393.5,284.5,392.7z"/><path class="st49" d="M198.7,382c-1,3.5-2.8,6.6-4.4,9.8c-0.2-0.3-0.5-0.6-0.7-0.8C194.9,387.8,195.8,384.3,198.7,382z"/><path class="st50" d="M336,391.8c0.5-2.4-0.9-4.3-1.8-6.3c-0.6-1.4-1.9-2.8-0.9-4.5c1.5,3,2.9,6.1,4.4,9.1 C337.1,390.7,336.5,391.2,336,391.8z"/><path class="st51" d="M307.1,392.7c-1.3-3.3-4.2-5.9-3.6-9.9c2.1,2.7,2.9,6.1,4.4,9.1C307.6,392.2,307.4,392.4,307.1,392.7z"/><path class="st52" d="M223.3,394.5c1.1-0.6,1.5-1.6,1.8-2.7c0.4-1.4,1.3-1.8,2.5-0.9c0.7,2,0,3.4-1.7,4.5 C224.5,396.6,223.4,396.9,223.3,394.5z"/><path class="st53" d="M225.9,395.5c0.6-1.5,1.1-3,1.7-4.5c0.3-0.3,0.6-0.6,0.9-0.9c0.6,0.8,1.3,1.7,1.9,2.5c0,0.4,0,0.7-0.1,1.1 c-1.6,0.6-1.9,2.2-2.5,3.5C227.2,396.6,226.5,396,225.9,395.5z"/><path class="st54" d="M184.1,380c-0.7,3.7-2.7,6.8-4.3,10c-0.3-0.3-0.5-0.6-0.8-0.8c1.5-3,3-6.1,4.5-9.1 C183.8,380.1,184,380,184.1,380z"/><path class="st55" d="M296.3,383.7c2.2,2.7,2.8,6.1,4.4,9.1c-0.3,0-0.6,0-1,0C298.1,389.9,295.6,387.4,296.3,383.7z"/><path class="st56" d="M238.4,481.1c2.3,4.4,0.4,9,1.1,13.5c-0.4,0-0.7,0-1.1,0C238.4,490.1,238.4,485.6,238.4,481.1 C238.4,481.1,238.4,481.1,238.4,481.1z"/><path class="st57" d="M219.7,384.6c0.2,0,0.5,0,0.7,0c-0.9,3.6-2.8,6.7-4.4,10c-0.3-0.3-0.5-0.6-0.8-0.9 C216.7,390.7,218.2,387.6,219.7,384.6z"/><path class="st43" d="M188.8,392.7c1.6-2.2,1.5-5.3,3.8-7.2c0.2,0,0.4,0,0.6-0.1c0,3-2.7,5.1-2.7,8.2 C190,393.3,189.4,393,188.8,392.7z"/><path class="st58" d="M267.3,406.2c-0.3-0.3-0.7-0.6-1-0.9c2.2-1.4,4.4-2.8,6.6-4.3c0.3,0.3,0.6,0.6,0.9,0.8 C272,403.9,269.8,405.1,267.3,406.2z"/><path class="st51" d="M186,384.6c-0.1,3-2.7,5.1-2.7,8.2c-0.5-0.3-1.1-0.6-1.6-0.9c1.5-2.3,1.5-5.3,3.7-7.2 C185.5,384.3,185.8,384.3,186,384.6z"/><path class="st44" d="M292.6,393.6c-1.2-2.1-2.4-4.2-3.6-6.3c1.1-0.7,0.9-1.9,0.9-2.9c0.3-0.3,0.6-0.5,0.9-0.8 c0.4,0.4,0.4,0.8,0.1,1.2c-0.8,3.4,1.6,5.9,2.5,8.8C293.2,393.6,292.9,393.6,292.6,393.6z"/><path class="st59" d="M190.8,494.8c0-2,0-4,0-6.1c5.5,1.6,0.4,4.1,0.6,6.1l-0.3,0L190.8,494.8z"/><path class="st60" d="M316.2,393.5c1.7,0.1,2-0.9,1.4-2.2c-0.5-1.3-1.4-2.5-0.6-4c1.7,1.4,1.8,3.6,2.7,5.5 C318.6,393.3,317.9,395.9,316.2,393.5z"/><path class="st61" d="M324.3,386.4c1.7,1.5,1.8,3.6,2.6,5.5c-0.6,0.6-1.3,1.1-1.9,1.7C326.1,391,323,388.9,324.3,386.4z"/><path class="st62" d="M338.7,390.9c2.1-2.1-1.5-4.2,0-6.3c3,0.3,2.5,2.6,2.7,4.6c-0.4,0.8-0.9,1.5-1.8,1.8 C339.3,390.9,339,390.9,338.7,390.9z"/><path class="st35" d="M284.5,392.7c0.8,0.4,0.9,1.1,1,1.9c-0.6,0.9-1.2,2.5-2.4,0.9C282.2,394.2,282.6,392.9,284.5,392.7z"/><path class="st61" d="M175.3,389.1c0.9-1.8,0.9-4.1,2.8-5.4c0.2,0,0.4,0,0.6-0.1c-0.1,2.1-1.1,3.9-2.4,5.4 C176,389.1,175.7,389.1,175.3,389.1z"/><path class="st63" d="M227.8,397.1c0.2-1.6-1.4-4.6,2.5-3.5C230.2,395.3,229.2,396.4,227.8,397.1z"/><path class="st31" d="M270.9,409c1.6-1.9,2.7-2.6,4.6-2.3C274.8,409.1,273.3,408.9,270.9,409z"/><path class="st61" d="M331.5,385.5c1.7,1.4,1.8,3.6,2.7,5.5c-0.3,0-0.7,0-1,0C331.9,389.3,330.5,387.8,331.5,385.5z"/><path class="st64" d="M204.1,387.3c-0.9,1.8-1.7,3.6-2.6,5.4c-0.3-0.3-0.5-0.6-0.8-0.8c0.8-1.5,1.6-3.1,2.5-4.6 C203.5,386.8,203.8,386.8,204.1,387.3z"/><path class="st65" d="M244.1,411.5c2.4,1,2.9,2.3,2.9,4.6C245.1,414.8,244.7,413.5,244.1,411.5z"/><path class="st47" d="M312.5,386.4c1.4,1.2,1.9,2.9,2.5,4.5c-0.3,0-0.6,0-0.9,0C313.2,389.6,311.9,388.4,312.5,386.4z"/><path class="st66" d="M260.2,386.4c0.6,1.2,1.2,2.4,1.8,3.6c0.5,0.9,0,1-0.8,0.9c-0.6-1.5-1.2-3-1.9-4.5 C259.6,386.4,259.9,386.4,260.2,386.4z"/><path class="st11" d="M237.1,407.6c1.5-0.8,2.5-0.1,3.5,1C239.1,409.2,238,409.1,237.1,407.6z"/><path class="st57" d="M199.7,387.3c0.1,1.8-0.4,3.3-1.8,4.5c-0.3,0-0.6,0-0.8,0C197.8,390.2,198.1,388.4,199.7,387.3z"/><path class="st67" d="M207.6,387.3c0,1.4-0.5,2.7-1.5,3.6c-0.3,0-0.7,0-1,0c0.7-1.2,0.5-2.8,1.9-3.6 C207.3,387.3,207.4,387.3,207.6,387.3z"/><path class="st68" d="M303.4,392.7c-1.2-1-1.5-2.2-0.8-3.6c1.1,1,1.7,2.2,1.8,3.6C304,392.7,303.7,392.7,303.4,392.7z"/><path class="st20" d="M237.8,411c0.1-0.6,0.4-1,0.9-0.7c0.3,0.2,0.6,0.6,0.6,1c0,0.4-0.2,0.9-0.8,0.6 C238.2,411.7,238,411.3,237.8,411z"/><path class="st55" d="M239.4,402.5c-0.6-0.6-1.2-1.1-1.8-1.7c0.3-0.3,0.6-0.5,0.9-0.8c0.7,0.6,1.3,1.1,2,1.7 C240.3,402.2,239.8,402.3,239.4,402.5z"/><path class="st0" d="M288.4,393.6c-0.8-1.1-1.2-2.2-1.2-3.6c0.3,0,0.5,0,0.8,0c0.4,1.2,0.8,2.4,1.2,3.6 C288.9,393.6,288.6,393.6,288.4,393.6z"/><path class="st64" d="M310.7,391.8c-1-0.6-1.2-1.7-1.6-2.7c0.3-0.4,0.6-0.4,0.8,0c1,0.7,1.2,1.8,1.6,2.8 C311.2,391.8,311,391.8,310.7,391.8z"/><path class="st69" d="M433,158.6c-3.8-0.9-7.5-2.1-10.9-4.1c-16-9-22.6-24.5-19-45c1.5-8.4-1.2-12.9-9.5-15 c-19.1-4.7-38.2-9.6-57.7-12.3c-6.2-0.9-5.8-0.8-6.1-6.9c-0.3-5,3.7-3.9,6-4.9c11.7-4.7,18.2-16.3,15.7-28.6 c-2.4-11.7-13.6-20.5-25.5-20.1c-12,0.5-22.5,9.5-24.3,21c-1.9,12.4,5,24.5,17,27.8c4.9,1.3,5.1,3.8,4.9,7.6 c-0.1,1.9-0.6,2.5-2.6,2.3c-18.8-2.1-37.7-3.1-56.7-3.6c-2.1-0.1-2.5-0.8-2.4-2.6c0.1-5.6,0.3-11.2-0.1-16.7 c-0.2-3.4,1.1-4.5,4.1-5.3c14.1-4,21.6-18.7,16.8-32.4c-4.9-13.7-20.6-20.4-34-14.6c-9.7,4.2-15.8,14-15.1,24.5 c0.6,10.7,7.8,19.7,18.4,22.5c3,0.8,4.1,1.9,3.9,5.1c-0.3,5.5-0.2,11.1,0,16.7c0.1,2.4-0.8,3.2-3.1,3.2c-3-0.1-6,0-9,0.1 c-15.6,0.4-31.2,1.6-46.7,3.7c-0.9,0.1-2.5,0.9-2.6-0.6c-0.3-2.5-0.4-5.2,0.1-7.6c0.3-1.6,2.5-1.2,3.9-1.6 c12.4-3.9,19.6-15.4,17.6-28.4c-1.8-11.8-12.9-21-25.2-21c-12.1,0-23.2,9.6-24.7,21.5c-1.7,13,5.7,24.8,18.2,27.8 c6,1.4,2.8,5.6,3.5,8.5c0.8,3.4-2.1,3-4,3.3c-20.4,3-40.5,7.5-60.3,12.9c-10.7,2.9-13,6-12.4,17c0.8,12.3-0.4,24-9.3,33.7 c-6.7,7.2-15.2,11.1-24.5,13.4c-8,2-10.8,6.6-9.1,14.7c1.1,5.3,2.1,10.6,3.2,15.8c12.6,57.4,32.7,112,63,162.6 c15.2,25.3,32.8,48.9,53.3,70.3c0.8,0.8,2,1.5,1.8,2.9c1.9,1.7,3.7,3.5,5.7,5c0.8,0.6,1.9,1.7,3.1,0.5c2.5-2.3,2.6-9.1,0.1-11.5 c-8.8-8.4-16.4-17.8-24.2-26.9c-1.1-1.3-1.4-2.1,0.1-3.1c0-0.7-0.2-1.4-0.7-2c-0.6-0.3-1.4-0.1-2-0.3c-0.5-0.1-0.9-0.4-1.3-0.8 c-0.3-0.4-0.7-0.8-1-1.3c-0.4-0.6-0.7-1.3-0.9-2c-0.4-0.6-1-1-1.5-1.5c-0.5-0.5-0.8-1.1-1.2-1.7c-0.3-0.4-0.6-0.9-1-1.2 c-0.6-0.7-1.1-1.4-1.6-2.1c-0.2-0.3-0.5-0.5-0.7-0.8c-0.7-0.6-1.1-1.4-1.4-2.2c-0.2-0.5-0.4-1-0.6-1.5c-0.5-0.7-1.2-1.3-1.7-2 c-0.3-0.4-0.6-0.8-1-1.2c-0.6-0.7-0.8-1.5-1-2.3c-0.2-0.5-0.6-0.9-1-1.3c-0.5-0.5-1-1-1.5-1.5c-0.3-0.4-0.7-0.9-1-1.3 c-0.6-0.7-1-1.5-1.2-2.4c-0.1-0.5-0.3-1-0.6-1.5c-0.7-0.5-1.4-1-1.7-1.9c-0.2-0.5-0.5-0.9-0.9-1.3c-0.6-0.7-0.8-1.6-1.1-2.4 c-0.2-0.5-0.6-0.9-1-1.3c-0.7-0.6-1.1-1.4-1.5-2.2c-0.3-0.5-0.6-0.9-0.9-1.3c-0.6-0.7-0.8-1.6-1.1-2.4c-0.4-0.8-1.1-1.5-1.7-2.2 c-1-1.1-1.9-2.3-3.1-3.1c-0.6-1.5-1.1-3.1-1.9-4.5c-15.1-26.1-27-53.6-37-82c-9.1-25.9-16-52.4-21.4-79.3c-0.8-4,0.3-5.7,4.6-6.8 c25.4-6.3,41.8-28.7,37.8-54.7c-0.9-5.9-0.1-6.8,5.8-8.5c16.6-4.7,33.4-8.3,50.4-11.3c20.5-3.6,41.2-6.1,62-6.6 c18-0.4,36-0.7,54,0.6c11.6,0.8,23.3,1.8,34.9,3.1c21.2,2.3,41.7,7.8,62.4,12.5c3.5,0.8,4.6,2.3,3.9,6c-1.1,5.4-1.5,10.7-0.9,16.4 c2,20.4,18.3,38.6,39.4,42.5c3.2,0.6,3.6,2.2,3.1,4.7c-1.1,5.1-2.3,10.2-3.4,15.3c-5.8,27.3-13.6,54-23.5,80.2 c-9.5,25.1-21.1,49.1-34.4,72.3c-0.6,1.6-2.6,1.8-3.3,3.2c-0.3,0.7-0.6,1.4-0.9,2.1c-0.3,0.9-0.8,1.7-1.5,2.3 c-0.4,0.4-0.7,0.8-1,1.3c-0.3,1-0.4,2.1-1.2,2.9c-0.2,0.3-0.5,0.5-0.7,0.8c-0.5,0.8-0.9,1.6-1.6,2.2c-0.4,0.4-0.7,0.8-1,1.3 c-0.3,0.8-0.5,1.7-1,2.4c-0.3,0.4-0.7,0.8-1,1.2c-0.5,0.7-1.2,1.3-1.7,2c-0.3,0.5-0.4,1-0.5,1.5c-0.2,1.3-1.4,0.7-2.1,1.1 c-1.5,1-0.9,2.9-1.9,4.1c-0.8,1.1-1.1,2.4-1.9,3.5c-0.3,0.4-0.7,0.9-1,1.4c-0.5,0.8-1.1,1.5-1.8,2c-0.3,0.2-0.5,0.5-0.7,0.8 c-0.4,0.8-1,1.4-1.7,1.9c-0.3,0.4-0.5,0.9-0.7,1.5c-0.2,0.9-0.7,1.6-1.4,2.2c-0.3,0.2-0.5,0.5-0.7,0.8c-0.5,0.7-0.9,1.6-1.5,2.2 c-0.4,0.4-0.8,0.7-1.1,1.2c-0.4,0.6-0.7,1.2-1.1,1.8c-0.5,0.7-1.2,1.3-1.3,2.2c-6.5,9.3-14.3,17.4-21.9,25.9c2.8-0.2,5.4-0.7,8-1.2 c1.8-0.3,3.7-0.9,4.1,1.8c10.5-10.4,19.5-22.1,28.1-34c33.6-46.2,56.9-97.4,72.9-152.1c5.3-18.3,9.6-36.8,13.4-55.4 C446.3,165.5,443.3,161.1,433,158.6z M172,47.1c0-10.2,8.6-18.9,18.9-19c10.3-0.1,19.5,9,19.4,19.2c-0.1,10.2-8.9,18.7-19.2,18.6 C180.6,65.8,172.1,57.4,172,47.1z M239.8,28.4c-0.1-10.2,9-19.3,19.3-19.1c10.3,0.2,19,8.9,19,19c0,10.2-8.8,18.7-19.1,18.7 C248.4,47,239.9,38.7,239.8,28.4z M326.8,65.8c-10.4,0-19.1-8.4-19.3-18.6c-0.1-10.1,8.6-19,18.8-19.2c10.4-0.2,19.4,8.6,19.4,19 C345.9,57.3,337.2,65.8,326.8,65.8z"/><path class="st21" d="M171.7,388.3c-1,0.4-2,0.6-1.9-1c-0.5-1.8,0.6-3.2,1.2-4.8c1.2-3.4,3-6.6,4.5-9.9c1.3-3.5,3.2-6.8,4.6-10.2 c0.6-1.2,0.9-2.6,1.8-3.5c1.5-1.5,2.6-1,3.2,0.9c-0.2,2.6-1.8,4.6-2.9,6.7c-0.4,1.2-0.8,2.5-1.2,3.7c-1.5,3-3.4,5.8-4.3,9.1 C175.2,382.3,174.1,385.7,171.7,388.3z"/><path class="st70" d="M332.4,356.6c0.3,0,0.6,0,0.9,0c0.3,0.3,0.6,0.6,0.8,0.9c0.7,1.4,1,3.1,1.8,4.5c1.9,3.6,3.2,7.5,5.4,11 c0.3,0.3,0.4,0.7,0.6,1.1c0.7,3.3,3,6.1,3.2,9.6c-0.1,1.2,0.1,2.6-1.7,2.6c-2.6-1.9-3.1-5-4.4-7.7c-1.4-3.1-2.9-6.3-4.2-9.5 c-0.2-0.4-0.4-0.7-0.6-1.1c-1.1-2.4-2.3-4.8-3.5-7.1C329.6,358.8,329.9,357.3,332.4,356.6z"/><path class="st11" d="M341.4,389.2c-1.3-1.3-1.1-3.5-2.7-4.6c0,0,0,0,0,0c-2.3-2.9-3.3-6.5-4.5-9.9l0,0c-2.1-3-3.6-6.3-4.5-9.9 l0-0.1c-1.1-1.6-2.3-3.2-2.1-5.4c3.7-2.9,2.5,2,4.1,2.5c1.2,2.1,1.6,4.7,3.4,6.5l0,0c0.8,3.6,2.9,6.7,4.1,10.2 c0.8,3,3.5,5.3,3.2,8.7C342.4,388,342.2,388.8,341.4,389.2z"/><path class="st71" d="M333.3,357.5c0-0.3,0-0.6,0-0.9c0.9-0.6,1.8-1.2,2.7-1.8c1,0.6,1.4,1.7,2.1,2.6c0.2,0.4,0.3,0.7,0.4,1.1 c1.2,3.6,3.1,7,4.9,10.3c0.2,0.4,0.3,0.7,0.4,1.1c0.5,2.8,2.4,5,3.1,7.7c0.4,1.1,0,2.4,0.8,3.4c0,1.3-0.6,2.2-1.8,2.7 c-2.3-3-3.3-6.5-4.5-9.9l0,0c-2.5-3.5-3.7-7.6-5.6-11.4C335,360.7,334.5,358.9,333.3,357.5z"/><path class="st11" d="M168.9,386.3c-1.5-0.5-1.5-1.5-1-2.7c-1.1-2.2,0.6-3.7,1.1-5.6c1.3-3.5,3.1-6.7,4.6-10.1 c1.1-2.9,2.5-5.6,3.8-8.4c0.6-1.3,1.2-2.8,3.1-2.4c3.2,2.1-0.5,3.7-0.4,5.6c-1.2,3.5-3.2,6.6-4.6,10.1c-1.5,3.3-3,6.5-4.5,9.8 C170.5,383.9,170.1,385.4,168.9,386.3z"/><path class="st23" d="M166.3,382.8c-0.8-0.4-1-1.1-1.1-1.9c-0.9-3.7,2.1-6,3-9.1c1.6-3.3,3-6.7,4.3-10.1c1.5-2.3,1.5-5.9,5.5-6l0,0 c1.5,2.2-0.1,3.9-0.9,5.8c-0.9,2-2.1,3.9-2.8,6.1c-1.3,3.7-3.5,7-4.9,10.6C168.4,379.7,168.2,381.8,166.3,382.8z"/><path class="st23" d="M343.2,369.9c0-0.3,0-0.5,0-0.8c-2.1-3.5-3.9-7.1-5.4-10.9c0-0.2,0-0.5,0-0.7c-0.7-0.9-0.8-1.9,0.1-2.7 c0.8-0.6,1.7-0.5,2.5,0c0.3,0.3,0.5,0.6,0.6,1c0.2,1.2,0.8,2.2,1.3,3.2c0.6,1.3,1,2.6,1.6,3.9c1.5,3.1,2.9,6.1,4.5,9.1 c0.2,0.3,0.4,0.7,0.6,1c0.1,1.5,1.3,2.8,0.5,4.4c-0.2,0.9,0.8,3-1.7,1.7c-0.8-0.4-1.1-1.2-1.4-1.9 C345.6,374.7,343.9,372.5,343.2,369.9z"/><path class="st21" d="M164.3,380c-1.2-0.5-1.7-1.4-1.7-2.6c-0.2-1.1,0-2.1,0.4-3c1.4-3,3.1-5.9,4.1-9.1c1.4-3.2,2.9-6.3,4.6-9.4 c0.9-1,1.9-2.1,3.5-1.1l0,0c1.1,3-2,4.6-2.3,7.2c-1.5,3.3-2.8,6.8-4.5,10.1C167.3,374.7,166.2,377.6,164.3,380z"/><path class="st72" d="M161.7,377.3c-0.6-0.9-1.2-1.8-1.8-2.7c0.9-1.2,0.4-2.8,1-4.1c1.3-3.4,3.3-6.5,4.6-9.8c1.7-2.6,1.2-7.1,6.1-7 c0.5,0.5,0.7,1.1,0.5,1.8c-1.2,3.5-3.2,6.6-4.6,10c-1.1,3.2-2.7,6.2-4.4,9.1C162.9,375.6,162.5,376.6,161.7,377.3z"/><path class="st72" d="M340.5,355.5c0-0.3,0-0.5,0-0.8c0-0.3,0-0.5,0-0.8c2.7-1.4,3.7,0.3,4.6,2.4c1.1,3.3,2.7,6.4,4.4,9.4 c0.2,0.3,0.4,0.7,0.5,1.1c0.1,2.8,2.9,4.8,2.3,7.8c0,1.3-0.6,2.1-1.7,2.7c-1.3-1.2-1.3-3-2-4.5l0,0c-2.1-2.9-3.1-6.4-4.8-9.6 c-0.7-1.2-0.9-2.7-1.8-3.8C341.6,358.1,340.8,356.9,340.5,355.5z"/><path class="st73" d="M355,370.1c-0.9,1.1,0.2,3.1-1.8,3.6c-2.4-1.8-2.6-4.7-3.6-7.2l0,0c-2-2.8-3-6.2-4.8-9.1 c0.1-1.5-1.4-2.7-0.9-4.3c2.2-1.2,3.2,0.4,4.2,1.9c0.9,1.4,1.3,3,2.3,4.4c0.2,0.3,0.4,0.7,0.6,1.1c0.7,3.2,2.3,6,4.3,8.6 C355.4,369.4,355.3,369.8,355,370.1z"/><path class="st21" d="M166.2,353c0.3-0.3,0.7-0.6,1-0.9c1.6,0.9,1.7,2.2,0.9,3.7c-0.9,1.7-1.6,3.4-2.4,5.1 c-1.2,3.4-3.1,6.5-4.5,9.8c-0.3,0.8-0.6,1.6-1.4,2c-1.2,0.1-1.7-0.6-1.7-1.7c-0.7-2.3,1.2-3.9,1.6-5.9c1.2-3.4,3.2-6.4,4.5-9.7 C164.6,354.3,165.1,353.4,166.2,353z"/><path class="st72" d="M355,370.1c0-0.3,0-0.6,0-0.9c-2.5-2.5-3.6-5.7-4.5-9l0,0c-1.3-2.5-3.3-4.7-3.1-7.7c2.8-1.6,3.5,1,4.9,2.5 c0.2,0.3,0.4,0.7,0.6,1.1c0.7,3.2,2.3,5.9,4.2,8.5c0.2,0.4,0.1,0.8-0.2,1.1C354.6,366.5,358.5,369.8,355,370.1z"/><path class="st26" d="M157.2,370.1c-1.6-0.5-1.5-1.6-1-2.8c-1.1-3,1.4-4.9,2.1-7.4c1.2-2.6,2-5.5,4-7.8c2.4-1.3,2.8,0.1,2.7,2.1 c-1,3.7-3.2,6.8-4.6,10.3C159.4,366.5,158.8,368.6,157.2,370.1z"/><path class="st26" d="M356.8,365.6c0-0.3,0-0.6,0-0.9c-2.5-2.5-3.6-5.6-4.5-8.9l0,0c-0.9-1.5-2.4-2.9-0.7-4.7 c3,0.2,3.4,2.9,4.6,4.9c0.8,1.4,1.3,3,2.2,4.4c0.2,0.3,0.4,0.7,0.5,1.1c0.2,1.1-0.4,2.4,0.5,3.4 C359.3,367.3,358.3,367.2,356.8,365.6z"/><path class="st24" d="M155.2,366.4c-1.3,0-1.7-0.8-1.8-1.8c-0.8-4.2,2.5-6.9,3.7-10.3c0.7-1.2,1.3-2.5,2.9-2.6 c2.1,0.9,1.3,2.3,0.7,3.6c-0.8,1.6-1.5,3.2-2.2,4.8C157.6,362.2,157,364.6,155.2,366.4z"/><path class="st72" d="M152.6,363.8c-1.2-0.5-1.7-1.4-1.7-2.7c0.7-1.2,0.8-2.6,1.4-3.9c0.8-1.9,1.8-3.7,2.7-5.5 c0.3-0.9,0.8-1.6,1.8-1.6c1.5,0.9,1.3,2.2,0.9,3.6C156.2,357.1,154.8,360.6,152.6,363.8z"/><path class="st21" d="M361.3,361.1c0,1.1-0.5,1.8-1.7,1.8c-0.8-0.3-0.5-1.3-1-1.7l0,0c-1.5-3.5-4.8-6.3-3.9-10.6 c3.6-0.8,2.9,3.3,4.9,4.3l0,0C359.3,357.1,361.4,358.8,361.3,361.1z"/><path class="st74" d="M361.5,348.4c0.5-0.3,1-0.6,1.5-0.9c0.6,0.5,1.3,1,1.6,1.8c0.5,1.5,1.9,2.7,1.1,4.5c0,1.2,0.1,2.6-1.7,2.7 C362.8,354,360.1,351.8,361.5,348.4z"/><path class="st73" d="M148.2,356.6c-1.5-0.5-1.5-1.6-1-2.8c-0.4-2.9-0.5-5.6,3.7-5.3l0,0C152.1,351.9,150,354.2,148.2,356.6z"/><path class="st43" d="M341.4,373.7c2.1,3,3.4,6.5,4.5,9.9c0,0-0.4,0-0.4,0s-0.4,0-0.4,0C343.2,380.6,341,377.6,341.4,373.7z"/><path class="st26" d="M147.1,346.7c1,0,2.1-0.2,2.9,0.8c-2.2,1.1-2,4-3.8,5.4c-1.9-0.1-1.6-1.5-1.7-2.7 C144,347.9,145.6,347.3,147.1,346.7z"/><path class="st75" d="M148.2,356.6c0.9-2.7,2.7-5.1,2.7-8.1c1.9,0.7,1.8,2,0.9,3.5c-1,1.8-1.8,3.7-2.8,5.5 C148.8,357.2,148.5,356.9,148.2,356.6z"/><path class="st45" d="M152.6,363.8c1.5-3.3,3-6.6,4.6-10c0.4,0.2,0.7,0.5,0.8,0.9c-1.5,3.3-3,6.6-4.5,9.9 C153.2,364.3,152.9,364,152.6,363.8z"/><path class="st45" d="M171.7,388.3c1.5-3,3.1-6.1,4.6-9.1c0.2,0,0.3,0,0.5,0c-0.2,3.4-2.8,5.8-3.5,9.1 C172.9,388.3,172.3,389.1,171.7,388.3z"/><path class="st39" d="M361.5,348.4c-0.2,3,2,5.3,2.6,8.1c-0.3,0.3-0.6,0.6-0.9,0.9c-1-2.2-1.9-4.3-3-6.5 C359.5,349.4,359.3,348.3,361.5,348.4z"/><path class="st58" d="M363.8,349.4c-0.3-0.6-0.5-1.3-0.8-1.9c1.8-0.6,3.6-1.1,5.5-1.7c0.3,0.3,0.6,0.6,0.7,1c0.2,0.9,0,1.7-0.6,2.4 c-0.3,0.3-0.7,0.7-1,1c-0.9-0.2-1.8-0.9-2.8-0.5C364.4,349.8,364.1,349.7,363.8,349.4z"/><path class="st45" d="M164.3,380c1-2.8,2-5.6,3.8-8c0.2,0,0.4,0,0.6-0.1c-0.3,3.3-2.8,5.8-3.6,8.9 C164.9,380.6,164.6,380.3,164.3,380z"/><path class="st45" d="M342.4,387.2c-0.7-3.1-3.3-5.6-3.5-9l0.4,0.1c1.9,2.4,2.9,5.2,3.9,8C343,386.6,342.7,386.9,342.4,387.2z"/><path class="st76" d="M364.9,349.4c0.2-0.5,0.4-1.4,0.7-1.4c1.4,0,1.5,1.4,2.1,2.3c0.7,1.4,0.4,2.6-0.9,3.6 C365.9,352.5,364.7,351.2,364.9,349.4z"/><path class="st77" d="M349.6,366.5c2,2,2.1,5,3.6,7.2c-0.3,0.3-0.6,0.6-0.9,0.9C351.3,371.9,348.5,369.9,349.6,366.5z"/><path class="st78" d="M155.2,366.4c0.8-2.2,1.4-4.4,3-6.2c0.2,0,0.4,0,0.6-0.1c0,2.7-2.1,4.6-2.6,7.1 C155.9,367,155.6,366.7,155.2,366.4z"/><path class="st43" d="M166.3,382.8c1-1.5,1.2-3.4,2.8-4.5c0.2,0,0.4,0,0.6-0.1c0.1,2-1.5,3.5-1.8,5.4 C167.2,383.7,166.6,383.5,166.3,382.8z"/><path class="st79" d="M157.2,370.1c0.5-2,1.3-3.9,2.7-5.5c0.6,0.1,0.6,0.6,0.9,0.9c-0.9,1.8-1.7,3.6-2.6,5.5 C157.8,370.7,157.5,370.4,157.2,370.1z"/><path class="st80" d="M146.2,352.9c1.2-1.9,0.3-5.1,3.8-5.4c0.3,0.3,0.6,0.6,0.9,1c-2.8,0.7-2.7,3.4-3.7,5.3 C146.9,353.5,146.5,353.2,146.2,352.9z"/><path class="st81" d="M361.3,361.1c-0.8-2-2.9-3.7-1.8-6.3c0.9,1.8,1.8,3.6,2.7,5.4C361.9,360.5,361.6,360.8,361.3,361.1z"/><path class="st82" d="M168.9,386.3c0.3-1.4,0.7-2.7,2-3.5c0.2-0.3,0.4-0.3,0.7,0c0.1,1.7-1,3.1-1.7,4.5 C169.5,386.9,169.2,386.6,168.9,386.3z"/><path class="st83" d="M348.7,372.8c1.4,1.2,1.8,2.8,1.9,4.5c-0.4,0-0.7,0-1.1,0.1C349,375.9,347.6,374.6,348.7,372.8z"/><path class="st49" d="M364.9,349.4c0.6,1.5,1.3,3,1.9,4.5c-0.3,0-0.6,0-1,0c-0.7-1.5-1.3-3-2-4.4 C364.2,349.4,364.5,349.4,364.9,349.4z"/><path class="st84" d="M147.1,346.7c-0.9,1.1-1.8,2.3-2.6,3.4c-0.3-0.3-0.5-0.5-0.8-0.8c-0.5-1.2-0.1-2.1,0.7-2.9 c0.4-0.2,0.8-0.2,1.2,0.1C146.1,346.6,146.6,346.7,147.1,346.7z"/><path class="st85" d="M368.6,349.3c0-0.9-0.1-1.8-0.1-2.7c0.7-0.4,1.3-0.5,1.7,0.3C370.3,348.1,370.4,349.3,368.6,349.3z"/><path class="st86" d="M144.5,346.7c-0.3,0.9-0.6,1.8-0.9,2.7c-1.4-0.5-1.7-1.4-0.9-2.7C143.4,346.1,143.9,346.2,144.5,346.7z"/><path class="st50" d="M159.8,372.8c0.1-0.7,0.4-1.4,1.2-1.7c0.2,0,0.4,0,0.6,0c0,1.5-0.4,2.7-1.6,3.6 C159.9,374,159.9,373.4,159.8,372.8z"/><path class="st87" d="M144.5,346.7c-0.6,0-1.2,0-1.7,0.1c-0.9-0.4-1.5-1-1.8-1.9c1.7,0.3,3.3,0.7,4.6,1.7 C145.3,346.6,144.9,346.6,144.5,346.7z"/><path class="st60" d="M152.5,357.5c0,1.5-0.5,2.7-1.6,3.6c0-0.6-0.1-1.2-0.1-1.9c0.1-0.7,0.4-1.4,1.2-1.7 C152.1,357.5,152.3,357.5,152.5,357.5z"/><path class="st88" d="M370.2,346.8c-0.6-0.1-1.2-0.2-1.7-0.3c0-0.2,0-0.5,0-0.7c0.9-0.4,1.8-0.8,2.7-1.2 C371.3,345.6,371,346.3,370.2,346.8z"/><path class="st0" d="M161.7,377.3c0.4-0.9,0.7-1.8,1.1-2.6c0.3-0.4,0.6-0.4,0.9,0c-0.1,1-0.1,2-1.1,2.7 C162.3,377.3,162,377.3,161.7,377.3z"/><path class="st89" d="M358.6,361.1c0.3,0.6,0.7,1.2,1,1.7c0,0.6-0.1,1.3-0.1,1.9C358.1,363.8,357.9,362.6,358.6,361.1z"/><path class="st83" d="M346.9,377.3c0.3,0.6,0.7,1.2,1,1.8c0,0.6-0.1,1.3-0.1,1.9c-1-0.6-1.2-1.8-1.7-2.8 C346.4,377.9,346.3,377.3,346.9,377.3z"/><path class="st0" d="M256.7,375.7c-4.4-5.9-6.7-12.2-10.1-17.9c-9.1-14.8-21.4-26.6-34.4-37.9c-11-9.5-21.2-20-32.3-29.4 c-6-5-7.8-9.8-5.8-17.4c2-7.6,2.3-15.6,3.4-23.5c-1.4-0.5-2.1,0.5-3,0.9c-4.9,2.3-6.3,1.8-9-2.9c-3.3-5.9-6.8-11.7-10.1-17.6 c-4.5-7.9-4.7-16.5-4-25.4c0.6-7.3,0.5-14.7,0.4-22.1c-0.1-4.2,1.2-4.1,4.3-2.3c8.3,4.9,16.8,9.4,24.9,14.5c3.5,2.2,4.3,0.8,5-2.2 c0.7-3-0.3-5.6-1.8-8.1c-4.7-8.4-9.4-16.8-14.2-25.1c-1.3-2.3-1.6-4.4-0.4-6.8c8.2-16.7,16.4-33.5,24.6-50.2c0.1-0.2,0.4-0.3,1-0.8 c1.5,11.7,3,23.2,4.6,34.7c1.7,12.9,15.4,24.5,28.2,23.2c7.4-0.7,14.7-0.6,22.1-0.6c12-0.1,24.1,0,36.1,0.1 c12.6,0,21.4-6.3,25.9-18.3c2.7-7.3,3.3-14.9,4.1-22.5c0.6-5.2,1.3-10.4,2.2-15.6c1.8,0.3,1.9,1.9,2.5,3 c7.6,15.4,15,30.8,22.7,46.1c1.6,3.2,1.3,5.8-0.5,8.8c-4.6,7.6-8.8,15.4-13.2,23.1c-1.4,2.4-2,5-2.5,7.7c-0.3,1.4-0.7,3,0.9,4.1 c1.5,1,2.8,0.2,4.1-0.5c8-4.7,16.1-9.4,24.2-14c1.4-0.8,2.8-2.5,4.4-1.6c1.3,0.8,0.6,2.8,0.6,4.2c0.1,9.5-0.4,19,0.2,28.4 c0.4,7.6-1.5,14.2-5.3,20.5c-3.1,5.1-6,10.4-8.7,15.8c-1.6,3.2-3.7,4.4-7.2,3.2c-3.5-1.3-4.4,0.2-3.9,3.8 c1.3,8.3,2.3,16.6,3.4,24.9c0.3,2.6-0.6,4.6-2.5,6.4c-19.6,18-39.1,36.1-58.6,54.2c-6.1,5.6-9.2,13.3-13.4,20.2 C262.4,365.6,259.7,370.4,256.7,375.7z"/><path class="st90" d="M261.2,390.8c0.3-0.3,0.5-0.6,0.8-0.9c1.8,2.4,3.9,4.6,6.4,6.4C264.4,396.6,263.1,393.3,261.2,390.8z"/><path class="st91" d="M239.4,402.5c0.3-0.3,0.7-0.6,1-0.9c2.3,1.9,5.9,2.1,7,5.5C244.7,405.8,241.8,404.6,239.4,402.5z"/><path class="st40" d="M302.6,389c-3-1.5-2.7-4.9-4.5-7.1c-0.5-0.6-0.6-1.9-1.8-1.1c-0.8,0.5-0.2,1.3,0,2c-1.2,0.2-2.3-0.8-3.5,0.1 c-0.4,0.3-0.8,0.3-1.1-0.1c2.2-3,5.3-5,8.2-7.2c0.4-0.4,0.8-0.4,1.1,0.1c0.1,2.3,1.6,4.1,2.5,6.2c-1.9,0.2-2-1.4-2.7-2.5 c-0.4-0.7-0.8-1.9-1.9-1.2c-1,0.6-0.5,1.5-0.1,2.4C300.1,383.3,301.3,386.2,302.6,389z"/><path class="st57" d="M354.9,350.2c-0.3,4.1,3.1,7,3.7,10.8c-2.8-0.8-2.3-3.9-3.7-5.7c-1-1.3-1.7-2.8-2.6-4.1 c-0.3-0.2-0.4-0.4-0.3-0.6c0.1-0.2,0.2-0.3,0.3-0.3c0.6,0,1.2-0.1,1.7-0.1C354.3,349.9,354.6,349.9,354.9,350.2z"/><path class="st92" d="M347.9,352.1c-0.4,3.1,2.3,5.2,2.6,8c-2.2-0.3-1.9-2.4-2.7-3.7c-0.9-1.4-1.2-3.5-3.6-3.5 c-0.3,0.4-0.7,0.3-1-0.1c1-1.1,2.3-0.9,3.6-0.9C347.1,351.6,347.5,351.7,347.9,352.1z"/><path class="st45" d="M301,375.6c-0.4,0-0.7,0-1.1-0.1c1.5-1.2,3-2.4,4.6-3.5c0.6,0.3,1.2,0.7,0.9,1.6c-2,1.5,0.1,3.1,0,4.6 C303.2,378.4,303.5,374.7,301,375.6z"/><path class="st55" d="M347.9,352.1c-0.4,0-0.8-0.1-1.2-0.1c1.7-1.2,3.7-1.2,5.6-1.7c0,0.3,0,0.6,0,0.9c-1.9,1.5,0.2,2.9,0,4.4 C350,355.5,350.1,352.3,347.9,352.1z"/><path class="st51" d="M331.4,362.1c-1.5-0.6-0.7-4.1-3.7-2.9c-0.2,0.4-0.5,0.4-0.8,0c0.8-2.9,3.2-2.7,5.4-2.7 c-2.1,1.1-1.4,2.7-0.9,4.4C331.9,361.4,331.9,361.8,331.4,362.1z"/><path class="st68" d="M323.4,361.9c-3.2,0.5-0.6,2.5-0.9,3.7c-2,0.2-1.6-2.9-3.6-2.7c0.8-1.5,1.8-2.6,3.7-2.6 C323.2,360.7,323.8,361,323.4,361.9z"/><path class="st93" d="M305.3,373.6c-0.3-0.5-0.6-1-0.9-1.6c1.5-1.3,3-2.5,4.5-3.8c0.5,1.2,1.3,2.6-1,2.9c-1,0.6-0.8,1.7-0.8,2.6 c0.4,0.9,0,1.1-0.8,0.9C306,374.3,305.6,373.9,305.3,373.6z"/><path class="st44" d="M307.9,371.1c1.1-0.7,1-1.8,1-2.9c0.4-0.8,1.1-0.7,1.9-0.7c0.7,0.4,1.4,0.8,0.9,1.8c-3.9,0.8-0.3,3-0.8,4.4 c0.4,1-0.1,1.1-0.9,0.9C309.3,373.4,308.6,372.3,307.9,371.1z"/><path class="st43" d="M354.9,350.2l-0.4,0c0,0-0.4,0-0.4,0c4.5-1.7,4.5,2.1,5.5,4.5C356.8,354.5,357.3,350.9,354.9,350.2z"/><path class="st64" d="M327,359.3c0.3,0,0.5,0,0.8,0c0.6,1.8,1.3,3.6,1.9,5.4c-2.8-0.3-1.7-4.4-4.5-4.7c0-0.2,0-0.3,0-0.5 C325.8,359.4,326.4,359.4,327,359.3z"/><path class="st39" d="M317,364.8c-0.8,0.3-1.5,0.8-1.7,1.8c-0.4-0.3-0.8-0.6-1.1-0.9c0.8-2.4,3-2.1,4.8-2.7 c-0.3,0.6-0.6,1.2-0.9,1.8C317.6,365.1,317.3,365.1,317,364.8z"/><path class="st94" d="M343.1,352.9c0.3,0,0.7,0,1,0.1c0.4,1.5,0.7,3,1.1,4.5c-0.3,0.3-0.6,0.3-0.9,0c-0.7-1.8-1-4.1-3.8-3.5 C341.1,352.9,342.1,352.9,343.1,352.9z"/><path class="st49" d="M325.2,359.5c0,0.2,0,0.3,0,0.5c-1.7,1.3,0.3,2.5,0.1,3.8c-0.3,0.4-0.6,0.4-0.9,0c-0.3-0.6-0.6-1.2-1-1.9 c-0.3-0.5-0.6-1.1-0.9-1.6C323.3,359.8,324.1,359.3,325.2,359.5z"/><path class="st95" d="M337.9,354.8c0,0.9-0.1,1.8-0.1,2.7c-1.8-0.1-1.9-1.4-1.9-2.7C336.6,353.9,337.3,353.8,337.9,354.8z"/><path class="st0" d="M291.7,382.7c0.4,0,0.7,0.1,1.1,0.1c0.3,1.2,0.6,2.4,0.9,3.6c-0.3,0.4-0.7,0.4-1,0c-0.6-0.5-1.2-1-1.8-1.6 c0-0.4-0.1-0.8-0.1-1.2C291.1,383.3,291.4,383,291.7,382.7z"/><path class="st96" d="M311.6,369.3c-0.3-0.6-0.6-1.2-0.9-1.8c0.6-0.3,1.2-0.7,1.7-1c0,0.9,0,1.8,0,2.7c0.2,0.2,0.3,0.4,0.2,0.6 c-0.1,0.2-0.2,0.3-0.3,0.3C312.2,369.9,311.9,369.6,311.6,369.3z"/><path class="st47" d="M181.8,366.6c0.9-2.1,1.8-4.3,2.7-6.4c0.4-0.5,0-1.4,0.7-1.8c3.3,1,6.3,2.4,9,4.6c0.3,0.2,0.4,0.5,0.3,0.7 c-0.1,0.2-0.2,0.3-0.3,0.3c-4.1-0.5-2.9,3.6-4.6,5.2c-0.8,0.1-1.3,0-0.8-0.9c0.4-1.1,0.8-2.2,1.2-3.3c0.3-0.8,1-1.8,0.2-2.4 c-1.2-0.9-1.5,1.1-2.5,1.2c-0.2,0-0.3,0-0.5,0.1c-0.4-1.1,1-2.2-0.3-3.4c-2.7,1.2-2.3,4.5-4.4,6.2C182.4,367,182.1,367,181.8,366.6 z"/><path class="st45" d="M173.6,367.5c1.3-4,4.5-7.3,4.4-11.8c1.1-0.2,1.9,0.4,2.7,0.9c0.3,0.2,0.4,0.4,0.3,0.6 c-0.1,0.2-0.2,0.3-0.3,0.3c-3.7,2.7-3.7,7.6-6.3,11C174,368.2,173.8,367.9,173.6,367.5z"/><path class="st40" d="M165.6,361.1c-0.3-3.2,3.8-5.5,1.7-9c1.5,0.3,2.9,0.7,4.4,1c0.3,0.2,0.3,0.4,0.2,0.6 c-0.1,0.2-0.2,0.3-0.3,0.3c-4.2,0.5-2.9,5.3-5.6,7.1C165.9,361.1,165.7,361.1,165.6,361.1z"/><path class="st51" d="M158.8,360.2c-0.2,0-0.4,0-0.6,0.1c-0.6-3,4-5,1.6-8.3c-0.5-0.5-0.5-1,0-1.6c0.7,0,1.4,0.1,1.8,0.7 c0.7,0.4,0.4,1.3,0.8,1.8C161.3,355.3,160.7,358.1,158.8,360.2z"/><path class="st66" d="M180.7,357.4c0-0.3,0-0.6,0-0.9c1.7,0,3.3,0.5,4.5,1.8c-0.2,0.6-0.5,1.2-0.7,1.8c-0.4-1-0.8-2.2-2-0.6 c-0.8,1-0.6,2.7-2,3.3c-0.2,0-0.3,0-0.5,0.1C179.3,361,182.5,359.5,180.7,357.4z"/><path class="st66" d="M172.8,362c0-2.7,2.2-4.6,2.5-7.3c1-0.1,2.1-0.2,2.7,0.9c-2.8,1.2-3,4.3-4.7,6.3 C173.1,362,172.9,362,172.8,362z"/><path class="st80" d="M159.9,350.4c0,0.5,0,1,0,1.6c-0.6,0.9-1.3,1.9-1.9,2.8c-0.3-0.3-0.5-0.6-0.8-0.9c0-1.2,0.6-2.5-0.8-3.4 c-0.2-0.2-0.3-0.4-0.3-0.6c0-0.2,0.1-0.3,0.2-0.3C157.5,349.8,158.7,350.1,159.9,350.4z"/><path class="st97" d="M206,371c-1,0.3-1.9,0.6-2.9,0.9l-0.3,0.3l-0.3-0.3c-0.3-1,1.2-2.6-1-2.9c-0.5-0.5-0.5-1.1,0-1.6 C203.2,368.3,205.1,369,206,371z"/><path class="st98" d="M201.5,367.5c0,0.5,0,1.1,0,1.6c-0.6,0.7-1.2,1.3-1.8,2c-0.3,0.4-0.5,0.4-0.8,0c0.2-1.4,2.1-3.2-1-3.6 c-0.6-1,0.2-1.3,0.9-1.7c0,0,0-0.2,0-0.2C199.6,366.2,200.6,366.8,201.5,367.5z"/><path class="st75" d="M210.5,375.5c-0.6,0.3-1.2,0.7-1.8,1c-0.3,0.4-0.6,0.4-0.9,0c0.7-1.2,0.8-2.4-0.1-3.6 c-0.2-0.2-0.3-0.4-0.2-0.6s0.1-0.3,0.2-0.3c1.2,0.9,2.4,1.8,3.6,2.7C211.2,375,210.9,375.3,210.5,375.5z"/><path class="st99" d="M162.5,352.9c-0.7-0.4-0.8-1.1-0.8-1.8c1.9-0.2,3.4,0.3,4.5,1.9c-0.4,0.9-0.7,1.7-1.1,2.6 c-0.7,0.1-1.2,0.1-0.7-0.8C164.4,353.6,165.1,351.6,162.5,352.9z"/><path class="st100" d="M224.9,386.5c-0.3,0.3-0.6,0.6-0.9,0.9c-0.6,0.4-1.2,0.7-1.7,1.1c-1.1-1.2,0.6-2.6-0.2-3.9 C223.2,384.8,224.2,385.4,224.9,386.5z"/><path class="st101" d="M152.5,357.5c-0.2,0-0.4,0-0.6,0c0.2-2.1,1.1-3.9,2.4-5.5c0.3-0.4,0.6-0.4,0.9,0 C154.4,353.9,153.5,355.7,152.5,357.5z"/><path class="st49" d="M171.6,354c0-0.3,0-0.6,0-0.9c1.2,0.6,2.8,0.3,3.6,1.7c-1.3,0-2.2,0.6-2.8,1.8c-0.8,0.1-1.3,0-0.8-0.9 C171.6,355.1,171.6,354.5,171.6,354z"/><path class="st92" d="M207.8,371.9c0,0.3,0,0.6,0,0.9c-0.7,0.6-1.4,1.2-2.1,1.8l-0.4,0c0.2-1.2,0.4-2.4,0.7-3.6 C206.7,371,207.4,371.3,207.8,371.9z"/><path class="st53" d="M210.5,375.5c0.3-0.3,0.6-0.5,0.9-0.8c1.2,0.6,2.3,1.4,2.7,2.7c-0.6,0-1.2,0.1-1.8,0.1 c-0.5-0.1-0.6-0.7-0.9-1C211.1,376.1,210.8,375.8,210.5,375.5z"/><path class="st80" d="M194.2,363.9c0-0.3,0-0.7,0-1c0.9,0.5,2,0.7,2.6,1.7c-0.6,0.3-1.2,0.6-1.8,0.9c-0.8,0.1-1.3,0-0.8-0.9 C194.2,364.4,194.2,364.2,194.2,363.9z"/><path class="st0" d="M155.3,352c-0.3,0-0.6,0-0.9,0c0.3-1.1-0.2-2.8,1.9-2.5c0,0.3,0.1,0.6,0.1,0.9C156,351,155.7,351.5,155.3,352z "/><path class="st102" d="M166.2,487.9c4.5,1.6,2.2,3.2,0.2,5.1C165.6,491.2,165.8,489.6,166.2,487.9z"/><path class="st0" d="M297.1,498.1c0-3.4,0-6,0-8.6C302.4,492.9,302.4,492.9,297.1,498.1z"/><path class="st103" d="M180.4,487.7c4.1,5.6,4.1,5.6-0.1,10.5C176.6,494.8,176.4,491.3,180.4,487.7z"/><path class="st104" d="M268,498.3c-3.6-3.6-4.4-7.1,0.1-10.4C272.1,492.9,272.1,492.9,268,498.3z"/><path class="st91" d="M333.3,380.9c-3.5-2.8-4.2-7.2-6.1-10.9c0.1-0.4,0.4-0.7,0.8-0.9C330.2,372.9,331.8,376.9,333.3,380.9z"/><path class="st51" d="M334.2,374.7c2.1,3,3.4,6.5,4.5,9.9C335.3,382.1,334.2,378.6,334.2,374.7z"/><path class="st83" d="M329.7,364.7c1.7,3.2,3.5,6.4,4.5,9.9C330.8,372.2,329.7,368.7,329.7,364.7z"/><path class="st0" d="M327.9,369.2c-0.3,0.3-0.5,0.6-0.8,0.9c-0.4-0.9-0.7-1.7-1.1-2.6c-0.4-0.9,0-1,0.8-0.8 C327.2,367.5,327.6,368.3,327.9,369.2z"/><path class="st83" d="M326.9,366.6c-0.3,0.3-0.5,0.5-0.8,0.8c-0.6-1.2-1.2-2.4-1.7-3.6c0.3,0,0.6,0,0.9,0 C326.2,364.5,326.6,365.5,326.9,366.6z"/><path class="st45" d="M317,364.8c0.3,0,0.7,0,1,0c3.3,4.7,5.1,10.1,7.2,15.4c-3.6-2.7-4.1-7.3-6.2-10.9 C318.2,367.8,317.6,366.2,317,364.8z"/><path class="st50" d="M329.6,389.9c-3.4-2.4-4.5-5.9-4.5-9.8C327.3,383,328.5,386.4,329.6,389.9z"/><path class="st91" d="M322.5,365.6c1.7,3.2,3.5,6.4,4.5,9.9C323.4,373.2,322.4,369.6,322.5,365.6z"/><path class="st45" d="M327,376.2c2.1,2.8,3.5,5.9,4.5,9.2C328.4,383.2,327.4,379.8,327,376.2z"/><path class="st51" d="M319.8,376.5c1.7,3.2,3.5,6.4,4.5,9.9C320.9,383.9,319.8,380.5,319.8,376.5z"/><path class="st51" d="M312.5,370.1c0-0.3,0-0.6,0-0.9c1.7,3.6,3.5,7.3,5.2,10.9c-0.3,0.4-0.6,0.4-0.9,0 C314.9,377,312.9,373.9,312.5,370.1z"/><path class="st50" d="M322.4,389.9c-3.1-0.9-3.1-4.1-4.3-6.3c0.3-0.4,0.6-0.4,0.9,0C320.7,385.4,321.2,387.9,322.4,389.9z"/><path class="st105" d="M317.9,372.7c1.1,1,1.6,2.3,1.8,3.8C317.8,375.8,316.4,374.9,317.9,372.7z"/><path class="st106" d="M319,383.6l-0.4,0c0,0-0.4,0-0.4,0c-0.4-1.2-0.8-2.4-1.2-3.5c0.3,0,0.6,0,0.9,0 C318.2,381.3,318.6,382.5,319,383.6z"/><path class="st45" d="M188.8,368.3c0.3,0.3,0.5,0.6,0.8,0.9c-1.8,3.6-3.1,7.5-5.5,10.9c-0.2,0-0.4,0-0.6,0 C184.5,375.8,186.9,372.1,188.8,368.3z"/><path class="st51" d="M178.7,383.7c-0.2,0-0.4,0-0.6,0.1c1-3.5,2.2-7,4.5-9.9c0.2,0,0.4,0,0.6-0.1 C182.4,377.4,180.7,380.6,178.7,383.7z"/><path class="st50" d="M183.2,373.7c-0.2,0-0.4,0-0.6,0.1c0.9-3.6,2.5-6.9,4.6-10c0.2,0,0.3,0,0.5-0.1 C187,367.4,185.2,370.6,183.2,373.7z"/><path class="st54" d="M176.9,379.1c-0.2,0-0.3,0-0.5,0c0.1-3.6,2.6-6.1,4.1-9.1c0.3-0.4,0.6-0.4,0.9,0 C180,373.2,178.9,376.4,176.9,379.1z"/><path class="st0" d="M181.4,370.1c-0.3,0-0.6,0-0.9,0c0.4-1.2,0.9-2.4,1.3-3.5c0.3,0,0.5,0,0.8,0 C182.6,367.9,182.1,369,181.4,370.1z"/><path class="st50" d="M186,384.6c-0.2,0-0.4,0-0.6,0.1c0.8-3.6,2.5-6.8,4.5-9.9c0.2-0.3,0.4-0.3,0.6-0.1 C189.5,378.2,188.3,381.6,186,384.6z"/><path class="st91" d="M190.5,374.6c-0.2,0-0.4,0-0.6,0.1c0.7-3.7,2.8-6.7,4.3-10.1c0.3,0.3,0.5,0.6,0.8,0.9 C193.4,368.5,192.9,372.1,190.5,374.6z"/><path class="st50" d="M192.3,379.1c-0.2,0-0.4,0-0.6,0.1c0.3-3.8,3-6.6,4.4-10c0.2-0.3,0.5-0.4,0.7,0 C195.9,372.8,194.3,376.1,192.3,379.1z"/><path class="st87" d="M196.9,369.2c-0.2,0-0.5,0-0.7,0c0.9-1.1,0.1-3.6,2.6-3.5c-0.3,0.6-0.6,1.1-0.9,1.7 C197.8,368.2,197.6,368.9,196.9,369.2z"/><path class="st51" d="M317.1,387.3c-3.1-1.6-3.5-4.4-3.6-7.4C315.2,382.1,316.3,384.6,317.1,387.3z"/><path class="st98" d="M309.9,374.6c0.3-0.3,0.6-0.6,0.9-0.9c1.1,1.6,1.9,3.3,1.6,5.4C311.1,377.8,310.6,376.2,309.9,374.6z"/><path class="st43" d="M193.2,385.5c-0.2,0-0.4,0-0.6,0.1c0.8-3.6,2.6-6.8,4.5-9.9c0.2-0.3,0.4-0.3,0.7,0 C196.7,379.1,195.5,382.5,193.2,385.5z"/><path class="st40" d="M202.5,372c0.2,0,0.4,0,0.6-0.1c-0.1,2.2-1.1,3.9-2.5,5.5C199.9,375.2,201.4,373.6,202.5,372z"/><path class="st83" d="M197.7,375.5c-0.2,0-0.4,0-0.7,0c-0.1-1.8,1-3.1,1.8-4.5c0.3,0,0.5,0,0.8,0 C199.3,372.7,199.2,374.4,197.7,375.5z"/><path class="st60" d="M292.7,386.4c0.3,0,0.6,0,1,0c1.2,1.3,2,2.9,2.4,5C293.5,390.4,293.6,388,292.7,386.4z"/><path class="st101" d="M205.3,374.7c0,0,0.4,0,0.4,0c-1.3,4.6-3.1,8.9-6.1,12.7C200.7,382.7,202.5,378.5,205.3,374.7z"/><path class="st43" d="M306.3,374.6c0.3-0.3,0.5-0.6,0.8-0.9c1.7,3.2,3.5,6.4,4.5,9.9C307.9,381.7,308.3,377.5,306.3,374.6z"/><path class="st51" d="M308,386.4c-1.1-2.4-3.2-4.5-2.7-7.4c1.8,1.9,2.5,4.3,3.5,6.6C308.6,385.9,308.4,386.2,308,386.4z"/><path class="st106" d="M308,386.4c0.2-0.3,0.5-0.5,0.7-0.8c0.4,1.2,0.8,2.3,1.1,3.5c-0.3,0-0.6,0-0.8,0 C308.7,388.2,308.4,387.3,308,386.4z"/><path class="st107" d="M207.9,376.5c0.3,0,0.6,0,0.9,0c-0.5,2.3-1.6,4.4-3,6.3c-0.2,0-0.3,0-0.5,0 C205.3,380.3,206.9,378.5,207.9,376.5z"/><path class="st75" d="M205.3,382.8c0.2,0,0.3,0,0.5,0c0.1,1.8-1,3.1-1.7,4.5c-0.3,0-0.6,0-0.9,0 C203.7,385.7,203.8,383.9,205.3,382.8z"/><path class="st54" d="M211.4,376.5c0.3,0.3,0.6,0.7,0.9,1c-1.2,3.5-2.7,6.8-4.7,9.8c-0.2,0-0.4,0-0.6,0.1 C207.5,383.3,210.5,380.3,211.4,376.5z"/><path class="st68" d="M222.2,389.2c-0.4,1.8-0.9,3.5-2.7,4.5C219.9,391.8,220.3,390,222.2,389.2z"/><path class="st43" d="M171.5,382.8c-0.2,0-0.5,0-0.7,0c1-3.5,2.2-7,4.6-9.9c0.2,0,0.4,0,0.6-0.1 C175.2,376.4,173.5,379.6,171.5,382.8z"/><path class="st50" d="M176,372.8c-0.2,0-0.4,0-0.6,0.1c0.9-3.6,2.5-6.9,4.6-10c0.2,0,0.4,0,0.5-0.1 C179.7,366.5,178,369.7,176,372.8z"/><path class="st55" d="M335.8,362c2.6,3.5,4.1,7.6,5.6,11.7c-3.9-3-4.6-7.6-6.1-11.8C335.5,362,335.7,362,335.8,362z"/><path class="st43" d="M339.4,378.3c0,0-0.4-0.1-0.4-0.1c-1.9-3.1-4.3-5.9-3.9-9.9C337.1,371.4,338.6,374.7,339.4,378.3z"/><path class="st43" d="M331.4,362.1c0-0.4,0.1-0.8,0.1-1.2c1.7,2.2,2.9,4.7,3.5,7.4C332,367.4,332.4,364.4,331.4,362.1z"/><path class="st83" d="M335.8,362c-0.2,0-0.3,0-0.5-0.1c-1.5-1.1-1.7-2.9-2-4.5C335.2,358.4,335.8,360.1,335.8,362z"/><path class="st57" d="M337.8,358.2c2.4,3.3,4,7.1,5.4,10.9C339.9,366.2,338.4,362.4,337.8,358.2z"/><path class="st40" d="M346.9,377.3c-0.3,0.3-0.6,0.6-0.9,0.9c-0.5-2.9-3.4-5-2.8-8.3C345,372.1,346.1,374.6,346.9,377.3z"/><path class="st80" d="M173.6,367.5c0.3,0.3,0.5,0.6,0.8,0.9c-1.2,3.5-2.7,6.8-4.7,9.8c-0.2,0-0.4,0-0.6,0.1 C169.7,374.3,172.5,371.2,173.6,367.5z"/><path class="st43" d="M172.8,362c0.2,0,0.4,0,0.5,0c-0.9,3.6-2.2,7-4.5,9.9c-0.2,0-0.4,0-0.6,0.1 C169.2,368.4,170.4,364.9,172.8,362z"/><path class="st83" d="M343.9,362.9c2.5,2.9,3.5,6.4,4.7,9.9c-3.3-2.5-4.1-6.3-5.2-10C343.6,362.9,343.8,362.9,343.9,362.9z"/><path class="st61" d="M343.9,362.9c-0.2,0-0.3,0-0.5-0.1c-1.5-0.7-1.3-2.4-2-3.6c0.3-0.5,0.6-0.5,1,0 C343.5,360.3,344.1,361.5,343.9,362.9z"/><path class="st64" d="M342.5,359.3c-0.3,0-0.7,0-1,0c-0.3-1.2-1.9-2.2-0.9-3.7C341.7,356.5,342.1,357.9,342.5,359.3z"/><path class="st54" d="M163.7,374.7c-0.3,0-0.6,0-0.9,0c1.4-3.1,2.5-6.3,4.5-9c0.2,0,0.4,0,0.6,0C167.3,369,165.6,371.9,163.7,374.7 z"/><path class="st54" d="M167.9,365.6c-0.2,0-0.4,0-0.6,0c0.7-3.7,2.7-6.8,4.3-10c0.3,0.3,0.6,0.6,0.8,0.9 C170.9,359.6,169.4,362.6,167.9,365.6z"/><path class="st75" d="M165.6,361.1c0.2,0,0.3,0,0.5-0.1c-0.6,3.7-2.7,6.8-4.5,10c-0.2,0-0.4,0-0.6,0 C161.8,367.4,163.4,364.2,165.6,361.1z"/><path class="st91" d="M344.3,357.4c0.3,0,0.6,0,0.9,0c1.9,2.8,3.4,5.8,4.3,9C346.3,364.3,346,360.5,344.3,357.4z"/><path class="st54" d="M350.5,360.2c1.5,3,3,6,4.5,9C351.6,367.1,350.3,364,350.5,360.2z"/><path class="st57" d="M164.4,354.8c0.2,0.3,0.5,0.6,0.7,0.8c-1.5,3.3-3,6.6-4.4,10c-0.3-0.3-0.6-0.6-0.9-0.9 C161.4,361.3,162.9,358.1,164.4,354.8z"/><path class="st107" d="M352.3,355.7c1.5,3,3,6,4.5,8.9C353.3,362.6,352.1,359.5,352.3,355.7z"/><path class="st108" d="M256.7,167c10.2,0,20.5,0.3,30.7-0.1c6-0.2,10.9,1.6,14.9,5.8c4.8,5,9.6,10,14.3,15c3.3,3.4,3.2,8,3.9,12.3 c3.7,24.4,7.3,48.9,10.9,73.3c0.7,4.9-0.3,8.9-4.3,12.5c-18.8,17-37.3,34.5-56.2,51.4c-6.1,5.5-13.9,4.6-21.4,2.7 c-5.1-1.3-9.5-4-13.1-7.6c-16.3-16-33.1-31.4-50.3-46.5c-4.1-3.6-5-7.5-4.2-12.4c3.9-26.5,7.9-53,11.7-79.6c0.6-4.5,3.8-7.1,6.5-10 c4.2-4.5,8.6-8.9,13.2-13c3-2.7,6.2-3.9,10.2-3.8C234.4,167.1,245.5,167,256.7,167C256.7,167,256.7,167,256.7,167z"/><path class="st4" d="M354,191c0,9.9,0.2,18.7-0.1,27.5c-0.1,3.6-2.7,6.6-4.4,9.8c-2.1,4-4.3,7.9-6.7,11.7c-1,1.6-2.5,3.2-4.8,2.6 c-2-0.5-3.4-2-3.8-4.1c-1.5-9.9-3-19.8-4.5-29.7c-0.3-1.7,0.2-3.5,1.7-4.4C338.7,200.1,346,195.8,354,191z"/><path class="st4" d="M159.1,191c7.9,4.7,15,8.7,22,13c2.4,1.5,2.5,4.2,2.2,6.9c-1.2,8.3-2.4,16.6-3.6,24.8 c-0.2,1.3-0.5,2.7-1.1,3.9c-1.7,3.6-5.5,4.4-7.5,1.1c-5.3-9-12.8-17.1-12.1-28.8C159.4,205.5,159.1,198.9,159.1,191z"/><path class="st0" d="M241.3,276.1c-1.9-4.1-3.9-8.1-5.7-12.2c-1.2-2.8-3.1-4.1-6.3-4c-4.9,0.2-9.9,0-14.9,0.1 c-3.1,0-4.6-1.3-4.9-4.5c-0.4-4.2-1.1-8.3-1.7-12.4c-0.4-2.9,0.1-4.4,3.5-2.9c5.9,2.7,12,4.7,18.2,6.4c7.3,1.9,11,7.1,11.5,14.4 c0.3,4.5,0.4,9,1.2,13.4C242.5,275.2,243,276.2,241.3,276.1z"/><path class="st0" d="M270.9,274.3c0.5-6,1.7-11.9,2.1-17.8c0.3-3.9,2.8-6.9,6.7-8.3c7.5-2.7,15-5.3,22.4-8.1 c2.8-1.1,3.5-0.1,3.1,2.5c-0.6,4.8-1.2,9.5-2,14.2c-0.4,2.5-2.4,3.2-4.7,3.2c-4.7,0-9.3,0.3-14-0.1c-4-0.3-6.1,1.3-7.6,4.8 c-1.5,3.6-3.5,7-5.2,10.5C271,275.5,270.6,275.3,270.9,274.3z"/><path class="st109" d="M269.4,294.6c-3.8,2.8-6.9,4.9-9.8,7.3c-2.1,1.6-3.8,1.9-6,0.2c-3-2.4-6.2-4.6-9.9-7.4 C252.6,294.6,260.6,294.6,269.4,294.6z"/><path class="st67" d="M241.3,276.1c0.3-0.6,0.6-1.2,0.9-1.8c0.7,1.8,0.7,1.8,0.4,3.9C241.7,277.8,241.6,276.9,241.3,276.1z"/><path class="st110" d="M270.9,274.3c0.3,0.3,0.6,0.6,1,0.9c-0.4,0.7-0.9,1.3-1.3,2C269.7,276.2,270.1,275.2,270.9,274.3z"/></g></svg> 