<?xml version="1.0" encoding="utf-8"?><svg version="1.1" xmlns="http://www.w3.org/2000/svg" xmlns:xlink="http://www.w3.org/1999/xlink" x="0px" y="0px" viewBox="0 0 512 512" style="enable-background:new 0 0 512 512;" xml:space="preserve"><style type="text/css"> .st0{fill:#00B5F3;} .st1{fill:#EFD20F;} .st2{fill:#FFFFFF;stroke:#FFFFFF;stroke-width:0.4463;} .st3{fill:#FFC1EE;} .st4{fill:#C4DD9F;} .st5{fill:#C6E8FA;} .st6{fill:#FEF466;} .st7{fill:#F5B166;} .st8{fill:#EE666D;} </style><g id="Layer_1"></g><g id="svg2"><g id="layer1" transform="translate(-194.88188,-349.01575)" ><g id="g10315" transform="matrix(0.3763129,0,0,0.3763129,232.04107,328.17236)"><path id="path10220" class="st0" d="M549.7,1392.2c-173.6-67-282.1-146-380-276.7 C79.8,995.5,39,899.1,18.9,759.2C4.2,656.7,4.2,656.1,4.2,344.5V60.7h580.5h580.5v283.8c0,311.6,0,312.2-14.7,414.7 c-20.1,139.9-60.9,236.4-150.8,356.3c-100.4,134-216.5,216.8-397.9,283.7l-17.5,6.4L549.7,1392.2L549.7,1392.2z"/><path id="path10218" d="M549.7,1392.2c-173.6-67-282.1-146-380-276.7 C79.8,995.5,39,899.1,18.9,759.2C4.2,656.7,4.2,656.1,4.2,344.5V60.7h580.5h580.5v283.8c0,311.6,0,312.2-14.7,414.7 c-20.1,139.9-60.9,236.4-150.8,356.3c-100.4,134-216.5,216.8-397.9,283.7l-17.5,6.4L549.7,1392.2L549.7,1392.2z M615.7,1373.1 c181.2-68.8,298.3-161.2,402.4-317.5c73.3-110.1,100.7-190,120.8-352.6c5.1-41.3,5.1-43.2,5.1-331.3V82H584.7H25.5v289.7 c0,288.1,0,289.9,5.1,331.3c20.1,162.6,47.4,242.5,120.8,352.6c78,117.1,159.8,194.7,270.8,257c44.1,24.8,148.9,70.5,162,70.8 C586.4,1383.5,600.6,1378.8,615.7,1373.1z"/><path id="path5005-83" class="st1" d="M592.2,89c-0.5,0.1-0.7,1.6-0.4,4.5 c0.2,2.4-0.4,8.6-1.3,13.9c-1,5.3-2.1,9.4-1.9,10.5l0.8,5.1l5.8-12.8c2-4.3,0.8-11.4-0.2-15.1C594,91,592.9,88.8,592.2,89 L592.2,89z M594,118.4l-3.1,7.5l-3.1,7.5l0.2,10.4l-0.1,16.5l6.7-14.2c3-6.3,3.2-9.5,1.2-19.3L594,118.4L594,118.4z M597.7,144.4 c0,0-2.2,4.9-3.9,8.8c-1.5,3.5-4.8,9.1-5.7,13.2c-1,4.8-0.9,9.6-1.2,14.5l0,0c-0.5,7.7,0.3,19.7,0.3,19.7l5.4-12.8 c2.7-6,9-18.8,9.8-22.3c0.7-3.5-0.4-10.3-2-14.2L597.7,144.4L597.7,144.4z M603.9,170.7c0,0-2.4,7.1-3.9,9.5 c-9.6,15.5-14.5,37.9-13.2,54.9v0c0.4,4.6,0.9,8.5,1.1,8.6c0.8,0.3,15.6-36.4,17.6-43.9c1-4.1,2.4-12.4,1.3-16.9L603.9,170.7 L603.9,170.7z M609.7,205.2l-6.1,11.2c-3.3,6.1-8,17-10.4,24l-4.3,12.9l0,14.2l0,14.2l6.3-12.6c3.5-6.9,9.4-17,13.2-22.4l6.8-9.7 l0.2-9c0.1-4.9-1.1-12.1-2.8-15.9L609.7,205.2L609.7,205.2z M616,243c-2.6,0.6-15.3,22.7-21.1,36.6l-5.1,12.4l-0.9,10.5l0,0 c-0.5,5.8-0.8,16.1-0.5,16.3c0.3,0.1,2.3-9.6,4.7-17.4c2.1-6.7,3.6-9.7,5.8-13.4c1.8-3.1,5.3-6.7,5.3-6.7s6.6-6.6,8.5-9.6 c1.6-2.4,2.2-6.1,3.1-8.1c3.2-7.7,3.1-19.6,0.4-20.8C616.1,243,616.1,243,616,243L616,243z M620.7,267.4c-0.8-0.3-5.2,4.6-9.8,11 c-8.6,12.2-15,21.7-19.8,36c-1.1,3.2-1.9,8.5-2.6,13.1c4.2-0.9,8.4-1.5,12.6-1.6c0.3-0.9,0.5-1.7,0.8-2.7c0,0,3.5-10.6,5.6-14.4 c2.3-4.3,9-11.6,9-11.6l9.3-11.2l-1.8-9C623,272.1,621.5,267.7,620.7,267.4L620.7,267.4z M627.3,292.1l-8.5,9.7 c-4.6,5.3-9,11.1-9.8,12.9c-0.6,1.6-1.5,6.6-2,11.7c4.2,0.5,10.1,1.6,16.5,2.9l0.4-1c3.8-9.1,6-25.4,4.4-31.9L627.3,292.1z M631.4,321.7c-0.6,0.2-1.6,3.4-2.4,7.1l-0.3,1.6c3.1,0.7,6.2,1.4,9.4,2.2C637.2,329.2,632.5,321.2,631.4,321.7z"/><path id="path4422-3-6-5-3-1-8-4-4-8" class="st2" d="M601.6,325.9c-14,0-28.7,5.3-38.2,13.6 c-4.1,3.6-13.8,9.8-21.4,13.6c-13.5,6.8-14.5,7-35.2,5.6c-25.1-1.7-30.6,0.3-36.7,12.6c-3.6,7.3-3.8,9.9-1.5,21.3 c1.4,7.1,4,15.2,5.8,17.9c4.7,7.3,20.7,15.7,33.5,17.4c19.4,2.6,21.5,3.7,27.9,14.1l6.3,10.1l3.7-7.3c2-4,3.7-8.7,3.7-10.4 c0-5.5,8.8-3.4,10.3,2.5c2.6,10.5,6.7,11,11,1.3c5-11.2,9.7-13.2,11.4-5.1c3.8,17.4,4.1,17.5,9.8,5.2c5.8-12.4,8.6-13.6,21-8.4 c8.7,3.6,19.5,17.1,19.5,24.3c0,5.2-0.2,5.2-19.6,3.7c-10.8-0.8-39.9-1.6-64.7-1.7c-49.6-0.2-64.3-2.8-74.5-12.9 c-4.9-4.9-5.5-7-4.3-16.5c1.1-9.6,0.8-11.1-3.3-12.4c-2.5-0.8-9.2-0.8-14.9,0.1c-7.8,1.2-12.4,3.6-18.9,10.1 c-7.3,7.3-8.5,9.9-8.5,18.5c0,20.7,15.5,32,47.7,34.8c12.4,1,49.3-1.8,67.3-5.1l41.4-1.2c17.9,0.1,50,5.8,50,8.8 c0,0.8-3.4,7.5-7.4,14.8c-4.1,7.3-8.4,13.6-9.5,14c-3.2,1-15.2-7.6-17-12.1c-0.9-2.2-1.6-7.2-1.7-11.2c-0.2-11-4.1-10.9-9.5,0.1 c-5.1,10.6-10.9,11.9-10.9,2.6c0-2.8-1.9-7.4-4.1-10.2l-4.1-5.1l-3.7,9.3c-4.3,10.8-7.5,11.8-10.5,3.1 c-1.2-3.4-3.9-10.3-5.2-12.5c-3.3,6-4.1,6.4-8.4,13.5l-11.7-2.2c-6.4-1.2-16.2-2.3-21.8-2.5c-9.2-0.2-10.2,0.3-10.8,5.5 c-0.7,5.7,3.9,9.3,18.6,14.7c3.3,1.2,1.6,2-7,3.2c-6.3,0.9-16.9,3.6-23.7,6.2l-12.2,4.6l-31.2-34.4 c-36.4-40.1-43.4-44.9-66.7-44.9c-14.6,0-16.5,0.7-57,21.2c-23,11.6-51.2,27.3-62.5,34.8c-7.4,4.9-16.1,10.3-23.4,14.6 c2.8,4.3,5.8,9.6,7.9,14.3c10.9,23.6,24.2,35.6,48.3,43.4c4.5,1.5,11.2,3.4,15.4,4.6c6.4-6.8,19.9-18.5,30.8-26.8l20.8-15.7 l15.1,13.4c8.3,7.4,17.6,16.2,20.7,19.6l5.6,6.1l-6.7-1.4c-15.7-3.2-47.5-4.2-56.6-1.7c-15.8,4.3-20.8,10.7-40.4,51 c-18.3,37.6-43.3,97.1-43.3,103c0,0.7-0.5,2.1-1.3,3.7c1.7,1.7,3.7,3.8,6,6.6c1.7,2,8,7.1,14.9,10.5c11,5.4,15.1,6.1,32,5.9 c10.7-0.1,25.2-1.7,32.3-3.4c4.8-1.2,9.4-2.6,13.3-3.4c1.2-4.3,2.3-8.7,3.5-13.6c10.6-43.1,15.9-61.3,17.7-61.3 c0.7,0,13.5,8,28.5,17.7c51.6,33.8,71.4,40.9,100.6,36.2c13.9-2.2,14.1-2.2,25.2,5.5c21.8,15,41,29.3,51.5,38.4l10.6,9.2 l-15.6,1.5c-21.2,2-52.5,11.3-69.2,20.7c-42.6,23.8-60.3,67.6-49,121.1c4.2,20,4.5,18.4-4,23.6c-18.9,11.5-62.5,2-120.8-26 c-8.5,17.6-17.6,58.7-10.9,78.1c6.8,19.6,9.5,24.2,17.1,29.2c1,0.7,1.8,1.4,2.3,2.2c12.4,3.5,26,6.7,40.9,9.5 c69.4,13.4,110.3,15.9,126.9,7.9c10.8-5.2,14.5-11.9,14.5-26.1c0-8.5,1.2-11.4,7.3-17.5c6.2-6.2,10.2-7.8,27.5-11 c11.1-2,21.3-3.7,22.7-3.7c1.7,0,2.9,9.5,3.6,28.6c1.4,36.1,6.2,52.2,23.4,77.2c17.4,25.3,23.6,39.9,24.9,58.1 c0.9,12.8,0.2,16.9-4.6,27.1c-7.7,16.3-29,42.1-61.5,74.4l9.1,11.1c15.1,18.4,43.5,25.8,76.3,24.3c4.6-0.2,13.2-1.5,20.4-2.4 c2.3-3.6,4.7-7.3,6.6-10.1c15.7-23.6,50.6-86.2,54.3-97.7c5.6-17.2,3.4-31.8-6.4-42.1c-14.5-15.2-16.3-24.1-7.5-36.6 c3-4.2,19.5-22,36.7-39.6l31.3-32l7.6,10c32.6,42.7,101.6,37.6,125.6-9.4c4.5-8.8,5.4-13.8,5.4-30.7c0-21.9-2-27.6-18-52.7 l-7.4-11.7c-17.5-6.1-29.5-24-24.9-38.7c-0.3,0.2-0.5,0.4-0.7,0.6c-4.4,0-6.3-9.2-2.3-13.7c0.1-0.1,0.3-0.2,0.3-0.3 c-15.8-6.6-17.1-44.9-2.8-63.1l-0.5-2.1c-0.5-2-0.8-3.8-0.8-5c-15.8-6.9-13.6-47.4,2.2-65.6c-0.1-0.1-0.1-0.2-0.2-0.2 c-0.6-0.9-1.1-1.6-1.5-2.3c-23.9-13.3-14.8-57.8,1.8-70.4c-0.9-0.2-1.6-0.8-2-1.7c0,0-0.1,0-0.1,0.1 c-35.7-9.4-19.9-57.5-2.7-69.2c-0.1-4.8,1.3-7,2.8-7.9c0.6-2.7,3.7-6,9.9-11.1c5.7-4.6,12.5-10.7,15.1-13.4 c2.7-2.7,15.5-13.6,28.6-24.2c44.5-36.2,61.3-58.8,68.1-91.9c8.6-41.7-8.6-81.1-43-98.5c-14-7.1-16.3-7.6-37.5-7.6 c-29.2,0-38.2,4.1-63.4,28.8c-5.1,5-9.2,9.2-12.7,12.6c11.2,15,10.4,39.6,10.4,39.6s23.7-17.3,39.9-16c0.1-2.7,0.9-5.5,2.3-8.1 c2.9-5.5,18.7-13,27.4-13.1c10.7-0.1,23.5,8.1,29,18.5c6.8,12.8,6.8,34.9,0.1,47.8c-7.4,14.3-33.9,41.1-69.7,70.5 c-66.9,54.9-82.8,68.7-106.1,91.9c-24.2,24.1-31.1,34.4-39.2,58.5c-6.2,18.4-5.6,46.5,1.3,65.1c8.4,22.5,35,66.2,102.9,168.8 c23.9,36.1,44.9,69.4,46.8,74c7.1,17.5-3.4,34.8-22.3,37c-8.7,1-10.9,0.3-18-6c-4.4-3.9-12.2-14.6-17.3-23.8 c-8.7-15.8-9.2-17.9-9.7-37.5c-0.8-28.9-7.8-43.5-36.3-75.9c-15.9-18-49.4-69-88.4-134.3c-3.3-5.5-10.2-16.3-15.5-24.1 c-5.2-7.8-9.5-14.8-9.5-15.6c0-0.7-2.6-4.5-5.9-8.3l-5.9-7l8.4-7.3c7.2-6.2,9.1-6.9,13.1-4.8c8.5,4.6,20.3,4.7,25.7,0.3 c4.9-4,4.9-4.3,1.3-13.5c-4.4-11.1-3.4-16.2,6.4-30.6c4-6,10.4-16.6,14.2-23.6c5.1-9.4,8.3-12.9,12.3-13.4 c14.4-1.9,22.6-5.3,25-10.6c2.2-4.9,1.6-6.4-6-13.8l-8.5-8.3l1.4-32.7c1.4-32.3,1.4-32.7,7.6-37.7c3.4-2.8,6.9-5,7.7-5 c2.3,0,6.9-12.8,6.1-17c-0.5-2.4-3.3-4.1-7.3-4.6c-3.6-0.4-7.9-2.1-9.6-3.7c-1.7-1.7-10-18.4-18.6-37.1 c-15.3-33.6-15.5-34.2-12.3-41.9c3.9-9.3,4.2-18.2,0.8-27.9c-3.2-9.1-8.8-12.2-16.6-9.3c-9.2,3.5-15.4,2.8-48.6-5.6 C626.2,329.4,607.5,325.9,601.6,325.9L601.6,325.9L601.6,325.9z M594.5,348.8c8.2,0,13.5,5.3,13.5,13.5c0,8.2-5.3,13.5-13.5,13.5 c-3.5,0-8-1.6-9.9-3.5c-1.9-1.9-3.5-6.4-3.5-9.9C581.1,354.1,586.3,348.8,594.5,348.8z M484.3,373.1c0.8,0,1.9,0.1,3.3,0.3 c3.5,0.4,6.8,2,7.4,3.6c1.3,4.1-7.3,3.5-10.8-0.7C482.2,373.8,481.9,373.1,484.3,373.1z"/><path id="path4422-3-6-5-3-1-8-4-1-1" class="st3" d="M780.9,377c-22.7,20.2-18,43.4-4.9,58.3 c4.9,5.2,9.7,9.5,10.7,9.5s1.9,9.3,1.8,20.8c0,22,4.9,39.6,14.6,52l4.5,5.8l11.3-5.7c16.6-8.4,29.5-21.3,35.5-35.7l5.3-12.4H871 c28.7-3.4,56.2-24.6,40.1-54.5c-1.7,2-9.7,9.5-15.6,9.5c-7.8,0-12.4-3.3-16.2-8c-3.2-4.1-4.7-8.7-4.5-13.3 c-16.3-1.3-39.9,16-39.9,16s0.7-24.5-10.4-39.6c-9.5,9.3-14.7,13-23.7,12.7C788.5,392,786.3,386.5,780.9,377z"/><path id="path4496-5-2-2-4" class="st4" d="M989.1,710.1c-14.7,11.8-24.4,19.9-38.2,30.9 c-9.3,7.4-28.6,23.5-43.2,35.5c-14.6,12-30.9,25.1-36.4,29.2l-9.9,7.4l-1-3.8c-14.3,18.2-13,56.5,2.8,63.1 c3-3.1,20.1-17.8,39.1-33.6c19.5-16.2,44-36.5,54.3-45.1C974.6,778.7,1005.8,746.2,989.1,710.1L989.1,710.1z"/><path id="path4422-3-6-5-3-1-8-1-2-7" class="st5" d="M979.9,793.9 c-42.3,33.2-73.3,60.7-114,92c-4.6,14.7,7.3,32.6,24.9,38.7l-0.4-0.7l6.4-5.6c3.5-3.1,16.9-14.2,29.6-24.7 c37.9-31.2,42.2-35.6,49.9-51.3C983.6,827.2,989.5,808.4,979.9,793.9z"/><path id="path4422-3-6-5-3-4-0-0-5-9" class="st6" d="M992.7,634.7c-6,3.6-42.5,32.7-54.1,43.2 c-3.7,3.4-17.1,14.4-29.8,24.6c-12.7,10.2-25.8,21.1-29.2,24.3c-11,10.3-16.1,13-18.5,9.8c-15.8,18.2-17.9,58.7-2.2,65.6 c0-0.7,0-1.3,0.2-1.4c0.5-0.3,7.4-6.2,15.4-13c8-6.9,24.7-20.7,37-30.7c67.6-54.8,74-60.8,80.1-74.5 C997.6,669.7,998.6,644.7,992.7,634.7L992.7,634.7z"/><path id="path4496-7-9-17-9-6-1" class="st7" d="M992.4,561.2c-36.6,31.5-78.5,63-116.4,95.4 c-6.5,5.5-11.8,7.9-14.7,7.1c-16.5,12.6-25.7,57.1-1.8,70.4c-2.5-4.4,1.7-7.4,50.6-47.7c15.2-12.5,34.9-28.6,43.8-35.8 c25.8-20.9,32.7-28.5,37.7-41.8C998.4,590.8,998.6,578.4,992.4,561.2L992.4,561.2z"/><path id="path4422-3-6-8-0-7-7-76-0-0" class="st8" d="M991.6,489.7c-5.1,3.6-74.3,59-113,92.4 c-10.7,9.2-13.6,10.7-16.3,8.5c-2.3-1.9-3.3-3.6-2.9-5.7c-1.5,1-2.8,3.2-2.8,7.9c-17.2,11.7-33,59.8,2.7,69.2c0,0,0.1,0,0.1-0.1 c-0.3-0.6-0.4-1.3-0.4-2.3c0-3.4,19.3-20.8,50.5-45.6c12.3-9.8,24-19.5,25.8-21.4c1.9-2,11-9.7,20.4-17.2 c30.8-24.7,40.1-39,40.1-62.2C995.8,499.1,994.3,495.6,991.6,489.7L991.6,489.7z"/><path id="path4422-6-2-9-5-0-7-7-78-7" d="M594.5,348.8c-8.2,0-13.5,5.3-13.5,13.5 c0,3.5,1.6,8,3.5,9.9c1.9,1.9,6.4,3.5,9.9,3.5c8.2,0,13.5-5.3,13.5-13.5C608,354.1,602.7,348.8,594.5,348.8z M228.6,507.5 c-4,2.4-7.7,4.5-10.2,5.8c-15.4,8-31.5,21.6-36.1,30.4c-5.3,10.3-4,18.4,4.6,29.8c22,28.8,75.7,38.2,95.1,16.5 c3.5-3.9,11.3-12.6,17.3-19.2c0.2-0.3,0.6-0.6,0.9-0.9c-4.2-1.2-10.9-3.1-15.4-4.6c-24.1-7.8-37.4-19.8-48.3-43.4 C234.4,517.1,231.4,511.8,228.6,507.5z M245.1,721.3c-1.2,2.5-3,5.8-5.1,9c-15.5,23.2-20.5,51.4-10.9,61c7.7,7.7,34,13.5,54.3,12 c33.8-2.6,46.4-15.3,60.2-65.9c-3.9,0.8-8.5,2.3-13.3,3.4c-7.1,1.7-21.6,3.3-32.3,3.4c-16.9,0.2-21-0.5-32-5.9 c-6.9-3.4-13.1-8.4-14.9-10.5C248.7,725.1,246.8,723,245.1,721.3z M261.9,889.6c-14.6-0.1-24.3,6.3-28.9,19.2 c-4.2,11.9-1,36.9,6.8,53.3c11.8,25,41.5,43.8,91.2,57.7c-0.6-0.8-1.3-1.5-2.3-2.2c-7.6-5-10.3-9.7-17.1-29.2 c-6.7-19.4,2.4-60.5,10.9-78.1c-3.4-1.7-6.9-3.4-10.5-5.1C291.6,894.9,274.8,889.7,261.9,889.6L261.9,889.6z M556.8,1244.3 c-0.6,0.6-1.1,1.1-1.7,1.7c-30.7,30.3-39.5,43.5-39.5,59.5c0,15.5,12,25.7,40,33.7c34.5,9.9,74.1-9,97.1-46.5 c2.6-4.2,6.2-9.9,9.9-15.5c-7.3,0.9-15.8,2.2-20.4,2.4c-32.8,1.5-61.2-5.9-76.3-24.3C565.9,1255.4,556.8,1244.3,556.8,1244.3z"/></g></g></g></svg> 