<?xml version="1.0" encoding="utf-8"?>
<!-- Generator: Adobe Illustrator 22.0.0, SVG Export Plug-In . SVG Version: 6.00 Build 0)  -->
<svg version="1.1" xmlns="http://www.w3.org/2000/svg" xmlns:xlink="http://www.w3.org/1999/xlink" x="0px" y="0px"
	 viewBox="0 0 512 512" style="enable-background:new 0 0 512 512;" xml:space="preserve">
<style type="text/css">
	.st0{fill:#77B9ED;}
	.st1{fill:#FFFFFF;}
	.st2{fill:#EFD20F;}
	.st3{fill:#EE666D;}
	.st4{fill:#F5B166;}
	.st5{fill:#FEF466;}
	.st6{fill:#C4DD9F;}
	.st7{fill:#C6E8FA;}
	.st8{fill:#DDAF47;}
	.st9{fill:#582E00;}
</style>
<g id="Layer_1">
</g>
<g id="svg2">
	<g id="layer2" transform="translate(-194.88188,-349.01577)">
		<g id="g5040" transform="matrix(0.39330202,0,0,0.39330202,235.70194,349.18199)">
			<path id="path4984" class="st0" d="M249.2,226.8c-19.5,18-38.9,36-58.4,54c-9.1-3.3-17.6-9.3-27.6-9.1
				c8.7,10.7,23.1,15.2,31.8,26.3c29.2,33.3,41.1,78.8,39.8,122.3c0.6,44.2-8.7,87.2-20.4,129.6c-16.4,66.6-35,133.7-36.9,202.7
				c-0.3,31.1,3.5,62.5,13.5,92c3.3,6.2,5.1,14.9,11.1,18.4c13.6-2.9,26.6-8,40-11.9c-0.3-29.2-0.5-58.3-0.8-87.5
				c-22.4-2.7-43.9-20.8-44.7-44.3c-3.3-22.5,13.1-44.7,34.1-50.6c26-8.3,56.4,10.2,60.5,37.3c5.3,23.6-11,49.3-34.4,55.1
				c-5.5,2.2-14.9,0.7-12,9.4c0.7,25.2-1.4,50.6,1.2,75.7c3.1,6.4,11.3-1.3,16.1-1.2c25.8-7.7,51.6-15.5,77.6-22.8
				c0-44.8,0-89.7,0-134.5c-22.2-2.7-43.5-20.4-44.7-43.7c-3.2-21.3,10.6-42.6,30.3-49.9c25.5-10.9,58.7,6.2,63.9,34
				c6.6,24.1-9.8,51.2-34,57.1c-5.5,2.2-14.9,0.7-12,9.4c0.4,41.1-0.8,82.3,0.9,123.4c2.3,4.3,9.5-0.9,13.9-0.9
				c27-6.8,53.8-13.8,81-19.5c-0.3-17.9-0.6-35.7-0.8-53.6c-22.2-2.7-43.5-20.4-44.6-43.7c-3.2-21.3,10.6-42.6,30.3-49.9
				c25.5-10.9,58.7,6.2,63.9,34c6.6,24.1-9.8,51.2-34,57.1c-5.5,2.2-14.9,0.7-12,9.4c0.9,14.4-1.7,29.6,1.7,43.7
				c5.8,3.1,13.6-1.4,20.1-1.3c48.1-8.9,97.9-10,146.1-0.3c91.2,16.5,178.5,48.7,267.6,73.8c6.1-0.9,6.3-10,9.4-14.5
				c20.1-46.4,18.8-98.5,13.7-147.9c-10.1-78.3-35.5-153.6-50.3-230.8c-8.6-55.7-5.7-116.7,27.5-164.2c8.7-13.9,22.1-23.7,36.4-31
				c9.4-6,1.3-6.4-5.1-4.3c-6.1,1.8-12,4.3-17.8,6.9c-20-17.9-39.6-36.3-59.2-54.6c-193.9,0-387.8-0.1-581.8-0.1L249.2,226.8
				L249.2,226.8z M341,593.9c-26.6,0.1-48.4,27.5-42.8,53.4c4.6,26,34.7,44.2,59.7,34c21.6-7.2,34.5-32,28.4-53.8
				C381.4,607.3,361.7,592.8,341,593.9z M439.4,650.2c-26.6,0.1-48.4,27.5-42.8,53.4c4.6,26,34.7,44.2,59.7,34
				c21.6-7.2,34.5-32,28.4-53.8C479.8,663.6,460.1,649.1,439.4,650.2z M242.5,669.9c-26.6,0.1-48.4,27.5-42.8,53.4
				c4.6,26,34.7,44.2,59.7,34c21.6-7.2,34.5-32,28.4-53.8C282.9,683.2,263.2,668.8,242.5,669.9z M737.8,684.5
				c0.4,2.4-5.8,12.1-5.6,12.2c1.9-4.1,3.9-8.1,4.9-12.5L737.8,684.5z M547.5,992.9c-28.3,0.1-56.6,2.2-84.6,6.2
				c26.8,11,52.5,24.4,76.9,39.7c8.9-1.8,15.9-9.6,24.2-13.3c15.8-9.6,33.3-16.1,49.7-24.1c3.8-5.6-5.1-6.9-8.9-6.8
				C585.7,993.4,566.6,992.8,547.5,992.9z"/>
			<path id="path4742" class="st1" d="M499,32.1c-1.6,0-3.7,1.6-3.7,3.5c0,1.3,1.4,3.4,3,4.7c2.8,2.2,3,3.8,3,18.5
				c0,27.5,0.2,26.2-5.5,31.5c-3.4,3.1-4.8,5.5-4.3,7c1.1,2.8,1.2,2.8,6.9-0.5c4.2-2.5,5.6-2.6,14.4-1.3c13.6,2.1,19.8,1,25.6-4.6
				c10.1-9.8,9.2-20.2-2.3-26c-3.5-1.8-5.3-3.2-4.1-3.3c3.3-0.1,8.2-5.9,9.2-10.8c1.1-5.7-2.4-12.4-8.2-15.4
				c-3.7-1.9-6.9-2.1-18.1-1.4c-10.2,0.7-13.8,0.5-14.2-0.8C500.3,32.4,499.7,32.1,499,32.1z M521.2,38.4c4.1-0.3,7,5.3,6.5,13.8
				c-0.4,7.2-1.5,8.9-3.8,5.8c-2.1-2.8-6.2-2-6.2,1.3c0,1.2,1.7,3.2,3.9,4.5c2.1,1.3,4.7,3.4,5.6,4.5c2.5,3.1,2.2,17.2-0.4,21
				c-2.6,3.7-3.9,3.9-6.8,1c-3.1-3.1-4-9.8-4.2-30.5c-0.1-16.4,0.1-18.4,2.5-20.2C519.3,38.9,520.3,38.5,521.2,38.4z M571.3,42.2
				c-5.3-0.1-9.8,1.2-13.3,4c-10.8,8.5-10.4,23.2,0.8,32.1c3.9,3.1,8.2,3.9,8.2,1.5c0-2.6,3-1.4,7.3,2.9c3.6,3.6,4.1,5,3.4,8.7
				c-1.7,8.5-8,11.8-15.4,7.9c-4.2-2.2-4.8-3.4-5.8-11.8c-0.6-4.7-1.7-7.7-3.1-8.2c-3.6-1.4-5,0.6-4.1,5.6c0.7,3.6-0.1,6.6-3.4,13.2
				c-4.8,9.5-5.4,14.9-1.9,18.6c2.7,2.9,7.6,3.4,10,0.9c2.2-2.2,2.2-6.7-0.1-6.7c-1,0-2.6,0.8-3.6,1.7c-2.8,2.8-4.8-1.7-2.4-5.3
				c2-3,4.6-3.2,17.1-1.4c14.1,2,25.9-7.8,25.9-21.6c0-10.4-9.8-20.1-20-19.7c-6.5,0.3-9.9-3.2-8.8-9.3c1-5.7,3.2-7.9,8-7.9
				c6.6,0,9.5,2.3,10.5,8.5c1.6,9.8,6.2,10.5,6.9,1.1c0.2-2.2,1.7-5.5,3.3-7.2c1.6-1.7,3-3.9,3-4.7c0-2.6-2.8-3.5-5-1.7
				c-1.7,1.4-3.6,1.4-9.6-0.1C576.3,42.6,573.7,42.2,571.3,42.2z M416.7,259.4c-5.6,2.9-13.5,11-20.1,18.6
				c-7.7,8.8-14.6,19.6-18.9,29.5c-9.5,5.9-27.1,17.3-37.1,22.4c-24.5,12.7-31.1,14.4-52.2,26.8c-9.2,5.4-19.3,12.8-25.9,18.7
				c-1.8,0-2.8-0.3-6.1,5.4c-2.5,4.3-2,5-0.4,9.1c0.7,1.7,0.3,9.4-0.8,10.6c-1.6,1.7,0.2,12.4,0.2,13.7c0.1,3.5,1,4.4,3.2,4.7
				c2.1,0.3,17.5-4.9,46.9-16c-25.1,14.1-32.8,14.8-41.5,22.2c5,2.4,17,7.7,20.6,9.1c7.3,2.7,19.7-0.9,21.3-1.6
				c2.6-1.2,2.3-11.1,13.7-15.7c8.8-3.6,19.6-4.9,19.6-4.9s4.9,4.1,17.9,3.1c7.1-0.5,16.4-2,23.9-6.2c7.6-4.3,14.2-11.3,17-17.1
				c-0.5,8.6-2.2,9.8-4.5,12.2c24,18.2,27.9,37.1,27.5,45.4c-0.7,15.1-15.9,23-30.1,26.6c-13.7,3.5-25.9,6.2-40.3,5.8
				c-24.3-0.6-49.7-0.5-73.6,3.7c-5.7,11.6-8.8,23-9.6,35.9c-0.8,13.9,10.7,30,25.8,32.3c4.7,0.7,17.2,2.4,23.2,2.6
				c3.8-4.4,7.2-7.8,11.6-11.2c10.4-8,25.6-15.2,42.1-21.1c11.4-4.1,30-8.5,33.8-9.2c5.9-1.1,13.7-9.8,77-25
				c-20.2,6.6-26.4,8.7-41.2,14.6c8.4,26.4,31.2,51.2,52.3,59c15.8-5,49.8-14.4,91.5-13.5c-59.5,6.4-79.2,14.9-83.6,17.1
				c-10.5,5.1-23.9,12.1-23.1,23.3c0.7,9.6,3,17.7,8.2,25.7c3.8,5.8,9.4,15.9,13.1,21.3c8.5,12.5,14.1,17.1,21.4,27.7
				c7.5,10.9,21.5,26.5,18,45.1c-4.7,24.5-2.5,24.5,5.1,39.4c9.1,3.9,16.9,4.2,22.6,4.4c12.6,0.4,16.3-1.6,23.5-5
				c6.1-2.8,11.5-7.2,15.9-12.2c8-9,14.4-20.2,18.5-31.1c-18.7-9.7-38.3-26-48.7-36.9c-10.1-10.7-22.2-27.7-27.2-41.8
				c2-1.1,2.5-1.4,3.7-2.5c2.2,3,16.4,11.4,25.8,14c20.7,5.5,44.2,9.1,64.2,1.4c14.9-5.8,26.6-13.9,37.4-24.1
				c13.8-13,25.4-28.7,33.6-45.7c5.9-12.1,9.9-25.5,10.8-38.9c0.8-10.5-0.5-21.3-4-31.2c-4.9-13.7-13.4-26.1-22.9-37.2
				c-8.8-10.2-19.2-19.6-31-26.1c-12.9-7.1-26.7-9.5-42.2-13.5c-20.9-5.3-74.6-22.2-118.2-39.5c-72.2-28.7-80.2-57.8-86.2-76.4
				c1.8-3.6,8.5-15.5,4-28.7C420.4,273.6,416.4,265.2,416.7,259.4z M405.8,281.8c0,0,2.1,6.8,0.3,13.1c-2.2,7.4-3.9,10-5,13.1
				c-2.3,6.7-1.8,7.2-7.1,8.9c-3.2,1-5.3-0.2-6.8-4.7c-1.6-4.7,1.4-4.1,9.6-14.2C400.8,293.1,403.1,291,405.8,281.8z M378,334.6
				c-1.9,3.8-2.9,5.1-6.1,7.4c1.8,18.2-1.1,21.6-7.6,22.1c-5.8,0.4-8.7-0.1-18.4-3.4c5.9-13.1,13.8-17.7,23.8-20.4
				C375,338.8,375.3,337.1,378,334.6z M267.4,384.9c1.7,0,2.3,0.3,2.7,1c3.1,5.5-3.3,12.5-10.6,12.8c2.2-4.7,1-7.1-0.9-13
				C263,385.2,265.7,384.9,267.4,384.9z M536.8,808.5c-21-0.1-43.8,1.5-62.7,4.6c-57.5,9.3-110.9,22.7-228.6,57.4
				c-68.4,20.1-95.3,27.1-112.3,29.3c-27.5,3.4-56.6,0.5-75.6-7.6c-1.9-0.8-2.4,0.4-3,7.9c-1,12.3,1.1,31.2,4.5,41
				c1.6,4.5,5.2,11.5,8,15.4c9,12.6,12.1,21,12.9,35.4c0.8,14.4-0.6,24.2-6.9,49.8c-3.7,15.1-4.2,19.5-3.8,31.6
				c0.7,17.4,1.5,19.1,6.6,13.6c2.1-2.2,7-5.7,10.8-7.6c10.4-5.2,33.5-12.3,76-23.4c20.9-5.4,50.3-14.3,65.4-19.7
				c54.2-19.4,121.3-37.9,178.4-49.3c89.6-17.9,150-20.5,228.1-9.8c86.3,11.9,218.2,48.9,272.4,76.4c20.7,10.5,44.1,14.5,74.9,12.9
				c23.1-1.2,25.4-1.8,25.4-5.6c0-1.7,5-27.8,11.2-58.1c12.9-63.6,15.5-79.8,15.5-96.3c0-13.6-1.9-17.2-6.3-12.3
				c-5.6,6.2-37,12.6-61.9,12.6c-24.3,0-54.6-7.2-158.2-37.9c-126.8-37.5-185.9-52.1-236.3-58.5
				C561.3,809.2,549.4,808.5,536.8,808.5z M491.2,848.2c2.8-0.1,5.8,0,8.9,0.3c10,0.9,20.5,4.3,20.5,6.5c0,0.7,0.9,1.3,2,1.3
				c2.5,0,9.3,9.1,13.6,18.3c2.6,5.5,3.1,15.4,1.4,24.6c-4.1,21.5-4.3,23.7-2.2,26.9c1.4,2.1,3,2.9,4.9,2.4c2.2-0.6,2.9-0.1,2.9,2.2
				c0,5.8-14.4,5.8-20.6,0c-5.8-5.4-6.6-10.8-5.6-37.6c0.8-22.6,0.7-25.2-1.7-29.7c-2-3.8-3.7-5-7-5.4c-3.7-0.4-4.5,0.1-5.2,3.1
				c-1.9,7.7-1,40.4,1.6,52.7c1.9,9.1,4.6,13.6,9.2,15c3.6,1.1,3.3,5.8-0.3,6.7c-1.6,0.4-6.5,0.2-10.9-0.5
				c-10.6-1.8-22.2-1.3-25.2,1c-1.3,1-3.6,1.9-5,1.9c-2,0-2.5-0.8-2.1-3.8c0.3-2.9,2-4.7,6.3-7.1c5.2-2.9,6-4,6.9-9.6
				c0.5-3.5,0.7-17.4,0.3-31c-0.7-26.4-1.7-30-7.8-28.1c-7,2.2-10,20.8-5.2,32.3c1.2,2.9,1.8,5.9,1.2,6.7c-0.5,0.8-0.9,6-0.8,11.5
				c0.2,12.8-3,21.4-9.5,25.8c-4.9,3.3-11.1,4-16.6,1.8c-6.1-2.5-8.5-13.1-3.3-14.8c4-1.3,5.6,0.2,5.6,5.1c0,3.6,0.5,4.2,3.2,3.8
				c4.6-0.7,4.8-7.7,0.5-21.6c-4.3-13.8-4.6-23.4-0.9-33.1C456.7,858.5,471.3,848.8,491.2,848.2z M596.5,850.6
				c1.4,0,2.8,0.6,3.2,1.7c1.1,2.9-0.4,5.2-4.8,7.5c-5.7,2.9-6.8,6.6-7.8,27.2c-2,37.3-1.4,41.5,6,44.6c5.3,2.2,6.4,5.5,2.3,6.8
				c-2.9,0.9-14.3-0.2-21.4-2.1c-7.3-2-14.9-1.6-16.9,0.8c-1,1.2-3,2.1-4.4,2.1c-1.5,0-3.1-0.9-3.5-2.1c-1.3-3.4,0.4-6,6.3-9.7
				c3.1-1.9,5.9-4.1,6.4-4.8c1.2-1.9,3.6-24.9,4.6-43.8l0.9-17l-3.8-3.5c-2.1-1.9-3.4-4.1-3-4.8c0.5-0.7,7.3-1,16-0.5
				c10.7,0.6,15.5,0.3,16.2-0.8C593.5,851.1,595,850.6,596.5,850.6z M646,857c5.6,0.1,11.3,1.4,16.1,3.9c7.1,3.6,7.4,3.6,11.6,1.3
				c3.8-2.1,4.5-2.2,5.7-0.3c0.9,1.4,0.6,3-0.8,4.9c-4.1,5.6-6.2,12-6.2,19c0,8.5-1.9,12.6-5.7,12.6c-3.1,0-3.2-0.4-2.8-11.6
				c0.5-14.3-5.1-23.6-14.1-23.6c-10.2,0-17.9,14.8-19.6,37.7c-2.2,30.2-0.3,36.8,10.7,36.8c8.8,0,13.1-4.8,17.3-19
				c3.1-10.5,5.8-13.8,8.8-10.9c1,1,1,3.5-0.2,8.3c-2.2,9-2.7,23.6-1.1,31.1c1.1,5.4,1.6,6,5.4,6c4.6,0,6.8,3.2,4.5,6.9
				c-1.8,2.9-7.5,3.6-10.6,1.3c-3.2-2.4-6.7-11.2-6.7-16.5c0-4.7-1.6-5.2-7-2.2c-1.9,1.1-7.3,2-12,2c-12,0.1-21.4-5.4-26.8-15.7
				c-4.7-9-8.4-34-5.6-37.7c0.9-1.2,3.6-6.4,6-11.6c4.7-10.2,8.9-14.8,17.9-19.6C635.1,857.9,640.5,856.9,646,857z M390.5,858
				c1.3,0,2.5,0.1,3.8,0.2c4.5,0.5,9.9,1.7,12.1,2.9c6.8,3.5,14.1,12.3,16.5,19.7c1.3,3.9,3.2,7.8,4.3,8.7
				c2.8,2.2,0.4,27.4-3.4,35.9c-6.9,15.6-21.9,23.3-37.8,19.5c-5.4-1.3-12.8-5.8-17-10.2c-4.9-5.2-16.3-30.7-14.5-32.5
				c0.8-0.8,1.5-4.8,1.5-8.8C356,873.6,371.6,858.1,390.5,858z M387.7,864.3c-3.7,0-7.3,1.7-9.6,4.8c-2.4,3.2-2.8,5.9-2.8,18
				c0,10.9,0.6,14.8,2.3,16.6c1.2,1.3,2.7,5.3,3.2,8.7c0.5,3.5,1.4,6.9,2,7.7c0.6,0.8,1.5,3.5,2,6c2.5,11.6,12.8,16.5,19.8,9.5
				c3.8-3.8,4.2-7.2,3.6-26.7c-0.2-6.2-1.2-12.8-2.2-14.8c-1-2-2.2-6.2-2.7-9.4c-1.2-7.9-6.4-17.3-10.7-19.4
				C391,864.7,389.4,864.4,387.7,864.3z M721.1,872.8c7-0.2,16.8,1.2,20.7,3.3c13.3,7.1,19.4,19.3,18.7,37.1
				c-0.3,7.7-1.4,11.9-5,19.4c-4.8,10-16.8,23.5-20.9,23.6c-1.3,0-3.6,1-5.1,2.1c-2.9,2.2-9.9,2.5-17,0.8
				c-11.2-2.7-19.5-10.4-23.3-21.4c-3.1-9.2-3.6-34.3-0.7-36c1-0.6,3.5-4.3,5.5-8.3c4.3-8.5,14.1-17.6,21.3-19.8
				C716.7,873,718.7,872.8,721.1,872.8z M730.1,879.4c-1.7,0-3.3,0.3-4.8,1c-1.9,0.9-5,3.9-6.8,6.7c-4.4,6.6-10,21.9-9,24.5
				c0.4,1.1-0.1,5.7-1.2,10.2c-3,12.6-2.7,25.2,0.7,28.6c3.1,3.1,8.5,3.6,12.7,1.4c5-2.7,16.7-26.8,17-35.1c0.1-1.9,0.8-5.7,1.6-8.4
				c2-6.8,1.3-20.6-1.2-24.6C737.4,881,733.7,879.4,730.1,879.4z M308.8,883.7c3.4-0.1,6.7,0.4,9.8,1.5c7,2.4,18.7,13.1,20,18.3
				c0.5,1.9,1.9,4,3.3,4.7c2.5,1.3,5.7,15.8,5.7,25.7c0,6.4-3.6,19.9-5.5,20.5c-0.8,0.3-1.5,1.3-1.5,2.2c0,2.7-7.1,8.5-13.4,11
				c-8.1,3.3-14.6,3.8-21.5,1.7c-3.3-1-7.6-2.9-9.6-4.1c-9.3-6.1-23.2-26.2-22.1-31.9c0.3-1.8,0-6-0.7-9.3c-1-4.5-0.8-8.1,0.7-14.1
				c3.2-12.3,6.5-16.5,16.4-21.3C297,885.5,303.1,883.8,308.8,883.7z M785.1,888.5c2.1-0.1,4.7,1.5,5.8,4.5
				c0.9,2.4,6.8,4.1,14.6,4.1c2.6,0,8.2,1.3,12.5,2.9c10.1,3.8,16.8,11.4,18.8,21.4c1.4,7.1,1.3,7.5-3,13.3c-2.4,3.3-7.4,7.5-11,9.3
				l-6.6,3.3l5,5c4.2,4.2,5.1,6.2,5.7,12.6c0.6,7.7,0.5,8.2-7.9,24.1c-2.3,4.3-3.1,7.5-2.4,10c1,4.1,5.1,5,5.1,1.1
				c0-5.4,5.9-7.8,8.3-3.4c1.9,3.6-1,8.8-6.2,10.9c-3.4,1.4-5.3,1.4-9.6-0.1v0c-7.4-2.5-10.2-5.4-12.2-12.5
				c-1.3-4.7-1.3-7.4,0.1-12.2c1-3.4,1.6-7.2,1.5-8.4s1-5,2.5-8.4c4.2-9.3,3.8-13.3-2.2-18.7c-5.9-5.4-6.3-11.1-0.9-11.9
				c2.6-0.4,3.2,0.2,3.2,3.2c0,2,0.5,3.6,1.2,3.6c4.4,0,11.5-16,11.5-25.9c0-5.1-3.9-10.6-7.5-10.6c-3.7,0-7.7,6.5-10.1,16.8
				c-1.4,5.7-3.4,12.1-4.4,14.1c-1,2-2.3,5.8-2.7,8.5c-0.5,2.7-1.2,5.9-1.6,7c-0.4,1.2-1,5.8-1.4,10.3c-0.6,7.8-0.4,8.4,4,12.5
				c4.3,4,4.4,4.4,2.1,6.1c-3.1,2.3-8.4,1.1-21.2-4.9c-8.3-3.8-10.7-4.3-16.5-3.5c-5.6,0.8-6.8,0.5-6.8-1.2c0-4.5,1.9-6.6,7.5-8.1
				c3.2-0.9,6.6-2.2,7.5-2.9c1.5-1.3,8.2-19.6,9.5-25.9c0.3-1.5,2.4-8.3,4.8-15.1c4.2-12.1,4.7-19.6,1.7-22.6
				c-0.8-0.8-1.4-2.9-1.4-4.7C782.2,889.6,783.5,888.5,785.1,888.5L785.1,888.5z M301.1,891.4c-7.6,0-11.2,4.5-11.2,13.9
				c0,8.6,3.7,24,6.3,26.2c1.7,1.5,4.2,5.7,9.2,16.2c5.5,11.4,9.4,15.5,14.8,15.5c3.1,0,5.9-1.1,7.9-3c2.7-2.7,2.9-4,2.2-14.7
				c-0.5-6.4-1.5-12.9-2.2-14.3c-0.8-1.4-1.6-4.3-1.9-6.4c-0.3-2.1-1.5-4.9-2.6-6.3c-1.2-1.4-3.4-5.5-4.8-9.2
				C314.6,899.1,306.9,891.4,301.1,891.4z M859.5,910c1.4-0.1,3.4,1.1,5.5,3.4c3.4,3.8,4.9,4.3,15.1,5.1
				c19.5,1.5,31.4,7.9,37.6,20.3c2.6,5.1,2.8,11,1,21c-2,10.6-5.1,16.3-17.3,32.4c-8.3,11-12.7,19.9-11.8,23.8
				c1.1,4.3,4.7,4.5,5.3,0.3c0.3-2.2,1.5-3.3,4.1-3.6c4.7-0.5,6.1,2.8,3.4,8.1c-3.1,6.1-10.1,7.6-15.9,3.5
				c-4.5-3.2-6.4-11.7-4.7-21.2c0.8-4.3,1.8-8.4,2.2-9.1c1.4-2.3,4.7-16,4-17c-0.3-0.5,1.6-5.3,4.2-10.6c4.6-9.2,7.8-21.6,7.2-28.1
				c-0.1-1.6-1.4-4.7-2.7-6.7c-2.7-4.1-8.6-5-12.5-1.9c-2.4,1.8-7.3,15.2-8.5,23.1c-0.4,2.5-1.1,5.1-1.5,5.8
				c-1.4,2.3-3.9,20.3-3.7,26.9c0.2,7.4,1.8,10.9,5.7,12.1c1.7,0.5,2.7,1.9,2.5,3.3c-0.8,4.1-8.5,3.6-18.9-1.2
				c-9.1-4.2-13.9-5-23.7-3.9c-3.6,0.4-4.2,0-4.2-2.9c0-3.5,1.1-4.4,8.9-7.3c2.6-0.9,5.5-3.4,6.5-5.4c4.7-9.2,14.8-45.5,14.8-53.3
				c0-2.1-1.6-5.4-3.7-7.5c-3.9-4-3.8-7.6,0.3-9.2C859.1,910.1,859.3,910,859.5,910L859.5,910z M230.3,912.7
				c7.3-0.2,13.6,2.4,19.7,7.8c5.4,4.8,5.8,5.7,5.2,10.9c-1.2,10.8-2,13.6-4.8,17.7l-2.9,4.1l3.9,0.9c15.4,3.4,19.3,8,21.5,25.3
				c1.8,14.2,2.4,15.8,5.7,16.9c4,1.3,5.8-0.3,3.9-3.4c-2.1-3.4-0.5-7.2,3.1-7.2c4.6,0,6.3,6.3,3.1,11.8c-7.6,13-26.2,9.4-32.2-6.1
				c-1.3-3.5-3.2-7.6-4.1-9.1c-0.9-1.5-2.2-5.6-2.7-9c-1.3-8-5.9-12.8-12.5-12.8c-5.4,0-9.9-3.4-8.7-6.6c0.4-1.1,0.8-2.3,0.8-2.6
				c0-1.7,4.9-0.3,6.4,1.9c1.6,2.2,1.9,2.1,2.8-1.6c1.3-5.1-1.8-18.2-5.7-23.9c-1.6-2.4-4.7-5-6.9-5.8c-3.4-1.2-4.4-0.9-6.6,1.9
				c-3.2,4-2.2,10,3.8,23.6c1.1,2.4,2,5.3,2,6.3c0,2.4,6,20,7.2,20.9c0.5,0.4,2.3,3.4,3.9,6.7c2.9,5.7,4.2,6.5,12,7.7
				c1.5,0.2,2.9,1.2,3.3,2.1c1,3-6.4,6.3-19.6,8.9c-10.6,2-13.5,3.1-15.9,6.2c-3.5,4.4-7.2,4.8-8.5,0.8c-0.7-2.1,0.3-4.5,3.4-8.4
				c2.4-3,4.4-6.5,4.4-7.8c0-3.3-4.1-18.7-6.3-23.8c-1-2.3-2.9-8.3-4.2-13.4c-3.6-13.8-7.1-20.3-12.4-22.6c-3-1.3-4.6-3-4.6-4.8
				c0-2.4,0.9-2.8,7-2.8c5.2,0,9.5-1.2,16.5-4.7C218.4,914.7,224.7,912.9,230.3,912.7z M155.2,934.1c7.6-0.2,13.4,2.3,18,7.5
				c4.1,4.7,4.4,5.7,3.8,12.9c-0.6,6.9-1.2,8.3-6,12.4l-5.4,4.6h4.3c6.5,0,16.1,4.7,19.8,9.7c3.2,4.4,3.2,4.6,1,13.2
				c-4.1,16.1-13.9,24.1-29.9,24.2c-4.8,0-8.8,0.5-8.8,1.1c0,0.6-2.9,1.1-6.4,1.1c-5.4,0-7.2,0.8-11.5,4.9c-5.2,5.1-6.3,5.6-7.9,4
				c-2.3-2.3-0.6-8.4,3.5-12.7l4.5-4.6l-1.6-10.9c-3-20.1-7.9-42.6-10.4-47.3c-0.8-1.4-3.2-3.2-5.3-4c-3.9-1.4-5.8-4.5-4.6-7.9
				c0.7-2.2,6.3-2.3,8.5-0.1c1.2,1.2,4.3,0.6,12.8-2.8C142.2,936,149.3,934.2,155.2,934.1z M962.5,936.4c4.6,0.1,9.3,1.1,14,3.1
				c6.8,2.9,7.2,2.9,11.2,0.6c7.8-4.6,9.7,2.2,2.5,9.4c-2.8,2.8-4.6,6.3-5.1,9.7c-1.6,11.9-8.4,9.8-9-2.8c-0.3-6.1-1-8-3.8-10.2
				c-7.8-6.2-16.7-4.5-20.6,3.9c-4.1,8.6,1.3,18.4,9.2,16.8c5.3-1.1,14.9,4,20.3,10.8c3.8,4.8,4.3,6.4,4.3,14.8
				c0,15.4-6.9,25.5-19.9,28.9c-7.9,2.1-14.6,1.7-23.1-1.3c-11.1-3.9-19.6-1.5-19.6,5.5c0,3,3.9,4.6,6,2.5c0.9-0.9,2.7-1.6,4.1-1.6
				c3.7,0,3.3,6.3-0.6,9.1c-3.5,2.4-5.9,2.6-10.5,0.8c-8.3-3.3-7.5-14.1,2.2-27.9c5.7-8.1,6.5-10.3,6.5-16.4c0-6.2,0.4-7.1,3.1-7.5
				c4.2-0.6,5.9,3.1,5.8,12.8c-0.1,9.6,2.6,14.5,9.7,17.4c6.1,2.5,10.8,1.6,15.1-3.1c6.2-6.7,5.1-18-2.4-23.6
				c-3.4-2.5-4.2-2.6-7.4-0.9c-3.2,1.7-4,1.6-7.3-0.9c-2.1-1.5-5.7-5.2-8-8.1c-3.6-4.5-4.3-6.6-4.6-14.1c-0.3-7.6,0.3-9.7,3.7-15.2
				C943.3,940.6,952.5,936.2,962.5,936.4z M149.2,942.3c-8.7-0.6-8.9,8.3-1.7,35.6c0.8,3.1,2.3,8.8,3.2,12.7
				c1.8,7.2,5.9,16.5,8.8,19.8c2.7,3.1,7.7,2.3,10.2-1.6c2.1-3.1,2.1-4.8,0.7-13.7c-2-12.6-4.7-16.4-13.6-19.2
				c-7.6-2.4-9.8-6.4-5.4-10c2-1.7,2.7-1.5,5,1.4c1.5,1.8,3.1,2.9,3.7,2.3c1.9-1.9,0.8-14.2-1.8-20.1c-2.1-4.9-3.5-6.1-7.3-6.8
				C150.4,942.4,149.8,942.4,149.2,942.3z"/>
			<path id="path4582" d="M1013.2,883.6c5.8-0.7,27.5-5.8,31.7-8.6c4.2-2.8,4.9-3,14.6-4.3c2.1-0.3,5.9-1,5.9-1s0.2-1,0-1.5
				c-1-2.7,4.8-8.9,9.3-9.9c1.7-0.4,3.7-0.7,3.7-0.7s0.5-2.6,0.5-4.3c0-2.6,1.9-5.2,3.9-6.6c2.1-1.5,6.2-1.8,6.2-1.8
				s-1.7,2.3-2.4,3.9c-2.7,6.2-0.7,8.5,5.1,20.1c9,18.2,8.2,27.5-3.8,40.7l-4.9,5.4l4.8,0.9c3,0.6,6.4,2.7,9.2,5.8
				c2.7,3,3.7,5.7,4.4,7.4c-2.4-0.8-2.2-1.1-5-1.5c-2.1-0.3-3.5-0.5-5.4,0.3c-4.5,1.7-12.2,10.8-12.2,14.4c0,1.6,2.5,6,5.6,9.7
				c10.4,12.4,14.9,28.7,11.4,41.5c-2.1,7.7-10.2,16.8-19,21.4c-9.7,5-26.6,5.5-35.7,0.9l-6-3l-0.7,3c-2,8.6-4.9,37.8-4.9,48.7
				c0,16.5,1.6,26.3,6.3,30.5c1.9,1.9,3.1,3.3,3.1,3.3s-2.3,1.6-5.8,4.3c-1.4,1.1-6.5,4.4-10.9,7.8c-4.5,3.4-12.9,8.4-18.7,11.1
				c-14.4,6.7-50,15.6-69.7,17.4c-34.1,3.2-45.9,6.5-55.1,15.2c-9.7,9.2-12.8,24.3-8.8,41.6c8.5,36.2,34.7,56.8,78.1,61.3
				c7.7,0.8,17.9,1,22.5,0.6c4.7-0.5,8.5-0.5,8.5-0.1c0,1.6-25.2,6.6-38,7.5c-21.1,1.4-33.2-0.8-50.6-9.5
				c-13.3-6.6-16.1-8.7-28.8-21.7c-22.5-23-45.9-39.3-71.7-49.9c-15.8-6.5-18.3-9.8-18.1-24.6c0.2-12.8,7.8-42,14.2-54.4
				c7.2-14,18.3-25.5,29.7-30.8c5.2-2.4,11.5-6.4,14.1-8.8c4.4-4.1,10.1-13.2,10.1-16.1c0-1.5-38.6-13.1-76-22.7l-27.4-7.1
				l-16.2,3.6c-70.9,15.7-118.2,33.7-149.2,56.8c-4.3,3.2-12.8,11.8-18.8,19.1c-6,7.3-11.3,13.3-11.8,13.2c-0.5,0-3-2.8-5.5-6.2
				c-9.4-12.5-21.7-24.7-31.5-31.1c-29.5-19.4-78.3-37.8-131-49.3l-18-3.9l-14.4,3.2c-19.4,4.4-90.6,26-90.6,26s5,11.6,10.8,18.2
				c2.5,2.8,8.8,7.1,14.5,9.8c11.6,5.5,24.3,17.9,31,30.3c4.4,8.2,12.8,37.8,14.3,50.6c1.8,15.5-3.1,24.7-14.9,28.3
				c-8.6,2.6-27.8,13-42.5,23c-7.6,5.2-19.8,15.7-29.8,25.7c-15.4,15.5-18.1,17.5-31.6,24.3c-12.7,6.4-16.5,7.5-27.4,8.8
				c-14.1,1.6-16.8,1.6-30.8-0.1l0,0c-5.4-0.6-14.2-2.3-19.7-3.7l-10-2.6l21.1-0.9c15.3-0.7,24-1.8,31.6-4
				c28.8-8.3,46.6-25.5,54.4-52.4c5.7-19.8,4-33.2-5.6-44.2c-9.5-10.8-21.7-15-48.1-16.6c-23.5-1.4-60.9-10.3-80.2-19
				c-10.4-4.7-26.4-18.1-31.8-26.6c-5.2-8.2-5.3-16.4-0.4-38.2c3.3-14.6,5.1-46.3,5.1-46.3s-3.3,3.6-6.7,6.2
				c-7.2,5.5-18.8,8.5-27.8,7.1c-9.8-1.5-23.2-8.7-27.7-15c-10.1-13.9-7.3-39.5,5.6-51.1c1.7-1.5,4-4.6,5.1-6.7
				c1.7-3.4,1.7-4.4-0.1-8c-4.2-8.1-12.6-11.8-17.6-10.3c-1.1,0.3-4,1.1-4,1.1s2.1-4.6,5.1-7.8c3.7-3.9,6.7-5.2,9.1-5.7
				c2.7-0.5,4.4-0.6,4.4-0.6s-2.3-3.3-5-5.8c-11.3-10.7-12.4-21.2-4.1-39.1c5.8-12.5,6.7-17.3,4.2-22.1c-0.6-1.1-1.4-3.1-1.4-3.1
				s1.5,0.4,2.7,0.4c3.1,0,8.6,6.2,8.6,9.7c0,0.6,0,3.2,0,3.2s4.3,0.3,6.7,1.8c3.3,2.2,5.3,3.8,5.6,6.8c0.2,1.7,0.1,4.2,0.1,4.2
				s3-0.3,5.1-0.3c2.6,0,6.3,0.6,8.2,1.3c1.7,0.6,4,1.3,4,1.3s0.3-3.7,1.1-7c0.9-3.8,1.8-7,2.1-7c0.2,0,4,2.2,8.4,4.8
				c8.4,5.1,20.3,8.3,36.4,9.9c4.6,0.5,9.7,0.6,9.7,0.6s0.4-1.2,0.7-2.7c0.4-1.7,2.3-6,4.1-9.5c1.8-3.5,2.7-7,2.7-7
				s-4.6,1.1-9.6,3.1c-5.7,2.3-12.1,4.1-12.1,4.1s-0.4-4.3,1.2-9c1.7-5,12.2-19.1,21.4-22.8c3.4-1.4-1.9-3.6-11.1-4.6
				c-3.6-0.4-8.6-1.9-8.6-1.9s-0.1-3.1,2.6-5.7c4-3.8,14-9.8,26.1-9.9l8.4-0.1l-11.8-11.3c-31.2-29.9-62.2-50.3-76.5-50.4
				c-16.3-0.1-25.2,13.9-15.2,24C28.3,789,39.9,784,41,772c0.2-2.3,0.3-4.5,0.3-4.5s0.8,0.9,1.8,2.2c1.1,1.5,2.1,5.7,2.1,9.3
				c0,5-0.8,7.4-3.5,10.4c-3.9,4.2-11.6,7.9-16.6,7.9c-6.4,0-17.5-6.9-22-13.7c-10.3-15.5-6.3-30.8,10.2-39.4
				c13.2-6.8,26.8-4.8,41.4,6.2c2.6,1.9,5.5,3.5,5.5,3.5s-1.7-2.9-3.6-5.6c-9.3-13.1-19.3-38.5-24.7-62.5
				c-9.8-43.6-7.8-86.4,5.9-128.2c4.7-14.4,5.1-17,5.2-32.5c0-15.4-0.3-17.6-3.7-24.8c-8.5-18.2-27.1-29.1-44-25.9
				c-9.2,1.7-20.5,14.9-20.5,23.9c0,4.2,5.5,8.9,11.8,10.1l4.5,0.8l-2.4,7.1c-2.8,8.2-1.7,14.4,3,18.3c3.2,2.6,12.1,6.1,20,6.7
				c1,0.1,1.8,0.3,1.8,0.3s-0.4,1.2-1.7,2.7c-1.5,1.6-5.5,4.6-9,6.7c-8.4,4.9-24,5.2-33.9,0.7c-13.6-6.2-24.3-19.5-26.4-32.7
				c-3.5-21.9,11.2-48.1,32.9-58.5c7-3.4,10.7-4.1,22.1-4.6c16.8-0.7,28.9,2.5,41.7,11c10,6.7,15.7,13.4,21,24.8
				c3.5,7.5,3.8,9.5,3.7,24.4c-0.2,19.3-1.5,27-9.8,56c-8.8,30.9-11.6,46-13.4,71.3c-1.7,24-0.2,48.1,3.8,63.3
				c3.1,11.7,13.3,32.9,21.3,44.1c7.7,10.8,27.8,31.1,37.8,38.2l6.9,4.9l-6.5-7.7c-9.7-11.6-15-19.9-21.7-34.2
				c-8.3-17.7-11-29.3-11-48.1c-0.1-18.2,2.5-28.7,9.7-39.6c10.7-16.3,30.7-24.3,50.5-20.2c4.4,0.9,8.8,0.9,8.8,0.9
				s2.3-8.2,4.2-17.4c1.9-9.1,10.7-45.4,19.4-80.6c20.8-83.8,21-85,21.1-122.4c0-24.6-0.5-32.4-2.6-41.5c-6-26-17.4-47.2-32.9-61.3
				c-6.8-6.2-12.8-9.7-28.5-16.8c-16.1-7.2-19.2-9.2-19.2-9.2s31.2-29.3,65.6-61.1l62.6-57.8l310.8,0l310.8,0l63.3,58.7
				c34.8,32.3,63.3,59.3,63.3,59.9c0,0.7-8.5,5.1-19,9.8c-17.8,8-19.7,9.2-30.3,19.8c-16.2,16.2-25.5,35.3-31.1,64
				c-3.1,15.8-3,51.4,0.1,72.5c1.3,8.5,10.2,47.4,19.7,86.5c19.4,79.3,21.1,86.4,23.5,100.9c1,5.6,2.2,10.4,2.2,10.4
				s4.1-1.1,7.4-2.3c3.4-1.2,10.8-2.1,17-2.1c25.5,0,42.3,13.9,48.5,40.2c2.9,12.4,1.9,34.9-2.2,49.5c-2,7.2-5.5,15.5-9.8,23.8
				c-4.3,8.3-9.5,16.6-15,23.7c-4.1,5.3-9,11.8-9,11.8s2.3-1.4,4.4-2.8c8.3-5.7,35.6-34.1,41.3-42.9c16.9-25.9,23.2-48.6,23.2-83.7
				c0-32.3-3.1-52.2-14.1-90.9c-8.3-29.1-10.3-42.4-9.6-61.4c0.5-13.2,1-15.2,5.3-23.3c15.3-28.4,54.7-40.8,83.9-26.4
				c12.5,6.2,20.3,14.4,27.1,28.6c4.5,9.5,5.2,12.1,5.2,21.4c0,8.7-0.7,11.9-3.9,18.6c-11.9,24.2-42.3,32.5-62.4,17.2
				c-2.7-2.1-4.8-5.6-4.8-5.6s5.3-0.3,7.4-0.6c9.1-1.1,19.5-8.7,19.4-16.4c0-2.2-1.3-6.7-2.7-10l-2.7-6l3.8,0c2.1,0,5.9-1.3,8.4-2.8
				c7.3-4.4,6.1-13.5-3.1-23.7c-15.4-17.1-46.8-5.8-57.3,20.6c-2.5,6.5-3.1,10.7-3.1,22.7c0,13.2,0.6,16.5,5.2,30.7
				c7.9,24.3,10.8,40.4,11.8,65c1.2,32.7-2.2,58.7-11.5,86.7c-4.8,14.4-14,34.1-19.5,42l-3,4.2l4.9-3.3c2.7-1.8,8.3-4.9,12.4-6.8
				c14.4-6.8,33.5-2,42.1,10.7c6.3,9.3,3.4,25.1-6.2,34c-9.6,8.9-19.6,10.5-29.3,4.8c-6.9-4.1-9.8-9.8-8.6-17.2c0.6-3.4,3.2-7,3.2-7
				s0.1,3.7,0.5,5.7c1.5,8.6,9.7,12.1,17.3,9.5c8.4-3,11.2-15.5,5.1-22.1c-4-4.2-12.8-6.7-19.3-5.5c-14.8,2.8-41.6,20.8-68.6,46
				c-3.8,3.6-7.5,6.7-9.8,8.4c-2.8,1.3-6.3,2.3-13.6,4.4c-8.1,2.7-17.9,6.5-21.7,8.6c-3.8,2-5.6,3.3-4,2.7c18.4-6.5,26.1-8.1,38-8.2
				c10.2-0.1,14,0.5,19.3,3c6.7,3.1,13.9,12.7,13.9,12.7s-3.8,0.7-8.2,1.2c-4.4,0.5-9.6,1.6-11.5,2.3c-3.3,1.2-3.2,1.4,2.8,5.2
				c3.4,2.2,8,6.1,10.3,8.7c12,15.8,7.6,20.6,7.6,20.6c-0.7,0.5-2-0.8-4-1.7c-7.5-3.5-12.1-4.9-15.5-4.9c-1.7,0-1.7,0.5,0.3,4.9
				c1.4,3.1,5.4,3.6,8.4,3.6C997.6,885.7,1007.4,884.4,1013.2,883.6L1013.2,883.6z M86.7,1079.5c10.4-5.2,33.5-12.3,76-23.4
				c20.9-5.4,50.3-14.3,65.4-19.7c54.2-19.4,121.3-37.9,178.4-49.3c89.6-17.9,150-20.5,228.1-9.8c86.3,11.9,218.2,48.9,272.4,76.4
				c20.7,10.5,44.1,14.5,74.9,12.9c23.1-1.2,25.4-1.8,25.4-5.6c0-1.7,5-27.8,11.2-58.1c12.9-63.6,15.5-79.8,15.5-96.4
				c0-13.6-1.9-17.2-6.3-12.3c-5.6,6.2-37,12.6-61.9,12.6c-24.3,0-54.6-7.2-158.2-37.9c-126.8-37.5-185.9-52.1-236.3-58.5
				c-26.4-3.3-66.9-2.2-97.1,2.7c-57.5,9.3-110.9,22.7-228.6,57.4c-68.4,20.1-95.3,27.2-112.3,29.3c-27.5,3.4-56.6,0.5-75.6-7.6
				c-1.9-0.8-2.4,0.4-3,7.9c-1,12.3,1.1,31.2,4.5,41c1.6,4.5,5.2,11.5,8,15.4c9,12.6,12.1,21,12.9,35.4c0.8,14.4-0.6,24.2-6.9,49.8
				c-3.7,15.1-4.2,19.5-3.8,31.6c0.7,17.4,1.5,19.1,6.6,13.6C78,1084.8,82.8,1081.4,86.7,1079.5L86.7,1079.5z M921.9,1036.2
				c-8.3-3.3-7.5-14.1,2.2-27.9c5.7-8.1,6.5-10.3,6.5-16.4c0-6.2,0.4-7.1,3.1-7.5c4.2-0.6,5.9,3.1,5.8,12.8
				c-0.1,9.6,2.6,14.5,9.7,17.4c6.1,2.5,10.8,1.6,15.1-3.1c6.2-6.7,5.1-18-2.4-23.6c-3.4-2.5-4.2-2.6-7.4-0.9
				c-3.2,1.7-4,1.6-7.3-0.9c-2.1-1.5-5.7-5.2-8-8.1c-3.6-4.5-4.3-6.6-4.6-14.1c-0.3-7.6,0.3-9.7,3.7-15.2
				c7.5-11.8,23.4-15.7,38.3-9.3c6.8,2.9,7.2,2.9,11.2,0.6c7.8-4.6,9.7,2.2,2.5,9.4c-2.8,2.8-4.6,6.3-5.1,9.7
				c-1.6,11.9-8.4,9.8-9-2.8c-0.3-6.1-1-8-3.8-10.2c-7.8-6.2-16.7-4.5-20.6,3.9c-4.1,8.6,1.3,18.4,9.2,16.8
				c5.3-1.1,14.9,4,20.3,10.8c3.8,4.8,4.3,6.4,4.3,14.8c0,15.4-6.9,25.5-19.9,28.9c-7.9,2.1-14.6,1.7-23.1-1.3
				c-11.1-3.9-19.6-1.5-19.6,5.5c0,3,3.9,4.6,6,2.5c0.9-0.9,2.7-1.6,4.1-1.6c3.7,0,3.3,6.3-0.6,9.1
				C928.9,1037.9,926.4,1038.1,921.9,1036.2L921.9,1036.2z M126.2,1029.7c-2.3-2.3-0.6-8.4,3.5-12.7l4.5-4.6l-1.6-10.9
				c-3-20.1-7.9-42.6-10.4-47.3c-0.8-1.4-3.2-3.2-5.3-4c-3.9-1.4-5.8-4.5-4.6-7.9c0.7-2.2,6.3-2.3,8.5-0.1c1.2,1.2,4.3,0.6,12.8-2.8
				c19.8-7.8,31.5-7.2,39.7,2.2c4.1,4.7,4.4,5.7,3.8,12.9c-0.6,6.9-1.2,8.3-6,12.4l-5.4,4.6h4.3c6.5,0,16.1,4.7,19.8,9.7
				c3.2,4.4,3.2,4.6,1,13.2c-4.1,16.1-13.9,24.1-29.9,24.2c-4.8,0-8.8,0.5-8.8,1.1c0,0.6-2.9,1.1-6.4,1.1c-5.4,0-7.2,0.8-11.5,4.9
				C129,1030.7,127.9,1031.3,126.2,1029.7L126.2,1029.7z M169.8,1008.8c2.1-3.1,2.1-4.8,0.7-13.7c-2-12.6-4.7-16.4-13.6-19.2
				c-7.6-2.4-9.8-6.4-5.4-10c2-1.7,2.7-1.5,5,1.4c1.5,1.8,3.1,2.9,3.7,2.3c1.9-1.9,0.8-14.1-1.8-20.1c-2.1-4.9-3.5-6.1-7.3-6.8
				c-10.4-2-11.3,6.3-3.5,35.3c0.8,3.1,2.3,8.8,3.2,12.7c1.8,7.2,5.9,16.5,8.8,19.8C162.2,1013.4,167.2,1012.6,169.8,1008.8
				L169.8,1008.8z M886.6,1024.2c-4.5-3.2-6.4-11.7-4.7-21.2c0.8-4.3,1.8-8.4,2.3-9.1c1.4-2.3,4.7-16,4-17
				c-0.3-0.5,1.6-5.3,4.2-10.6c4.6-9.2,7.8-21.6,7.2-28.1c-0.1-1.6-1.4-4.7-2.7-6.7c-2.7-4.1-8.6-5-12.5-1.9
				c-2.4,1.8-7.3,15.3-8.5,23.1c-0.4,2.5-1.1,5.1-1.5,5.8c-1.4,2.3-3.9,20.3-3.7,26.9c0.2,7.4,1.8,10.9,5.7,12.1
				c1.7,0.5,2.7,1.9,2.5,3.3c-0.8,4.1-8.5,3.6-18.9-1.2c-9.1-4.2-13.9-5-23.7-3.9c-3.6,0.4-4.2,0-4.2-2.9c0-3.5,1.1-4.4,8.9-7.3
				c2.6-0.9,5.5-3.4,6.5-5.4c4.7-9.2,14.8-45.5,14.8-53.3c0-2.1-1.6-5.4-3.7-7.5c-3.9-4-3.8-7.6,0.3-9.2c1.4-0.6,3.6,0.6,6.1,3.3
				c3.4,3.8,4.9,4.3,15.1,5.1c19.5,1.5,31.4,7.9,37.6,20.3c2.6,5.1,2.8,11,1,21c-2,10.6-5.1,16.3-17.3,32.4
				c-8.3,11-12.7,19.9-11.8,23.8c1.1,4.3,4.7,4.5,5.3,0.3c0.3-2.2,1.5-3.3,4.1-3.6c4.7-0.5,6.1,2.8,3.4,8.1
				C899.3,1026.8,892.4,1028.3,886.6,1024.2L886.6,1024.2z M207.5,1006.6c-0.7-2.1,0.3-4.5,3.4-8.4c2.4-3,4.4-6.5,4.4-7.8
				c0-3.3-4.1-18.7-6.3-23.8c-1-2.3-2.9-8.3-4.2-13.4c-3.6-13.8-7.1-20.3-12.4-22.6c-3-1.3-4.6-3-4.6-4.8c0-2.4,0.9-2.8,7-2.8
				c5.2,0,9.5-1.2,16.5-4.7c16.1-8.1,27.8-7.4,38.6,2.3c5.4,4.8,5.8,5.7,5.2,10.9c-1.2,10.8-2,13.6-4.8,17.7l-2.9,4.1l3.9,0.9
				c15.4,3.4,19.3,8,21.5,25.3c1.8,14.2,2.4,15.8,5.7,16.9c4,1.3,5.8-0.3,3.9-3.4c-2.1-3.4-0.5-7.2,3.1-7.2c4.6,0,6.3,6.3,3.1,11.8
				c-7.6,13-26.2,9.4-32.2-6.1c-1.3-3.5-3.2-7.6-4.1-9.1c-0.9-1.5-2.2-5.6-2.7-9c-1.3-8-5.9-12.8-12.5-12.8c-5.4,0-9.9-3.4-8.7-6.6
				c0.4-1.1,0.8-2.3,0.8-2.6c0-1.7,4.9-0.3,6.4,1.9c1.6,2.2,1.9,2.1,2.8-1.6c1.3-5.1-1.8-18.2-5.7-23.9c-1.6-2.4-4.7-5-6.9-5.8
				c-3.4-1.2-4.4-0.9-6.6,1.9c-3.2,4-2.2,10,3.8,23.6c1.1,2.4,2,5.3,2,6.3c0,2.4,6,20,7.2,20.9c0.5,0.4,2.3,3.4,3.9,6.7
				c2.9,5.7,4.2,6.5,12,7.7c1.5,0.2,2.9,1.2,3.3,2.1c1,3-6.4,6.3-19.6,8.9c-10.6,2-13.5,3.1-15.9,6.2
				C212.5,1010.3,208.8,1010.6,207.5,1006.6z M814.1,1007.4c-7.4-2.5-10.2-5.4-12.2-12.5c-1.3-4.7-1.3-7.4,0.1-12.2
				c1-3.4,1.6-7.2,1.5-8.4c-0.2-1.2,1-5,2.5-8.4c4.2-9.3,3.8-13.3-2.2-18.7c-5.9-5.4-6.3-11.1-0.9-11.9c2.6-0.4,3.2,0.2,3.2,3.2
				c0,2,0.5,3.6,1.2,3.6c4.4,0,11.5-16,11.5-25.9c0-5.1-3.9-10.6-7.5-10.6c-3.7,0-7.7,6.5-10.1,16.8c-1.4,5.7-3.4,12.1-4.4,14.1
				c-1,2-2.3,5.8-2.7,8.5c-0.5,2.7-1.2,5.9-1.6,7c-0.4,1.2-1,5.8-1.4,10.3c-0.6,7.8-0.4,8.4,4,12.5c4.3,4,4.4,4.4,2.1,6.1
				c-3.1,2.3-8.4,1.1-21.2-4.9c-8.3-3.8-10.7-4.3-16.5-3.5c-5.6,0.8-6.8,0.5-6.8-1.2c0-4.5,1.9-6.6,7.5-8.1c3.2-0.9,6.6-2.2,7.5-2.9
				c1.5-1.3,8.2-19.6,9.5-25.9c0.3-1.5,2.4-8.3,4.8-15.1c4.2-12.1,4.7-19.6,1.7-22.6c-0.8-0.8-1.4-2.9-1.4-4.7c0-5,6.8-4.1,8.8,1.1
				c0.9,2.4,6.8,4.1,14.6,4.1c2.6,0,8.2,1.3,12.4,2.9c10.1,3.8,16.8,11.4,18.8,21.4c1.4,7.1,1.3,7.6-3,13.3c-2.4,3.3-7.4,7.5-11,9.3
				l-6.6,3.3l5,5c4.2,4.2,5.1,6.2,5.6,12.6c0.6,7.7,0.5,8.2-7.9,24.1c-2.3,4.3-3.1,7.4-2.4,10c1,4.1,5.1,5,5.1,1.1
				c0-5.4,5.9-7.8,8.3-3.4c1.9,3.6-1,8.8-6.2,10.9C820.3,1008.9,818.3,1008.9,814.1,1007.4L814.1,1007.4z M305.7,969.4
				c-3.3-1-7.6-2.9-9.6-4.1c-9.3-6.1-23.2-26.2-22.1-31.9c0.3-1.8,0-6-0.7-9.3c-1-4.5-0.8-8.1,0.7-14.1c3.2-12.3,6.5-16.5,16.4-21.3
				c10.6-5.1,20-6.3,28.3-3.4c7,2.4,18.7,13.1,20,18.3c0.5,1.9,1.9,4,3.3,4.7c2.5,1.3,5.7,15.8,5.7,25.7c0,6.4-3.6,19.9-5.5,20.5
				c-0.8,0.3-1.5,1.3-1.5,2.2c0,2.7-7.1,8.5-13.4,11C319,970.9,312.5,971.5,305.7,969.4z M328,960.1c2.7-2.7,2.9-4,2.2-14.7
				c-0.5-6.4-1.5-12.9-2.2-14.3s-1.6-4.3-1.9-6.4c-0.3-2.1-1.5-4.9-2.6-6.3c-1.2-1.4-3.4-5.5-4.8-9.2c-4.1-10-11.7-17.8-17.5-17.8
				c-7.6,0-11.2,4.5-11.2,13.9c0,8.6,3.7,24,6.3,26.2c1.7,1.5,4.2,5.7,9.2,16.2c5.5,11.4,9.4,15.5,14.8,15.5
				C323.3,963.1,326.1,962,328,960.1z M665.1,961.4c-3.2-2.4-6.7-11.2-6.7-16.5c0-4.7-1.6-5.2-7-2.2c-1.9,1.1-7.3,2-12,2
				c-12,0.1-21.4-5.4-26.8-15.7c-4.7-9-8.4-34-5.6-37.7c0.9-1.2,3.6-6.4,6-11.6c4.7-10.2,8.9-14.8,17.9-19.6
				c8.3-4.5,21.5-4.1,31.2,0.8c7.1,3.6,7.4,3.6,11.6,1.3c3.8-2.1,4.5-2.2,5.7-0.3c0.9,1.4,0.6,3-0.8,4.9c-4.1,5.6-6.2,12-6.2,19
				c0,8.5-1.9,12.6-5.7,12.6c-3.1,0-3.2-0.4-2.8-11.6c0.5-14.3-5.1-23.6-14.1-23.6c-10.2,0-17.9,14.8-19.6,37.7
				c-2.2,30.2-0.3,36.8,10.7,36.8c8.8,0,13.1-4.8,17.3-19c3.1-10.5,5.8-13.8,8.8-10.9c1,1,1,3.5-0.1,8.3c-2.2,9-2.7,23.6-1.1,31.1
				c1.1,5.4,1.6,6,5.4,6c4.6,0,6.8,3.2,4.5,6.9C673.9,963.1,668.2,963.7,665.1,961.4L665.1,961.4z M712.5,959
				c-11.2-2.7-19.5-10.4-23.3-21.4c-3.1-9.2-3.6-34.3-0.7-36c1-0.6,3.5-4.3,5.5-8.3c4.3-8.5,14.1-17.6,21.3-19.8
				c5.6-1.7,21.2-0.2,26.4,2.6c13.3,7.1,19.4,19.3,18.7,37.1c-0.3,7.7-1.4,11.9-5,19.4c-4.8,10-16.8,23.5-20.9,23.6
				c-1.3,0-3.6,1-5.1,2.1C726.6,960.4,719.6,960.7,712.5,959L712.5,959z M721.7,951.8c5-2.7,16.7-26.8,17-35.1
				c0.1-1.9,0.8-5.7,1.6-8.4c2-6.8,1.3-20.6-1.2-24.6c-2.6-3.9-9.2-5.5-13.9-3.3c-1.9,0.9-5,3.9-6.8,6.7c-4.4,6.6-10,21.9-9,24.5
				c0.4,1.1-0.1,5.7-1.2,10.2c-3,12.6-2.7,25.2,0.7,28.6C712.1,953.5,717.5,954.1,721.7,951.8z M386,944.9
				c-5.4-1.3-12.8-5.8-17-10.2c-4.9-5.2-16.3-30.7-14.5-32.5c0.8-0.8,1.5-4.8,1.5-8.8c0-21,17.7-37.3,38.4-35.2
				c4.5,0.5,9.9,1.7,12.1,2.9c6.8,3.5,14.1,12.3,16.5,19.7c1.3,3.9,3.2,7.8,4.3,8.7c2.8,2.2,0.4,27.4-3.4,35.9
				C416.9,940.9,401.9,948.7,386,944.9L386,944.9z M404.6,935.7c3.8-3.8,4.2-7.2,3.6-26.7c-0.2-6.2-1.2-12.8-2.2-14.8
				c-1-2-2.2-6.2-2.7-9.4c-1.2-7.9-6.4-17.3-10.7-19.4c-4.9-2.4-11.2-0.8-14.5,3.7c-2.4,3.2-2.8,5.9-2.8,18
				c0,10.9,0.6,14.8,2.3,16.6c1.2,1.3,2.7,5.3,3.2,8.7c0.5,3.5,1.4,6.9,2,7.7c0.6,0.8,1.5,3.5,2,6
				C387.2,937.8,397.6,942.8,404.6,935.7L404.6,935.7z M549.2,937.1c-1.3-3.4,0.4-6,6.3-9.7c3.1-1.9,5.9-4.1,6.4-4.8
				c1.2-1.9,3.6-24.9,4.6-43.8l0.9-17l-3.8-3.5c-2.1-1.9-3.4-4.1-3-4.8c0.5-0.7,7.3-1,16-0.5c10.7,0.6,15.5,0.3,16.2-0.8
				c1.3-2.2,6-2,6.8,0.2c1.1,2.9-0.4,5.2-4.8,7.5c-5.7,2.9-6.8,6.6-7.8,27.2c-2,37.3-1.4,41.5,6,44.6c5.3,2.2,6.4,5.5,2.3,6.8
				c-2.9,0.9-14.3-0.2-21.4-2.1c-7.3-2-14.9-1.6-16.9,0.8c-1,1.2-3,2.1-4.4,2.1C551.2,939.2,549.6,938.2,549.2,937.1L549.2,937.1z
				 M445,936.4c-6.1-2.5-8.5-13.1-3.3-14.8c4-1.3,5.6,0.2,5.6,5.1c0,3.6,0.5,4.2,3.2,3.8c4.6-0.7,4.8-7.7,0.5-21.6
				c-4.3-13.8-4.6-23.4-0.9-33.1c7.5-19.8,25.5-29.6,49.9-27.4c10,0.9,20.5,4.3,20.5,6.5c0,0.7,0.9,1.3,2,1.3
				c2.5,0,9.3,9.1,13.6,18.3c2.6,5.5,3.1,15.4,1.4,24.6c-4.1,21.5-4.3,23.7-2.2,26.9c1.4,2.1,3,2.9,4.9,2.4c2.2-0.6,2.9-0.1,2.9,2.2
				c0,5.8-14.4,5.8-20.6,0c-5.8-5.4-6.6-10.8-5.6-37.6c0.8-22.6,0.7-25.2-1.7-29.7c-2-3.8-3.7-5-7-5.4c-3.7-0.4-4.5,0.1-5.2,3.1
				c-1.9,7.7-1,40.4,1.6,52.7c1.9,9.1,4.6,13.6,9.2,15c3.6,1.1,3.3,5.8-0.3,6.7c-1.6,0.4-6.5,0.2-10.9-0.5
				c-10.6-1.8-22.2-1.3-25.2,1c-1.3,1-3.6,1.9-5,1.9c-2,0-2.5-0.8-2.1-3.8c0.3-2.9,2-4.7,6.3-7.1c5.2-2.9,6-4,6.9-9.6
				c0.5-3.5,0.7-17.4,0.3-31c-0.7-26.4-1.7-30-7.8-28.1c-7,2.2-10,20.8-5.2,32.3c1.2,2.9,1.8,5.9,1.2,6.7c-0.5,0.8-0.9,6-0.8,11.5
				c0.2,12.8-3,21.5-9.5,25.8C456.7,937.9,450.4,938.5,445,936.4L445,936.4z M552.1,1029.4c12.7-8.3,34-19.2,49.9-25.6
				c11.6-4.7,11.7-4.8,7-5.8c-2.6-0.6-19.7-1.5-37.9-2c-31-0.8-64.3,0.5-89.2,3.6l-8.4,1.1l5.6,2.4c15.3,6.6,40.5,19.8,49.9,26
				c5.8,3.8,11,7,11.6,7.1C541.1,1036.2,546.3,1033.2,552.1,1029.4L552.1,1029.4z M43.5,1014.1c7.6-5.6,10-17.9,4.7-23.2
				c-6.7-6.7-14.6,2-9.6,10.7l2.4,4.1l-4.5-0.9c-9.2-1.8-13.1-10.1-9.2-19.5c2.5-6,7-9.2,14.7-10.6l5.7-1l-4.2-6.5
				c-5-7.6-6.9-7.7-18.4-0.8c-10.8,6.5-15.9,15.3-15.9,27.8c0,11.3,2.6,15.8,12,20.7C28.7,1018.7,37.7,1018.4,43.5,1014.1
				L43.5,1014.1z M1067.3,1005.1c3.4-1.6,7.1-4.5,8.3-6.3c5.8-8.9,4.8-22.9-2.4-32.8c-4.6-6.4-17-14.1-22.7-14.2
				c-3.3,0-3.9,0.7-4.7,5.6c-1.1,6.5-0.2,8.5,3.7,8.5c1.6,0,5,2.2,7.7,4.8c4,4,4.8,5.8,4.8,11.1c0,8.1-3.2,12.1-10.5,13.2l-5.6,0.9
				l2.6-3c3.4-3.8,3.4-10,0-12.5c-4.7-3.4-6.7-1.6-8.6,7.9c-1.6,7.9-1.5,9.4,0.4,12.4C1045.2,1008.1,1057.2,1010,1067.3,1005.1
				L1067.3,1005.1z M30.5,928.3c4.1-8.2,5.7-23.4,2.8-27.7c-1.2-1.8-3.3-3.6-4.7-3.9c-3.9-1-11.3,1.4-12.3,4c-1.2,3.2,1.9,9,6.2,10
				c2.5,0.6,5.3,1.2,5.3,1.2s-3,6.9-5.9,10.2c-7.2,8-6.6,13.3,1.4,12.6C26.7,934.3,28.1,933.1,30.5,928.3L30.5,928.3z M1070,922.9
				c0.9-1.4,2.5-2.9,2.5-2.9s-3.2-3.2-5.4-5.9c-6.9-6.5-6.4-12.1-6.4-12.1s2.5-0.7,4.8-1.5c5.7-1.9,8.2-8.5,4.3-11.3
				c-3.9-2.8-11.1-2.5-14,0.7c-5.1,5.6-2.4,26,4.3,33.2C1064,927.2,1067.2,927.2,1070,922.9L1070,922.9z M884,851
				c12-28.7,16.7-55,16.6-94c0-51.6-6.9-91.4-35.3-204c-7.8-31-15.5-63.7-17-72.7c-11.8-68.8-3.5-126.6,24.2-168.7
				c10.3-15.7,18.2-23.4,32-31.2c4.1-2.3,8-4.6,8-4.6s-8.1,2.3-13.6,4.7l-8.5,3.7l-10.2-9.2c-5.6-5.1-19.1-17.5-29.9-27.6L830.7,229
				l-289.8,0l-289.8,0l-15.4,14.3c-8.5,7.8-21.9,20.3-29.9,27.6l-14.4,13.3l-8.5-3.7c-5.7-2.5-13.4-5.6-13.4-5.6s6.2,3.9,10.8,6.9
				c16.3,10.7,28.7,26.2,40,50.2c13.5,28.7,18.3,55.6,17.2,96.7c-1,38.5-4.6,61.5-17.2,109.7c-43,165-48.8,223.3-29.3,297.5
				c1.7,6.5,8,20.2,11.2,24.4c0.2,0.3,8.7-2.1,18.8-5.3l18.4-5.8l-0.4-41.6l-0.4-41.6l-7.7-2c-15.5-3.9-29.4-16.7-34.7-32.1
				c-3.2-9.1-3.2-24.6,0-33.8c7.9-22.6,32.4-37.4,55.3-33.4c23.3,4,39.1,19.8,43.1,43.1c1.3,7.4,1.1,10.6-0.9,18.6
				c-5.2,21-19.3,34.1-42.1,39.1l-3.9,0.9v40.2c0,31.6,0.4,40.1,1.8,39.5c2.1-0.8,70.2-21.1,80.5-24l7-2v-65.1v-65.1l-7.7-2
				c-15.5-4-29.4-16.7-34.7-32.1c-3.2-9.1-3.2-24.6,0-33.8c7.9-22.6,32.4-37.4,55.3-33.4c23.3,4,39.1,19.8,43.1,43.1
				c1.3,7.4,1.1,10.6-0.9,18.6c-5.2,21-19.3,34.1-42.1,39.1l-3.9,0.9v63.3c0,34.8,0.3,63.3,0.7,63.3c0.4,0,14.1-3.4,30.6-7.6
				s36.4-9.1,44.4-10.8l14.4-3.2l-0.4-24.6l-0.4-24.6l-7.7-2c-15.5-3.9-29.4-16.7-34.7-32.1c-3.2-9.1-3.2-24.6,0-33.8
				c7.9-22.6,32.4-37.4,55.3-33.4c23.3,4,39.1,19.8,43.1,43.1c1.3,7.4,1.1,10.6-0.9,18.6c-5.2,21-19.3,34.1-42.1,39.1l-3.9,0.9v23.2
				c0,14,0.5,23.2,1.4,23.2c0.7,0,11-1.6,22.9-3.5c56.6-9.1,94.6-8.6,150.2,2.3c52.8,10.3,94.9,21.9,222.2,61.5
				c19.7,6.1,36.3,10.9,36.8,10.6S881.2,857.7,884,851L884,851z M696.4,760.7c0-0.7,1-2.1,2.2-3.1c4.1-3.4,36.1-52.5,41.2-63.1
				c6-12.6,7.4-11.1,2.4,2.7c-4.8,13.3-4.9,13.4-19.5,33.7c-7,9.7-14.9,20.6-17.5,24.3C700.8,761.3,696.4,764,696.4,760.7
				L696.4,760.7z M691.8,758.3c-0.5-0.5,4.8-8.6,11.7-18.1c12.2-16.8,30.9-51.4,30.9-57.2c0-3.1,0.2-3.1,4.6-1.1l3.3,1.5l-6.7,13
				c-3.7,7.2-13.4,22.3-21.4,33.7c-8.1,11.4-15.5,22.5-16.6,24.8C695.8,758.9,693.6,760.2,691.8,758.3z M650.1,691.1l-3.3-1.9
				l3.9-2.7c2.1-1.5,6.5-5,9.8-7.9c9.1-8,8.9-4.4-0.3,5.1c-6.7,7-7.2,7.7-2.5,4.1c3.1-2.4,7.2-6,9-8c1.9-2,3.9-3.7,4.6-3.7
				c0.6,0-2.6,3.8-7.2,8.4s-8.8,8.4-9.5,8.4C654,693,652,692.1,650.1,691.1z M961.4,809c29.6-25.3,47.3-59.9,47.8-93.4
				c0.3-19.8-2.4-27.4-13-38c-5.8-5.7-9.9-8.4-15.4-10.2c-7.6-2.4-24.4-3-31.1-1.1c-2.2,0.6-4.3,1.1-4.3,1.1s1.7,15.5,3.5,29.2
				c2.9,21.8,3.4,19.7-6.3,26.4l-3.4,2.3l4.9-1.1c10.4-2.4,12.7-5,12.7-15c0-2.3-0.1-4.6-0.1-4.6s1.4,0.7,2.8,1.4
				c3.9,1.9,12.3,0.6,15.7-2.5c1-0.8,2-1.8,2-1.8s0.6,2.2,0.6,4.9c0,10.3-7.7,19.8-19,23.7l-5.5,1.9l-0.9,34.2
				c-0.5,18.8-1.6,38-2.5,42.7c-0.8,4.6-1.5,8.6-1.5,8.8C948.1,819.6,952.2,816.8,961.4,809L961.4,809z M129.9,793.2l-1-17
				c-0.5-9.4-0.6-26.1,0-37.3l1-20.3l-4.1-2.1c-5.5-2.9-9.8-7.7-12.4-14c-1.8-4.4-1.4-12.5-1.4-12.5s1.8,1.4,3.4,2.2
				c3.5,1.9,9.3,4,13.7,1.9c3.7-1.8,4-2.8,6.8-20.6c1.7-10.9,2.6-20.2,2.6-20.2s-5.9-0.4-13.2-0.3c-30.6,0.2-49.3,24.1-45,57.8
				c3.8,29.9,15.2,53.4,37.1,76.3c10,10.4,13.9,12.8,26.6,22.7C139.7,803.8,134.9,798.6,129.9,793.2L129.9,793.2z M262.4,752.9
				c15-7.3,23.9-21.5,23.9-38.1c0-23.6-18.5-42.2-42.1-42.2c-34.2,0-54.5,38.9-34.6,66.4C222.1,756.4,243.7,762.1,262.4,752.9
				L262.4,752.9z M459.3,733.2c15-7.3,23.9-21.5,23.9-38.1c0-23.6-18.5-42.2-42.1-42.2c-34.2,0-54.5,38.9-34.6,66.4
				C419.1,736.7,440.6,742.4,459.3,733.2z M360.9,677c15-7.3,23.9-21.5,23.9-38.1c0-23.6-18.5-42.2-42.1-42.2
				c-34.2,0-54.5,38.9-34.6,66.4C320.6,680.5,342.1,686.1,360.9,677z M431.2,139c-6.9-3.2-12.7-9.7-14.6-16.7
				c-2.5-8.9-1.7-11.5,1.6-5.2c8.2,15.9,20.4,21.2,34.3,14.9c7.7-3.5,15.6-10.6,16.4-14.8c1-5.1-2.4-11.7-7.6-14.9
				c-8.3-5-12.9-3.4-14.7,5.4c-0.7,3.4-0.3,4.6,1.6,5.4c1.6,0.6,2.9,0.1,3.8-1.4c0.7-1.3,1.9-2,2.6-1.5c2.5,1.5,1.3,3.5-3.5,5.8
				c-6.9,3.3-9.2,1-9.2-8.9c0-6.2,0.6-8.3,3.5-11.1c3.9-3.9,6.1-4.2,12.4-1.6c5.5,2.3,14.7,12.2,15.9,17.1
				C478.4,131,451.7,148.4,431.2,139z M494.7,131c-1.1-2.7-1.1-7.6-0.1-7.6c2.5,0,14.7,7.4,14,8.5
				C507.1,134.2,495.6,133.5,494.7,131L494.7,131z M545.2,129.8c-18.8-4.1-36.7-13.8-59.8-32.4c-16.6-13.3-25.3-17.7-37-18.7
				c-12.1-1-21.3,2.2-30.6,10.6l-7.2,6.5l1-4.9c1.1-5.2,7.6-16.4,11.7-20c1.3-1.2,8.5-5.2,15.8-8.9c11.8-5.9,15.3-8.6,29.6-23
				c8.9-9,19-20.6,22.5-25.9l6.3-9.6l12,0.6c18.8,0.9,33.5,7.1,76.1,32c31.9,18.6,41.5,23.3,51.9,25.3c10.1,1.9,20.4-0.2,28.1-5.8
				c9.1-6.6,5-1.1-12.2,16.3c-19.9,20.3-63.5,53.2-76.4,57.9C570.5,132.2,556,132.1,545.2,129.8z M554,117.5
				c2.2-2.2,2.2-6.8-0.1-6.8c-1,0-2.6,0.8-3.6,1.7c-2.8,2.8-4.8-1.7-2.4-5.3c2-3,4.6-3.2,17.1-1.4c14.1,2,25.9-7.8,25.9-21.6
				c0-10.4-9.8-20.1-20-19.7c-6.5,0.3-9.9-3.2-8.8-9.3c1-5.7,3.2-7.9,8-7.9c6.6,0,9.5,2.3,10.5,8.5c1.6,9.8,6.2,10.5,6.9,1.1
				c0.2-2.2,1.7-5.5,3.3-7.2c1.6-1.7,3-3.9,3-4.7c0-2.6-2.8-3.5-5-1.7c-1.7,1.4-3.6,1.4-9.6-0.1c-8.8-2.1-15.9-1.1-21.1,2.9
				c-10.8,8.5-10.4,23.2,0.8,32.1c3.9,3.1,8.2,3.9,8.2,1.5c0-2.6,3-1.4,7.3,2.9c3.6,3.6,4.1,5,3.4,8.7c-1.7,8.5-8,11.8-15.4,7.9
				c-4.2-2.2-4.8-3.4-5.8-11.8c-0.6-4.7-1.7-7.7-3.1-8.2c-3.6-1.4-5,0.6-4.1,5.6c0.7,3.6-0.1,6.6-3.4,13.2
				c-4.8,9.5-5.4,14.9-1.9,18.6C546.6,119.5,551.5,120,554,117.5z M498.4,96.7c4.2-2.5,5.7-2.6,14.4-1.3c13.6,2.1,19.8,1,25.6-4.6
				c10.1-9.8,9.2-20.2-2.3-26c-3.5-1.8-5.3-3.2-4.1-3.3c3.3-0.1,8.2-5.9,9.2-10.8c1.1-5.7-2.4-12.4-8.2-15.4
				c-3.7-1.9-6.9-2.1-18.1-1.4c-10.2,0.7-13.8,0.5-14.2-0.8c-0.8-2.4-5.3-0.4-5.3,2.4c0,1.3,1.4,3.4,3,4.7c2.8,2.2,3,3.8,3,18.5
				c0,27.5,0.2,26.2-5.5,31.5c-3.4,3.1-4.8,5.5-4.3,7C492.5,100.1,492.7,100.1,498.4,96.7z M520,90.3c-3.1-3.1-4-9.8-4.2-30.5
				c-0.1-16.4,0.1-18.4,2.5-20.2c5.5-4,10,2.1,9.5,12.6c-0.4,7.2-1.5,8.9-3.8,5.8c-2.1-2.8-6.2-2-6.2,1.3c0,1.2,1.7,3.2,3.9,4.5
				c2.1,1.3,4.7,3.4,5.6,4.5c2.5,3.1,2.2,17.2-0.4,21C524.2,93,522.9,93.2,520,90.3z M621.3,48.8c-6.1-5.4-10.7-13.6-10.7-19.4
				c0-10.9,12.9-19.9,30.1-21c12.4-0.8,19.8,2.4,26.2,11.2c5.4,7.4,5.4,13.6,0.3,23.7l-3.9,7.7l-0.8-9.8
				c-0.9-11.7-2.7-15.3-8.7-18.5c-10-5.2-30.8-0.5-32.8,7.4c-1.3,5.3,1.8,10.5,8.1,13.6c5.3,2.6,8.9,2.2,10.2-1.2
				c1.9-5-3.5-8.4-7.3-4.5c-1.3,1.3-1.7,1.2-1.7-0.4c0-3.1,1.7-5.1,5.2-6.2c4.6-1.4,10.2,4.6,10.2,10.9c0,5.9-4.6,9.4-13.4,10.4
				C627.3,53.3,625.8,52.8,621.3,48.8z M572.3,11c-3.7-2.8-6.1-5.6-5.5-6.2s4-1,7.3-0.7c5.9,0.4,6.2,0.7,6.6,5.2
				c0.2,2.6-0.1,5.2-0.7,5.8C579.4,15.6,575.9,13.8,572.3,11z"/>
			<path id="path5005" class="st2" d="M335,323.9c-0.9-3.4-2.6-10-2.8-13.5c-0.7-11.2,1-19.5,3.4-30.4c1.3-5.7,3-10.4,3.6-10.4
				c0.6,0,2.9,2.6,4.9,5.7l3.8,5.7l-3.2,10.3c0,0-2.5,6.9-2.9,10.5c-0.4,3.2,0.3,11.5,0.3,11.5c0.4,5.3,1.4,8.9,1.9,10.5l0.9,2.9
				l-3.7,1.7c-2,0.9-3.9,1.7-4.1,1.7C336.8,330.2,335.9,327.3,335,323.9z M347.1,315.6c-1.3-4.1-2.4-8.7-2.4-10.1
				c0-1.4,1.4-6.7,3.1-11.6l3.1-9.1l1.9,2.6c3,4.1,6,15.9,6,23.2v6.7l-4.1,2.9c-2.2,1.6-4.3,2.9-4.7,2.9S348.4,319.7,347.1,315.6z
				 M362.4,309.5c-0.5-2.7-0.7-5.2-0.4-5.6c0.8-0.8,8,5,8,6.4c0,0.6-1.5,1.8-3.4,2.6l-3.4,1.5L362.4,309.5z M327.4,303l-2.4-7.5v-10
				c0-11.6,2.7-31.2,4.2-31.2c2.2,0,5.6,8.2,5.6,14.4c0,1.6,0.6,4.3,0.2,6.4c-0.5,2.6-3.1,9-3.1,9s-1.4,3.5-1.7,6.1
				c-0.5,3.1-0.6,5.7-0.2,10.8c0.5,6.1,1.9,13.3,1.7,13.3C331.4,314.3,328.7,307.1,327.4,303L327.4,303z M317.5,278.8l-4.1-9.8
				l-0.7-10.1c-0.4-5.5-0.2-14.3,0.3-19.5l1-9.4l4.1,3.9c2.2,2.1,5.1,6.7,6.5,10.1l2.4,6.2l-1.9,8.6c-1.1,4.8-2.3,13.4-2.7,19.1
				l-0.8,10.5L317.5,278.8z M306.8,257.1c-5.8-11.3-8.7-28.1-6.5-41.5c0.3-2.1,0-7.7,0-7.7l5.5,7.5c2,2.8,3.4,8.9,3.9,12
				c0.8,5.8,1,35.2,0.4,35.2C309.8,262.6,308.3,260.1,306.8,257.1L306.8,257.1z M291.5,219.8c-1.2-3.5-2.7-6.7-3.3-10.3
				c-0.6-3.1,0.1-7.9,0.2-10.7c0.1-3.1,0.2-7.2,0.2-7.2l3.9,4c2.2,2.2,4.9,6.6,5.4,9.2c0.5,2.6-0.3,13.2-0.4,18.1l-0.1,10.3
				C297.3,233.3,293.3,225.3,291.5,219.8z M281.7,194l-3.1-7.1v-6v-6l3.6,5.3c4.2,6.1,4.9,8.4,4.7,13.6l-0.6,11.7L281.7,194z
				 M273.1,168.3c-0.8-3.9-2.2-8.4-3-10c-2.4-4.5-0.7-4.4,2.7,0.2c1.7,2.3,4.5,6.8,4.4,10.3l-0.4,10.4l-2-3.3
				C274.4,175.4,273.9,172.2,273.1,168.3z"/>
			<path id="path5008" class="st3" d="M949.5,630.5c-8.1-2.5-16.4-5.2-18.4-6.1c-2-0.8-9.5-5.3-16.7-10c0,0-7.3-6.1-12.3-7.6
				c-4.4-1.3-11.5-1.1-15.9,0c-4.9,1.2-7.5,3.6-12.1,5.9c-7.5,3.8-15.6,7.7-18,8.6c-7.3,2.7-24.9,4.9-33.2,4.6
				c-13.2-0.5-29.4-12-35.8-21.5c-1-1.7-2.4-3.2-3.1-5c-1.6-4-1.6-8.4-2.4-12.7c-4.9-29.4-20.2-35.4-49.4-36l-11.3-0.1l4.2-1.3
				c2.3-0.7,11.2-1.4,19.7-1.5l15.5-0.2l8.2,1.9c4.5,1,11.5,3.8,15.5,6.2l7.2,4.4l-0.3,4.2c-0.5,13.7-3.8,28,8.8,39.6
				c12.8,9,27.7,6.7,42.1,5.2c3.8-0.4,7.4-2.1,11.3-2.5c9.7-1.1,22.5-8.6,30-9.1c8.8-0.6,17.6-0.8,25.4,3.2
				c12.7,9.6,21.1,17,36.1,24c8.5,4,17.1,7.9,19,8.8C969.5,636.3,965,635.3,949.5,630.5L949.5,630.5z M437.1,342.5
				c-1-1.7-4.8-8-8.4-14l-6.5-10.8l-0.3-6.1c0,0-0.6-4-0.3-6.1c0.4-2.1,1.6-4,2.5-6c0.8-2,2.1-3.8,2.5-6c0.3-2.2-0.5-4.7-0.7-7
				l-0.7-7l5.1-2.2c2.8-1.2,11.1-3.7,18.4-5.6c0,0,8.8-2.7,13.3-3.4c4.9-0.8,14.8-0.9,14.8-0.9c8.1-0.5,14.4-0.4,13.8,0.2
				s-5.7,3.1-11.4,5.6c-14.3,6.2-20.3,10.2-22.8,14.9c-0.7,1.3-1.6,2.6-2.1,4c-1.6,5.5-1.5,17.1-1.5,17.1
				c-0.8,9.4-2.5,20.1-3.7,23.6c-2.1,6.3-6.8,12.8-9.1,12.8C439.5,345.6,438.2,344.2,437.1,342.5z"/>
			<path id="path5022" class="st4" d="M812.2,640.5c-8.9-2.5-16.4-9.3-19.8-18c-1.6-4.1-5.4-15-5.4-15s4.3,5.4,10,10.1
				c5.3,4.4,11.9,8.6,14.7,9.4c14.8,4.1,48.5-1.6,61.9-10.4c6.3-4.2,15.1-7.5,19.8-9.2c1.9-0.7,5.6-0.4,8.9,1.1
				c3.4,1.5,9.8,6.9,16.7,10.8c6.9,4,8.2,5.8,14.6,7.1c-4.5,1.1-6.7-0.8-16.7-5.2c-10.9-4.8-14.2-5.6-20.1-5.2
				c-8.5,0.7-25.5,7.4-40.6,15.9c-6.1,3.4-13.4,6.8-16.2,7.5C831.2,641.7,818.3,642.2,812.2,640.5z M447.4,351.4
				c-4.5-3.8-4.7-4.3-2.8-6.7c6-7.3,8.1-14,9.7-31.4c2.2-24.4,3-26.3,10.3-27.1c3.3-0.4,11.3-2.4,17.9-4.4
				c25.1-7.8,40.6-9.5,55.6-5.9l7,1.7l-8.7,0.8c-11.9,1.2-25.4,8-32.5,16.4c-5.4,6.4-11.7,19.2-16.4,33.1c-1.3,3.8-3,8.2-3.8,9.8
				c-4.4,8.5-14.5,15.2-25.8,16.9C453.1,355.4,451.6,354.9,447.4,351.4z"/>
			<path id="path5025" class="st5" d="M789.1,652.3c-14.6-1.8-25.5-9-31.4-20.7c-3-6-2.9-7.8,1.4-18.6c4.5-11.3,6.2-30.5,3.2-36.4
				c-8-15.8-15.3-20.9-32.6-22.7l-10.2-1.1l10.7-0.2c18.4-0.3,38.4,8.1,43.6,18.3c1.6,3,3.4,10.6,4.1,16.8
				c1.4,11.9,2.3,15.5,8.1,31.3c6.3,17.1,16.6,25.3,34.5,27.3l8.7,1l-7,2.3C813.2,652.8,800.8,653.7,789.1,652.3z M458.7,358.2
				l-4.9-2.6l5.6-0.1c8.2-0.1,19.8-6.7,24.8-14.1c2.2-3.3,4.1-6.7,4.1-7.4c0-2.7,10.1-24.1,14.2-30.1c7.3-10.6,8.5-11,26.8-8.2
				c13.1,2,19.3,2.2,36.3,1.2c53.8-3.3,77.6-1.3,109.8,9.1l16.2,5.2l-14.8-0.6c-11.2-0.4-18.9,0.2-31.5,2.5
				c-19.9,3.6-28.7,6.7-37.9,13.3c-3.8,2.7-9,5.6-11.7,6.5c-8.7,2.9-30.9,1.7-44-2.2c-19.3-5.8-30.4-5.4-44.4,1.8
				c-5.7,2.9-11,7.2-15.9,12.8C480.2,358.2,467.7,363.1,458.7,358.2L458.7,358.2z"/>
			<path id="path5028" class="st6" d="M776.1,673.9c-23.2-5.6-53-28.6-53-40.9c0-6.9,3.1-11.9,14.9-24.5c16.8-18,18.6-30.4,5.8-41.3
				c-3.6-3.1-9.6-6.2-15.7-8.1c-9.6-3-9.8-3.1-4.5-3.6c8-0.7,18.8,2.1,24,6.1c6.1,4.6,12,15.8,13,24.5c0.8,6.4,0.2,8.3-5.3,19.2
				c-9,18.1-7.8,29.2,4.5,40.8c8.6,8.1,13,9.5,31.4,10.1c22.6,0.8,30-1,45.8-11.1c17-10.8,44.8-24,54.9-26.1
				c6.9-1.4,15.3-0.8,19.6,1.5l3.6,2l-4.3,0.1c-7.9,0.1-18.2,4.1-25.2,9.9c-15.4,12.6-38.2,28.5-47.5,33.2
				C818.7,675.5,795.3,678.6,776.1,673.9z M468.7,364.1c-1.3-0.9,0-1.5,4.1-2.2c5.1-0.8,7.6-2.6,17-12.2
				c16.7-17.1,30.1-22,49.7-18.2c46,8.9,50.4,9.1,63.6,2c10.7-5.7,13.7-5.8,36-1l11,2.3l-20.6,6.7c-11.3,3.7-24,8.6-28.3,10.9
				s-8.8,3.9-10.2,3.6c-17.7-3.9-29.1-7-35.8-9.8c-12-4.9-22.9-6.8-32.6-5.7c-11.3,1.3-17.2,3.9-24.8,11.2
				c-3.5,3.3-8.5,7.5-11.1,9.3C481.9,364.6,471.9,366.2,468.7,364.1z"/>
			<path id="path5031" class="st7" d="M722.8,664.6c-7.4-6.2-11-13.4-11-22.1c0-13.8,4.9-23.3,21.6-41.8c5-5.6,9.5-11.4,10-12.9
				c2-6.4-5.5-14.6-19.9-21.8c-5.2-2.6-7.1-4.3-6.5-5.8c0.4-1.2,0.9-2.1,1-2.1c0.1,0,3.1,0.9,6.7,2c9.8,3,14.2,5.6,19.9,12
				c8.8,9.7,6.3,19.5-8.9,35.3c-11.1,11.5-15.5,18.1-15.7,23.3c-0.4,11.2,1.7,26.6,4.2,31.6c1.5,3,2.6,5.5,2.5,5.5
				C726.7,667.7,724.9,666.3,722.8,664.6z M516.2,385.8c-8-3.2-20-8.4-26.6-11.5l-12-5.6l6.8-3c3.8-1.7,10.6-6.5,15.1-10.7
				c9.1-8.4,13-9.8,27.3-9.8c5.9,0,13.2,1.6,24.3,5.2c8.7,2.9,23.6,6.5,33.1,8.1c15.4,2.6,18.9,2.7,34,1.3
				c23.7-2.2,42.4-7.5,52.1-14.7c7.4-5.5,8.5-5.7,4.8-0.8c-7.6,10.1-33.5,24.6-52,29.2c-5.7,1.4-12.5,3.7-14.9,4.9
				c-3.7,1.9-8.9,2.3-27.8,2.3c-18.4,0-24.4,0.5-28.6,2.3c-2.9,1.2-8.8,3.7-13.1,5.4l-7.9,3.2C530.8,391.7,516.2,385.8,516.2,385.8z
				"/>
			<path id="path5034" class="st8" d="M603,667.7c-36.6-18.7-41-21.3-43.9-26.1c-1.8-3-3.9-7.2-3.9-7.2s4.4,2.2,7.7,3.9
				c12.6,6.5,21.3,8.6,37.8,9.4l16.2,0.8l23.6,11.8c13,6.5,23.5,12.2,23.5,12.8c-0.1,1.5-17.7,15.9-19.1,15.6
				C644.1,688.5,625.3,679.1,603,667.7z M434,583.1c-20.1-10.1-45.4-22.4-56.3-27.4s-22.2-10.1-25.3-11.6l-5.6-2.7l13.8-6.5
				c7.6-3.6,14.7-6.5,15.8-6.5s23.9,10.9,50.6,24.3c38.2,19.1,48.3,24.7,47.5,26.4c-0.6,1.2-1.2,6.7-1.5,12.3
				c-0.3,5.6-1,10.2-1.5,10.1C471,601.5,454.2,593.2,434,583.1z M239,490.4c-13.7-6.9-25.8-13.9-27.1-15.6c-3.2-4.6-3.2-14.8,0.6-18
				c8.6-7.4,15.8-2.3,40.4,10.2c21.8,11,27.9,14.5,27.9,14.5l-7.9,1c-2.7,6.6-5.1,13.1-8,20.2C265,502.6,252.7,497.3,239,490.4z"/>
			<path id="path5037" class="st9" d="M861.9,844c-57.7-23.6-126.6-56.7-151.7-73l-9.7-6.3l4.6-6.4c27.1-37.6,30.7-39.5,35.7-51.8
				c2.5-6.1,6-16.7,6.9-20.5c5.3,0.4,42.2,7,64.4,12.8c14.9,3.9,20.4,6.4,34.7,9.9c14.3,3.5,30.2,8.5,50.9,11.8
				c-19.2,2-43.9-3.6-60.7-7c-5.8-1.2-29.7-9.6-48.3-9.8c25.2,7.1,36.7,11.3,49.2,14c23.2,5.1,28.8,7.9,45,11.5
				c-16.2,0.6-21.4,0.5-36.6,2.3c16.4,3.9,32.9,8.5,51.1,14.3c-8.5,0.6-6.4,0.5-14,0.5c-7.5,0-17.3,0.6-20.1,0.4
				c-14.9-0.9-21.4-9.6-60.7-10.8c28,7.4,53.2,11.2,66.6,14.4l-10.7,0.8c0,0,4.9,2.8,9,5c-7.1-0.3-10.7-1-19.2-1.9
				c4.2,1.5,9.6,3.4,20.3,7.4c-44.1-7.1-56.4-14.4-87.3-17.4c30.2,9.9,29,8.5,37.7,11.1c19.8,5.9,29.9,10.4,47.3,18.2
				c-8.2-1.3-9.6-2-20.5-4.2c-11-2.2-10.7-3-27.2-5.3c21.8,8.8,47,18.5,70.2,28.6c0,0-5.6,0-9.6,0.1c-7.1,0.2-7.4-0.6-14.5-2.9
				c-8.4-2.7-29.2-9.2-55.4-18.9c14,8.7,58.6,22.6,71,27c7.6,2.7,14.6,5.2,15.6,5.6c1,0.4,1.5,1.2,1.1,1.9
				c-0.4,0.7-8.5-0.3-17.9-2.1c-9.5-1.8-17.4-3.1-17.6-2.8c-0.2,0.2,5.4,2.2,12.6,4.3c7.2,2.1,14.8,4.8,16.9,5.9
				c4.1,2.1,5.3,6.1,1.9,6.1c-1.6,0-21.3-4.5-40.9-9.3c-2-0.5-1.4,0.5,2.1,3.6c5.7,4.9,5.5,5-8.4,2.3c-5.8-1.1-10.7-1.9-10.9-1.7
				c-0.2,0.2,6.7,3,15.2,6.4c8.6,3.3,15.3,6.3,14.9,6.6c-0.6,0.6-35.5-7.7-42.5-10c-1.5-0.5,3.5,2.4,11.3,6.6
				c10.9,5.8,27.6,16.9,37.2,24.6C872.9,847.7,868.8,846.8,861.9,844L861.9,844z M819.4,798.5c-20.3-10.6-30.5-13.1-51.9-20.8
				C783.9,787.3,806.7,798.2,819.4,798.5z M679.6,753.3c-4.7-1.8-10.2-5.5-14.3-9.6c-8.4-8.4-11.1-16.8-11.1-34.1l1.5-14.6l6.4-5
				c5.4-4.3,10.7-10,12.4-15.2c12.5-1.7,12-3.7,27-5.1c12.1-1.1,22.9,1.2,28.6,6l4,3.4l-11,20c-6,11-14.4,25.2-18.5,31.4
				c-4.2,6.3-9.3,14.7-11.4,18.6c-2.1,4-4.3,7.2-4.9,7.2C687.7,756.2,683.8,754.9,679.6,753.3L679.6,753.3z"/>
		</g>
	</g>
</g>
</svg>
