<?xml version="1.0" encoding="utf-8"?><svg version="1.1" id="Layer_1" xmlns="http://www.w3.org/2000/svg" xmlns:xlink="http://www.w3.org/1999/xlink" x="0px" y="0px" viewBox="0 0 512 512" style="enable-background:new 0 0 512 512;" xml:space="preserve"><style type="text/css"> .st0{stroke:#FFFFFF;stroke-width:5;} .st1{fill:#0B5328;} .st2{fill:#FFFFFF;} .st3{clip-path:url(#SVGID_2_);fill:#FFFFFF;} .st4{fill:none;stroke:#FFFFFF;stroke-width:5;stroke-miterlimit:10;} </style><g id="Ebene_1"><g><g><ellipse class="st0" cx="255.8" cy="255.4" rx="251.6" ry="251.6"/><circle class="st1" cx="255.8" cy="255.4" r="182.4"/></g><path class="st2" d="M261,83.7c0.3,0.1,0.5,0.3,0.8,0.3c7.6,0.9,16.7,6.8,19.5,17.7c3.3,12.9-4.6,25.5-16.7,28.9 c-1,0.3-2,0.4-3,0.6c-0.5,0.1-0.9,0.2-1.5,0.3c-0.2,1.1-0.1,2.2-0.1,3.3c0,1.1,0,2.2,0,3.3s0,2.2,0,3.3c0,1.1-0.1,2.2,0.1,3.3 c0.5,0.1,0.9,0.1,1.4,0.2c3.6,0.1,7.3,0.1,10.9,0.3c3.9,0.2,7.8,0.4,11.8,0.6c2.4,0.1,4.8,0.3,7.2,0.5c1.8,0.1,3.6,0.3,5.4,0.5 c1.6,0.2,3.1,0.4,4.7,0.5c2.2,0.3,4.3,0.5,6.5,0.7c0.7,0.1,1.3,0.1,2,0.1c0.1-0.4,0.2-0.8,0.2-1.1c0.2-5.5,0.1-13.2-0.2-14.8 c-5.4-0.8-9.7-3.5-12.6-8.1c-2.2-3.6-3-7.5-2.4-11.6c1.3-8.9,8.9-15.1,17.7-14.8c9.2,0.3,15.6,7.1,16.6,14.9 c1.2,8.5-4,17.8-15.1,19.7c-0.3,1.8-0.1,3.6-0.1,5.4c0,1.8,0,3.6,0,5.4v5.5c0.7,0.2,1.4,0.3,2,0.4c4,0.7,8.1,1.2,12.1,2 c5.5,1.1,11,2.2,16.4,3.5c15.3,3.6,30.3,8.5,44.6,15.2c4.4,2.1,8.6,4.3,12.8,6.7c0.3,0.1,0.5,0.3,0.8,0.5c0.1,3.1,0,6.1-0.1,9.3 c0.4,0,0.7,0,0.9,0c8.8-1.6,17.5-4,26-7c4.8-1.7,9.7-3.4,14.4-5.4c7.9-3.5,15-8.2,21.4-14c1.4-1.3,2.7-2.6,4.1-3.8 c0.5-0.5,1-0.6,1.2-0.2c0.3,0.5-0.1,0.8-0.4,1.1c-0.6,0.6-1.2,1.2-1.8,1.8c0.5,1.4,1.3,2.5,1.8,4.1c-1.5-0.6-2.5-1.7-3.9-2.2 c-0.8,0.7-1.5,1.4-2.4,2.1c0.4,1.4,1.2,2.5,1.7,3.9c-0.9-0.1-1.4-0.7-2-1c-0.6-0.3-1.1-0.7-1.7-1.1c-1,0.5-1.8,1.2-2.5,1.9 c0.5,1.6,1.5,2.9,2,4.7c-1.1-0.4-1.7-1-2.5-1.5c-0.7-0.4-1.4-0.9-2.2-1.4c-0.7,0.5-1.4,0.9-2.1,1.4c0.7,2,1.9,3.8,2.7,5.9 c-0.3-0.1-0.5-0.1-0.7-0.2c-0.8-0.5-1.5-1-2.3-1.5c-0.9-0.6-1.8-1.2-2.2-2.3c0-0.1-0.2-0.1-0.4-0.3c-0.7,0.4-1.4,0.7-2.1,1.3 c0.9,2.3,2.2,4.4,3.2,6.8c-0.8-0.1-1.1-0.5-1.6-0.8c-0.3-0.2-0.6-0.4-0.9-0.6c-1.4-0.7-2.4-1.7-3-3.3c-0.1-0.3-0.3-0.5-0.5-0.8 c-0.9,0.1-1.6,0.5-2.4,1c0.3,0.7,0.6,1.4,1,2.1c0.3,0.7,0.7,1.4,1,2.1c0.3,0.7,0.7,1.3,1,1.9c0.3,0.7,0.8,1.3,0.9,2.3 c-1.4-0.9-2.7-1.7-3.9-2.6c-0.4-0.3-0.7-0.8-0.9-1.3c-0.6-1.1-1.1-2.2-1.7-3.4c-0.9,0.1-1.7,0.5-2.5,0.9c0.2,0.4,0.3,0.8,0.5,1.2 c1.2,2.6,2.5,5.1,3.7,7.6c0.2,0.4,0.4,0.9,0.5,1.3c-0.3,0.3-0.5,0.1-0.7,0c-1.2-0.8-2.4-1.6-3.6-2.4c-0.6-1.2-1.3-2.5-1.9-3.7 c-0.4-0.9-0.9-1.7-1.3-2.6c-1-0.2-1.7,0.4-2.7,0.7c0.9,2.2,2,4.2,2.9,6.2c0.9,2,2,3.9,3,6.2c-0.9-0.2-1.3-0.6-1.8-0.9 c-0.9-0.6-1.9-1.1-2.6-1.9c-0.7-0.7-1-1.8-1.4-2.7c-0.9-1.9-1.9-3.8-2.8-5.7c-1,0-1.8,0.3-2.6,0.9c2.3,4.8,4.7,9.5,6.9,14.3 c-0.5,0.3-0.7,0-0.9-0.2c-1.2-0.8-2.5-1.4-3.4-2.4c-0.9-0.9-1.3-2.3-1.9-3.5c-1-2-2-4-3-6c-0.2-0.4-0.4-0.8-0.7-1.3 c-1,0.1-1.8,0.3-2.6,0.9c1.3,2.7,2.7,5.4,4,8.2c1.3,2.6,2.6,5.2,3.9,8.1c-0.9-0.1-1.3-0.6-1.8-0.9c-0.9-0.6-2-1.1-2.6-1.9 c-0.7-0.8-1-1.9-1.5-2.9c-1.3-2.7-2.7-5.4-4-8.1c-0.3-0.5-0.5-1.1-0.8-1.5c-1-0.2-1.7,0.3-2.5,0.5c-0.2,0.6,0.3,1.1,0.5,1.5 c2.4,4.9,4.8,9.9,7.2,14.8c0.3,0.5,0.5,1.1,0.8,1.6c-0.3,0.4-0.6,0.1-0.8-0.1c-0.9-0.5-1.7-1.2-2.6-1.7c-0.8-0.5-1.2-1.1-1.6-1.9 c-1.9-3.9-3.8-7.8-5.7-11.7c-0.3-0.5-0.5-1.1-0.8-1.6c-1-0.3-1.8,0.3-2.6,0.4c-0.1,0.8,0.4,1.3,0.7,1.9c2.7,5.7,5.5,11.3,8.3,16.9 c0.2,0.5,0.4,1,0.6,1.4c-0.3,0.4-0.5,0.1-0.7,0c-1.2-0.7-2.5-1.3-3.4-2.3c-0.9-1-1.4-2.4-2-3.6c-2-3.9-3.9-7.9-5.8-11.9 c-0.3-0.5-0.6-1.1-0.9-1.6c-0.9,0.3-1.7,0.1-2.5,0.6c-0.1,0.6,0.3,1,0.5,1.5c3.2,6.7,6.5,13.3,9.8,20c0.2,0.5,0.4,1,0.7,1.6 c-0.8-0.1-1.2-0.6-1.7-0.8c-2-1-3.3-2.7-4.2-4.7c-2.4-5.1-5-10.2-7.5-15.3c-0.3-0.5-0.5-1.1-0.9-1.6c-0.9,0.1-1.7,0-2.5,0.5 c-0.2,0.7,0.3,1.1,0.5,1.5c3.6,7.5,7.3,15,11,22.5c0.3,0.6,0.6,1.2,0.8,1.8c-0.4,0.4-0.6,0-0.8-0.1c-0.9-0.5-1.7-1.2-2.6-1.7 c-0.8-0.5-1.2-1.1-1.6-1.9c-3-6.2-6-12.4-9.1-18.5c-0.5-1-1-1.9-1.5-3c-0.9,0.1-1.8,0-2.7,0.5c0.3,1.1,0.9,2,1.3,3 c0.4,0.9,0.9,1.8,1.4,2.8c0.5,1,1,2,1.4,2.9c0.5,1,1,2,1.4,2.9c0.5,1,0.9,2,1.4,2.9c0.4,0.9,0.9,1.8,1.3,2.8c0.5,1,1,2,1.4,2.9 c0.5,1,1,2,1.4,2.9c0.5,0.9,0.9,1.8,1.4,2.8c0.5,1,1,1.9,1.4,3c-0.7,0.1-1-0.3-1.4-0.6c-1-0.7-2.2-1.2-2.9-2.1 c-0.8-0.9-1.2-2.1-1.7-3.2c-3.4-6.9-6.8-13.9-10.2-20.8c-0.3-0.6-0.6-1.2-0.9-1.8c-0.9,0.2-1.7,0.3-2.6,0.5 c-0.1,0.8,0.4,1.3,0.7,1.9c3,6.2,6.1,12.5,9.2,18.7c1.8,3.7,3.7,7.5,5.5,11.2c0.2,0.4,0.5,0.8,0.4,1.5c-0.6-0.4-1.1-0.7-1.6-1 c-0.5-0.3-1-0.7-1.5-1c-0.8-0.5-1.3-1.2-1.7-2c-2.3-4.8-4.7-9.5-7-14.3c-2.2-4.4-4.3-8.9-6.5-13.3c-0.2-0.3-0.3-0.6-0.5-1 c-0.9,0.1-1.8,0.2-2.7,0.6c5.9,12.2,11.9,24.2,17.7,36.3c-0.4,0.3-0.5,0.1-0.7,0c-0.9-0.6-1.7-1.2-2.6-1.7c-0.8-0.4-1.3-1-1.6-1.8 c-2.5-5.2-5.1-10.4-7.6-15.6c-2.4-4.9-4.8-9.9-7.2-14.8c-0.3-0.5-0.5-1.1-0.8-1.6c-1-0.2-1.7,0.5-2.5,0.3 c-0.2,0.9,0.2,1.3,0.5,1.9c1.9,4,3.9,7.9,5.8,11.9c4.1,8.3,8.2,16.7,12.2,25.1c0.2,0.4,0.4,0.9,0.7,1.4c-0.8,0.1-1.1-0.7-1.7-0.6 c-0.6,1.2-0.6,2.7-1.5,4.3c0-1-0.1-1.5,0-2.1c0.1-1.1-0.2-2.1-0.7-3.1c-3.7-7.5-7.4-15.1-11.1-22.6c-2.2-4.6-4.5-9.1-6.7-13.7 c-0.2-0.4-0.4-0.9-0.7-1.3c-1,0.1-1.8,0.3-2.7,0.8c7.2,14.7,14.4,29.4,21.5,43.9c-0.4,1.4-0.8,2.7-1.2,4c0.8,0.3,1.5,0.4,2.2,0.5 c4.1,0.7,8.2,1.3,12.3,2c5,0.9,10,1.8,15,2.4c3,0.3,6,0.7,9,1c2.5,0.2,5.1,0.3,7.6,0.4c5,0.1,10,0.2,15,0 c9.6-0.3,18.8-2.3,27.5-6.3c1.5-0.7,3-1.5,4.6-2.2c0.4-0.2,0.8-0.4,1.2-0.5c0.2,0,0.5,0.1,0.6,0.3c0.1,0.2,0,0.5-0.1,0.6 c-0.1,0.2-0.4,0.3-0.6,0.4c-0.6,0.3-1.2,0.6-1.8,0.9c-0.1,1.6,0.8,3,0.8,4.7c-0.6-0.4-0.9-0.9-1.3-1.3c-0.3-0.3-0.6-0.7-1-1.1 c-0.4-0.4-0.7-0.8-1.1-1.2c-0.9,0.4-1.8,0.8-2.7,1.2c0.3,1.5,0.7,2.9,1,4.2c-0.5,0.2-0.6-0.1-0.8-0.3c-0.9-1-1.8-2-2.7-3 c-0.9,0.3-1.8,0.6-2.7,1c0,0.4,0,0.7,0.1,1.1c0.3,1.1,0.6,2.1,0.8,3.2c0.1,0.3,0.1,0.7,0.2,1.3c-1-0.8-1.5-1.6-2.2-2.3 c-0.7-0.7-1.3-1.5-2-2.3c-0.8,0.2-1.6,0.2-2.4,0.8c0.3,2.2,1.2,4.3,1.5,6.7c-0.9-0.6-1.3-1.3-1.9-1.9c-0.5-0.6-1.1-1.1-1.5-1.8 c-0.4-0.7-0.7-1.5-1.1-2.3c-0.8-0.2-1.6,0-2.3,0.3c-0.3,0.4-0.1,0.7,0,1.1c0.5,1.8,0.9,3.6,1.4,5.4c0.1,0.4,0.1,0.8,0.2,1.3 c-0.3-0.2-0.5-0.2-0.6-0.3c-0.4-0.4-0.7-0.8-1.1-1.2c-1.5-1.5-2.7-3.1-2.9-5.3c0-0.2-0.1-0.3-0.2-0.5c-0.8-0.2-1.6-0.1-2.5,0.3 c0.6,3.2,1.6,6.2,2.3,9.6c-0.5-0.4-0.7-0.5-0.9-0.7c-0.7-0.8-1.3-1.6-2-2.3c-0.8-0.8-1.2-1.7-1.5-2.8c-0.3-1.2-0.6-2.4-1-3.7 c-0.5,0-0.9,0-1.3,0c-0.4,0-0.8,0.1-1.3,0.1c0.3,2,1,3.9,1.4,5.8c0.4,1.9,1.1,3.8,1.4,6.1c-0.7-0.7-1.1-1.1-1.5-1.5 c-0.8-0.9-1.8-1.7-2.3-2.8c-0.6-1-0.7-2.3-1-3.5c-0.4-1.3-0.7-2.7-1.1-4h-2.7c0.4,2.5,1.2,4.7,1.7,7.1c0.5,2.3,1.2,4.5,1.8,7.1 c-0.5-0.4-0.7-0.5-0.9-0.7c-0.9-1-1.7-2-2.6-3c-0.5-0.5-0.7-1.1-0.8-1.8c-0.6-2.4-1.2-4.8-1.9-7.2c-0.1-0.5-0.3-1-0.5-1.6 c-0.9-0.2-1.7-0.3-2.6-0.1c0.2,1.9,0.9,3.7,1.3,5.5c0.5,1.9,1,3.7,1.4,5.6c0.5,1.8,0.9,3.6,1.5,5.7c-0.5-0.4-0.7-0.5-0.9-0.7 c-0.8-0.9-1.5-1.8-2.3-2.6c-0.6-0.6-0.9-1.4-1.2-2.2c-0.8-3.3-1.7-6.5-2.5-9.8c-0.1-0.5-0.3-1-0.5-1.6h-2.7 c0.1,0.7,0.3,1.3,0.4,1.9c1.3,5.1,2.7,10.3,4,15.4c0.1,0.4,0.1,0.8,0.2,1.5c-1.1-0.9-1.6-1.9-2.4-2.6c-1.1-1-1.6-2.3-2-3.8 c-0.9-3.8-1.9-7.5-2.9-11.2c-0.1-0.5-0.3-0.9-0.4-1.4c-0.9-0.4-1.8-0.3-2.8-0.3c0.9,3.6,1.8,7,2.7,10.5c0.9,3.4,1.8,6.7,2.3,10.2 c-0.3-0.3-0.7-0.6-1-1c-0.9-1.1-2-2-2.6-3.2c-0.6-1.1-0.8-2.5-1.1-3.8c-1-3.8-2-7.6-2.9-11.4c-0.1-0.5-0.3-1-0.5-1.6 c-0.8-0.1-1.7-0.2-2.4-0.3c-0.4,0.4-0.2,0.8-0.1,1.2c1.7,6.5,3.4,13.1,5.1,19.6c0.2,0.7,0.4,1.5,0.6,2.6c-0.4-0.3-0.7-0.5-0.9-0.6 c-0.1-0.1-0.2-0.2-0.2-0.3c-0.9-1.1-2.1-2.1-2.8-3.3c-0.6-1.2-0.8-2.6-1.2-4c-1.2-4.8-2.5-9.6-3.7-14.4c-0.1-0.4-0.2-0.8-0.4-1.2 c-0.9-0.2-1.7-0.4-2.8-0.4c2.2,8.9,4.6,17.6,6.9,26.7c-0.5-0.4-0.7-0.5-0.9-0.7c-1-1.2-2.3-2.3-3-3.6c-0.7-1.3-0.9-2.9-1.3-4.3 c-1.5-5.7-2.9-11.3-4.4-17c-0.1-0.5-0.3-1-0.5-1.6c-0.8-0.1-1.6-0.3-2.5-0.4c-0.4,0.4-0.2,0.8-0.1,1.2c2.3,8.9,4.6,17.8,6.9,26.6 c0.2,0.6,0.3,1.2,0.5,2.1c-1-0.7-1.5-1.6-2.2-2.2c-1.3-1.3-2-2.9-2.5-4.7c-1.8-7.4-3.8-14.8-5.7-22.3c-0.1-0.5-0.3-0.9-0.5-1.4 c-0.9-0.1-1.7-0.3-2.6-0.4c-0.3,0.7,0.1,1.2,0.2,1.8c1.7,6.6,3.4,13.2,5.1,19.8c0.9,3.4,1.8,6.8,2.7,10.2c0.1,0.5,0.2,0.9,0.4,1.6 c-0.4-0.3-0.6-0.4-0.7-0.5c-0.2-0.2-0.4-0.4-0.6-0.7c-0.9-1.1-2-2-2.6-3.2c-0.6-1.1-0.7-2.5-1.1-3.8c-2.1-7.9-4.1-15.9-6.2-23.8 c-0.1-0.6-0.3-1.2-0.5-1.7c-0.8-0.6-1.7-0.5-2.8-0.6c0.1,0.6,0.1,1.1,0.3,1.5c3,11.6,6,23.1,9,34.7c0.1,0.6,0.4,1.1,0.3,1.7 c-0.2-0.1-0.3-0.1-0.4-0.2c-1-1.1-1.9-2.2-2.9-3.3c-0.1-0.1-0.3-0.3-0.3-0.4c-0.2-0.4-0.4-0.9-0.5-1.4c-1.4-5.4-2.8-10.9-4.2-16.3 c-1.3-5.2-2.7-10.4-4-15.6c-0.1-0.5-0.3-0.9-0.4-1.4c-0.9-0.1-1.7-0.5-2.8-0.3c3.6,13.9,7.2,27.8,10.8,41.7c-0.2,0-0.3,0-0.3,0 c-1.2-1.3-2.4-2.6-3.5-3.9c-0.3-0.3-0.4-0.9-0.5-1.3c-2.7-10.3-5.3-20.6-8-30.8c-0.5-2-1-4-1.6-6c-0.8-0.3-1.7-0.5-2.7-0.4 c0.1,0.4,0.1,0.8,0.1,1.1c3,11.7,6.1,23.5,9.1,35.2c0.7,2.8,1.5,5.6,2.2,8.4c0.1,0.3,0.1,0.7,0.2,1.1c-0.2,0-0.3,0-0.4,0 c-1.1-1.2-2.1-2.3-3.1-3.5c-0.4-0.5-0.6-1.2-0.7-1.8c-1.3-4.8-2.5-9.6-3.7-14.4c-2.2-8.4-4.3-16.7-6.5-25.1 c-0.1-0.4-0.3-0.8-0.4-1.2c-0.9-0.3-1.7-0.3-2.6-0.1c0.1,0.6,0.2,1.1,0.4,1.6c3.5,13.5,7,27,10.5,40.5c0.6,2.4,1.3,4.8,1.9,7.2 c0.1,0.4,0.3,0.9,0.1,1.4c-0.5-0.2-0.8-0.6-1.1-1c-0.8-0.9-1.7-1.9-2.5-2.9c-0.3-0.4-0.4-0.9-0.5-1.3c-1.9-7.4-3.8-14.7-5.7-22.1 c-1.9-7.4-3.9-14.8-5.8-22.3c-0.1-0.4-0.2-0.8-0.4-1.2c-0.8-0.3-1.6-0.3-2.6-0.1c0.2,2,0.9,3.8,1.3,5.6c0.4,1.8,0.9,3.6,1.4,5.4 c0.5,1.9,1,3.7,1.5,5.6c0.5,1.8,0.9,3.6,1.4,5.4c0.5,1.9,1,3.7,1.4,5.6c0.5,1.9,1,3.7,1.4,5.6c0.5,1.8,0.9,3.6,1.4,5.4 c0.5,1.9,1,3.7,1.4,5.6c0.5,1.8,0.9,3.6,1.4,5.4c0.5,1.8,1,3.7,1.5,5.8c-1-0.6-1.4-1.4-2-2c-1.6-1.4-2.3-3.3-2.8-5.3 c-4-15.7-8.1-31.4-12.2-47.1c-0.1-0.4-0.3-0.8-0.4-1.2c-0.8-0.3-1.6-0.1-2.3-0.1c-0.5,0.5-0.2,0.9-0.1,1.3 c2.8,10.7,5.5,21.4,8.3,32.1c2.1,8,4.1,16,6.2,24c0.1,0.5,0.2,0.9,0.3,1.6c-0.4-0.2-0.6-0.3-0.7-0.4c-1-1.1-2.2-2.2-2.9-3.5 c-0.7-1.2-0.9-2.7-1.2-4.1c-4-15.5-8.1-31.1-12.1-46.6c-0.3-1.3-0.7-2.7-1.1-4c-0.9-0.3-1.7-0.1-2.7,0c0.1,0.4,0.1,0.7,0.2,1.1 c2.4,9.2,4.7,18.5,7.1,27.7c2.3,8.9,4.6,17.9,7,26.8c0.1,0.4,0.2,0.8,0.2,1.2c-0.4,0.3-0.5,0-0.6-0.2c-1-1.2-2.3-2.3-3-3.6 c-0.7-1.3-1-3-1.4-4.5c-2.6-10.2-5.3-20.3-7.9-30.5c-1.4-5.4-2.8-10.7-4.2-16.1c-0.1-0.5-0.3-1-0.5-1.6c-0.9-0.2-1.7-0.1-2.6,0.3 c0.5,2.6,1.3,5,1.9,7.5c0.6,2.5,1.3,5,1.9,7.5c0.7,2.5,1.3,5,2,7.5c0.6,2.5,1.3,4.9,1.9,7.4c0.6,2.5,1.3,5,1.9,7.5 c0.7,2.5,1.4,5,2,7.5c0.7,2.5,1.3,5,2,7.8c-0.6-0.4-1-0.6-1.4-0.9c-0.3,0.6-0.6,1.1-0.9,1.6c-5.9,11.8-12.4,23.2-19.4,34.4 c-12.3,19.6-26.1,38-41.9,55c-9.5,10.2-19.7,19.6-30.8,28.1c-5.7,4.3-11.7,8.3-17.9,11.9c-0.2,0.1-0.3,0.2-0.5,0.3 c-0.5,0.4-1,0.3-1.5,0c-1.4-0.9-2.9-1.7-4.4-2.6c-9.1-5.6-17.6-12-25.6-19c-13.1-11.5-25-24.2-35.8-37.9 c-13.7-17.1-25.7-35.2-36.4-54.3c-1.9-3.4-3.7-6.8-5.5-10.2c-0.5-0.9-1-1.5-2.1-1.8c-2.3-0.7-4.6-1.5-6.9-2.3 c-0.2-0.1-0.4-0.2-0.8-0.3c0.1-0.5,0.2-0.9,0.3-1.4c0.7-2.1,1.3-4.1,2.1-6.2c0.4-1,0.3-1.9-0.1-2.9c-3.5-7.4-6.8-14.9-9.8-22.6 c-4.9-12.4-9-25-12.3-37.9c-2-8-3.7-16-4.8-24.1c-0.8-5.7-1.4-11.4-1.6-17.1c-0.1-3.1-0.2-6.2-0.3-9c0.4-0.8,1-1,1.5-1.2 c10.5-6.1,21.5-10.8,33-14.7c10-3.4,20.2-6.2,30.5-8.4c5.4-1.1,10.8-2.1,16.2-3.1c1.9-0.4,3.8-0.6,5.7-0.9c0.3-0.1,0.7-0.2,1-0.3 c0.3-1.4,0.3-8.6,0.1-11.2c-0.6-0.1-1.2-0.3-1.8-0.5c-7-1.8-11.6-6.2-13.1-13.3c-2.2-10,4.6-18.7,13.3-20.5 c9.7-2,18.2,4.2,20.4,12.6c2.4,9.3-3.3,18.9-12.6,21.1c-0.7,0.2-1.4,0.3-2.2,0.5c-0.3,1.2-0.1,2.4-0.1,3.6c0,1.1,0,2.3,0,3.4 c0,1.2-0.1,2.4,0.1,3.6c5.7-0.6,11.3-1.1,16.9-1.7c5.7-0.6,11.3-0.8,17-1.2c5.6-0.3,11.2-0.2,16.8-0.6c0.3-1.4,0.4-10.2,0.1-13.1 c-0.4-0.1-0.8-0.3-1.3-0.4c-8.6-1-17.9-7.6-20.2-18.9c-2.6-12.8,5.4-25.2,18.5-28.1c0.7-0.2,1.5,0.1,2.1-0.5L261,83.7L261,83.7z M214.2,197.6c1.5-0.2,3.1-0.5,4.6-0.7c2.9-0.3,5.7-0.6,8.6-0.8c2.9-0.3,5.7-0.5,8.6-0.7c0,0.4,0,0.7,0,1.1c0,17.9,0,35.8,0,53.7 c0,0.5,0,1.1,0.1,1.5c0.1,0.1,0.2,0.2,0.2,0.2c3.2,1.1,6.5,2.2,9.8,3.3c0.5,0.2,0.9,0.1,1.4-0.2c1.4-0.8,2.7-0.5,3.8,0.6 c0.2,0.2,0.3,0.3,0.6,0.5c0.9-0.5,1.7-1.3,2.8-1.2c1.1,0.1,2.1,0.2,3.2,0.3v-2c0-18.9,0-37.7,0-56.6c0-0.7,0-1.3,0-2 c6.4-0.1,12.7,0.1,19.1,0.5c0.9,0,1.8,0.2,2.7,0.3c0,0.7,0.1,1.4,0.1,2.2c0,15,0,29.9,0,44.9c0,0.5,0,1.1,0,1.6 c0,0.3-0.1,0.6,0.5,0.8c7-4.7,14.1-9.5,21.3-14.2c0-10.9,0-21.7,0-32.5c0-0.2-0.1-0.5-0.1-0.7c-0.3-0.1-0.5-0.2-0.7-0.2 c-2.3-0.3-4.7-0.5-7-0.8c-2.3-0.2-4.6-0.4-6.8-0.6c-2-0.2-4-0.3-6-0.4c-0.4,0-0.8,0.1-1.2,0.1c0-0.4,0.1-0.7,0.1-1.1 c0-5.6,0-11.2,0-16.8c0-0.3-0.1-0.7-0.1-1c-0.8-0.4-1.6-0.3-2.4-0.4c-5.2-0.1-10.4-0.5-15.5-0.4c-1.3,0-2.5,0-3.8,0.1 c0-2.1,0-4.2,0-6.3c0-2.1,0-4.1,0-6.2c0-2.1-0.1-4.2,0.1-6.4c3.7-0.2,7.2,0,10.8,0c3.6,0,7.2,0.3,10.8,0.5 c0.3,0.7,0.2,1.4,0.2,2.1c0,4.9,0,9.8,0,14.7c0,0.7-0.1,1.3,0.2,2c0.8,0.3,1.7,0.3,2.5,0.4c0.8,0.1,1.7,0,2.5,0.1 c3.8,0.3,7.6,0.7,11.4,1c1.7,0.2,3.3,0.5,5,0.7c0.4,0.5,0.3,1.2,0.3,1.7c0,5.1,0,10.1,0,15.2c0,0.6-0.2,1.3,0.3,2 c0.3,0.1,0.7,0.2,1,0.2c1.2,0.2,2.5,0.3,3.8,0.5c5.1,0.9,10.2,1.8,15.3,2.7c0.4,0.1,0.8,0.2,1.2-0.1c0-0.2,0.1-0.3,0.1-0.5 c0-5.9,0-11.7,0-17.6c0-0.3-0.1-0.6-0.2-0.9c-2.6-0.5-5.2-0.9-7.7-1.3c-3.6-0.6-7.3-1.1-10.9-1.7c-1.1-0.2-2.2-0.2-3.2-0.3 c0.1-0.7,0.2-1.3,0.2-2c0-5.1,0-10.3,0-15.4c0-0.5-0.2-1.1,0.4-1.6c1.5,0.2,3.2,0.3,4.7,0.5c5.3,0.8,10.6,1.7,15.9,2.5 c0.3,0,0.5,0.2,0.9,0.4c0,0.7,0,1.3,0,2c0,5,0,9.9,0,14.9c0,0.7-0.1,1.3,0.2,2c7,1.4,14,3,20.9,4.9c0.1,0,0.1,0,0.2,0 c0.1,0,0.1-0.1,0.2-0.1c0.2-0.6,0.1-1.3,0.1-1.9c0-5,0-10,0-15c0-0.6-0.2-1.2,0.3-1.7c0.3,0,0.5,0,0.7,0.1 c6.7,1.9,13.4,4,19.9,6.5c0.3,0.1,0.6,0.3,0.9,0.5c0,0.7,0,1.4,0,2.1c0,5.3,0,10.5,0,15.8c0,0.6,0.1,1.2,0.2,1.8 c-0.6-0.3-1.2-0.6-1.8-0.9c-4.9-1.7-9.8-3.4-14.6-5.1c-1.8-0.6-3.6-1-5.3-1.5c-0.1,0.2-0.2,0.3-0.2,0.4c0,0.3,0,0.6,0,0.9 c0,5,0,10,0.1,15c0,0.1,0,0.1,0.1,0.2c0,0,0.1,0,0.3,0.1c0.5-0.2,1-0.4,1.5-0.7c4.6-2.3,9.2-4.4,14-6.2c2-0.8,4.1-1.4,6.1-2.1 c0.2-0.1,0.3-0.2,0.5-0.2c7.6-2.6,15.4-4.5,23.3-5.8c1.3-0.2,2.6-0.5,3.9-0.8c0.1-2.2,0.4-4.3,0.2-6.4c-0.4-0.3-0.8-0.5-1.2-0.8 c-1.4-0.7-2.8-1.5-4.2-2.2c-9.3-4.7-19.1-8.5-29-11.6c-8.1-2.6-16.2-4.7-24.5-6.5c-5-1.1-10.1-2-15.1-2.9 c-3.7-0.6-7.4-1.1-11.1-1.6c-3.9-0.5-7.8-0.9-11.7-1.4c-1.6-0.2-3.2-0.3-4.9-0.5c-2.1-0.2-4.2-0.4-6.3-0.6 c-3.6-0.2-7.2-0.5-10.8-0.6c-6.8-0.2-13.5-0.4-20.3-0.4c-4.5,0-9.1,0.1-13.6,0.3c-3,0.1-6,0.3-9,0.5c-2.5,0.2-4.9,0.4-7.4,0.6 c-2,0.2-4,0.3-6,0.5c-3.8,0.4-7.6,0.8-11.3,1.3c-3.8,0.5-7.5,1-11.3,1.6c-5.6,0.9-11.2,1.9-16.7,3.1c-10.6,2.3-21,5.1-31.2,8.6 c-9,3.1-17.8,6.8-26.2,11.3c-0.7,0.4-1.4,0.8-2,1.1c-0.2,1.8,0.1,3.5,0.1,5.2c0.2,5.6,0.8,11.1,1.6,16.6 c1.1,7.5,2.6,14.9,4.4,22.2c3.4,13.5,7.8,26.8,13,39.7c1.7,4.3,3.6,8.5,5.4,12.7c0.1,0.3,0.2,0.9,0.9,0.8c0.5-1.6,1.1-3.2,1.6-4.7 c-1.1-2.5-2.1-5-3.1-7.5c-5.5-13.7-10.1-27.7-13.4-42c-0.1-0.3-0.1-0.6-0.1-0.9c0.4-0.2,0.8-0.5,1.1-0.7c4.6-2.7,9.4-5,14.2-7.2 c0.5-0.2,1.1-0.5,1.6-0.8c0.1,0.8,0.2,1.6,0.2,2.3c0,17.1,0,34.2,0,51.3c0,0.6,0,1.2,0,1.8c0,0.2,0,0.5,0.4,0.4 c0.7-1.2,0.8-2.7,1.6-4.1c1,0.3,2,0.6,3,0.9c5.1,1.7,10.2,3.4,15.2,5.1c0.4,0.1,0.9,0.4,1.4,0.1c0.1-1,0.2-2-0.1-3.2 c-3-1.2-6.1-2.1-9.2-3.2c-3.1-1.1-6.2-2-9.3-3.2c2.1-6.7,4.5-13.3,6.6-20c-2.4-1-4.8-1.5-7-2.5c0.2-1.5,4.2-13.7,5.1-15.2 c4.6,1.4,9.1,3.1,13.7,4.5c0.1-0.2,0.2-0.3,0.2-0.4c0-0.4,0-0.8,0-1.3c0-6.9,0-13.8-0.1-20.7c0-0.1,0-0.1-0.1-0.2 c0,0-0.1-0.1-0.2-0.2c-0.3,0.1-0.6,0.1-1,0.2c-6.4,2-12.7,4.2-18.9,6.8c-0.5,0.2-1.1,0.4-1.7,0.6c0-0.2,0.1-0.4,0.1-0.5 c0-6.3,0-12.6,0-18.9c0-0.2-0.1-0.4-0.1-0.6c-0.2,0-0.3,0-0.4,0c-0.5,0.2-1,0.4-1.5,0.6c-5.7,2.4-11.4,5-16.8,8 c-0.4,0.2-0.9,0.7-1.6,0.5c-0.5-3-0.8-6.1-0.9-9.1c-0.2-3.1-0.5-6.2-0.3-9.3c3.8-2.7,18.2-9.5,21.6-10.2c0.4,0.5,0.2,1.2,0.2,1.7 c0,5.1,0,10.3,0,15.4c0,0.6-0.2,1.2,0.3,1.8c0.7,0,1.3-0.4,1.9-0.6c6-2.3,12.2-4.3,18.4-6.1c0.5-0.1,0.9-0.1,1.4-0.2 c0,0.2-0.1,0.5-0.1,0.7c0,5.9,0,11.8,0,17.7c0,0.3,0.1,0.7,0.1,1.1c0.5-0.1,1-0.2,1.5-0.3c4.2-1.1,8.5-2.3,12.7-3.4 c2.5-0.6,5-1.1,7.6-1.7c0,0.4-0.1,0.8-0.1,1.3c0,11.2,0,22.3,0,33.5c0,0.4,0.1,0.8,0.1,1.3c7,2.4,14,4.7,20.9,7 c0.2,0.1,0.3,0,0.6,0c0.2-0.7,0.1-1.5,0.1-2.2c0-14.1,0-28.2,0-42.4C214.2,199,214.2,198.3,214.2,197.6 M257.8,411.6 c0-2.8,0-5.4,0-7.9c0-2.7,0-5.3,0-8c0-2.6,0-5.2,0-7.8c0-2.7,0-5.3,0-8v-7.8c0-2.7,0-5.3,0-8c0-2.6,0-5.2,0-7.8c0-2.7,0-5.3,0-8 c0-2.6,0-5.2,0-7.8v-8c0-2.6,0-5.2,0-7.8v-8c0-2.6,0-5.2,0-7.8c0-2.7,0-5.3,0-8c0-2.6,0-5.2,0-7.8c0-2.7,0-5.3,0-8 c0-2.6,0-5.2,0-7.9c-1.6,0.1-2.8-0.5-3.7-1.6c-3.8,2.8-6.6,1.9-8.2-2.5c-0.4,0-0.8,0-1.2,0c-1.1-0.1-2.1-0.5-2.5-1.5 c-0.4-1-1.1-1.3-2-1.6c-1-0.3-2.1-0.7-3.1-1c-0.3-0.1-0.6-0.1-1-0.2c-0.1,1-0.1,1.9-0.1,2.8c0,0.9,0,1.8,0,2.7v2.9v2.7v2.7v2.7 v2.9v2.7v2.7v2.7v2.9v2.7v2.7v2.7v2.9v2.7v2.7v2.7c0,1,0,1.9,0,2.9v2.7v2.7v2.7v2.7v2.9v2.7v2.7v2.7v2.9v2.7v2.7v2.7v2.9v2.7v2.7 v2.7v2.9v2.7v2.7v2.7v2.9v2.7v2.7v2.7v2.9c0,0.9,0,1.8,0,2.7c0,0.9,0.1,1.8-0.1,2.8c-0.7-0.2-1.1-0.7-1.6-1.1 c-4.2-3.5-8.2-7.2-12.1-11c-2.4-2.4-4.7-4.8-7.1-7.2c-0.7-0.7-1.1-1.5-1-2.6c0.1-1,0-2.1,0-3.1c0-20.2,0-40.4,0-60.5 c0-0.5,0.1-1-0.1-1.9c-0.3,0.7-0.5,1-0.6,1.3c-1.2,3.5-2.4,7-3.5,10.5c-0.1,0.4-0.3,0.7-0.5,1.2c-0.5-0.2-1-0.3-1.5-0.4 c-4.6-1.5-9.3-3.1-13.9-4.6c-0.5-0.2-1-0.4-1.6-0.3v2.9v3.1v2.9v3v2.9v3.1v2.9v3.1v2.9c0,1,0,2.1,0,3.1c0,0.9,0.1,1.9-0.1,2.8 c-0.7,0.1-0.8-0.4-1-0.7c-7.3-9.7-14-19.9-20.2-30.3c-0.5-0.8-0.7-1.5-0.6-2.4c0-1.9,0-3.9,0-5.8c0-0.4-0.1-0.8-0.2-1.1 c-3.8-1.5-9.2-3.2-10.6-3.4c0.2,0.4,0.3,0.8,0.5,1.2c0.7,1.3,1.4,2.5,2.1,3.8c11.8,21,25.3,40.9,40.9,59.3 c8.7,10.4,18.1,20.1,28.3,29.1c7.9,6.9,16.1,13.3,25,18.8c0.5,0.3,1,0.6,1.6,0.9c1.4-0.7,2.7-1.6,4-2.4 c10.9-7,20.8-15.3,30.2-24.2c9.9-9.5,18.9-19.7,27.4-30.4c16.8-21.2,31.1-44,43.2-68.1c0.2-0.4,0.4-0.9,0.6-1.3 c-0.9-1.1-1.8-2.2-2.7-3.3c0,0-0.1-0.1-0.1-0.1c-0.1,0-0.1,0-0.3,0c-0.9,1.8-1.8,3.7-2.8,5.6c-1,1.9-2,3.9-3,5.8 c-1,1.9-2,3.7-3,5.6c-1,1.9-2.1,3.8-3.2,5.7c-1,1.8-2,3.7-3.3,5.5c-0.4-0.7-0.3-1.2-0.3-1.7c0-3.9,0-7.7,0-11.6 c0-0.5,0.1-0.9-0.3-1.4c-0.5,0.3-1,0.6-1.4,0.8c-1.6,0.9-3.4,1.4-5.2,1.2c-2.2-0.2-4.2-1.1-5.8-2.7c-0.3-0.3-0.6-0.5-0.8-0.7 c-0.8,0.3-1.4,0.7-2.1,0.8c-0.7,0.1-1.4,0.1-2.1,0c-0.8-0.1-1.5-0.5-2.1-1c-0.6-0.4-0.9-1.1-1.7-1.5v2.2c0,15.6,0,31.3,0,46.9 c0,1.2-0.3,2.2-1.1,3.1c-3.8,4.9-7.6,9.7-11.6,14.4c-2.7,3.1-5.5,6.1-8.2,9.2c-0.3,0.3-0.4,0.8-1.1,0.5v-2.1c0-21.6,0-43.1,0-64.7 c0-0.5,0-1,0-1.4c0-0.3,0.1-0.6-0.4-0.8c-1.6,1.1-3.1,2.4-4.4,3.9c0.7,1,1.4,2,1.5,3.3c0.1,1.2-0.2,2.4-0.9,3.4 c-0.7,1-1.8,1.5-2.7,2c0,1.4,0,2.7-0.1,4c-0.1,1.3-0.6,2.4-1.3,3.5c-0.7,1-1.5,1.9-2.5,2.6c-1.1,0.7-2.2,1.2-3.5,1.5 c-1.3,0.3-2.5,0.3-3.8-0.1c-1.2-0.4-2.3-0.8-3.7-1.3c0,2.8,0,5.6,0,8.3c0,2.8,0,5.7,0,8.5c0,2.8,0,5.6,0,8.3c0,2.8,0,5.7,0,8.5 c0,2.8,0,5.6,0,8.3c0,2.8,0,5.7,0,8.5c0,2.8,0,5.6,0,8.3v8.4C275.9,400,261.9,409.9,257.8,411.6 M142.4,297.2 c0.3,0.2,0.4,0.3,0.6,0.4c21.7,7.3,43.4,14.5,65.3,21.9c1.7-4.8,3.2-9.6,4.8-14.3c1.6-4.7,3.2-9.4,4.8-14.3 c-7.2-2.5-14.4-4.8-21.5-7.2c-0.2-0.1-0.5,0-0.7-0.1c-0.9,1.9-4.3,12.2-4.5,13.7c2.5,0.8,4.9,1.8,7.5,2.5c0.9-1.9,1.2-4,2.2-5.9 c2.3,0.7,4.6,1.4,6.8,2.3c-0.4,2-3.9,12.3-4.6,13.7c-0.4-0.1-0.8-0.2-1.2-0.3c-6.3-2.1-12.7-4.3-19-6.4c-0.3-0.1-0.6-0.3-1-0.5 c0.1-0.5,0.2-0.9,0.4-1.3c1-3,2-6.1,3-9.1c4.1-12.2,8.2-24.4,12.3-36.6c0.2-0.5,0.2-1.1,0.7-1.4c3.4,0.9,19.8,6.5,21.1,7.2 c0,0.2,0,0.5-0.1,0.7c-1.2,3.6-2.4,7.2-3.6,10.8c-0.1,0.3-0.3,0.5-0.5,0.7c-2.3-0.8-4.5-1.4-6.7-2.3c0.4-2.1,1.4-3.9,1.7-5.9 c-2.1-1-6.4-2.4-7.6-2.4c-0.8,1.7-4.3,12.2-4.5,13.5c2.4,1.1,20.8,7.2,22.1,7.3c0.2-0.5,0.4-1.1,0.6-1.7 c1.9-5.7,3.9-11.4,5.8-17.2c0.1-0.3,0.3-0.6,0.5-1.1c5.6,1.9,11.2,3.7,16.7,5.6c0,0.4-0.1,0.7-0.1,1c0,0.5,0.3,0.8,0.7,0.9 c0.5,0.2,0.8,0,1.1-0.4c0.2-0.2,0.3-0.5,0.5-0.7c0.9,0.2,1.7,0.4,2.4,0.9c-0.1,0.5-0.3,1-0.4,1.5c-0.2,1.1,0.4,2.2,1.4,2.7 c1,0.5,1.9,0.2,2.7-0.5c0.3-0.3,0.6-0.7,0.9-1.1c0.2-0.3,0.4-0.6,0.6-1c0.8,0.3,1.5,0.6,2.3,0.8c0,0.3,0.1,0.6,0.1,0.9 c0,0.5,0.3,0.8,0.8,0.9c0.4,0.1,0.7-0.1,1-0.4c0.2-0.3,0.4-0.5,0.6-0.8c3.8,1.4,7.3,3.2,10.5,5.5c4,2.8,7.1,6.3,9.3,10.7 c2.5,5,4.5,10.3,5.6,15.8c0.1,0.3,0.1,0.6,0.1,0.9c-0.7,0.1-1.3,0.2-1.9,0.4c-1.2,0.4-2.1,1.1-2.3,2.5c-0.2,1.3,0.4,2.2,1.4,2.9 c0.6,0.4,1.3,0.6,1.8,1.3c-0.7,0.5-1.3,0.9-2,1.4c-3,2.3-3.7,6.6-1.6,9.8c2.4,3.7,6.9,3.9,9.6,2.5c3.1-1.6,4.6-5.1,3.6-8.5 c-0.2-0.6-0.4-1.3-0.6-2c0.7-0.2,1.4-0.3,2-0.4c0.8-0.2,1.4-0.6,1.9-1.3c0.9-1.3,0.7-2.9-0.5-4.1c-0.4-0.4-0.9-0.8-1.3-1.2 c0.3-0.4,0.5-0.7,0.8-0.9c5-5.4,11-9.2,17.9-11.7c3.4-1.2,6.9-2.1,10.6-2.4c0.6-0.1,1.2-0.3,1.7,0.1c0.1,0.6,0.1,1.2,0.3,1.8 c0.4,1.3,1.2,2.2,2.6,2.4c1,0.2,1.9-0.2,2.7-0.8c0.4-0.4,0.8-0.9,1.4-1.2c0.2,0.3,0.4,0.5,0.6,0.8c0.2,0.3,0.4,0.6,0.6,0.9 c2.1,2.6,4.9,3.3,7.8,2.6c3.1-0.8,5.2-3.6,5.3-6.8c0.1-3.3-1.9-6.2-5-7.2c-1.5-0.5-2.9-0.5-4.4-0.1c-0.6,0.2-1.2,0.7-1.9,0.4 c-0.1-0.6-0.2-1.2-0.4-1.8c-0.2-0.9-0.7-1.5-1.5-2c-1.3-0.8-2.6-0.6-3.8,0.4c-0.4,0.4-0.7,1-1.3,1.2c-1.5-1.1-2.8-2.4-4-3.8 c-2-2.2-3.9-4.4-5.9-6.6c-0.5-0.6-0.8-1.3-1-2.1c-1.6-6.4-3.3-12.7-5-19.1c-0.1-0.5-0.3-0.9-0.5-1.5c-0.8,0.4-1.7,0.3-2.4,0.9 c0.1,0.3,0.1,0.5,0.1,0.7c1.9,7.5,3.9,15,5.8,22.4c0.1,0.3,0.3,0.6-0.1,1c-0.9-1-1.6-2-2.5-2.9c-0.8-0.9-1.3-1.9-1.5-3 c-1.4-5.6-2.9-11.1-4.3-16.7c-0.1-0.3-0.2-0.6-0.4-1c-0.9,0.1-1.7,0.3-2.5,0.7c1.8,7,3.6,14,5.3,20.9c0,0.1,0,0.1,0,0.2 c0,0-0.1,0.1-0.2,0.1c-0.2-0.2-0.4-0.4-0.6-0.6c-0.6-0.7-1.2-1.4-1.8-2c-0.2-0.2-0.5-0.3-0.7-0.5c-0.7,1.6-1.2,3.1-1.7,4.7 c0.4,0.2,0.8,0.4,1.1,0.5c1.3,0.5,2.6,0.9,3.9,1.4c1.2,0.4,2.1,1.2,2.6,2.4c0.9,1.9,0.2,4.1-1.8,5.1c-1,0.5-2.1,0.7-3.2,0.3 c-1.4-0.5-2.7-0.9-4.1-1.4c-0.4-0.1-0.9-0.2-1.4-0.4c-0.5,1.5-1,3-1.6,4.4c-0.3,0.8-0.7,1.6-1.2,2.2c-1.1,1.2-2.4,1.8-4.1,1.3 s-2.5-1.7-2.7-3.3c-0.1-0.6,0-1.2,0.1-1.8c0.1-0.7,0.4-1.4,0.6-2.1c0.3-1.1,0.9-2.2,1.1-3.5c-0.2-0.1-0.4-0.2-0.7-0.3 c-1.3-0.5-2.6-1-3.9-1.4c-0.9-0.3-1.8-0.8-2.4-1.6c-1-1.2-1.3-2.6-0.7-4.1c0.6-1.4,1.7-2.1,3.2-2.3c0.4-0.1,0.8,0.1,1.3-0.3 c-0.5-0.8-1.1-1.4-1.7-2.1c-0.9-0.9-1.4-2-1.7-3.3c-0.5-2.1-1.1-4.2-1.6-6.3c-0.1-0.4-0.3-0.8-0.5-1.2c-0.9,0.1-1.7,0.3-2.5,0.7 c1,3.8,1.9,7.6,2.9,11.3c0,0.1,0,0.1,0,0.2c0,0-0.1,0-0.2,0.1c-1-1-1.9-2.1-2.8-3.2c-0.6-0.6-0.9-1.4-1.1-2.2 c-0.3-1.5-0.7-2.9-1.1-4.4c-0.1-0.4-0.3-0.7-0.5-1c-0.9,0-1.6,0.3-2.4,0.6c0.7,3.5,1.8,6.8,2.6,10.6c-0.7-0.7-1.1-1-1.4-1.4 c-0.9-1-1.9-1.9-2.5-3.1c-0.6-1-0.7-2.3-1-3.5c-0.2-0.6-0.4-1.2-0.6-1.8c-1-0.1-1.7,0.2-2.5,0.6c0.2,0.7,0.3,1.3,0.5,2 c0.5,1.9,1,3.9,1.5,5.8c0.1,0.3,0.3,0.6-0.2,1c-0.8-0.9-1.5-1.8-2.3-2.6c-1-1-1.5-2.1-1.8-3.5c-0.1-0.7-0.2-1.4-0.7-2 c-0.9,0.1-1.7,0.2-2.4,0.8c0.5,2.1,1.1,4.1,1.6,6.2c0.1,0.3,0.3,0.7-0.2,1c-0.7-0.8-1.4-1.7-2.2-2.4c-1-1-1.7-2-1.9-3.4 c0-0.2-0.2-0.4-0.3-0.8c-0.8,0.4-1.7,0.2-2.4,0.9c0.1,0.4,0.2,0.9,0.3,1.4c0.3,1.3,0.7,2.7,1,4c0.1,0.2,0.3,0.5-0.3,0.6 c-1.1-1.2-2.2-2.5-3.3-3.8c-0.2-0.2-0.3-0.5-0.4-0.8c-0.1-0.5-0.4-0.9-0.7-1.2c-0.3-0.3-0.2-0.7,0.2-0.9c0.2-0.1,0.4-0.2,0.7-0.3 c1-0.3,2-0.5,3-0.8c1.5-0.4,3-0.8,4.8-1.3c-1.5-0.5-2.6-0.9-3.7-1.3c-0.1-0.7,0.3-1.6-0.7-1.9c-1-0.3-1,0.8-1.6,1.1 c-0.4-0.1-0.8-0.2-1.2-0.4c-0.4-0.1-0.7-0.3-1.1-0.5c0.1-0.4,0.2-0.7,0.2-1c0.2-1.4-0.4-2.6-1.7-3c-1.2-0.4-2.4,0.1-3.1,1.2 c-0.2,0.3-0.4,0.7-0.6,1.1c-0.9-0.3-1.7-0.3-2.3-0.9c0-0.2,0-0.4,0.1-0.6c0.1-0.5,0-0.8-0.5-1c-0.5-0.2-0.8-0.2-1.3,0.3 c-0.2,0.2-0.3,0.5-0.5,0.6c-0.2,0-0.2,0-0.3,0c-29.8-10-59.6-19.9-89.3-29.9c-0.1,0-0.1,0-0.2,0c-0.1,0-0.1,0-0.3,0.1 c-0.7,1.7-1.3,3.6-1.9,5.5c-0.6,1.9-1.4,3.8-1.9,5.9c2.4,0.8,4.7,1.6,7.2,2.5c-0.8,2.3-1.5,4.6-2.2,6.8c-0.7,2.2-1.5,4.3-2.2,6.5 c-0.7,2.2-1.6,4.4-2.2,6.8c1.9,0.7,3.7,1.3,5.5,1.9c1.8,0.6,3.7,1.2,5.5,1.8c1.9,0.6,3.8,1.3,5.7,1.9c1.8,0.6,3.6,1.3,5.4,1.7 c0.9-2,4.1-11.7,4.3-13.1c-2.5-0.8-4.9-1.7-7.6-2.4c-0.3,0.9-0.6,1.8-0.9,2.6c-0.3,0.8-0.4,1.7-1,2.5c-2.5-0.5-5.8-1.7-6.8-2.5 c1.3-4,2.6-8,4.1-12c0.4,0.1,0.7,0.1,1,0.2c6.7,2.2,13.4,4.5,20.1,6.7c0.3,0.1,0.6,0.3,0.9,0.5c-0.1,0.4-0.2,0.7-0.3,1 c-2.5,7.4-4.9,14.8-7.4,22.2c-2.6,7.9-5.3,15.8-8,23.7c-0.1,0.4-0.4,0.8-0.5,1.2c-0.3-0.1-0.5-0.1-0.7-0.1 c-6.7-2.3-13.5-4.5-20.2-6.8c-0.3-0.1-0.6-0.3-0.9-0.5c0.9-3.4,3.9-11.9,4.5-13.2c1.4,0.2,5.5,1.5,6.8,2.3c-0.4,2-1.4,3.8-1.7,5.9 c2.5,0.9,5,1.8,7.6,2.5c1.6-4.3,2.9-8.5,4.3-12.8c0.1-0.3,0.1-0.6,0.2-0.9c-0.3-0.2-0.6-0.3-0.9-0.4c-6.7-2.3-13.5-4.5-20.2-6.8 c-0.3-0.1-0.7-0.3-1.2,0C148.7,278.3,145.6,287.7,142.4,297.2 M258.1,127.7c10.5,0.2,20.1-8.4,20.1-20.1 c0-10.6-8.4-20.1-20.2-20.1c-11.7,0-20,9.5-20,20.1C238,119.3,247.7,127.9,258.1,127.7 M311.9,128.4c6.7,0.2,13.5-5.3,13.6-13.3 c0.1-8-6.5-13.7-13.5-13.7c-6.8,0-13.6,5.3-13.6,13.6C298.5,123.4,305.6,128.6,311.9,128.4 M189.9,120.1 c-0.2,6.7,5.2,13.5,13.3,13.6c7.4,0.1,13.6-5.8,13.7-13.5c0-7.2-5.5-13.6-13.5-13.6C194.9,106.7,189.8,113.8,189.9,120.1 M202,307.6c1.1-3.3,2.2-6.4,3.2-9.5c0.1-0.2,0.1-0.5,0.1-0.7c-1.3-0.8-1.9-1-3.3-1.1c-0.6,1.8-1.3,3.7-2,5.7 c-2-0.4-3.9-1.2-5.7-1.8c-1.9-0.6-4-0.9-5.8-2c0.1-0.4,0.2-0.8,0.3-1.1c1.7-5.1,3.5-10.1,5.3-15.2c0.1-0.3,0.3-0.6,0.5-1 c3.3,1.1,6.5,2.2,9.7,3.2c3.3,1.1,6.5,2.2,9.9,3.2c0.2-1.2,0.2-2.3,0-3.5c-0.5-0.2-1-0.4-1.4-0.5c-5.3-1.8-10.6-3.6-15.9-5.4 c-0.4-0.1-0.8-0.3-1.2-0.5c0.7-2,1.3-3.9,1.9-5.7c0.7-1.9,1.3-3.9,2-5.8c0.6-1.9,1.1-3.8,2-5.6c3.5,0.9,10,3.2,11.2,3.9 c-0.3,2-1.4,3.8-1.7,5.9c1.1,0.4,2,0.8,3.2,0.9c0.9-2.9,2-5.6,2.8-8.5c-1.4-0.6-2.7-1.1-4-1.6c-4.2-1.4-8.3-2.8-12.5-4.2 c-0.3-0.1-0.7-0.1-1.1-0.2c-0.2,0.6-0.4,1.2-0.6,1.8c-2.2,6.8-4.6,13.6-6.7,20.4c-2.2,6.9-4.6,13.7-6.9,20.6 c-0.2,0.6-0.4,1.2-0.6,2C190.3,303.5,196,305.5,202,307.6 M314.8,248.4c0.7-0.5,1.4-0.9,2-1.5c2.3-2.1,3.2-4.7,2.3-7.7 c-0.9-3.1-3.1-4.9-6.3-5.2c-3-0.3-5.4,0.9-7,3.5c-1.2,1.9-1.3,4-0.6,6.1c0.2,0.5,0.6,1.1,0.4,1.8c-0.7,0-1.3,0-2,0 c-2.3,0.2-3.4,2.3-2.3,4.3c0.1,0.2,0.3,0.4,0.4,0.6c0.2,0.3,0.3,0.6,0.6,0.9c-0.8,0.7-1.5,1.3-2.3,1.9c-0.7,0.6-1.5,1-2.3,2 c2.3-0.6,4.4-1.1,6.4-1.7c2.1-0.6,4.2-1.1,6.3-1.7c2-0.5,4-0.9,6.2-1.7C315.9,249.6,315.4,249.1,314.8,248.4 M330.6,248.3 c0.1,0.6,0.2,1,0.3,1.4c1.8,7,3.6,13.9,5.4,20.9c1,3.9,2,7.7,3,11.6c0.1,0.4,0.3,0.9,0,1.5c-1-1.2-2-2.3-2.9-3.4 c-0.5-0.6-0.9-1.3-1.1-2.1c-0.4-1.8-0.9-3.5-1.3-5.3c-1.9-7.5-3.9-15-5.8-22.4c-0.1-0.5-0.2-1.1-0.7-1.5c-0.3,0.1-0.7,0.1-1,0.2 c-0.4,0.1-0.8,0.2-1.2,0.4c0.2,1.6,6.6,26.7,8.4,32.8c0.6,0.5,1.2,0.9,1.6,1.5c0.5,0.5,0.8,1.2,1.1,1.7c1.5,0.1,3,0,4.4,0.2 c1.4,0.2,2.7,1,4,1.8c0.3-1.2,0.4-2.2-0.5-3.1c-0.5-0.5-0.9-1.1-1.4-1.6c-0.7-0.7-1-1.5-1.2-2.4c-0.9-3.4-1.7-6.8-2.6-10.2 c-1.8-7-3.6-14-5.5-21c-0.1-0.5-0.2-1.1-0.7-1.5C332.2,247.9,331.5,248.1,330.6,248.3 M295.6,281.9c-0.2,0.5-0.3,1-0.4,1.4 c-0.5,1.6-1.1,3.2-1.7,4.8c-0.2,0.6-0.3,1.2-0.3,1.8c0,0.9,0.4,1.6,1.2,1.9c0.9,0.3,1.7,0.1,2.3-0.6c0.4-0.5,0.7-1.1,0.9-1.7 c0.6-1.6,1.2-3.3,1.8-4.9c0.1-0.3,0.3-0.6,0.5-1.1c1.1,0.3,2,0.5,3,0.8c1.2,0.4,2.4,0.9,3.6,1.2c0.5,0.2,1.1,0.2,1.6,0.2 c1.6-0.2,2.1-1.8,1.2-3c-0.4-0.5-1-0.8-1.6-1.1c-1.6-0.6-3.3-1.2-4.9-1.8c-0.4-0.2-0.9-0.4-1.3-0.6c0-1.4,0-2.7,0-4.1 c0-0.4,0-0.8-0.2-1c-0.5-0.7-1-1.5-1.9-1.9c-0.9,1.8-1.2,3.7-2.2,5.4c-0.3-0.1-0.5-0.2-0.8-0.3c-1.6-0.6-3.3-1.2-4.9-1.7 c-0.5-0.2-0.9-0.3-1.4-0.5c-1.2-0.3-2.4,0.3-2.7,1.2c-0.4,0.9,0.1,2,1.1,2.6c0.4,0.3,0.9,0.4,1.3,0.6c1.5,0.6,3.1,1.1,4.6,1.6 C294.7,281.5,295.1,281.7,295.6,281.9 M286.7,255.2c-1.2-0.5-2.2-1.2-3.3-1.9c-0.7-0.4-1.1-0.9-1.4-1.6c-0.6-1.3-1.3-2.6-1.9-3.9 c-0.2-0.3-0.4-0.6-0.6-0.9c-0.8,0.4-1.5,0.9-2.2,1.5c0.2,0.4,0.4,0.9,0.6,1.3c1.1,2.3,2.3,4.7,3.4,7c0.1,0.2,0.4,0.5,0,0.8 c-0.5-0.1-0.9-0.8-1.7-0.6c-0.1,1-0.1,2,0.1,3.1c0.4,0,0.7,0,1.1-0.1c3.1-0.8,6.2-1.6,9.2-2.5c0.5-0.1,0.9-0.3,1.4-0.5 c2-1.2,4-2.5,5.8-4c-0.4-0.6-1-0.9-1.6-1.2c-1-0.6-1.6-1.3-2.1-2.4c-0.9-2-1.9-3.9-2.8-5.9c-0.5-1-1-1.9-1.5-2.9 c-0.9,0.3-1.6,0.9-2.3,1.5c0.3,0.6,0.6,1.2,0.9,1.8c0.3,0.6,0.6,1.2,0.9,1.8s0.6,1.2,0.9,1.8c0.3,0.5,0.5,1.1,0.8,1.6 c0.3,0.6,0.6,1.2,0.9,1.8c0.3,0.6,0.6,1.2,0.9,1.8c0.2,0.6,0.7,1.1,0.7,1.8c-0.1,0-0.2,0.1-0.2,0c-1.1-0.7-2.1-1.4-3.2-2 c-0.6-0.4-1.1-0.9-1.4-1.6c-0.9-1.9-1.8-3.7-2.7-5.5c-0.3-0.5-0.6-1-0.9-1.6c-0.4,0.3-0.8,0.5-1.1,0.7c-0.4,0.3-0.7,0.6-1.1,0.9 c0.8,1.7,1.7,3.3,2.4,5C285.3,251.8,286.2,253.4,286.7,255.2 M323.5,201.3c-0.2,1.5-0.3,10.8-0.2,14.2c0,0.2,0.1,0.4,0.1,0.6 c0.2,0,0.2,0.1,0.3,0.1c5.8-3.4,11.5-6.7,17.3-10.1c0.1-0.1,0.3-0.2,0.4-0.3C339.6,204.8,326.9,201.7,323.5,201.3 M366.1,196.3 c0.5,1.1,1,2,1.4,2.9c5.8,11.9,11.6,23.8,17.5,35.8c1.1,2.2,2.2,4.4,3.3,6.6c0.3,0.7,0.4,0.7,1.5,0.4c0-0.6,0-1.3,0.1-1.9 c0.1-1-0.2-1.9-0.6-2.8c-6.6-13.5-13.3-27.1-19.9-40.6c-0.2-0.4-0.5-0.8-0.8-1.3C367.8,195.5,367,195.7,366.1,196.3 M385.1,241.6 c-7.2-14.7-14.3-29.3-21.4-43.8c-0.1-0.2-0.3-0.4-0.5-0.7c-0.8,0.3-1.6,0.6-2.5,1c0.3,0.7,0.6,1.3,0.9,1.9c2,4.1,4.1,8.2,6.1,12.3 c4.5,9.1,8.9,18.2,13.3,27.3c1.1,2.3,1.1,2.3,3.7,2.2C384.8,241.8,384.8,241.7,385.1,241.6 M352.4,244.4 c4.2,16.1,8.4,32.1,12.6,48c0,0.1,0.2,0.1,0.3,0.3c0.3-1.1,0.5-2.2,0.8-3.3c0.3-1.2,0.2-2.4-0.1-3.5c-1.7-6.4-3.3-12.7-5-19.1 c-1.8-7-3.6-14-5.5-21c-0.1-0.6-0.4-1.1-0.5-1.7C354.2,243.9,353.4,243.9,352.4,244.4 M355.6,200.3c0.6,1.7,19.3,39.9,20.1,41.1 c0.4,0,0.9,0.1,1.4,0.1c0.4,0,0.9,0.1,1.4-0.2c-0.3-0.5-0.5-1-0.7-1.4c-1.5-3-3-6.1-4.4-9.1c-4.9-10.1-9.9-20.1-14.8-30.2 c-0.2-0.4-0.5-0.8-0.7-1.3C357.1,199.6,356.4,199.9,355.6,200.3 M372.2,241.4c-0.3-0.6-0.4-1.1-0.7-1.6c-1.8-3.6-3.6-7.2-5.3-10.9 c-4.1-8.4-8.2-16.9-12.4-25.3c-0.3-0.7-0.5-1.5-1.2-2c-0.6,0.3-1.2,0.6-1.8,0.9c-0.2,0.1-0.3,0.2-0.5,0.4 c6.3,12.9,12.6,25.7,18.9,38.5L372.2,241.4L372.2,241.4z M358.9,290c0.3-1.4,0.6-2.8,0.9-4.2c0.1-0.6,0.1-1.2,0-1.8 c-0.8-2.9-1.5-5.8-2.3-8.8c-2.5-9.8-5.1-19.6-7.6-29.4c-0.1-0.4-0.3-0.7-0.4-1.1c-1.5,0-1.5,0-2.5,0.6 C350.8,260.2,354.7,275.1,358.9,290 M365.7,241.4c-0.5-1.5-17.4-36.1-18.2-37.2c-1.4,0.5-1.4,0.5-2.3,1.3 c5.9,12.1,11.8,24.2,17.8,36.3C364,241.8,364.9,241.8,365.7,241.4 M352,287.1c0.1,0,0.2,0,0.3,0c0.4-1.6,0.7-3.3,1.1-4.9 c-0.3-1.3-0.6-2.6-0.9-3.9c0-0.2-0.1-0.4-0.1-0.5c-2.6-10.2-5.3-20.4-7.9-30.6c-0.1-0.5-0.2-1.1-0.7-1.5c-0.3,0-0.7,0.1-1.1,0.1 c-0.4,0.1-0.8,0.2-1.2,0.3c0,0.3,0,0.6,0.1,0.8C345.1,260.3,348.6,273.7,352,287.1 M342.4,206.7c-0.8,0.4-1.5,0.7-2.2,1.2 c0.4,1.3,15.8,32.7,16.8,34.2c0.8,0,1.7,0.1,2.6-0.3c0-0.3,0-0.5-0.1-0.6c-5.6-11.4-11.1-22.8-16.7-34.2 C342.7,207,342.6,206.9,342.4,206.7 M333.1,282.1c-1.1-1.3-1.9-2.3-2.8-3.2c-0.6-0.6-0.9-1.4-1.2-2.2c-2.1-8.3-4.3-16.6-6.4-24.9 c-0.1-0.5-0.3-1-0.5-1.5c-0.9,0.2-1.7,0.2-2.4,0.8c0,0.3,0.1,0.5,0.1,0.8c1.5,5.7,2.9,11.3,4.4,17c0.9,3.3,1.7,6.6,2.6,10 c0.1,0.4,0.3,0.9,0.1,1.3c-0.2,0-0.3,0-0.3,0c-0.9-0.9-1.7-1.9-2.5-2.8c-0.2-0.2-0.3-0.5-0.7-0.3c-0.4,1.2,0,2.1,0.8,3 c0.8,0.9,1.6,1.8,2.5,2.6c0.3,0.3,0.6,0.5,1,0.8C329.2,282.2,330.9,281.9,333.1,282.1 M336.2,247.1c-0.1,0.3-0.1,0.4-0.1,0.5 c3.2,12.4,6.4,24.7,9.6,37.1c0.1,0.3,0.2,0.7,0.5,1.3c0.3-1.5,0.6-2.7,0.9-3.9c0.3-1.1,0.3-2.2-0.1-3.4c-2.7-10.3-5.3-20.5-8-30.8 c-0.1-0.5-0.3-0.9-0.5-1.4C337.6,246.8,336.9,246.9,336.2,247.1 M352.8,242.8c0.4-1.1,0.1-2-0.3-2.9c-4.8-9.9-9.6-19.7-14.5-29.6 c-0.1-0.3-0.4-0.6-0.7-1c-0.7,0.6-1.6,0.7-2.2,1.6c5.1,10.5,10.3,21,15.4,31.5c0.1,0.2,0.3,0.4,0.5,0.6 C351.7,243,352.3,242.9,352.8,242.8 M346.9,243.5c0.2-1.1,0.1-2.1-0.5-3.1c-0.6-1.1-1.1-2.2-1.6-3.2c-3.8-7.9-7.7-15.7-11.5-23.6 c-0.2-0.4-0.5-0.8-0.8-1.3c-0.8,0.5-1.5,0.9-2.2,1.3c0.9,2.2,14.1,29.2,14.9,30.3C345.8,244,346.4,244,346.9,243.5 M342,244.6 c-0.3-0.6-0.4-1.1-0.7-1.5c-1.2-2.6-2.5-5.1-3.7-7.7c-3-6.2-6-12.4-9.1-18.5c-0.3-0.5-0.4-1.2-1-1.5c-0.7,0.4-1.5,0.7-2,1.4 c0.1,0.2,0.1,0.4,0.2,0.6c4.5,9.2,9,18.3,13.5,27.5c0,0.1,0.1,0.1,0.1,0.1c0,0,0.1,0.1,0.3,0.2C340.2,245,341,244.8,342,244.6 M170.5,292.3c-0.6-0.2-1-0.4-1.5-0.5c-2.9-1-5.7-1.9-8.6-2.9c-0.3-0.1-0.6-0.3-1-0.5c0.6-2,1.3-3.8,1.9-5.8 c-1.1-0.6-2.1-0.9-3.2-1.1c-0.7,1.4-3.1,8.3-3.3,9.8c2,1,14.3,5,15.6,5.1C170.6,295.1,170.6,293.8,170.5,292.3 M336.7,245.5 c-1.1-0.7-1.4-1.7-1.9-2.7c-3.7-7.6-7.5-15.3-11.2-22.9c-0.3-0.5-0.4-1.1-1-1.5c-0.3,0.2-0.7,0.4-1.1,0.6 c-0.3,0.2-0.7,0.5-1.1,0.8c4.3,8.8,8.6,17.6,12.9,26.4C334.6,246.3,335.6,245.8,336.7,245.5 M331.5,246.8 c-0.2-0.3-0.3-0.5-0.4-0.5c-1.2-0.6-1.8-1.6-2.3-2.7c-0.1-0.3-0.3-0.7-0.5-1c-3.3-6.7-6.5-13.3-9.8-20c-0.2-0.4-0.3-1-1-1.1 c-0.6,0.4-1.2,0.8-1.9,1.3c0.1,0.4,0.2,0.6,0.3,0.9c3.7,7.7,7.5,15.4,11.3,23.1c0.1,0.3,0.4,0.6,0.6,0.9 C329.1,247.3,330.3,247,331.5,246.8 M321.3,278.3c0.5-1.2,0.6-2.5,0.9-3.8c0.2-0.8,0.1-1.5-0.1-2.3c-1.7-6.5-3.4-12.9-5-19.4 c-0.1-0.4-0.3-0.7-0.5-1.2c-0.8,0.3-1.6,0.3-2.2,0.8c0.1,1,6,24.2,6.6,25.7C321,278.1,321.2,278.2,321.3,278.3 M298.3,256.5 c0.1,1.7,2.6,11.4,4.5,18.3c0.1,0.3,0.2,0.5,0.5,1.1c0.4-1.7,0.6-3.1,1-4.5c0.2-0.7,0.1-1.3,0-1.9c-0.8-3.1-1.6-6.3-2.4-9.4 c-0.3-1.3-0.7-2.7-1-4C299.8,255.8,299,256.3,298.3,256.5 M290,258.8c-1,0.1-1.8,0.3-2.6,0.7c0.6,2.4,1.2,4.7,1.8,7 c0.6,2.4,1.1,4.8,1.9,7c1.4,0.5,2.6,0.9,3.9,1.3c0.2,0.1,0.5,0.2,0.7,0.2c0.2,0,0.4-0.1,0.5-0.2c0.1-0.1,0.1-0.4,0.1-0.5 c-0.1-0.3-0.3-0.5-0.5-0.7c-0.9-1.1-2-2-2.6-3.2c-0.6-1.3-0.8-2.8-1.2-4.2c0-0.2-0.1-0.4-0.1-0.5 C291.2,263.5,290.6,261.3,290,258.8 M297,274.4c0.8-1.6,1.1-3.3,1.4-4.9c0.1-0.4-0.1-0.8-0.2-1.2c-0.8-3.2-1.6-6.4-2.5-9.6 c-0.1-0.4-0.3-0.8-0.4-1.1c-0.9-0.2-1.6,0.3-2.4,0.4c0,0.3-0.1,0.6,0,0.8C294.3,263.9,295.6,269.2,297,274.4 M291.6,238.7 c2.1,4.3,4.2,8.5,6.2,12.7c0.1,0.2,0.3,0.4,0.5,0.7c0.5-0.4,0.8-0.7,1.1-0.9c-0.2-1.2-0.5-2.2-0.6-3.2c-0.1-0.7-0.2-1.3-0.5-1.9 c-1.3-2.6-2.6-5.3-3.9-8c-0.1-0.3-0.4-0.6-0.6-0.9C293.1,237.7,292.4,238.1,291.6,238.7 M303.1,243.5c-0.1-0.5-0.2-1-0.3-1.3 c-1.2-2.6-2.5-5.1-3.7-7.6c-0.1-0.1-0.2-0.2-0.4-0.4c-0.8,0.3-1.4,0.8-2,1.4c0.5,1.6,3.5,7.6,4.3,8.8 C301.5,244,302.2,243.8,303.1,243.5 M310.8,225.9c1,2.1,2,4,2.9,5.9c0.1,0.2,0.3,0.4,0.5,0.5c1,0.4,2.1,0.8,3.3,1.2 c-0.6-1.7-1.4-3.1-2.2-4.6c-0.7-1.5-1.4-3-2.3-4.5C312.3,224.9,311.7,225.4,310.8,225.9 M169.9,256.5c0.5-0.6,0.6-1.2,0.6-1.7 c0-2.4,0-4.8,0-7.2c0-0.2-0.1-0.4-0.1-0.5c0-0.1-0.2-0.2-0.3-0.2c-0.2,0-0.4,0-0.5,0.1c-0.2,0.2-0.3,0.5-0.4,0.8 c-0.7,2-1.4,4.1-2.1,6.1c-0.1,0.5-0.3,0.9-0.4,1.5C167.8,255.8,168.8,256.1,169.9,256.5 M272.7,251.5c0,0.2,0,0.3,0,0.4 c1.1,2.2,2.2,4.4,3.2,6.6c0.1,0.1,0.3,0.1,0.5,0.3c0-1.3,0-2.4,0.1-3.5c0.2-2-0.9-3.5-1.8-5.3C274,250.5,273.2,250.9,272.7,251.5 M270.8,260.7c0.1-0.5,0.3-0.8,0.3-1c0.1-1,0-1.9,0.1-2.9c0.1-1.3-0.3-2.4-1.2-3.6c-0.7,0.5-1.4,0.9-2.2,1.5 C268.7,256.7,269.5,258.6,270.8,260.7 M303.5,230.8c-0.9,0.5-1.6,0.9-2.2,1.6c0.8,1.6,1.5,3.1,2.4,4.7c0.7-0.9,1.2-1.7,1.7-2.4 C304.8,233.4,304.3,232.1,303.5,230.8 M308.3,227.6c-0.8,0.5-1.6,0.8-2.2,1.6c0.6,1.2,1.2,2.4,1.8,3.6c0.9-0.3,1.6-0.5,2.5-0.8 C309.9,230.5,309.1,229.1,308.3,227.6 M262.9,257.9c0.5,1.1,1,2.1,1.4,3c0.2,0.5,0.7,0.7,1.2,0.4c0.4-2.4,0.3-3.6-0.4-4.8 C264.4,256.7,263.7,257.3,262.9,257.9 M279.8,306.2c0.6-0.3,1.3-0.3,1.7-1.1c-0.4-1.5-0.9-3.2-1.4-4.8c0-0.2-0.3-0.3-0.5-0.5 c0,2.1,0,3.9,0,5.8C279.6,305.9,279.7,306,279.8,306.2 M322.3,248.4c0-1.6,0-3.2,0-4.8c0-0.6-0.3-1.1-0.7-1.6c0,0-0.2,0-0.2,0 c-0.3,1-0.5,1.9-0.7,2.8c-0.1,0.3-0.2,0.7-0.1,1C321,246.7,321.4,247.6,322.3,248.4 M326.6,247.9c-1.2-0.8-2.1-1.5-3.2-2.1 c-0.2,1-0.2,1.9,0.1,2.8C324.4,248.4,325.4,248.2,326.6,247.9"/><g><g><defs><rect id="SVGID_1_" x="70.4" y="71.8" width="437.1" height="367.4"/></defs><clipPath id="SVGID_2_"><use xlink:href="#SVGID_1_" style="overflow:visible;"/></clipPath><path class="st3" d="M214.3,178.3c0,0.2-0.1,0.4-0.1,0.5c0,6.2,0,12.5,0.1,18.7c-1.2,0.1-2.5,0.2-3.7,0.4 c-3,0.4-5.9,0.9-8.9,1.4c-3.1,0.6-6.1,1.2-9.2,1.8c-0.1-0.7-0.2-1.3-0.2-2c0-5.1,0-10.1,0-15.2c0-0.7,0.1-1.3-0.2-2 c-0.4,0-0.7,0-1.1,0.1c-6.5,1.3-12.9,2.8-19.3,4.6c-0.3,0.1-0.7,0.3-1,0.4c-0.1-0.5-0.2-1.1-0.2-1.6c0-5.4,0-10.9,0-16.3 c0-0.5,0.1-0.9,0.1-1.5c2.4-0.8,4.8-1.3,7.2-1.9c2.4-0.6,4.8-1.1,7.2-1.6c2.4-0.6,4.8-1,7.3-1.5c0.3,1.7,0.1,3.3,0.2,4.8 c0,1.6,0,3.1,0,4.7c0,1.5,0,3,0,4.5c0,1.6,0,3.1,0,4.8c0.3,0,0.6,0.1,0.8,0.1c3.1-0.5,6.2-1.1,9.2-1.6c2.9-0.5,5.8-0.8,8.8-1.2 C212.3,178.6,213.3,178.5,214.3,178.3"/></g><g><path class="st2" d="M257.8,175.8c0,6.3,0,12.6,0,18.9c-3.6,0.1-7.2,0.1-10.8,0.2c-0.6,0-1.2,0.1-1.8,0.1 c-3.1,0.2-6.1,0.3-9.2,0.5c0-6.2-0.1-12.4-0.1-18.6c0,0-0.1-0.1-0.2-0.2c-0.6-0.1-1.3-0.1-2,0c-3.4,0.2-6.7,0.5-10.1,0.8 c-3.1,0.3-6.2,0.7-9.3,1c0-0.5-0.1-1-0.1-1.4c0-5.3,0-10.6,0-15.9c0-0.5,0-1,0.1-1.4c0.1-0.1,0.1-0.2,0.2-0.2 c0,0,0.1-0.1,0.1-0.1c0.2-0.1,0.5-0.1,0.7-0.1c6.7-0.7,13.4-1.3,20.2-1.7c0.1,0,0.2,0.1,0.4,0.2c0.2,2,0.1,4,0.1,6 c0,2,0,4.1,0,6.2c0,2,0,4.1,0,6.2c0.4,0,0.8,0.1,1.1,0.1c1.8-0.1,3.6-0.2,5.4-0.2c0.7,0,1.4-0.1,2.2-0.1 c4.1-0.1,8.2-0.1,12.3-0.2C257.3,175.7,257.6,175.8,257.8,175.8"/></g></g></g></g><g id="Ebene_2"><circle class="st4" cx="256.6" cy="255.5" r="183.5"/></g></svg> 