<?xml version="1.0" encoding="utf-8"?>
<!-- Generator: Adobe Illustrator 22.0.0, SVG Export Plug-In . SVG Version: 6.00 Build 0)  -->
<svg version="1.1" id="Layer_1" xmlns="http://www.w3.org/2000/svg" xmlns:xlink="http://www.w3.org/1999/xlink" x="0px" y="0px"
	 viewBox="0 0 512 512" style="enable-background:new 0 0 512 512;" xml:space="preserve">
<style type="text/css">
	.st0{fill:#F3F2F2;}
	.st1{fill:#941B1E;}
	.st2{fill:#E52729;}
	.st3{fill:#FFFEFE;}
</style>
<g id="Layer_1_1_">
	<g>
		<path class="st0" d="M379.7,360.3c1.3,0,2.1,0.1,2.9,0c12.2-1.4,22.6,2.7,32,10.2c9.9,8.1,17,18.3,23,29.4
			c6.4,11.8,11.4,24.2,15.4,36.9c5.5,17.1,9.9,34.5,12.7,52.2c1,6,2,12,2.9,18c0.5,3.1,0.1,3.5-3,2.4c-15.5-5-30.6-10.9-45.4-17.7
			c-13.9-6.4-27.4-13.6-40.2-21.9c-10.6-6.9-20.4-14.9-28.9-24.3c-7.7-8.5-13.4-18.2-15.4-29.7c-1.4-8.2-0.1-16.2,3.3-23.9
			c0.6-1.3,1.3-2.7,2-4c-0.2-0.2-0.3-0.3-0.4-0.5c-2.2,1.4-4.4,2.8-6.5,4.4c-7.8,5.5-15.6,11-23.5,16.5
			c-15.9,11.2-31.9,22.3-47.8,33.4c-1.7,1.2-3.5,2.2-5,3.6c-1.5,1.3-2.7,1-4.3-0.1c-17.2-12.1-34.4-24.1-51.7-36.2
			c-9.9-7-19.8-13.9-29.8-20.8c-0.4-0.3-0.9-0.7-1.7-0.4c0.9,2.8,2.6,5.3,3.5,8.1c4.4,13.1,2.1,25.4-4.6,37
			c-7.4,12.8-18.1,22.3-29.8,31c-14.3,10.7-30.1,19.2-46.2,26.8c-15.6,7.4-31.7,13.5-48.2,18.9c-2.4,0.8-2.9,0.5-2.5-2.2
			c1.5-10.3,2.9-20.5,5.1-30.6c3.1-14.8,7-29.5,11.8-43.8c3.3-9.8,7.1-19.4,11.7-28.6c5.8-11.4,12.5-22.3,22.1-31.1
			c7.9-7.2,16.6-12.2,27.5-13.2c3.5-0.3,6.8,0.3,10.6,0.1c-1.1-1.8-2.6-2.7-3.9-3.5c-5.8-3.2-8-8.7-9.5-14.7
			c-3.6-14.3-6.2-28.9-8.5-43.5c-1.7-10.8-3.7-21.5-5.3-32.3c-1.6-10.7-3.1-21.5-4.6-32.2c-1.5-10.3-3-20.5-4.4-30.7
			c-1-7.5-1.7-15.2-2.6-22.7c-0.9-7.4-1.6-14.9-2-22.3c-0.3-6.6,2.8-10.8,8.4-13.5c6.6-3.2,13.8-5.1,20.7-7.5c1.5-0.5,3.1-1,4.7-1.5
			c1.7-0.6,2-1.5,0.8-2.9c-6.4-7.4-12.9-14.8-19.2-22.2c-1.9-2.2-3.8-4.6-5.8-6.7c-1.4-1.5-0.9-3-0.2-4.6c1.8-3.9,3.6-7.8,5.4-11.7
			c2.1-4.5,4.1-9,6.2-13.5c1.3-2.8,1.4-2.8,3.5-0.4c3.3,3.7,6.5,7.5,9.7,11.3c4.3,5,8.5,10,12.8,15.1c5.2,6.1,10.3,12.2,15.4,18.3
			c1.2,1.4,2,1.9,3.5,0.3c4.4-4.6,8.3-9.5,9.4-15.9c0.8-4.7,0.4-9.4-0.4-14c-0.7-4.4-2-8.7-1.8-13.2c0.3-6.8,2.9-12,9.3-15.1
			c6.3-3.1,13.1-5.1,19.8-7c0.6-0.2,1.2-0.4,2.2-0.6c-8.5-3.6-14.7-9.5-20.5-15.7c-7.6-8-14.7-16.5-21.3-25.4
			c-1.3-1.8-2.7-3.5-4-5.3c-0.3-0.4-0.9-0.7-0.6-1.2c0.2-0.6,0.9-0.4,1.3-0.4c9.3,0,18.6,0,27.9,1.3c12.4,1.8,24.3,5.3,35.4,11
			c7.8,4,14.9,8.8,20.9,15.1c1.5,1.5,2.4,2.1,4.4,0.3c9.7-8.6,24.9-8.9,34.4-0.9c1.6,1.3,2.6,1.2,4-0.3
			c11.6-11.8,25.8-19.2,41.7-23.8c8.6-2.4,17.3-3.8,26.2-4.5c4.9-0.4,9.9,0.3,14.8-0.8c0.6-0.2,1.6-0.4,2,0.4
			c0.3,0.7-0.4,1.3-0.9,1.9c-5.7,7.8-11.3,15.6-17.6,22.9c-6,7-12,14-19.5,19.6c-2.1,1.6-4.4,2.9-6.9,3.8c-0.6,0.2-1.4,0.3-1.4,1.2
			c0,1,0.9,0.7,1.5,0.9c7.5,2.1,15.1,4.1,22.1,7.8c5.7,2.9,8,7.8,8.5,13.8c0.4,5.7-1.4,11.2-2.2,16.8c-1.1,8.6-0.1,16.4,6,23.2
			c1.3,1.5,2.7,2.9,4,4.4c1,1.2,1.8,0.9,2.6-0.2c3.7-4.4,7.4-8.8,11.2-13.2c4.3-5,8.5-10.1,12.7-15.1c4.5-5.3,9-10.5,13.4-15.8
			c2.9-3.5,3.1-3.6,5,0.4c3.8,8.1,7.5,16.4,11.3,24.6c0.8,1.8,0.6,3.1-0.7,4.7c-5.7,6.5-11.2,13.1-16.8,19.7c-2.4,2.9-5,5.7-7.5,8.6
			c-1.6,1.8-1.4,2.5,0.9,3.3c7.7,2.7,15.4,4.9,22.9,8c3,1.2,5.7,2.9,7.9,5.4c1.9,2.3,2.7,4.8,2.7,7.8c-0.1,8-1,15.9-2,23.9
			c-1.1,8.6-2,17.1-3.1,25.7c-1.2,9-2.6,18-3.8,27.1c-1.1,7.4-2,14.8-3.1,22.2c-1.2,7.9-2.4,15.7-3.7,23.6
			c-1.4,8.6-2.8,17.2-4.3,25.8c-2.4,13.7-4.8,27.4-8.6,40.8c-1.6,5.6-5.3,8.9-9.7,12c-0.7,0.5-1.3,1-2,1.5
			C380.3,359.4,380.2,359.6,379.7,360.3z M255.7,33.6c-7.9,0.4-13.5,4.3-17.3,11.3c-8.8-10.7-19.6-18.4-32.4-23.6
			c-12.6-5-25.7-7.2-39.8-7.3c8.1,10.3,16.2,20,25.6,28.3c4.2,3.7,9,6,14.5,7.1c9.2,1.9,18.7,2.7,28.1,3.2c1.8,0.1,2.2,0.5,2.3,2.3
			c0.5,9.7,9.3,17.8,18.9,17.7c10.5,0.6,19.5-7.4,20.1-18.2c0.1-1.9,0.7-2.3,2.4-2.4c6.5-0.4,13-1.2,19.5-2.2
			c8.6-1.3,16.7-3.5,22.9-10.1c2.5-2.7,5.1-5.2,7.5-7.9c5.6-6.1,10.8-12.6,16-19.7c-28,1.3-52.4,9.5-70.8,31.4
			C269.1,36.9,263.4,33.5,255.7,33.6z M152.4,130.3c-12.4-14.7-24.8-29.3-37.4-44.2c-1.8,3.8-3.2,7.1-4.8,10.4
			c-0.8,1.6-0.5,2.6,0.6,3.9c10.3,11.9,20.5,23.9,30.7,35.8c-2,1.4-4.3,2.1-6.5,3c-9.5,4-19.6,6.6-29.1,10.4
			c-6.7,2.7-7.2,3.5-6.5,10.6c2,21.6,4.9,43,8,64.5c4,28.4,8.2,56.8,13.3,84.9c1.9,10.6,3.8,21.2,6.7,31.5c0.7,2.3,1.9,4.1,3.9,5.5
			c7.7,5.5,15.3,11,22.9,16.5c-2.3,2.8-4.8,5.5-7,8.3c-1.2,1.5-2.1,1.8-3.8,0.8c-5.4-3-11.2-4.9-17.4-5.2
			c-11.9-0.5-21.2,4.9-29.1,13.1c-9.6,9.8-15.9,21.6-21.4,34c-9,20.6-14.9,42.1-19.5,64c-1.2,5.6-2.1,11.2-3.2,17
			c0.7-0.2,1.2-0.3,1.5-0.4c26.6-9.8,52.2-21.5,75.6-37.6c10.9-7.5,21-15.9,28.6-26.9c6.6-9.6,9.9-19.9,6.7-31.6
			c-1.8-6.5-5.3-12.1-9.8-17.1c-1-1.1-1-1.6,0-2.8c2.7-3,5.3-6.2,7.9-9.2c0.5,0.3,1,0.5,1.5,0.9c26.6,18.5,53.1,37.1,79.7,55.7
			c3.5,2.4,6.9,5.2,10.7,7.2c0.7,0.3,1-0.4,1.4-0.7c20.5-14.3,41.1-28.6,61.6-42.9c9.6-6.7,19.2-13.4,28.9-20.1
			c2.4,2.8,4.7,5.8,7.3,8.5c1.6,1.7,1.4,2.7-0.1,4.4c-12.9,15.1-13.7,31-2.6,47.5c6.9,10.2,16,18,25.8,25.1
			c18.5,13.3,38.7,23.4,59.6,32.2c6.6,2.8,13.2,5.5,20.1,7.8c0.3-1.1,0.1-2-0.1-2.8c-1.1-5.6-2-11.2-3.2-16.8
			c-4.7-21.7-10.6-43-19.8-63.2c-5.5-12.3-12.1-24-21.8-33.5c-7.7-7.5-16.6-12.3-27.7-11.7c-6.5,0.3-12.4,2.4-18.1,5.5
			c-0.8,0.4-1.5,1.1-2.3-0.1c-2.5-3.3-5.5-6.1-7.8-9.6c6.5-4.7,12.9-9.6,19.7-13.9c4.8-3.1,7.2-7.2,8.5-12.6
			c6.3-28.1,10.5-56.5,14.8-84.9c3-19.7,5.6-39.4,8.2-59.2c1.5-11.5,2.9-23,3.8-34.5c0.3-3.8-1.1-5.8-4.4-7.2
			c-5.4-2.3-11-4-16.5-5.9c-7.2-2.6-14.6-4.8-21.4-8.4c10.3-12,20.5-24,30.8-36c0.6-0.7,1.7-1.2,1.1-2.5c-1.8-3.8-3.5-7.5-5.3-11.6
			c-12.7,14.9-25.1,29.5-37.5,44.1c-3.2-1.5-6-3.8-8.6-6.2c-10.1-9.1-15.7-20.1-13.7-34.1c0.7-4.7,1.6-9.5,2.2-14.2
			c0.7-5.4-0.7-8-5.6-10.3c-4.4-2.1-9.1-3.6-13.8-4.5c-11.1-2.3-21.9-6.5-33.5-4.4c-1.5,0.3-2.1,0.7-2.5,2.3
			c-1.1,4.8-3.5,8.9-6.9,12.4c-5.6,5.7-12.5,8-20.4,8.2c-0.6-0.4-1.4-0.3-2.2-0.4c-9.7-1.6-17.8-5.8-21-15.5c-1.7-5.2-4-6.9-9.1-6.7
			c-4.1,0.2-8.2-1.1-12.3-0.1c-3,0.8-6.2,1.2-9.2,1.9c-7.9,1.8-15.8,3.6-23.3,6.7c-4.3,1.8-6,4.8-5.7,9.4c0.3,4.3,1.2,8.3,2,12.5
			C178.3,107.5,166.3,122.2,152.4,130.3z"/>
		<path class="st1" d="M368.9,136.3c6.8,3.6,14.1,5.9,21.4,8.4c5.5,1.9,11.2,3.6,16.5,5.9c3.3,1.4,4.7,3.5,4.4,7.2
			c-1,11.5-2.3,23.1-3.8,34.5c-2.6,19.7-5.3,39.5-8.2,59.2c-4.3,28.4-8.5,56.9-14.8,84.9c-1.2,5.5-3.6,9.6-8.5,12.6
			c-6.7,4.3-13.1,9.2-19.7,13.9c-3.1,2.3-6.2,4.5-9.3,6.8c-9.6,6.7-19.2,13.4-28.9,20.1c-20.5,14.3-41,28.6-61.6,42.9
			c-0.4,0.3-0.7,1-1.4,0.7c0-1.3,0.1-2.7,0.1-4c0-26.4,0-52.8,0.1-79.2c0.6,0.1,1.2,0.2,1.7,0.3c8.9,2.3,18,3,27.1,1.6
			c36.5-5.6,60.5-26.9,75.1-60.1c0.6-1.3,0.3-1.6-1.1-2c-9-2.1-17.8-4.9-26.6-7.8c-2.3-0.7-3.1-0.3-4.2,1.9
			c-7.9,16.6-20.4,28-38.5,32c-12.1,2.7-23.4,0.8-33.6-6.7c0-5.4,0-10.8,0-16.3c0.7-0.4,1.4-0.8,2.2-1.2
			c22.1-11.3,37.4-28.6,47-51.3c0.4-1.1,1-1.9-0.9-2.2c-8.9-2-17.5-4.9-26.1-7.5c-3.3-1.1-3.3-1-4.8,2c-4.1,8.6-9.6,16-17.3,21.6
			c-0.1-6.8-0.1-13.7-0.1-20.5c5.9-6.2,13-10.7,21-13.5c17-6,35.9-1.8,46.3,12.2c1,1.3,1.5,0.6,2.3,0c8.6-6.7,17.2-13.4,25.9-20
			c1.4-1.1,1.2-1.7,0.3-2.9c-18.4-22.7-42.1-31-70.7-25.7c-8.8,1.6-17,5.2-25,9.2c0-3.1-0.1-6.1-0.1-9.2c0.1-4.5-0.3-8.9,0.3-13.4
			c4.9,2.3,9,5.8,12.3,10.2c0.8,1,1.3,1.1,2.3,0.3c8.7-6.8,17.5-13.6,26.3-20.4c1.2-0.9,1.1-1.4,0.2-2.5
			c-6.6-8.5-14.7-15.4-24.3-20.3c-5.4-2.8-11.2-4.5-17-6c0-17.5,0-35.1,0-52.7c7.8-0.3,14.8-2.5,20.4-8.2c3.4-3.5,5.8-7.7,6.9-12.4
			c0.4-1.6,1-2,2.5-2.3c11.7-2.1,22.5,2.1,33.5,4.4c4.8,1,9.4,2.4,13.8,4.5c4.9,2.3,6.3,4.9,5.6,10.3c-0.7,4.7-1.6,9.5-2.2,14.2
			c-2,14,3.7,24.9,13.7,34.1c2.6,2.4,5.4,4.6,8.6,6.2C361.3,132.8,365,134.8,368.9,136.3z"/>
		<path class="st2" d="M255.1,350.3c0,26.4,0,52.8-0.1,79.2c0,1.3,0,2.7-0.1,4c-3.8-2-7.1-4.7-10.7-7.2
			c-26.6-18.5-53.1-37.1-79.7-55.7c-0.5-0.3-1-0.6-1.5-0.9c-2.9-2.4-6-4.5-9.2-6.5c-7.6-5.5-15.2-11.1-22.9-16.5
			c-2-1.4-3.2-3.2-3.9-5.5c-3-10.3-4.8-20.9-6.7-31.5c-5.1-28.2-9.4-56.5-13.3-84.9c-3-21.4-5.9-42.9-8-64.5
			c-0.7-7.1-0.2-8,6.5-10.6c9.6-3.8,19.6-6.4,29.1-10.4c2.2-0.9,4.5-1.6,6.5-3c3.9-1.5,7.5-3.5,10.9-6c14-8.1,26-22.8,22.1-42.9
			c-0.8-4.1-1.7-8.2-2-12.5c-0.3-4.5,1.4-7.5,5.7-9.4c7.5-3.2,15.4-4.9,23.3-6.7c3.1-0.7,6.2-1.1,9.2-1.9c4.1-1.1,8.2,0.2,12.3,0.1
			c5.1-0.2,7.4,1.5,9.1,6.7c3.2,9.7,11.3,13.9,21,15.5c0.7,0.1,1.5,0,2.2,0.4c0,17.5,0,35.1,0,52.7c-8.9-1.5-17.8-1.7-26.6-0.2
			c-20,3.5-36.9,12.9-50.6,27.6c-22.1,23.7-32.1,51.4-26.5,83.9c4.8,28.1,25.8,49.9,53.6,56c1.5,0.3,2.1,1,2.6,2.4
			c4.4,15,12.6,27.5,25.1,37.1C239.5,344.2,247.1,347.6,255.1,350.3z"/>
		<path class="st2" d="M347,369.8c3.1-2.3,6.2-4.5,9.3-6.8c2.3,3.5,5.3,6.3,7.8,9.6c0.9,1.1,1.5,0.5,2.3,0.1
			c5.7-3,11.6-5.2,18.1-5.5c11.1-0.5,20,4.3,27.7,11.7c9.8,9.5,16.3,21.2,21.8,33.5c9.1,20.3,15.1,41.6,19.8,63.2
			c1.2,5.6,2.2,11.2,3.2,16.8c0.2,0.9,0.4,1.8,0.1,2.8c-6.8-2.3-13.5-5-20.1-7.8c-20.9-8.9-41.1-18.9-59.6-32.2
			c-9.8-7.1-19-15-25.8-25.1c-11.1-16.5-10.3-32.4,2.6-47.5c1.5-1.8,1.6-2.7,0.1-4.4C351.6,375.6,349.4,372.6,347,369.8z
			 M443.4,476.6c-0.1-0.3-0.1-0.6-0.1-1c-3.4-17.6-7.6-35-13.9-51.8c-4-10.5-8.6-20.8-15.4-29.9c-1.2-1.6-1.9-1.5-3.2-0.3
			c-7.5,6.4-15.1,12.6-22.6,18.9c-7.2,6-14.5,12.1-21.7,18.1c-1.4,1.2-1.5,1.9-0.2,3.3c4.8,5,10,9.6,15.8,13.6
			c13,9.1,27.1,16.4,41.7,22.8c5.9,2.6,11.8,5.1,17.9,7.2C442.4,477.8,443.6,478.6,443.4,476.6z M386.2,377.6
			c-10.1,0.4-18.7,6.2-25.5,14.8c-6.1,7.8-7.9,16.5-4.5,26.1c0.9,2.6,0.9,2.6,3,0.9c8.6-7.2,17.3-14.3,25.9-21.5
			c5.5-4.6,10.9-9.1,16.3-13.7c1.3-1.1,1.3-1.8-0.2-2.7C397,379,392.5,377.6,386.2,377.6z"/>
		<path class="st1" d="M154.1,363.2c3.2,2,6.3,4.1,9.2,6.5c-2.6,3.1-5.2,6.3-7.9,9.2c-1,1.1-1,1.6,0,2.8c4.5,5,8,10.5,9.8,17.1
			c3.1,11.7-0.1,22.1-6.7,31.6c-7.6,11-17.7,19.4-28.6,26.9c-23.4,16.1-49.1,27.7-75.6,37.6c-0.4,0.2-0.7,0.2-1.5,0.4
			c1.1-5.8,2.1-11.4,3.2-17c4.6-21.9,10.5-43.5,19.5-64c5.4-12.4,11.8-24.2,21.4-34c8-8.2,17.2-13.6,29.1-13.1
			c6.2,0.3,12,2.2,17.4,5.2c1.8,1,2.7,0.7,3.8-0.8C149.3,368.7,151.7,366,154.1,363.2z M66.8,476c0,2.1,0.2,2.2,1.8,1.5
			c17-6.3,33.5-13.7,49-23.1c9.4-5.7,18.4-12,25.9-20.1c2.1-2.3,2.1-2.3-0.4-4.5c-14.6-12.1-29.2-24.2-43.8-36.4
			c-1.2-1.1-1.9-1.1-2.9,0.3c-6,8.1-10.5,17-14.2,26.3c-5.7,14.1-9.7,28.8-13,43.6C68.4,468,67.6,472.2,66.8,476z M122.8,377.6
			c-4.3-0.1-8.2,1-11.9,2.9c-4,2-4,2.2-0.5,5c10.4,8.6,20.7,17.2,31,25.8c3.4,2.9,6.8,5.7,10.3,8.6c0.6,0.5,1.4,1.4,2-0.2
			c2-5.4,2.8-10.8,1.3-16.5c-2.2-8.2-7.3-14.1-14-19.1C135.4,380,129.5,378,122.8,377.6z"/>
		<path class="st2" d="M255.7,33.6c7.7-0.2,13.4,3.3,17.6,9.8c18.4-21.9,42.8-30.1,70.8-31.4c-5.2,7.1-10.4,13.6-16,19.8
			c-2.4,2.7-5,5.2-7.5,7.9c-6.2,6.6-14.3,8.8-22.9,10.1c-6.4,1-12.9,1.8-19.5,2.2c-1.7,0.1-2.3,0.5-2.4,2.4
			c-0.6,10.8-9.7,18.9-20.1,18.2C255.7,59.6,255.7,46.6,255.7,33.6z"/>
		<path class="st1" d="M255.7,33.6c0,13,0,26,0,39.1c-9.6,0.1-18.4-8-18.9-17.7c-0.1-1.8-0.5-2.2-2.3-2.3
			c-9.4-0.6-18.8-1.3-28.1-3.2c-5.5-1.1-10.3-3.3-14.5-7.1c-9.5-8.4-17.4-18-25.6-28.3c14,0.2,27.2,2.3,39.8,7.3
			c12.8,5.1,23.6,12.8,32.3,23.6C242.2,37.9,247.8,34,255.7,33.6z"/>
		<path class="st1" d="M152.4,130.3c-3.3,2.5-7,4.5-10.9,6c-10.2-12-20.4-23.9-30.7-35.8c-1.1-1.3-1.4-2.3-0.6-3.9
			c1.6-3.2,3.1-6.6,4.8-10.4C127.5,101,139.9,115.7,152.4,130.3z"/>
		<path class="st2" d="M368.9,136.3c-3.9-1.5-7.6-3.5-10.9-6c12.4-14.6,24.8-29.2,37.5-44.1c1.9,4.1,3.6,7.9,5.3,11.6
			c0.6,1.3-0.5,1.8-1.1,2.5C389.4,112.3,379.1,124.3,368.9,136.3z"/>
		<path class="st3" d="M255.1,350.3c-8-2.7-15.7-6.1-22.5-11.2c-12.5-9.6-20.8-22-25.1-37.1c-0.4-1.5-1.1-2.1-2.6-2.4
			c-27.8-6.1-48.8-27.8-53.6-56c-5.6-32.5,4.4-60.2,26.5-83.9c13.8-14.7,30.6-24.2,50.6-27.6c8.9-1.5,17.8-1.3,26.6,0.2
			c5.8,1.5,11.6,3.2,17,6c9.7,4.9,17.7,11.7,24.3,20.3c0.9,1.1,0.9,1.6-0.2,2.5c-8.8,6.7-17.5,13.5-26.3,20.4
			c-1.1,0.8-1.5,0.7-2.3-0.3c-3.3-4.3-7.3-7.8-12.3-10.2c-8.9-4.7-18.3-5.7-27.9-3.5c-21.1,5-34.6,18.6-41.4,38.8
			c-5,15-3.6,29.5,5.5,42.8c3.6,5.3,8.4,9.4,14.3,12.3c0.2-0.6,0.4-1,0.5-1.4c3.9-18.2,12.5-34,25.1-47.7c7-7.5,15-13.6,23.8-18.9
			c8-4,16.2-7.5,25-9.2c28.6-5.3,52.3,3,70.7,25.7c1,1.2,1.1,1.8-0.3,2.9c-8.7,6.6-17.3,13.3-25.9,20c-0.8,0.6-1.4,1.3-2.3,0
			c-10.4-14-29.4-18.1-46.3-12.2c-8.1,2.9-15.1,7.3-21,13.5c-8.1,8.1-13.3,17.8-15.9,29.2c6.1-2.2,11.5-4.8,16.1-8.8
			c7.8-5.6,13.2-13.1,17.3-21.6c1.5-3,1.4-3.1,4.8-2c8.7,2.7,17.3,5.6,26.1,7.5c1.8,0.4,1.3,1.2,0.9,2.2c-9.6,22.6-25,40.1-47,51.3
			c-0.7,0.4-1.4,0.8-2.2,1.2c-3.6,1.4-7.2,2.8-10.9,4.3c3,4.8,6.3,8.9,10.9,12c10.2,7.5,21.5,9.5,33.6,6.7
			c18.2-4.1,30.7-15.5,38.5-32c1-2.2,1.9-2.7,4.2-1.9c8.8,2.9,17.5,5.8,26.6,7.8c1.3,0.3,1.6,0.7,1.1,2
			c-14.6,33.1-38.6,54.4-75.1,60.1c-9,1.4-18.1,0.6-27.1-1.6C256.3,350.4,255.7,350.3,255.1,350.3z"/>
		<path class="st2" d="M255.2,193.4c-8.7,5.3-16.8,11.4-23.8,18.9c-12.6,13.7-21.2,29.4-25.1,47.7c-0.1,0.4-0.3,0.8-0.5,1.4
			c-5.9-2.9-10.6-7-14.3-12.3c-9.1-13.3-10.5-27.8-5.5-42.8c6.8-20.2,20.3-33.7,41.4-38.8c9.6-2.3,19-1.3,27.9,3.5
			c-0.6,4.5-0.2,8.9-0.3,13.4C255.1,187.3,255.1,190.3,255.2,193.4z"/>
		<path class="st2" d="M255.2,254.6c-4.6,4-10,6.6-16.1,8.8c2.6-11.5,7.8-21.2,15.9-29.2C255.1,241,255.1,247.8,255.2,254.6z"/>
		<path class="st2" d="M255.1,309.5c-4.6-3.1-8-7.2-10.9-12c3.7-1.4,7.3-2.9,10.9-4.3C255.1,298.7,255.1,304.1,255.1,309.5z"/>
		<path class="st1" d="M443.4,476.6c0.2,2-1.1,1.2-1.9,0.9c-6.1-2.1-12-4.6-17.9-7.2c-14.6-6.4-28.6-13.7-41.7-22.8
			c-5.7-4-10.9-8.6-15.8-13.6c-1.3-1.4-1.2-2.1,0.2-3.3c7.3-6,14.5-12,21.7-18.1c7.5-6.3,15.1-12.5,22.6-18.9
			c1.4-1.2,2.1-1.3,3.2,0.3c6.9,9.1,11.4,19.3,15.4,29.9c6.4,16.8,10.5,34.2,13.9,51.8C443.4,475.9,443.4,476.3,443.4,476.6z"/>
		<path class="st1" d="M386.2,377.6c6.3,0,10.8,1.4,15,3.9c1.5,0.9,1.5,1.6,0.2,2.7c-5.5,4.5-10.9,9.1-16.3,13.7
			c-8.6,7.2-17.3,14.3-25.9,21.5c-2.1,1.7-2,1.8-3-0.9c-3.4-9.6-1.6-18.3,4.5-26.1C367.6,383.8,376.1,378,386.2,377.6z"/>
		<path class="st2" d="M66.8,476c0.7-3.8,1.5-8,2.5-12.3c3.2-14.9,7.3-29.5,13-43.6c3.7-9.3,8.2-18.2,14.2-26.3
			c1.1-1.4,1.6-1.3,2.9-0.3c14.6,12.2,29.2,24.3,43.8,36.4c2.6,2.1,2.6,2.1,0.4,4.5c-7.5,8.2-16.5,14.5-25.9,20.1
			c-15.5,9.4-32,16.7-49,23.1C67,478.2,66.8,478.1,66.8,476z"/>
		<path class="st2" d="M122.8,377.6c6.6,0.3,12.6,2.4,18.1,6.5c6.7,5,11.8,10.9,14,19.1c1.5,5.7,0.7,11.1-1.3,16.5
			c-0.6,1.6-1.4,0.6-2,0.2c-3.5-2.8-6.9-5.7-10.3-8.6c-10.4-8.6-20.7-17.2-31-25.8c-3.5-2.9-3.5-3,0.5-5
			C114.6,378.6,118.6,377.5,122.8,377.6z"/>
	</g>
</g>
</svg>
