<?xml version="1.0" encoding="utf-8"?><svg version="1.1" id="Layer_1" xmlns="http://www.w3.org/2000/svg" xmlns:xlink="http://www.w3.org/1999/xlink" x="0px" y="0px" viewBox="0 0 512 512" style="enable-background:new 0 0 512 512;" xml:space="preserve"><style type="text/css"> .st0{fill:#A0A0A0;} .st1{fill:#FFFFFF;} </style><path class="st0" d="M469.5,40.5c-0.3-0.3-0.7-0.4-0.9-0.4C426,40.1,337.9,1,337,0.6c-0.1-0.1-0.4-0.1-0.5-0.1H176.1 c-0.1,0-0.4,0-0.5,0.1C174.7,1,86.6,40.1,44,40.1c-0.4,0-0.7,0.1-0.9,0.4s-0.4,0.7-0.4,0.9C43.3,54.6,58.8,366.7,98,408.1 c0.1,0.1,0.3,0.3,0.4,0.3c0.7,0.3,65.4,31.7,156.9,103.3c0.3,0.1,0.5,0.3,0.8,0.3s0.5-0.1,0.8-0.3c91.4-71.5,156.2-103,156.9-103.3 c0.1-0.1,0.3-0.1,0.4-0.3c39.3-41.3,54.9-353.4,55.4-366.7C469.9,41.1,469.8,40.7,469.5,40.5z"/><g><path class="st1" d="M226.9,253.9v-15.5c0-35.1,51.3-48.3,51.3-74.2c0-13.3-11.1-24.7-29.5-24.7c-22.5,0-32.5,14.4-39.9,19.2 c-3,1.8-5.5,1.8-8.1-0.4l-17.3-17c-3-2.6-2.6-7,0-9.6c0,0,25.1-32.5,72.3-32.5c38.7,0,71.6,25.8,71.6,62 c0,44.6-56.1,57.6-56.1,79.7v12.2c0,4.4-2.6,7.7-7.4,7.7h-29.9C230.2,260.9,226.9,258,226.9,253.9z M248.6,304.1 c16.6,0,30.6,14,30.6,30.6s-14,30.3-30.6,30.3c-16.6,0-30.3-13.7-30.3-30.3S232,304.1,248.6,304.1z"/></g></svg> 