<?xml version="1.0" encoding="utf-8"?><svg version="1.1" id="Layer_1" xmlns="http://www.w3.org/2000/svg" xmlns:xlink="http://www.w3.org/1999/xlink" x="0px" y="0px" viewBox="0 0 512 512" style="enable-background:new 0 0 512 512;" xml:space="preserve"><style type="text/css"> .st0{fill:#1E1E1C;} .st1{fill:#F0C600;} .st2{fill:#5A4B36;} .st3{fill:#716755;} .st4{fill:#3F3A31;} .st5{fill:#A69A84;} .st6{fill:#645843;} .st7{fill:#22422E;} .st8{fill:#225537;} .st9{fill:#276C3E;} .st10{fill:#2B7D47;} .st11{fill:#DADADA;} .st12{fill:#DBB202;} .st13{fill:#B3B3B2;} </style><path class="st0" d="M469.5,40.5c-0.3-0.3-0.7-0.4-0.9-0.4c-42.6,0-130.7-39.1-131.6-39.5c-0.1-0.1-0.4-0.1-0.5-0.1H176.1 c-0.1,0-0.4,0-0.5,0.1c-0.9,0.4-89,39.5-131.6,39.5c-0.4,0-0.7,0.1-0.9,0.4s-0.4,0.7-0.4,0.9C43.3,54.6,58.8,366.7,98,408.1 c0.1,0.1,0.3,0.3,0.4,0.3c0.7,0.3,65.4,31.7,156.9,103.3c0.3,0.1,0.5,0.3,0.8,0.3c0.3,0,0.5-0.1,0.8-0.3 c91.4-71.5,156.2-103,156.9-103.3c0.1-0.1,0.3-0.1,0.4-0.3c39.3-41.3,54.9-353.4,55.4-366.7C469.9,41.1,469.8,40.7,469.5,40.5z"/><path class="st1" d="M232.6,124.1c-0.1,4.9-1.9,9.6-5.3,13.1c-1.6,1.8-3.6,3.2-5.9,4.3c-2.3,1.1-4.7,1.6-7.3,1.8 c-5,0.1-10.1-1.9-13.8-5.4c-3.6-3.5-5.9-8.5-5.9-13.8c-0.1-5.1,1.9-10.4,5.5-14.2c1.9-1.9,4-3.4,6.5-4.5c2.4-1.1,5.1-1.5,7.7-1.5 c2.7,0.1,5.3,0.7,7.6,1.9c2.3,1.2,4.3,2.8,5.9,4.7C231.2,114.4,232.8,119.4,232.6,124.1z M232.2,124.1c0-4.7-2.4-9.2-5.8-12 c-3.5-2.8-7.8-4.2-12-4s-8.4,1.8-11.3,4.7c-3.1,2.8-5,7-5.1,11.3s1.6,8.6,4.6,11.9c3,3.2,7.4,5.1,11.9,5.3c4.5,0.1,9-1.5,12.5-4.6 C230.4,133.5,232.4,128.8,232.2,124.1z"/><path class="st1" d="M205.8,96c0.8,1.2,1.3,2.7,1.2,4.2c0,1.6-0.7,3.2-2,4.5c-1.2,1.2-3.1,2-5.1,1.9c-1.9-0.1-3.9-1.2-5-2.8 c-1.2-1.6-1.6-3.8-1.1-5.7c0.5-1.9,1.9-3.4,3.4-4.2c1.6-0.8,3.4-0.9,4.9-0.4C203.8,93.9,205,94.8,205.8,96z M205.8,96 c-0.8-1.2-2.3-2-3.8-2c-1.5,0-2.7,0.5-3.5,1.5c-0.8,0.9-1.2,2-1.1,3.1c0,1.1,0.4,2,0.9,2.7c0.5,0.8,1.3,1.3,2.3,1.8 c0.9,0.4,2.2,0.4,3.4-0.1c1.2-0.4,2.2-1.5,2.6-2.8C207,98.9,206.7,97.2,205.8,96z"/><path class="st1" d="M217.8,82.8c1.1-3.1,3.4-5.9,6.5-7.4c3-1.6,6.7-2.2,10.3-1.1c3.5,0.9,6.7,3.4,8.5,6.7c0.8,1.8,1.5,3.5,1.6,5.5 c0.1,1.9-0.1,3.9-0.8,5.7c-1.3,3.6-4.2,6.6-7.7,8.1c-3.5,1.5-7.6,1.3-10.8-0.1c-3.4-1.5-5.8-4.2-7.1-7.4 C216.7,89.6,216.7,85.9,217.8,82.8z M217.8,82.8c-1.2,3.1-0.8,6.7,0.7,9.6c1.6,2.8,4.3,5,7.3,5.8c3,0.8,6.2,0.3,8.6-1.1 c2.6-1.3,4.5-3.6,5.4-6.3c0.9-2.7,0.9-5.7-0.1-8.4c-1.1-2.7-3.2-5.1-5.9-6.3c-2.8-1.3-6.2-1.5-9.3-0.3C221.6,77,219,79.7,217.8,82.8 z"/><path class="st2" d="M229.9,144.7c-0.3,0-0.7-0.1-0.9-0.3c-0.8-0.5-1.1-1.6-0.5-2.4c0,0,3.1-5,6.1-10.1c2.7-4.6,2.3-8,2.3-8 l-0.1-2.2c-0.1-0.9,0.7-1.8,1.6-1.9c0.9-0.1,1.8,0.7,1.9,1.6l0.1,2c0.1,0.5,0.4,4.9-2.7,10.3c-3.1,5.3-6.2,10.1-6.2,10.1 C231.2,144.5,230.5,144.7,229.9,144.7z"/><path class="st3" d="M227.8,106c10.9-2.3,20.8,0.9,22.1,7.1s-6.5,13.2-17.4,15.4"/><ellipse transform="matrix(0.9788 -0.2047 0.2047 0.9788 -19.3255 48.9535)" class="st4" cx="226.9" cy="117.9" rx="1.3" ry="13.8"/><path class="st2" d="M217.5,117.1L217.5,117.1c-0.1-0.8,0.4-1.6,1.2-1.8l10-2c0.8-0.1,1.6,0.4,1.8,1.2l0,0c0.1,0.8-0.4,1.6-1.2,1.8 l-10,2C218.6,118.4,217.8,117.9,217.5,117.1z"/><path class="st5" d="M229.7,131.4l3.4-0.7c0,0,2.3-0.9-0.4-13.6l0,0c0-0.1,0-0.1,0-0.3c0-0.1,0-0.3,0-0.3l0,0 c-2.7-12.8-5.1-12.7-5.1-12.7l-3.4,0.7c0,0,1.9,2.3,4.2,13.2C230.6,128.7,229.7,131.4,229.7,131.4z"/><path class="st2" d="M229,136.8c-0.3,0-0.7-0.1-0.9-0.3c-0.8-0.5-1.1-1.6-0.5-2.4c0,0,3.1-5,6.1-10.1c2.7-4.6,2.3-8,2.3-8l-0.1-2.2 c-0.1-0.9,0.7-1.8,1.6-1.9c0.9-0.1,1.8,0.7,1.9,1.6l0.1,2c0.1,0.5,0.4,4.9-2.7,10.3c-3.1,5.3-6.2,10.1-6.2,10.1 C230.2,136.5,229.5,136.8,229,136.8z"/><path class="st5" d="M214.6,123.7c4.3-0.1,7.7,3.9,7.7,9l-9.7,0.1h15.1c0,0-0.8-6.5-4.7-9.2c-4.3-3-4-7.6-4-7.6c0-2.6-2-4.6-4.6-4.6 l0,0c-2.6,0-4.6,2-4.6,4.6c0,0,0.3,4.6-4,7.6c-3.9,2.6-4.7,9.2-4.7,9.2h5.7C206.7,127.9,210.3,123.7,214.6,123.7z M214.3,113.7 c1.3,0,2.4,1.1,2.4,2.4s-1.1,2.4-2.4,2.4s-2.4-1.1-2.4-2.4S213,113.7,214.3,113.7z"/><path class="st6" d="M234.7,146.1c0,0,3.2,0.1,3.9-0.9c0.5-1.1,0.3-3.2,3.6-3.8c1.8-0.3,1.8-3,1.8-3s0.5-3-2.7-2.8 c-3.2,0.1-6.7,0.1-6.7,0.1"/><path class="st3" d="M235.3,142.4c0,0,2.8-1.1,2.8-3.2c0-2-1.5-7.6-23.1-7.8h-1.8c-21.7,0.3-23.1,5.7-23.1,7.8c0,2,2.8,3.2,2.8,3.2" /><path class="st5" d="M235.5,140.7c0,0-0.7-4.7-20.8-4.9l0,0c-0.1,0-0.3,0-0.4,0c-0.1,0-0.3,0-0.5,0l0,0c-20.1,0.1-20.8,4.9-20.8,4.9 v10.3h21.6l0,0h20.8v-10.3H235.5z"/><path class="st3" d="M235.3,154.3c0,0,2.8-1.1,2.8-3.2c0-2-1.5-7.6-23.1-7.8h-1.8c-21.7,0.3-23.1,5.7-23.1,7.8c0,2,2.8,3.2,2.8,3.2" /><path class="st5" d="M235.5,152.4c0,0-0.7-4.7-20.8-4.9l0,0c-0.1,0-0.3,0-0.4,0c-0.1,0-0.3,0-0.5,0l0,0c-20.1,0.1-20.8,4.9-20.8,4.9 v10.3h21.6l0,0h20.8v-10.3H235.5z"/><path class="st5" d="M249.5,207.7c0-9.3,1.9-17.3,4.7-21v-0.1l-9.2-6.5l-2.8,2.3v25.2v0.5v25.1l2.8,2.3l9.2-6.5v-0.1 C251.4,225,249.5,217,249.5,207.7z"/><ellipse class="st5" cx="269.1" cy="148.4" rx="28.9" ry="13.9"/><path class="st3" d="M295.2,142.4v-5.8c0,0-0.8-4-25.6-4.2l0,0c-0.1,0-0.3,0-0.4,0c-0.3,0-0.4,0-0.7,0l0,0 c-24.8,0.1-25.6,4.2-25.6,4.2v5.8c0,0,5-2.4,26.3-2.4S295.2,142.4,295.2,142.4z"/><path class="st1" d="M211.2,93.6c1.6-0.5,3.9,0.1,4.9,2c0.5,0.9,0.5,2.2,0.1,3.4c-0.4,1.1-1.5,2-2.7,2.4c-1.2,0.4-2.6,0.1-3.5-0.5 c-0.9-0.7-1.6-1.8-1.8-2.8C208.1,95.8,209.6,94,211.2,93.6z M211.2,93.6c-0.8,0.3-1.6,0.9-1.9,1.8c-0.3,0.8-0.1,1.6,0.3,2.3 c0.8,1.2,2.2,1.5,3.2,1.2c0.9-0.3,2-1.2,2-2.7c0-0.7-0.4-1.5-1.1-2C213.1,93.5,212.1,93.3,211.2,93.6z"/><path class="st1" d="M205.7,91.2c-1.8-0.4-3.2-2-3.1-4.3c0-1.1,0.7-2.2,1.6-3c0.9-0.7,2.3-1.1,3.5-0.7c1.2,0.3,2.3,1.2,2.8,2.3 c0.5,1.1,0.5,2.3,0,3.4C209.4,90.8,207.3,91.6,205.7,91.2z M205.7,91.2c0.8,0.3,1.9,0,2.4-0.5c0.7-0.5,0.9-1.3,0.9-2.2 c0-1.5-1.2-2.4-2.2-2.7c-0.9-0.3-2.4,0-3.1,1.3c-0.4,0.7-0.4,1.5-0.1,2.3C204.1,90.2,204.7,90.9,205.7,91.2z"/><ellipse class="st5" cx="214.3" cy="343.8" rx="26.4" ry="13.9"/><path class="st3" d="M190.4,332.2v5.8c0,0,0.7,4,23.5,4.2l0,0c0.1,0,0.3,0,0.4,0c0.1,0,0.4,0,0.5,0l0,0c22.7-0.1,23.5-4.2,23.5-4.2 v-5.8c0,0-4.6,2.4-24,2.4S190.4,332.2,190.4,332.2z"/><path class="st3" d="M193.3,329c0,0-2.8,1.1-2.8,3.2c0,2.2,1.5,7.6,23.1,7.8h1.8c21.6-0.3,23.1-5.7,23.1-7.8c0-2-2.8-3.2-2.8-3.2"/><path class="st5" d="M193.1,331.7c0,0,0.7,4.7,20.8,4.9l0,0c0.1,0,0.3,0,0.4,0c0.1,0,0.3,0,0.5,0l0,0c20.1-0.1,20.8-4.9,20.8-4.9 v-10.3H214l0,0h-20.8v10.3H193.1z"/><path class="st3" d="M193.3,318c0,0-2.8,1.1-2.8,3.2c0,2,1.5,7.6,23.1,7.8h1.8c21.6-0.3,23.1-5.7,23.1-7.8c0-2-2.8-3.2-2.8-3.2"/><path class="st5" d="M193.1,319.8c0,0,0.7,4.7,20.8,4.9l0,0c0.1,0,0.3,0,0.4,0c0.1,0,0.3,0,0.5,0l0,0c20.1-0.1,20.8-4.9,20.8-4.9 v-10.3H214l0,0h-20.8v10.3H193.1z"/><polygon class="st7" points="194.6,157.3 183.4,159.8 183.4,212.3 183.4,287.3 183.4,315.6 194.6,318.3 194.6,293.5 194.6,293.5 "/><polygon class="st8" points="214.2,155.5 194.6,157.3 194.6,209.6 194.6,209.6 194.6,318.3 214.2,320.1 214.2,300.4 214.2,300.4 "/><polygon class="st9" points="233.9,157.3 214.2,155.5 214.2,207.8 214.2,207.8 214.2,320.1 233.9,318.3 233.9,302.3 233.9,302.3 "/><polygon class="st10" points="245.1,159.8 233.9,157.3 233.9,209.6 233.9,209.6 233.9,318.3 245.1,315.6 245.1,278.8 245.1,278.8 "/><path class="st3" d="M235.3,334.9c0,0,2.8,1.1,2.8,3.2c0,2-1.3,7.6-23.1,7.8h-1.8c-21.6-0.3-23.1-5.7-23.1-7.8c0-2,2.8-3.2,2.8-3.2 l4.5,3l28.7,1.8L235.3,334.9z"/><g><path class="st11" d="M220.8,347.3c-47.7-68.4-100.1-39.3-100.1-39.3l8,3.1c27,11.7,55.7,34.7,55.7,34.7c9.2-4.6,17.5-4.6,24-3.4 L220.8,347.3z"/><circle class="st12" cx="220.2" cy="348.8" r="3"/><path class="st1" d="M182.6,356.5c3.5-8.6,12-14.8,21.9-14.8c12.9,0,23.6,10.5,23.6,23.6c0,12.9-10.5,23.6-23.6,23.6 c-12.9,0-23.6-10.5-23.6-23.6c0-0.3,0-0.7,0-0.9"/><circle class="st12" cx="199.1" cy="365.3" r="3"/><path class="st12" d="M217.4,359.2c1.2,0.5,2.3,0.9,3.4,1.2c1.1,0.3,2,0.3,2.8,0c0.8-0.1,1.3-0.5,1.9-1.3c0.3-0.4,0.4-0.8,0.5-1.3 s0.1-1.1,0-1.8c0.7,0.3,1.2,0.9,1.3,1.6c0.3,0.7,0.3,1.5,0.1,2.3c-0.1,0.8-0.5,1.6-1.2,2.2c-0.7,0.7-1.5,0.9-2.2,1.2 c-1.6,0.4-3.2,0-4.5-0.8C218.6,361.7,217.8,360.5,217.4,359.2z"/><path class="st12" d="M215.8,359.2c0.9,1.8,1.5,3.9,1.3,6.1s-0.8,4.3-2.2,6.2c-1.2,1.9-3,3.2-4.9,4.5c-1.9,1.1-3.9,1.9-5.9,2.4 c-4.3,1.1-9,0.4-12.7-1.8c-3.8-2.2-6.6-5.5-8.4-9.2c2.8,3.1,5.9,5.7,9.4,7.1c3.5,1.6,7.4,1.9,11.1,0.9c0.4-0.1,0.9-0.3,1.3-0.4 c0.4-0.1,0.9-0.3,1.3-0.4c0.8-0.4,1.8-0.7,2.6-1.2c1.8-0.8,3.2-2,4.5-3.4c1.2-1.3,2.2-3.1,2.6-5 C216.2,363.2,216.2,361.2,215.8,359.2z"/><path class="st12" d="M216.2,355.3c-1.6-0.9-2.8-2.2-4-3.5c-0.5-0.7-1.2-1.3-1.6-2.2c-0.5-0.8-0.9-1.5-1.3-2.7 c-0.1-0.9-0.3-1.8-0.4-2.4c-0.1-0.7-0.4-0.9-0.8-1.3c-0.5-0.4-1.2-0.7-2-0.8c-0.4-0.1-0.8-0.1-1.2-0.3c-0.4-0.1-0.8-0.1-1.3-0.3 c0.4-0.3,0.8-0.4,1.2-0.5c0.4-0.1,0.9-0.3,1.3-0.4c0.9-0.1,1.9-0.1,3,0.1c0.5,0.1,1.1,0.5,1.5,0.9c0.4,0.4,0.8,0.9,0.9,1.5 c0.4,1.1,0.5,2,0.7,2.7c0.1,0.5,0.5,1.2,0.8,2l1.2,2.3C214.8,352,215.7,353.7,216.2,355.3z"/><path class="st12" d="M217.5,351.9c-0.7-0.8-1.2-1.6-1.6-2.4c-0.4-0.8-0.8-1.6-1.1-2.3c-0.4-0.8-0.7-1.5-1.1-2.2 c-0.4-0.7-0.8-1.3-1.6-2c0.9-0.5,2.3-0.3,3.2,0.4c0.9,0.7,1.6,1.6,2,2.6c0.4,0.9,0.7,2,0.7,3C218.1,349.9,217.9,350.8,217.5,351.9z "/><path class="st12" d="M186,352.8c0.3,1.2,0.8,2.3,1.5,3.1c0.7,0.8,1.6,1.2,2.6,1.3c0.9,0.1,2,0,3.1-0.1l3.5-0.5 c2.4-0.4,4.9-0.7,7.3-0.7c1.2,0,2.6,0.1,3.8,0.4c1.2,0.4,2.4,0.9,3.2,1.9c-1.2-0.4-2.3-0.5-3.5-0.5s-2.3,0.3-3.5,0.4 c-2.3,0.4-4.6,0.9-7,1.3c-1.2,0.1-2.4,0.4-3.6,0.4c-1.2,0.1-2.7,0.1-4-0.4c-1.3-0.4-2.7-1.5-3.2-2.8 C185.7,355.4,185.6,354.1,186,352.8z"/><path class="st12" d="M189.5,347.2c-0.4,0.5-0.8,1.1-1.1,1.6c-0.3,0.5-0.5,1.1-0.7,1.6c0,0.1,0,0.3,0,0.3c0,0.1,0,0.1,0.1,0.1 c0,0.1,0.1,0.1,0.4,0.3c0,0,0.3,0,0.3,0.1c0.1,0,0.3,0,0.4,0h0.4h0.4c1.2,0,2.4-0.3,3.8-0.4c1.3-0.1,2.6-0.3,3.9-0.3 c2.7-0.1,5.4,0.1,8.1,0.9c2.6,0.8,5.1,2.6,6.5,4.9c-2.3-1.5-4.6-2.3-7-2.6c-2.4-0.4-4.9-0.4-7.4-0.3l-3.9,0.1c-1.3,0-2.7,0.1-4-0.1 c-0.1,0-0.4,0-0.5-0.1l-0.5-0.1c-0.1,0-0.4-0.1-0.5-0.3c-0.1-0.1-0.4-0.1-0.5-0.4c-0.1-0.1-0.4-0.3-0.5-0.5 c-0.1-0.3-0.3-0.4-0.4-0.7c0-0.1,0-0.3-0.1-0.4c0-0.1,0-0.3,0-0.4c0-0.3,0.1-0.4,0.1-0.7c0.4-0.8,0.8-1.2,1.3-1.8 C188.3,347.9,188.8,347.4,189.5,347.2z"/><path class="st11" d="M196.9,364.3c-0.5-0.1-1.1-0.3-1.6-0.4c-13.6-8-51.7-24.3-65.8-29.3c-14.8-5.3-31.6-17.5-31.6-17.5 c13.6,32.4,46.4,54.2,46.4,54.2c19.6-7,44.5-6.7,51.1-6.5c0.4,0.1,0.8,0.3,1.3,0.3c0.8,0.1,1.8,0.3,2.6,0.1v-0.1 C198.5,364.8,197.7,364.6,196.9,364.3z"/></g><g><path class="st1" d="M212.4,91.7c-0.1-6.2,0.7-12.5,3.5-18.3c2.7-5.8,7.6-10.7,13.1-13.9c5.5-3.2,11.7-5,18.1-5.9 c1.6-0.3,3.1-0.4,4.7-0.4c0.8,0,1.6,0,2.4,0h2.3c3-0.1,6.1-0.1,9.2,0c24.5,0.4,49.4,5.4,72,16.5C349,75,359.6,82,369.4,89.8 c9.7,7.8,18.9,17,26.3,27.5c7.6,10.5,13.2,22.3,17,34.5c3.9,12.3,6.1,24.8,7.3,37.4c0.5,6.2,0.9,12.5,1.1,18.7 c0.1,6.2,0.1,12.4,0,18.6c-0.3,12.4-1.1,25.1-3.4,37.8s-5.9,25.5-12,37.5c-5.9,12-14.4,23.1-24.5,32c-5,4.5-10.4,8.4-15.9,11.9 c-5.5,3.5-11.2,6.6-17.1,9.4c-11.7,5.4-23.9,9.4-36.1,12.1c-24.5,5.4-49.8,6.2-74,2.4c-0.7-0.1-1.1-0.7-1.1-1.3 c0.1-0.5,0.5-0.9,0.9-1.1l0,0c3-0.5,5.9-0.9,8.9-1.5c3-0.5,5.9-0.9,8.9-1.6c5.9-1.1,11.7-2.4,17.5-3.8c11.5-2.8,22.8-6.2,33.6-10.3 c10.8-4.2,21.3-8.9,31-14.7c9.7-5.7,18.6-12.3,26.3-19.8c7.7-7.4,14-15.9,19.2-25.4c5.1-9.4,9-19.8,11.9-30.6 c2.8-10.9,4.6-22.4,5.5-34c0.4-5.8,0.8-11.7,0.9-17.5c0.1-5.8,0-11.6-0.3-17.4c-0.7-11.5-2.2-22.9-5.1-33.9 c-3-10.9-7.4-21.3-13.5-30.8c-3-4.7-6.5-9.3-10.1-13.6c-3.8-4.3-7.8-8.4-12.1-12.3c-8.6-7.8-18.1-14.6-28.2-20.4 c-10.1-5.7-20.9-10.1-32.2-13.4c-11.3-3.2-22.9-5.3-34.8-6.2c-3-0.3-5.9-0.4-8.9-0.5l-2.3-0.1c-0.7,0-1.3-0.1-2.2-0.1 c-1.3,0-2.8,0-4.3,0.1c-5.7,0.4-11.3,1.8-16.5,4.3c-5,2.4-9.4,6.3-12.1,11.3c-2.8,5-4,10.8-4.3,16.7c0,0.7-0.5,1.2-1.2,1.2 C213,92.9,212.4,92.4,212.4,91.7z"/></g><path class="st13" d="M172.6,361.1c-2.3,0.3-4.7,0.7-7,1.1s-4.6,0.8-6.9,1.2c-2.3,0.4-4.6,0.9-6.9,1.6c-2.3,0.7-4.5,1.3-6.7,2.2 c2-1.2,4.2-2.3,6.5-3.1c2.3-0.8,4.6-1.5,6.9-1.9C163,361.1,167.9,360.7,172.6,361.1z"/><path class="st13" d="M160.2,357.8c-3.5,0.8-6.9,1.6-10.3,2.7c-1.6,0.5-3.4,1.1-5,1.6c-1.6,0.7-3.2,1.2-4.9,2c1.3-1.2,2.8-2.2,4.5-3 c1.6-0.8,3.2-1.5,5-1.9C153.1,358.2,156.6,357.6,160.2,357.8z"/><path class="st13" d="M205.9,336.8l-5.8,0.5c-1.9,0.3-3.9,0.4-5.8,0.7c-1.9,0.3-3.8,0.7-5.7,1.1c-1.9,0.4-3.8,0.9-5.5,1.6 c1.6-1.1,3.4-2,5.3-2.6c1.9-0.7,3.8-1.1,5.8-1.3C198.1,336.3,202,336.1,205.9,336.8z"/><path class="st13" d="M193.4,333.1c-2.6,0.8-5.1,1.5-7.7,2.3c-1.2,0.4-2.4,0.9-3.6,1.3c-1.2,0.5-2.4,1.1-3.6,1.8 c1.8-2.2,4.3-3.5,6.9-4.5c1.3-0.4,2.7-0.8,4-0.9C190.6,333,192,333,193.4,333.1z"/><path class="st13" d="M149.3,355.3c-2.4,0.8-4.7,1.5-7,2.4c-1.1,0.4-2.2,0.9-3.4,1.5c-1.1,0.5-2.2,1.1-3.2,1.8 c0.8-1.1,1.6-1.9,2.7-2.7c1.1-0.7,2.2-1.3,3.4-1.8c1.2-0.4,2.4-0.8,3.6-1.1C146.7,355.3,147.9,355.1,149.3,355.3z"/></svg> 