<svg version="1.1" id="Ebene_1" xmlns="http://www.w3.org/2000/svg" xmlns:xlink="http://www.w3.org/1999/xlink" x="0px" y="0px"
	 viewBox="0 0 512 512" style="enable-background:new 0 0 512 512;" xml:space="preserve">
<path fill="#009800" d="M342.7,429.9c-0.2,0-0.4,0-0.6,0c-4.3,8.8-8.7,17.6-13.2,26.7c3.2-0.1,5.3-2.7,8.7-1.9
	c-2.6,2.6-3.5,5.6-4.1,8.8c0,0.2-0.2,0.5-0.3,0.5c-2.9,0.3-2.4,2.7-2.7,4.5c-0.2,1.4-1,3.4-1.7,3.3c-3.1-0.6-2.5,1.8-2.9,3.3
	c-0.6,2.2-0.6,2.3-2.9,1.5c-0.8-0.3-0.9,0.3-1.1,0.7c-0.4,0.7-0.8,1.5-1.2,2.3c-1.2,2.7-1.2,2.6-4.1,1.9c-1-0.2-1.5,0.8-2.2,1.3
	c-1.3,1-2.1,2.6-3.9,2.8c-0.9,0.2-2.1,0.4-1.8-0.9c0.4-1.8-0.5-1.5-1.4-1.2c-1.6,0.5-3.1,1.1-4.6,1.6c-0.6,0.2-1.7,0.4-1.7-0.1
	c0-3.4-2.8-2.3-4.5-3c-0.6-0.2-1.8-0.5-1.4-1c2.2-2.9-1.4-2.7-2.1-4c-0.3-0.6-1.8-1.1-1.4-1.5c1.7-1.9-0.4-2.5-1-3.5
	c-0.7-1.3-2.3-2-2.9-3.5c0.5-1.3,1.6-0.8,2.5-0.8c-0.6-2.5-2.3-4.4-3.4-6.7c-0.3-0.5-1.3-1.6,0-1.6c2.6,0.1,1.1-1.3,0.8-2
	c-0.7-1.7-1.3-3.5-2.4-5c-1.7-2.4-1.3-3.5,1.8-3.2c-0.3-1-0.5-1.7-0.8-2.4c-0.5-1.2-1-2.4-1.7-3.5c-1.9-3.4-1.9-3.4,1.7-4.1
	c-0.3-2.1-1.4-3.9-2.4-5.7c-1.8-3.2-1.3-4,2.6-4.1c-0.2-1.9-1.2-3.4-1.9-5.1c-0.7-1.7-1.4-2-3.1-1c-4.1,2.3-8.5,4-12.5,6.4
	c-5,3.1-9.8,3.6-14.7,0.1c-0.2-0.1-0.6,0-0.9,0c0,0.4-0.1,0.7-0.1,1c1.9,12.5,3.9,24.9,7.3,37.1c2.9,10.2,6.5,20.2,13.4,28.5
	c8.7,10.5,19.8,15.2,33.3,13.2c10-1.5,16.7-8,22-16.2c6.8-10.4,10.2-22.1,13.2-33.9c0.2-1,0.1-2.6,1.3-2.7c1.2-0.1,1.4,1.5,2,2.3
	c0.2,0.7,0.4,1.3,0.6,2c0.3-0.2,0.5-0.5,0.8-0.7c-0.1-0.9,0-1.9-0.7-2.7C345.4,448.4,344.1,439.2,342.7,429.9z"/>
<path fill="#009800" d="M338.5,329.2c-2.3,4.4-5.5,8.4-8.4,12.5c-6.3,8.8-13.8,16.6-21.4,24.3c-5.7,4.9-11.4,9.9-17.4,14.3
	c-1.4,1-2.8,1.8-4.5,1.4c-1.1-0.2-2.8,1-3-1.3c-0.1-1.7-0.2-3.3,2.2-3.9c5.2-1.3,8.1-5.2,8.7-10.3c0.6-5.2-1-9.8-5.4-13.5
	c-0.4,2.5-0.6,5.1-3.7,4.4c-2.7-0.6-2.8-3-2.1-5.3c0.5-1.7,1-3.3,1.4-5c0.7-2.9,0.2-5.6-2.2-8c-0.4,3.8-2.4,6.5-4.6,9
	c-3.2,3.6-5.6,7.7-6.8,12.5c-2,7.9,0.7,13.4,8.4,16.3c2.3,0.9,1.7,2.4,1.7,3.9c0,1.9-1.5,1.1-2.4,1.2c-1.2,0.1-2.9-0.4-2.5,1.8
	c0.7,3.9-1.3,4.6-4.6,4.2c-1.2-0.2-2.4-0.1-3.6-0.1c0-0.7-0.1-1.3,0-2c0.3-2.6-0.1-4.5-3.5-3.9c-1.9,0.4-1.8-1-1.8-2.3
	c0-6.5,0.1-12.9,0-19.4c-0.1-2.3,0.5-3.4,2.9-4.1c4-1.2,6.5-4.1,7.7-8.2c1.5-4.9-1.2-8.6-3.5-12.4c-2-3.2-5.1-5.7-6.5-9.4
	c-0.9-1-0.9-2.1-0.6-3.3c-3.1-2.5,0.7-1.5,1.2-2.2c0,1.2,0,2.4,0,3.5c0,0.2,0,0.5,0,0.7c0.2,0.2,0.5,0.6,0.7,0.5
	c8.3-1.8,16.6-3.5,25.1-3.1c0.1-0.5,0.2-0.7,0.1-0.9c-0.2-0.5-0.3-1.1-0.6-1.5c-2.9-5.5-3.5-11.4-2.5-17.5c0.7-4.5,0.9-9.1,1.5-13.7
	c0.3-2.5-0.8-3-2.9-2.6c-2.9,0.5-5.8,1-8.7,1.3c-1.8,0.2-2.3,1.1-2.2,2.9c0.1,4.5,0.2,8.9-0.6,13.4c-1.7,10.2-10.8,18.4-20.2,17.1
	c-8.6-1.2-14.3-6.6-17.1-14.8c-2.7-7.7-2.3-15.5-0.7-23.3c1.8-8.9,12.2-23.1,23.5-23.8c4.8-0.3,10.6-1,13.4,3.8
	c2.8,4.7,6,3.9,9.9,2.8c2.2-0.7,4.4-1.2,6.6-1.7c1.4-0.3,2-1,1.7-2.5c-1-4.6-6.8-10.6-11.3-11.2c-4.1-0.6-8.3-0.6-12.4,0.4
	c-6.5,1.6-12.9,3-19.3,4.8c-7.3,2.1-13.9,5.9-18.2,12.2c-11.1,16.4-12.1,33.9-4.1,51.9c2.3,5.2,6.6,8.2,12.3,9.4
	c6.4,1.3,12.3-0.1,18.4-1.8c0.9-0.2,1.1-1,1.7-1.4c0.2-0.9,0.8-1.5,1.7-2.1c0.4,1.3-0.5,2-1.1,2.7c-2,4.4,0.1,8.8,0.1,13.3
	c-1.8-2.1-3.1-4.6-5.9-5.5c-0.2,1.8-0.6,3.3-1.3,4.8c-4.2,8.2-1.6,14.7,7.1,17.8c1.3,0.5,1.9,1.1,1.9,2.5c-0.1,6.9-0.1,13.8,0,20.7
	c0,1.6-0.4,2.6-2.2,2.3c-3.1-0.6-3.8,1-3.4,3.7c0.3,1.6-0.3,2.5-2.1,2.3c-1.1-0.1-2.2-0.1-3.3,0c-2.1,0.3-2.8-0.7-2.5-2.6
	c0.4-2.7-0.5-3.8-3.3-3.4c-0.6,0.1-1.3-0.1-2-0.1c0-0.9,0-1.8-0.1-2.6c-0.4-3.2,0.2-5,3.9-6.3c6.8-2.4,9.1-10.6,5.4-16.8
	c-1.1-1.9-2.5-3.6-3.7-5.4c-2.6-3.6-4.5-7.4-3-12.2c-6.1,3.3-8.5,6.6-11.2,15.8c0,0.8,0.5,1.8-0.3,2.3c-0.5,0.3-0.8-0.5-0.8-1.1
	c-1-2.5-1.5-0.4-1.9,0.3c-3.4,5.8-1.3,14.5,5,16.7c4.8,1.6,4.8,4.4,4.5,8c0,0.4,0,0.9-0.1,1.3c-3.5,0.6-6.4-0.4-9.3-2.6
	c-12.2-9.4-23.2-19.9-32.8-31.9c-1-1.3-2-1.9-3.8-1.6c-5.9,1-11.8,1.8-17.8,2.7c-4.3,0.6-4.3,0.6-1.7,4.2
	c19.5,26.8,44.1,47.7,73.4,63.1c4.5,2.4,9,6.1,13.9,6.3c5,0.2,9.5-3.8,14.2-6.2c37.9-19.9,67.3-48.4,87.9-86
	c1.5-2.8,2.9-5.6,4.5-8.8c-7.3,1-14,2-20.7,2.7C343.3,323.8,340.6,325.4,338.5,329.2z M274.7,370.3c-0.8-1.2-1.4-2.5-1.5-3.9
	c-0.4-7.1,2.7-12.7,7.8-17.8c0.4,1.7,0,3-0.2,4.2c-0.4,2.4,0.2,4.6,2.2,6.1c2,1.5,4.2,1.8,6.3,0.1c0.8-0.7,1.2-0.8,1.9,0.3
	c2.5,4.6,1,11.1-3.5,13.9C283.3,375.9,277.7,374.6,274.7,370.3z M254.5,350.8c-2.8-3.2-3-7.9-0.7-11.1c1.3-1.8,1.5-0.1,2.3,0.5
	c1,0.8,0.5,3.3,2.4,2.8c2-0.6,2.7-2.6,3-4.7c0.3-2.5-1-4.7-0.9-7.1c0-0.8-0.3-1.7,0.8-2.8c3.3,4.7,7.5,8.7,9.4,14.3
	c1.3,3.8-0.9,8.3-4.8,10.4C262.2,355.2,257.6,354.3,254.5,350.8z M238.2,371c-3.8-1-6.1-3.7-6.9-7.5c-0.6-3.1-0.1-3.5,2.9-2.7
	c0.5,0.1,1,0.2,1.8,0.4c-0.7-6.5,0-12.4,5.3-17.5c1,5.8,5.2,9.5,7.7,14c2,3.5,1.5,6.9-0.9,10.1C245.6,371,242.1,372,238.2,371z"/>
<path fill="#009800" d="M438.6,242.9c0-5.6,0.8-11,4.5-16.5c-5.8,0.8-10.9,1.6-16,2.2c-1.2,0.2-1.5,0.5-1.3,1.9
	c2.8,16.5,1.1,33.1,1.5,49.7c0,0.2-0.2,0.3-0.4,0.5c-1.1,0-1.4-1-1.8-1.6c-10.2-14.3-20.4-28.7-30.5-43c-0.9-1.2-1.9-2.5-3.3-2.4
	c-5.4,0.6-10.7,1.4-16.6,2.2c4.8,5.4,5.5,11.3,5.5,17.6c-0.1,11-0.1,22.1,0,33.1c0,7.5,0.2,15.1-3.8,22.6c5-0.7,9.3-1.5,13.7-1.9
	c2.7-0.2,2.9-1.4,2.3-3.6c-0.9-3.3-1.1-6.6-1.1-10c0.1-10.6,0-21.2,0-31.8c0-1-0.3-2.1,0.4-3.3c1.2,0.5,1.7,1.6,2.4,2.6
	c9.6,13.1,19.2,26.3,28.8,39.4c0.7,0.9,1.2,2.1,2.8,1.8c5.7-0.9,11.4-1.7,17.4-2.5c-2.8-3.5-4.5-7.1-4.5-11.3
	C438.6,273.2,438.6,258.1,438.6,242.9z"/>
<path fill="#009800" d="M338.9,239.6c-5.4,2.1-10.8,4.1-16.3,5.7c-2.4,0.7-4.6,2-6.6,3.5c-17.8,12.6-24.2,38.9-14.2,58.3
	c4.6,8.9,11.5,12.4,21.5,11.2c4.6-0.5,8.8-2.6,13.2-3.4c6.6-1.2,12.5-4,17.6-8.2c11.5-9.5,14.9-22.5,15.8-34.5
	c-0.1-9.3-1.3-16.3-4.9-22.6C359.7,240.2,348.7,235.8,338.9,239.6z M355.3,274.1c-0.1,9.7-2.8,18.5-8.7,26.2
	c-5.4,7.1-14.2,10.7-20.9,8.4c-7.7-2.7-12.1-8.5-13.5-16.3c-2.9-15.5,0.9-29.1,12.7-39.8c7.6-6.9,19.2-5.2,25,3.3
	C353.8,261.3,355.5,267.4,355.3,274.1z"/>
<path fill="#009800" d="M66,279c-12.2,2.3-24.4,4.2-36.8,5.5c-2,0.2-2.4,1-1.8,2.7c1,2.7,1.8,5.4,1.8,8.3c-0.4,20.3,2.8,40.8-3.2,60.8
	c-0.4,1.3-0.1,1.7,1.4,1.5c9.1-0.9,18.2-1.7,27.3-3c14.6-2.1,24.3-10.1,29.6-23.6c2.8-6.9,4.2-14.2,4.1-22.4
	c0.2-6.6-1.1-13.6-4.2-20.2C80.2,280.2,75,277.3,66,279z M58.9,345.5c-3.2,2.8-7.1,4.4-11.5,3.5c-3.2-0.6-5.4-2.1-5.3-5.9
	c0-2.6-0.4-5.2-0.6-8.1c1.4-12.1,0-24.6,1.9-37c0.9-6,8.6-11.6,14.6-10.6c8.7,1.4,13.7,5.9,15.5,15.8
	C76.7,319.9,72,334.2,58.9,345.5z"/>
<path fill="#009800" d="M487.8,247.6c-5.7,1.4-11.3,3.4-17.3,2.9c-3.6-0.3-6.2-2.3-6.7-5.2c-1.4-8.5,8.2-19.1,16.8-18.5
	c2.9,0.2,4.6,1.7,4.7,4.8c0,1.7,0.1,3.5,0,5.2c-0.1,1.6,0.3,2.2,2,1.4c3-1.4,6.2-2.1,9.4-2.6c5.5-0.8,5.5-0.9,5-6.6
	c0-0.4,0-0.9-0.1-1.3c-1.6-7.8-5.2-10.2-13.1-9c-4.3,0.7-8.5,1.6-13,1.5c-12.3-0.1-19.9,5.3-24.2,16.7c-0.8,2.2-1.6,4.6-1.9,6.9
	c-1.7,12.2,3.7,20.9,18,18.6c4.1-0.7,8.2-1.1,12.3-1.6c5.1-0.6,7.2,1.2,7.4,6.4c0.4,8.4-3.3,15-9.4,20.4c-3.5,3.1-7.8,3.5-10.9,1.5
	c-3.1-2-4.1-5.7-3-10.3c0.5-2.2,1.6-4.3,1.7-6.7c-3.4,1-6.4,2-9.5,2.8c-6.6,1.8-7.7,3.2-7.8,10.1c0,1.5-0.1,3.1,0.2,4.6
	c0.9,6,3.8,8.9,9.4,8.9c2,0,4.1-0.4,6.1-1c5.5-1.5,11.4-0.6,16.8-2.2c18.3-5.6,25.5-24.5,19.7-41.7
	C498.5,248.1,493.6,246.2,487.8,247.6z"/>
<path fill="#009800" d="M143.2,324c-2.6-5-5-10.3-8.8-14.6c-1.5-1.7-1.5-2.6,0.2-4.2c5.4-5.2,9.7-11.1,10.4-18.8
	c1.2-14.3-5.1-20.5-19.7-16.7c-2.1,0.5-4.2,1.2-6.3,1.7c-7.9,1.8-16,1.8-24.3,3.4c2.3,3.8,3.2,7.6,3.3,11.6
	c0.2,10.4,0.7,20.7,0.6,31.1c-0.1,9.3-0.1,18.6-1.9,27.7c-0.4,2.1-0.1,2.9,2.4,2.4c3.7-0.7,7.5-1.1,11.3-1.5c1.7-0.2,2.2-0.9,2-2.6
	c-1.3-8.3-1.3-16.7-1.3-25.2c0-4.5,2-5.9,6.4-4.5c3.9,1.3,6,4.5,8,7.8c2.7,4.5,4.7,9.3,7,14c2.5,5.1,5.3,6.6,10.8,5.7
	c4.3-0.7,8.8-0.8,13-4C149.6,334.9,146.2,329.8,143.2,324z M116.2,307.4c-4.4,1-4.9,0.7-4.9-3.8c0-5.2-0.6-10.5,0.6-15.6
	c0.6-2.7,1.5-5.3,3.4-7.3c2.4-2.6,5.1-4.4,8.9-3.5c3.8,0.9,5.8,3.6,6.5,7.4c0.2,1.1,0.3,2.2,0.3,2.5
	C130.7,297.2,124.6,305.4,116.2,307.4z"/>
<path fill="#009800" d="M177.4,313.5c4.1-0.4,8.2-1.1,12.3-1.4c4.5-0.3,5,0.1,6,4.5c1.1,5,2.2,10,3.2,15c0.3,1.5,0.7,2.4,2.5,2.1
	c4.9-0.7,9.9-1.3,15.2-2c-2.1-4.7-4.3-9.1-6.1-13.6c-7.1-17.4-12.1-35.4-15.8-53.8c-0.4-1.8-0.7-3-3-2.7c-4.2,0.6-8.5,1-12.7,1.4
	c-2.3,0.2-3.5,0.9-1.9,3.4c1.5,2.1,1.5,4.5,0.9,6.9c-0.9,3.5-1.9,6.9-2.8,10.4c-4.8,17.8-10.3,35.3-16.3,52.8
	c-0.7,2-0.8,2.9,1.8,2.2c2-0.5,4.1-0.8,6.2-0.8c2.3,0,3.2-1,3.6-3.2c1.2-6,2.6-11.9,3.9-17.8C174.6,315.1,175.4,313.7,177.4,313.5z
	 M180.7,296.4c1.1-4.5,2.4-9,4.8-14c2.4,6.7,4.3,12.7,5.7,18.8c0.3,1.2-0.2,2.1-1.5,2.4c-0.4,0.1-0.8,0.3-1.3,0.3
	c-3.1,0.5-6.8,2.2-9.1,0C177.4,302.2,180,299,180.7,296.4z"/>
<path fill="#009800" d="M222,237.9c-3.3-4.6-6.8-9-10-13.7c-1.7-2.5-4-1.5-5.9-0.9c-2.1,0.6,0.5,2,0.1,3c-0.1,0.2,0,0.4,0,0.6
	c-0.2,6.9,0.5,13.9-0.4,20.8c4.5,0.1,4.5,0.1,4.4-3.9c-0.1-4,0-8,0-11.9c0.3-0.1,0.6-0.2,0.8-0.3c2.3,3.1,4.8,6,6.9,9.3
	c2.4,3.8,5,6.2,9.2,4.2c-0.8-8.2-0.9-16.4,0.2-24.8c-0.7,0.1-1.3,0.1-1.9,0.2c-2.2,0.1-3.2,0.7-2.8,3.5c0.5,4.5,0.1,9.1,0.1,13.7
	C222.4,237.7,222.2,237.8,222,237.9z"/>
<path fill="#009800" d="M162.8,254.3c3.6-0.4,7.2-0.6,10.7-1.5c4.2-1.1,6.6-7.8,3.8-11.1c-1.9-2.2-1.5-3.3-0.1-5.3
	c1.5-2.1,1.7-4.8,0.3-7.1c-1.1-1.8-3.1-2-5-1.8c-2.9,0.4-5.8,1.1-8.7,1.6c-1.4,0.2-1.6,0.7-1.5,2.1c0.2,3.2,0.1,6.3,0.1,10.7
	c-0.2,2.9,0.5,6.9-0.4,10.9C161.7,253.6,161.5,254.5,162.8,254.3z M171.3,250.5c-2.6,1.8-3.9,1.2-4.2-2c-0.1-1-0.1-2,0-2.9
	c0.1-1.4-0.8-3.5,1.9-3.6c2.6,0,4.5,1.7,4.6,4.5C173.5,247.9,172.8,249.4,171.3,250.5z M167.6,232.6c0.2-1.6,1.2-2.3,2.7-2.2
	c1.6,0.2,3,0.8,3.2,2.7c0.3,2.3-0.7,4.2-2.5,5.7c-0.9,0.8-2,1.6-3.2,1.1c-1.5-0.6-0.4-2.1-0.9-3.3
	C167.1,235.3,167.4,233.9,167.6,232.6z"/>
<path fill="#009800" d="M127,259.1c7.7-2.2,11.2-16.1,6-23.2c-1.3-1.8-3.3-2.1-5.3-1.7c-3.8,0.8-7.7,1.5-11.6,1.8
	c-1.1,0.1-1.6,0.2-1.4,1.8c0.8,7.7,0.9,15.3-0.4,23.3C118.5,260.5,122.8,260.3,127,259.1z M119.8,243.8c0.1-4.4,1.2-6.2,4.3-6.6
	c3.2-0.5,5.5,1.5,6.5,5.5c0.2,0.9,0.2,1.9,0.3,2.7c-0.3,4.7-2,8.6-5.6,11.5c-1.2,0.9-2.5,1.6-4.2,1c-1.9-0.7-1.4-2.3-1.4-3.6
	C119.6,250.8,119.7,247.3,119.8,243.8z"/>
<path fill="#009800" d="M243.3,243c0.7-0.2,1.5-0.2,2-0.3c14-0.2,17.9-7.4,17.4-18.2c-0.3-6.1-3.2-8.8-8.2-8c-3.7,0.6-7.3,1.3-10.9,1.8
	c-1.5,0.2-1.5,0.5-1.4,1.9c0.5,7.1,0.8,14.2-0.4,21.2C241.6,242.7,241.5,243.5,243.3,243z M247,231.1c0.1,0,0.2,0,0.3,0
	c0-2.4,0-4.8,0-7.2c0-2.8,1.9-4.2,4.2-4.7c2.4-0.5,4.4,0.8,5.6,3.1c2.8,5.4,0.3,14-4.9,17.1c-3.1,1.8-5,0.8-5.1-2.7
	C246.9,234.8,247,232.9,247,231.1z"/>
<path fill="#009800" d="M324.9,231.9c9.6,0.4,17.3-7,17.3-16.6c0-8.7-4.7-12.1-13-9.2c-0.4,0.1-0.8,0.2-1.3,0.3
	c-9.1,2.6-13.6,13.7-8.9,21.9C320.4,230.7,322.4,231.8,324.9,231.9z M326,210.2c3.5-3.8,8-3,10.3,1.7c0.8,1.6,1.1,3.3,1.2,5.2
	c-0.6,3.5-1.3,7.2-4.4,9.8c-4,3.4-9.1,1.9-10.5-3.1C321.1,218.6,322.4,214.1,326,210.2z"/>
<path fill="#009800" d="M158.6,252.7c-0.1-3.4,0-6.8,0-10.1c0,0,0,0,0,0c0-3.6-0.1-7.2,0.1-10.8c0.1-1.6-0.4-1.8-1.8-1.7
	c-2.1,0.2-3.1,0.9-3,3.4c0.1,5.3,1,10.7-1.3,15.8c-1.2,2.7-3,4.9-6.2,4.3c-3.1-0.6-2.7-3.6-2.8-5.9c-0.2-4.6,0-9.2,0.5-13.7
	c0.1-0.8,0.5-2.4-1.2-1.9c-1.4,0.4-4.1-0.6-4.1,1.8c0,6.5,0.3,13.1,0.6,19.6c0.2,3.5,2.2,4.8,5.6,3.6c2.4-0.8,4.6-2,6.9-3
	c0.9-0.4,1.5-0.9,2.2,0.6c0.8,1.5,2.4,0.1,3.6-0.1C158.9,254.5,158.6,253.7,158.6,252.7z"/>
<path fill="#009800" d="M282.4,219c0.7-4.1-1.4-6.7-5.3-6.1c-3.4,0.5-6.8,1.4-10.3,1.7c-0.6,0.1-1.4-0.1-1.2,1.3
	c1.2,7.1,1.1,14.3,0.4,21.5c-0.1,0.7-0.7,1.7,0.7,2c2.7,0.6,4.2-0.7,4-3.4c-0.1-2-0.2-3.9-0.2-5.9c0-2.2,1.3-2.9,3.1-1.6
	c1.7,1.2,2.5,3,3.3,4.8c2.4,4.9,3.2,5.2,8.6,3c-0.2-0.3-0.3-0.6-0.5-0.7c-3.6-2.1-4.4-6.1-6.4-9.3c-0.9-1.5,2.2-2.9,2.8-4.8
	C281.8,220.6,282.2,219.8,282.4,219z M277.6,219.4c-0.1,1.7-0.7,3.4-2,4.7c-1.2,1.1-2.6,2.4-4.3,1.8c-1.4-0.5-0.3-2.4-0.7-3.3
	c-0.1-1.9,0.1-3.5,0.9-5c0.9-1.5,2.2-2.5,4-1.9C277.3,216.3,277.7,217.8,277.6,219.4z"/>
<path fill="#009800" d="M374.5,221.8c-0.1-2.2-0.1-4.4-0.2-6.5c-0.1-1.4,0.6-1.9,1.9-2.2c8.6-1.9,9.4-1.2,8.2,7.5
	c-0.2,1.1-0.8,2.6,1.4,2.2c1.5-0.3,3.9,0.6,3.6-2.2c-0.8-7.7-0.3-15.4,0.4-23.3c-2.6,0.6-5.6-0.6-5.1,4.5c0.7,7.4,1.8,6.3-6.5,7.2
	c-0.5,0.1-1.1,0.1-1.6,0.3c-1.8,0.5-2.2-0.4-2-1.9c0.2-2.6,0.5-5.2,0.8-8.1c-4.9,0.8-4.8,0.8-4.9,5.6c0,5.7-0.2,11.3-0.3,17
	c0,0.9-1,2.1,0.1,2.6c1.2,0.5,2.6,0,3.8-0.5C375.5,223.8,374.6,222.7,374.5,221.8z"/>
<path fill="#009800" d="M287.3,236.1c2.9,0.7,4.1-0.7,4.4-3.3c0.1-1,0.5-1.9,0.6-2.9c0.5-3.6,3.5-2.1,5.5-2.6c2-0.5,2.1,1.2,2.5,2.6
	c1.2,4.7,1.2,4.7,6.1,4c0.1,0,0.2-0.1,0.5-0.3c-3.4-7-5.6-14.5-7.4-22.1c-0.6-2.6-2.9-0.8-4.4-0.8c-1.4-0.1-1.8,0.5-1.2,2.1
	c0.3,1-0.2,2.3-0.6,3.4C291.3,222.8,289.3,229.4,287.3,236.1z M294.5,222.6c0.4-1.4,0.9-2.8,1.5-4.8c1.5,1.8,1.6,3.4,2.1,4.9
	c0.3,0.7,0.2,1.6-0.7,1.8c-0.9,0.3-1.9,0.6-2.8,0.1C293.8,224.1,294.3,223.3,294.5,222.6z"/>
<path fill="#009800" d="M354,205.3c2.2-1.8,4.9-2.4,6.9-0.5c3.1,2.9,4.7,0.6,7.1-1.1c-2.1-1.6-4-2.8-6.3-2.9
	c-10.2-0.5-18.1,8-16.9,18.1c0.8,6.7,4.3,9.4,10.9,8.2c1.7-0.3,3.4-0.5,5.2-0.8c5-0.9,5.1-1.1,5.4-6.7c-2.4,1.6-4.6,3.5-7.2,4.6
	c-3.9,1.6-6.8,0.6-8.6-3.2C348.2,216,349.8,208.8,354,205.3z"/>
<path fill="#009800" d="M413.5,218.2c2.7,0.7,4-0.2,4.2-2.9c0.1-1,0.5-1.9,0.6-2.9c0.4-3.6,3.3-2.4,5.3-2.8c2.2-0.5,2.4,1.2,2.8,2.7
	c1.2,4.6,1.2,4.6,5.9,4c0.2,0,0.4-0.1,0.7-0.3c-0.9-2.1-1.9-4.1-2.7-6.3c-1.8-5-3.4-10.1-4.5-15.3c-0.6-3.3-3-1.5-4.7-1.6
	c-2-0.2-1.3,1.1-1.2,2.4c0.1,1.1-0.3,2.3-0.7,3.5C417.5,205.2,415.5,211.7,413.5,218.2z M420.5,205.2c0.7-1.7,0.8-3.6,2-5.3
	c1.4,1.8,1.8,3.8,2,5.7c0.2,1.9-1.7,1.4-2.9,1.5C420,207.3,420,206.2,420.5,205.2z"/>
<path fill="#009800" d="M408,198.2c0.7-0.1,1.3-0.1,2-0.2c2.3-0.2,1.8-1.9,1.7-3.2c-0.2-1.7-1.6-0.8-2.3-0.6c-3.9,0.9-7.9,1.6-12,1.7
	c-3.4,0.1-5.3,1.3-5,5.2c1-0.4,2-0.7,3-1c2.4-0.7,3.8-0.8,4,2.7c0.4,5.2-0.1,10.2-0.1,15.4c0,1-0.7,2.9,1.3,2.4c1.4-0.3,4.2,1,4-2.6
	c-0.3-5.2,0-10.5-0.2-15.7C404.4,199.5,405.6,198.4,408,198.2z"/>
<path fill="#009800" d="M185.4,226.4c-1.4,0.3-4.3-1.1-4,2.6c0.4,4.8,0.4,9.6,0.6,14.4c0.1,2.6-1.4,6.3,0.4,7.5
	c1.8,1.2,5.2-0.3,7.9-0.5c2.6-0.2,4.2-1.4,4.2-4.6c-1.8,0.5-3.4,0.9-4.9,1.4c-2.6,0.9-3.6,0.1-3.5-2.6c0.2-5.2-0.3-10.5,0.4-15.7
	C186.6,227.9,187.5,225.9,185.4,226.4z"/>
<path fill="#009800" d="M311.6,208.4c-2,0.2-2.5,0.9-2.4,2.9c0.2,7,0.6,13.9-0.3,20.9c-0.1,0.6-0.2,1,0.5,1.3c1.9,0.8,4.6-1,4.6-3
	c0-3.3,0-6.5,0-9.8c0,0,0,0,0,0c0-3.3-0.2-6.5,0.1-9.8C314.2,208.7,313.7,208.2,311.6,208.4z"/>
<path fill="#009800" d="M198.4,249.1c1.8-0.1,4.3,0.4,4-3c-0.7-6.6-0.8-13.2-0.1-19.8c0.1-0.7,0.6-1.7-0.7-2.1
	c-2.5-0.8-4.6,0.7-4.3,3.3c0.7,6.3,0.7,12.6-0.1,18.9C197.7,247.2,195.9,249.3,198.4,249.1z"/>
<path fill="#009800" d="M315.9,201.4c-0.9-1.1-1.7-2.2-3-1.2c-1.4,1.1-2.6,2.4-3.8,3.6c-0.4,0.5-0.9,1-0.3,1.7c0.5,0.5,1.2,0.5,1.8,0.1
	c1.5-1.1,3-2.2,4.5-3.3C315.4,202.1,315.7,201.7,315.9,201.4z"/>
<path fill="#009800" d="M508.9,9.7c-10.3,14.8-23.3,26.8-38.2,36.8c-14.1,9.4-29.4,16.7-44.7,23.9c-2.3,1.1-3.5,0.9-5-1.3
	c-8.6-12.8-18.6-24.2-30.9-33.6c-6.2-4.7-12.7-8.7-20.7-11.6c1.2,1.3,1.9,2.1,2.7,3c13.2,15,23.5,31.6,28.2,51.3
	c0.8,3.3,0.5,5.7-2.8,7.5c-2.7,1.4-5,3.7-6.6,6.3c-2.7,4.5-6.5,7.9-10,11.6c-2.6,2.8-5.3,5.5-7.9,8.3c-0.7,0.5-1.7,0.8-1.5,2.3
	c1.1-0.5,2-1,2.9-1.5c3.2-0.9,6.4-2.2,9.9-2c6.5,0.3,11.1,8.4,7.5,13.7c-9.2,13.6-21.6,23.5-36.5,30.3c-1,0.9-2.1,1.3-3.7,1.5
	c0.4-1.7,1.5-1.8,2.4-2c0.6-0.6,1.7-0.4,2.1-1.4c-0.7-0.2-1.3-0.5-1.9-0.5c-5.4-0.5-10.9-0.1-16.1-2.2c-1.3-0.5-1.7,0.8-2.1,1.6
	c-1.7,3.5-4.7,5.2-8.1,6.6c-7.9,3.2-16.1,5.2-24.5,6.8c-1.7,0.3-2.8-0.3-4-1.5c-9.6-10.1-18.3-21.1-28.6-30.6
	c-0.8-0.7-1.2-1.8-1.5-2.8c-0.9-3-0.5-6.1-0.4-9.1c0-1.4,0.8-1.8,2.1-1.8c4.5,0.2,8.6-1.2,12.5-3.2c4.3-2.2,9-3.1,13.8-3.9
	c2.5-0.4,3.9,0,3.6,3.1c-0.2,1.7-0.3,3.6,0.9,5.5c6-4.9,9.6-11.1,12.1-18c0.6-1.7-0.6-1.7-1.8-1.8c-3.8-0.2-7.7,0.2-10.6-3
	c-0.4-0.5-1.2-0.4-2.1,0c2.5,1.8,2.6,2.8-0.8,3.1c-2,0.2-4,1.1-5.9,1.8c-3.8,1.4-7.6,3-11.6,4.6c-0.2-4.9,3.8-7.1,5.6-10.5
	c0.7-1.4,2.5,0.5,3.9,0c0.7-0.3,1.5-0.3,2.2-0.6c3.8-1.2,7-3.6,9.8-6.4c3.3-3.2,7.3-4.7,11.8-4.9c3.8-0.2,7.7-0.2,11.6,1.2
	c-3.7-8.8-7.8-11.4-16.8-11.2c-6.4,0.2-12.8,1.3-19.2-0.5c-3.1-0.8-6.2-1.4-5.9-5.9c-5.9,3-11.7,4.3-17.9,4.7
	c-9.7,0.6-19.4,1.4-28.4,5.4c-0.8,0.3-1.7,0.4-2.5,0.3c-8.4-0.7-16.4-2.3-23.2-7.7c-0.5-0.4-0.9-1.1-1.9-0.1
	c3.9,6.3,10,9.9,17.1,12.7c-5.9,4-11.5,7.5-16.8,12.1c2.1,0,3.8,0,5.4,0c1.6,0,3.2,0,4.8,0.7c4,1.8,4.6,4.6,1.8,7.7
	c-8,8.6-14.4,18.4-19.1,29.1c-0.3,0.6-0.6,1.2-0.9,1.8c-0.7,0.7-1.2,1.5-0.9,2.7c1-0.4,1.3-1.2,1.6-1.9c0.3-0.6,0.6-1.2,0.8-1.8
	c4.1-5.7,8.1-11.7,13.6-16.2c0.9-0.7,1.8-2.2,3-1.5c1.3,0.7,0.2,2.1-0.1,3.2c-2.1,7.9-4,15.8-4.2,24c-0.9,1.5-0.4,3.2-0.7,4.7
	c0.3,0.6-0.1,1.5,0.7,1.9c0.2-1.9,0.4-3.9,0.7-5.8c1.1-4,1.5-8.3,3.9-12.5c0.4,2.8,0.7,5.1,1.1,7.3c1.6,8,5.9,15.5,3.6,24.1
	c-0.1,0.4-0.1,0.9,0,1.3c0.2,1.9-0.7,2.1-2.3,2c-11.6-1.1-23.1-2.6-34.2-6.4c-5.9-2-12.3-3.4-15.3-9.9c-0.3-0.6-0.8-1-1.6-0.7
	c-5.2,2.1-10.7,1.7-16.1,2.1c0,0.8-1.9-0.2-1.3,1.3c0,0,0,0,0,0c1.9,0.6,3.7,1.2,5.9,3c-3.1,0.1-4.9-1.2-6.7-2.2
	c-0.4-0.2-0.8-0.5-1.3-0.7c-13.6-6.5-24.7-15.9-33.5-28.1c-2.6-3.6-1.6-7.1,0-10.4c1.6-3.3,4.7-4.3,8.3-4.2c2.6,0.1,5.1,0.9,7.6,1.7
	c1,0.3,2,1.4,3.5,0.5c-5.2-5.4-10.7-10.5-15.4-16.1c-3.6-4.3-6.6-9.3-11.6-12.2c-1.9-1.1-2.1-2.3-1.7-4.3
	c3.3-16.5,11.1-30.9,21.1-44.2c2.8-3.7,5.9-7.3,8.8-10.9c-0.8-0.6-1.3-0.1-1.9,0.1c-6.3,2.7-12,6.2-17.4,10.3
	c-12.4,9.3-22.4,20.8-31,33.6c-1.4,2-2.4,2.6-4.7,1.4c-5.9-3-12-5.7-18-8.6C41.8,49.7,19.4,34.7,3,12.2c-0.3-0.4-0.6-0.9-1.3-0.5
	c0,0.2-0.2,0.5-0.1,0.6c0.6,1.3,1.2,2.6,2,3.8C12.2,30.9,22.8,44.3,35.3,56C45,65.2,56,72.8,65.5,82.2c1.6,1.6,3.1,3.2,4.7,4.8
	c-0.2,0.3-0.5,0.6-0.7,1c-14.9-3.6-25.6-14.5-38-22.5c2,2.4,3.7,4.9,5.3,7.5c7.4,12.1,15,23.9,28.9,29.8c4,1.7,3.6,2.3,1.7,7.3
	c-0.8,2-1.4,2.5-3.4,1.2c-3.7-2.5-7.4-5-10.9-7.9c-1.6-1.3-3.2-2.6-4.9-3.9c1.5,4.5,4.2,8.3,6.8,11.9c4.3,5.9,8.8,11.6,15.4,15
	c7.8,4,14.2,9.7,20.2,16c1.4,1.5,3.1,2.7,4.2,5.5c-11.7-2.8-20-10.1-28.5-17c0.1,0.8,0.4,1.3,0.7,1.9c6.8,10.9,14.9,20.5,26.5,26.6
	c5.7,3,9.6,7.9,13.3,14.1c-8.6-2.5-15-7.2-21.3-12.2c4.9,9.4,11.2,17.4,20.8,22.3c4,2,7.4,4.6,9.6,9.3c-6.9-1.4-12-5.6-18.2-9
	c5.4,8.7,10.3,16.8,20,20.1c0.9,0.3,1.9,1,1.9,2.1c0,1.3-1.2,1.7-2.2,2.1c-0.8,0.3-1.7,0.4-2.6,0.4c-2.7,0.1-3.2,1.2-1.9,3.5
	c1.9,3.3,4.7,6,6.9,9.1c1.4,1.8,2.9,2,4.8,1.7c9.9-1.5,19.8-3,29.7-4.4c19.1-2.7,38.2-5.4,57.3-8.1c23.7-3.4,47.5-6.9,71.2-10.3
	c17.6-2.5,35.2-4.9,52.8-7.4c21.1-3,42.3-6,63.4-9.2c3.5-0.5,7.1-0.5,10.2-3c5.9-4.8,10.8-10.5,14.7-17c0.3-0.6,1.1-1.2,0-2.1
	c-5.9,5.2-12.1,9.9-20.7,12.1c3.9-6.1,7.8-11.1,13.6-14.1c11.3-6,19.2-15.3,25.9-25.8c0.4-0.6,1.3-1.2,0.7-2.6
	c-4.2,3.6-8.3,7.2-12.8,10.2c-7.3,4.8-11.7,6.5-15.3,5.8c6.3-6.6,12-13.8,20.1-17.8c12.4-6.2,19.7-16.9,26.7-28.1
	c0.2-0.3,0.1-0.8,0.2-1.3c-1.3,0.2-1.8,1.1-2.5,1.7c-4.5,3.7-9,7.3-14,10.2c-0.7,0.4-1.4,1.4-2.4,0.1c-3.1-4.5-2.7-6.6,2.1-9.5
	c1.6-1,3.2-1.8,4.9-2.6c3.5-1.8,6.7-4.2,9.4-7.1c7-7.7,11.6-17,17.8-25.3c-1.2-0.6-1.7,0.2-2.2,0.6c-3.4,2.4-6.6,5-10,7.4
	c-6.3,4.4-12.4,8.9-19.7,11.6c-1.8,0.6-3.5,1.5-5.8,0.7c0.8-0.9,1.3-1.5,1.9-2.1c8.3-8.1,17.2-15.5,26.1-22.9
	c17.4-14.5,31.4-31.8,41.8-52c0.6-0.7,1.3-1.3,0.8-2.5C509.5,8.3,509.1,8.9,508.9,9.7z M259.8,86.8c-0.6-0.3-1.3-0.6-1.2-1.4
	c0.1-0.7,0.6-1.2,1.3-1.3c3.3-0.6,6.5-1.2,10.1-1.9C267.5,88.3,264.4,89.6,259.8,86.8z"/>
</svg>
