<?xml version="1.0" encoding="utf-8"?><svg version="1.1" id="Layer_1" xmlns="http://www.w3.org/2000/svg" xmlns:xlink="http://www.w3.org/1999/xlink" x="0px" y="0px" viewBox="0 0 512 512" style="enable-background:new 0 0 512 512;" xml:space="preserve"><style type="text/css"> .st0{fill:url(#SVGID_1_);} .st1{fill:#C1C1C1;} .st2{fill:#E2E2E2;} .st3{fill:#FFFFFF;} .st4{fill:#2B2C2D;} .st5{fill:#555555;} .st6{fill:#222324;} .st7{fill:#910000;} .st8{fill:#CD1316;} .st9{fill:#040608;} .st10{fill:#CECFD1;} </style><radialGradient id="SVGID_1_" cx="255.8" cy="54.1773" r="255.1887" gradientTransform="matrix(1 0 0 1 0 202)" gradientUnits="userSpaceOnUse"><stop offset="0" style="stop-color:#CE5B5B"/><stop offset="0.99" style="stop-color:#910000"/></radialGradient><path class="st0" d="M256,511.4C115,511.4,0.7,397.2,0.6,256.3c0-67.8,26.9-132.8,74.9-180.7c99.7-99.6,261.3-99.5,360.9,0.3 s99.5,261.3-0.3,360.9c-23.2,23.2-50.7,41.7-80.9,54.5C323.8,504.6,290.1,511.4,256,511.4z"/><path class="st1" d="M233.5,401.3c-16-0.6-24,18.8-39.7,24.5c0,0,0.7,23.5,14.3,21.3c17.9-2.9,23.9-6.1,32.8-1.5 c8.9,4.6,8.7,17.9,23.2,21c14.4,3.1,31.2-32.4,63.5-35.4c22.1-2.1,34.2-28.3,34.2-28.3C287.8,426.9,252.1,401.9,233.5,401.3z"/><path id="Fog_Fill" class="st2" d="M437.8,391c-0.1-18.2-44.7-18.4-20.2-30.8c27.6-14,16.5-32.6-7.4-40 c-114.8-35.1-257-47.6-314.5-2.4c-9.9,7.7-5.4,30.1,5.4,44c12.8,16.5-11,27.2-24.5,32.2c4.5-0.1,9-0.7,13.4-1.5 c-3.3,18.6,11.7,13.1,42.5,11c22.7-1.5,15.7,23.3,36.8,34.7c14.4,7.8,49.4-25.2,69-24.5c19.6,0.7,47.3,22.8,129.6-8.4 c4.9-1.8,10.5-2.1,16.2-2.6c-1.7,2.9-3.5,6.4-5.4,10.4c10.3-8.6,25.1-10.8,29.1-11.3C424.5,401.5,437.9,400.5,437.8,391z"/><path class="st3" d="M104.9,350.5c0,0,28.3,38.5,88.7,29.3c25.8-3.9,56.2-18.6,88.5-18.3c27.9,0.3-20.1,28.4,6.6,24 c42.7-6.8,110-31,133.2-31c72,0-12.2-43.9-12.2-43.9l-299.6,8.2L104.9,350.5z"/><path id="Dementor_Fill" class="st4" d="M93.9,229.3c-2.3,1.8-6.4,3.9-10.7,5.7h14.7c5.1,0,10.1,0.7,14.9,2.2l2.6-14l11.9-9.9h278.2 l11.8,9.9l2.4,12.8c3.1-0.7,6.2-1,9.3-1h6.8c0.4-1.5,0.4-3.2,0.1-4.9c-2.9-12.1-26.5-23.2-26.5-23.2s10.7-3.9,12.2-6.6 c-33.3,7.6-56.9-19.3-67.6-29.6c-24.5-5.9-54.4-36.8-59.8-37.3s-11.2,4.9-21.1,5.5s-22.6-22.1-23-29s5.9-18.6,6.8-39.7 c1-21.1-15.7-27.4-31.3-27.4s-28.7,7-32.4,27.9c-4,23.3,19.6,50.5,17.1,65.2s-21.5,10.3-27.9,11.2c-2.4,7.9-36.8,46.5-39,48 c-2.1,1.5-4.7-0.5-16.5-2.4c-26.5,12.7-25.5,23-28.9,27.6c-3.4,4.6-11.2,4.3-15.2,0C84.1,228.9,89.4,228.5,93.9,229.3z"/><path class="st5" d="M387.3,197.5c0,0,20.2,7.5,34.3,3C419.7,202.5,406.6,210.3,387.3,197.5z"/><path class="st5" d="M271.1,140.5c0,0,9.9-0.5,15.3-2.9c7.9,4.4,0.4,7,0.4,7L271.1,140.5z"/><path class="st5" d="M217.4,50.9c0,0,16.2-1.8,34.3,7.6C233,40,217.4,50.9,217.4,50.9z"/><path class="st5" d="M145.2,194.7c1,2.5,2.1,5,3.5,7.3c0.4-10.1,10-15.5,15.1-26.7L145.2,194.7z"/><path class="st5" d="M127.6,194.4l4,0.5l9,1.6c-3.7-0.4-7.4-0.6-11-0.6c0,0-21.9,11.5-25.4,15.5 C111.9,200.8,126.2,195.2,127.6,194.4z"/><path class="st5" d="M83.3,220.9c0,0,6.2,4.8,13.1,2.3C90.7,226.9,85.3,226.7,83.3,220.9z"/><path class="st5" d="M334.6,164.9l41.2,37.5c-19.9-11-36.4-24.3-44.3-39L334.6,164.9z"/><path d="M251.8,70.7c0,0-8,46.5-8.5,52c-0.5,5.4-11-26-10.5-39.7c7.6,9.8,8.1,10.5,8.1,10.5S245.7,78.8,251.8,70.7z"/><path d="M222.5,87.9c0,0,11,59.6,11.2,68.2C234,164.7,218.6,96.2,222.5,87.9z"/><path d="M250.4,130.6c0,0,4.9,8.4,15.2,19.5c-4-1.2-6.7-2.4-5,0c1.7,2.4,3.7,6.2,3.7,6.2s-3.2-2.9-3.9-1.2 c-0.7,1.7-2.9,17.9-2.4,21.1c0.5,3.2-13-30.4-11.8-36.8C247.6,133,250.4,130.6,250.4,130.6z"/><path d="M285,163.4c0,0,25.4,19.4,29.6,24.1c-4.6,0.7-19.6-4.6-22.6-4.2c-1.5,1.2-2,17.4,0.2,22.3c-5.7-7.4-13.1-11.2-10.9-21.2 C283.6,174.5,285.7,171.3,285,163.4z"/><path d="M221.8,213.4c-9.1-11.2-5.4-31.2-5.4-31.2c-1.2,0.9-2.4,1.8-3.5,2.9c-1.8,4.8-1,22.7-0.6,28.2H221.8z"/><path d="M271.3,213.4l-13.7-27.5c-1.2,5.4-3.2,7.6-5.7,9.8c-2.6,2.2-8,0.5-11-1.5c-0.8,2.6-1.5,5.4-2,8.1c0,0-1.5-1.5-5.1-5.9 c-0.1,4,3.1,12.5,4.9,17H271.3z"/><path d="M346.2,213.4l-9.9-8.4c-0.6,2.8-5.4,6.2-8.8,8.4H346.2z"/><path d="M194.1,213.4l-4.7-17.5c-0.7,3.9-4.9,9-4.9,9s1-11.5,0.5-14.2c-0.4-2.6-1-1.2-4.6,4.4c-2.6,4-8.3,13.1-11.5,18.2H194.1z"/><path id="Contour" d="M437.5,229.7c-0.4-1.4-1-2.8-1.7-4c-1.5-2.4-3.2-4.6-5.3-6.5c-2-1.9-4.1-3.6-6.3-5.2c-3.6-2.6-7.4-4.9-11.3-7 l0.5-0.3c1-0.6,2.1-1.2,3.1-1.8c1-0.6,2.1-1.2,3-2c0.5-0.4,1-0.7,1.4-1.2c0.4-0.4,0.8-0.9,1.1-1.4l0.1-0.2l-0.2,0.1l0,0 c-6.3,1.2-12.8,1.3-19.1,0.2c-6.2-1.2-12.4-3.3-17.9-6.5c-5.6-3.1-10.8-6.8-15.6-11c-2.4-2.1-4.7-4.3-7.1-6.5s-4.6-4.5-7-6.8 l-0.3-0.3l-0.4,0l0,0c-7.3-1.6-14.2-5.1-20.7-9c-6.5-4-12.7-8.5-18.7-13.2c-3-2.4-5.9-4.9-8.8-7.4c-1.5-1.2-2.9-2.5-4.4-3.7 c-1.5-1.3-3.2-2.5-4.9-3.5c-0.6-0.3-1.2-0.6-1.8-0.7c-0.2-0.1-0.4-0.1-0.7-0.1h-0.4c-0.3,0-0.6,0-0.9,0c-1.1,0.1-2.2,0.3-3.3,0.6 c-2.1,0.6-3.8,1.4-5.6,2.1c-3.3,1.5-6.8,2.6-10.5,3.1l-0.7,0.1c-0.1,0-0.4,0-0.5,0c-0.4,0-0.7-0.1-1.1-0.1c-0.8-0.2-1.6-0.4-2.3-0.9 c-1.6-0.9-3-1.9-4.3-3.2c-2.7-2.6-5.1-5.5-7.2-8.7c-2.1-3.2-3.9-6.5-5.3-10.1c-0.7-1.7-1.2-3.5-1.2-5.3c0.1-1.8,0.4-3.7,0.8-5.5 c0.9-3.7,2.1-7.4,2.9-11.1c0.9-3.7,1.8-7.6,2.4-11.4s1.1-7.7,1.3-11.6c0.3-4-0.3-8.2-1.6-12c-1.5-4-4-7.4-7.3-10 c-3.3-2.5-7.1-4.3-11-5.4c-3.9-1-7.9-1.6-11.9-1.7c-4-0.1-8.1,0.3-12.1,1.2c-4,1-7.9,2.9-11.1,5.4c-3.2,2.6-6,5.9-7.8,9.6 c-1.8,3.6-3.2,7.5-3.9,11.5c-0.8,4-1,8-0.5,12.1c1,7.9,3.7,15.4,6.8,22.4c3.1,7.1,6.6,14,9.2,21c1.2,3.5,2.3,7.2,2.1,10.8 c-0.1,1.8-0.6,3.5-1.4,5.1c-0.8,1.5-2.1,2.8-3.5,3.7c-1.5,0.9-3.2,1.5-5,1.9c-1.8,0.4-3.7,0.6-5.5,0.6c-1.8,0.1-7.7-0.5-11.5,1.4 c-3.7,1.9-6.3,6.4-7.3,7.7c-1.9,2.6-3.7,5.3-5.7,7.9c-4.1,5.1-7.5,9.9-11.8,14.9l-6.2,7.6c-2.1,2.5-4.2,5.1-6.4,7.5 c-0.5,0.6-1.1,1.2-1.6,1.8c-0.2,0.2-0.5,0.4-0.8,0.5c-0.3,0.1-0.7,0.1-1,0.1c-1.5-0.3-3.1-0.7-4.6-1.2c-3.2-1-6.4-1.8-9.6-2.5l0,0 l-0.4-0.1l-0.4,0.2c-4.4,2.1-8.7,4.6-12.7,7.4c-4.1,2.8-7.8,6.2-10.7,10.3c-1.4,2.1-2.6,4.3-3.5,6.6c-0.4,1.1-0.9,2.3-1.5,3.2 c-0.5,1-1.2,1.8-2.1,2.4c-1.9,1.2-4.2,1.8-6.4,1.5c-2.4-0.2-4.6-1.2-6.2-2.8l-0.5-0.5v0.7c0.1,1.3,0.3,2.7,0.7,4 c0.4,1.4,1.2,2.6,2.4,3.5c1.2,0.9,2.5,1.5,3.9,1.8l0.4,0.1c-1.1,0.7-2.2,1.2-3.3,1.8c-2.2,1.1-4.4,2.1-6.6,3l-0.9,0.4h7.3h11 c5.1,0,10.1,0.7,14.9,2.2l2.6-14l11.8-9.9h21.9l-6-13.9l-12.1-2.6c-7.5,2.4-13.5,6.4-19.3,11.2l-7.9,8.1c-1.7,4.7-4.9,8.7-9,11.5 h-0.7c-1.4-0.1-2.6-0.1-3.9-0.3c-1.2-0.1-2.3-0.4-3.3-1c-1-0.6-1.8-1.5-2.4-2.6c-0.4-0.8-0.7-1.7-1-2.6c1.6,1.5,3.6,2.5,5.8,2.9 c2.6,0.5,5.3,0,7.5-1.4c1.1-0.7,2.1-1.7,2.8-2.9c0.7-1.1,1.2-2.3,1.6-3.3c1-2.1,2.1-4.2,3.5-6.1c2.9-3.7,6.5-6.8,10.4-9.4 c3.9-2.5,7.9-4.8,12.1-6.8c3.1,0.4,6.1,0.8,9.2,1.4l2.4,0.4c0.9,0.1,1.7,0.3,2.6,0.3c0.4,0,0.7-0.1,1-0.1 c4.9,5.7,8.7,11.5,10.4,17.1h1.8c-1-3.5-6.8-14.6-9.7-18.6c0.4-0.4,0.7-0.7,1-1c4.7-4.6,9.2-9.4,13.6-14.4 c4.3-4.9,8.7-9.9,12.8-15.1c1.1-1.4,2.2-2.8,3.3-4.2l4.1-2c7.1-3.4,16-3.9,21.3-4.4c-1.4,2.1-2.4,6-4.4,19.9 c2.3-11.8,17-31.5,18.4-35.7c3.9,20.8,10.8,32.1,14,36.8c-4.2-9-6.8-49.5-8.8-57.4s-15.7-37.7-15.7-37.7c-0.3,7-1.9,13.8-4.7,20.2 c-1.1-2.9-2.1-5.9-3-8.8c-1.1-3.6-1.8-7.3-2.1-11c-0.1-1.8-0.1-3.6,0-5.4s0.4-3.6,0.8-5.4c0.7-3.6,2.1-7,3.7-10.2 c1.7-3.1,4-5.9,6.8-8c2.9-2.1,6-3.7,9.5-4.5c3.5-0.9,7.2-1.2,10.8-1.2c3.7,0,7.3,0.4,10.9,1.3c3.5,0.8,6.8,2.4,9.7,4.4 c2.9,2.1,5.1,4.9,6.5,8.2c1.3,3.4,2,7,1.9,10.6c0,3.8-0.3,7.6-0.7,11.3c-0.4,3.7-1.1,7.6-2,11.2c-0.4,1.8-0.9,3.7-1.3,5.6 s-1,3.7-1.4,5.6c-0.5,1.9-0.7,3.9-0.8,5.9c0,0.5,0.1,1,0.1,1.5c0.1,0.5,0.2,1,0.4,1.5c0.3,1,0.6,1.9,1,2.8c0.7,1.8,1.5,3.6,2.4,5.4 c0.9,1.8,1.8,3.5,2.8,5.1c2,3.4,4.3,6.5,7,9.5c1.4,1.5,2.9,2.8,4.7,3.9c1,0.6,1.9,1,3,1.3c0.6,0.1,1.1,0.3,1.7,0.3 c0.3,0,0.6,0,0.9,0h0.7c4-0.3,7.9-1.2,11.7-2.8c1.8-0.7,3.6-1.5,5.2-1.9c0.7-0.2,1.5-0.4,2.4-0.4c0.2,0,0.4,0,0.5,0h0.3l0,0 c0.3,0.1,0.6,0.2,0.9,0.4c1.6,0.9,3.1,1.8,4.6,2.9l4.7,3.3c3.1,2.3,6.2,4.5,9.3,6.8c2.9,2.1,5.7,4.3,8.7,6.4l46.7,40.7 c-6-8.8-21.8-23.2-28.9-29.5c0.9,0.4,1.8,0.9,2.6,1.3c3.4,1.7,6.9,3.1,10.6,4.1c4.4,4.6,9.1,9,14,13c5.1,4.2,10.5,7.8,16.4,10.8 c5.9,3,12.2,5,18.7,5.9c6.4,0.8,12.9,0.4,19.1-1.2c-0.7,0.7-1.6,1.3-2.6,1.8c-1,0.5-2.1,1-3.2,1.3s-2.2,0.7-3.3,1.1 c-1.1,0.4-2.2,0.7-3.3,1l0,0l-3.3,1.1l3.1,1.5c4.7,2.3,9.2,5,13.5,8c2.1,1.5,4.1,3.2,6,4.9c1.8,1.7,3.5,3.7,4.8,5.8 c1.2,2,1.8,4.3,1.5,6.6c-0.1,0.4-0.1,0.8-0.3,1.2h3c0.1-0.2,0.1-0.5,0.1-0.7C437.9,232.8,437.9,231.2,437.5,229.7z"/><path id="Cloth_Left_Fill" class="st6" d="M52.8,264.7l4.9,7.6l-4.6,23.7c0,0-5.1,10.3,5.6,27.7c-8.9-7.4-11.5-14.3-12.4-21.9 l-3.2,11C43.2,313,39.1,287.8,52.8,264.7z"/><path id="Cloth_Left_Contour" d="M53.1,316c-0.6-0.8-1.2-1.7-1.7-2.6c-1-1.8-1.8-3.7-2.4-5.6c-0.6-2-1-4-1.3-6.1l0,0l-1.4-6.8 l-1.2,6.6l-1.7,8.5c-0.2-3.2-0.3-6.4-0.1-9.6c0.2-4.1,0.7-8.2,1.5-12.4c1.4-7.5,7.3-19.9,9-22.1l-1.2-2 c-6.2,9.1-10.1,21.5-10.6,36.5c-0.1,4.2,0.1,8.3,0.7,12.4l0.2,1.7l0.6-1.6l0,0l2.2-5.9c0.1,0.5,0.3,1,0.4,1.5 c0.7,2.2,1.5,4.3,2.7,6.2c2.9,4.5,6.3,8.5,10.4,12.1l6.2,5.2c0,0-12.1-19.9-12.8-34c0,0.1,1.9-10,1.9-10s-2.9,7.4-3.3,10.2 C50.7,304.3,51.3,310.3,53.1,316z"/><path id="Font_Contour" class="st3" d="M41.8,354.5l15.9-82.2l-12.3-19.2v-6.8l6.2-11.2l46.4,0.1c5.1,0,10.1,0.7,14.9,2.2l2.6-14 l11.8-9.9h278.2l11.8,9.9l2.4,12.8c3.1-0.7,6.2-1,9.3-1h37.4l6.2,11v6.8l-17,28.4l1.9,1.8c6.3,6.2,17.3,18.5,20,31.7 c0.7,3.1,0.9,6.2,0.7,9.3c0.5,7.4-1.4,13.7-5.7,19c-8.4,10.2-22.4,11.3-28.1,11.3h-40.1l-6-11.5v-6.5h-78.9v11.5l-16.4,5.6 L291,336.3h-77l-6.1,14l-16.2-0.1l-4.5-14h-59.4c-12.6,11.5-29,18.1-45.2,18.1L41.8,354.5z M82.7,341.3c14.6,0,29.3-6.2,40.4-16.8 l1.3-1.2h69.3l4.5,14h4l6.1-14h87.4l11,15.4l4-1.4l-0.7-14h108.2l-3.1,4.4h7.4l-14,11l1.3,2.6h34.7c4.4,0,15.3-0.8,21.3-8.1 c2.1-2.6,3.5-5.7,3.7-9.1c-0.1-1-0.2-2.1-0.4-3.1c-2.2-10.9-11.9-21.6-17.5-27.1l-2.6-2.4c-2.9-2.7-5.6-5.6-8.1-8.6l-6-7.4l3.7,0.1 l-3.7-4.5l9.5,0.1c2.1,0,4,0.1,4.4,0.2l0,0l12.1-20.3c-14-1.2-30.2-2.6-32-2.8c-3.7,0-7.5,0.7-11,2l-4.9,1.8l-3.7-19.6l-7.1-5.7 H130.5l-6.9,5.8l-4,21.4l-5.1-2.2c-5.2-2.2-10.8-3.4-16.5-3.4l-40.6,2.9l10.1,15.8l-0.7,3.4l0.7,1l-14.3,69.8H82.7z"/><path class="st7" d="M473.4,320.1c-2.4-12-12.7-23.5-18.7-29.3l-2.6-2.5c-2.7-2.6-5.3-5.3-7.7-8.2c2.2,0,4.1,0.1,4.1,0.1l2.7,0.2 l17.1-28.7v-4.4c0,0-38.8-3.4-39.2-3.4c-4.3,0-8.7,0.7-12.8,2.3l-3-16.1l-9.4-7.8h-275l-9.4,7.8l-3.2,17.6c-5.8-2.5-12-3.7-18.3-3.7 l-48.2,3.5v4.4L63,272.4L48,345.7v4.4h34.8c15.8,0,31.5-6.5,43.5-18.1h64.4l4.5,14h10.1l6.1-14h82.2l11.5,16.2l10.3-3.5v-4.4 l-0.4-8.3h94.9l-6.9,5.4v4.4l4.3,8.2h37.4c5,0,17.5-1,24.7-9.7C473.6,335,475,328.2,473.4,320.1z"/><path class="st8" d="M473.5,315.7c-2.4-12-12.7-23.5-18.7-29.3l-2.6-2.5c-2.7-2.6-5.3-5.4-7.7-8.2c2.2,0,4.1,0.1,4.1,0.1l2.7,0.2 l17.1-28.7l-4.4-7.8h-34.8c-4.3,0-8.7,0.7-12.8,2.3l-3-16l-9.3-7.8H129l-9.4,7.8l-3.2,17.5c-5.8-2.5-12.1-3.7-18.4-3.7l-43.7-0.1 l-4.4,8L63,268L48,345.7h34.8c15.8,0,31.5-6.5,43.5-18.1h64.4l4.5,14h10.1l6-14h82.3l11.5,16.2l10.3-3.5l-0.6-12.7h95.1l-6.9,9.9 l4.3,8.2h37.4c5,0,17.5-1,24.7-9.7C473.7,330.6,475.1,323.7,473.5,315.7z"/><path id="Black" class="st9" d="M469,316.6c-2.2-11.1-12.5-22.2-17.4-27.1l0,0L449,287c0,0-11.5-11-11.8-14.9 c1.7-1.5,11.6-0.8,11.6-0.8l14.4-24.2l-1.9-3.3h-32.2c-3.9,0-13.7,0.7-19.5,7.6c-2.5,2.9-3.9,6.5-4.2,10.4H275.2l-7.2-11l-4,1.2 l0.1,9.8h-132c-7.6-11.2-20.4-18-34.1-17.9l-41.2-0.1l-1.8,3.4l12.7,19.9l-14.4,74.2h29.4c15.4,0,30.7-6.9,41.7-18.1h69.4l4.5,13.8 h4l6-13.9h87.4l11,15.4l4-1.4l-0.7-14h103.5l2.9,2.6l-8.5,12l1.8,3.5h34.7c4.4,0,15.3-0.8,21.3-8.1 C469.3,328.9,470.4,323.3,469,316.6z"/><path id="DEMENTORS" class="st3" d="M353.1,265.8c-9.5,0-16.2,11.9-15,26.7c1.2,14.8,10.2,26.7,20.2,26.7s16.7-11.9,15-26.7 C371.6,277.8,362.6,265.8,353.1,265.8z M357,305.4c-3.3,0-6.5-5.8-7.1-12.9s1.4-12.9,4.6-12.9s6.4,5.8,7.1,12.9 C362.4,299.6,360.3,305.4,357,305.4z M263.8,266.2l0.1,15.7l-6.2-6h-9.9l-0.1,11.8h10v9.6h-10.1l-0.1,11.8h10.2l6.4-6l0.1,15.7 h-26.2l1-46.5l-3.4-6h3.5H263.8z M169.6,266.2l-1.5,15.7l-5.7-6h-9.9l-1.3,11.8h10l-1,9.6h-10.1l-1.3,11.8h10.3l7-6l-1.5,15.7h-35.1 l0,0c6-6.1,10.5-15.6,11.8-26.2c1.2-10.7-0.8-20.1-5.1-26.2l0,0L169.6,266.2z M388.1,296.7h3.2l26,24.1l4.7-6.6l-20.7-18.8 c0,0,8-2.9,6.6-14.2c-1-8.3-8.5-15-16.2-15h-24.3c5.7,6.2,9.9,15.7,11.2,26.2c1.3,10.6-0.9,20.1-5.3,26.2h23.3l-6.5-5.7L388.1,296.7 z M385.3,275.5h5.1c3,0,5.9,2.6,6.3,5.9c0.4,3.2-1.7,5.9-4.8,5.9h-5.1L385.3,275.5z M325.2,275.8l2.5,37l4,6H315l3.2-6l-2.1-37 h-12.6L306,330L278,290.4l0.4,22.4l3.7,6h-13.1l-0.6-59.3l26.8,40.9l-1-28.2l-3.8-6h49c-2,2.9-3.5,6.2-4.5,9.6L325.2,275.8z M233.5,318.8h-16.8l7.1-6l-4-27L200.5,330l-14.1-44l-7.1,26.8l6.3,6h-16.8l11.8-46.5l-3-6h18.5l6.5,28.2l9.7-28.2h18.4l-3.7,6 L233.5,318.8z M457.5,248.3l-11.2,18.7h-3.8c-19.8,0-3.8,16,0.6,19.9l-17.4,6c-3.2-3.2-13.8-14.6-15.5-25.2 c-3.2-20.8,19.9-19.4,19.9-19.4L457.5,248.3L457.5,248.3z M464.7,317.4c4.2,20.8-21.2,19.4-21.2,19.4H414l13.1-18.7h3.5 c21.2,0,3.7-16.5-0.4-20.1l17.6-6C451.1,295,462.6,306.6,464.7,317.4L464.7,317.4z M130.2,307.8c-9.3,17.7-28.5,29.1-47.6,29h-24 c0,0,2.3-11.7,4.9-25.6l19-5.7l-1.6,9h9.9c9.6,0,19.3-6,24.1-14.9c2.7-5.1,3.4-10.1,2.2-15.1c-2-8.7-9.8-14.9-18.8-14.8h-9.6 l-5.1,29.3l-18.9,5.7l7.5-38.8l-11.5-17.9l37.1,0.1c17.5,0,31.9,11.3,36.2,29C136.8,287.5,135.5,297.6,130.2,307.8z"/><path class="st3" d="M152.9,236.4c-0.1,1.6-0.7,3.2-1.4,4.6c-0.7,1.2-1.6,2.4-2.7,3.3c-1.2,0.9-2.5,1.5-3.9,2 c-1.5,0.4-3.2,0.7-4.8,0.7c-0.8,0-1.8,0-2.8-0.1c-1-0.1-1.9-0.2-2.9-0.4l2.8-19.8c1-0.2,2-0.4,3-0.4c1-0.1,2-0.1,2.8-0.1 c1.5,0,3,0.1,4.5,0.6c1.2,0.4,2.4,1,3.3,1.8c0.9,0.9,1.5,2,1.9,3.2C153.1,233.3,153.2,234.9,152.9,236.4z M138.6,243.6 c0.2,0,0.5,0,0.8,0.1c0.3,0.1,0.8,0,1.4,0c2.5,0,4.4-0.7,5.8-1.9c1.5-1.4,2.4-3.3,2.5-5.4c0.3-2.3-0.1-4-1.1-5.3 c-1-1.2-2.7-1.8-5.2-1.8c-0.7,0-1.5,0-2.3,0.1L138.6,243.6z"/><path class="st3" d="M172.9,247.2c-1.2,0-2.4-0.1-3.5-0.6c-0.9-0.4-1.7-1-2.3-1.7c-0.6-0.7-1-1.6-1.2-2.6c-0.2-1.1-0.2-2.1-0.1-3.2 l1.4-12.6h3.7l-1.2,12.2c-0.1,0.8-0.1,1.6,0.1,2.4c0.1,0.6,0.4,1.2,0.7,1.6c0.3,0.4,0.7,0.7,1.2,1c0.5,0.2,1.1,0.3,1.7,0.3 c0.6,0,1.2-0.1,1.8-0.3c0.6-0.2,1-0.5,1.5-1c0.4-0.4,0.8-1,1-1.6c0.3-0.7,0.4-1.5,0.5-2.4l1.2-12.2h3.7l-1.2,12.6 c-0.1,1.1-0.4,2.2-0.8,3.2c-0.4,1-1,1.8-1.7,2.6s-1.7,1.4-2.6,1.8C175.4,247,174.2,247.2,172.9,247.2z"/><path class="st3" d="M200.2,243.9c1,0.1,2.1-0.1,2.9-0.7c1-0.7,1.3-2.1,0.8-3.2c-0.2-0.4-0.4-0.7-0.8-1c-0.4-0.3-0.9-0.6-1.3-0.8 c-0.5-0.2-1.1-0.5-1.8-0.7c-0.7-0.2-1.3-0.5-2-0.8c-0.6-0.3-1.2-0.7-1.6-1.1c-0.4-0.4-0.8-1-1.1-1.6c-0.3-0.7-0.4-1.5-0.3-2.2 c0.1-1.7,0.9-3.2,2.2-4.3c1.5-1.1,3.3-1.6,5.2-1.5c1.1,0,2.2,0.1,3.3,0.4c0.7,0.2,1.5,0.5,2.2,0.9l-1.3,2.9 c-0.7-0.4-1.3-0.7-2.1-0.8c-0.8-0.2-1.5-0.3-2.4-0.3c-0.8-0.1-1.6,0.1-2.4,0.6c-0.6,0.4-1,1-1,1.7c-0.1,0.4,0,0.8,0.2,1.2 c0.1,0.4,0.4,0.7,0.7,0.9c0.4,0.3,0.7,0.5,1.1,0.7c0.4,0.2,1,0.4,1.5,0.6c0.8,0.3,1.7,0.7,2.5,1.1c0.7,0.3,1.3,0.7,1.8,1.2 c0.5,0.5,0.8,1.1,1,1.8c0.2,0.8,0.3,1.6,0.2,2.5c0,1.7-0.8,3.3-2.2,4.3c-1.4,1-3.3,1.5-5.8,1.5c-1.4,0-2.8-0.1-4.1-0.6 c-0.4-0.1-0.9-0.3-1.4-0.5c-0.3-0.1-0.6-0.3-0.9-0.4l1.3-3.1c0.7,0.4,1.3,0.7,2.1,0.9C198.1,243.8,199.2,243.9,200.2,243.9z"/><path class="st3" d="M225.4,243.9c1,0.1,2.1-0.1,2.9-0.7c0.6-0.4,1-1.2,1-1.9c0-0.4-0.1-0.9-0.3-1.2c-0.2-0.4-0.5-0.7-0.8-1 c-0.4-0.3-0.9-0.6-1.3-0.8c-0.5-0.2-1.1-0.5-1.8-0.7c-0.7-0.2-1.3-0.5-2-0.8c-0.6-0.3-1.2-0.7-1.7-1.1c-0.4-0.4-0.9-1-1.1-1.6 c-0.3-0.7-0.4-1.5-0.4-2.2c0-1.6,0.8-3.2,2.1-4.3c1.5-1.1,3.3-1.6,5.1-1.5c1.1,0,2.2,0.1,3.3,0.4c0.7,0.2,1.5,0.5,2.2,0.9l-1.2,2.9 c-0.7-0.4-1.4-0.7-2.1-0.8c-0.8-0.2-1.6-0.3-2.4-0.3c-0.8-0.1-1.6,0.1-2.3,0.6c-0.6,0.4-0.9,1-0.9,1.7c0,0.4,0.1,0.8,0.2,1.2 c0.1,0.4,0.4,0.7,0.7,0.9c0.4,0.3,0.7,0.5,1.2,0.7c0.4,0.2,1,0.4,1.5,0.6c0.9,0.3,1.7,0.7,2.5,1.1c0.7,0.3,1.3,0.7,1.8,1.3 c0.5,0.5,0.9,1.1,1.1,1.8c0.3,0.8,0.4,1.6,0.3,2.5c0,1.7-0.7,3.3-2.1,4.3c-1.3,1-3.2,1.5-5.8,1.5c-0.7,0-1.5-0.1-2.3-0.1 c-0.6-0.1-1.2-0.2-1.8-0.4c-0.4-0.1-1-0.3-1.4-0.5c-0.3-0.1-0.6-0.3-1-0.4l1.2-3.1c0.7,0.4,1.4,0.7,2.1,0.9 C223.2,243.8,224.3,243.9,225.4,243.9z"/><path class="st3" d="M245.6,246.7l0.4-20.3h12.8v3.1h-9.2l-0.1,5h8.2v3.1h-8.4l-0.1,6h10v3.2L245.6,246.7z"/><path class="st3" d="M284.9,243.4l0.1,3.2h-12.9l-0.1-20.3h3.6l0.1,17.1H284.9z"/><path class="st3" d="M313.9,236.4c0.1,1.5-0.1,3.2-0.6,4.6c-0.4,1.2-1.2,2.4-2.1,3.3c-1,0.9-2.2,1.6-3.5,2c-1.5,0.4-3.1,0.7-4.7,0.7 c-0.8,0-1.8,0-2.8-0.1c-1-0.1-2-0.2-2.9-0.4l-0.6-19.8c1-0.2,2-0.4,2.9-0.4c1-0.1,1.9-0.1,2.7-0.1c1.5,0,3.1,0.1,4.6,0.6 c1.3,0.4,2.6,1,3.6,1.8s1.9,2,2.4,3.2C313.5,233.3,313.9,234.8,313.9,236.4z M300.7,243.6c0.2,0,0.5,0,0.9,0.1s0.8,0,1.4,0 c2.5,0,4.3-0.7,5.4-1.9c1.2-1.2,1.7-3,1.6-5.4s-0.7-4-2-5.3c-1.2-1.2-3.1-1.8-5.5-1.8c-0.7,0-1.5,0-2.3,0.1L300.7,243.6z"/><path class="st3" d="M345.9,236.4c0.1,1.5,0,3.2-0.4,4.6c-0.4,1.2-1,2.4-1.8,3.4c-0.8,0.9-1.8,1.6-2.9,2.1c-1.2,0.4-2.5,0.7-3.7,0.7 c-1.3,0-2.6-0.2-3.9-0.7c-1.2-0.4-2.4-1.2-3.3-2.1c-1-1-1.8-2.1-2.4-3.4c-0.7-1.5-1-3-1.1-4.6c-0.1-1.5,0.1-3.1,0.5-4.6 c0.4-1.2,1-2.4,1.9-3.3c0.8-0.9,1.8-1.5,2.9-2c1.2-0.4,2.4-0.7,3.7-0.7s2.6,0.2,3.7,0.7c1.2,0.4,2.3,1.1,3.2,2c1,1,1.8,2.1,2.4,3.3 C345.4,233.3,345.8,234.8,345.9,236.4z M330.1,236.4c0.1,1,0.3,2.1,0.6,3c0.3,0.9,0.7,1.6,1.3,2.4c1.1,1.3,2.8,2.1,4.6,2.1 c0.9,0,1.7-0.1,2.4-0.5c0.7-0.4,1.3-0.9,1.8-1.5c0.5-0.7,0.8-1.5,1-2.4c0.2-1,0.2-2.1,0.1-3c-0.1-1-0.3-2.1-0.7-3 c-0.3-0.8-0.7-1.6-1.3-2.3c-0.5-0.6-1.2-1.1-2-1.5c-0.8-0.4-1.6-0.5-2.5-0.5c-0.8,0-1.7,0.1-2.4,0.5c-0.7,0.4-1.3,0.8-1.8,1.5 c-0.5,0.7-0.8,1.5-1,2.3C330.1,234.4,330.1,235.4,330.1,236.4z"/><path class="st3" d="M363.6,226.2c2.9,0,5.1,0.5,6.8,1.5c1.7,1.1,2.7,2.9,2.9,4.9c0.3,2.7-0.8,4.6-3.4,5.6c0.4,0.4,0.9,1,1.5,1.7 c0.5,0.7,1.1,1.3,1.7,2.1c0.6,0.8,1.1,1.5,1.7,2.4c0.6,0.8,1,1.6,1.5,2.4H372c-0.4-0.7-1-1.5-1.5-2.2c-0.5-0.7-1-1.5-1.5-2.1 c-0.5-0.7-1-1.3-1.5-1.9c-0.4-0.6-1-1.1-1.4-1.6c-0.3,0-0.5,0-0.7,0h-2.4l0.8,7.8h-3.7l-1.9-20c0.9-0.2,1.8-0.3,2.8-0.4 C362,226.2,362.9,226.2,363.6,226.2z M364.2,229.3c-0.7,0-1.5,0-2.1,0.1l0.7,6.5h1.6c0.8,0,1.5-0.1,2.4-0.1c0.6-0.1,1.1-0.2,1.6-0.5 c0.4-0.2,0.7-0.6,0.9-1c0.2-0.5,0.3-1.1,0.1-1.6c-0.1-0.6-0.2-1.1-0.5-1.5c-0.3-0.4-0.7-0.8-1.1-1c-0.5-0.3-1-0.4-1.6-0.5 C365.5,229.4,364.9,229.3,364.2,229.3z"/><path class="st3" d="M388.3,246.7l-2.6-20.3h12.6l0.4,3.1h-9l0.7,5.1h8l0.4,3.2h-8l1.2,9L388.3,246.7z"/><polygon class="st3" points="176.6,230 172.9,230 173.2,226.4 176.8,226.4 "/><path id="Cloth_Right_Fill" class="st4" d="M420,235.8l-0.7-3.5c-10.5,6.6-19.7,15.1-27.1,25c5.4-5.9,26.3-9.1,26.3-9.1 s15-4.6,17.6-13.4c-4,0-7.1-0.2-7.2-0.2C426,234.7,422.9,235.1,420,235.8z"/><path id="Cloth_Right_Contour" d="M434.6,234.8c-0.7,1.8-1.9,3.3-3.3,4.6c-3.5,3.4-8.3,5.8-13,7.6c-2.3,0.4-4.6,1-6.8,1.5 c-2.2,0.6-4.6,1.2-6.8,2.1c-2.3,0.7-4.5,1.7-6.6,2.7c-1.8,0.8-3.4,1.9-4.9,3.2c1.8-1.9,3.7-3.8,5.5-5.7c2.1-2.1,4.4-4.2,6.7-6.2 c2.3-2,4.6-3.9,7.1-5.7c2.4-1.8,4.7-3.7,6.9-5.7l-0.2-1c-3,1-5.8,2.6-8.4,4.5c-2.4,1.9-4.8,4-7,6.2c-2.2,2.2-4.3,4.5-6.2,6.9 c-1.9,2.4-3.7,5-5.2,7.6l0,0c0.9-0.8,1.8-1.4,2.9-1.9c1-0.5,2.1-1,3.2-1.4c2.2-0.8,4.4-1.4,6.7-1.9c2.3-0.6,4.6-1,6.8-1.4 c2.3-0.4,4.6-0.8,6.8-1.1h0.1h0.1c2.6-0.8,5.2-1.8,7.7-3.1c2.4-1.2,4.5-2.6,6.4-4.5c1-1,3.7-3.7,4.5-7.4 C436.2,234.8,435.7,234.8,434.6,234.8z"/><path d="M122.4,215.9l1.8,1.8l10.4,12.4l9.6,11.6l0.1-0.1l-4.3-14.9h-2.5l0,0c0.8-0.1,1.5-0.3,2.4-0.4l-9-12.9l-4-1.1L122.4,215.9z" /><path d="M148.4,219.2c1.4,3,3,6,4.8,8.9h0.2c0.4-3.5-0.8-10.4-0.8-10.4s-2-2-4.3-4.4h-6.1C144.1,215,146.6,217.3,148.4,219.2z"/><path d="M118.8,236.3c0-0.1,0.1-0.1,0.1-0.1c-2.3-1.8-3.5-0.3-4.3-0.6c-0.5-0.1-8.6-1-9.6-2.6l4.8,6.5 C112.4,237.7,115.6,236.6,118.8,236.3z"/><path d="M115.8,223c0.1,0.4,0.3,0.7,0.4,1c3.2,2.4,8.7,12.1,8.7,12.1s3.9,2.8,10.5,6.6l0.1-0.1c-1.3-2.8-2.9-5.4-4.8-7.9l-10.4-15.1 l0.3-0.9L115.8,223z"/><path class="st10" d="M126.7,202.8l4.7-5c3.6,2,7.8,2.6,11.8,1.7c5.1,7.4,12.1,16.7,12.1,16.7s-0.8,7.7-1.8,11.8h-0.2 c-3.1-7.2-3.1-10.5-3.1-10.5c-3.9-5.4-9.8-12.2-9.8-12.2l-6.8-0.3l-3.1,2.9l8.8,17.3l4.9,16.3l-0.1,0.1l-9.3-13.5l-10.4-16.8 l-2.9-0.8l-1.5,2.5l9.6,18.9c0,0,4.9,6.2,6.2,10.7l-0.1,0.1c-6.8-5.3-10.4-8.2-10.4-8.2s-7.1-13.9-10.3-17.1c-1-1.7-1.5-5.1-1.5-5.1 l1.2-4.1h5.6l1.5-5.1L126.7,202.8z"/><path class="st10" d="M112.4,231.3c-1-0.5-4.4-7.6-4.4-7.6l4.7-6.2c-0.6-1.5-1-3-1.2-4.6v-1.5l-1.4-0.3l-8.8,12l8.8,13.5 c0,0,6.2-0.9,8.7-0.1l0.1-0.1C117,234.2,114.8,232.5,112.4,231.3z"/><path id="Cloth_Left_Fill-2" class="st4" d="M52.4,265.1l5.2,7.2l-4.6,23.7c0,0-5.1,10.3,5.6,27.7c-8.9-7.4-11.5-14.3-12.4-21.9 l-3.2,11C43.2,313,38.8,288.3,52.4,265.1z"/><path id="Cloth_Left_Contour-2" d="M53.1,316c-0.6-0.8-1.2-1.7-1.7-2.6c-1-1.8-1.8-3.7-2.4-5.6c-0.6-2-1-4-1.3-6.1l0,0l-1.4-6.8 l-1.2,6.6l-1.7,8.5c-0.2-3.2-0.3-6.4-0.1-9.6c0.2-4.1,0.7-8.2,1.5-12.4c1.4-7.5,7.1-19.7,8.9-21.8l-1.3-1.8 c-6.2,9.1-9.9,21.1-10.4,36.1c-0.1,4.2,0.1,8.3,0.7,12.4l0.2,1.7l0.6-1.6l0,0l2.2-5.9c0.1,0.5,0.3,1,0.4,1.5 c0.7,2.2,1.5,4.3,2.7,6.2c2.9,4.5,6.3,8.5,10.4,12.1l6.2,5.2c0,0-12.1-19.9-12.8-34c0,0.1,1.9-10,1.9-10s-2.9,7.4-3.3,10.2 C50.7,304.2,51.3,310.3,53.1,316z"/></svg> 