<?xml version="1.0" encoding="utf-8"?><svg version="1.1" id="Layer_1" xmlns="http://www.w3.org/2000/svg" xmlns:xlink="http://www.w3.org/1999/xlink" x="0px" y="0px" viewBox="0 0 512 512" style="enable-background:new 0 0 512 512;" xml:space="preserve"><style type="text/css"> .st0{fill:#2A272A;} .st1{fill:#544C4F;} .st2{fill:#554C4E;} .st3{fill:#574D4F;} .st4{fill:#5E5255;} .st5{fill:#554A4D;} .st6{fill:#51474A;} .st7{fill:#534A4D;} .st8{fill:#615456;} .st9{fill:#585154;} .st10{fill:#FCFBFB;} .st11{fill:#AEB8B8;} .st12{fill:#29272A;} .st13{fill:#2A282B;} .st14{fill:#D1C7C6;} .st15{fill:#FAFAFA;} .st16{fill:#FCFCFB;} .st17{fill:#FBFBFB;} .st18{fill:#FCFCFC;} .st19{fill:#EFEFEF;} .st20{fill:#F1F0F0;} </style><g><path class="st0" d="M287.7,194.1c0.8,0.6,1.7,1.3,2.5,1.9c1.1,1.4,2.8,2.2,4.4,1.8c3.9-1,7.3,0.4,10.8,1.4 c1.2,0.3,2.3,0.2,3.4,0.5c0.8-0.1,1.2,0.6,1.7,0.9c1.1,0.7,2.3,1.4,3.4,2c1.2,1.9,2.8,2.3,5.1,2.3c3.2,0,6.5-0.6,9.7-0.3 c2.9,0.2,5.9,0.7,8.7,1.7c1.2,1,2.4,1.3,3.9,0.6c1.7-0.8,3.5-1.4,5.5-1.5c1.8-0.1,3.2-1.6,5-1.9c0.2,0-0.1-0.1,0.2-0.1 c4.3-0.3,7.6-3.2,11.7-4.1c1.9-0.4,3.6-1.5,5.6-2c2.9-0.7,5.7-1.8,8.3-3.4c1.3-0.7,2.8-0.6,4.2-1.2c5.2-1.9,10-4.6,15-6.9 c6-2.8,11.4-6.7,17.2-9.7c0.3-0.2,0.6-0.4,0.9-0.6c1.7-1.6,3.5-2.8,5.7-3.7c2.6-1.1,4.2-3.7,6.8-5c2.4-1.2,4.2-3.3,6.7-4.5 c1.2-0.6,1.9-2.1,3.2-2.8c4.5-2.3,8.1-6,12.2-8.9c3.7-2.6,7.1-5.7,10.4-8.8c2.2-2,4.6-3.8,6.9-5.7c1.2-1,2.1-2.2,3.4-3.1 c3.1-2,5.5-4.9,8.2-7.3c3.6-3.2,7.6-5.9,11-9.3c1.1-1.2,2.6-2.1,3.8-3.2c0.1-0.1,0.3-0.3,0.5-0.3c3.6-0.8,7.3-1.4,10.9-0.2 c0.9,0.3,1.7,1,2.6,1.2c2.1,1.7,3,4,3.6,6.5c0.6,2.4,0,4.3-0.7,6.5c-0.9,2.6-2.3,5-3.2,7.6c-0.6,1.5-2,2.6-2.8,4 c-0.3,0.5-0.6,0.9-0.7,1.4c-0.1,0.3-0.3,0.8-0.5,0.9c-1,0.5-1.2,1.5-1.7,2.4c-0.4,0.8-0.6,1.7-2.2,2c2.4,1.6,3.1,3.8,3.9,5.9 c0.6,1.5,1,3.2,0.6,4.8c-0.8,3.6-2,7-4,10.2c-0.4,0.6-0.7,1.3-0.7,1.9c0.1,1.7-0.8,3.1-1.5,4.4c-1,1.9-1.2,4.2-2.5,5.8 c-1.3,1.6-1.3,3.5-2.2,5.1c-1.6,2.9-2.3,6.1-3.9,9c-0.3,0.5-0.5,1.1-0.8,1.7c-0.6,1.1-0.6,1.5,0.5,2.1c0.9,0.5,1,1.4,1.5,2 c2.4,3.1,2.6,6.6,1.9,10.4c-0.5,2.8-2,5.1-3.4,7.4c-0.5,0.9-1,1.8-1.4,2.7c-0.4,1.1-0.8,2.2-1.6,3.2c-0.9,1.1-1.4,2.6-2,4 c-0.2,0.4-0.2,0.8-0.6,1c-0.4,0.2-0.5,0.5-0.6,0.9c-0.3,1.4-0.9,2.9-1.7,4c-1.6,2.1-1.9,4.9-3.8,6.8c-0.6,0.6-0.6,1.6-1,2.3 c-1,1.9-2.5,3.4-3.3,5.5c-0.5,1.2-1.8,2.3-2.5,3.6c-0.8,1.3-1.8,2.4-2.9,3.5c-1.5,1.4-2.9,2.8-4.4,4.1c-0.9,0.7-0.9,1.9-0.5,2.9 c1,2.2,0.7,4.2,0,6.4c-0.4,1.3-0.3,2.7-1.1,3.9c-0.5,0.8-0.8,1.8-1.7,2.3c-0.4,0.2-0.5,0.7-0.8,1c-0.3,0.6-0.6,1.3-1.1,1.7 c-1.4,1.1-1.7,2.8-2.4,4.2c-0.3,0.6-0.6,1.2-1.1,1.7c-0.7,0.7-1.6,1.2-1.6,2.4c-1.9,1.8-2.7,4.3-4.5,6.2c-0.5,0.6-0.9,1.2-1.2,1.8 c-0.3,0.5-0.5,1.1-1.1,1.4c-0.3,0.1-0.7,0.5-0.7,0.8c-0.1,1.1-0.9,1.7-1.8,2.2c-0.2,0.1-0.4,0.2-0.4,0.4c-0.6,1.9-2.8,2.5-3.5,4.3 c-0.2,0.6-1.2,0.6-1.7,1c-2,1.5-4.2,2.6-6.5,3.7c-1.7,0.8-3.3,1.8-5.1,2.5c-0.7,0.3-1.4,0.5-1.8,1.2c-0.1,0.2-0.5,0.5-0.7,0.5 c-1.3,0.1-2.4,0.8-3.7,1c-0.7,0.1-1.4,0.4-1.8,0.8c-0.6,0.6-1.4,0.9-2.1,1.1c-1.5,0.5-3,0.9-4.6,1.3c-1.2,0.3-2.1,1.1-3.3,1.5 c-2.6,0.7-5.2,1.4-7.8,1.9c-0.7,0.1-1.1,0.7-1.8,0.9c-2.8,0.8-5.7,1.2-8.5,2c-0.4,0.1-0.8,0-1.1,0.5c-0.2,0.4-0.6,0.4-1,0.3 c-1.1-0.1-2.1,0.1-3.1,0.4c-2.1,0.5-4.3,1-6.5,0.8c-0.3,0-0.7-0.1-0.9,0c-2.4,1-4.8,0.8-7.3,0.8c-1,0-1.8,0.1-2.8,0.6 c-1.2,0.5-2.6,0.6-4,0.6c-2.4,0.1-4.8,0-7.2,0c-0.6,0-1.2,0-2,0c0.3,1.3,0.4,2.5,1,3.6c0.8,1.3,0.8,2.9,1.1,4.4 c0.2,1,0.9,1.7,1,2.7c0.4,3.1,0.9,6.1,1.4,9.2c0.4,2.4,0.9,4.9,0.5,7.3c-0.5,3.2-0.3,6.5-1.5,9.5c-0.3,0.6-0.1,1.3-0.2,2 c-0.4,2.4-2.3,4.3-2.6,6.7c-1.6,1.7-2.2,3.9-3.4,5.8c-0.8,1.3-2.2,2.1-3.2,3.3c-1.7,1.9-3.6,3.6-5.7,5.2c-0.7,0.6-1.6,0.7-2.4,1 c-2,0.8-4,1.6-6.1,2.2c-2.6,0.8-5.2,1.1-8,1.1c-1.4,0-2.7-0.1-4.1,0c-1.9,0.1-3.7-0.3-5.5-0.6c-0.6-0.1-1.1-0.1-1.5,0.4 c-1.9,1.9-4.2,3.1-6.3,4.6c-0.8,0.6-1.7,0.8-2.6,1c-1.7,0.4-3.5,0.7-5.1,1.4c-2.8,1.3-5.7,0.4-8.5,0.7c-1.5-1.1-2.3,0.2-3.4,0.9 c-0.3,0.2-0.5,0.3-0.7,0.6c-2.8,3.2-6.5,3.8-10.4,4c-4.2,0.1-8.4,0-12.6,0c-0.9,0-1.8-0.1-2.7-0.5c-1.2-0.6-2.6-0.4-3.8-1.2 c-0.7-0.5-1.5-0.8-2.1-1.5c-1.8,1.5-3.8,2.1-6,2.7c-1.4,0.4-2.8,0.5-4.2,0.4c-3.7,0-7.4-0.1-11.1,0c-3.2,0.1-6-0.9-8.8-2.3 c-0.3-0.2-0.7-0.4-0.9-0.7c-0.5-1-1.4-1.6-2.4-2c-0.5-0.2-0.8-0.5-1-1c-0.1-0.2-0.5-0.4-0.6-0.1c-0.4,0.9-1.3,0.6-1.9,0.6 c-1.6,0-3.2,0-4.8,0c-0.8,0-1.6,0.2-2.3-0.6c-0.5-0.5-1.5-0.3-2.3-0.5c-1.3-0.3-2.6-0.8-3.9-1.1c-1.5-0.3-2.4-1.7-3.9-2.2 c-0.1,0-0.2-0.2-0.3-0.2c-1.1-0.7-2.3-1.1-3.1-2.4c-0.8-1.3-2.4-0.9-3.6-0.7c-3.3,0.5-6.7,1-10,0.7c-3-0.3-6-0.8-9-1.2 c-1.1-0.2-1.8-1.2-2.8-1.6c-2.3-0.8-4.1-2.4-5.9-3.9c-1.4-1.2-2.8-2.5-3.4-4.5c-0.3-1-1.3-1.6-1.6-2.6c-0.5-1.3-1.7-2.4-1.5-4 c-1.6-1.3-1.3-3.3-1.8-5c-0.4-1.7-0.7-3.5-1-5.2c-0.6-2.6-0.2-5.2-0.4-7.7c-0.1-0.7-0.2-1.4-0.5-2.1c-0.7-1.6-0.7-3.4,0-5 c0.3-0.6,0.5-1.1,0.4-1.7c0-1.5,0.1-3.1,0-4.6c-0.2-3.1,0.5-6.1,1.2-9c0.3-1.4,0.7-2.8,0.9-4.3c0.1-0.6,0.3-1,0.6-1.5 c-0.5-0.5-1-0.2-1.5-0.3c-2.7,0-5.3,0.1-8,0c-1.7-0.1-3.4-0.1-4.9-1c-0.5-0.3-1.1-0.1-1.6-0.1c-2.6,0-5.2,0.3-7.7-0.8 c-0.4-0.2-0.9-0.1-1.3-0.1c-2,0-3.9-0.4-5.8-0.8c-1-0.2-2-0.7-3.1-0.5c-0.9,0.2-1.3-0.9-2.2-1c-2-0.2-4-1.1-6.1-1.2 c-0.5,0-1.1-0.2-1.6-0.5c-2.4-1.4-5.1-1.5-7.6-2.3c-1.4-0.4-3-0.5-4.1-1.7c-0.2-0.2-0.5-0.4-0.8-0.4c-2.1-0.3-3.9-1.5-6-1.7 c-0.1,0-0.3,0-0.3-0.1c-1.3-1.8-3.5-1.8-5.3-2.4c-1.1-0.4-1.9-1.5-3.1-1.8c-2.9-0.8-5.3-2.6-8-3.8c-2.3-1-4.5-2.4-6.3-4.3 c-0.3-0.3-0.6-0.6-1-0.8c-0.5-0.3-0.9-0.6-1.1-1.2c-0.5-1.2-1.4-2.2-2.5-2.9c-0.6-0.4-0.5-1.1-0.9-1.6c-1.2-1.7-2.5-3.2-3.6-5 c-0.7-1.2-1.5-2.3-2.3-3.5c-1.2-1.7-2.2-3.5-3.5-5.2c-1-1.3-1.4-2.9-2.5-4c-1.2-1.3-1.8-2.9-3-4.1c-1.2-1.3-1.7-2.8-1.9-4.4 c-0.2-1.5-0.5-3-0.5-4.6c0-1.3,0.4-2.5,0.6-3.8c0.2-0.9,0-1.6-0.6-1.9c-0.9-0.5-1.5-1.4-2.5-1.8c-1.1-0.4-1.8-1.5-2.6-2.3 c-1.2-1.4-2.6-2.7-3.3-4.5c-0.1-0.3-0.2-0.6-0.5-0.8c-1.2-1-1.8-2.3-2.4-3.7c-0.4-0.9-1.2-1.6-1.6-2.5c-1.2-2.6-3.3-4.8-4.2-7.7 c-0.4-1.2-1.4-2.2-1.9-3.3c-1.2-2.9-2.9-5.5-4-8.4c-0.5-1.3-1.6-2.4-2.1-3.8c-0.6-1.9-1.7-3.5-2.7-5.1c-0.2-0.4-0.4-0.8-0.5-1.2 c-0.1-2.2-0.4-4.4-0.6-6.6c-0.2-3,1.2-5.4,2.7-7.7c0.9-1.4,1.6-2.6,0.7-4.3c-0.7-1.3-0.8-2.8-2-3.8c-1-0.8-0.7-2-1.2-3 c-1-2-2.2-3.7-2.8-5.9c-0.1-0.5-0.4-0.9-0.4-1.4c0-0.7-0.4-1.3-0.9-1.7c-0.1-0.1-0.5-0.2-0.5-0.3c0.1-1.6-1.4-2.6-1.6-4.2 c-0.1-1.1-0.3-2.2-1.2-3.1c-0.7-0.9-0.9-2.1-1.2-3.2c-0.3-1.3-0.5-2.6-1.8-3.5c-0.6-0.4-1-1.4-1.1-2.2c-0.5-4-0.9-8,0.3-12 c0.4-1.2,1.3-1.9,1.9-2.8c0.5-0.7,0.6-1.3,0-1.7c-1.6-1.3-2.2-3.4-3.8-4.7c-0.4-0.4-0.6-0.9-0.8-1.4c-0.6-1.2-1.1-2.4-2-3.4 c-0.7-0.7-0.9-1.9-1.3-2.8c-0.6-1.2-1.1-2.3-1.9-3.3c-0.6-0.7-0.8-1.8-1.2-2.7c-1.2-2.5-1-4.9,0.4-7.3c0.3-0.5,0.5-1.1,0.7-1.7 c0.7-1.6,1.7-3,3.3-3.6c4-1.5,8-3,12.3-1.5c0.9,0.2,1.7,0.7,2.2,1.3c0.5,0.6,1.1,1.1,1.7,1.4c2.1,1,3.7,2.8,5.6,4 c1.6,1.1,3.1,2.5,4.5,3.9c1.2,1.2,2.4,2.5,3.7,3.4c1.7,1.2,3.2,2.7,4.8,4.1c2.2,1.9,4.3,3.9,6.6,5.8c2.1,1.7,4.2,3.4,6.2,5.3 c1.8,1.6,4.1,2.6,5.6,4.6c0.1,0.1,0.2,0.1,0.3,0.2c2.2,1.1,3.7,3,5.6,4.3c1.4,1,2.6,2.3,4.3,3c1,2,3.2,2.5,4.7,3.9 c2.4,2.1,5.1,3.9,7.7,5.8c1.3,0.9,3,1.3,3.9,2.9c2.4,0.9,4.1,2.9,6.2,4.2c3.4,2.2,7,4.3,10.2,6.7c1.1,0.8,2.6,1.2,3.7,2.1 c1.9,1.5,4.5,2,6.3,3.8c0.7,0.7,1.9,0.7,2.8,1.1c1.5,0.6,2.8,1.4,4.1,2.3c1.3,1,2.9,1.5,4.3,2.3c2.2,1.2,4.5,1.9,6.8,2.7 c1.1,0.4,2.5,0.8,3.3,1.5c1.8,1.5,4.2,1.5,6.2,2.5c1.8,1,4,1.1,6,1.7c0.4,0.1,0.8,0.2,1.2,0.4l0,0c0.5,0.4,1.1,0.8,1.8,0.8 c0.4,0,1.1,0,1.2,0.4c0.5,1.6,1.9,1.4,3.1,1.5c2.3,0.3,4.2,1.5,6.3,2c2.6,0.6,5.2,1.3,7.9,1.9c0.7,0.2,1.4,0.4,2.2,0.4 c0.2,0,0.4,0,0.6,0c3.5,2.1,7.1,1,10.6,0.2c1.2-0.3,2.4-0.4,3.6,0.1c0.6,0.3,1.4,0.2,2,0c1.7-0.6,3.4-0.7,5.1-0.4 c1.7,0.3,3.4-0.2,5.1,0.3c0.8,0.2,1.7-0.2,2.3-0.9c0.8-1,1.9-1.5,3.1-1.9c0.4-0.1,0.9-0.3,1.2-0.5c3-2.6,7-2.9,10.5-4.2 c1.7-0.6,3.5-0.3,5.3,0c1.2,0.2,2.3,0.3,3.3-0.7c1.3-0.6,2.6-1.3,3.7-2.4c1.5-1.4,3.6-1.4,5.5-1.8c2-0.5,4-1.3,6-1.7 c2.7-0.5,5.4-0.8,7.9,0.5c0.6,0.3,1.3,0.3,2,0.4c2.2,0.4,4.2,1.5,6.5,1.9l0,0c1.1,1.5,2.4,1.4,3.9,0.7c2.7-1.4,5.7-2,8.6-2.7 c3-0.8,6.3-0.3,9.5-0.3c1.5,0,2.8,0.4,4.2,1C283.8,193.2,285.9,193.2,287.7,194.1z"/><path class="st1" d="M507.1,114.1c-1,0.3-1.9,0.6-2.5-0.7c-0.1-0.3-0.6-0.6-0.9-0.5c-1.6,0.3-3.2-0.6-4.9,0 c-0.7,0.3-1.6,0.2-2.4,0.1c-1.9-0.2-3.2,0.6-4.2,2c-0.2,0.2-0.4,0.6-0.6,0.7c-1.7,0.6-2.5,2.1-3.8,3.1c-1.9,1.6-3.9,3.2-5.9,4.7 c-0.9,0.7-2,1.2-2.4,2.4c-0.1,0.2-0.3,0.5-0.5,0.5c-1.8,0.5-2.6,2.4-4.2,3.2c-0.4,0.2-0.6,0.8-0.8,1.2c-0.4,0.8-0.8,1.4-1.8,1.4 c-0.2,0-0.6,0.1-0.7,0.3c-0.7,1.5-2.6,1.7-3.3,3.2c-0.1,0.1-0.2,0.2-0.3,0.3c-1.6,1.2-3.3,2.3-4.4,4c-2.4,0.9-3.7,3.1-5.7,4.5 c-1.7,1.2-3,2.7-4.6,3.9c-2.8,2.1-5.4,4.6-8.5,6.2c-1.6,0.8-2.7,2.4-4,3.7c-0.4,0.4-0.7,0.8-1.3,0.9c-1.8,0.4-3.1,1.5-4.1,2.9 c-0.5,0.7-1,1.2-1.9,1.2c-0.4,0-0.7,0.1-1,0.4c-1.8,2.2-4.4,3.2-6.6,4.8c-0.3,0.2-0.7,0.3-0.8,0.5c-0.5,1.9-2.5,2-3.6,3.1 c-0.2,0.2-0.4,0.4-0.6,0.4c-1.7,0.2-3.1,1.2-4.1,2.3c-1.7,1.7-3.8,2.5-5.7,3.7c-3.1,2-6.3,3.8-9.4,5.7c-0.6,0.4-1.2,0.6-1.8,0.8 c-2.2,0.8-4.2,1.8-6,3.2c-1.3,1-2.9,0.9-4.3,1.7c-0.2,0.1-0.6,0.1-0.7,0.2c-0.4,1.3-1.8,1-2.6,1.5c-1.7,1.2-3.9,1.2-5.6,2.3 c-0.1,0.1-0.2,0.2-0.3,0.1c-2.6-0.5-4.2,2.1-6.6,2.3c-1.5,1.5-3.6,1-5.4,1.8c-0.7,0.3-1.5,0.5-2.2,0.9c-1.2,0.6-2.4,1.1-3.9,1 c-0.6-0.1-1.2,0.3-1.7,0.7c-1.4,1.2-3,1.8-4.7,2.3c-0.6,0.2-1.2,0.3-1.8,0.3c-0.2,0-0.6-0.1-0.7,0c-1.2,1.1-3.1,0.7-4.3,1.8 c-0.6,0.6-1.4,0.8-2.2,0.7c-2-0.2-3.7,0.7-5.4,1.5c-1.5,0.6-2.6,0.5-4-0.7c0.5-0.3,1.1-0.2,1.6,0c2.4-0.9,4.9-1.8,7.5-2 c1.3-0.1,2.6-0.9,3.7-1.4c1.9-0.9,4-1.1,5.9-1.9c1.1-0.4,2.3-0.4,3.1-1.3c0.2-0.2,0.4-0.3,0.7-0.3c1.7-0.2,3.2-1.2,5-1.3 c0.2,0,0.5-0.1,0.7-0.3c2.3-1.7,5.1-1.9,7.6-3c0.8-0.3,1.5-0.7,2.3-1c0.9-0.5,1.9-0.8,2.9-1.1c1.5-0.4,3.1-0.7,4.4-1.8 c0.9-0.8,2.3-0.9,3.4-1.2c1.8-0.4,3.2-1.5,4.8-2.2c0.1,0,0.2-0.2,0.3-0.2c3.2-0.8,5.6-3.2,8.8-4c1.7-1.7,4.3-2.1,6.1-3.8 c0.1-0.1,0.2-0.2,0.3-0.2c2.7-0.9,4.7-2.8,7.1-4.2c2.2-1.3,4.3-2.7,6.3-4.2c1-0.8,2.3-1.2,3.3-2c3.5-2.5,7-5,10.5-7.6 c2.2-1.7,4.6-3.2,6.7-5.1c2.2-1.9,4.5-3.8,6.9-5.4c2.1-1.4,3.8-3.2,5.9-4.6c1.3-0.9,2.7-1.9,3.8-3.1c1.9-2,4.3-3.3,6.1-5.2 c1.5-1.6,3.6-2.6,4.9-4.4c0.2-0.2,0.5-0.4,0.7-0.5c0.8-0.5,1.7-1,2.1-2c0.2-0.4,0.6-0.6,1-0.8c1.1-0.6,2-1.6,3-2.4 c1.5-1.2,2.6-2.9,4.4-3.9c0.6-0.3,1-0.8,1.4-1.2c0.3-0.3,0.4-0.7,0.7-0.8c2-1,3.4-2.7,4.9-4.1c1.7-1.7,3.7-2.9,5.5-4.5 c2.7-2.4,6-3.1,9.6-2.2c1.7,0.4,3.5,0.8,5,1.7C506.5,113.4,507,113.5,507.1,114.1z"/><path class="st2" d="M224.3,197.1c-0.3,0.9-0.9,1.2-1.9,1.1c-1.5-0.1-3-0.5-4.6-0.4c-1,0-2,0.1-2.9,0.5c-1.8,0.6-3.6,1.3-5.4,1.9 c-0.5,0.2-1,0.2-1.4,0.2c-0.5,0-1,0.2-1.3,0.6c-0.8,1.2-2.1,1.7-3.4,2c-0.7,0.2-1.4,0.4-1.7,1c-0.9,1.7-2.4,1.3-3.8,1.4 c-0.6,0-1.2-0.1-1.8,0.1c-0.6,0.2-1.2,0.1-1.8,0c-2-0.2-4-0.5-6,0.3c-0.8,0.4-1.8,0.4-2.7-0.2c-0.6-0.4-1.1-0.4-1.7-0.2 c-1.9,0.6-3.8,0.6-5.7,1.2c-1.9,0.6-3.7-0.1-5.5-1c-0.5-0.2-0.9-0.4-1.4-0.4c-0.2-0.2-0.6-0.4-0.3-0.8c1.9,0.3,3.9,0.6,5.8,0.8 c0.2,0,0.4,0,0.5,0c4.3-1.5,8.7-0.9,13.1-1c1.8,0,3.6,0,5.4,0c0.7,0,1.3,0,2,0.3c1,0.4,1.8,0.2,2.4-0.6c0.8-1.1,1.9-1.6,3-2.3 c1.3-0.7,2.3-1.9,3.8-2.5c1.4-0.5,2.8-0.8,4.2-1c1.1-0.2,2.2-0.1,3-1c0.5-0.6,1.4-0.3,2.1-0.5c1.5-0.3,3.1-0.6,4.7,0.1 C222,197.3,223.2,196.6,224.3,197.1z"/><path class="st3" d="M287.7,194.1c-0.6,0.1-1.2,0.1-1.8-0.3c-0.3-0.2-0.6-0.4-1-0.3c-1.6,0.3-3-0.2-4.2-1.2 c-0.4-0.3-0.9-0.4-1.4-0.3c-2.1,0.1-4.2-0.2-6.3,0.2c-0.8,0.1-1.7-0.2-2.5-0.2c-2.4,0-4.4,1.3-6.6,1.7c-1.6,0.3-2.9,0.9-4.3,1.4 c-2,0.7-2.7,0.4-3.8-1.2c1.2,0.8,2.3,0.7,3.7-0.1c1.7-0.9,3.8-1.3,5.6-2c2-0.6,4-0.9,6-1.4c2.1-0.5,4.4-0.1,6.5,0.4 c2.1,0.5,4.2,1.1,6.3,1.6C285.2,192.7,286.5,193.3,287.7,194.1z"/><path class="st4" d="M224.3,197.1c-1.1-0.2-2.3,0.4-3.4-0.4c2.3,0.6,4.1-0.5,5.6-1.9c1.4-1.4,3.2-1.8,4.9-2.4 c2.6-0.8,5.3-1.6,8-2.1c1.9-0.3,3.8-0.3,5.7,0c1.1,0.2,2.3,0.3,3.4,0.7c2.4,1.1,5.1,1,7.3,2.7c-0.7,0-1.5,0-2.2,0 c-0.5,0-1,0-1.4-0.4c-0.8-1.1-2-1.1-3.2-1c-0.9,0-1.7,0-2.4-0.7c-0.1-0.1-0.3-0.3-0.5-0.3c-2.2-0.1-4.5-0.5-6.6,0.1 c-3,0.9-5.9,1.8-9,2.4c-1,0.2-1.9,0.4-2.6,1.2C227,196.3,225.8,196.9,224.3,197.1z"/><path class="st5" d="M149,197.9c-1,0.2-2,0-3-0.4c-0.9-0.4-1.8-0.8-2.8-0.7c-0.9,0.1-1.7-0.1-2.2-1c-0.3-0.6-1.1-0.5-1.7-0.5 c-1.1,0-2.4,0.3-2.8-1.4c-0.1-0.4-0.7-0.5-1.1-0.5c-0.6,0-1.1,0-1.7,0c-0.5,0-1-0.1-1.1-0.7c-0.1-1-0.8-1.1-1.6-1.1 c-0.6,0-1.2,0-1.8,0c-0.9,0-1.7-0.3-2.2-1.1c-0.5-0.9-1.1-1.1-2.2-1.2c-1.6-0.1-2.9-1-3.7-2.6c2,0.6,3.9,1.3,5.6,2.6 c0.3,0.3,0.8,0.4,1.2,0.5c2,0.4,3.8,1,5.5,2.2c1,0.7,2.4,0.9,3.6,1.2c1.2,0.3,2.3,0.5,3.3,1.3c1.1,0.7,2.4,1.2,3.7,1.4 c1.3,0.2,2.4,1.2,3.9,1C148.5,196.8,148.6,197.5,149,197.9z"/><path class="st0" d="M20.4,112.5c-1,0-1.9,0.1-2.9-0.2c-0.4-0.1-0.9-0.1-1.3,0c-2.1,0.4-4.2,0.9-6.3,1.4c-2.5,0.7-4.1,2.2-4.9,4.7 c-0.1,0.5-0.4,0.9-0.7,1.3c-0.3,0.5-0.9,0.8-0.5,1.6c0,0.1,0,0.3,0,0.3c-1.5,1.4-0.4,2.9-0.2,4.4c0,0.2,0,0.4,0,0.5 c-0.8-1.7-1.4-3.4-0.8-5.4c0.4-1.3,0.6-2.6,1.2-3.8c1.2-2.7,3.2-4.5,5.9-5.3c2.1-0.6,4.2-1.3,6.4-1.1 C17.8,111.3,19.2,111.6,20.4,112.5z"/><path class="st6" d="M170.9,204.5c0.1,0.3,0.2,0.5,0.3,0.8c-2-0.6-4.1-0.6-6-1.4c-0.7-0.3-1.6-0.7-2.5-0.3 c-0.7,0.3-1.3-0.2-1.8-0.7c-0.5-0.5-1-0.7-1.7-0.6c-0.8,0.2-1.7,0.8-1.7-0.8c0-0.3-0.6-0.4-1-0.3c-1.3,0.2-2.5-0.5-3.8-0.4 c-0.6,0-1.1-0.2-0.9-1c0.2-0.8-0.3-0.8-0.8-0.8c-0.9,0-1.6-0.3-1.9-1.1c2.5,0.4,4.8,1.5,7.2,1.9c0.1,0,0.1,0,0.2,0 c2.6,2,5.8,1.9,8.7,2.8c1.4,0.4,2.6,1,3.9,1.7C169.6,204.5,170.3,204.2,170.9,204.5L170.9,204.5z"/><path class="st7" d="M308.8,199.7c-0.3,0.1-0.7,0.2-1,0.4c-0.5,0.3-0.9,0.4-1.4,0.1c-0.8-0.6-1.8-0.7-2.8-0.9 c-1.1-0.1-2.1-0.6-3.1-1c-1.1-0.5-2.1-0.5-3.2-0.3c-0.4,0.1-0.8,0.2-1.3,0.2c-1.6,0.4-3.2,0.3-4.7-0.7c-0.7-0.4-1.1-0.8-1.2-1.6 c1.6,0.9,3.1,1,4.9,0.5c1.3-0.3,2.6-0.1,4,0.1c1.5,0.2,2.6,1.1,4,1.3c1.4,0.2,2.7,0.5,4.1,0.9C307.8,199.1,308.4,199.2,308.8,199.7 z"/><path class="st8" d="M338.9,206.7c-0.5,0-1.1,0-1.6,0c-0.3-0.6-0.9-0.7-1.6-0.7c-2.1,0.1-4.2-0.3-6.2-1c-0.2-0.1-0.4-0.1-0.5-0.1 c-1.8,0.6-3.7,0.1-5.5,0.5c-0.7,0.2-1.4,0.2-2,0.1c-1.5-0.3-3-0.5-4.5-0.1c-0.5,0.1-1-0.2-1.3-0.5c-0.7-0.7-1.5-1.3-1.8-2.3 c0.3,0,0.5,0,0.6,0.3c0.8,1.8,2.3,2.1,3.9,1.7c1.7-0.4,3.3-0.3,4.9-0.3c1.7,0,3.3,0,5,0c2.8,0,5.6,0.8,8.3,1.3 C337.4,205.7,338.3,206.2,338.9,206.7z"/><path class="st9" d="M25.1,190.1c0.9,0.1,1.1,0.9,1.4,1.5c0.5,1.1,0.8,2.3,1.3,3.4c0.4,1,0.1,2.5-0.7,3.2c0,0-0.1,0.1-0.2,0.1 c-0.3,0.2-0.6,0.4-0.7,0.8c-0.2,2.1-2.7,3.4-2.2,5.8c0.3,1.5-0.5,3.1,0.6,4.5c-0.3,1-0.1,2.1-0.3,3.1c-0.7-0.8-0.5-1.9-0.6-2.8 c-0.3-3-0.4-6.1,0.5-9.1c0.6-1.9,2-3.3,3.2-4.8C26.7,193.8,26.1,191.9,25.1,190.1z"/><path class="st2" d="M170.9,204.5c-0.6,0-1.3,0.2-1.9-0.3C169.6,204.3,170.3,204.1,170.9,204.5z"/><path class="st10" d="M139.7,200.1c2.2,0.8,4.4,1.5,6.5,2.3c1.8,0.7,3.6,1.4,5.3,1.9c3.4,1,6.6,2.5,10.1,3.2 c2.1,0.4,4.2,0.8,6.1,1.8c0.8,0.4,1.7,0.2,2.5,0.5c2.2,0.9,4.6,1.1,7,1.2c0.6,0,1.3,0,1.8-0.3c1.9-1.1,3.9-1.2,6-1.2 c2.7,0,5.4,0,8.2-0.1c2.1-0.1,4,0.3,5.9,1.2c1.2,0.6,1.9,0.4,2.7-0.7c2-2.6,4.7-4.3,7.5-5.9c0.9-0.5,2.1-0.7,3.1-0.9 c0.7-0.1,1.3-0.3,1.9-0.4c2.9-0.7,5.8-0.9,8.7,0.3c1,0.4,2,0.3,2.9-0.7c1.3-1.5,2.8-2.7,4.6-3.6c1.9-1,3.9-1.3,5.8-1.9 c2.6-0.8,5.2-0.7,7.8-0.8c0.6,0,1.2,0.1,1.8,0.3c1,0.4,2.1,0.5,3.2,0.7c2.6,0.6,4.9,1.8,6.9,3.6c0.9,0.8,1.3,0.9,2.2,0.1 c1.7-1.3,3.6-2.1,5.4-3.2c0.8-0.5,1.9-0.6,2.8-0.6c1,0,1.8-0.3,2.7-0.6c0.6-0.2,1.2-0.4,1.8-0.4c2.4,0,4.8-0.2,7.1,0.8 c1,0.4,2.1,0.2,3.2,0.5c2,0.6,3.8,1.6,5.5,2.9c1,0.7,2,1.4,2.7,2.5c0.7,0.9,1.8,0.5,2.8,0.3c1.2-0.3,2.4-0.7,3.8-0.8 c2.5-0.2,4.8,0.6,7.2,1.2c4.2,1.2,7.7,3.4,10.5,6.8c0.9,1.1,2.1,1,3,0.5c3.8-1.8,7.8-1.2,11.8-1.2c1,0,2,0.5,3,0.8 c1,0.3,2,0.6,3.1,0.6c1,0,1.8,0.4,2.6,0.9c1,0.7,2.1,0.8,3.1,0.2c2.2-1.2,4.6-1.2,6.9-2c0.2-0.1,0.5,0,0.7-0.1 c2.5-1.3,5.3-1.7,7.9-2.7c1.9-0.7,3.8-1.2,5.7-2c1.6-0.7,3.2-1,4.9-1.5c0.2-0.1,0.5-0.2,0.7-0.3c3.2-1.5,6.6-2.4,9.9-3.8 c1.5-0.6,3-1.3,4.5-1.8c1.5-0.6,2.9-1.4,4.5-1.8c1.5-0.4,2.9-1.2,4.4-1.8c3.6-1.6,7.2-3.4,10.7-5.2c2.7-1.4,5.3-3,8-4.5 c2.5-1.3,4.8-3,7.2-4.5c2.4-1.5,4.7-3.1,7.1-4.6c4.3-2.7,8.4-5.8,12.6-8.8c3.5-2.4,6.8-5.1,10.1-7.7c3-2.3,6-4.5,8.9-6.9 c2.6-2.2,5.3-4.3,7.9-6.6c2-1.7,4-3.4,6.1-5.1c3.7-3,7.3-6.3,10.8-9.5c2-1.9,4.2-3.6,6.3-5.4c1.7-1.5,3.3-3.2,5.1-4.6 c1.7-1.3,3.5-2.4,5-3.9c0.2-0.2,0.4-0.3,0.6-0.4c2.6-0.9,6.9,0.8,8.1,3.3c0.6,1.3,1.1,2.7,0.3,4.2c-1.6,3-2.5,6.3-4.4,9.2 c-0.6,1-1.3,1.9-2,2.8c-0.4,0.5-0.8,1.1-1.1,1.7c-1.4,2.9-3.3,5.4-5.5,7.8c-0.3,0.3-0.5,0.7-0.7,1.1c-0.2,0.6-0.1,0.9,0.6,1 c3,0.4,4.9,3,5.2,6.4c0.3,2.9-1,5.3-2.2,7.6c-0.6,1.2-1.1,2.4-1.6,3.7c-0.4,1.1-0.9,2.1-1.3,3.2c-0.6,1.4-1.3,2.7-1.6,4.3 c-0.1,0.4-0.3,0.8-0.5,1.2c-0.8,1.2-1.3,2.5-1.8,3.8c-0.7,1.9-1.6,3.7-2.4,5.5c-0.6,1.4-1.1,2.8-1.6,4.2c-0.7,1.7-1.4,3.4-2.3,5 c-0.8,1.5-1.6,3.1-2.2,4.6c-0.4,0.9,0.5,1,1.1,1.1c1.6,0.1,2.8,1,3.7,2.2c1.4,1.9,2,3.9,1.5,6.4c-0.5,2.2-1.3,4-2.6,5.8 c-1.1,1.6-2,3.4-2.7,5.2c-0.9,2.2-2.2,4.1-3.1,6.2c-1.1,2.4-2.3,4.7-3.4,7.1c-1.4,2.9-2.9,5.7-4.7,8.4c-0.6,1-1.2,2-1.7,3 c-1.2,2.4-2.9,4.4-4.5,6.5c-1.1,1.5-2.5,2.7-4,3.8c-1.5,1.2-2.7,2.7-4.4,3.7c-0.6,0.3-0.7,0.7-0.1,1.4c2,2.1,2.6,4.6,1.9,7.4 c-0.4,1.7-1.2,2.8-2.2,4.1c-1.8,2.3-3.3,4.9-4.7,7.5c-0.2,0.3-0.3,0.7-0.5,1c-2.1,2.1-3.2,5-5.1,7.2c-2.1,2.5-3.5,5.5-5.9,7.7 c-0.6,0.5-0.9,1.3-1.5,1.9c-1.8,2-4.1,3.4-6.5,4.7c-2.4,1.3-5.1,2.2-7.4,3.8c-1.6,1.1-3.6,1.5-5.4,2.3c-2.2,1-4.4,1.8-6.6,2.7 c-2.4,1-4.9,1.7-7.4,2.5c-3.7,1.1-7.4,2.4-11.2,3.3c-2.2,0.5-4.3,1.4-6.6,1.2c-1.3-0.1-2.5,0.9-3.9,1c-1,0.1-1.9,0.3-2.9,0.2 c-1.1,0-2.1,0-3.1,0.5c-1.3,0.7-2.7,0.7-4.1,0.7c-0.7,0-1.5,0.1-2.2,0c-2.3-0.2-4.4,0.3-6.5,1c-0.5,0.2-1,0.2-1.4,0.2 c-4.9,0-9.9,0-14.8,0c-1.5,0-1.5,0-1,1.4c0.8,2,1.7,3.9,2.2,6c0.7,2.5,2.1,4.7,2.5,7.2c0.3,2.2,1.3,4.3,1.1,6.7 c0,0.5,0.1,1,0.2,1.4c0.5,1.4,0.9,2.9,0.7,4.5c-0.1,0.6,0.1,1.2,0.3,1.8c0.4,1.5,0.5,3,0,4.5c-0.1,0.2-0.2,0.5-0.2,0.7 c0.1,2.3-0.6,4.5-1,6.7c-0.4,2.5-1.3,4.8-2.4,7.1c-0.7,1.5-1.7,2.9-2.5,4.3c-0.9,1.7-2.5,2.9-3.8,4.3c-1.7,1.9-3.6,3.5-6,4.5 c-2,0.8-4,1.4-6.1,1.9c-4.1,1.1-8.2,0.4-12.3,0.5c-1.3,0-2.7-0.6-4-1.1c-1.3-0.5-1.7-0.4-2.4,0.6c-1.6,2.5-3.8,4.2-6.4,5.4 c-2.3,1.1-4.6,2.2-7.2,2.4c-2.9,0.2-5.8,0.5-8.6-0.5c-0.8-0.3-1.5-0.1-2.1,0.6c-1.7,1.8-3.7,3.4-5.9,4.7c-1,0.6-2.2,0.9-3.5,0.9 c-4.6,0-9.1,0.1-13.7,0c-1.8,0-3.5-0.4-4.8-1.8c-0.9-0.9-2.1-1.5-2.9-2.5c-0.5-0.6-1.2-0.7-1.7,0c-0.8,0.9-1.9,1.5-2.7,2.5 c-1.2,1.4-3,1.9-4.8,1.9c-4.7,0.1-9.4,0.1-14.1,0c-1.7,0-3.3-0.5-4.6-1.8c-1.5-1.6-3.6-2.6-5.2-4.2c-0.5-0.4-1-0.3-1.6-0.1 c-4,0.8-8,1.1-11.9-0.5c-2-0.8-4.1-1.5-5.9-2.8c-1.6-1.2-3.1-2.5-4.4-4.1c-0.5-0.6-1-1-1.9-0.4c-0.9,0.6-2.1,0.8-3.2,0.8 c-1.8,0-3.4,0.6-5.1,0.9c-2.2,0.3-4.4,0.1-6.6-0.5c-0.7-0.2-1.4-0.3-2.2-0.3c-1.7-0.2-3.3-0.4-4.9-1.4c-1.2-0.8-2.5-1.5-3.8-2.3 c-2.3-1.5-3.6-3.8-4.8-6.2c-0.1-0.3-0.1-0.6-0.3-0.9c-1.9-2.6-2.6-5.7-3.2-8.9c-0.3-1.5-0.9-2.9-1.3-4.4c-0.1-0.4-0.2-0.8-0.2-1.3 c0-6.5,0.1-13.1,0.1-19.6c0-1.1,0.1-2.2,0.5-3.1c1.2-2.5,0.9-5.3,2.2-7.7c0.3-0.6,0.2-1.5,0.3-2.2c0.2-1.6,1.4-2.8,1.5-4.4 c0.1-1.3,0.2-1.3-1.1-1.3c-3.8,0-7.5,0-11.3,0c-2.5,0-4.9,0-7.2-1c-0.5-0.2-1.1-0.2-1.6-0.2c-1.5,0-3.1,0-4.6,0 c-1.4,0-2.7-0.1-3.9-0.8c-0.7-0.4-1.5-0.4-2.3-0.4c-2.1,0.1-4-0.2-5.9-1.2c-0.4-0.2-0.8-0.3-1.3-0.2c-2.3,0.2-4.3-0.8-6.4-1.3 c-2.2-0.4-4.2-1.3-6.3-1.9c-2.1-0.6-4.2-1.1-6.3-1.9c-1.7-0.6-3.4-1.5-5.3-1.9c-2-0.5-3.8-1.5-5.7-2.3c-2.1-0.9-4.3-1.7-6.3-2.8 c-2.3-1.3-4.8-2.1-7-3.6c-1.3-1-3.1-1.3-4.5-2.4c-1.6-1.3-3.1-2.5-4.3-4.3c-1-1.6-2.4-2.9-3.5-4.5c-1.4-2.1-2.7-4.2-4.2-6.2 c-2-2.6-3.6-5.5-5.5-8.3c-1.1-1.7-2.3-3.5-3.5-5.1c-1.3-1.8-1.7-3.9-1.5-6.1c0.2-2,0.6-4,2.3-5.4c0.5-0.4,0.1-0.8-0.3-1.2 c-2.1-1.6-4.1-3.4-6.3-4.8c-1.9-1.3-3.4-3.1-4.6-5c-1.3-2-2.9-3.7-3.8-5.9c-1.2-2.9-3.2-5.4-4.6-8.3c-1.9-3.7-3.6-7.4-5.6-11.1 c-0.8-1.4-1.6-2.8-2.1-4.4c-0.6-1.8-1.8-3.3-2.7-5c-1.3-2.5-2.1-5.2-1.1-8.1c0.3-1,0.4-2,1.1-2.9c1-1.2,2-2.2,3.6-2.4 c0.9-0.2,1.1-0.7,0.6-1.5c-1.9-3.1-3.1-6.5-4.5-9.8c-0.9-2-1.8-4-2.8-6c-0.5-0.9-0.7-1.9-1.1-2.9c-0.9-2-2-3.9-2.8-6 c-0.6-1.5-0.9-3.2-1.6-4.7c-1.1-2.3-1.9-4.7-3.2-7c-1.2-2.2-1.6-4.6-0.9-7.3c0.5-2.1,1.4-3.6,3.1-4.8c0.4-0.3,0.8-0.5,1.3-0.7 c1.3-0.4,1.3-0.5,0.5-1.6c-1.9-2.5-3.8-5.1-5.7-7.7c-3-3.9-4.8-8.4-7.2-12.6c-0.2-0.3-0.3-0.7-0.5-1c-1.5-1.6-1-3.4-0.2-5 c0.8-1.5,1.9-3,3.9-3c0.5,0,0.9-0.4,1.4-0.4c1.7-0.1,3.1,0.2,4.6,1.4c1.9,1.5,3.7,3.1,5.9,4.2c1.7,0.9,3,2.4,4.4,3.6 c2.6,2.2,4.8,4.9,7.8,6.8c0.2,0.1,0.4,0.2,0.5,0.3c2.5,3.1,5.8,5.3,8.7,7.9c3.2,2.7,6.4,5.3,9.7,7.9c2.9,2.3,5.9,4.7,8.8,7 c2.4,1.9,4.7,4,7.3,5.7c2.1,1.4,4,3.1,6,4.6c0.5,0.4,1,0.8,1.5,1.1c3.8,2.6,7.6,5.1,11.3,7.9c2.2,1.7,4.6,3,7,4.5 c2,1.3,4.1,2.5,6.1,3.8c1.7,1.1,3.3,2.1,5.2,2.8c0.2,0.1,0.4,0.1,0.5,0.3c2,1.9,4.8,2.4,7.1,3.8c2.6,1.5,5.3,2.8,8,4 c1.7,0.7,3.4,1.6,5.2,2.1c0.2,0.1,0.5,0.2,0.7,0.3c1.9,1,4,1.7,6.1,2.3c0.2,0.1,0.3,0.2,0.4,0.3c0.4,0.4,1,0.5,1.5,0.7l0,0 C138.6,200.1,139.3,199.7,139.7,200.1z"/><path class="st11" d="M138.2,199.7c-0.7,0.2-1.2-0.1-1.5-0.7C137.4,198.8,137.8,199.3,138.2,199.7z"/><path class="st11" d="M139.7,200.1c-0.5,0-1.1,0.2-1.5-0.4C138.7,199.7,139.3,199.5,139.7,200.1z"/><path class="st12" d="M323,376.1c-3.3,0.3-6.6-0.7-9.9-2.4c-0.8-0.4-1.4-1-2-1.6c-0.8-0.8-1.1-0.6-1.5,0.4 c-1.5,3.8-3.4,7.4-7.4,9.3c-0.2,0.1-0.4,0.3-0.6,0.4c-2.2,0.4-4.2,1.6-6.4,1.3c-2.7-0.4-5.4-0.7-7.4-2.8c-0.3-0.3-0.5-0.6-0.8-0.7 c-0.5-0.2-0.9-0.4-1.2,0.5c-1.1,3.2-2.9,6-6.1,7.5c-1.8,0.9-3.7,1.7-5.7,1.7c-1.2,0-2.5,0.1-3.7,0c-4.4-0.3-8-2.1-10.6-5.8 c-0.8-1.2-1.7-2.4-2.4-3.8c-0.2-0.4-0.3-0.8-0.9-0.8c-0.5,0-0.9,0.2-1.1,0.8c-1,2.4-2.5,4.4-4.4,6.1c-2.4,2.3-5.3,3.3-8.5,3.5 c-2.6,0.2-5.2,0.1-7.6-0.9c-3-1.3-5.7-2.9-6.9-6.2c-0.3-0.7-0.6-1.5-1-2.2c-0.3-0.7-0.9-0.8-1.3-0.3c-0.6,0.7-1.3,1.2-2,1.6 c-2.4,1.3-5,2.4-7.7,1.8c-3.7-0.8-7.4-2-9.8-5.3c-1.3-1.8-2.1-3.8-2.9-5.7c-0.4-1-0.6-1.1-1.4-0.5c-0.6,0.4-1.1,1-1.7,1.4 c-2.3,1.5-4.7,2.6-7.5,2.8c-0.9,0.1-1.8,0.4-2.7,0.6c-1.3,0.3-2.7,0.3-4,0c-0.8-0.2-1.7-0.5-2.5-0.5c-2.5-0.1-4.6-1.2-6.5-2.7 c-1.5-1.2-2.1-3-3-4.6c-1-1.8-1.7-3.9-2.2-5.8c-0.7-2.4-1.4-4.8-1.5-7.3c-0.1-1.4-0.2-2.8-0.3-4.2c-0.2-4.1,0.1-8.3,0.3-12.4 c0.1-1.7,0.7-3.3,1-5c0.6-3.4,1.8-6.7,2.7-10.1c0.4-1.6,1.2-3.1,1.9-4.6c0.5-1.2,1-2.5,1.5-3.7c2.2-4.8,4.5-9.5,7.3-14 c0.2-0.3,0.3-0.6,0.4-0.8c1.4-2.4,1.5-2-0.7-4.3c-5.2-5.6-10.5-11.1-14.9-17.4c-2.1-3-3.8-6.3-4.7-9.9c-0.6-2.2-1-4.5-2.1-6.5 c-0.1-0.2-0.2-0.3-0.2-0.5c0.3-3-1.6-5.6-1.3-8.5c0-0.4-0.2-0.7-0.3-1c-0.5-1.3-0.8-2.7-0.8-4.1c0-1.8-0.6-3.5-1-5.2 c-0.2-0.7-0.3-1.4-0.3-2.2c0.1-2.1-0.8-3.9-1.2-5.9c-0.1-0.4-0.5-0.7-0.9-0.9c-2.1-0.8-4.3-1.6-6.3-2.5c-2.7-1.2-5.5-2.1-8.1-3.5 c-1.2-0.7-2.7-1.2-4.1-1.6c-1.3-0.4-2.4-1.2-3.7-1.7c-3.7-1.5-7.4-3.1-10.9-4.9c-2.2-1.1-4.4-2.1-6.6-3.1c-2.9-1.4-5.8-2.9-8.8-4.2 c-2.8-1.3-5.5-2.8-8.2-4.2c-4.1-2.2-8-4.6-11.8-7.3c-4.5-3.1-8.9-6.4-13.2-9.9c-5-4.1-9.7-8.4-14.4-12.8c-4.4-4.1-8.6-8.5-12.6-13 c-3.1-3.4-6.2-6.9-9.2-10.4c-2.8-3.3-5.4-6.7-8.2-10c-3.4-4.1-6.4-8.4-9.6-12.7c-1.9-2.5-3.6-5.2-5.5-7.7c-0.2-0.3-0.3-0.5-0.3-0.8 c0-0.4-0.1-0.8,0.3-1c0.4-0.2,0.9-0.2,1.2,0.2c1.4,2.2,3.6,3.7,5.5,5.4c2.3,2.2,4.6,4.3,7,6.3c3.2,2.8,6.3,5.5,9.5,8.3 c2.6,2.2,5.3,4.5,7.9,6.6c3.5,2.9,6.9,5.7,10.5,8.5c7.2,5.7,14.5,11.3,22,16.6c4.5,3.2,9,6.4,13.8,9.3c2.5,1.5,4.8,3.2,7.3,4.6 c4.2,2.4,8.3,5,12.8,7c2.2,1,4.2,2.3,6.4,3.2c2.5,1,4.9,2.2,7.4,3.1c1.5,0.6,3,1,4.4,1.8c1.3,0.7,2.9,1,4.3,1.6 c3.1,1.4,6.4,2.4,9.6,3.6c1.7,0.6,3.4,1.2,5.2,1.7c1.8,0.4,3.5,1.2,5.2,1.7c2.4,0.7,4.8,1.4,7.2,2.2c2.6,0.9,5.3,0.9,7.8,2.1 c0.4,0.2,0.8,0.3,1.3,0.3c1.5,0.1,3,0.4,4.5,0.9c1.3,0.4,2.6,0.4,4-0.5c1.4-0.8,3.1-1.3,4.9-1.6c1.8-0.2,3.5-0.3,5.3-0.3 c3.9,0.1,7.5,1.3,10.8,3.2c0.7,0.4,1.3,1,1.8,1.6c0.7,0.8,1.2,0.7,1.5-0.4c0.5-1.6,1.2-3.2,2.1-4.7c1.7-2.8,4.2-4.9,7.3-5.7 c2.2-0.5,4.5-0.9,6.9-0.4c1.5,0.3,3,0.5,4.3,1.4c0.7,0.5,1.3,1,1.8,1.5c0.8,0.8,1,0.8,1.4-0.4c0.5-1.6,1.3-3,2.3-4.3 c1.9-2.5,4.3-3.9,7.5-4.2c0.9-0.1,1.8-0.5,2.7-0.5c2.9-0.1,5.7,0.2,8.5,1.3c2,0.8,3.5,2.1,4.7,3.8c1.1,1.5,2.2,3,2.9,4.7 c0.2,0.4,0.3,0.7,0.7,0.7c0.5,0,0.7-0.4,0.9-0.8c1-2.2,2.3-4.3,3.9-6c1.7-1.7,3.8-2.9,6.3-3.2c1.1-0.2,2.2-0.3,3.3-0.5 c2.3-0.4,4.5,0.1,6.6,0.7c3.1,0.8,5.8,2.6,7.2,5.8c0.4,1,1.1,1.9,1.2,3.1c0,0.5,0.5,0.5,0.9,0.3c0.2-0.1,0.3-0.2,0.4-0.3 c2.5-2.7,5.7-3.2,9.1-3.1c3.3,0.1,6.4,1.1,9,3.3c1.5,1.3,2.5,2.9,3.3,4.6c0.4,0.9,0.9,1.7,1.2,2.7c0.3,1,0.6,1.1,1.4,0.5 c1.3-1,2.7-1.9,4.3-2.5c3.6-1.4,7.4-2.3,11.2-1.6c3.1,0.6,6.5,1,9.2,2.9c0.5,0.4,1.3,0.5,1.8,0.1c1.2-0.9,2.7-0.7,4-1.1 c3.6-1.1,7.3-2.2,10.9-3.2c2-0.6,3.9-1.3,5.9-1.9c1.7-0.5,3.5-0.9,4.9-1.9c0.6-0.4,1.3-0.3,1.9-0.5c1.8-0.9,3.7-1.3,5.5-2 c1.6-0.6,3.2-1.5,5-1.9c1.3-0.3,2.5-0.9,3.8-1.4c4.1-1.5,8.2-3.2,12.3-5c3.9-1.7,7.8-3.6,11.6-5.7c5.4-2.9,10.7-6,15.9-9.3 c6.9-4.4,13.6-9.1,20.2-13.9c4.3-3.2,8.5-6.6,12.8-9.8c5-3.8,9.9-7.8,14.7-11.8c4.4-3.7,8.9-7.4,13.2-11.3 c4.1-3.7,8.4-7.3,12.4-11.2c1-1,2.1-1.9,3-3c0.5-0.6,1.2-0.9,1.7-1.4c0.5-0.4,0.8-0.1,0.9,0.5c0.1,0.7-0.2,1.1-0.6,1.7 c-1.7,2.3-3.5,4.6-5.1,7c-2.3,3.4-4.8,6.6-7.3,9.8c-3.1,4.1-6.3,8-9.6,12c-4,4.9-8.3,9.6-12.7,14.2c-2.8,2.9-5.3,6-8.3,8.7 c-2.8,2.6-5.6,5.2-8.5,7.8c-2.2,1.9-4.3,3.9-6.5,5.8c-5.2,4.3-10.5,8.4-16.1,12.1c-3.8,2.5-7.7,4.9-11.7,7 c-2.9,1.5-5.8,2.8-8.7,4.3c-1.9,1-3.8,1.9-5.8,2.8c-2.3,1.1-4.7,2.2-7,3.4c-2.6,1.3-5.3,2.3-7.9,3.6c-3.3,1.6-6.7,2.9-10,4.3 c-3.4,1.5-6.7,3-10.1,4.4c-1.4,0.6-2.7,1.3-4.1,1.6c-1.7,0.4-2.2,1.5-2.5,2.8c-0.4,1.9-0.9,3.8-1.2,5.7c-0.5,3-1.6,5.8-1.7,8.8 c0,0.2,0,0.4-0.1,0.5c-1.3,2.2-1,4.8-2.1,7c-0.5,1.2-0.1,2.5-0.7,3.8c-1,2.5-1.5,5.1-2.2,7.7c-1.7,6.2-4.2,12-8.5,16.9 c-3.6,4.1-7.4,8-11.2,11.8c-1.4,1.4-1.4,1.4-0.5,3.1c1,1.8,2.1,3.6,3.1,5.4c1.9,3.4,3.9,6.8,5.5,10.4c1.5,3.5,3,7,4.3,10.6 c1,2.8,1.8,5.7,2.6,8.6c0.6,2.4,1,4.8,1.3,7.2c0.2,1.8-0.1,3.7,0.7,5.4c0.3,0.7-0.5,1.2-0.4,1.9c0.3,2-0.7,3.9-0.5,5.9 c0,0.2,0,0.5-0.1,0.7c-2,5.2-4.2,10.3-8.8,13.8c-1.5,1.1-3.1,2-4.9,2.3c-0.2,0-0.5,0-0.7,0.1C328.5,376.4,325.9,376.1,323,376.1z" /><path class="st0" d="M158,259.2c0.1,0.8-0.7,1.5-1.6,1.2c-1.9-0.6-3.9-0.5-5.8-1c-1.9-0.6-4-0.5-5.7-1.3c-2.2-1-4.5-1.2-6.7-1.9 c-3.2-1-6.3-2.3-9.6-3c-1.5-0.3-2.9-1.1-4.3-1.7c-2.6-1-5.1-2-7.7-3.1c-2.5-1.1-5.1-2.2-7.6-3.3c-4.7-2.2-9.4-4.5-14-7.1 c-2.7-1.5-5.3-3.1-7.9-4.6c-4.4-2.6-8.5-5.4-12.7-8.2c-2.4-1.6-4.7-3.4-7-5.1c-6.9-5-13.3-10.6-19.6-16.3c-2-1.8-3.5-3.9-4.9-6.2 c-1.2-1.9-1.8-4.2-3.3-5.9c-1.5-4.4-3.7-8.4-5.5-12.7c-1.5-3.5-3-7-4.4-10.5c-1.1-2.7-2.3-5.4-3.3-8.1c-0.5-1.4-0.9-2.8-1.9-4 c-0.5-0.6-0.3-1,0.1-1.5c0.6-0.5,0.8,0,1.2,0.4c1.3,1.1,2,2.6,2.9,3.9c2.8,3.8,5.7,7.4,8.7,11c2.5,3,5.1,5.8,7.7,8.7 c3,3.2,6.3,6.3,9.5,9.4c3.4,3.3,6.9,6.3,10.5,9.3c3.8,3.2,7.7,6.4,11.8,9.3c3.5,2.5,7,5,10.6,7.4c2.7,1.8,5.5,3.5,8.3,5.2 c3.2,1.9,6.5,3.7,9.8,5.5c2.8,1.6,5.6,3.1,8.5,4.4c3.2,1.4,6.3,3,9.6,4.2c1.6,0.6,3.3,1.3,4.9,2.1c1.5,0.7,3.1,1.2,4.6,1.8 c3.2,1.3,6.5,2.1,9.7,3.4c0.1,0,0.1,0.1,0.2,0.1c3.1,0.1,5.8,1.9,9,1.6c1.5-0.1,1.4,0.1,2.1,1.5c1.1,2.1,0.9,4.5,2.1,6.5 C156.2,253.6,157.8,256.3,158,259.2z"/><path class="st0" d="M383.7,236.8c3.9-1.2,7.6-3,11.4-4.6c3.1-1.3,6.2-2.9,9.2-4.5c2.5-1.3,5-2.6,7.5-3.9c2.7-1.4,5.3-3,8-4.6 c4.7-2.8,9.2-5.8,13.7-9c4.8-3.4,9.4-7,13.9-10.7c5.1-4.1,9.9-8.5,14.7-13c3.8-3.5,7.2-7.4,10.7-11.3c2.6-2.9,5.2-5.9,7.7-9 c2.7-3.4,5.4-6.7,7.7-10.4c0.2-0.4,0.5-0.7,1-0.6c0.6,0.1,0.5,0.6,0.5,1.1c0,0.7,0,1.3-0.5,1.9c-0.8,1.1-1.2,2.4-1.7,3.7 c-0.9,2.5-1.9,5-3,7.5c-1,2.5-2.1,4.9-3.1,7.4c-1.1,2.6-2.4,5.1-3.3,7.8c-0.7,2-1.7,3.8-2.6,5.7c-1,2.2-2.3,4.2-3.3,6.4 c-1.6,3.4-4,6-6.7,8.5c-2.6,2.3-5.1,4.6-7.8,6.8c-4.2,3.5-8.4,7-12.9,10.2c-3.3,2.3-6.6,4.8-10,7c-3.3,2.2-6.7,4.3-10.2,6.3 c-3.7,2.1-7.4,4.1-11.1,6.1c-1.9,1-3.9,1.9-5.8,2.8c-2.6,1.2-5.1,2.5-7.7,3.5c-2.6,1-5.1,2.4-7.8,3.1c-1,0.2-1.9,0.8-2.9,1.2 c-2,0.9-4.2,1.4-6.3,2.2c-2.7,1-5.4,2.1-8.2,2.6c-2.5,0.4-4.9,1.3-7.3,1.9c-2.6,0.7-5.2,0.6-7.7,1.5c-2.6,0.9-3.3,0-2.6-2.6 c0.8-3,1.3-6.1,2.5-9c0.4-1-0.1-2.1,0.6-3.1c0.2-0.2,0.2-0.6,0.3-0.9c0.5-1.5,1.4-2.3,3.2-2.1c1.9,0.2,3.8-0.1,5.6-1 c1-0.5,2.1,0,3-0.6c0.3-0.2,0.7-0.2,1-0.5c1.9-0.9,3.9-1.3,5.9-1.9l0,0c0.2-0.5,0.8,0,1-0.5c0.4-0.2,0.8-0.5,1.2-0.7 C382.2,237.2,383.1,237.5,383.7,236.8z"/><path class="st13" d="M356.6,287.6c-1.8,0-3.6,0-5.4,0c-0.4,0-0.9,0-1.3-0.1c-1.1-0.2-1.5-0.7-1-1.6c0.4-0.8,0.6-1.7,1-2.6 c1.5-3.1,2.7-6.3,4-9.5c0.2-0.5,0.4-0.9,0.8-1.3c0.9-1,1.2-1.1,2.4-0.5c2,1,4.1,0.7,6.2,0.4c1.9-0.3,3.9-0.7,5.8-0.8 c0.5,0,1,0,1.5-0.2c1.8-0.8,3.9-0.7,5.7-1.3c2-0.7,4.1-0.8,6-1.7c1.7-0.7,3.6-0.8,5.3-1.5c2.2-0.9,4.5-1.7,6.7-2.4 c1.7-0.5,3.2-1.2,4.8-1.9c2.5-1,5-1.8,7.3-3.2c0.9-0.6,2-0.7,3-1.3c2.7-1.5,5.6-2.8,8.4-4.2c4.1-2.2,8.2-4.5,12.1-7 c4.8-3,9.5-6.2,14-9.5c4-2.9,7.8-6.1,11.6-9.2c2.9-2.5,5.7-5.2,8.5-7.7c2.8-2.5,5.3-5.3,8-8c1.6-1.6,3-3.4,4.5-5.2 c0.5-0.5,1-1.4,1.8-0.9c0.9,0.6,0.1,1.4-0.2,1.9c-2.3,4.6-4.8,9-7,13.6c-1.7,3.6-3.6,7.1-5.5,10.6c-2.2,4.1-4.4,8.1-7.2,11.8 c-1,1.3-2.2,2.3-3.4,3.4c-3.9,3.4-7.9,6.7-12.1,9.8c-4.4,3.1-8.8,6.1-13.5,8.7c-2.6,1.4-5.1,3.1-7.8,4.3c-2.3,1.1-4.6,2.2-7,3.2 c-2.6,1.1-5.2,2.1-7.8,3.3c-2.5,1.1-5.2,1.9-7.8,2.7c-0.9,0.3-1.9,0.5-2.8,0.9c-0.7,0.3-1.5,0.6-2.3,0.6c-1.4,0-2.6,0.8-3.8,1.1 c-3.5,1-7,1.7-10.5,2.5c-3.3,0.7-6.7,1.4-10.2,1.5c-1.9,0.1-3.8,0.4-5.6,1.1c-0.3,0.1-0.7,0.1-1.1,0.1 C360.7,287.5,358.6,287.5,356.6,287.6C356.6,287.5,356.6,287.6,356.6,287.6z"/><path class="st12" d="M158,288.8c-3.7,0.1-7.3-0.4-10.9-1.2c-0.1,0-0.1,0-0.2,0c-2.8,0.2-5.5-0.7-8.2-1.2c-1.4-0.3-2.8-0.4-4.1-1 c-1.2-0.6-2.5-0.2-3.8-0.7c-2.6-0.9-5.3-1.6-7.9-2.4c-1.7-0.5-3.5-1-5.2-1.8c-1.3-0.7-2.8-1-4.2-1.5c-2.6-0.8-5-2-7.5-3.1 c-5.5-2.5-10.9-5.1-16.2-8.1c-3.9-2.2-7.8-4.5-11.6-6.9c-3.4-2.1-6.6-4.5-9.9-6.8c-3.9-2.7-7.7-5.8-11.4-8.8 c-1.7-1.4-2.8-3.3-3.9-5.1c-1.9-3.1-3.6-6.3-5.3-9.4c-2.6-4.8-5.2-9.7-7.6-14.7c-1.1-2.2-2.2-4.5-3.5-6.7c-0.5-0.9-1.3-1.8-1.3-3 c0-0.4-0.2-0.9,0.4-1.1c0.4-0.1,0.7,0.2,0.9,0.5c1.5,1.7,3,3.4,4.5,5.2c5.1,5.9,10.9,11.1,16.7,16.2c5.4,4.7,11.2,9.1,17.1,13.3 c3.3,2.3,6.6,4.5,10,6.6c2.5,1.5,5.1,3,7.6,4.5c2,1.2,4.1,2.3,6.1,3.3c2.8,1.4,5.6,3.1,8.6,4.1c0.9,0.3,1.6,0.9,2.4,1.3 c2.9,1.4,6,2.2,8.8,3.7c1.1,0.6,2.4,0.9,3.6,1.2c3,0.9,5.9,2.1,8.9,2.9c2.3,0.6,4.7,1.4,7,2.1c2.9,0.9,5.9,1.4,8.9,2.2 c2.7,0.7,5.4,1,8.2,0.9c0.8,0,1.5,0.1,1.7,0.8c0.4,1.2,1.2,2.1,1.6,3.3c0.6,1.8,1.3,3.7,2.3,5.4c0.7,1.3,1.2,2.7,1.6,4.1 c0.5,1.4,0.1,2-1.4,2.1C160.2,288.8,159.1,288.8,158,288.8z"/><path class="st0" d="M166.3,312c-1.9-0.3-3.6,0.5-5.4,0.5c-4.5-0.1-9.1-0.6-13.6-0.9c-0.4,0-0.9-0.1-1.3-0.1 c-2.2,0-4.4-0.1-6.5-0.8c-0.7-0.2-1.6-0.3-2.4-0.3c-2.8,0.1-5.3-1.4-8.1-1.5c-1.2,0-2.4-0.6-3.5-0.9c-3-0.7-6-1.6-9-2.5 c-3.7-1.1-7.2-2.4-10.7-3.7c-4-1.5-7.8-3.2-11.7-4.9c-3-1.3-5.8-2.9-8.7-4.4c-1.4-0.7-2.4-1.8-3.4-3c-1.7-2-3.3-4.2-4.8-6.4 c-3.5-5.2-7.1-10.4-10.4-15.7c-0.6-1-1.1-2-2-2.9c-0.4-0.4-0.4-0.7,0-1.1c0.4-0.4,0.7-0.5,1.1-0.1c0.8,0.7,1.6,1.4,2.4,2 c4.3,3.3,8.7,6.5,13.3,9.3c4.2,2.5,8.4,4.8,12.8,6.9c2.3,1.1,4.7,2.1,7.1,3.1c3.9,1.7,7.9,3,11.9,4.5c2.1,0.8,4.2,1.6,6.5,1.9 c1.3,0.2,2.6,0.8,3.8,1.2c2.7,0.9,5.5,1,8.2,2c0.4,0.2,1,0.2,1.4,0.3c1.9,0.2,3.7,0.7,5.6,1.2c1.1,0.3,2.3,0.1,3.5,0.3 c2.7,0.5,5.2,1.4,8,1.2c1.1-0.1,2.2,0.3,3.2,0.6c2,0.6,3.9,0.3,5.9,0.6c0.8,0.1,1.7,0.3,2.6,0.3c1.6-0.1,2.5,0.9,3.1,2.1 c1.6,2.8,2.9,5.8,4.8,8.5c0.8,1.2,0.3,2.3-1.1,2.6C168,312,167.1,312,166.3,312z"/><path class="st12" d="M369.6,311.4c-2.4,0.1-4.4,0.5-6.4,0.5c-3.8,0-7.6,0.9-11.4,0.6c-1.7-0.1-3.3,0.2-4.9-0.5 c-0.4-0.2-0.9-0.1-1.3-0.1c-0.7,0-1.4,0-2,0c-2.8-0.2-3.1-0.9-1.7-3.3c1.5-2.6,2.8-5.3,4.2-8c0.7-1.3,1.6-2,3.2-2.1 c2.8-0.2,5.6-0.4,8.5-0.4c1.4,0,2.7-0.4,4-0.7c2.4-0.4,4.8-0.4,7.2-0.5c1.3-0.1,2.5-0.4,3.8-0.6c1.6-0.3,3.1-0.7,4.7-0.6 c1.2,0.1,2.4,0,3.4-0.5c1.5-0.7,3.1-0.6,4.7-1c3.6-0.9,7.2-1.5,10.7-2.6c4-1.2,7.9-2.5,11.8-3.9c3.1-1.1,6.2-2.4,9.2-3.7 c1.8-0.8,3.6-1.8,5.4-2.7c2.2-1.1,4.4-2.2,6.5-3.5c2.3-1.3,4.4-2.9,6.6-4.3c4.4-2.8,8.3-6.2,12.2-9.5c0.5-0.5,1.1-1.6,1.9-0.9 c0.9,0.8-0.3,1.4-0.6,2c-2,3.2-4,6.5-6.2,9.6c-2.6,3.9-5.2,7.8-7.9,11.6c-2,2.7-4,5.4-7.1,6.9c-2.2,1.1-4.5,2.1-6.6,3.3 c-1.2,0.7-2.6,1-3.8,1.9c-1,0.7-2.3,0.9-3.4,1.4c-2.7,1-5.4,2.3-8.2,3.2c-1.8,0.6-3.9,0.8-5.5,2.1c-0.1,0.1-0.2,0.2-0.3,0.2 c-2.1-0.2-3.7,1.2-5.7,1.4c-0.8,0.1-1.6,0.4-2.3,0.7c-0.2,0.1-0.3,0.2-0.5,0.3c-2.4,0.2-4.6,1.1-7,1.5c-1.4,0.2-2.8,0.6-4.1,0.9 c-1.4,0.3-2.8,0.5-4.2,0.7c-1,0.1-2,0.1-3.1,0.5C372.1,311.5,370.7,311.7,369.6,311.4z"/><path class="st14" d="M379.3,238.7c-1.9,0.7-3.9,1.5-5.9,1.9c-0.3-0.7-1.2-0.2-1.6-0.7c0.3-0.6,0.9-0.6,1.3-0.4 c1.5,0.5,2.9,0,4.3-0.6C377.9,238.6,378.6,238.5,379.3,238.7z"/><path class="st14" d="M379.2,238.3c-0.9-0.2-1.8-0.3-2.8-0.5c1.1-1,2.2-0.3,3.1-0.7C379.9,237.7,379.3,237.9,379.2,238.3 L379.2,238.3z"/><path class="st14" d="M383.7,236.8c-0.6,0.8-1.4,0.9-2.3,0.7C382.1,237,382.9,237,383.7,236.8z"/><path class="st14" d="M380.2,238.2c-0.2,0.4-0.6,0.5-1,0.5c0-0.1,0-0.3,0-0.4c0,0,0,0,0,0C379.6,238.3,379.9,238.3,380.2,238.2z"/><path class="st15" d="M318.9,291.5c0-1.9,0.3-4.1,0.2-6.2c-0.1-2.6-0.1-5.2-0.2-7.8c-0.2-5-1.3-9.8-2.1-14.7 c-0.6-3.8-1.4-7.5-2.1-11.2c-0.6-3.3-1.1-6.7-1.9-9.9c-0.3-1.3-0.2-2.8-0.2-4.2c0-3.2,0-6.3,0-9.5c0-2.7,1.4-4.7,3.6-5.9 c3.4-1.9,7.2-2.4,11.1-1.8c0.3,0,0.6,0.1,0.9,0.1c6.1,0.2,9.9,3.6,12.7,8.8c2.5,4.8,2.9,9.8,2.8,15.1c-0.1,4-0.8,7.8-1.8,11.6 c-0.8,3.2-2,6.4-3.2,9.6c-1.3,3.4-2.9,6.8-4.5,10.1c-1.5,3.3-3.4,6.4-5.2,9.6c-2.5,4.5-5.4,8.8-8.3,13.1c-0.5,0.7-1,1.4-1.5,2.1 c-0.2,0.3-0.5,0.4-0.8,0.3c-0.4-0.1-0.3-0.5-0.2-0.8C318.7,297.2,318.7,294.5,318.9,291.5z"/><path class="st16" d="M311.2,358.8c-0.3-4.5,0.5-8.8,1.1-13.2c0.4-2.9,1.2-5.6,1.6-8.5c0.5-3,1.3-5.9,1.7-8.9 c0.6-4.1,1.5-8.2,1.8-12.4c0.1-2.1,0.3-4.2,0.2-6.3c0-0.6,0.1-1.2,0.4-1.8c1.3-1.9,2.6-3.9,4-5.8c0.9-1.3,1.4-1.2,2.1,0.1 c1.5,2.5,3.1,5,4.5,7.6c1.9,3.6,3.8,7.3,5.6,11c1.8,3.6,3.3,7.4,4.5,11.3c0.7,2.1,1.5,4.1,1.7,6.4c0.1,0.8,0.4,1.5,0.6,2.3 c0.7,3.1,1,6.2,1,9.3c0,3.3-0.2,6.6-1.4,9.8c-1,2.9-2.5,5.4-4.4,7.8c-1.6,2-3.5,3.2-6.1,3.8c-2.7,0.6-5.4,1.2-8.2,1 c-2.5-0.2-5-0.6-7.2-1.9c-2.5-1.4-3.7-3.5-3.7-6.3C311.2,362.4,311.2,360.6,311.2,358.8z"/><path class="st17" d="M197,301.8c-1.3-1.8-2.5-3.4-3.6-5.1c-2-3.1-4.1-6.3-5.9-9.5c-2-3.6-4-7.3-5.6-11.2 c-1.6-3.7-3.1-7.4-4.3-11.2c-1-3.2-1.7-6.5-2.4-9.8c-1.2-5.6-0.8-11.2-0.7-16.8c0.1-3,1.1-6,2-9c0.7-2.2,1.7-4.4,2.7-6.4 c0.6-1.1,1.7-1.8,2.9-2.2c4.2-1.4,8.4-1.6,12.7-0.3c2.5,0.7,4.7,1.7,6.4,3.8c0.8,1,1.2,2,1.2,3.2c-0.1,3.9,0.3,7.8,0.1,11.6 c-0.1,2-0.4,3.9-0.8,5.8c-0.4,2-0.6,4.1-1,6.2c-0.7,3.1-1.1,6.3-1.9,9.4c-0.5,1.8-0.6,3.6-1,5.4c-0.6,3.1-1,6.2-1.4,9.3 c-0.6,5-0.9,10-0.5,14.9c0.3,3.3,0.1,6.8,1.2,10C197.4,300.5,197.4,301,197,301.8z"/><path class="st10" d="M194.9,309.5c-0.2,1.9,0,4.2,0.2,6.4c0.3,2.7,0.8,5.3,1.1,8c0.2,2.3,1.1,4.5,1.2,6.9c0.1,1.7,0.8,3.3,1.1,5 c0.5,3.7,1.2,7.4,2.1,11c1.5,6.4,0.5,12.8,0.7,19.2c0,1.4-1,2.5-2.1,3.4c-2.1,1.9-4.7,2.9-7.5,3.3c-2.4,0.3-4.7,0.4-7.1,0.1 c-2-0.2-3.7-1-5.3-2c-1.2-0.7-1.5-2.2-2.1-3.4c-0.9-1.9-1.7-4-2.3-6c-0.6-1.9-0.7-3.8-1.1-5.8c-0.9-4.3-0.4-8.7-0.4-13.1 c0-2.1,0.7-4.1,1-6.2c0.6-3.8,1.8-7.4,3-11c0.7-2.3,1.6-4.5,2.6-6.7c1-2.4,2.2-4.8,3.3-7.2c1.4-2.9,3-5.6,4.6-8.4 c0.6-1,1.1-2,1.8-3c0.6-1,1-1,1.8-0.2c1.3,1.4,2.1,3.2,3.4,4.6c0.3,0.3,0.3,0.8,0.3,1.2C194.9,306.9,194.9,308,194.9,309.5z"/><path class="st17" d="M265.4,320.3c0,1.5,0,3.1,0,4.6c0,2.6-0.5,5.3-0.3,7.9c0,0.2,0,0.5-0.1,0.7c-0.3,0.7-0.9,1-1.7,0.9 c-0.8-0.1-1.1-0.6-1.1-1.2c0.2-1.7-0.3-3.3-0.4-5c-0.1-3.1-0.6-6.1-0.8-9.2c-0.2-2.6-0.1-5.2-0.2-7.8c0-1.2,0-2.5-0.4-3.6 c-0.3-0.9-0.2-1.8-0.1-2.8c0.1-0.9,0.5-1.5,1.4-1.7c0.9-0.2,1.6,0.3,2,1c0.4,0.7,0.9,1.5,1.4,2.2c1.9,2.7,4.5,3.8,7.8,3.5 c0.6-0.1,1.1-0.2,1.6-0.5c1.9-1.3,3.6-2.7,4.7-4.9c0.4-0.9,0.8-1.8,0.8-2.8c0-1.2,0.1-2.5,0-3.7c-0.1-4-2.1-6.9-5.5-8.7 c-1.2-0.6-2.6-0.7-4.1-0.6c-1.6,0.1-3,0.7-4.2,1.6c-0.5,0.3-0.8,0.7-0.9,1.3c-0.3,1.1-0.2,2.2-0.2,3.3c0.1,1.5,0.4,1.7,2,2 c0.4,0.1,0.7,0.3,1,0.4c0.6,0.3,0.7,0.8,0.7,1.4c0,0.6-0.4,0.8-0.9,1c-0.5,0.3-1.1,0.2-1.6,0.2c-3,0-6.1,0-9.1,0 c-1.8,0-1.9,0.1-1.9,1.9c0,2.6,0,5.2,0,7.8c0,0.8,0,1.6-0.9,1.8c-0.8,0.3-1.7,0.3-2.3-0.6c-0.6-0.9-1.4-0.9-2.2-0.5 c-2.2,1.1-4.5,1.5-6.9,1.6c-3.9,0.1-7-1.6-9.6-4.3c-2.5-2.6-3.8-5.8-3.9-9.3c-0.1-3.8,1-7.3,3.6-10.2c3-3.2,6.6-4.7,11-4.6 c1.4,0,2.6,0.7,3.9,1c1.5,0.3,1.5,0.4,1.5-1.2c0-1.4,0.1-2.8,0-4.3c-0.1-3.9,0.7-7.8,0.5-11.8c-0.1-1.1,0.5-2.2,0.5-3.4 c0-0.5,0.5-1,1.1-1c0.6,0,0.9,0.3,1.2,0.8c0.2,0.4,0.4,0.9,0.4,1.4c-0.1,3.6,0.8,7.2,0.7,10.9c-0.1,4.3,0.6,8.6,0.5,12.9 c0,0.9,0.4,1.7,0.5,2.5c0,1.4-0.3,2.2-1.2,2.5c-1,0.3-1.7-0.1-2.4-1.2c-0.2-0.3-0.3-0.7-0.5-1c-0.7-1.2-1.4-2.3-2.6-3.1 c-2-1.2-4-1.8-6.5-1.2c-2.8,0.8-4.2,2.6-5.6,5c-1.6,2.6-1.4,5.5-0.9,8.1c0.8,3.8,3.1,6.8,7.1,8c2.8,0.9,7.1-1.2,7.9-3.8 c0.4-1.2,0.1-2.3-0.3-3.4c-0.2-0.7-0.8-0.9-1.4-1c-0.4-0.1-0.8,0-1.1-0.1c-0.7-0.2-1.2-0.7-1.2-1.5c0-0.7,0.4-1.1,1-1.4 c0.5-0.2,1.1-0.2,1.6-0.2c3,0,5.9,0,8.9,0c2.1,0,2.1,0,2.1-2c0-2.3,0-4.6,0-6.9c0-0.8,0-1.7,0.9-2.1c0.9-0.4,1.8-0.3,2.5,0.4 c0.8,0.8,1.6,0.5,2.5,0.1c2.9-1.3,5.9-2.1,9.3-1.2c3,0.8,5.4,2.2,7.2,4.5c2,2.4,3.4,5.1,3.3,8.4c0,0.7,0,1.4,0,2 c-0.3,5.1-2.8,8.8-7,11.4c-3.8,2.3-7.8,1.8-11.7,0.7c-0.7-0.2-0.9,0-1.1,0.5c-0.3,0.5-0.3,1.1-0.3,1.6 C265.4,316.3,265.4,318.3,265.4,320.3C265.4,320.3,265.4,320.3,265.4,320.3z"/><path class="st17" d="M205.2,362.3c0-4,0.3-7.4,1-10.6c0.7-3.2,1.9-6.2,3.9-8.9c2.9-4,5.9-8,8.6-12.2c0.1-0.2,0.2-0.3,0.3-0.5 c0.2-0.3,0.5-0.4,0.8-0.3c0.3,0.1,0.2,0.4,0.2,0.6c0,1.6,0.2,3.2,0.2,4.8c0.1,2.7,0.3,5.3,0.5,7.9c0.2,2.5,0.1,4.9,0.5,7.4 c0.2,1.8-0.1,3.7,0.5,5.5c0.7,2,1,4,1.7,6c1,2.9,2,5.8,1.7,9c-0.1,1.5,0,3-0.7,4.5c-1.1,2.2-2.7,3.5-5.1,3.8 c-1.8,0.2-3.6,0.3-5.5-0.1c-3.5-0.8-5.5-3.1-6.8-6.2C205.6,369.3,205.4,365.5,205.2,362.3z"/><path class="st17" d="M221.3,263.2c-1.2-0.7-1.7-1.7-2.2-2.4c-2.5-3.8-5.3-7.5-7.9-11.3c-1.3-1.8-2.2-3.8-2.9-5.9 c-1-3.3-1.6-6.6-1.7-9.9c0-0.9-0.5-1.6-0.5-2.5c0.1-1.7,0.4-3.4,0.6-5.1c0.3-2.4,0.9-4.7,1.8-6.9c1.3-3.2,3.4-5.1,6.8-5.8 c2-0.4,4-0.6,6,0c1.6,0.5,2.9,1.3,3.8,2.9c1.9,3.3,1.6,6.6,0.8,10c-0.8,3.5-1.9,6.9-2.9,10.3c-0.2,0.5-0.3,1.1-0.3,1.6 c0.1,2.4-0.3,4.7-0.5,7c-0.4,3.7-0.3,7.5-0.6,11.2C221.6,258.5,221.4,260.7,221.3,263.2z"/><path class="st16" d="M307.6,359.9c-0.1,6.1-0.9,10.5-2.8,14.6c-1.3,2.9-3.9,4.6-7.1,5c-1.5,0.2-3,0.1-4.4,0 c-1.8-0.2-3.3-1.1-4.3-2.6c-0.9-1.4-1.7-2.8-1.7-4.6c0.1-2.4,0.2-4.7,1-7.1c1-2.9,1.9-5.9,2.4-8.9c0.4-2.1,0.9-4.2,0.7-6.4 c-0.1-0.6-0.1-1.3,0.1-1.8c0.5-1.8,0.4-3.5,0.4-5.3c0.1-3.9,0.4-7.7,0.6-11.6c0-0.4-0.1-0.9,0.5-1.1c0.5-0.1,0.7,0.4,1,0.7 c2.1,2.9,4.1,5.8,6.2,8.7c1.4,2.1,3,4,4.1,6.3c1,2,1.7,4.1,2.1,6.3C306.8,355.2,307.7,358.2,307.6,359.9z"/><path class="st17" d="M308.4,230.5c0.2,5.3-0.5,9.9-2.1,14.4c-0.9,2.5-2.5,4.7-4,6.8c-2.5,3.4-4.8,6.9-7.2,10.3 c-0.2,0.3-0.3,0.7-0.8,0.6c-0.5-0.1-0.4-0.5-0.5-0.9c-0.2-3-0.4-6-0.5-9c-0.1-2.2-0.3-4.3-0.5-6.5c-0.2-2.8-0.2-5.5-0.6-8.3 c-0.4-2.7-1.2-5.4-2-8c-0.9-3-1.9-6-1.7-9.2c0.2-3.8,2.1-7.3,6.7-7.7c3.4-0.3,6.7,0.2,9.2,2.8c1.6,1.6,2.6,3.7,3,5.8 C308.2,224.7,308.8,227.8,308.4,230.5z"/><path class="st10" d="M242.4,206.6c1.1,0,2.1,0,3.1,0.2c3.8,0.7,6,3.4,7.6,6.7c0.8,1.6,1.6,3.2,2.1,4.9c0.7,2.1,0.9,4.2-0.6,6.1 c-1.5,1.9-3.4,3.6-5.3,5.1c-1.7,1.4-3.5,2.7-5.3,4c-1.4,1-1.5,1-2.9,0c-2.4-1.7-4.5-3.6-6.7-5.5c-0.2-0.2-0.3-0.4-0.5-0.5 c-3-2-3.9-5-3.4-8.4c0.4-2.5,0.8-5,1.8-7.5c1.1-2.8,3.2-3.9,5.7-4.7C239.5,206.6,241,206.4,242.4,206.6z"/><path class="st10" d="M273.2,206.5c2.1,0,4.3,0.5,6.4,1.4c1.3,0.6,2.2,1.6,2.8,2.8c1.1,2.3,1.8,4.6,2.1,7.2 c0.1,1.1,0.3,2.3,0.3,3.5c0,1.6-0.6,3-1.6,4.2c-2.8,3.2-6.2,5.8-9.6,8.4c-0.7,0.5-1.3,0.6-2,0.1c-2.5-1.8-5-3.6-7.3-5.7 c-0.9-0.9-2-1.6-2.9-2.6c-1.8-2.1-2.5-4.3-1.5-7c0.8-2.2,1.7-4.2,2.7-6.2C264.8,208.1,268.4,206.5,273.2,206.5z"/><path class="st18" d="M240.4,385.9c-2-0.1-3.9-0.3-5.7-1.1c-2.4-1.1-3.5-3.2-4.3-5.5c-0.9-2.6-1.1-5.4-1.2-8.1 c-0.1-2.2,0.9-4,2.6-5.5c2.5-2.2,5-4.4,7.6-6.4c1.7-1.2,2.1-1.2,3.8,0c2.9,2,5.6,4.2,8.2,6.6c1,0.9,1.8,1.9,2.5,3 c0.9,1.5,0.7,3.3,0.2,4.8c-0.7,2.5-1.9,4.9-3.3,7.2c-2.1,3.5-5.1,5.1-9.2,5.1C241.2,385.9,240.8,385.9,240.4,385.9z"/><path class="st10" d="M272.2,385.9c-2.4-0.3-4.6-0.2-6.8-1.3c-1.8-0.9-2.7-2.5-3.8-3.9c-1.7-2.4-2.6-5.3-3.5-8.1 c-0.6-1.9,0.2-3.5,1.4-5c2.2-2.6,4.8-4.7,7.6-6.7c0.9-0.6,1.6-1.3,2.5-1.9c1.3-0.9,2-1,3.2,0c3.1,2.5,6.2,4.9,9,7.7 c1.5,1.6,1.7,3.6,1.7,5.7c0,1.7-0.3,3.3-0.8,4.9c-0.4,1.2-0.6,2.5-1.1,3.7c-1.3,2.8-3.5,4.2-6.4,4.7 C274.2,385.8,273.2,385.9,272.2,385.9z"/><path class="st19" d="M265.8,338.5c0,0.9-1.4,2.2-2.4,2.2c-0.8,0-2-1.3-2-2.1c0-0.7,1.5-2.3,2.1-2.3 C264.2,336.4,265.8,337.9,265.8,338.5z"/><path class="st20" d="M251.6,256c0.8-0.1,2,1.2,2,2.1c0,0.7-1.1,2-1.8,2.1c-0.7,0.1-2.3-1.3-2.3-2.1 C249.5,257.5,250.9,256,251.6,256z"/></g></svg> 