<?xml version="1.0" encoding="utf-8"?><svg version="1.1" id="Layer_1" xmlns="http://www.w3.org/2000/svg" xmlns:xlink="http://www.w3.org/1999/xlink" x="0px" y="0px" viewBox="0 0 512 512" style="enable-background:new 0 0 512 512;" xml:space="preserve"><style type="text/css"> .st0{fill:#0E0D08;} .st1{fill:#A4A4A4;} .st2{fill:#1F1F1F;} .st3{fill:#FED700;} .st4{fill:#DAA51A;} .st5{fill:#FEFEFE;} .st6{fill:#B09237;} .st7{fill:#947113;} .st8{fill:#D6B60C;} .st9{fill:#090803;} .st10{fill:#050402;} .st11{fill:#5D4614;} </style><g><path d="M224.4,151.8c-8.5-0.9-16.9-2-25.4-2.7c-9.8-0.8-19.4,0.6-29,2.6c-13.8,2.9-27.7,5-41.6,7.2c-5.4,0.8-5.4,0.6-6.1-4.7 c-0.8-5.8-1.9-11.5-2.3-17.3c-1.1-14.3-9.9-24.9-17.1-36.3c-2.8-4.5-5.6-9-8.5-13.4c-1.4-2.2-1.3-3.4,1.3-4.5 c12.9-5.7,26.3-10,39.5-15c2.6-1,4.3-2,4-5.1c-0.1-1.1,0.3-2.1,0.5-3.2c1.1-7.3,1.3-7.7,8.3-4.7c6.7,2.9,11.7,2.3,18.2-1.7 c13.4-8.4,27.8-15.2,41.8-22.6c2.5-1.3,4.9-2.7,7.8-4.4c-0.5,2.2-1.3,3.5-2.5,4.6c-4.9,4.7-7.6,10.8-10.1,17 c-1.4,3.5-0.7,6,2.9,7.6c2.6,1.2,5.2,2.4,8,2.8c8.6,1.1,16.9,3.7,25.8,4.5c-5.3,3.9-10.5,7.9-16.9,12.6 c35,8.9,69.4,14.4,104.3,22.1c-8.5,3.1-16.6,4.9-25,6.7c16.7,7.2,33.4,14.5,50.1,21.7c-0.2,2-1.5,0.9-2.5,0.9 c-1.8-1.2-4-0.1-5.9-0.8c-4.5,0-9.1,0-14.5,0c12.8,12.3,25.2,24.3,38.1,36.7c2.1-6.5,4.2-12.4,5.9-18.4c0.7-2.6,1.6-2.7,3.9-1.7 c4.3,2,8.8,3.5,13.2,5.4c2.9,1.3,4.2,0.2,5.2-2.4c1.3-3.5,1.6-7.1,1.8-10.8c1-14.9,1.3-29.7-2.4-44.5c-2.4-9.5-8.9-14.8-16.4-19.7 c-2-1.3-2.2,0.7-2.7,1.7c-2.4,4.3-4.2,4.6-7.2,0.6c-4-5.1-3.6-11-1.4-16.6c2.2-5.7,7.1-7.9,12.7-7.6c16.1,0.7,29.9,6.6,40.3,19.1 c6,7.2,11.4,14.8,16.8,22.5c2.2,3.1,3.8,4,6.9,1.4c3.1-2.6,6.7-4.6,10-7c2-1.4,2.9-1.2,3.6,1.2c2.7,9,5.6,17.8,8.2,26.8 c0.8,2.7,1.8,3.1,4.3,2.2c3.9-1.5,8-2.5,11.9-4.2c3.3-1.5,4.9-0.9,6.4,2.5c5.7,13.3,9.4,27.1,12.1,41.3c4.1,21.5,7.4,43,8.4,64.9 c0.9,21.9-2.7,42.9-10.1,63.4c-2.3,6.4-4.7,12.7-6.6,19.2c-4.6,15.6-13.3,29-22.3,42.3c-4.2,6.2-8.3,12.4-12.3,18.7 c-1.4,2.2-3,4.1-5.7,5.5c0.9-4.9,1.6-9.9,2.6-14.8c5-23.9,6.4-48.2,6.1-72.4c-0.2-10.5-1.9-21.1-8.3-30.2c-1.4-1.9-2.9-3.5-5.1-4.6 c-2.7-1.3-5.1-1.1-7.5,1c-2.4,2.2-5,4.2-7.5,6.3c-1.2-5.2-2.7-11.2-4.1-17.4c-2.1,0.1-3.1,2.3-5.3,2.6c-1.2-5.9-2.5-11.8-3.6-17.7 c-0.4-2.4-1-3.7-3.5-2c-3,2-3.9,0.4-4.3-2.4c-0.8-5.1-1.8-10.1-2.7-15.2c-1.7-9.8-4.5-11.1-12.7-5.5c-3.9,2.7-7.4,6-11.2,8.8 c-2.1,1.6-2.1,2.9-0.8,5.1c4.3,7.4,8.3,14.9,12.5,22.4c0.4,0.7,0.8,1.4,1.2,2.1c0.4,0.8,1,1.9,0.1,2.6c-0.9,0.7-1.8-0.1-2.5-0.7 c-4.2-3.7-8.4-7.3-12.6-11c-1-0.9-1.8-2.1-3.5-2.3c0.5,3.7,2.1,7,3.3,10.4c4.3,12.3,8.1,24.8,11.4,37.4c0.7,2.7,3,4.9,2.4,8 c0.4,0.9,0.5,1.7-0.7,2c-2.2-0.9-2.5-3.1-3.2-4.9c-5.8-16.2-11.9-32.4-17.7-48.6c-1.5-4.1-3.2-8.1-4.3-12.3 c-0.3-1.3-1.2-2.8,0.1-3.8c1.5-1.1,2.8,0.1,4,0.9c3,2.2,5.8,4.5,9.2,7.5c-2.4-6-5.1-10.9-8.2-15.6c-7.8-12.1-14.6-24.8-21.6-37.3 c-0.4-0.7-0.8-1.4-1.1-2.2c-0.5-1.3-1.1-2.7,0.1-3.8c1.1-0.9,2.4-0.2,3.4,0.3c2.6,1.2,5.3,2.4,8.2,4.2 c-13.5-11.9-26-24.1-39.1-35.7c-1.7-1.5-3.5-3.1-4.8-5c-1.4-2-0.9-3.3,1.5-3.8c2-0.4,4,0.1,6.2-0.4c-11.2-4.4-22-9-32.8-13.6 c-2.1-0.9-5.6-1.5-5.3-4.3c0.3-3.2,3.8-2.8,6.3-3.3c3.6-0.7,7.2-1.5,10.9-1.5c-5.7,0.1-11.1-1.4-16.6-2.5 c-10.1-2.1-20.3-3.8-30.4-6c-12.8-2.8-25.5-6.5-38.4-8.9c-2.3-0.4-5.5-0.8-5.9-3.5c-0.5-2.9,2.5-4.2,4.4-5.8c2-1.6,4.2-2.8,6.5-5.3 c-5.9-0.8-11.2-1.4-16.1-3.4c-1.4-0.6-2.9-0.9-4.3-1.4c-8.7-3.2-11.3-11.8-6.2-19.5c0.4-0.6,1.1-1.1,1.1-2.3 c-10,5.4-19.6,11.2-29.4,16.7c-3.2,1.8-6.4,3.6-9.6,5.4c-3.8,2.2-7.5,2.3-11.6,0.5c-5.2-2.3-5.9-1.9-6.4,3.6 c-0.4,4.6-2.6,7.3-7.1,8.7c-11,3.4-21.9,7.2-32.9,10.9c-5,1.7-5.3,2.6-2.3,6.7c3.1,4.3,5.9,8.8,9.1,13c0.8,1,1.2,2.5,3,2.8 c1.6-3.2,1.6-6.8,2.5-10.1c0.2-0.8,0.3-1.6,0.5-2.4c1.5-7.2,2.9-7.9,9.1-4.2c0.2,0.1,0.5,0.3,0.7,0.4c5.3,3.1,5.3,5,10-2.2 c2.5-3.9,4-4,7.4-0.7c2.5,2.5,4.8,3.1,7.9,1c3-2,6.6-2.4,10.1-2.8c2.3-0.3,4.3,0.4,5.9,2c5.7,5.9,11.7,11.3,17.6,16.9 c4.8,4.4,4.5,5.8,0,10.7c-4.1,4.5-9.1,7-15,8.2c-6.1,1.2-12.4,1.6-18.6,2.3c-3.1,0.4-5.8,1.4-8.1,3.5c-2.7,2.5-5.8,2.8-9.1,2 c-2.7-0.6-5.3-1.4-7.9-1.9c-3.5-0.7-4.2,0-3.6,3.6c0.8,5.2,1.8,10.4,2.7,15.6c0.5,3.1,1.9,3.8,4.8,3.2c8.2-1.8,16.5-3.3,24.8-4.8 c9.6-1.7,19.1-4.2,29-3.5c12.3,0.8,24.6,1.8,36.8,4.1c1.2,0.2,2.4,0.4,3.2,1.6C225.7,150.8,225.3,151.4,224.4,151.8z"/><path d="M395.6,280.4c0.7-0.4,0.8-1.1,0.8-1.8c3.1,6.5,5.9,13.1,7.9,20.2c-3,0-4-2.2-5.4-3.7c-2.5-2.8-4.9-5.8-7.4-8.6 c-0.4-0.5-1-1.2-1.5-1.1c-1.1,0.1-0.8,1.2-0.9,1.9c-0.1,1.1-0.1,2.2-0.1,3.3c-0.2,31.4-2.9,62.6-3.6,94c0,1.1-0.4,2.1-0.8,4.4 c-2.9-5.8-5.3-10.6-7.6-15.4c-4.3-8.8-4.5-9-9.8-0.7c-12.5,19.4-24.7,38.9-38.8,57.3c-0.9,1.2-1.8,2.3-3,3.9 c-1.6-4.3-2.7-8.1-3.1-12.1c-0.5-4.6-0.6-4.7-4.3-2.2c-21.1,14.1-42.4,27.9-62.9,42.8c-5.3,3.8-10.6,7.5-16,11.2 c-1.4,1-2.7,2.1-5.4,2.2c4-6.4,6.5-12.9,10.7-18.6c0.8-1.1,2.9-2.1,1.7-3.6c-0.8-1.1-2.5,0.1-3.7,0.5c-16.9,4.6-33,11.5-49.7,16.5 c-14,4.2-27.6,9.7-41.9,12.9c-0.8,0.2-1.6,0.3-3.1,0.6c4-5.9,7.7-11.2,11.3-16.5c2.8-4.2,2.4-5.1-2.5-6 c-22.1-4.1-44.2-8.5-66.3-12.4c-9.3-1.6-18.4-4.3-28.7-6.4c8.9-2.5,16.6-4.7,25.4-7.3c-25.5-24.2-51-47-75.7-71 c0.6-0.5,0.8-0.8,1-0.9c6.8-1.1,6.8-1,4.4-7.7c-3.7-10.3-9-20.1-10.9-31c-7.1-41.6-3-82.4,13.4-121.2 c11.2-26.5,30.6-47.1,52.9-65.1c7.3-5.9,15-11.1,22.9-16.3c1.2-0.8,2.5-2.5,3.8-1.4c1.4,1.2,0,2.8-0.7,4 c-5.5,11.2-12.8,21.5-17.3,33.1c-6.1,15.8-13.9,31-16.9,47.8c-2.8,16-5.9,32.1-3.1,48.5c0.1,0.7,0.1,1.4,0.2,2 c2,7.6,5.2,10.9,11.8,4.6c0.4-0.3,0.8-0.6,1.7-1.1c0.5,4.6-0.3,8.6-1.4,12.6c-10.5,37.5-0.5,77.6,34.8,101c3.8,2.5,4.2,2.4,4.6-2.2 c0.3-3.8,0.3-7.6,0.4-11.4c0-1.1-0.1-2.4,0.9-3c1.1-0.6,2,0.6,2.8,1.2c5.3,4.2,10.7,8.3,16,12.6c14.8,12.2,32,16.4,50.9,15.8 c5.7-0.2,11.4,0.6,16.8-1.9c4.6-2.1,5.6-3.9,4.4-9c-1.3-5.3-3.8-10.1-6-15.1c-0.4-1-0.9-2-1.3-3c-0.6-1.4-1.4-3.1-0.2-4.2 c1.1-1,2.4,0.6,3.6,1.1c13,6,26,12.2,39.1,18.1c6.5,3,13.6,3.8,20.7,3.9c8.2,0,14.8-3.7,20.3-9.7c2-2.2,2-4.1,0.1-6.4 c-3.7-4.7-8.6-7.8-13.3-11.3c-0.8-0.6-1.9-1-2.2-2.7c2.2-0.7,4.4-0.3,6.6-0.2c11.6,0.1,23.4,1.3,34.8-2.1c3.3-1,7.6-1.1,8.3-5.3 c0.6-4-2.8-6.3-5.6-8.3c-4.3-3.1-8.8-5.9-13.3-8.9c1.3-1.9,3.3-2,5-2.6c6.5-2.3,13.1-4.3,19.3-7.5c2.5-1.3,3.9-3.1,5-5.6 c4.5-10.2,3.5-21,3.1-31.7c-0.3-8.1-1.6-16.1-4.7-23.6c-0.3-0.9-0.5-1.7,0.7-2.1c4.1,5,6.9,10.9,8,17c2.1,12.1,2.4,24.2-0.7,36.3 c-1.6,6-4.8,10.2-10.1,13c-3.7,2-7.5,3.8-11.4,5.5c-1.4,0.6-3.7,0.7-3.8,2.5c-0.1,1.6,2,1.9,3.2,2.7c3.2,2.1,6,4.6,7.8,8.1 c2.9,5.7,2,9.4-3.7,12.6c-5.4,3.1-11.4,4.2-17.6,4.4c-5.5,0.1-11.1-0.1-17,0.1c0.8,2.5,2.6,3.6,3.9,5c5.9,6.3,5.6,11.5-1,16.9 c-9.2,7.5-19.6,10.1-31.2,7.8c-9.5-1.8-18.7-4.7-27.3-9.1c-5-2.5-10.1-4.6-16-7.6c1.8,3.4,2.7,6.3,3.4,9.3c2,8.6-2.3,15.7-11,17.8 c-6,1.5-12.2,1.8-18.2,1c-5.3-0.6-10.6-0.3-15.8-0.9c-13.8-1.8-25.4-8.5-36.3-16.4c-3-2.1-5.9-4.4-8.8-6.6 c-2.3-1.7-3.4-1.1-3.6,1.7c-0.1,2-0.5,4-0.9,6c-0.7,4.3-3,5.6-7,3.7c-6.8-3.1-12.4-8-17.4-13.3C78.6,352,69,335.5,66.2,316 c-1.9-13.7-1.9-27.6,1.3-41.3c0.8-3.3,0.6-5.2-3.2-6.4c-4.2-1.3-5.7-5.3-6.6-9.2c-2.1-8.5-2.7-17.2-1.9-25.9 c1.7-19.3,5.3-38.1,12.1-56.3c3.7-9.8,8.8-18.9,13-28.5c1.9-4.3,4.1-8.5,6.2-13.9c-6,4.5-11.5,8.2-16.3,12.8 c-13,12.3-26.1,24.6-35.8,39.9c-7.2,11.2-12.8,23.1-16.9,35.9C9.3,249.7,7.3,277,8.2,304.7c0.6,17.9,5.9,34.7,13.2,50.9 c0.9,2,1.7,4,2.5,6c0.5,1.3,1.1,2.8,0.2,3.9c-2.2,2.6-0.5,4,1.3,5.7c10.8,10.5,21.9,20.6,32.9,30.9c9.9,9.2,19.6,18.7,29.8,27.7 c2.2,1.9,5.7,3.7,5.1,6.8c-0.6,3.4-4.8,2.9-7.5,3.8c-1.5,0.5-3,0.9-5.4,1.8c13,2.2,24.8,5.1,36.8,7.3c15.7,2.9,31.5,5.9,47.2,9.1 c4,0.8,4.7,2.6,2.5,6c-2.2,3.4-4.8,6.5-6.7,10.4c1.8,0.6,3.1-0.2,4.4-0.6c27.2-8.9,54.5-17.6,81.7-26.7c1-0.3,2.1-0.7,3.1-0.9 c1.3-0.3,2.8-0.6,3.8,0.7c1.1,1.4,0.6,2.9-0.2,4.2c-2,3.5-4.4,6.9-6.5,11.1c3.9-1.9,6.8-4.3,9.8-6.4c20.7-14.2,41.5-28.3,62.3-42.3 c5-3.4,6.1-2.9,7.6,3c0.5,2.1,0.9,4.2,1.8,6.2c2-0.4,2.4-2,3.2-3.2c12.5-19.2,25-38.5,37.6-57.7c0.3-0.5,0.6-0.9,0.9-1.3 c2.8-3.9,4.3-3.8,6.6,0.5c1.4,2.6,2.8,5.2,4.4,7.7c0.7,0.1,0.8-0.4,0.8-0.7c-0.2-8.6,0.5-17.1,0.8-25.6c0.6-15.3,1.1-30.6,2.3-45.9 c0.4-5.3,0.2-10.6,1-15.8c0.2-1.2,0-2.7,1.4-3.1c1.3-0.4,2.3,0.6,3.2,1.4c1.6,1.5,2.8,3.3,4.9,4.7 C395.6,282.9,394.4,281.4,395.6,280.4z"/><path d="M224.4,151.8c0.3-0.6,0.6-1.2,0.9-1.8c2.1-1.6,4.2-0.6,6.2,0c13.4,3.8,25.1,10.7,35.9,19.2c9.9,7.9,18.9,16.7,26,27.1 c5.7,8.3,12.4,16.1,16.3,25.6c0,0.9-0.3,1.6-1.3,1.8c-1.7-0.1-2.5-1.5-3.3-2.7c-2.7-3.6-5.1-7.3-7.7-11c-4.2-6.1-4.7-6.1-10-1.2 c-3.8,3.5-7.6,6.9-11.9,9.8c-6.6,4.5-13.2,6.2-20.9,2c-6.3-3.4-12.9-6.4-18.8-10.4c-4.1-2.8-8.4-4.2-13.4-3.8 c-3,0.2-6.1,0-10.1,0.1c3.4,2.2,5.9,4,8.6,5.6c1.5,0.9,2.9,1.9,4.2,3.3c4.1,4.5,2.9,10-2.8,11.9c-11.1,3.7-22.4,5.1-34.1,3.3 c-1.3-0.2-2.6-0.6-4.4-0.2c6.5,4.9,12.9,9,21.3,9c3.4,0,6.8,0.6,10.1,1.4c3,0.7,5.8,2,6.6,5.3c0.8,3.2-1.2,5.4-3.4,7.4 c-4.6,4-9.3,7.9-13.8,12.1c6.2,4.1,13.4,4,18.7-0.3c2.5-2,5.1-4.1,7.6-6.1c0.6-0.5,1.2-1.1,2-1.4c2.8-1.4,5.8-2,8.5-0.1 c2.6,1.9,2.6,5,1.7,7.8c-1,3.2-2,6.5-2.4,9.9c-0.1,1.1-0.7,2.3,0.3,3.1c1,0.8,2-0.4,2.9-0.8c0.2-0.1,0.5-0.3,0.7-0.4 c6.5-2.8,10.9-7.4,12.4-14.5c0.2-0.9,0.8-1.7,1-2.7c2.2-10.1,8.9-15.7,18.6-18.3c12.1-3.2,24.1-6.5,36.3-9c1.4-0.1,2.9-0.4,4.3,0.5 c1.5,1.4,2,3.2,2.4,5c-0.2,0.9-0.3,1.8-1.6,1.3c-1.1-1-1.9-2-3.8-1.6c-13.3,3.1-26.7,5.7-39.7,10.2c-5.5,1.9-9.3,4.8-10.3,10.7 c-0.2,1.1-0.8,2-1,3.1c-1.4,10.8-7.8,17.4-17.8,21.1c-2.6,1-5.1,2.5-7.6,4c-2.3,1.3-3.3,1.2-3.4-1.8c-0.2-6.6-0.9-13.3,2.8-19.4 c0.6-0.9,0.9-2.2,0.1-3.1c-1.2-1.2-2.2,0.1-3.2,0.7c-4.4,2.9-8.3,6.5-12.1,10.2c-1.2,1.2-2.4,2.2-4.3,1.7 c-8.9-2.1-17.9-4.3-27.2-6.5c2.6-2.9,5.7-4.1,8.2-6.1c4.3-3.3,8.6-6.7,12.7-10.1c1.4-1.2,3.3-2.7,2.7-4.6c-0.6-1.6-2.8-2-4.6-2.2 c-2.8-0.3-5.7-0.6-8.5-0.7c-4.9-0.2-9.1-1.5-13-4.7c-5.9-5-12.2-9.4-18.4-14.1c-0.8-0.6-1.5-1.4-3.1-2.8c7.9,0.6,14.7,1.2,21.5,1.6 c7.2,0.4,14.3,1.3,21.5,0.7c3.4-0.3,6.6-1.5,9.7-2.9c3.7-1.8,3.9-2.9,0.6-5.3c-6.3-4.7-12.8-9.2-19.2-13.8 c-1.1-0.8-2.1-1.6-3.5-2.6c2.1-0.9,3.9-0.5,5.5-0.5c7.5,0.2,14.9,0.6,22.4,0.5c4.5,0,8.4,1.1,12.1,3.8c6.9,5,14.4,9.1,22.5,12.2 c2.5,1,4.6,0.8,6.9-0.5c8-4.3,14.6-10.3,21.4-16.1c2.5-2.1,0.2-3.4-0.8-4.6c-6.2-7.6-13-14.6-20.6-20.8 c-8.9-7.3-18.4-13.8-28.3-19.8C234,153,229,153.3,224.4,151.8z"/><path class="st0" d="M317.9,239.8c0.7-0.3,1-0.9,1.1-1.6c3.3,1.3,6.1,6.4,5.7,10.4c-0.8,0.4-0.8,1.2-1,1.9 C321.5,247.1,319.3,243.6,317.9,239.8z"/><path class="st1" d="M349.9,126.3c0.8-0.1,1.8,0.7,2.3-0.6c0.8-0.2,1.7-0.4,1.9,0.7c0.2,0.9-0.7,0.9-1.3,0.9 c-1.3-0.1-2.7,0.2-3.8-0.7C349.2,126.1,349.5,126,349.9,126.3z"/><path class="st2" d="M349.9,126.3c-0.3,0.1-0.6,0.2-0.9,0.3c-1.7-0.3-3.4-0.5-5.1-0.8C346,125.5,348,125.1,349.9,126.3z"/><path class="st3" d="M324.7,248.6c-1.1-3.9-3.1-7.3-5.7-10.4c-0.8-1.4-1.6-2.8-2.4-4.3c-3.3-3.6-5.8-7.6-7.4-12.2 c-11.4-18.6-23.6-36.6-40.9-50.5c-11.6-9.3-24.1-16.9-38.7-20.7c-1.4-0.4-2.9-0.4-4.4-0.6c-9.8-2.2-19.8-2.7-29.7-4.2 c-18.2-2.7-35.5,2.7-53.1,5.6c-4.1,0.7-8.3,1.5-12.4,2.5c-2.7,0.6-3.7-0.4-4.1-2.9c-1-6.1-2.2-12.3-3.2-18.4 c-0.6-3.5,0.5-4.5,4-3.7c2.1,0.4,4.3,0.9,6.3,1.6c4.8,1.5,9.1,1.6,13-2.7c2.6-2.8,6.8-2.5,10.4-2.7c4.3-0.3,8.6-1.1,12.9-1.5 c7.7-0.7,13.4-4.7,18.3-10.2c1.9-2.1,1.6-3.5-0.3-5.5c-6.5-6.5-14-12.1-19.8-19.3c-0.7-0.9-1.8-1.3-2.9-1.2 c-4.6,0.6-9.3,0.7-13.1,3.8c-2.3,1.9-4.1,1.6-5.8-0.7c-0.6-0.8-1.3-1.4-1.9-2.1c-1.9-2.6-3.3-2.3-5.1,0.4 c-5.1,7.6-5.2,7.5-12.9,2.6c-0.6-0.4-1.1-0.7-1.7-1.1c-2.8-2-4.3-1.5-4.9,2.1c-0.9,5.2-2.1,10.4-3.2,15.5c-0.2,0.8-0.2,1.6-1,2.2 c-1.7-0.5-2.3-2.1-3.2-3.4c-3.9-5.5-7.7-11.2-11.7-16.6c-2-2.6-1.4-4.2,1.4-5.2c2-0.8,4.1-1.4,6.2-2.1c10.4-3.5,20.8-7.1,31.2-10.4 c3.1-1,4.2-2.6,4.6-5.7c1.2-9.2-0.2-9.4,9.4-5.4c3.2,1.4,5.9,1,8.8-0.7c12.8-7.4,25.7-14.7,38.5-21.9c1.1-0.6,2.1-1.7,4-1.5 c-0.2,1.8-1.4,3-2.4,4.3c-5.5,7.4-3.3,15.5,5.4,18.5c5.8,2.1,11.8,4.1,18.1,4.2c1.1,0,2.9-0.1,3.2,1.1c0.5,1.6-1.4,2-2.4,2.8 c-2.1,1.7-4.4,3.2-6.5,4.9c-1.2,1-3.4,1.6-3.1,3.4c0.3,1.8,2.5,1.8,4,2.3c6.5,2.1,13.4,2.3,19.9,4.3c19.4,6,39.5,8.3,59.1,12.9 c3.7,0.9,7.7,0.1,11.4,2.1c-6.9,1-13.7,1.6-20.4,4.3c13.3,7.2,27.3,12.4,41.6,18.2c-3.1,1.6-5.8,0.4-8.4,0.8 c-1.1,0.2-2.8-0.5-3.3,0.8c-0.5,1.3,1,2,1.9,2.8c14.1,12.9,28.2,25.9,42.3,38.8c1.1,1,2.1,2,3.2,3c-0.2,0.3-0.4,0.6-0.5,0.9 c-4.6-2.3-9.3-4.6-13.9-7c8.7,21.4,22.8,39.9,32.2,61c-5.4-2.9-9.3-7.8-15-10.6c-0.3,2.1,0.6,3.7,1.1,5.2 c7.6,21.1,15.3,42.2,22.9,63.3c0.1,0.4,0.5,0.7,0.7,1c0.5,2,1,4.1,1.7,6.6c-4.3-2.3-6.4-6.3-10.4-9.1c-2.7,31.7-3.3,63.1-5.7,94.6 c-2.6-4.6-5.2-9.3-8.3-14.7c-15,23.1-29.8,45.8-45.2,69.4c-1.1-4.5-2.3-7.9-2.8-11.5c-0.6-3.7-1.7-3.7-4.6-1.8 c-23.6,16.2-47.3,32.3-70.9,48.4c-1.5,1-2.8,2.7-5.3,1.8c2.7-4.5,5.4-8.8,8-13.2c0.6-1,1.7-2.2,0.9-3.3c-1-1.4-2.5-0.3-3.7,0.1 c-29,9.4-58,18.9-87,28.3c-1.3,0.4-2.5,1.1-4.4,0.6c1.8-4.5,4.8-8.1,7.4-11.9c3-4.4,3-4.4-2.4-5.5c-25.4-5.1-50.9-9.4-76.2-15.1 c-2.8-0.6-5.9-0.3-8.9-2.1c3.4-2.5,7.3-2.6,10.8-3.8c1.4-0.5,3.4-0.3,3.9-1.7c0.6-1.9-1.5-2.7-2.6-3.7 c-21.5-20.1-43.1-40.2-64.6-60.3c-1.2-1.1-2.3-2.3-3.5-3.4c-1.2-1.1-2.3-2.1,0.2-3.1c2.8-1.1,1.4-3.1,0.6-4.7 c-3.7-8.4-7.2-17-10.1-25.7c-6.5-19.6-6.3-39.8-5.3-60c0.6-13.6,2.7-27,5.7-40.2c6.8-29,20.8-53.9,42-74.9 c9.1-9,18.3-17.8,28.7-25.3c1.5-1.1,2.7-2.7,5.4-2.5c-1.5,3.4-2.9,6.5-4.4,9.6c-9.8,19.3-19.1,38.8-23.4,60.1 c-3.7,18.2-7.1,36.5-3,55.2c1.1,5.1,3,9.7,9.1,10.4c2.1,0.2,2.3,1.4,1.8,3.2c-3.4,12.3-4,25-2.8,37.6c2.4,26,14.3,47.1,34.4,63.7 c2.7,2.2,5.5,4.4,8.7,6c3.6,1.8,5.4,0.8,5.8-3.1c0.3-2.4,0.5-4.9,0.8-7.3c0.5-3.8,1.1-4.1,4.2-1.8c5.9,4.4,11.6,9,17.8,12.9 c11.1,7,23,11.3,36.4,11.3c7.3,0,14.6,1.3,21.9,0c12.8-2.3,17.1-10,12-22.1c-0.9-2.1-1.9-4.1-3.2-6.9c7.3,3.4,13.8,6.3,20.1,9.5 c8.7,4.4,17.9,7.2,27.4,8.6c12.3,1.8,23.1-1.5,31.7-10.9c2.8-3,2.5-6.7-0.9-11c-1.1-1.4-2.4-2.6-3.7-3.8c-1.1-1.1-2.3-2.2-3.5-3.3 c1.2-1.5,2.5-0.8,3.6-0.8c9.3-0.1,18.7,0.6,27.9-2.1c4.3-1.3,8.9-2.9,9.9-7.5c1.2-4.9-2.2-8.8-5.8-11.8c-2.7-2.2-5.8-3.9-9.2-6.1 c3.6-1.6,6.6-3.3,9.8-4.3c14-4.1,19.7-14.1,20.3-27.9c0.4-8,0.1-16-1.1-24C330.7,260,326.9,254.6,324.7,248.6z"/><path class="st4" d="M458.1,352.8c1.7-11.8,4.8-23.4,5.3-35.4c0.7-17.3,2-34.7-1.8-51.9c-1.2-5.6-3.6-10.8-6.6-15.6 c-5.3-8.4-11-9.5-19.1-3.9c-0.5,0.4-1.1,0.6-2.1,1.1c-1.1-5-2.2-9.7-3.3-14.5c-0.4-1.8-0.7-4-3.5-2.1c-1.9,1.3-2.2-0.1-2.5-1.6 c-0.9-4.5-1.9-9-2.7-13.6c-0.4-2-0.9-3-3.1-1.9c-2.7,1.3-4,0.5-4.5-2.7c-1-6.5-2.1-13.1-5.5-19c-3-5.2-5.3-5.9-10-2.3 c-5.3,4-10.4,8.3-15.5,12.5c-1.3,1.1-2.3,1.9-3.5-0.2c-6.2-10.8-12.5-21.5-19.2-33c5.4,0,8.7,3.3,12.4,5.2c3.9,2,7.6,4.3,12.1,6.9 c-0.4-3-2.3-4.1-3.5-5.4c-2.6-2.8-5.4-5.3-8.3-7.8c-1.7-1.5-2.4-2.9-1.5-5.2c1.8-4.7,3.2-9.5,4.7-14.3c0.6-1.8,1.4-2.3,3.2-1.5 c3.6,1.6,7.2,3.1,10.9,4.5c4.4,1.7,7,0.5,8.6-3.9c1.2-3.2,2-6.5,2.1-9.9c0.7-15.6,0.3-31.2-2.4-46.6c-0.8-4.7-3.1-8.6-6.2-12.2 c-3.8-4.5-8.1-8.4-12.7-12c-2.9-2.3-4.4-1.7-5.7,1.5c-0.5,1.1-0.6,3.2-2.2,3c-1.6-0.2-1.9-2.2-2.3-3.5c-2.9-9.8,3.9-17.9,14.3-16.2 c12.9,2.1,24.4,7.3,32.9,17.7c6.9,8.4,13.6,16.9,19.5,26c2,3.1,3.8,4.5,7.1,1.6c2.2-1.9,5.1-3.1,7.5-4.9c2.1-1.5,3.1-1.2,3.9,1.4 c2.4,7.9,5.2,15.7,7.5,23.6c1.2,4.1,3,4.8,6.8,3.4c3.6-1.4,7.5-2.2,11.2-3.7c3.5-1.4,5-0.3,6.3,3.1c5.8,15.9,8.7,32.4,11.1,49.1 c2,13.4,4.2,26.8,5,40.3c1.8,28.3-3.3,55.6-12.1,82.7c-7.4,22.9-19.9,42.6-32,62.8C457.4,354.5,457.9,353.6,458.1,352.8z"/><path class="st5" d="M126.4,113.1c5.5,2.4,10.6,4.8,15.9,6.9c3.1,1.2,2.6,2.6,0.8,4.3c-2,2-4.6,2.3-7.2,1.8 c-4.4-0.8-8.7-1.8-13.1-2.6c-1.9-0.4-2.8-1.2-2.6-3.3c0.8-7.3,1.6-14.5,2.4-21.8c0.3-2.7,1.9-2.7,3.7-1.6c2.3,1.4,4.6,3,6.7,4.6 c1.6,1.2,2.7,1.2,3.8-0.7c1.5-2.5,3.1-6.2,5.3-6.8c2.1-0.6,4.4,3.1,6.4,5c1.4,1.3,2.5,1.2,3.7-0.2c0.9-1,1.8-2,2.9-2.9 c4.4-3.8,9.9-3.8,14.2,0.2c3.8,3.5,7.5,7.1,11.3,10.5c2.5,2.2,2.3,4.3,0.5,6.7c-2.6,3.4-6.5,4.5-10.9,2.6 c-13.3-5.7-27.3-4.8-41.3-4.2c-0.5,0-1.1,0.2-1.6,0.4C127.1,112.1,127,112.4,126.4,113.1z"/><path class="st6" d="M170.6,118.8c-12.3,5.1-22.1-0.5-32.1-4.3C149.3,113.3,159.7,114.7,170.6,118.8z"/><path class="st7" d="M458.1,352.8c0.3,0.6,0.6,1.1,0.9,1.7c-0.1,0.7-0.6,1.6-1.1,1.3C456.8,354.9,457.4,353.7,458.1,352.8z"/><path class="st8" d="M313.1,233.9c-14.6,3.4-29.4,6.1-43.5,11.9c-4.2,1.7-7.1,4.3-8.5,8.6c-1.1,3.2-2.4,6.3-3.6,9.5 c-3.3,8.8-8.4,13.6-18.1,16.9c-0.4-4.4,0.2-8.6,1.5-12.8c0.2-0.8,0.6-1.5,0.9-2.3c1.1-2.9,1.3-6.1-1.3-7.8c-2.4-1.6-5.6-0.9-8,1 c-3.4,2.7-6.9,5.3-10.1,8.2c-2.8,2.5-5.9,3.1-9.4,2.3c-3.6-0.9-7.3-1.7-11.8-2.7c3.3-2.9,6-5.4,8.8-7.8c2.1-1.9,4.3-3.7,6.4-5.6 c2.1-2,5.1-3.8,4.1-7.3c-1.1-3.8-4.7-4.2-7.9-4.7c-3.7-0.6-7.5-1.1-11.3-1.2c-8.7-0.2-14.1-6.7-20.8-10.6c4.6-1,8.9,0.3,13.2,0.6 c9.5,0.7,18.6-0.9,27.6-3.7c2.2-0.7,4.4-1.5,4.8-4.4c0.4-3-0.7-5.3-3.2-7c-4.4-3-8.8-5.9-13.5-9c2.4-1.6,4.7-0.6,6.9-0.8 c9-0.8,16.9,1.3,24.3,6.8c4.9,3.7,11,5.8,16.5,8.7c4.3,2.3,8.5,1.9,12.9-0.2c7.3-3.6,12.9-9.4,18.9-14.7c2.7-2.4,4.3-3.3,6.6,0.4 c3.8,6,8.2,11.6,12.4,17.3c3.2,1.7,4.2,5,6,7.8C314.7,232.4,314.4,233.4,313.1,233.9z"/><path class="st9" d="M313.1,233.9c1.5-1.1,0.4-2-0.2-3c-1.6-2.5-3.2-4.9-4.8-7.4c0.8-0.3,1.1-1,1.1-1.8c3.2,3.6,5.3,7.9,7.4,12.2 C315.4,233.2,314.2,234,313.1,233.9z"/><path class="st10" d="M184.4,67.8c3.9-0.2,7.8-0.5,11.7-0.7c1.3-0.1,3.1,0,3.5,1.3c0.5,1.6-1.2,2.1-2.5,2.7c-8,3.3-16,6.5-24,9.9 c-2.2,0.9-3.5,0.7-4.4-1.7c-1-2.7-2.1-5.3-3.3-7.9c-1-2.1-0.5-2.9,1.8-2.9c5.7-0.2,11.3-0.6,17-0.9 C184.3,67.6,184.3,67.7,184.4,67.8z"/><path class="st11" d="M187.6,69.6c0.6,0,1.4-0.1,1.5,0.8c0,0.4-0.4,1-0.8,1.2c-4.8,2-9.6,4.5-14.6,5.7c-3.3,0.8-3.6-3.3-4.1-5.4 c-0.6-2.4,2-1.5,3.2-1.6C177.6,69.9,182.6,70.6,187.6,69.6z"/></g></svg> 