<svg version="1.1" id="Ebene_1" xmlns="http://www.w3.org/2000/svg" xmlns:xlink="http://www.w3.org/1999/xlink" x="0px" y="0px"
	 viewBox="0 0 512 512" style="enable-background:new 0 0 512 512;" xml:space="preserve">
<path fill="#010101" d="M511.7,227.9c-0.4-7.6-1.9-15.1-3.4-22.6C480.3,68.2,347.1-21.4,209.5,4.4C69.4,30.7-22.3,164.9,4.8,304.8
	c27.5,141.6,166,232.1,306.9,201.1c58.5-12.8,107.1-42.6,144.6-89.4c37.5-46.7,57.5-99.9,55.4-160.6
	C511.8,246.7,512.1,237.3,511.7,227.9z M273,186.8c11.7-32.6,23.3-65.3,35-98c0.3-0.7,0.4-1.6,1.4-2.3c2.5,7.1,5.1,14.1,7.5,21.2
	c9.4,26.4,18.8,52.8,28.2,79.1c0.9,2.5,0.8,3.2-2.1,3.2c-22.6-0.1-45.3-0.1-67.9,0C272.3,190,272.1,189.1,273,186.8z M167.2,187.3
	c11.8-32.9,23.5-65.8,35.2-98.7c0.2-0.6,0.6-1.2,1.2-2.5c6.3,17.6,12.4,34.7,18.5,51.7c5.8,16.3,11.5,32.6,17.4,48.9
	c1,2.6,0.7,3.4-2.3,3.3c-22.6-0.1-45.3-0.1-67.9,0C167.1,189.9,166.3,189.8,167.2,187.3z M346,310.1c0,1.5-0.3,2.9-1.1,4.3
	c-20.9,36.3-41.7,72.6-62.5,109c-1.4,2.4-2.9,3.3-5.7,3.2c-14-0.2-28-0.1-42,0c-2,0-3.1-0.6-4.1-2.3c-6.4-11-6.3-11-1.6-22.6
	c3.6-8.8,7-17.8,10.4-26.7c-0.2-0.2-0.3-0.4-0.5-0.6c-8.4,4.6-16.8,9.1-25.1,13.8c-2.4,1.4-3.4,1-4.7-1.4c-3.4-6.3-7-12.5-10.7-18.6
	c-0.9-1.5-0.9-2.6,0.1-4c6.5-9.3,12.9-18.6,19.3-28c1.3-1.9,2.2-2.1,3.8-0.2c2.2,2.5,4.7,4.7,7.4,7.3c2.1-6.8,4.1-13.5,6.1-20.2
	c1.2-4.1,2.2-8.3,3.7-12.2c1.1-3,0.8-5.3-0.9-8c-10.8-16.5-21.3-33.2-32-49.8c-0.4-0.6-0.8-1-1.7-2.1c-1,6.6-2,12.5-2.9,18.5
	c-1.8,11.9-3.4,23.8-5.3,35.6c-0.4,2.4,0,4.2,1.8,5.9c2.8,2.7,5.5,5.6,8.2,8.4c0.9,0.9,1.6,1.8,0.9,3.3
	c-4.7,10.9-10.2,21.4-15.7,32.7c-3.3-5.7-6.4-10.9-9.4-16.1c-4.8-8.3-9.5-16.6-14.3-24.9c-0.8-1.3-1.2-2.7-1.2-4.2
	c0-28.9,0-57.8,0-86.7c0-2.4,0.6-3.2,3.1-3.2c57.9,0.1,115.8,0.1,173.7,0c2.4,0,2.9,0.7,2.9,2.9C346,252.1,346,281.1,346,310.1z"/>
<path fill="#FBFBFB" d="M343.1,220.1c-57.9,0.1-115.8,0.1-173.7,0c-2.5,0-3.1,0.8-3.1,3.2c0.1,28.9,0.1,57.8,0,86.7
	c0,1.6,0.4,2.9,1.2,4.2c4.8,8.3,20.4,35.4,23.7,41.1c5.5-11.2,10.9-21.8,15.7-32.7c0.7-1.5,0-2.4-0.9-3.3c-2.7-2.8-5.4-5.7-8.2-8.4
	c-1.8-1.7-2.1-3.4-1.8-5.9c1.9-11.8,7.2-47.5,8.2-54.1c0.9,1.1,22.9,35.4,33.7,52c1.8,2.7,2.1,5,0.9,8c-1.5,4-2.5,8.2-3.7,12.2
	c-2,6.7-4,13.3-6.1,20.2c-2.7-2.6-5.2-4.8-7.4-7.3c-1.6-1.9-2.5-1.7-3.8,0.2c-6.4,9.4-12.8,18.7-19.3,28c-1,1.5-1,2.5-0.1,4
	c3.7,6.1,7.3,12.3,10.7,18.6c1.3,2.4,2.2,2.8,4.7,1.4c8.3-4.7,16.7-9.2,25.1-13.8c0.2,0.2,0.3,0.4,0.5,0.6
	c-3.5,8.9-6.8,17.8-10.4,26.7c-4.7,11.6-4.7,11.6,1.6,22.6c1,1.7,2.1,2.3,4.1,2.3c14-0.1,28-0.1,42,0c2.8,0,4.3-0.8,5.7-3.2
	c20.8-36.4,41.6-72.7,62.5-109c0.8-1.4,1.1-2.7,1.1-4.3c0-29,0-58,0-87C346,220.9,345.5,220.1,343.1,220.1z M316.1,309.4
	c-10.7,11.3-21.4,22.7-32.5,34.4c-3.7-12.1-7.2-23.7-10.6-35.3c-0.3-1.1-0.5-2.2,0.2-3.3c11.4-17.7,22.7-35.4,34.1-53
	c0.2-0.2,0.4-0.4,1.1-0.9c0.8,5,1.6,9.6,2.3,14.2c2,13.6,4,27.2,6,40.7C316.8,307.3,317.1,308.3,316.1,309.4z"/>
<path fill="#FBFBFB" d="M275.2,190c22.6-0.1,45.3-0.1,67.9,0c2.8,0,3-0.7,2.1-3.2c-9.5-26.3-33.2-93.1-35.8-100.3
	c-1.1,0.7-1.2,1.5-1.4,2.3c-11.6,32.7-23.3,65.3-35,98C272.1,189.1,272.3,190,275.2,190z"/>
<path fill="#FBFBFB" d="M169.2,189.9c22.6,0,45.3-0.1,67.9,0c2.9,0,3.2-0.7,2.3-3.3c-5.9-16.3-11.6-32.6-17.4-48.9
	c-6.1-17-12.2-34.1-18.5-51.7c-0.6,1.3-1,1.9-1.2,2.5c-11.7,32.9-23.4,65.8-35.2,98.7C166.3,189.8,167.1,189.9,169.2,189.9z"/>
<path fill="#010101" d="M308.3,251.2c-0.6,0.5-23.8,36.3-35.1,54c-0.7,1.1-0.6,2.2-0.2,3.3c3.5,11.6,7,23.1,10.6,35.3
	c11.1-11.8,21.7-23.1,32.5-34.4c1-1.1,0.7-2,0.6-3.2C314.6,292.6,309.1,256.2,308.3,251.2z"/>
</svg>
