<svg version="1.1" id="Ebene_2" xmlns="http://www.w3.org/2000/svg" xmlns:xlink="http://www.w3.org/1999/xlink" x="0px" y="0px"
	 viewBox="0 0 512 512" style="enable-background:new 0 0 512 512;" xml:space="preserve">
<g>
	<path fill="#181818" d="M115.3,364.8c-2.4,0.1-4.8,0.1-7.2,0c-1.5-0.1-1.8,0.4-1.7,1.8c0.1,9.8,0,19.5,0.1,29.3c0,1.5-0.2,2.1-1.9,2
		c-3.5-0.2-7-0.1-10.5,0c-1.6,0.1-2.1-0.3-2.1-2c0.1-9.8,0-19.7,0.1-29.5c0-1.2-0.3-1.7-1.6-1.6c-2.5,0.1-5,0.1-7.4,0
		c-1.4-0.1-1.8,0.4-1.8,1.8c0.1,12.6,0,25.2,0,37.8c0,12.6,0,25.2,0,37.8c0,1.7,0.5,2,2,1.9c2.2-0.1,4.5-0.1,6.7,0
		c1.6,0.1,2.1-0.4,2.1-2.1c-0.1-10.9,0-21.7-0.1-32.6c0-1.3,0.2-1.8,1.7-1.7c3.6,0.1,7.2,0.1,10.9,0c1.5,0,2,0.3,2,1.9
		c-0.1,10.7,0,21.5-0.1,32.2c0,1.9,0.6,2.3,2.3,2.2c2.2-0.2,4.5-0.1,6.7,0c1.4,0.1,1.8-0.3,1.8-1.8c-0.1-10,0-19.9,0-29.9
		c0-15.3,0-30.7,0-46C117.1,365.1,116.7,364.7,115.3,364.8z"/>
	<path fill="#181818" d="M167,442.9c-1.6-7.9-3.1-15.8-4.6-23.7c-1.6-8.3-3.2-16.6-4.8-24.9c-1.8-9.5-3.7-18.9-5.4-28.4
		c-0.2-1.1-0.7-1.2-1.5-1.2c-2.5,0-5.1,0-7.6,0c-2.7,0-2.5,0-2.9,2.6c-0.6,4.2-1.5,8.3-2.3,12.5c-0.6,3.3-1.4,6.6-2,9.9
		c-0.8,4.2-1.5,8.4-2.3,12.5c-0.5,2.6-1.1,5.3-1.6,7.9c-0.8,4.2-1.5,8.5-2.3,12.7c-0.5,2.6-1.3,5.1-1.6,7.8
		c-0.5,4.1-1.6,8.1-2.4,12.2c-0.3,1.3,0.1,1.1,0.9,1.1c2.6,0,5.2-0.1,7.8,0.1c1.4,0.1,1.9-0.5,2.4-1.6c0.3-0.6-0.2-1-0.1-1.7
		c0.8-3.6,1.5-7.1,1.8-10.8c0.1-0.9,0.5-1.6,1.7-1.5c2,0.1,4,0,6,0c2.1,0,4.2,0,6.3,0c0.8,0,1,0.2,1.2,1.1c0.6,2.2,0.1,4.5,1,6.6
		c0.9,2,0.5,4.3,1,6.4c0.3,1.2,0.7,1.3,1.6,1.3c2.9,0,5.8,0,8.7,0C166.9,444.1,167.2,443.9,167,442.9z M150.7,419.9
		c-2.9-0.1-5.8-0.1-8.7,0c-1.4,0.1-1.7-0.3-1.5-1.7c1.4-7.3,2.8-14.5,4.2-21.8c0.4-2.3,0.9-4.7,1.4-7.2c0.9,0.6,0.8,1.2,0.9,1.7
		c1.6,9.2,3.2,18.4,4.9,27.5C152.2,419.8,151.9,419.9,150.7,419.9z"/>
	<path fill="#181818" d="M385.1,442.3c-0.1-9,0-18-0.1-27c0-1.5,0.4-1.8,1.8-1.8c4.5,0.1,9.1,0,13.6,0c5.8,0,8.1-2.3,8.1-8
		c0-10.9-0.1-21.8,0-32.8c0.1-5.1-2.4-8-8.1-8c-8.1,0-16.3,0-24.4,0c-1.3,0-1.7,0.3-1.7,1.7c0.1,12.6,0,25.2,0,37.8
		c0,12.6,0,25.2,0,37.8c0,1.5,0.2,2.2,1.9,2c2.3-0.2,4.7-0.2,7.1,0C384.8,444.2,385.1,443.7,385.1,442.3z M385,374.9
		c0-1.1,0.3-1.4,1.4-1.4c3.3,0.1,6.6,0.1,9.9,0c1.3,0,1.4,0.4,1.4,1.5c0,1.2,0,2.4,0,3.6c0,3.6,0,7.1,0,10.7c0,2.4,0,4.8,0,7.1
		c0,2.4,0,4.8,0,7.1c0,1.2-0.3,1.5-1.5,1.5c-3.3-0.1-6.5-0.1-9.8,0c-1.1,0-1.6-0.2-1.6-1.4C385.1,394,385.1,384.4,385,374.9z"/>
	<path fill="#181818" d="M209.8,437.9c0-6.9,0-13.9,0-20.8c0-0.1-0.1-0.3-0.2-0.6c-3.1,1.5-6.1,3-9.1,4.4c-1.1,0.5-1.3,1.1-1.3,2.2
		c0.1,3.6,0,7.2,0,10.9c0,1-0.2,1.4-1.3,1.4c-3.4-0.1-6.8-0.1-10.1,0c-0.9,0-1.2-0.3-1.2-1.2c0-19.8,0-39.7,0-59.5
		c0-0.9,0.2-1.2,1.2-1.2c3.4,0.1,6.8,0.1,10.1,0c1,0,1.3,0.3,1.3,1.3c-0.1,2.3,0,4.6,0,6.9c0,0.8,0.1,1.3,1,1.7
		c3.1,1.5,6.3,3.1,9.7,4.8c0-5.8,0-11.2,0-16.7c0-3.8-2.8-6.6-6.6-6.6c-6.9,0-13.8,0-20.6,0c-2,0-3.7,0.5-5.1,2
		c-1.1,1.3-1.6,2.7-1.6,4.4c0.1,22.1,0,44.3,0,66.4c0,0.1,0,0.2,0,0.4c-0.2,2.6,2.5,5.9,5.1,6c7.6,0.1,15.2,0.1,22.8,0
		C207,444,209.8,441.2,209.8,437.9z"/>
	<path fill="#181818" d="M157.6,504.8c0.1-1.8-0.2-3.2-1.9-4.2c-1.1-0.6-1.7-1.9-2.7-2.5c-1-0.7-1.1-1.5-1.1-2.6
		c0-14.2-0.1-28.5,0.1-42.7c0-3.4-2.5-5.8-5.6-5.8c-6.5,0-13,0.1-19.5,0.1c-0.7,0-1.1,0.2-1.6,0.5c-2,1.1-2.5,2.9-2.5,5.1
		c0,8.6,0,17.3,0,25.9c0,8.8,0,17.6,0,26.4c0,3.3,1.8,5.4,5.2,5.4c6.3,0.1,12.7,0,19,0c2,0,3.5-0.8,4.4-2.6c0.5-1,0.9-1,1.6-0.3
		c0.8,0.8,1.7,1.4,2.5,2.2c0.5,0.5,1.1,0.7,1.8,0.5c0.8-0.2,0.4-0.9,0.4-1.4C157.6,507.6,157.5,506.2,157.6,504.8z M143.3,503.2
		c-0.3,0.5-0.7,0.3-1.1,0.3c-3.1,0-6.3-0.1-9.4,0c-1.2,0-1.5-0.3-1.5-1.5c0-9.1,0-18.1,0-27.2c0-6.4,0-12.8,0-19.2
		c0-1.3,0.3-1.7,1.6-1.6c3.1,0.1,6.2,0.1,9.2,0c0.9,0,1.3,0.1,1.3,1.2c0,11.5,0,22.9,0,34.4c0,0.1-0.1,0.2-0.3,0.4
		c-1.3-1-2.5-2-3.7-3.1c-0.4-0.3-0.8-0.6-1.3-0.4c-0.5,0.2-0.2,0.8-0.3,1.1c0,0.2,0,0.5,0,0.7c-0.8,4.5,0.5,8,4.6,10.2
		C143.2,499.2,143.7,502.4,143.3,503.2z"/>
	<path fill="#181818" d="M364.5,444.1c1.1,0,1.3-0.4,1.3-1.4c-0.1-2-0.1-4,0-6c0.1-1.2-0.3-1.4-1.4-1.4c-4.5,0.1-8.9,0-13.4,0.1
		c-1.3,0-1.6-0.3-1.6-1.6c0.1-8.1,0.1-16.3,0-24.4c0-1.3,0.5-1.6,1.7-1.5c4,0.1,8.1,0,12.1,0c1,0,1.4-0.3,1.3-1.3
		c-0.1-1.9-0.1-3.9,0-5.8c0.1-1.3-0.2-1.8-1.6-1.7c-4,0.1-8,0-11.9,0.1c-1.2,0-1.5-0.3-1.5-1.5c0.1-7.6,0.1-15.2,0-22.8
		c0-1.1,0.3-1.4,1.4-1.4c4.4,0.1,8.8,0,13.2,0.1c1.2,0,1.5-0.3,1.5-1.5c-0.1-1.8-0.1-3.6,0-5.4c0.1-1.3-0.2-1.8-1.7-1.8
		c-7.8,0.1-15.6,0.1-23.4,0c-1.4,0-1.8,0.3-1.8,1.8c0.1,12.6,0,25.2,0,37.8c0,12.7,0,25.3,0,38c0,0.9-0.3,1.8,1.2,1.8
		C348.1,444.1,356.3,444.1,364.5,444.1z"/>
	<path fill="#181818" d="M244.3,444.1c0.9,0,1.3-0.2,1.2-1.2c-0.1-1.9-0.1-3.9,0-5.8c0.1-1.3-0.3-1.8-1.7-1.7c-4.4,0.1-8.8,0-13.2,0.1
		c-1.1,0-1.5-0.2-1.5-1.5c0.1-8.2,0.1-16.4,0-24.6c0-1.2,0.4-1.5,1.5-1.5c4,0.1,8.1,0,12.1,0c1.1,0,1.5-0.2,1.4-1.4
		c-0.1-2-0.1-4.1,0-6.2c0-1-0.3-1.3-1.3-1.3c-4,0.1-8-0.1-11.9,0.1c-1.6,0-1.9-0.5-1.9-1.9c0.1-7.3,0.1-14.6,0-21.9
		c0-1.4,0.2-2,1.8-1.9c4.3,0.1,8.6,0,12.9,0.1c1.2,0,1.5-0.4,1.5-1.5c-0.1-1.8-0.1-3.6,0-5.4c0.1-1.4-0.3-1.8-1.7-1.8
		c-7.8,0.1-15.6,0.1-23.4,0c-1.4,0-1.8,0.4-1.8,1.8c0.1,12.6,0,25.2,0,37.8c0,12.7,0,25.5,0,38.2c0,0.9-0.2,1.6,1.2,1.6
		C227.9,444.1,236.1,444.1,244.3,444.1z"/>
	<path fill="#181818" d="M442.6,435.4c-4.5,0.1-8.9,0-13.4,0.1c-1.2,0-1.5-0.3-1.5-1.5c0.1-8.1,0.1-16.3,0-24.4c0-1.2,0.3-1.7,1.6-1.6
		c3.9,0.1,7.8-0.1,11.8,0.1c1.6,0,1.9-0.5,1.8-1.9c-0.1-1.8-0.1-3.6,0-5.4c0.1-1.2-0.4-1.5-1.5-1.5c-4,0.1-8.1,0-12.1,0.1
		c-1.2,0-1.5-0.3-1.5-1.5c0.1-7.6,0.1-15.2,0-22.8c0-1.1,0.3-1.4,1.4-1.4c4.3,0.1,8.7,0,13,0.1c1.4,0,1.8-0.4,1.7-1.7
		c-0.1-1.8-0.1-3.6,0-5.4c0.1-1.3-0.4-1.6-1.6-1.6c-7.8,0.1-15.7,0.1-23.5,0c-1.4,0-1.6,0.5-1.6,1.7c0,12.6,0,25.2,0,37.8
		c0,12.7,0,25.5,0,38.2c0,0.8-0.2,1.6,1.2,1.6c8.2-0.1,16.4,0,24.6,0c1,0,1.2-0.3,1.2-1.3c-0.1-2-0.1-4,0-6
		C444.2,435.7,443.8,435.4,442.6,435.4z"/>
	<path fill="#181818" d="M281.7,452.2c-2.6-3.8-6.5-4.9-10.7-5.1c-4.3-0.1-8.7,0-13-0.1c-1.4,0-1.8,0.3-1.8,1.8c0.1,10,0,19.9,0,29.9
		c0,6.5,0,13,0,19.6c0,3.7,0,7.4,0,11c0,0.7-0.1,1.3,0.9,1.3c5.5-0.1,11.1,0.4,16.6-0.2c5.8-0.7,9.5-4.5,9.5-9.8
		c0-14.3,0-28.6,0-42.9C283.2,455.7,282.8,453.8,281.7,452.2z M274.6,497.7c0,3.9-1.9,5.8-5.9,5.9c-3.9,0-3.9,0-3.9-3.9
		c0-7,0-14,0-21c0-1.9,0-3.8,0-5.7c0-5.7,0-11.5,0-17.2c0-1.2,0.2-1.8,1.6-1.6c1,0.1,2,0,3.1,0c3.4,0.1,5.2,2,5.2,5.4
		c0,6.1,0,12.3,0,18.4C274.6,484.5,274.6,491.1,274.6,497.7z"/>
	<path fill="#181818" d="M249.3,458.5c0-1.3-0.2-2.6-0.4-3.9c-0.7-3.4-3.9-4.7-6-7c-2,0.4-4-0.5-6-0.5c-4.4,0-8.8,0.1-13.2,0
		c-1.3,0-1.6,0.4-1.6,1.6c0,10,0,20,0,30c0,2.5,0,4.9,0,7.4c0,7.6,0,15.2,0,22.8c0,0.7-0.4,1.7,1,1.6c5.5-0.1,11,0.4,16.5-0.2
		c5.8-0.6,9.8-4.8,9.7-10.8C249.1,485.9,249.3,472.2,249.3,458.5z M240.6,498.6c0,2.6-1.6,4.5-4.2,4.9c-1.6,0.2-3.2,0.1-4.9,0.1
		c-1.2,0-0.8-0.9-0.8-1.4c0-5.4,0-10.7,0-16.1c0-2.4,0-4.8,0-7.2c0-7.6,0.1-15.2,0-22.8c0-1.7,0.5-2.1,2-1.9c1.1,0.1,2.3,0,3.4,0.1
		c2.7,0.3,4.5,2.1,4.5,4.8C240.7,472.2,240.7,485.4,240.6,498.6z"/>
	<path fill="#181818" d="M191.4,447c-1.7,0.1-3.5,0.1-5.2,0c-1.6-0.1-2.1,0.4-2.1,2c0.1,17.6,0,35.2,0.1,52.8c0,1.4-0.3,1.7-1.7,1.7
		c-2.6-0.1-5.3-0.1-8,0c-1.1,0-1.4-0.2-1.4-1.4c0.1-3.7,0-7.4,0-11c0-14.1,0-28.2,0-42.3c0-1.4-0.3-1.9-1.8-1.8
		c-1.7,0.1-3.5,0.1-5.2,0c-1.4-0.1-1.7,0.4-1.7,1.7c0.1,9.6,0,19.2,0,28.8c0,9.2,0.1,18.5-0.1,27.7c-0.1,4.2,2.4,5.4,5.5,5.4
		c5.9,0,11.7,0,17.6,0c3.3,0,5.3-2,5.3-5.3c0-18.9,0-37.9,0-56.8C192.8,447.4,192.5,446.9,191.4,447z"/>
	<path fill="#181818" d="M409.3,478.9c0-10,0-19.9,0-29.9c0-1.5-0.2-2.2-1.9-2c-1.6,0.2-3.3,0.1-4.9,0c-1.4-0.1-1.8,0.3-1.8,1.7
		c0.1,7.7,0,15.4,0.1,23.2c0,1.3-0.3,1.7-1.6,1.6c-2.7-0.1-5.4-0.1-8.1,0c-1.6,0.1-1.8-0.5-1.8-1.9c0.1-7.7,0-15.3,0.1-23
		c0-1.2-0.2-1.7-1.6-1.6c-1.9,0.1-3.7,0.1-5.6,0c-1.1-0.1-1.6,0.2-1.5,1.5c0.1,2,0,4.1,0,6.2c0,18,0,36.1,0,54.1
		c0,1.3,0.2,2,1.7,1.8c1.7-0.1,3.4-0.1,5.1,0c1.5,0.1,1.9-0.3,1.9-1.9c-0.1-8.6,0-17.1-0.1-25.7c0-1.1,0.2-1.6,1.5-1.5
		c2.7,0.1,5.4,0.2,8.1,0c1.7-0.1,2,0.5,2,2c-0.1,8.4,0,16.8-0.1,25.2c0,1.4,0.2,2.1,1.8,1.9c1.6-0.2,3.3-0.1,4.9,0
		c1.5,0.1,1.9-0.3,1.9-1.8C409.3,498.8,409.3,488.8,409.3,478.9z"/>
	<path fill="#181818" d="M286.7,364.8c-10.5,0-21,0-31.5,0c-0.9,0-1.1,0.3-1.1,1.1c0.1,2,0.1,4.1,0,6.2c-0.1,1.3,0.4,1.5,1.5,1.5
		c2.8-0.1,5.6,0.1,8.3-0.1c1.4-0.1,1.7,0.3,1.7,1.7c-0.1,11.2,0,22.3,0,33.5c0,0.8,0,1.7,0,2.5c0,10.4,0,20.9,0,31.3
		c0,1.4,0.4,1.8,1.7,1.7c2.3-0.1,4.6-0.2,6.9,0c1.9,0.2,2.2-0.5,2.2-2.3c-0.1-22.2,0-44.4-0.1-66.6c0-1.5,0.4-1.9,1.9-1.8
		c2.8,0.1,5.7,0,8.5,0.1c0.8,0,1.2-0.2,1.2-1.1c-0.1-2.2-0.1-4.3,0-6.5C287.9,365,287.5,364.8,286.7,364.8z"/>
	<path fill="#181818" d="M316.7,444.2c1.8,0.1,2-0.6,2-2.1c0-22.3,0-44.5-0.1-66.8c0-1.4,0.3-1.9,1.7-1.8c2.8,0.1,5.7,0,8.5,0
		c0.8,0,1.2-0.1,1.2-1c-0.1-2.2-0.1-4.5,0-6.7c0-0.8-0.3-1-1.1-1c-10.5,0-21,0-31.5,0c-0.9,0-1.1,0.3-1.1,1.1c0.1,2.1,0.1,4.1,0,6.2
		c0,1.1,0.2,1.5,1.4,1.4c2.8-0.1,5.7,0.1,8.5-0.1c1.4-0.1,1.7,0.3,1.7,1.7c-0.1,11.2,0,22.3,0,33.5c0,11.2,0,22.4,0,33.7
		c0,1.5,0.4,1.9,1.9,1.9C312.1,444,314.4,444,316.7,444.2z"/>
	<path fill="#181818" d="M372.4,488.9c-1.9,1.3-4,2.1-6.1,3.1c-0.9,0.4-1.2,0.9-1.2,1.9c0.1,2.8,0,5.6,0,8.3c0,1-0.2,1.4-1.3,1.3
		c-2.2-0.1-4.5-0.1-6.7,0c-1.5,0.1-2-0.2-2-1.9c0.1-11.9,0-23.8,0-35.7c0-3.6,0-7.1,0-10.7c0-0.9,0.3-1.2,1.2-1.2
		c2.5,0.1,5.1,0.1,7.6,0c0.9,0,1.2,0.2,1.1,1.1c-0.1,1.7,0,3.5,0,5.2c0,0.6,0,1.1,0.7,1.5c2.5,1.2,5.1,2.5,7.9,3.9
		c0-4.6,0-8.9,0-13.2c0-3.4-2.1-5.5-5.5-5.6c-5.4,0-10.7,0-16.1,0c-1.1,0-2.2,0.2-3.3,0.8c-2,1.2-2.3,3.1-2.3,5.2
		c0,17.3,0,34.5,0,51.8c0,0.7,0.1,1.4,0.1,2.2c0.2,1.7,1.9,3.3,3.6,3.5c6.3,0.5,12.5,0.2,18.8,0.1c2.6,0,4.6-2.2,4.6-4.8
		c0.1-5.3,0-10.6,0-15.9C373.8,488.4,373.1,488.4,372.4,488.9z"/>
	<path fill="#181818" d="M339.7,448.1c0-0.8-0.2-1-1-1c-8.3,0-16.6,0-25,0c-0.9,0-1.1,0.4-1.1,1.2c0,1.6,0.1,3.1,0,4.7
		c0,0.9,0.2,1.2,1.2,1.2c2.1-0.1,4.2,0.1,6.3-0.1c1.5-0.1,1.8,0.4,1.8,1.8c-0.1,8.7,0,17.5,0,26.2c0,8.9,0,17.9,0,26.8
		c0,1.4,0.4,1.8,1.7,1.7c1.7-0.1,3.5-0.1,5.2,0c1.3,0.1,1.8-0.3,1.7-1.7c-0.1-5.8,0-11.6,0-17.4c0-11.9,0-23.8,0-35.7
		c0-1.4,0.4-1.9,1.8-1.8c2,0.1,4.1,0,6.2,0c0.9,0,1.3-0.2,1.3-1.2C339.7,451.3,339.7,449.7,339.7,448.1z"/>
	<path fill="#181818" d="M215.2,450.7c0-1.1-0.4-1.3-1.3-1.3c-1.7,0.1-3.5,0.1-5.2,0c-1.4-0.1-1.8,0.3-1.8,1.7c0.1,9.5,0,19.1,0,28.6
		c0,9.7,0,19.4,0,29.1c0,1.4,0.3,1.8,1.7,1.7c1.7-0.1,3.5-0.1,5.2,0c1.1,0,1.5-0.2,1.5-1.4C215.1,489.7,215.1,470.2,215.2,450.7z"/>
	<path fill="#181818" d="M305.7,480.2c0-9.7,0-19.4,0-29.1c0-1.3-0.3-1.7-1.6-1.6c-1.7,0.1-3.4,0.1-5.1,0c-1.4-0.1-1.8,0.3-1.8,1.7
		c0.1,12.3,0,24.6,0,36.9c0,7,0,14,0,21c0,1.1,0.2,1.6,1.5,1.5c1.7-0.1,3.5-0.1,5.2,0c1.3,0.1,1.7-0.3,1.7-1.7
		C305.6,499.3,305.7,489.7,305.7,480.2z"/>
</g>
<path fill="#181818" d="M201.8,360.1c-3.5-11.2-6.2-22.6-7.5-34.4c-1.8-16.1-1.1-32.1,3-47.9c0.1-0.2,0.1-0.5,0.2-1
	c-1.3,0.8-2.4,1.5-3.5,2.1c-3,1.7-5,0.8-5.6-2.6c-0.8-4.1-0.2-8.2,0.2-12.2c0.3-3.5,0.8-7.1,1.2-10.6c0.1-0.5,0.3-1.2-0.4-1.4
	c-0.5-0.2-0.8,0.4-1.2,0.7c-4,3.5-8,7-12,10.5c-0.4,0.4-0.8,1.1-1.5,0.6c-0.7-0.5,0-1.1,0.3-1.6c8.2-14.4,16.3-28.9,26.6-42
	c6.8-8.6,14.2-16.6,22.6-23.6c1.9-1.6,3.6-1.8,5.8-0.6c1.5,0.9,3.1,1.7,4.8,2.2c0.6,0.2,1.1,0.4,1.7,0.5c-0.6-1.6-2.1-2.4-3.2-3.5
	c-1.8-1.9-3.8-3.7-5.7-5.5c-0.4-0.4-1.2-0.7-0.6-1.4c0.5-0.7,1.1-0.2,1.6,0.1c3.5,2.2,7,4.4,10.6,6.6c0.6,0.4,1.2,1.3,2,0.6
	c0.8-0.7,0.3-1.6,0-2.3c-1.8-6-5.5-10.6-10.1-14.7c-2.6-2.4-5.4-4.6-8.1-6.9c-0.2-0.1-0.5-0.1-0.4-0.3c0.1-0.2,0.4,0,0.5,0.2h0
	c0,0,0,0,0,0c5.5,1.8,10.9,3.8,15.6,6.9c1.6,1.1,3.1,2.3,4.5,3.6c3.2,3.2,5.2,7,6.4,11.5c1.9-2.2,2.4-4.3,1.3-6.8
	c-0.8-1.7-1.5-3.4-2.3-5.1c10.8,7,23.1,10.7,34.4,16.3c3.3,1.6,6.2,3.8,8.8,6.3c5.7,5.4,12.4,9.3,19.1,13.4c1.7,1,3.2,2.4,4.7,3.6
	c0.6,0.5,0.9,0.9,0.1,1.7c-2.5,2.4-2.5,3.3-0.1,5.8c1.4,1.6,3,3,4.5,4.5c1.7,1.7,1.9,3,0.4,4.9c-0.8,1.1-1.8,2.1-2.8,3.1
	c-1.7,1.7-2.9,1.7-5.1,0c-4-3.1-8.5-4.7-13.5-4.8c-0.1,0-0.2,0-0.8,0.1c2.4,1.3,4.5,2.4,6.5,3.5c2.2,1.2,4.5,2.4,5.6,4.9
	c0.4,1,0.5,1.7-0.4,2.5c-1.9,1.6-3.7,2.5-6.4,2.2c-8-1.1-16-2.3-23.9-3.7c-0.8-0.1-1.6-0.3-2.1-0.9c-1.9-2.2-4.4-1.9-6.9-1.4
	c-2.7,0.5-5.2,1.8-7.3,3.5c-3.5,3-7.3,3.1-11.6,2.3c-10.5-1.9-19.9-6.3-29.2-11.4c-1.9-1.1-2.4-2.5-1.8-4.8
	c1.8-6.9,5.4-12.7,10.3-17.8c2-2.2,4.3-4.2,6.4-7c-4.3,1.4-7.9,3.2-11.1,5.6c-7.2,5.3-11.6,12.5-13.5,21.2c-0.7,3,0.2,5.5,2.7,7.3
	c5.4,3.9,11.6,6.3,17.9,8.5c3.7,1.3,7.5,2.1,11.1,3.7c7.8,3.5,13.1,9.4,17,16.8c3,5.9,6.1,11.8,9,17.8c0.7,1.4,0.9,3,1.2,4.5
	c0.1,0.5,0.2,1-0.4,1.2c-0.5,0.2-0.8-0.1-1.1-0.4c-1-1-2-2.1-3-3.1c-0.3-0.3-0.5-0.8-1-0.6c-0.6,0.3-0.3,0.8-0.2,1.3
	c0.7,5.5,3.5,10.1,6.9,14.3c8.1,10.2,18.5,17.7,29.5,24.5c20.2,12.5,42,21.2,64.7,27.9c4.2,1.2,8.3,2.5,12.6,3.3
	c-2.1-1.6-4.5-2.9-6.9-4c-9-4.3-18-8.7-26.8-13.4c-10.4-5.5-20.6-11.3-30.4-17.8c-7.7-5-15.4-10.2-22.1-16.6
	c-7.1-6.8-13-14.4-17.8-22.9c-5.4-9.4-9.4-19.4-12.3-29.9c-0.7-2.4,0.1-4.3,2.1-5.3c4.8-2.5,9.9-2.4,15.1-1.7c2,0.3,4,0.7,6,1.1
	c2.7,0.5,5.4,0.8,8.2,1.3c2.8,0.5,5.5,1.3,8.3,1.6c5.3,0.5,9.7-1.3,12.8-5.9c1.1-1.6,2.4-3,4-4.1c2.3-1.6,4.3-3.5,5.7-6
	c1.3-2.4,2.1-4.9,1.6-7.7c-0.7-4.2-3.1-7.4-6.1-10.1c-3-2.7-6.3-5.1-9.7-7.3c-5.9-3.9-11.9-7.7-17.7-11.8c-2.1-1.5-3.6-3.8-5.8-5.3
	c-5.5-3.7-11.5-6.4-17.3-9.3c-11-5.5-20.7-12.6-27.6-23.1c-7.4-11.3-10.8-23.4-9.3-36.9c0.2-1.4,0.3-2.9,0.4-4.6
	c-3.5,2.2-5.4,5.2-6.8,8.7c-2.1,5.5-0.7,11.1-0.5,16.6c0.1,2.9,0.3,5.9-0.2,8.8c-0.6,3.4-2.7,4.7-6.1,3.7c-4.6-1.4-8.4-3.9-11.6-7.4
	c-6.5-7.2-8.8-16-9.2-25.4c-0.4-10.1,2-19.7,5-29.2c4.9-15.4,12.2-29.7,20.3-43.6c1.2-2.1,2.4-4.3,3.6-6.4c-0.7-0.3-1,0.1-1.4,0.4
	c-3.2,2.3-6.2,4.9-9,7.6c-2.9,2.9-5.5,6-7.7,9.3c-1.9,2.8-3.4,6-6.2,8.2c-3.2,2.5-6.2,2.9-8.4-1.4c-3.2-6.4-4.2-13.1-3.2-20.1
	c0.8-5.6,2.7-10.8,4.8-16c0.3-0.8,0.6-1.7,0.9-2.5c0.2-0.8,1-1.6,0.6-2.7c-4.5,4.2-7.6,9-9.9,14.5c-2.8,6.9-4.8,14-4.2,21.5
	c0.2,2,0.4,3.9,0.9,5.9c0.7,3-0.2,6-0.7,9c-0.3,1.8-1.1,3-2.6,4c-5.1,3.3-13.5,0.9-16.9-4.7c-5.4-8.9-8.9-18.5-9.5-28.9
	c-0.3-5-0.1-10,1-14.9c0.8-3.5,2.4-6.6,3.6-10c0.4-1.1,1.7-3,1-3.3c-1.2-0.5-2.3,1.2-3.3,2.1c-5.6,5-9.4,11.1-11.4,18.4
	c-2.7,9.9-1.6,19.6,1.9,29.1c1.5,4,3.1,7.8,5.2,11.6c3.8,6.8,8.4,13.1,13.4,19c4,4.7,7.1,10,8.7,16.1c1.5,5.8,0.3,10.8-4.1,14.9
	c-1.4,1.3-3.1,2.5-4.8,3.5c-3.3,1.8-6.7,2.6-10.4,1.5c-4.2-1.3-7.2-4.3-9.6-7.8c-7.3-10.4-11.3-22-12.2-34.6
	c-0.8-11.7,0.1-23.4,1.9-34.9c1-6.2,2.3-12.3,3.8-18.4c2.6-10.7,6-21.1,9.3-31.5c0.2-0.6,0.6-1.1-0.1-1.6c-0.8-0.5-1.1,0.3-1.4,0.7
	c-1.1,1.5-2.2,3.1-3.3,4.6c-2.3,3.1-3.8,6.7-5.3,10.2c-1.9,4.6-3.6,9.3-5.5,13.9c-1.4,3.5-2.2,7.2-4.4,10.3
	c-2.9,4.1-7.9,5.9-12.3,1.6c-3.4-3.4-6.2-7.3-8.5-11.5c-4.7-8.6-5.9-18-5.2-27.6c0.3-4.4,0.4-8.8,0.7-13.5c-1.7,1.9-2.8,3.7-3.7,5.6
	c-2.1,4.5-3.1,9.3-3.3,14.3c-0.2,5.6-0.3,11.2,0.8,16.7c1.2,6,3.2,11.8,5.2,17.7c1.7,4.7,4,9.3,3.8,14.6c-0.1,1.9-0.8,3.6-1.9,4.9
	c-3.9,4.7-8.5,5.6-13.9,2.8C82.4,71.7,74.9,65,69.3,56.3C61.9,45,58.5,32.5,58.4,19.1c0-4.5,0.3-9,1-13.5c0.2-1.3,0.2-2.6,0.3-4.3
	c-0.6,0.5-0.8,0.7-1.1,1c-6.2,6.8-9.5,14.9-10.3,23.9c-0.5,5.3-0.2,10.8,1.1,16c2.3,9.1,5.9,17.7,11,25.5c5,7.7,10.7,15,16.9,21.8
	c9.1,10,18.9,19.1,29.2,27.8c2.5,2.1,4.6,4.5,6,7.4c2.6,5.5,1.6,10.8-3.1,14.7c-7.5,6.3-16.2,5.6-23.8-1.2
	c-8.7-7.9-17.1-16.2-24.5-25.4c-0.3-0.3-0.5-1-1.1-0.7c-0.4,0.2-0.2,0.8-0.2,1.1c0,0.3,0,0.6,0,0.9c1.3,3.9,2.3,7.8,4,11.6
	c2.6,5.8,6.2,10.9,10.3,15.6c5.9,6.7,12.7,12.1,20.2,16.8c5,3.2,10.4,5.8,15.9,8c4.8,1.9,9.6,3.4,14.6,4.8c3.9,1.1,7.9,2,11.9,2.9
	c2.7,0.6,5.4,1.1,8.1,1.7c2.4,0.6,4.9,1.1,7.3,1.2c3,0.1,5.9,1.1,8.9,1.2c2.3,0.1,4.7,0.8,7.1,0.6c0.3,0,0.6-0.1,0.9,0
	c2.9,1,6,0.5,9,0.7c4.7,0.3,9.4,0.3,14.1,0.3c6.2,0,12.4-0.1,18.6-0.3c3.5-0.1,3.6-0.4,2.6-3.7c-0.3-1-0.6-2-0.9-2.9
	c-0.9-3.3-1.6-6.7-1.2-10.2c0.3-2.5,0.5-2.7,2.9-2c5,1.4,9.9,3.1,14.6,5.3c5.4,2.6,10.6,5.4,14.8,9.9c0.5,0.5,1.2,0.9,0.8,1.9
	c-0.2-0.2-0.4-0.5-0.6-0.6c-8.8-7.3-19-11.5-29.8-14.5c-0.9-0.3-1.1,0.1-1.2,0.9c-0.1,3.1,0.1,6.1,0.7,9.2
	c1.1,5.4,3.5,10.2,6.8,14.6c2.1,2.8,1.7,3.1,0.1,4.4c-4.1,3.2-7.8,6.8-11.4,10.5c-3.4,3.5-6.7,7-9.9,10.7
	c-4.9,5.7-9.5,11.7-13.7,17.9c-3.5,5.1-6.5,10.4-9.6,15.8c-3.7,6.6-6.7,13.6-9.6,20.5c-2,4.8-3.6,9.8-5.2,14.8
	c-0.7,2.3-1.6,4.6-1.8,7.1c0.8-0.3,1.2-0.8,1.6-1.3c4.3-4.9,8.4-9.9,12.7-14.7c1.7-1.9,2.9-4.2,5.2-5.4c0.6-0.3,1.3-1.1,1.9-0.7
	c0.8,0.5,0,1.2-0.2,1.9c-0.1,0.5,0.1,1,0,1.4c-1.2,5.7-2,11.4-2.1,17.2c-0.1,6.1-0.7,12.2-0.1,18.4c0.3,2.7,0.4,5.5,0.8,8.2
	c0.9,5.3,2.1,10.5,3.9,15.7c2.4,7,5.5,13.6,9.4,19.8c2.8,4.5,5.9,8.8,9.6,12.6c0.2-0.2,0.3-0.4,0.3-0.6c0-0.1,0-0.2,0-0.3
	C202.1,360.7,201.9,360.4,201.8,360.1z"/>
<path fill="#181818" d="M84.4,363.2c1.2,0.2,2.3-0.2,3.4-0.2c7.9-0.1,15.9-0.3,23.8-0.7c3.1-0.2,3.2-0.3,1.8-2.9
	c-6.2-10.7-11.3-22-15.4-33.6c-6.2-17.5-10-35.5-10.7-54.1c-0.4-9.7,0.2-19.4,1.3-29c0.5-4.7,1.5-9.3,2.5-13.9
	c2.8-13.2,7.1-25.8,12.6-38.1c3-6.7,6.3-13.3,9.9-19.7c0.5-0.8,0.5-1.2-0.5-1.6c-4.4-2.2-8.7-4.5-13-6.8c-3.7-2-7.5-3.9-11.3-5.8
	c-0.6-0.3-1.2-1.1-1.8,0.2c-1.1,2.4-2.4,4.7-3.7,7c-3,5.3-5.7,10.8-8.1,16.4c-2.5,5.7-4.7,11.4-6.8,17.3c-2.3,6.7-4.3,13.6-5.9,20.5
	c-1.1,4.8-2.2,9.5-2.6,14.4c-0.2,3-1.2,5.9-1.4,8.9c-0.3,3.7-0.7,7.4-0.8,11.1c-0.2,10-0.3,19.9,0.4,29.9c0.3,3.9,0.7,7.7,1.1,11.6
	c0.4,3.8,1,7.6,1.8,11.3c1.6,7.8,3.4,15.6,5.9,23.2c3.5,11,7.7,21.7,13,31.9C80.8,362.4,82,363.8,84.4,363.2z"/>
<path fill="#181818" d="M465.1,265.9c0-4.4-0.5-8.8-0.9-13.1c-0.1-1.3,0.6-2.7,0.2-3.5c-0.7-1.8-0.3-3.7-1.2-5.4
	c-0.7-1.3-0.1-2.9-0.4-4.3c-0.6-2.1-1-4.1-1.4-6.2c-2.1-9.4-4.4-18.8-7.6-28c-4.2-12.3-9.4-24.2-15.8-35.6
	c-5.9-10.5-12.7-20.3-20.4-29.6c-8.8-10.5-18.5-19.9-29.2-28.3c-14.8-11.6-30.9-21.2-48.2-28.8c-11-4.9-22.4-8.7-34.2-11.5
	c-13.4-3.2-26.9-4.8-40.7-5.2c-8.1-0.3-16.1,0.2-24.2,0.9c-6.5,0.6-13,1.2-19.3,2.5c-3.1,0.6-5.2,2.3-6.3,5.3
	c-3,7.8-6,15.5-9.1,23.2c-0.7,1.8-1.2,3.6-1.5,5.5c0.6,0.3,1.1,0,1.6-0.1c4.6-1,9.1-2.2,13.7-3c6.3-1.1,19.5-2.2,19.6-2.3
	c0.8-0.9,2-0.8,3.1-1c3.9-0.5,7.9-0.7,11.8-0.7c3.4,0,6.7,0,10.1-0.1c2.9-0.1,5.7,0.3,8.6,0.5c2,0.1,4.1,0.2,6.1,0.5
	c2.5,0.4,5,0.6,7.5,0.9c4,0.4,7.9,1.2,11.8,2.2c5.2,1.2,10.3,2.5,15.4,4.3c6.5,2.2,12.8,4.8,19,7.8c5,2.4,10,5.1,14.8,7.9
	c8.8,5.2,16.9,11.3,24.7,17.8c5.5,4.6,10.6,9.7,15.7,14.9c3.7,3.7,7.4,7.4,10.5,11.6c4.4,6,8.3,12.5,12,19c1.6,2.8,3.1,5.5,4.5,8.3
	c2.3,4.5,4.6,9,6.5,13.7c3,7.4,5.7,14.9,7.8,22.7c1.7,6.4,2.9,12.9,4,19.5c0.6,3.9,0.9,7.8,1.4,11.6c0.6,5,0.5,10,0.4,15
	c0,5.7-0.7,11.4-1.4,17c-0.4,3-0.8,6-1.3,9c-1,5.7-2.3,11.3-3.8,16.9c-1.7,5.9-3.4,11.8-5.7,17.4c-0.8,1.9-1.9,3.7-2.4,5.5
	c-0.9,3-2.1,5.8-3.4,8.5c-1.2,2.5-1.5,5.5-4.1,7.2c0.5,2.7-2.8,4-2.3,6.8c0.4,0,0.9,0,1.4,0c8.9-0.1,17.9-0.2,26.8,0.1
	c3.4,0.1,5.6-1.3,7-4.4c2.6-5.6,4.8-11.2,6.8-17c5.5-15.4,9.2-31.2,11-47.5c0.6-5.9,0.9-11.7,1.2-17.6
	C465.4,273.2,465.1,269.6,465.1,265.9z"/>
<path fill="#BB2222" d="M379.9,362.3c-4.3-0.8-8.4-2.1-12.6-3.3c-22.7-6.7-44.5-15.4-64.7-27.9c-11-6.8-21.3-14.3-29.5-24.5
	c-3.4-4.2-6.2-8.8-6.9-14.3c-0.1-0.4-0.4-1,0.2-1.3c0.5-0.2,0.7,0.3,1,0.6c1,1,2,2.1,3,3.1c0.3,0.3,0.6,0.6,1.1,0.4
	c0.6-0.2,0.5-0.8,0.4-1.2c-0.3-1.5-0.5-3.1-1.2-4.5c-2.8-6-5.9-11.9-9-17.8c-3.9-7.5-9.1-13.4-17-16.8c-3.6-1.6-7.4-2.4-11.1-3.7
	c-6.3-2.2-12.4-4.6-17.9-8.5c-2.5-1.8-3.4-4.3-2.7-7.3c1.9-8.7,6.3-15.9,13.5-21.2c3.3-2.4,6.8-4.2,11.1-5.6c-2.1,2.8-4.4,4.8-6.4,7
	c-4.8,5.1-8.5,11-10.3,17.8c-0.6,2.3-0.1,3.7,1.8,4.8c9.2,5.1,18.7,9.5,29.2,11.4c4.2,0.8,8.1,0.7,11.6-2.3c2.1-1.8,4.5-3,7.3-3.5
	c2.4-0.5,4.9-0.8,6.9,1.4c0.5,0.6,1.3,0.8,2.1,0.9c7.9,1.4,15.9,2.7,23.9,3.7c2.7,0.4,4.5-0.6,6.4-2.2c0.9-0.8,0.9-1.5,0.4-2.5
	c-1.1-2.5-3.3-3.7-5.6-4.9c-2.1-1.1-4.2-2.2-6.5-3.5c0.5-0.1,0.6-0.1,0.8-0.1c5,0.1,9.6,1.7,13.5,4.8c2.2,1.7,3.3,1.7,5.1,0
	c1-1,1.9-2,2.8-3.1c1.5-1.9,1.3-3.2-0.4-4.9c-1.5-1.5-3-2.9-4.5-4.5c-2.4-2.6-2.4-3.5,0.1-5.8c0.8-0.8,0.5-1.1-0.1-1.7
	c-1.5-1.3-3-2.6-4.7-3.6c-6.7-4-13.3-8-19.1-13.4c-2.6-2.5-5.5-4.7-8.8-6.3c-11.3-5.6-23.6-9.3-34.4-16.3c0.8,1.8,1.5,3.4,2.3,5.1
	c1.1,2.5,0.6,4.6-1.3,6.8c-1.2-4.5-3.2-8.3-6.4-11.5c-1.4-1.4-2.9-2.6-4.5-3.6c-4.7-3.2-10.2-5.1-15.6-6.9c-0.1,0.1-0.1,0.1-0.2,0.2
	c2.7,2.3,5.5,4.5,8.1,6.9c4.6,4.1,8.3,8.7,10.1,14.7c0.2,0.8,0.8,1.7,0,2.3c-0.9,0.7-1.4-0.3-2-0.6c-3.5-2.2-7.1-4.4-10.6-6.6
	c-0.5-0.3-1-0.8-1.6-0.1c-0.6,0.8,0.2,1.1,0.6,1.4c1.9,1.9,3.9,3.6,5.7,5.5c1.1,1.1,2.6,1.9,3.2,3.5c0,0,0,0,0,0l0,0h0c0,0,0,0,0,0
	c0.2,0,0.3,0.1,0.5,0.1c-0.2,0.3-0.3,0.1-0.5-0.1c0,0,0,0,0,0c0,0,0,0,0,0c-0.6-0.1-1.1-0.3-1.7-0.5c-1.7-0.6-3.3-1.3-4.8-2.2
	c-2.1-1.3-3.9-1-5.8,0.6c-8.4,7.1-15.8,15-22.6,23.6c-10.3,13.1-18.4,27.6-26.6,42c-0.3,0.5-1,1-0.3,1.6c0.7,0.5,1.1-0.2,1.5-0.6
	c4-3.5,8-7,12-10.5c0.3-0.3,0.6-0.9,1.2-0.7c0.7,0.3,0.4,0.9,0.4,1.4c-0.4,3.5-0.9,7-1.2,10.6c-0.4,4.1-1,8.1-0.2,12.2
	c0.7,3.4,2.6,4.3,5.6,2.6c1.1-0.6,2.2-1.3,3.5-2.1c-0.1,0.5-0.1,0.8-0.2,1c-4.1,15.8-4.8,31.8-3,47.9c1.3,11.7,4,23.1,7.5,34.4
	c0.1,0.3,0.3,0.6,0.4,0.8c0,0.1,0.1,0.2,0,0.3c0,0.2-0.1,0.4-0.3,0.6c-0.2,1.5,1,0.8,1.5,0.8c58.4,0,116.8,0,175.2,0
	C379,362.6,379.6,363,379.9,362.3z M264.4,207.3c2.3-1.2,2.3-1.2,1.5-3.7c-0.6-1.9-1.2-3.9-2-6.3c1.3,1.1,2.1,1.8,3,2.6
	c3.9,3.3,8.3,5.3,13.3,6c0.8,0.1,1.8,0.1,2.2,1c0.4,1-0.3,1.7-1,2.3c-1.1,1.1-2.3,2.2-3.5,3.1c-0.8,0.6-0.7,1.1-0.4,1.8
	c0.6,1.6,1.2,3.2,1.8,4.8c-0.1,0.1-0.3,0.2-0.4,0.3c-5.3-3.6-10.6-7.3-15.9-10.9C263.3,207.6,263.9,207.6,264.4,207.3z"/>
<path fill="#181818" d="M279.3,219c-0.6-1.6-1.2-3.2-1.8-4.8c-0.3-0.7-0.3-1.3,0.4-1.8c1.2-0.9,2.4-2,3.5-3.1c0.7-0.6,1.4-1.3,1-2.3
	c-0.4-0.9-1.4-0.9-2.2-1c-5.1-0.6-9.5-2.7-13.3-6c-0.9-0.8-1.8-1.5-3-2.6c0.8,2.4,1.4,4.4,2,6.3c0.8,2.5,0.8,2.5-1.5,3.7
	c-0.5,0.2-1.1,0.3-1.3,1c5.3,3.6,10.6,7.3,15.9,10.9C279.1,219.2,279.2,219.1,279.3,219z"/>
</svg>
