<?xml version="1.0" encoding="utf-8"?><svg version="1.1" id="Layer_1" xmlns:cc="http://creativecommons.org/ns#" xmlns:dc="http://purl.org/dc/elements/1.1/" xmlns:inkscape="http://www.inkscape.org/namespaces/inkscape" xmlns:rdf="http://www.w3.org/1999/02/22-rdf-syntax-ns#" xmlns:sodipodi="http://sodipodi.sourceforge.net/DTD/sodipodi-0.dtd" xmlns:svg="http://www.w3.org/2000/svg" xmlns="http://www.w3.org/2000/svg" xmlns:xlink="http://www.w3.org/1999/xlink" x="0px" y="0px" viewBox="0 0 512 512" style="enable-background:new 0 0 512 512;" xml:space="preserve"><style type="text/css"> .st0{fill:#0D0D0D;} .st1{fill:#AD0F2D;} .st2{fill:#AD0F24;} </style><circle id="circle4" class="st0" cx="256" cy="256.7" r="254.7"/><path id="path6-2" class="st1" d="M256,0.7C115,0.7,0.7,115,0.7,256 c0,121.9,85.5,223.9,199.7,249.3c-1.4-2.9-2.7-7.1-4-10.2C88.5,468.4,9.7,372.2,9.7,256C9.7,119.3,119.3,9.7,256,9.7 S502.3,119.3,502.3,256c0,116.2-78.8,212.4-186.7,239.1c-1.3,3.1-2.6,7.3-4,10.2C425.9,479.9,511.4,378,511.4,256 C511.4,115,397,0.7,256,0.7z"/><g id="g20" transform="translate(0.46918816,-6.789)"><path id="path8" class="st1" d="M145.2,313.8c-7.5,0-18.7,7-24.1,14c6.8-1.6,15.4-1.2,24.1,0 V313.8z"/><circle id="circle10" class="st1" cx="149.1" cy="254.8" r="18.7"/><path id="path12" class="st1" d="M101,286.2c0.5-1.7,0.8-3.5,0.8-5.4c0-10.3-8.4-18.7-18.7-18.7 c-1,0-2,0.1-3,0.3c-5,5.8-9.6,11.9-14,18.2C78.2,281.1,89.8,283,101,286.2L101,286.2z"/><circle id="circle14" class="st1" cx="209.7" cy="284.9" r="18.7"/><path id="path16" class="st1" d="M183.6,284.9c0-4.6,1-7.4,2.5-11.5c0.1-0.4,0.5-1.2,0.8-1.8 c8.7-15.5,18.7-29.9,30.4-43.1c-11.4-3.6-24-6.5-36.1-8.4c0.2-2,0.2-19-0.4-25.8c-37.3,11.9-68.1,32.6-94.1,60.6 c12.7,1.7,22.6,12.6,22.6,25.8c0,2.6-0.4,5.2-1.1,7.6c13.3,4.5,25.8,10.9,37.1,18.9v-23.4v-3v-0.3c-12.6-1.9-22.2-12.7-22.2-25.8 c0-14.4,11.7-26.1,26.1-26.1c14.4,0,26.1,11.7,26.1,26.1c0,13.1-9.6,23.9-22.2,25.8v0.3v3v44.7c1,0.2,1.9,0.4,2.9,0.6 c13.2,2.6,13.2,2.6,24.6,7.2c-3.7,15.6-17.1,19.7-27.6,22.8c6.4,5.9,31.5,11.1,52.4,8.9l0-57.5C193,308.5,183.6,297.8,183.6,284.9 L183.6,284.9z"/><path id="path18" class="st1" d="M443.6,247.6c-0.4-0.9-1.1-1.8-1.7-2.6 c-2.2-1.7-3.7-5.4-6.3-6.4c-0.4-0.2-3.7-0.4-5-0.4c-0.9,0-2,0.1-3,0.2c-7.8-1.2-10.6-1.6-15.6-6.6c-12.4-3-26.3-5-40-5.9 c-5.8-4.8-7.5-10.6-13.5-15.2c-5.5-4.3-13.9-7.2-20.4-9.9c-0.5-0.5-0.9-1-1.4-1.5c-4.5-8.8-12-15.8-21.1-19.8 c-12.9-11-26.6-21.1-41.1-30c3.8,7.6,7.3,15.4,10.4,23.5c-3.1-2-6.5-3.5-10.1-4.4c-14.5-10.4-30.3-19-47.3-25.5 c7.3,8.6,13.6,18.1,18.5,28.4c-20.6-13.7-44.1-23.4-69.3-28.2c6.7,14,10.6,29.7,11,46.3c1,10.8,2,22.8,2,24c0,0.6,0,1.1,0,1.6 c13.6,1.8,26.7,5.1,39.2,9.8c-1,1.3-5.2,5.8-5.2,5.8c-7.9,9.1-15,18.9-21.4,29.2c2.3-0.7,4.8-1.1,7.4-1.1 c14.4,0,26.1,11.7,26.1,26.1c0,13.3-9.9,24.2-22.7,25.9l0,71.8c22.1-14.1,40.9-32,73.7-37.2c1.2-1.8,2.8-3.9,4.4-5.3 c0.7,0,1.4-0.1,2.1-0.1c8.7,0,18.3,2.9,25.4,6.9c5.9-1,11.9-1.6,18.1-1.6c16.9,0,36.5,6.3,42.7,10.9c4,3,4.2,3.8,4.9,6.3 c3-0.4,7.8-2.4,11.6-1.3c1.6,0.4,4.2,2.1,5.5,3.1c0.1-0.5,0.1-1.3,0.1-1.7c0-13.8,5.9-22.7,15.2-31.4c0.2-2.1,0.3-4.3,0.3-6.5 c0-2.4-0.1-4.8-0.4-7.1c1.5-2.6,0.2-3.5-0.4-4.8c0,0,0,0,0,0c-6.2,4.2-14.9,7-23,7c-0.8,0-1.7,0-2.5-0.1c1.3-3.7,2-7.7,2-11.9 c0-3.9-0.9-5.6-2.2-7.2c-4.3,6.2-11.5,10.3-19.7,10.3c-10.8,0-18.4-7.2-21.4-17.1c0.2-0.1-7.2-0.3-11.8,0.5c-1.6-3-3.5-5.9-5.4-8.7 c4.7-2.2,14.6-5.4,24.7-6.1c0,0.3,0,0.6,0,1c0,2.9-0.6,5.2-2.1,7.5c4-0.2,8.8-3.4,11.1-6.4c6.3-0.9,7.6-1.1,10.4,1.6 c1.4,1.4,5.4,6.8,4.3,8.5c4.2-0.5,4.1-0.7,18.7-0.1c1.9-3.7,8.8-2.2,11.3-0.3c2.7,2.6-0.2,7.1-1.8,12.2c10.1-4.4,12.9-8.7,16.4-9.2 c1.4-6.3,2.1-5.8,6.5-11.3c-0.4-0.6-0.6-1.7-1-2.3c1.4-2.9,3.4-9.3,5.6-11.6c0.2-0.5,1.7-2,2.3-2.3c1.2-1.1,2.5-2.1,3.8-3.1 c1-1.1,2-2.7,2.2-4.1C445.4,256.7,443.6,247.6,443.6,247.6L443.6,247.6z M326.7,217.9c-3.3-0.8-9.9-1.1-13.4-1.3 c0.1-0.1,4.2-2.8,5-4.9c1.1,0.3,10.6,0.1,11.8,0.5c1.9,0.9,4.1,2.4,6.3,4.1c6.8,2.9,10.1,5.9,13,9.5 C340.3,225.3,334.4,224.7,326.7,217.9L326.7,217.9z"/></g><polygon id="polygon22" class="st2" points="204.8,365.8 206.5,379.8 188.8,389.7 "/></svg> 