<?xml version="1.0" encoding="UTF-8" standalone="no"?>
<!DOCTYPE svg PUBLIC "-//W3C//DTD SVG 1.1//EN" "http://www.w3.org/Graphics/SVG/1.1/DTD/svg11.dtd">
<svg xmlns="http://www.w3.org/2000/svg" xmlns:xlink="http://www.w3.org/1999/xlink" version="1.1" width="1259pt" height="1007.93pt" viewBox="0 0 1259 1007.93">
<g enable-background="new">
<clipPath id="cp0">
<path transform="matrix(1,0,0,-1,0,1007.93)" d="M 0 1007.934 L 1259 1007.934 L 1259 0 L 0 0 Z "/>
</clipPath>
<g clip-path="url(#cp0)">
<path transform="matrix(1,0,0,-1,871.2961,300.1129)" d="M 0 0 C 1.175 65.526 98.549 65.512 99.713 -.002 C 98.539 -65.523 1.165 -65.515 0 0 M 80.406 114.453 C 81.581 179.979 178.953 179.966 180.119 114.451 C 178.943 48.932 81.571 48.94 80.406 114.453 M 166.608 5.76 C 167.784 71.284 265.158 71.273 266.324 5.758 C 265.148 -59.764 167.775 -59.754 166.608 5.76 M -409.326 -254.715 C -92.137 -254.688 113.116 -269.045 362.108 -237.937 C 362.108 -237.937 296.375 -194.778 222.704 -157.487 L 222.704 -58.805 C 222.704 -58.805 297.316 70.73 216.462 70.682 C 135.612 70.72 209.704 -58.805 209.704 -58.805 L 209.779 -150.932 C 189.441 -141.028 165.404 -130.088 137.704 -118.089 L 137.704 49.972 C 137.704 49.972 210.786 179.456 130.257 179.376 C 49.736 179.445 122.704 49.972 122.704 49.972 L 122.986 -111.846 C 102.685 -103.175 80.581 -93.98 56.704 -84.259 L 56.704 -64.565 C 56.704 -64.565 130.705 64.97 49.852 64.923 C -30.995 64.959 42.704 -64.565 42.704 -64.565 L 42.701 -78.586 C 24.666 -71.297 5.706 -63.731 -14.228 -55.871 C -132.636 86.651 -225.991 278.251 -241.358 275.078 C -247.612 274.441 -251.675 268.437 -255.236 262.371 C -267.933 243.356 -298.812 192.716 -309.468 135.675 C -318.45 114.162 -328.869 89.491 -341.06 61.189 C -433.877 195.58 -410.09 139.909 -515.298 -11.517 C -550.586 4.644 -532.64 3.849 -634.543 -133.06 C -643.595 -129.596 -652.513 -125.03 -663.453 -133.21 C -807.666 -230.571 -749.347 -215.937 -844.825 -237.937 C -725.834 -239.946 -553.179 -251.015 -409.326 -254.715 " fill="#ffffff"/>
<path transform="matrix(1,0,0,-1,871.2961,300.1129)" stroke-width="50" stroke-linecap="butt" stroke-linejoin="round" fill="none" stroke="#ffffff" d="M 0 0 C 1.175 65.526 98.549 65.512 99.713 -.002 C 98.539 -65.523 1.165 -65.515 0 0 Z M 80.406 114.453 C 81.581 179.979 178.953 179.966 180.119 114.451 C 178.943 48.932 81.571 48.94 80.406 114.453 Z M 166.608 5.76 C 167.784 71.284 265.158 71.273 266.324 5.758 C 265.148 -59.764 167.775 -59.754 166.608 5.76 Z M -409.326 -254.715 C -92.137 -254.688 113.116 -269.045 362.108 -237.937 C 362.108 -237.937 296.375 -194.778 222.704 -157.487 L 222.704 -58.805 C 222.704 -58.805 297.316 70.73 216.462 70.682 C 135.612 70.72 209.704 -58.805 209.704 -58.805 L 209.779 -150.932 C 189.441 -141.028 165.404 -130.088 137.704 -118.089 L 137.704 49.972 C 137.704 49.972 210.786 179.456 130.257 179.376 C 49.736 179.445 122.704 49.972 122.704 49.972 L 122.986 -111.846 C 102.685 -103.175 80.581 -93.98 56.704 -84.259 L 56.704 -64.565 C 56.704 -64.565 130.705 64.97 49.852 64.923 C -30.995 64.959 42.704 -64.565 42.704 -64.565 L 42.701 -78.586 C 24.666 -71.297 5.706 -63.731 -14.228 -55.871 C -132.636 86.651 -225.991 278.251 -241.358 275.078 C -247.612 274.441 -251.675 268.437 -255.236 262.371 C -267.933 243.356 -298.812 192.716 -309.468 135.675 C -318.45 114.162 -328.869 89.491 -341.06 61.189 C -433.877 195.58 -410.09 139.909 -515.298 -11.517 C -550.586 4.644 -532.64 3.849 -634.543 -133.06 C -643.595 -129.596 -652.513 -125.03 -663.453 -133.21 C -807.666 -230.571 -749.347 -215.937 -844.825 -237.937 C -725.834 -239.946 -553.179 -251.015 -409.326 -254.715 Z "/>
<path transform="matrix(1,0,0,-1,25,538.2889)" d="M 0 0 L 0 -238.305 L 64.135 -266.796 L 260.721 -444.641 C 739.765 -441.986 962.433 -343.273 1209 -238.305 L 1209 0 C 832.593 -51.917 377.549 -51.879 0 0 " fill="#ffffff"/>
<path transform="matrix(1,0,0,-1,25,538.2889)" stroke-width="50" stroke-linecap="butt" stroke-linejoin="round" fill="none" stroke="#ffffff" d="M 0 0 L 0 -238.305 L 64.135 -266.796 L 260.721 -444.641 C 739.765 -441.986 962.433 -343.273 1209 -238.305 L 1209 0 C 832.593 -51.917 377.549 -51.879 0 0 Z "/>
<path transform="matrix(1,0,0,-1,1037.9541,527.9144)" d="M 0 0 L -142.495 128.85 C -278.653 272.175 -390.969 506.722 -407.969 503.212 C -424.275 501.698 -431.794 465.496 -507.804 289.038 C -600.745 423.608 -576.926 367.863 -682.274 216.235 C -717.609 232.418 -699.639 231.622 -801.678 94.53 C -810.742 97.999 -819.672 102.571 -830.627 94.38 C -952.852 6.07 -916.169 32.419 -959.702 1.05 C -925.617 -5.227 -886.433 -7.096 -826.774 -13.778 C -824.822 -10.535 -822.194 -6.168 -818.481 0 L -837.964 16.87 L -829.926 72.651 C -818.249 81.098 -818.363 81.618 -815.796 80.635 C -815.808 80.629 -805.087 42.112 -805.09 42.102 L -781.822 24.079 C -774.854 1.225 -770.97 -11.511 -768.654 -19.108 C -653.41 -38.709 -130.747 -5.007 0 0 " fill="#4c4c4c"/>
<path transform="matrix(1,0,0,-1,653.1655,220.29438)" d="M 0 0 L 127.424 -63.9 C -10.798 147.434 -17.874 174.776 -22.243 174.439 L -37.725 95.599 L -3.076 68.482 Z " fill="#ffffff"/>
<path transform="matrix(1,0,0,-1,672.3104,397.55769)" d="M 0 0 L -80.158 34.147 C -108.224 68.336 -207.207 211.959 -209.674 213.506 L -169.626 -6.664 L -139.35 -31.448 L -161.571 -114.493 L -126.733 -96.98 L -71.935 -30.883 L 26.175 -19.208 Z " fill="#ffffff"/>
<path transform="matrix(1,0,0,-1,362.4575,470.33448)" d="M 0 0 L 8.11 70.29 L -35.145 108.139 L -23.16 147.825 C -27.162 148.048 -22.317 153.638 -88.025 62.036 C -39.698 -4.171 -54.828 20.101 -21.628 -44.463 L 85.01 -71.093 L 70.29 -44.463 Z " fill="#ffffff"/>
<path transform="matrix(1,0,0,-1,25,776.6501)" d="M 0 0 L 0 238.305 C 377.548 186.426 832.593 186.388 1209 238.305 L 1209 0 C 812.915 -54.632 415.019 -57.372 0 0 " fill="#606060"/>
<path transform="matrix(1,0,0,-1,232.8643,485.81239)" d="M 0 0 C .004 .004 -10.718 38.526 -10.706 38.533 C -13.273 39.516 -13.159 38.996 -24.836 30.549 L -32.874 -25.232 L -13.391 -42.102 C -17.104 -48.27 -19.733 -52.637 -21.684 -55.88 C -4.803 -57.77 14.349 -59.563 36.436 -61.21 C 34.12 -53.613 30.236 -40.877 23.267 -18.023 Z " fill="#ffffff"/>
<path transform="matrix(1,0,0,-1,1137.204,522.15359)" d="M 0 0 C -249.324 -31.149 -357.799 -33.02 -675.411 -33.048 C -4.916 219.542 -807.976 71.745 -515.549 492.744 C -515.549 492.744 -618.924 296.835 -364.524 199.026 C -42.547 75.237 87.298 10.907 0 0 " fill="#62afac"/>
<path transform="matrix(1,0,0,-1,921.2014,349.99897)" d="M 0 0 C -65.52 1.175 -65.51 98.551 .002 99.716 C 65.524 98.542 65.514 1.165 0 0 M 0 114.781 C -80.875 114.813 -86.664 -6.567 -6.201 -14.706 L -6.201 -182.434 L 6.799 -180.027 L 6.799 -14.706 C 86.715 -6.55 80.831 114.829 0 114.781 " fill="#606060"/>
<path transform="matrix(1,0,0,-1,951.7519,185.68738)" d="M 0 0 C 1.175 65.525 98.547 65.513 99.713 -.002 C 98.537 -65.521 1.166 -65.513 0 0 M 114.778 0 C 114.778 35.798 85.655 64.923 49.855 64.923 C -30.677 64.997 -36.952 -55.774 43.248 -64.482 L 43.248 -336.466 L 57.248 -334.813 L 57.248 -64.482 C 89.531 -60.835 114.778 -33.325 114.778 0 " fill="#606060"/>
<path transform="matrix(1,0,0,-1,1087.8124,344.23933)" d="M 0 0 C -65.524 1.176 -65.514 98.55 .002 99.716 C 65.524 98.541 65.513 1.166 0 0 M 64.923 49.858 C 64.923 85.656 35.8 114.781 0 114.781 C -80.861 114.823 -86.681 -6.572 -6.812 -14.706 L -6.812 -166.867 L 7.188 -165.135 L 7.188 -14.706 C 39.402 -11.306 64.923 16.349 64.923 49.858 " fill="#606060"/>
<path transform="matrix(1,0,0,-1,118.2684,717.38406)" d="M 0 0 C -5.769 .5 -11.111 2.06 -16.019 4.676 C -20.927 7.293 -25.092 10.704 -28.508 14.904 C -31.926 19.105 -34.47 23.904 -36.142 29.3 C -37.816 34.696 -38.363 40.429 -37.794 46.498 C -37.236 52.456 -35.636 57.95 -33.004 62.982 C -30.372 68.013 -27.01 72.303 -22.921 75.853 C -18.834 79.402 -14.218 82.082 -9.071 83.894 C -3.925 85.705 1.468 86.365 7.118 85.875 C 14.355 85.248 20.73 83.085 26.258 79.378 C 31.786 75.671 36.225 70.741 39.579 64.58 C 36.944 62.946 35.625 62.13 32.986 60.5 C 30.259 65.564 26.784 69.669 22.559 72.819 C 18.334 75.97 13.008 77.819 6.574 78.377 C 1.873 78.784 -2.567 78.217 -6.749 76.674 C -10.932 75.131 -14.622 72.873 -17.818 69.896 C -21.016 66.919 -23.629 63.345 -25.657 59.176 C -27.687 55.005 -28.925 50.519 -29.368 45.715 C -29.811 40.911 -29.43 36.302 -28.218 31.891 C -27.006 27.479 -25.082 23.538 -22.445 20.069 C -19.808 16.6 -16.561 13.736 -12.707 11.478 C -8.854 9.221 -4.509 7.88 .322 7.461 C 7.012 6.881 12.689 7.395 17.344 8.995 C 21.998 10.593 25.367 12.699 27.452 15.305 C 28.034 22.394 28.326 25.939 28.908 33.028 C 20.487 33.72 16.277 34.074 7.857 34.796 C 8.113 37.77 8.24 39.257 8.495 42.23 C 18.258 41.39 28.024 40.577 37.791 39.791 C 36.905 28.808 36.461 23.317 35.574 12.335 C 34.349 10.521 32.614 8.776 30.37 7.101 C 28.127 5.427 25.497 4.01 22.481 2.853 C 19.465 1.696 16.065 .834 12.284 .272 C 8.502 -.289 4.406 -.382 0 0 " fill="#ffffff"/>
<path transform="matrix(1,0,0,-1,118.2684,717.38406)" stroke-width="12.052" stroke-linecap="butt" stroke-miterlimit="10" stroke-linejoin="miter" fill="none" stroke="#ffffff" d="M 0 0 C -5.769 .5 -11.111 2.06 -16.019 4.676 C -20.927 7.293 -25.092 10.704 -28.508 14.904 C -31.926 19.105 -34.47 23.904 -36.142 29.3 C -37.816 34.696 -38.363 40.429 -37.794 46.498 C -37.236 52.456 -35.636 57.95 -33.004 62.982 C -30.372 68.013 -27.01 72.303 -22.921 75.853 C -18.834 79.402 -14.218 82.082 -9.071 83.894 C -3.925 85.705 1.468 86.365 7.118 85.875 C 14.355 85.248 20.73 83.085 26.258 79.378 C 31.786 75.671 36.225 70.741 39.579 64.58 C 36.944 62.946 35.625 62.13 32.986 60.5 C 30.259 65.564 26.784 69.669 22.559 72.819 C 18.334 75.97 13.008 77.819 6.574 78.377 C 1.873 78.784 -2.567 78.217 -6.749 76.674 C -10.932 75.131 -14.622 72.873 -17.818 69.896 C -21.016 66.919 -23.629 63.345 -25.657 59.176 C -27.687 55.005 -28.925 50.519 -29.368 45.715 C -29.811 40.911 -29.43 36.302 -28.218 31.891 C -27.006 27.479 -25.082 23.538 -22.445 20.069 C -19.808 16.6 -16.561 13.736 -12.707 11.478 C -8.854 9.221 -4.509 7.88 .322 7.461 C 7.012 6.881 12.689 7.395 17.344 8.995 C 21.998 10.593 25.367 12.699 27.452 15.305 C 28.034 22.394 28.326 25.939 28.908 33.028 C 20.487 33.72 16.277 34.074 7.857 34.796 C 8.113 37.77 8.24 39.257 8.495 42.23 C 18.258 41.39 28.024 40.577 37.791 39.791 C 36.905 28.808 36.461 23.317 35.574 12.335 C 34.349 10.521 32.614 8.776 30.37 7.101 C 28.127 5.427 25.497 4.01 22.481 2.853 C 19.465 1.696 16.065 .834 12.284 .272 C 8.502 -.289 4.406 -.382 0 0 Z "/>
<path transform="matrix(1,0,0,-1,193.4262,638.18728)" d="M 0 0 C 3.308 -.248 4.961 -.37 8.269 -.613 C 6.403 -26.014 4.538 -51.415 2.671 -76.815 C 14.7 -77.699 26.732 -78.546 38.766 -79.356 C 38.565 -82.334 38.465 -83.823 38.265 -86.801 C 23.419 -85.786 8.576 -84.731 -6.264 -83.634 C -4.175 -55.756 -2.088 -27.878 0 0 " fill="#ffffff"/>
<path transform="matrix(1,0,0,-1,193.4262,638.18728)" stroke-width="12.052" stroke-linecap="butt" stroke-miterlimit="10" stroke-linejoin="miter" fill="none" stroke="#ffffff" d="M 0 0 C 3.308 -.248 4.961 -.37 8.269 -.613 C 6.403 -26.014 4.538 -51.415 2.671 -76.815 C 14.7 -77.699 26.732 -78.546 38.766 -79.356 C 38.565 -82.334 38.465 -83.823 38.265 -86.801 C 23.419 -85.786 8.576 -84.731 -6.264 -83.634 C -4.175 -55.756 -2.088 -27.878 0 0 Z "/>
<path transform="matrix(1,0,0,-1,296.8479,641.078)" d="M 0 0 C 10.15 -29.916 20.448 -59.78 30.891 -89.595 C 27.231 -89.408 25.401 -89.313 21.741 -89.121 C 14.013 -66.479 6.363 -43.811 -1.206 -21.115 C -11.4 -42.797 -21.67 -64.44 -32.019 -86.048 C -35.678 -85.822 -37.507 -85.708 -41.166 -85.477 C -27.301 -57.052 -13.58 -28.561 0 0 " fill="#ffffff"/>
<path transform="matrix(1,0,0,-1,296.8479,641.078)" stroke-width="12.052" stroke-linecap="butt" stroke-miterlimit="10" stroke-linejoin="miter" fill="none" stroke="#ffffff" d="M 0 0 C 10.15 -29.916 20.448 -59.78 30.891 -89.595 C 27.231 -89.408 25.401 -89.313 21.741 -89.121 C 14.013 -66.479 6.363 -43.811 -1.206 -21.115 C -11.4 -42.797 -21.67 -64.44 -32.019 -86.048 C -35.678 -85.822 -37.507 -85.708 -41.166 -85.477 C -27.301 -57.052 -13.58 -28.561 0 0 Z "/>
<path transform="matrix(1,0,0,-1,394.7162,735.0032)" d="M 0 0 C -6.033 .24 -11.553 1.6 -16.551 4.077 C -21.551 6.555 -25.8 9.83 -29.297 13.899 C -32.795 17.967 -35.465 22.676 -37.314 28.022 C -39.162 33.368 -39.945 38.974 -39.671 44.84 C -39.395 50.742 -38.074 56.268 -35.717 61.42 C -33.361 66.571 -30.241 71.014 -26.361 74.753 C -22.482 78.491 -17.998 81.402 -12.909 83.488 C -7.82 85.574 -2.379 86.5 3.425 86.27 C 9.157 86.042 14.369 84.767 19.07 82.442 C 23.77 80.115 27.917 77.058 31.513 73.266 C 29.429 70.936 28.386 69.771 26.299 67.443 C 23.349 70.467 19.964 73.06 16.14 75.224 C 12.316 77.389 7.944 78.567 3.02 78.763 C -1.834 78.955 -6.31 78.166 -10.414 76.392 C -14.519 74.618 -18.079 72.17 -21.096 69.045 C -24.112 65.92 -26.519 62.228 -28.314 57.966 C -30.109 53.703 -31.116 49.2 -31.331 44.456 C -31.549 39.636 -30.936 35.049 -29.485 30.698 C -28.033 26.347 -25.913 22.48 -23.12 19.101 C -20.328 15.722 -16.937 12.992 -12.949 10.916 C -8.961 8.84 -4.542 7.704 .299 7.512 C 5.319 7.312 9.812 8.095 13.773 9.855 C 17.734 11.615 21.303 13.824 24.482 16.481 C 26.288 14.059 27.193 12.848 29.003 10.428 C 25.039 6.898 20.632 4.22 15.785 2.398 C 10.937 .575 5.673 -.225 0 0 " fill="#ffffff"/>
<path transform="matrix(1,0,0,-1,394.7162,735.0032)" stroke-width="12.052" stroke-linecap="butt" stroke-miterlimit="10" stroke-linejoin="miter" fill="none" stroke="#ffffff" d="M 0 0 C -6.033 .24 -11.553 1.6 -16.551 4.077 C -21.551 6.555 -25.8 9.83 -29.297 13.899 C -32.795 17.967 -35.465 22.676 -37.314 28.022 C -39.162 33.368 -39.945 38.974 -39.671 44.84 C -39.395 50.742 -38.074 56.268 -35.717 61.42 C -33.361 66.571 -30.241 71.014 -26.361 74.753 C -22.482 78.491 -17.998 81.402 -12.909 83.488 C -7.82 85.574 -2.379 86.5 3.425 86.27 C 9.157 86.042 14.369 84.767 19.07 82.442 C 23.77 80.115 27.917 77.058 31.513 73.266 C 29.429 70.936 28.386 69.771 26.299 67.443 C 23.349 70.467 19.964 73.06 16.14 75.224 C 12.316 77.389 7.944 78.567 3.02 78.763 C -1.834 78.955 -6.31 78.166 -10.414 76.392 C -14.519 74.618 -18.079 72.17 -21.096 69.045 C -24.112 65.92 -26.519 62.228 -28.314 57.966 C -30.109 53.703 -31.116 49.2 -31.331 44.456 C -31.549 39.636 -30.936 35.049 -29.485 30.698 C -28.033 26.347 -25.913 22.48 -23.12 19.101 C -20.328 15.722 -16.937 12.992 -12.949 10.916 C -8.961 8.84 -4.542 7.704 .299 7.512 C 5.319 7.312 9.812 8.095 13.773 9.855 C 17.734 11.615 21.303 13.824 24.482 16.481 C 26.288 14.059 27.193 12.848 29.003 10.428 C 25.039 6.898 20.632 4.22 15.785 2.398 C 10.937 .575 5.673 -.225 0 0 Z "/>
<path transform="matrix(1,0,0,-1,456.9216,651.94998)" d="M 0 0 C 3.313 -.098 4.97 -.146 8.284 -.24 C 7.496 -28.185 6.709 -56.13 5.921 -84.075 C 2.559 -83.98 .879 -83.932 -2.482 -83.832 C -1.654 -55.888 -.827 -27.944 0 0 " fill="#ffffff"/>
<path transform="matrix(1,0,0,-1,456.9216,651.94998)" stroke-width="12.052" stroke-linecap="butt" stroke-miterlimit="10" stroke-linejoin="miter" fill="none" stroke="#ffffff" d="M 0 0 C 3.313 -.098 4.97 -.146 8.284 -.24 C 7.496 -28.185 6.709 -56.13 5.921 -84.075 C 2.559 -83.98 .879 -83.932 -2.482 -83.832 C -1.654 -55.888 -.827 -27.944 0 0 Z "/>
<path transform="matrix(1,0,0,-1,497.8284,690.10916)" d="M 0 0 C 15.73 -.35 31.462 -.648 47.195 -.871 C 47.151 -3.878 47.13 -5.381 47.086 -8.388 C 31.334 -8.165 15.582 -7.866 -.169 -7.516 C -.101 -4.509 -.068 -3.006 0 0 M .832 37.072 C 17.118 36.71 33.406 36.403 49.694 36.178 C 49.652 33.194 49.631 31.702 49.589 28.718 C 33.28 28.943 16.971 29.25 .665 29.613 C .732 32.596 .765 34.088 .832 37.072 M -.936 -39.315 C 15.58 -39.682 32.099 -39.993 48.618 -40.222 C 48.576 -43.206 48.555 -44.698 48.512 -47.682 C 31.99 -47.454 15.469 -47.143 -1.051 -46.776 C -1.005 -43.792 -.982 -42.299 -.936 -39.315 " fill="#ffffff"/>
<path transform="matrix(1,0,0,-1,497.8284,690.10916)" stroke-width="12.052" stroke-linecap="butt" stroke-miterlimit="10" stroke-linejoin="miter" fill="none" stroke="#ffffff" d="M 0 0 C 15.73 -.35 31.462 -.648 47.195 -.871 C 47.151 -3.878 47.13 -5.381 47.086 -8.388 C 31.334 -8.165 15.582 -7.866 -.169 -7.516 C -.101 -4.509 -.068 -3.006 0 0 Z M .832 37.072 C 17.118 36.71 33.406 36.403 49.694 36.178 C 49.652 33.194 49.631 31.702 49.589 28.718 C 33.28 28.943 16.971 29.25 .665 29.613 C .732 32.596 .765 34.088 .832 37.072 Z M -.936 -39.315 C 15.58 -39.682 32.099 -39.993 48.618 -40.222 C 48.576 -43.206 48.555 -44.698 48.512 -47.682 C 31.99 -47.454 15.469 -47.143 -1.051 -46.776 C -1.005 -43.792 -.982 -42.299 -.936 -39.315 Z "/>
<path transform="matrix(1,0,0,-1,586.4785,738.2219)" d="M 0 0 C -3.362 .025 -5.043 .038 -8.405 .068 C -8.16 28.023 -7.916 55.978 -7.672 83.933 C 1.765 83.848 11.202 83.788 20.639 83.754 C 23.189 83.744 25.658 83.53 28.048 83.113 C 30.437 82.694 32.64 81.943 34.658 80.855 C 38.446 78.866 41.519 75.902 43.879 71.957 C 46.239 68.01 47.425 63.384 47.428 58.073 C 47.431 54.258 46.864 50.798 45.725 47.694 C 44.586 44.589 43.125 41.924 41.34 39.7 C 39.555 37.475 37.527 35.737 35.259 34.488 C 32.989 33.237 30.71 32.504 28.423 32.285 C 31.803 26.816 35.14 21.396 38.43 16.028 C 41.721 10.658 45.021 5.262 48.33 -.158 C 44.321 -.161 42.317 -.161 38.308 -.157 C 35.081 5.119 31.87 10.408 28.677 15.708 C 25.484 21.007 22.291 26.337 19.097 31.7 C 19.109 34.684 19.115 36.176 19.128 39.161 C 21.554 39.151 23.481 39.19 24.909 39.28 C 26.336 39.369 27.898 39.667 29.568 40.193 C 30.955 40.63 32.237 41.421 33.398 42.541 C 34.558 43.661 35.558 44.996 36.398 46.547 C 37.236 48.099 37.898 49.856 38.38 51.819 C 38.862 53.782 39.104 55.792 39.106 57.849 C 39.108 61.776 38.399 65.078 36.982 67.753 C 35.565 70.428 33.634 72.497 31.19 73.961 C 29.736 74.786 28.115 75.381 26.326 75.741 C 24.537 76.101 22.632 76.285 20.61 76.293 C 12.59 76.324 8.58 76.347 .559 76.406 C .373 50.937 .187 25.469 0 0 " fill="#ffffff"/>
<path transform="matrix(1,0,0,-1,586.4785,738.2219)" stroke-width="12.052" stroke-linecap="butt" stroke-miterlimit="10" stroke-linejoin="miter" fill="none" stroke="#ffffff" d="M 0 0 C -3.362 .025 -5.043 .038 -8.405 .068 C -8.16 28.023 -7.916 55.978 -7.672 83.933 C 1.765 83.848 11.202 83.788 20.639 83.754 C 23.189 83.744 25.658 83.53 28.048 83.113 C 30.437 82.694 32.64 81.943 34.658 80.855 C 38.446 78.866 41.519 75.902 43.879 71.957 C 46.239 68.01 47.425 63.384 47.428 58.073 C 47.431 54.258 46.864 50.798 45.725 47.694 C 44.586 44.589 43.125 41.924 41.34 39.7 C 39.555 37.475 37.527 35.737 35.259 34.488 C 32.989 33.237 30.71 32.504 28.423 32.285 C 31.803 26.816 35.14 21.396 38.43 16.028 C 41.721 10.658 45.021 5.262 48.33 -.158 C 44.321 -.161 42.317 -.161 38.308 -.157 C 35.081 5.119 31.87 10.408 28.677 15.708 C 25.484 21.007 22.291 26.337 19.097 31.7 C 19.109 34.684 19.115 36.176 19.128 39.161 C 21.554 39.151 23.481 39.19 24.909 39.28 C 26.336 39.369 27.898 39.667 29.568 40.193 C 30.955 40.63 32.237 41.421 33.398 42.541 C 34.558 43.661 35.558 44.996 36.398 46.547 C 37.236 48.099 37.898 49.856 38.38 51.819 C 38.862 53.782 39.104 55.792 39.106 57.849 C 39.108 61.776 38.399 65.078 36.982 67.753 C 35.565 70.428 33.634 72.497 31.19 73.961 C 29.736 74.786 28.115 75.381 26.326 75.741 C 24.537 76.101 22.632 76.285 20.61 76.293 C 12.59 76.324 8.58 76.347 .559 76.406 C .373 50.937 .187 25.469 0 0 Z "/>
<path transform="matrix(1,0,0,-1,753.3052,738.22146)" d="M 0 0 C -5.784 -.12 -11.257 .86 -16.412 2.936 C -21.568 5.012 -26.069 7.958 -29.911 11.769 C -33.755 15.58 -36.794 20.08 -39.033 25.266 C -41.272 30.452 -42.428 36.093 -42.512 42.189 C -42.594 48.172 -41.593 53.806 -39.516 59.091 C -37.44 64.375 -34.56 68.999 -30.878 72.966 C -27.198 76.933 -22.899 80.09 -17.98 82.442 C -13.063 84.794 -7.776 86.027 -2.111 86.145 C 5.145 86.295 11.71 84.826 17.598 81.732 C 23.486 78.638 28.424 74.211 32.415 68.443 C 29.971 66.538 28.748 65.585 26.3 63.682 C 23.05 68.425 19.158 72.135 14.624 74.815 C 10.09 77.495 4.601 78.765 -1.85 78.631 C -6.564 78.533 -10.913 77.495 -14.903 75.513 C -18.893 73.531 -22.316 70.891 -25.172 67.589 C -28.03 64.287 -30.244 60.455 -31.813 56.092 C -33.382 51.728 -34.132 47.135 -34.059 42.311 C -33.986 37.487 -33.115 32.946 -31.439 28.69 C -29.764 24.432 -27.432 20.72 -24.441 17.553 C -21.451 14.386 -17.92 11.885 -13.85 10.053 C -9.781 8.221 -5.322 7.353 -.478 7.453 C 6.23 7.592 11.815 8.71 16.268 10.798 C 20.721 12.886 23.842 15.34 25.635 18.154 C 25.456 25.265 25.366 28.82 25.187 35.932 C 16.746 35.719 12.526 35.62 4.085 35.438 C 4.02 38.421 3.988 39.913 3.923 42.897 C 13.712 43.106 23.501 43.342 33.289 43.605 C 33.582 32.591 33.729 27.084 34.022 16.07 C 32.999 14.135 31.462 12.215 29.412 10.309 C 27.362 8.405 24.901 6.715 22.028 5.241 C 19.155 3.768 15.87 2.548 12.174 1.585 C 8.477 .622 4.418 .092 0 0 " fill="#ffffff"/>
<path transform="matrix(1,0,0,-1,753.3052,738.22146)" stroke-width="12.052" stroke-linecap="butt" stroke-miterlimit="10" stroke-linejoin="miter" fill="none" stroke="#ffffff" d="M 0 0 C -5.784 -.12 -11.257 .86 -16.412 2.936 C -21.568 5.012 -26.069 7.958 -29.911 11.769 C -33.755 15.58 -36.794 20.08 -39.033 25.266 C -41.272 30.452 -42.428 36.093 -42.512 42.189 C -42.594 48.172 -41.593 53.806 -39.516 59.091 C -37.44 64.375 -34.56 68.999 -30.878 72.966 C -27.198 76.933 -22.899 80.09 -17.98 82.442 C -13.063 84.794 -7.776 86.027 -2.111 86.145 C 5.145 86.295 11.71 84.826 17.598 81.732 C 23.486 78.638 28.424 74.211 32.415 68.443 C 29.971 66.538 28.748 65.585 26.3 63.682 C 23.05 68.425 19.158 72.135 14.624 74.815 C 10.09 77.495 4.601 78.765 -1.85 78.631 C -6.564 78.533 -10.913 77.495 -14.903 75.513 C -18.893 73.531 -22.316 70.891 -25.172 67.589 C -28.03 64.287 -30.244 60.455 -31.813 56.092 C -33.382 51.728 -34.132 47.135 -34.059 42.311 C -33.986 37.487 -33.115 32.946 -31.439 28.69 C -29.764 24.432 -27.432 20.72 -24.441 17.553 C -21.451 14.386 -17.92 11.885 -13.85 10.053 C -9.781 8.221 -5.322 7.353 -.478 7.453 C 6.23 7.592 11.815 8.71 16.268 10.798 C 20.721 12.886 23.842 15.34 25.635 18.154 C 25.456 25.265 25.366 28.82 25.187 35.932 C 16.746 35.719 12.526 35.62 4.085 35.438 C 4.02 38.421 3.988 39.913 3.923 42.897 C 13.712 43.106 23.501 43.342 33.289 43.605 C 33.582 32.591 33.729 27.084 34.022 16.07 C 32.999 14.135 31.462 12.215 29.412 10.309 C 27.362 8.405 24.901 6.715 22.028 5.241 C 19.155 3.768 15.87 2.548 12.174 1.585 C 8.477 .622 4.418 .092 0 0 Z "/>
<path transform="matrix(1,0,0,-1,819.5087,651.4392)" d="M 0 0 C 3.313 .107 4.97 .162 8.283 .275 C 9.229 -27.666 10.176 -55.606 11.122 -83.546 C 7.761 -83.66 6.081 -83.716 2.72 -83.825 C 1.813 -55.883 .906 -27.942 0 0 " fill="#ffffff"/>
<path transform="matrix(1,0,0,-1,819.5087,651.4392)" stroke-width="12.052" stroke-linecap="butt" stroke-miterlimit="10" stroke-linejoin="miter" fill="none" stroke="#ffffff" d="M 0 0 C 3.313 .107 4.97 .162 8.283 .275 C 9.229 -27.666 10.176 -55.606 11.122 -83.546 C 7.761 -83.66 6.081 -83.716 2.72 -83.825 C 1.813 -55.883 .906 -27.942 0 0 Z "/>
<path transform="matrix(1,0,0,-1,891.3206,644.73648)" d="M 0 0 C 13.137 -28.73 26.415 -57.392 39.835 -85.991 C 36.175 -86.177 34.345 -86.269 30.685 -86.449 C 20.695 -64.711 10.782 -42.938 .946 -21.129 C -6.989 -43.734 -15.005 -66.309 -23.101 -88.857 C -26.763 -89.004 -28.594 -89.076 -32.256 -89.218 C -21.357 -59.531 -10.605 -29.793 0 0 " fill="#ffffff"/>
<path transform="matrix(1,0,0,-1,891.3206,644.73648)" stroke-width="12.052" stroke-linecap="butt" stroke-miterlimit="10" stroke-linejoin="miter" fill="none" stroke="#ffffff" d="M 0 0 C 13.137 -28.73 26.415 -57.392 39.835 -85.991 C 36.175 -86.177 34.345 -86.269 30.685 -86.449 C 20.695 -64.711 10.782 -42.938 .946 -21.129 C -6.989 -43.734 -15.005 -66.309 -23.101 -88.857 C -26.763 -89.004 -28.594 -89.076 -32.256 -89.218 C -21.357 -59.531 -10.605 -29.793 0 0 Z "/>
<path transform="matrix(1,0,0,-1,954.6526,642.73538)" d="M 0 0 C 20.804 -21.353 41.751 -42.561 62.842 -63.63 C 61.431 -42.152 60.02 -20.675 58.608 .802 C 61.917 1.02 63.572 1.13 66.881 1.352 C 68.82 -27.531 70.759 -56.413 72.699 -85.296 C 51.5 -64.224 30.447 -43.014 9.536 -21.657 C 10.76 -43.109 11.985 -64.56 13.209 -86.011 C 9.851 -86.203 8.172 -86.298 4.814 -86.484 C 3.209 -57.656 1.605 -28.828 0 0 " fill="#ffffff"/>
<path transform="matrix(1,0,0,-1,954.6526,642.73538)" stroke-width="12.052" stroke-linecap="butt" stroke-miterlimit="10" stroke-linejoin="miter" fill="none" stroke="#ffffff" d="M 0 0 C 20.804 -21.353 41.751 -42.561 62.842 -63.63 C 61.431 -42.152 60.02 -20.675 58.608 .802 C 61.917 1.02 63.572 1.13 66.881 1.352 C 68.82 -27.531 70.759 -56.413 72.699 -85.296 C 51.5 -64.224 30.447 -43.014 9.536 -21.657 C 10.76 -43.109 11.985 -64.56 13.209 -86.011 C 9.851 -86.203 8.172 -86.298 4.814 -86.484 C 3.209 -57.656 1.605 -28.828 0 0 Z "/>
<path transform="matrix(1,0,0,-1,1071.2409,645.31619)" d="M 0 0 C -8.47 -.64 -12.706 -.953 -21.178 -1.563 C -21.392 1.414 -21.499 2.903 -21.714 5.879 C -4.889 7.094 11.931 8.369 28.744 9.73 C 28.984 6.755 29.104 5.268 29.344 2.293 C 20.919 1.613 16.706 1.281 8.279 .632 C 10.235 -24.762 12.192 -50.156 14.148 -75.55 C 10.793 -75.808 9.116 -75.936 5.761 -76.19 C 3.841 -50.793 1.921 -25.397 0 0 " fill="#ffffff"/>
<path transform="matrix(1,0,0,-1,1071.2409,645.31619)" stroke-width="12.052" stroke-linecap="butt" stroke-miterlimit="10" stroke-linejoin="miter" fill="none" stroke="#ffffff" d="M 0 0 C -8.47 -.64 -12.706 -.953 -21.178 -1.563 C -21.392 1.414 -21.499 2.903 -21.714 5.879 C -4.889 7.094 11.931 8.369 28.744 9.73 C 28.984 6.755 29.104 5.268 29.344 2.293 C 20.919 1.613 16.706 1.281 8.279 .632 C 10.235 -24.762 12.192 -50.156 14.148 -75.55 C 10.793 -75.808 9.116 -75.936 5.761 -76.19 C 3.841 -50.793 1.921 -25.397 0 0 Z "/>
<path transform="matrix(1,0,0,-1,1157.9832,715.9512)" d="M 0 0 C -5.194 -.464 -10.158 .132 -14.883 1.786 C -19.608 3.44 -23.84 6.306 -27.57 10.381 C -25.345 12.687 -24.235 13.84 -22.015 16.148 C -19.382 13.145 -16.201 10.83 -12.474 9.204 C -8.747 7.578 -4.733 6.956 -.44 7.34 C 2.136 7.57 4.431 8.218 6.444 9.283 C 8.456 10.347 10.127 11.692 11.457 13.317 C 12.786 14.94 13.759 16.795 14.377 18.88 C 14.995 20.965 15.198 23.161 14.984 25.471 C 14.788 27.594 14.252 29.404 13.378 30.9 C 12.504 32.397 11.405 33.696 10.084 34.795 C 8.762 35.894 7.223 36.815 5.47 37.557 C 3.716 38.299 1.898 38.959 .016 39.542 C -3.878 40.723 -5.824 41.316 -9.713 42.504 C -11.998 43.203 -14.205 44.061 -16.334 45.076 C -18.463 46.091 -20.368 47.39 -22.043 48.972 C -23.718 50.554 -25.114 52.433 -26.229 54.609 C -27.346 56.784 -28.034 59.399 -28.295 62.455 C -28.553 65.474 -28.191 68.338 -27.212 71.05 C -26.233 73.761 -24.791 76.157 -22.888 78.236 C -20.985 80.316 -18.68 82.037 -15.97 83.402 C -13.261 84.766 -10.267 85.595 -6.984 85.889 C -2.29 86.309 1.692 85.957 4.964 84.829 C 8.236 83.702 11.367 82.001 14.359 79.725 C 12.591 77.127 11.706 75.827 9.933 73.23 C 7.615 75.157 5.158 76.575 2.563 77.484 C -.032 78.393 -2.991 78.698 -6.313 78.401 C -8.434 78.211 -10.348 77.703 -12.056 76.876 C -13.766 76.049 -15.235 74.943 -16.468 73.559 C -17.702 72.174 -18.626 70.61 -19.24 68.868 C -19.856 67.125 -20.078 65.265 -19.906 63.292 C -19.744 61.427 -19.275 59.827 -18.497 58.486 C -17.719 57.147 -16.742 55.983 -15.564 54.998 C -14.388 54.012 -13.016 53.166 -11.452 52.459 C -9.887 51.752 -8.24 51.138 -6.511 50.616 C -2.754 49.419 -.874 48.822 2.888 47.631 C 5.321 46.874 7.689 45.963 9.991 44.898 C 12.293 43.832 14.382 42.486 16.255 40.857 C 18.128 39.228 19.687 37.241 20.929 34.898 C 22.172 32.553 22.952 29.706 23.266 26.354 C 23.584 22.966 23.228 19.749 22.198 16.704 C 21.167 13.659 19.599 10.94 17.493 8.548 C 15.388 6.156 12.833 4.211 9.828 2.718 C 6.823 1.224 3.546 .317 0 0 " fill="#ffffff"/>
<path transform="matrix(1,0,0,-1,1157.9832,715.9512)" stroke-width="12.052" stroke-linecap="butt" stroke-miterlimit="10" stroke-linejoin="miter" fill="none" stroke="#ffffff" d="M 0 0 C -5.194 -.464 -10.158 .132 -14.883 1.786 C -19.608 3.44 -23.84 6.306 -27.57 10.381 C -25.345 12.687 -24.235 13.84 -22.015 16.148 C -19.382 13.145 -16.201 10.83 -12.474 9.204 C -8.747 7.578 -4.733 6.956 -.44 7.34 C 2.136 7.57 4.431 8.218 6.444 9.283 C 8.456 10.347 10.127 11.692 11.457 13.317 C 12.786 14.94 13.759 16.795 14.377 18.88 C 14.995 20.965 15.198 23.161 14.984 25.471 C 14.788 27.594 14.252 29.404 13.378 30.9 C 12.504 32.397 11.405 33.696 10.084 34.795 C 8.762 35.894 7.223 36.815 5.47 37.557 C 3.716 38.299 1.898 38.959 .016 39.542 C -3.878 40.723 -5.824 41.316 -9.713 42.504 C -11.998 43.203 -14.205 44.061 -16.334 45.076 C -18.463 46.091 -20.368 47.39 -22.043 48.972 C -23.718 50.554 -25.114 52.433 -26.229 54.609 C -27.346 56.784 -28.034 59.399 -28.295 62.455 C -28.553 65.474 -28.191 68.338 -27.212 71.05 C -26.233 73.761 -24.791 76.157 -22.888 78.236 C -20.985 80.316 -18.68 82.037 -15.97 83.402 C -13.261 84.766 -10.267 85.595 -6.984 85.889 C -2.29 86.309 1.692 85.957 4.964 84.829 C 8.236 83.702 11.367 82.001 14.359 79.725 C 12.591 77.127 11.706 75.827 9.933 73.23 C 7.615 75.157 5.158 76.575 2.563 77.484 C -.032 78.393 -2.991 78.698 -6.313 78.401 C -8.434 78.211 -10.348 77.703 -12.056 76.876 C -13.766 76.049 -15.235 74.943 -16.468 73.559 C -17.702 72.174 -18.626 70.61 -19.24 68.868 C -19.856 67.125 -20.078 65.265 -19.906 63.292 C -19.744 61.427 -19.275 59.827 -18.497 58.486 C -17.719 57.147 -16.742 55.983 -15.564 54.998 C -14.388 54.012 -13.016 53.166 -11.452 52.459 C -9.887 51.752 -8.24 51.138 -6.511 50.616 C -2.754 49.419 -.874 48.822 2.888 47.631 C 5.321 46.874 7.689 45.963 9.991 44.898 C 12.293 43.832 14.382 42.486 16.255 40.857 C 18.128 39.228 19.687 37.241 20.929 34.898 C 22.172 32.553 22.952 29.706 23.266 26.354 C 23.584 22.966 23.228 19.749 22.198 16.704 C 21.167 13.659 19.599 10.94 17.493 8.548 C 15.388 6.156 12.833 4.211 9.828 2.718 C 6.823 1.224 3.546 .317 0 0 Z "/>
<path transform="matrix(1,0,0,-1,596.4623,926.436)" d="M 0 0 C 299.619 46.138 508.177 96.436 551.462 123.92 C 165.923 72.413 -134.669 70.53 -506.688 121.367 C -461.54 80.527 -353.84 -16.895 -310.127 -56.438 C 182.035 -56.438 454.083 67.163 534.226 110.419 C 466.041 83.925 297.638 30.069 0 0 " fill="#62afac"/>
<path transform="matrix(1,0,0,-1,218.7696,921.7547)" d="M 0 0 C 29.654 -5.722 43.806 -5.938 73.095 -5.769 C 74.76 -5.769 76.108 -7.118 76.108 -8.782 C 76.267 -13.478 68.066 -11.346 65.459 -11.801 C 42.913 -11.898 31.129 -11.8 8.433 -7.648 Z " fill="#ffffff"/>
<path transform="matrix(1,0,0,-1,296.4449,908.5483)" d="M 0 0 C 3.952 -9.925 16.841 8.898 21.044 11.312 C 24.219 13.136 32.045 16.78 34.459 12.15 C 36.402 8.422 31.887 1.979 30.127 -.931 C 23.651 -11.632 15.815 -21.581 7.96 -31.284 C 5.668 -34.115 -.852 -39.554 4.547 -42.718 C 10.234 -46.051 19.167 -30.574 21.917 -27.107 C 71.436 32.363 10.795 27.335 0 0 " fill="#ffffff"/>
<path transform="matrix(1,0,0,-1,411.9082,938.3104)" d="M 0 0 C -4.101 -1.505 -5.603 .663 -6.536 3.217 C -2.593 6.401 2.53 11.107 5.671 15.371 C 5.404 10.219 6.177 2.267 0 0 M 12.16 34.636 C 8.593 32.397 8.492 29.113 6.706 25.791 C 2.963 19.199 -2.801 13.023 -8.856 8.478 C -10.772 9.612 -13.693 6.585 -13.49 4.894 C -16.925 2.522 -23.173 -1.417 -23.455 -.365 C -24.811 4.457 -11.854 13.444 -9.885 17.61 C -4.291 29.446 -19.385 25.34 -24.665 21.579 C -27.32 32.617 -39.628 11.62 -42.099 8.876 C -42.099 8.875 -47.657 4.746 -47.657 4.746 C -48.42 3.956 -59.243 -2.474 -59.619 -1.069 C -60.976 3.752 -48.019 12.739 -46.049 16.906 C -40.455 28.742 -55.549 24.636 -60.829 20.874 C -62.273 31.17 -73.672 14.44 -75.172 12.439 C -77.06 9.921 -85.625 .321 -84.426 -3.608 C -81.853 -12.039 -72.611 3.952 -70.983 5.866 C -68.287 9.034 -65.217 11.863 -61.899 14.374 C -61.014 15.044 -52.033 19.617 -52.116 19.35 C -53.936 13.458 -62.191 9.544 -64.844 3.657 C -67.95 -15.643 -50.003 -2.215 -46.469 .864 C -47.342 -1.101 -48.154 -2.859 -47.799 -4.023 C -45.225 -12.453 -36.446 4.657 -34.818 6.57 C -32.123 9.738 -29.053 12.568 -25.735 15.078 C -24.85 15.748 -15.869 20.321 -15.952 20.054 C -17.772 14.162 -26.027 10.248 -28.679 4.361 C -33.743 -9.18 -19.208 -7.621 -11.288 -.552 C -4.528 -10.385 8.21 -5.086 11.057 4.624 C 13.185 11.071 11.138 18.152 13.152 24.578 C 14.041 27.418 20.491 31.593 20.09 33.773 C 19.378 37.65 14.242 35.943 12.16 34.636 " fill="#ffffff"/>
<path transform="matrix(1,0,0,-1,450.4648,923.9966)" d="M 0 0 C -.204 -.276 -.409 -.552 -.614 -.827 C -9.699 6.108 11.709 14.629 0 0 M -8.312 -8.322 C -24.701 -18.954 -13.568 -3.226 -8.011 2.534 C -7.721 -.294 -6.315 -2.875 -4.142 -4.702 C -5.447 -6.007 -6.837 -7.214 -8.312 -8.322 M 146.304 -2.425 C 470.936 35.947 606.724 72.277 705.616 122.726 C 640.794 100.765 482.951 37.354 143.834 3.026 C 138.505 .353 128.741 -12.218 126.967 -7.766 C 126.822 -7.403 128.465 -1.641 128.682 -1.072 C 129.936 2.208 129.919 1.204 133.517 3.592 C 136.325 5.456 143.869 10.997 141.839 14.736 C 137.941 21.913 127.995 3.864 121.975 5.345 C 126.752 11.552 131.465 17.805 136.622 23.707 C 139.029 26.461 148.209 33.002 148.14 36.394 C 147.392 52.762 116.081 7.582 112.91 4.071 C 107.288 -2.228 81.436 -19.996 87.558 -2.272 C 88.879 .576 98.708 13.428 102.805 11.492 C 101.808 12.13 90.973 -3.584 101.7 .12 C 108.889 2.602 111.88 16.141 102.145 16.811 C 88.067 17.509 76.328 -8.328 64.758 -10.872 C 61.8 -8.061 73.599 4.306 75.215 6.127 C 77.108 8.26 79.91 9.874 78.653 12.854 C 74.26 23.706 53.973 -16.763 47.452 -11.297 C 44.205 -8.944 61.667 7.095 62.369 9.283 C 63.587 13.084 61.581 15.503 57.97 14.023 C 55.227 12.899 52.52 8.395 50.619 6.145 C 48.231 1.706 37.462 -5.214 35.531 -7.145 C 25.547 -17.206 28.289 -7.868 33.492 -2.05 C 35.107 .232 40.777 5.412 40.775 8.115 C 40.772 12.656 35.837 10.149 33.83 12.527 C 32.546 14.048 34.551 15.464 33.241 17.645 C 31.159 21.112 28.081 18.589 26.832 16.169 C 24.721 7.13 14.769 -.567 6.298 -2.664 C 10.088 2.626 12.927 15.308 2.219 14.244 C 4.255 17.938 28.312 37.37 15.364 37.048 C 12.515 36.706 7.543 29.642 5.464 27.479 C .784 22.612 -3.71 17.591 -8.108 12.469 C -12.461 7.397 -30.562 -9.886 -20.789 -16.961 C -14.374 -20.608 -6.52 -15.103 -1.551 -11.21 C 1.586 -8.598 2.4 -8.375 2.4 -8.375 C 6.772 -8.235 15.839 -4.558 18.281 -2.839 C 23.743 .801 25.813 3.448 26.992 4.871 C 29.604 8.02 28.968 8.42 32.497 7.344 C 18.061 -6.079 18.748 -28.193 41.102 -9.891 C 41.007 -21.275 53.736 -15.679 58.203 -10.879 C 61.253 -22.839 74.612 -12.772 79.574 -6.538 C 80.145 -19.901 94.932 -16.743 103.452 -9.884 C 102.886 -17.23 109.543 -11.962 111.579 -9 C 114.559 -4.172 116.764 -.311 123.277 -.412 C 121.799 -5.068 115.94 -15.511 126.215 -14.632 C 129.303 -14.388 136.653 -9.898 143.496 -3.926 C 145.179 -2.456 146.304 -2.425 146.304 -2.425 " fill="#ffffff"/>
</g>
</g>
</svg>
