<?xml version="1.0" encoding="utf-8"?><svg version="1.1" id="Layer_1" xmlns="http://www.w3.org/2000/svg" xmlns:xlink="http://www.w3.org/1999/xlink" x="0px" y="0px" viewBox="0 0 512 512" style="enable-background:new 0 0 512 512;" xml:space="preserve"><style type="text/css"> .st0{fill:#FFFFFF;} .st1{fill:#C4C4C4;} .st2{fill:#F7B208;} .st3{fill:#42B6A4;} .st4{fill:#010202;} </style><g id="Ebene_3"><path class="st0" d="M256.4,15.7c-32.5,0-64,6.3-93.7,18.9C134,46.7,108.3,64.1,86.1,86.3s-39.4,47.9-51.6,76.6 C26.4,181.9,21,201.7,18,222c3.1-2.4,6.3-4.9,9.5-7.3c0-0.1,0.1-0.3,0.1-0.4c0.8-2.1,1.6-4.1,2.5-6c0.7-1.4,1.4-2.8,2.2-4.1 c8.1-13.4,19.9-14.1,25.9-20.6c4.3-4.7,8.9-9,13.3-13.5c1.6-1.7,2.8-1.4,4.1,0.1c5.8,6.6,31.2,39.3,35.2,42.1 c7.9,8.3,25.7,13.7,35.8,14.4c3.4,0.2,49.5-10.2,55.2-12.1c3.3-1.1,5.2-0.1,7,2.9c2.5,4.7,4.3,13.7,3.1,19.2 c-0.6,2.4-1.6,3.8-4.3,4.2c-10.5,1.4-29.4,3.4-55.1,11.4c-30.5,10.3-53.2,34.2-59.4,43.4h-0.1c-0.2,0.4-0.4,1-0.8,1.4 c-2.3,3.7-3,8-3.3,12.4c4.1-2.1,8.4-3.8,12.9-5.2c8-2.4,16.5-3.8,24.9-4.1c89.5-4.5,98.6,99.6,98.4,123.2 c-0.1,22.2-1.1,48.7-19.6,55.9c-1.1,0.4-2.5,0.7-4.2,0.8c-0.9,2.5-2.9,4.5-6.2,5c-2.9,0.4-5.9,1-8.8,1.7 c22.5,6.8,45.9,10.3,69.7,10.3c32.5,0,64-6.3,93.7-18.9c28.7-12.1,54.4-29.5,76.6-51.6c22.2-22.2,39.4-47.9,51.6-76.6 c12.5-29.7,18.9-61.2,18.9-93.7c0-20.7-2.5-41-7.8-60.7c-2.2-1.9-4.1-3.4-3.9-2.3c-28.9-56.1-56.9-74.2-96.8-98.2 c16.8-3.5,24.2-4.9,30.7-12c0.2,0.2,0.4,0.4,0.7,0.7c0.8-0.6,1.8-1.1,2.7-1.4c-21.3-20.4-45.8-36.6-72.8-48 C320.4,22,288.9,15.7,256.4,15.7z"/><path class="st1" d="M207.1,128.5c2.5,7.5,2.5,15-1.2,21.9c-7.5,14-19.7,21.3-34.3,24.9c-1.1,0.3-2.3,0.6-4.1,0.9 c0.9,0.7,1.1,1,1.4,1.1c6.4,1.2,24-5,26.1-5.7c5.8-1.9,15.5-9.4,18.3-11.9c-0.1,0.3-0.2,0.7-0.3,1l0.1-0.1c0,0,10.2-15.7,4.1-30.1 c0,0,22.6-9.6,31.2-25.8l-1.4,0.4c-12.4,9.4-27.6,14.1-42.8,17.7C204.6,124.2,206.7,127.4,207.1,128.5z"/><path class="st1" d="M110.6,68.2c38.4-18.4,96.6-37.2,173.2-33C336,38.1,387.5,61.3,403,69c-34.6-27.3-76.1-44.3-121-49.2 C220.2,13,159.6,30.2,110.6,68.2z"/><path class="st1" d="M390.7,110.6c-26.1-16.5-39.7-21.4-52.6-25.5C448.4,134.5,479.2,267,486.8,313.9c2.7-10.5,4.5-21.3,5.8-32.2 c1.1-10.2,1.6-20.4,1.3-30.5C474,177.2,431.7,135.8,390.7,110.6z"/><path class="st1" d="M315,260.3c0,0-25.9,18.6-55.4,8.8c100.5,95.4,63,174.6,45.8,202.9c-1.4,3.5-3.1,6.8-4.8,9.6 C395.1,435.9,391.8,315.4,315,260.3z"/><path class="st2" d="M127.7,244.4c9.4-3.5,38.8-11.7,43.8-12.6c8.4-1.4,17-2.8,25.4-4.2c3-0.6,4.2,1,4.3,3.9 c-3.9,1-33.6,5.9-43.2,8.6c-8.1,2.4-28.4,4.7-55.4,25.5c-8.9,6.9-22.7,18.6-37.4,45.9c8.8-8.6,17.4-12.5,28.3-15.5 c6.2-9.2,28.9-33.1,59.4-43.4c25.6-8,44.4-10,55.1-11.4c2.8-0.3,3.8-1.8,4.3-4.2c1.2-5.4-0.6-14.6-3.1-19.2c-1.7-3-3.7-4-7-2.9 c-5.7,1.9-51.8,12.3-55.2,12.1c-10.1-0.6-27.8-6.1-35.8-14.4c-4-2.8-29.6-35.5-35.2-42.1c-1.3-1.6-2.5-1.8-4.1-0.1 c-4.3,4.5-9,8.9-13.3,13.5c-6,6.4-17.8,7.2-25.9,20.6c-16.7,27.6-10.9,85.7-10.9,85.9c0,2.9,0.2,5.7,0.6,9.1 c4.3,23.4,12.1,46,23.2,67C43.4,315.5,63.1,274.3,127.7,244.4z M77.2,209c5.8,0.9,10.3,4.1,13.2,9.3c1,1.8,1.6,3.9,2.2,5.8 c-4,2.4-9.9,0.9-12.1-3.2c-1.7-2.9-3.2-4.8-7-4.9c-3.4-0.1-4.5-3.7-5.9-6.3C71.1,209.5,74.3,208.6,77.2,209z"/><path class="st1" d="M142.2,164.6c0.6-1.8,1.1-3.7,2-6.4c-4.1,4.4-7.5,8-11.5,12.3c3.3,0.7,5.5,1.3,8,1.7c0.4,0.1,0.9,0.1,1.2,0.1 c1.6-1.8,3.1-3.4,4.5-5C145,166.6,143.5,165.7,142.2,164.6z"/><path class="st1" d="M185,128.9c-1.3-0.6-2.8-1.1-4-1.9c-1.7-1-2.4-0.4-4.4,0.8c-5.5,3.4-10.1,8.4-11.7,9.7 c0.1,0.1,0.3,0.1,0.4,0.2c0.7,0.2,2.1,0.8,2.4,1.6c1.8,1.4,3,3.3,3.8,5.2c11.1-7.9,18.4-9.9,22.6-10.1 C192.2,132.4,189.2,130.5,185,128.9z"/><path class="st1" d="M178.2,275.7l-0.4,0.2c97.8,47.7,69.6,178.6,62.2,206.8c5.8-2,9.6-3.7,17-7.1 C289.2,412.8,255.9,295.9,178.2,275.7z"/><path class="st1" d="M53.1,170.4c5.5-5.1,8.9-11.7,12.1-18.4c-9.3,8-19.6,13.4-21.6,1.7c-2.7,8.8-4.1,16.7-4,22.9 C45.1,175.6,49.8,173.4,53.1,170.4z"/><path class="st1" d="M90.7,161.3c7.6,3,15.5,2,22.6-1.2c4.5-2,8.6-5,12.9-8c-15.6,8.1-32.3,10.6-41.1-7.4c-0.2,0.8-0.4,1.7-0.6,2.4 C83.3,153.4,85.7,159.3,90.7,161.3z"/><path class="st3" d="M127.2,300.3c-8.5,0.4-17.1,1.8-24.9,4.1c-26.3,7.9-46.5,27.6-40.8,65.1c0.7,4.4,1.7,9.1,3.1,14 c6.4,24,26.8,43.8,41.1,56.6c8.8,7.2,17.9,13.7,27.6,19.5c27.5,14.5,63.3,23.6,72.8,19.9c18.6-7.2,19.5-33.8,19.6-55.9 C225.7,399.9,216.7,295.8,127.2,300.3z"/><path class="st3" d="M388.9,95.4c39.9,23.9,67.8,42,96.8,98.2c-8.5-31.1-23.4-60.4-44.2-86.3c-6.9-8.5-14.2-16.4-21.9-23.8 C413.1,90.5,405.8,91.8,388.9,95.4z"/><path class="st4" d="M303.3,199.6c15.6-18.5,16.7-34.1,3.1-56.2c9.9-3.2,21.3-3.2,36.2-0.2c-28.9-13.5-67.6-19.6-84.2-21.3 C285.8,136.1,302.3,167.1,303.3,199.6z"/><path class="st4" d="M73.5,216.2c3.7,0.1,5.3,2,7,4.9c2.3,4.1,8.1,5.5,12.1,3.2c-0.8-1.9-1.2-4-2.2-5.8c-2.9-5.3-7.4-8.5-13.2-9.3 c-3-0.4-6.1,0.4-9.5,0.8C69.1,212.6,70.1,216.1,73.5,216.2z"/><path class="st4" d="M454.3,96.9c-42.5-52.8-103-86.1-170.5-93.4C216.3-3.8,150.1,15.5,97.2,58s-86.1,103-93.4,170.5 c-7.3,67.5,12,133.7,54.5,186.6c42.5,52.8,103,86.1,170.5,93.4c67.5,7.3,133.7-12,186.6-54.5s86.1-103,93.4-170.5 C516.1,216.1,496.7,149.9,454.3,96.9z M419.6,83.4c7.8,7.4,15.1,15.3,21.9,23.8c20.8,25.9,35.7,55.2,44.2,86.3 c-28.9-56.1-56.9-74.2-96.8-98.2C405.8,91.8,413.1,90.5,419.6,83.4z M45.6,366.2c-11.1-21.2-18.9-43.8-23.2-67 c-0.4-4-0.4-5.9-0.6-9.1c0-0.1-6-58.4,10.9-85.9c8.1-13.4,19.9-14.1,25.9-20.6c4.3-4.7,8.9-9,13.3-13.5c1.6-1.7,2.8-1.4,4.1,0.1 c5.8,6.6,31.2,39.3,35.2,42.1c7.9,8.3,25.7,13.7,35.8,14.4c3.4,0.2,49.5-10.2,55.2-12.1c3.3-1.1,5.2-0.1,7,2.9 c2.5,4.7,4.3,13.7,3.1,19.2c-0.6,2.4-1.6,3.8-4.3,4.2c-10.5,1.4-29.4,3.4-55.1,11.4c-30.5,10.3-53.2,34.2-59.4,43.4 c-10.9,3-19.5,7-28.3,15.5c14.7-27.1,28.6-39,37.4-45.9c27-20.8,47.2-23.2,55.4-25.5c9.5-2.8,39.3-7.6,43.2-8.6 c-0.1-2.9-1.3-4.3-4.3-3.9c-8.4,1.4-17,2.8-25.4,4.2c-5,0.9-34.3,9-43.8,12.6C63.1,274.3,43.4,315.5,45.6,366.2z M225.6,423.5 c-0.1,22.2-1.1,48.7-19.6,55.9c-9.5,3.8-45.2-5.4-72.8-19.9c-9.6-5.8-18.8-12.3-27.6-19.5c-14.4-12.9-34.8-32.6-41.1-56.6 c-1.4-4.9-2.4-9.5-3.1-14c-5.8-37.6,14.4-57.2,40.8-65.1c8-2.4,16.5-3.8,24.9-4.1C216.7,295.8,225.7,399.9,225.6,423.5z M492.6,281.8c-1.2,11-3.1,21.7-5.8,32.2c-5.1,20.5-12.9,40.1-23.2,58.4c7.8-32.1-0.9-63.5-17.5-87.4c-29-35.6-54-53.3-97.9-65.9 c-20.2-3.2-38.7,1-47.1,20.7c-6,23-39.1,27.3-41.5,29.1c29.5,10,55.4-8.8,55.4-8.8c76.8,55.1,80.1,175.6-14.4,221.2 c1.7-2.9,3.3-6.1,4.8-9.6c17-40.9,14.8-120.6-59.7-172.8c-47.3-29.5-74.9-27.5-93.5-26.3c9.2-0.2,17.8,0.9,26,3 c77.8,20.2,111,137,78.7,200.1c-7.2,3.4-11.1,5.1-17,7.1c-0.9,0.3-1.8,0.6-2.8,0.9c18.1-50.3-0.4-157-58.1-184.9 c-16.7-8.9-48.4-11.6-66.5-6.2c35.8-47,87.5-37.8,92.5-38.3c10.3-1,13.8-4.2,16.8-14.6c2.8-9.5-7.2-31.4-8.9-33.5 c-2.4-3-8.6-3.5-13-1.6c-8.4,6.1-48.5,9.1-59.5,7.6c-12.5-1.9-34.3-17.1-35-27.9c-0.1-0.4,0.6-0.8,1.6-1c13.6-3.2,27.4-5,40.5,1.1 c9.7,4.5,19.8,5.8,30,4.4c15.1-2,27.1-9.2,33.7-24.2c0.4-1.1,0.9-2.3,1.4-3.9c0.1-0.3,0.2-0.7,0.3-1c-2.8,2.3-12.5,9.9-18.3,11.9 c-2.2,0.8-19.7,6.9-26.1,5.7c-0.2,0-0.4-0.3-1.4-1.1c1.8-0.3,2.9-0.6,4.1-0.9c14.6-3.7,26.8-11.1,34.3-24.9 c3.8-7,3.8-14.5,1.2-21.9c-0.3-1.1-2.5-4.3-3-5.4c15.2-3.7,30.4-8.3,42.8-17.7c1.1-0.9,2.2-1.8,3.3-2.7c-7.2,1.7-14.3,3.4-21.5,5.1 c-3.9,0.9-7.9,1.8-11.9,2.3c-8.3,1.2-16.6,2.7-24.9,3.2c-8.2,0.6-16.5,0.2-24.7,0.3c-0.8,0-1.8,0.6-2.3,1.1 c-10,13.4-21.5,25.3-35.1,34.8c-1.2,0.9-2.4,1.8-3.7,2.7c-4.1,3-8.3,5.9-12.9,8c-7.2,3.2-15.1,4.2-22.6,1.2c-5-2-7.4-7.9-6.3-14.1 c0.2-0.9,0.3-1.7,0.6-2.4c6.8-25.5,29.7-39.7,30.1-40.2c-17.3,6.4-24.2,12.7-34.7,24.8c-5.5,6.2-9.3,10.4-13.1,17.8 c-0.8,1.6-1.6,3.2-2.3,4.9c-3.2,6.6-6.5,13.3-12.1,18.4c-3.2,3-7.9,5.1-13.6,6.2c-0.1-6.2,1.3-14.1,4-22.9 c1.2-3.8,2.5-7.8,4.2-11.9c14.8-27,34.9-51.1,59.7-71c1.1-0.9,2.2-1.7,3.2-2.5c49-38,109.7-55.2,171.4-48.5 c44.9,4.9,86.4,21.9,121,49.2c1.3,1,2.7,2.1,3.9,3.2c-15.5,17.9-53.1,13.4-71.9,10.4c-1-0.1-1.3,1.3-0.3,1.6 c1.1,0.3,2.2,0.7,3.3,1.1c13,4.2,26.5,9,52.6,25.5c41,25.1,83.4,66.6,103.3,140.6C494.2,261.4,493.7,271.6,492.6,281.8z M146.4,167.3c8.1,3.4,18.3-0.2,23.2-8.2c2.2-3.7,3.7-9.5,1.9-14.5c-0.7-1.9-1.9-3.8-3.8-5.2c0,0.1,0.1,0.2,0.1,0.3 c0,1.2-3.9,8.3-3.9,8.3c-3.1,2.4-6.3,1.3-6.3,1.3c-2.4-0.9-0.3-3.3-0.3-3.3l7.6-8.3c0,0,0.1,0,0.3,0.1c-0.1-0.1-0.3-0.1-0.4-0.2 c1.7-1.4,6.2-6.3,11.7-9.7c2-1.2,2.7-1.8,4.4-0.8c1.3,0.8,2.7,1.3,4,1.9c4.1,1.6,7.1,3.4,9,5.5c3.8,4.4,2.7,10.1-2.9,17.4 c-5.9,7.8-13.7,12.4-22.4,16.1c-8.6,3.5-17.5,5.4-26.8,4.4c-0.4,0-0.9-0.1-1.2-0.1c-2.3-0.3-4.7-1-8-1.7c4.1-4.3,7.4-8,11.5-12.3 c-0.9,2.9-1.4,4.7-2,6.4C143.5,165.7,145,166.6,146.4,167.3z"/></g></svg> 