<?xml version="1.0" encoding="utf-8"?><svg version="1.1" id="Layer_1" xmlns="http://www.w3.org/2000/svg" xmlns:xlink="http://www.w3.org/1999/xlink" x="0px" y="0px" viewBox="0 0 512 512" style="enable-background:new 0 0 512 512;" xml:space="preserve"><style type="text/css"> .st0{fill:url(#path4326-7-5-8-4-7_1_);stroke:#000000;stroke-width:8.466667e-02;} .st1{fill:url(#path4198-6-1-0-9-38_1_);stroke:#000000;stroke-width:0.3;} .st2{fill:url(#path4198-6-6-3-0-6-8_1_);stroke:#000000;stroke-width:0.3;} .st3{fill:url(#path4326-8-0-9-7-9_1_);stroke:#000000;stroke-width:8.466667e-02;} .st4{fill:#0000C8;stroke:#000000;stroke-width:8.466667e-02;} .st5{fill:url(#path4326-1-2-0-88_1_);stroke:#000000;stroke-width:8.466667e-02;} .st6{fill:url(#path4198-9-9-4-4_1_);stroke:#000000;stroke-width:8.466667e-02;} .st7{fill:#0000FF;stroke:#000000;stroke-width:5.926666e-02;} .st8{fill:url(#path4141-1-1-5-7_1_);stroke:#000000;stroke-width:0.2263;} .st9{fill:url(#path4141-6-0-1-8-6_1_);stroke:#000000;stroke-width:0.2263;} .st10{fill:#FF0000;stroke:#000000;stroke-width:0.2531;} .st11{fill:none;stroke:#000000;stroke-width:0.1688;} .st12{fill:#FFFFFF;stroke:#000000;stroke-width:2.494520e-03;} </style><g id="layer1" ><g id="g4794-5-8-9-9" transform="matrix(3.5433071,0,0,3.5433071,1691.6347,528.96218)"><g id="layer1-1-1-0-2-61" transform="translate(-529.22895,-131.74679)" ><g id="g4314-3-4-4-6" transform="matrix(0.28222222,0,0,0.28222222,24.724206,53.472474)"></g><linearGradient id="path4326-7-5-8-4-7_1_" gradientUnits="userSpaceOnUse" x1="146.4409" y1="172.7064" x2="167.2585" y2="-23.5732" gradientTransform="matrix(0.8 0 0 -0.8 -11.2514 141.346)"><stop offset="0" style="stop-color:#FFFFFF"/><stop offset="1" style="stop-color:#0000C8"/></linearGradient><path id="path4326-7-5-8-4-7" class="st0" d="M108.3,3.2c-12.3,0-22.4,10-22.4,22.4 c0,12.3,10,22.4,22.4,22.4s22.4-10,22.4-22.4S120.6,3.2,108.3,3.2z M108.3,6.6c10.5,0,19,8.5,19,19c0,10.5-8.5,19-19,19 s-19-8.5-19-19C89.3,15.1,97.8,6.6,108.3,6.6z"/><g id="g4302-0-6-6-3" transform="matrix(0.28222222,0,0,0.28222222,28.675317,53.472474)"><linearGradient id="path4198-6-1-0-9-38_1_" gradientUnits="userSpaceOnUse" x1="417.8453" y1="226.1236" x2="484.4367" y2="-34.6346" gradientTransform="matrix(0.8 0 0 -0.8 -48.9883 159.7874)"><stop offset="0" style="stop-color:#0000C8"/><stop offset="1" style="stop-color:#0000C8;stop-opacity:0.5882"/></linearGradient><path id="path4198-6-1-0-9-38" class="st1" d=" M337.8,188.1L263.9-33.9h36.2L337.8,188.1z"/><linearGradient id="path4198-6-6-3-0-6-8_1_" gradientUnits="userSpaceOnUse" x1="557.7134" y1="260.4489" x2="482.7104" y2="-34.6564" gradientTransform="matrix(0.8 0 0 -0.8 -48.9883 159.7874)"><stop offset="0" style="stop-color:#0000C8"/><stop offset="1" style="stop-color:#0000C8;stop-opacity:0.5882"/></linearGradient><path id="path4198-6-6-3-0-6-8" class="st2" d=" M337.8,188.1l84.1-252.5L380.7-65L337.8,188.1z"/></g><linearGradient id="path4326-8-0-9-7-9_1_" gradientUnits="userSpaceOnUse" x1="194.0648" y1="182.805" x2="178.2038" y2="-13.4747" gradientTransform="matrix(0.8 0 0 -0.8 -11.2514 141.346)"><stop offset="0" style="stop-color:#FFFFFF"/><stop offset="1" style="stop-color:#0000C8"/></linearGradient><path id="path4326-8-0-9-7-9" class="st3" d="M142.2-5.3c-12.3,0-22.4,10-22.4,22.4 c0,12.3,10,22.4,22.4,22.4c12.3,0,22.4-10,22.4-22.4S154.6-5.3,142.2-5.3z M142.2-1.9c10.5,0,19,8.5,19,19s-8.5,19-19,19 c-10.5,0-19-8.5-19-19S131.7-1.9,142.2-1.9z"/><path id="rect4151-4-2-9-7-6" class="st4" d="M135.7,35h12.8 l-2.1,4.4l-11.2,0L135.7,35z"/><path id="rect4151-2-2-4-6-5" class="st4" d="M102.6,43.7h11.2 l0.4,4h-10.1L102.6,43.7z"/><linearGradient id="path4326-1-2-0-88_1_" gradientUnits="userSpaceOnUse" x1="169.065" y1="194.1233" x2="169.065" y2="-0.1737" gradientTransform="matrix(0.8 0 0 -0.8 -11.2514 141.346)"><stop offset="0" style="stop-color:#FFFFFF"/><stop offset="1" style="stop-color:#0000E1"/></linearGradient><path id="path4326-1-2-0-88" class="st5" d="M124-14c-12.3,0-22.4,10-22.4,22.4 c0,12.3,10,22.4,22.4,22.4c12.3,0,22.4-10,22.4-22.4S136.3-14,124-14z M124-10.7c10.5,0,19,8.5,19,19c0,10.5-8.5,19-19,19 c-10.5,0-19-8.5-19-19C105-2.2,113.5-10.7,124-10.7z"/><linearGradient id="path4198-9-9-4-4_1_" gradientUnits="userSpaceOnUse" x1="168.8955" y1="120.0702" x2="166.7926" y2="-151.2026" gradientTransform="matrix(0.8 0 0 -0.8 -11.2514 141.346)"><stop offset="0" style="stop-color:#0000E1"/><stop offset="1" style="stop-color:#0000E1;stop-opacity:0.5882"/></linearGradient><path id="path4198-9-9-4-4" class="st6" d=" M124,106.6L116.9,26h14.3L124,106.6z"/><path id="rect4151-8-2-35-5" class="st7" d="M116.6,25.7h14.9 l-0.3,4.5H117L116.6,25.7z"/><g id="text4136-0-1-1-1" transform="matrix(0.47354131,0,0,0.29569808,-30.364993,53.406633)"><linearGradient id="path4141-1-1-5-7_1_" gradientUnits="userSpaceOnUse" x1="495.4214" y1="304.9501" x2="304.9222" y2="-29.5589" gradientTransform="matrix(1.3423 0 0 -0.8382 -198.4394 162.2663)"><stop offset="0" style="stop-color:#000096"/><stop offset="1" style="stop-color:#000096;stop-opacity:0.5882"/></linearGradient><path id="path4141-1-1-5-7" class="st8" d="M373.7-1.1 c15-57.3,49.5-21.7,103.8-84c0,0-12.8,73.2-29.7,96.8c-13.1,18.3-35.2,10.6-49.6,26.3c-7.1,7.8-16.6,31.7-16.6,31.7 s13,4.8,45-16.1c0,0-17.2,31.7-28.6,41c-11,9-36.1,12.5-36.1,12.5l-35.7,73.5C326.2,180.5,326.2,180.5,373.7-1.1L373.7-1.1z"/></g><g id="text4136-6-7-9-11-3" transform="matrix(-0.47354131,0,0,0.29569808,241.50246,53.353197)"><linearGradient id="path4141-6-0-1-8-6_1_" gradientUnits="userSpaceOnUse" x1="169.9985" y1="303.5108" x2="-20.5008" y2="-29.6601" gradientTransform="matrix(-1.3423 0 0 -0.8382 616.4255 162.4539)"><stop offset="0" style="stop-color:#000096"/><stop offset="1" style="stop-color:#000096;stop-opacity:0.5882"/></linearGradient><path id="path4141-6-0-1-8-6" class="st9" d="M295.8-0.9 c15-57.3,49.5-21.7,103.8-84c0,0-12.8,73.2-29.7,96.8c-13.1,18.3-35.2,10.6-49.6,26.3c-7.1,7.8-16.6,31.7-16.6,31.7 s13,4.8,45-16.1c0,0-17.2,31.7-28.6,41c-11,9-36.1,12.5-36.1,12.5l-35.7,73.5C248.3,180.7,248.3,180.7,295.8-0.9L295.8-0.9z"/></g><path id="path4355-6-3-13-6" class="st10" d="M126.8,116 c12.8-1.6,11.7-20.5-14.4-24.9c-23.7-4-22.5-31.2-2.8-35c13-1.5,28.8,0.2,32.1,24.8c-9.5-11.3-28.6-3.1-15.5,1.4 c31.5,10.9,37.9,43.7,4.9,41.9c-34.1-1.9-16.6-30.4-5.9-17.5C119.4,104.7,115,117.6,126.8,116L126.8,116z"/><path id="path4357-4-7-3-2" class="st11" d="M128.3,58.1 c-6.6-2-4.3,1.9-11.7,4.9c10.2,1.8,8.4,2.3,13,5.1c-6,0.1-9.7,3.5-12.3,5.2c3.2,0.1,4.9,3.3,9.3,2"/><path id="path4362-4-8-0-0" class="st12" d="M139.3,77.6c-3.6-2.7-8.9-3.8-13.6-2.8 c-1.2,0.2-1.5,0.3-2.3,0.1c-0.9-0.2-4.5-1.8-4.5-2c0-0.2,3-2.1,4.3-2.7c0.7-0.3,1.8-0.8,2.5-0.9c1-0.3,3.8-0.6,5.3-0.6 c0.4,0,0.4-0.1-0.6-0.7c-0.6-0.4-1.8-1.2-2.7-1.8c-0.9-0.6-2.1-1.4-2.6-1.6c-0.9-0.4-3.5-1.2-5.5-1.6l-0.9-0.2l1.2-0.8 c0.6-0.4,1.9-1.4,2.7-2.2c2.1-2,2.9-2.1,5.5-0.8c2.2,1.1,3.2,1.9,5.1,3.7c2.4,2.4,3.9,4.7,5.3,8.3c0.7,1.8,2.1,6.6,2,7.1 C140.3,78.2,139.9,78,139.3,77.6L139.3,77.6z"/></g></g></g></svg> 