<?xml version="1.0" encoding="utf-8"?><svg version="1.1" id="Layer_1" xmlns="http://www.w3.org/2000/svg" xmlns:xlink="http://www.w3.org/1999/xlink" x="0px" y="0px" viewBox="0 0 512 512" style="enable-background:new 0 0 512 512;" xml:space="preserve"><style type="text/css"> .st0{fill:#FFFFFF;} .st1{fill:#CC1316;} </style><g id="Logo"><g><path d="M50.9,0.4c-0.1,1.5-0.3,3.1-0.3,4.8c-0.4,9.2-0.8,18.4-1,27.6c-0.4,22.1-0.2,44.3,1.1,66.3c0.8,13.9,2,27.9,3.2,41.8 C54.7,150,55.7,159,57,168c1.7,11.8,3.6,23.6,5.7,35.3c3.6,19.9,8.5,39.5,14.3,58.9c10,33.2,24.4,64.4,41.9,94.3 c26.3,44.8,58.5,85,96.1,120.9c12.7,12.1,26,23.6,40.1,34.1c1,0.7,1.6,0.7,2.5,0c5.1-4.1,10.4-8,15.5-12.2 c29.9-24.9,56.6-53,80.6-83.7c26.1-33.5,48.1-69.4,65.3-108.2c13-29.4,21.9-60.1,28.5-91.4c6.2-29.4,10.3-59,12.7-88.9 c1.3-16.4,2.2-32.9,2.8-49.3c0.9-24.2,0.5-48.4-0.7-72.6c-0.1-1.6-0.3-3.3-0.4-5.1c-0.4,0.3-0.6,0.5-0.7,0.6 c-7.8,8.4-16.6,15.6-26,22.1c-26.1,18.1-54.9,30.2-85.6,38.1C333,65,316.3,68,299.2,69.4c-8.1,0.7-16.1,1.2-24.2,1.6 c-6.6,0.3-13.1,0.2-19.7,0.3c-14.5,0.2-29-0.5-43.4-1.9c-11.9-1.2-23.7-3-35.5-5.5c-27.5-5.8-53.9-14.9-78.5-28.5 C82.8,27,68.6,17.2,56.1,5.1C54.4,3.5,52.7,2,50.9,0.4z"/><path class="st0" d="M50.9,0.4c1.8,1.6,3.5,3.1,5.1,4.7C68.6,17.2,82.7,27,97.9,35.4c24.7,13.6,51,22.7,78.5,28.5 c11.7,2.5,23.6,4.3,35.5,5.5c14.4,1.5,28.9,2.1,43.4,1.9c6.6-0.1,13.2,0,19.7-0.3c8.1-0.4,16.2-0.9,24.2-1.6 c17-1.5,33.8-4.4,50.3-8.6c30.7-7.8,59.5-19.9,85.6-38.1c9.4-6.5,18.2-13.7,26-22.1c0.2-0.2,0.3-0.3,0.7-0.6 c0.1,1.9,0.3,3.5,0.4,5.1c1.3,24.2,1.6,48.4,0.7,72.6c-0.6,16.5-1.5,32.9-2.8,49.3c-2.3,29.9-6.5,59.6-12.7,88.9 c-6.6,31.4-15.5,62.1-28.5,91.4c-17.2,38.8-39.2,74.7-65.3,108.2c-23.9,30.7-50.6,58.8-80.6,83.7c-5.1,4.2-10.3,8.1-15.5,12.2 c-0.9,0.7-1.5,0.8-2.5,0c-14.1-10.5-27.4-21.9-40.1-34.1c-37.6-35.8-69.8-76-96.1-120.9c-17.5-29.9-32-61.1-41.9-94.3 c-5.8-19.4-10.7-39-14.3-58.9c-2.1-11.7-4-23.5-5.7-35.3c-1.3-9-2.3-18.1-3.2-27.1c-1.3-13.9-2.4-27.8-3.2-41.8 c-1.3-22.1-1.5-44.2-1.1-66.3c0.2-9.2,0.7-18.4,1-27.6C50.6,3.6,50.8,1.9,50.9,0.4z M53.4,6.7c-0.2,4-0.5,7.6-0.5,11.3 c-0.2,16.9-0.4,33.9-0.3,50.8c0.1,20.4,1.2,40.7,3.2,61c1.6,16.1,3.6,32.3,5.7,48.3c2.4,18,6,35.8,10.3,53.5 c5.7,23.4,12.7,46.5,22.1,68.7c15.3,35.9,34.9,69.4,57.9,100.8c18.6,25.4,39.3,49.1,62,71c13.1,12.7,26.8,24.7,41.4,35.7 c1,0.7,1.6,0.7,2.5,0c15.4-11.7,29.9-24.5,43.7-38c30-29.4,56.5-61.7,79.2-97.2c13.2-20.7,25-42.2,35-64.6 c15.3-34.1,25.1-69.9,31.9-106.5c3-16.2,5.5-32.5,7.3-48.8c1.3-12.5,2.6-24.9,3.5-37.4c0.9-12.2,1.4-24.4,1.8-36.6 c0.8-22.5,0.6-45.1-0.4-67.6c-0.1-1.4-0.2-2.8-0.3-4.4c-0.4,0.3-0.7,0.5-0.9,0.7c-12.5,11.9-26.6,21.7-41.6,30 c-21.6,12-44.5,20.5-68.5,26.5c-22.9,5.7-46.2,9-69.8,9.8c-13.5,0.5-26.9,0.3-40.4,0.1c-17.4-0.3-34.6-2.2-51.7-5.2 c-24.1-4.3-47.5-10.9-69.8-20.9c-21.2-9.4-40.9-21.3-58.4-36.7C56.6,9.7,55.2,8.3,53.4,6.7z"/><path class="st1" d="M53.4,6.7c1.7,1.6,3.2,3,4.8,4.4c17.4,15.4,37.1,27.3,58.4,36.7c22.4,9.9,45.8,16.6,69.8,20.9 c17.1,3,34.3,4.9,51.7,5.2c13.5,0.2,26.9,0.3,40.4-0.1c23.6-0.8,46.9-4.1,69.8-9.8c23.9-5.9,46.9-14.5,68.5-26.5 c15.1-8.4,29.1-18.1,41.6-30c0.2-0.2,0.5-0.4,0.9-0.7c0.1,1.6,0.2,3,0.3,4.4c1,22.5,1.3,45.1,0.4,67.6 c-0.5,12.2-0.9,24.4-1.8,36.6c-0.9,12.5-2.2,25-3.5,37.4c-1.7,16.4-4.2,32.6-7.3,48.8c-6.9,36.6-16.6,72.4-31.9,106.5 c-10,22.4-21.8,43.9-35,64.6c-22.7,35.4-49.1,67.8-79.2,97.2c-13.8,13.5-28.2,26.3-43.7,38c-0.9,0.7-1.5,0.7-2.5,0 c-14.6-11-28.2-23.1-41.4-35.7c-22.7-21.9-43.4-45.6-62-71c-23.1-31.5-42.7-64.9-57.9-100.8c-9.4-22.2-16.5-45.2-22.1-68.7 c-4.3-17.7-7.8-35.5-10.3-53.5c-2.2-16.1-4.1-32.2-5.7-48.3c-2-20.3-3.1-40.6-3.2-61c-0.1-16.9,0.2-33.9,0.3-50.8 C52.9,14.3,53.2,10.7,53.4,6.7z M142.2,343.7c0.1,0.5,0.1,0.9,0.2,1.4c0.9,4.7,3.5,8.5,6.4,12.1c3.5,4.6,7.1,9.2,10.4,13.9 c3.6,5.1,7.5,9.9,12.1,14.1c11.7,10.6,25.5,17.4,40.6,21.8c2.1,0.6,4.2,1.1,6.7,1.8c-1.4,0.5-2.4,0.9-3.5,1.3 c6.7,1.1,13.5-0.3,20.3,1.6c-0.9,1.4-1.8,2.7-2.8,4.3c0.8,0,1.5,0,2.2,0c3.3-0.1,6.4-1.2,9.3-2.4c2.7-1.2,5.5-1.7,8.6-1.5 c-0.3,3.2-2.1,5.5-4,8.2c1.8-0.3,3.3-0.5,4.8-0.8c4.8-1.1,9-3.5,12.9-6.4c2.1-1.6,4.4-2.7,7-3.1c0.2,3.2-1,6-2.2,9 c4-1.2,7.5-2.9,10-6c3.1-3.8,7-6.4,11.6-8.1c0.3-0.1,0.7-0.2,1-0.3c1.2,3.4,0.4,6.5-0.8,9.8c0.8-0.2,1.3-0.3,1.7-0.5 c6.3-2,10.3-6.4,12.7-12.3c1.4-3.4,4.3-4.8,7.1-6.8c1.6,3.7,1.8,7.5,2.3,11.3c0.5-0.3,1-0.5,1.3-0.7c3.8-2.1,5.9-5.4,6.9-9.5 c0.9-3.9,2.2-7.6,4.2-11.1c0.3-0.5,0.6-0.9,0.9-1.4c3.4,2.2,4.8,5.5,5.5,9.3c2-1.9,3.2-4,3.9-6.5c0.9-3.5,0.5-6.9-0.7-10.2 c-0.3-0.7-0.4-1.4,0.4-1.7c1.6-0.6,3.1-1.4,4.8-1.6c3.7-0.3,6.8,1.4,9.7,3.5c0.4,0.3,0.9,0.6,1.3,0.9c0.2-0.2,0.2-0.3,0.3-0.4 c0.1-0.3,0.1-0.5,0.1-0.8c0.3-2.9-0.6-5.6-2.1-8c-0.6-1-1.4-2-2-3c-1.1-1.6-1.2-3.4-0.3-5.1c0.8-1.8,2.3-2.3,4.1-2.4 c3.8-0.2,7.1,0.9,9.7,3.8c0.1,0.1,0.2,0.1,0.4,0.2c0.9-2.5,0.9-5-0.2-7.3c-0.9-1.9-2-3.8-3.2-5.5c-2.4-3.5-2.9-7.3-2.3-11.4 c0.1-1,0.5-1.2,1.4-1.2c3.6,0.2,6.7,1.6,9.6,3.6c0.4,0.3,0.8,0.6,1.3,0.9c0.1-0.3,0.2-0.5,0.3-0.6c0.9-3.5-0.3-6.4-2.4-9 c-2.5-3.1-5.6-5.3-9.2-7c-1.6-0.7-3-1.7-3.5-3.4c-0.7-2-0.9-4.1-1.3-6.2c-0.1-0.7,0.2-1,0.9-1c1.5,0.1,3.1,0,4.6,0.2 c2,0.3,4,0.7,6.1,1.1c-0.1-0.5-0.2-0.9-0.3-1.3c-0.8-2.6-2.2-4.8-4.1-6.7c-2.8-2.9-6.2-5-9.8-6.6c-2.2-1-4.4-1.8-6.8-2.7 c6.2-1.8,12.1-0.7,18.1,0.6c-0.7-1.2-1.3-2.3-2.2-3.2c-1.9-2.1-4.4-3.5-7-4.6c-4.8-2-9.8-2.9-14.9-3.4c-0.6-0.1-1.3-0.2-1.7-0.6 c-0.6-0.8-1-1.8-1.5-2.8c5.3-2.9,10.5-1.9,16.2-0.4c-0.8-1.1-1.4-2-2-2.8c-1.8-2.1-4.1-3.4-6.6-4.4c-3.8-1.5-7.8-2.1-11.9-2.3 c-2.2-0.1-4.3-0.4-6.5-0.6c0-0.2-0.1-0.3-0.1-0.5c4.1-2.2,8.1-4.5,10.2-9.2c-2.2-0.2-4.2-0.2-6.1-0.7c-4-1-8-2.2-12-3.4 c-1-0.3-1.6-1-1.9-2c-0.8-2.4,0.1-5.8,2-7.6c1-0.9,2-1.9,3-3c-2.5-1.4-5.2,0.2-7.4-1.3c0.6-0.3,1.2-0.5,1.8-0.5 c1.8,0,3.4-0.3,5-1.2c1.6-1,3.1-2.1,5.1-2.4c0.8-0.1,1.5-0.7,2.2-1.1c0-0.1-0.1-0.3-0.1-0.4c-2.2-0.5-4.2-1.6-6.7-0.6 c-2,0.8-4.1,0.5-6-0.6c0.5-0.3,1-0.4,1.5-0.5c1.5-0.2,2.8-0.5,4.1-1.3c2-1.3,4.1-2.4,6.2-3.5c0.8-0.4,1.6-0.8,2.3-1.2 c0.3-0.2,0.5-0.4,1-0.9c-0.8-0.2-1.3-0.5-1.8-0.5c-0.5,0-1.1,0.3-1.6,0.2c-2.9-0.6-5.6,0.2-8.3,1c-1.5,0.4-2.5-0.2-3.9-0.7 c2.3-1.5,4.4-3,6.7-4.5c-2.6-1.1-5.2,0.8-7.7-0.6c1-0.6,2.1-1.1,3.2-1.4c1.7-0.4,3.2-1.1,4.2-2.5c1.1-1.8,2.7-2.5,4.7-2.8 c0.8-0.1,1.6-0.2,2.3-0.6c0.7-0.4,1.2-1,1.8-1.6c0.2-0.2,0.2-0.6,0.1-0.8c-0.1-0.2-0.5-0.3-0.8-0.3c-0.6,0-1.1,0.2-1.6,0.1 c-3.1-0.4-5.9,0.5-8.7,1.6c-1.2,0.5-2.6,0.6-3.9,0.8c-0.9,0.1-1.9-0.2-2.8-0.3c0-0.1,0-0.2,0-0.3c0.8-0.4,1.7-0.7,2.5-1.1 c1.1-0.5,2.3-0.9,3.2-1.7c2.6-2.4,5.3-4.4,8.6-5.6c0.4-0.2,0.9-0.3,1.2-0.7c0.6-0.6,1.1-1.3,1.6-2.1c-4.2-0.4-8-0.2-11.3,2.2 c-0.3,0.2-0.7,0.3-1,0.5c-2.3,1.2-4.6,0.6-7,0.2c0.6-2.2,0.6-2.2-1.1-2.6c0.8-0.6,1.5-1.2,2.2-1.8c0.7-0.6,1.7-1.1,2.1-2 c0.8-1.6,2.2-2.2,3.6-3c1.5-0.8,2.8-2.1,4.1-3.2c0.3-0.2,0.2-0.8,0.3-1.2c-0.5-0.1-0.9-0.2-1.4-0.2c-1.1,0.1-2.2,0.4-3.2,0.5 c-2.4,0.2-4.7,0.6-6.7,2.2c-2.2,1.7-4.8,2.5-7.8,2.2c0.7-2.5,3.2-3.5,4.7-5.7c-0.8,0-1.4-0.1-2,0c-2,0.5-4.1,1.1-6.1,1.6 c-1,0.3-2,0.5-3,0.8c0-0.1-0.1-0.2-0.1-0.3c0.5-0.4,0.9-0.9,1.4-1.1c2.2-0.9,3.8-2.6,5.1-4.5c0.8-1.2,1.8-2.1,3.4-2.5 c2.2-0.5,3.2-2.1,2.9-3.6c-1,0.2-1.9,0.5-2.9,0.6c-1.6,0.2-3.2,0.3-4.7,0.5c-4.1,0.8-8,2.3-11.7,4.3c-1.2,0.7-2.5,1.2-3.8,1.8 c-0.1-0.1-0.2-0.2-0.3-0.3c0.6-0.7,1.1-1.5,1.8-2.2c1-1,2.1-1.8,3-2.9c0.7-0.8,1.3-1.7,1-2.8c-1.4,0.4-2.8,1.2-4.2,1.1 c-2.7,0-4.9,0.9-7.2,2.1c-0.7,0.4-1.5,0.7-2.3,1.1c0-0.1-0.1-0.2-0.1-0.2c1-1.3,2-2.6,3.1-4.1c-3.3,1-6.2,1.9-9,2.9 c-0.4,0.1-0.9,0.9-0.8,1.3c0.5,2.5,1.1,5,1.8,7.4c0.1,0.4,0.5,0.9,0.9,1c3.6,0.9,6.9,2.2,10.1,4c9,5.1,15.4,12.4,19.1,22.2 c3.7,9.8,5.7,20,7.2,30.3c0.1,0.4,0,0.8,0,1.3c-0.6-0.4-1.1-0.6-1.5-0.9c-1-0.8-1.9-1.5-2.1-2.9c-0.8-4.9-1.6-9.9-2.5-14.8 c-1.6-8.7-4.6-16.7-10.3-23.6c-6.1-7.4-13.7-12.2-23.3-13.7c-0.6-0.1-1.2-0.2-1.8-0.3c1.4-0.7,1.6-1.7,1.3-2.9 c-1-4.1-2.1-8.1-3.2-12.2c-0.1-0.2-0.3-0.4-0.6-0.9c0.1,1.7,0.1,2.9,0.2,4.2c0.1,2.7-0.6,5.1-2,7.4c-0.9,1.5-2.2,3-1.8,5.1 c0.1,0.3-0.3,0.8-0.4,1.2c-1.5-1.4-1.5-3.9-0.3-5.4c0.9-1,1.7-2.2,2.5-3.3c-0.1-0.2-0.3-0.3-0.4-0.5c-1.9,0.6-3.9,1.2-5.8,1.9 c-1.3,0.5-2,1.7-1.9,3.1c0,0.9,0.3,1.8,0.4,2.7c0,0.4-0.1,0.9-0.3,1.2c-2.4,2.8-4.8,5.6-7.1,8.5c-2.7,3.4-5.2,6.8-7.8,10.2 c-1.6,2.2-2.9,4.7-5.3,6.2c-3.4,2.1-4.4,7.2-1.9,10.5c0.4,0.5,0.7,1.2,1,1.8c0.8,2.1,0.8,2.1,3,1.5c0.5-0.1,1-0.3,1.4-0.5 c2.1-0.8,4.2-1.6,6.4-2.3c0.3-0.1,0.7,0,1.1,0c-0.1,0.4,0,0.9-0.2,1.2c-1,1.3-2.1,2.6-3.1,3.9c-0.7,0.9-1.4,1.8-2.3,2.8 c1.1,0.4,2,0.7,2.9,1c3.6,1.1,6.3,0,7.9-3.2c1.5-3,3.3-5.8,6.3-7.8c1.7-1.1,3.1-1.4,4.9-0.6c1.9,0.8,3.9,0.4,5.6-0.8 c3.1-2.1,5-5,5.8-8.6c0.1-0.5,0.4-1,0.7-1.5c0.4,0.4,0.6,0.7,0.6,1c-0.4,4.2-2.1,8-5.4,10.6c-2,1.6-3.2,3.3-4.1,5.6 c-1.6,4.4-2.8,8.9-3.5,13.5c-1,7.2-1.2,14.4-3.8,21.4c-0.7,2-0.6,4.4-0.8,6.7c0,0-0.2,0-0.4,0c-5.6-1.3-11.2-2.8-16-6.2 c-0.7-0.5-1.4-1.2-2.1-1.8c-1.1-0.9-2.2-2-3.4-2.8c-0.7-0.4-1.8-0.6-2.5-0.3c-1.4,0.6-2.6,1.6-3.8,2.5c-1.2,0.8-2.2,1.8-2.1,3.4 c0.1,3.5-0.3,6.9-1.7,10.2c-0.3,0.6-0.3,1.3-0.6,1.9c-1.3,3.6-2.6,7.2-3.9,10.8c-0.2,0.7-0.5,1.4-0.5,2.1c0,2.8,0.8,5.3,2.6,7.5 c3,3.8,2.3,8.4-1.5,11.5c-0.1,0.1-0.2,0.2-0.5,0.6c0.7-0.3,1.1-0.4,1.6-0.6c2.1-0.7,2.8-0.3,3.4,1.9c0.4,1.4,0.8,2.7,1.2,4.1 c0.4,1.4,0.8,1.6,2.2,1.1c3.2-1.1,5.7-3.3,7.9-5.7c1-1.1,1.6-2.4,1.3-3.9c-0.3-1.5-0.7-2.9-1.1-4.5c-1.7,0.7-3.2,1.3-4.6,1.9 c-0.6,0.2-1.3,0.8-1.6-0.1c-0.1-0.4,0.3-1.1,0.7-1.5c0.6-0.7,1.3-1.2,2-1.7c0.7-0.5,0.7-1,0.6-1.8c-0.2-0.9-0.2-1.9,0-2.8 c0.3-1.2,1-2.4,1.6-3.5c0.4-0.7,0.4-1.2-0.2-1.8c-1.5-1.8-3.2-3.1-5.8-3.4c0.3-1.2,0.4-2.2,0.8-3.2c1.2-3.3,2.5-6.7,3.8-10 c0.4-1,1-1.3,2-0.8c5.7,2.7,10.9,6.1,14.3,11.6c0.5,0.8,1.1,1.6,1.9,2.2c2.9,2,6.1,0.4,9.5,0.7c-1.8-3.8-4.5-7-3.3-11.2 c0.3,0.3,0.5,0.6,0.5,1c0.8,3.8,3.3,6.7,5.4,9.8c1,1.5,1,2-0.6,2.7c-0.4,0.2-0.8,0.3-1.2,0.4c-3.8,0.7-7.6,1.7-11.5,1.4 c-1.2-0.1-2.5,0-3.7,0.1c-2,0.2-3.1,1.3-3.2,3.4c-0.1,1.3,0.1,2.6,0,3.9c-0.2,1.7,0.4,3.1,1.6,4.3c2.7,2.8,4.9,6,6.6,9.5 c1.6,3.2,3.4,6.4,5,9.6c1.5,2.9,3.8,4.2,7,4.2c1.1,0,2.2,0.1,3.3,0.4c1.1,0.3,2.4,0.5,3,1.2c1.4,1.8,2.5,3.9,3.7,5.9 c0.1,0.2,0.3,0.5,0.6,1c0.2-0.7,0.2-1.1,0.4-1.3c0.4-0.4,1.1-1,1.4-0.9c1.7,0.6,3.4,1.3,5,2.1c1.5,0.8,2.3,0.7,2.4-1 c0.1-2.3,0.1-4.7-0.2-7c-0.2-1.8-0.8-3.7-1.6-5.4c-1-2.2-2.9-3.3-5.5-3.9c0,2.5,0,4.7,0,7c0,1.1-0.4,1.4-1.7,1.1 c-0.2-2.4-0.4-4.9-0.6-7.5c-1.4,0.8-2.6,0.5-3.6-0.6c-0.6-0.7-1-1.7-1.3-2.6c-0.5-1.4-0.8-2.8-1.2-4.4c-0.5,0-1.1-0.1-1.6,0.1 c-1.7,0.7-3.5,1.4-5.2,2.2c-0.7,0.3-1.2,0.4-1.6-0.4c-1.7-3.4-3.5-6.7-5.4-10.3c1.2-0.4,2-0.8,2.9-1c3.1-0.5,6.2-0.1,9.3,0.4 c4.1,0.6,8.2,1.4,12.3,1.8c3.6,0.3,7.2,0.4,10.4-1.6c4.2,5.3,9.8,15.7,11.8,22c3.7,11.5,0.9,21-8.4,28.7 c-3.9,3.2-8.2,5.8-12.7,7.8c-22,10-44.7,11.1-67.9,4.9c-14.6-4-27.4-11.3-37.7-22.6c-2.6-2.8-5.2-5.9-6.9-9.3 c-5.5-10.9-5.3-22.2-0.8-33.4c0.9-2.3,2-4.2,4.8-4.5c0.1,0,0.2-0.1,0.3-0.1c9.1-3.5,15.4-10.1,19.8-18.6c1.4-2.6,3.2-4.6,5.6-6.2 c1.9-1.2,3.8-2.3,5.7-3.4c0.3-0.2,0.6-0.4,1.1-0.7c-3.6-0.6-6.9-0.8-10.2,0c-3.9,1-7.8,2.4-11.6,3.6c-1.3,0.4-2.5,0.9-3.9,1.1 c-1.3,0.2-2.5-0.2-3.1-1.4c-0.6-1.1,0-2,0.8-2.9c0.4-0.5,0.8-0.9,1.2-1.3c-0.8-0.1-1.4,0.1-2,0.3c-4.7,1.6-8.5,4.5-11.7,8.1 c-2.9,3.2-5,6.7-5.6,11.4c-1.1,8.5-4.4,16.3-9.3,23.4c-1.6,2.3-2.8,4.7-3.2,7.4c-0.4,3-0.6,6.1-0.6,9.1c0,3,0.4,6,0.6,9.2 C145,344.5,143.7,344.1,142.2,343.7z M140.6,225.4c0.1,0.1,0.1,0.2,0.2,0.3c-5.2,3.4-9,8.3-13.6,12.4c-2.4,2.1-5.2,3.8-7.8,5.7 c-0.3,0.2-0.6,0.4-1.2,0.8c0.7,0.1,1.1,0.2,1.4,0.2c3.2,0.2,5.9-1,8.1-3.3c4.4-4.6,8.8-9.2,13.3-13.8c0.4-0.4,0.9-0.7,1.4-1.1 c-2.1,2.5-4.3,4.8-6.2,7.3c-3.2,4-6.3,8.1-11,10.7c-0.1,0-0.1,0.2-0.2,0.3c2.5,0.6,4.9,0.3,6.9-1.3c1.8-1.5,3.5-3.3,4.9-5.2 c2-2.8,3.8-5.8,5.6-8.7c0.3-0.5,0.7-0.9,1.1-1.3c0.1,0.1,0.2,0.1,0.3,0.2c-3.8,5.2-5.5,11.8-11.1,16c1.5,0.2,3,0.3,4.4,0.2 c4.9-0.4,6.7-2.2,7.2-7.1c0.2-1.9,0.3-3.8,0.5-5.8c0.4,2.2,0.5,4.4,0.8,6.6c0.5,2.9,2.5,4.5,5.5,4.5c0.3,0,0.8-0.1,1-0.3 c1.8-1.5,2.6-3.4,2.1-5.8c-0.1-0.3-0.3-0.7-0.6-0.9c-2.9-1.3-4-4-4.9-6.8c-0.7-2.2-1.3-4.4-2.4-6.5c-1.8-3.6-5.3-5.1-9.1-3.9 c-2.8,0.9-5.6,2.1-8.2,3.6c-7.3,4.3-14.5,8.9-21.8,13.3c-4.9,2.9-10.1,5.4-15.9,6.3c-1.7,0.3-3.5,0-5.2,0c0,0.2-0.1,0.3-0.1,0.5 c1.5,0.6,2.9,1.4,4.4,1.7c3.4,0.7,6.7-0.4,9.9-1.5c5.9-2.1,11.1-5.5,16.4-8.6c4.7-2.7,9.4-5.4,14.1-8.1c0.5-0.3,1-0.4,1.1-0.5 c-4.8,3.2-10,6.5-15,9.9c-5.3,3.5-10.8,6.6-17.1,8.1c-0.2,0-0.4,0.2-0.6,0.3c1.5,0.8,4.4,1,6.7,0.5c4.5-0.9,8.2-3.2,11.9-5.8 c5.9-4.2,11.8-8.5,17.7-12.7c0.7-0.5,1.6-0.9,2.4-1.3c-4,3-8,5.9-11.8,9c-4.5,3.6-8.8,7.5-14.2,9.8c-0.1,0-0.2,0.2-0.3,0.4 c0.4,0.1,0.8,0.2,1.1,0.2c2.2,0.2,4.3-0.2,6.1-1.3c2.6-1.6,5.2-3.4,7.6-5.4c4.3-3.6,8.5-7.4,12.8-11.1 C139.5,226,140.1,225.8,140.6,225.4z M220.9,201.9c-0.3,0-0.4,0-0.5,0c-5.3,1.9-10.8,1.9-16.3,1.9c-3.4,0-6.7,0.2-10.1,0.4 c-0.7,0-1.4,0.2-2.2,0.3c0.4-0.4,0.8-0.6,1.2-0.6c2-0.2,4-0.3,5.9-0.5c6.3-0.6,12.6-1.2,18.9-2c3.2-0.4,5.7-2.1,7.5-4.9 c-0.2-0.1-0.3-0.2-0.4-0.1c-0.2,0.1-0.4,0.1-0.7,0.2c-3.4,1.5-7,2.3-10.7,2.6c-4.6,0.4-9.2,0.8-13.8,1.3c-2.2,0.3-4.3,0.9-6.5,1.3 c1.6-0.7,3.3-1.3,5-1.6c7-1.2,14-2.2,20.9-3.4c4.3-0.7,8.4-2.1,11.8-4.9c1.3-1.1,2.3-2.5,3.4-3.8c-0.1-0.1-0.2-0.2-0.4-0.4 c-0.3,0.2-0.7,0.4-1,0.5c-2.6,1.2-5.1,2.7-7.8,3.6c-4.7,1.4-9.5,2.4-14.2,3.5c-4.1,0.9-8.2,1.8-12.3,2.7c0.7-0.4,1.5-0.7,2.3-0.9 c6.6-1.8,13.1-3.5,19.7-5.2c5.2-1.4,10.4-3,15.1-5.8c2.3-1.4,4.4-3,5.6-5.4c0.5-1,0.7-2.2,1.1-3.4c-0.1-0.1-0.3-0.1-0.4-0.2 c-2.3,3.7-5.9,5.7-9.6,7.4c-1.5,0.7-3,1.4-4.6,1.8c-8,2.1-15.9,4-23.9,6.2c-4.4,1.2-8.9,2.5-13.2,4.2c-3.8,1.4-5.6,4.6-5,8.5 c0.3,1.7,1,3.3,1.7,4.9c0.7,1.6,1.6,3,2.4,4.5c0.8,1.4,1,2.9,0.7,4.6c-0.5,3.2,2.5,6.1,5.7,5.5c0.2,0,0.4-0.2,0.6-0.3 c1.9-2.2,2.8-4.4,1-7c-0.8-1.3-2-2.3-2.9-3.5c-0.4-0.5-0.9-1.1-1.3-1.6c1.9,1.3,3.7,2.8,5.4,4.2c1.6,1.2,3.3,1.8,5.3,1.2 c3-0.9,4.8-3.1,6.8-5.7c-7,1-13-1.9-19.2-3.3c0.5-0.2,1-0.2,1.5-0.1c1.9,0.4,3.8,0.9,5.7,1.2c3.4,0.6,6.7,1.3,10.1,1.4 c3,0.2,5.5-1.4,7.2-4.1c-8.4,2-16.7-1.1-25.1-0.5c0.3-0.3,0.6-0.4,1-0.4c1.8-0.1,3.5-0.2,5.3-0.1c4.3,0.1,8.5,0.5,12.8,0.5 c2.4,0,4.7-0.6,7-1.2C218.9,204.8,220.1,203.6,220.9,201.9z M158,161.1c0.2-1.4,0.2-1.2-1-1.5c-1.9-0.4-3.9-0.7-5.4-1.8 c-3.4-2.4-6.6-5.1-9.8-7.7c-8.8-7-16-15.6-23.3-24.3c4.6-5.3,9.1-10.5,13.7-15.8c1.6-1.9,3.6-3.2,6.1-3.5c0.8-0.1,1.1-0.5,0.7-1.3 c-5,0-10,0-15,0c0,0.5,0,0.9,0,1.3c0.5,0.1,0.9,0.2,1.3,0.2c2.7,0.4,3.2,1.5,1.9,3.9c-0.2,0.4-0.4,0.7-0.7,1.1 c-2.3,2.8-4.6,5.7-7,8.4c-1.9,2.2-4,4.2-6.3,6.6c0-0.8,0-1.2,0-1.6c0-4.1,0-8.2,0-12.4c0-5,1-5.7,4.9-6.1c0.1,0,0.2-0.1,0.4-0.2 c0-0.4,0-0.8-0.1-1.2c-5.5,0-11,0-16.4,0c-0.4,1,0,1.4,0.9,1.6c3.3,0.6,4.1,1.4,4.1,4.8c0,11.2,0,22.3,0,33.5 c0,3.4-0.7,4.2-4.1,4.8c-1.1,0.2-1.2,0.6-0.9,1.4c5.5,0,10.9,0,16.2,0c0.3-1,0-1.3-0.9-1.4c-3.5-0.7-4.1-1.4-4.2-5 c0-0.4,0-0.8,0-1.3c0-3.7,0.1-7.4,0-11.1c0-1.3,0.4-2,1.6-2.4c0.3,0.4,0.6,0.7,0.9,1.1c9.2,10.9,19.5,20.6,31,29.1 c0.5,0.3,1,0.8,1.5,0.8C151.6,161.2,154.8,161.1,158,161.1z M248.7,151.4c0.3-1-0.1-1.3-0.9-1.5c-3.5-0.7-4.1-1.4-4.2-5 c0-0.4,0-0.7,0-1.1c0-3.7,0.1-7.5,0-11.2c0-1.3,0.4-2,1.6-2.4c0.3,0.3,0.6,0.7,0.9,1c9.2,11,19.6,20.7,31.1,29.2 c0.4,0.3,0.9,0.8,1.4,0.8c3.3,0.1,6.5,0,9.8,0c0.3-0.9,0.2-1.4-0.8-1.4c-2.7,0-4.9-1.1-7-2.8c-7.3-5.7-14.6-11.4-20.7-18.4 c-3.7-4.1-7.3-8.3-11-12.6c4.6-5.3,9.1-10.5,13.6-15.7c1.7-2,3.7-3.3,6.3-3.7c0.4-0.1,0.7-0.6,1-0.9c-0.1-0.1-0.2-0.2-0.3-0.3 c-5,0-10,0-15,0c-0.1,1.3-0.1,1.3,0.9,1.4c0.3,0,0.5,0.1,0.8,0.1c2,0.3,2.6,1.3,1.7,3.2c-0.5,1.1-1.2,2.1-1.9,3 c-3.7,4.2-7.5,8.3-11.2,12.5c-0.3,0.3-0.6,0.5-1,0.9c0-5.4-0.1-10.5,0.1-15.7c0.1-2.9,1-3.5,3.8-4c0.4-0.1,0.8-0.2,1.3-0.3 c0-0.5,0-0.9-0.1-1.3c-5.6,0-11,0-16.4,0c-0.1,1.4-0.1,1.4,1,1.6c3.3,0.6,4,1.4,4,4.7c0,11.2,0,22.3,0,33.5c0,3.5-0.7,4.3-4.1,4.9 c-1.1,0.2-1.2,0.6-0.8,1.5c5.2,0,10.3,0,15.4,0C248.2,151.5,248.4,151.4,248.7,151.4z M189.3,221.2c-0.3,0.5-0.5,0.7-0.7,1 c-2.4,3.4-4.8,6.8-7.4,10.1c-2.8,3.5-6.6,5.4-11.1,5.4c-3.3,0-6.6-0.3-9.8-0.7c-1.8-0.2-3.7-0.7-5.6-1c0.2,1.7,0.3,3.2,0.4,4.7 c0.2,0.1,0.2,0.1,0.2,0.1c0.1,0,0.3,0,0.4-0.1c3.9-1.5,7.4-0.7,10.5,1.9c2.1,1.7,4.1,3.6,6,5.6c2.4,2.5,4.5,5.1,6.8,7.7 c0.7,0.9,1.5,1.1,2.5,0.6c1.4-0.7,2.9-1.3,4.5-1.9c1.1-0.4,1.4-1,1.3-2.1c-0.3-2.7-0.7-5.3-0.7-8c0-4.2,0-8.4,0.4-12.6 c0.3-2.8,1.9-5.1,4.4-6.6c0.3-0.2,0.6-0.4,0.9-0.7C191.3,223.5,190.3,222.4,189.3,221.2z M420,126.2c0.4,0.1,0.7,0.2,0.8,0.1 c1.7-1,3.5-1.9,5-3.2c0.6-0.5,0.9-1.7,0.9-2.5c-0.1-2.4-1.4-4.1-3.4-5.5c-4.4-3-11.7-2.3-15.4,1.6c-1.8,1.9-2.4,4.2-2.1,6.8 c0.5,3.4,2.6,5.7,5,7.9c0.4,0.4,0.9,0.8,1.2,1.1c-1.6,1.5-3.3,2.7-4.6,4.3c-2.9,3.4-2.8,8.5,0,11.6c4.1,4.6,12.9,5,17.4,0.8 c3.6-3.4,4-8.8,0.9-12.8c-2.2-2.8-5-4.9-7.9-7c-1.9-1.3-3.7-2.7-5.4-4.3c-1.5-1.5-2.1-3.5-1.6-5.6c0.7-3,4-4.5,7.4-3.4 c3,0.9,4.6,4.1,3.3,7.1C421.3,124.1,420.6,125,420,126.2z M161.5,151c0.1,0.1,0.2,0.3,0.2,0.4c0.5,0,1.1,0,1.6,0 c7.1,0,14.2,0,21.2,0c2.1,0,2.1,0,2.5-2c0.5-2.5,1.1-5,1.6-7.6c-1.3-0.2-1.4-0.2-1.8,0.8c-1.5,4.5-4.6,6.5-9.3,6.4 c-1.8,0-3.5-0.1-5.3-0.2c-1.7-0.1-1.9-0.3-1.9-2c0-4.3,0-8.5,0-12.8c0-0.3,0.1-0.6,0.1-0.9c3.5-0.4,7.3,1,10.3-2.4 c-3.5,0-6.9,0-10.4,0c0-4.4,0-8.6,0-12.8c0-1,0.7-1.2,1.5-1.2c1.9,0,3.7,0,5.6,0c1.5,0,3,0.1,4.4,0.3c1.3,0.2,2.2,0.8,2.3,2.3 c0,1,0,2,0,3.5c0.7-0.5,1.3-0.7,1.4-1.1c0.7-2.4,1.3-4.8,2-7.3c-8.8,0-17.4,0-26,0c-0.1,0.1-0.2,0.2-0.2,0.3 c0.3,0.3,0.6,0.7,0.9,0.8c2.8,0.9,3.2,1.2,3.2,4.2c0,8.7,0,17.5,0,26.2c0,3-0.3,3.3-3.1,4.2C162,150.3,161.8,150.8,161.5,151z M301.3,114.5c-8.8,0-17.4,0-26.1,0c-0.1,0.1-0.1,0.3-0.2,0.4c0.4,0.3,0.7,0.7,1.1,0.8c2.5,0.7,2.9,1.2,3,3.8c0,9,0,18,0,27.1 c0,2.4-0.5,2.9-2.8,3.6c-0.4,0.1-0.8,0.6-1.1,0.9c0.4,0.2,0.8,0.4,1.3,0.4c7.6,0,15.2,0,22.8,0c0.3,0,0.6-0.1,1.1-0.1 c0.7-3.2,1.4-6.4,2-9.6c-1.4-0.1-1.4-0.1-1.8,1.1c-1.4,3.8-3.9,6.1-8.2,6.1c-2.1,0-4.2-0.1-6.4-0.1c-1.4,0-1.9-0.7-1.9-2 c0-4.3,0-8.5,0-12.8c0-0.3,0.1-0.6,0.1-1.1c1.9,0,3.7-0.1,5.4,0c2,0.1,3.3-1.2,4.7-2.4c-3.4,0-6.7,0-10.2,0c0-4.4,0-8.7,0.1-13 c0-0.4,0.8-0.9,1.3-1c1.3-0.1,2.6-0.1,3.9,0c2,0.1,4.1,0.1,6.1,0.3c1.4,0.1,2.3,0.9,2.4,2.4c0,1,0,2,0,3c0.1,0.1,0.2,0.2,0.4,0.3 c0.4-0.3,1-0.6,1.1-1C300.1,119.4,300.7,117,301.3,114.5z M382.8,130.8c0-4.5,0-8.7,0-13c0-1,0.7-1.1,1.4-1.1c1.7,0,3.4-0.1,5.1,0 c1.8,0.1,3.6,0.2,5.4,0.4c1,0.1,1.7,0.8,1.7,1.9c0,1.1,0,2.2,0,3.7c0.6-0.3,1.3-0.4,1.4-0.7c0.8-2.5,1.4-5,2.2-7.6 c-8.8,0-17.4,0-26,0c-0.1,0.1-0.2,0.2-0.3,0.3c0.3,0.3,0.5,0.7,0.9,0.8c2.9,0.9,3.2,1.2,3.2,4.3c0,8.6,0,17.2,0,25.8 c0,3.4-0.1,3.5-3.3,4.5c-0.3,0.1-0.5,0.6-0.9,0.9c0.4,0.2,0.4,0.2,0.5,0.2c8,0,15.9,0,23.9,0.1c0.8,0,1-0.5,1.1-1.1 c0.5-2.3,1-4.5,1.4-6.8c0.1-0.6,0.2-1.2,0.3-1.8c-1.3-0.1-1.3-0.1-1.7,1c-1.4,3.9-4,6.2-8.4,6.2c-2,0-4,0-6-0.1 c-1.9-0.1-2.1-0.3-2.1-2.3c0-4.1,0-8.1,0-12.2c0-0.4,0.1-0.8,0.1-1.3c3.5-0.4,7.4,1,10.3-2.4C389.7,130.8,386.3,130.8,382.8,130.8 z M338.7,135.2c2.4-0.2,4.7-0.2,6.9-0.5c3-0.5,5.8-1.8,7.4-4.6c3.6-6.4,0.4-13.7-6.7-15.3c-1.1-0.2-2.2-0.4-3.3-0.4 c-3.9,0-7.9,0-11.8,0c-0.4,0-0.9,0.3-1.3,0.5c0.4,0.3,0.8,0.7,1.2,0.8c2,0.6,2.4,1,2.6,3c0.1,1,0.1,1.9,0.1,2.9 c0,8.2,0,16.4-0.1,24.6c0,2.9-0.4,3.1-3.1,4c-0.3,0.1-0.6,0.6-0.8,0.8c0.1,0.1,0.2,0.2,0.3,0.3c4.2,0,8.5,0,12.7,0 c0.5-1.1-0.3-1.1-0.9-1.2c-1.6-0.3-3.1-0.8-3.1-2.7C338.6,143.4,338.7,139.3,338.7,135.2z M155.9,235.1c0,0.2,0,0.3,0,0.5 c3.7,0.5,7.4,1.3,11.2,1.6c6.3,0.5,11.5-1.9,15.2-7.1c1.9-2.6,3.8-5.3,5.6-7.9c0.3-0.4,0.4-0.8,0.6-1.2c-0.4,0-0.6,0.1-0.8,0.3 c-3.7,3.6-6.4,4-10.8,1.3c-2.3-1.4-4.4-3.2-6.6-4.8c-1.9-1.4-4.3-0.6-4.7,1.7c-0.4,2.7-0.7,5.4-1.3,8.1c-1.1,5.6-2.7,7-8.4,7.4 C156,235,156,235,155.9,235.1z M326.7,144.1c-0.1-0.1-0.2-0.2-0.2-0.3c-0.5,0.2-1.1,0.4-1.5,0.7c-1.2,1.2-2.2,2.5-3.4,3.7 c-0.3,0.3-0.8,0.6-1.3,0.6c-1.4,0.1-2.9,0.1-4.3,0c-1.8-0.1-2.2-0.5-2.2-2.3c0-8.9,0-17.8,0-26.6c0-3.1,0.4-3.5,3.4-4.2 c0.4-0.1,0.6-0.6,1-0.9c-0.1-0.1-0.2-0.2-0.3-0.3c-4.3,0-8.6,0-13,0c-0.1,0.1-0.2,0.2-0.2,0.4c0.3,0.3,0.6,0.8,1,0.9 c2.9,0.8,3.2,1.1,3.2,4.1c0,8.7,0,17.4,0,26.1c0,3.1-0.2,3.4-3.2,4.3c-0.4,0.1-0.6,0.5-0.9,0.8c0.1,0.1,0.2,0.3,0.3,0.4 c6.4,0,12.7,0,19.1,0c0.2,0,0.6-0.4,0.7-0.6C325.5,148.6,326.1,146.3,326.7,144.1z M213.1,144.1c-0.1-0.1-0.2-0.2-0.3-0.3 c-0.5,0.3-1.1,0.4-1.5,0.8c-1.2,1.2-2.2,2.5-3.4,3.7c-0.3,0.3-0.8,0.6-1.1,0.6c-1.5,0.1-3,0.1-4.4,0c-1.8-0.1-2.2-0.5-2.2-2.3 c0-8.8,0-17.7,0-26.5c0-3.2,0.8-4.1,3.4-4.4c0.3,0,0.6-0.6,0.9-0.9c-0.1-0.1-0.2-0.2-0.3-0.3c-4.3,0-8.6,0-12.9,0 c-0.1,0.1-0.2,0.2-0.3,0.3c0.3,0.3,0.6,0.8,1,0.9c2.8,0.8,3.1,1.2,3.1,4c0,8.7,0,17.5,0,26.2c0,3.1-0.2,3.3-3.2,4.3 c-0.3,0.1-0.5,0.5-0.8,0.7c0.3,0.2,0.5,0.5,0.8,0.5c6.1,0,12.1,0,18.2,0c0.3,0,0.8-0.3,0.9-0.6 C211.9,148.6,212.5,146.4,213.1,144.1z M149.9,115.3c0,0.4,0,0.9,0,1.4c0,9.2,0,18.3,0,27.5c0,1.2-0.1,2.3-0.2,3.5 c-0.1,1.2-0.8,1.9-1.9,2.2c-0.5,0.1-1.1,0.2-1.6,0.4c-0.3,0.1-0.6,0.5-0.8,0.8c0.1,0.1,0.2,0.2,0.2,0.3c4.5,0,9,0,13.5,0 c0.1-0.1,0.2-0.3,0.2-0.4c-0.4-0.3-0.7-0.7-1.1-0.7c-3-0.7-3.4-1.2-3.5-4.3c0-0.4,0-0.8,0-1.3c0-7.6,0-15.3,0-22.9 c0-0.5,0.1-1-0.2-1.3C153.1,118.7,151.5,117.1,149.9,115.3z M362.1,114.9c0,0.9,0,1.4,0,1.9c0,9.2,0,18.3,0,27.5 c0,1.2-0.1,2.3-0.2,3.5c-0.1,1.1-0.7,1.9-1.8,2.2c-0.6,0.1-1.2,0.2-1.8,0.4c-0.3,0.1-0.5,0.5-0.8,0.8c0.1,0.1,0.2,0.2,0.3,0.3 c4.5,0,9,0,13.5,0c0-1,0-1-1-1.2c-2.8-0.6-3.2-1-3.3-3.9c0-0.5,0-0.9,0-1.4c0-7.1,0-14.3,0-21.4c0-1.7,0.1-3.2-1.6-4.4 C364.1,118.2,363.3,116.5,362.1,114.9z M165.5,218.7c-4.9,1.4-10.9,10.6-10.3,15.4c4.4,0.8,7.3-1,8.4-5.3c0.2-0.9,0.4-1.8,0.6-2.7 C164.6,223.7,165,221.3,165.5,218.7z M187.6,220.1c-3.8-3.6-12.9-5.5-17.6-3.3c2.2,1.6,4.3,3.3,6.6,4.7c1.3,0.8,2.8,1.5,4.3,1.9 C183.4,224.1,186.4,222.5,187.6,220.1z M159.9,249.9c3,5.5,10.9,6.2,16.4,3.8c-1-1.2-2.1-2.4-3.1-3.6c-0.7-0.9-1.4-1.1-2.5-0.7 c-2.4,0.9-4.8,1.2-7.3,0.9C162.3,250.2,161.2,250.1,159.9,249.9z M195.8,235.4c-1.3,1.4-2.3,2.8-3.7,3.9c-1.3,1.1-2.9,1.9-4.4,2.9 c-0.3,0.2-0.6,0.7-0.6,1c0,1.8,0.2,3.7,0.3,5.5C193,247.1,197.4,240.1,195.8,235.4z M157.4,246.2c0.6,2.1,1.7,3,3.4,3.2 c0.8,0.1,1.7,0.2,2.5,0.3c2.8,0.3,5.6-0.2,8.6-1.1c-1.6-1.5-3-2.9-4.5-4.2c-0.3-0.2-1,0-1.5,0.1c-1.6,0.5-3.2,1.1-4.9,1.4 C159.9,246.2,158.7,246.2,157.4,246.2z M187.1,241.5c0.2,0,0.5,0,0.7-0.1c3.1-1.4,5.5-3.7,7.4-6.4c0.9-1.3,0.5-2.8,0-3.9 c-2.6,1.5-5,2.9-7.5,4.4c-0.3,0.2-0.6,0.5-0.6,0.8C187.1,237.9,187.1,239.7,187.1,241.5z M166.4,243.5c-2.5-2.1-5-3.2-8.1-3 c-2.8,0.2-3.2,0.9-2.2,3.4c0.2,0.6,0.8,1.4,1.2,1.4C160.5,245.6,163.5,245.2,166.4,243.5z M187.6,235c2-1.2,3.8-2.2,5.6-3.4 c1.7-1.2,1.9-2.5,0.8-4.3c-0.3-0.6-0.8-1.1-1.1-1.7C189.4,226.8,186.8,231.3,187.6,235z M151.5,110c1.2-1.1,2.2-2.1,3.2-3.1 c-1.1-1.1-2.1-2.1-3-3c-1.1,1-2.2,2-3.2,3C149.5,108,150.5,109,151.5,110z M366.9,107.1c-1.2-1.2-2.2-2.2-3.3-3.3c-1,1-2,2-3,3 c1.1,1.1,2.2,2.2,3.2,3.3C364.9,109,366,108,366.9,107.1z M179,257.2c-0.7-1.5-1.5-2.5-3.1-2.4c-2.6,0.3-5.2,0.7-8.2,1.1 C171.6,257.4,175.2,257.9,179,257.2z M188.2,253.2c2.9-2.2,4.9-4.9,6.3-8.3c-2,1.4-3.8,2.6-5.6,3.9 C187.6,249.8,187.4,251.3,188.2,253.2z"/><path class="st0" d="M142.2,343.7c1.5,0.4,2.8,0.8,4.2,1.1c-0.2-3.2-0.6-6.2-0.6-9.2c0-3,0.2-6.1,0.6-9.1c0.4-2.7,1.6-5.2,3.2-7.4 c5-7,8.2-14.9,9.3-23.4c0.6-4.7,2.7-8.2,5.6-11.4c3.3-3.6,7.1-6.5,11.7-8.1c0.6-0.2,1.2-0.3,2-0.3c-0.4,0.4-0.8,0.9-1.2,1.3 c-0.7,0.8-1.4,1.8-0.8,2.9c0.7,1.1,1.9,1.6,3.1,1.4c1.3-0.2,2.6-0.7,3.9-1.1c3.9-1.2,7.7-2.6,11.6-3.6c3.2-0.8,6.6-0.6,10.2,0 c-0.5,0.3-0.8,0.5-1.1,0.7c-1.9,1.1-3.9,2.2-5.7,3.4c-2.4,1.6-4.2,3.6-5.6,6.2c-4.4,8.5-10.7,15-19.8,18.6c-0.1,0-0.2,0.1-0.3,0.1 c-2.7,0.3-3.8,2.2-4.8,4.5c-4.5,11.3-4.7,22.5,0.8,33.4c1.7,3.4,4.3,6.5,6.9,9.3c10.3,11.3,23.1,18.6,37.7,22.6 c23.1,6.3,45.9,5.1,67.9-4.9c4.6-2.1,8.8-4.6,12.7-7.8c9.3-7.7,12.1-17.2,8.4-28.7c-2-6.3-7.6-16.7-11.8-22 c-3.2,2-6.9,1.9-10.4,1.6c-4.1-0.3-8.2-1.1-12.3-1.8c-3.1-0.5-6.2-0.9-9.3-0.4c-0.9,0.2-1.8,0.6-2.9,1c1.9,3.6,3.6,6.9,5.4,10.3 c0.4,0.8,0.9,0.7,1.6,0.4c1.7-0.8,3.4-1.5,5.2-2.2c0.5-0.2,1.1-0.1,1.6-0.1c0.4,1.5,0.7,3,1.2,4.4c0.3,0.9,0.7,1.8,1.3,2.6 c0.9,1.1,2.2,1.4,3.6,0.6c0.2,2.6,0.4,5.1,0.6,7.5c1.3,0.3,1.7,0,1.7-1.1c-0.1-2.3,0-4.5,0-7c2.6,0.7,4.6,1.7,5.5,3.9 c0.8,1.7,1.3,3.6,1.6,5.4c0.3,2.3,0.3,4.7,0.2,7c-0.1,1.7-0.9,1.9-2.4,1c-1.6-0.9-3.3-1.5-5-2.1c-0.3-0.1-1,0.5-1.4,0.9 c-0.2,0.2-0.2,0.7-0.4,1.3c-0.3-0.5-0.4-0.8-0.6-1c-1.2-2-2.3-4.1-3.7-5.9c-0.6-0.7-1.9-0.9-3-1.2c-1.1-0.3-2.2-0.4-3.3-0.4 c-3.2,0-5.5-1.4-7-4.2c-1.6-3.2-3.4-6.4-5-9.6c-1.8-3.5-3.9-6.7-6.6-9.5c-1.2-1.2-1.7-2.6-1.6-4.3c0.1-1.3-0.1-2.6,0-3.9 c0.1-2,1.2-3.2,3.2-3.4c1.2-0.1,2.5-0.2,3.7-0.1c3.9,0.3,7.7-0.6,11.5-1.4c0.4-0.1,0.8-0.2,1.2-0.4c1.7-0.7,1.6-1.2,0.6-2.7 c-2.1-3.1-4.6-6-5.4-9.8c-0.1-0.3-0.3-0.7-0.5-1c-1.2,4.2,1.4,7.4,3.3,11.2c-3.4-0.3-6.6,1.3-9.5-0.7c-0.8-0.5-1.4-1.4-1.9-2.2 c-3.5-5.5-8.6-8.9-14.3-11.6c-1.1-0.5-1.7-0.2-2,0.8c-1.3,3.3-2.6,6.6-3.8,10c-0.4,1-0.5,2-0.8,3.2c2.6,0.3,4.3,1.6,5.8,3.4 c0.5,0.7,0.5,1.1,0.2,1.8c-0.6,1.1-1.2,2.3-1.6,3.5c-0.3,0.9-0.2,1.9,0,2.8c0.2,0.8,0.1,1.3-0.6,1.8c-0.7,0.5-1.4,1.1-2,1.7 c-0.4,0.4-0.8,1.1-0.7,1.5c0.3,0.9,1.1,0.3,1.6,0.1c1.5-0.6,3-1.2,4.6-1.9c0.4,1.6,0.8,3.1,1.1,4.5c0.3,1.5-0.3,2.9-1.3,3.9 c-2.2,2.4-4.7,4.6-7.9,5.7c-1.4,0.5-1.8,0.3-2.2-1.1c-0.4-1.4-0.9-2.7-1.2-4.1c-0.6-2.2-1.3-2.6-3.4-1.9c-0.4,0.2-0.8,0.3-1.6,0.6 c0.3-0.4,0.4-0.5,0.5-0.6c3.8-3,4.5-7.6,1.5-11.5c-1.8-2.3-2.6-4.7-2.6-7.5c0-0.7,0.3-1.4,0.5-2.1c1.3-3.6,2.6-7.2,3.9-10.8 c0.2-0.6,0.3-1.3,0.6-1.9c1.4-3.3,1.8-6.7,1.7-10.2c0-1.6,1-2.5,2.1-3.4c1.3-0.9,2.4-1.9,3.8-2.5c0.7-0.3,1.8-0.1,2.5,0.3 c1.2,0.8,2.3,1.8,3.4,2.8c0.7,0.6,1.4,1.2,2.1,1.8c4.8,3.4,10.4,4.9,16,6.2c0.2,0,0.4,0,0.4,0c0.3-2.3,0.1-4.7,0.8-6.7 c2.5-6.9,2.7-14.2,3.8-21.4c0.7-4.6,1.9-9.1,3.5-13.5c0.9-2.4,2.1-4,4.1-5.6c3.3-2.6,5-6.3,5.4-10.6c0-0.3-0.2-0.7-0.6-1 c-0.2,0.5-0.5,1-0.7,1.5c-0.8,3.6-2.7,6.5-5.8,8.6c-1.8,1.2-3.7,1.6-5.6,0.8c-1.9-0.8-3.2-0.5-4.9,0.6c-3,1.9-4.8,4.8-6.3,7.8 c-1.6,3.2-4.3,4.3-7.9,3.2c-0.9-0.3-1.8-0.6-2.9-1c0.8-1,1.5-1.9,2.3-2.8c1-1.3,2.1-2.6,3.1-3.9c0.2-0.3,0.1-0.8,0.2-1.2 c-0.4,0-0.8-0.2-1.1,0c-2.1,0.7-4.2,1.5-6.4,2.3c-0.5,0.2-0.9,0.4-1.4,0.5c-2.2,0.6-2.2,0.6-3-1.5c-0.3-0.6-0.6-1.3-1-1.8 c-2.5-3.2-1.5-8.3,1.9-10.5c2.4-1.5,3.6-4,5.3-6.2c2.6-3.4,5.1-6.9,7.8-10.2c2.3-2.9,4.8-5.6,7.1-8.5c0.2-0.3,0.3-0.8,0.3-1.2 c-0.1-0.9-0.4-1.8-0.4-2.7c-0.1-1.4,0.6-2.6,1.9-3.1c1.9-0.7,3.9-1.3,5.8-1.9c0.1,0.2,0.3,0.3,0.4,0.5c-0.8,1.1-1.6,2.2-2.5,3.3 c-1.2,1.4-1.2,4,0.3,5.4c0.2-0.5,0.5-0.9,0.4-1.2c-0.4-2.1,0.9-3.5,1.8-5.1c1.4-2.3,2.1-4.7,2-7.4c-0.1-1.3-0.1-2.6-0.2-4.2 c0.3,0.5,0.6,0.7,0.6,0.9c1.1,4,2.1,8.1,3.2,12.2c0.3,1.2,0.1,2.2-1.3,2.9c0.6,0.1,1.2,0.3,1.8,0.3c9.6,1.5,17.2,6.3,23.3,13.7 c5.7,6.9,8.7,15,10.3,23.6c0.9,4.9,1.7,9.8,2.5,14.8c0.2,1.4,1.1,2.2,2.1,2.9c0.4,0.3,0.8,0.5,1.5,0.9c0-0.5,0-0.9,0-1.3 c-1.5-10.3-3.5-20.5-7.2-30.3c-3.7-9.8-10.1-17.1-19.1-22.2c-3.2-1.8-6.5-3.2-10.1-4c-0.4-0.1-0.8-0.6-0.9-1 c-0.7-2.5-1.3-4.9-1.8-7.4c-0.1-0.4,0.4-1.1,0.8-1.3c2.9-1,5.7-1.9,9-2.9c-1.1,1.5-2.1,2.8-3.1,4.1c0,0.1,0.1,0.2,0.1,0.2 c0.8-0.3,1.5-0.7,2.3-1.1c2.3-1.2,4.5-2.1,7.2-2.1c1.4,0,2.8-0.7,4.2-1.1c0.4,1.1-0.2,2-1,2.8c-0.9,1-2,1.9-3,2.9 c-0.6,0.7-1.2,1.4-1.8,2.2c0.1,0.1,0.2,0.2,0.3,0.3c1.3-0.6,2.6-1.1,3.8-1.8c3.7-2,7.5-3.5,11.7-4.3c1.6-0.3,3.2-0.3,4.7-0.5 c1-0.1,1.9-0.4,2.9-0.6c0.3,1.5-0.8,3-2.9,3.6c-1.5,0.4-2.5,1.3-3.4,2.5c-1.3,1.9-2.9,3.6-5.1,4.5c-0.5,0.2-0.9,0.7-1.4,1.1 c0,0.1,0.1,0.2,0.1,0.3c1-0.3,2-0.6,3-0.8c2-0.6,4.1-1.1,6.1-1.6c0.5-0.1,1.1,0,2,0c-1.5,2.2-3.9,3.2-4.7,5.7 c3,0.3,5.6-0.5,7.8-2.2c2-1.6,4.3-2,6.7-2.2c1.1-0.1,2.2-0.4,3.2-0.5c0.5,0,0.9,0.1,1.4,0.2c-0.1,0.4,0,1-0.3,1.2 c-1.3,1.1-2.6,2.3-4.1,3.2c-1.4,0.8-2.8,1.4-3.6,3c-0.4,0.8-1.4,1.3-2.1,2c-0.7,0.6-1.4,1.1-2.2,1.8c1.7,0.4,1.7,0.4,1.1,2.6 c2.4,0.4,4.7,1,7-0.2c0.3-0.2,0.7-0.3,1-0.5c3.3-2.4,7.1-2.5,11.3-2.2c-0.6,0.7-1.1,1.5-1.6,2.1c-0.3,0.3-0.8,0.5-1.2,0.7 c-3.3,1.2-6.1,3.2-8.6,5.6c-0.8,0.8-2.1,1.1-3.2,1.7c-0.8,0.4-1.7,0.7-2.5,1.1c0,0.1,0,0.2,0,0.3c0.9,0.1,1.9,0.4,2.8,0.3 c1.3-0.1,2.7-0.3,3.9-0.8c2.8-1.1,5.6-2,8.7-1.6c0.5,0.1,1.1-0.1,1.6-0.1c0.3,0,0.7,0.1,0.8,0.3c0.1,0.2,0.1,0.7-0.1,0.8 c-0.5,0.6-1.1,1.2-1.8,1.6c-0.7,0.4-1.5,0.5-2.3,0.6c-1.9,0.3-3.6,1-4.7,2.8c-0.9,1.5-2.5,2.1-4.2,2.5c-1.1,0.3-2.2,0.8-3.2,1.4 c2.5,1.4,5.1-0.5,7.7,0.6c-2.3,1.5-4.4,3-6.7,4.5c1.3,0.6,2.4,1.1,3.9,0.7c2.7-0.7,5.4-1.6,8.3-1c0.5,0.1,1.1-0.2,1.6-0.2 c0.5,0,1,0.3,1.8,0.5c-0.5,0.5-0.7,0.7-1,0.9c-0.8,0.4-1.6,0.8-2.3,1.2c-2.1,1.2-4.2,2.2-6.2,3.5c-1.3,0.9-2.7,1.1-4.1,1.3 c-0.5,0.1-1,0.2-1.5,0.5c2,1.1,4.1,1.4,6,0.6c2.4-1,4.5,0.1,6.7,0.6c0,0.1,0.1,0.3,0.1,0.4c-0.7,0.4-1.4,1-2.2,1.1 c-2,0.3-3.5,1.4-5.1,2.4c-1.6,1-3.2,1.3-5,1.2c-0.6,0-1.2,0.2-1.8,0.5c2.2,1.6,4.9,0,7.4,1.3c-1,1-2,2-3,3c-2,1.8-2.9,5.2-2,7.6 c0.3,1,0.9,1.7,1.9,2c4,1.1,8,2.4,12,3.4c1.9,0.5,3.9,0.4,6.1,0.7c-2.1,4.7-6,7-10.2,9.2c0,0.2,0.1,0.3,0.1,0.5 c2.2,0.2,4.3,0.5,6.5,0.6c4.1,0.2,8.1,0.8,11.9,2.3c2.5,1,4.8,2.4,6.6,4.4c0.7,0.8,1.2,1.7,2,2.8c-5.7-1.5-10.9-2.5-16.2,0.4 c0.5,1,0.9,2,1.5,2.8c0.3,0.4,1.1,0.6,1.7,0.6c5.1,0.5,10.2,1.4,14.9,3.4c2.6,1.1,5.1,2.5,7,4.6c0.9,0.9,1.5,2,2.2,3.2 c-6-1.3-11.9-2.3-18.1-0.6c2.4,0.9,4.6,1.7,6.8,2.7c3.7,1.6,7,3.7,9.8,6.6c1.9,1.9,3.3,4.1,4.1,6.7c0.1,0.4,0.2,0.9,0.3,1.3 c-2.1-0.4-4.1-0.9-6.1-1.1c-1.5-0.2-3-0.1-4.6-0.2c-0.7,0-1.1,0.3-0.9,1c0.4,2.1,0.7,4.2,1.3,6.2c0.5,1.6,1.9,2.6,3.5,3.4 c3.6,1.6,6.8,3.8,9.2,7c2.1,2.6,3.3,5.6,2.4,9c0,0.2-0.1,0.3-0.3,0.6c-0.5-0.3-0.9-0.6-1.3-0.9c-2.9-2-6-3.4-9.6-3.6 c-0.9,0-1.3,0.2-1.4,1.2c-0.6,4.1-0.1,7.9,2.3,11.4c1.2,1.8,2.3,3.6,3.2,5.5c1.1,2.3,1.1,4.8,0.2,7.3c-0.2-0.1-0.3-0.1-0.4-0.2 c-2.6-2.9-5.9-4-9.7-3.8c-1.9,0.1-3.3,0.7-4.1,2.4c-0.8,1.8-0.7,3.5,0.3,5.1c0.7,1,1.4,1.9,2,3c1.5,2.5,2.4,5.1,2.1,8 c0,0.3-0.1,0.6-0.1,0.8c0,0.1-0.1,0.1-0.3,0.4c-0.4-0.3-0.8-0.6-1.3-0.9c-2.9-2-6-3.8-9.7-3.5c-1.6,0.1-3.2,1-4.8,1.6 c-0.9,0.3-0.7,1-0.4,1.7c1.2,3.3,1.6,6.7,0.7,10.2c-0.6,2.5-1.9,4.6-3.9,6.5c-0.7-3.8-2.1-7.1-5.5-9.3c-0.3,0.5-0.6,0.9-0.9,1.4 c-2,3.5-3.3,7.2-4.2,11.1c-1,4.1-3.1,7.4-6.9,9.5c-0.4,0.2-0.8,0.4-1.3,0.7c-0.6-3.8-0.8-7.6-2.3-11.3c-2.8,2-5.7,3.4-7.1,6.8 c-2.5,5.9-6.4,10.3-12.7,12.3c-0.5,0.2-1,0.3-1.7,0.5c1.3-3.2,2-6.4,0.8-9.8c-0.4,0.1-0.7,0.1-1,0.3c-4.5,1.8-8.4,4.3-11.6,8.1 c-2.5,3.1-6,4.8-10,6c1.2-3,2.5-5.8,2.2-9c-2.7,0.4-5,1.5-7,3.1c-3.9,3-8.1,5.3-12.9,6.4c-1.5,0.3-3,0.5-4.8,0.8 c1.9-2.7,3.7-5,4-8.2c-3-0.2-5.9,0.3-8.6,1.5c-3,1.3-6,2.3-9.3,2.4c-0.7,0-1.3,0-2.2,0c1-1.6,1.9-2.9,2.8-4.3 c-6.7-1.9-13.6-0.5-20.3-1.6c1.1-0.4,2.1-0.8,3.5-1.3c-2.4-0.6-4.6-1.2-6.7-1.8c-15.1-4.4-28.9-11.2-40.6-21.8 c-4.6-4.2-8.6-8.9-12.1-14.1c-3.3-4.7-6.8-9.3-10.4-13.9c-2.9-3.7-5.5-7.4-6.4-12.1C142.3,344.6,142.3,344.2,142.2,343.7z M249,212.9c1.3,0.4,2.5,0.7,3.8,1.1c1,0.3,2.8-0.3,3.2-1.1c0.4-0.7-0.3-2.8-1.2-3.2c-0.7-0.3-1.7-0.4-2.2-0.1 C251.2,210.7,250,211.9,249,212.9z M238.1,232c1.5-0.4,2.2-1.3,2.1-2.4c-0.2-1.2-1.3-2.3-2.6-2.2c-0.8,0-1.8,0.2-2,1.4 C237.5,228.7,238.2,229.7,238.1,232z"/><path class="st0" d="M140.6,225.4c-0.5,0.3-1.1,0.6-1.5,1c-4.3,3.7-8.4,7.5-12.8,11.1c-2.4,2-4.9,3.7-7.6,5.4 c-1.8,1.2-4,1.5-6.1,1.3c-0.3,0-0.7-0.1-1.1-0.2c0.2-0.2,0.2-0.4,0.3-0.4c5.4-2.3,9.7-6.2,14.2-9.8c3.9-3.1,7.8-6,11.8-9 c-0.8,0.4-1.7,0.8-2.4,1.3c-5.9,4.2-11.8,8.5-17.7,12.7c-3.6,2.6-7.4,4.9-11.9,5.8c-2.3,0.5-5.2,0.3-6.7-0.5 c0.3-0.1,0.4-0.2,0.6-0.3c6.3-1.5,11.8-4.6,17.1-8.1c5.1-3.4,10.2-6.7,15-9.9c-0.2,0.1-0.7,0.2-1.1,0.5c-4.7,2.7-9.4,5.4-14.1,8.1 c-5.4,3.1-10.6,6.5-16.4,8.6c-3.2,1.1-6.5,2.2-9.9,1.5c-1.5-0.3-2.9-1.1-4.4-1.7c0-0.2,0.1-0.3,0.1-0.5c1.8,0,3.5,0.2,5.2,0 c5.8-0.9,11-3.4,15.9-6.3c7.3-4.3,14.5-9,21.8-13.3c2.6-1.5,5.4-2.7,8.2-3.6c3.9-1.2,7.3,0.2,9.1,3.9c1,2,1.7,4.3,2.4,6.5 c0.9,2.8,2,5.4,4.9,6.8c0.3,0.1,0.5,0.5,0.6,0.9c0.5,2.4-0.3,4.3-2.1,5.8c-0.3,0.2-0.7,0.3-1,0.3c-2.9,0-5-1.6-5.5-4.5 c-0.3-2.2-0.4-4.4-0.8-6.6c-0.2,1.9-0.3,3.9-0.5,5.8c-0.6,4.9-2.3,6.6-7.2,7.1c-1.4,0.1-2.8,0-4.4-0.2c5.6-4.2,7.2-10.8,11.1-16 c-0.1-0.1-0.2-0.1-0.3-0.2c-0.4,0.4-0.8,0.9-1.1,1.3c-1.9,2.9-3.6,5.9-5.6,8.7c-1.4,1.9-3,3.7-4.9,5.2c-1.9,1.5-4.4,1.9-6.9,1.3 c0.1-0.2,0.1-0.3,0.2-0.3c4.6-2.5,7.8-6.6,11-10.7c2-2.5,4.2-4.8,6.2-7.3c-0.5,0.4-1,0.7-1.4,1.1c-4.4,4.6-8.8,9.2-13.3,13.8 c-2.2,2.3-4.9,3.5-8.1,3.3c-0.4,0-0.7-0.1-1.4-0.2c0.6-0.4,0.9-0.6,1.2-0.8c2.6-1.9,5.4-3.5,7.8-5.7c4.6-4.1,8.4-9,13.6-12.4 C140.7,225.7,140.6,225.6,140.6,225.4z"/><path class="st0" d="M220.9,201.9c-0.8,1.7-2,2.9-3.6,3.4c-2.3,0.6-4.7,1.2-7,1.2c-4.2,0.1-8.5-0.3-12.8-0.5 c-1.8-0.1-3.5,0-5.3,0.1c-0.3,0-0.7,0.2-1,0.4c8.4-0.6,16.7,2.5,25.1,0.5c-1.7,2.7-4.1,4.3-7.2,4.1c-3.4-0.2-6.8-0.9-10.1-1.4 c-1.9-0.3-3.8-0.8-5.7-1.2c-0.5-0.1-0.9-0.1-1.5,0.1c6.2,1.4,12.2,4.3,19.2,3.3c-2,2.6-3.9,4.8-6.8,5.7c-2,0.6-3.8,0.1-5.3-1.2 c-1.8-1.4-3.5-2.9-5.4-4.2c0.4,0.5,0.8,1.1,1.3,1.6c1,1.2,2.1,2.2,2.9,3.5c1.7,2.6,0.9,4.9-1,7c-0.1,0.2-0.4,0.3-0.6,0.3 c-3.2,0.6-6.2-2.2-5.7-5.5c0.3-1.6,0.1-3.1-0.7-4.6c-0.8-1.5-1.7-3-2.4-4.5c-0.7-1.6-1.4-3.2-1.7-4.9c-0.6-3.8,1.1-7,5-8.5 c4.3-1.6,8.7-3,13.2-4.2c7.9-2.1,15.9-4.1,23.9-6.2c1.6-0.4,3.1-1.1,4.6-1.8c3.7-1.7,7.4-3.7,9.6-7.4c0.1,0.1,0.3,0.1,0.4,0.2 c-0.3,1.1-0.6,2.3-1.1,3.4c-1.2,2.5-3.3,4.1-5.6,5.4c-4.7,2.8-9.9,4.4-15.1,5.8c-6.6,1.8-13.1,3.5-19.7,5.2 c-0.8,0.2-1.6,0.5-2.3,0.9c4.1-0.9,8.2-1.7,12.3-2.7c4.8-1.1,9.6-2.1,14.2-3.5c2.7-0.8,5.2-2.4,7.8-3.6c0.4-0.2,0.7-0.4,1-0.5 c0.1,0.1,0.2,0.2,0.4,0.4c-1.1,1.3-2.1,2.7-3.4,3.8c-3.4,2.9-7.5,4.2-11.8,4.9c-7,1.2-14,2.2-20.9,3.4c-1.7,0.3-3.4,0.9-5,1.6 c2.2-0.5,4.3-1.1,6.5-1.3c4.6-0.5,9.2-0.9,13.8-1.3c3.7-0.3,7.3-1.2,10.7-2.6c0.2-0.1,0.4-0.2,0.7-0.2c0.1,0,0.2,0.1,0.4,0.1 c-1.8,2.8-4.3,4.5-7.5,4.9c-6.3,0.8-12.6,1.3-18.9,2c-2,0.2-4,0.3-5.9,0.5c-0.4,0-0.9,0.2-1.2,0.6c0.7-0.1,1.4-0.3,2.2-0.3 c3.4-0.2,6.7-0.4,10.1-0.4c5.5,0.1,11,0.1,16.3-1.9C220.5,201.9,220.6,201.9,220.9,201.9z"/><path class="st0" d="M158,161.1c-3.2,0-6.4,0-9.7,0c-0.5,0-1.1-0.5-1.5-0.8c-11.5-8.5-21.8-18.2-31-29.1c-0.3-0.4-0.6-0.7-0.9-1.1 c-1.1,0.4-1.6,1.2-1.6,2.4c0.1,3.7,0,7.4,0,11.1c0,0.4,0,0.8,0,1.3c0.1,3.6,0.7,4.3,4.2,5c0.9,0.2,1.2,0.5,0.9,1.4 c-5.4,0-10.8,0-16.2,0c-0.3-0.9-0.2-1.3,0.9-1.4c3.4-0.5,4.1-1.3,4.1-4.8c0-11.2,0-22.3,0-33.5c0-3.4-0.7-4.2-4.1-4.8 c-0.9-0.2-1.3-0.6-0.9-1.6c5.4,0,10.8,0,16.4,0c0,0.4,0,0.8,0.1,1.2c-0.2,0.1-0.3,0.2-0.4,0.2c-3.9,0.4-4.9,1.1-4.9,6.1 c0,4.1,0,8.2,0,12.4c0,0.4,0,0.8,0,1.6c2.3-2.4,4.4-4.4,6.3-6.6c2.4-2.7,4.7-5.6,7-8.4c0.3-0.3,0.5-0.7,0.7-1.1 c1.3-2.4,0.8-3.5-1.9-3.9c-0.4-0.1-0.8-0.1-1.3-0.2c0-0.4,0-0.8,0-1.3c5,0,10,0,15,0c0.3,0.8,0.1,1.2-0.7,1.3 c-2.5,0.3-4.5,1.6-6.1,3.5c-4.5,5.2-9.1,10.5-13.7,15.8c7.2,8.7,14.4,17.2,23.3,24.3c3.3,2.6,6.4,5.4,9.8,7.7 c1.5,1,3.6,1.3,5.4,1.8C158.2,160,158.2,159.8,158,161.1z"/><path class="st0" d="M248.7,151.4c-0.3,0-0.5,0.1-0.7,0.1c-5.1,0-10.3,0-15.4,0c-0.4-0.9-0.3-1.3,0.8-1.5c3.4-0.5,4.1-1.3,4.1-4.9 c0-11.2,0-22.3,0-33.5c0-3.3-0.8-4.1-4-4.7c-1.1-0.2-1.1-0.2-1-1.6c5.4,0,10.9,0,16.4,0c0,0.4,0,0.8,0.1,1.3 c-0.5,0.1-0.9,0.2-1.3,0.3c-2.8,0.4-3.7,1.1-3.8,4c-0.2,5.2-0.1,10.3-0.1,15.7c0.4-0.4,0.7-0.6,1-0.9c3.7-4.2,7.5-8.3,11.2-12.5 c0.8-0.9,1.4-2,1.9-3c0.9-1.9,0.3-2.9-1.7-3.2c-0.3,0-0.5-0.1-0.8-0.1c-1-0.2-1-0.2-0.9-1.4c5,0,10,0,15,0 c0.1,0.1,0.2,0.2,0.3,0.3c-0.3,0.3-0.6,0.9-1,0.9c-2.6,0.4-4.6,1.8-6.3,3.7c-4.5,5.2-9,10.4-13.6,15.7c3.7,4.2,7.3,8.4,11,12.6 c6.2,7,13.5,12.6,20.7,18.4c2.1,1.7,4.3,2.8,7,2.8c1,0,1,0.5,0.8,1.4c-3.3,0-6.5,0-9.8,0c-0.5,0-1-0.5-1.4-0.8 c-11.5-8.5-21.9-18.2-31.1-29.2c-0.3-0.3-0.6-0.6-0.9-1c-1.1,0.4-1.6,1.1-1.6,2.4c0.1,3.7,0,7.5,0,11.2c0,0.4,0,0.7,0,1.1 c0.1,3.6,0.7,4.4,4.2,5C248.7,150.1,249.1,150.3,248.7,151.4z"/><path class="st0" d="M189.3,221.2c1.1,1.2,2,2.3,3,3.4c-0.3,0.3-0.6,0.5-0.9,0.7c-2.5,1.5-4.1,3.7-4.4,6.6 c-0.4,4.2-0.4,8.4-0.4,12.6c0,2.7,0.4,5.3,0.7,8c0.1,1.1-0.3,1.7-1.3,2.1c-1.5,0.5-3,1.2-4.5,1.9c-1.1,0.5-1.8,0.2-2.5-0.6 c-2.2-2.6-4.4-5.2-6.8-7.7c-1.9-2-3.9-3.9-6-5.6c-3.1-2.6-6.6-3.4-10.5-1.9c-0.1,0-0.3,0.1-0.4,0.1c0,0-0.1,0-0.2-0.1 c-0.1-1.4-0.3-2.9-0.4-4.7c2,0.4,3.8,0.8,5.6,1c3.3,0.3,6.5,0.7,9.8,0.7c4.5,0,8.3-2,11.1-5.4c2.6-3.2,4.9-6.7,7.4-10.1 C188.8,221.9,189,221.7,189.3,221.2z"/><path class="st0" d="M420,126.2c0.7-1.2,1.3-2.1,1.7-3.1c1.2-3-0.3-6.2-3.3-7.1c-3.4-1.1-6.7,0.4-7.4,3.4 c-0.5,2.1,0.1,4.1,1.6,5.6c1.7,1.6,3.5,3,5.4,4.3c2.9,2,5.7,4.1,7.9,7c3.1,4,2.7,9.5-0.9,12.8c-4.5,4.2-13.3,3.8-17.4-0.8 c-2.7-3.1-2.8-8.2,0-11.6c1.3-1.5,2.9-2.8,4.6-4.3c-0.4-0.3-0.8-0.7-1.2-1.1c-2.4-2.1-4.6-4.5-5-7.9c-0.4-2.6,0.3-4.9,2.1-6.8 c3.7-3.9,11-4.6,15.4-1.6c1.9,1.3,3.2,3.1,3.4,5.5c0,0.8-0.3,2.1-0.9,2.5c-1.5,1.2-3.3,2.2-5,3.2 C420.7,126.4,420.4,126.3,420,126.2z M422.8,144c0-2.5-1.2-4.3-3-5.8c-1.4-1.2-3-2.2-4.4-3.3c-0.6-0.5-1-0.3-1.6,0.1 c-3.4,2.7-4.3,8.5-1.8,12.1c1.6,2.3,4.5,3.2,7.4,2.3C421.6,148.6,422.8,146.6,422.8,144z"/><path class="st0" d="M161.5,151c0.3-0.3,0.6-0.7,0.9-0.8c2.9-0.9,3.1-1.2,3.1-4.2c0-8.7,0-17.5,0-26.2c0-3-0.3-3.3-3.2-4.2 c-0.4-0.1-0.6-0.5-0.9-0.8c0.1-0.1,0.2-0.2,0.2-0.3c8.6,0,17.3,0,26,0c-0.7,2.5-1.3,4.9-2,7.3c-0.1,0.4-0.7,0.6-1.4,1.1 c0-1.5,0-2.5,0-3.5c0-1.5-0.9-2.2-2.3-2.3c-1.5-0.2-3-0.3-4.4-0.3c-1.9,0-3.7,0-5.6,0c-0.8,0-1.5,0.2-1.5,1.2c0,4.2,0,8.4,0,12.8 c3.5,0,6.9,0,10.4,0c-2.9,3.4-6.7,2-10.3,2.4c-0.1,0.3-0.1,0.6-0.1,0.9c0,4.3,0,8.5,0,12.8c0,1.7,0.2,1.9,1.9,2 c1.8,0.1,3.5,0.1,5.3,0.2c4.6,0.1,7.8-2,9.3-6.4c0.4-1.1,0.4-1,1.8-0.8c-0.5,2.5-1.1,5-1.6,7.6c-0.4,2-0.5,2-2.5,2 c-7.1,0-14.2,0-21.2,0c-0.5,0-1.1,0-1.6,0C161.6,151.3,161.5,151.2,161.5,151z"/><path class="st0" d="M301.3,114.5c-0.7,2.5-1.3,4.9-2,7.2c-0.1,0.4-0.7,0.6-1.1,1c-0.1-0.1-0.2-0.2-0.4-0.3c0-1,0-2,0-3 c0-1.5-1-2.3-2.4-2.4c-2-0.2-4.1-0.2-6.1-0.3c-1.3,0-2.6-0.1-3.9,0c-0.5,0.1-1.3,0.6-1.3,1c-0.1,4.3-0.1,8.6-0.1,13 c3.5,0,6.8,0,10.2,0c-1.4,1.2-2.6,2.5-4.7,2.4c-1.8-0.1-3.6,0-5.4,0c0,0.5-0.1,0.8-0.1,1.1c0,4.3,0,8.5,0,12.8c0,1.3,0.4,2,1.9,2 c2.1,0,4.2,0.1,6.4,0.1c4.2,0,6.7-2.4,8.2-6.1c0.5-1.2,0.5-1.2,1.8-1.1c-0.7,3.2-1.4,6.4-2,9.6c-0.4,0-0.8,0.1-1.1,0.1 c-7.6,0-15.2,0-22.8,0c-0.4,0-0.8-0.3-1.3-0.4c0.4-0.3,0.7-0.7,1.1-0.9c2.3-0.7,2.8-1.2,2.8-3.6c0-9,0-18,0-27.1 c0-2.6-0.5-3.1-3-3.8c-0.4-0.1-0.8-0.5-1.1-0.8c0.1-0.1,0.1-0.3,0.2-0.4C283.9,114.5,292.5,114.5,301.3,114.5z"/><path class="st0" d="M382.8,130.8c3.6,0,6.9,0,10.3,0c-2.9,3.3-6.7,2-10.3,2.4c0,0.5-0.1,0.8-0.1,1.3c0,4.1,0,8.1,0,12.2 c0,2,0.2,2.2,2.1,2.3c2,0.1,4,0.1,6,0.1c4.3,0,6.9-2.3,8.4-6.2c0.4-1.1,0.4-1.1,1.7-1c-0.1,0.6-0.2,1.2-0.3,1.8 c-0.5,2.3-1,4.5-1.4,6.8c-0.1,0.6-0.3,1.1-1.1,1.1c-8,0-15.9,0-23.9-0.1c0,0-0.1,0-0.5-0.2c0.3-0.4,0.5-0.8,0.9-0.9 c3.1-1.1,3.3-1.1,3.3-4.5c0-8.6,0-17.2,0-25.8c0-3.1-0.3-3.4-3.2-4.3c-0.4-0.1-0.6-0.6-0.9-0.8c0.1-0.1,0.2-0.2,0.3-0.3 c8.6,0,17.2,0,26,0c-0.7,2.6-1.4,5.1-2.2,7.6c-0.1,0.3-0.7,0.4-1.4,0.7c0-1.5,0-2.6,0-3.7c0-1.1-0.7-1.7-1.7-1.9 c-1.8-0.2-3.6-0.4-5.4-0.4c-1.7-0.1-3.4,0-5.1,0c-0.7,0-1.4,0.2-1.4,1.1C382.8,122.1,382.8,126.4,382.8,130.8z"/><path class="st0" d="M338.7,135.2c0,4.1,0,8.2,0,12.2c0,1.9,1.5,2.4,3.1,2.7c0.7,0.1,1.4,0.1,0.9,1.2c-4.2,0-8.5,0-12.7,0 c-0.1-0.1-0.2-0.2-0.3-0.3c0.3-0.3,0.5-0.7,0.8-0.8c2.7-0.9,3-1,3.1-4c0.1-8.2,0.1-16.4,0.1-24.6c0-1,0-1.9-0.1-2.9 c-0.2-2-0.6-2.5-2.6-3c-0.4-0.1-0.8-0.5-1.2-0.8c0.4-0.2,0.9-0.5,1.3-0.5c3.9,0,7.9,0,11.8,0c1.1,0,2.2,0.1,3.3,0.4 c7.1,1.6,10.4,8.9,6.7,15.3c-1.6,2.8-4.3,4.1-7.4,4.6C343.4,135.1,341.1,135.1,338.7,135.2z M338.6,132.5c3.3,0.4,6.5,0.4,8.8-2.2 c2-2.3,2.3-7.2,0.7-10c-1.6-2.9-5.1-3.5-8.1-3.5c-1,0-1.4,0.6-1.4,1.6c0,3.7,0,7.3,0,11C338.6,130.4,338.6,131.4,338.6,132.5z"/><path class="st0" d="M155.9,235.1c0,0,0.1-0.1,0.1-0.1c5.7-0.5,7.3-1.8,8.4-7.4c0.5-2.7,0.8-5.4,1.3-8.1c0.4-2.3,2.8-3.2,4.7-1.7 c2.2,1.7,4.3,3.4,6.6,4.8c4.4,2.7,7.1,2.3,10.8-1.3c0.2-0.2,0.3-0.3,0.8-0.3c-0.2,0.4-0.4,0.8-0.6,1.2c-1.9,2.6-3.7,5.3-5.6,7.9 c-3.7,5.2-8.9,7.6-15.2,7.1c-3.7-0.3-7.5-1-11.2-1.6C155.9,235.4,155.9,235.2,155.9,235.1z"/><path class="st0" d="M326.7,144.1c-0.6,2.2-1.2,4.4-1.8,6.7c-0.1,0.3-0.5,0.6-0.7,0.6c-6.4,0-12.7,0-19.1,0 c-0.1-0.1-0.2-0.3-0.3-0.4c0.3-0.3,0.6-0.7,0.9-0.8c3-0.9,3.2-1.1,3.2-4.3c0-8.7,0-17.4,0-26.1c0-3-0.3-3.3-3.2-4.1 c-0.4-0.1-0.7-0.6-1-0.9c0.1-0.1,0.2-0.2,0.2-0.4c4.3,0,8.6,0,13,0c0.1,0.1,0.2,0.2,0.3,0.3c-0.3,0.3-0.6,0.8-1,0.9 c-3,0.8-3.4,1.1-3.4,4.2c0,8.9,0,17.8,0,26.6c0,1.8,0.4,2.2,2.2,2.3c1.4,0.1,2.9,0.1,4.3,0c0.4,0,1-0.3,1.3-0.6 c1.2-1.2,2.2-2.5,3.4-3.7c0.4-0.4,1-0.5,1.5-0.7C326.5,143.9,326.6,144,326.7,144.1z"/><path class="st0" d="M213.1,144.1c-0.6,2.3-1.2,4.5-1.9,6.8c-0.1,0.3-0.6,0.6-0.9,0.6c-6.1,0-12.1,0-18.2,0 c-0.3,0-0.5-0.3-0.8-0.5c0.3-0.3,0.5-0.6,0.8-0.7c3-0.9,3.2-1.2,3.2-4.3c0-8.7,0-17.5,0-26.2c0-2.9-0.4-3.2-3.1-4 c-0.4-0.1-0.7-0.6-1-0.9c0.1-0.1,0.2-0.2,0.3-0.3c4.3,0,8.6,0,12.9,0c0.1,0.1,0.2,0.2,0.3,0.3c-0.3,0.3-0.6,0.9-0.9,0.9 c-2.6,0.3-3.4,1.2-3.4,4.4c0,8.8,0,17.7,0,26.5c0,1.8,0.3,2.2,2.2,2.3c1.5,0.1,3,0.1,4.4,0c0.4,0,0.9-0.3,1.1-0.6 c1.1-1.2,2.2-2.5,3.4-3.7c0.4-0.4,1-0.5,1.5-0.8C212.9,143.9,213,144,213.1,144.1z"/><path class="st0" d="M149.9,115.3c1.6,1.8,3.2,3.4,4.7,5.1c0.2,0.3,0.2,0.9,0.2,1.3c0,7.6,0,15.3,0,22.9c0,0.4,0,0.8,0,1.3 c0.1,3.1,0.5,3.6,3.5,4.3c0.4,0.1,0.7,0.5,1.1,0.7c-0.1,0.1-0.2,0.3-0.2,0.4c-4.5,0-9,0-13.5,0c-0.1-0.1-0.2-0.2-0.2-0.3 c0.3-0.3,0.5-0.6,0.8-0.8c0.5-0.2,1.1-0.2,1.6-0.4c1.2-0.3,1.8-1,1.9-2.2c0.1-1.2,0.2-2.3,0.2-3.5c0-9.2,0-18.3,0-27.5 C149.9,116.2,149.9,115.7,149.9,115.3z"/><path class="st0" d="M362.1,114.9c1.2,1.7,1.9,3.3,3.2,4.2c1.8,1.2,1.6,2.7,1.6,4.4c0,7.1,0,14.3,0,21.4c0,0.5,0,0.9,0,1.4 c0.2,2.8,0.6,3.3,3.3,3.9c1,0.2,1,0.2,1,1.2c-4.5,0-9,0-13.5,0c-0.1-0.1-0.2-0.2-0.3-0.3c0.3-0.3,0.5-0.7,0.8-0.8 c0.5-0.2,1.2-0.3,1.8-0.4c1.1-0.3,1.7-1,1.8-2.2c0.1-1.2,0.2-2.3,0.2-3.5c0-9.2,0-18.3,0-27.5 C362.1,116.3,362.1,115.8,362.1,114.9z"/><path class="st0" d="M165.5,218.7c-0.5,2.6-0.9,5-1.3,7.4c-0.2,0.9-0.4,1.8-0.6,2.7c-1.1,4.3-4,6.1-8.4,5.3 C154.6,229.3,160.6,220.1,165.5,218.7z"/><path class="st0" d="M187.6,220.1c-1.2,2.5-4.2,4-6.8,3.3c-1.5-0.4-3-1.1-4.3-1.9c-2.2-1.4-4.3-3.1-6.6-4.7 C174.7,214.6,183.8,216.4,187.6,220.1z"/><path class="st0" d="M159.9,249.9c1.3,0.1,2.4,0.2,3.5,0.4c2.5,0.4,5,0.1,7.3-0.9c1.1-0.4,1.8-0.3,2.5,0.7c1,1.2,2,2.4,3.1,3.6 C170.8,256.2,162.9,255.4,159.9,249.9z"/><path class="st0" d="M195.8,235.4c1.6,4.7-2.8,11.8-8.3,13.3c-0.1-1.9-0.2-3.7-0.3-5.5c0-0.3,0.3-0.8,0.6-1c1.4-1,3-1.8,4.4-2.9 C193.5,238.1,194.5,236.7,195.8,235.4z"/><path class="st0" d="M157.4,246.2c1.3-0.1,2.5,0,3.7-0.3c1.7-0.4,3.3-1,4.9-1.4c0.5-0.1,1.2-0.4,1.5-0.1c1.5,1.3,2.9,2.6,4.5,4.2 c-3.1,0.9-5.8,1.4-8.6,1.1c-0.8-0.1-1.7-0.2-2.5-0.3C159.1,249.3,158,248.4,157.4,246.2z"/><path class="st0" d="M187.1,241.5c0-1.8,0-3.5,0-5.3c0-0.3,0.3-0.6,0.6-0.8c2.4-1.4,4.9-2.9,7.5-4.4c0.5,1.1,0.9,2.6,0,3.9 c-1.9,2.8-4.3,5.1-7.4,6.4C187.6,241.4,187.4,241.4,187.1,241.5z"/><path class="st0" d="M166.4,243.5c-2.9,1.7-5.9,2-9,1.9c-0.4,0-1-0.9-1.2-1.4c-1-2.5-0.6-3.2,2.2-3.4 C161.4,240.3,163.9,241.5,166.4,243.5z"/><path class="st0" d="M187.6,235c-0.7-3.8,1.8-8.2,5.2-9.5c0.4,0.5,0.8,1.1,1.1,1.7c1.1,1.9,0.9,3.1-0.8,4.3 C191.4,232.8,189.6,233.8,187.6,235z"/><path class="st0" d="M151.5,110c-1-1-2-2-3-3.1c1.1-1,2.2-2,3.2-3c0.9,0.9,1.9,2,3,3C153.7,107.9,152.6,108.9,151.5,110z"/><path class="st0" d="M366.9,107.1c-1,0.9-2,1.9-3.1,2.9c-1-1-2.1-2.1-3.2-3.3c1-1,2-2,3-3C364.7,104.8,365.8,105.9,366.9,107.1z" /><path class="st0" d="M179,257.2c-3.9,0.7-7.4,0.3-11.3-1.2c3-0.4,5.6-0.9,8.2-1.1C177.5,254.7,178.4,255.7,179,257.2z"/><path class="st0" d="M188.2,253.2c-0.8-1.9-0.6-3.4,0.7-4.4c1.8-1.3,3.6-2.5,5.6-3.9C193.1,248.3,191,250.9,188.2,253.2z"/><path class="st1" d="M249,212.9c1-0.9,2.2-2.2,3.6-3.2c0.5-0.3,1.5-0.2,2.2,0.1c0.9,0.3,1.5,2.4,1.2,3.2c-0.4,0.8-2.2,1.4-3.2,1.1 C251.5,213.6,250.3,213.2,249,212.9z"/><path class="st1" d="M238.1,232c0.1-2.3-0.7-3.3-2.6-3.2c0.2-1.2,1.2-1.3,2-1.4c1.3-0.1,2.4,1,2.6,2.2 C240.4,230.7,239.6,231.6,238.1,232z"/><path class="st1" d="M422.8,144c0,2.6-1.3,4.6-3.4,5.3c-2.9,0.9-5.8,0-7.4-2.3c-2.4-3.6-1.5-9.4,1.8-12.1c0.5-0.4,1-0.6,1.6-0.1 c1.5,1.1,3,2.1,4.4,3.3C421.6,139.7,422.8,141.5,422.8,144z"/><path class="st1" d="M338.6,132.5c0-1.1,0-2.1,0-3.1c0-3.7,0-7.3,0-11c0-1,0.4-1.6,1.4-1.6c3-0.1,6.6,0.6,8.1,3.5 c1.5,2.8,1.3,7.7-0.7,10C345,132.9,341.9,132.9,338.6,132.5z"/></g></g></svg> 