<?xml version="1.0" encoding="utf-8"?><svg version="1.1" id="Layer_1" xmlns="http://www.w3.org/2000/svg" xmlns:xlink="http://www.w3.org/1999/xlink" x="0px" y="0px" viewBox="0 0 512 512" style="enable-background:new 0 0 512 512;" xml:space="preserve"><style type="text/css"> .st0{fill:#FFFFFF;} .st1{fill:#1F2998;} .st2{fill:#FFFF00;} .st3{fill:#FF0000;} </style><g id="g4827"><path id="path4755" class="st0" d=" M47,333.5c0-0.1,1.1-0.9,2.3-1.6c5.6-3.2,7.6-4.6,9.8-6.9c1.4-1.4,3.8-4.9,4.3-6c0.1-0.3,0.4-1,0.7-1.6c0.2-0.5,0.6-1.9,0.8-3.1 c0.3-1.8,3.1-10.8,3.8-12.5c0.1-0.3,0.3-0.9,0.5-1.4s0.4-1.3,0.6-1.7s0.5-1.5,0.8-2.3c0.3-0.8,0.5-1.7,0.6-2 c0.2-0.4,0.1-0.4-0.2-0.1c-0.5,0.4-3.1,3.8-3.8,4.9c-0.8,1.3-3.2,6.3-3.4,7c-0.1,0.4-0.3,0.6-0.5,0.5c-0.2-0.1-0.6,0.3-1.1,1.2 c-2.2,3.8-3.3,5.1-5.4,6.8c-3.3,2.7-4.8,3.4-5.9,3.1c-0.8-0.2-0.8-0.5,0-0.8c0.3-0.1,0.6-0.5,0.6-0.7c0-0.3,0.4-0.7,1.1-1.2 c3-1.9,6.4-6.8,7.7-10.8c0.2-0.5,0.4-1,0.5-1.2c0.1-0.1,0.4-1.2,0.7-2.3c0.3-1.1,0.7-3.2,1.1-4.5c0.3-1.3,0.7-3.1,0.9-3.9 c0.4-1.8,1.4-4.9,2-6.3c0.2-0.6,0.4-1.1,0.3-1.1c-0.3-0.3-4.8,5-5.7,6.7c-0.8,1.5-1.8,4.2-2,5c-0.2,0.9-0.5,1.3-1,1.3 c-0.3,0-0.3-0.4-0.2-3.1c0.1-1.7,0.2-3.4,0.4-3.8c0.1-0.4,0.3-1.1,0.3-1.7l0.1-1l-1,0.9c-0.5,0.5-1.5,1.5-2.1,2.2 c-2,2.4-6.3,5.4-9.2,6.5c-0.6,0.2-1.9,0.7-3,1.1c-1.1,0.4-2.5,0.9-3.2,1.1c-1.1,0.3-7.4,3.3-9.7,4.5c-1.2,0.7-4.2,2.7-4.9,3.3 c-0.3,0.3-1.3,1.2-2.2,2c-0.9,0.9-1.8,1.6-2.1,1.6c-0.6,0-0.5-1.1,0-2.3c0.2-0.5,0.6-1.3,0.7-1.9c0.5-2,2.5-4.2,5.7-6.5 c3.8-2.7,9.5-7,11.5-8.7c2.5-2.1,6.1-5.7,6.9-6.8c0.3-0.4,1.1-1.6,1.8-2.6s1.8-2.7,2.6-3.9c0.7-1.2,1.6-2.6,1.9-3 c1.2-2,5.3-9.9,5.1-10.1c-0.1-0.1-0.5,0-1,0.1c-5,1.2-7.8,2.1-9.2,3c-0.8,0.5-2.6,1.9-4,3.1c-0.2,0.2-0.8,0.7-1.4,1.1 c-1.1,0.9-1.9,2-1.9,2.7c0,0.3-0.2,0.3-0.6,0.3c-0.9-0.1-0.9-0.6-0.3-3.3c1.1-4.9,5.3-10.8,11.3-15.9c0.7-0.6,1.4-1.1,1.5-1.3 c2.4-2.1,9.7-7.2,14.8-10.2c0.2-0.1,1.1-0.6,2-1.1c0.9-0.5,1.7-1.1,1.8-1.3c2.4-2,1.7-0.2-0.9-0.8c4-0.8,0,1.1-5.7,2.6 c-1,0.2-1.9,0.5-2.2,0.7c-0.3,0.1-1.2,0.4-2.2,0.7c-1,0.2-2.7,0.7-3.9,1.1c-1.2,0.3-2.9,0.8-3.7,1c-2.1,0.6-8.2,2.6-9.8,3.3 c-6.1,2.5-10.2,5.5-11.4,8.4c-0.3,0.6-0.6,1-0.7,1c-0.1,0-0.2,0.1-0.2,0.2s-0.3,0.8-0.6,1.5c-0.3,0.7-0.6,1.6-0.7,2 c-0.2,1-0.7,1.2-1.3,0.5c-0.5-0.7-0.6-2.3-0.1-3.6c0.2-0.5,0.6-1.6,0.8-2.4c2-6.8,8-13.1,18.7-19.8c4.2-2.6,4.3-2.7,2.5-1.9 c-0.4,0.2-1.6,0.7-2.5,1.1s-2.2,0.9-2.7,1.2c-1.4,0.7-3.3,1.5-7.9,3.4c-2.5,1-7.7,2.7-9.4,3c-1.3,0.2-4,1.1-5.2,1.6 c-1.3,0.6-5.5,1.7-7.4,2c-2.1,0.3-5.6,0.2-5.4-0.1c0.1-0.1,1.7-1,3.6-1.9c1.9-1,4.6-2.4,6-3.2c2.2-1.3,8.9-5.7,10.7-7.1 c0.4-0.3,1.1-0.8,1.5-1.1s1.7-1.2,2.7-2c2.6-2,6.2-4.7,8.7-6.4c1.1-0.8,2.1-1.5,2.1-1.6c0.1-0.2-1.2,0.2-4.2,1.4 c-1,0.4-2.3,0.9-2.9,1.1c-0.6,0.2-1.4,0.5-1.7,0.7c-0.9,0.4-3.4,1.4-4.6,1.7c-0.5,0.2-1,0.4-1.2,0.4c-0.1,0.1-1.5,0.6-3.1,1.1 c-1.6,0.5-3.1,1.1-3.4,1.2c-0.5,0.2-2.7,0.9-5.3,1.6c-1.3,0.4-2.5,0.5-5.9,0.5c-2.3,0-7.3-0.2-6.6-0.2c-0.1-0.2,3.7-0.7,7-1.8 c3.2-1,7.5-2.9,11-5c1.7-1,4.8-2.8,10.3-8.7c8.2-8.8,12.4-12.1,15-16c12.9-11.7,22-13.2,33.4-28.1c0,0,5-4.5,7.7-8.4 c0.6-0.8,61.7-0.6,61.7-0.6l-45.5,76l-5.8,48.4c-9.9,12.5-22.6,30.1-40.6,38.5c-0.1,0-3.2,0.8-4.6,1.4c-1.4,0.6-3.1,1-3.6,1.1 c-0.5,0.1-2,0.2-2.3,0.3C47,333.8,46.9,333.8,47,333.5L47,333.5z M28.7,303c0.8-0.4,1.7-0.7,2-0.8c0.3-0.1,1-0.4,1.6-0.8 c0.6-0.3,1.8-1,2.7-1.4c4.7-2.5,8.7-5.9,11.7-10c0.5-0.7,1-1.3,1.1-1.4c0.5-0.6,2.5-4.2,2.8-5c0.3-0.8,1.2-2.9,1.7-4.1 c0.2-0.4,0.6-1.3,0.9-2.1c1.3-2.9,4.8-9.8,5-9.8c0.1,0,0.2-0.1,0.2-0.3c0-0.2,0.3-0.8,0.7-1.3c0.4-0.6,0.7-1.1,0.7-1.2 c0-0.4-0.5-0.1-0.9,0.6c-0.3,0.4-0.8,1.4-1.3,2.1c-0.5,0.7-0.8,1.4-0.8,1.5c0,0.1-0.2,0.3-0.4,0.5c-0.4,0.3-1,1.2-1.7,2.5 c-0.3,0.5-0.6,1.1-2.6,4.4c-0.3,0.6-0.8,1.4-1,1.9c-0.7,1.6-1.8,3.6-2.2,4.1c-0.2,0.3-0.5,0.7-0.7,1c-2.4,3.6-7.1,8.8-11.3,12.6 c-1.8,1.6-5.1,4.1-7.8,6C26.4,303.7,26.2,304.1,28.7,303L28.7,303z M43.4,268.8c0.6-0.2,1.7-0.7,2.6-1.1c0.8-0.4,2-0.9,2.5-1.1 c0.6-0.2,1.1-0.4,1.3-0.5c0.5-0.4,7.4-1.7,7.9-1.5c0.2,0.1,0.3,0,0.4-0.2c0.1-0.2,0-0.3-0.2-0.3c-1.1,0-8.9,1-9.3,1.2 c-0.7,0.3-1.8,0.3-2,0c-0.1-0.1,0.1-0.6,0.5-1.1c0.6-0.9,3.7-4,4.6-4.7c0.2-0.2,0.9-0.7,1.4-1.1c0.5-0.4,1.9-1.4,3.2-2.2 c1.2-0.8,2.6-1.9,3.1-2.3c2-1.9,5-4.8,4.8-4.8c-0.1,0-1.4,0.7-3,1.6c-1.6,0.9-2.9,1.6-2.9,1.6s-0.4,0.3-0.8,0.6 c-0.4,0.3-0.8,0.6-0.9,0.6c-0.1,0-0.7,0.4-1.4,0.8c-0.7,0.5-1.5,1.1-1.9,1.3c-3.3,2.3-7.2,5.9-8.8,8.1c-1.4,2-2.9,5.4-2.3,5.4 C42.3,269.1,42.9,269,43.4,268.8L43.4,268.8z M31.3,254.3c2.7-2.9,6.3-5.6,11.2-8.4c1.5-0.9,2-1.1,2.6-1c0.5,0.1,1.8-0.3,4.9-1.4 c2.3-0.9,4.9-1.8,5.8-2.1c3.5-1.2,9.1-3.5,10.1-4.1c0.3-0.2,0.8-0.5,1.3-0.7c0.9-0.5,1.9-1.3,1.9-1.6c0-0.1-0.4,0-0.9,0.2 c-0.5,0.2-2,0.8-3.3,1.2c-5.4,1.6-7.1,2.2-7.5,2.4c-0.9,0.4-7.4,2-8.3,2.1c-0.4,0-0.8,0.2-1,0.2c-0.5,0.3-0.6-0.5,0-1.4 c0.6-1,0.8-1.1-3,1.5c-5.2,3.5-9.7,7.3-12.1,10.2c-1.7,2.1-2,2.5-2.8,3.8c-1,1.6-1.1,2.3-0.2,0.9C30.1,255.8,30.8,254.9,31.3,254.3 z M15.5,247.5c4.5-1.3,8.2-2.7,8.7-3.3c0.1-0.1,0.9-0.7,1.8-1.3c1.7-1.2,2-1.3,4.7-3.3c3.4-2.4,6.1-4.6,8.8-7.1 c5.1-4.7,6.6-6,8.1-7c0.8-0.6,1.4-1.1,1.4-1.1c0,0-0.5,0-0.9,0.2c-0.5,0.2-1.9,1.3-3.4,2.7c-2.2,2.1-4.7,4.2-6.8,5.6 c-0.3,0.2-0.9,0.6-1.3,0.9c-0.9,0.7-6.6,4.5-7.8,5.2c-4.2,2.6-3.7,2.4-10.7,6.3C13.2,248,12.9,248.2,15.5,247.5z M44.7,245.5 c0.1-0.1,0-0.2-0.2-0.1c-0.4,0.2-0.5,0.3-0.1,0.3C44.5,245.8,44.6,245.7,44.7,245.5z"/><path id="path4685" class="st0" d=" M103.8,399.5c-1.2-6-6.5-15.4-12.1-22.5c-1.4-1.8-3.1-3.5-4.5-4.8c-0.9-0.9-1.5-1.6-2.4-2.3c-6.3-5.4-11.7-13-13.6-19.5 c-0.9-3-1.8-5.9-1.8-11.4c0-7.1,0.4-7.4-0.8-7.1c-0.7,0.2-3.8,1.2-6.8,2c-4,1.1-6.4,1.1-8.6,0.8l-4.1-0.8l4.9-2 c5.1-2,10.4-4.3,14.1-6.9l22.1-159c0.1-2.5-0.4-11,0.3-20.4c1.4-20.1,3.8-34.7,12-49c5.1-8.9,15.4-21.2,15.4-21.2 c22.6,28.6,124.2,0.9,124.2,0.9c2.1,4.2,65.1,123.7,65.1,123.7l22.2,67.7L198.2,377.1c0,0-21.2,7.9-23.8,8.5 c-7.3,1.7-28.7-2.8-28.7-2.8l-38.8,21.5c0.2,0.5-2.1-0.8-2.4-0.8C104.1,403.5,104.2,401.6,103.8,399.5L103.8,399.5z M96.8,148.9 C33.6,373.9,65.2,261.4,96.8,148.9z"/><path id="path4619" class="st1" d="M175.9,138.7 c-12.1-17.8-19.2-27.2-29.7-38.3c-4.5-3.8-12.3-11.6-12.7-12.4c-1-1.9,3-4.8,13.7-12.8C164.9,62,181.5,53.7,209,43.7 c2.1-0.8,3.8,46,3.8,46l-6.9,17.9l-10,10.3c0,0-9.7,11.8-11.3,13.6C181.5,135,176.5,140.3,175.9,138.7L175.9,138.7z"/><path id="path4639" class="st2" d="M232,161.2 c-6.4-3.1-9.7-4.7-14.4-10.1l-6.7-6.4l1.9-8.3c7-23.2,9.3-29.6,5.3-38.8c-1.3-2.9-4.4-8-4.7-11.8c-0.8-10.6-0.6-18.8-2.2-29.9 c-0.8-5.7-1.4-12.3-1.2-12.5c1.5-1.5,26.7-8.1,40.6-10c11.4-1.6,45.3-2.5,56.6-1.1c10.4,1.3,21.8,5.6,30,7.6 c8.2,2.1,26.3,7.6,27.1,8.4c0.3,0.3-5.1,5.5-9,9.2s-24,23.3-45.2,44c-56.2,54.9-65.9,64.8-67.1,64.8 C242.3,166.1,236.2,163.3,232,161.2L232,161.2z"/><path id="path4613" class="st1" d="M272.6,193.2 c-3.3-5.3-12.9-14.7-21.4-21.7l-8.9-4.8l4.2-4.3L356.2,55.2l8.1-7l7.5,2.6c6.5,2.2,34.5,17.9,49.3,29.7c9.3,7.4,28.8,26.7,35.4,35 c2.6,3.3,6.5,7.9,6.1,9c-0.4,1-11.4,5.2-22.9,9.8l-23.9,9.5l-3.8-4.1c-11.1-10.6-21.1-14.7-35.8-14.8c-9.4,0-13,0.7-21.4,4.7 c-5,2.4-6.5,2.3-12.5,8.2c-10.7,10.6-14.4,17.9-14.7,32.8l-0.1,8.5l-20.5,7.2c-9.8,3.5-20.3,8.4-23.7,9.7l-7,3L272.6,193.2z"/><path id="path4637" class="st2" d=" M493.6,275.2c-2.9-0.5-3.1-0.3-5.5-1.2c-1.8,0.8-2.8-1.8-6.1-6.5c-4.1-5.8-9.8-12.3-15.8-16c-8.7-5.3-12.2-6.2-23.2-6.6 c-7.2-0.2-10.2-0.1-13.9,0.8c-6.9,1.6-14.3,4.8-19.9,9.6c-2.7,2.3-6.1,5.4-6.6,5.7c-0.6,0.4-6.2-1.4-13.2-2.4l-13.9-2.6l0.6-13.7 l0.2-18.1l6.9-1.2c5.5-1,8.1-1,15.1-4.4c5.8-2.8,7.1-4.1,12.9-10c11-11,13.6-19.6,13.5-34.5c0-9.7-1.1-15.1-5-22.9 c-1.7-3.5-3-7.6-4.1-8c-1.8-0.5,13.8-5.1,25.2-9.7l22.1-9.1l2.5,3.6c2.3,3.2,11,14.9,13.9,19.9c12.5,21.5,21.9,49.2,25.7,74.9 c1.8,12.3,2.8,32.8,2.2,41.5l-0.7,9.4l-0.3,2.9c-0.1,1.2-5.6-0.8-8.5-1.3L493.6,275.2z"/><path id="path4635" class="st2" d="M357.8,253.8 c-4.4-0.7-15.9-2.5-30.7-4.7l-26.6-4l-8-7.1c-8.8-7.8-11.2-9.2-13.9-14.9c-2.1-4.3-2.6-6.2-2.9-14.1l-0.4-9.7l24.4-9.9 c12.5-5.1,26.4-9.7,26.9-9.7s1.3,3,1.8,5.2c2.1,9.5,5.5,16.4,12.8,23.5c8.2,8.1,14.7,12.2,25,13.8c2.7,0.4,10.5,0.8,10.7,1 s-1.1,10-1.1,17.5l0.1,13.8l-1.1,2.2c-0.9,0-5.4-0.9-9.8-1.6L357.8,253.8z"/><path id="path4625" class="st1" d="M239.7,295.8l-7.4-5.7l6.2-4.5 c4-2.9,6.7-1.8,10-1.5c2,0.2,6.1-0.8,6.1-0.4c0,1-8.2,16.8-8.7,16.7C245.6,300.4,242.5,297.9,239.7,295.8z"/><path id="path4601" class="st1" d=" M370.9,390.1c-2.3-1.7-5.7-3.5-5.4-5.3c1.1-6.2,1.5-18,0.4-23.1c-2.2-10.5-8.9-20.5-17.8-27.8c-9.5-7.9-16.9-11.3-30.6-11.3 c-10.3,0-18.3,3.6-22,4.9l-7.9,3l-20.1-14.8c-10.3-7.6-20.8-13.7-21.1-14.6c0-0.2,6.1-4.2,10.4-7.5c4.4-3.3,9.2-7.5,10.8-9.2 c1.1-0.7,3-5.1,4-4.9l4.6,1.1l-1.4,6.9c-0.5,3-2.4,8.5-4.1,12.3c-1.7,3.8-2.7,5-2.3,5.2c1.6,1,12.7-11,16.4-18.6 c1.9-3.9,2.6-3.9,3.7-3.9c2.3,0,8.7-7.4,12.7-13.1c2-2.8,4.6-6.6,6-9.6c2.9-6.2,2.4-7.1-1.4-9.4c-2.8-1.8-4.3-5.6-2.1-5.1 c0.9,0.2,19.3,2.9,37.1,5.7c17.8,2.7,35.2,6,35.4,6.3c0.4,0.4,1.1,135.2,0.7,135.1C378.7,393.6,372.3,391.1,370.9,390.1 L370.9,390.1z"/><path id="path4609" class="st1" d="M438.5,379.9l0-36l11.7-1.8 c13.7-2.2,33.9-16.7,38.3-38.2c1.4-6.9,1.3-18.4-0.4-23.8c-0.9-2.9-2-5.7-1.1-5.7c1.3,0,18.5,3.4,19.5,3.8c2.1,0.7-3.7,31.7-9,49.4 c-8.4,27.7-32.4,67.6-48,81.7l-10.7,9.7L438.5,379.9z"/><path id="path4607" class="st1" d="M402.6,412.4 l-25.8-19.3l-1.2-7.4c-0.6-3.6,0.6-32,0.5-65.8c-0.1-48.7-0.4-63.2,0.3-63.2c1.7,0,26.4,4,26.8,4.3c0.2,0.2-2.3,2.8-3.1,3.9 c-10.9,15.5-10.8,34.1-3.1,51.8c1,2.3,4.5,7.2,8.2,10.9c5.7,5.8,6.1,6.9,11.8,9.8c4.7,2.3,8,4.3,12.6,5.1l10.2,1.6l-0.5,37.8 l0.7,36.4l-6.4,6.2c-2.7,2.6-6.8,5.6-7.1,5.6C426.3,430,415,421.6,402.6,412.4L402.6,412.4z"/><path id="path4633" class="st2" d="M376.1,429.7 c-0.3-16.5-0.3-36,0-36.3c0.5-0.5,47.8,33.4,51.1,36.5c1.2,1.2-0.2,2.5-7.1,8c-11,8.6-36.8,23.5-42.7,25.8 C376.4,463.9,376.5,455.8,376.1,429.7L376.1,429.7z"/><path id="path4631" class="st2" d="M316.4,444.5l-0.1-23.7 l11.7-1.3c16.3-1.9,26.5-11.1,34.3-26.6l3.4-6.2l6.2,3.5l4.9,2.9l0.5,35.8l0.3,33.5l-9.7,4.9c-8.5,4.3-23.3,9.3-32.7,11.4 c-7.1,1.6-17.2,2.6-17.6,2.6c-1,1.1-1.1-12.9-1.1-27.9L316.4,444.5z"/><path id="path4629" class="st2" d="M289,480.9 c-1-1.2-81.7-131.1-89.8-144.6c-1.4-2.4-3-5.3-3-5.7c0-1.1,10.4-16.5,15.9-23c4.5-5.3,13.7-13.3,17.5-15.6c1.6-1,2.5-2.2,10.2,3.5 c4.4,3.3,15.1,11.1,21.5,15.5c6.4,4.5,14.9,9.9,18.4,12.9l8.6,6.2l-6.1,6.3c-6.2,6.4-8.5,11.2-11.3,18.9c-1.8,4.8-2.3,6.7-2.6,14.2 c-0.4,11.1,1.4,15.3,5.9,24.3c2.7,5.4,3.8,7.9,9.5,13.5c9.1,9,26.4,12.9,26.4,12.9l8.1,1.1v30.5l0.5,29.9l-6,1 c-3.7,0.6-17,1.6-19.3,1.6C292.3,484,289.4,481.4,289,480.9L289,480.9z"/><path id="path4627" class="st2" d="M173.6,458.5 c-13.8-6.9-21-13.2-33.1-22.8c-9.7-7.7-33-31-33.7-33.6c1.4-5.8,3.2-9.4,0.5-16.8c-0.4-0.8-0.6-11.1-0.3-11.1 c6.7,0,19.4-0.2,19.4-0.2l12,2.7l4.5,2.8c3.6,2.2,9.4,4.7,15,5.6l5.1,0.7l9,20.8c19.6,45.5,6.4,14.6,26.4,63 c0.1,0.3-14.6-5.3-14.6-6L173.6,458.5z"/><path id="path4621" class="st1" d="M263.1,483.4 c-1.2-0.1-6.2-0.5-10.2-0.9c-14.9-1.6-31.6-6-45.8-10.9c-7.1-2.4-8.5-2.4-9.6-4.7c-1-1.9-33.2-77.3-34.5-80.6 c-0.2-0.5,4-0.1,7.2-0.4c7.1-0.7,15.1-2.7,15.1-4.5c0-0.3,5.5-3.5,5.5-3.5l0.9-2.5c0,0-1.6-3.4-0.5-7.7c1.6-5.9,1-14.7-1.6-16.7 c-3.8,11.3-2.2-1.3,1.5-9.9c1.7-3.8,5.1-9.9,5.6-9.9c0.9,0,1.6,2.6,35.1,56.8c34.7,56,56.6,91.8,57.1,92.9 c0.3,0.8-1.1,3.3-10.4,3.2C272.3,484.2,264.2,483.5,263.1,483.4z"/><circle id="path4497-2" class="st3" cx="318.1" cy="371.6" r="49.8"/><circle id="path4497-5" class="st3" cx="440.2" cy="293.5" r="49.8"/><circle id="path4497" class="st3" cx="375.9" cy="173.7" r="49.8"/><path id="path4487" d="M265.4,486.1c-36.7-2.2-70.4-12.4-100.2-30.3 c-16.6-10-31.3-21.6-45.9-36.2c-6.9-6.8-15.3-16.2-14.5-16.1c0.9,0.1,1.2-0.1,1-0.7c-0.1-0.4-0.3-0.8-0.4-1 c-0.2-0.2,0.1-1.1,0.8-2.4l1-2.1l-0.5-2.6c-0.9-5-2.3-7.8-8.1-16.1c-1.7-2.4-3.7-5.6-4.5-7.1c-2.9-5.7-4.4-11.8-4.4-19.1 c0-3.7,0-4.5,0.6-6.5c2.8-9.4,9.5-20,17.3-27.3c6.6-6.2,13.8-9.9,20.7-10.8c1.4-0.2,3.1-0.4,3.8-0.6c0.8-0.2,1.5-0.1,2.1,0.1 c0.8,0.3,0.8,0.4-2.2,2.2c-7.2,4.4-16.4,12.2-21.7,18.5c-6.1,7.1-8.4,11-9.2,15.3c-0.8,4.3-0.5,7.7,1.1,10.2l0.6,1l0.8-2.5 c1.9-5.6,5.1-9,10.3-10.8c1.8-0.6,2.9-0.8,6.1-0.9c2.1-0.1,3.8-0.1,3.8,0c0,0.1-0.9,0.6-1.9,1.1c-5,2.5-6.4,5.3-6.1,12.2 c0.1,2.3,0.3,3.8,0.7,4.9c0.3,0.8,0.6,1.5,0.7,1.5c0.2,0,1.4-2.8,1.4-3.2c0-0.5,2.1-4.5,3.7-6.9c2-3.1,5.8-6.8,7.9-7.9 c2.2-1.1,4.7-1.5,6.7-1.1c0.9,0.2,1.6,0.3,1.7,0.4c0.1,0.1-0.4,0.4-1,0.8c-4.1,2.8-7,8-7,12.6c0,2.3,2.9,10.6,5.3,15.2 c3,5.8,7.3,9.2,15.3,11.9c5.1,1.8,9.6,2.6,14.9,2.6c4.6,0,4.7,0,6.9-0.9c1.2-0.5,2.3-0.8,2.4-0.7c0.3,0.5,1.9,0.2,5.4-1 c6.1-2.2,7.8-3.3,9.2-6.2c0.8-1.8,0.6-2.1-1.7-2.8c-2.5-0.7-3.9-0.4-8.3,1.7c-2.1,1-4.5,2.1-5.4,2.3c-1.5,0.4-1.8,0.4-2.9,0.1 c-0.7-0.2-2-0.6-3-0.8c-2.1-0.4-7-1.9-7.9-2.4c-0.8-0.5-2.8-3.1-3.7-4.9c-2-4-0.7-17.7,3.9-39.2c0.9-4.1,2.2-10.4,2.9-13.9 c2.6-12.7,4.6-18.5,8.4-24.2c5.8-8.7,16.4-15.4,31.4-19.7c8.7-2.5,18.9-4.3,25.4-4.6c6.7-0.2,10.6,0.6,26.7,5.5 c9.2,2.8,9.7,2.9,6.1,1c-4-2.2-7.2-4.3-14.6-9.6c-5.6-4.1-6.9-4.8-10.9-6.7c-7.8-3.6-12.2-5.2-17.4-6.4c-4.8-1.1-14.3-3.5-14.5-3.8 c-0.4-0.4,0.9-0.7,2.7-0.7c4.6,0,12.4,2.3,21,6.1c5.2,2.3,12.3,6,25.1,13.1c9.3,5.1,17.2,9.1,21.6,11l2.8,1.2l4.7,0.1l4.7,0.1 l-1.7-1c-3.2-1.8-8.4-5.4-11.5-7.8c-3.2-2.6-6.2-5.5-11.9-11.4c-3.9-4-6.8-6.3-10.6-8.3c-6.3-3.3-17-5.8-27.8-6.5 c-5.5-0.4-4.9-0.7,1-0.6c10.9,0.3,18.5,2,27.4,6.4c6.1,3,10.2,6.2,13.3,10.5c3.8,5.2,12.9,12.6,20.9,17.1c2.4,1.4,3,1.6,3.9,1.4 c0.8-0.2,1-0.1,0.9,0.4c-0.1,0.4,0.1,0.6,0.6,0.6c0.8,0.1,0.8,0.2-0.4-3.7c-0.4-1.4-1.1-4-1.4-6c-1.1-5.7-6.3-19.9-10.1-27.6 c-5.1-10.4-11.4-16.5-19.6-18.6c-2.1-0.6-9-0.9-23.3-1.1c-2.3,0-3.3-0.1-2.6-0.2c1-0.2,0.9-0.2-1.2-0.4c-3.2-0.3-7.9-1.2-10.7-2.1 c-4-1.2-6.4-2.7-10.3-6.2c-2-1.8-4.3-3.7-5.2-4.2c-3.6-2.4-10.7-3.9-19.1-4l-3.9,0l0.1-0.9c0.1-0.8,0.2-0.9,1.4-0.9 c2.1-0.1,9.3-1.2,11-1.7c2.3-0.6,8.4-0.8,11.3-0.4c3.9,0.6,8.4,1.8,13.5,3.8c5.1,1.9,5.7,2.2,9.9,4.5c17.7,9.8,18,9.9,26.9,12.9 c9.4,3.2,13.8,5.3,16.4,8c1.1,1.1,8.3,15.4,12.2,24c0.9,2,1.8,3.8,1.9,4c0.2,0.2,0.3-0.3,0.3-1.1c0-1.7,0.4-2.6,1.4-3.2 c0.4-0.3,3.6-1.6,7.1-3c3.5-1.4,6.4-2.5,6.4-2.6c0,0-1.6-1.6-3.8-3.4c-11.2-9.7-17.6-15.6-19.3-17.8c-3.7-4.9-5.3-11-5.3-20.4 c0-5.6-0.5-8.1-2.5-12c-3.1-6.2-10-13.4-19-19.8c-6-4.2-13.3-8.7-21.3-12.9c-3.8-2-4.4-2.2-3.4-1.1c1.1,1.2,0.1,0.7-1.6-0.8 c-1.3-1.1-3.1-2.2-6-3.6c-2.3-1.1-4.1-2.1-4-2.1c0.1-0.1,1.2,0.3,2.6,0.8c2.7,1,2.7,0.9,0.1-1.1c-2.1-1.7-7.4-6.2-7.4-6.3 c0-0.1,0.2,0,0.5,0.1c0.4,0.1,0.3,0-0.2-0.8c-0.8-1.1-0.9-1-1.5,2l-0.4,1.9l-1-0.8c-1.5-1.3-1.8-2.1-1.8-5.1c0-3.2,0.5-6,1.9-9.9 c1-2.9,4.4-10.5,4.7-10.2c0.1,0.1-0.9,2.6-2,5.7c-2.8,7.3-3.4,9.8-3.6,13.6c-0.1,2.9-0.1,3.2,0.6,4.2l0.7,1.2l0-3.9 c0-3.6,0.1-4.3,1.1-7.9c0.6-2.2,1.7-5.6,2.4-7.7c2.6-7.3,4.1-12,5-15.2c0.7-2.9,0.8-3.9,0.8-7.5l0-4.2l-1.4-4.1 c-1.4-4-1.7-4.4-2-2.7c-0.1,0.7-1.5,3-3.3,5.2c-0.6,0.7-2.2,2.7-3.5,4.5c-1.4,1.8-3.3,4.1-4.3,5.2c-1,1.1-1.9,2.4-2,2.8 c-0.1,0.4-0.9,1.4-2,2.3c-1,0.8-4.1,4.1-7,7.3c-2.9,3.2-7.3,7.9-9.8,10.5l-4.6,4.7l0.8,1.1c1,1.4,5.1,5.3,7.7,7.3 c1.1,0.8,1.9,1.6,1.9,1.7c0,0.1-1.3-0.9-3-2.1s-3.2-2.4-3.4-2.5c-1.4-0.9,6.5,7.3,10,10.3c1.9,1.6,0.6,1-2-1 c-4.1-3.1-8.2-7.4-9.4-9.9c-0.3-0.7-0.7-1.3-0.9-1.4c-0.5-0.3,1.2,3.8,2.8,6.6c0.9,1.6,1.6,3.1,1.6,3.5c0,0.6,0,0.6-0.4,0.1 c-0.5-0.7-0.5-0.3,0,1.4c0.3,0.7,0.4,1.5,0.4,1.7s-0.9-1.5-1.8-3.8c-0.9-2.2-1.8-4.1-1.9-4.2c-0.1-0.1,0,0.6,0.2,1.5 c0.2,0.9,0.4,2.7,0.3,3.9l-0.1,2.2l-0.5-0.8c-0.3-0.4-0.7-1.5-1-2.4c-0.7-2.5-2-5.3-4.2-9.4c-9.8-18.1-25.5-36.7-46.8-55.4 c-2.4-2.1-4.5-3.9-4.6-3.9c-0.1,0-1.9-1.3-4.1-2.9c-2.2-1.6-4.1-2.9-4.2-2.9c-0.3,0-3.3,4-5.4,7.2c-13.1,19.6-19.1,39.5-20,66.3 c-0.2,5.5,0.2,10,0.8,10.2c0.2,0.1,0.3,0.3,0.3,0.5c0,0.2,0.3,0.6,0.6,0.9c1.3,1.2,4.2-0.2,6.3-3.2c1.7-2.4,5-9,6.8-13.8l1.5-3.9 l-0.1-5.1c-0.1-5.5,0.6-19,1.3-25.9c0.7-7.4,1.9-11.9,4.1-16.1c0.9-1.7,3.6-5.3,3.8-5.1c0,0-0.5,1.3-1.2,2.7 c-3.4,7-4.9,14.1-5.2,25.4c-0.1,2.9-0.2,5.8-0.3,6.5c-0.1,0.7,0,1.2,0.1,1.2c0.1,0,0.6-0.6,1-1.2c1-1.6,6.7-8.7,9.2-11.5 c4.2-4.7,5.9-5.1,2.5-0.5c-1.3,1.8-2.9,4.4-4.2,7c-2,4-6.2,14.9-5.9,15.2c0.3,0.3,11.6,1.5,16.8,1.8c3,0.1,5.9,0.4,6.4,0.5 c2.2,0.7,2.1,0.8-2.1,2.2c-6.5,2.3-9.7,3.5-11.5,4.7c-0.9,0.6-1.7,1.1-1.7,1.2c0,0.1,0.4,0.7,1,1.5c1.1,1.6,1.6,2.8,2.6,6.8 c1,3.7,1.7,5.2,3.3,6.6c2.4,2.1,7.3,4,11.5,4.5l1.4,0.2l1.5-2.5c4-6.4,5.9-14,5.5-22.4c-0.2-3.4-0.8-8.8-1.2-10.1 c-0.1-0.3,0-0.5,0.2-0.5c0.4,0,1.9,3.2,2.5,5.5c0.7,2.7,0.5,12.6-0.4,16.2c-1.1,4.8-2.7,8.5-5.1,11.9c-1,1.5-1.2,1.9-0.9,2.1 c0.2,0.1,3.8,0.3,7.9,0.5l7.5,0.3l1-0.7c1.3-0.8,2.2-1.1,2.6-0.9c0.2,0.1-0.4,0.6-1.4,1c-1.1,0.5-1.8,1.1-1.9,1.4 c-0.1,0.3-0.4,0.6-0.8,0.6c-0.3,0-1.2,0.4-2,0.8c-3.8,2.3-8.5,3-19.8,3.1c-6.5,0-8.7,0.1-9,0.4c-0.7,0.6-1.4,2.2-2.1,5 c-0.8,3-1.8,4.6-3.5,5.9c-0.7,0.5-1.2,1-1.1,1.2c0,0.2,1.1,1.1,2.3,2l2.3,1.8L136,187c9.8,0.1,12.1,0,15.1-0.4c2-0.3,4.1-0.4,5-0.3 c0.9,0.1,2,0,2.8-0.2c1.5-0.5,2-0.3,2,0.4c0,1.5-1.1,2.7-3.8,4.2c-1,0.5-1.7,1-1.6,1s1.4-0.3,2.9-0.6c1.5-0.3,2.8-0.5,2.9-0.5 c0.2,0.1-1.4,0.7-3.4,1.4c-2.1,0.7-4.6,1.7-5.6,2.2l-1.8,0.8l7.5,0c5.3,0,9,0.2,12.8,0.6c4.5,0.5,5.6,0.5,7.3,0.2 c1.5-0.3,2.2-0.3,2.7,0c0.6,0.3,0.5,0.4-1.1,0.8c-1,0.3-1.7,0.6-1.6,0.8c0.1,0.2-0.4,0.3-1.2,0.3c-0.7,0-3.2,0.5-5.4,1.2 c-17.5,5.1-31.1,11.4-37.7,17.6c-1.1,1.1-3.3,3.4-4.8,5.3c-1.5,1.8-4.6,5.2-6.8,7.5l-4.1,4.2l3.2-2.2c1.8-1.2,7.5-5.1,12.7-8.6 c7.5-5,9.6-6.4,10.1-6.2c0.6,0.2,0.6,0.2-0.1,0.9c-1.1,1.1-9.1,6.7-20.8,14.7c-12.7,8.6-13.6,9.3-13.5,9.4c0.2,0.2,5-1.9,8.6-3.6 c4.8-2.3,7.5-4,14.1-8.8c8.2-6,11.3-8.1,13.8-9.6c1.2-0.7,2.5-1.6,2.9-2c0.4-0.4,1.5-1.5,2.4-2.3c1.6-1.5,1.7-1.5,2.5-1.2l0.8,0.4 l-0.9,0.2c-0.5,0.1-1.4,0.7-2,1.3l-1.2,1l2.4-1.2c2.3-1.1,3.3-1.4,3.3-0.9c0,0.1-0.9,0.7-2,1.2c-4.1,2-7.5,4.5-15.8,11.3 c-7,5.8-8.1,6.7-11,8.4c-1.3,0.8-2.6,1.6-2.9,1.7c-0.7,0.5,3.5-1.4,4.6-2c0.5-0.3,1.4-0.8,2-1.2c1.6-1,1.2-0.5-1.1,1.3 c-2.8,2.1-4.7,3.2-14.3,8c-4.5,2.3-9.6,5.1-11.4,6.3c-3.1,2-7,5.4-7,6.1c0,0.2,0.8,0,1.8-0.3c2.4-0.7,11.6-3.2,12-3.1 c0.2,0-1.5,0.6-3.6,1.4c-4.1,1.5-9.1,3.5-8.9,3.7c0.1,0.1,4-1.2,8.8-2.8c4.8-1.6,16.2-5.3,25.3-8.1c14.4-4.5,17-5.3,19-5.4l2.3-0.1 l-3.3,1.5c-1.8,0.8-3.8,1.7-4.4,1.9c-0.6,0.2-1,0.5-1,0.7c0.1,0.1-0.4,0.4-1.1,0.6c-2,0.6-12.1,6.2-11.7,6.6c0.1,0.1,1.5-0.4,3.3-1 s3.2-1.1,3.2-1.1c0.1,0.1-8.5,4.2-10.4,5c-1.6,0.6-6.6,4.5-10.7,8.3c-3.5,3.2-4.1,4.2-1.7,2.6c10.2-6.9,23.7-11.1,39.7-12.2 c2.4-0.2,6-0.6,8.1-1c7.5-1.4,10.3-1.6,25.1-1.6c7.6,0,14,0.1,14.3,0.2c0.4,0.2,0.1,0.3-1.4,0.7c-1.6,0.4-3.7,0.6-9.5,0.7 c-7.4,0.2-7.5,0.2-6.4,0.6c0.9,0.4,1.1,0.5,0.7,0.8c-0.2,0.1-6.2,0.4-13.3,0.5l-12.9,0.2l-4.1,1.2c-8.6,2.5-16.4,5.6-25.8,10.2 c-5.8,2.8-10.5,5.4-10.2,5.7c0.1,0.1,1.1-0.2,2.2-0.6c1.2-0.4,3.6-1.1,5.5-1.5c3.3-0.8,3.6-0.8,14.8-0.9 c10.6-0.1,11.9-0.1,17.1,0.5c3.3,0.4,5.4,0.8,5.1,0.9c-0.3,0.1-3.7,0.2-7.6,0.2c-6.9,0-7.2,0-12.2,1c-21,4.2-34.4,10.7-45.8,22.2 c-3.9,3.9-9.7,10.6-9.7,11.2c0.1,0.5-9.5,10.8-13,14c-6.3,5.7-12.4,9.6-19.9,12.5c-6.1,2.4-9.8,3.2-8.7,1.9c0.2-0.2,0.6-0.4,1-0.4 c0.3,0,1.7-0.5,3.1-1c1.4-0.6,3.2-1.3,4-1.6c3-1.1,7.9-3.6,7.8-3.9c-0.1-0.2,0-0.4,0.3-0.5c1.1-0.4,5.5-8.3,12.6-22.6 c7.3-14.7,11.3-21.3,16.4-27.4c2.3-2.7,7.4-7.9,9.9-9.9c0.7-0.6,1.2-1.1,1-1.1c-0.3,0-6.4,2.3-9.4,3.6c-3.8,1.6-10.6,5.2-13.5,7.1 c-5.5,3.6-9.2,7.8-10.5,11.5c-0.7,2.1-1.1,2.3-1.2,0.8c-0.3-3,1.6-9.4,4.1-13.6c4.5-7.8,13.5-17.4,24.8-26.4 c1.8-1.4,3.2-2.6,3.2-2.7c-0.1-0.1-1.3,0.3-2.7,0.8c-1.6,0.5-3.5,0.9-5,1c-1.4,0.1-4.5,0.5-7.1,0.9c-8.3,1.2-10.1,1.4-10.9,1 c-0.4-0.2-0.6-0.4-0.5-0.5c0.1-0.1,1.9-0.7,3.9-1.2c11.3-3.2,22.2-8.8,29.9-15.3c3.2-2.7,11.7-11.3,13.7-13.9 c0.8-1,2.5-3.6,3.9-5.8c1.4-2.2,3.1-4.8,3.8-5.8c1.9-2.6,5.1-5.7,7.8-7.5c2.1-1.4,2.2-1.5,1.4-1.5c-1.8,0-7,0.9-14,2.4 c-4.1,0.9-7.5,1.6-7.7,1.5c-0.5-0.2,4.3-1.6,8.1-2.4c6.7-1.4,25-7.3,25-8c0-0.1-3.1,0.6-6.9,1.5l-6.9,1.6l-4.1-0.2 c-5.3-0.2-8.1-0.8-12.5-2.5c-3.3-1.3-3.7-1.4-6-1.4c-2.9,0-5.2,0.4-7.6,1.2c-1.2,0.4-1.8,0.5-2,0.3c-0.4-0.4,1.5-1.8,3.4-2.6 c1.1-0.4,1.7-1,3.6-3.5c3.5-4.7,5-7.9,5.4-11.4c0.2-2.1-1.1-12.5-1.6-13.1c-0.3-0.3-0.7,0.2-2,2.7c-2.3,4.1-4.8,8.1-7.2,11.4 c-2.7,3.7-2.8,3.8-3.1,3.7c-0.2,0-0.9,0.7-1.8,1.7c-0.8,1-1.7,1.8-1.9,1.9c-1.2,0.5-4.6-1.1-5.6-2.6c-0.3-0.4-0.5-0.7-0.6-0.6 c-0.1,0.1,0,1.4,0.2,2.9c0.3,2.8,0,6.4-0.6,5.8c-0.2-0.2-2.5-12.5-2.8-15.4c-0.1-0.8-0.3-1.6-0.4-1.7c-0.4-0.3-7.5,9.9-7.1,10.2 c0.1,0.1,0.7,0,1.5-0.2c1-0.2,1.7-0.7,2.4-1.4l0.9-1l-0.5,1c-0.3,0.6-0.6,1.1-0.7,1.2c-0.5,0.4-3.4,7-4.3,9.6 c-1.1,3.3-2.2,8-2.7,11.6c-0.3,1.8-0.5,2.6-0.8,2.6c-0.6,0-0.5-4.9,0.2-7.7c1.1-4.6,3.4-10.4,5.4-13.8c0.6-1,1-1.8,0.9-1.9 c-0.1-0.1-0.8,0.1-1.5,0.4c-1.3,0.5-1.5,0.7-2.5,2.7c-3.3,6.6-5.7,15.1-6.2,21.9c-0.1,1.4-0.2,2.9-0.3,3.3c-0.1,0.6,0,0.7,1,0.7 c1,0,3.5,0.5,4.7,1c0.4,0.2,0.4-0.2,0.3-2.7c-0.1-2.6,0-3.1,0.8-5.5c0.9-2.8,4-9.4,4.8-10.4c0.7-0.8-0.3,1.9-2.5,6.7 c-2,4.6-2.6,7-2.5,10c0.1,1.8,0.2,2.3,0.6,2.4c0.6,0.2,0.9,0.9,0.5,1.2c-0.3,0.2-4.6-0.2-6.9-0.6c-0.9-0.2-0.9-0.1-1,0.8l0,1 l-0.5-1c-0.4-0.9-0.7-1-2.1-1.3c-2.6-0.4-9.9,0-13,0.6c-8.5,1.8-13.1,4-26.1,12.6c-9.3,6.1-10.8,7.1-13.7,8.4 c-4.2,1.9-10,3.2-15,3.2c-2.1,0-2.2,0-2.3-0.7c-0.1-0.6,0-0.7,0.4-0.3c0.6,0.5,1.3,0.4,6.3-0.9c5.7-1.5,8.3-3.1,14.2-8.9 c3.3-3.3,5.7-6,10.7-12.4c9.4-12,22.6-22.3,35.2-27.4c2-0.8,2.5-1.2,3.3-2.3c1.9-2.7,7.9-9.5,14.3-16.4l3-3.2v-9.3 c0-10.3,0.6-18.5,1.9-26.4c3.2-19.1,10.6-35.2,22.3-48.2c1.4-1.5,2.4-2.8,2.3-2.9c-0.1-0.1-4.5-3.1-9.7-6.8 c-10.2-7-13.8-9.7-17.8-13c-3.8-3.2-8-7.7-7.5-8.1c0.2-0.2,10.1,4.7,13.4,6.7c3.3,1.9,9.8,6.1,11.6,7.5l1.2,0.9l-0.7-0.9 c-0.4-0.5-3.5-4.1-6.9-8c-13.9-16.2-21-26.1-21-29.5c0-0.7,0.1-1.1,0.4-1.1c0.3,0,9,8.9,17.8,18.4c6.3,6.7,17,18.8,26.7,29.8 c5,5.8,9.3,10.6,9.5,10.9c0.3,0.3,0.9-0.1,3.7-2.3c10.6-8.8,20.8-15.9,32.6-22.6c11.1-6.4,21.7-11.2,35.9-16.3l1.2-0.4l-0.1-5.1 c0-2.8-0.3-7.1-0.5-9.4c-0.5-5.2-0.5-4.9,0-4.9c0.3,0,0.4-0.4,0.4-1.9c0-1.8,0-1.9,0.7-1.9c0.6,0,0.7,0.2,1,2.5 c0.4,3.2,2.9,18.4,3.1,18.8c0.1,0.2,1.3,0,4-0.8c15.6-4.6,32.4-7.5,50.7-8.7c6.5-0.4,23.9-0.4,30.4,0C353.6,34.3,401,55.8,442,96.9 c28.3,28.3,47.3,59.7,57.8,95.5c11.7,39.8,12.2,86.6,1.3,127.2c-11,41.3-34.7,78.8-69.1,109.6c-39.2,35.1-83.3,53.5-136.3,57 C290.6,486.5,271.1,486.5,265.4,486.1L265.4,486.1z M287.7,481.5c0.2-0.2-91.2-148.1-91.5-148.1c-0.2,0-4.5,8.7-5.8,11.6 c-0.5,1.1-1.1,3.1-1.4,4.5c-0.6,2.7-0.6,4.1,0,1.7c0.5-1.9,0.7-2.1,1.6-1.3c1,0.9,1.3,1.5,1.5,2.8c0.1,0.6,0.2,1.2,0.4,1.3 c0.1,0.2,0.4,2.4,0.6,4.9c0.3,4.4,0.3,4.8-0.2,7.5c-0.3,1.5-0.8,3.3-1.1,3.9c-0.3,0.8-0.4,1.3-0.2,1.7c0.2,0.3,0.4,1,0.6,1.4 c0.2,0.4,0.4,0.7,0.6,0.6c0.3-0.2,2.3,0.4,2.3,0.7c0,0.1-0.6,0.5-1.3,0.9c-1,0.5-1.5,1.1-2,2c-0.4,0.7-1.1,1.7-1.6,2.2 c-2,1.9-10.2,5.2-15.9,6.3c-1.4,0.3-3.9,0.5-6,0.5l-3.5,0l16.9,39.4c9.3,21.7,16.9,39.6,16.9,39.9c0,0.7,1,1.1,8.3,3.6 c21,7.2,42,10.9,66,11.8C277,481.8,287.5,481.7,287.7,481.5L287.7,481.5z M297.8,481.3c4.2-0.3,10.3-0.9,14.7-1.5l2.5-0.3v-27.9 v-27.9l-3.3-0.4c-15.5-1.7-28.7-9.9-37.7-23.4c-4.4-6.6-6.9-13.3-8-21.7c-0.5-3.8-0.2-13.4,0.6-17c2.4-11.5,8.3-21.4,17.6-29.4 c1-0.9,1.6-1.6,1.4-1.7c-1.7-1.5-39.2-28-39.6-27.9c-0.3,0-0.5-0.2-0.6-0.4c-0.1-0.3-3-2.6-6.6-5.1l-6.4-4.6l-1.8,1.3 c-7.4,5.2-15.7,13.4-21.2,20.9c-0.8,1.1-2.4,3.2-3.5,4.7c-1.1,1.5-2.5,3.4-3,4.3s-1.8,2.7-2.8,4.1c-1,1.4-2,2.8-2.1,3.1 c-0.2,0.5,6.5,11.6,46,75.4c25.5,41.1,46.5,75.1,46.7,75.4C291.1,481.7,291.7,481.7,297.8,481.3L297.8,481.3z M327.1,477.3 c15.6-3.1,33-8.7,45.9-14.7l1.6-0.7l-0.1-26.3c0-14.5-0.2-29.9-0.3-34.3l-0.2-8l-3.3-2.4c-1.8-1.3-3.4-2.4-3.5-2.4 c-0.1,0-0.5,0.8-0.8,1.9c-1.5,4.2-4.7,9.7-8.2,13.9c-2.4,3-7.6,7.8-10.7,10.1c-5.2,3.7-12.4,6.9-18.5,8.2c-1.2,0.3-3.7,0.6-5.6,0.8 l-3.4,0.4v27.5v27.5l1.1-0.2C321.7,478.4,324.4,477.9,327.1,477.3L327.1,477.3z M195.6,465.3c-0.1-0.2-7.7-18-16.9-39.5l-16.8-39.2 l-2.4-0.4c-3.3-0.5-8.4-1.8-11.2-2.9c-2.6-1-6.3-3.2-8-4.6l-1.1-0.9l-0.1,5c-0.1,2.7-0.2,5.2-0.4,5.5c-0.2,0.4-0.5,0.1-1.5-1.9 c-0.7-1.3-1.5-3.2-1.9-4.1c-0.8-2.1-2.9-4.3-5.2-5.5c-1.8-0.9-4.6-1.7-6-1.7h-1l1.6,2c0.9,1.1,2.1,2.9,2.8,3.9 c1.4,2.4,4.7,11.6,4.5,12.5c-0.1,0.3-0.3,1.8-0.4,3.3l-0.2,2.8l-0.8-2.3c-0.4-1.2-1-3.3-1.3-4.5c-0.4-2.1-0.6-2.4-2.5-4.6 c-2.3-2.7-5.4-5.4-8.9-7.8c-2.3-1.6-7.2-4.4-7.7-4.4c-0.1,0,0.1,0.6,0.4,1.3c1.7,3.7,2.4,10.6,1.5,13.8c-0.6,2-1.8,4.9-2.7,6.5 c-1.5,2.5-1.3,3.1,2.4,7.4c4.2,4.8,17.2,17.9,22.1,22.1c13.3,11.6,26.4,20.9,40.3,28.5c6,3.3,20.1,10,21.1,10.1 C195.6,465.6,195.6,465.5,195.6,465.3z M389.7,454.1c8.3-4.7,14.9-9,23.1-15.2c4.9-3.7,11.6-9.2,11.6-9.5c0-0.1-10.1-7.5-22.5-16.3 L379.3,397l-0.1,3.6c-0.1,2,0,16,0.1,31.2l0.2,27.6l2.9-1.5C384,457.2,387.3,455.4,389.7,454.1z M428.7,425.7 c1.2-1.1,3.6-3.3,5.4-5c3.2-3,3.2-3,2.8-3.8c-0.4-0.7-0.4-5.8-0.4-36l0-35.2l-3-0.4c-12.2-1.4-22.5-6.7-31.4-16.1 c-4.5-4.7-7.9-9.8-10.2-15.4c-4.7-11.1-5.3-25.1-1.4-37c1.2-3.8,4.2-9.8,6.5-12.9c1.2-1.6,1.7-2.6,1.5-2.7c-0.2,0-4.7-0.8-10.1-1.6 l-9.7-1.5l-0.1,1c-0.1,0.6,0.1,31.1,0.2,67.9c0.3,49.4,0.4,66.9,0.7,67c0.2,0.1,10.8,7.7,23.5,16.9c12.8,9.2,23.3,16.7,23.3,16.7 C426.5,427.6,427.5,426.7,428.7,425.7L428.7,425.7z M327.6,417.8c4.2-0.9,7-1.9,11.1-4c9.1-4.5,17.4-12.9,21.7-22 c5.2-10.9,5.9-24.9,1.7-36.4c-3.9-10.8-13.2-21.1-23.8-26.3c-10.8-5.3-24.1-6.2-36-2.2c-13.4,4.4-25.1,16.3-29.5,29.8 c-3.9,11.8-2.8,25.7,2.8,36.4c4.2,8,11.8,15.8,19.9,20.2c4.1,2.2,9.5,4.1,14.4,4.8C313.9,418.8,323.9,418.6,327.6,417.8 L327.6,417.8z M447.7,406.8c19-20.8,34.4-46.1,43.8-72.3c5.6-15.5,10-35.2,11.4-51.3c0.2-1.9,0.4-3.9,0.4-4.4l0.1-0.9l-5.7-0.9 c-8.9-1.4-8.6-1.4-8.2-0.7c0.6,1.1,2.1,7.6,2.4,10.5c0.6,4.8,0.2,13.5-0.7,17.9c-1.4,6.5-3.7,12-7.3,17.4 c-9.3,13.8-23.7,22.5-39.3,23.5l-2.9,0.2v33.7v33.7l2.1-2.2C445,409.6,446.8,407.8,447.7,406.8L447.7,406.8z M373.9,346 c-0.1-24.2-0.3-54.1-0.4-66.4l-0.2-22.3l-34.5-5.4c-19-3-34.5-5.4-34.6-5.3c0,0.1,0.2,0.6,0.6,1.2c0.4,0.7,1.2,1.3,2.3,1.9 c0.9,0.4,1.9,1.1,2.3,1.5c1,1.1,1.7,2.8,1.4,3.2c-0.1,0.2-0.3,0.7-0.3,1.1c0,1.9-3.3,8.1-7.6,14.7c-3.4,5.1-3.9,5.6-7,8.3 c-1.6,1.3-3.4,2.9-4.1,3.6c-1.1,1-1.4,1.2-2.9,1.3l-1.7,0.1l-1.1,2.1c-2.4,4.7-7.3,11.2-12,16c-5.1,5.2-7,6.5-7,4.8 c0-0.3,1-2.6,2.2-5c3.2-6.5,3.7-7.9,4.6-13.1c0.4-2.5,0.9-4.9,1.1-5.3c0.2-0.4,0.3-0.8,0.2-0.8c0,0-0.9-0.2-1.9-0.3l-1.8-0.3 l-0.4,0.9c-1.1,2.2-8.3,8.4-17.7,15.2c-2.3,1.6-4,3.1-3.9,3.2c0.3,0.2,38,27.3,38.6,27.6c0.2,0.1,1.2-0.3,2.3-1.1 c3.1-2,7.1-3.9,10.8-5.1c5.8-1.9,10.3-2.6,17.1-2.6c14.6,0,26.5,5,36.8,15.4c7.2,7.3,12,16.1,14.1,25.9c1.4,6.5,1.3,15.9-0.2,22.5 c-0.4,1.9-0.5,2.5-0.2,2.8c0.4,0.4,5.5,4.1,5.6,4C374.1,390.1,374,370.3,373.9,346z M175,371.7c0.3-2.2,0.3-4.4,0-9.2 c-0.5-10.9-0.7-13-0.9-12.6c-0.1,0.2-0.4,1.6-0.7,3c-1.5,7.7-4.2,16.2-6,18.7l-0.6,0.8l0.9,0.5c1,0.5,5,1.5,6.1,1.6 C174.7,374.6,174.7,374.5,175,371.7L175,371.7z M180.3,372.4c1-0.5,1.9-0.9,2-1c0.4-0.4,1.5-0.8,2.4-0.8c1.1,0,1,0.1,1.8-3.7 l0.1-0.7l-0.9,0.7c-0.7,0.5-0.9,0.9-0.9,1.7c0,0.6-0.2,1.2-0.5,1.4c-0.4,0.3-0.5,0.2-0.9-0.8c-0.6-1.4-0.5-1.4-1.5-0.8 c-0.7,0.4-0.9,0.7-0.9,1.3c0,1-0.7,1.4-1.3,0.9c-0.2-0.2-0.3-0.8-0.3-1.4v-1.1l-1.2,0c-0.7,0-1.3,0.1-1.3,0.1 c-0.1,0.1-0.2,1.4-0.3,2.9l-0.2,2.8l0.9-0.4C178,373.4,179.2,372.8,180.3,372.4L180.3,372.4z M190.5,367.8c0.9-2.7,0.9-3.3,0.9-6.2 c-0.1-3.6-0.7-8.7-1.2-9.2c-0.2-0.2-0.3-0.1-0.3,0.5c0,0.5-0.4,2.4-0.9,4.3c-0.7,2.9-0.9,4.1-1,7.8c-0.1,2.4-0.2,4.6-0.3,4.9 c-0.1,0.3,0,0.5,0.3,0.6C189.4,371,189.5,370.9,190.5,367.8L190.5,367.8z M164.6,368.8c2.8-1.9,3.2-2.5,1.7-2.8 c-0.5-0.1-1.9-0.5-3.1-0.8c-1.8-0.5-2.2-0.5-3-0.2c-0.6,0.3-0.9,0.6-0.9,1.1c0,1.4,1.7,4.5,2.4,4.4 C162,370.5,163.3,369.7,164.6,368.8L164.6,368.8z M184,361c0-1.4,1.5-8.2,2.4-10.9c1.3-3.9,3.1-7.9,7.5-16.8 c5.2-10.5,8.5-15.7,15.3-24.3c3.7-4.6,12.1-13.1,16.2-16.2c1.6-1.2,4.7-3.7,6.9-5.4c4.2-3.3,5.5-4.1,7.6-4.7 c0.7-0.2,1.2-0.5,1.2-0.6c0-0.8-1.3-0.4-5.4,1.7c-6.3,3.1-10.9,6.6-17.4,13.3c-12.6,12.8-17.2,19.2-24.3,33.5 c-6.6,13.3-8.9,19-10.2,26.1c-0.7,3.6-0.7,5.2-0.1,5.2C183.9,361.8,184,361.5,184,361L184,361z M449.4,339.8 c6.4-1.3,12.4-3.8,17.6-7.5c3.5-2.5,9.5-8.4,11.9-12c6-8.4,8.7-18,8.3-29c-0.5-12.6-5.2-22.8-14.6-31.9 c-6.8-6.5-13.7-10.3-22.6-12.2c-4.1-0.9-12.7-1.1-17.2-0.4c-9.9,1.4-18.3,5.7-25.7,13.1c-7.3,7.2-11.2,14.4-13.4,24.5 c-0.8,3.8-0.7,14.7,0.1,18.7c1,4.4,1.9,7.1,4,11.3c2.2,4.3,4.9,8.2,8.5,11.8c7.9,8.1,16.4,12.5,27,14 C437.4,340.8,445.3,340.6,449.4,339.8L449.4,339.8z M277.5,288.3c1.4-2,3.3-3.4,5.4-4.1c0.5-0.1,0.2,0.1-0.6,0.6 c-1.9,1.2-3.3,3-4.8,6c-1.4,2.9-2.8,6.5-2.5,6.5c0.2,0,5.8-6.6,7.4-8.7c1.1-1.4,3.4-5.2,3.4-5.5c0-0.1-1-0.3-2.2-0.4 s-3.3-0.3-4.5-0.5c-1.2-0.2-2.3-0.3-2.4-0.2c-0.1,0.1-0.4,1.9-0.7,4c-0.6,4.2-1.8,9.7-2.5,11.6c-0.2,0.7-0.4,1.3-0.4,1.5 c0,0.2,0.8-1.9,1.7-4.5C275.9,291.6,276.8,289.4,277.5,288.3L277.5,288.3z M254.3,294.2c1.9-1.6,3.9-3.2,4.5-3.7 c1-0.9,1-0.9-1.2,0.3c-2.7,1.4-3.1,1.4-3.1,0.4c0-0.9,1.6-2.7,4.6-5.2c3.8-3.2,3.9-3,0.3,0.6c-1.9,1.9-3.5,3.5-3.5,3.7 c0,0.5,2.7-0.6,4.1-1.6c0.8-0.6,2.5-2.3,3.7-3.7c1.2-1.4,2.3-2.7,2.4-2.7c0.5-0.2,0.2,0.5-1,2.1c-0.7,0.9-1,1.5-0.7,1.3 c1.6-1.2,5-4.5,4.9-4.6c-0.2-0.2-10.8-2.3-11.5-2.4c-0.3,0-0.6,0.5-1,1.7c-0.7,2.3-3.2,7.9-6,13.5c-1.3,2.5-2.3,4.7-2.3,4.7 C248.7,298.8,250.2,297.6,254.3,294.2L254.3,294.2z M249.5,291.3c2.3-4.5,3.3-6.8,3-6.7c-0.8,0.4-6,0.5-7.1,0.2 c-1-0.3-1.2-0.2-4.8,1.9c-2,1.2-4.2,2.6-4.8,3l-1.1,0.7l5.4,3.9c3,2.2,5.5,3.9,5.6,3.9S247.6,295.1,249.5,291.3L249.5,291.3z M250,282.8c2-0.4,2.8-0.4,3.3-0.2c0.6,0.3,0.7,0.2,1.2-0.9c0.9-2.2,1.3-3.4,1.1-3.6c-0.2-0.2-9.4-2.4-10.1-2.4 c-0.3,0-1,0.6-1.5,1.3c-0.6,0.7-1.2,1.2-1.4,1.1c-0.2-0.1,0.2-0.7,0.8-1.4c0.6-0.7,0.9-1.3,0.8-1.4c-0.1-0.1-2.1-0.6-4.3-1.1 l-4.1-0.9l-1,0.9c-1.4,1.2-1.8,1.1-1-0.1c0.4-0.6,0.6-1.1,0.5-1.1c-0.1-0.1-1.9-0.5-4.1-1c-2.6-0.6-4.2-0.8-4.5-0.6 c-0.9,0.5-2.9,2.9-2.9,3.5c0,0.6,0.1,0.6,4,0.5c2.2-0.1,4.1-0.2,4.2-0.4c0.4-0.5,1.4,1,1.9,2.8c0.4,1.6,0.5,1.7,1.2,1.5 c0.4-0.1,1.9-0.2,3.4-0.2c3.2,0,4.8,0.7,6.2,2.4c1,1.3,2.5,2.1,3.3,1.9C247.1,283.4,248.6,283.1,250,282.8z M289.4,279.6 c-0.4-0.3-1.5-0.4-4.3-0.4c-2.1,0-3.7,0.1-3.6,0.1c0.3,0.3,3.6,0.6,6,0.7C289.8,280.1,289.9,280,289.4,279.6L289.4,279.6z M503.9,270.4c0.5-11,0.2-25.7-0.9-36.5c-3.5-35.8-15.3-69-34.7-97.9c-3.3-5-6.5-9.3-6.8-9.3c-0.2,0-41.6,16.4-42.2,16.8 c-0.2,0.1,0.2,1,1.2,2.7c5.7,8.9,8.2,18.3,7.9,29.6c-0.3,8.5-1.7,14.3-5.1,21.3c-2.5,5.1-5,8.6-9.1,12.9c-3.7,3.8-6.8,6.4-10.4,8.7 c-6.7,4.2-13.8,6.5-22.2,7.3c-1.8,0.2-3.3,0.3-3.3,0.4c0,0,0.1,6.6,0.1,14.7l0.1,14.6l5.2,0.8c2.8,0.4,7.9,1.2,11.2,1.8l6.1,1 l2.6-2.5c8.1-7.9,16.7-12.4,27.2-14.4c3.6-0.7,14.7-0.8,18.1-0.2c7.8,1.4,13.9,3.8,20.5,8.2c2.4,1.6,4.3,3.2,7.5,6.5 c4.8,4.8,7.3,8.1,9.8,13c1.5,2.8,1.7,3.1,2.5,3.3c3,0.6,13,2.1,13.7,2.1l0.9,0L503.9,270.4z M122.9,255.8c3.9-1.4,3.9-1.4,7.4-3.9 c1.3-1,2-1.6,1.6-1.5c-1.2,0.3-13.5,6.5-13.9,7c-0.3,0.4-0.3,0.4,0.5,0.1C118.9,257.3,120.9,256.5,122.9,255.8L122.9,255.8z M306.6,256.2c0.4-0.3,0.5-1.9,0.1-2.4c-0.3-0.5-1.5-0.7-2.1-0.4c-1,0.5-1,1.4-0.2,2.5C305.2,256.9,305.7,256.9,306.6,256.2 L306.6,256.2z M373.3,240.3l-0.1-14.3l-2.5-0.2c-14.8-1.2-29-9.9-38-23.4c-3.4-5-6.3-12.2-7.4-18.2c-0.3-1.6-0.7-3-0.8-3 s-11,4.3-24,9.5l-23.7,9.5l0.1,7.1c0.1,5.2,0.3,7.6,0.6,9c1.4,5.5,4.2,10.3,8.4,14.4c1.5,1.4,5.4,4.9,8.7,7.8 c5.3,4.6,6.2,5.2,7,5.2c0.5,0,16.8,2.5,36.3,5.5c19.5,3.1,35.4,5.6,35.5,5.5C373.4,254.7,373.4,248.2,373.3,240.3L373.3,240.3z M179.1,253.2c-0.8-0.1-2.1-0.1-2.9,0c-0.8,0.1-0.2,0.1,1.4,0.1C179.1,253.3,179.8,253.3,179.1,253.2L179.1,253.2z M385.6,220.4 c9.1-1.8,16.4-5.7,23.3-12.3c9.6-9.2,14.1-19.4,14.5-32.5c0.2-5.6-0.2-9-1.4-13.7c-3.8-14.9-16.3-28.2-31-32.8 c-9.3-3-20.6-2.9-29.9,0.2c-13.3,4.4-25,16.2-29.4,29.4c-2.5,7.4-3.1,16.1-1.7,24c2.2,12.8,10.4,24.6,22,31.8 c5.8,3.6,10.9,5.3,19.7,6.6C374,221.4,382.6,221,385.6,220.4L385.6,220.4z M223.9,215.2c0-1.4,0.2-2.8,0.5-3.8 c0.6-1.8,0.8-1.6-2.3-2.9c-5.3-2.2-15.7-4.8-20.6-5.1l-2.9-0.2l3.5,1.6c5.6,2.5,11.6,6,16.2,9.3c1.1,0.8,2.9,1.9,3.8,2.4 c1,0.5,1.7,0.9,1.7,1C223.9,217.5,223.9,216.4,223.9,215.2L223.9,215.2z M300.8,187.8l23.6-9.4l0-4.4c0-9.1,1.6-16.2,5.4-23.6 c2.4-4.7,5-8.4,8.9-12.4c3.5-3.7,5.9-5.6,9.4-8c14.4-9.6,34.7-10.9,50.8-3.3c5.8,2.7,13,8.3,17,13c0.8,1,1.6,1.7,1.7,1.6 c0.2-0.1,9.6-3.8,21-8.3c11.4-4.5,20.9-8.3,21.1-8.4c0.2-0.1-0.8-1.6-2.6-3.9c-24.4-30.5-55.6-54.7-88.5-68.7l-4.6-1.9l-2.8,2.7 c-1.5,1.5-26.8,26-56.1,54.6c-29.3,28.5-55,53.4-56.9,55.4l-3.6,3.6l1,0.5c2.7,1.5,10.9,7.1,14,9.6c8.3,6.7,14.6,14.3,16.2,19.7 c0.3,1.1,0.5,1.2,1,1.1C277,197.3,287.8,193,300.8,187.8L300.8,187.8z M143.4,195.8c-0.1-0.1-0.3-0.1-0.6,0 c-0.2,0.1-0.2,0.2,0.2,0.2C143.3,196,143.5,195.9,143.4,195.8L143.4,195.8z M93.4,165.5l1.9-1.5l-1.1-0.2c-0.6-0.1-1.3-0.5-1.7-0.8 c-0.9-0.9-1.3-0.2-1.3,2.1c0,1.1,0.1,2,0.1,2C91.5,167,92.4,166.3,93.4,165.5L93.4,165.5z M301.7,107.1 c32.7-31.8,59.4-58,59.3-58.1c-0.4-0.4-9-3.3-14.2-4.9c-27.6-8.3-58.1-11.1-89.3-8.3c-12.1,1.1-25.6,3.5-37.4,6.7 c-6.5,1.8-8.3,2.4-8.3,2.9c0,0.3,0.7,4.5,1.6,9.5c1.6,8.8,2.3,15.3,3.4,30.7c0.2,2.2,0.5,5.3,0.7,6.8c0.4,2.6,0.7,3.5,2.3,7.7 c2.4,6.2,1.4,14.6-3.4,29.9c-3.4,10.6-4.1,13.5-3.9,14.6c0.3,1.3,1.7,2.7,7.7,7.8c2.7,2.3,5,4.3,4.9,4.5c0,0.2,2,1.2,4.4,2.3 c2.5,1.1,6.2,2.8,8.3,3.9s3.9,1.9,4.1,1.9C242.1,165,269,138.9,301.7,107.1L301.7,107.1z M91.6,161.8c0-0.2-0.1-0.4-0.3-0.5 c-0.2-0.1-0.3,0-0.3,0.3c0,0.2,0.1,0.5,0.3,0.5S91.6,162,91.6,161.8z M187.6,123.5c3.9-4.5,8.5-9.7,10.3-11.5l3.2-3.2l0.5-2.3 c0.9-4.4,4.5-31.6,4.8-35.9c0.4-5.4,0.7-23.9,0.5-23.9c-0.4,0-8,2.8-11.9,4.5c-16.7,7-31.9,15.7-46.5,26.7 c-5.8,4.4-11.7,9.2-11.7,9.6c0,0.4,4.5,5.5,4.8,5.5c0.2,0,2.2,1.7,4.5,3.7c2.3,2,4.8,4.2,5.6,4.7c2.5,1.8,7.7,6.9,10,9.7 c5,6.1,7.5,9.4,8.9,11.7c0.8,1.3,2.1,3.3,2.9,4.4c0.8,1.1,2.1,3.1,2.9,4.6l1.4,2.6l1.3-1.4C179.9,132.3,183.7,128,187.6,123.5z M103.7,402.8c-0.3-0.4-0.3-0.4,0.1-0.4c0.3,0,0.5,0.2,0.5,0.4s0,0.4-0.1,0.4C104.2,403.3,103.9,403.1,103.7,402.8z M84.7,362.9 c-0.7-3.5-0.7-5.6,0-9.1c0.4-1.9,0.7-3.3,0.8-3.3s0,0.9-0.2,1.8c-0.5,2.9-0.7,7.3-0.3,9.6C85.3,364.6,85.1,365.2,84.7,362.9 L84.7,362.9z M85.5,349.8c0-0.3,0.1-0.4,0.2-0.2c0.1,0.2,0.1,0.5,0,0.6C85.6,350.2,85.5,350.1,85.5,349.8L85.5,349.8z M76.8,345.2 c0-0.5,0.3-1.6,0.7-2.4c1.3-2.5,8.5-11.5,8.5-10.7c0,0.2-1.1,1.9-2.5,3.8c-3.1,4.4-4.7,6.9-5.1,8.4c-0.2,0.6-0.4,1.3-0.4,1.5 c-0.1,0.2-0.4,0.4-0.7,0.4C76.9,346.2,76.8,346,76.8,345.2L76.8,345.2z M81.8,344.3c0.4-3.8,5.2-10.7,14.9-21.4 c7.5-8.3,13.1-13.5,16.3-15.1l1.5-0.7l-1,0.8c-13.8,11.1-23.6,22.3-30.1,34.4C81.7,345.7,81.7,345.7,81.8,344.3z M73,333.6 c0.2-0.3,1.2-1.6,2-2.8c0.9-1.2,3.1-4.2,5-6.7c1.8-2.5,3.8-4.9,4.3-5.4l1-0.9l-0.7,1.2c-1.9,3.3-5.2,8.1-6.8,10 C76.1,331.1,72.1,334.9,73,333.6z M80.8,332.3c0-0.2,0.3-0.6,0.6-1c0.4-0.5,0.6-0.6,0.6-0.2c0,0.3-0.3,0.7-0.6,1 C81.1,332.4,80.8,332.5,80.8,332.3z M82.8,328.7c0.3-0.5,1.4-2.4,2.4-4.1c3.6-6.3,15.3-24.2,15.8-24.2c0.2,0-1.8,3.8-3.2,6.3 c-1.9,3.2-15,23-15.3,23C82.4,329.6,82.6,329.2,82.8,328.7z M66.9,318.3c0.8-1.5,2.6-4.9,3.9-7.6c2.4-4.8,2.5-5.1,4.5-12.8 c2.8-11.1,4.2-14.3,7.6-17.8c1.5-1.5,3.5-3.2,3.5-2.9c0,0.1-0.8,1-1.7,2.2c-2.1,2.6-4.1,5.9-5.4,8.9c-0.5,1.3-2.2,6.1-3.6,10.8 c-3.1,10.2-4.9,14.4-7.6,18.4c-1.1,1.7-2.1,3.1-2.3,3.2C65.6,320.9,66.1,319.8,66.9,318.3z M102.5,311c0.5-1.6,2.5-5.6,4.1-8 c6.7-10.4,18.9-19.6,32.3-24.4c3.4-1.2,11-3.3,13.3-3.6c0.7-0.1-0.4,0.3-2.5,1c-14.9,4.5-26.8,11.2-36,20.4 c-4.7,4.6-7.8,8.7-10,13.2C102.6,311.6,102.1,312.3,102.5,311L102.5,311z M105,294.7c3.8-3.5,7.4-6.5,9.4-8 c2.2-1.6,6.9-4.2,7.1-3.9c0.1,0.1-0.6,0.5-1.4,0.9c-3.2,1.7-6.3,4-11.2,8.2c-2.8,2.4-5.2,4.4-5.4,4.4 C103.4,296.3,104.1,295.6,105,294.7z M60.3,283.9c0-3.2,4.5-9.3,13.6-18.7c5.7-5.8,9.6-9.2,12.2-10.6c3-1.6,2.7-0.8-1,2.1 c-9.7,7.7-18.3,17.1-22.6,24.8C60.8,284.4,60.3,285,60.3,283.9z M122.3,282.4c0.2-0.2,0.6-0.3,0.7-0.3c0.2,0,0.1,0.1-0.1,0.3 c-0.2,0.2-0.6,0.3-0.7,0.3C122,282.7,122.1,282.5,122.3,282.4z M60.4,261.2c0.7-0.8,7-5,10.9-7.2c3-1.7,6.4-3.1,6.4-2.7 c0,0.1-0.2,0.3-0.5,0.4c-0.2,0.1-3,1.9-6.2,3.9c-5.7,3.7-7.9,5-10,5.7l-1.2,0.4L60.4,261.2z M111.5,252.3c0.2-0.1,0.5-0.1,0.6,0 c0.1,0.1-0.1,0.2-0.4,0.2C111.4,252.5,111.3,252.4,111.5,252.3L111.5,252.3z M293.9,248.8c-1.6-1.5-4.7-5-4.5-5.2 c0.1-0.1,0.7,0.5,1.4,1.3c0.7,0.8,2,2.2,2.9,3.2C295.6,250.1,295.7,250.5,293.9,248.8z M128.4,247.2c0-0.1,1.2-0.9,2.7-2 c8-5.6,15.9-9.4,23.7-11.4c5.4-1.4,9.3-1.9,16-2c3.4-0.1,5.7,0,5.1,0c-0.6,0.1-3.2,0.3-5.8,0.6c-8,0.8-15.6,2.4-21.9,4.7 c-3.8,1.4-10.8,4.8-15.8,7.9C130.1,246.2,128.4,247.2,128.4,247.2L128.4,247.2z M284.4,243.2c-3-4.5-4-6.3-3.4-6.3 c0.3,0,5.7,8.9,5.5,9.1C286.5,246.1,285.6,244.8,284.4,243.2z M156.7,244.5c2.7-1.3,6.4-2.6,9.4-3.3c1.3-0.3,2.6-0.7,2.9-0.8 c0.9-0.3,0.3,0.4-0.9,1c-2.4,1.2-12,4.2-13.2,4.1C154.7,245.5,155.6,245.1,156.7,244.5z M68.7,242.8c-1-0.2-0.8-0.5,1.2-1.2 c3.3-1.3,8.4-4,12-6.3c5.2-3.4,9.3-7.2,14.5-13c7.7-8.7,10.3-11,16.1-14.3c2.7-1.6,3.8-1.9,1.7-0.4c-3.9,2.6-10.3,8.3-21.4,19.2 c-10.5,10.3-13.9,13.1-18,15.2C72.9,242.7,70.4,243.1,68.7,242.8L68.7,242.8z M289.8,241.3c-1.3-1-5.9-6.4-5.6-6.7 c0.1-0.1,0.5,0.1,0.8,0.4c1.1,1,6.1,6.8,6,6.9C290.9,242,290.4,241.7,289.8,241.3L289.8,241.3z M97.9,233.9c0-0.1,0.4-0.3,0.9-0.6 c0.5-0.2,0.9-0.4,0.9-0.3c0,0.1-0.4,0.3-0.9,0.6C98.3,233.8,97.9,233.9,97.9,233.9L97.9,233.9z M279.8,232.4 c-2.9-3.1-4.8-5.4-4.7-5.5c0.1-0.1,1.6,1.4,3.4,3.4c1.8,1.9,3.2,3.6,3.1,3.7C281.5,234,280.7,233.3,279.8,232.4z M62.1,233.1 l-0.6-0.7l2.2,0c5.7-0.1,11.7-2.9,16.9-7.9c2.7-2.6,4.8-5.1,8.6-10.4c5.9-8.3,10.7-12.1,18.9-14.9c3.3-1.1,8.8-2.3,12-2.6 c2-0.2,1.9-0.1-2.6,1.3c-11.2,3.5-18.2,7.1-23.5,12c-1.2,1.2-4.2,4.6-6.7,7.6c-2.4,3-5.3,6.4-6.4,7.4c-2.5,2.4-6.5,5.1-10.8,7.2 c-2.9,1.4-3.6,1.6-5.4,1.7C62.9,233.7,62.7,233.7,62.1,233.1L62.1,233.1z M100.1,232.6c0.2-0.2,1.2-0.9,2.2-1.6 c4-2.8,7.9-7.2,11.3-12.9c2.3-3.8,4.8-7.6,6.2-9.2c1.6-1.8,4.8-4.3,7.7-5.9c2.4-1.3,3.5-1.6,1.4-0.4c-4.5,2.7-7.9,6-11.2,11.1 c-1.2,1.8-3.1,4.8-4.3,6.6c-2.6,3.9-5.9,7.5-9,9.7C102.2,231.6,99.5,233.2,100.1,232.6L100.1,232.6z M267.6,221.9 c-4.4-2.2-5.5-3.2-2.1-1.9c2.4,1,8.3,4.5,7.2,4.3C272.4,224.4,270.2,223.2,267.6,221.9z M215.8,220.6c-4.6-0.5-8.5-0.9-8.7-1 c-0.8-0.3,4.1-0.2,8,0.3c5.4,0.6,11.7,1.5,10.2,1.5C224.7,221.5,220.4,221.1,215.8,220.6z M272.4,217c-2.6-3.7-4-7-3.5-8.6 c0.2-0.5,0.3-0.2,0.7,1.1c0.3,1,1.4,3.5,2.6,5.7s2,4,2,4C274,219.2,273.3,218.2,272.4,217z M262.4,216.2c-3.9-2.9-5.5-4.2-5.3-4.4 c0.1-0.1,1.6,1.1,3.5,2.5c1.8,1.5,3.8,3,4.3,3.4c0.5,0.4,0.9,0.8,0.9,0.8C265.7,218.6,264.2,217.5,262.4,216.2L262.4,216.2z M252.3,215.9c-0.9-0.4-2.4-1.2-3.2-1.7c-1.6-1.1-3.8-3.3-3.6-3.5c0.1-0.1,2.4,1.2,5.1,2.9c3.4,2.1,4.7,3,4.2,3 C254.4,216.6,253.3,216.3,252.3,215.9L252.3,215.9z M84.9,213.5c0-0.2,0.7-2.2,1.5-4.5c3.6-10,6.1-13.6,13.4-18.9 c4.5-3.3,8.2-7.6,11.3-13.2c1.8-3.1,4.6-7.6,4.7-7.4c0.2,0.2-0.8,3.5-1.7,5.6c-1.3,3.1-4.5,7.8-7.4,10.9c-1.4,1.5-4.2,3.9-6.2,5.5 c-5.8,4.5-7.1,6.2-11.5,15C85.8,212.6,84.9,214.2,84.9,213.5L84.9,213.5z M264.1,207.6c-1.3-2.7-2.3-4.9-2.1-4.9 c0.5,0,2,2.3,3.5,5.2c1.5,3.1,2,4.6,1.4,4.6C266.7,212.5,265.4,210.3,264.1,207.6L264.1,207.6z M270.7,203.8c0-1.3-1-3.7-2.8-6.5 c-3.2-5.1-3.3-5.9-0.2-1.4c1.2,1.7,2.5,3.8,2.8,4.7c0.7,1.6,0.9,4.1,0.4,4.1C270.8,204.7,270.7,204.3,270.7,203.8L270.7,203.8z M256.4,200.2c-0.3-0.4-1.4-1.7-2.4-2.8c-1.1-1.1-1.7-1.9-1.3-1.7c0.7,0.4,4.7,4.7,4.7,5.1C257.4,201.2,256.8,200.9,256.4,200.2 L256.4,200.2z M261.7,196c-3.7-4.5-4.7-5.8-4.5-5.9c0.3-0.3,1.9,1.4,4.6,5c1.6,2.1,2.9,4,2.8,4.1 C264.5,199.2,263.2,197.8,261.7,196L261.7,196z M247.9,186.1c-2.8-2.2-4.9-4-4.8-4c0.9,0,9.9,7,9.9,7.7c0,0.2,0,0.4-0.1,0.4 C252.9,190.2,250.6,188.4,247.9,186.1z M263.6,187.9c-0.8-0.8-1.3-1.4-1.1-1.4c0.3,0,1.6,1.3,2.4,2.4 C265.6,189.7,265.1,189.4,263.6,187.9z M252.3,185c-1.5-0.9-1.9-1.3-1.1-1c1,0.4,2.5,1.4,2.5,1.6C253.6,185.9,253.7,186,252.3,185 L252.3,185z M255.1,184.1c-1.7-1.1-6.7-5-6.6-5.1c0.3-0.3,2.8,1.2,5.4,3.3c2.4,1.9,3,2.5,2.4,2.5 C256.2,184.7,255.6,184.4,255.1,184.1L255.1,184.1z M245.8,178.3c-0.7-0.5-1.7-1.1-2.3-1.4c-0.5-0.3-0.9-0.6-0.8-0.7 c0.1-0.1,1,0.4,2,1.1c1,0.7,2.1,1.4,2.4,1.6c0.3,0.2,0.4,0.3,0.2,0.3C247.2,179.2,246.5,178.8,245.8,178.3z M237.9,176.2 c-4.3-2.6-4.7-3.5-0.6-1.2c3,1.6,5,2.9,5,3.3C242.3,178.8,241.9,178.7,237.9,176.2L237.9,176.2z M254.4,178.1 c-0.4-0.3-0.6-0.6-0.5-0.7s0.6,0.1,1,0.5C255.9,178.7,255.5,178.9,254.4,178.1z M245,172.7c-3.3-2.4-4.6-3.4-4.4-3.4 c0.3,0,7.1,4.9,7.3,5.2C248.2,175,248.1,174.9,245,172.7L245,172.7z M234.3,172.2c-2.2-1.1-4.1-2.2-4.3-2.3 c-0.3-0.3,8.5,3.9,8.8,4.3C239.3,174.7,237.7,173.9,234.3,172.2z M237.7,171c-2.1-1.3-4.9-3.2-4.9-3.3c0-0.3,0.8,0.1,3.5,1.8 c3.3,2.1,3.7,2.4,3.3,2.4C239.4,171.9,238.5,171.5,237.7,171z M228.5,168.2c-4-2.5-8.4-6.1-7.8-6.7c0.2-0.2,8.7,6.2,9.6,7.1 C231.1,169.6,230.5,169.5,228.5,168.2z M232.1,165.6c-4.7-2.4-10.9-6.4-10-6.4c0.4,0,3.3,1.6,7,3.8 C235.9,167.1,237.3,168.3,232.1,165.6L232.1,165.6z M214.9,159.5c-4.8-2-5.6-2.7-1.5-1.3c3.6,1.2,6.7,2.7,6.3,3.1 C219.6,161.4,217.5,160.6,214.9,159.5z M205.6,159.1c-0.8-0.4-1.3-0.7-1.2-0.7c0.2,0,0.9,0.3,1.7,0.7s1.3,0.7,1.2,0.7 C207.2,159.7,206.4,159.4,205.6,159.1z M95.5,155.8c-0.4-5,0-17.8,0.7-22.3c1.7-11.7,4.7-23.6,7.1-28.7c1.7-3.6,2.5-4.1,1.2-0.8 c-3.5,8.9-6,20.9-7.2,34.3c-0.4,4.8-1,16-1,18.9C96.2,159.7,95.7,158.7,95.5,155.8z M212.2,155.7c-3.5-1.8-5-2.9-3.5-2.4 c0.9,0.2,6.4,3.2,6.9,3.8C216.4,157.8,215.7,157.5,212.2,155.7L212.2,155.7z M204.3,155.9c-1.5-0.9-4.6-3.1-5.3-3.7 c-0.2-0.1-0.1-0.2,0.2-0.2c0.5,0,5.8,3.4,6.8,4.4C206.8,157.2,206.1,157,204.3,155.9L204.3,155.9z M204.8,154 c-1.4-0.8-3.5-2-4.5-2.7c-2.7-1.8-8.1-5.9-8-6c0.1-0.1,3.4,2,7.4,4.6c4,2.6,7.5,4.9,7.8,5.1C208.7,155.9,207.1,155.3,204.8,154z M212.9,154.5c-4.2-2-10.3-6.6-10.3-7.8c0-0.2,0.7,0.3,1.5,1c1.2,1.1,3.7,2.8,10.6,7.3C215.6,155.7,214.9,155.4,212.9,154.5 L212.9,154.5z M196.6,153.6c-1.7-0.9-6.5-4.2-6.5-4.4c0-0.1,1.3,0.7,2.8,1.7c1.6,1,3.4,2.1,4.2,2.5c0.8,0.4,1.4,0.8,1.4,0.9 C198.5,154.6,198.6,154.7,196.6,153.6L196.6,153.6z M205.5,153.2c-1.8-1.2-8.2-7.9-7.5-7.9c0.4,0,7.7,7.1,8.2,7.9 C206.4,153.8,206.4,153.8,205.5,153.2L205.5,153.2z M215.8,153.1c-1.5-0.7-5-4.2-3.9-3.9c1,0.3,2.8,1.6,4.3,3.2 C217.6,153.8,217.5,154,215.8,153.1z M102.2,146.7c-0.4-3.7-0.2-14.3,0.4-20.8c0.3-3.6,0.6-6.9,0.6-7.3c0-1,0.8-1.1,1.1,0 c0.3,1.2-0.1,11.6-0.9,21.1c-0.4,4.8-0.8,8.7-0.8,8.8C102.4,148.4,102.3,147.7,102.2,146.7z M205,145.1c-1.2-0.8-1.3-2.8-0.1-6.1 c0.9-2.6,5.8-13.8,6-13.6c0.1,0.1-1,2.8-2.5,6.2s-2.7,6.7-2.9,7.4c-0.4,1.7-0.4,4.6-0.1,5.6C205.8,145.3,205.6,145.5,205,145.1 L205,145.1z M213.7,122.3c1.2-2.7,2-5.8,2.6-10.4c0.3-2,0.5-3.9,0.6-4.3l0.2-0.7l0.3,0.8c0.8,2.3-1.8,13.6-3.6,15.9 C212.8,125,212.8,124.4,213.7,122.3L213.7,122.3z"/></g></svg> 