<?xml version="1.0" encoding="utf-8"?><svg version="1.1" id="Layer_1" xmlns="http://www.w3.org/2000/svg" xmlns:xlink="http://www.w3.org/1999/xlink" x="0px" y="0px" viewBox="0 0 512 512" style="enable-background:new 0 0 512 512;" xml:space="preserve"><style type="text/css"> .st0{fill:#FEFEFE;} .st1{fill:#040404;} .st2{fill:#020202;} .st3{fill:#030303;} .st4{fill:#0B0B0B;} .st5{fill:#0C0C0C;} .st6{fill:#101010;} .st7{fill:#050505;} .st8{fill:#090909;} .st9{fill:#1E1E1E;} .st10{fill:#111111;} .st11{fill:#FCFCFC;} .st12{fill:#175E46;} .st13{fill:#2B5144;} .st14{fill:#888988;} .st15{fill:#FDFDFD;} .st16{fill:#F9FBFB;} .st17{fill:#3C6A5C;} .st18{fill:#2A5C4C;} .st19{fill:#619E89;} .st20{fill:#8FBEAE;} .st21{fill:#9DCFBE;} .st22{fill:#99C3B7;} .st23{fill:#ABCFC3;} .st24{fill:#A4C8BE;} .st25{fill:#D7F0E9;} .st26{fill:#BFEADC;} .st27{fill:#355A50;} .st28{fill:#6FA996;} .st29{fill:#7CB5A2;} .st30{fill:#70AB99;} .st31{fill:#539881;} .st32{fill:#FBFBFB;} .st33{fill:#CBCBCB;} .st34{fill:#484849;} .st35{fill:#D4F1E8;} .st36{fill:#D7D7D7;} .st37{fill:#638579;} .st38{fill:#B2B2B2;} .st39{fill:#707070;} .st40{fill:#676767;} .st41{fill:#9B9B9B;} .st42{fill:#CDCDCD;} .st43{fill:#444444;} .st44{fill:#AFAEAF;} .st45{fill:#797979;} .st46{fill:#185E46;} .st47{fill:#1D5D48;} .st48{fill:#080706;} .st49{fill:#282828;} .st50{fill:#222624;} .st51{fill:#95C4B5;} .st52{fill:#88BFAD;} .st53{fill:#616161;} </style><g><path class="st0" d="M289.6,493.1"/><path class="st1" d="M361.5,353.8c-19.6,21-41.3,39.4-66.9,52.7c-6.8,3.5-14.1,6.2-20.8,9.9c-16.4,9.1-32,7.2-48.7-0.3 c-44.4-19.8-80.3-49.1-106.4-90.2c-0.9-1.4-2-2.6-3-3.8c-17.4-30.6-29.2-63.1-35.9-97.7c-10.6-55.4-4.1-108.8,16.9-160.8 c3.3-8.3,8.1-9.3,15.9-8.4c34.6,4.1,68.7,2.1,101-12.5c12.4-5.6,23.5-12.9,29.9-25.8c2.9-5.9,9.2-6.7,12.6-1.6 c16.3,24.7,42,31.3,68.5,36.3c21.2,4,42.7,4.2,64.1,0.9c7.2-1.1,10.5,1.6,13.2,7.8c23.6,55.5,29.8,112.6,17,171.9 C409.1,277.1,390.6,317.9,361.5,353.8z"/><path class="st2" d="M270.9,447c0.7-8-0.8-15.1-7.9-21.1c8.6,0,17.2,0.1,25.7,0c3.9-0.1,4.1,3,4.9,5.5c4,12.5,8,25,13.4,37.4 c0-14.2,0-28.4,0-42.6c15.4-1,15.4-1,15.4,14.1c0,4.7,0.2,9.3,0.3,14c-0.1,10.4-0.4,20.8-0.2,31.2c0.1,4.1-0.9,5.6-5.3,5.7 c-15.6,0.5-15.5,0.6-20.6-14.5c-2.5-7.5-5.2-14.9-7.9-22.4c-3-2.9-6.3-4.9-10.8-4.5C275.4,450,272.3,450.2,270.9,447z"/><path class="st3" d="M108.9,459.3c1.9-2.5-2.1-8.6,4-8c4.2,0.4,11.4-4.7,12.4,5.3c0.4,4.1,5,2.2,7.7,2.2c5-0.1,2.8-4.3,3.2-6.9 c0.4-2.8-0.2-4.8-3.8-4.7c-6,0.1-12.1,0.1-18.1,0c-1.8,0-4.4,0.6-4.6-2c-0.1-1.7,1-3.7,2.2-5.1c1.7-2,4.2-2.4,6.8-2.4 c7.7,0,15.4-0.1,23.1,0c6.5,0.1,10.1,2.9,10,10.1c-0.3,12.6-0.4,25.3,0.1,37.9c0.2,6.3-3.4,5.7-7.3,5.4c-3.5-0.3-8.9,2.4-8.3-5.1 c0.4-4.4-0.1-8.8,0.1-13.2c0.3-4.3-0.8-6.4-5.8-6.5c-5.2-0.1-6,2.2-5.7,6.5c0.2,3.3-0.2,6.6,0.1,9.9c0.5,5.6,0,9.1-7.5,8.8 c-6.3-0.3-9-1.8-8.3-8.2c0.3-2.4-0.2-4.9-0.3-7.3C109.7,470.3,109.7,464.8,108.9,459.3z"/><path class="st2" d="M460.6,466.1c0,5,0,9.9,0,14.9c0,10.8-0.8,11.4-11.6,10.3c-2.9-0.3-3.8-1.3-3.7-4c0.1-4.7-0.2-9.4,0.1-14 c0.3-4.6-0.5-6.9-6.1-7c-5.5,0-5.6,2.7-5.4,6.6c0.2,3.3-0.4,6.7,0.1,9.9c1,6.9-1.6,8.8-8.5,8.6c-5.9-0.1-7.4-1.8-7.1-7.5 c0.5-9.3,0.2-18.7,0.1-28.1c-0.1-3.3,0.7-5.7,4.4-4.7c3.7,1,10-3.6,10.7,3.2c0.7,6.9,5.1,4.4,8.2,4.4c5.7,0,2.9-4.7,3.3-7.5 c0.7-5.1-3.2-4-6-4.1c-4.9-0.1-9.9,0.1-14.9,0c-2.1,0-4.8,0.9-5.5-2.1c-0.6-2.7,0.9-4.8,3.4-6c1.4-0.7,3.1-1.3,4.7-1.3 c8.2-0.1,16.5-0.2,24.8,0c5.9,0.1,9.1,3.1,8.9,9.3C460.4,453.4,460.6,459.7,460.6,466.1C460.6,466.1,460.6,466.1,460.6,466.1z"/><path class="st3" d="M359.8,491.3c-7.4-0.1-14.8-0.1-22.2-0.3c-9.3-0.3-11-2.1-11.1-11.2c-0.1-7.4-0.3-14.8-0.4-22.2 c-0.9-8.8,5.5-6.2,10.2-6.7c6.4-0.8,5.4,3.5,5.4,7.3c0,6,0.3,12.1-0.1,18.1c-0.3,4.6,1.8,5.5,5.8,5.5c4,0,6.1-0.8,5.8-5.4 c-0.4-6.8,0.2-13.7-0.2-20.5c-0.4-6.9,4.5-4.6,7.8-4.7c3.4-0.1,8-1.8,7.6,4.9c-0.4,8.2-0.4,16.5,0,24.7 C368.7,487.1,365.9,490.3,359.8,491.3z"/><path class="st3" d="M387.8,451.2c0.1,3.8,0.5,7.7,0.1,11.5c-0.5,5.4,0.7,9.8,5.9,12.5c4.3-2.5,6-6.3,5.7-11.5 c-0.4-7.1,0.2-14.3-0.2-21.4c-0.3-6.3,4.1-4.8,7.2-4.5c3,0.3,8.3-3,8.2,4.2c-0.2,8.2-0.3,16.5,0,24.7c0.2,5.4-4.1,7.5-7.1,10.4 c-4.6,4.6-8.5,12.9-14.1,12.5c-4.8-0.3-8.7-8.6-13.7-12.2c-9.9-7.1-6.4-17-6.6-26.3C378,447.8,382.9,447.7,387.8,451.2z"/><path class="st1" d="M480.1,451.6c-0.8,4.8-0.3,7.6,6.1,7.3c23.9-1.1,20.2,1.9,20.3,24.4c0,4.5-2.8,7.3-7.3,7.4 c-9.1,0.3-18.2,0.2-27.2,0.1c-4-0.1-6.9-2.3-7.4-6.4c-0.4-3.4-2.1-8.4,1.2-9.8c3.7-1.6,8.6-0.7,13-0.2c1.8,0.2,0.9,2.8,1.3,4.3 c1,4.6,4.8,2.4,7.4,2.8c2.8,0.4,3.6-1.3,3.9-3.9c1.3-9.8,0.3-11.1-9.2-11.1c-1.1,0-2.2,0-3.3,0c-13.3-0.2-14.3-1.2-14.7-14.7 C469.5,447.8,474.8,450.1,480.1,451.6z"/><path class="st4" d="M465.6,447.5c-2.8-7.5,2.1-9.4,7.7-9.8c7.4-0.5,14.8-0.2,22.3-0.2c4.2,0,8.4,0.2,10.4,5 c0.9,2.3,1.8,5.7,0.2,7.1c-3.6,3-9.8,2.8-12.4,0.9c-7.6-5.7-15.5-2.5-23.3-3C468.8,449.1,467.2,449.1,465.6,447.5z"/><path class="st5" d="M347.4,447.3c-5.5,0-10.9,0-16.4,0c-1.8,0-4,0.6-4.5-2.2c-0.3-2.1,0.6-3.7,2.1-5.1c1.9-1.8,4.3-2.3,6.8-2.3 c7.9-0.1,15.8-0.1,23.7,0c3.4,0,6.7,0.9,8.3,4.2c1.3,2.7,1.7,5.4-2.9,5.4C358.9,447.1,353.1,447.2,347.4,447.3 C347.4,447.2,347.4,447.2,347.4,447.3z"/><path class="st6" d="M373.2,447.2c-0.3-3.1-2.1-7.8,0.7-9c3.7-1.5,8.9-1.5,12.7-0.1c3,1.2,1.2,5.8,0.9,8.9 C382.8,450.7,378,450.4,373.2,447.2z"/><path class="st3" d="M244.3,456c-0.5,0.2-0.6,0.6-0.4,1.1c-2.8,1.5-5.5,3-9.6,5.3c14.6,5.5,9.5,16.8,9.3,25.8 c-0.1,5.6-6.7,1.9-10.2,2.8c-2.7,0.7-4.8-0.1-4.6-3.7c0.2-3.8,0-7.7,0-11.5c0-4.2-3.1-6.1-6.3-6c-2.9,0.1-5.5,2.3-5.3,6.1 c0.1,2.2-0.3,4.4,0.1,6.6c1.5,7.7-2.2,9.1-9.1,8.8c-5.4-0.2-7.1-1.5-6.9-7c0.5-8.8,0.3-17.6,0-26.3c-0.2-5,0.7-7.8,6.6-7.1 c4.7,0.5,10.5-1.4,9.3,6.9c-0.1,1,0.3,2,0.5,3.3c8.4-2.6,12.7-7.5,11.1-16.4c-1.1-5.7,1.2-7.6,7-7.2c5,0.3,9.3-0.2,8.2,7.1 C243.6,448.2,244.2,452.1,244.3,456z"/><path class="st7" d="M176,491c-20.2,0-20.2,0-20.2-20.3c0-3.6,0.4-7.2-0.1-10.7c-1.3-7.9,2.2-9.6,9.5-9.4c5.4,0.2,6.4,2,6.2,6.8 c-0.4,6-0.2,12.1,0,18.1c0.1,2.3-1.6,6.3,3.1,5.9c3.2-0.2,7.4,2.5,8.5-4.3c1.1-6.4,7.5-2.2,11.5-3c3.8-0.8,3.3,2.3,3.4,4.8 c0.4,9.4-1.7,11.8-11.1,12.2C183.2,491.2,179.6,491,176,491z"/><path class="st2" d="M83.4,491.1c-5.5-0.7-14.4,3-18.6-1.3c-4.1-4.3-0.9-13-1.2-19.8c-0.2-3.3,0-6.6,0-9.9c0-8.9,3.6-11.3,12.5-9.2 c3.3,0.8,2.7,2.9,2.7,5c0.1,6.9,0.2,13.7-0.1,20.6c-0.2,3.9,1.1,5.4,5.1,5.2c5.8-0.2,11.5,0.1,17.3-0.1c3.6-0.1,4.7,1.2,4.6,4.8 c0,3.5-1.1,4.9-4.7,4.8C95.6,490.9,90.1,491.1,83.4,491.1z"/><path class="st3" d="M270.7,490.4c0-13,0.1-26.1,0.1-39.1c3.5-3.2,7.8-1.9,11.8-1.7c3.7,0.2,3.9,3,3.8,6c-0.3,9.6-0.3,19.3,0,28.9 c0.2,5.3-1.3,7.9-6.9,6.9C276.6,491,273.4,492.4,270.7,490.4z"/><path class="st8" d="M188,450.9c-7.7-5.5-18.5-3.5-29-3.7c-3.3-0.1-3.5-2-2.7-4.5c1.3-3.6,4.2-5,7.7-5c8.5-0.1,17-0.1,25.5,0 c3.2,0,5.9,1.3,7.5,4.2C200.2,447.6,197.6,450.9,188,450.9z"/><path class="st9" d="M209.6,437.4c3.6,0.4,8.1-1.6,7.9,5.1c-0.3,6.7-4.8,4.7-8.2,4.7c-3.3,0-7.9,2-8-4.7 C201.2,434.9,206.5,438.3,209.6,437.4z"/><path class="st10" d="M71.5,447.2c-4.2,0-8.2,1.2-8.1-5.3c0.2-7.1,5.1-4,8.1-4.3c3.4-0.3,7.7-1.7,7.5,5 C78.9,449.7,74,446.4,71.5,447.2z"/><path class="st11" d="M250.1,20c20,27.3,49.4,34.8,80,39.5c18.9,2.9,37.8,2.9,56.8,0.3c4.1-0.6,7-0.4,9.1,4.2 c46.3,104.7,16,229.8-51.7,297.2c-25.4,25.3-55.5,43-89.2,54.8c-4.7,1.6-8.5,0.4-12.7-1.1C165,386.9,117.5,331.4,94.3,253.9 c-18.7-62.5-16.4-124.3,8-185.1c2.2-5.5,4.6-7.1,10.8-6.4c34.9,4.1,69.2,1.4,101.9-12.6C229.6,43.5,242.4,34.9,250.1,20z"/><g><g><path class="st1" d="M51.1,455.1c8.3-6.3,8.3-6.3,8.5-10.5c0.8-17.8,0.2-18.5-17.8-18.6c-4.7,0-9.3,0-14,0c-7.2,0-14.4,0-22.6,0 c2.4,3.2,7.8,8.2,7.8,10.1c1.7,2.2,0.8,4.8,0.8,7.2c-0.1,5,3.5,4.4,6.2,4c3.2-0.5,9.5,2.8,8.9-3.4c-0.9-9.7,4.8-7.9,10.4-8.3 c6-0.4,5.4,3.4,4.9,6.8c-0.5,3.3,3.2,9-4.6,8.8c-6.9-0.2-13.7,0.1-20.6-0.1c-3.7-0.1-5.4,0.7-5.3,4.9c0.3,10.2,0.1,20.3,0.1,30.5 c0,2.7,0.1,4.9,3.7,4.8c11.5-0.2,23.1-0.2,34.6-0.3c3.3-0.1,6.4-1.6,6.8-4.9c0.7-5.7-0.3-11.6,0.8-17.2 C61.2,461.1,56.1,458.3,51.1,455.1z M44.4,463.4c-0.1,3.3,0,6.6,0,9.8c0,7.5-6.1,11.2-13.3,8.2c-2.1-0.9-1.8-2.4-1.8-4 c-0.1-2.7,0-5.5,0-8.2c0-11.8,0-11.6,11.2-10.5C43.8,459.1,44.5,460.5,44.4,463.4z"/></g></g><path class="st12" d="M257,392.9c-5.3,3.4-10.4,1.4-15.6-0.5c-74.2-27.6-116.1-82.8-134.1-157.9c-12-50.1-8.3-99.2,10.6-147.2 c2.5-6.3,5.2-9.4,12.4-7.9c12.7,2.7,25.8,0.9,38.6,1.5c3.8-0.8,7.6-0.4,11.4-0.6c21.6-1.4,40.6-9.7,58.4-21.2c5-3.3,7.2-3,9,2.8 c3.3,10.7,2.4,21.7,1.1,32.7c-3.8,5.8-10.2,2.4-15,4.4c-21.6,2.2-42,8.3-61.1,18.6c-7.6,4.1-14.2,9.5-19.7,16 c-9,10.5-8.3,21.1,1.4,30.7c8.4,8.4,19.1,11.6,30.1,14.4c4.4,1.4,8.9,2.1,13.3,3.6c-3.8-1.2-7.7-2-11.3-3.8 c-9.1-5.8-17.5-12.2-18.5-24.2c-0.3-3.2-0.4-6.5,1.5-9.5c2.2-2.6,5.1-3.1,8.2-2.4c7.9,1.9,16.1,2.4,24,4.1 c7.7,1.7,15.8,1.1,22.9,5.3c0.4,0.9,0.3,1.8-0.4,2.6c-8.5,2.1-17.1-1.1-24.7,0.3c-2,0.2-0.2,1.5-0.9,0.6c8.5-1.6,16.8-0.5,25.2,0.7 c4.8,4.4,5.1,8.4-0.7,12.2c-3.7,2.5-8.4,1.6-12.1,4.2c1.7-0.7,3.5-1.9,5.5-1.4c2.1,0.9,2.7,2.6,2.7,4.6c0,0.2,0,0.5-0.1,0.7 c-0.5,0.7-0.2,1.2,0.2,0.8c3.3-3.1,6.6-6.4,11.6-6.4c0.8,0.2,1.4,0.5,2,1c2.4,5.1,5.3,10.1,0.8,15.5c-2.1,3.6-3,7.7-4.9,11.3 c-1.4,1.9-3,3.7-3.9,5.6c-0.8,1.1,0.6,1.2,0.4,0.5c-0.3-1.7,1.2-2.7,2.6-3.5c3.3,0.4,4.6,2.8,5.5,5.5c0.3,4.4-2.9,8-3.4,12.2 c1.1-4.6,3.3-8.8,4.6-13.3c0.5-0.7,1.1-1.2,1.8-1.6c4.4,1.1,4.4,1.1,5.8,4.3c0.6-2.9,1.5-5.6,6-2.9c1.9,3.6,1.4,7.5,1.4,11.3 c0,25.2,0.1,50.5,0,75.7c0,4.9,0.7,9.9-2.4,14.3c-1.7,2.4,0.4,3.9,1.3,5.9c2.3,5.1,1.7,10.2-1.1,14.9c-8.2,13.9-10.3,27.9-0.6,42.1 c3.4,5,5.4,10.8,8.1,16.2C255.7,388.2,257.8,390.1,257,392.9z"/><path d="M252.6,44.6c15.2,20.2,37.5,26.8,60.7,31.3c18.7,3.7,37.8,4.3,56.6,1.4c6.5-1,8.6,1.5,10.7,6.6 c25.3,61.2,24.8,122.6,1.9,184.1c-17.7,47.5-47.8,84.9-92.5,109.8c-1.4,0.8-3,1.3-4.5,1.9c-3.4-3.4-1.7-8.3-3.5-12.1 c-2.2-16-3-32.3-10.6-47.2c-2.7-5.4-5.3-10.1-11.5-11.9c-5.9-1.7-8.3-6.1-8.1-11.9c0.8-28.3-2.7-56.6-1.7-84.9c0.1-3,0-6.1,1.8-8.7 c7.5-4.3,16-0.6,23.8-2.7c17-2,33.5-5.5,49.5-11.7c9.3-3.6,17.7-8.7,25.9-14.2c4.4-3,7.7-7.1,10.4-11.5c6.7-10.9,5.5-20.1-3.9-28.8 c-7.2-6.7-17.9-11.3-33.5-14.3c9.5,4.4,16.4,11.2,19.7,21c2.1,6.4,3.2,13-3.6,17.8c-6.7,1.5-13.5,0.5-20.3,0.8 c-15.1-0.3-30.3,1.2-45.3-2.3c-3.3-1.2-4.2-3.8-4.1-7c2.1-7.8,10-7.5,15.4-10.7c5-2.3,10.1-4.5,15.3-6.6c2.4-1.1,4.9-1.9,6.8-3.2 c-1.4,0.3-3,1.6-4.8,2.2c-1,0.3-2,0.8-2.9,1.3c-5.1,1.9-10,4.3-14.9,6.4c-4.9,1.5-9.2,5-14.5,5.5c-4.5-1.8-6.8-5.8-9.4-9.4 c-1.6-4.6,2.7-7.3,3.5-11.1c0.7-1.3,1.6-2.6,2-3.9c-0.6,1.3-1.5,2.6-2.1,4c-1.7,3.1-2.3,6.9-6.3,8.3c-0.8-0.1-1.4-0.5-1.8-1.3 c-0.1-1.1-0.1-2.1,0.1-3.2c-0.5,0.5-0.2,1.4-0.7,1.7c-4.5,2.7-4.9-1.1-5.4-3.8c-1-6.4,0.5-13-1.4-19.3c-0.6-3.6-0.6-7,2.3-9.8 c1-0.8,2.2-1.1,3.5-1.2c2.4-0.1,4.8-0.1,7.2-0.1c-3.9-0.5-7.9,0.9-11.7-1.2c-0.6-0.7-1-1.4-1.3-2.3c-0.4-5.2-0.1-10.5-0.2-15.7 c0.6-7.9-1.4-15.8-0.8-23.7C248.6,49.8,247.5,45.6,252.6,44.6z"/><path class="st13" d="M252.6,44.6c-3.9,6.2-1,13.1-1.7,19.7c-0.5,4.5-0.2,9.2-0.3,13.8c-1.4,5.2-0.1,10.5-0.8,15.7 c-0.5,0.9-1.2,1.2-2.2,1.1c-1.3-10.9,1.7-22-2.4-33c-1.5-3.9-0.9-4-4.5-2c-10.1,5.6-18.7,14.5-31.3,14.7c-1,0-2.3,0.3-3.1,1 c-11.3,9.7-24.8,4.8-37.4,5.4c17.3-3,34.8-5.3,50.8-13c11.3-5.5,21.7-12,27.9-23.4C249.4,41.4,251.1,39.2,252.6,44.6z"/><path class="st14" d="M284.1,368.2c1.9,3.7,1.8,7.6,1.4,11.6c-8.3,7-18.3,10.1-28.4,13.1c-1-1.5-3.4-2.1-3-4.5 c3.2-1.7,6.8-1.2,10.2-2.5C273.2,382.4,281.8,379,284.1,368.2z"/><path class="st15" d="M284.1,368.2c-2,3.9,3.1,10-3.1,12.3c-8.8,3.2-16.2,11.3-26.9,7.9c-4.6-7.7-7.7-16.2-13.1-23.5 c-4.4-6-2.2-14-2.4-21c-0.1-3.3,2.1-7.1,2.1-11c0-2.3,1.1-4,3.2-5.3c5.5-3.5,5.8-11.7,0.7-15.8c-1.6-1.3-4.5-3.2-1-4.5 c5.2-1.9,4.3-5.6,4.3-9.3c-0.1-31-0.2-62-0.3-93c-4.3-2.6-1.7-6.8-2.3-10.2c-0.7-3.9-1.3-7.9-2.1-11.8c-0.4-0.6-0.8-1.2-1.3-1.7 c-0.5-0.5-1-1-1.5-1.5c-3-2.3-6.5-3.9-8.2-7.5c-0.4-0.1-0.7-0.4-1-0.7c-1.4-0.9-2.7-1.9-4.3-2.2c-2-0.2-4.1,0.9-6-0.6 c-0.4-0.7-0.2-1.3,0.5-1.7c6.8-1.6,3.7-6.2,3-10.1c-0.9-1.1-0.9-2.3-0.2-3.5c0.3-0.4,0.3-0.9,0-1.3c-1-1.9-0.3-3.8,0-5.6 c1.1-4.3,4-7.3,7-10.3c1.7-1.3,3.7-2.2,5.5-3.5c2.5-1.3,3.9-3.7,5.6-5.8c0.7-0.3,1.3-0.3,2-0.1c2.8,2.6,3.6-1.1,5.4-1.8 c0.8,0,1.4,0.3,1.8,1c-0.9,4.9,2.8,5.2,6,6c0.6,0.1,1.2,0.2,1.7,0.3c3.2-1.1,1.6,2.6,3.2,3.1c3.5,2,5.5,5.4,8.2,8.3 c1.8,1.3,0.6,3.4,1.4,5c1,2.3-1,5.2,1.7,7.1c1,0.7,1.1,1.7,1,2.9c-0.2,1.1-0.4,2.2-0.7,3.2c-0.7,7.4-5.3,12.2-11,16.3 c-6.5,1.8-9.2,6-8.6,12.7c0.3,3.5,0.4,7.1-0.6,10.5c-0.4,0.7-0.9,1.4-1.2,2.2c0.5,31.8,1,63.6,1.3,95.5c0,4.8,2.3,6.3,6.1,6.9 c7.5,1.1,10.5,6.3,13.5,12.7C281,334.5,283,351.2,284.1,368.2z"/><path class="st16" d="M184.5,180.3c-11.6-1.9-22.3-6-31.2-13.8c-11.4-10.1-12.1-23.4-2-34.9c15.3-17.3,35.9-24.7,57.3-30.4 c7.7-2,15.4-4.1,23.5-3.8c3-0.6,6.1-1.6,8.9,0.7c-0.6,4.7-4.7,4.8-7.9,5.7c-10.6,2.9-21,6.1-30.7,11.3 c-12.9,5.7-23.6,13.9-29.8,26.9c-1.1,1-2,2.2-2.8,3.5c-3.1,15.8,6.4,24.4,18.1,31.7C189.4,181,187.5,181.2,184.5,180.3z"/><path class="st17" d="M244.3,180.3c3.8,7.8,3.6,16.2,3.3,24.6c-3.4-0.1-3.7,3.2-6,5.8c-0.9-3.2-1.2-6.8-5.5-5.7 C235,195.5,239,187.6,244.3,180.3z"/><path class="st18" d="M242.3,178.7c0.2,0.4,0.3,0.9,0.3,1.4c-1.5,9.2-6.4,17.3-8,26.5c-0.7,0.7-1.5,0.7-2.2,0 c-1.5-1.6-3-3.3-4.6-4.9c-1.4-1.6,0.6-2.7,0.7-4.1c1.7-3.5,3-7.2,4.7-10.6C236.1,183.9,234.2,175.8,242.3,178.7z"/><path class="st19" d="M169.9,145.4c-0.4-1.5,0.2-2.5,1.4-3.3c2-1.7,4.4-2.3,6.9-1.7c8.1,1.8,16.7,1.3,24.5,4.8 c1.1,1.7,0.1,2.6-1.3,3.3c-8.2-1.5-16.5-1.7-24.5-4.3C174.4,143.4,172.1,144.1,169.9,145.4z"/><path class="st20" d="M201.4,148.5c0.6-0.6,1.1-1.1,1.7-1.7c7.6-3.7,15.2,0.1,22.8,0.2c0.6,2.1-1.1,3.4-1.8,5.1 C216.6,151,209,149.8,201.4,148.5z"/><path class="st21" d="M224.1,153.5c0.1,1.2,0.1,2.4,0.2,3.5c-9.2-0.8-18.4-1.6-27.7-2.3c0-0.4,0-0.8,0-1.2 C205.8,153.5,214.9,153.5,224.1,153.5z"/><path class="st22" d="M234,206.5c1.7-9.2,4.5-18,8.7-26.4c0.6-0.1,1.1,0,1.6,0.2c-2.7,8.2-5.4,16.5-8.2,24.7 c-0.2,0.5-0.4,1-0.6,1.4C235,207.1,234.5,207.1,234,206.5z"/><path class="st23" d="M242.3,178.7c-6.9-0.5-5.5,6.4-8.4,9.5c-1.5,0.3-2.3,0-1.7-1.7c1.2-2.9,2.3-5.8,3.5-8.8 c-2.4-0.8-2.7,1.6-4.3,1.8c-0.7-2.5,2.9-4.7,0.7-7.2C235.6,174.4,239,176.5,242.3,178.7z"/><path class="st24" d="M227.5,167c2.1,0.8,3.3,2.3,3.6,4.5c-5,1-7.9,5.3-12,7.7c-0.9,0.6-2.3,2-2.6-0.5c-0.1-0.6,0.7-1.4,1.1-2 C219.7,172.2,223.7,169.6,227.5,167z"/><path class="st25" d="M240.8,99.1c-2.5-2.6-5.8-0.8-8.6-1.7c4.8-2.9,10.6,0,15.4-2.6c0.5-0.1,1-0.3,1.5-0.6 c0.6-0.7,1.2-0.7,1.7,0.1l0,0c1,2.1,5.4-1,5,3.2c-1,0.1-1.9,0.2-2.9,0.2c-2.4,0.9-4.6,2.3-7.2,2.8 C243.8,100.7,242.1,100.6,240.8,99.1z"/><path class="st26" d="M184.5,180.3c1.8-0.4,3.4-0.9,3.5-3.2c3.9,1.7,7.8,3.4,11.7,5.1C194.4,182.6,189.3,182.6,184.5,180.3z"/><path class="st27" d="M227.5,167c-1.9,4.6-6,7-9.8,9.7c0-1.8,0.3-3.7-1.6-4.8c-0.4-4.1,3.8-1.7,5-3.5 C223.4,168.5,225.1,166.1,227.5,167z"/><path class="st28" d="M234,206.5c0.5-0.1,1-0.1,1.5-0.1c-1.7,4.8-3.3,9.5-5.4,15.3c-2-6.4,2.5-10.4,2.3-15.2 C233,206.4,233.5,206.4,234,206.5z"/><path class="st29" d="M232.3,186.4c0.6,0.6,1.1,1.2,1.7,1.7c-1.6,3.3-3.2,6.7-4.8,10c-0.6,0.8-1.3,0.8-2.1,0.2 C228.7,194.4,229.5,189.9,232.3,186.4z"/><path class="st30" d="M221.1,168.4c-1.7,1.2-3.4,2.3-5,3.5c-2.4-0.1-4.5,2.2-7.6,1c4.3-2.7,8.2-5.1,12.8-5.8 C221.2,167.6,221.2,168,221.1,168.4z"/><path class="st31" d="M227.1,198.3c0.7-0.1,1.4-0.1,2.1-0.2c-0.4,1.2-0.8,2.3-1.2,3.5c-1.4,2.3-2.8,4.6-4.9,8.1 C223,204.5,225.3,201.5,227.1,198.3z"/><path class="st32" d="M341.4,156.8c4.8-16.5-2.4-28.1-24.1-38.3c1.5-1.7,3.5-1.5,5-1.2c13.2,2,25.7,5.8,36.2,14.6 c11.3,9.4,12.7,21.6,4,33.5c-4.4,6.1-10,10.9-16.4,14.9c-21,12.9-43.9,19.8-68.4,21.7c-3.6,0.4-7.3,1.6-10.7-0.7 c0.2-3.7,3.3-3.7,5.7-4.7c2-0.4,4.1-0.6,6-1.3c15.4-3.9,30.1-9.3,43.2-18.6c5.6-4,10.4-8.7,14.3-14.4c0.9-1.2,1.7-2.4,2.7-3.5 C339.8,158.1,340.9,157.8,341.4,156.8z"/><path class="st33" d="M273.8,158.4c0-0.8,0-1.7-0.1-2.5c15.4,0.4,30.9,0.9,46.3,1.3c0.4,1.2,0.1,2-1,2.6 c-13.9,2.2-27.9,1.1-41.8,0.7C275.8,160.4,274.7,159.6,273.8,158.4z"/><path class="st34" d="M257.5,132.1c-5.1,0.9-7.3-1.4-6.9-6.4c-2.8-6.2-3.6-12.3,0.5-18.3c3.1,7.1-0.1,15,2.4,22.6 c3.3-2.1,2.6-6.1,5.1-8.2C260.2,125.4,257.3,128.6,257.5,132.1z"/><path class="st35" d="M251,107.4c-0.2,6.1-0.3,12.2-0.5,18.3c-0.4,0-0.9,0-1.3-0.1c-3.6-3.8-2.4-8.6-2.4-13 c-0.1-4.6-0.6-9.1-0.9-13.7c2.1-2.1,4.6-1.2,7-1.2C249.3,100.4,251.1,104,251,107.4z"/><path class="st36" d="M267.3,200c3,3.1,7.1,0.4,10.5,1.9c-8.2,2.6-16.7,1.2-25.1,1.8c0-0.8,0-1.7,0-2.5 C257.3,198.5,262.1,196.3,267.3,200z"/><path class="st37" d="M255.7,97.5c-0.7-2.6-4.5-0.3-5-3.2c5.8,0,11.5,0,17.3,0c0,0.7,0,1.3,0,2C263.9,96.7,260,98.4,255.7,97.5z"/><path class="st38" d="M272,148.8c-1.8-1.3-1.1-3.3-1.4-5c4.8-1.8,9.7-3.6,14.5-5.4c1.7-0.4,2.2,0.3,1.8,1.9 C282,143.1,275.4,143.1,272,148.8z"/><path class="st39" d="M286.9,140.2c-0.6-0.6-1.2-1.2-1.8-1.9c4.6-3,9.9-4.6,15.1-6.4c1.7-0.6,2.1,0.2,1.7,1.7 C296.9,135.9,291.9,138.1,286.9,140.2z"/><path class="st40" d="M297,146.9c-4.5,1.2-9.1,2.4-13.6,3.6C286.9,145.4,292.2,147.2,297,146.9z"/><path class="st41" d="M320,158.4c0-0.4,0-0.8,0-1.1c7.1-0.2,14.2-0.3,21.3-0.5c0.2,1-0.1,1.7-1.1,1.9 C333.5,161.7,326.7,162.7,320,158.4z"/><path class="st42" d="M384.6,193.9c-2.5-0.3-3.5-1.4-3.3-3.3c0.3-1.9,1.5-2.9,3.4-2.6c1.9,0.2,2.9,1.5,2.8,3.4 C387.4,193.6,385.7,193.7,384.6,193.9z"/><path class="st43" d="M301.8,133.7c-0.6-0.6-1.1-1.1-1.7-1.7c3.8-1.7,7.6-3.4,11.4-5.1c0.3,0.6,0.5,1.1,0.8,1.7 C308.9,130.3,305.4,132,301.8,133.7z"/><path class="st44" d="M262.4,135.5c-2.1,0-1.7-2.6-3.2-3.1c1.6-2.8,3.2-5.6,4.8-8.4c0.8-0.7,1.5-0.7,2.3,0 C265.6,128,261.6,131,262.4,135.5z"/><path class="st45" d="M266.3,124c-0.8,0-1.5,0-2.3,0c1.2-3.6,3.2-6.7,6.2-10C271,118.6,268,121.1,266.3,124z"/><path class="st37" d="M250.8,94.2c-0.6,0-1.1-0.1-1.7-0.1c0.4-5.4-1.2-11,1.5-16.2C250.6,83.4,250.7,88.8,250.8,94.2z"/><path class="st2" d="M338.5,162.2c-10.3,17-27.3,24.3-44.7,30.8c-4.8,1.8-9.7,3.8-14.9,3.9c-3.4-2.2-5-6.2-8.2-8.7 c-3.2-3.2-7.1-5.9-6.6-11.2c2.2-5.9,9.2-9.2,8.8-16.5c20.6-1.9,41.3-0.5,61.9-0.9C336.5,159.5,338.9,159,338.5,162.2z"/><path class="st46" d="M225.9,147.1c-7.6,4.4-15.2-1.2-22.8-0.2c-10.4-2.5-21.1-3.6-31.8-4.8c5-14.4,16.2-22.3,29.3-28.3 c4.8-2,10-0.5,15-1.9c3.3-1,6.4,2.4,7.9,5.9c1.6,4.3,5.1,7.5,7.3,11.4c1.4,2.5,3.8,4.7,2.1,8C230.1,140.2,226.5,142.6,225.9,147.1z "/><path class="st47" d="M222.7,118.8c-3.4-3.8-3.5-2.7-9.5-2.9c-4-0.1-8.3-1.7-12.6-2.1c10.4-6.8,22.3-9.9,34.2-12.7 c2.1-0.5,4.2-0.7,6-2.1c1.7-0.1,3.3-0.1,5-0.2c4.3-0.1,3.5,3,3.5,5.6c0,7-0.1,14-0.1,21.1c-0.7,1.8,0.7,4.7-2.1,5.4 c-2.6,0.6-2.6-2-3.1-3.6c-1.9-3.2-2-6.8-2.4-10.6c-0.3,3.7,1.7,7.1,1,10.6c1,4.3-2,5.5-5,6.7c-3.5,1.5-4.9-1.1-6.4-3.3 C228.4,126.7,225.3,123,222.7,118.8z"/><path class="st48" d="M264,176.9c2.8,3.4,4.2,8,8.5,10c-0.1,2.4,1.3,3.9,2.7,5.5c2.2,2.5,0.8,4.3-1.4,5.8c-2.2,0.6-4.4,1.1-6.6,1.7 c-4.9,0.4-9.8,0.8-14.7,1.2c-0.1-4.1-0.3-8.1-0.3-12.2C252.2,178.2,252.2,178.2,264,176.9z"/><path class="st49" d="M338.5,162.2c-2.2-3-5.5-2-8.4-1.9c-17.5,0.7-35.1-1.7-52.6,1.4c-1.4,0.3-3.1-0.8-4.7-1.3 c-0.7-1.2,0.1-1.6,1-2c15.4,0,30.8,0,46.2,0c6.7,0.1,13.5,0.2,20.2,0.3C340,160,340.1,161.6,338.5,162.2z"/><path class="st50" d="M253.7,315.1c10.3,0,9.2,8,11.5,13.1c0.6,1.2-0.8,2.7-2.1,3c-0.6,0.1-2.1-1-2.3-1.8 C259.6,324.4,256.2,320.4,253.7,315.1z"/><path class="st51" d="M222.7,118.8c6.2,3.9,7.7,12.4,14.9,15.3c-1.6,1.1-3.1,2.2-4.7,3.2c-1.6-6.2-6.5-10.3-9.6-15.4 C222.7,120.9,220.8,120.2,222.7,118.8z"/><path class="st52" d="M242.6,127.4c-2.9-4.4-1-9.5-1.9-14.2c2.3,4.5,3.7,9.1,3.3,14.2c0,0-0.7-0.1-0.7-0.1L242.6,127.4z"/><path class="st53" d="M273.9,198.3c2.1-2.1,1.9-4.1-0.3-6.1c-1.7-1.4-3.2-3.1-1-5.3c2.4,3.1,5.5,5.8,6.3,9.9 C277.6,198.8,275.8,198.8,273.9,198.3z"/></g></svg> 