<svg version="1.1" id="Ebene_3" xmlns="http://www.w3.org/2000/svg" xmlns:xlink="http://www.w3.org/1999/xlink" x="0px" y="0px"
	 viewBox="0 0 512 512" style="enable-background:new 0 0 512 512;" xml:space="preserve">
<style type="text/css">
	.q2rvz{fill:#AEAFBA;stroke:#5C5D6B;stroke-width:49.8757;stroke-opacity:0;}
	.q3rvz{fill-rule:evenodd;clip-rule:evenodd;fill:#002366;}
</style>
<g>
	<path class="q2rvz" d="M254.5,345.3l147.7-178.2l43.8-52.8c1.7-7.8,3-14.3,3.9-19.1c-15.5-11.3-52.3-37.4-75-46
		C339.4,35.8,299.1,29,255.1,29s-84.3,6.8-119.8,20.3c-22.7,8.6-59.5,34.6-75,46c1,5.1,2.5,12.3,4.3,21l42.1,50.8L254.5,345.3z"/>
	<path fill="#A2A4B0" d="M254.5,345.3l0.5,128.1c0,0,0.1,0,0.1,0.1c25.3-22.7,93.9-86.4,118.7-129.6C407,286,434.6,168.2,446,114.4
		l-43.8,52.8L254.5,345.3z"/>
	<path fill="#C1C2CA" d="M106.9,167.1l-42.1-50.8c11.7,54.6,38.9,170.4,71.7,227.6c24.7,43.1,93.3,106.7,118.6,129.5l-0.5-128.1
		L106.9,167.1z"/>
</g>
<g id="g5003" transform="matrix(1.7381742,0,0,1.7381742,-1537.8133,6.7854429)">
	<path id="path5356" class="q3rvz" d="M1028.8,160.9l-5.5,0.2v-64l5.5-10.1V160.9z"/>
	<path id="path5360" class="q3rvz" d="M1020.5,161.3l-5.5,0.2v-31.9l5.5-7.6V161.3z"/>
	<path id="path5362" class="q3rvz" d="M1012.1,161.7l-5.5,0.6v-30.2l5.5-1.8V161.7z"/>
	<path id="path5364" class="q3rvz" d="M1003.8,162.5l-5.5,0.6v-51l5.5,4.9V162.5z"/>
	<path id="path5366" class="q3rvz" d="M995.5,163.4l-5.5,1v-41.9l5.5,4.5V163.4z"/>
	<path id="path5368" class="q3rvz" d="M987.2,165l-5.5,1.4V96.3l5.5,6.5V165z"/>
	<path id="path5370" class="q3rvz" d="M978.8,167.5l-5.5,2.3v-37.3l5.5,3.2V167.5z"/>
	<path id="path5374" class="q3rvz" d="M1031.9,160.8l5.5,0.2V97.1l-5.5-10.1V160.8z"/>
	<path id="path5376" class="q3rvz" d="M1040.3,161.3l5.5,0.2v-31.9l-5.5-7.6V161.3z"/>
	<path id="path5378" class="q3rvz" d="M1048.6,161.7l5.5,0.6V132l-5.5-1.8V161.7z"/>
	<path id="path5380" class="q3rvz" d="M1056.9,162.5l5.5,0.6v-51l-5.5,4.9V162.5z"/>
	<path id="path5382" class="q3rvz" d="M1065.2,163.3l5.5,1v-41.9l-5.5,4.5V163.3z"/>
	<path id="path5384" class="q3rvz" d="M1073.6,165l5.5,1.4V96.2l-5.5,6.5V165z"/>
	<path id="path5386" class="q3rvz" d="M1081.9,167.5l5.5,2.3v-37.3l-5.5,3.2V167.5z"/>
	<path id="path5001" fill="#002366" d="M1087.4,175.5l-16.7-6.6l-40.3-2.7L990,169l-16.7,6.6l16.7,6.6l40.3,2.7l40.3-2.7L1087.4,175.5z
		"/>
</g>
<path fill="#5C5D6B" d="M474.7,77.5c-2.3-1.7-56.4-42.8-89.5-55.4C346.4,7.5,302.6,0,255.1,0S163.8,7.5,125,22.2
	C92,34.7,37.9,75.8,35.6,77.5l-7.1,5.4l1.6,8.8c1.4,7.6,35.1,186.2,81.2,266.6c32.9,57.3,130.2,141.9,134.3,145.5l9.5,8.2l9.5-8.2
	c1-0.9,25.5-22.1,54.3-50.6c39.2-38.7,66.1-70.6,80-94.9c46.1-80.4,79.8-259,81.2-266.6l1.6-8.8L474.7,77.5z M255.1,473.4
	L255.1,473.4c-25.4-22.9-93.9-86.5-118.7-129.6c-32.8-57.2-60.1-172.9-71.7-227.6c-1.9-8.7-3.3-15.9-4.3-21
	c15.5-11.3,52.3-37.4,75-46C170.8,35.8,211.2,29,255.1,29s84.3,6.8,119.8,20.3c22.7,8.6,59.5,34.6,75,46c-0.9,4.7-2.3,11.2-3.9,19.1
	l0,0c-11.4,53.8-38.9,171.6-72.2,229.5C349.1,387,280.4,450.7,255.1,473.4z"/>
<g>
	<path fill="#002366" d="M400.3,92.4c-3.8,9.7-7.5,19.3-11.2,28.9c-0.4-0.7-0.5-1.4-0.5-2c-1.1-9.6-2.4-19.3-3.3-29
		c-0.3-3.2-1.4-4.7-4.4-5.5c-2.7-0.7-5.2-2-8-3c-7.1,18.3-14.1,36.5-21.2,54.8c4,1.6,7.8,3,11.8,4.6c3.7-9.6,7.4-19.1,11.1-28.7
		c0.3,0.3,0.4,0.5,0.5,0.7c1.3,10.9,2.6,21.8,3.8,32.7c0.1,1,0.5,1.4,1.4,1.8c3.2,1.2,6.3,2.4,9.5,3.6c0.3,0.1,0.7,0.2,1.2,0.3
		c7.1-18.2,14.1-36.4,21.1-54.7C408.2,95.5,404.3,94,400.3,92.4z"/>
	<path fill="#002366" d="M216.7,101.5c5.2,8,10.4,16.1,15.6,24.1c0.3,0.5,1,1,1.5,1c2.3-0.1,4.5-0.3,6.8-0.5c1.6-0.1,3.2-0.3,4.9-0.5
		c0-0.7-0.1-1.1-0.1-1.6c-0.8-9.7-1.7-19.5-2.5-29.2c-0.8-8.9-1.6-17.7-2.3-26.6c-0.1-1-0.6-1.1-1.3-1c-3,0.3-6.1,0.5-9.1,0.8
		c-0.7,0.1-1.4,0.2-2.3,0.3c0.9,10.4,1.7,20.6,2.6,30.8c-0.5-0.4-0.8-0.8-1.1-1.2c-5.4-8.5-10.9-16.9-16.3-25.4
		c-1.3-2.1-2.5-3.1-5.1-2.6c-3,0.5-6.1,0.6-9.4,0.9c1.7,19.5,3.3,38.9,5,58.3c0.9,0,1.6,0,2.3,0c2.9-0.2,5.9-0.6,8.8-0.8
		c1.1-0.1,1.5-0.4,1.4-1.6c-0.4-3.9-0.7-7.8-1-11.7c-0.5-5.9-1-11.8-1.5-17.7c0.1,0,0.2,0,0.3,0C214.9,98.7,215.8,100.1,216.7,101.5
		z"/>
	<path fill="#002366" d="M289.7,69.7c-1.1-1.3-2.3-1.7-3.9-1.8c-8-0.3-16-0.7-24-1.1c-0.9,0-1.9,0-3,0c-0.9,19.5-1.8,38.9-2.7,58.5
		c0.4,0.1,0.7,0.1,0.9,0.1c9.2,0.4,18.3,0.9,27.5,1.3c0.5,0,1.2-0.3,1.6-0.6c1.5-1.2,2.8-2.7,4.3-3.9c2.9-2,3.9-4.5,4-8.1
		c0.3-12.1,1-24.1,1.5-36.2c0-0.6-0.3-1.3-0.7-1.8C293.5,73.9,291.5,71.9,289.7,69.7z M283.2,81.8c-0.3,5.2-0.5,10.4-0.7,15.6
		c-0.2,5-0.5,9.9-0.7,14.9c0,1.2-0.4,1.5-1.6,1.5c-3.6-0.2-7.1-0.3-10.9-0.5c0.5-11.1,1-22.1,1.6-33.1c2.3,0,4.5,0,6.6,0
		c1.5,0,3,0.2,4.5,0.2C283,80.4,283.3,80.8,283.2,81.8z"/>
	<path fill="#002366" d="M181.9,83.5c-0.2-0.6-0.7-1.3-1.2-1.7c-2.8-1.8-5.6-3.5-8.4-5.2c-0.3-0.2-0.7-0.3-0.9-0.4
		c-0.3,0.1-0.5,0.1-0.6,0.1c-6.3,1.5-12.7,3-19,4.6c-0.4,0.1-0.9,0.5-1.1,0.8c-1.8,2.9-3.6,5.7-5.3,8.7c-0.3,0.5-0.4,1.2-0.3,1.8
		c3.1,12.9,6.2,25.8,9.3,38.7c0.1,0.6,0.7,1.3,1.2,1.6c2.6,1.7,5.3,3.4,8,4.9c0.7,0.4,1.7,0.5,2.4,0.4c6-1.4,11.9-2.8,17.9-4.3
		c0.7-0.2,1.4-0.7,1.8-1.3c1.7-2.7,3.4-5.4,5-8.2c0.3-0.6,0.5-1.5,0.3-2.1C188.1,109.1,185,96.3,181.9,83.5z M166,124.9
		c-2.6-10.8-5.2-21.6-7.8-32.5c4.1-1,8-1.9,12.1-2.9c2.6,10.8,5.2,21.5,7.8,32.5C174.1,122.9,170.1,123.9,166,124.9z"/>
	<path fill="#002366" d="M344.3,76.3c-0.3-0.4-0.9-0.8-1.4-0.9c-6.2-1.2-12.3-2.4-18.5-3.4c-0.7-0.1-1.6,0.1-2.2,0.5
		c-2.6,1.7-5.2,3.4-7.7,5.3c-0.6,0.5-1.2,1.3-1.3,2c-2.5,13-4.9,25.9-7.2,38.9c-0.1,0.6,0.1,1.4,0.4,1.9c1.7,2.6,3.5,5.2,5.3,7.8
		c0.5,0.7,1.4,1.2,2.2,1.4c6,1.2,12,2.3,17.9,3.3c0.7,0.1,1.7-0.1,2.3-0.4c2.7-1.7,5.3-3.5,7.9-5.4c0.5-0.4,1-1.1,1.1-1.7
		c2-10.2,3.9-20.5,5.8-30.8c0.6-3,1.1-6,1.7-9.1c-0.1-0.2-0.2-0.6-0.4-0.9C348.2,81.9,346.3,79.1,344.3,76.3z M337.1,88.7
		c-0.7,4-1.5,8-2.2,12c-1.2,6.4-2.4,12.8-3.6,19.4c-4.1-0.8-8.1-1.5-12.3-2.3c2-11,4.1-21.8,6.1-32.9c4,0.7,7.7,1.4,11.5,2.1
		C337.7,87.3,337.2,88.2,337.1,88.7z"/>
	<path fill="#002366" d="M250.8,428.8c-1.7,0.1-3.3,0-5,0c-0.1-0.1-0.1-0.3-0.2-0.4c1.9-1.9,3.9-3.7,5.7-5.7c0.5-0.5,0.9-1.4,0.9-2.1
		c0.1-10.9,0.1-21.8,0-32.6c0-0.6-0.3-1.4-0.8-1.9c-1.7-1.9-3.6-3.7-5.4-5.4c-0.5-0.4-1.2-0.8-1.9-0.8c-5.1-0.1-10.2-0.1-15.2,0
		c-0.7,0-1.5,0.4-2,0.8c-1.8,1.7-3.6,3.5-5.3,5.3c-0.5,0.5-0.8,1.3-0.8,2c0,10.9,0,21.8,0,32.6c0,0.6,0.3,1.4,0.7,1.9
		c1.7,1.9,3.6,3.7,5.4,5.4c0.5,0.5,1.3,0.8,2,0.8c2.6,0.1,5.2,0.1,7.8,0c1,0,1.7,0.3,2.2,1.2c1,1.7,2.1,3.2,3.2,4.8
		c1,1.5,1.8,3.5,3.3,4.3c1.5,0.8,3.6,0.2,5.4,0.2c1,0,1.4-0.3,1.3-1.3c-0.1-2.6-0.1-5.1,0-7.7C252.4,429.2,252.1,428.7,250.8,428.8z
		 M241.6,418.2c-3.4,0-6.8,0-10.2,0c0-9.2,0-18.4,0-27.7c3.4,0,6.7,0,10.2,0C241.6,399.7,241.6,408.9,241.6,418.2z"/>
	<path fill="#002366" d="M124.1,139.8c-6.2-14.2-12.3-28.1-18.4-42.2c-4,1.7-7.7,3.4-11.6,5.1c7.9,18,15.6,35.8,23.5,53.8
		c11.6-5.1,23.1-10.1,34.6-15.1c-1.7-3.9-3.4-7.7-5.1-11.6C139.4,133.1,131.8,136.4,124.1,139.8z"/>
	<path fill="#002366" d="M286.3,414.7c-1.4,0-2.7,0-4.1,0c-1.8,0-3.5,0-5.4,0c0,1.2,0,2.2,0,3.4c-3.6,0-6.9,0-10.2,0
		c0-9.3,0-18.4,0-27.6c3.5,0,6.8,0,10.2,0c0.1,1.1,0.1,2.2,0.1,3.3c3.5,0,6.9,0,10.5,0c0-2.3,0-4.4,0-6.6c0-0.4-0.4-0.9-0.7-1.2
		c-1.8-1.8-3.6-3.7-5.4-5.4c-0.5-0.4-1.2-0.8-1.9-0.8c-5.1-0.1-10.2-0.1-15.4,0c-0.6,0-1.3,0.3-1.8,0.7c-1.9,1.8-3.8,3.7-5.6,5.6
		c-0.4,0.4-0.7,1.2-0.7,1.8c0,10.9,0,21.9,0,32.8c0,0.6,0.3,1.3,0.7,1.8c1.9,2,3.8,3.9,5.7,5.7c0.4,0.4,1.1,0.7,1.6,0.7
		c5.1,0,10.2,0.1,15.4,0c0.6,0,1.3-0.3,1.8-0.7c1.9-1.8,3.8-3.7,5.7-5.6c0.3-0.3,0.7-0.9,0.7-1.3c0.1-1.8,0-3.7,0-5.5
		C287.4,414.9,287,414.7,286.3,414.7z"/>
</g>
</svg>
