<svg id="LOBO" xmlns="http://www.w3.org/2000/svg" xmlns:xlink="http://www.w3.org/1999/xlink" viewBox="0 0 475.6 496"><defs><style>.cls-1,.cls-8{fill:#fff;}.cls-1,.cls-3,.cls-4,.cls-5{stroke:#1d1d1b;stroke-miterlimit:10;}.cls-1,.cls-3{stroke-width:3.99px;}.cls-2{fill:url(#Degradado_sin_nombre_5);}.cls-3{fill:none;}.cls-4{fill:#1d70b7;}.cls-4,.cls-5{stroke-width:5.33px;}.cls-5{fill:url(#Degradado_sin_nombre_35);}.cls-6{fill:#1d0e46;}.cls-7{fill:#1d1d1b;}.cls-9{fill:url(#Degradado_sin_nombre_13);}.cls-10{fill:url(#Degradado_sin_nombre_13-2);}.cls-11{fill:url(#Degradado_sin_nombre_13-3);}.cls-12{fill:url(#Degradado_sin_nombre_13-4);}.cls-13{fill:url(#Degradado_sin_nombre_13-5);}.cls-14{fill:url(#Degradado_sin_nombre_13-6);}.cls-15{fill:url(#Degradado_sin_nombre_13-7);}.cls-16{fill:url(#Degradado_sin_nombre_13-8);}.cls-17{fill:url(#Degradado_sin_nombre_13-9);}.cls-18{fill:url(#Degradado_sin_nombre_13-10);}.cls-19{fill:url(#Degradado_sin_nombre_13-11);}.cls-20{fill:url(#Degradado_sin_nombre_13-12);}</style><linearGradient id="Degradado_sin_nombre_5" x1="313.09" y1="234.38" x2="313.09" y2="29.61" gradientUnits="userSpaceOnUse"><stop offset="0" stop-color="#1d70b7"/><stop offset="1" stop-color="#1d0e46"/></linearGradient><linearGradient id="Degradado_sin_nombre_35" x1="294.18" y1="112.31" x2="135.55" y2="387.05" gradientUnits="userSpaceOnUse"><stop offset="0" stop-color="#1d70b7"/><stop offset="1" stop-color="#1d0e46" stop-opacity="0.9"/></linearGradient><linearGradient id="Degradado_sin_nombre_13" x1="112.62" y1="378.26" x2="112.62" y2="303.3" gradientTransform="matrix(1, 0, 0.12, 1, -4.07, 0)" gradientUnits="userSpaceOnUse"><stop offset="0" stop-color="#1d70b7"/><stop offset="0.7" stop-color="#1d0e46"/></linearGradient><linearGradient id="Degradado_sin_nombre_13-2" x1="170" y1="378.26" x2="170" y2="303.3" xlink:href="#Degradado_sin_nombre_13"/><linearGradient id="Degradado_sin_nombre_13-3" x1="215.27" y1="378.26" x2="215.27" y2="303.3" xlink:href="#Degradado_sin_nombre_13"/><linearGradient id="Degradado_sin_nombre_13-4" x1="262.15" y1="378.26" x2="262.15" y2="303.3" xlink:href="#Degradado_sin_nombre_13"/><linearGradient id="Degradado_sin_nombre_13-5" x1="298.1" y1="378.26" x2="298.1" y2="303.3" xlink:href="#Degradado_sin_nombre_13"/><linearGradient id="Degradado_sin_nombre_13-6" x1="331.19" y1="378.26" x2="331.19" y2="303.3" xlink:href="#Degradado_sin_nombre_13"/><linearGradient id="Degradado_sin_nombre_13-7" x1="78.92" y1="490.98" x2="78.92" y2="351.91" xlink:href="#Degradado_sin_nombre_13"/><linearGradient id="Degradado_sin_nombre_13-8" x1="153.88" y1="490.98" x2="153.88" y2="391.07" xlink:href="#Degradado_sin_nombre_13"/><linearGradient id="Degradado_sin_nombre_13-9" x1="203.23" y1="490.98" x2="203.23" y2="391.07" xlink:href="#Degradado_sin_nombre_13"/><linearGradient id="Degradado_sin_nombre_13-10" x1="263.59" y1="490.98" x2="263.59" y2="391.07" xlink:href="#Degradado_sin_nombre_13"/><linearGradient id="Degradado_sin_nombre_13-11" x1="318.14" y1="490.98" x2="318.14" y2="391.07" xlink:href="#Degradado_sin_nombre_13"/><linearGradient id="Degradado_sin_nombre_13-12" x1="369.73" y1="490.98" x2="369.73" y2="351.91" xlink:href="#Degradado_sin_nombre_13"/></defs><title>madrid_wolves</title><circle id="ARO_DER" data-name="ARO DER" class="cls-1" cx="367.86" cy="219.84" r="102.42"/><circle id="ARO_CENTRAL" data-name="ARO CENTRAL" class="cls-1" cx="243.26" cy="123" r="102.42"/><path id="LUNA" class="cls-2" d="M263,29.61a117.54,117.54,0,0,1,0,204.77,102.41,102.41,0,0,0,0-204.77Z" transform="translate(-17.51 -9)"/><circle id="ARO_CENTRAL_2" data-name="ARO CENTRAL 2" class="cls-3" cx="243.26" cy="123" r="102.42"/><circle id="ARO_IZQ" data-name="ARO IZQ" class="cls-1" cx="107.74" cy="265.62" r="102.42"/><path class="cls-4" d="M403.94,351.31c1.05-3.89,6-21.32,7.72-24.94,1.11-2.3,2.28-4.54,3.5-6.74a34.34,34.34,0,0,1,3.34-6.43,69.24,69.24,0,0,1,6.76-12.71c1.5-2.25,2.68-4.71,4.42-7.8-8.11,1.44-15.59.07-22.56,1.31-.16-.87.17.87,0,0l27.7-5.45a5.66,5.66,0,0,0-3.54-2.08C421.64,284.65,412,283,402.35,281c-8.24-1.64-15-5.82-20.9-12.56a119.07,119.07,0,0,0,41.82-2.65c-21.47-1.53-40.26-7.76-52.82-26.89,17.26-3.87,30.15-14.9,44.08-25.81-4.14-2.8-7.27-5.13-10.6-7.14-15.1-9.09-30.39-17.88-45.37-27.19-12.11-7.53-23.62-16-35.87-23.31a41.51,41.51,0,0,1-13.14-12c-9.24-13-20-24.64-33.47-33.5-9.38-6.17-18.59-12.6-28-18.67-1.42-.9-3.74-.72-5.6-.54-8,.77-15.95,2.06-24,2.46-3.52.18-8-.19-10.57-2.18-13.26-10.17-26.74-20.22-38.83-31.71-12.89-12.24-24.42-25.94-36.3-39.21-6.11-6.82-20.82-10-28-4.34C95.5,23.19,91.46,36,87,46.28c-9,20.72-11.8,41.5-1.64,63,5.07,10.74,8.47,22.31,12.27,33.62,2.66,7.9,1.92,9.48-5.05,14.14-1.82-4.64-4.82-4.75-7-10.34-1.66,4-3.75,7-4,10.14-2.2,23.39-4.25,25,17.35,37.82,7.83,4.64,15.54,9.5,23.6,13.7,13.93,7.27,17.15,23.49,16.14,36.92-.75,10.07-7.39,15.24-16,18.71-1.45.58-2.89,1.2-4.33,1.8l.39,1.44h18.11c-13.46,10.56-24.49,21.83-35.2,33.87,11-7.41,22.08-6.21,34.9-2.23-18.37,6.75-37.11,9.72-50.94,23.28,14.19-2.19,26.94,1.51,39.38,8.22-7,2.08-14.07,3.86-21.2,4.33-12,.79-24.15.52-36.21,1.17-4.79.26-9.52,1.81-15.39,3,13.28,6.63,24.77,12.66,36.53,18.08" transform="translate(-17.51 -9)"/><path id="COLOR_FONDO_LOBO" data-name="COLOR FONDO LOBO" class="cls-5" d="M403.94,351.31c1.05-3.89,6-21.32,7.72-24.94,1.11-2.3,2.28-4.54,3.5-6.74a34.34,34.34,0,0,1,3.34-6.43,69.24,69.24,0,0,1,6.76-12.71c1.5-2.25,2.68-4.71,4.42-7.8-8.11,1.44-15.59.07-22.56,1.31-.16-.87.17.87,0,0l27.7-5.45a5.66,5.66,0,0,0-3.54-2.08C421.64,284.65,412,283,402.35,281c-8.24-1.64-15-5.82-20.9-12.56a119.07,119.07,0,0,0,41.82-2.65c-21.47-1.53-40.26-7.76-52.82-26.89,17.26-3.87,30.15-14.9,44.08-25.81-4.14-2.8-7.27-5.13-10.6-7.14-15.1-9.09-30.39-17.88-45.37-27.19-12.11-7.53-23.62-16-35.87-23.31a41.51,41.51,0,0,1-13.14-12c-9.24-13-20-24.64-33.47-33.5-9.38-6.17-18.59-12.6-28-18.67-1.42-.9-3.74-.72-5.6-.54-8,.77-15.95,2.06-24,2.46-3.52.18-8-.19-10.57-2.18-13.26-10.17-26.74-20.22-38.83-31.71-12.89-12.24-24.42-25.94-36.3-39.21-6.11-6.82-20.82-10-28-4.34C95.5,23.19,91.46,36,87,46.28c-9,20.72-11.8,41.5-1.64,63,5.07,10.74,8.47,22.31,12.27,33.62,2.66,7.9,1.92,9.48-5.05,14.14-1.82-4.64-4.82-4.75-7-10.34-1.66,4-3.75,7-4,10.14-2.2,23.39-4.25,25,17.35,37.82,7.83,4.64,15.54,9.5,23.6,13.7,13.93,7.27,17.15,23.49,16.14,36.92-.75,10.07-7.39,15.24-16,18.71-1.45.58-2.89,1.2-4.33,1.8l.39,1.44h18.11c-13.46,10.56-24.49,21.83-35.2,33.87,11-7.41,22.08-6.21,34.9-2.23-18.37,6.75-37.11,9.72-50.94,23.28,14.19-2.19,26.94,1.51,39.38,8.22-7,2.08-14.07,3.86-21.2,4.33-12,.79-24.15.52-36.21,1.17-4.79.26-9.52,1.81-15.39,3,13.28,6.63,24.77,12.66,36.53,18.08" transform="translate(-17.51 -9)"/><g id="LOBO-2" data-name="LOBO"><path class="cls-6" d="M407.12,294l27.7-5.45a5.66,5.66,0,0,0-3.54-2.08C421.64,284.65,412,283,402.35,281c-8.24-1.64-15-5.82-20.9-12.56a119.07,119.07,0,0,0,41.82-2.65c-21.47-1.53-40.26-7.76-52.82-26.89,17.26-3.87,30.15-14.9,44.08-25.81-4.14-2.8-7.27-5.13-10.6-7.14-15.1-9.09-30.39-17.88-45.37-27.19-12.11-7.53-23.62-16-35.87-23.31a41.51,41.51,0,0,1-13.14-12c-9.24-13-20-24.64-33.47-33.5-9.38-6.17-18.59-12.6-28-18.67-1.42-.9-3.74-.72-5.6-.54-8,.77-15.95,2.06-24,2.46-3.52.18-8-.19-10.57-2.18-13.26-10.17-26.74-20.22-38.83-31.71-12.89-12.24-24.42-25.94-36.3-39.21-6.11-6.82-20.91-7.74-28.06-2.05C95.41,25.49,91.46,36,87,46.28c-9,20.72-11.8,41.5-1.64,63,5.07,10.74,8.47,22.31,12.27,33.62,2.66,7.9.64,13.78-6.32,18.44l-5.74-14.64c-1.66,4-3.75,7-4,10.14-2.2,23.39-4.25,25,17.35,37.82,7.83,4.64,15.54,9.5,23.6,13.7,13.93,7.27,17.15,23.49,16.14,36.92-.75,10.07-7.39,15.24-16,18.71-1.45.58-2.89,1.2-4.33,1.8l.39,1.44h18.11c-13.46,10.56-24.49,21.83-35.2,33.87,11-7.41,22.08-6.21,34.9-2.23-18.37,6.75-37.11,9.72-50.94,23.28,14.19-2.19,26.94,1.51,39.38,8.22-7,2.08-14.07,3.86-21.2,4.33-12,.79-24.15.52-36.21,1.17-4.79.26-9.52,1.81-15.39,3,13.28,6.63,24.77,12.66,36.53,18.08,5.4,2.49,11.46,5.6,17,5.25,10.53-.66,21.9-1.58,31.18-6,22.12-10.6,32.8-30.31,33.9-54.2,1.06-22.93-5.42-44.79-13.86-66a106.26,106.26,0,0,0-20.34-33.06c-3.18-3.45-6.82-6.47-10.25-9.69a3.05,3.05,0,0,0,1.08,3C137.9,206,146.87,217,150.87,230.84c3.44,11.91,5.53,24.26,7.45,36.54A138.22,138.22,0,0,1,160.24,294c-.67,16.37-17.44,28.57-33.31,25,5.3-2.58,10.86-4.69,15.75-7.83,4.74-3.05,8.81-7.17,13.87-11.4-5.53-3.13-9.44-5.61-13.58-7.61s-8.37-3.44-12.59-5.14c15-8.23,20.87-16.45,22.3-29.86-1.59-1.89-3.15-2.89-3.33-4.09a90.23,90.23,0,0,0-12.43-33.35,49,49,0,0,0-13-14.44c-8.66-6.21-18.14-11.31-27.51-16.45-12-6.58-13.79-22-11.74-33.09,2.49,2.13,4.88,5.68,7.93,6.37s6.67-1.51,10.19-2.49a61.16,61.16,0,0,0,2,6.69c1.83,4.52,9.62,7.74,15.13,6.46,4.18-1,7-5.93,6.22-11.59-.48-3.32-1.06-6.87-2.63-9.76-5.93-10.93-11.84-21.92-18.59-32.35C92.58,100,87.17,79.75,93.89,57.5,97.83,44.44,105.46,38,121.83,45.29c4.48,2,8,1.51,10.67-2.61,2-3.09,3.83-6.31,6.21-10.25,4.44,4.86,8.33,9.46,12.59,13.69,9,8.94,18.21,17.62,27.25,26.51C186.43,80.38,194,88.42,202.1,96a12.11,12.11,0,0,0,7.61,2.7c9.45.07,18.91-.8,28.35-.57,8.07.19,15.27,3.35,21.76,8.59l-8.93,2.24c6.67,4.74,13.1,9.12,19.28,13.83a16.62,16.62,0,0,1,4.56,5.8c1.81,3.74-.2,6.39-4.33,6.06a51.75,51.75,0,0,1-5.48-1,5.53,5.53,0,0,0,2.4,2.84c6.71,4.41,13.53,8.65,20.11,13.25,8.68,6.07,10.16,8.87,6.92,18.92-3.86,11.95-.78,22.82,2.86,33.9,1.55,4.72,4.51,7.36,9.52,7.94,21.25,2.45,42.49,5,63.74,7.5l21.38,2.57c-12.75,7.62-25.6,13.49-40.17,14.59-16.44,1.23-32.87,2.77-49.7,4.21l18.6,28.58-.73.53-20.78-11.08-1.37,1.3c8.73,10.8,9.24,23.09,7.31,36.87-2.34-7.09-4.37-13.24-6.6-20L294,293.17l-3.83-11.47v35.95c3.26-3.78,5.41-6.25,8.46-9.77l8.95,33.77c12.92-16.54,13.7-36,15.19-56.22l14.79,13.35,1.63-.76-19.44-53.21c13.81-5.05,28.66-1.49,38,9.79-2.08,0-3.81-.06-5.54,0s-3.36.3-6.17.56c15.52,25.72,33.17,46.67,64.53,47.74-1.18,8.78-2.32,17.31-3.48,26-.47,5.27-.83,10.56-1.28,15.84.47-2.42.89-4.85,1.52-7.19a65.47,65.47,0,0,1,4.29-11.18c1.11-2.3,2.28-4.54,3.5-6.74a34.34,34.34,0,0,1,3.34-6.43,69.24,69.24,0,0,1,6.76-12.71c1.5-2.25,2.68-4.71,4.42-7.8-8.11,1.44-15.59.07-22.56,1.31C407,293.13,407.29,294.87,407.12,294ZM125.72,37.66c-9.4-2.42-9.64-2.83-11-11.36-.54-3.27-1.73-5.7-3.06-10.53,4.64,1.88,10,1.7,12.32,4.64A16.28,16.28,0,0,1,125.72,37.66Z" transform="translate(-17.51 -9)"/><path class="cls-6" d="M141.34,64.07c7.61.65,13.29,5,18.55,9.58,15.54,13.59,29.25,29,39.4,46.94,4,7.1,4.93,16.19,6.21,24.53,2.16,14.07,1.84,14,15.32,17.95a362.86,362.86,0,0,1,37.54,12.81l-7.37.62c6.46,11.85,13.16,23.48,19.21,35.43a114.73,114.73,0,0,1,11.21,38.14c-16.55-21.64-33.69-42.62-54.1-61.57,2.07,14.05,4,27.12,5.93,40.2l-1.71.33c-1.75-5.81-3.3-11.69-5.31-17.42-5.08-14.52-12.23-27.93-24.57-37.52-5.44-4.23-8.14-8.49-8.44-15.52-1-22.7-9.21-43.06-21.72-61.8-4.05-6.07-7.67-12.55-12.48-18-4.27-4.81-9.92-8.41-15-12.55C143.16,65.52,142.25,64.8,141.34,64.07Z" transform="translate(-17.51 -9)"/><path class="cls-6" d="M208.17,282.37v19.14l-1.56.15c-7-15.61-9.7-32.14-9.81-50-7.25,8.41-15.14,14.91-27.15,16.39,11.44-25.61,26.42-48.72,26.91-77.24,8.12,28.56,12.65,58,27,85.19,3-12.39,6.36-23.81,14.33-34.53-10.34,30.37-13.85,59,7.82,85-4.55-.43-17.3-9.93-22.32-17.77C218.15,300.52,213.63,291.9,208.17,282.37Z" transform="translate(-17.51 -9)"/><path class="cls-6" d="M261.91,336.13c1-6.86,1.94-13.72,2.88-20.59a199.38,199.38,0,0,0,2-20.33q-8.41,20.21-16.82,40.41l-1.73-.29c12.29-36.36,5.13-71.27-6.72-105.69,10.64,5.19,16.89,12.08,39.8,44.15,6.5-4.39,8.79-11.51,11.84-18.16-4.89,25.86-12.25,50.84-24.19,74.3-1.36,2.66-3.82,4.77-5.78,7.13Z" transform="translate(-17.51 -9)"/><path class="cls-6" d="M376.52,224.25c-14.09,2.74-27.48,9.57-42.7,6.92.2.88.4,1.75.76,3.37-11.16-3-18.87-10-25.72-18.76,5.86,1,11.77,3,17.59,2.8C343.39,218,359.4,225.34,376.52,224.25Z" transform="translate(-17.51 -9)"/><path class="cls-6" d="M254.83,143.51C240.28,131,219.45,130.06,205.2,117l.74-2c2.5.31,5,1,7.49.87a119.18,119.18,0,0,0,15.34-1.43c2.84-.5,4.84-.06,5.28,2.67,1.45,9.21,8.24,14.17,14.85,19.32,2.34,1.84,4.75,3.59,7.14,5.38Z" transform="translate(-17.51 -9)"/><path class="cls-6" d="M263.77,158.28c5.18-.24,8.72,0,12.06-.67,5.08-1.05,3-5,2.38-9,4.55,2.5,6.78,6,6.91,10.16.05,1.74-2.76,3.57-4.87,6.05,2.52,8.75,3.93,18.73.42,29C277.16,181.42,275.37,168.38,263.77,158.28Z" transform="translate(-17.51 -9)"/><path class="cls-6" d="M315.71,234.84,311,231.75l-3.4,4.7c-1.14-6.39-2.15-12.09-3.49-19.62l13.06,16.67Z" transform="translate(-17.51 -9)"/></g><path id="TRAZO_NEGRO" data-name="TRAZO NEGRO" class="cls-7" d="M117.24,14.33c6,0,12.13,2,15.54,5.78,11.88,13.27,23.41,27,36.3,39.21,3.53,3.36,7.2,6.59,10.93,9.74a102.37,102.37,0,0,1,183.1,59.82A102.42,102.42,0,0,1,411,328c-1.14,3.06-2.85,8.65-4.32,13.68h19.91a10.94,10.94,0,0,1,7.59,3.23,10.75,10.75,0,0,1,3.25,7.53V491.21a8.31,8.31,0,0,1-8.53,8.46h-332a10.91,10.91,0,0,1-7.58-3.23A10.76,10.76,0,0,1,86,488.91l0-119.66a102.42,102.42,0,0,1-3.86-187.56c-3.14-5.28-1.95-11.55-.7-24.82.3-3.14,2.39-6.11,4-10.14l5.74,14.64c4.66-3.12,7.16-7.69,7.43-11.66a19.06,19.06,0,0,0-1.11-6.78c-3.8-11.31-7.2-22.88-12.27-33.62C75.19,87.78,78,67,87,46.28,91.46,36,95.41,25.49,104.72,18.06c3.16-2.51,7.8-3.73,12.52-3.73m0-5.33c-6.26,0-11.88,1.74-15.85,4.9-9.53,7.6-13.9,17.75-18.13,27.56-.38.9-.77,1.79-1.16,2.69C71.32,68.9,70.8,91,80.53,111.58c3.91,8.29,6.89,17.38,9.77,26.17.75,2.29,1.5,4.59,2.27,6.88a13.75,13.75,0,0,1,.84,4.79,6.73,6.73,0,0,1-.39,1.75l-2.5-6.39-4.83-12.32-5,12.23c-.49,1.2-1,2.33-1.59,3.43a23.63,23.63,0,0,0-2.84,8.25c-.16,1.75-.33,3.38-.48,4.9-.77,7.62-1.32,13.07-.24,17.79a107.75,107.75,0,0,0,5.25,193.69l0,116.16A16.41,16.41,0,0,0,96.88,505h332a13.86,13.86,0,0,0,9.84-4,13.7,13.7,0,0,0,4-9.82l0-138.75a16.41,16.41,0,0,0-16.17-16.09H413.83c.47-1.5.89-2.82,1.26-3.95a107.74,107.74,0,0,0-47-209.92,107.7,107.7,0,0,0-188.72-61c-2.38-2.09-4.57-4.07-6.6-6-9.95-9.45-19.3-20-28.34-30.27q-3.82-4.34-7.66-8.63C132.51,11.83,125.22,9,117.25,9Z" transform="translate(-17.51 -9)"/><g id="LETRAS_2" data-name="LETRAS 2"><path class="cls-7" d="M436.92,501.42H88.49A8.12,8.12,0,0,1,82.84,499a8,8,0,0,1-2.42-5.61l0-145.62a6.19,6.19,0,0,1,6.35-6.3h24.69V299.17a6.18,6.18,0,0,1,6.35-6.3H375a8.07,8.07,0,0,1,5.55,2.31l12,11.5a8,8,0,0,1,2.52,5.71v29.09h40.17a8.14,8.14,0,0,1,5.65,2.41,8,8,0,0,1,2.42,5.61l0,145.61A6.19,6.19,0,0,1,436.92,501.42Z" transform="translate(-17.51 -9)"/><path class="cls-8" d="M157.16,315.37v66.16H141.81V315.37h-7.76v66.16H118.7V300h61.56v81.5H164.92V315.37Z" transform="translate(-17.51 -9)"/><path class="cls-8" d="M203,348.64l0,32.89H187.64V300h38.45v81.5H210.75l0-32.89Zm0-33.27V333.3h7.77V315.37Z" transform="translate(-17.51 -9)"/><path class="cls-8" d="M233.47,300h26.46l12,11.5,0,70H233.48Zm15.36,15.34,0,50.82h7.76l0-50.82Z" transform="translate(-17.51 -9)"/><path class="cls-8" d="M297.87,352.48h-3.21v29H279.31V300h39.41l0,52.45h-5.85l8.71,29H306.25Zm-3.21-37.11,0,21.76h8.72l0-21.76Z" transform="translate(-17.51 -9)"/><path class="cls-8" d="M327.3,381.53V300h15.34v81.5Z" transform="translate(-17.51 -9)"/><path class="cls-8" d="M349.39,300h26.46l12,11.5,0,70H349.4Zm15.36,15.34,0,50.82h7.77l0-50.82Z" transform="translate(-17.51 -9)"/><path class="cls-8" d="M117.78,474.21l0-86.41h20l0,86.41H148V387.8h20l0,106.45H87.63l0-145.61h20l-.06,125.57Z" transform="translate(-17.51 -9)"/><path class="cls-8" d="M227.9,494.25H177.68V387.8h50.22Zm-20.06-20,0-66.38H197.73l0,66.38Z" transform="translate(-17.51 -9)"/><path class="cls-8" d="M237.53,387.8h20v86.41H277.1l0,20H237.55Z" transform="translate(-17.51 -9)"/><path class="cls-8" d="M317.55,474.21V387.8h20v86.41l-20,20H287.39V387.8h20v86.41Z" transform="translate(-17.51 -9)"/><path class="cls-8" d="M386.82,387.8l0,20H367.31v23.43h19.54l0,20H367.27v22.92h19.54l0,20H347.26V387.8Z" transform="translate(-17.51 -9)"/><path class="cls-8" d="M436.06,494.25H396.48l0-20H416V437.46l-19.15-30-.35-58.79h39.58l0,20H416.57l.26,32.55,19.09,30Z" transform="translate(-17.51 -9)"/><path class="cls-9" d="M177,303.3v75h-8.74V312.1H153.87v66.16h-8.75V312.1H130.76v66.16H122v-75h55" transform="translate(-17.51 -9)"/><path class="cls-10" d="M222.79,303.3v75h-8.75L214,349v-3.66H199.67v2.88l0,30h-8.75v-75h31.86M199.7,336.57h14.36V312.1H199.7v24.47" transform="translate(-17.51 -9)"/><path class="cls-11" d="M258.89,303.3l9.72,9.34,0,65.62H236.77v-75h22.13M245.5,369.46h14.36v-2.88l0-50.82V312.1H245.53V315l0,50.81v3.67" transform="translate(-17.51 -9)"/><path class="cls-12" d="M315.41,303.3l0,45.9h-6.86l1.16,3.86,7.56,25.2h-8.66L301,351.93l-.78-2.73h-8.89v29.06h-8.74v-75h32.81m-24.07,37.11h15.32v-2.88l0-21.77V312.1H291.37V315l0,21.76v3.67" transform="translate(-17.51 -9)"/><path class="cls-13" d="M339.33,303.3v75h-8.75v-75h8.75" transform="translate(-17.51 -9)"/><path class="cls-14" d="M374.81,303.3l9.72,9.34,0,65.62H352.7v-75h22.12m-13.39,66.16h14.36v-2.88l0-50.82V312.1H361.46V315l0,50.81v3.67" transform="translate(-17.51 -9)"/><path class="cls-15" d="M104.4,351.91l-.06,121.91v3.67h16.74V391.07h13.45v86.42h16.73v-2.88l0-83.54h13.45V491H90.93l0-139.07H104.4" transform="translate(-17.51 -9)"/><path class="cls-16" d="M224.59,391.07l0,99.91H181l0-99.91h43.63m-30.2,86.42h16.74v-2.88l0-66.38v-3.67H194.44v2.88l-.05,66.38v3.67" transform="translate(-17.51 -9)"/><path class="cls-17" d="M254.27,391.07v86.42H273.8l0,13.49h-33V391.07h13.44" transform="translate(-17.51 -9)"/><path class="cls-18" d="M334.31,391.07l0,81.53L315.94,491H290.69V391.07h13.44v86.42h16.74V391.07h13.45" transform="translate(-17.51 -9)"/><path class="cls-19" d="M383.53,391.07l0,13.49H364v30h19.55l0,13.49H364v29.47h19.54l0,13.49h-33l0-99.91h33" transform="translate(-17.51 -9)"/><path class="cls-20" d="M432.79,351.91l0,13.5H413.25l0,2.91.27,32.54v1l.56.88,18.52,29.14.14,59.11h-33V477.49h19.53V436.85l-.57-.9-18.58-29.14-.33-54.9h33" transform="translate(-17.51 -9)"/></g></svg>