<?xml version="1.0" encoding="utf-8"?><svg version="1.1" id="Layer_1" xmlns="http://www.w3.org/2000/svg" xmlns:xlink="http://www.w3.org/1999/xlink" x="0px" y="0px" viewBox="0 0 512 512" style="enable-background:new 0 0 512 512;" xml:space="preserve"><style type="text/css"> .st0{fill:#FFFFFF;} </style><g><path d="M1.4,512C1.4,391.7,0,120.5,0,0.2c170.6,0,341.2,0,511.8,0c0,120.3,0.2,511.8,0.2,511.8S172,512,1.4,512z"/><path class="st0" d="M160.2,275.7c2.2-1.4,3.6-2.9,5.3-3.3c2-0.5,4.1-0.1,7-0.1c-2.9,4.8-5.3,9.2-8.2,13.3 c-0.5,0.8-2.7,0.5-4.1,0.6c-1.3,0.1-2.7,0-4.4,0c0.3-0.9,0.5-1.6,0.9-3.1c-1.3,0.6-2.5,0.8-3,1.5c-4.1,5.9-8,11.9-12.5,18.5 c4.3,0,7.9,0,11.6,0c0.3,0,0.7-0.1,0.8-0.4c2.3-4.3,6.3-1.6,10.4-2.8c-2.3,4.2-4.1,7.5-6,10.8c-0.2,0.4-0.9,0.6-1.3,0.6 c-10.8,0-21.7,0-33.2,0c2-2.8,3.2-6.4,5.5-7.3c5.9-2.3,7.5-7.9,10.9-12.1c3.4-4.3,6.4-9,9.6-13.5c1.7-2.5,3.7-4.8,5.1-7.5 c1-1.9,3.7-3,2.6-6.4c-0.7-2.4,5.6-7.2,8.4-7.2c10.9,0,21.7,0,33.5,0c-2.5,3-1.4,7.7-6.4,8.2c-0.4,0-0.9,0.8-1.1,1.4 c-5.6,11.6-11.1,23.2-16.6,34.8c-0.1,0.3-0.1,0.6-0.2,1.3c3.2,0,6.3,0,9.4,0c0.3,0,0.8-0.1,0.9-0.2c2-4.5,6-1.9,9.2-2.8 c0,1.1,0,2,0,2.8c0.3,0.1,0.6,0.2,0.9,0.3c4.7-12.1,8.4-24.6,12.9-37.1c-0.9-0.3-1.6-0.5-2.7-0.9c1.7-2.6,0.8-6.5,4.5-8 c-2.7-1.9-5.4-3.7-8.1-5.7c-3-2.3-4.6-5.2-3.4-9.3c1-3.5,1.5-7.1,2.3-10.7c0.1-0.4,0.3-0.8,0.4-1.2c0.9-3,2.5-6.4,5.5-6.5 c1.8,0,3.7,3.5,5.8,5.6c-2.4,0-4.5-0.6-5.6,0.2c-1.2,0.9-1.5,3.1-1.9,4.7c-1.2,4.8,0.1,8.7,4.6,11.2c4.1,2.2,8.3,4.4,12.5,6.3 c2.4,1.1,4.3,0.1,5.3-2.4c0.9-2.2,2-4.4,2.7-6.7c0.8-2.9,2.9-2.9,5.1-2.9c2.6,0,3.1,2,3,3.8c-0.2,2.3-0.7,4.7-1.7,6.8 c-1,2.2-2.7,4.2-3.9,5.9c1.7,4.3-0.8,7.9-0.9,12c-2.4,0-4.5,0-6.9,0c-0.1-0.7-0.2-1.5-0.3-2.7c-2.5,0-5.1-0.1-7.7,0.1 c-0.6,0-1.5,0.8-1.7,1.4c-0.9,2.5-1.7,5.1-2.6,8c0.9,0,1.9,0.2,2,0c2-4.9,6-1.8,9.6-3c-1.1,4.8-2,8.9-3.1,13 c-0.1,0.5-1.2,1.1-1.8,1.1c-2.2,0.1-4.4,0.1-6.8,0.1c0-0.9,0-1.6,0-3.2c-1.2,0.7-2.5,1-2.8,1.7c-2,5.9-3.8,11.9-5.8,18.4 c4.1,0,7.8,0,11.5,0c0.3,0,0.8,0,0.9-0.2c1.7-4.7,5.6-1.7,8.7-2.8c0.2,1.1,0.4,2,0.5,2.8c0.3,0.1,0.6,0.2,0.9,0.3 c0.4-1,0.9-2,1.1-3.1c1.8-10.7,3.5-21.4,5.2-32.1c0.4-2.4,1-4.7,1.1-7.1c0.1-2.6,1.1-3.8,3.8-3.4c0.7,0.1,1.4-0.1,2.7-0.2 c0-4.7-0.1-9.2,0-13.8c0-2.9,0.5-5.8,0.4-8.7c-0.1-2.4-0.7-4.8-1.1-8c-0.4,4.6-0.8,8.4-1.1,12.2c-2.9-0.5-5.3-1-7.8-1.4 c0.3-2.1,0.7-4.5,0.9-6.8c0.4-3.8-1-6.7-4.4-8.6c-2.6-1.4-3.8-3.6-3.3-6.5c0.6-3.3-0.4-6-2.5-8.6c-4.4-5.5-3.5-7.6,3.7-8.2 c3.6-0.3,7.2,0.4,10.3,0.6c-2.1-2.5-8.4-3.2-16.1-1.4c1.1-3.1,1.2-3.2,7.2-5.2c-1.6-0.2-2.9-0.4-4.1-0.6c1.6-3.9,3-7.8,4.6-11.6 c1-2.3,2.5-3.9,5.1-4.6c3.5-1,6.9-2.3,10.3-3.6c8.8-3.4,17.6-3.3,26.4,0.2c2.9,1.2,5.8,2.4,8.9,3.1c3.5,0.8,5.3,3,6.5,6.1 c1.3,3.4,2.7,6.8,4.1,10.3c-1.3,0.2-2.9,0.4-5.3,0.8c3.7,1.2,7.4,1,8.6,5.1c-5.9-1.5-11.7-1.8-17.1,1.4c3.6-0.3,7.2-0.6,10.8-0.8 c0.8-0.1,1.7,0.1,2.5,0.3c4.6,1.1,5.4,2.6,2.6,6.4c-2.6,3.5-4.4,6.9-3.6,11.4c0.2,1.3-1,3.7-2.2,4.4c-5.7,3.2-6.2,7.9-4.9,13.5 c0.2,0.9,0.3,1.8,0.5,2.8c-2.4,0.4-4.8,0.9-7.9,1.4c-0.2-4.2-0.5-8.5-0.7-11.9c-0.6,2.6-1.9,5.8-1.2,9.9c0.9,5.3,0.3,10.8,0.4,16.2 c0,1.2,0,2.5,0,3.7c4.9,1.4,4.9,1.4,5.3,8.3c-0.8,0.2-1.6,0.4-2.8,0.7c1.4,12.3,2.8,24.6,4.1,36.8c0.3,0,0.5,0,0.8,0 c0-1.8,0-3.6,0-5.4c-0.1-12-0.6-24-0.1-36c0.2-4.1-1.1-7.1-3.4-10c-2-2.6-2.3-5.4-2-8.5c0.2-1.7,0.7-2.9,2.5-2.9 c1.9,0,4.1-0.6,5.1,1.9c0.9,2.3,1.8,4.7,2.8,7c1.5,3.4,2.7,3.8,6.1,2.9c5.6-1.5,10.3-4.5,14.6-8.3c2.8-2.5,3.1-11.3,0.3-13.6 c-1.1-0.9-3.2-0.5-5-0.7c0.8-1.3,1.9-3.2,3.4-4.9c0.4-0.5,2.4-0.5,2.8,0c1.6,1.7,3.4,3.6,4,5.8c1.4,4.8,2.7,9.7,3.1,14.7 c0.2,2-1.5,4.7-3.2,6.3c-2.5,2.4-5.6,4.2-8.3,6.1c6.6,8.4,13.2,16.9,19.8,25.4c0.1-0.1,0.3-0.2,0.4-0.3c-3.4-8-6.8-16-10.4-24.4 c1.3-0.1,2.3-0.2,3.3-0.2c11.4,0,22.8,0,34.2,0c1.9,0,3.1,0.4,4.1,2.1c1.9,2.9,4,5.6,6.5,9.1c-3.7-0.7-7.1,1.5-9.5-2.3 c-0.4-0.7-2.1-0.6-4-1.1c2.6,4.3,4.2,8,8.6,9.3c10.4,3.2,17.7,10,23.1,19.3c3.5,6,8,11.4,12.5,17.7c-2.8,0-4.9,0-7,0 c-5.9,0-11.7-0.1-17.6,0c-1.9,0-2.8-0.6-3.7-2.2c-1.6-2.9-3.3-5.7-5.2-9c2.9,0,5.2,0,7.4,0c0.5,0,1.3,0.1,1.4,0.4 c2.3,4.3,6.1,1.4,9,2.5c0.1-0.2,0.3-0.5,0.4-0.7c-3.7-5.4-7.3-10.8-11.2-16.1c-0.6-0.8-1.9-1.2-3-1.7c-1.5-0.8-3-1.6-4.5-2.1 c-7.9-2.5-13.5-7.5-16.8-15.1c-0.4-0.9-1.6-1.5-2.4-2.2c-0.3,0.3-0.5,0.5-0.8,0.8c8.4,14.9,16.7,29.8,25.5,45.3 c-3,0-5.7,0.2-8.3-0.1c-0.7-0.1-1.4-1.4-1.9-2.2c-7-13.1-13.9-26.2-20.8-39.3c-2.4-4.6-2.4-4.6-8.5-3.9c7,15.1,13.9,30.1,20.9,45.4 c-4.9,0.5-8.7,0.8-11.9-4c-6.7-10-14.2-19.4-21.9-28.8c3.6,10.8,7.3,21.7,11.1,33c-6.5,0-12.4,0.1-18.3-0.1c-0.7,0-1.7-1.3-2.1-2.3 c-3.2-7.8-6.2-15.7-9.4-23.5c-0.4-1-1.6-1.7-2.5-2.5c-0.3,0.2-0.6,0.4-0.9,0.6c0,9.1,0,18.3,0,27.6c-6.7,0-13.2,0-19.6,0 c-1.5,5-4.7,8.3-8.9,10.5c-2.8,1.5-5.5,0.7-7.9-1.3c-3.5-2.9-6.4-6.3-7.1-11.1c-1.1-8-2.2-16.1-3.3-24.5c3.5,0,6.4,0,9.4,0 c0.5-6.5,1-12.7,1.5-19.2c-1.3-1-1.8-0.2-2,1.6c-0.3,5.2-0.7,10.4-1.1,15.9c-3.2,0-6.3,0-9.8,0c-0.9,6.5-1.7,12.8-2.5,19.2 c0.9,0.3,1.7,0.6,2.7,1c-0.3,2.6-0.7,5.1-1,7.8c-25.1,0-50,0-75.5,0c7.8-15.3,15.4-30.2,23-45.2c-0.2-0.3-0.3-0.7-0.5-1 c-2.7,3.5-6.1,4.1-10,3.1c0.2-0.7,0.4-1.5,0.6-2.3C167,264.4,164.2,266.2,160.2,275.7z M333.1,264.4c5.4-0.5,5.7-0.6,7.8,3.7 c2.9,6,7.1,10.1,13.4,12.2c7.1,2.2,12.2,6.8,15.8,13.3c2,3.6,4.6,6.9,7.2,10.8c-3.9,0-7.1,0-10.3,0c-0.6,0-1.4-0.3-1.6-0.7 c-1.6-3-4-1.8-6.8-2c1.4,2.4,2.5,4.1,3.4,6c0.9,1.9,2.1,2.5,4.2,2.4c5.2-0.2,10.5-0.1,15.7-0.1c1.5,0,3,0,5,0 c-3.9-5.4-7.6-10-10.6-15c-5.5-9.2-12.7-16.2-23.1-19.4c-5.6-1.7-7-6.9-9.6-11.4c2.4,0,5.3-0.3,6.7,1c1.7,1.6,3.1,2,5.5,1.5 c-1.3-1.8-2.5-3.3-3.5-5c-1.3-2.4-3.1-3.1-5.8-3.1c-10,0.2-20.1,0.1-30.1,0.1c-1.1,0-2.1,0.1-3.6,0.2c4.8,11.2,9.3,21.8,13.9,32.5 c-0.8-0.2-1.2-0.7-1.6-1.1c-7.6-9.8-15.3-19.6-22.8-29.5c-1.5-2-3.1-2.5-5.6-1.6c4.5,14.9,9.1,29.8,13.6,44.7 c-0.9,0.4-1.6,0.7-2.2,0.9c1.1,5.5,3.1,6.5,9.6,4.5c-4.4-13-8.7-25.9-13.1-38.9c0.9,0.2,1.2,0.7,1.6,1.2 c8.7,11.7,17.6,23.4,26.1,35.2c2.2,3,4.4,3.6,7.9,2.7c-6.9-15.1-13.8-30-20.9-45.4c2.5,0,4.4,0.2,6.4,0c2.3-0.3,3.5,0.7,4.5,2.7 c6.9,13.2,13.9,26.4,20.9,39.6c2.1,4,2.4,4.1,7.3,3C350,294.5,341.6,279.7,333.1,264.4z M257.4,304.2c0-7.3,0-14.7,0-22 c3.9,0,7.6,0,11.5,0c0.6,7.4,1.1,14.6,1.7,21.9c-1.5,0.3-2.6,0.4-3.8,0.7c0.2,1.8,0.3,3.4,0.5,5c6.2,0,12.1,0,18.3,0 c0-9.4,0-18.5,0-27.4c3.7-1.1,5.3,0.3,6.4,3.6c2.4,6.9,5.3,13.6,8,20.4c1.7,4.2,1.8,4.3,6.9,3.2c-0.2-0.6-0.3-1.2-0.6-1.8 c-5.3-13.4-10.6-26.8-15.8-40.2c-0.5-1.3-0.3-2.8-0.8-4.1c-0.7-1.6,0.4-4.4-2.5-4.6c-2.6-0.2-5.2,0-7.9,0c0,1.4,0,2.4,0,3.4 c0.1,13,0.2,26.1,0.4,39.1c0,2.8-0.8,3.6-3.5,2.6c-1.5-13.1-2.9-26.2-4.4-39.4c1-0.3,1.8-0.5,2.9-0.8c-0.2-1.7-0.4-3.2-0.6-4.7 c-3.4,0-6.5,0-9.8,0c0.1,1.8,0.2,3.2,0.2,4.8c1,0.2,1.9,0.4,3,0.6c0.3,3.9,0.6,7.8,0.9,11.8c-4,0-7.4,0-11.3,0c0-3,0.1-5.8,0-8.6 c-0.2-2.3,0.2-3.9,3-3.8c-0.1-1.8-0.1-3.3-0.2-5c-2.6,0-4.9,0-7.1,0c-2.3,0-3.7,2.9-2.5,5.1c0.9,0.3,1.7,0.5,2.7,0.8 c-0.4,13.3-0.8,26.4-1.2,39.5c-1.4,0.2-2.5,0.3-3.8,0.5c-0.1,1.8-0.2,3.4-0.3,5.1c4.7,0,9.1,0,13.5,0c0-1.8,0-3.3,0-5 C259.7,304.5,258.6,304.4,257.4,304.2z M191.7,310c8.2,0,15.8,0,23.5,0c7.7,0,7.7,0,8.6-7.7c0-0.1-0.1-0.2-0.1-0.5 c-2.1,0.3-4.8-1.6-5.8,2c-0.1,0.3-0.7,0.5-1,0.5c-4.8,0-9.5,0-14.7,0c2-6.4,3.8-12.2,5.6-18.1c1.5-4.8,1.5-4.8,6.5-3.9 c0,0.7,0,1.5,0,2.5c1.3,0,2.4,0.1,3.5,0c0.8-0.1,2-0.5,2.2-1.1c0.9-3.2,1.6-6.6,2.5-10.5c-2.3,0.4-5.2,0.2-5.5,1 c-1.3,3.5-3.8,1.9-6.2,2.2c0.5-1.6,0.8-2.8,1.2-4.1c2.5-8.2,2.5-8.2,11.2-8.1c1,0,2,0,3,0c0.2,1.1,0.3,1.9,0.4,2.7 c4.2,0.4,5.2-1.2,4.8-8c-6.9,0-13.8,0-20.6,0c-1.5,0-3.5,3.3-3,5.1c0.7,0.2,1.4,0.4,2.2,0.7c-4.4,12.9-8.7,25.5-13,38.1 c-0.2,0.6-0.6,1.4-1,1.4C192.3,304.2,192.9,307.4,191.7,310z M184.6,259.6c-0.1-0.2-0.3-0.5-0.4-0.7c-6.6,0-13.2-0.1-19.7,0.1 c-0.9,0-2.1,0.7-2.5,1.4c-1,2-1.3,4.4-2.5,6.2c-8.3,12.1-16.7,24-25.1,35.9c-0.5,0.7-1.3,1.7-2,1.8c-3.6,0.1-3.8,3.4-6.3,5.7 c10.3,0,19.7,0,29.1,0c0.7,0,1.7-0.4,2.1-0.9c1.4-2.3,2.6-4.6,3.9-7.1c-3.9-0.4-3.9-0.3-6.6,1.9c-0.4,0.3-0.9,0.5-1.4,0.5 c-4.7,0-9.3,0-14.4,0c0.8-1.3,1.3-2.2,1.8-3.1c3.5-5.3,7.3-10.4,10.5-15.9c2-3.3,4.4-3.9,7.8-3.1c-0.2,0.8-0.4,1.6-0.8,2.8 c2.1-0.3,4.6,0,5.3-1c2.4-3.1,4.2-6.7,6.8-11c-2.6,0.4-5.1,0.2-5.6,1.1c-1.8,3-4.2,2.2-7.3,2.1c2.7-4.1,5.2-7.8,7.7-11.4 c0.3-0.5,1.3-0.7,1.9-0.7c3.3-0.1,6.7,0,10.2,0c-0.2,1.1-0.4,1.9-0.6,2.8C182.9,267.9,182,262,184.6,259.6z M235.6,259 c-2.3,14.1-4.5,27.8-6.7,41.6c-0.3,2.2-0.4,4.5-3.6,4.2c-0.3,1.7-0.5,3.3-0.8,5c3.9,0,7.5,0,11.4,0c0.2-1.7,0.5-3.3,0.7-4.9 c-1-0.4-1.8-0.7-2.7-1c0.9-6.8,1.7-13.4,2.7-20c0.1-0.7,1.4-1.7,2.2-1.8c2.5-0.2,5-0.1,7.8-0.1c0.5-7.9,1-15.4,1.5-23.1 C243.6,259,239.8,259,235.6,259z M187,264.7c-7.7,15.1-15.3,30-23.1,45.3c8.6,0,16.6,0,24.7-0.1c0.6,0,1.5-0.7,1.8-1.3 c0.9-2.2,1.6-4.4,2.4-6.7c-3.7-0.4-3.7-0.4-6.3,2c-0.3,0.3-0.7,0.5-1.1,0.5c-4.2,0-8.4,0-12.5,0c-0.1-0.6-0.1-0.7-0.1-0.8 c6-12.6,12-25.3,18-37.9c0.3-0.5,0.8-1.3,1.2-1.3c3.8,0.1,3.4-3.1,4.7-5.2c-8.8-1.3-9.4-1.1-11.9,4.7 C185.4,264.1,186.1,264.4,187,264.7z M307.8,303.4c0.2-0.2,0.4-0.5,0.7-0.7c-4.4-14.3-8.7-28.6-12.9-42.3c-2.2-0.4-3.8-0.8-5.3-1.1 c0.4,2.4,0.5,5.4,1.6,8.2c4.3,11.4,8.8,22.7,13.4,34C305.6,302.3,306.9,302.7,307.8,303.4z M270.2,208.1c1,0.3,1.9,0.3,2.4,0.7 c4.3,3.2,6.1,2.6,7.7-2.8c1.2-0.3,2.3-0.6,3.6-0.9C281.9,202.2,274.5,203.8,270.2,208.1z M244.6,194.9c0,0.3-0.1,0.6-0.1,0.9 c2.7,0.8,5.5,1.2,8,2.5c1.1,0.6,1.7,2.6,1.9,4.1c0.1,0.6-1.5,1.6-2.4,2.1c-1.2,0.7-2.6,1.2-3.3,1.5c4.1,0,8.5,0,13.2,0 c-1-0.5-1.8-1-2.7-1.3c-1.6-0.5-3.4-0.5-3.3-3c0.1-2.2,1.2-3.5,3.2-4.1c2.3-0.6,4.7-1.2,7-1.8c-0.1-0.3-0.2-0.7-0.2-1 c-3.6,0.9-7.2,1.7-10.5,2.5C251.8,196.6,248.2,195.8,244.6,194.9z M230.5,205.9c0.3,2.6,1.2,5,4,4.7c2-0.2,3.8-1.8,6.1-2.9 c-3.7-2.5-7.4-4.2-11.6-4.5c-0.7-0.1-1.5,0.9-3,1.9C228.2,205.6,229.2,205.7,230.5,205.9z M259.9,285.2c3-0.2,5.3-0.3,7.5-0.5 c0-0.3,0-0.6,0-0.9c-2.9,0-5.7,0-8.5,0c0,6.3,0,12.7,0,19.1c0.3,0,0.6,0,1,0C259.9,297.1,259.9,291.3,259.9,285.2z M246.9,311.4 c0,0.4,0,0.7,0,1.1c5.7,0,11.4,0,17.3,0c-0.4-2.8,0.7-5.9-1.7-8.5c0,2.3,0,4.7,0,7.4C257.2,311.4,252.1,311.4,246.9,311.4z M261.5,265.2c-1.2,0.3-2.1,0.4-2.7,0.6c0,3.3,0,6.3,0,9.3c0.3,0,0.7,0,1,0.1c0.2-2.5,0.3-4.9,0.5-7.5c0.8-0.2,1.7-0.4,2.8-0.7 c-0.2-2.8-0.4-5.6-0.6-8.3c-0.3,0-0.7,0-1,0C261.5,260.7,261.5,262.8,261.5,265.2z M266.3,221.7c-5.5-3.1-18.5-2.9-21.9,0 C251.4,221.7,258.9,221.7,266.3,221.7z M265.4,243.7c-6.8-2.3-13.7-2.4-21.3,0C251.7,243.7,258.5,243.7,265.4,243.7z M263.7,231.6 c-5.6-1.9-11.3-2-17,0C252.4,231.6,258,231.6,263.7,231.6z M261.4,189.1c-2.8-2.3-9.3-2.3-12.2,0 C253.3,189.1,257.5,189.1,261.4,189.1z"/><path class="st0" d="M287.2,180.9c5.9,0,11.4,0.2,16.9-0.1c3-0.2,5.9-1.3,8.8-2.1c3.1-0.9,6.1-2.2,9.3-2.8 c11-2.2,19.7,5.2,17.7,16.2c-2.7,15-4.2,30.5-14.2,43.2c-2.5,3.2-4.1,7.4-5,11.4c-1.2,5.7-4.8,8.3-9.8,9.6 c-1.6,0.4-3.3,0.7-5.2,0.5c1.3-1,2.7-1.9,4-3c4-3.2,6.5-6.9,4.8-12.4c-1.3-4.2-1.7-8.6-3.2-12.7c-1-2.6-3.2-4.8-5.3-6.7 c-0.8-0.7-3.6-0.7-4.4,0.1c-3.6,3.6-6.1,7.9-6.3,13.7c2.5-1.8,4.7-3.4,6.9-5.1c3,5.6,2.3,9.9-2.4,13c-3.4,2.3-7.3,3.9-11.1,5.8 c-1.6,0.8-2.7,0.2-3.5-1.5c-3-5.9-3.2-12.4-3.7-18.8c-0.1-1.6,1.5-4,3-5c3.8-2.5,5.3-5.6,4.6-10.1c-0.2-1.5,0.6-3.4,1.4-4.9 c1-2,2.6-3.8,3.5-5.9c1.6-3.6,0.6-7.1-2.3-9.4c-2.5-1.9-2.9-4.4-3.5-7C287.6,185.2,287.5,183.1,287.2,180.9z"/><path class="st0" d="M264.5,320.4c1.1-2.6,2.9-3.1,5.4-3.1c41.9,0.1,83.7,0,125.6,0c1.9,0,3.8,0,6.1,0c-0.7-1.1-1.1-1.9-1.6-2.6 c-14.5-19.3-29.1-38.5-43.6-57.8c-1.5-2-3.1-2.7-5.5-2.6c-8.4,0.1-16.7,0.1-26.1,0.1c2.2-5.5,3.5-11,6.4-15.3 c6.9-10.2,11.3-21,12.7-33.3c0.5-4.3,2.1-8.5,2.7-12.8c2-15.8-10.3-27.2-25.9-24.1c-2.7,0.5-5.4,1.2-7.8,2.3 c-7,3.2-14.4,3.3-21.8,2.5c-1-0.1-1.9-0.6-2.8-1.1c-2.8-1.5-5.4-3.3-8.3-4.6c-3.5-1.6-7.2-2.7-10.9-4c-10.3-3.8-20.5-3-30.5,1.1 c-2.9,1.2-6,1.9-8.8,3.2c-2.5,1.1-4.8,2.8-7.2,4.2c-0.9,0.5-1.8,1.2-2.7,1.3c-7.6,0.8-15,0.7-22.2-2.5c-5.3-2.3-11-3.7-16.8-2.8 c-10.5,1.6-18.8,12.5-16.8,23.9c2.7,16,4.6,32.4,15.1,46.2c3.2,4.2,4.4,10,6.8,15.8c-3.3,0-5.5,0-7.7,0c-6,0-11.9-0.1-17.9,0.1 c-1.3,0-3,0.7-3.7,1.6C141.7,276,126.9,296,112.1,316c-0.2,0.2-0.3,0.5-0.7,1.4c1.5,0,2.6,0,3.8,0c42,0,83.9,0,125.9,0 c2.4,0,3.9,0.7,5.2,3c-47.1,0-94,0-141.5,0c3.2-4.4,6.2-8.3,9.1-12.3c13.5-18.1,27-36.2,40.3-54.4c1.4-2,2.9-2.6,5.2-2.5 c7,0.1,14,0,22,0c-1.7-3.9-2.6-7.5-4.7-10.3c-7.4-10.4-11.8-21.7-13.3-34.4c-0.5-4.2-2.1-8.3-2.7-12.5 c-1.7-11.4,4.8-23.4,14.6-27.3c6.9-2.8,13.7-1.5,20.6,0.5c4.6,1.4,9.2,2.6,13.8,3.7c1.5,0.4,3.1,0.1,4.7,0.1c3.1,0,6-0.1,8.2-2.9 c0.8-1,2.3-1.5,3.5-2c5.1-1.9,10.2-3.6,15.4-5.4c10.1-3.5,20.1-2.9,30,0.8c3.8,1.4,7.7,2.7,11.5,4.1c1.4,0.5,2.9,0.9,4,1.8 c6.9,5.8,14.4,3.7,21.9,1.8c4.8-1.2,9.6-3.3,14.5-3.9c14.5-1.8,26.5,9.2,26.7,24.1c0,2.2,0,4.5-0.5,6.5 c-3.2,11.7-3.4,24.3-9.7,35.1c-1.7,3-3.8,5.8-5.4,8.8c-1.8,3.4-3.4,7-5.4,11.3c4.9,0,8.7,0,12.5,0c4,0,8-0.2,11.9,0.1 c1.3,0.1,3.1,0.8,3.9,1.8c16.5,21.6,32.8,43.3,49.2,64.9c0.5,0.6,0.9,1.3,1.6,2.4C360.1,320.4,312.4,320.4,264.5,320.4z"/><path class="st0" d="M208.1,230.3c2.7,2,4.8,3.6,7.2,5.3c0.4-4-1.2-7.1-3.1-10c-3.9-6.1-7.6-6.1-11.3,0.2c-1.6,2.7-2.3,6-3.2,9.1 c-0.5,1.7-0.5,3.5-1.1,5.2c-2.1,6.2,0.3,10.7,5.4,14.2c1.1,0.8,2.1,1.6,3.2,2.3c-0.1,0.3-0.3,0.7-0.4,1c-3.5-1.3-7.2-2.4-10.4-4.2 c-1.6-0.9-3-3.1-3.4-4.9c-1.4-6.1-4.3-11.5-7.6-16.7c-2.7-4.3-4.9-8.9-7.5-13.5c3.4-1.7,6.2-3.1,8.9-4.4c-0.1-0.2-0.1-0.4-0.2-0.6 c-2.8,0.6-5.7,1.2-9,1.9c-0.5-2.4-1-4.6-1.4-6.9c4.7-0.8,9.1-1.6,13.6-2.4c0-0.2-0.1-0.5-0.1-0.7c-3.4-0.7-6.7-1.6-10.1-2.1 c-3.5-0.5-5.5-2-5.7-5.6c0-0.7-0.3-1.4-0.5-2.6c6.3,1.4,12.3,2.8,18.3,4.2c0.1-0.2,0.2-0.5,0.3-0.7c-1.4-0.9-2.9-1.7-4.3-2.6 c-4-2.6-8-5.3-12.1-7.8c-2.2-1.3-2.2-2.8-1.2-4.9c3-6.2,7.6-8.8,14.5-7.7c2.8,0.5,5.6,1.1,8.1,2.2c7.6,3.4,15.5,4.1,23.6,3.2 c1.5-0.2,3.1-0.2,5-0.3c-0.7,3.6-1.3,7-2,10.3c-0.2,0.7-0.8,1.4-1.3,1.9c-4.7,4-5.5,8.3-1.9,13.5c2.4,3.4,4.1,6.5,3.3,10.8 c-0.5,2.8,1.2,5,3.7,6.4c3.8,2,4.8,5.1,3.8,8.9c-1.3,5-0.6,10.3-3.3,15c-1.1,1.9-2.2,2.9-4.1,1.8c-4.5-2.4-9.2-4.6-13.1-7.7 C205.2,238.8,207.3,234.8,208.1,230.3z"/><path class="st0" d="M258,343.4c0.7,1,1.2,1.9,2,3c-0.8,0.2-1.4,0.4-1.9,0.4c-2.6,0.1-5.2,0.1-7.9,0.1c-4.8,0.1-8.5-2.3-9.8-6.7 c-1.4-4.3,0.1-9.1,3.5-11.5c3.7-2.7,9-2.5,12.6,0.3c3.3,2.7,4.5,7.5,2.9,11.6C258.9,341.7,258.5,342.5,258,343.4z M252.2,342.9 c-0.7-1.2-1.3-2.2-2.3-3.8c2.5,0.3,4.1,0.4,5.8,0.6c1.1-3.8,0.2-6.8-2.7-8.4c-2.4-1.4-5.6-0.9-7.5,1.1c-2.1,2.2-2.4,5.8-0.8,8.4 C246.3,343.3,248.9,344.1,252.2,342.9z"/><path class="st0" d="M294.7,346.8c0-6.5,0-12.7,0-19.3c4.7-0.1,9.5-1.3,13.1,3c2.6,3.1,3,8.2,1,11.8 C305.7,347.8,300.3,346.8,294.7,346.8z M298.6,330.9c0,4.2,0,8.2,0,12.2c5.2,0.3,7.7-1.9,7.6-6.5 C306.1,332.4,303.6,330.4,298.6,330.9z"/><path class="st0" d="M120.3,332.7c0,4.9,0,9.3,0,13.9c-1.3,0-2.4,0-3.7,0c0-6.3,0-12.6,0-19.2c5.5-0.5,7.4,4.8,11.4,6.5 c2.1-1.5-2.2-7.1,4.4-6.4c0,6.1,0,12.1-0.1,18.1c0,0.4-1.1,1.2-1.7,1.2c-0.7-0.1-1.4-0.8-2.1-1.3c-0.1,0,0-0.2,0-0.3 C130.1,338.5,124.9,336.2,120.3,332.7z"/><path class="st0" d="M169.9,327.5c1-0.1,1.5-0.2,2-0.2c0.5,0,1,0.1,1.7,0.2c0,6.4,0,12.7,0,19.1c-0.7,0.1-1.2,0.2-1.7,0.2 c-0.5,0-1-0.1-2.1-0.2c2.2-7.2-2.8-10.2-8.1-13.7c0,4.7,0,9,0,13.7c-1.4,0.1-2.4,0.2-3.7,0.4c0-6.5,0-12.8,0-19.5 c5.5-0.8,7.4,5.1,11.8,6.6C169.9,331.9,169.9,329.9,169.9,327.5z"/><path class="st0" d="M319.3,327.3c8.1,0,12.4,5.6,10.2,13.1c-1.2,4.2-4.4,6.4-9.5,6.4c-6.7,0.1-5.4,0.5-5.5-5.4 c-0.1-3.1,0-6.2,0-9.4C314.5,326.8,313.8,327.3,319.3,327.3z M318.5,343.1c2.7,0.5,5.1,0.2,6.6-2.3c1.6-2.6,1.6-5.4-0.1-7.9 c-1.5-2.3-3.9-2.4-6.5-1.9C318.5,335,318.5,339,318.5,343.1z"/><path class="st0" d="M393.6,336.8c-3.1,0-5.7,0-8.7,0c0,3.2,0,6.3,0,9.7c-1.2,0.1-2.2,0.2-3.8,0.3c0-3.4,0-6.6,0-9.8 c0-2.3,0.1-4.6,0-6.9c-0.2-2.6,0.8-3.5,3.6-2.6c0.1,1.7,0.2,3.5,0.3,5.5c2.8,0,5.5,0,8.3,0c0.1-1.9,0.2-3.6,0.3-5.5 c2.5-0.8,3.8-0.5,3.7,2.5c-0.2,4.6-0.1,9.2,0,13.8c0.1,2.7-1,3.4-3.8,2.5C393.6,343.3,393.6,340.2,393.6,336.8z"/><path class="st0" d="M210.1,343.4c0.9,2.7,0.2,3.6-2.2,3.5c-3.5-0.1-7.1,0-11,0c0-6.2-0.1-12.1,0.1-18c0-0.5,1.3-1.4,2.1-1.5 c2.9-0.2,5.8,0,8.8-0.1c2.6-0.1,2.7,1.2,2,3.4c-2.9,0-5.7,0-8.9,0c-0.1,1.3-0.2,2.2-0.3,3.8c2.3,0,4.5-0.1,6.6,0.1 c0.9,0.1,1.6,1,2.4,1.5c-0.8,0.6-1.5,1.5-2.3,1.6c-2,0.2-4.1,0.1-6.4,0.1c0,1.9,0,3.6,0,5.6C204,343.4,207,343.4,210.1,343.4z"/><path class="st0" d="M135.8,346.3c2.4-6.1,4.7-12,7.2-17.9c0.7-1.8,4.1-1.8,4.8,0c2.3,5.9,4.4,11.8,6.7,17.9 c-2.5,0.9-4.2,0.7-4.7-2c-0.4-1.9-1.6-2.6-3.4-2.2c-2.1,0.4-5-1.3-5.9,2.3C139.9,346.7,138.5,347.4,135.8,346.3z M142.8,338.5 c1.7,0,3.1,0,4.9,0c-0.8-2.1-1.5-4-2.4-6.4C144.3,334.6,143.6,336.4,142.8,338.5z"/><path class="st0" d="M279.2,327.7c0,4.4,0.2,8.7-0.1,12.9c-0.3,4.1-3,6.3-7.1,6.4c-4.1,0.1-7-2-7.3-6.1c-0.4-4.4-0.1-8.9-0.1-13.3 c2.7-0.9,3.9-0.3,3.8,2.6c-0.1,2.9-0.1,5.8,0,8.8c0.1,2.3,0.7,4.6,3.6,4.5c2.7-0.1,3.3-2.2,3.4-4.4c0.1-2.9,0.2-5.8,0-8.8 C275.2,327.5,276.3,326.7,279.2,327.7z"/><path class="st0" d="M376.3,330.3c-0.2,0.3-0.4,0.7-0.7,1c-0.3,0.4-0.8,0.7-1.1,1c-5.1-2.4-7.6-2.2-9.5,0.5 c-1.8,2.6-1.6,7.3,0.4,9.3c2.2,2.3,5.1,2.1,9.2-0.8c0.7,0.6,1.5,1.2,2.3,1.8c-2.3,3.6-6.1,4.8-10.5,3.7c-3.9-1-6.3-4.2-6.6-8.9 c-0.3-4.9,2-8.7,6.1-10.2C369.9,326.1,373.8,327.1,376.3,330.3z"/><path class="st0" d="M215.4,342.9c1.9,0.3,3.5,0.7,5.1,0.6c0.8,0,1.9-1,2.1-1.8c0.2-0.6-0.5-1.8-1.1-2.3c-0.9-0.8-2.2-1.2-3.3-1.8 c-3-1.6-4.3-3.9-3.7-6.5c0.6-2.4,3.3-4.3,6.4-4.1c1.6,0.1,3.1,0.7,4.8,1.1c-0.4,2.3-0.7,3.6-3.3,2.7c-1.1-0.4-2.7,0.8-4,1.2 c0.8,1,1.5,2,2.3,2.9c0.2,0.2,0.6,0.3,0.8,0.4c4.5,2.2,6.1,4.9,4.8,8.2c-1.1,2.9-5.5,4.4-9.6,3.2 C214.4,346.1,214.2,345.5,215.4,342.9z"/><path class="st0" d="M357.8,327.4c-0.1,1.1-0.1,1.9-0.1,3c-1.8,0.1-3.6,0.2-5.6,0.4c0,4.5-0.1,8.9,0,13.2c0.1,2.6-0.9,3.4-3.7,2.5 c0-5.1,0-10.2,0-15.4c-2.2-0.4-4.1-0.7-5.9-1.2c-0.2-0.1,0-1.5,0-2.4C347.6,327.4,352.5,327.4,357.8,327.4z"/><path class="st0" d="M183.7,346.4c0-5.2,0-10.3,0-14.9c-1.5-2.4-6.3,1.3-5.7-4.2c4.7,0,9.2-0.1,13.8,0.1c0.5,0,1.3,1.1,1.4,1.7 c0.1,0.3-0.9,1.2-1.5,1.4c-1.2,0.2-2.5,0.1-4.2,0.1c0,4.6-0.1,9,0,13.5C187.6,346.7,186.6,347.3,183.7,346.4z"/><path class="st0" d="M288.6,346.8c-1.3-0.1-2.3-0.1-3.4-0.2c0-6.5,0-12.8,0-19.2c1.2,0,2.2,0,3.4,0 C288.6,333.8,288.6,340.1,288.6,346.8z"/><path class="st0" d="M334.6,346.4c0-6.2,0-12.4,0-18.8c1.2,0,2.2,0,3.7,0c0,5.9,0.1,11.8-0.1,17.7c0,0.7-1.8,1.4-2.7,2.1 C335.2,347,334.9,346.7,334.6,346.4z"/><path d="M333.1,264.4c8.6,15.2,16.9,30.1,25.3,45.1c-4.9,1.2-5.1,1.1-7.3-3c-7-13.2-14-26.4-20.9-39.6c-1.1-2-2.2-3-4.5-2.7 c-1.9,0.2-3.9,0-6.4,0c7.1,15.4,14,30.3,20.9,45.4c-3.5,0.9-5.8,0.4-7.9-2.7c-8.5-11.9-17.4-23.5-26.1-35.2 c-0.4-0.5-0.7-0.9-1.6-1.2c4.4,13,8.7,25.9,13.1,38.9c-6.6,1.9-8.6,1-9.6-4.5c0.7-0.3,1.4-0.6,2.2-0.9 c-4.5-14.9-9.1-29.8-13.6-44.7c2.5-0.9,4.1-0.3,5.6,1.6c7.5,9.9,15.2,19.7,22.8,29.5c0.4,0.5,0.8,0.9,1.6,1.1 c-4.6-10.7-9.1-21.4-13.9-32.5c1.4-0.1,2.5-0.2,3.6-0.2c10,0,20.1,0.1,30.1-0.1c2.8-0.1,4.5,0.7,5.8,3.1c1,1.7,2.2,3.2,3.5,5 c-2.5,0.5-3.8,0.1-5.5-1.5c-1.4-1.3-4.3-1-6.7-1c2.6,4.4,4,9.6,9.6,11.4c10.4,3.2,17.6,10.1,23.1,19.4c3,5,6.7,9.5,10.6,15 c-2,0-3.5,0-5,0c-5.2,0-10.5-0.1-15.7,0.1c-2.1,0.1-3.3-0.5-4.2-2.4c-0.9-1.9-2-3.6-3.4-6c2.8,0.2,5.3-1,6.8,2 c0.2,0.4,1,0.7,1.6,0.7c3.2,0.1,6.4,0,10.3,0c-2.6-3.9-5.2-7.2-7.2-10.8c-3.6-6.5-8.7-11.1-15.8-13.3c-6.3-2-10.5-6.2-13.4-12.2 C338.8,263.8,338.4,264,333.1,264.4z"/><path d="M257.4,304.2c1.2,0.2,2.3,0.4,3.6,0.6c0,1.7,0,3.2,0,5c-4.4,0-8.8,0-13.5,0c0.1-1.7,0.2-3.3,0.3-5.1 c1.3-0.2,2.4-0.3,3.8-0.5c0.4-13.1,0.8-26.2,1.2-39.5c-0.9-0.3-1.8-0.5-2.7-0.8c-1.3-2.2,0.1-5,2.5-5.1c2.3,0,4.6,0,7.1,0 c0.1,1.8,0.1,3.3,0.2,5c-2.8,0-3.1,1.6-3,3.8c0.2,2.8,0,5.6,0,8.6c3.8,0,7.3,0,11.3,0c-0.3-4-0.6-7.9-0.9-11.8 c-1.1-0.2-2-0.4-3-0.6c-0.1-1.6-0.2-3-0.2-4.8c3.3,0,6.4,0,9.8,0c0.2,1.5,0.4,3,0.6,4.7c-1,0.3-1.9,0.5-2.9,0.8 c1.5,13.2,2.9,26.2,4.4,39.4c2.7,1.1,3.6,0.2,3.5-2.6c-0.2-13-0.3-26.1-0.4-39.1c0-1,0-2.1,0-3.4c2.7,0,5.3-0.2,7.9,0 c3,0.2,1.9,3,2.5,4.6c0.5,1.3,0.3,2.8,0.8,4.1c5.2,13.4,10.5,26.8,15.8,40.2c0.2,0.6,0.4,1.2,0.6,1.8c-5.1,1-5.2,1-6.9-3.2 c-2.7-6.8-5.5-13.5-8-20.4c-1.1-3.2-2.7-4.7-6.4-3.6c0,8.9,0,18,0,27.4c-6.2,0-12.1,0-18.3,0c-0.1-1.6-0.3-3.2-0.5-5 c1.3-0.2,2.4-0.4,3.8-0.7c-0.6-7.2-1.1-14.5-1.7-21.9c-3.9,0-7.5,0-11.5,0C257.4,289.5,257.4,296.8,257.4,304.2z M285.7,270.4 c-0.9,6.3-0.9,6.3,2.2,5.6C287.1,274.1,286.4,272.2,285.7,270.4z"/><path d="M191.7,310c1.3-2.6,0.6-5.8,4.4-5.8c0.3,0,0.8-0.9,1-1.4c4.3-12.6,8.6-25.2,13-38.1c-0.9-0.3-1.6-0.5-2.2-0.7 c-0.5-1.7,1.5-5.1,3-5.1c6.9,0,13.8,0,20.6,0c0.4,6.8-0.6,8.5-4.8,8c-0.1-0.7-0.2-1.5-0.4-2.7c-1,0-2,0-3,0 c-8.7-0.1-8.7-0.1-11.2,8.1c-0.4,1.3-0.8,2.6-1.2,4.1c2.5-0.2,5,1.4,6.2-2.2c0.3-0.8,3.1-0.6,5.5-1c-0.9,3.9-1.6,7.2-2.5,10.5 c-0.2,0.5-1.4,0.9-2.2,1.1c-1.1,0.2-2.3,0-3.5,0c0-1,0-1.7,0-2.5c-5.1-0.9-5.1-0.9-6.5,3.9c-1.8,5.9-3.6,11.7-5.6,18.1 c5.2,0,9.9,0,14.7,0c0.4,0,1-0.3,1-0.5c1-3.7,3.7-1.8,5.8-2c0.1,0.3,0.2,0.4,0.1,0.5c-0.9,7.7-0.9,7.7-8.6,7.7 C207.5,310,199.9,310,191.7,310z"/><path d="M184.6,259.6c-2.7,2.4-1.7,8.3-8,7.4c0.2-0.9,0.4-1.7,0.6-2.8c-3.6,0-6.9,0-10.2,0c-0.7,0-1.6,0.2-1.9,0.7 c-2.5,3.6-5,7.4-7.7,11.4c3.1,0.1,5.5,0.9,7.3-2.1c0.5-0.9,3-0.6,5.6-1.1c-2.5,4.2-4.3,7.9-6.8,11c-0.8,1-3.2,0.6-5.3,1 c0.4-1.2,0.6-2,0.8-2.8c-3.4-0.9-5.8-0.3-7.8,3.1c-3.2,5.5-7,10.6-10.5,15.9c-0.6,0.8-1,1.7-1.8,3.1c5.1,0,9.8,0,14.4,0 c0.5,0,1-0.2,1.4-0.5c2.7-2.3,2.7-2.3,6.6-1.9c-1.3,2.5-2.5,4.9-3.9,7.1c-0.3,0.5-1.4,0.9-2.1,0.9c-9.4,0.1-18.8,0-29.1,0 c2.4-2.3,2.6-5.5,6.3-5.7c0.7,0,1.5-1,2-1.8c8.4-12,16.8-23.9,25.1-35.9c1.2-1.8,1.5-4.3,2.5-6.2c0.4-0.7,1.6-1.4,2.5-1.4 c6.6-0.1,13.1-0.1,19.7-0.1C184.3,259.1,184.5,259.3,184.6,259.6z"/><path d="M235.6,259c4.2,0,8,0,12.4,0c-0.5,7.7-1,15.2-1.5,23.1c-2.8,0-5.3-0.1-7.8,0.1c-0.8,0.1-2.1,1.1-2.2,1.8 c-1,6.6-1.8,13.2-2.7,20c0.9,0.3,1.7,0.6,2.7,1c-0.2,1.7-0.5,3.3-0.7,4.9c-3.9,0-7.5,0-11.4,0c0.3-1.8,0.5-3.3,0.8-5 c3.1,0.3,3.2-2,3.6-4.2C231.1,286.8,233.3,273,235.6,259z M237.5,276.4c1.8,0,3.2,0,4.9,0c0.4-4,0.7-7.9,1.1-12c-1.7,0-3,0-4.6,0 C238.5,268.4,238,272.3,237.5,276.4z"/><path d="M187,264.7c-0.9-0.3-1.6-0.6-2.3-0.8c2.4-5.8,3.1-6,11.9-4.7c-1.2,2.1-0.9,5.3-4.7,5.2c-0.4,0-0.9,0.8-1.2,1.3 c-6,12.6-12,25.2-18,37.9c0,0.1,0,0.2,0.1,0.8c4.1,0,8.3,0,12.5,0c0.4,0,0.8-0.2,1.1-0.5c2.5-2.3,2.5-2.3,6.3-2 c-0.8,2.3-1.5,4.5-2.4,6.7c-0.3,0.6-1.2,1.3-1.8,1.3c-8,0.1-16.1,0.1-24.7,0.1C171.7,294.6,179.3,279.7,187,264.7z"/><path d="M307.8,303.4c-0.9-0.6-2.2-1.1-2.6-1.9c-4.6-11.3-9.1-22.6-13.4-34c-1-2.7-1.1-5.8-1.6-8.2c1.6,0.3,3.2,0.6,5.3,1.1 c4.2,13.7,8.5,28,12.9,42.3C308.2,302.9,308,303.1,307.8,303.4z"/><path d="M270.2,208.1c4.3-4.3,11.7-5.9,13.7-2.9c-1.3,0.3-2.4,0.6-3.6,0.9c-1.5,5.3-3.4,6-7.7,2.8 C272.1,208.4,271.2,208.4,270.2,208.1z"/><path d="M244.6,194.9c3.6,0.8,7.2,1.7,10.8,2.5c3.3-0.8,6.9-1.7,10.5-2.5c0.1,0.3,0.2,0.7,0.2,1c-2.3,0.6-4.7,1.1-7,1.8 c-2,0.6-3.1,1.9-3.2,4.1c-0.1,2.4,1.7,2.4,3.3,3c0.9,0.3,1.8,0.8,2.7,1.3c-4.7,0-9.2,0-13.2,0c0.7-0.3,2.1-0.8,3.3-1.5 c1-0.6,2.5-1.5,2.4-2.1c-0.2-1.5-0.8-3.5-1.9-4.1c-2.5-1.2-5.3-1.7-8-2.5C244.5,195.6,244.6,195.3,244.6,194.9z"/><path d="M230.5,205.9c-1.3-0.2-2.3-0.4-4.5-0.7c1.5-1,2.3-2,3-1.9c4.2,0.3,7.9,1.9,11.6,4.5c-2.3,1.1-4.1,2.7-6.1,2.9 C231.7,211,230.8,208.5,230.5,205.9z"/><path d="M259.9,285.2c0,6.1,0,11.9,0,17.7c-0.3,0-0.6,0-1,0c0-6.4,0-12.7,0-19.1c2.8,0,5.6,0,8.5,0c0,0.3,0,0.6,0,0.9 C265.2,284.9,262.9,285.1,259.9,285.2z"/><path d="M246.9,311.4c5.2,0,10.3,0,15.6,0c0-2.7,0-5,0-7.4c2.4,2.6,1.3,5.6,1.7,8.5c-5.9,0-11.6,0-17.3,0 C246.9,312.1,246.9,311.8,246.9,311.4z"/><path d="M261.5,265.2c0-2.4,0-4.5,0-6.6c0.3,0,0.7,0,1,0c0.2,2.7,0.4,5.5,0.6,8.3c-1.1,0.3-2,0.5-2.8,0.7c-0.2,2.6-0.3,5.1-0.5,7.5 c-0.3,0-0.7,0-1-0.1c0-3,0-6,0-9.3C259.4,265.6,260.3,265.4,261.5,265.2z"/><path d="M266.3,221.7c-7.4,0-14.9,0-21.9,0C247.9,218.8,260.8,218.6,266.3,221.7z"/><path d="M265.4,243.7c-6.8,0-13.7,0-21.3,0C251.7,241.3,258.5,241.4,265.4,243.7z"/><path d="M263.7,231.6c-5.7,0-11.4,0-17,0C252.4,229.7,258.1,229.7,263.7,231.6z"/><path d="M261.4,189.1c-3.9,0-8.2,0-12.2,0C252.2,186.8,258.6,186.8,261.4,189.1z"/><path d="M252.2,342.9c-3.2,1.2-5.9,0.4-7.5-2.1c-1.6-2.6-1.3-6.2,0.8-8.4c1.9-2,5-2.5,7.5-1.1c2.8,1.6,3.8,4.6,2.7,8.4 c-1.6-0.2-3.3-0.3-5.8-0.6C250.9,340.7,251.5,341.7,252.2,342.9z"/><path d="M298.6,330.9c5-0.5,7.5,1.4,7.6,5.7c0.1,4.6-2.4,6.8-7.6,6.5C298.6,339.1,298.6,335.1,298.6,330.9z"/><path d="M318.5,343.1c0-4.1,0-8.1,0-12.2c2.6-0.5,5-0.4,6.5,1.9c1.7,2.5,1.6,5.3,0.1,7.9C323.6,343.3,321.2,343.5,318.5,343.1z"/><path d="M142.8,338.5c0.8-2.1,1.5-3.9,2.5-6.4c0.9,2.5,1.6,4.3,2.4,6.4C145.9,338.5,144.5,338.5,142.8,338.5z"/><path class="st0" d="M285.7,270.4c0.7,1.9,1.5,3.7,2.2,5.6C284.7,276.7,284.7,276.7,285.7,270.4z"/><path class="st0" d="M237.5,276.4c0.5-4.1,1-8,1.5-12c1.6,0,2.9,0,4.6,0c-0.4,4.1-0.7,7.9-1.1,12 C240.7,276.4,239.3,276.4,237.5,276.4z M242,265.3c-1,0.4-1.5,0.5-1.5,0.6c-0.5,2.7-1,5.5-1.3,8.2c0,0.3,0.6,0.7,0.9,1 c0.4-0.4,1.1-0.7,1.1-1.2C241.5,271.2,241.7,268.5,242,265.3z"/><path d="M242,265.3c-0.3,3.2-0.5,5.9-0.9,8.7c-0.1,0.4-0.7,0.8-1.1,1.2c-0.3-0.3-0.9-0.7-0.9-1c0.4-2.7,0.8-5.5,1.3-8.2 C240.5,265.7,241,265.7,242,265.3z"/></g></svg> 