<?xml version="1.0" encoding="utf-8"?><svg version="1.1" id="Layer_1" xmlns="http://www.w3.org/2000/svg" xmlns:xlink="http://www.w3.org/1999/xlink" x="0px" y="0px" viewBox="0 0 512 512" style="enable-background:new 0 0 512 512;" xml:space="preserve"><style type="text/css"> .st0{fill:#FCDD16;} .st1{fill:#0B492C;} </style><g id="Ebene_2"><path class="st0" d="M453.4,140.3c0-3.5,0-7.1,0-10.7c0-5.3-0.1-10.6-0.1-15.9l-0.1-0.2l0.2-0.1c-0.4-6.4-0.9-12.6-0.7-19 c-1.1-4.1-0.5-8.5-1.1-12.7c-0.2-1.8-0.7-2.6-2.6-2.6c-17-0.2-33.7-3.1-50.2-6.8c-36-8.3-70.5-20.4-102.5-39.1 c-13.2-7.7-25.5-16.5-35.6-28.1c-3.9-4.5-3.9-4.5-7.8,0c-10.3,11.6-22.6,20.5-35.8,28.3c-23.2,13.7-48,23.6-73.7,31.4 c-25.8,7.8-52,13.7-79.1,14.4c-1.9,0-2.2,0.8-2.2,2.5c-0.5,9.3-1.1,18.5-1.5,27.8c-0.4,3.8,0.5,7.7-0.5,11.4 c0.1,1.2,0.2,2.2,0.2,3.4c0,8.3,0,16.5,0,24.8c0,3.3,0,6.6,0.1,9.9c0.5,6.2,0.9,12.5,1.2,18.7c1.2,22.5,3.8,44.8,7.8,67 c6.8,38.4,17.7,75.7,34.3,111.2c18,38.6,42,72.9,73.2,101.9c23.1,21.6,48.9,38.9,77.6,52.2c1.8,0.8,3.3,0.8,5.1,0 c4.4-2.2,8.8-4.2,13.2-6.6c36.6-19.2,67.7-45.2,93.7-77.2c22.5-27.7,39.7-58.7,53.2-91.7c7.3-17.9,13-36.4,17.7-55.3 c7.1-28.8,11.7-57.9,14.2-87.5c0.5-5.9,0.9-11.8,1.4-17.7c0.2-6.1,0.5-12.3,0.7-18.5c-0.1-0.1,0-0.2,0.1-0.4 C453.3,150.4,453.3,145.3,453.4,140.3z"/></g><g id="Ebene_1"><path class="st1" d="M256,23.7c16.5,19.9,38.4,32.1,61.3,42.5c30.7,13.7,62.6,23.1,96,27.4c5.3,0.7,10.6,1.3,15.9,1.1 c2.8-0.1,3.4,1.1,3.5,3.5c1.8,30.2,2.1,60.3,0,90.4c-2.7,39.1-9.1,77.6-21.2,115c-15.2,46.7-38.1,88.8-72.3,124.5 c-23.2,24.3-50,43.5-80.4,57.9c-2.2,1.1-4,0.9-6.1,0c-53.3-25.4-93.7-64.4-123.1-115.2c-22.5-39-36.1-81.2-43.9-125.3 C77,196.6,76,147.5,78.9,98.1c0.1-2.7,0.9-3.4,3.7-3.4c27.8-0.9,54.5-7.5,80.8-16.3c22.5-7.5,44.2-16.9,64.3-29.8 c5.3-3.4,10.4-7.1,15.1-11.2C247.8,33.1,252.2,28.7,256,23.7z M352.9,328.3c1.1,2.9,1.9,5.9,3.4,8.7c4.4,8,11.9,11.3,20.8,9 c6.2-1.7,11.3-5.4,15.8-9.9c1.4-1.4,0.7-1.8-0.7-2.1c-4.8-1.4-9.7-2.6-14.4-4.4c-8.1-2.9-9.8-9.1-4.5-16c2.6-3.4,6-6.1,9.3-9 c5.5-4.6,11.2-9.2,16-14.6c8.4-9.6,12-20.4,10.1-33.1c-2.2-15.1-9.9-24.3-23.7-27.6c-16.5-3.8-31.1-0.1-42.9,12.7 c-5,5.4-8.8,11.7-12.5,18c-2,3.5-4.7,6.4-8.3,8.5c-3.4,2.1-5.2,1.7-6.7-2c-3.4-7.8-9.4-13-16.7-16.7c-7.8-4-16.2-6.4-24.6-8.4 c-16.6-4-28.2-15.3-38.6-28.1c-0.1-0.1-0.1-0.2-0.1-0.2c-1.1-1.5-0.9-2.2,1.2-2.6c8.5-1.5,16.9-3.4,25.1-5.5 c26.5-6.7,47.4-21.1,61.6-44.8c10-16.9,18.3-34.6,25.8-52.7c0.8-1.9,0.2-2.4-1.7-2.2c-5.4,0.5-10.8,0.6-16.3,1.2 c-15.4,1.7-30.4,4.8-44.3,12c-6.4,3.3-9.9,8.6-11.6,15.3c-1.8,6.6-0.1,10.4,5.8,14c5.5,3.5,8.1,11.3,5.4,16.9 c-4.8,9.6-12.4,15.7-23.3,17.1c-9.1,1.2-14.3-3.5-14-12.7c0.1-5,1.4-9.8,2.6-14.5c2.8-11.2,10.3-19.8,17-28.8 c5.2-7,8.8-14.2,7.8-23.1c-0.1-0.9-0.4-1.8,0.9-2.4c9.4-4.6,16-12.4,22.4-20.3c0.9-1.3,2.8-2.7,2.2-4.2c-0.8-1.8-3.2-1.7-5.1-1.9 c-0.5-0.1-1.1,0-1.5-0.1c-6.4-0.1-12.5,1.2-18.4,3.4c-1.1,0.5-2,0.9-3.2,0c-7.7-6.5-16.9-8.3-26.6-8.7c-10.1-0.5-20,0.6-30,2.9 c-2.5,0.6-5.5,1.2-5.8,4.5c-0.2,2.5-1.3,2.9-3.4,2.9c-3.7,0.1-7.3,0.6-10.8,1.8c-12.3,4-18.3,17.5-13.2,29.4 c0.4,0.8,0.6,1.7,1.5,1.8c0.8,0,1.1-0.8,1.5-1.4c1.5-2.5,3.1-5,4.7-7.4c1.1-1.5,2.5-2.6,4.5-2.5c8.7,0.8,16.9,3.2,23.8,8.8 c3.8,3.1,3.2,7.5-0.8,10.3c-1.5,1.1-3.2,1.8-4.8,2.1c-8.5,2.1-16.2,6.4-24.8,8.3c-1.9,0.5-3.4,1.4-2,3.8c2.6,4.4,7.4,6.5,12.4,5.2 c3.7-0.9,7.2-2.2,10.8-3.3c2.2-0.7,4.2-0.4,5.5,1.7c1.3,1.9,0.7,3.8-0.5,5.5c-2.5,3.8-5.9,6.4-9.7,8.8c-2.9,2-5.9,2.8-9.7,2.5 c-8.1-0.8-15.6,1.8-21.8,7.1c-1.1,0.9-2.5,1.8-2.6,3.7c4.6-0.1,9.2-0.8,14.2,1.7c-6.2,2.1-11.4,4.6-16.2,8 c-5.4,3.8-8.6,13.4-6.8,19.9c5.8-6.2,11.3-8.4,17.2-6.2c-3.2,4.2-5.8,8.7-7.3,13.8c-4.1,13.9-0.6,26.5,6.5,38.4 c2,3.2,3.8,6.6,5.1,10c2.8,7.4,1.4,11.8-5.5,15.7c-5.7,3.2-11.9,5.3-18.2,6.8c-5.7,1.4-10.7,0.2-15.2-3.8c-2.6-2.4-5.4-4.2-8.5-5.8 c-4.6-2.4-9.3-3.7-14.5-2.9c-10.1,1.3-16.3,11.6-12.3,20.5c8.1-9.4,15.8-9.7,24.3-0.5c-2.8-0.2-5.4-0.2-7.9,0.1 c-5.4,0.9-10.1,2.9-12.6,8.3c-2.8,6,0.2,20,5.3,24.6c-0.6-15.1,7.8-20.6,15.2-19.8c-7.2,7.8-9.7,16.4-4.1,26.1 c3.5,6.2,10.4,10.3,15.2,9.4c-9.9-12.3-9.6-22.8,1.2-28.2c1.9,19.8,12.4,29.5,27.2,24.8c-1.9-1.1-3.9-1.9-5.8-3.2 c-7-4.6-8.8-11.9-4.5-19.1c7.3-12.1,17.9-20.3,31.6-24.3c6.1-1.8,12-4.2,17.1-8.5c5.9-5.1,8.4-11.4,6.2-19.1 c-0.1-0.6-0.7-1.3,0.1-2.1c2.1,2.2,2.9,4.8,3.2,7.7c0.6,5.7-1.4,10.4-5.8,14.4c2.4,0.7,4.4,1.3,6.4,2c12.3,4.1,24.1,9.2,34.1,17.7 c9.6,8.1,14.4,17.9,12.5,31c-2.5,17.2,4.8,29.1,20.9,36c7,2.9,14.3,4.1,21.7,5.1c9.3,1.2,12.5,7.2,8.8,15.7 c-2,4.7-3.7,9.6-5.4,14.4c-3.4,9.3-6.5,18.9-11.8,27.4c-2.5,4.1-4.1,8.4-5.3,13c-2.2,8.3-3.1,16.7-5.7,24.8c-0.4,1.1-1.2,2.4,0,3.2 c1.1,0.7,2.1-0.5,2.9-1.2c9.2-6.6,17.7-14,26.6-21.1c0.9-0.7,1.5-1.2,0.5-2.5c-1.5-1.8-1.9-4.1-2.2-6.5c-0.9-6.4-0.9-6.4,5.1-7.9 c4.5-1.2,6.2-3.5,5.2-8c-0.9-4.1-0.7-8.1,0.2-12.1c2.2-10.3,6.5-19.8,12.4-28.3c3.5-5.2,3.9-10.3,3.2-16c-0.5-4.1-2.2-6.5-6.5-7.5 c-7.3-1.8-14-4.8-19.6-10.1c-6.1-5.9-8.4-12.6-4.8-20.8c0.6-1.3,1.1-2.7,1.5-4.1c3.2-8.4,5.7-16.9,4-26.1c-0.2-1.2,0.1-1.5,1.3-1.3 c6,0.9,10.8-1.9,15.1-5.7c3.7-3.3,7.1-6.8,10.7-10.1c2.5-2.2,5.2-4.2,8.6-5c4.2-0.9,8.1,0.4,11,3.3c2.7,2.8,1.9,6.5,0.6,9.8 c-2.6,6.6-7.2,11.4-13.4,14.7c-8.7,4.6-15.1,11.2-15.8,21.6c-0.8,11.1,5.9,18.6,13.6,26.2C351.7,337.7,351.7,333,352.9,328.3z M153.7,396.1c0.1,0.7,0.1,1.1,0.2,1.3c6.6,10.3,14.7,19.2,23.3,27.9c1.2,1.2,1.7,0.8,2.1-0.6c1.1-2.8,2.6-5.5,4.5-7.9 c3.1-3.9,4.2-4,8.1-0.8c2.8,2.2,5.1,2.4,7.9,0c1.3-1.1,2.5-2.4,3.3-3.7c2.9-4.5,6.7-8,11-11.1c11.8-8.7,24.8-15.4,38.8-19.6 c5.9-1.8,6.6-6,7.5-10.6c0.8-4.2,0.4-7.5-4.1-10.3c-8-5-14.4-11.8-19-20.2c-0.4-0.7-1.8-1.7,0.1-2.4c7.9-2.8,14.4-8.1,21.8-11.7 c6.2-2.9,7-7.5,6.5-13.3c-0.2-1.9-0.6-3.8-1.3-5.4c-4.4-9.7-11.4-16.6-20.8-21.5c-1.2-0.7-2.5-0.9-3.9-0.2 c-11.8,6-23.2,12.5-32.5,22.2c-13.4,14.2-12.9,28.5,1.9,41.3c5.1,4.4,9,9.7,12.9,15c3.8,5,2.1,8.6-2.2,12.1c-2.8,2.4-6.4,4-9.7,5.9 c-4.7,2.7-9.9,4.7-14.3,8c-2.9,2.2-6.2,3.8-9.9,4.6c-8.5,2-17,2.1-25.6,1.5C158.4,396.5,156.2,396.2,153.7,396.1z M92.8,167.5 c1.7-2.1,3.1-4.2,4.8-6.1c8.5-9,18.5-8.4,25.8,1.5c6.8,9.2,11.3,19.5,14.7,30.3c0.4,1.1,0.5,2,0.1,3.1c-1.8,6.5,0.2,11.9,5.1,16.5 c2,1.9,4,3.8,5.7,5.9c2.5,2.9,2.4,5.3,0,8.5c-2,2.8-2,5,0.9,7.1c8.6,6.2,18.6,9.1,29.2,11.6c-0.2-0.7-0.4-1.1-0.5-1.3 c-8.1-11.1-11.7-23.3-9.7-37c0.4-2.4-0.9-3.5-2.7-4.4c-3.5-1.7-6.7-3.8-9.1-7c-4.5-6.1-8.3-12.6-9.3-20.3 c-0.5-3.4-1.3-6.8-1.8-10.3c-1.1-6.8,0.5-12.9,6.1-17.5c3.5-2.8,6.5-6.2,8.7-10.3c2.5-4.2,3.7-8.6,3.1-13.6 c-1.1-9.1-10.5-15.6-18.3-12.6c8,9,7.1,17.1-3.3,23.8c0.9-3.8,1.2-7.4,0.7-11.1c-0.7-5.2-2.9-9.3-8-11.6c-5.7-2.5-17.8-1.1-23,2.5 c14,3.8,20.2,10.3,17.1,18c-8.5-9.1-15.3-11.4-24.1-8.4c-6.6,2.4-11.4,6.6-13.6,14.6c5.4-3.8,10.1-7.1,16.2-5.9 c6.1,1.1,9.4,5.7,12.9,10.8c-7.5-0.6-14.7-1.7-20.8,3.5C94.1,153.1,93.2,160.1,92.8,167.5z M388.6,105.9c0-0.2,0-0.4,0-0.6 c-11.3,0-22.6,0-34,0c-1.7,0-2.5,0.5-3.1,1.9c-2.4,5.4-5.1,10.8-7.1,16.4c-0.9,2.4-0.8,3.2,2.1,3.1c10.7-0.5,21.6-0.7,32.3-1.1 c9.2-0.4,18.4-0.8,27.6-2.2c9-1.4,15.2-5.9,18-14.9c0.7-2.2,0.2-2.7-2-2.7C411.2,105.9,399.9,105.9,388.6,105.9z M334.1,145.4 c8.8,0.6,17.2,1.2,25.6,1.5c13.2,0.6,26.4,0.7,39.5-0.9c9-1.1,16-7.7,17-15.6c0.2-2-0.1-2.8-2.5-2.5c-3.8,0.5-7.5,0.7-11.2,1.1 c-19.8,1.9-39.7,2.4-59.5,2.5c-2,0-3.1,0.6-3.8,2.4C337.7,137.5,336,141.2,334.1,145.4z M381.4,169.3c2.1,0,4.2,0.1,6.2,0 c8.4-0.4,15-5.3,17.5-12.6c0.8-2.4,0.7-3.4-2.4-3.5c-10-0.2-20-0.6-30.1-1.3c-12.6-0.9-25.2-2.2-37.9-3.4c-1.9-0.2-2.8,0.4-3.7,1.9 c-1.7,3.2-3.5,6.1-5.4,9.2c-0.9,1.4-0.6,1.9,1.1,2.1C344.8,165.2,363,168.6,381.4,169.3z M373.4,191.3c9.1,0,15.8-4.4,18.7-11 c0.8-2,0.7-2.8-1.7-3.2c-21.9-3.2-43.5-7.4-65.1-12.6c-1.4-0.4-2.4-0.1-3.2,1.2c-2.1,2.9-4.2,6-6.6,8.8c-1.5,1.8-0.8,2.2,0.9,2.8 c9.7,3.1,19.3,6.1,29.2,8.7C355.2,188.3,364.8,190.5,373.4,191.3z M300.6,189.5c0.2,0.2,0.4,0.5,0.5,0.6 c16.4,7.9,33.1,15.1,50.8,19.8c8.4,2.1,16.6-1.4,20.4-8.1c0.7-1.4,1.2-2.4-0.9-2.8c-19.6-5.3-38.9-11.6-57.9-18.6 c-1.1-0.4-2.1-0.7-3.1,0.5C307.3,184,304,186.8,300.6,189.5z M281.8,200.8c13.6,8.5,27.1,16,41.5,21.7c8,3.2,16.6,0.7,21.2-5.5 c1.2-1.5,1.2-2.2-0.8-3.1c-15.4-6.4-30.8-13.2-45.8-20.8c-0.7-0.4-1.3-0.8-2.2-0.2C291.2,195.5,286.7,198.1,281.8,200.8z M259,208.3c11.9,9.2,23.6,17.9,36.7,24.4c7.7,3.8,16.2,1.9,21.5-3.7c1.3-1.4,1.7-2.2-0.4-3.4c-12.6-7.1-25.1-14.4-37.1-22.4 c-1.1-0.7-2-0.9-3.2-0.5C270.9,204.6,265.4,206.3,259,208.3z M237.5,213.4c8.7,8.3,16.9,16,26.5,21.8c6.1,3.7,12.6,3.3,18.5-1.2 c1.5-1.2,2-1.9,0.1-3.4c-8.7-6.6-17.5-13.3-26.1-20c-1.1-0.8-2-1.2-3.4-0.8C248.3,211,243.3,212.1,237.5,213.4z M254.5,66.6 c5.7,0.2,10.6,2,15,5.1c0.9,0.7,1.4,0.5,2-0.4c3.1-4,5.5-8.4,6.1-13.6c0.2-2-0.2-2.7-2.2-2.5c-6.2,0.6-12.1,2.2-17.2,6.1 C256.6,62.7,255.2,64.3,254.5,66.6z M205.7,107.1c-2.4-0.1-4.1,0.7-5.5,2.2c-2.1,2.4-4,4.8-5.5,7.5c-0.5,0.9-1.7,2-0.7,3.1 c1.1,1.3,2.6,0.6,3.8,0c2.9-1.7,6.2-2.4,9.4-3.2c1.9-0.5,3.9-0.9,5.7-1.8c2.9-1.2,3.2-3.2,0.7-5.2 C211.2,108.1,208.4,107.4,205.7,107.1z"/><path class="st1" d="M217.6,79.4c4.7,0.6,9.2,1.7,13.3,4c1.7,0.9,1.9,2.5,1.4,4.1c-0.5,1.9-1.9,2.7-3.7,2.9 c-1.8,0.2-2.8-0.6-3.3-2.2c-0.8-3.2-2.9-4.4-6-4.1c-1.8,0.1-3.1-0.6-3.5-2.4C215.5,80.2,215.7,79.3,217.6,79.4z"/></g></svg> 