<?xml version="1.0" encoding="utf-8"?><svg version="1.1" id="Layer_1" xmlns="http://www.w3.org/2000/svg" xmlns:xlink="http://www.w3.org/1999/xlink" x="0px" y="0px" viewBox="0 0 512 512" style="enable-background:new 0 0 512 512;" xml:space="preserve"><style type="text/css"> .st0{display:none;} </style><g transform="translate(0.000000,1500.000000) scale(0.100000,-0.100000)"><path class="st0" d="M2183.2,15074.7c0-2.3-24.3-4.6-53.7-4.6c-36.2-0.5-48.6-1.8-38.1-4.1l16.1-3.2l-17-0.9 c-9.2,0-18.3-2.3-19.7-5c-1.8-2.8-45.4-4.1-116-3.7c-62.4,0.5-101.8,2.3-88.1,3.7c23.4,2.8,22,3.2-14.7,3.7 c-22.5,0.5-40.4-0.9-40.4-2.8c0-2.3,5.5-3.7,12.8-3.2c6.9,0.5,8.3,0,3.2-0.9c-5-1.4-11-4.1-13.3-6.4c-2.8-2.3-50.4-4.1-106.9-4.1 c-65.1,0-102.3-1.8-102.3-4.6c0-2.8-25.7-4.6-67.4-4.6c-45.4,0-65.6,1.4-61,4.6c6,3.7,5.5,4.6-0.9,4.6c-4.6,0-8.3-1.8-8.3-4.6 c0-2.3-4.6-4.6-10.5-4.6c-6,0-12.4-1.8-15.1-4.6c-2.3-2.3-41.3-5.5-86.7-6.9c-45.4-1.4-112.4-3.2-149-4.6 c-70.2-2.3-94-0.5-82.1,6.9c3.2,2.3,42.7,4.1,86.7,4.1s85.8,0.9,93.1,2.8c13.3,3.7,17,11.5,5.5,11.5c-3.7,0-6.9-1.8-6.9-4.1 s-5.5-3.2-12.4-2.3c-7.3,0.9-22.9,2.3-35.8,3.2c-20.6,1.8-21.1,1.8-4.6-1.4c11-2.3-5.5-3.2-43.6-2.3c-33.9,0.5-66,2.8-70.6,4.6 c-6.9,2.8-7.8,2.3-5-2.3c2.8-4.6,1.4-5.5-7.3-2.8c-6,1.4-33.5,3.7-61.5,4.6c-42.2,1.4-44.5,0.9-13.8-1.4l36.7-3.2l-39-2.3l-39-2.3 l38.1-0.9c34.9-0.9,37.6-1.4,37.6-10.5c0-9.2,1.8-9.6,22.9-7.8c12.4,1.4,21.6,0.5,20.2-1.8c-1.4-1.8-33.9-3.7-72.9-3.7 c-42.2,0-71.5-1.8-73.4-4.6c-1.4-2.3-10.5-4.1-19.7-3.7l-17,0.5l16.1,1.8c8.7,1.4,17.9,3.7,20.2,6c5,5-28,0.5-38.5-5 c-6.9-3.2-134.8-2.3-144.5,0.9c-2.3,0.9-5.5,0-6.9-2.8c-1.4-2.8,14.7-4.6,44.5-4.6c26.1,0,47.2-1.4,47.2-3.2c0-2.3-22.5-3.7-50-3.7 c-39.9,0-50.4-1.4-52.7-6.9c-1.4-3.7-5.5-5.5-9.6-4.1c-3.7,1.4-6.9,0.5-6.9-2.3c0-2.8-2.8-5-6-5c-6.4,0-53.2-47.2-61.9-62.8 c-2.8-6-5.5-17.4-5.5-26.1s-1.8-17.4-4.6-18.8s-4.6-6.9-4.6-11.9c0-7.8-11.9-38.5-23.4-60.1c-2.3-4.6-4.1-14.2-4.1-21.6 c0-7.8-1.8-15.1-4.6-16.5c-2.3-1.4-5-9.6-5-17.4c-0.9-14.2-0.9-14.2-2.8-1.8c-1.8,10.1-3.7,12.4-11,10.1c-5.5-1.8-8.7-0.9-9.2,3.2 c0,3.2-3.2-5.5-6.9-19.3c-3.7-13.8-6-32.6-5-41.3c1.4-13.3,1.8-12.4,2.3,6c0.5,11.9,2.8,21.6,5,21.6s5.5,5.5,6.4,12.8l1.8,12.4 l0.9-12.4c0-7.3,2.3-12.8,4.6-12.8c2.3,0,3.2,4.6,1.8,10.5c-1.4,5.5-0.9,8.7,0.9,6.9c5-5,2.8-60.5-2.3-62.4c-2.8-0.9-4.6-6-4.6-11 c0-5.5-2.3-8.3-6-6.9c-4.6,1.8-5.5-1.8-5-12.4c0.9-7.8,0.5-10.5-0.9-6c-1.4,4.1-6,7.8-10.1,7.8c-6.4,0-6.9-0.9-0.9-4.6 c7.8-4.6,7.8-45.4,0-59.6c-2.8-4.6-4.6-15.6-4.6-24.8c0-8.7-1.8-17.4-4.6-18.8c-2.8-1.4-4.6-11.5-4.6-21.6 c0-21.6-8.7-54.1-14.7-54.1c-1.8,0-3.7-15.6-3.7-34.4c0-21.1-1.8-34.4-5-34.4c-2.3,0-3.2-2.3-1.8-4.6c1.8-2.8,0-10.1-4.1-16.1 s-7.3-15.6-7.3-21.1c0-12.4-9.6-46.3-14.7-51.8c-1.8-2.8-3.7-14.7-3.7-26.6c0-16.5-1.8-22-6.9-22c-3.7,0-6.9,2.3-6.9,4.6 c0,2.8-1.4,4.6-3.2,4.6c-9.2-0.5-15.1-8.7-17.4-22.9c-1.8-13.3-1.4-14.2,1.8-4.6c4.1,11.5,4.1,11.5,4.6-2.8 c0.5-7.3-1.8-16.1-5-19.3c-4.1-4.1-4.1-5.5,0.5-5.5s5-4.1,2.8-17c-1.8-9.6-3.2-20.6-2.8-24.3c0.5-3.7,0.5-15.1,0.9-25.2v-18.3 l5.5,20.6c3.2,11.5,4.1,21.6,2.3,22c-5.5,2.8-4.1,11.9,3.7,28c4.1,8.3,6,17.9,3.7,22.5c-1.8,4.1-2.8,11.5-2.3,16.5 c0.9,4.6-1.4,10.1-4.6,12.4c-3.7,1.8-4.6,5-2.8,7.3c2.3,1.8,5.5,0.5,7.3-2.8c2.3-3.7,6.4-4.6,9.6-2.8c4.1,2.8,5,1.8,2.3-1.8 c-1.8-3.2-3.2-22.9-2.8-44c0.5-21.6-1.4-39.4-4.1-41.3c-2.3-1.4-4.6-7.8-4.6-13.3c0-6-4.1-15.6-8.7-21.6 c-8.3-10.1-9.6-10.5-21.6-4.1c-7.3,3.7-14.7,8.7-16.5,11.5c-1.8,2.3-4.6,2.8-6.9,0.9c-1.8-2.3-0.5-5.5,2.8-7.3 c4.1-2.8,4.6-5,0.9-6.9c-2.8-1.8-5-6.9-5-11c0-6,1.8-5.5,8.7,3.2c4.6,6,10.5,9.6,13.8,7.8c8.3-5,6-9.2-8.7-15.6 c-7.8-3.7-13.8-9.2-13.8-12.4c0-3.7-3.2-5-9.2-3.7c-5,1.4-9.2,0-9.2-2.8c0-2.8-4.1-5-9.2-5c-5,0-9.2-1.8-9.2-4.6 c0-2.3-2.8-4.6-6-4.6c-7.3,0-94.9-87.6-94.9-95.4c0-2.8-1.8-5.5-4.6-5.5c-2.3,0-4.6-4.1-4.6-9.2c0-5-1.8-9.2-4.6-9.2 c-2.3,0-4.6-6.9-4.6-15.6c0-8.7-1.8-17.4-4.6-18.8c-2.3-1.4-4.6-8.7-4.6-16.5c0-7.3-1.8-13.3-4.1-13.3c-2.8,0-4.6-27.5-4.6-64.2 c0-37.1,1.8-64.2,4.6-64.2c2.3,0,4.1-4.1,4.1-9.2s2.3-9.2,5-9.2c3.2,0,4.1-4.6,3.2-11c-1.8-8.7-0.5-10.1,6.9-8.3 c5.5,1.4,8.3,0.5,6.4-2.3c-7.3-11.9,26.1-66.5,35.8-57.3c1.8,1.8,2.8,0.9,1.8-1.4c-1.8-8.3,8.3-27.1,20.6-38.5 c6.4-6.4,11.9-13.3,11.9-16.1s9.2-14.2,20.6-25.2c11.5-11,19.7-21.6,18.3-23.4c-0.9-1.8,4.1-9.2,11.5-16.1 c7.8-7.3,13.8-17.4,13.3-22.5c0-9.6,0-9.6-3.7-0.5c-2.3,5-8.7,13.3-14.7,18.3l-11,9.2l7.8-9.2c4.1-5,9.6-14.7,12.4-22 c2.8-6.9,7.8-12.4,11.5-12.4c6,0,6.9-17.9,7.3-122.4c0-67,1.8-124.3,4.1-127c1.8-2.8,4.1-22.5,4.6-44c0.5-21.6,3.2-40.8,5.5-43.1 c2.3-2.8,4.1-23.4,3.7-45.9c-0.5-26.1-1.8-37.6-3.7-30.3c-3.2,11-3.7,10.5-8.7-6.9c-6.4-21.6-6.9-36.7-0.9-21.6 c5.5,12.8,15.6,13.3,12.4,0.5c-1.4-5,0.9-19.7,4.6-32.6c5-15.1,6-23.8,2.8-25.7c-7.3-5-11-20.6-6-28.4c3.7-5.5,4.6-5.5,4.6,2.3 c0.5,13.3,13.8-24.8,13.8-39.4c0-6.4,3.7-18.8,7.8-27.5s8.7-28.9,9.6-45.4c0.9-16.5,3.7-35.8,6.4-43.1c4.1-10.5,4.1-13.8-1.8-17 c-5.5-2.8-7.3-10.5-7.3-26.1c0.5-11.9,1.4-17.9,2.3-13.3c1.4,4.1,3.7,7.8,5.5,7.8s2.8,6.9,2.3,15.1l-1.4,14.7l3.7-13.8 c1.8-7.3,1.8-18.3,0-23.8c-2.3-5.5-1.8-11.5,0.5-12.8c2.3-1.4,5,2.3,6,7.8c0.9,6,2.3,1.8,2.8-8.7c0-11,2.8-19.7,5-19.7 c2.8,0,4.6-4.1,4.6-8.7c0-5,1.8-10.1,4.1-11.9c2.8-1.4,4.1-19.3,3.2-39.9c-1.8-43.6,3.7-74.8,6.9-41.3c1.4,11,0.5,21.1-1.4,22 c-4.6,3.2-4.6,15.6,0,15.6c6.9,0,14.7-25.7,14.7-49.1c0-13.3,1.4-24.3,3.7-24.3c5.5,0,14.7-23.4,14.7-37.1c0-6.9,1.8-14.2,4.6-15.6 c2.3-1.4,4.6-12.8,4.6-25.2c0-12.4,2.3-23.8,4.6-25.2c2.8-1.4,4.6-7.8,4.6-13.8s2.3-12.4,4.6-13.8c6-3.7,6-23.8,0-27.5 c-2.8-1.4-4.6-5.5-4.1-8.3c0-4.1,0.9-3.7,2.8,0.5c0.9,2.8,4.6,4.1,6.9,2.8c3.2-1.8,3.7-0.9,1.8,1.8c-1.8,3.2-0.9,5.5,1.4,5.5 c2.8,0,5-6,5-13.3c0-7.8,2.3-15.1,4.6-16.5c2.8-1.4,4.6-9.6,4.6-18.3s2.3-17,4.6-18.3c2.8-1.4,4.6-7.8,4.6-13.8s2.3-12.4,4.6-13.8 s4.6-10.5,4.1-19.7c0-14.2-0.9-15.6-4.6-7.8l-4.1,9.2l1.4-9.2c0.9-6,4.1-8.7,9.2-7.8s7.8-1.8,7.8-8.3c0-5,2.3-9.2,4.6-9.2 c2.8,0,4.6-4.1,4.6-8.7c0-5,1.8-10.1,4.1-11.5c2.3-1.4,5-8.7,6-16.1c0.9-7.8,0.5-12.8-1.8-11.5c-1.8,1.4-3.7,6-3.7,10.5 s-3.2,15.1-7.3,23.4c-5.5,10.5-8.7,12.8-11.5,8.7c-1.8-3.7-1.4-8.7,1.8-12.4c2.8-3.7,5-13.3,4.6-21.1l-0.9-14.2l3.7,13.8 c3.7,12.8,4.1,12.4,5-6.9c0.5-11.5,1.8-18.3,2.8-15.1c3.7,8.7,15.6,1.4,15.6-9.6c0-5.5,2.3-12.4,5-15.1c7.8-7.8,3.2-27.1-6-25.2 c-6,0.9-8.3-1.8-8.3-10.1c0-7.3,2.3-11,6-9.6c3.7,1.8,6-3.7,6.9-16.1c0.5-10.1-0.9-18.3-3.7-18.3c-2.3,0-4.6-1.8-4.6-4.6 c0-7.3,10.1-5.5,16.1,3.2c5,6.4,4.6,10.5-0.5,20.6c-5.5,11-5.5,12.4,0,10.1c3.7-1.4,7.8-6.9,9.2-12.4c1.4-5.5,3.7-8.7,5-6.9 c4.6,4.6-6.4,26.6-13.8,26.6c-4.6,0-6.9,3.2-6,7.8c2.3,11.5,12.8,12.8,12.8,1.8c0-5.5,2.3-9.6,4.6-9.6c2.8,0,4.6-4.1,4.6-9.2 s2.3-9.2,4.6-9.2c2.8,0,4.6-3.7,4.6-8.3s1.4-10.1,3.2-11.9c4.6-4.1,15.1-35.8,15.1-44.9c0-4.6,2.3-8.3,4.6-8.3 c2.8,0,4.6-4.1,4.6-9.2c0-5,2.3-9.2,4.6-9.2c2.8,0,4.6-4.1,4.6-9.2s2.3-9.2,5-9.2c3.2,0,4.1-4.6,3.2-11.5 c-1.4-6.4-0.5-10.5,2.8-10.1c2.8,0.5,5.5-4.6,6.4-11.5c0.9-7.3,3.7-12.8,6-12.8s4.1-4.1,4.1-9.2c0-5,2.8-9.2,6.4-9.2 c4.1,0,5.5-3.2,4.1-9.2c-1.4-5.5,0-9.2,3.2-9.2c3.7,0,5-4.1,3.7-11.5c-1.4-6-0.5-10.5,2.3-10.1c2.8,0.5,6-3.7,7.3-9.2 c1.4-6,6.4-14.7,11-19.7c4.1-5,7.8-14.2,7.8-20.6c0-6,2.3-12.4,5-14.2c2.8-1.4,4.1-6.4,2.8-11c-1.4-6,0-7.8,4.1-6 c3.7,1.4,6.4-0.5,6.4-5c0-6.9,10.5-28,26.6-52.3c6.4-9.6,6.4-11.5,0.9-8.3c-3.7,1.8-3.2,0.5,1.4-3.2c7.8-6.9,11-15.1,3.7-10.5 c-2.3,1.4-5.5-0.5-6.9-4.6c-1.4-3.7-0.9-6,0.9-4.6c1.8,0.9,2.3-7.3,1.4-18.3c-0.5-11-3.7-20.2-6-20.2c-2.8,0-3.2-3.2-1.8-6.9 c1.4-4.1-0.5-8.3-4.1-9.6c-6-2.3-6.9-17-6.9-87.6c0-80.3,0.5-85.8,10.1-99.1c5.5-8.3,11.9-15.1,13.8-16.1c1.8-0.9,3.7-5.5,3.7-10.5 c0-4.6,1.8-8.7,4.1-8.7s5-3.7,6.9-7.8c1.4-4.6,4.1-11,5.5-14.2c1.8-4.1-0.5-5.5-8.3-4.1c-5.5,0.9-7.8,0.9-4.6,0 c2.8-1.4,5.5-4.6,5.5-7.3c0-3.7,1.8-3.2,5.5,0.5c7.3,7.3,12.8,6.9,12.8-0.5c0-3.2,8.3-13.8,18.3-23.4s18.3-19.7,18.3-22.9 c0-8.3,16.1-22,20.2-17.9c1.8,2.3,2.8,0.5,1.8-3.2c-0.5-3.7,1.4-6.4,4.6-5.5c3.2,0.5,6.9-2.3,8.3-6c1.8-4.1,8.7-6.9,18.3-6.9 c8.7,0,15.6-1.8,15.6-3.7c0-6.9-11-14.7-21.1-14.7c-6,0-11.9-1.8-13.3-4.6c-1.4-2.8-7.8-4.6-13.8-4.6s-12.4-1.8-13.8-4.6 c-1.4-2.3-8.7-4.6-16.5-4.6c-7.3,0-17-1.8-21.6-4.1c-4.1-2.3-11.5-5.5-16.1-6.9c-5-1.4-9.6-6.9-11-11.9c-1.4-5-4.1-9.2-6-9.2 c-2.3,0-7.3-3.2-11-7.3c-6.4-6-7.3-25.7-7.3-142.2c0-140.8-0.9-148.6-19.3-148.6c-3.7,0-8.3-1.8-10.5-4.1c-2.8-1.8-10.5-5-17.4-6.9 c-10.1-2.3-12.4-1.8-10.1,2.8c1.8,3.2,0,2.3-3.7-1.8c-3.7-4.6-11.9-8.3-18.3-8.3s-13.3-1.8-14.7-4.6c-1.4-2.3-8.3-4.6-15.1-4.6 c-7.3,0-10.1,1.4-6.9,3.7c3.7,2.3,4.1,6,1.4,10.1c-3.7,5.5-4.6,5.5-4.6-1.8c0-6.9-2.3-7.8-13.8-5.5c-8.7,1.4-13.3,0.9-11.5-1.8 c1.4-2.8,7.8-4.6,14.2-4.6c6,0,11-1.8,11-4.6c0-2.3-4.1-4.6-9.2-4.6c-5,0-9.2-1.8-9.2-4.6c0-2.3-4.1-4.6-9.2-4.6s-9.2-3.2-9.2-6.9 s-2.8-5.5-6.4-4.1c-3.7,1.4-7.8,0.5-9.6-2.3c-1.4-2.8-8.7-5-16.5-5c-7.3,0-13.3-1.8-13.3-4.6c0-2.3-4.1-4.6-8.7-4.6 c-5,0-10.5-1.8-11.9-4.6c-1.4-2.3-7.8-4.6-14.2-4.6c-6,0-11-1.8-11-4.6c0-2.3-4.1-4.6-9.2-4.6c-5,0-9.2-1.8-9.2-4.6 c0-2.3-4.1-4.6-9.2-4.6s-9.2-1.8-9.2-4.6c0-2.3-4.6-4.6-10.1-4.6c-7.8,0-8.7,1.4-4.6,5.5c8.7,8.7,6.9,10.5-11.9,11 c-16.1,0.5-16.5,0-5.5-4.6c14.2-6.4,17.9-21.1,5-21.1c-5,0-10.5-1.8-11.9-4.6c-1.4-2.3-7.8-4.6-14.2-4.6c-6,0-11-1.8-11-4.6 c0-2.3-2.8-4.6-6.4-4.6c-3.2,0-8.7-3.2-11.9-6.9c-4.1-5-7.8-5.5-14.7-1.8s-8.7,3.7-6-0.5c1.8-3.2-0.5-6-6.4-7.8 c-5.5-1.4-9.6-4.1-9.6-6.4c0-2.3-4.1-4.1-9.2-4.1c-5,0-9.2-1.8-9.2-4.6c0-2.3-4.1-4.6-8.7-4.6c-5,0-10.5-2.3-12.4-5 c-1.4-2.8-6.4-4.1-11-2.8c-6,1.4-7.8,0-6-4.1c1.4-4.1-0.9-6.4-7.3-6.4c-5.5,0-9.6-1.8-9.6-4.6c0-2.3-2.8-4.6-6-4.6 c-3.7,0-10.1-4.1-14.7-9.2c-9.6-10.5-25.2-12.4-25.2-2.8c0,3.7,2.3,7.3,5,8.3c2.8,0.9-3.7,1.4-13.8,1.4s-17-1.8-15.6-4.1 c1.8-2.3-0.5-2.8-5-1.4c-6.4,2.8-7.8,1.4-5.5-4.1c1.4-3.7,2.8-7.8,2.8-9.2c0-0.9,5.5,0.5,11.9,2.8c11.9,4.6,20.2,2.8,20.2-5 c0-2.3-2.8-4.1-6-4.1c-8.3,0-30.7-11-30.7-14.7c0-2.3-2.8-3.7-6.4-3.7c-3.2,0-11-5-17.4-11c-6.9-7.3-13.3-10.1-17-7.8 c-4.1,2.8-2.8,4.6,4.6,6.4c8.7,2.3,9.6,4.1,5,8.7c-5,5-7.3,4.6-12.4-2.3c-3.2-5-5-11.5-3.7-15.1c2.8-8.3-12.8-8.7-20.6-0.9 c-4.1,4.1-5.5,4.1-5.5,0c0-3.2-3.2-5.5-6.9-5.5c-3.7,0-6.9-1.8-6.9-4.6s4.1-2.8,11.5,0c7.3,2.8,11.5,2.8,11.5,0s-3.7-4.6-8.3-4.6 c-4.6,0-15.1-6-23.8-13.8c-17-14.2-25.7-17.9-20.2-8.3c2.8,4.6,1.8,5-3.2,0.5c-7.8-7.8-13.3-7.3-13.3,0.5c0,3.2,5,7.3,11.5,8.3 c6.4,1.4,11.5,0.5,11.5-2.8c0-2.8,3.2,0,7.3,5.5c8.3,11.9,5,19.3-8.7,18.8c-5.5,0-7.3-1.4-4.1-2.8c9.2-3.7,6.4-10.5-5-10.5 c-11,0-23.8-15.6-18.8-23.4c1.4-2.8,6.9-4.1,11.5-2.8c5,1.4,8.7,0.5,8.7-1.8c0-2.3-2.8-4.1-6-4.1s-10.1-3.7-15.1-8.3 c-4.6-4.1-14.2-10.5-21.1-14.2c-7.3-3.7-12.8-8.3-12.8-10.5c0-1.8-2.8-3.7-6.4-3.7c-6.4,0-17.4-11.9-44.5-47.7 c-10.1-13.3-13.3-22.9-13.3-38.1c0-22.9,12.4-53.2,19.7-48.6c2.8,1.8,3.2,0.5,1.4-2.8c-2.3-3.7,0-6.4,6-8.3 c5.5-1.4,9.6-4.1,9.6-6.4c0-2.3,4.1-4.1,9.2-4.1c5,0,9.2-1.8,9.2-4.6c0-2.3,4.1-4.6,9.2-4.6c5,0,9.2-1.8,9.2-4.6 c0-2.3,4.1-4.6,9.2-4.6s9.2-1.8,9.2-4.6c0-2.3,4.1-4.6,9.2-4.6s9.2-1.8,9.2-4.6c0-2.3,4.1-4.6,9.2-4.6c5,0,9.2-1.8,9.2-4.6 c0-2.3,4.1-4.6,9.2-4.6c5,0,9.2-1.8,9.2-4.6c0-2.3,4.1-4.6,9.2-4.6c5,0,9.2-1.8,9.2-4.6c0-2.3,4.1-4.6,9.2-4.6s9.2-1.8,9.2-4.6 c0-2.3,4.1-4.6,9.2-4.6s9.2-1.8,9.2-4.6c0-2.3,4.1-4.6,9.2-4.6c5,0,9.2-1.8,9.2-4.6c0-2.3,4.1-4.6,9.2-4.6c5,0,9.2-1.8,9.2-4.6 c0-2.3,4.1-4.6,9.2-4.6c5,0,9.2-1.8,9.2-4.6c0-2.3,4.1-4.6,9.2-4.6c5,0,9.2-2.8,9.2-6c0-11-11.5-30.7-16.5-28.9 c-3.2,1.4-4.1-2.3-2.8-9.2c0.9-6.4,0-11-3.2-11c-2.8,0-5-4.1-5-9.2c0-5-1.8-9.2-4.6-9.2c-2.3,0-4.6-4.1-4.6-9.2s-1.8-9.2-3.7-9.2 c-1.8,0-7.3-6.4-11.9-13.8c-4.1-7.8-10.1-12.8-12.4-11.5c-2.3,1.8-5.5-0.5-6.9-4.1c-1.4-4.1-8.3-7.3-14.2-7.3 c-12.4,0-23.8-11-24.3-23.4c0-5,4.1-6.9,13.8-6c10.5,0.9,13.8-0.9,13.8-7.3c0-9.6-17.9-11-23.8-2.3c-1.8,2.3-3.7-0.9-3.7-7.8 c0-9.2,1.8-11.9,6.9-10.1c3.7,1.8,6.9,5,6.9,8.3c0,2.8,2.3,1.8,4.6-1.8c6.4-9.6,5.5-13.8-2.3-13.8c-3.7,0-6.9-2.3-6.9-5 c0-2.3-1.8-3.2-4.6-1.8s-3.2-0.5-1.8-4.6c1.8-4.1-1.8-11.9-9.2-19.3c-6.4-6.4-11.9-15.6-11.9-19.7c0-4.6-4.1-13.3-9.2-19.7 c-5-6.4-9.2-13.8-9.2-16.5c0-2.8-1.8-5-4.1-5s-5-4.6-6.9-10.1c-1.8-8.7-3.7-9.2-8.3-4.6c-5,5-4.1,7.3,3.7,13.8 c10.5,8.3,20.6,32.1,11.5,26.6c-2.8-1.8-5-6.4-5-10.1c0-14.2-8.3-5.5-11,11.9c-1.4,10.1-5,18.3-7.8,18.3c-5.5,0-1.4-27.1,5.5-33.9 c6.9-7.3,4.6-11.9-5-11.9c-6,0-9.2-3.2-9.2-9.2c0-6.4,2.8-9.2,7.8-8.3c5.5,0.9,8.7-1.8,9.6-9.2c0.9-5.5-0.5-10.1-3.2-10.1 s-5-4.1-5-9.6c0-6.4-2.3-8.7-6.9-7.3c-3.7,1.8-7.8,0.5-9.6-2.3c-2.3-3.2-0.9-3.7,2.8-1.4c3.7,2.3,5,1.4,3.7-2.8 c-1.4-3.7-4.6-6-7.3-5.5c-2.3,0.5-3.7-3.2-1.8-8.7c1.8-7.3,0.9-9.2-4.6-6.9c-5.5,1.8-6.4,0.5-5-6c1.4-5-1.8-12.8-7.3-18.8 c-5.5-6-9.6-13.3-9.6-16.5c0-3.2-5.5-14.2-11.9-24.3c-12.4-18.8-17-22.9-12.8-12.4c1.4,3.7-1.4,9.2-6,12.8 c-7.3,5.5-7.8,5.5-3.2-0.5c6.4-9.2,7.8-36.7,1.8-36.7c-2.3,0-4.6-4.1-4.6-9.2s-2.3-9.2-5-9.2c-2.3,0-3.2,2.3-1.4,5.5 c1.8,3.2,1.4,3.7-2.3,1.8c-2.8-1.8-4.1-5.5-2.3-7.8c1.4-2.3,0-7.3-2.8-11c-7.3-9.2-4.6-81.2,3.7-83.9c2.8-0.9,5.5-4.6,5.5-7.8 c0-3.7,4.1-8.7,8.7-11.5c11.5-6,69.2-6,69.2,0c0,2.8,2.8,4.6,6,4.6s10.1,3.7,15.1,8.3c4.6,4.1,14.2,10.5,21.6,14.2 c6.9,3.7,12.4,8.3,12.4,10.5c0,1.8,4.1,3.7,9.2,3.7c5,0,9.2,1.8,9.2,4.1c0,4.6,15.1,10.1,33,11.9c6.9,0.5,17.9,5.5,24.8,11 c13.3,10.5,9.6,13.3-5,3.7c-13.3-9.2-25.2-12.8-25.2-7.8c0,2.8,2.8,4.6,6,4.6s10.5,4.1,16.1,9.2c5.5,5,11.5,9.2,13.8,9.2 s7.8,4.1,12.4,9.2s11.9,9.2,17,9.2c4.6,0,8.3,2.3,8.3,4.6c0,2.8,2.8,4.6,6,4.6s10.1,3.7,15.1,8.3c17.4,15.1,37.6,24.3,31.2,13.8 c-1.8-3.2-1.4-3.7,1.8-1.8c2.8,1.8,4.1,6,2.3,9.6c-1.8,5,0.9,6.9,8.7,6.9c6,0,15.6,4.1,21.1,9.2s12.8,9.2,17,9.2 c3.7,0,6.9,2.3,6.9,4.6c0,2.8,4.1,4.6,9.2,4.6c5,0,9.2,1.8,9.2,4.6c0,2.3,9.2,3.7,20.6,3.2c11.5-0.5,20.6-2.3,20.6-4.1 c0-2.3,5.5-3.2,12.8-3.2c10.5,0.9,11,0.9,1.8,2.8c-5.5,0.9-9.2,3.7-7.8,6c1.4,1.8-0.9,4.6-4.6,6.4c-3.7,1.4-6.9,0.9-6.9-0.9 c0-1.8-4.1-3.7-9.2-3.7s-9.2,1.8-9.2,3.7c0,1.8,4.1,3.7,9.2,3.7s9.2,2.3,9.2,4.6c0,2.8,4.1,4.6,8.7,4.6c4.6,0,9.6,3.2,11.5,6.9 c1.4,3.7,5.5,5.5,9.6,4.1c3.7-1.4,6.9-0.5,6.9,2.3c0,2.8,2.8,5,6.4,5c5.5,0,61.9,27.1,67,32.1c5,5,23.4,13.8,29.4,13.8 c3.2,0,7.3,4.6,9.2,10.5c2.3,8.3,3.7,8.7,7.3,3.2c3.2-5.5,5.5-5.5,10.1-0.9c2.8,2.8,10.1,5.5,16.1,5.5c6,0,10.5,2.3,10.5,4.6 c0,2.8,4.1,4.6,8.7,4.6c5,0,10.5,2.3,11.9,4.6c1.4,2.8,7.8,4.6,14.2,4.6c6,0,11,1.8,11,3.7c0,2.3,8.7,6.9,19.7,10.1 c28.9,8.7,44.5,15.6,44.5,19.3c0,2.3,4.1,3.7,8.7,3.7c5,0,10.5,4.1,11.9,9.6c2.3,7.3,4.1,8.3,6.9,4.1c2.8-4.6,6-4.1,13.8,1.4 c5.5,3.7,12.8,6,16.1,5c3.2-1.4,7.3-0.5,9.2,2.3c1.4,2.8,6.9,5,11.5,5c5,0,16.1,4.1,25.2,9.2c9.2,5,20.2,9.2,25.2,9.2 s9.2,2.3,9.2,4.6c0,2.8,4.1,4.6,8.7,4.6c5,0,10.5,1.8,11.9,4.6c1.4,2.3,9.6,4.6,18.3,4.6s16.5,1.8,17.9,4.1c3.2,5,39.4,6,39.4,0.9 c0-1.8-7.8-5.5-17-8.3c-15.6-4.1-13.3-4.6,19.7-4.1c22.5,0.5,37.1,2.3,37.1,5.5c0,2.3-6.4,4.1-14.2,3.2c-11-0.9-11.9-0.5-5.5,2.3 c10.1,4.6,14.2,19.3,5,19.3c-3.7,0-7.3-1.8-8.7-4.1c-1.4-2.3-11-5-20.6-6c-10.1-0.9-17,0-16.1,1.8c1.4,2.3,9.6,3.7,18.3,3.7 s15.6,2.3,15.6,4.6c0,2.8,3.7,4.6,8.3,4.6s10.1,1.8,12.4,3.7c2.8,2.3,20.2,8.7,39,14.2c18.8,6,38.1,12.4,42.2,14.7 c4.6,2.3,11.5,4.1,15.1,4.1s10.5,1.8,15.1,4.6c17.4,9.2,67,23.8,82.1,23.8c11.5,0,14.7,1.4,10.1,4.1c-4.6,2.8-1.8,4.1,8.3,4.1 c7.8,0,16.1,2.3,17.4,4.6c1.4,2.8,6.9,4.6,11.9,4.6c4.6,0,12.8,2.3,17.9,4.6c5,2.8,13.3,6.9,18.3,9.2c5,2.8,16.1,4.6,24.8,4.6 s17.4,2.3,18.8,4.6c1.4,2.8,10.1,4.6,18.8,4.6s15.6,2.3,15.6,4.6c0,2.8,8.7,4.6,19.7,4.6c17,0,22,2.8,36.7,17.4 c9.2,9.6,17,19.7,17,22.9s2.3,5.5,4.6,5.5c2.8,0,4.6,44,4.6,123.4c0,153.6-0.5,151.8,48.6,151.8c23.8,0,34.4,1.8,38.5,6.9 c3.2,4.1,8.7,6.4,11.9,5c3.2-1.4,7.3-0.5,8.7,1.8c1.8,2.8,13.3,4.6,25.7,4.6c12.8,0,22,1.8,20.2,4.1c-1.4,2.3,12.4,5.5,30.7,6.9 c55.5,4.1,81.6,7.8,81.6,12.4c0,11,23.8,1.8,48.2-18.8c15.1-12.8,29.8-22,33-20.6c3.2,0.9,14.7-7.3,24.8-18.3 c10.5-11.5,22-20.6,25.2-20.6c3.7,0,6.4-2.3,6.4-5c0-2.3-1.8-3.2-4.6-1.8c-7.3,4.6-5-0.5,3.2-7.3c5-4.6,6.4-4.6,4.1-0.5 c-7.3,11.9,14.2,0.9,36.2-18.3c7.3-7.3,16.5-12.8,19.7-12.8c2.8,0,5.5-1.8,5.5-4.6c0-8.3-11.9-4.6-22.9,6.9 c-5.5,6-12.4,10.1-14.7,8.7c-2.3-1.4-3.2-0.9-2.8,1.4c0.9,1.8,0,4.1-1.8,5c-7.8,2.3-9.2,0.5-3.7-6c4.6-5.5,4.6-6.9-1.8-6.9 c-4.1,0-7.3-1.8-7.3-4.6c0-7.8,17.4-5,19.3,2.8c1.4,6.4,2.8,6,10.1-2.3c7.8-8.7,7.8-9.6,1.4-9.6c-4.6,0-7.8-3.7-7.8-9.2 c0-5,2.3-9.2,4.6-9.2c2.8,0,4.6,2.8,4.6,6.4c0,4.1,3.2,5.5,8.7,4.1c4.6-1.4,10.1,0,11.5,2.8c4.1,6.4,21.1,6.4,21.1,0.5 c0-2.3,4.1-4.6,9.2-4.6c5,0,9.2-2.3,9.2-5c0-3.2-3.2-3.7-7.8-1.8c-4.6,1.8-10.5,3.7-13.8,3.7c-3.2,0-4.6,1.8-3.2,4.1 c1.4,1.8-0.9,2.3-4.6,0.9c-11.9-4.6-8.3-11,6-11c7.8,0,19.3-5,27.5-11.9c16.1-13.3,19.7-10.5,4.1,3.7c-6,4.6-7.3,7.8-3.7,6.4 c3.7-1.4,10.5-4.1,14.7-5.5c6-2.3,7.8-6.4,6-16.1c-1.4-7.3-0.5-13.3,1.4-13.3c7.3,0,10.1,6,5,12.4c-7.8,8.7-0.5,7.3,14.2-3.2 c7.8-5.5,16.1-7.8,21.1-6c6.4,2.3,7.3,0.9,5.5-6.9c-1.8-5.5-0.9-8.7,1.4-7.3s10.1-1.8,17.4-6.9c7.3-5.5,16.5-9.6,20.6-9.6 s7.3-2.3,7.3-5s3.2-4.1,6.9-2.8c3.7,1.8,7.8,0.9,9.6-1.8c4.6-7.8,0-8.7-11.9-2.8c-6.4,3.2-15.6,7.3-20.6,9.2 c-7.3,2.8-6.9,1.4,2.3-6c6.4-5,15.6-9.2,20.6-9.6c18.8-1.4,39-8.7,39-14.2c0-2.3-2.3-2.8-5.5-0.9c-2.8,1.8-3.7,1.4-2.3-1.4 c1.8-2.8,8.3-3.7,14.7-2.3c6.9,0.9,11.5,0,11.5-3.2c0-2.8,4.1-5,9.2-5s9.2-1.8,9.2-4.6c0-2.3,4.1-4.6,9.2-4.6s9.2-1.8,9.2-4.6 c0-2.3,4.1-4.6,9.2-4.6s9.2-2.3,9.2-5c0-2.3-1.8-3.7-4.1-2.3c-2.3,1.8-5,0-6.4-2.8c-1.4-4.6-3.2-4.6-9.2,0.5 c-4.1,3.2-6.9,7.3-6,9.2c0.9,1.4-2.8,5-8.3,7.8c-7.8,3.7-10.5,3.7-10.5-1.4c0-3.2,4.1-6.9,8.7-8.7c4.6-1.4,8.3-4.6,8.3-6.9 c0-5-1.4-5-15.6,0.5c-7.8,2.8-11,6.9-9.6,12.8c0.9,5-2.8,11-8.3,14.7c-9.2,5.5-9.6,5.5-4.1-1.4c6.4-7.3,3.7-25.7-4.1-31.2 c-2.3-1.4,11-2.3,29.4-1.8c17.9,0,35.3,1.8,38.5,3.7c3.2,1.8,9.6,1.4,15.1-1.4c5-2.3,13.3-6.9,18.3-9.2c5-2.8,12.4-4.6,16.5-4.6 s6.4-2.8,5-6c-1.8-4.6,0.9-6,8.7-4.1c6.4,0.9,11,0,11-3.2c0-2.8,4.1-5,9.2-5s9.2-1.8,9.2-4.6c0-2.3,4.1-4.6,9.2-4.6 s9.2-1.8,9.2-4.6c0-2.3,8.3-4.6,18.3-4.6s18.3-2.3,18.3-4.6c0-2.8,3.7-4.6,8.3-3.7c5,0.9,7.8-1.4,7.8-7.8c0-5.5,3.7-9.6,9.2-10.1 c9.2-1.4,9.2-1.4,0,2.8c-8.7,4.1-8.7,4.6,1.4,4.6c5.5,0.5,10.1-1.8,10.1-4.6c0-2.8,4.1-4.1,9.2-2.8c6,1.4,9.2,0,9.2-4.1 c0-5.5,16.1-6.4,91.3-6.4c63.7,0,91.7,1.4,93.1,5c0.9,2.8,7.3,5.5,14.2,5.5c6.9,0,13.8,1.4,15.1,3.7c1.4,2.3,7.3,4.1,13.8,4.1 c6,0,11,2.3,11,4.6c0,2.8,4.1,4.6,8.7,4.6c5,0,10.5,2.3,11.9,4.6c1.4,2.8,7.8,4.6,14.2,4.6c6,0,11,2.3,11,4.6 c0,2.8,4.1,4.6,9.2,4.6s9.2,2.3,9.2,4.6c0,2.8,4.1,4.6,9.2,4.6s9.2,2.3,9.2,5c0,3.2,4.6,4.1,11,3.2c6.9-1.4,10.5-0.5,9.2,2.8 c-1.8,5,22,16.5,34.4,16.5c3.2,0,11.9,4.1,19.3,9.6c7.3,5,15.1,7.8,17.9,6.4s3.2,0.5,1.8,4.1c-1.8,5,0,7.3,6.9,7.3 c5.5,0,9.6,2.3,9.6,4.6c0,2.8,4.1,4.6,8.7,4.6c5,0,9.6,1.4,10.5,3.7c0.9,1.8,11,8.3,23.4,14.2c11.9,6,21.6,12.8,21.6,15.1 c0,1.8,4.1,3.7,9.2,3.7c5,0,9.2,2.3,9.2,4.6c0,2.8,4.1,4.6,9.2,4.6c5,0,9.2-1.8,9.2-4.6c0-5.5,13.8-0.5,22.9,8.7 c7.3,7.3,7.8,7.3-16.1-2.3c-3.7-1.4-6.9-0.9-6.9,0.9c0,5.5,22.9,16.1,28,13.3c4.1-2.8,29.4,6.4,26.1,9.6c-1.4,0.9-7.8,0-14.7-2.8 c-9.6-3.7-12.4-3.2-10.5,0.9c0.9,3.2,5,5.5,9.6,4.6c4.1-0.9,7.3,0.9,7.3,3.7c0,2.3,2.8,4.6,6,4.6s10.5,4.1,16.1,9.2 c5.5,5,11.5,9.2,13.8,9.2c1.8,0,8.7,4.6,14.7,10.1c6.4,6,12.8,10.5,14.2,10.5c1.8,0,5,1.4,6.9,3.2c1.8,2.3,7.3,3.7,11.9,3.7 c4.6,0,8.3,2.3,8.3,4.6c0,2.8,1.8,4.6,4.6,4.6c2.3,0,17.4,9.6,33.9,22c78,56.9,94.5,67.9,87.6,55.5c-2.3-3.7-1.8-5,0.5-2.8 s4.1,5.5,4.1,7.8c0,4.1,33.9,32.1,38.5,32.1c1.4,0-0.9-3.2-5-6.4c-12.4-9.2-10.1-17,3.7-13.8c7.3,1.8,13.3,0.9,15.1-2.3 c1.8-2.8,17.4-6,35.3-6.9c29.8-1.8,30.7-1.8,20.2,4.6c-6.4,4.1-7.8,6-3.2,4.6s14.2-2.8,20.6-2.8c7.8,0,10.1-1.4,6.9-3.7 c-3.2-1.8,3.7-4.1,15.6-4.6c11.9-0.5,23.4-3.2,25.2-6.4c2.8-3.7,3.2-2.3,1.4,4.6c-2.3,8.7-0.9,10.1,8.7,10.1 c6.4,0,12.8-1.8,14.2-4.6c1.4-2.3,11.5-5,22-5c10.5-0.5,14.7-1.8,8.7-2.8c-5.5-0.9-9.2-3.7-7.8-6c1.4-2.8,7.3-2.3,13.3,0 c6.4,2.3,16.5,2.3,24.3,0c6.9-1.8,10.1-4.1,6.9-4.1c-3.2-0.5-5-2.3-3.7-4.6c1.4-1.8,8.3-2.8,15.1-1.4c11.5,2.3,11.5,2.8,3.7,6 c-5,1.8-6.9,3.7-3.7,3.7c3.2,0.5,10.1-1.4,16.1-3.7c6-2.3,16.1-5.5,23.4-6.9l12.4-2.8v-120.6c0-128,2.3-144,22.5-165.6 c6-6.4,15.1-12.4,20.6-13.3c8.7-1.8,8.7-1.8-1.4-2.8c-6.4,0-15.1,2.8-19.7,6.9c-7.3,7.3-8.3,6.9-11,0c-1.8-4.1-2.3-8.3-1.4-9.2 c0.9-0.9,15.6-2.8,33-3.7c26.6-1.4,29.4-0.9,20.6,4.1l-10.5,5.5l10.5,0.5c5.5,0,10.1-1.8,10.1-4.6c0-2.3,5-4.6,11-4.6 c6.4,0,12.8-1.8,14.2-4.6c1.4-2.3,11.5-4.6,22.5-4.6c19.3,0,44-8.3,44-14.7s-12.4-4.1-18.3,3.2c-4.1,5-7.8,5.5-14.7,1.8 c-7.3-4.1-8.7-3.7-6,0.5c2.8,4.6,0.5,5-9.6,3.2c-8.7-1.4-14.7,0-18.8,5c-5,6.4-5.5,6-0.9-4.6c6-13.8,17.4-17.9,38.1-14.7 c9.2,1.8,12.4,0.9,8.3-1.4c-3.7-3.2-0.5-4.1,10.1-4.1c8.7,0.5,14.7,1.8,13.3,4.1c-0.9,1.8,3.7,2.8,11,2.8c7.8-0.5,9.6-1.4,5-2.8 c-4.6-0.9-8.3-5.5-8.3-9.6c0-6.4,0.9-6.9,4.6-0.9c3.2,5.5,5.5,5.5,15.6,0c6.4-3.2,13.3-5,14.7-3.7c1.4,1.8-1.8,4.1-6.9,6 c-5.5,1.4-9.6,5-9.6,8.3c0,3.7,1.4,3.7,5.5-0.5c3.2-3.2,11-5.5,18.3-5.5c8.7,0,11.9-1.8,10.1-6.4c-3.2-8.3-19.7-12.4-28.9-7.3 c-4.6,2.3-10.5,1.4-15.6-2.3c-8.7-6-10.5-16.1-3.2-16.1c2.8,0,4.6,2.3,4.6,5c0,3.7,5.5,4.6,16.1,2.8c9.6-1.4,15.1-0.9,13.8,1.8 c-1.8,2.3,1.4,4.1,6.4,4.1c12.4,0,12.4-7.8,0-11.5c-5-1.8-8.3-4.1-7.3-5.5c1.4-0.9,12.4,2.3,24.8,8.3c17,7.8,20.2,10.5,12.8,11.9 c-18.8,4.6-16.5,9.6,2.8,7.3c11-1.4,20.6-4.6,21.6-6.4c0.9-2.3,5-4.1,9.2-4.1c9.2,0,40.8-10.5,44.9-15.1c1.8-1.8,7.3-3.2,11.9-3.2 c4.6,0,11.9-1.8,16.5-4.1c4.1-2.3,23.4-8.7,42.2-14.7c18.8-5.5,36.2-11.9,39-14.2c2.3-1.8,8.7-3.7,14.2-3.7c6,0,11.9-1.8,13.3-4.6 c1.4-2.3,6.9-4.6,11.9-4.6c4.6,0,12.4-1.8,17-4.1c4.1-2.3,17-6.9,28.4-10.1c11.5-3.2,22.5-7.3,25.2-9.6c2.3-1.8,8.7-3.7,14.2-3.7 c6,0,11.9-1.8,13.3-4.6c1.4-2.3,6.9-4.6,11.9-4.6c4.6,0,8.7-1.8,8.7-4.6c0-2.3,3.7-4.6,7.8-4.6c11,0,38.1-10.5,38.1-14.7 c0-1.8,5-3.7,11-3.7c6.4,0,12.8-1.8,14.2-4.6c1.4-2.3,8.7-4.6,16.5-4.6c7.3,0,13.3-2.3,13.3-4.6c0-2.8,3.7-4.6,8.3-3.7 c12.4,2.3,9.2-11.5-3.7-15.1c-10.5-2.8-10.1-3.2,3.7-3.7c8.3-0.5,14.2,1.4,12.8,3.7s0.5,5.5,4.1,6.9c4.1,1.4,8.3-0.5,9.6-4.1 c1.8-3.7,6.9-6.9,11.5-6.9c4.6,0,8.7-1.8,8.7-4.6c0-2.3,6-4.6,13.3-4.6c7.8,0,15.1-1.8,16.5-4.6c1.4-2.3,7.8-4.6,14.2-4.6 c6,0,11-1.8,11-4.6c0-2.3,4.1-4.6,9.2-4.6c5,0,9.2-1.8,9.2-4.6c0-2.3,4.1-4.6,9.2-4.6c5,0,9.2-1.8,9.2-4.6c0-2.3,4.1-4.6,9.2-4.6 c5,0,9.2-1.4,9.2-3.2c0-4.1,22.5-15.1,30.7-15.1c3.2,0,6-1.8,6-4.6c0-2.3,5-4.6,11-4.6c6.4,0,12.8-1.8,14.2-4.6 c1.4-2.3,6.9-4.6,11.9-4.6c14.7,0,9.6-8.3-10.5-17.9c-15.1-6.9-17.4-9.2-9.2-9.2c5.5-0.5,10.1,1.4,10.1,3.7s4.1,5,9.2,6.4 c6,1.4,9.2,0,9.2-4.1c0-4.6,5.5-6.4,17.4-6l17,0.5l-14.7,5c-18.8,7.3-23.8,12.4-11.5,12.4c5.5,0,10.1-2.3,10.1-5s4.1-3.7,9.2-1.8 c6.4,1.8,9.2,0.9,9.2-3.7c0-6,9.6-12.8,19.3-14.2c1.4-0.5,4.6-1.8,6.4-3.7c4.6-5-11.9-22.5-17.9-18.8c-2.8,1.4-3.2,0.5-1.4-2.3 c5.5-8.7,21.6-6.9,20.2,2.3c-1.8,11.9,15.6,12.8,26.1,1.4c4.6-5,11-9.2,14.7-9.2c3.2,0,6-2.3,6-5c0-2.3-1.8-3.7-4.1-2.3 c-2.3,1.8-3.2-1.4-1.8-6.4c1.4-5,4.6-9.2,6.9-9.2c2.8,0,3.2-3.2,1.8-6.9c-2.3-6,0.9-7.3,17-6.4c25.7,1.4,32.1-2.8,28.4-17.9 c-1.8-6.9-5-13.3-6.9-14.7c-2.3-1.4,9.2-2.3,25.2-2.3c16.1,0,30.7,1.4,32.6,3.7c5,5,20.2,3.7,20.2-1.8c0-2.8,4.1-3.7,9.2-1.8 c6.4,1.8,9.2,0.9,9.2-4.1c0-6-2.3-6.4-11.9-2.8c-14.7,5.5-15.6,5.5-15.6,0c0-2.8,1.4-4.1,3.7-4.1c1.8,0.5,7.3,0.5,12.4-0.5l9.2-0.5 l-9.2-4.1c-7.3-3.2-7.8-4.1-1.4-4.1c4.1-0.5,9.2,1.8,10.5,4.1c3.7,6,20.6,6,20.6,0c0-2.3-1.8-4.6-4.6-4.6c-2.3,0-4.6-3.2-4.6-6.9 s-3.2-6.9-7.3-6.9c-3.7,0-6,1.4-5,3.7c1.4,1.8-3.7,3.2-10.5,3.7c-9.2,0.5-12.4-1.4-10.5-5.5c1.4-4.1,10.1-6.4,22.9-6.4 c16.5,0,20.2,1.4,18.3,6.9c-5.5,13.8,6.9,11.5,33-6.9c15.1-10.1,32.6-18.3,38.5-18.3c6,0,15.1-4.1,20.2-8.7c5.5-5,11-7.8,13.3-6 c1.8,1.8,1.8,0.9,0.5-1.8c-3.2-5.5,5-13.3,22.9-23.8c23.4-12.8,83.9-1.4,83.9,15.6c0,3.7,2.3,6.4,5,6.4c2.3,0,3.7-1.8,2.3-4.1 c-1.8-2.3,1.8-2.8,7.3-1.4c8.7,2.3,9.2,3.2,2.8,4.6c-6.9,1.4-8.3,6.9-8.3,37.6c0,19.7-1.8,37.6-4.6,39c-2.3,1.4-4.6,6.4-4.6,11 c0,9.6-10.1,32.6-14.7,32.6c-2.3,0-3.7,4.1-3.7,8.7c0,5-1.8,10.5-4.6,11.9c-2.3,1.4-4.6,6.4-4.6,11.5c0,4.6-5,12.8-11,18.8 c-6,6-10.1,13.3-8.7,16.5c1.4,3.2,0,6-2.8,6c-2.8,0-5,4.1-5,9.2c0,5-1.8,9.2-4.6,9.2c-2.3,0-4.6,4.1-4.6,9.2s-1.8,9.2-4.6,9.2 c-2.3,0-4.6,4.1-4.6,8.7c0,5-1.8,10.5-4.6,11.9c-2.3,1.4-4.6,6.4-4.6,10.5c0,6.9,0.9,6.9,5,0.9s4.6-6,2.8,0c-0.9,3.7-4.1,6.4-6.9,6 c-2.8-0.9-8.7,5-13.3,12.4c-4.1,7.8-9.6,13.8-11.5,13.8s-3.7,4.1-3.7,9.2c0,5-1.8,9.2-4.6,9.2c-2.3,0-4.6,4.1-4.6,9.2 s-1.8,9.2-4.6,9.2c-2.3,0-4.6,4.1-4.6,9.2c0,5-1.8,9.2-4.1,9.2c-2.3,0-5,3.7-6.9,8.3c-1.4,4.1-4.1,10.5-5.5,14.2 c-2.3,4.6-0.9,5,3.2,2.8c5-2.8,5.5-2.3,0.9,2.8c-7.8,8.3-7.3,13.3,0.9,13.3c3.7,0,6.9-3.7,6.9-7.8c0-4.6,4.1-13.3,9.2-19.7 c9.6-12.4,12.4-25.2,4.1-20.2c-3.2,1.8-4.6,0.9-3.7-2.3c4.6-13.8,11-5.5,11.5,15.6c0.5,12.8-0.5,20.2-1.4,17.4 c-3.7-9.6-10.5-6.9-10.5,4.6c0,12.8-13.8,21.6-29.4,18.8c-8.3-1.4-11.9,0-11.9,4.6c0,3.7-4.6,10.5-10.5,15.1 c-5.5,4.6-9.6,11.9-8.7,16.5c0.9,4.1-0.5,7.8-3.2,7.8c-2.8,0-5,4.1-5,9.2s1.8,9.2,4.1,9.2c6,0,5,27.1-0.9,30.7 c-2.8,1.4-3.2,0.5-1.4-2.3c5-8.3-6.9-6.4-17,2.3c-8.7,8.3-8.7,7.8-2.8-2.3c3.7-5.5,8.7-10.1,11.5-10.1c6.4,0,11.9-11.5,7.8-15.6 c-5-4.6-10.5-3.2-10.5,3.2c0,3.2-4.1,10.5-9.2,16.1c-5,5.5-9.2,12.8-9.2,17c0,3.7-2.3,6.9-5,6.9c-3.2,0-4.1,4.6-3.2,11.5 c1.4,6,0.9,10.1-1.4,9.2c-2.8-1.8-22.5,24.8-22.5,30.7c0,6.9,18.8,21.6,34.4,27.1c10.1,3.2,20.2,7.8,22.9,9.6 c7.3,6.4,12.8,4.1,6.9-3.2c-4.1-4.6-4.1-6.9-0.5-6.9c2.8,0,5,1.8,5,3.7c0,2.3,16.5,3.7,37.1,3.2c20.2-0.5,34.9,0.5,32.6,1.8 c-7.8,5-11,23.4-5.5,30.3c6.9,8.3,1.4,9.2-6.4,0.9c-3.2-3.2-5.5-9.2-4.6-13.8c1.4-9.2-1.4-11-17.9-14.2c-6.9-1.4-12.4,0-12.4,2.8 s-4.6,3.7-11.5,1.8c-6.4-1.8-11.5-0.9-11.5,1.8c0,2.3,4.1,4.6,9.2,4.6c5,0,9.2,2.3,9.2,4.6c0,2.8,4.1,4.6,9.2,4.6 c5,0,9.2,2.3,9.2,4.6c0,2.8,4.1,4.6,9.2,4.6s9.2,2.3,9.2,4.6c0,2.8,3.2,4.6,6.9,4.6s10.5,1.8,15.1,4.1c4.1,2.3,13.3,6.4,20.6,10.1 c6.9,3.2,12.4,8.7,12.4,11.9c0,4.6,3.2,5.5,8.7,3.7c5.5-1.4,9.6,0,11,4.6c1.8,3.7,6,5.5,10.1,4.1c3.7-1.4,6.9-0.5,6.9,2.3 c0,2.8,4.1,5,8.7,5c4.6,0,9.6,3.2,11.5,6.9c1.4,3.7,5,6.4,8.3,6c3.2-0.9,5.5,1.4,4.6,4.6c-0.5,3.7,0.9,5,3.2,3.7 c6.9-4.1,18.8,27.1,18.8,49.1c0,16.5-3.2,24.8-15.6,40.8c-29.8,37.1-44.9,54.1-49.5,54.1c-2.3,0-8.3,4.1-13.8,9.2 c-5.5,5-12.8,9.2-16.1,9.2c-3.2,0-6,1.8-6,4.1c0,5,17.4,0.9,21.1-4.6c4.6-7.3,13.3-4.1,18.3,6.4c4.6,10.5,4.6,11-13.8,7.3 c-16.1-3.2-19.7-2.3-26.6,6.4c-4.6,5.5-8.3,7.8-8.3,5c0-2.3,2.8-7.3,6-10.5c4.6-5,4.1-5.5-1.4-3.2c-3.7,1.4-10.5,4.1-14.7,5.5 c-4.6,1.8-8.3,5-8.3,7.3c0,2.3,1.8,3.2,4.6,1.4c2.3-1.4,2.3,3.2-0.5,11.5c-6,16.1-12.4,21.1-18.8,14.7c-2.8-2.8-0.9-6.9,6-11.9 c6-3.7,9.2-8.3,7.3-10.1c-1.4-1.4-8.7,1.4-16.1,6.9c-7.8,5.5-16.1,9.6-18.8,9.6c-3.2,0-9.6,4.1-15.1,9.2c-5.5,5-12.8,9.2-16.1,9.2 c-3.2,0-6,2.3-6,4.6c0,2.8-4.1,4.6-9.6,4.6s-8.7,2.3-7.3,6c0.9,2.8,4.6,5,7.3,4.1c2.8-0.5,5,0.9,5,3.7c0,2.3-4.1,4.6-9.6,4.6 c-5,0-7.8-1.8-6.4-4.6c1.4-2.3-1.4-4.6-6.4-4.6c-5.5,0-9.6,2.3-9.6,5c0,2.8-3.2,4.1-7.3,3.2s-14.7,5.5-23.4,13.8 c-8.7,7.8-19.7,14.7-24.8,14.7c-4.6,0-8.7,2.3-8.7,5c0,2.8-3.2,3.7-6.9,2.3c-4.1-1.4-8.3,0.5-10.1,4.1c-1.4,4.6-5.5,6-10.5,4.6 c-5-1.4-9.2,0-11,4.6c-1.4,3.7-5.5,6.9-9.6,6.9c-3.7,0-6.9,2.3-6.9,5c0,2.8-4.1,4.1-9.2,2.8c-6-1.4-9.2,0-9.2,4.6 c0,4.1-2.8,6-6.9,4.6c-9.6-4.1-13.8,5.5-5.5,13.8c5,5,9.2,5.5,15.1,2.3c6.4-3.2,11-2.8,17,1.4c8.7,6,10.5,16.1,3.2,16.1 c-2.3,0-4.6-2.3-4.6-5s-5.5-4.6-12.4-4.1c-19.7,1.4-25.2,0.5-22-4.1c1.4-2.3,0.5-5.5-1.4-6.9c-5-2.8-28.4,7.3-28.4,12.4 c0,1.8-5,3.2-11,3.2c-6.4,0-12.8,2.3-14.2,4.6c-1.4,2.8-6.9,4.6-11.9,4.6c-4.6,0-8.7,2.3-8.7,4.6c0,2.8-5,4.6-11,4.6 c-6.4,0-12.8,2.3-14.2,5c-1.8,2.8-6,3.7-9.2,2.3c-3.7-1.4-8.7,0.9-11.5,4.1c-3.2,3.7-7.3,6-9.2,4.6c-1.8-1.4-5,0.9-6.4,5 c-1.8,4.6-6.4,6.4-11.9,5c-5.5-1.4-9.2,0-9.2,3.7c0,3.2-6.9,6.9-14.7,8.7c-25.2,4.6-28.4,5.5-29.8,10.5c-0.9,2.8,4.6,6,11.9,6.9 c10.5,1.4,12.8,0.9,9.2-3.7c-3.2-3.7-3.2-6.4,0.5-8.7c2.3-1.4,4.6,0.5,4.6,4.1c0,4.1,3.7,7.3,8.3,7.8c5.5,0,4.6,1.4-3.2,4.6 c-6.4,2.3-14.2,3.2-17.9,1.8c-9.2-3.7-28,2.3-26.6,8.3c0.9,3.2,0.5,4.1-0.5,2.3c-0.9-1.8-5-1.8-8.7-0.5c-6,2.3-6,3.2-0.9,6.4 c4.1,2.8,3.2,4.1-4.1,4.1c-6,0-10.5,2.3-10.5,4.6c0,2.8,5,4.6,11.5,4.6s11.5,1.4,11.5,3.7c0,1.8-9.6,3.2-21.1,3.2 c-11.5,0-18.8-0.5-16.1-1.4c2.8-0.9,5-5.5,5-10.1c0-5,8.3-12.4,24.3-20.2c16.5-8.3,20.6-11.9,13.8-11.9c-6,0-10.5,2.3-10.5,4.6 c0,2.8-4.1,4.6-9.2,4.6c-5,0-9.2,2.3-9.2,4.6c0,2.8-5,4.6-11,4.6c-6.4,0-12.8,2.3-14.2,4.6c-1.4,2.8-6.9,4.6-11.9,4.6 c-4.6,0-8.7,2.3-8.7,4.6c0,2.8-5,4.6-11,4.6c-6.4,0-12.4,1.8-13.8,4.1s-10.5,5-19.7,6.4c-28,3.7-35.3,6-37.1,11.5 c-0.9,3.2-6.4,5.5-11.9,5.5c-9.6,0-30.3,14.7-30.3,21.6c0,1.8,4.6-1.4,10.5-6.9c6.4-6,12.4-8.3,15.1-6c2.3,2.3,8.3,5.5,13.3,6.9 c5,1.4,1.4,1.4-8.3,0c-12.8-1.8-17.9-0.5-19.7,5c-1.4,3.7-6,6.9-9.2,6.9c-5.5,0-6.9,19.3-6.4,123.8c0.9,126.6-0.5,137.6-16.5,137.6 c-3.7,0-8.7,5-11.9,11.5c-2.8,6-6.9,10.1-9.2,8.7c-1.8-1.4-5,0.9-6.4,4.6c-1.4,4.1-7.8,7.3-13.3,7.3c-6,0-12.4,2.3-14.2,5 c-1.4,2.8-6.9,4.1-11.5,2.8s-10.5,0.5-13.3,3.2c-6,7.3-1.4,11.9,8.3,8.7c6.9-1.8,6.9-1.4,0.9,2.8c-4.1,2.8-8.3,3.2-11,0.5 c-6-6-24.3-6-28,0c-1.4,2.8-11.9,4.6-23.4,4.6c-12.8,0-19.7,1.8-17.9,4.6c1.4,2.8-1.4,4.6-6.4,4.6c-11.9,0-12.8,6.9-0.9,7.8 c5,0.5,10.1-2.3,11.5-6c2.8-6.9,21.1-9.2,21.1-2.3c0,2.3,3.7,5.5,8.3,6.4c5.5,1.4,4.6,2.3-3.7,3.2l-11.5,0.9l11.5,3.7 c11,3.7,10.5,3.7-3.7,4.1c-8.3,0.5-24.8-1.8-36.2-5c-16.1-3.7-22.9-3.7-29.4,0c-4.6,3.2-14.7,5.5-22.5,5.5 c-7.3,0-13.8,0.9-13.8,2.3c0,5,19.7,39,25.7,44c3.7,2.8,6.4,7.3,6.4,9.6s6,10.5,13.8,18.8c7.3,8.3,13.8,17.4,13.8,20.6 c0,2.8,2.3,5.5,5.5,5.5c2.8,0,3.7-1.4,2.3-3.2c-1.8-1.4-0.9-5.5,1.8-8.7c6-7.3,0.9-17-7.3-13.8c-3.7,1.4-8.7-1.4-12.4-5.5 c-5.5-6.9-5-7.3,2.3-1.4c6.9,5,7.8,5,7.8-0.9c0-3.7-3.2-7.8-6.9-9.6c-3.7-1.4-6.9-4.6-6.9-7.3c0-6.9,17.9-5.5,25.7,1.8 c7.8,8.3,8.7,38.1,0.9,40.4c-3.7,1.4-1.8,4.1,4.6,7.8c5.5,2.8,10.1,8.3,10.1,11.9c0,14.7,8.3,6,11-11.5c1.4-10.1,5-18.3,7.8-18.3 c7.3,0,0,28.4-10.1,38.5c-8.3,8.7-8.3,8.7-12.8-2.8c-2.3-6.4-6.9-13.3-10.1-15.1c-3.2-2.3-4.1-1.4-2.3,2.8 c1.4,3.7,4.1,10.1,5.5,14.7c1.8,4.1,5,7.8,7.3,7.8c2.8,0,3.7,2.8,2.3,6.4c-1.4,3.7,0.5,9.2,3.7,11.9c3.7,3.2,5.5,7.8,3.7,11 c-1.4,2.8-0.9,3.7,0.9,1.4c4.6-4.1,20.6,9.6,20.6,18.3c0,3.2,2.3,6,4.6,6c2.8,0,4.6,3.7,4.6,8.7c0,6,3.2,8.7,11.5,8.7 c12.4,0,14.2-3.7,6.4-11.5c-3.2-3.2-3.7-11-1.8-19.7c4.1-19.3,7.8-14.7,9.2,12.4c0.9,26.1-0.9,31.2-9.6,23.8 c-9.2-7.8-7.8-0.9,3.2,14.7c5,7.3,8.7,16.1,7.3,19.3c-0.9,2.8,3.2,9.2,9.2,13.8c6,4.6,9.6,10.5,7.8,12.8c-1.4,2.3,0.9,5.5,4.6,6.9 c4.1,1.4,7.3,6.9,7.3,11.5s2.3,8.7,5,8.7c2.8,0,4.1,2.8,2.8,6.4s2.3,11,8.7,17c6,5.5,11,12.8,11,16.5c0,3.2,2.3,6,4.6,6 c2.8,0,4.6,4.1,4.6,9.2s2.3,9.2,4.6,9.2c2.8,0,4.6,4.1,4.6,9.2c0,5,2.3,9.2,4.6,9.2c2.8,0,4.6,4.1,4.6,8.7c0,5,1.8,9.6,3.7,10.5 c6.4,2.8,23.8,30.3,23.8,37.6c0,4.6,3.2,7.3,7.3,6.4c4.6-0.9,8.7,1.8,9.6,5.5c1.8,6,1.4,6-2.8,0c-4.1-5.5-5-5-5,3.7 c0,5.5,1.4,10.1,3.7,10.1c12.4-0.5,17.9-21.6,10.1-37.1c-4.1-7.3-3.2-8.7,3.7-8.7c7.3,0,8.7,3.7,8.3,27.5c-0.5,28.4-1.8,31.2-11,22 c-9.6-9.6-6.4,15.6,3.7,28.4c5,6.4,9.2,14.2,9.2,17.4c0,2.8,1.4,5.5,3.7,5.5c3.7,0,14.7,22.5,14.7,30.7c0,3.2,2.3,6,4.6,6 c2.8,0,4.6,4.6,4.6,10.5c0,5.5,4.1,15.1,9.2,21.6c5,6.4,9.2,15.1,9.2,19.3c0,4.1,2.3,9.2,4.6,10.5c2.8,1.4,4.6,6.9,4.6,11.9 c0,4.6,1.8,8.7,4.1,8.7s5,5.5,6,12.8c0.9,6.9,3.7,12.4,6.9,12.4c2.8,0,6.9,1.8,9.2,4.1s1.4,2.8-1.8,0.9c-6.9-3.7-8.3,4.6-1.4,8.7 c2.8,1.4,4.6,10.1,4.6,18.8c0,16.1,8.3,20.2,12.8,6.4c1.4-3.2,0-4.6-3.2-2.8c-2.8,1.8-5,0.9-5-1.4c0-2.8,1.8-5,4.1-5 c1.8,0,1.8-9.2-0.9-20.6c-3.7-15.1-6.9-20.6-13.3-20.6c-4.6,0-8.3-1.8-8.3-4.6c0-2.3,2.8-4.6,6-4.6c10.1,0.5,21.6,12.4,21.6,22.5 c0,10.5,6.9,13.3,10.5,4.1c1.4-3.2,2.8-1.4,2.8,4.6c0.5,5.5-1.4,10.1-4.1,10.1c-2.3,0-4.6,4.1-4.6,8.7c0,5,2.3,10.5,4.6,11.9 c2.8,1.4,4.6,10.5,4.6,19.7c0,15.1-0.5,15.6-6.4,7.8c-3.7-5-5.5-11.5-4.1-14.7s0.5-6-2.3-6c-7.8,0-10.5,13.8-3.2,16.5 c3.7,1.8,6.9,7.8,6.9,13.3c0,6,2.3,12.4,5,14.2c2.8,1.4,4.1,6.9,2.8,11.5c-1.4,5.5,0,8.7,4.1,8.7c4.6,0,5-2.8,1.8-11.9 c-6-15.1-6-15.6,3.7-15.1c4.1,0,5.5,1.4,2.3,2.3c-3.7,1.8-4.1,6-1.4,12.8c1.8,6,1.8,13.3-0.5,17.9c-2.8,4.1-2.8,8.3-0.9,8.7 c1.8,0,6,0.9,8.3,1.4c2.8,0.9,8.3,1.4,12.8,1.8c4.1,0,7.8,2.8,7.8,5c0,6.4-12.4,5.5-15.1-0.9c-1.4-3.2-2.8-1.4-2.8,4.6 c-0.5,5.5,1.8,10.1,4.1,10.1c2.8,0,4.6,4.6,4.6,10.1c0,10.5,7.3,37.1,14.2,50.4c2.3,4.6,4.1,11.5,4.1,15.6c0,4.1,2.8,6.4,6,5 c4.6-1.8,5.5,1.4,4.1,10.5c-0.9,6.9,0.5,14.2,3.2,15.6c2.8,1.8,5,8.3,5,14.2s2.3,12.4,4.6,13.8c2.8,1.4,4.6,9.6,4.6,17.9 c0,15.1,9.2,39.4,14.7,39.4c1.8,0,4.1-4.6,5-10.1c0.9-6,1.8,0,1.4,12.4c-0.5,14.2,1.4,22.5,4.6,22c2.8-0.5,4.1,4.6,2.8,11.9 c-0.9,7.3,0.5,14.7,3.2,16.1c2.8,1.8,5,10.1,5,18.8c0,8.7,2.3,17,4.6,18.3c2.8,1.4,4.6,11,4.6,20.6c0,9.6,2.3,19.3,4.6,20.6 c2.8,1.4,4.6,8.7,4.6,15.6c0,13.8,9.2,37.1,15.1,37.1c1.8,0,3.7,6.9,3.7,15.1l0.9,14.7l3.2-16.1c1.8-8.7,3.7-13.3,4.1-10.1 c0.5,7.3,12.8,7.3,15.6,0c1.4-3.2,2.8-0.5,2.8,6.9c0.5,6.9,2.8,12.4,5.5,12.4c2.3,0,3.2,1.8,1.8,4.6c-4.6,7.8-10.5,5-12.8-5.5 c-1.8-9.2-1.8-8.7-2.8,2.3c0,6.9-2.3,12.4-4.6,12.4c-2.3,0-3.2-4.6-1.8-10.1c1.4-6,0.9-9.2-0.9-7.3c-1.8,1.8-3.2,18.3-2.8,36.2 c0.9,28.4,2.3,34.4,12.8,45.4c6.4,7.3,14.7,11.9,18.3,10.5c3.2-1.4,6-0.5,6,1.4c0,6,26.6,17,33,14.2c3.7-1.8,3.2-2.8-1.4-2.8 c-4.1-0.5-10.1-3.7-13.3-7.3c-5-6-4.6-6.4,1.8-4.1c5,1.8,6.9,0.9,6-3.2c-0.9-3.7-0.9-5,0-2.8c1.4,1.8,4.6,3.2,8.3,3.2 c3.7,0,5,4.6,4.1,13.8c-0.9,8.7,0.5,13.8,4.1,13.8c6.9,0,53.2,45.9,46.8,46.3c-2.8,0,0,1.8,6,4.1c5.5,2.3,11.5,8.3,13.3,12.4 c1.8,4.6,9.2,14.7,16.1,22c6.9,7.8,12.8,16.1,12.8,18.8c0,2.8,4.1,8.7,9.2,13.3c5,4.6,9.2,11,9.2,14.7c0,3.2,2.3,6,4.6,6 c2.8,0,4.6,3.2,4.6,6.9s3.7,11,8.3,16.1c4.1,5,9.2,13.8,10.5,19.7c1.4,5.5,5,9.6,7.3,9.2c2.8-0.5,4.1,2.8,2.8,8.3 c-1.4,5-0.5,13.8,2.3,19.3c2.3,5.5,6.9,18.8,10.1,29.8c3.2,10.5,7.8,19.3,10.1,19.3c1.8,0,3.7,57.3,3.7,127s0.9,125.7,1.8,124.7 c0.9-0.9,2.8-57.3,3.7-125.7c1.8-105.5,1.4-124.7-4.6-128.9c-6-4.1-5.5-5,0.9-5c4.1,0,7.3,1.8,7.3,4.1c0,1.8,2.3,3.7,5,3.7 c2.8,0,4.1-3.7,3.2-7.8c-0.9-4.6-5.5-8.3-10.5-8.3c-11.5,0.5-20.6-8.3-20.2-19.3c0-6.4,0.9-6,4.6,2.8c3.7,8.7,6.4,10.1,16.5,7.3 c7.3-1.4,14.7-5.5,16.5-8.3c2.3-3.2,2.3,0.5,0.9,8.3c-4.1,15.6-3.2,202.2,0.5,256.4c3.2,42.2-2.3,97.2-7.3,73.8 c-1.4-7.3-1.8-17.9-0.5-22.9c1.8-5,1.8-62.8,0.5-128.4c-1.8-100.4-2.8-113.3-6-81.6c-2.3,20.2-3.7,73.8-2.8,119.2 c1.4,99.1,0.5,127.5-3.2,123.8c-1.8-1.8-3.2-16.1-3.2-31.6c0-16.1-0.9-24.8-1.8-19.7c-1.4,5-8.3,27.1-15.6,48.6 c-7.3,22-13.3,43.1-13.3,47.2c0,4.1-1.8,7.3-4.6,7.3c-2.3,0-4.6,2.8-4.6,6c0,2.8-4.1,10.5-9.2,17c-5,6.4-9.2,16.1-9.2,21.6 c0,5.5-1.8,11.5-4.6,12.8c-2.3,1.4-4.6,7.8-4.6,13.8c0,5.5-3.2,11.5-6.9,13.3c-3.7,1.4-5.5,5.5-4.1,8.7c1.4,3.7-0.9,7.8-4.6,9.2 c-4.1,1.8-6,6-4.6,10.1c1.4,3.7,0.5,6.9-2.3,6.9s-5,2.8-5,6c0,8.7-16.1,22.5-20.6,18.3c-1.8-2.3-2.3-1.4-0.5,1.8 c1.4,2.8-0.9,8.3-5.5,11.5c-4.6,3.2-12.4,12.4-17,19.7l-8.7,13.8l11.5-9.6c6.9-6,16.5-9.2,26.1-8.7c12.4,0.9,14.7,0,12.4-6.9 c-2.8-8.7,8.7-23.4,17.4-22.5c4.1,0,3.7,0.9,0,2.8c-3.2,0.9-6,7.3-6,13.8c0,16.1-11.5,25.7-27.5,23.4c-7.8-1.4-13.8-0.5-13.8,1.8 c0,1.8-1.4,3.2-3.2,2.8c-2.3,0-7.3,0.9-11.5,2.8c-7.3,3.2-8.3,10.5-8.3,55.9c0,40.8,1.8,55,7.3,64.2c4.1,6,6,12.8,4.1,14.7 c-1.8,1.8-4.6,0.5-6-3.2c-5.5-16.5-14.7,33-14.7,83.5c0,32.6-1.8,53.7-4.6,53.7s-4.6,18.8-4.6,47.2c0,26.1-1.8,49.1-4.1,51.8 c-2.8,2.3-5.5,28-6.9,56.9c-5,102.3-8.3,137.6-12.4,137.6c-2.3,0-4.1,4.1-4.1,9.2s-1.8,9.2-4.1,9.2s-5.5,17.9-6.4,40.4 c-0.9,22-3.2,46.3-4.6,53.7c-1.8,7.8-1.8,9.6-0.5,4.6c5-18.3,11-17.9,11.5,0.5c0,9.6,0.9,23.4,1.8,30.3c0.9,6.9-1.4,14.7-5,17.9 c-3.7,2.8-6.4,8.7-6.4,12.8c0,6,0.9,6,4.1,0.9c7.3-11.5,11,12.4,6.9,49.5c-1.8,19.3-4.6,29.4-5.5,22.5c-0.9-7.3-3.7-12.8-6-12.8 c-2.3,0-4.6,5.5-4.6,12.8l-0.5,12.4l-3.7-13.8c-3.2-12.8-3.7-11.9-4.1,6.9c-0.5,13.8-1.8,18.3-4.6,13.8c-5-9.2,0.5-57.8,6.4-56.4 c2.8,0.5,6,5.5,7.8,11.5c1.4,6,2.8,7.8,3.2,4.6c0.5-3.2,2.8-4.6,6-2.8c3.2,2.3,3.7,1.4,1.4-2.8c-1.8-3.2-4.1-10.1-4.6-15.6 c-0.5-5-1.4-11.5-1.8-14.2c-0.5-2.3-2.8-1.4-5.5,2.3c-3.7,5.5-4.1,4.1-2.3-5.5c1.4-6.9,0.9-13.3-1.4-14.7 c-3.7-2.8-6.4,9.6-12.4,56.9c-1.4,11.5-4.6,22.5-6.9,24.8c-2.3,2.8-4.1,12.4-4.1,22c0,11.9-2.3,18.8-7.3,20.6c-3.7,1.4-6,5-4.6,8.7 c1.4,3.2,0.5,6.4-1.8,7.3c-5,1.4-7.3,78-2.8,85.3c1.4,2.8,0.9,6-1.4,7.3c-2.3,1.8-5.5-1.8-6.4-7.3c-0.9-6-2.3-1.8-2.8,9.2 c-0.5,14.2-2.3,19.3-7.8,19.3c-4.6,0-6.4,2.8-5,6.9c1.8,3.7,0.9,7.8-1.4,9.2c-2.8,1.8-4.6,14.7-4.6,29.4c0,14.2-1.8,28-4.1,30.7 c-2.3,2.3-5,12.4-6,22.5c-0.5,10.1-2.8,19.3-4.1,20.6c-1.4,1.4-4.1,9.6-5.5,18.3c-2.8,14.7-2.8,15.6,3.7,7.3c8.3-11,9.2-1.8,1.4,11 c-5,7.8-4.6,10.1,0.9,13.8c6,3.7,6,4.6-0.9,4.6c-4.1,0-8.7-3.7-10.1-7.8c-1.4-4.6-1.8-1.8-0.9,6c0.5,10.5-0.5,14.2-5,12.4 c-3.7-1.4-6,1.4-6,6.9c0,5-1.8,10.1-4.6,11c-5,1.8-7.3,57.3-2.3,62.4c1.8,1.8,2.3-1.4,0.9-6.9c-1.4-6-0.5-10.5,1.4-10.5 c2.3,0,5,4.6,6,10.5c1.4,6.9,1.4,6.4,0.5-1.4c-0.5-6.4-2.8-17.4-4.6-24.8c-2.3-9.6-1.8-12.4,2.3-10.1c2.8,1.8,4.1,5.5,2.8,7.8 c-1.8,2.3,0.9,7.8,5,11.9c7.3,7.8,7.8,7.3,5-4.1c-1.8-6.4-1.4-17,0.9-22.9c3.2-9.2,4.1-7.8,4.1,7.8c0,17-11.9,72-12.4,58.2 c-0.5-4.1-3.7-5-9.2-3.2c-7.3,2.3-9.2,0-11-10.1c-1.8-12.4-1.8-12.4-2.8,1.8c0,7.8-2.3,16.1-5,17.4c-2.3,1.4-4.6,7.8-4.6,13.8 s-1.8,12.4-4.6,13.8c-2.3,1.4-4.6,7.8-4.6,14.2c0,6-1.8,11-4.6,11c-2.3,0-4.6,4.1-4.6,9.6c0,5-1.8,7.8-4.6,6.4 c-2.8-1.8-4.6,5.5-4.6,17.9c0,16.1-1.8,21.1-7.3,21.1c-5,0-6.4,2.8-4.1,9.2c1.8,5,0.9,9.2-1.8,9.2c-2.8,0-5,2.8-5,6 c0,7.3-41.7,49.1-49.5,49.1c-3.2,0-5.5,2.3-5.5,5c0,2.8-2.8,4.1-6.4,2.8s-9.2,0.5-11.9,4.1c-4.6,5-18.8,6.4-62.4,6.4 c-46.3,0-56.9,1.4-56.9,6.4c0,4.1,6,7.3,15.1,8.7c7.8,0.9-2.8,1.8-24.3,2.3c-26.6,0.5-36.7-0.5-32.1-3.7c4.6-3.2-10.5-4.6-46.8-4.6 c-30.3,0-54.1,1.8-54.1,4.1s-17,5.5-37.6,6.4c-44.9,2.8-67.9,7.3-67.9,13.3c0,2.8,3.7,3.2,7.8,1.8c4.6-1.8,6.4-1.4,4.1,0.5 c-4.1,4.6-30.3,5-30.3,0.5c0-1.4,3.7-4.1,8.3-5c4.1-1.4-12.4-2.3-36.7-2.8c-27.5-0.5-44.9,1.4-44.9,4.1s-24.3,4.6-64.2,4.6 c-42.2,0-64.2,1.8-64.2,5c0,2.3,2.3,3.2,4.6,1.8c7.3-4.6,5,0.5-3.2,7.3c-4.1,3.7-6.4,4.1-4.6,1.4c4.1-6.9-123.8-8.7-131.6-1.8 c-3.2,2.3-44.5,5-94.9,5.5c-55.9,0.9-88.5,3.2-88.1,6c0.9,5.5-21.6,5.5-778.3,10.5c-356.3,1.8-517.8,4.6-476,6.9 c34.4,1.8,117.9,2.3,184.8,0.5c89.4-2.3,121.5-1.8,121.5,1.8c0,4.1,30.3,4.6,113.7,2.8c62.4-1.4,137.1-0.5,166,1.8 c39.9,3.7,8.7,4.1-128.4,2.8c-99.5-1.4-207.7-2.8-240.8-3.7c-32.6-0.9-50.4-0.5-39,1.4c11.5,1.4-21.1,3.2-72,3.2 C2224.5,15078.3,2183.2,15077,2183.2,15074.7z M1111.4,15030.6c-6-0.9-15.1-0.9-20.6,0c-6,0.9-1.4,1.8,10.1,1.8 C1112.4,15032.5,1116.9,15031.6,1111.4,15030.6z M3052.3,14997.2c415.5-9.6,764.5-29.8,1089.2-61.9c36.7-3.7,87.1-6.9,112.4-6.9 c36.7,0,48.6-1.8,60.1-8.7c21.1-12.8,46.3-45.9,52.3-69.2c2.8-11.5,9.2-32.1,13.8-45.9c4.6-13.8,11.9-38.5,16.1-55 c4.6-16.5,14.7-53.7,23.4-82.5c20.2-71.5,40.4-155,61.9-256.8c9.6-46.8,21.6-103.2,26.6-126.1c5-22.5,14.7-77.5,21.1-121.5 c6.4-44,13.8-88.5,16.1-98.6c16.1-70.6,41.3-384.3,41.3-516.4v-71.5l26.6-23.4c31.6-27.5,57.8-68.3,67.9-107.3 c3.7-15.6,12.8-36.7,20.2-46.8c6.9-10.5,18.3-36.2,25.7-57.8c11.9-36.7,12.8-44.5,14.7-137.6l1.8-98.6l-21.1-58.7 c-42.7-116.9-97.2-185.7-185.7-233l-39.4-21.1l-12.8-52.3c-6.9-28.9-16.5-65.6-21.1-82.1c-5-16.5-12.4-42.2-16.5-57.3 c-13.8-49.1-62.4-200.9-73.4-229.3c-6-15.1-12.4-32.6-14.2-39c-2.8-10.1-40.8-105-79.8-197.2c-41.3-98.6-134.8-280.2-197.7-383.9 c-18.3-29.8-37.1-61.5-42.7-70.2c-18.3-31.2-111-165.6-143.5-208.2c-13.3-17.4-23.8-32.6-22.9-33c0.5-0.5,37.1-12.8,81.2-27.1 c44-13.8,103.2-33.5,130.7-43.6c28-9.6,55.9-19.3,63.3-20.6l12.4-3.2v-143.1v-142.6l22-10.1c11.9-5.5,41.3-16.5,65.1-24.3 c123.4-41.3,376.1-156.8,503.1-229.8c25.7-15.1,47.7-27.1,49.1-27.1c1.8,0,80.3-50.4,117.4-75.2c22.9-15.1,57.8-47.2,55-50 c-1.4-1.4-67.9-35.8-147.7-76.1c-80.3-40.4-149.5-75.7-154.5-78c-8.3-4.6-7.3-7.3,15.1-44.9c135.3-224.3,283-502.2,272.4-512.7 c-0.5-0.9-14.7,8.7-31.2,21.1c-16.5,12.4-35.8,24.8-43.6,28c-7.3,3.2-23.8,11.9-36.7,20.2c-19.3,11.9-105,59.6-204.1,112.8 c-13.8,7.3-28.4,16.1-32.1,18.8c-11.5,9.2-24.8,15.6-93.1,47.7c-65.1,30.3-83.5,38.1-221,94c-165.6,67.9-393,142.2-562.2,184.8 c-26.1,6.4-55.5,14.2-64.7,16.5l-17.4,4.6v143.5v143.1l-62.8,15.1c-34.9,8.3-105.5,22.9-157.3,33c-51.8,9.6-102.7,20.2-113.7,22.5 c-31.6,7.3-39,5.5-67.9-16.1c-104.1-78.4-206.8-145.4-346.7-225.6c-56.9-32.6-188.5-96.3-214.6-104.6c-6.4-1.8-24.8-9.6-41.3-17.4 c-24.3-11-37.6-14.2-72-16.1c-40.4-1.8-94,4.6-104.6,12.8c-2.3,1.8-23.8,11-47.2,20.2c-74.3,28.9-243.1,117.4-328.8,172 c-25.2,16.5-55.5,34.9-67,41.3c-11.5,6.4-27.1,16.5-34.4,22.5c-7.3,6-33,24.8-56.9,41.3c-24.3,17-58.7,42.2-77,56.4l-33,25.7 l-37.6-6c-21.1-3.7-52.3-8.7-70.2-11.5c-50-7.8-160.1-30.3-214.2-44l-49.5-11.9v-139.4c0-139,0-139.4-10.5-150 c-6.9-6.9-20.6-12.4-39.9-16.1c-64.7-12.4-360.5-106.9-497.1-158.7c-58.2-22-88.5-34.4-218.3-87.6c-92.6-38.5-260-121.5-334.8-166 c-65.1-39-204.1-126.1-212.3-133c-17.9-15.6-11,1.8,30.3,75.2c68.3,122.9,215.1,384.8,243.1,435.2c23.8,42.2,25.2,46.3,17.9,51.8 c-4.1,3.2-74.3,39.4-155.5,80.3c-81.6,40.8-148.1,75.7-148.1,77.5c0,8.3,126.6,95.8,181.1,125.7c17.9,9.2,55.9,30.3,84.8,46.3 c119.2,67,329.3,161,465.5,208.2c34.9,12.4,64.7,22.5,65.1,22.5c0.9,0,1.8,67.4,2.3,150l1.4,150l148.6,48.6 c81.6,26.6,148.1,50,148.1,52.3c-0.5,5.5-93.6,38.1-161,56.4l-47.7,12.8l-23.8,29.8c-13.3,16.5-34.9,47.2-47.7,68.8l-23.4,39v51.4 c0,48.2,1.4,55,18.8,107.3l18.8,56.4l-11.9,22.9c-46.8,90.3-65.1,127-89,179.3c-30.7,67.4-74.3,169.7-74.3,174.3 c0,1.8-6,15.6-12.8,31.2c-6.9,15.6-15.6,37.6-18.8,49.1c-3.2,11.5-12.4,36.7-19.7,56.9c-19.3,50.4-51.4,151.3-68.3,213.7 c-7.8,28.9-18.8,68.3-24.8,87.1c-5.5,18.8-16.1,60.1-22.9,91.7c-7.3,31.6-14.2,59.6-16.1,61.9c-2.3,2.8-10.1,35.8-17.9,73.4 c-7.8,38.1-17.4,83.5-21.1,100.9c-23.8,115.1-39,304.5-39,490.7l-0.5,119.2l-45.4,59.6c-25.2,33-57.8,74.8-72.5,93.1 c-24.8,32.1-65.1,108.7-65.1,124.3c0,4.1,6.9,34.9,15.1,68.3l14.7,61l41.3,40.4c41.3,39.9,95.4,74.8,138,88.5l17.4,6l5.5,39 c11.9,84.4,24.8,166.5,27.1,169.7c1.4,2.3,10.5,44.9,20.6,94.9c10.1,50,24.3,115.6,32.1,145.8c27.5,109.6,32.1,128.9,38.5,151.3 c3.7,12.8,12.8,45.9,20.6,73.4c36.7,132.1,39.4,139.9,64.2,163.7c12.4,11.9,27.5,22.5,33.5,23.8c6,0.9,45.9,4.1,88.5,6.9 c43.1,2.8,133.9,9.2,201.8,14.2C1714.5,14991.2,2475.3,15010.9,3052.3,14997.2z M4202.9,14998.1c1.4-2.3-3.7-2.8-11.5-1.8 c-7.3,0.9-13.3,2.8-13.3,3.7C4178.1,15003.6,4200.6,15001.7,4202.9,14998.1z M4580.3,14290c-1.4-3.2-2.3-0.9-2.3,5.5 c0,6.4,0.9,8.7,2.3,6C4581.2,14298.2,4581.2,14292.7,4580.3,14290z M4594.1,14226.7c1.4-14.7-6.4-14.7-8.7-0.5 c-1.4,8.3,0,12.4,3.2,11.5C4591.3,14236.3,4593.6,14231.7,4594.1,14226.7z M3331.5,10673.9c6.4-6.4,46.8-14.7,72.9-15.1 c22.9,0,33-4.6,22.9-10.5c-4.6-2.8-61.9,7.8-69.7,12.4c-2.8,1.8-5,0.5-5.5-2.8c0-4.1-0.9-4.1-2.3-0.5c-1.8,3.7-5.5,3.7-14.7-1.4 c-11.9-6-12.4-6-13.8,4.6c-0.9,7.3-5,11.9-11.5,13.3c-7.3,1.4-6.4,2.3,4.1,2.8C3321.9,10676.6,3329.7,10675.7,3331.5,10673.9z M279.5,10226.3c-3.7-11-8.3-16.1-14.2-15.6c-9.6,0.5-9.6,0.9-3.7,12.8c2.8,4.6,7.8,8.7,11.5,8.7c3.7,0,6.9,3.7,6.9,7.8 c0,4.1,1.4,6.4,2.8,4.6C284.1,10243.3,282.7,10235,279.5,10226.3z M4858.7,10173.1c-3.7-4.1-10.1,5.5-7.8,11.9 c2.8,6.9,3.2,6.4,6-1.4C4858.7,10179.1,4859.6,10174,4858.7,10173.1z M4659.7,9929.6c0-2.3,4.1-4.6,9.2-4.6c5,0,9.2-1.8,9.2-4.6 c0-2.3,4.1-4.6,9.2-4.6c5,0,9.2-1.8,9.2-4.6c0-2.3,4.1-4.6,9.2-4.6c5,0,9.2-1.8,9.2-3.7c0-1.8,6.4-7.3,14.2-11.9 c9.6-5.5,12.4-10.1,9.6-12.8c-3.2-3.2-9.2,0.5-17.9,10.1c-9.6,11-13.8,12.8-13.8,7.8c0-4.6,1.8-7.8,4.1-7.8c1.8,0,3.7-2.3,3.7-5 c0-2.8-3.7-4.1-7.8-3.2c-4.6,0.9-8.3,5.5-8.3,10.5c0.5,12.8-9.6,22-24.3,21.6c-13.3,0-33,10.1-33,17.4c0,2.8,4.1,4.6,9.2,4.6 C4655.5,9934.2,4659.7,9932.3,4659.7,9929.6z"/><path d="M2210.7,14964.6c-381.6-7.3-890.6-32.1-1230-59.2c-62.4-5-123.4-9.2-135.7-9.2c-20.2,0-23.4-1.8-43.1-21.6 c-19.3-20.2-22.5-27.1-39.4-83.9c-39.9-133.9-79.3-290.3-109.1-431.1c-14.7-68.8-44.9-238.9-48.6-272.9l-1.4-13.8l35.3,1.8 c19.3,0.5,45.9,0,59.6-1.8l24.3-3.2l27.1-43.1c15.1-23.8,50.9-70.2,79.8-103.2s77-95.4,107.3-139c38.5-55.5,61.5-83.5,77.5-96.3 c12.8-9.6,24.8-15.6,27.1-13.8c1.8,2.3,13.3,30.7,24.8,62.8c39.4,106.4,78.9,183.4,128.4,247.6c39.4,51.4,51.4,63.3,111.9,111 c60.5,47.7,74.3,56.4,135.7,83.9c65.1,29.8,68.8,32.1,85.8,56c14.7,21.1,22.5,27.1,46.3,37.1c28.4,11.5,28.9,11.9,31.2,31.6 l2.3,20.2l32.1,10.1l32.1,10.1l4.6,21.1c4.1,20.2,6.4,22.9,34.4,38.5c24.8,14.7,36.7,26.1,71.1,70.2 c34.4,44.5,50.9,60.5,103.2,101.8c82.1,64.2,155.9,116.9,218.3,155.5c50.4,31.2,52.3,31.6,124.7,47.2l73.4,15.6l68.3-8.3 c56.4-7.3,83-13.3,155-36.2c48.2-15.1,107.8-33.9,133.5-41.7c40.8-12.4,51.4-18.3,95.8-51.4c60.5-44.9,57.8-43.6,90.8-47.2 c24.3-2.8,31.6-6.4,70.2-34.9c37.6-28,47.7-33,77.5-39.9c29.4-6.4,38.1-10.5,63.7-31.6l29.4-24.8h65.6 c139.4,0,231.6-24.8,313.7-84.8c60.1-43.6,112.8-97.7,144.5-148.6c32.6-52.3,67.4-91.3,106.4-120.2c36.2-27.1,37.1-29.8,37.6-111 l0.5-54.1l-22.9-20.2c-19.7-17-28.9-21.1-64.2-29.8c-60.1-14.2-84.4-15.6-173.8-9.2l-80.7,5.5l-36.7-17.4 c-35.8-16.5-37.1-17.4-54.6-50.4c-10.1-18.3-29.8-49.1-44.5-68.3c-24.8-32.6-29.8-37.1-63.7-52.7c-33.5-15.6-40.8-21.6-74.8-61 c-25.7-29.4-50.4-51.8-77-70.2l-39-26.6l-15.6-49.5c-8.3-27.1-19.7-68.3-24.8-91.7c-7.3-34.4-16.5-56-46.3-112.8l-37.1-70.6 l62.4-94.5c60.1-91.3,63.7-95.8,96.8-118.3c20.6-14.7,55.9-32.6,90.3-45.9c30.7-11.9,92.2-37.6,136.2-57.3 c44-19.3,115.6-50.9,158.2-69.7c43.1-18.8,107.8-48.6,144.5-66.5c60.1-28.4,68.3-33.9,83.9-55l17.4-22.9l-23.8-48.2l-23.8-48.6 l44-54.1c23.8-29.8,50.9-68.3,59.6-86.2c41.3-81.2,113.3-178.9,149-200.9c11-6.9,21.6-12.4,23.4-12.4c4.6,0,42.7,87.1,71.5,162.8 c11.5,30.3,32.1,98.6,45.9,151.3c13.8,53.2,28,105.9,31.6,117.9l6.9,21.6l-28.9,22.9c-16.1,12.4-33.5,25.2-39,28.4 c-13.8,8.7-81.6,99.5-107.3,144.5c-21.6,37.6-36.7,86.2-42.2,137.1c-4.6,40.8-19.7,88.5-37.1,117.4c-15.1,24.8-15.1,25.7-10.5,56.9 c2.8,20.6,11,45.9,24.3,73.4l19.7,42.2l52.3,17.9c41.7,14.2,55.9,21.6,72,36.7c18.3,17.4,19.7,20.6,17,35.3 c-5,25.2,9.6,51.4,51.8,93.6c41.7,41.3,70.6,56.4,110.5,56.4c18.8,0,23.4,1.8,35.3,15.1c19.3,22,77.5,37.6,125.2,33.5 c19.3-1.4,38.5-6,43.6-9.6c40.8-30.3,39.9-29.8,72-29.8c17,0,41.3-2.3,53.7-5c19.3-4.6,25.7-9.2,42.2-29.8 c11-13.8,21.1-24.8,22.9-24.8c2.3,0,2.8,16.1,2.3,35.8c-0.9,19.3-3.2,66.5-4.6,104.1c-13.3,327-80.7,719.1-187.1,1086.9 c-32.1,110.1-30.7,107.3-53.2,129.8l-19.3,19.3h-41.3c-22.9,0-83.5,4.1-133.9,9.2C3585.6,14957.3,2903.2,14978.4,2210.7,14964.6z" /><path d="M2263,14747.2c-68.3-12.4-136.7-39.4-184.4-72c-11.9-8.3-76.1-59.6-143.1-114.2c-101.4-83.5-125.7-105.5-146.8-134.4 c-13.8-19.3-37.1-44-51.4-55.5c-18.3-14.2-28.9-27.1-36.7-43.1c-8.7-19.3-12.8-23.4-22-23.4c-14.7,0-39-14.7-45.9-27.5 c-2.8-5.5-12.4-12.8-20.6-16.5c-17-6.9-34.4-27.5-44.9-52.7c-5.5-13.8-9.6-17.4-24.3-19.7c-38.5-7.3-153.2-77-224.7-137.1 c-120.6-101.4-200.4-219.2-224.3-331.6c-13.3-62.8-9.6-100.9,20.6-218.8c38.1-147.7,42.7-163.7,47.2-163.7 c11.5,0,146.3,88.1,172.9,112.4c38.1,35.8,98.1,80.3,107.3,80.3c17,0,54.6-18.8,90.3-45.4c61-44.9,104.6-62.4,207.3-83.9 c66.5-13.8,99.5-18.8,135.3-19.3l47.2-0.5l35.3-38.1c20.2-21.6,66-61.5,106.4-92.2l71.1-54.1l-0.9-21.1 c-0.9-18.3-6.9-28.9-51.4-91.3c-27.5-39-53.2-72.9-56.4-75.7c-3.2-2.3-19.3-7.3-35.8-10.1c-110.5-20.6-258.2-66-275.2-84.8 c-33-35.8-50.9-64.2-62.4-97.2l-12.4-36.2l153.6-231.6c84.4-127.5,181.1-269.7,215.1-316.4c33.9-46.8,73.8-101.8,88.5-122.4 c15.1-21.1,28.9-38.1,30.7-38.1s9.2,4.6,16.5,10.5c36.2,29.8,64.7,37.6,99.5,28.9c28-7.3,41.3-24.8,45.9-58.2l3.2-23.4l17.4,3.2 c13.3,2.3,22.5,0.5,36.2-6.4c19.7-10.1,23.8-20.2,23.8-60.1c0-23.8,4.1-27.1,34.4-28c7.8,0,22.9-6,34.4-12.8l20.2-12.4l0.5-36.2 c0.5-29.8,3.2-41.7,12.8-62.4c6.9-13.8,15.1-41.3,19.3-61l6.9-36.2l-14.7-16.5c-7.8-9.2-19.3-19.3-25.2-22.5 c-5.5-3.2-10.5-7.8-10.5-10.5c0-6,32.6-49.5,45.4-61c9.2-8.3,10.5-8.7,37.1-1.4c38.1,10.5,52.7,9.6,71.5-4.1 c15.1-11.9,15.6-13.3,15.6-43.6v-31.6h67.9c112.4,0,397.6-26.1,552.6-50.9c32.6-5,60.1-8.3,61.5-6.9c3.7,3.7-4.1,83-26.1,261.4 l-18.3,150.9l60.5,129.8c33.5,71.5,62.4,129.8,63.7,130.2c6,0-10.1-67.9-39.4-170.6l-29.8-104.1l13.3-145.8 c7.8-80.3,15.1-172,17-204.1c1.8-32.6,3.2-58.7,3.7-58.7c0.5,0,23.4-4.1,50.9-9.2c61.5-11.5,57.8-11.5,55,1.4 c-1.4,5.5-13.8,86.7-27.5,179.8c-20.2,137.1-23.8,173.8-20.6,190.3c2.3,11.5,10.5,54.6,18.3,96.3c7.8,41.7,18.3,94.9,22.9,117.9 c5,23.4,9.2,44,9.2,45.4c0,1.8,15.6-17.4,34.4-42.2c142.6-188.9,305-299.5,438-299.9c80.7,0,168.3,47.2,222,120.2 c39,52.3,179.3,398.5,222.9,549.4c15.6,54.1,38.5,131.6,50.9,172c11.9,40.4,23.4,78.9,24.8,85.8l3.2,11.9l-52.3-13.3 c-77-19.7-123.4-18.8-210,4.6c-36.7,9.6-70.6,19.3-76.1,21.1c-8.7,2.8-11.5-4.6-47.2-131.6c-21.1-73.8-39.9-136.2-41.7-139 c-1.8-2.3-15.6-34.4-29.8-71.1c-32.6-81.6-41.3-99.5-56.4-115.6c-19.7-21.6-39.4-14.7-79.8,26.1c-25.7,26.1-233,328.8-233,340.3 c0,4.6,6.4,27.5,14.2,51.4l14.7,43.6l-17.4,15.1c-55.5,48.2-309.1,168.8-494.8,235.3c-87.6,31.2-109.6,44.9-152.7,94.9 c-42.2,49.1-119.2,165.1-132.5,200c-1.8,4.6,8.3,19.7,28.9,43.6c29.8,34.4,32.6,39.9,57.3,109.1c14.2,40.4,31.2,91.7,38.1,114.2 c17.4,61,18.3,61.9,53.2,89.4c17.9,13.8,51.8,47.7,76.1,75.7c39.4,45.9,45.9,51.4,70.6,60.1c52.7,19.3,89.4,54.6,109.6,105.5 c14.7,37.1,27.1,52.7,53.7,67.4c44,23.4,74.8,28,203.2,28c116.9,0.5,116.9,0.5,143.1,12.8c43.1,20.2,50,48.6,24.3,103.6 c-16.1,34.4-34.9,60.5-71.5,98.1c-17.4,18.3-55.9,67-84.8,107.8c-50,70.6-54.6,75.7-91.3,100c-48.2,32.1-106.4,57.3-166.9,72.9 c-60.1,15.1-155.5,23.4-204.5,18.3l-36.7-4.1l-15.6,19.7c-17,22.5-53.2,42.2-77,42.2c-11,0-20.6,5.5-38.1,20.6 c-30.3,27.1-62.4,42.7-95.8,47.2c-25.2,3.7-29.4,6-57.8,33.5c-21.6,21.1-39,33-61,42.2c-78.9,32.6-237.6,82.5-319.2,100 C2346,14755.5,2310.2,14755.9,2263,14747.2z M2875.7,14176.3c-3.7-2.3-15.1-4.6-25.2-4.6c-58.7,0-206.8-39.9-291.2-78.4 c-32.1-14.7-36.7-16.1-25.7-6.9c22.5,18.3,98.6,56,140.3,69.2c21.6,6.4,56.4,14.7,78,18.3 C2798.6,14181.3,2885.8,14182.7,2875.7,14176.3z M2875.2,14109.3c26.6-3.7,50.4-8.7,52.3-10.5c3.2-3.2-93.6-82.1-133.5-108.2 c-25.2-16.5-64.7-24.3-140.8-28c-59.6-2.8-128.4,3.2-137.1,11.9c-8.7,8.7,5.5,26.1,39.4,49.1c71.1,48.2,133.9,80.3,175.6,88.5 C2762,14118,2823.9,14117.1,2875.2,14109.3z M2099.7,14075.8c44.5-11,121.5-37.6,118.3-40.4c-1.4-1.4-15.1,0.9-31.2,5 c-106.4,26.1-230.7,35.3-320.1,23.4l-16.1-2.3l16.1,7.3C1914.9,14091.4,2024.5,14094.6,2099.7,14075.8z M2101.6,14011.6 c63.3-15.1,145.4-45.9,153.2-58.2c4.1-6,6-12.4,4.6-15.1c-9.6-15.6-143.1-50-209.1-54.1c-39.4-2.3-46.3-1.4-75.7,9.6 c-47.2,17.9-144.5,63.3-144.5,67c0,7.3,102.7,46.3,149,56.4C2003.9,14022.6,2066.7,14019.4,2101.6,14011.6z M2589.5,13791.5 c71.5-35.8,158.7-76.1,187.6-87.6c28.4-11.5,33.5-15.1,43.6-33.9l11.5-21.1l-25.2-25.2l-25.7-25.7l-56.9-11 c-63.3-12.8-122.9-14.7-178.9-5l-34.4,5.5l71.1,3.2c39,1.8,94.9,6,123.8,8.7c51.4,4.6,53.7,5.5,72.5,21.6 c11.9,10.1,20.2,22,22,30.3c2.3,13.3,1.4,14.2-28.9,27.1c-17,7.3-52.7,25.2-79.3,39.4c-69.7,38.1-143.1,72-166,76.1l-19.7,3.7 l22.9,3.2c12.8,1.4,25.2,3.2,28,3.2C2560.2,13804.3,2574.4,13798.8,2589.5,13791.5z M2415.3,13629.6c17-12.4,37.1-22.5,60.5-29.4 c19.3-6,32.1-10.5,28.4-10.5c-25.7-0.9-119.2,35.3-132.5,51.8c-5.5,6.4-4.6,7.3,6,7.3C2385,13648.9,2400.1,13641.1,2415.3,13629.6z M2211.2,13493.4c99.5-38.1,178.9-54.6,279.3-58.2c78.9-2.8,93.6-1.4,181.1,14.7l13.8,2.8l-17.4-12.4 c-14.2-9.6-27.1-13.3-71.1-18.8c-66-8.3-152.3-9.2-218.8-2.3c-54.1,6-81.6,11.9-134.8,30.3c-18.8,6.4-35.3,10.5-36.7,9.2 s0-6.9,3.2-11.5c13.3-21.6,5.5-23.4-19.3-4.1c-21.6,17-26.1,23.4-34.4,48.6c-5.5,16.1-9.6,37.6-9.6,48.6v19.3l15.1-26.6 C2175.4,13507.6,2177.7,13506.2,2211.2,13493.4z M2407.9,13326.5c20.2-6.9,33.9-8.3,70.2-6.9l44.9,1.8l-19.7-10.5 c-11-5.5-30.3-12.4-43.1-15.6c-22.5-5-24.8-4.6-46.8,7.3c-24.3,13.3-57.8,44-39.9,36.7 C2378.6,13337.5,2394.2,13331.5,2407.9,13326.5z M3043.5,12884.8c66-23.8,191.7-73.4,265.5-105c62.8-26.6,202.2-95.8,217.8-107.8 l11.5-9.2h-30.3c-29.8,0-33.9,1.4-133,50c-56.4,27.5-119.2,56.4-139.4,63.7c-201.3,75.2-189.9,69.7-249.9,123.4 C2975.7,12909.1,2981.2,12907.8,3043.5,12884.8z"/><path d="M628.5,14038.2c-16.1-1.8-45.9-9.2-66.5-16.1c-75.7-25.2-108.2-48.2-141.7-99.5c-19.7-30.7-26.6-46.3-36.2-85.3l-11.9-47.7 l62.8-87.6c59.2-83,80.3-111.9,177.5-237.6c22.5-29.4,51.4-67.4,64.2-84.8c39-53.7,306.8-396.7,388.9-498.5 c63.3-78.4,106.9-125.7,227.5-246.3c82.1-82.1,155.9-152.3,163.3-155.5c7.8-2.8,24.8-18.3,38.5-33.9 c47.2-52.7,222.9-243.5,239.4-259.6c9.6-8.7,26.6-29.4,38.5-45.4c29.8-40.4,110.5-139.9,159.1-196.3l40.4-46.3l-21.1-24.8 c-28-32.6-45.4-67.4-57.3-116.5c-5-22.5-11.5-42.6-13.8-44.9c-1.8-2.3-32.1-9.2-67-15.6c-52.7-9.2-81.2-11.5-169.7-12.8l-106.4-1.8 l-17.9,21.1l-18.3,20.6l55.5,138.5l55.9,138.5l36.7,36.7c20.6,20.2,51.4,49.1,68.8,64.7l32.1,28l-64.2,66 c-150.9,155-203.6,209.1-219.2,226.6l-16.1,18.3l-8.7-15.6c-24.8-46.3-128.4-194.9-303.6-436.1c-58.2-80.3-163.3-277.5-170.1-319.2 c-9.2-54.6-6.4-74.3,15.6-119.2c18.3-37.6,22.5-43.1,58.2-71.1c33.9-26.6,45.9-32.6,100.4-51.8c42.7-15.1,85.3-26.1,137.1-35.3 l75.7-13.3l34.4,9.2c80.7,21.1,259.1,58.2,386.6,80.3c92.6,16.5,276.5,39,391.2,48.2c39.4,3.2,68.3,7.8,74.3,11.9 c6.4,3.7,11,4.6,12.8,1.8c3.2-5,166.9-6.4,237.1-1.4c39.4,2.3,44.9,3.7,47.7,11.9c1.8,6,0,10.5-5,13.8c-6.9,3.7-5,6,13.8,12.8 c12.4,4.6,22.9,7.8,23.8,6.9c0.9-0.5-1.8-10.1-5.5-21.1c-3.7-11-6-20.6-4.6-22c0.9-1.4,10.5-2.8,20.6-3.7 c16.5-1.8,19.3-0.5,22.9,10.1c7.3,19.3,5,37.1-6,50.4l-10.5,12.4l-43.6-7.8c-23.8-4.1-46.3-8.7-50.4-10.1c-5-1.4-17,10.5-38.1,37.1 c-17,22-31.6,42.2-33,45.4c-1.4,3.2,10.1,15.6,26.1,28l28.4,22l-2.8,25.7c-3.7,32.1-14.7,65.1-26.1,77.5 c-7.3,7.8-7.8,11.9-4.6,24.8c14.7,50.4-12.8,86.2-66.5,86.2h-20.6v17.4c0,39-17,69.7-38.1,69.7c-5.5,0-18.3-4.1-28.4-9.2 c-10.1-5-18.3-9.2-18.3-9.2c-0.5,0,0,6,1.4,13.3c3.2,21.1-7.8,62.8-19.7,75.7c-15.6,17-43.6,16.5-78.4-2.3 c-15.1-7.8-31.2-17.9-36.7-22.9c-10.5-10.1-20.2-11.5-20.2-2.8c0,3.2-17,25.2-37.6,49.5c-110.5,128.4-132.1,155.5-159.1,198.1 c-77.5,122.9-152.3,239.9-216.5,338c-67.9,102.7-82.5,127.5-144.5,238.5c-26.1,47.7-144,225.6-188,284.8 c-12.4,17-44.9,60.5-72,97.7c-27.5,36.7-51.4,67.9-53.2,68.8c-1.8,1.4-25.7-6.9-53.2-18.3c-27.1-11.5-49.5-20.2-50.4-19.3 c-1.4,1.4-33.9,116-60.1,211l-17.4,62.8l-78,98.1c-78.9,97.7-158.7,196.3-163.3,200.4c-1.4,1.4-33.9,40.8-72.9,88.5 C675.3,14052.4,685.4,14045.6,628.5,14038.2z M601.9,13989.6c-9.6-3.7-75.7-51.8-97.2-71.5c-38.1-34.9-45.4-47.7-45.9-80.3 c0-26.1,2.3-33,28-82.5c15.1-29.4,25.7-51.4,23.4-49.1c-2.3,2.8-22.9,28-46.3,56.9c-46.8,57.8-45.4,52.7-22.9,99.5 c16.5,35.3,43.6,66,78.4,89.9c29.8,20.2,82.5,45.4,86.2,41.7C607,13992.8,605.1,13990.5,601.9,13989.6z M1526,12845.4 c46.8-71.5,100.4-152.3,118.3-180.2c18.3-27.5,61.5-93.6,95.8-146.3l63.3-95.8l-32.6,29.4c-33.9,30.7-52.3,58.7-277,423.8 c-33,53.2-65.6,105-72.5,115.6c-7.3,10.5-13.3,20.6-13.3,22.5C1408.2,13021,1443.5,12970.1,1526,12845.4z"/><path d="M4263.9,13589.2c-21.6-3.7-60.1-24.3-79.8-42.7c-6.9-6-20.6-10.5-39-13.3c-41.7-5.5-72.5-22.5-102.3-55.5 c-13.8-15.6-26.6-33.5-28.4-39.4c-6-22.9,19.3-67.9,60.5-107.8c24.3-24.3,59.6-48.6,70.2-48.6c7.3,0,22.5,33.9,41.7,95.8l15.1,47.2 l22.9-22c12.4-12.4,31.2-33.5,41.7-46.3c10.5-13.3,21.6-24.3,24.3-24.3c7.3,0,36.7,33,63.7,72c12.8,18.3,23.8,33,25.2,33.5 c1.4,0,1.8-25.2,0.9-55.9c-1.8-65.6,1.4-94.9,11-98.6c7.8-2.8,33.9,14.7,93.1,61.5l38.5,30.7l-3.2-20.6c-1.8-11-4.1-38.1-6-60.1 c-2.3-33-1.4-42.2,5-51.8c4.1-6.4,10.5-11.5,13.8-11.5c9.6,0,53.2,23.8,79.8,44c20.6,15.1,23.8,20.2,26.6,37.6 c6.9,46.8-17.9,95.4-59.6,116.5c-21.1,10.5-25.7,15.6-25.7,29.4c0,5-5.5,19.7-11.9,33c-21.6,43.1-72.5,65.6-128.9,57.3 c-28-4.1-28.9-4.1-41.3,8.7C4346.9,13584.2,4305.2,13596.1,4263.9,13589.2z"/><path d="M1410,13469.1c-17-13.3-54.1-45.9-81.6-72.5l-50.4-49.1l32.1-38.5c109.1-131.2,223.8-297.2,273.8-396.2 c13.8-28,29.4-54.1,34.4-58.7c9.2-8.3,9.6-7.8,22.9,11.5c7.3,11,14.2,22,15.1,24.3c0.9,2.8,13.3,20.6,27.1,39.9 c24.3,33.9,26.6,35.8,73.4,58.2c45.4,21.6,50.4,22.9,93.1,25.2c35.3,1.4,55,5.5,94,18.3c27.1,9.2,51.4,18.3,54.1,20.2 c10.5,7.3,56.9,69.7,72,97.7l17,30.3l-25.7,28c-13.8,15.6-43.1,41.3-65.1,56.9c-22,15.6-51.8,38.1-66.5,50.4 c-14.7,11.9-28.4,22-29.8,22c-14.7,0-142.6,21.1-206.8,34.4c-88.1,17.9-113.7,28.4-164.2,70.2c-30.3,24.8-72,51.4-81.2,51.4 C1444.4,13492.9,1427.4,13482.4,1410,13469.1z"/><path d="M864.7,12046c39.4-91.3,109.6-231.6,114.7-230.2c2.3,0.9,11.9,20.6,21.1,43.6c21.1,51.8,78.9,140.8,136.7,211.9 c23.8,28.9,55,70.6,69.2,92.6c14.2,22,42.7,58.7,63.3,81.2c33,36.2,89.4,118.3,124.7,182.5l10.5,19.3l-98.6,102.3 c-67,69.7-120.6,131.2-167.8,191.7c-38.5,49.1-110.1,137.1-159.6,194.9c-49.5,58.2-105.5,128.4-124.7,155.9 c-19.3,28-55,75.7-80.3,106.9c-24.8,31.2-68.3,87.1-96.3,124.3c-28.4,37.1-64.7,84.8-80.7,105.9c-36.7,48.2-34.9,46.8-38.1,43.1 c-5.5-5.5,3.7-257.7,12.4-355c14.2-149.5,29.8-233.4,80.3-432.9"/><path d="M629.4,13419.6c0-6.4,0.9-8.7,2.3-5.5c0.9,2.8,0.9,8.3,0,11.5C630.4,13428.3,629.4,13426,629.4,13419.6z"/><path d="M4199.7,13384.2c-1.4-2.3-9.6-27.5-18.8-56.4c-11-33.5-20.6-55.5-26.6-60.1c-9.2-7.3-11.5-6.4-42.7,16.1 c-44.9,32.6-83.5,66.5-94.5,84.4c-5,7.8-11,14.7-13.3,14.7c-1.8,0-8.3-6.9-14.2-15.6c-7.8-11-16.5-17.4-29.4-20.6 c-10.1-2.8-34.9-13.3-55-24.3c-32.6-17.4-38.1-22-47.7-42.7c-6-12.4-14.7-38.5-19.3-57.3c-11-45.4-6.4-62.4,25.2-95.4 c35.3-37.1,56.9-48.2,98.6-50.4c49.5-2.8,51.4,0.9,23.4,47.2c-12.4,20.2-24.8,47.2-28,59.6c-2.8,12.8-6.9,26.1-8.7,29.8 c-1.8,3.7-4.6,13.3-6.4,20.6c-1.4,7.8,15.6-23.4,38.5-68.3c22.9-45.4,40.8-82.5,40.4-83c-20.6-17-84.4-24.8-111-13.8 c-9.6,4.1-18.8,6.4-20.2,4.6c-1.4-1.4,0-20.2,2.8-41.7c6-38.5,21.6-89,38.5-122.4c8.3-16.5,9.6-17,25.7-14.2 c70.2,11.9,255.4,67,297.2,88.1l16.1,8.3l-29.4,23.8c-72.5,58.7-171.1,173.8-219.7,256.8c-39.9,67.9-43.1,74.3-36.2,78.4 c4.1,2.8,15.6-10.5,39.9-46.3c18.8-27.5,54.1-75.2,78.4-105.9c46.3-58.2,173.4-188.5,188.5-193.1c18.3-6,162.3,70.2,262.3,138 c58.7,39.9,133,97.7,133,103.2c0,5-17.9,45.4-24.8,55c-6,8.7-6.9,7.8-18.3-13.3c-9.6-17-18.8-26.1-40.8-38.5 c-37.6-22.5-72.9-30.7-87.6-21.1c-12.4,8.3-17.4,39.4-13.3,85.3c1.4,15.1,1.4,28,0,28c-1.4,0-11.9-8.7-23.4-19.3 c-22-19.7-74.8-54.1-83.5-54.1c-2.8,0-9.6,5.5-16.1,11.9c-9.6,10.1-11.5,17.4-13.3,52.7c-1.4,22.5-4.6,42.7-6.9,44.9 c-2.8,2.8-15.6-8.3-33.9-29.8c-16.1-18.8-31.2-33.9-33.5-33.9c-2.8,0-22.9,16.5-44.9,36.7 C4206.1,13387.9,4203.4,13390.2,4199.7,13384.2z M3962.6,13287.5c-22.5-40.8-22-39.9-25.7-36.2c-1.4,1.4,7.3,20.2,19.3,41.7 C3983.7,13341.1,3989.2,13336.5,3962.6,13287.5z"/><path d="M4656,13192.5c-69.2-60.1-191.2-138.5-283.9-182.1c-28.4-13.3-51.8-25.7-51.8-27.1c0-5,76.1-53.7,112.8-72 c60.5-30.3,118.8-47.2,183.9-53.2l23.8-2.3l16.5,26.1c21.6,34.9,42.7,90.8,51.4,136.2c11.9,61.5,1.8,198.1-14.7,202.2 C4691.3,13221,4674.3,13208.6,4656,13192.5z"/><path d="M4271.2,12965.5c-56.4-25.2-267.8-87.1-298.6-87.1c-19.7-0.5-21.1-7.8-5.5-28.4c25.2-32.6,55.5-62.4,87.1-85.8 c147.7-109.6,343-110.5,493-2.8c27.5,19.7,65.6,56,61.5,58.7c-0.9,0.9-25.7,9.2-55.5,18.8c-64.2,20.6-155.9,64.7-212.3,102.3 c-22.5,14.7-43.6,28.4-45.9,29.8C4292.3,12972.9,4281.8,12970.1,4271.2,12965.5z"/><path d="M1717.3,12049.7c-24.8-16.5-55-38.1-67-48.2c-18.3-15.6-21.6-20.6-24.3-40.8c-1.8-12.8-13.8-45.4-26.1-72 c-12.8-27.1-30.3-71.5-38.5-99.1c-22.5-72.5-28.4-68.8,105.9-65.1c58.2,1.8,122.9,4.6,144.5,6.4l39,3.2l15.1,41.3 c7.8,22.9,22,56.4,30.7,74.8c8.7,18.3,16.1,35.3,16.1,38.1c0,3.2-6.9,12.8-14.7,22.5c-8.3,9.2-39.4,49.1-69.2,88.5 c-30.3,39.4-56.9,73.8-60.1,76.1C1764.5,12078.6,1750.3,12071.7,1717.3,12049.7z"/><path d="M3460.9,12010.7c-0.9-3.2-4.1-30.7-7.3-61c-2.8-30.3-10.1-78-17-106.4l-11.5-51.8l7.8-53.7c4.1-29.8,14.2-89,22.9-132.1 c8.3-42.7,17.9-99.5,21.6-126.1l6-48.2l25.2-5.5c13.8-3.2,50.9-11,82.5-17.4c69.2-14.2,114.2-25.2,182.1-44 c28-8.3,54.1-13.3,57.8-11.9c6,2.3,47.2,55.5,93.1,120.2c62.4,88.1,193.5,302.7,188.5,307.7c-1.4,1.4-23.8-11-50-27.5 c-44-27.5-50.9-30.3-92.6-37.6c-29.8-5-59.6-6.9-89-5.5c-43.1,2.3-46.3,3.2-108.7,32.6c-61.9,28.9-64.7,31.2-96.3,66.5 c-17.9,20.2-49.1,50-68.8,66.5c-32.1,26.1-89.9,85.3-99.5,101.8c-1.8,3.2-12.8,13.3-24.3,22.5 C3469.1,12011.6,3462.3,12014.8,3460.9,12010.7z"/><path d="M2380.4,11499.4c-483.8-15.1-951.1-105-1393.2-268.3l-28.9-10.5l1.4-312.8c0.9-172,2.8-313.7,4.1-315.1 c1.4-1.4,63.3,12.4,137.6,31.2c155,39,333.4,80.7,403.1,94.5c26.6,5.5,81.6,16.5,122.4,25.2c198.1,41.3,456.8,72.9,693.9,85.3 c131.6,6.9,452.2,2.8,571-7.3c191.7-16.1,397.2-44.9,554.9-78c103.6-21.6,421-97.7,600.3-144c40.4-10.1,73.8-18.3,74.3-17.4 c2.8,2.8,9.6,634.3,6.9,637c-4.6,5.5-151.8,56.9-225.2,79.3c-221.5,67-463.6,119.7-699.4,153.2 C2929.4,11490.7,2639.5,11507.6,2380.4,11499.4z M2499.6,11365c1.4,0-4.6-6-12.8-12.8l-15.1-12.4l1.4-87.1 c0.9-47.7,2.8-83.9,4.1-80.3c1.8,3.7,16.1,42.7,32.1,86.7l28.9,79.3l-14.7,12.4c-8.3,6.4-14.7,13.8-14.7,15.6 c0,4.6,91.3,3.2,94-1.4c1.4-2.3-5-10.1-13.8-17.4c-14.2-11.5-20.6-24.3-44-86.2l-27.5-72.9l20.6-75.7c11-41.7,22.9-86.7,25.7-100.4 c4.1-16.5,11-30.7,22-42.2l15.6-17.9h-46.3h-46.8l11.5,15.1c6.9,8.7,11.9,17.4,11.9,19.7c0,9.2-34.4,130.2-36.7,130.2 c-1.8,0-7.8-15.1-13.8-33.9c-8.3-27.5-10.1-40.4-8.3-69.7c2.3-32.1,3.7-36.7,15.1-46.8c9.2-7.8,11.5-11.9,7.3-14.7 c-7.3-4.1-78.4-6.4-78.4-1.8c0,1.4,6,9.6,12.8,17.9l13.3,14.7l-1.8,93.6c-0.9,51.4-2.8,131.6-4.1,177.5l-2.8,84.4l-13.8,11.9 l-13.8,12.4l38.1,2.3C2479,11366.8,2490.9,11366.8,2499.6,11365z M2693.6,11341.2c-0.5-13.3-3.7-101.4-6.4-195.8 c-5-170.1-5-171.1,4.6-181.1c5.5-5.5,9.6-11.5,9.6-13.3c0-1.8-15.6-3.2-34.4-3.2s-34.4,1.4-34.4,3.2c0,1.8,4.1,7.3,8.7,12.4 c8.7,9.2,9.6,21.6,14.2,195.4l5,185.7l-12.8,10.1l-12.8,10.5h30.3h30.3L2693.6,11341.2z M1903.5,11322.8c0-3.2,3.2-27.5,6.9-54.1 c3.7-26.6,6.9-49.5,6.9-51.4c0-1.8,8.7,0.9,19.7,5.5c46.3,21.6,61.5,8.7,77-66c11-50.9,17-195.4,9.2-215.1 c-6.9-17.4-24.8-23.4-52.7-17.9c-18.3,3.7-25.2,3.2-33.5-2.3c-6-4.1-11.9-6.4-12.8-5c-1.4,1.4-6.4,35.3-11.9,75.2 c-39.4,310.5-41.7,322.9-60.1,322.9c-1.8,0-3.7,1.8-3.7,4.1c0,2.8,8.7,5.5,19.7,6.4c10.5,0.9,22.9,1.8,27.5,2.3 C1899.8,11327.9,1903.5,11325.6,1903.5,11322.8z M2970.2,11277.4c-2.8-34.9-2.3-37.1,6.4-39.4c11.5-3.2,11.5-3.2-1.4-16.1 c-9.6-10.1-11-18.3-21.1-136.2c-9.6-115.6-10.1-126.1-3.2-132.5c6-6.4,9.2-6.4,16.5-1.8c12.4,7.8,16.1,6.9,8.7-1.8 c-16.5-20.2-55.5-16.5-61,5.5c-1.8,6.4,1.4,68.3,6.9,137.6l10.1,126.1l-10.1,10.5c-10.1,10.5-10.1,10.5-0.9,13.3 c11.5,2.8,28,29.4,28,45.4c0,18.3,4.6,26.6,15.1,26.6C2972.9,11314.6,2973.4,11312.7,2970.2,11277.4z M1362.3,11292.1 c-91.7-33.9-319.2-125.7-323.8-130.2c-3.2-2.8-13.8-101.8-20.6-185.3c-3.2-41.3-6.4-73.8-7.3-73.4c-0.5,0.9-3.2,61.5-5.5,134.4 c-3.2,99.5-2.8,133.9,0.9,137.6c16.1,15.6,164.6,68.3,307.7,109.6C1393,11307.7,1411.8,11310.4,1362.3,11292.1z M3380.2,11298 c16.1-3.2,16.1-3.7,6.9-59.2c-4.1-22.5-7.8-44-8.3-47.2c-0.5-4.6,7.8-6.4,32.6-6.9c29.4-0.9,34.9-2.3,42.7-11.9 c4.6-6,8.7-16.5,8.7-23.8s-9.2-63.7-20.6-125.2c-11.5-61.9-20.6-117.4-20.6-122.9c0-6,3.2-15.6,7.3-21.1c4.1-6,6.4-11.5,5.5-12.4 c-2.3-2.3-68.3,10.5-72,14.2c-1.4,1.4,0.5,4.1,4.1,6.4c20.6,11.9,22,16.1,43.1,137.6c11.5,67,21.1,125.2,21.1,129.3 c0,4.6-5,11.5-11,15.1c-12.8,8.7-30.7,2.8-41.7-14.2c-6.4-10.1-43.6-211-43.6-237.1c0-6.9,3.2-17.9,7.3-23.8 c6.9-10.5,6.9-11.5-0.9-11.5c-4.1,0-21.1,2.3-37.6,5l-29.8,5.5l13.8,12.4c11,10.5,14.7,18.8,18.8,44c2.8,17.4,15.6,98.1,28.4,179.3 l23.8,147.7l-10.1,14.2l-10.5,14.7l14.7-2.8C3360,11302.2,3372.8,11299.4,3380.2,11298z M1717.7,11290.7c0.9-6,5.5-30.3,9.6-54.1 c3.7-23.8,7.8-44,8.3-44.5c0.5-0.9,11.5,3.2,24.3,8.7c29.4,12.4,42.7,9.2,55-13.3c19.7-35.3,38.1-143.1,38.1-224.3 c0-40.8-0.9-44.5-11.9-55.5c-11-11-13.8-11.5-40.4-8.7c-21.1,2.3-30.7,0.9-38.1-4.1c-7.8-5.5-10.1-5.5-11.9-0.5 c-1.4,3.2-16.5,90.3-33.5,193.1l-31.2,187.1l-13.8,8.3l-13.3,8.3l11,2.3c25.7,5.5,29.8,6.4,37.1,6.9 C1712.2,11300.8,1716.3,11296.7,1717.7,11290.7z M2837.2,11248.1c21.6-13.8,22.5-26.1,13.8-159.6c-8.3-130.7-7.3-139.9,11-128 c12.4,7.8,11.5-1.4-0.9-10.1c-12.8-9.2-26.1-9.2-39-0.5c-7.3,5-12.8,6-22,2.3c-15.1-6-41.7-6-52.3,0c-17.9,9.2-25.2,50-18.8,105.5 c5,45.9,15.6,63.7,53.2,92.6c42.2,32.1,43.1,33.5,43.1,58.7c0,19.3-1.8,23.8-11.5,30.3c-14.2,9.6-43.6,6-62.4-7.8 c-7.3-5-13.3-7.3-13.3-4.6c0,6.9,26.6,24.3,43.1,28C2798.6,11259.5,2824.3,11255.9,2837.2,11248.1z M2299.7,11202.7 c2.8-44.9,1.4-65.1-3.2-48.2c-20.2,72.5-29.8,88.5-50,85.8c-9.2-1.4-10.5-4.1-11.9-24.8c-1.4-25.7,8.3-53.7,30.7-85.8 c32.6-48.2,55-114.7,49.1-146.8c-5.5-28.4-32.1-42.7-66-34.9c-10.5,2.3-18.8,1.8-22.5-1.4c-3.7-2.8-6.9-4.1-7.8-3.2 c-0.9,0.9-2.8,24.8-4.6,52.3l-2.8,50.4l8.3-27.5c10.5-33.9,16.5-45.9,29.4-54.6c12.8-9.2,19.7-9.2,28.4,0 c14.7,14.7,2.8,64.7-24.3,104.6c-37.6,54.1-59.6,122.9-50.4,155c6.9,25.2,19.7,31.2,59.6,29.8l34.9-0.9L2299.7,11202.7z M2156.1,11238c-8.3-11.5-9.6-25.7-14.2-143.5c-7.3-199-8.3-205.9-21.1-218.3c-18.8-19.3-46.8-11-55.9,16.5 c-6.4,17.9-0.5,17.9,9.6,0c9.2-15.1,21.6-17.9,30.7-6.9c8.7,10.5,3.7,44.9-22.5,159.1c-36.2,156.4-41.3,173.8-52.3,182.5 c-5.5,4.6-9.2,9.2-7.8,10.5c1.4,1.4,17.4,3.7,35.8,5.5l33.9,3.2l-7.3-13.8c-6.4-12.4-6-18.8,10.1-94.5c9.6-44.5,18.8-79.8,20.6-78 c1.8,1.8,3.2,39.9,3.2,84.4c0,75.7-0.5,81.6-9.2,89.4c-12.8,11.5-5,16.1,28.9,16.1h26.6L2156.1,11238z M3097.7,11229.7 c10.1-3.7,20.2-5,22.5-3.7c4.6,2.8,0.9-52.7-5.5-88.1l-3.7-18.3l-3.2,22.9c-8.3,58.7-17.9,80.3-35.3,80.3 c-22.5,0-23.4-55.9-2.3-105.5c21.6-50.4,30.3-86.2,30.3-126.6c0-30.7-1.8-39.4-9.2-49.1c-12.8-16.1-36.2-20.2-61.5-10.5 c-11,4.1-23.4,6.4-27.5,4.6c-6.4-2.8-7.3,0-5,21.6c7.3,66.5,10.5,83.9,11,67.4c1.4-45.9,18.8-86.2,36.7-86.2 c29.8,0,30.7,49.5,1.8,121.5c-28.9,71.1-35.3,115.1-22.5,146.3C3036.2,11235.2,3060.5,11243,3097.7,11229.7z M1415.5,11208.6 c9.2-8.7,20.2-22.9,24.8-31.6c21.1-41.7,51.4-170.1,57.8-245.8c3.2-42.2-2.8-71.1-18.3-86.7c-10.1-10.1-47.7-23.8-93.6-33.9 l-20.2-4.1l10.1,11l10.5,10.5l-42.2,171.1c-53.7,216-48.2,199-66,203.2c-13.3,3.2-11.5,4.1,26.6,14.2c26.6,6.9,50.9,10.5,67.9,9.6 C1395.8,11224.7,1401.3,11222.4,1415.5,11208.6z M3262.3,11199.9c8.3-9.2,12.4-18.8,12.4-28.9l-0.5-14.7l-9.2,17 c-10.5,20.6-28,33-40.4,28.9c-17-5-30.7-60.1-42.2-166.9c-6-60.1-4.1-99.1,6.4-109.1c9.2-9.2,26.1-5,40.4,10.1 c14.7,15.1,20.2,14.7,10.5-1.8c-17.4-29.8-53.2-35.3-75.7-11.5c-10.5,11.5-11,13.8-11,85.8c0.5,110.1,19.3,184.4,51.8,202.7 C3223.3,11221.5,3246.7,11216.9,3262.3,11199.9z M1612.7,11156.3c17.9-19.3,30.3-54.6,43.1-127.5c16.1-89,11-145.8-13.3-159.1 c-11.5-6-39.9-6-50.9,0c-19.7,10.5-42.2,68.8-59.6,154.5c-17.4,88.1-10.1,133,23.8,143.1 C1585.2,11175.6,1596.6,11173.3,1612.7,11156.3z M3593.4,11152.2c22.9-9.6,30.7-24.8,30.3-58.7c0-26.6-10.5-83.9-16.1-89.4 c-0.9-1.4-17.9,0.9-37.1,5c-54.1,11-50.4,13.3-59.2-33.5c-4.1-22.5-7.3-51.4-7.3-64.7c0-20.2,1.8-25.7,13.3-37.1 c17.4-17,34.9-17.4,51.8-0.9c17,16.5,16.5,4.6-0.5-12.8c-16.1-15.6-31.2-17-58.2-4.6c-35.3,16.1-42.2,58.2-24.8,154.5 C3507.7,11132.9,3539.3,11174.7,3593.4,11152.2z M3725.5,11123.8c4.1-1.4,7.8-5,7.8-7.8c0-3.7,7.3-5,22-4.1 c28.9,2.3,40.4-10.1,38.1-39.9c0-3.7-5,0.5-10.5,8.7c-18.8,27.1-40.8,25.7-55.9-3.7c-3.2-6.9-18.3-62.4-33-123.8 c-25.7-108.2-26.1-111.4-18.8-124.3c4.1-7.3,7.8-14.2,7.8-15.6c0-2.3-11.5,0-51.8,10.5l-22,6l14.2,11.9 c12.4,11,15.6,19.7,33.9,96.8c42.2,177.5,42.7,177.9,32.1,186.2c-8.3,6.4-7.8,6.9,9.6,4.1 C3709,11127.4,3720.9,11125.2,3725.5,11123.8z M4075.4,10800c-1.8-48.6-4.1-102.3-5.5-118.8l-2.8-29.8l-67.4,14.7 c-36.7,7.8-101.8,22-144.9,31.2c-42.7,9.6-78.9,18.3-80.3,19.3c-1.4,1.4,5,1.4,13.8,0c8.7-1.4,39-3.7,66.5-5c28-1.8,78-6,111.9-9.6 c33.9-3.7,61.9-6,62.4-5.5c0.5,0.9,9.6,41.7,20.2,90.8c21.1,98.6,22,100.9,26.1,100.9C4077.2,10888.1,4077.2,10848.2,4075.4,10800z "/><path d="M1938.8,11209.1c-6.4-5-12.8-15.1-14.2-22c-1.4-6.9,3.2-60.5,10.5-119.7c14.7-115.6,19.3-129.8,43.1-132.5 c19.3-2.3,23.4,11.5,20.2,69.7c-6,98.6-21.1,191.2-33.9,205.5C1955.3,11220.5,1953,11220.1,1938.8,11209.1z"/><path d="M1752.1,11180.6c-12.8-13.8-11.9-33.5,6.9-147.2c17-101.4,23.4-118.8,43.1-121.5c25.2-3.7,28.4,17.9,16.1,114.7 c-9.6,76.1-22.5,139.4-31.6,153.2C1777.8,11193.5,1764.5,11193.9,1752.1,11180.6z"/><path d="M2800.9,11141.2c-9.6-6.9-22-22.5-28.4-35.8c-10.1-20.2-11.9-29.8-12.4-73.4c-0.9-56,3.7-70.6,21.6-70.6 c17,0,28.4,16.1,31.6,42.6c3.2,33,8.7,150,6.9,150C2819.3,11153.6,2810.6,11148.1,2800.9,11141.2z"/><path d="M1338.5,11210.5c-11-2.8-11-5,9.6-87.6c9.6-39.4,29.4-121.1,44-180.7c14.2-60.1,26.6-109.1,27.1-109.1 c10.1,0,31.6,12.8,38.1,22c18.3,28,2.3,164.2-31.2,264.6C1400.8,11195.3,1376.1,11220.5,1338.5,11210.5z"/><path d="M1561.3,11152.2c-7.3-5.5-8.7-11.9-8.3-38.1c1.4-52.3,32.1-194.4,47.7-220.6c11.9-19.3,30.3-20.6,34.9-2.8 c5,19.7-1.8,82.1-16.5,154.1c-15.1,75.2-24.8,102.7-37.1,109.1C1571.4,11160,1571.9,11160,1561.3,11152.2z"/><path d="M3550.3,11132.9c-5-6.4-11.5-23.4-14.2-37.6c-3.2-14.2-6.9-33.9-9.2-43.6c-2.8-12.4-2.3-18.3,1.4-19.3 c16.1-6,47.2-10.5,49.5-7.8c5.5,6,17.9,64.7,17.9,83.5C3595.7,11141.2,3568.6,11156.3,3550.3,11132.9z"/><path d="M4159.8,10732.6c0-162.8-0.9-193.1-6.4-193.1c-3.7,0-34.9,8.3-70.2,17.9c-93.6,26.6-197.7,53.7-307.3,80.7l-97.7,23.8 v-127.5V10407l19.7-5c48.6-12.4,215.5-62.4,296.7-89c340.3-111,654-250.4,857.1-380.6c18.3-11.9,34.4-20.6,35.8-19.3 c2.3,2.3-12.8,30.3-94.9,174.7c-126.1,222.4-173.4,307.3-172,308.6c0.9,1.4,68.3,35.3,149,76.6c81.2,40.8,147.7,76.1,148.1,78.4 s-18.8,17-42.7,33c-166,111-417.3,233.9-644.3,315.1c-30.3,11-58.7,21.1-62.8,22.9C4160.2,10925.7,4159.8,10914.7,4159.8,10732.6z" /><path d="M837.2,10885.8c-154.1-58.2-269.7-110.5-403.6-180.7c-118.3-62.4-255-149-246.7-156.4c1.8-1.8,47.2-25.2,100-51.8 c53.2-26.6,119.2-60.5,147.7-75.2l51.4-27.1l-19.7-33.9c-11-18.8-47.2-83-80.7-142.2s-69.7-123.4-80.3-142.2 c-10.5-18.8-30.3-54.1-43.6-78c-13.8-23.8-30.3-53.7-37.6-66c-7.3-11.9-12.8-22.9-11.9-23.8s12.4,5.5,25.7,14.7 c119.2,80.3,361.8,199.5,578.8,284.8c172.4,67.9,442.1,156.4,590.7,194l19.3,5v132.5c0,112.8-0.9,133-6.4,133 c-21.6,0-471-113.3-485.2-122.4c-2.3-0.9-3.7,80.7-3.7,181.6s-1.4,184.4-3.2,185.3C925.7,10918.3,885.3,10904.1,837.2,10885.8z"/><path d="M2451.5,10806.9c-143.1-3.2-388.9-22-504.5-38.5c-37.6-5.5-69.7-10.5-70.6-11.5c-2.3-2.3-6,0.5,45.4-37.1 c170.6-125.2,378.3-243.1,548-310.9c70.2-28.4,97.2-28.4,166.5-1.8c139.4,54.1,347.2,168.8,493.9,271.5 c58.2,41.3,99.5,72.5,97.7,74.3c-0.9,0.9-37.1,6.9-81.2,13.8C2970.2,10792.7,2645.5,10811.5,2451.5,10806.9z M2472.1,10656.5 c6.9-8.7,2.3-22.9-11.9-33.9c-15.1-11.9-14.2-16.5,2.8-15.1c7.8,0.9,13.8-0.5,13.8-3.2c0-3.2-10.1-5-23.8-5l-24.3,0.5l19.7,18.3 c19.3,18.3,24.8,34.4,12.8,39c-3.7,1.4-11.5,0-17.4-3.2c-9.6-5-10.1-5-4.1,1.8C2447.4,10665.2,2464.3,10665.6,2472.1,10656.5z M2538.2,10656c9.6-9.2,9.2-38.1-0.5-48.6c-23.8-26.6-61,13.8-40.8,44.5C2505.6,10665.2,2527.2,10667.5,2538.2,10656z M2576.7,10630.3l-0.9-33.5l-1.4,31.2c-1.4,25.2-3.2,31.2-8.3,28.9c-3.7-1.4-6.9-0.5-6.9,1.8c0,2.8,4.1,4.6,9.2,4.6 C2576.7,10663.3,2577.6,10660.6,2576.7,10630.3z M2639.5,10658.8c1.8-3.2-0.9-4.1-8.7-1.8c-7.3,1.8-14.7,0.5-18.8-2.8 c-9.2-7.3-9.2-18.8,0-15.6c11.5,4.6,28.9-2.3,32.1-12.4c3.7-11.5-8.7-27.1-22-27.1c-23.4,0-35.8,37.1-18.3,56 C2611.5,10663.8,2634.9,10666.5,2639.5,10658.8z M2384.1,10628c-4.6-0.9-11.9-0.9-16.1,0c-4.6,1.4-0.9,2.3,7.8,2.3 C2384.5,10630.3,2388.2,10629.4,2384.1,10628z M2709.7,10628c-4.6-0.9-11.9-0.9-16.1,0c-4.6,1.4-0.9,2.3,7.8,2.3 C2710.1,10630.3,2713.8,10629.4,2709.7,10628z"/><path d="M2507.9,10653.7c-9.6-5.5-11-31.6-2.8-39.9s25.7-6.4,31.2,3.2c6.9,13.3,5.5,25.7-3.7,33.9 C2523,10659.7,2518.9,10660.1,2507.9,10653.7z"/><path d="M2607,10624.4c-4.1-10.1,4.1-17,17-15.1c7.3,0.9,11,4.6,11,10.5C2634.9,10631.7,2611.1,10635.8,2607,10624.4z"/></g></svg> 