<svg version="1.1" xmlns="http://www.w3.org/2000/svg" xmlns:xlink="http://www.w3.org/1999/xlink" x="0px" y="0px"
	 viewBox="0 0 512 512" style="enable-background:new 0 0 512 512;" xml:space="preserve">
<g id="Ebene_2">
	<path fill="#FDFDFD" d="M1187.1,222.8c0-14.1,0-28.2,0-42.3c0-1.6-0.2-3-1-4.3c-5-7.4-9.6-15.2-15.3-22c-6.5-7.8-12.8-15.9-20.3-22.8
		c-7.8-7.2-14.7-15.2-22.6-22.3c-4.1-3.6-8.1-7.4-12.3-10.8c-6.5-5.2-13.1-10.4-19.9-15.2c-8.8-6.3-17.8-12.3-27-18.1
		c-9.8-6.2-20-11.8-30.2-17.2c-7.1-3.7-14.6-6.6-22-9.8c-5.6-2.4-11.3-4.8-17.1-6.8c-11-3.7-22.1-7.2-33.5-9.7
		c-5.2-1.1-10.5-3.2-15.8-2.8c-6.5,0.4-13,1.6-19.3,3.3c-8.9,2.3-17.9,4.7-26.7,7.3c-16.1,4.8-31.5,11.3-46.7,18.2
		c-13.1,5.9-25.8,12.7-38.2,20c-11.6,6.9-22.7,14.6-33.9,22c-12.6,8.3-23.8,18.4-35,28.6c-11.5,10.5-22,22-31.9,34.1
		c-2.5,3-5.8,5.8-6,10c-0.3,4.9-0.6,9.8-1.2,14.7c-1.1,9.8,0.2,19.7-1.4,29.6c-0.9,5.3-0.5,10.8-0.4,16.1
		c0.6,17.7-0.7,35.4,1.1,53.1c1.3,12,1,24.1,3,36.1c1.3,8,3.1,15.9,5,23.8c2.6,11.1,5.5,22.1,9.8,32.8c5.2,12.9,11.3,25.3,18.9,36.9
		c9.7,14.9,20.9,28.7,34.7,40.2c10.4,8.7,21.2,16.9,32.5,24.5c10.3,6.9,20.7,13.5,31.9,18.8c10.1,4.8,20.8,8.2,31.6,11.1
		c6.5,1.7,13.3,2,19.8,3.4c6.5,1.4,13,1.9,19.4,2.1c23.4,0.8,46.8,0.7,70.1-2.5c14-2,27.6-5.3,41.1-9.4
		c14.1-4.3,27.3-10.4,40.1-17.5c13.2-7.3,25.2-16.4,36.3-26.5c4.7-4.3,9.1-8.9,13.2-13.9c5.5-6.7,11.2-13.3,16.2-20.5
		c8.1-11.5,15.3-23.5,22.2-35.6c4-7,7.1-14.6,10-22.1c5.2-13.5,9.8-27.2,12.9-41.4c3.2-15.1,6.1-30.3,7.3-45.7
		C1187.9,254.4,1187.7,238.6,1187.1,222.8z M928.9,346.4c-0.1,0.5-0.4,0.9-1.4,0.8C928.5,347.3,928.8,346.9,928.9,346.4z"/>
</g>
<g id="Ebene_1">
	<path d="M504.5,214.5c0-14.7,0-29.4,0-44c0-1.6-0.2-3.1-1.1-4.4c-5.2-7.7-10-15.8-15.9-22.9c-6.8-8.1-13.3-16.5-21.1-23.8
		c-8.1-7.5-15.3-15.8-23.6-23.2c-4.2-3.8-8.4-7.7-12.8-11.2c-6.8-5.4-13.6-10.8-20.7-15.9c-9.2-6.6-18.6-12.8-28.1-18.9
		c-10.2-6.5-20.8-12.3-31.4-17.9c-7.4-3.9-15.2-6.9-22.9-10.2c-5.8-2.5-11.7-5-17.8-7c-11.5-3.9-23-7.5-34.9-10.1
		c-5.5-1.2-10.9-3.3-16.4-3c-6.7,0.4-13.5,1.7-20.1,3.4c-9.3,2.4-18.6,4.9-27.8,7.6c-16.7,5-32.7,11.8-48.6,18.9
		c-13.6,6.1-26.8,13.2-39.8,20.8C109.6,60,98.1,68.1,86.4,75.8C73.3,84.4,61.6,95,50,105.5c-12,10.9-22.9,22.9-33.2,35.5
		c-2.6,3.1-6,6.1-6.3,10.4c-0.3,5.1-0.7,10.2-1.3,15.3c-1.2,10.2,0.2,20.5-1.5,30.8c-0.9,5.5-0.5,11.2-0.4,16.8
		c0.6,18.4-0.8,36.8,1.2,55.3c1.3,12.5,1,25.1,3.1,37.6c1.4,8.3,3.3,16.6,5.2,24.8c2.7,11.5,5.7,23,10.2,34.1
		c5.4,13.5,11.8,26.4,19.7,38.4c10.1,15.5,21.7,29.9,36.1,41.9c10.9,9.1,22.1,17.5,33.8,25.5c10.7,7.2,21.6,14,33.2,19.5
		c10.6,5,21.6,8.6,32.9,11.5c6.8,1.8,13.8,2.1,20.6,3.5c6.7,1.4,13.6,1.9,20.2,2.2c24.3,0.9,48.7,0.7,72.9-2.7
		c14.6-2,28.7-5.5,42.7-9.8c14.7-4.5,28.4-10.9,41.8-18.2c13.8-7.6,26.2-17.1,37.8-27.6c4.9-4.4,9.5-9.3,13.7-14.5
		c5.7-7,11.6-13.9,16.8-21.3c8.4-11.9,16-24.4,23.1-37.1c4.1-7.3,7.4-15.1,10.5-23c5.5-14,10.2-28.3,13.4-43
		c3.4-15.7,6.4-31.5,7.6-47.5C505.3,247.4,505.2,230.9,504.5,214.5z M497.4,245.9c-1.1,34.5-6.7,68.2-19.4,100.4
		c-14.5,36.6-34.9,69.7-63.6,97c-26.7,25.5-58.7,41.4-94.5,50c-20.9,5-42.1,7.3-63.6,7.7c-19.2,0.3-38.3-0.2-57.3-3.2
		c-26.8-4.2-51.1-14.5-73.6-29.5c-14.4-9.6-28.4-19.6-41.1-31.4c-24.2-22.5-41.7-49.3-52.9-80.3c-8.3-23.1-12.8-47-15.1-71.4
		c-1.8-18.9-2.4-37.8-2.3-56.7c0.3-24.2,1.3-48.4,3-72.5c0.1-1.9,0.8-3.4,1.8-4.9c14.7-20.3,32.4-37.8,51.7-53.6
		c34.1-28,71.7-50.1,112.6-66.7c23.9-9.7,48.5-17.1,74.2-20.6c3.5-0.5,6.9,0.7,10.2,1.4c33.8,7,65.5,19.8,95.5,36.7
		c34.8,19.6,66.2,43.6,94.1,72.2c14.5,14.9,27.7,30.8,38.7,48.5c0.7,1.2,1.2,2.3,1.2,3.7C497.4,197,498.2,221.4,497.4,245.9z"/>
	<path d="M483,171.6c-12-19.7-26.9-37.2-43.2-53.5c-19.2-19.1-40.2-36.1-62.9-50.9c-33.8-22.1-70-38.9-109.7-47.3
		c-3.3-0.7-6.7-1.9-10.2-1.4c-18.8,2.6-37,7.6-54.9,14c-36.2,13.1-69.8,31.3-100.9,54c-26.3,19.1-50.2,40.9-69.4,67.4
		c-1.4,2-2.2,4-2.4,6.5c-1.4,26.1-2.7,52.1-2.5,78.2c0.2,27.7,2,55.3,7.6,82.5c6.9,33.3,19.7,63.8,41.2,90.5
		c17.6,21.8,39.6,38.5,63,53.5c20.5,13.2,42.9,21.5,67.1,25c15.3,2.2,30.8,2.9,46.3,2.6c30.5-0.4,60.5-4.3,89.2-15.2
		c29.9-11.3,55.8-28.6,76.5-53c44.7-52.5,65.7-113.9,66.9-182.5c0.4-22.1-0.1-44.1-0.5-66.2C484.2,174.1,483.8,172.9,483,171.6z
		 M32.8,235.5c-0.3,0.3-0.6,0.5-1.1,0.9c0-8.7-0.3-17.2,0.1-25.6c0.6-16,1.6-32,2.3-48c0.1-2.2,0.8-3.8,2-5.5
		c14.7-20.4,32.5-37.9,52.1-53.6c33-26.5,69.2-47.4,108.7-62.6c19.3-7.4,39-13,59.5-16c1.5-0.2,2.8-0.2,4.3,0.1
		c12.6,2.3,24.9,5.4,37.2,9.7c-2.4,2-5.2,3.1-7.7,4.4C272,48.7,254,58.4,236.2,68.6c-2.3,1.3-3.2,1.6-3.1-1.6
		c0.3-5.6,0.1-11.2,0.3-16.8c0.1-2.1,0.3-4.3,3.3-4.6c2.3-0.2,1.1-2.3,1.3-3.5c0.2-1.6-1-1.2-2-1.2c-7.5,0-15,0-22.5-0.1
		c-1,0-2-0.3-1.8,1.1c0.2,1.3-1.2,3.4,1.1,3.6c3.3,0.4,3.4,2.5,3.7,5c0.8,9.6,0.3,19.3,0.6,29.4c5.4-3.2,10.5-6.2,15.6-9.2
		c0.8,1.3,0.5,2.4,0.5,3.5c0.1,9.4,0.1,18.8,0.3,28.3c0,2.5,0.1,5,3.6,5.4c2.1,0.3,1,2.1,1.2,3.3c0.2,1.6-1.1,1.3-2.1,1.3
		c-7.4,0-14.8,0-22.2,0c-1.1,0-2.4,0.3-2.2-1.6c0.2-1.3-0.8-3,1.7-3.2c1.7-0.1,2.8-1,3-3c0.8-8,0.7-16.1,0.6-24.6
		c-11.4,6.8-22.1,14-33.2,21.5c7,1.9,11.5,6.2,12.7,13.1c2.9,15.8-5.3,32-24.8,33.6c-7.5,0.6-14.6-1.2-21.4-4.4
		c-1.4-0.7-2.3-1.5-1.8-3.4c0.8-2.9,1.1-5.9,1-9c-0.1-1.5,0.5-2.3,2.1-2.3c1.6,0,2.2,0.6,2.3,2.2c0.2,2.8,2,4.8,4,6.3
		c4.4,3.2,9.4,4.7,14.9,4c11.3-1.4,14.1-15.6,10.3-21.6c-2.9-4.7-7.9-5-12.5-6.1c-0.7-0.2-1.6,0.1-2.5-1c5-3.6,10-7.2,15.5-11.2
		c-5.4-1.2-10.1-2.3-14.8-3.4c-4.6-1.1-7.5-3.9-8.2-8.6c-0.8-6.1,1.4-11.1,5.9-13.6c5.4-3,10.8-2.2,16.1,0.4
		c1.3,0.6,2.5,1.4,3.4,2.6c1.4,1.9,3.5,1.4,5.2,1.2c1.5-0.2,0.8-2,1-3.2c0.6-6,0.6-6.1-5.4-7.8c-7.1-2-14.4-2.4-21.5-0.4
		c-15.8,4.3-22.5,27-11.5,38.5c2.7,2.8,6.2,3.8,9.7,4.9c1,0.3,2.1,0.6,3.7,1c-13.6,10.1-26.5,20.3-39.2,31
		c-3.8-7.4-8.9-13.2-16.5-16.2c-17.6-6.9-38.8-2.3-47.6,21.3c-6,16.2-5.1,32.5,1.5,48.5c1,2.3,1.7,2.6,3.6,0.7
		c3.7-3.9,7.6-7.5,11.6-11.3c1,2.2,1.8,4,2.8,5.7c5.5,9.4,18.5,10.3,25.3,1.7c2.9-3.7,4.5-8,5.3-12.5c1.4-8.2,1.5-16.4-0.6-25
		c-11.2,9.6-21.7,19.6-32.7,29.9c-2.4-12.2-3-23.5,1.9-34.5c3.2-7,8.8-10.5,15.5-10.1c7.5,0.5,12,4.9,14.3,11.7
		c0.3,0.7,0.5,1.5,1,2.7c5-4.3,9.8-8.3,14.7-12.5c5,10.7,6.1,21.8,5.2,33.3c-0.7,9.1-2.9,17.9-8.2,25.6c-7,10.2-16.8,14.6-29,14.4
		c-11.9-0.2-21.5-4.8-27.9-15.1c-1.4-2.2-2.2-1.2-3.4,0C54.1,213.8,43.4,224.6,32.8,235.5z M476.9,283.3
		c-5.5,38.1-18.2,73.5-39.1,105.9c-11,17.1-23.1,33.3-38.4,46.9c-21.2,19-45.5,32.3-72.8,40.5c-21.5,6.4-43.5,9.4-65.9,10.2
		c-19.5,0.6-38.9,0.2-58.3-3c-23.7-3.9-45.3-12.9-65.3-26.1c-15.1-10-29.7-20.5-42.7-33.1c-15.4-15-27.9-32-37.6-51.2
		c-0.7-1.4-0.9-2.6-0.1-4.1c21.8-43,43.8-86,70.5-126.3c28.7-43.4,63.4-81.4,103.5-114.5c33.4-27.6,69.1-51.9,105.7-75
		c1.9-1.2,3.4-0.9,5.2,0c25.7,13.2,49.5,29.3,71.6,47.9c20.6,17.3,39.3,36.3,55.2,58.1c11.4,15.6,11.3,15.7,11.5,34.9
		c0.1,8.4,0,16.8,0,25.2C480.5,240.9,479.9,262.2,476.9,283.3z"/>
	<path d="M419.9,398.1c-12.1-8.7-18.2-20.9-20.7-35.2c-2.8-16.8-1-33.5,2-50.1c3.1-17.4,6.7-34.7,9.8-52.2
		c1.9-10.7,3.3-21.6,0.8-32.4c-9.7-42.6-35.5-70.2-77.7-81.9c-30.5-8.5-61.1-7.7-91.7-0.3c-6.8,1.6-13.4,3.7-19.4,7.3
		c-4.3,2.6-4.3,3.2-0.6,6.4c4.4,3.8,8.9,7.5,13.2,11.4c3.5,3.1,6.9,6.4,9.4,10.5c1.6,2.6,1.6,4.8-0.9,6.8c-4.1,3.3-8.2,6.6-12.3,9.9
		c-5,4-9.6,8.4-13.5,13.5c-0.8,1.1-1.5,2-0.3,3.5c2.8,3.7,7,6.1,8.7,11.1c1.4,4.2,3.4,7.8,2.1,12.4c-0.6,2.2-1,5,0,7.3
		c1.6,3.7,2.2,7.1,1.3,11.4c-1.2,5.8-1.5,11.7-4,17.2c-1,2.2-1.1,4.2,0.1,6.4c1.4,2.4,1.9,5,0.2,7.6c-4.4,7.2-7.4,15-10.5,22.8
		c-0.7,1.8-1.1,3.6-1.1,5.6c0,5.4,1.5,7,7,7c2.9,0,6.1-0.7,5.2,4.1c-0.1,0.3,0.2,0.7,0.3,0.9c2.5,3.8,0.5,8.4,2,12.5
		c0.6,1.5,0.3,3.5,1.7,4.8c3.6,3.2,4.9,7.4,4.8,12.1c0,3.1-0.1,6.3,0,9.4c0.1,4.4,2,6.5,6.3,7.3c2.6,0.4,5.3,0.6,8,0.8
		c3.1,0.2,6.2,0.7,9.2,1.6c3.1,1,6.2,5.4,6.2,8.4c0,5.5,0,11,0,16.5c0,0.9,0,1.7-0.5,2.6c-4.5,8-6.1,17-8.3,25.8
		c-0.5,2,0.3,3.1,2.2,3.8c2.9,1.1,5.8,2.3,8.8,3.3c8.8,2.9,17.6,5.9,26.9,7c4.4,0.5,6-0.9,7.1-5.2c0.4-1.7,0.7-3.3,0.3-5
		c-1.7-6.3-1-12.2,2.6-17.7c1.9-2.9,1.7-5.9-0.1-8.9c-1.2-2-2.2-4.2-3.1-6.3c-1.8-4.3-2.5-8.7-0.4-13c2.4-5,5.4-9.8,2.8-15.6
		c1.3-0.6,1.7,0.1,2.1,0.5c2.5,2.9,2.9,6.2,2,9.8c-2,7.4-3.5,14.9-0.1,22.3c1.4,3.1,1.4,6,0.3,9.1c-0.6,1.9-1.3,3.8-2.1,5.7
		c-2.4,5.6-2.4,11,0.6,16.5c0.6,1.1,1.1,1.5,2.3,1.3c1.2-0.2,1.9-0.9,1.7-2c-0.2-1.1,0.1-2.2-0.5-3.3c-2.6-4.4-2.2-9-0.5-13.6
		c2-5.2,2.3-10.5,0.2-15.8c-2-5.2-1.7-10.2-0.3-15.5c1.4-5.6,3.4-11.2,3-17.1c-0.2-0.3-0.3-0.6,0.1-0.8c0.1,0,0.3,0.3,0.4,0.4
		c5.5,2.5,6.5,4,5,8.7c-3.3,9.8-2.8,19.4,0.7,29c0.9,2.5,0.8,4.8-0.6,7.1c-3.4,5.6-3,11.3-0.8,17.1c0.6,1.6,1.4,4.2,3.1,3.6
		c1.5-0.6,0.8-3.2,0-4.8c-1.5-3-2.1-6.2-1.3-9.5c0.7-2.9,1.7-5.8,2.8-8.6c1.5-3.7,1.6-7.3,0-11c-2.8-6.5-3.3-13.2-0.9-20
		c1.2-3.6,1.6-7.2-0.7-10.6c-0.3-0.5-0.7-1-0.2-1.5c0.5-0.5,1-0.2,1.5,0c2.3,1.2,3.5,2.6,3.1,5.6c-1.1,7.9-2.3,16.1,1,23.6
		c3.4,7.8,4,15.4,1.9,23.5c-0.8,3-1,6.2,0.5,9.2c0.3,0.5,0.5,1.4,1.3,1.2c0.8-0.2,0.8-1,0.8-1.7c0-1.9-0.6-3.6-0.3-5.6
		c1.5-10,2-19.9-1.9-29.8c-3.1-7.9-2.1-16.3-1-24.6c0.3-1.9,1.8-1.8,2.9-2.3c1.5-0.6,1.5,1,1.9,1.7c2,3.7,2.2,7.8,1.3,11.8
		c-1.8,7.8-1.1,15.3,1.7,22.7c1.2,3.2,1.7,6.5,1.5,9.9c-0.2,4.5-1.2,9,0.5,13.4c0.2,0.6-0.1,1.5,0.8,1.6c0.4,0.1,1-0.3,1.4-0.7
		c1.3-1.1,2.1-2.1,1.2-4c-1.7-3.3-1.9-6.8-1-10.5c0.7-3,0.8-5.9-0.5-8.8c-2.9-6.6-3.6-13.5-2.7-20.7c0.7-5.4,2.6-10.7,1.9-16.7
		c2.9,2.4,3,5,2.6,7.8c-0.8,5.4-2.4,11-0.3,16.3c3.9,9.9,5.3,20.1,5.3,30.6c0,1-0.1,2.4,1.2,2.4c1.4,0.1,1.6-1.2,1.7-2.4
		c0.8-9.8,0.2-19.4-3.9-28.6c-1.8-4.1-2.6-8.4-2-12.8c0.6-4.7,2-9.3,1.5-14.5c2.5,1.3,3.5,2.7,3.3,5.3c-0.5,7.7-0.1,15.4,3.4,22.4
		c3.4,7,3.8,13.9,2.1,21.2c-0.4,1.9-0.7,4-0.4,6c0.2,1.4,1.2,1.5,2.2,1.4c0.7,0,1.6-0.5,1.1-1.2c-2.5-3.2-0.1-6.2,0.2-9.2
		c0.6-5.1,2.2-10.3-0.4-15.2c-5.1-9.7-4.3-20.4-5.3-31.6c1.8,3.2,1.8,6,2.2,8.7c1.1,6.3,1.3,12.9,4.7,18.4
		c3.5,5.8,3.7,11.7,2.1,17.7c-0.8,3-0.7,5.5,0.5,8.3c0.4,1,0.4,2.4,2.1,1.9c1.5-0.5,1.2-1.7,0.9-2.8c-0.9-3.3-0.8-6.6-0.1-10
		c1-5.2,0.5-10.2-1.5-15.1c-1-2.4-1.8-4.8-2.5-7.3c-1.5-5.3-2.9-10.6-2-16.2c0.2-1.2,0-3.3,1.6-3.2c1.7,0.2,0.9,2.2,0.9,3.4
		c0.6,8.6,1.1,17.3,5.5,25c2.9,5.2,3.6,10.5,2.6,16.1c-0.2,1.3-0.3,2.7-0.5,4c-0.2,1.4,0.2,2.6,1.4,3.5c0.6,0.5,0.9,1.4,1.9,0.9
		c0.7-0.3,0.6-1.1,0.6-1.8c0.2-4.1,0.4-8.3,1.4-12.3c1-4.3,0-8-2.1-11.8c-3.9-7.1-7.1-14.6-6.4-23c0.3-3.7-0.1-7.4-1.2-10.9
		c-1.9-5.9-3.9-11.7-5.8-17.5c-0.3-0.8-1.2-2,0.5-2.4c1.2-0.3,2.3-0.1,2.6,1.3c0.1,0.5,0.3,1.1,0.5,1.6c5.8,16.3,13.6,31.4,25.8,44
		c1.3,1.3,1.3,2.5,0.1,3.8c-0.8,0.8-1.6,1.6-2.4,2.3c-4.7,4.6-4.2,8.3,1.9,10.6c10.9,4,22.1,4.5,33.4,1.8c2-0.5,4.1-1.2,4.5-3.5
		C423.3,400.5,421.5,399.2,419.9,398.1z M403.5,215.6c0.6,1.1,1.1,2.3,0.4,3.1c-1,1.1-1.8-0.3-2.3-0.9c-9.2-8.7-19.7-14.3-32.8-13.4
		c-2.4,0.2-3.8-2.2-4.5-4.3c-0.4-1.2,0.4-1.9,1.7-1.9c1.9-0.1,3.8-0.2,5.2-0.2C385.4,198.2,396.3,203.4,403.5,215.6z M377,176.8
		c-0.4,1.7-1.8,2.5-3.1,3.2c-5.4,2.9-10.8,5.8-16.2,8.7c-0.9,0.5-1.8,1.3-2.7,0.2c-1-1.4,0.5-1.7,1.2-2.2c5.8-3.8,11.8-7.1,18.2-9.9
		C375.3,176.5,376.1,176.1,377,176.8z M341.2,179.7c3.6-6.6,7.6-12.9,11.9-19c1.2-1.7,2.1-0.2,3.1,0.1c1.6,0.5,0.6,1.3,0.1,2
		c-4.2,5.9-8.4,11.9-12.6,17.8c-0.4,0.5-0.9,1-1.3,1.5C341.4,181.4,340.5,181.1,341.2,179.7z M325,172.2c-0.1-1.3,0.1-2.7,0.2-4
		c0.2,0,0.4,0,0.6,0c0-5.3,0.1-10.7,0-16c0-1.9,0.4-1.9,2.3-2c4.6-0.4,4,2.1,3.6,5c-0.8,5.9-1.4,11.7-3.2,17.4
		c-0.4,1.3-0.7,2.8-2.6,2.4C324.1,174.6,325.1,173.2,325,172.2z M302.2,146.2c1.7,0.3,4.3-1.6,4.9,1.7c1.1,5.8,2,11.7,2.3,18.6
		c0,0.7-0.1,2.4-0.3,4c-0.1,0.6-0.3,1.4-1.2,1.4c-0.9,0-1.1-0.7-1.1-1.4c-1.2-7.6-3.2-15.1-5.4-22.4
		C301.1,147.3,300.8,146,302.2,146.2z M270.4,145.8c0.9,0,1.8-0.1,3.3-0.2c2.7-1,3.9,0.8,4.8,3.7c2.2,7.1,4.8,14.2,7.1,21.3
		c0.3,0.9,1.7,2.5-0.5,2.9c-1.3,0.2-2.9,0.9-3.6-1.6c-1.8-6-5.8-11-9-16.4c-1.3-2.1-2.4-4.3-3.8-6.3
		C267.3,146.9,267.9,145.9,270.4,145.8z M238.9,154.8c-0.2-0.2-0.3-0.6-0.5-1c3.3-1.6,6.8-2.2,10.2-3.3c1.1-0.3,1.6,0.2,2.2,1
		c5.2,7.4,9.9,15.2,15.6,22.2c0.4,0.5,0.6,0.8,0.2,1.4c-1.6,2-4.7,2.1-6.5,0.2C253.3,168.2,246.8,160.7,238.9,154.8z M227.5,215.6
		c-3.5-1.9-3.7-3.2-0.7-6c16.3-15.3,34.8-26.6,57.2-30.6c5.4-1,10.9-1.4,16.4-1.4c19.6,0.4,37.6,5.6,53.7,17.3
		c9.9,7.2,11.7,17.2,11.5,28.2c-0.1,4.4-3,7.9-6.1,10.9c-12.1,11.9-24.2,23.9-35.7,36.5c-6.4,7-4.3,18.1,3.2,23.8
		c6.9,5.2,17.9,3.4,23-3.9c4.7-6.8,1-16.6-7-18.6c-1.6-0.4-5.2,1.9-5.7,3.9c-0.6,2.3,1.5,3.2,2.9,3.9c2.4,1.1,4.3,2.3,4.6,5.2
		c0.5,5.4-3.7,9.1-9.2,7.9c-7.1-1.5-11.9-10.8-9.1-17.5c2.4-5.8,9.8-11,14.9-10.3c9.9,1.4,14.4,5.2,16,13.7
		c1.7,8.8-2.8,18.8-14.7,21c-10.6,1.9-19-2.2-25.3-10.4c-2.4-3.1-2.6-7.7-1.5-11.6c0.7-2.3,0-3.3-1.6-4.7
		c-11.8-9.7-24.4-18.2-37-26.7C261.1,235.3,244.6,224.9,227.5,215.6z M300.8,331c-2.4,0.1-6.3-2.7-6.4-4.6c-0.1-1.7,3.2-3.7,5.9-3.8
		c2.9-0.1,4.2,1.1,3.8,4C304.5,329.3,303.5,330.9,300.8,331z M296.4,305.5c-0.8,0.1-1.3,0-1.3-1c0-0.9,0.4-1.2,1.2-1.2
		c0.7,0,1.3,0,3,0c3.6,2.6,8.8,1,13.6,1.7c0.7,0.1,1.7,0,1.7,1.2c0,0.8-0.8,1-1.4,1.2c-2.1,0.8-4.2,1.1-6.4,0.2
		C303.5,306.2,300.1,305.1,296.4,305.5z M314,298.9c-2.7,1.5-5.6,2.1-7.9,2.2c-1.2,0-1.5,0.1-1.8,0c-5.3-1.7-10.5-3.2-16.1-3.5
		c-1.6-0.1-2.6-1.6-3.4-3c-0.8-1.4-0.5-2.3,1-3.2c6.4-3.7,9.6-3.5,15.1,1.7c1.3,1.2,2.7,1.3,4.3,1.3c2.8,0.1,5.6-0.5,8.3,0.6
		c1,0.4,2.3,0.7,2.4,1.9C316,297.9,314.8,298.4,314,298.9z M233.1,240c0.7-0.3,1.3,0.3,1.8,0.7c0.9,0.7,1.8,1.3,2.6,2.1
		c9.4,9.7,20.9,11.9,33.6,9.1c2.1-0.5,3.9-0.1,5.7,0.9c5,2.6,9.5,5.8,14.1,9.3c-2,1.7-3.5,1.3-5.1,0.1c-9.2-7-19.3-7-29.6-3.4
		c-4.7,1.7-8.7,1.1-12.7-1.5c-4.1-2.6-7.5-6-9.7-10.4c-0.8-1.5-1.4-3.1-1.3-4.8C232.5,241.3,232.2,240.4,233.1,240z M312.6,288.7
		c1.1,1.2,0.4,1.9-0.8,2c-3.8,0-7.4-0.4-10.7-2.7c-2.2-1.6-1.4-2.5,0.5-3.4c1.3-0.6,2.7-0.9,4.5-0.6c1.7,1.3,3.5-2.3,5.2-0.5
		C312.5,284.7,311.1,287.1,312.6,288.7z M308.9,278.8c-3.7-0.8-6.6,1.9-9.9,1.5c-3.8,0.8-6.3-2.1-9.4-2.9c-0.5-0.1-0.8-0.8-0.6-1.4
		c0.2-0.7,0.9-0.5,1.4-0.6c2.1-0.2,4.2-0.3,6.3-0.4c1.6-0.1,3-0.6,4.4-1.5c3.1-2.1,8.5-1.1,10.2,2.1
		C312.5,277.7,310,279.1,308.9,278.8z M297.7,269.7c-3.9,0.7-7.8,0.4-11.9-1.8c4-0.5,7.7,0.5,11-1.6c1.3-0.8,2.5,1,2.8,2.2
		C299.9,269.9,298.5,269.6,297.7,269.7z M279.1,266c-2.6,0.8-5.2,1.4-8.7,1.4c-2.5,0-5.4-0.9-7.6-3.5c-1.1-1.3-1-2.2,0.6-3.2
		c4.4-2.5,13.5-0.8,16.5,3.1C280.8,265.1,280.4,265.6,279.1,266z M259.1,266.2c5.8,3.9,12.1,4.9,18.9,3.4c0.8-0.2,2.1-1.1,2.5,0.5
		c0.3,1.6-1.1,1.4-2,1.5c-3,0.3-5.9,1.4-8.7,2.4c-5.7,2-8.1,1.2-11.4-3.7c-1.1-1.6-2-3.4-3.2-5.4
		C257.1,264.7,258.1,265.6,259.1,266.2z M274.9,276.8c1.4-1.4,3.2-2.7,5.4-1.6c1.2,0.6,2.4,1.3,3.4,2.1c2.8,2.4,5.5,4.8,9.2,7.3
		c-4.9,0.9-8.6,3.5-13.1,2.4c-3.6-0.9-5.4-3.4-6.8-6.4C272.1,278.8,273.9,277.8,274.9,276.8z M229.5,224.4
		c13.9,6.8,25.9,14.8,38.6,22.7C252.9,252.3,240.1,241.6,229.5,224.4z M235.8,343.1c-0.1,0.4-0.3,0.7-0.8,0.8c-0.2,0-0.4,0-0.6,0
		c-1.3-0.1-2.3-1.1-2.3-1.9c0-1,1.1-1.9,2.5-2c0.2,0,0.4,0,0.5,0c1.1,0.2,0.8,1.1,0.7,1.9C235.8,342.4,235.9,342.8,235.8,343.1z
		 M293.5,431.5c-6.9-4.4-15.1-5.2-22.7-8c-1.4-0.5-2.7-1-4.1-1.4c-1.7-0.5-1.4-2-1.2-3.1c0.4-1.8,1.5-0.5,2.3-0.2
		c6.4,2,12.8,4,19.1,6.2c2.1,0.7,4.2,1.6,6.2,2.5c1.1,0.5,2,1.4,2.1,3.3C295.4,431.6,294.8,432.3,293.5,431.5z M301.6,380.9
		c-0.3,0.8-0.7,1.7-1.1,2.4c-4.9,8.4-4.2,16.9-0.5,25.5c0.6,1.4,2.1,3,1,4.3c-1.2,1.4-3.2,0.5-4.8,0.2c-9.1-2-17.7-5.6-26.4-8.9
		c-1.7-0.6-1.7-1.8-1.8-3.1c-0.2-4.7-0.5-9.4-0.6-14.1c-0.3-7.7-4.3-12.3-11.9-13.6c-4.6-0.8-9.4-0.5-14-1.9
		c-2.5-0.7-3.7-2.2-3.6-4.7c0-2.5,0-4.9,0-8c-0.3-3.3,0.7-7.4-1.2-11.2c-0.6-1.3-0.1-2.7,1-3.8c0.9-0.9,1.7-2,2.5-3.1
		c2.7-3.7,2.6-3.9-1.3-5.5c-3.6-1.5-5.9-4.9-9.4-6.7c-1.1-0.5-0.3-1.3,0.2-1.9c1.2-1.7,2.9-1.5,4.6-1.3c3.2,0.3,4.5-1.6,5-4.2
		c0.6-3-0.9-7-3.2-7.3c-2-0.3-4.1,0.5-5.8,1.8c-0.6,0.4,0,1.2,0.4,1.8c0.7,1,1.5,0.8,2.2,0.1c2.1-2.1,3.4-0.9,4.3,1.2
		c0.8,1.8,0.3,3.2-1.9,3.2c-2.8,0-5.9,0.8-8-2.2c-0.6-0.8-1.4-1-2.3-0.3c-2.2,1.9-5,1.7-6.7,0.1c-2-1.9-1.3-4.8-0.2-7.2
		c3.3-7,7-13.8,9.9-21c1.4-3.4,2.6-6.6,0.3-10.2c-0.9-1.5-0.4-3.3,0.2-4.9c2.1-5.8,4.1-11.6,5.2-17.7c0.4-2.2,1.5-2.2,3-1.2
		c2.6,1.7,5,3.8,7.8,5.2c3.3,1.6,6.2,2.3,7.3,7c0.7,3,4,6.7,8.5,7.3c1.2,0.1,1,0.9,1,1.7c-0.3,3.3-3.3,5.4-6.9,4.5c-3-0.8-6-2-9-2.8
		c-3-0.8-5.8,0-8.4,1.5c-0.6,0.3-1.2,0.8-0.6,1.6c0.4,0.5,0.9,0.6,1.4,0c2-2.4,4.6-1,6.9-1.1c1.3-0.1,2.8,0.2,3.9,0.8
		c6,2.9,11.3,1.4,16.2-2.4c2.1-1.6,3-1.6,3.9,1.3c1.1,3.5,4.4,5.6,7.3,7.5c1.6,1,2.9,2,3.5,3.7c1.1,2.8,3,4.9,5,7.1
		c0.9,1,1.9,1.4,3.2,1.4c3,0,4.2,1.7,3.3,4.8c-0.6,2.2-2.1,4.1-3.9,5.3c-7,4.5-8.2,19.8-2.3,25.8c3.2,3.2,5.9,7.1,10.5,8.5
		c1.1,0.3,1,1.1,1,1.8c-0.4,7.1,0.9,14.3-0.7,21.4c-0.4,1.8,1.1,2.9,2.5,3.6C301.5,374.8,302.7,377.4,301.6,380.9z M304.2,373
		c-0.1-0.1-0.1-0.1-0.2-0.2c0.1-0.1,0.2-0.3,0.2-0.4c0.1,0.1,0.2,0.2,0.2,0.2C304.3,372.7,304.2,372.8,304.2,373z M356.2,359.1
		c0.4,1.6-1.3,1.8-2.4,2.1c-6.5,2.1-13.4,2.7-20.1,3.6c-8.4,1.1-16.9,1.8-25.4,2.6c-7.3,0.6-7.3,0.6-7.3-6.6c0-3.5,0.2-6.9,0.1-10.4
		c0-1.8,0.4-2.7,2.3-2.6c1.8,0.1,3.1,0.6,2.9,2.7c-0.2,2.3-0.4,4.7,0,7c0.5,2.9,1.8,4.1,5.1,3.7c13.8-1.6,27.6-2.8,41.4-4.3
		C354.6,356.8,355.8,357.7,356.2,359.1z M357,299.6c-2.3,3.9-5.1,7.4-8.5,10.3c-3.5,2.9-4,6.4-3.4,10.5c1.4,9.7,3.9,19.1,7.3,28.2
		c1,2.6,0.3,3-2,3.2c-12.2,1.3-24.5,2.6-36.7,4.1c-2,0.2-2.8-0.5-3.2-2.3c-0.8-3.7-1-6.7,2-10c9-9.8,9.6-18.8,2.8-30.3
		c-0.9-1.6-1.3-2.7,0.5-3.8c2-1.3,3-3.5,3.7-5.4c0.8-2.3,1.6-2.3,3.6-1.7c4.4,1.3,9,2,13.6,2c9.6,0,18.1-2,22-12.5
		C359.3,294.8,358.3,297.2,357,299.6z M368.5,333.9c-1.8-12.5-0.5-24.7,2.7-36.9c3.3-12.8-0.7-24.3-8.1-34.8
		c-2.7-3.9-5.9-7.3-9.3-10.6c-0.8-0.7-2.2-1.7-1.4-2.7c0.8-1,2.6-1,3.6,0.1c6.3,6.9,12.6,13.8,16.2,22.6c3.6,8.8,4.6,18,1.7,27.3
		c-6.6,21-4.2,41.5,3,61.8c0.1,0.4,0.1,0.9,0.1,1.3C372.7,353.1,369.9,343.7,368.5,333.9z M383,300.6c-2.8,13.2-1.4,26.5-0.4,39.8
		c0.5,6.6,1.1,13.1,1.7,19.7c-2.2-5.6-2.9-11.4-3.8-17.2c-2.5-18.2-1.3-36.1,2.5-54c2.4-11-0.9-21.5-5.6-31.5
		c-2.5-5.2-5.4-10.1-9.1-14.4c-1.5-1.7-2.8-3.5-3.3-5.8c-0.2-1-0.1-2.1,0.8-2.8c1.1-0.9,1.9,0,2.6,0.7c1.5,1.4,3,2.8,4.1,4.4
		c9,12.9,14,27.2,13.8,43C386.3,288.6,384.3,294.6,383,300.6z M392.4,370.7c-3.5-24.8-4.6-49.8-1.2-74.8c1-7.5,2.5-15,2.9-22.6
		c0.8-15-4.6-28.1-12.9-40.2c-2.4-3.5-4.9-6.9-7.3-10.5c-0.7-1-1.2-2.2-1.7-3.3c-0.5-1.1-0.8-2.2,0.2-3.1c1-0.8,1.9,0,2.7,0.4
		c8.7,4.5,15.6,10.9,20,19.7c7.6,15.2,7.6,31.3,3.2,47.2c-4.4,15.6-5.8,31.4-6.7,47.4c-0.6,11,0,21.9,0.2,32.9
		C392,366.2,393,368.5,392.4,370.7z"/>
	<path d="M177.5,393.7c4.6-4.3,5.2-9.5,1.5-13.3c-3.7-3.8-11.4-3.7-14.9,0c-3.7,3.9-3.1,9,1.6,13.4c-5.6,4.5-6.3,11.2-1.8,16
		c4,4.2,12.1,4.2,16-0.1C184,405,183.1,398.2,177.5,393.7z M171.6,383.1c2.4,0,3.6,1.5,3.6,4.4c-0.1,1.9-0.9,3.6-3.5,3.7
		c-2.7,0.1-3.8-1.7-3.7-4.1C168,384.6,169.2,383,171.6,383.1z M171.7,407.4c-2.4,0-4.4-2.4-4.4-5.4c0-3.1,1.8-5.4,4.3-5.4
		c2.6,0,4.3,2.1,4.3,5.3C175.9,405.2,174.2,407.4,171.7,407.4z"/>
	<path d="M152.2,393.7c4.5-4.1,5.1-9.3,1.7-13.1c-3.3-3.6-10.7-4.1-14.5-0.8c-1.7,1.4-2.7,3.2-2.9,5.5c-0.4,3.6,1.1,6.4,4,8.5
		c-4.5,3.5-5.9,7.7-4.3,12.3c1.5,4.3,5.3,6.8,10.5,6.8c4.8,0,8.5-2.5,9.9-6.6C158.2,401.3,156.8,397.2,152.2,393.7z M146.4,383.1
		c2.4,0,3.4,1.7,3.8,3.7c-0.4,2.4-1.1,4.3-3.8,4.4c-2.5,0-3.6-1.7-3.7-3.9C142.6,384.9,143.8,383.1,146.4,383.1z M146.5,407.4
		c-2.6,0.1-4.6-2.4-4.5-5.6c0-2.8,1.9-5.1,4.3-5.1c2.4-0.1,4.6,2.4,4.6,5.3C150.8,405,149,407.3,146.5,407.4z"/>
	<path d="M203.9,406c-1.6,0-3.1,0.1-4.7,0c-1.1-0.1-2.8,0.7-3.3-0.5c-0.7-1.5,1.2-2.2,2-3.2c0.3-0.4,0.9-0.6,1.3-0.9
		c2.8-2.4,5.4-5.1,7.1-8.4c2.9-5.9,0.9-12.3-4.6-14.5c-6.2-2.5-13.1,0.4-14.8,6.2c-0.3,1.1-1.7,3.1,0.3,3.2c1.8,0.1,4.9,2.9,5.9-1.5
		c0.6-2.6,2.7-3.5,5.3-2.8c2.6,0.7,3,2.9,2.6,5.1c-0.3,2-1.4,3.7-2.9,5.2c-2.3,2.3-4.6,4.6-6.8,7c-2.5,2.6-4.4,5.6-5.3,9.2
		c-0.4,1.6-0.1,2.2,1.6,2.1c0.8,0,1.5,0,2.3,0c2.3,0,4.5,0,6.8,0c1.5,0,2.9,0,4.4,0c1.6,0,3.1,0,4.7,0c0.8,0,1.7,0.3,2.1-1
		C208.6,407.6,207.5,406,203.9,406z"/>
	<path d="M125.7,377.7c-2.1,0.1-4.4-0.9-5.6,2.1c-0.9,2.3-3,4.2-5.2,5c-3,1.1-2.9,3.2-2.9,5.6c0,1.7,0.7,1.8,2.1,1.2
		c2-0.8,3.7-2.3,5.6-3.5c0.8,1.3,0.4,2.4,0.4,3.5c0,6.2,0.1,12.3,0,18.5c-0.1,2.4,1.3,2.4,2.7,2.1c1.4-0.3,3.9,1.5,3.9-1.8
		c0-10.3,0-20.6,0-30.9C126.8,378.7,126.9,377.7,125.7,377.7z"/>
	<path d="M250.4,291c-3.2-2.7-6.8-4.2-11.6-4.2c-3.6-1.7-4.9,3-7.9,3.8c-0.4,0.1-0.6,0.8-0.2,1.1c0.3,0.3,0.7,0.6,1.1,0.6
		c1,0.1,1.6-0.7,2.2-1.4c1.6-2.1,3.8-1.4,5.9-1.4c0.4,0,0.9,0.4,1,0.7c0.2,0.6-0.3,1-0.9,1.1c-2.8,0.5-4.2,2.8-5.9,4.7
		c-1.9,2.2-1.3,4.7,1.3,6.1c5,2.9,13.8,0,16.3-5.2C252.7,294.6,252.4,292.7,250.4,291z M239.6,299.8c-1.8,0.3-2.7-0.1-2.5-1.9
		c0.1-0.9-0.4-2.2,1.3-2.1c1.6,0.1,3.3,0.6,3.5,2.4C242.2,300.2,240.3,299.5,239.6,299.8z M246.4,300.1c-0.5-2.3-3.3-3-2.2-4.9
		c1-1.8,3.2-0.6,5.1-0.8C248.4,296.2,247.6,297.8,246.4,300.1z"/>
</g>
</svg>
