<?xml version="1.0" encoding="utf-8"?><svg version="1.1" id="Layer_1" xmlns="http://www.w3.org/2000/svg" xmlns:xlink="http://www.w3.org/1999/xlink" x="0px" y="0px" viewBox="0 0 512 512" style="enable-background:new 0 0 512 512;" xml:space="preserve"><style type="text/css"> .st0{fill:#32AA6E;} .st1{fill:#2FAC6C;} .st2{fill:#33AA6F;} .st3{fill:#33AB6F;} .st4{fill:#37A671;} .st5{fill:#34AA72;} .st6{fill:#33AA71;} .st7{fill:#34A96D;} .st8{fill:#31AB6F;} .st9{fill:#C1EFD4;} .st10{fill:#FBFDFD;} .st11{fill:#FDFEFE;} .st12{fill:#FBFCFC;} .st13{fill:#F8FDF8;} .st14{fill:#F8FAFA;} .st15{fill:#F3FAF6;} .st16{fill:#F8FDF9;} </style><g><path class="st0" d="M216.5,342.4c-1.3,7.5-1.3,7.5-8.8,7.5c-13.1,0-26.3-0.1-39.4,0.1c-3.7,0-5.6-0.5-5.8-5 c-1-22.6-7.4-43.9-16.7-64.4c-2.4-2.4-3.2-5.5-4.1-8.7c-8-18.6-18.7-35.6-29.8-52.4c-1.1-1.6-2.5-2.4-4.5-2.1 c-7.7,1.1-14.7-1.2-21.2-5.1c-2.7-1.5-4.7-3.7-6.5-6.1c-6.9-11.9-7.8-23.7,0.9-35.2c9-11.8,25.2-14.5,38.2-6.6 c12.1,7.3,17.2,23.5,10.7,36.3c-2.4,4.7-1.5,7.4,1.1,11.3c9.9,14.8,20.1,29.2,32.9,41.7c5.5,5.3,11.4,10.1,18.8,12.7 c7.5,2.7,14.8,0.2,19.6-6.6c5.5-7.8,7-17,7.9-26.2c2.1-21.3,0.1-42.6-2.5-63.7c-4.2-34.5-10.2-68.7-16.3-102.9 c-0.5-3-1.8-4.1-4.1-5.3c-16.5-8.4-22-24.8-13.8-41.2C179.6,7.4,197.5,1.5,211.7,8c13.9,6.3,21,24.1,15,37.7 c-1.3,2.9-2.3,6.2-4.9,8.1c-4.6,3.5-4.8,7.9-4.5,13.1c2.2,37.7,5.6,75.4,12.9,112.5c3.9,19.7,8.6,39.2,18.5,56.9 c1.6,2.9,2.9,6.1,5.8,8.1c5.6,7.1,13.2,10,21.8,10.9c0.7,0.1,1.4,0.1,2-0.3l0,0c1.9-1.8,4.6-1.1,6.7-2c10.2-4.1,16-12.7,21.1-21.6 c9.6-16.9,14.8-35.5,19-54.3c5.2-23.6,8.2-47.5,10.4-71.5c0.3-3.5-2-4.6-3.7-6.5c-8.6-9.4-11-20.1-6.2-32 c4.8-12.1,14.3-18.3,27.2-18.9c13.6-0.7,27.2,9.8,30,22.6c3.3,15.3-3.5,29.3-17.4,34.9c-3.9,1.6-5.9,3.8-6.9,7.7 c-9.5,36.6-18.1,73.3-21.1,111.1c-0.8,10.4-0.8,20.9,0.8,31.4c3.2,21.2,19.2,28.6,37.7,17.1c13.8-8.6,24.2-20.7,34-33.4 c2.5-3.2,0.5-7.3,0.6-10.9c0.3-10.4,7.3-19.9,17-22.7c10.4-3,21,0.2,27.3,8.3c6.1,7.8,6.7,18.7,1.6,27.6 c-5.2,9-15.1,13.6-25.9,11.8c-2.3-0.4-4-0.5-5.9,1c-20.7,16.7-39.6,35-53.3,58.1c-5.7,9.7-10.3,19.9-12,31.1 c-0.7,4.7-2.3,6.2-7.3,6.2c-36.4-0.3-72.9-0.2-109.3-0.2c-3.9,0-7.9-0.4-11.7,0.1c-6.1,0.8-9.8-1-10.1-7.7c-1.6-1.8-2-3.9-2-6.2 C218.7,338.5,218.4,340.7,216.5,342.4z"/><path class="st1" d="M284.5,509.8c-21.3,2-37.6-19.2-34.7-41.8c1.7-13.3,7.9-24,20.6-29.4c14.7-6.3,29.8-0.3,38.6,14.3 c8.9,14.8,6.1,35.9-6.3,48.1c-3.3,3.3-5.4,3.8-7.4-0.9c-0.6-1.5-1.6-2.7-2.5-4.1c-2.8-2.2-3.7-5.9-6.5-8.4 C284.7,495,286.9,502.6,284.5,509.8z"/><path class="st2" d="M379.2,489.1c0,4.4,0,8.9,0,13.3c0,1.6,0.2,3.3-1.9,3.9c-13.1,3.8-26.3,5.5-38.9-0.9 c-12.6-6.4-19.3-21.4-17-36c2.8-17.2,12.7-28.1,27.8-30.9c7.3-1.4,14.5-1,21.7,0.3c2.1,0.4,5.3,0.4,5.6,3.8c0.3,4-1.8,5.6-5.8,4.4 c-9.8-2.8-19.3-2.6-28.1,3c-10.1,6.4-14.2,19.7-10.5,33.1c3.1,11.3,11.3,17.8,23.7,18.6c13.8,0.9,14.3,0.4,14.3-13.1 c0-9.4,0-9.4-9.4-9.5c-2.4,0-4.9,0.7-4.9-3.5c0-4.3,2.5-3.9,5.2-3.9c4.4,0,8.9,0.3,13.3,0c4.2-0.3,5.2,1.4,5,5.3 C379,480.9,379.2,485,379.2,489.1C379.2,489.1,379.2,489.1,379.2,489.1z"/><path class="st3" d="M233.2,478.2c6.3,8.4,6.2,19,9.6,28.5c0.6,1.7-0.5,2.4-1.9,2.1c-2.6-0.5-6.3,2-7.6-2.5 c-1.5-5.3-3-10.6-4.2-15.9c-2.2-9.7-10.8-14.8-20.3-12.1c-2.6,0.7-2,2.6-2,4.2c0,7.5-0.1,14.9,0.1,22.4c0.1,3.4-1.2,4.3-4.3,4.1 c-2.6-0.2-5.3,0.6-5.2-3.8c0.1-20.6,0.1-41.2,0-61.8c0-2.9,1-4.6,4.2-4.9c7.3-0.6,14.5-1,21.8-0.1c8.2,1.1,14.5,4.6,17.2,12.9 c2.4,7.7-0.3,15.5-7.2,21.2c-1.1,1.6-2.8,2.5-3.8,2.9C231.2,475,232.2,476.5,233.2,478.2z"/><path class="st4" d="M289.7,396.7c6,3.3,8.3,8.5,9.7,14c1.3,4.8,2.5,9.6,3.6,14.4c0.3,1.6,2.8,4.1-0.2,4.7 c-2.9,0.6-7.1,2.2-8.6-2.6c-1.4-4.4-2.3-8.9-3.5-13.4c-3-11.9-6-14.1-18.1-14.1c-3.6,0-5,0.9-4.8,4.8c0.3,6.9-0.1,13.9,0.2,20.8 c0.1,3.6-0.9,4.9-4.7,5c-3.7,0-4.4-1.4-4.4-4.6c0.1-20.2,0.1-40.5,0-60.7c0-3.3,0.8-4.7,4.3-5c8.7-0.6,17.3-1.5,25.9,0.8 c8.1,2.3,12.7,7.6,13.3,16c0.5,7.7-2.3,13.8-9.2,17.8C292.2,395.2,291.3,395.7,289.7,396.7z"/><path class="st5" d="M218.7,359.9c4.6-1.3,6.2,1.1,7.4,4.8c6.7,20.1,13.6,40.2,20.3,60.3c0.5,1.4,3.8,4.1,0,5 c-2.8,0.6-7,2.3-8.7-2.4c-1.7-4.7-3.3-9.3-4.7-14.1c-1.1-3.7-2.7-5.6-7-5.2c-4.7,0.5-9.6,0.5-14.4,0c-4.5-0.5-6.3,1.6-7.4,5.5 c-1.3,4.6-3,9.1-4.5,13.6c-0.5,1.7-1.1,2.7-3.1,2.9c-6.8,0.8-7.4,0.2-5.2-6.4c6.7-19.6,13.4-39.2,19.9-58.8 C212.7,361,214.1,358.1,218.7,359.9z"/><path class="st6" d="M147.8,395.2c0-10.3,0.1-20.6-0.1-30.9c0-2.9,1-4.1,3.8-4.4c7.1-0.7,14.2-1.1,21.3-0.1 c12.2,1.8,18.4,9.2,18.2,20.9c-0.2,11.5-7.9,19.9-19.6,21.3c-3.5,0.4-7.1,0.7-10.6,0.3c-3.6-0.4-4.2,1-4.1,4.1 c0.2,6.6-0.1,13.2,0.2,19.7c0.2,4-2,4-4.9,4.1c-3.1,0.1-4.4-0.6-4.3-4.2C147.9,415.8,147.7,405.5,147.8,395.2 C147.7,395.2,147.8,395.2,147.8,395.2z"/><path class="st5" d="M342.2,389.4c-4.8-6.7-5.7-14-1.4-20.9c4.9-8.1,13.3-10.1,22.2-9.8c3.1,0.1,6.3,0.8,9.4,1.5 c2.9,0.6,4.7,1.7,3.5,5.5c-1.2,3.8-3,3.2-5.9,2.2c-4.7-1.7-9.6-2.4-14.6-0.7c-4,1.3-6.9,3.7-7.5,8c-0.7,4.4,0.8,7.9,4.7,10.5 c5.4,3.6,11.5,5.3,17.2,8.1c4,1.8,7,4.6,8.6,8.8c2.1,8.5,2,16.4-5,23.1c-8.1,7.7-26.6,6.7-34.8,2.3c-3.2-1.7-0.6-4.1-0.2-6 c0.5-2.7,2.3-1.8,4-1.1c6.8,2.8,13.5,4.2,20.9,1c4.4-1.9,6.4-4.6,6.8-9c0.5-5-1.6-8.8-5.8-11.1c-5.4-3-11.2-5.3-16.8-8 C345.5,392.4,343.1,391.8,342.2,389.4z"/><path class="st7" d="M146.6,473.5c0-10.1,0.1-20.3-0.1-30.4c-0.1-3.6,0.9-5,4.7-4.9c9.8,0.2,19.5,0.2,29.3,0c2.9,0,4.1,0.8,4.1,3.9 c0,3.1-1.3,3.9-4.2,3.8c-6.7-0.2-13.5,0.2-20.3,0c-3.4-0.1-4.8,0.7-4.6,4.4c0.3,5,0.3,10,0.1,14.9c-0.1,3.4,1.2,4.2,4.3,4.1 c6-0.2,12.1,0,18.1-0.1c2.7,0,4.2,0.3,4.3,3.7c0.1,3.7-1.6,4-4.5,3.9c-5.2-0.1-10.3,0-15.5,0c-6.8,0-6.8,0-6.8,7.1 c0,6.6-0.1,13.2,0.1,19.7c0.1,3.5-0.3,5.4-4.7,5.4c-4.8,0-4.5-2.5-4.5-5.7C146.6,493.4,146.6,483.5,146.6,473.5 C146.6,473.5,146.6,473.5,146.6,473.5z"/><path class="st8" d="M315.3,394.6c0-10.3,0.1-20.6-0.1-30.9c-0.1-3.3,1-4.4,4.2-4.2c3,0.1,4.9,0.2,4.9,4.2 c-0.2,20.8-0.2,41.5,0,62.3c0,3.9-1.8,4.2-4.9,4.3c-3.2,0.1-4.4-0.9-4.3-4.2C315.4,415.6,315.3,405.1,315.3,394.6 C315.3,394.6,315.3,394.6,315.3,394.6z"/><path class="st9" d="M342.2,389.4"/><path class="st10" d="M353.2,98.1c-11.2-0.1-19.7-8.7-19.7-20c0-11,8.8-19.8,19.9-20c10.8-0.1,20,9,19.9,19.9 C373.2,89.7,364.8,98.1,353.2,98.1z"/><path class="st11" d="M218.5,35c-0.2,11.4-8.9,19.7-20.2,19.4c-10.1-0.3-19-9.3-19-19.3c0-10.9,9.4-20.1,20.2-19.9 C209.9,15.5,218.7,24.6,218.5,35z"/><path class="st12" d="M122.4,188.7c0.1,9.9-8.7,18.8-18.6,19c-10.2,0.2-19.2-8.5-19.4-18.7c-0.2-10.1,8.8-19.2,18.9-19.2 C113.5,169.8,122.3,178.6,122.4,188.7z"/><path class="st13" d="M206.8,458.1c0-0.9-0.3-1.9,0-2.6c1.5-3.5-3.6-9.6,3.9-10.5c12.1-1.4,19.3,2.3,20.9,10.2 c1.4,6.9-2,12.8-8.6,15c-4.5,1.5-9.1,1.1-13.7,1.1c-2.3,0-2.5-1.4-2.5-3.1C206.9,464.8,206.9,461.5,206.8,458.1 C206.9,458.1,206.9,458.1,206.8,458.1z"/><path class="st14" d="M292.9,376.6c0.7,9.9-4.3,15.9-14.4,16.1c-13,0.3-10.4,1.7-10.7-9.8c-0.1-4.2,0-8.5,0-12.7 c0-1.8,0.5-3.2,2.5-3.3c6.4-0.2,13-1.7,18.4,3.5C289.8,372.7,291.6,374.4,292.9,376.6z"/><path class="st15" d="M220.5,375.5c2.8,8.2,5.5,16.4,8.5,25.1c-7.1,0-13.7,0-20.8,0c2.8-8.4,5.5-16.8,8.3-25.1 C217.8,373.1,219.1,373.3,220.5,375.5z"/><path class="st16" d="M156.7,380.9c0-1.6,0-3.2,0-4.8c0-9.4,0-9.4,9.2-9.3c9.8,0.1,15.6,4.8,16.1,13.1c0.5,8-4.6,13.6-13.8,15.1 c-10.9,1.8-11.6,1.2-11.6-9.8C156.7,383.7,156.7,382.3,156.7,380.9z"/></g></svg> 