<?xml version="1.0" encoding="utf-8"?><svg version="1.1" id="Layer_1" xmlns="http://www.w3.org/2000/svg" xmlns:xlink="http://www.w3.org/1999/xlink" x="0px" y="0px" viewBox="0 0 512 512" style="enable-background:new 0 0 512 512;" xml:space="preserve"><style type="text/css"> .st0{fill:#E9B411;} .st1{fill:#E39B0C;} .st2{fill:#E9B412;} .st3{fill:#CA801B;} .st4{fill:#E19B0E;} .st5{fill:#E29B0D;} .st6{fill:#CB811A;} .st7{fill:#E9B313;} .st8{fill:#E19C0C;} .st9{fill:#E19C0E;} .st10{fill:#CB811D;} .st11{fill:#E29C0D;} .st12{fill:#DF9B0F;} .st13{fill:#CC7F1C;} .st14{fill:#E29A10;} .st15{fill:#CB7F1F;} .st16{fill:#C9831D;} .st17{fill:#E3A315;} .st18{fill:#CB801C;} .st19{fill:#EAB015;} .st20{fill:#F7F6F4;} .st21{fill:#CA831A;} .st22{fill:#C8811D;} .st23{fill:#CB831B;} .st24{fill:#DC9E16;} .st25{fill:#CF9528;} .st26{fill:#DDA447;} .st27{fill:#142157;} .st28{fill:#132059;} .st29{fill:#172253;} .st30{fill:#172151;} .st31{fill:#182158;} .st32{fill:#14215A;} .st33{fill:#CB8215;} .st34{fill:#E59D0F;} .st35{fill:#E49D0E;} </style><g><path class="st0" d="M324.5,119.9c3.4,1.6,7.1,2.7,10,4.8c5.6,4.1,12.4,5.4,18.3,8.4c-3.5,2.5-4.2,6.8-6.2,10.2 c-1.9,3-17.2,26.6-18.8,30.4c-11.2,17.2-24.3,33-36.2,49.7c-0.4,0.5-0.9,0.8-1.5,1.1c-6.6,0.9-12.2,4.4-18.3,6.6 c-12.3,4.4-23.8,10.7-34.3,18.5c-4.9,3.7-10.4,6.9-14,12.1c-1,1.5-1.8,1-3,0.3c-5.9-3.8-11.4-8-16.9-12.4c-8.9-7-17-14.8-24.9-22.8 c-5.9-5.8-11.3-12.1-16.8-18.2c-2.1-2.3-0.4-4.7,1-6.4c13.8-17.6,18.6-38.6,23.8-59.7c2.7-10.8,3.4-21.8,3.3-32.7 c-0.1-10.9,0-22.2-4-32.7c-1-2.5-0.2-3.5,2.3-4.9c7.2-4,14.8-7.1,22.4-10.1c8.6-3.3,17.2-6.6,26.2-8.8c5.4-1.3,10.6-3.1,16.1-4.1 c2.6-0.5,3.7-0.1,4.9,2c5.4,10,11.1,20.1,18.8,28.3c5.2,5.6,9.9,11.7,16,16.6c8.8,7,17.3,14.2,26.8,20.2 C320.5,118.2,322.5,119.1,324.5,119.9z"/><path class="st0" d="M344.5,43.8c4.4,2.4,6.5,7.4,11.1,9.6c1.8,1.8,2.9,4.2,5.1,5.7c2.7,2.6,5.8,4.9,8.1,7.9 c10.7,13.8,20.3,28.2,26.9,44.5c2.5,6.3-1.1,12.4-7.5,14.3c-10.1,3-19.5,1.1-29.5-1.4c-10-2.6-18.7-7.5-27.5-12.2 c-6.9-3.7-13.5-8.3-19.3-13.5c-7-6.3-14.9-11.6-21.2-18.7c-0.5-0.5-0.6-1-0.6-1.7c-0.8-10.3-1-20.6,1.3-30.7 c2.3-10.3,9.2-17.5,17.9-23c1.3-0.8,2.8-1.5,4.5-0.9c8.9,5.1,18.1,9.5,25.8,16.4C340.7,41.9,342.6,42.9,344.5,43.8z"/><path class="st1" d="M354.4,228.3c5-0.2,9.8-0.2,13.6,3.8c2.3,1.4,3.5,3.7,5.1,5.7c3.3,4.9,1.5,8.8-2,12.7 c-5.8,6.6-11.2,13.5-19.2,17.7c-1.6,1.2-3.1,2.6-4.7,3.9l0,0c-3.4,2.3-7.4,3.8-9.8,7.4c-10.3,5.3-20.1,11.7-31.2,15.3 c-3.8,1.2-8.2,0.9-11.5,3.7c-6.6,2.9-13.9,4.4-20.8,5.3c-5,0.7-10.8,2.3-16.7-2.6c-6.5-5.4-15.2-3.2-22.6,1.3 c-5.4,3.3-8,2.8-12.1-2.1c2.7-4.9,7.2-8.1,11-12.1c9.4-9.9,20-18.3,31.1-26.3c10.6-7.6,22.1-13.3,34.1-18.5 c15.4-6.8,31.5-11.4,47.7-15.6C349.2,227.5,351.8,226.8,354.4,228.3z"/><path class="st1" d="M177.9,107c1.5,8.1,0.2,16.1-0.2,24.2c-1.7,1.7-1.4,4.3-3,6.1c-2.1-0.9-1.5-2.9-1.9-4.5 c-2.2-9.2-3.2-18.8-7.4-27.4c-0.7-1.4-1.3-2.9-2.3-4.2c-4.3-5.9-9.9-6.5-15.3-1.6c-5.4,4.8-8.3,11.2-10.5,17.8 c-4.6,14.2-5.5,28.5-1,43c1.3,4.2,3.6,7.8,6.4,11c4.1,4.9,8.5,5.5,14.5,2.6c2.7-1.3,5.2-3.9,8.7-2.6c0.7,4.3-2.9,7.3-3.1,11.3l0,0 c-3.3,2.3-3.5,6.2-4.8,9.6c-0.3,0.7-0.1,1.9-1.4,1.8c-3.1,5-8.7,6.4-13.5,8.2c-5.1,1.9-10.3,0.4-14.3-3.8 c-6.5-6.9-10.2-15.4-11.9-24.4c-2-10.6-3.2-21.2-3-32.1c0.3-18.5,4.3-36,13.1-52.3c3.3-6.1,7.7-11.6,13-16.2 c8-7.1,19.4-6.1,26.1,2.5c5.1,6.6,9.2,14,11.7,22.1C178.4,101,178.8,104,177.9,107z"/><path class="st1" d="M406.1,133.5c2.4,12.1,2.8,24.5,1.8,36.7c-1.2,14.6-4.5,28.9-10,42.7c-2.7,6.8-5.6,13.6-8.9,20.1 c-2.5,4.9-3.7,4.9-7.3,0.8c-4.6-5.2-10.1-9.4-17-11c-2.1-0.5-2-1.4-2-2.9c0-3,1.2-5.8,1.9-8.7c3.6-14.7,7.4-29.3,9-44.3 c0.9-8,0.8-16.2,1.3-24.2c0.4-5.3,3.1-6.3,6.9-6.3c7-0.1,13.5-1.4,19.5-5.1C403.8,130.1,404.8,132.2,406.1,133.5z"/><path class="st1" d="M338.9,147.5c6.9-0.3,7.6-6.4,9.6-10.9c1.1-2.4,1.9-3.6,4.5-3.5c1.4,0.1,2.8,0.1,4.3,0.3 c5.8,0.7,7.2,2.6,7.5,8.6c0.6,15-1.8,29.7-4.2,44.4c-1,1.9-3,3.4-1.9,5.9c-0.4,8.3-3.5,16-5.8,23.9c-0.2,0.8-0.9,0.7-1.5,0.9 c-3.5,1.4-7.1,0.8-10.6,0.5c-5.1-0.4-10.2-0.2-15.3,0.9c-7.4-0.6-14.5,1.7-21.8,2.5c-4.4,0.5-9,2-13.4,3.3 c3.4-7.7,9.7-13.4,14.4-20.2c6.5-9.6,14.3-18.2,20.2-28.3C325.3,174.9,338.3,149.5,338.9,147.5z"/><path class="st2" d="M133,230.2c6.6-4.2,13.5-7.7,19-13.5c1.7-1.8,3.7-0.2,4.9,1.1c4.5,4.8,8.7,9.9,13.1,14.7 c3.8,4.1,7.6,8.1,11.7,11.9c6.5,5.9,13.2,11.6,20.5,16.6c2.7,1.8,5.2,3.9,7.9,5.6c4.3,2.7,4.9,4.6,2.5,9.2 c-2.8,5.2-5.6,10.3-6.8,16.2c-5.7,0.2-10.2-3.2-14.7-5.7c-17.8-9.4-33.7-21.6-47.4-36.5c-3.6-4-5.9-9-9.1-13.2 C133.3,234.8,132.7,232.5,133,230.2z"/><path class="st3" d="M354.4,228.3c-10.1,1.5-20,3.7-29.6,7.3c-6.7,2.5-13.8,4.2-20.5,6.9c-21.5,8.6-40.9,20.5-58.2,36 c-6.8,6.1-13.3,12.3-19.3,19.1c-1.1,1.2-2.8,2-4.1,3c-2.9-1.2-5.5-7.5-4.9-11.8c1-6.7,3.5-12.4,8.5-17.4c7.7-7.6,16-14.3,25-20.1 c8.1-5.2,17-9.9,26.2-12.7c7-2.1,13.9-4.9,21.2-6.6c6.8-1.5,13.6-2.6,20.3-4.2c11.4-2.7,22.7-0.8,34-1.1 C354,226.6,355.9,226.2,354.4,228.3z"/><path class="st3" d="M177.9,107c0.4-8-3.7-14.6-7.5-21.1c-2.6-4.4-4.5-9.2-8.9-12.4c-7.1-5.2-17.2-3.8-23,2.9 c-4.9,5.7-9.8,11.4-12.9,18.2c-4.6,10.2-7.7,20.8-9.3,32.1c-1.2,8.3-1.6,16.6-1.2,24.7c0.7,13.3,1.8,26.8,8.8,38.8 c3.7,6.3,7.6,12.2,16.3,11.6c2.3-0.2,4.5-0.8,6.2-2.1c3-2.5,7.1-2.9,9.9-5.5c0,4-4.2,5-5.6,7.8c-2.1,4.3-5.5,7.2-9,10 c-4.8,3.8-9.4,8.1-16.5,7.2c-5.9-0.8-9-3.2-10.4-9c-4-16.1-6.7-32.3-7.1-48.8c-0.2-5.6,0.8-11.3,1.4-17c1.1-11.7,3.8-23.2,7.3-34.4 c2.2-7.3,5.7-14.4,9-21.5c2-4.3,4.3-8.3,6.8-12.2c1-2.4,3.8-3.9,3.8-6.8c1.3-2.1,3-4,4.5-5.9c7-8.3,20.4-9.8,28.1,0.9 c2.4,3.4,3.7,7.1,5,10.7C177.3,85.3,179.7,95.9,177.9,107z"/><path class="st4" d="M260.5,338.5c0-1.8,0.7-3.2,2.6-3.4c1.6-0.2,1.8,1.5,1.9,2.3c0.6,6.9,3,13.7,1.2,20.7 c-0.2,0.8-0.4,1.4-0.8,2.1c-3.9,6.1-3.4,12.4-1.1,18.8c1.6,3.2-2.9,4.4-2.5,7.2c-0.2,0.4-0.5,0.7-0.8,0.9c-2.4,0.3-4.4,1.3-5.4,3.7 c-2.6,3.1-6.1,4.8-9.5,6.8c-2.6,1.6-4.7,0.9-6.6-1.2c-2.4-2.6-4.5-5.6-7.2-7.9c-0.3-0.3-0.5-0.7-0.7-1.2c0-3.7-1.3-7.2,0.9-11.2 c1.7-3.1,1.2-7.7-0.5-11.4c-3.8-8.4-4.7-17.1-2.1-26.1c0.5-1.9,1-3.8,3.2-3.9c2.8,0,1.5,2.5,1.9,3.9c2.5,3.4,4.4,7.2,6.6,10.8 c4.1,6.7,7.7,6.7,11.8,0.2C255.7,345.8,258.2,342.2,260.5,338.5z"/><path class="st5" d="M133,230.2c7.2,17.2,20.6,29.1,35,39.9c9.5,7.2,19.3,14,30.6,18.2c2.5,0.9,4.8,2.4,7.1,3.6 c1.1,3.3-0.2,6.8,1.2,10.2c0.6,1.4-0.5,3.4-2.7,2c-6.3-4-13.6-5.8-20.1-9.2c-0.6-0.3-1-1.1-1.5-1.7c-4.3-2.5-8.2-5.4-12.6-7.6 c-2.2,0.9-2.3-2.6-4.3-2.1c-0.5-2.3-2.4-3-4.3-3.6c-4.5-2.5-7.8-6.3-11.5-9.8c-9.4-8.8-18.2-18.2-25.1-29.1c-1.4-2.2-2.1-4.7-3.5-7 c-1.2-2-1.2-3.8,2.3-3.6C126.8,230.7,129.9,230.3,133,230.2z"/><path class="st6" d="M166.3,48c-4.1-1.6-8.1-3.4-12.9-2.4c6.2-7.5,14-12.6,22.2-17.1c2.2-0.8,3.9-2.5,6-3.6c4.1-3.6,9.2-5.6,14-7.4 c6.3-2.4,12.6-4.9,19.4-6.4c7.1-1.6,14.1-2.6,21.2-3.8c5.6-0.9,11.1-1.3,16.7-1.4c2.4,0,4.7,0.3,6.6,2.3c-2,2.2-4.7,4.2-5.8,7.2 c-4,2-8.5,2.2-12.8,2.8c-18.8,2.7-36.5,8.7-53.6,16.8c-4.1,2-8.2,4.1-12.3,6.1C171.6,42.7,168.7,45,166.3,48z"/><path class="st7" d="M251.8,26.7c0.2,1.2,0.6,2.5,0.7,3.7c0.1,2.7,0.7,5.5,0,8c-1,3.5-4.3,0.9-6.5,1.6c-13.1,4-26.4,7.2-39.1,12.3 c-7.7,3.1-15.3,6.6-22.6,10.4c-2.3,1.2-4,1.2-5-1.7c-1-2.9-4.4-4.4-4.9-7.6c5.8-5.6,13.2-8.6,20.3-11.9c15.2-7,31.1-12.2,47.8-14.6 C245.6,26.4,248.7,25.9,251.8,26.7z"/><path class="st8" d="M313.6,23.7c-11.8,6-20,14.6-21.8,28.5c-1,7.2-0.7,14.4-0.8,21.6c0,1.6-0.3,3.1-1,4.5 c-5.1-3.3-8.5-8.1-11.4-13.3c-7.8-12.9-6.5-30.4,3.1-42.4c5.4-6.8,8.4-7.8,15.1-5.4c4.6,0.8,9,2.4,12.9,4.9 C311.1,22.9,312.9,22,313.6,23.7z"/><path class="st9" d="M251.8,26.7c-5.3,1.6-10.8,1.4-16.2,2.6c-20.8,4.4-40.2,11.8-58.2,23c-1,0.6-1.9,1-3.1,1 c-2.7-1.8-5.4-3.5-8-5.3c-0.7-5.2,4.2-6.1,7-7.6c8.2-4.5,16.7-8.6,25.4-12c13.4-5.3,27.2-9.6,41.6-11.3c4.5-0.5,8.8-2.4,13.5-1.8 C255,19.4,251.5,22.7,251.8,26.7z"/><path class="st10" d="M231.5,387.3L231.5,387.3c2.7,3.3,4.8,7,7.8,10c2.3,2.3,1.2,5.8,0.3,8.2c-2,5.6-1.2,11.3-1.2,16.9 c0,8.2-0.7,16.5,3.5,24.5c2.5,4.6,2,10.5,1.9,15.9c0,1,0.1,1.9,0.4,2.8c0,0.2,0.1,0.5,0.1,0.7c-0.6,5.9,1.6,12-1.7,17.6 c-1,1.8-1.1,4.7-3.9,4.2c-3.1-0.6-4.5-3.3-5.3-6.2c-0.2-0.7-0.2-1.6,0-2.3c2.2-7.7-1-14.9-1.5-22.3c-0.6-8.5-4.6-16.3-2.9-25.2 c1.1-5.9,0.4-12.4-0.8-18.3c-1.6-8.2,1.1-16.1,0.3-24.2C228.4,388.4,229.2,386.3,231.5,387.3z"/><path class="st11" d="M237.7,337.9c-0.6-1.6-1.2-3.1-1.9-4.7c-0.9-1-1.1-2.3-0.8-3.5c1.8-8.8,6.2-16,14.7-19.5 c3.2-1.3,7.3-1.1,10.9,0c2.7,1.1,3.4,3.7,3.5,6c0.6,10.6-3.7,19.3-11.7,25.9c-2.6,2.2-6.7,1.7-9.5-0.9 C241.4,339.7,239.8,338.4,237.7,337.9L237.7,337.9z"/><path class="st12" d="M152,284.7c3.1,3.3,5.6,7.3,10.5,8.4c6,0.8,11.1,3.8,16.1,7.1c2.9,2,6,3.6,8,6.6c3,4.5,8.1,4.7,12.5,6 c10.2,2.8,19.4,7.4,27.9,13.7c1.1,0.8,1.5,2,2.3,3c1.6,4.5-2.7,7.9-2.2,12.2c0.1,0.8-1.1,0.9-2.3-0.1c-3.9-3.6-8.1-6.7-12.2-10.1 c-4.9-4-10.3-7.7-16.3-9.2c-5.8-1.5-10.7-4-13.5-8.7c-3.8-6.5-10.8-9-15.4-14.2c-1-2.1-3.6-0.6-4.9-2.2 c-6.2-0.8-11.3-5.8-12.5-12.2C150.5,284,151.2,284,152,284.7z"/><path class="st13" d="M296.8,17.1c-10.3-0.5-18.7,7.3-21,19.8c-1.8,9.6,0,18.9,2.8,28.1c-4.4-5.2-9.1-10.3-11.5-16.9 c-1.9-5.1-4.1-10.1-5.5-15.3c-2.5-9.9,6.9-21.4,17-21.3c0.8,0,1.6-0.2,2.4,0c5,1.5,9.9,3.4,15.1,4.3 C296.5,16,296.6,16.7,296.8,17.1z"/><path class="st14" d="M317.7,306.7c-5.5,7.9-12.1,13.9-21.7,17.2c-8.6,2.9-15.8,9.2-22.1,16c-0.8,0.9-1.6,2-2.6,2.5 c-1,0.5-2.2,1.7-3.4,0.9c-1-0.7-0.9-2.1-0.6-3.1c1.2-3.7-4.2-6.1-1.9-9.9c8.2-5.2,16.4-10.6,25-15.2c3.4-1.8,6.9-3.2,10.5-3.9 c2.8-0.6,5-1.5,6.8-3.8c2.5-3.3,5.6-5.8,9.4-7.7c1.9-0.2,2.9-1.7,4.2-2.8c1.6-1.3,3.7-1.7,5,0c1.6,2-0.7,3.4-1.9,3.9 C321.3,302.1,319.9,304.7,317.7,306.7z"/><path class="st15" d="M240.6,498.8c-0.4-1.3-0.7-2.4,0.4-3.9c3-3.9,5-8.3,5.6-13.3c0.2,0,0.3,0,0.5,0.1c1.8,1.3,2.1,5.3,5.5,3.7 c3-1.4,1.7-4.4,1.8-6.8c0.2-4.2,0.3-8.5,0-12.8c-0.5-8.8,1.1-16.9,5.9-24.3c0.2-0.8,0.6-1.5,1.3-2c1.3,4.1,2.3,8.1,1.3,12.4 c-0.2,0.9-0.4,1.9-0.3,2.8c1.2,8-0.6,15.9-1.2,23.7c-0.5,6.2,2.2,11.7,3.5,17.4c0.4,1.9,1.2,3.6-0.1,5.3c-0.9,0-1.9-0.4-2.8-0.1 c-6.6,2.6-12.7,1.3-18.6-2.2C242.6,498.6,241.5,499.2,240.6,498.8z"/><path class="st16" d="M229.2,329.4c-11.2-8.7-23.7-14.6-37.7-17.2c-2.3-0.4-3.6-2-4.7-3.6c-4.3-5.8-11.2-8.1-16.6-12.6 c-1.2-1-2.9-1.1-4.5-1c-1.5,0.1-2.9,0-3.2-1.9c8.4-0.2,15.3,3.5,22.2,7.9c2.9,1.9,7,2.5,10.2,3.9c6.6,2.9,14.1,2.3,20.1,6.4 c1.8,1.2,3.7,0.7,5.5,1.5C228.3,315.9,229.7,322.1,229.2,329.4z"/><path class="st17" d="M261.4,441.6c-0.1,4.4-4.2,7-4.8,11.4c-1.5,9.6-0.4,19.2-0.7,28.8c-0.2,5.4-1.3,6.3-6.4,5.5 c-3.8-0.6-1.1-4.2-2.8-5.6c-0.2-3.9-0.3-7.9-0.5-11.8c-0.1-1.3,1-3.4-1.7-3.5l0.1,0.1c-1.7-1.9-0.5-4.1-0.5-6.1 c0.1-2.9,0-5.8,0.1-8.7c0.1-0.8,0.3-1.5,0.6-2.2c0.8-1.3,2.1-1.9,3.5-2.2c3.6-0.8,6.6-1.7,8-6.1 C257.3,437.7,259.8,440.4,261.4,441.6z"/><path class="st18" d="M316.7,300.7c-4,2.5-7.3,5.7-10,9.5c-2.4,3.4-6.4,1.9-9.5,3.1c-5.1,2-9.8,4.6-14.3,7.4 c-4.8,3.1-10.5,4.8-14.1,9.6c-1,1.3-2.3-0.5-3.5-0.1c-0.8-4.1,2.3-7.5,2.4-11.6c0-1.6,4.1-3.7,6.7-4.5c6.8-2,13.1-5.4,19.7-7.3 c4.6-1.3,9.1-2.9,13.7-4.2c2.7-0.8,3.6-4.5,6.9-4c0.9-0.5,1.8-0.8,2.7-0.3C318.5,299.7,317.5,300.2,316.7,300.7z"/><path class="st19" d="M260.6,310.1c-4.4,1.7-9.3-0.8-13.7,2.7c-6.8,5.3-10.4,11.9-11,20.4c-4.4-4-5.8-13-4.1-19.3 c2.2-8,8.4-10.8,14.6-11.2C252.8,302.2,258.3,303.2,260.6,310.1z"/><path class="st20" d="M245.5,460.4c-0.2,2-1.5,3.8-1.1,5.9c-2.6-0.3-1.6-2.3-1.7-3.7c-0.4-8.3-0.6-16.5-5.4-23.8 c-0.8-1.3-0.8-3.5-0.5-5.1c1.3-6.8,0.7-13.6-0.2-20.4c-0.5-3.8,2.5-6.6,2.3-10.5c-0.2-2.8,0.1-5.3-2.6-6.9c-3.2-2-3.9-5.4-4.8-8.7 c4.3,0.2,5.1,4.5,7.2,6.9c2.8,3.1,5.2,4,8.4,1.6c2.5-1.9,5.7-3,7.7-5.6c2.2-1.3,4.1-3.1,6.6-3.7l0.1-0.1c0.8-1.7,1.4-3.6,3.7-3.8 c2.9,1,3.1,3.3,2.8,5.8c-2.9-0.6-4.7,1.6-6.5,3c-5.4,4.2-12,6.5-17,11.1c-2.3,1.1-2.8,3.1-2.8,5.5c0.1,5,0,10-0.3,15 c0.2,1.7,0.4,3.5,0.3,5.2c-1.1,5.4-0.4,10.6,1.8,15.6c-0.4,2.2,2.8,3.1,2,5.4c-0.1,0.6-0.2,1.3-0.3,1.9 C244.6,454.2,244.4,457.3,245.5,460.4z"/><path class="st21" d="M241.2,428.3c-0.2-1.9-0.5-3.8-0.7-5.7c1.7-0.3,3.1-1.8,4.5-2c2.8-0.5,5.8-1.2,8.7,0.7 c2.1,1.3,4.6,2.2,6.9-0.1c0.3-0.3,0.7-0.5,1.1-0.6c1.6,1.6,0.5,3.3,0.1,4.8c-1.3,4.8-2.3,9.5-0.2,14.3c0,0.7-0.1,1.3-0.1,2 c-1.6,0.5-2.8-1-4.5-1.1c0.1,4.4-1.6,7.1-6.4,7.2c-1.6,0-3.2,1-4.8,1.5c-0.4-2-4-1.9-3-4.8c1.9-0.7,3.8-1.6,5.9-1.3 c2.4,0.3,3.8-1.1,4.9-3c1.2-2.2,0.4-4.2-1.1-5.6c-2.4-2.3-4.6-5.4-8.7-5.1C242.9,429.4,241.9,429.1,241.2,428.3z"/><path class="st22" d="M244.9,401.5c1.5-3.3,4.9-4.1,7.6-5.4c2.1-1,3.8-2.1,5.1-4c1.8-2.7,6-2.2,7.6-5.7c0.6-1.3,2.1,0.9,2.9,2 c-0.5,6.7-2.6,12.8-5.7,18.7c-2.1,4.1-1,8.9-0.7,13.4c0,0-0.3,0.2-0.3,0.2c-0.9,0-1.5-0.6-1.7-1.4c-1.8-6.5-3.6-13.1-2.1-20.5 C253.8,402.7,249.7,404.2,244.9,401.5z"/><path class="st23" d="M260.5,338.5c-2.1,6.2-5.6,11.5-9.9,16.4c-1.6,1.8-3.8,1.7-5.6,0.2c-5.1-4.4-8-10.2-10.1-16.5 c1.1,0.5,2-0.1,2.8-0.7c0,0-0.1-0.1-0.1-0.1c1.5,6.7,10.6,9.9,16.2,5.6C256.1,341.8,258.3,340.1,260.5,338.5z"/><path class="st24" d="M240.6,498.8c0.9-0.4,1.8-2.5,2.4-1.5c2.6,4,7.3,2,10.4,4.2c3.1,2.2,5.7-0.9,8.4-1.6c2.4-0.7,2.2,0.8,3,1.6 c-2.1,4.1-9.3,7.6-14,6.5c-2.4-0.6-4.9-1-7.1-1.8C240.8,505,239.7,502.1,240.6,498.8z"/><path class="st25" d="M316.7,300.7c0.3-0.6,0.6-1.2,0.9-1.8c0.8-1,0.8-2.3,1.9-3.1c8-1.9,15.4-4.9,21.7-10.4 c2.6,0.2,1.7,1.8,1.3,3.2c-2.4,4.3-5.6,6.9-10.7,8.6c-5.2,1.7-9.5,6.2-14.1,9.4c0.8-4.6,5.9-5.5,8.5-9c-2.4-1-4.2-1.1-5.2,1.1 C320.2,300.8,318.5,300.8,316.7,300.7z"/><path class="st26" d="M265.3,382.6c-1.6,1-1.7,3.3-3.7,3.8c-0.4-0.8-2-1.2-0.4-2.4c1.6-1.2,2.5-3,3.1-5 C265.8,379.8,265.3,381.3,265.3,382.6z"/><path class="st16" d="M162.4,297c1.8,0.4,4.5-1.4,4.9,2.2C165.7,298.4,163.1,299.8,162.4,297z"/><path class="st27" d="M230,99c2.2-3.1,4.1-6.4,6.6-9.2c1.3-1.4,2.1-5.9,5.7-2.2c0.1,0.2,1.3-0.6,2-1c10.1-6.7,10.5-13.5,1.2-22.3 c2.5-2,5.7-1.5,8.4-2.3c2.1-0.6,2.3,1.5,2.4,2.7c1.6,11.1,7.8,19.1,16.7,25.5c1.7,1.2,4,2.8,1.1,5.2c-4.3,2-6.9-2-10.4-2.8 c-3.3-1.9-6.3-1.8-9.2,1c-1.1,1.1-2.5,1.8-3.9,2.4c-2.3,0.2-3.9,1.5-5.3,3.1c-0.3,0.3-0.7,0.5-1.1,0.7c-1.8,0.3-3,1.5-3.9,3 c-0.3,0.3-0.6,0.6-1.1,0.7c-2.1,0.9-3.7-2.1-5.9-0.7c-0.4,0.1-0.8,0.3-1.3,0.4C228.3,103.1,228.1,102.9,230,99z"/><path class="st28" d="M322.6,142.7c0.3,0,0.5,0,0.8,0.2c5.5,3.4,5.6,3.8,2.1,9.4c-2.8,4.3-4.3,9-4.9,14c-0.8,1.6-1.9,2.6-3.7,1.1 c0,0-4.9-1-6.3-3.5c-1.4-3.2-2.2-6.6-3.4-9.8c-0.6,6.4-1,6.9-6,6c-0.6-0.1-0.8-1.1-1.6-0.7c-1.1,0.3-2,0.1-2.6-0.9 c-1.5-2.7-1.2-5.1,1.3-7.1c1.6-1.3,2.3-3.3,3.2-5.1c0.2-2.2,1.6-3.9,1.3-6.5c-0.5-3.9,3-5.4,6.5-3.3c2.4,1.4,6.5,1.6,5.7,6.1 c0.5,1.5,0.1,3.2,1.3,4.7C318.3,145.6,318.7,141.5,322.6,142.7z"/><path class="st29" d="M338.9,147.5c1,1.3,2.6,0.9,3.9,1.2c4.2,0.9,6.4,4.4,6.2,9.6c-1.9,2.6,0.1,5.4-0.8,8.3c-2,6.4-4.5,8.7-11,7.6 c-4.9-0.9-10-2-12.4-7.3c-0.4-0.9-1.5-1.9-1-2.5c3.3-4.1,1.4-9.7,4.4-13.8C331.3,148,334.7,146.1,338.9,147.5z"/><path class="st30" d="M284.4,127.5c2.8-1.5,5.2-3.8,8.8-1.2c2.9,2.1,4.4,4.1,2.9,7.7c-0.8,2-0.8,4.3-1.4,6.4c-1,3.5-1.3,7,0.8,10.2 c0.3,1.3-0.4,2-1.5,2.4c-2.4,0.7-4.7-0.1-6.9-0.9c-2.2-1.3-4.4-2.7-6.6-4c-1.3-2.7,1.3-3.9,2.7-6.7c-2,2.2-2.8,4-4.7,4.7 c-3.4-0.8-5.4-4.1-8.5-5.4c-1.3-1-3.4-1.6-2.8-3.8c0.6-2.1,2.1-3.9,4.2-4.1C276.3,132.3,280,129.2,284.4,127.5z"/><path class="st31" d="M260.6,133.2c-1.1-1.3-2.3-2.6-3.3-3.9c-0.9-1.2-3-1.9-1.9-3.8c1-1.8,2.1-3.7,4.6-3.5 c3.1,0.2,4.3-2.5,5.6-4.3c1.1-1.6-0.9-2.6-2.2-3.4c-2-1.1-3.1-2.6-1.4-5.2c-1.7,0.3-3.1,0.6-4.4,1.3c-1.4,1.8-3.6,2.6-4.1,5.6 c-0.7,4-4.7,4.5-7.5,1.3c-2.3-2.7-5-5.2-6.2-8.7c1.1-3.2,4.5-3.1,6.8-4.5c0.8-1,1.9-1.6,3.1-2.1c2.5-0.7,3.4-2.8,4.3-4.9 c0.2-0.4,0.5-0.7,0.8-1c4.2-2.9,5.1-2.8,8.1,0.9c2.1,2.5,4.1,5.1,6.3,7.5c1.1,1.2,2.6,2.4,1.7,4.4c-1,0.8-2.4,0.8-3.9,1.8 c1.8,1.1,4.1,1.4,4.3,3.8c0.2,2.5-1.3,4.3-2.8,5.8c-2.6,2.5-5.3,4.9-8.8,6.4c1,2.3,6.2,3.1,2.6,7 C261.8,133.8,261.1,133.8,260.6,133.2z"/><path class="st32" d="M262.4,133.5c0.5-1.9,1-3.6-1.8-4.4c-1.3-0.4-2.9-1.7-2.7-3.5c0.4-3,2.3,0.3,3.2-0.6c3.1-3,7.8-4.7,9.2-9.1 c1.5-4.7-3-3-5.2-4c0.8-3.6,3.5-3.4,6.1-3.5c3.4,0.9,5,4,7.4,6c0.9,0.9,1.6,2,2.6,2.6c4.1,2.4,5,5.2,1.4,8.7 c-0.9,1.8-1.4,4.1-4.2,2.2c-2.1-0.5-1.5-4.6-4.8-3.6c-1.6,2.3-3.4,4.4-4,7.4c-0.4,2.2-2.1,4-4.6,4.2 C263.3,136.3,262.3,135.2,262.4,133.5z"/><path class="st0" d="M174.9,137.1c0,0.3,0.1,0.7,0,0.9c-3.5,6.4-2.6,13.9-5.3,20.7c-1.6,4.1-2.3,8.6-4.3,12.7 c-2.7,1.3-5.5,2.4-8,3.9c-6.7,4-12,1.7-16.2-3.3c-6.2-7.6-8.5-16.6-9-26.3c-0.6-12.6,1.5-24.7,6.8-36.2c2.2-4.8,5.3-9,9.5-12.2 c5.6-4.3,12.7-2.3,16.4,4.4c5.6,10.1,7.3,21.3,9.2,32.4C174.1,135.1,173.9,136.3,174.9,137.1z"/><path class="st33" d="M235.3,370.9c7.6-2.5,14.7-5.8,21.5,0.2C249.9,376.8,242.8,375,235.3,370.9z"/><path class="st26" d="M261.4,386.4c-1.9,1.8-3.5,4-6.6,3.7C255.5,386.3,258.3,386,261.4,386.4z"/><path class="st34" d="M244.9,401.5c4.6,0.5,9,0.4,12.2-3.8c0.4-0.5,1-1.4,1.9-0.7c0.7,0.5,0.7,1.4,0.4,2.2c-3,7.6,0.4,14.5,2,21.7 c-1.3,3.7-3.9,4.3-8.3,1.8c-3.1-1.8-6-2.1-8.8,0.7c-1.4,1.4-2.5-0.5-3.7-0.7c-0.4-5.7-0.1-11.4,0.1-17.1 C240.8,402.5,241.7,400.9,244.9,401.5z"/><path class="st35" d="M241.2,428.3c6.2-0.9,10.1,2,13.4,7.1c2.1,3.1,0.3,4.9-0.9,6.7c-1.1,1.6-2.9,3.8-5.6,2.3 c-1.8-0.9-3.5,2.4-5.4,0.1C240.1,439.2,239.2,433.9,241.2,428.3z"/></g></svg> 