<?xml version="1.0" encoding="utf-8"?><svg version="1.1" id="Layer_1" xmlns="http://www.w3.org/2000/svg" xmlns:xlink="http://www.w3.org/1999/xlink" x="0px" y="0px" viewBox="0 0 512 512" style="enable-background:new 0 0 512 512;" xml:space="preserve"><style type="text/css"> .st0{fill:#FFFFFF;} .st1{fill:#030303;} </style><g id="layer1"><ellipse class="st0" cx="255.4" cy="256" rx="253.6" ry="253"/><path id="path6364" class="st1" d="M240.5,510.6c-1.1-0.2-4.4-0.5-7.3-0.7c-12.5-0.9-27.6-3.4-39.2-6.4c-14.3-3.7-24-6.9-35.1-11.5 c-10-4.1-15.1-6.5-23.7-11.1c-5.7-3-8.7-4.8-18.6-10.9c-2-1.3-14.3-9.9-16.6-11.7c-22.9-18-41.6-38-57.3-61.5 c-3.2-4.8-9.3-14.8-9.3-15.2c0-0.1-0.8-1.5-1.8-3.1c-1.6-2.7-3.5-6.4-8.6-17.1c-4.4-9.3-10.8-27-13.7-38 c-3.9-14.6-6.7-30.2-7.8-42.3c-0.3-3.6-0.7-7.5-0.8-8.6c-0.4-3.6-0.6-30.3-0.2-30.7c0.2-0.2,0.4-1.3,0.4-2.5c0-3.2,1-13.8,1.8-18.8 c5.4-34.8,14.7-61.8,31.3-91.1c4.8-8.4,12.1-19.6,17.1-26.1c1.6-2.1,3.4-4.4,4-5.2c5.7-7.8,23.2-26.2,32.2-33.8 c2.1-1.8,3.9-3.4,4.1-3.6c0.4-0.4,9.6-7.7,13-10.2c4.6-3.4,15.1-10.3,21.6-14.2c25.4-15.1,53.3-25.4,83-30.9 c9.4-1.7,13.8-2.4,20.7-3c3.6-0.3,7.7-0.7,9.2-0.9c3.6-0.5,28.4-0.5,32.8,0c1.9,0.2,6.7,0.7,10.6,1.1c7.4,0.7,8.5,0.9,19.1,2.8 c16.5,3,33.6,7.9,49.8,14.4C356,21.7,370,28.3,375,31c10.5,5.7,16.3,9.3,27.4,17c10.3,7.1,24.8,19.4,33.6,28.4 c8.4,8.7,11.2,11.8,20.5,23.2c2.4,3,11.1,15.2,13.2,18.5c14.1,22.7,23.9,44.3,30.2,66.3c1.5,5.2,4.2,15.7,5,19.8 c3.5,16.1,6.1,43.9,5.4,57.6c-0.9,17.9-2.9,35.1-5.7,47.5c-6.4,29.1-16.7,54.8-31.7,79.7c-9.3,15.3-21.8,31.5-34.9,45.1 c-8.6,8.9-22.3,20.8-31.9,27.7c-2.4,1.7-5.3,3.9-6.6,4.8c-1.2,0.9-4.9,3.3-8.1,5.2c-3.2,2-6.3,3.9-6.7,4.2c-1.5,1.1-9.2,5.1-16.7,9 c-8.5,4.3-23.1,10.3-31.7,13.1c-19.5,6.4-38.3,10.4-56.5,11.9c-3.6,0.3-7.9,0.7-9.6,0.9C266.7,511,243.4,511,240.5,510.6 L240.5,510.6z M270,507c77.6-4.7,147.8-43.9,192.3-107.3c24.5-35,39.7-75.8,44.1-118.5c1.8-17.4,1.7-36.9-0.4-54.7 c-4.4-38.7-18.5-77.2-40.3-110.1c-9.6-14.4-19.1-26-31.8-38.7c-20.3-20.2-40.8-35-66.3-47.7c-5.9-2.9-7.7-3.7-15.5-7.1 c-24-10.2-52.7-16.8-80.4-18.7c-8.2-0.5-31.9-0.2-39.4,0.5c-37,3.7-70.7,14.4-102.5,32.6c-7.5,4.3-20.9,13.2-27.6,18.4 c-39.2,30.5-67.9,70-84.4,116.4c-7.3,20.6-11.6,41-13.6,65c-0.6,7.1-0.6,30,0,37.1c2.9,34.5,11.2,64.3,26.2,94.2 c11.4,22.7,25.7,43,43,61c7.6,7.9,19.8,19.2,22,20.3c1,0.5,1-0.3-0.1-2.3c-1.1-2.1-1.1-6.5,0-9.1l0.8-1.9l-1.8-2.3 c-2.7-3.4-3.6-5.6-3.8-9.3c-0.2-4.7,1.1-8.1,4.9-12.5c1.9-2.3,5.6-5,8-5.9c2.8-1.1,8.5-0.9,11.3,0.2c1.2,0.5,2.4,0.9,2.7,0.9 c0.3,0-3.1-3.5-7.4-7.7c-18.8-18.3-31.3-35.3-42.2-57.6c-10.2-20.8-16.1-41-19.2-65.7c-1.1-8.6-1.3-30.2-0.5-38.6 c3.3-32.4,12.1-59.5,27.7-85.5c32-53.3,86.6-89.5,148.7-98.7c12-1.8,15.5-2,32.2-2c16.8,0,19,0.1,31.5,2 c61.7,9.2,116.1,45,148.1,97.6c10.6,17.3,18.1,35.4,23,54.7c4.2,16.9,5.9,30.9,5.9,48.8c0,31.9-6.5,59.6-20.5,88.2 c-7.5,15.2-15,26.8-26.4,40.5c-4.9,6-18.7,19.8-24.8,24.9c-17.2,14.5-36.9,26.3-57.3,34.5c-18.5,7.4-35.7,11.7-57.4,14.3 c-7.8,0.9-37.5,0.9-45.2,0c-21.5-2.6-38.5-6.8-57.4-14.4c-6.7-2.6-21.1-9.7-27.4-13.4c-6.1-3.6-14.9-9.5-19.4-12.9 c-5-3.8-6.3-4.7-6.6-4.4c-0.1,0.1,0,0.6,0.3,1c3.2,4.9,3.8,7,3.5,11.2c-0.3,3.7-2.4,7.7-5.9,11.2c-5.9,5.9-13.1,7.4-19.6,4.2 c-1.2-0.6-2.3-1.1-2.6-1.1c-1.5,0-1.7,3.9-0.4,6.7c1.1,2.3,3.6,5.1,6.1,6.6c2.2,1.4,1.7,1.7-1.7,1c-4.2-0.8-3.5,0.1,4.7,6 c25.7,18.8,56.9,33.4,87.8,40.9c14.6,3.6,31.2,6.2,45.2,7C247.2,507.4,263.1,507.4,270,507L270,507z M243.3,497.9 c-4.8-1.4-7.3-4.8-7.3-10c0-7.4,4.1-12.1,11-12.5c3-0.2,7.4,0.7,7.7,1.6c0.1,0.3-0.2,1.6-0.6,3.1c-0.9,2.9-0.9,2.9-2-0.9 c-0.7-2.4-1.3-2.8-4.1-2.8c-4.5,0-7.8,3.7-8.2,9.3c-0.4,4.4,1.2,7.9,4.2,9.4c1.7,0.9,6,1.5,7.9,1.2c2-0.3,1.8,0.4-0.3,1.1 C249.3,498.3,245.3,498.5,243.3,497.9L243.3,497.9z M260.1,497.1c1.1-1.1,1.1-1.1,1-4.1c-0.1-1.7-0.5-8.6-0.8-15.4 c-0.4-7.9-0.8-12.5-1.1-12.8c-0.2-0.3-0.9-0.6-1.5-0.7s-1-0.3-0.9-0.4c0.4-0.4,6-1.8,6.1-1.6c0.1,0.1,0.2,2.6,0.4,5.4 c0.4,8.4,0.6,10.1,1.2,10.1c0.3,0,1.4-0.5,2.4-1c3.6-2.1,7.8-2.2,10.3-0.4c1.7,1.2,2.2,3.1,2.6,10.8c0.2,3.9,0.5,7.4,0.7,7.9 s0.9,1,1.5,1.3l1.2,0.4l-2,0.2c-1.1,0.1-3.1,0.2-4.5,0.2c-2.1,0-2.4-0.1-1.5-0.4c0.6-0.2,1.1-0.7,1.2-1.3c0.1-0.5,0.1-3.9-0.1-7.6 c-0.4-7.4-0.7-8.5-2.7-9.8c-2.1-1.3-8.7-0.5-9.4,1.2c-0.3,0.7,0.5,15.7,0.9,16.7c0.2,0.5,0.6,0.9,1,1c1.1,0.3,0.9,0.8-0.3,0.8 c-0.6,0-2.3,0.1-3.9,0.2l-2.8,0.2L260.1,497.1z M222.9,495.7c-2.7-1.2-2.8-2.9-1.2-13.1c0.6-3.8,1-7.1,0.9-7.4s-0.6-0.7-1.2-1 l-1-0.5l1.4-0.2c1.3-0.2,1.5-0.3,2.7-2.9c1-2,1.5-2.7,2.1-2.8c0.9-0.1,1,0.1,0.5,3.3c-0.2,1.4-0.2,2.3,0,2.6 c0.2,0.2,1.7,0.6,3.4,0.9c1.7,0.2,3.1,0.6,3.3,0.8c0.5,0.8-0.5,0.9-3.6,0.6c-2.1-0.3-3.3-0.3-3.5,0c-0.4,0.4-2.5,12.9-2.5,15 c0,2.6,1.1,3.5,5,4l2,0.3l-1.4,0.5C227.9,496.3,224.3,496.3,222.9,495.7L222.9,495.7z M208,492.9c-3.5-0.7-4-1.1-2.1-1.5 c0.9-0.2,1.1-0.5,1.4-1.6c0.8-3.1,3.3-14.9,3.3-15.8c0-0.6-0.3-1.1-1.1-1.5c-0.6-0.3-1.1-0.7-1.1-0.9c0-0.1,1.5-0.3,3.3-0.3h3.3 l-0.2,1c-0.1,0.5-0.5,2.5-1,4.4c-1.5,6.6-2.9,13.4-2.9,14.4c0,0.7,0.3,1.2,1,1.7C213.2,493.9,212.7,493.9,208,492.9L208,492.9z M194.9,490.4c-0.4-0.2-1-1-1.3-1.8c-0.5-1.3-0.7-1.4-1.6-1.2c-4.4,1-7.5,0.5-9.8-1.5c-2.4-2.1-3.1-3.7-3.1-7.5 c0-2.9,0.1-3.5,1.1-5.6c1.5-3.1,3-4.8,5.5-6c2.7-1.3,6.6-1.4,10.5,0c2.1,0.7,2.8,0.8,3.1,0.5c0.5-0.5,3-8.5,3-9.6 c0-0.5-0.4-1.2-1-1.7l-1-0.8l3.1,0.2c3.5,0.3,3.7,0.4,3.4,1.2c-0.4,0.9-4.9,15.4-7.3,23.2c-1.2,3.9-2.2,7.6-2.2,8.2 c0,0.7,0.4,1.4,1,1.9l1,0.9h-1.8C196.4,490.8,195.3,490.6,194.9,490.4L194.9,490.4z M193.2,486.5c0.5-0.3,5.4-15.5,5.5-16.7 c0-0.8-3.1-2.3-5.6-2.6c-2.8-0.4-4.8,0.3-6.7,2.3c-2,2.1-3.2,5-3.5,8.4c-0.3,4.5,1.6,7.4,5.7,8.6 C189.8,486.9,192.6,486.9,193.2,486.5L193.2,486.5z M314.7,489.4l1.2-1l-3.7-12.9c-5-17.4-4.6-16.3-6.7-16.3 c-1.8,0-0.6-0.6,6.1-2.7c5.6-1.8,6.9-2.1,9.4-2.1c2.7,0,3.1,0.1,4.7,1c2.6,1.6,3.6,3.7,3.6,7.9c0,3-0.1,3.4-1.1,5 c-1.5,2.4-4,4.1-8.1,5.4c-2.7,0.9-3.5,1.3-3.6,1.9c-0.1,0.7,2.2,9.4,2.9,10.7c0.5,1,1,1.2,2.6,1.3c2,0,1.2,0.4-3.5,1.8 C313.7,490.7,313.2,490.7,314.7,489.4L314.7,489.4z M320.7,472.4c3.1-1.3,5.1-4.1,5.1-7c0-1.8-1.2-5.4-2.4-6.9 c-1.4-1.8-3.7-2.8-6.1-2.5c-2.3,0.3-5.1,1.2-5.7,1.9c-0.5,0.6-0.5,0.4,2.2,9.8c0.8,2.9,1.6,5.4,1.7,5.5 C315.9,473.8,318.7,473.3,320.7,472.4L320.7,472.4z M168.6,481.6c-0.9-0.4-1.3-0.9-1.6-2c-0.2-0.8-0.5-1.5-0.7-1.5 c-0.1,0-1.7-0.1-3.5-0.1c-3.6-0.1-4.9-0.6-7.1-2.7c-4.6-4.4-2.2-14.7,4.2-18c3.4-1.7,8.1-1.4,12.4,0.8c1,0.5,2,0.9,2.3,0.9 s1.3-1.7,2.4-4.2c2.5-5.6,2.5-5.7,1.3-6.8l-1-0.9h0.9c2.2,0.1,5.5,0.9,5.5,1.4c0,0.3-2.4,5.6-5.2,11.9c-8.9,19.8-8.7,19.2-7.2,20.7 l0.8,0.9h-1.2C170.3,482.1,169.2,481.9,168.6,481.6L168.6,481.6z M166.9,477.2c0.2-0.1,2-3.7,3.9-8c3.1-6.9,3.4-7.8,3-8.5 c-0.7-1-3.2-2.3-5.7-2.8c-1.8-0.4-2.3-0.3-3.7,0.2c-2.3,0.9-3.8,2.3-5.2,4.8c-2.9,5.4-2.6,9.9,0.9,12.5 C161.9,477,165.8,477.9,166.9,477.2L166.9,477.2z M339.8,480.5c-1.1-0.6-2.3-2.4-2.6-4c-0.7-3.2,1.6-6.1,7-8.9c1.8-1,3.3-2,3.3-2.2 c0-1.1-1.9-4.1-3-4.8c-2-1.2-4.9-0.5-9.2,2.2c-1.3,0.8-1.4,0.1-0.3-1.1c1.6-1.7,4.5-3.4,6.7-4.1c1.7-0.5,2.3-0.5,3.7-0.2 c2.5,0.6,3.6,2.2,6.5,9.2c2.8,6.9,3.4,7.8,5.2,7.5c1.6-0.3,1.5,0.2-0.5,1.5c-1.9,1.3-2.6,1.4-4.1,0.6c-1-0.5-1.1-0.5-1.6,0.1 c-0.3,0.4-0.9,1.2-1.5,1.8c-1.4,1.7-4.3,3-6.7,3C341.6,481.1,340.3,480.8,339.8,480.5L339.8,480.5z M348.4,477.3 c1.1-0.5,2.2-1.3,2.5-1.8c0.5-0.8,0.4-1.1-0.9-4.3c-0.8-1.9-1.6-3.7-1.8-3.9c-0.5-0.5-2,0.2-4.7,1.9c-3.2,2.1-3.9,4-2.5,6.8 C342.3,478.7,344.7,479.1,348.4,477.3L348.4,477.3z M361.6,471.3c-0.4-1.3-0.9-3.4-0.9-4.1c0-0.6,0.3-0.4,1.7,1c2,2,2.6,2.1,5,0.8 c2.8-1.5,4-2.9,4-4.6c0-2.8-1.9-4.1-5.7-3.7c-7.1,0.7-7.4,0.7-8.7-0.1c-0.7-0.4-1.6-1.4-2.1-2.3c-1.6-3-0.4-6.5,2.8-8.8 c1.8-1.2,6.4-3.2,7-2.9c0.5,0.2,1.8,4.1,1.5,4.5c-0.1,0.1-0.8-0.4-1.6-1.1c-1.6-1.6-2.2-1.6-4.7-0.4c-3.4,1.7-4.6,4.8-2.8,6.9 c1,1.1,1.9,1.2,9.2,0.7c3.2-0.2,4-0.2,4.9,0.3c1.4,0.7,2.6,3.2,2.6,5.1s-1.7,4.8-3.5,6C367.3,470.8,362,472.5,361.6,471.3 L361.6,471.3z M142.2,468.5c-3.5-2-3.7-2.1-2.5-2.1c0.8,0,1.5-0.3,1.9-0.6c0.5-0.6,7.4-12.8,8.3-14.7c0.4-0.8,0.3-1-0.4-1.8 c-0.5-0.5-0.8-1-0.7-1.1c0.2-0.2,5.4,1.2,5.8,1.6c0.1,0.1-0.4,1.4-1.2,2.8s-2.6,4.6-4.1,7.2c-4.6,8.3-4.8,8.7-3.4,10.1 C147,471.1,146.3,470.8,142.2,468.5L142.2,468.5z M213.3,463.7c-1-0.7-0.7-3.1,0.5-3.8c2.1-1.2,4.3,1.7,2.6,3.6 C215.8,464.3,214.2,464.4,213.3,463.7L213.3,463.7z M131.8,463.1c-1.7-0.8-2-1.2-2.3-3.1l-0.2-1.4l-2.7-0.4c-2.9-0.5-4.3-1-6.1-2.5 c-1.6-1.3-2.2-2.7-2.2-4.8c0-2.3,0.3-2.8,4.9-9.7l3.7-5.5l-0.7-1.2c-0.5-0.8-0.6-1.2-0.3-1.2c0.7,0,5.5,2,5.4,2.3 c0,0.1-1.4,2.3-3.1,4.7c-5.5,7.9-6.4,9.4-6.4,11.5c0,1.6,0.1,1.9,1.6,3.3c1.5,1.5,4.2,2.7,5.9,2.7c0.9,0,1.4-0.5,6.5-8.1 c1.9-2.8,3.4-5.3,3.4-5.6c0-0.3-0.4-1-0.8-1.6c-0.9-1.2-1.2-1.2,3.1,0.5c1.3,0.5,2.4,1.1,2.4,1.2s-0.5,0.9-1.1,1.7 c-2.7,3.8-9.5,13.9-9.8,14.8c-0.3,0.7-0.2,1.1,0.4,1.9c0.4,0.5,0.7,1.1,0.7,1.2C134.2,464,133.3,463.8,131.8,463.1L131.8,463.1z M378.8,459.4c-0.4-1.2-0.7-2.3-0.6-2.4s0.9,0.4,1.7,1.1c2.3,1.8,2.3,1.8,4,1.1c4.6-2,6.2-5.9,3.5-8.2c-1.3-1.1-3.3-1.2-6.4-0.4 c-3.9,1-5.6,1.1-7.2,0.2c-1.7-0.9-2.9-3.1-2.9-5c0-2.9,2.7-6.2,6.6-8.1c3.1-1.5,3.4-1.4,4.4,1c0.5,1.2,0.8,2.2,0.7,2.2 c-0.1,0.1-1-0.5-2-1.2l-1.9-1.3l-1.4,0.6c-1.6,0.7-4,2.9-4.4,4.1c-0.6,1.5-0.4,2.3,0.9,3.5c1.5,1.5,2.5,1.5,6.4,0.5 c3.7-1,7.5-1,8.8,0c3.1,2.4,2.6,7.4-0.9,10.6c-1.6,1.5-6.2,3.8-7.6,3.8C379.6,461.6,379.4,461.3,378.8,459.4L378.8,459.4z M395.4,449.2c-1.5-0.7-3-2.7-3.3-4.5c-0.3-2.5,0.7-4.4,4.3-8.1c1.7-1.8,3.2-3.5,3.2-3.7s-0.7-1.1-1.6-2c-2.9-2.9-5.3-2.6-9.3,1.2 c-3.7,3.5-3.9,2.3-0.4-2c2.4-2.9,4.6-4.2,7.1-4.2c2.7,0,3.9,0.9,7.7,5.8c6.1,7.8,5.7,7.5,7.5,7.3c0.9-0.1,1.6-0.1,1.6,0.1 c0,0.1-0.6,1-1.4,1.8c-1.4,1.5-1.5,1.5-3.1,1.3l-1.6-0.2l-0.8,1.9c-1.2,2.6-2.4,4-4.6,5.1C398.5,449.9,397.1,450,395.4,449.2 L395.4,449.2z M401,446c1.7-0.7,4.8-3.7,4.8-4.7s-4.5-6.7-5.3-6.7s-4.8,4.1-5.4,5.7c-0.8,1.9,0.5,4.8,2.6,5.7 C399,446.6,399.4,446.6,401,446L401,446z M156.2,442.5c-1.9-1-1-4.2,1.3-4.2c1.1,0,2.3,1.2,2.3,2.2c0,0.8-1.5,2.5-2.2,2.5 C157.3,442.9,156.7,442.7,156.2,442.5L156.2,442.5z M415.8,431.7c-0.5-0.2-3.3-2.8-6.3-5.7c-3-3-5.5-5.4-5.7-5.4 c-0.1,0-0.7,0.2-1.3,0.5c-0.6,0.3-1.1,0.4-1.1,0.3c0-0.4,3-5.2,3.3-5.2c0.1,0,2.7,2.5,5.8,5.6c3,3.1,6,5.9,6.6,6.2 c2.3,1.2,4.6,0.5,6.9-2.1c1.2-1.3,2.4-3.4,2.4-4.2c0-0.6-11.4-11.6-12-11.6c-0.4,0-1,0.2-1.4,0.4c-0.4,0.2-0.8,0.3-0.8,0.3 c-0.1-0.1,0.5-1.1,1.3-2.3c0.8-1.2,1.6-2.4,1.8-2.7c0.3-0.4,1.9,1,7.5,6.6c4.4,4.4,7.4,7.1,7.9,7.1c0.4,0,1.1-0.3,1.5-0.6 c1.2-0.8,1.1,0.1-0.3,1.9c-1.1,1.5-1.4,1.7-3.5,1.5c-1.3-0.1-1.2-0.2-2.5,3.4c-0.7,2-3.2,4.9-5,5.7 C419.3,432.2,417.2,432.3,415.8,431.7L415.8,431.7z M18.3,199.3c-1.3-0.3-2.5-0.7-2.6-0.8c-0.3-0.3,7.8-26.2,8.4-26.8 c0.2-0.2,1.6,0.4,3.3,1.3l3,1.6l-3.1,0.2l-3.1,0.2l-1.3,3.9c-0.7,2.1-1.2,4.1-1.1,4.4c0.2,0.5,2.5,1.3,13.3,4.6 c3.6,1.1,8.1,2.5,10.1,3.1c4.6,1.4,5.3,1.4,6.3,0c0.4-0.6,0.9-1,1-0.9s-0.5,2.3-1.4,5c-1.5,4.7-1.5,4.8-1.8,3.3 c-0.1-0.8-0.4-1.7-0.6-1.9c-0.6-0.6-26.8-8.7-27.8-8.5c-0.8,0.1-1,0.5-2.1,3.7c-0.6,2-1.2,3.9-1.2,4.2s1,1.4,2.3,2.3 c1.3,0.9,2.3,1.8,2.3,1.8C22.2,200,20.5,199.8,18.3,199.3L18.3,199.3z M463.9,198.2c-0.7-0.5-1.7-1.3-2.2-1.9 c-2.2-2.4-4.1-7.9-4.2-11.9l-0.1-2.4l3.4-0.6c1.9-0.4,3.5-0.6,3.6-0.5c0.2,0.2,0.4,0.1-2.8,2.1l-2.7,1.7l0.2,2.7 c0.2,2,0.5,3.2,1.3,4.8c1.5,2.8,2.8,3.8,5.4,4c2.3,0.2,3.5-0.3,5.3-2.1c1.4-1.4,1.7-2.6,2.6-8.5c0.8-5.2,1.1-6.2,2.4-8.1 c2.2-3.1,7.7-4.2,11-2.1c2.9,1.8,4.8,5.6,6,11.4c0.5,2.6,0.5,3.1,0.1,3.4c-0.6,0.4-5.7,0.9-6,0.6c-0.1-0.1,0.8-0.8,2-1.5 c1.4-0.8,2.3-1.6,2.4-2.2c0.3-1.2-0.4-4.6-1.3-6.3c-2.1-4.1-7.2-4.8-10.2-1.5c-1.6,1.7-2.2,3.8-3,9.2c-0.6,4.6-1.1,6.1-2.6,8.1 c-1.4,1.8-3.4,2.6-6.6,2.6C465.6,199.1,465,199,463.9,198.2L463.9,198.2z M57,175.4c0.2-1,0.1-1.4-0.4-1.9 c-0.6-0.5-25.8-13.3-26.2-13.3c-0.1,0-0.8,0.4-1.5,0.9s-1.2,0.8-1.2,0.6s1-2.1,2.2-4.3c2-3.6,2.1-3.9,2.1-2.7 c0,0.8,0.3,1.5,0.6,1.9c1.2,1,10.2,5.4,11,5.2c0.6-0.1,1.6-1.7,4.6-7.7c2.1-4.2,3.9-7.8,3.9-8c0-0.6-10.5-5.9-11.6-5.9 c-0.5,0-1.1,0.3-1.5,0.7c-1.2,1.4-0.9,0.4,1.1-3.7l2.1-4.1l0.2,1.6l0.2,1.6l12.6,6.3c6.9,3.5,12.9,6.5,13.4,6.6 c0.5,0.2,1.1,0,1.9-0.7c0.6-0.5,1.1-0.8,1.1-0.7s-0.9,2-2.1,4.3c-2,3.8-2.1,4-2.2,2.8c-0.1-0.7-0.3-1.5-0.5-1.7 c-0.6-0.8-12.5-6.6-13-6.4c-0.6,0.2-8.1,14.8-8.1,15.8c0,0.5,1.4,1.4,6.2,3.7c3.4,1.7,6.5,3.1,6.9,3.1s1.1-0.4,1.6-0.8 c0.5-0.5,0.8-0.6,0.8-0.3c0,0.5-3,6.4-3.8,7.4C56.8,176.6,56.8,176.6,57,175.4L57,175.4z M453.1,173.8c-0.3-0.7-0.1-0.9,7.8-17.8 c3.5-7.4,6.3-13.7,6.2-13.9c-0.1-0.4-0.4-0.4-1-0.2c-2.6,1-20.7,10.1-21.3,10.6c-0.5,0.5-0.6,1-0.4,1.9c0.1,0.7,0.1,1.2,0,1.2 c-0.2,0-3.4-6.3-3.4-6.7c0-0.1,0.5,0.2,1.1,0.7s1.3,0.9,1.6,0.9c0.3,0,6.4-3,13.6-6.6l13.1-6.6l0.2-1.6l0.2-1.6l1.2,2.5l1.2,2.5 l-0.7,1.6c-0.4,0.9-3.4,7.3-6.7,14.2c-3.3,6.9-6,12.9-6,13.2s0.2,0.6,0.5,0.6s5.1-2.3,10.6-5l10.1-5V157v-1.7l1.7,3.4 c1,1.9,1.7,3.5,1.6,3.6s-0.5-0.2-1-0.6c-0.5-0.4-1.2-0.8-1.7-0.8s-6.7,2.9-13.9,6.5c-7.2,3.6-13.4,6.6-13.8,6.7 C453.6,174.2,453.3,174.1,453.1,173.8L453.1,173.8z M76.1,140.4c0.2-1.6,0.2-1.7-1.3-2.9c-3.1-2.5-22-16.1-22.4-16.1 c-0.2,0-0.9,0.3-1.6,0.7c-0.6,0.4-1.2,0.6-1.2,0.5s0.7-1.1,1.6-2.2c0.9-1.1,2.4-3.2,3.4-4.7c2.4-3.6,4.9-6.3,6.8-7.4 c1.4-0.8,1.9-0.9,3.8-0.8s2.6,0.4,3.9,1.4c3,2.1,4.2,5.7,3.1,9.5c-0.3,0.9-0.3,1.5,0,1.8c0.5,0.5,12.1,1.4,15.4,1.3 c1.6-0.1,2.9-0.4,3.5-0.8c0.5-0.4,1.1-0.5,1.2-0.4c0.3,0.3-2.2,3.5-3.4,4.3c-1.3,0.8-6,0.9-12.1,0.1c-5.9-0.7-6.1-0.7-7.6,0.6 c-2.1,1.8-1.8,2.2,3.5,6.1c6.2,4.5,6.3,4.6,7.5,3.8c0.5-0.3,1.1-0.6,1.2-0.6c0.2,0-4.4,6.4-5.2,7.4C76,141.9,76,141.4,76.1,140.4 L76.1,140.4z M68.3,124.4c4-5.6,3.2-9.9-2.6-12.9c-3.2-1.6-6.4-0.6-9.1,3c-2.2,2.8-2.2,3,1.2,5.5c6.1,4.6,7.9,5.9,8.7,5.9 C66.9,126,67.5,125.5,68.3,124.4L68.3,124.4z M435,136.5c-4-1.4-8.1-5.3-10.4-10c-1.3-2.7-1.4-2.9-1.4-6.5c0-3.5,0.1-3.9,1.2-6.2 c1.4-2.9,3.5-5.3,6.4-7.4c7.7-5.5,15.5-5.4,21.8,0.4c6.8,6.3,8.5,15.1,4.1,21.4c-2.2,3.2-6.9,6.7-10.9,8.1 C442.7,137.4,437.8,137.5,435,136.5L435,136.5z M440.9,134.3c5.5-1.9,12.6-7.8,14.7-12.1c0.9-1.8,1.1-2.6,1.1-4.9 c0-3.4-1-5.8-3.8-8.8s-4.2-3.7-7.9-3.7c-2.9,0-3.3,0.1-6.1,1.5c-5.7,2.8-10.7,7.5-12.7,11.8c-1.2,2.6-1.1,6.2,0.1,8.9 c1,2.1,3.2,4.8,5.1,6.1C434,135.2,437.5,135.5,440.9,134.3z M95.5,115.5c0.3-0.6,0.4-1.5,0.2-1.8c-0.1-0.3-4.8-5.1-10.5-10.6 c-10.8-10.5-10.5-10.3-12.8-9.3c-1.4,0.6,0.1-1.1,7.3-8.2l7.2-7.2l1.8,2.5c1,1.4,1.7,2.5,1.5,2.6s-1.1-0.3-2-0.8s-1.9-0.9-2.3-0.9 c-0.6,0-8.3,7.5-8.3,8.1s9.2,9.5,9.8,9.5c0.8,0,6.1-5.5,6-6.3c0-0.4-0.2-1.1-0.5-1.6c-1.2-2.1-0.3-1.8,2.5,1.1 c1.7,1.7,3,3.1,2.9,3.2s-0.8-0.2-1.7-0.6c-1.2-0.6-1.7-0.7-2.3-0.4c-0.9,0.4-5.6,5.5-5.6,6.1c0,0.7,9.6,9.8,10.3,9.9 c0.9,0,8.4-7.8,8.4-8.7c0-0.3-0.4-1.7-0.9-3.1c-0.5-1.3-0.8-2.5-0.7-2.6c0.3-0.3,4.5,4.4,4.5,5c0,0.5-14.7,15.5-15.2,15.5 C95.1,116.7,95.2,116.2,95.5,115.5L95.5,115.5z M408.7,108.2c-8.9-6.1-12.5-14.8-9.2-22.2c1.7-3.8,6.3-8.4,10.1-10 c6.2-2.7,13.6-1,19.3,4.3c2,1.9,5.3,5.7,5.3,6.2c0,0.4-5,4.1-5.3,3.8c-0.1-0.1,0.3-1.2,0.9-2.3c0.6-1.2,1.1-2.4,1.1-2.7 c0-1.7-4.7-6.3-7.7-7.5c-6-2.5-13.5,0.9-18.6,8.2c-3.9,5.6-4.2,11.4-0.9,16.3c1.4,2,4.7,4.8,5.7,4.8c0.3,0,2.2-1.7,4.2-3.8 c3.7-3.9,4.1-4.7,3.2-6.3c-0.2-0.4-0.3-0.8-0.3-0.9c0.1-0.1,1.7,1.3,3.5,3.1c1.9,1.8,3.1,3.1,2.7,3c-2-0.7-2.1-0.6-6.5,3.8 c-2.4,2.4-4.4,4.3-4.5,4.3C411.7,110.2,410.3,109.3,408.7,108.2L408.7,108.2z M116.2,96.3c0-0.2,0.2-0.6,0.5-1s0.5-1,0.5-1.3 c0-0.8-17.5-23.2-18.3-23.5c-0.4-0.1-1.1,0-1.7,0.2c-1.7,0.6-1.4,0.1,1-1.7c1.2-1,5.1-3.9,8.5-6.5s6.3-4.8,6.5-4.8s0.9,1.2,1.6,2.7 s1.2,2.7,1.1,2.7s-1.1-0.6-2-1.3c-1-0.7-2-1.3-2.2-1.3c-0.8,0-9,6.7-8.9,7.3c0.1,0.7,7.3,10.2,8,10.5c0.4,0.2,5.4-3.4,6.7-4.8 c0.7-0.8,0.7-1-0.3-3.4c-0.6-1.4,0.5-0.4,2.9,2.7c2.3,3,2.6,4,0.7,2.5c-0.5-0.4-1.3-0.7-1.7-0.7c-0.7,0-6.4,4-6.9,4.9 c-0.3,0.6-0.5,0.3,4.4,6.6c2,2.6,3.9,4.9,4.2,5c0.4,0.2,5.1-3.2,8.8-6.3l1.2-1l-0.6-3c-0.3-1.6-0.5-3.1-0.5-3.2 c0.2-0.2,3.9,5.1,3.9,5.6c0,0.2-0.5,0.7-1.2,1.2c-0.9,0.6-13,9.8-15.7,11.9C116.4,96.5,116.2,96.5,116.2,96.3L116.2,96.3z M385.5,87.2c-4.3-2.8-4.8-3.3-3-3c1,0.2,1.3,0.1,1.8-0.7c0.7-1.1,2.8-8.8,2.7-9.8c-0.1-0.5-1.6-1.8-4.8-3.9 c-2.6-1.7-4.9-3.2-5.1-3.2s-2.3,1.3-4.7,3c-4.5,3.1-5.1,4-3.9,5.3s0.3,1-3-1.1c-1.8-1.2-3.5-2.1-3.7-2.1s-1.5-0.5-2.7-1.1 c-3.6-1.7-4.1-2.9-4.8-13.4c-0.2-3.3-0.6-5.7-0.9-6.3c-0.6-1.1-2.8-2.4-3.5-2c-0.5,0.3-6.1,11.7-6.1,12.4c0,0.3,0.4,0.8,0.8,1.3 s0.7,0.9,0.6,1c-0.2,0.2-8.2-3.6-8.2-4c0-0.1,0.4-0.1,0.9,0c1.9,0.5,2.3,0,5-5.7c1.4-3,3.8-7.9,5.2-10.9c3.4-7,4.7-9.9,4.7-10.4 c0-0.2-0.4-0.8-0.8-1.2c-0.4-0.5-0.7-0.9-0.6-1c0.2-0.2,10.9,4.5,13.1,5.8c3.2,1.9,5.2,5.2,4.6,7.8c-0.3,1.5-1.5,3.8-2.4,4.9 c-1.3,1.5-3.5,2.3-6.3,2.5c-1.6,0.1-2.7,0.3-2.8,0.6c-0.2,0.5,0.7,10.3,1.3,13.6c0.5,3.1,1.3,4.4,3,5.3c2,1,3.2,0.9,5.1-0.2 c0.9-0.5,7.2-4.6,14.2-9.2c6.9-4.5,12.9-8.3,13.3-8.3c1.5,0,1.5,0.8,0,6.3C389,80.7,388,85,388,86c0,0.6,0.3,1.7,0.7,2.4 c0.4,0.7,0.7,1.2,0.6,1.2C389.3,89.7,387.5,88.6,385.5,87.2L385.5,87.2z M387.9,70.7c0.6-1.5,3.4-12.5,3.2-12.8 c-0.4-0.6-1.4-0.2-6.6,3.4c-3.4,2.3-5.4,3.9-5.4,4.3c0,0.6,7.3,5.7,8.2,5.7C387.5,71.3,387.8,71,387.9,70.7z M361,49.4 c2.5-1.5,4.8-6.2,4.3-8.9c-0.3-1.8-2.7-4.2-5.2-5.3c-1.2-0.5-2.4-0.9-2.8-0.9c-0.6,0.1-6.5,11.4-6.5,12.6c0,0.8,0.7,1.3,3.1,2.3 C356.4,50.3,359.4,50.4,361,49.4L361,49.4z M150.6,71.9c0.1-0.2,0.5-0.7,0.8-1.1s0.4-0.9,0.3-1.6c-0.1-0.6-3-6.6-6.4-13.4 l-6.2-12.4l-1.5-0.2L136,43l6.6-3.3c7.4-3.7,9.8-4.5,12.5-3.7c2.9,0.8,5.4,4.4,5.4,7.9c0,1.6-1,3.9-2.6,5.9 c-1.1,1.4-1.1,1.4-0.5,2.1c0.8,0.8,9.8,6.4,12,7.6c0.9,0.5,2.5,0.9,3.6,1.1l2,0.2l-2,1c-4.1,2-4.8,1.8-13.1-3.7 c-3-2-5.8-3.7-6.3-3.8c-1.1-0.3-3.5,0.6-3.8,1.4c-0.2,0.6,5,11.5,6,12.3c0.4,0.4,1,0.6,1.6,0.4c1.7-0.3,0.9,0.3-2.9,2.2 C150.5,72.5,150.3,72.6,150.6,71.9L150.6,71.9z M152.8,52.8c2-1.1,4-3.4,4.3-4.9c0.6-2.8-1.3-7.2-3.7-8.9c-1.9-1.3-4.6-1.1-7.9,0.4 c-2,1-2.6,1.4-2.6,2c0,1,5.2,11.9,6,12.5C149.5,54.4,150.5,54.1,152.8,52.8L152.8,52.8z M179.9,58.3c0.6-0.6,1.2-1.3,1.2-1.6 c0-0.7-7.8-23.4-9.1-26.5c-0.5-1.2-0.7-1.4-1.9-1.4c-0.7,0-1.3-0.1-1.3-0.3c0-0.2,5.3-2.3,8.3-3.2c0.3-0.1,0,0.4-0.6,1 c-1,0.9-1.1,1.3-0.9,2.1c0.3,1.2,8.2,23.6,8.9,25.5c0.7,1.6,1.1,1.9,2.5,1.9c1.8,0,0.6,0.6-4,2.2l-4.3,1.4L179.9,58.3z M313.6,52.4 c-1.7-0.5-5-1.4-7.3-2.1c-2.3-0.7-4.5-1.3-4.8-1.3s-0.5-0.2-0.5-0.4s0.6-0.4,1.4-0.4s1.6-0.2,1.8-0.5c0.3-0.4,1.8-5.2,6.9-22.4 c0.8-2.8,1.5-5.3,1.5-5.6s-0.5-1-1.2-1.6c-1.1-0.9-1.1-1-0.3-0.8c3.7,0.7,15.4,4.1,17.5,5.1c3.1,1.5,5.6,3.7,6.9,6.1 c0.9,1.7,1,2.2,0.9,5.8c0,3.5-0.1,4.3-1.1,6.9C331.5,51.3,323.8,55.2,313.6,52.4L313.6,52.4z M323.1,51c2.5-1.2,4.6-3.4,6.3-6.9 c1.7-3.5,2.5-6.3,2.8-9.9c0.5-7-3.3-11.3-12-13.3c-2.6-0.6-3.2-0.7-3.6-0.3c-0.3,0.3-1.2,3.1-2.1,6.2c-0.9,3.2-2.4,8.2-3.3,11.2 c-3.2,10.6-3.2,11-2.7,11.5c0.6,0.5,4.3,1.8,6.8,2.4C317.7,52.3,321,52,323.1,51L323.1,51z M199,39c-10.4-15.9-10.4-15.9-12.2-16.4 c-0.8-0.2-1.4-0.5-1.4-0.5c0.1-0.1,1.9-0.5,4.1-1.1c2.2-0.5,4.3-1,4.7-1.2c0.6-0.2,0.5,0-0.3,0.8c-0.7,0.6-1,1.2-0.9,1.8 c0.2,1,13.6,21.8,14.2,22.1c1,0.4,0.9,0.7,3.1-14.5c0.9-6,1.5-11.4,1.4-11.9c-0.2-0.6-0.5-1-1.3-1.1c-0.6-0.1-1-0.3-1-0.5 c0-0.3,7.2-2,7.4-1.7c0.1,0.1-0.3,0.4-0.8,0.6c-0.5,0.3-1.2,0.9-1.4,1.5c-0.4,0.8-4.4,22.3-5.7,31.3c-0.3,1.8-0.7,2.5-1.6,2.5 C206.9,50.8,204.2,46.9,199,39L199,39z M228.7,46c0.4-0.3,1-0.7,1.4-1l0.7-0.6l-1.1-14.2c-0.6-7.8-1.2-14.5-1.3-14.8 s-0.8-0.8-1.6-1.1l-1.3-0.5l1.6-0.2c1.9-0.2,19-1.7,19.7-1.7c0.3,0,0.4,0.4,0.3,1.4c-0.1,0.7-0.3,2.1-0.4,3.1 c-0.3,2.1-0.6,1.9-1.4-0.4c-0.3-1-0.8-2-1.1-2.2c-0.7-0.6-10.6,0.3-11.3,0.9c-0.4,0.4-0.5,1.4-0.1,6.7c0.3,4.3,0.6,6.4,0.9,6.7 c0.4,0.4,1.2,0.4,4.4,0.1c2.1-0.2,4.1-0.6,4.4-0.8c0.3-0.2,0.6-1,0.7-1.8c0.1-0.8,0.3-1.4,0.5-1.4c0.3,0,0.7,4.8,0.7,7.2v1.3 l-0.8-1.6l-0.8-1.6h-4.1c-3.1,0-4.2,0.2-4.6,0.6c-0.5,0.5-0.5,1.3-0.2,5.5c0.5,7.2,0.7,8.4,1.4,8.7c0.9,0.4,11.3-0.5,11.8-1.1 c0.2-0.3,0.8-1.4,1.3-2.6c1.1-3,1.3-3.1,1.6-0.7c0.2,1.8,0.1,4.4-0.3,4.7c-0.1,0-4.4,0.4-9.6,0.9c-5.2,0.4-10.1,0.9-10.8,1 C228.2,46.5,228.1,46.4,228.7,46L228.7,46z M278.7,45.5c-1.7-0.9-2.4-2-5.8-8.7c-1.7-3.3-3.4-6.4-3.9-6.8c-1-0.9-3.4-1.1-4-0.4 c-0.2,0.2-0.5,2.6-0.6,5.1c-0.1,2.6-0.3,5.4-0.4,6.4c-0.2,1.7,0.1,2.4,1.9,3.4c0.5,0.3-0.3,0.4-3.6,0.2c-4.4-0.2-5.8-0.6-3.8-1 c0.7-0.2,1.3-0.6,1.4-1c0.5-1.4,2.2-28.6,1.8-29.4c-0.2-0.4-0.9-0.9-1.5-1.1c-0.6-0.2-1.1-0.5-1-0.6c0.3-0.3,13.9,0.5,15.7,0.9 c4.7,1,6.9,3.9,6.4,8.1c-0.4,3.7-2.3,6-6.1,7.5c-1,0.4-1.6,0.9-1.6,1.2c0,0.7,4.5,9.4,6.6,12.6c0.9,1.4,1.9,2.6,2.9,3.1l1.5,0.9 h-2.3C280.7,46.1,279.5,45.9,278.7,45.5L278.7,45.5z M272.3,28.1c1.8-0.5,4-2.6,4.5-4.5c0.2-0.8,0.4-2.4,0.4-3.6 c0-4.3-2.5-6.6-7.7-6.9c-1.4-0.1-2.8,0-3.1,0.2c-0.5,0.3-0.7,2-1.3,11c-0.2,3.4-0.2,3.5,0.6,3.8C266.9,28.6,270.6,28.5,272.3,28.1 L272.3,28.1z M261.8,455.9c9.7-1,20.5-4.9,28.4-10.2c8.3-5.5,13.6-14.2,15.7-25.4c0.8-4.1,0.8-14.3,0-19.5 c-2.1-14.8-7.3-27.9-17.7-44.5c-12-19.2-14.3-25.9-14.3-41.4c0-17.2,2.9-31.8,9.4-47.2c1-2.4,2.6-6.3,3.7-8.8c1-2.5,2-4.6,2.2-4.8 c0.5-0.5,6.9,6,9.5,9.7c4,5.5,6.7,11.9,7.8,17.7c0.3,1.6,0.4,4.2,0.3,7c-0.2,4.5-0.3,5-2.5,10.3c-1.2,2.8,1.8,1.7,5-1.9 c2.7-3.1,8.5-12.2,11.5-18.1c2.7-5.3,4.9-11.2,6.3-16.7c0.5-2.1,0.7-1.7,2.1,4.1c3,12.8,4,23,4,40.3c0,12.8-0.4,19.4-1.6,26.1 c-1,5.8-1.1,8-0.1,8.2c0.8,0.2,1.9-0.9,7.2-6.8c12-13.4,17.7-22.4,22-35.3c4-11.9,6.1-20.8,6.5-27.7c0.1-2.2,0.4-3.9,0.5-3.7 c0.4,0.4,2.1,18.2,2.5,26c0.6,11.4,0.3,27.4-0.7,36.7c-1.1,9.7-3.1,18.1-6,24.9c-1.9,4.5-2.1,6.1-1,6.3c0.6,0.1,1.7-0.9,4.5-4 c17.2-18.9,28.3-39.3,34.5-63.5c1.2-4.6,4.3-18.6,4.4-19.8c0-0.1,0.2,0.1,0.3,0.5c0.6,1.4,1.2,16.2,0.9,22.8 c-1,26.6-4,46.2-10.7,70.4c-5.2,18.7-9.5,29-17.2,41.3c-4.4,7-4.8,8.2-2.8,8.2c0.8,0,3.8-2,4.9-3.4c0.3-0.3,2.8-2.5,5.6-4.7 c18.8-15.1,35.2-34.6,47.9-56.9c15-26.3,23.1-52.6,25.8-82.8c0.6-7.4,0.5-24.2-0.2-31.9c-2.2-23.4-7.8-44-17.5-64.9 c-8.2-17.5-17.9-32.1-31.8-47.7c-4.1-4.6-19.9-20-21.7-21.2c-0.6-0.4-1-0.4-1.7-0.1c-0.5,0.2-1,0.7-1.1,1s0.2,2.2,0.7,4.2 c1.7,6.7,1.8,17.4,0.2,24.8c-1.6,7-5.8,16.7-10.6,24.5c-7.9,12.6-20.6,26.2-30.3,32.5c-8.9,5.8-23.2,11.9-32.2,14 c-4.3,1-12.8,1.9-13.8,1.5c-0.5-0.2-0.1-0.8,1.6-2.8c3.5-4.2,8.9-11.4,14.5-19.5c2.9-4.2,6.3-9,7.5-10.8c1.3-1.8,4.3-6.2,6.7-9.7 c2.4-3.6,5.4-7.6,6.7-9c2.3-2.5,2.3-2.5,2.3-1.4c0,1.8-1,5.1-2.9,9.5c-1,2.3-1.9,4.3-2,4.5s0,0.6,0.2,0.9c0.3,0.4,0.7,0.5,2.5,0.1 s2.4-0.4,3.4,0.1c1,0.4,1.3,0.7,1.3,1.4c0,0.5,0.1,1.4,0.2,2c0.3,1.5,1.2,1.5,4.5-0.1c3-1.5,5.1-1.7,6.6-0.5 c0.5,0.4,1.6,1.7,2.4,2.9s1.6,2.1,1.9,2c0.9-0.3,0.3-3.2-2-9.8c-3.8-10.9-5.4-18.5-5.4-26.1c0-8.1,2.3-15.5,4.9-15.5 c1.9,0,6.1,6.2,7.3,10.8c0.5,1.9,0.5,2.8,0.2,5.5c-0.2,1.8-0.3,3.4-0.2,3.6c0.5,0.8,1.2,0.2,1.7-1.4c1.5-4.8,1.9-7.1,1.9-12.2 c0-5.7-0.5-8-2.5-12.3c-1.5-3.3-2.5-4.7-6.5-9.5c-1.8-2.1-3.8-5-4.6-6.4c-1.5-2.7-2.9-3.9-4.4-3.9c-0.4,0-1-0.2-1.2-0.5 s-0.8-3-1.3-6c-1.5-9.2-2.9-13.5-5-16.1c-1.4-1.6-5.1-3-8.8-3.2c-5.3-0.3-7.5,1.1-4.3,2.9c0.8,0.5,1.4,0.9,1.4,1.1 c0,0.1-0.6,0.3-1.4,0.5c-2.1,0.4-2.2,1.1-0.2,3c1.6,1.6,2.4,2.7,2.8,4.3c0.2,0.8,0.2,0.8-1.7,0.8c-2.6,0-3.1,0.7-1.8,2.7 c1.1,1.6,3.5,6.7,3.3,6.9c-0.1,0.1-0.8-0.1-1.7-0.4c-0.8-0.3-2.2-0.5-2.9-0.5c-1.2,0-1.4,0.1-1.4,0.8c0,0.5,0.7,1.7,1.5,2.8 c1.5,1.9,3.2,5,3.2,5.7c0,0.2-0.8,0.3-1.9,0.3c-2.5-0.1-2.6,0.6-0.7,3c2,2.4,3.4,5.5,3.6,8c0.1,1.1,0.1,2.1,0,2.1 c-0.4,0-5.6-6.8-7-9.1c-0.8-1.4-2-3.6-2.6-5.1c-2-4.7-2.2-6.2-2.2-14.1c0-6.1-0.1-7.7-0.7-10.1c-1.2-4.6-2.5-5.1-2.5-0.9v2.4 l-0.9-1.3c-0.9-1.3-3.2-2.8-3.7-2.4c-0.2,0.2,0,0.7,0.3,1.2c1.8,2.8,2.1,4,2.5,9.2c0.6,8.9,1.5,12.9,4.3,18.8 c1.4,2.9,4.9,8.5,6.9,11.1c0.6,0.8,1,1.4,0.9,1.5c-0.3,0.3-3.7-2.8-5.6-5c-1-1.2-2.4-3.2-3-4.5c-0.6-1.2-1.3-2.3-1.6-2.3 c-0.3,0-0.8,0.5-1.1,1.1c-0.3,0.6-0.7,1.1-0.9,1.1c-0.5,0-1.1-2.5-1.1-5.1c0-2.9-0.6-3.4-2-2L309,102l0.1-3.4 c0.1-3.6,0.1-3.7-1.6-3.1c-0.5,0.2-0.6,0.1-0.6-0.8c0-1.4-0.9-2.4-1.7-1.8c-1.2,1-3.2,9.9-2.9,12.5c0.3,2,2,5.8,4.6,10.1 c1.3,2.2,3.3,4.5,6.6,8c5,5.2,5.9,6.4,5.9,8.4c0,2.5-7.5,13.8-15.4,23.5c-5.3,6.4-14.2,14.9-22,21c-2.3,1.8-5.8,4.1-6.3,4.1 c-0.7,0,0.3-8.6,2.8-23.8c3.2-19.2,4-31.8,2.9-42.6c-1-9.6-2.9-17.2-5.6-22.9c-1.1-2.4-2.1-3.7-4.6-6.3l-3.1-3.2l1.4,0.2 c0.8,0.1,3.2,1,5.4,1.9c2.2,0.9,4.5,1.8,5,2.1c1.7,0.7,2.2,0.2,1.9-2.2c-0.3-3,0.3-4,2.5-4c2.5,0,2.7-0.7,1.4-3.4 c-2.2-4.5-2-5.9,1.5-8.2c1.2-0.8,2.4-1.5,2.5-1.6c0.6-0.2-0.1-1.3-0.9-1.3c-0.4,0-3.1,0.7-5.9,1.6c-11,3.5-19.6,5.2-25.7,5.2 c-6.3,0-13.8-2.3-14.1-4.3c-0.2-1.8,4.3-4.9,9.1-6.3c1.7-0.5,2.8-0.6,6-0.4c3.7,0.2,3.9,0.2,3.8-0.4c-0.1-0.5-1-0.9-3.7-1.7 c-3.2-0.9-4.2-1-9-1.1c-4.2,0-5.9,0.1-7.7,0.6c-3.7,1-7.9,3.2-12.2,6.5c-2.2,1.6-5.3,3.7-7,4.6c-2.6,1.4-3.1,1.8-3.8,3.3 c-0.9,1.9-0.8,1.8-5.5,2.4c-4.2,0.5-10.1,1.7-12.2,2.4c-5,1.7-7.9,5.4-8.3,10.7c-0.2,2.7,0.2,4.2,1.1,4.2c0.2,0,1.1-0.6,1.8-1.4 c1.5-1.6,2-1.6,2,0c0,1.8,1.7,2.3,2.5,0.7c0.4-0.7,2.8-2.2,4.2-2.7c0.8-0.2,0.8-0.1,0.8,1.6c0,1.2,0.2,1.9,0.5,2s2-0.6,3.9-1.5 c4-1.9,4.4-2,4.1-0.8c-1,3.2-1,3.6-0.5,4.1s0.9,0.3,3.9-1.5c4.7-2.8,5.4-3,4.7-1.1c-0.5,1.3-0.2,2.3,0.7,2.3c0.4,0,1.3-0.5,2-1.1 c0.8-0.6,2-1.4,2.8-1.8c1.7-0.9,6.1-1.8,6.5-1.4s-5.1,4.4-8.8,6.3c-1.7,0.9-4.3,2-5.8,2.6c-2.6,1-2.9,1-12.8,1.2 c-8.2,0.2-10.3,0.3-11.4,0.8c-2.2,1-1.8,1.7,1.2,1.8l2.6,0.1l-1.9,1.2c-2.1,1.3-2.9,2.5-2.1,2.8c0.3,0.1,1.1-0.1,1.8-0.6 c1.8-1.1,5.7-1.8,9.5-1.8c9.2,0,17-2.5,25.7-8.1c1.4-0.9,2.7-1.6,2.8-1.5c0.4,0.4-5.4,5.2-7.9,6.5c-1.5,0.8-2.8,1.6-2.8,1.8 c0,0.3,0.4,0.7,0.8,1c1.3,0.9,0.3,1.4-3.2,1.6c-2.3,0.1-3.2,0.3-3.3,0.7c-0.1,0.3,0.1,0.7,0.4,0.9c1.6,0.9-0.2,1.3-2.7,0.6 c-1.9-0.5-2.8-0.2-2.7,1c0.1,0.8-0.1,1-0.9,1.1c-0.5,0.1-1.1,0.3-1.4,0.6c-0.6,0.8,0.4,1.5,3.7,2.6c5.5,1.8,9.2,1.3,15.9-2.1 c4.1-2.1,7-4.2,11.4-8.5c3.1-3,4-3.7,4.9-3.7c1.6,0,3.4,1.4,4.5,3.4c1.4,2.6,3.4,9.5,4.5,15.6c0.8,4.6,1,6.3,1,13.2 c0,7.1-0.1,8.3-0.8,11.7c-1.7,7.6-5.6,17.5-10.5,26.8c-1.2,2.2-3.7,7-5.6,10.8c-1.9,3.8-3.6,7-3.8,7.2s-1.1-0.2-2.2-0.8 c-2-1.1-7.4-3-10.6-3.7c-3.2-0.7-13.2-4-17.3-5.6c-4.2-1.8-8.7-4.3-13.5-7.8c-3.6-2.6-5.7-5.6-7.4-10.3c-1.6-4.6-1.4-10.5,0.5-12.3 c1-1,3.2-1.3,4.3-0.7c1,0.5,1.2,0.9,4.3,6.1c3.4,5.7,11.2,12.8,15.6,14c0.8,0.2,3.4,0.4,5.6,0.5c3.6,0,4.1-0.1,4.3-0.6 c0.1-0.4-0.3-0.8-1-1.2c-0.9-0.5-1-0.7-0.7-1.1c0.7-0.8-0.2-1.5-2.4-1.8c-2.7-0.3-3.3-0.6-2.3-1c0.4-0.2,0.8-0.6,0.8-1 c0-0.5-0.4-0.8-1.7-1.1c-3.3-0.8-5.6-2.5-3.4-2.5c1.4,0,1-1-1-2.8c-2.1-1.8-5.7-6.7-5.3-7.1c0.1-0.1,1.4,1,2.8,2.6 c6.2,6.6,11.4,9.8,20.5,13c4.7,1.6,7.5,3,8.8,4.5c0.4,0.4,0.9,0.7,1.1,0.7c0.9,0,0.5-1.3-0.8-2.7c-0.7-0.8-1.2-1.4-1.2-1.5 c0.1-0.1,1,0.2,2.2,0.5c1.1,0.3,2.2,0.5,2.3,0.4c1.1-1.1-3.4-3.3-11.1-5.5c-6.7-1.9-8.6-2.7-11.9-4.9c-3.8-2.5-11.7-10.7-11-11.3 c0.2-0.2,3.7,1.5,5.1,2.6c0.6,0.5,1.6,1.6,2.3,2.5s1.4,1.7,1.7,1.8c0.7,0.3,1.6-0.8,1.6-1.8c0-0.5,0.2-0.9,0.4-0.9s1.7,1.3,3.3,2.9 c1.6,1.6,3,2.9,3.1,2.9c0.7,0,1.1-1.1,1.1-2.8c0-2.3,0-2.3,3.9,1c2.9,2.5,3.5,2.5,4.1,0.4c0.2-0.6,0.5-1.1,0.7-1.1 c0.5,0,3,2.6,4,4.1c0.8,1.3,1.5,1.2,2.3-0.2c0.5-1.1,0.6-1.1,1.2-0.5c0.4,0.3,0.9,1.1,1.1,1.7c1,2.5,3.2,0,3.5-4.2 c0.2-1.9,0-2.6-0.7-4.3c-1.7-3.8-5-6-16.9-11.4c-2.3-1.1-2.4-1.1-2.7-2.6c-0.2-1.3-0.6-1.9-2.8-4.1c-1.4-1.4-3.9-4.1-5.4-6.1 c-3.5-4.4-6.6-7-10.8-9.1c-4-2-7.8-2.9-13.1-3.4c-3.4-0.3-4.2-0.3-4.6,0.2c-0.4,0.4-0.4,0.6,0.2,0.9c0.4,0.2,1.7,0.5,3,0.8 c3.4,0.6,6.4,2.2,9.3,5c2.8,2.6,3.4,4.1,2.4,5.1c-0.5,0.5-1.3,0.6-4.3,0.6c-9.1-0.1-16.4-3-31.2-12.5c-3-1.9-5.8-3.5-6-3.5 c-1.1,0-0.8,0.8,0.8,2.6c0.9,1,1.8,2.3,2,2.7c0.4,1.2-0.4,2.8-2.4,4.8c-0.9,0.9-1.6,1.8-1.6,2c0,0.3,0.8,0.8,1.7,1.3 c2,1,2.4,2.1,1.2,4c-1.4,2.2-1.1,2.3,5.9,2.1c4.6-0.1,6.3-0.1,6.3,0.2c0,0.2-0.2,0.4-0.3,0.4c-1,0-5.2,2.4-7,4 c-2.6,2.3-7.2,9.3-10.2,15.3c-2.6,5.3-3,6.5-3.3,11.5c-0.9,15,8.6,29.7,27.7,42.4c2.7,1.8,4.9,3.4,4.8,3.4 c-0.2,0.2-4.7-1.3-9.1-3.2c-5.9-2.5-14.2-6.8-17.9-9.3c-10.1-6.7-23.4-22-30.7-35.3c-3.6-6.6-6.8-15.6-7.8-22.2 c-1.1-6.7-0.6-16.6,1-21.9c1-3.2,0.6-4.5-1.2-4.5c-0.7,0-2,1.1-5.2,4.2c-16.1,15.9-26.6,28.7-35.6,43.6 c-11,18.3-19.2,38.7-23.5,58.9c-8.2,38.4-5.1,76.5,9.3,112.8c2.8,7,10.6,22.9,14.3,29c12.8,21.2,27,38.4,42.6,51.5 c1.7,1.4,3.4,3,3.8,3.5c1.1,1.4,3.6,3.1,4.2,2.8c1.2-0.5,0.7-2-3.3-8.6c-7-11.8-11.1-22.7-15.9-41.9c-5.7-22.6-8.1-40.3-8.9-65.4 c-0.2-7.2,0.3-21.3,0.9-22.8c0.3-0.7,0.3-0.7,0.5,0c0.1,0.4,0.7,3.4,1.3,6.7c1.4,7.4,3.9,17.6,5.6,23c3,9.5,8.5,21.6,13.7,30.2 c4.8,7.9,11.9,17.5,16.9,22.8c2,2.1,2.3,2.3,2.8,1.8c0.7-0.6,0.7-1-1.4-6.5c-2.1-5.5-4-13.3-4.9-20.2c-1-7.2-1.4-29.1-0.7-39.7 c0.6-10.2,2-23.3,2.5-24.4c0.1-0.3,0.4,1.4,0.5,3.6c0.4,6.5,2.4,15.3,6.2,27c2.9,8.9,5.8,14.8,10.9,22.1c4.9,7,14.9,18.6,16.2,18.8 c1.3,0.2,1.3-0.8,0.5-6c-0.4-2.7-1-6.6-1.2-8.7c-0.6-5.1-0.6-26.8,0-33.5c0.5-5.5,1.9-15.7,2.8-20c1-4.6,2.4-10.3,2.7-10.3 c0.1,0,0.7,1.7,1.2,3.8c2.2,8.9,7.7,20,14.5,29.5c1.9,2.7,5.4,6,6.2,5.8s0.7-1-0.7-4.6c-2.7-7.2-1.6-16.6,3.1-25.7 c2.1-4.1,7.2-11.1,8-11.1c0.1,0,0,1.3-0.3,2.8c-0.6,3.5-0.7,13.5-0.1,17.7c3,21.3,9.9,39.9,19.9,54.1c4.1,5.8,13.8,17.2,21.4,25.1 c7.8,8.2,12.7,15.6,18.5,28.1c7.5,16.1,8.6,24.4,4.3,33c-3.3,6.8-9.1,10.9-15.3,10.9c-8.2,0-17.6-7.1-20-15.2 c-1.4-4.6-0.4-10,2.4-13.5c2.7-3.3,5.3-4.3,12.2-4.7c6.2-0.3,6.8-0.8,4-3.3c-4.3-3.8-10.7-6.2-16.1-6.2 c-15.8,0-28.6,15.5-27.6,33.4c0.3,6.1,1.6,9.8,5.4,15.3c5.2,7.7,12,13.1,20.5,16.2C247.5,455.8,253.9,456.7,261.8,455.9 L261.8,455.9z M346.8,165.2c0.1-1.1,0.3-3.7,0.4-5.9l0.2-4l1,2.7c0.5,1.5,1.5,3.8,2.1,5.2s1.1,2.6,1.1,2.7c0,0.1-0.7,0.4-1.5,0.5 s-2,0.3-2.5,0.5l-1,0.2L346.8,165.2z M342.6,165.1c-0.6-0.3-1.4-0.4-2.1-0.3c-0.6,0.1-1.1,0.2-1.1,0.1c0-0.1,0.7-1.6,1.5-3.3 s1.7-4.2,2-5.5c1-4.4,1.2-4.1,1.2,2.7c0,3.6-0.1,6.6-0.2,6.7C343.7,165.5,343.2,165.3,342.6,165.1L342.6,165.1z M235.9,146.2 c-1-0.4-1.9-1.7-1.9-2.7c0-0.6,0.2-0.7,1.3-0.5c1.8,0.3,3.1,1.3,3.3,2.5c0.1,0.8,0,1-0.9,0.9C237.1,146.5,236.3,146.4,235.9,146.2 L235.9,146.2z M208.8,132.4c-1.3-1.2-2.8-2.5-3.3-2.9c-1.4-1-0.5-1.4,2.3-1c3.1,0.4,5.2,1.4,6.6,3.1c1.9,2.1,1.4,3-1.6,3 C211.4,134.7,211.1,134.5,208.8,132.4L208.8,132.4z M165.5,121.7c0.1-0.9,0.3-1.6,0.3-1.7c0.3-0.4,8.8,2,8.8,2.5 c0,0.2-1.7,0.3-3.9,0.3c-2.1,0-4.2,0.1-4.7,0.2C165.3,123.2,165.3,123.1,165.5,121.7L165.5,121.7z M346.1,118.9 c-0.6-1.9-2-4.4-3-5.6c-0.7-0.9-1.1-1.8-1.1-2.5c0-1.7,1.2-4.3,1.9-4.5c1-0.2,3.1,1.7,3.9,3.4c1.3,3,0.7,9.8-1,9.8 C346.6,119.6,346.2,119.3,346.1,118.9L346.1,118.9z M169.9,118.3c-1.7-0.5-3.5-0.8-4.1-0.8c-0.5,0-1-0.1-1-0.3 c0-0.4,1.5-3.4,1.7-3.4c0.1,0,1.5,1,3.1,2.2s3.2,2.3,3.4,2.4c0.5,0.2,0.6,0.9,0.2,0.8C173.1,119.1,171.6,118.7,169.9,118.3 L169.9,118.3z M337.2,83c-0.9-1.4-1.2-3.4-0.6-4.4c0.2-0.3,0.7-0.4,1.2-0.4c1.1,0.2,2.5,2.9,2.4,4.6c-0.1,1.1-0.2,1.3-1.1,1.4 C338.3,84.3,337.9,84,337.2,83L337.2,83z M199.8,83c-0.6-0.8-0.2-1.6,1.2-2.2c1.6-0.7,4.2-0.7,4.2,0s-1.6,2-2.9,2.4 C200.6,83.7,200.3,83.7,199.8,83L199.8,83z M275.9,80.4c-1.4-0.7-3.4-1.5-4.5-1.8c-3.6-1-3-1.3,2.6-1.1c2.9,0.1,5.4,0.3,5.5,0.4 s0,0.5-0.2,0.8c-0.3,0.3-0.6,1.1-0.7,1.8l-0.2,1.2L275.9,80.4z M227.2,78.2c-0.8-0.4-1.5-0.9-1.5-1.2c0-0.3,0.6-1.1,1.2-1.8 c0.9-0.9,1.8-1.4,3.3-1.7c3-0.6,8.3,0.1,8,1.1c-0.1,0.2-1,0.8-2.2,1.2c-1.1,0.5-2.8,1.3-3.8,2C230.2,79.1,229.3,79.1,227.2,78.2 L227.2,78.2z M275.8,74.8c-4-0.3-4.7-0.7-2.7-1.2c0.5-0.1,2.4-0.8,4.2-1.5c1.7-0.7,3.2-1.2,3.3-1.1c0.1,0.1,0.2,1.1,0.4,2.2 c0.2,1.9,0.2,2.1-0.4,2C280.2,75.2,278.1,75,275.8,74.8L275.8,74.8z M110.4,438.2c2.9-1.4,7.8-6.1,10.2-9.5 c4.1-6.1,4.2-11.3,0.4-16c-3.2-3.9-7.7-5.8-11.4-5.1c-5.4,1.1-13.3,8.7-15.5,15c-1.7,4.7-0.8,8.9,2.6,12.5 C100.8,439.6,105.4,440.6,110.4,438.2L110.4,438.2z"/></g></svg> 