<?xml version="1.0" encoding="utf-8"?><svg version="1.1" xmlns="http://www.w3.org/2000/svg" xmlns:xlink="http://www.w3.org/1999/xlink" x="0px" y="0px" viewBox="0 0 512 512" style="enable-background:new 0 0 512 512;" xml:space="preserve"><style type="text/css"> .st0{fill:#319BED;} .st1{fill:#020203;} .st2{fill:#5C5C5C;} .st3{fill:#FFFFFF;} .st4{fill:none;} </style><g id="Layer_1"></g><g id="svg990"><g id="layer1" transform="translate(0,232.16667)" ><path id="path1006-3-3" class="st0" d="M63.2-85.7l-1,204.7 c-0.1,26,13,50.1,34.8,64.3c35.8,23.4,107.1,65,107.3,70.2c-0.2-5.1,71.9-46.8,107.7-70.2c21.8-14.2,34.8-38.3,34.8-64.3V-85.1 C250.5-90,156.6-90.4,63.2-85.7L63.2-85.7z"/><path id="path1950-4" class="st0" d="M297.3-84.4l42.4-22.5 l-50.8,22.5L297.3-84.4z"/><path id="path968-5" class="st1" d="M204.3,275.8 c0-6-79.7-52-119.6-78c-26-17-41.5-45.5-41.5-76.5v-226.9c104.5-3.8,211.5-4.2,321.9,0v226.7c0,31-15.5,59.7-41.5,76.5 C283.9,223.7,204.3,269.8,204.3,275.8z M63.2-85.7l-0.9,204.9c-0.1,24.3,12.9,48.7,33.4,61.9c36.2,24.1,108.7,67.6,108.7,72.3 c0-4.6,72.4-48.7,108.7-72.3c20.3-13.2,33.9-37.7,33.9-61.8l0-204.5C250.6-89.9,155.3-90.2,63.2-85.7L63.2-85.7z"/><path id="path1016-3-3" class="st1" d="M263.5,119.4 c-6.9,13.3-29.3,15.4-31.6,15.4c0,0,48,38,97.1,54.1c20.3-23.5,22.2-59.7,32.9-90.3l-36.3-8C302.8,92,283,108,263.5,119.4 L263.5,119.4z"/><path id="path966-1-5-5" d="M36.4,263.8c48.1-13.9,104.7-22.1,168.3-22.1 c63.4,0,119.6,8.1,167.5,21.7l20.5-84.9c-56.8-15.9-120-24-188-24c-68.4,0-131.8,8.3-188.8,24.2L36.4,263.8z"/><g id="g974-7-4-0" transform="matrix(1.8015382,0,0,1.8015382,-177.38931,-789.61622)"><path id="path972-6-3-4" d="M151.5,396.8c19.2-1.8,39.3-2.8,60.2-2.8c20.9,0,41,1,60.5,2.8 l3.5-31.4c-20.6-1.9-41.9-3-64.1-3c-21.9,0-43.2,1-63.7,2.9L151.5,396.8z"/></g><path id="path966-1-5" class="st2" d="M44.7,247.1c45.7-13.2,99.5-21,159.9-21 c60.3,0,113.6,7.7,159.2,20.7l19.5-80.7c-53.9-15.1-114-22.8-178.7-22.8c-65,0-125.3,7.8-179.4,23L44.7,247.1z"/><g id="g990-0-6" transform="matrix(1.5705743,0,0,1.5705743,-125.54945,-506.3254)"><path id="path976-5-2" class="st3" d="M125.9,453.5c-1.5,0.2-3,0.4-4.6,0.2l2.6,12.7l-6.8,1.5 l-6.8-32.9c3.4-0.7,7.2-2.1,10.5-2.7c7.9-1.6,12.9,1.5,14.4,8C136.7,447.8,131.9,452.3,125.9,453.5z M120.3,448.3 c0.9,0,1.9-0.1,2.7-0.4c3.3-0.7,5.4-2.6,4.6-5.8c-0.6-2.9-2.7-4.5-5.7-3.9c-3,0.6-3.2,1.5-3,2.3 C119.2,442.9,119.7,445.4,120.3,448.3z"/><path id="path978-1-4" class="st3" d="M143.8,462.7l-4.5-33.2l19.7-2.7l0.9,6.1 c-1.9,0-6.5,0.6-11.9,1.3c-0.5,0.1-0.9,0.2-0.7,1.1c0.1,1.6,0.5,4.4,0.7,6.1l11.4-1.6l0.9,6l-11.4,1.6l1,7.3 c0.1,0.5,0.4,1.1,1.1,1c5.6-0.7,8.5-1.2,12.2-1.8l0.9,6.2L143.8,462.7z"/><path id="path980-9-9" class="st3" d="M191.9,441.3c0,2.7,0.5,10.4,0.9,15.6 c-2.4,1.2-5.8,2.1-8.9,2.3c-8.6,0.6-16.8-3.8-17.7-16.3c-0.7-11.3,6.1-18,16.6-18.8c2.9-0.2,5.1,0,7.4,0.5l0.5,6.9 c-2.6-1-4.6-1.1-7.6-0.9c-5.6,0.4-10,3.2-9.4,11.7c0.5,8,5.2,10.5,9.7,10.2c1.5-0.1,1.8-0.6,1.8-1.2l-0.6-9.5L191.9,441.3z"/><path id="path982-9-0" class="st3" d="M195.7,457.7c4.4-10.1,10.7-27,12.8-33.5l6.6,0.1 l11.6,33.6l-7.6-0.1c-0.7-2.4-1.5-5-2.3-7.4l-11.1-0.1l-2.7,7.4H195.7z M214.8,444.3c-0.9-2.8-2.1-6.3-3.4-9.5 c-1.2,2.9-2.6,6.9-3.5,9.5H214.8z"/><path id="path984-5-0" class="st3" d="M243.9,424.5c2.6,0.1,4.4,0.5,6.3,1l-0.4,6.8 c-1.8-0.9-4.1-1.5-6.6-1.7c-2.4-0.1-4.1,0.7-4.3,2.9c-0.2,4.6,12.3,6.5,11.7,15.8c-0.5,6.9-6.2,10.2-13.5,9.7 c-2.2-0.1-4.9-0.6-7.2-1.2l0.4-6.3c2.4,0.9,4.5,1.2,6.9,1.3c3.3,0.2,5.6-0.7,5.7-3.3c0.4-5.8-12.2-6.6-11.7-15.8 C231.8,427.7,237.3,424.1,243.9,424.5L243.9,424.5z"/><path id="path986-8-1" class="st3" d="M284.3,429.7c-0.7,5-1.2,7.9-2.1,15.2l-2.1,16.4 c-6.5-0.9-7.3,1.3-13.4,0.6c-6.2-0.9-12.1-4.9-11.1-12.9l2.9-22.7l7.1,1c-0.4,2.1-1.6,10.6-2.2,15.1l-1,7.3 c-0.5,3.9,1.9,5.6,5.6,6.1c3.9,0.5,5.7-0.7,5.8-1.8l3.3-25.1L284.3,429.7z"/><path id="path988-4-5" class="st3" d="M303.6,432.6c2.4,0.5,4.3,1.1,6.2,1.8l-1.3,6.7 c-1.6-1.1-3.9-2.1-6.3-2.6c-2.4-0.5-4.1,0.1-4.6,2.3c-1,4.6,11.2,8,9.4,17.3c-1.3,6.8-7.6,9.3-14.7,7.8c-2.2-0.5-4.7-1.2-6.9-2.2 l1.2-6.2c2.3,1.1,4.3,1.8,6.7,2.3c3.2,0.6,5.6,0,6.2-2.6c1.2-5.7-11.2-8.2-9.3-17.3C291.2,434.2,297.1,431.2,303.6,432.6 L303.6,432.6z"/></g><g id="g974-7-4" transform="matrix(1.660798,0,0,1.660798,-146.27869,-739.60401)"><path id="path972-6-3" class="st2" d="M150.7,393.2 c19.2-1.8,39.3-2.8,60.2-2.8c20.9,0,41,1,60.5,2.8l3.5-31.4c-20.6-1.9-41.9-3-64.1-3c-21.9,0-43.2,1-63.7,2.9L150.7,393.2z"/></g><g id="g1004-6-2" transform="matrix(1.5705743,0,0,1.5705743,-126.80591,-706.21898)"><path id="path992-5-6" class="st3" d="M163.7,381.1c-1,0.1-1.9,0-2.8-0.2l0.6,7.9l-4.3,0.4 l-1.6-20.7c2.2-0.1,4.5-0.7,6.7-0.9c5-0.4,7.8,1.9,8.2,6.1C170.8,378.4,167.5,380.8,163.7,381.1L163.7,381.1z M160.7,377.4 c0.6,0,1.2,0.1,1.7,0c2.1-0.1,3.4-1.1,3.3-3.3c-0.1-1.8-1.2-2.9-3.2-2.8c-1.9,0.1-2.1,0.6-2.1,1.1 C160.5,374,160.5,375.6,160.7,377.4L160.7,377.4z"/><path id="path994-7-2" class="st3" d="M190.3,387.3l-5,0.2l-5-6c-0.6-0.9-1-1-1.2-1h-0.9 l0.4,7.3l-4.3,0.2l-1-20.7c2.9-0.1,3.3-0.5,6.2-0.6c4.4-0.2,7.6,1.9,7.7,6.2c0.1,2.3-1.1,4.8-3.8,5.7L190.3,387.3z M179.4,376.7 c1.8-0.1,3.3-1.2,3.2-3.4c-0.1-1.9-1.3-3-3-2.9c-1.2,0-1.7,0.2-1.6,0.5c0,1.3,0.1,4.4,0.1,5.8H179.4z"/><path id="path996-8-9" class="st3" d="M191.2,387.3c2.6-6.3,6.2-16.8,7.4-20.8h4l7.7,20.7 l-4.8,0.1c-0.5-1.5-1-3-1.5-4.6l-6.8,0.1l-1.6,4.6L191.2,387.3z M202.9,378.7c-0.5-1.7-1.5-3.9-2.2-5.8c-0.7,1.8-1.5,4.4-2.1,6 L202.9,378.7z"/><path id="path998-2-6" class="st3" d="M227.5,376.9c-0.1,1.7-0.2,6.3-0.2,9.6 c-1.6,0.6-3.7,1-5.6,1c-5.4-0.1-10.2-3.2-10.1-11c0.1-7.1,4.6-10.8,11.1-10.7c1.8,0,3.2,0.2,4.6,0.7v4.3c-1.6-0.7-2.8-0.9-4.6-1 c-3.5,0-6.3,1.5-6.3,6.7c-0.1,5,2.7,6.7,5.5,6.7c0.9,0,1.2-0.2,1.2-0.6l0.1-6L227.5,376.9z"/><path id="path1000-9-2" class="st3" d="M248.2,367.3c-0.2,3.2-0.4,4.9-0.5,9.5l-0.5,10.2 c-4-0.1-4.5,1.2-8.2,1.1c-3.9-0.1-7.7-2.4-7.6-7.3l0.6-14.1l4.4,0.2c-0.1,1.3-0.4,6.6-0.5,9.4l-0.2,4.5c-0.1,2.4,1.5,3.3,3.8,3.4 c2.4,0.1,3.5-0.7,3.5-1.5l0.7-15.7L248.2,367.3z"/><path id="path1002-1-7" class="st3" d="M252,388.4l1.6-20.7l12.3,1l-0.2,3.8 c-1.2-0.2-4-0.5-7.3-0.7c-0.4,0-0.5,0-0.6,0.6c-0.1,1-0.2,2.7-0.4,3.8l7.1,0.5l-0.2,3.8l-7.1-0.5l-0.4,4.6c0,0.4,0.1,0.7,0.5,0.7 c3.4,0.2,5.4,0.4,7.7,0.5l-0.2,3.9L252,388.4z"/></g><path id="path1016-22-6" class="st1" d=" M193.5,97.3c-7-1.1-46,2.4-48.5,3.3c-2.5,1.1-12.9,25.9-11.9,27.6c1.2,1.9,38.3,45.1,39.9,46c1.5,1,19.6,8.1,40.7,12.8 c10,0,16.9-1.2,25.9-4.4l-28.8-25.5c0,0-8.6,20.5-27.9,2.3c-4.4-4.2-15.9-20.3-22.4-29.8c-3-5.3-5.4-4.5-0.2-3.9 c5.9,0.6,14.5,1.7,25.2,3.6c21.3,4,61.2,6.7,77.9-9.9l62.1-28.9c11.1,6.7,59.7,9.8,79.4-30.4c-18,3.1-34-3.1-34-3.1 s52.2-6.5,66.4-56.4C410.7,9.2,379.2,0,379.2,0c33.5-4.6,74.2-14.3,93.7-92.4c-21.4,14.3-73.3,28.5-97.6,31.8 c35.2-5.9,129.7-39.8,123.6-168.5C419.7-132.8,264.8-77.9,262.3-63.5c-2.5,14.3,18.6,16.6,22.2,39.2c6.5,40.6-14.3,63.7-14.3,63.7 s-9.2-12.8-72.3-65.6c-5.5-4.6-30.1-11.2-30.1-11.2S159-52.1,145-59.5c3.1,9.6,1.9,25.9,1.9,25.9c-5.2,2.1-48.8,71.3-49.2,75.2 c-0.4,4.2,2.9,14.5,7.1,20.5c2.3,3.3,9.6,3.3,12.2,2.7c4.6-0.8,6.3-7.5,14.7-13c8.4-5.5,36-18.8,41.5-24c8.6-9.2,6.7-20.9,4-27.7 c11.6,18.1-0.5,31.4-0.5,31.4c1,3.1,7,11.3,10.8,17.4c3.8,6.1,5.1,14.3,5.7,16.2c0.6,1.9,3.8,23.7,7.8,31.7L193.5,97.3z"/><path id="path1956" class="st0" d="M365.1,92.1 c-22.3,6.3-36.4,3.5-39.5-1.7C332.5,94.3,348.7,96.2,365.1,92.1z"/><path id="path1020-3" class="st0" d="M144.1-1 c-2.7,4-9.1,4.1-9.1,6.4c0.5-4.4,0.4-6.2,1.4-8c1.8-4.4,6.4-5.3,9.4-7.1C146-9.6,146.8-4.8,144.1-1z"/><path id="path1018-6" class="st1" d="M161.3-38.4 c22.1-12.4,50.2,6.2,55.9-2.1c1.3,9.7-4.2,13-4.2,13c12.6-8.7,39.1,14,50,8.7c-3.1,14.8-12.9,16-12.9,16 c24.9-3.1,14.2,15.6,29.6,9.2c1.1,13.7-6.4,30.6-9.6,32.9c0,0-70.8-55.3-76.5-58.6C187.9-22.4,161.3-38.4,161.3-38.4L161.3-38.4z" /><path id="path1959" class="st2" d="M396.2-138.1 c1.8,30.8-17.2,76.4-72.1,94.7c26.7,6.4,65.4-8.2,73.2-12.5c-5.1,40.9-37,59.1-65.4,61.4c15.9,6.2,42.2,4.7,52.4,0.6 c-7.4,31.4-41.5,39.3-66,40.2c9.4,8.6,26.2,9.5,37.9,9.5c-19.8,27.5-60.1,18.2-74.3,14c10.1,2.7,47.7,10.1,67.8-11.5 c-5.5-0.3-22.1-0.6-34.3-13.1c19.6,0.7,53.7-10.1,62.7-34.3c-12.3,3.1-41.8,0.7-50.3-6.2c24.6-3.8,58.5-19,62.9-53.4 c-35.1,15.5-62.7,9-71.4,5.2C353.2-53.7,394.8-95.3,396.2-138.1L396.2-138.1z"/><path id="path1965" class="st2" d="M106.7,52.6 c3.6-1,4.9-10,1.3-10.4c-2.9-0.3-4.3,3.1-4.2,4.2c-1-4.7,3.1-6.6,5.2-6.4C113.6,41.4,112.5,52.3,106.7,52.6z"/><path id="path1967" class="st4" d="M115.5,47.4 c0.1-3.3-3.8-8.2-1.7-9.9c6.2-5.3,9.5-7.1,13.7-12.3c14.7-23,18.8-17.6,24.3-24.8c-1.5,5.5-11.1,5.1-20.9,22.2 c-2.8,5.1-10.5,11.1-16.1,16.2C113.6,40.2,115.6,41.9,115.5,47.4L115.5,47.4z"/><path id="path2139" class="st2" d="M169.8-39 c18.8-6.2,35.5,8,44.3,3.2c0.8,5.7-3.9,10.1-6.8,12.1c20.1-9.9,32.4,10.9,51.5,9.1c-6.5,11.4-7.6,10.2-15.6,13.4 c28.7-3.5,19.7,15.8,33.5,11.8c0.9,8.9-4.8,22.1-10.8,26.7c4.9-6.6,7.1-14.8,7.4-23.4c-14.4,1.5-2.3-14.2-37.3-14.2 c6.1-1.6,14.5-5.7,17.6-12.1c-17.2,4.6-23.5-19.7-52.6-7.2c1.2-1.1,10.3-7.3,9.6-12.9C200.4-28.8,188.8-41.2,169.8-39L169.8-39z" /></g></g></svg> 