<svg version="1.1" id="Ebene_1" xmlns="http://www.w3.org/2000/svg" xmlns:xlink="http://www.w3.org/1999/xlink" x="0px" y="0px"
	 viewBox="0 0 512 512" style="enable-background:new 0 0 512 512;" xml:space="preserve">
<path fill="#CA9805" d="M240.3,451.1c0-0.6,0-1.2-0.1-1.8c-4.4-2.1-7.6-5.8-10.2-9.7c-4.5-6.5-7.6-13.8-12.8-19.9
	c-6.9-8.2-14-16.1-23.7-21.1c-10.1-5.2-20.7-8.7-32.2-8.7c-0.8,0-1.9-0.4-2.3,0.5c-0.6,1.1,0.5,1.7,1.2,2.3
	c3.9,3.3,7.7,6.8,11.9,9.6c5.4,3.7,8.3,9.3,11.8,14.5c0.5,0.8,1,2.1,0,3c-0.8,0.8-1.8,0-2.7-0.2c-0.8-0.2-1.4-0.8-2.1-1.2
	c-3.9-2.4-7.9-4.6-12.5-5.8c-7.8-2-15.6-3.7-23.6-4.6c-9.4-1.2-18.7-3.1-28.1-3.6c-2.9-0.1-3.8-0.9-4.1-4.1
	c-0.7-10,3.1-19.1,4.9-28.5c1.6-8.5,1.4-17.1,0.5-25.5c-0.4-3.9-1-8.1-2.6-12.1c-2.2-5.6-5.9-10.2-8.6-15.4c-1.7-3.3-4.1-6.4-7-8.9
	c-0.4-0.4-0.8-1-1.5-0.8c-0.7,0.3-0.6,1-0.4,1.5c2.1,5.2,1,10.8,2.2,16.2c1,4.7,1,9.7-1.1,14.4c-0.5,1-0.3,2.6-2,2.5
	c-1.5-0.1-2.2-1.1-2.6-2.5c-3.7-12.8-11.1-23.4-19.5-33.4c-4.4-5.3-8.4-10.8-12.6-16.3c-1.9-2.5-1.5-4.9,0.4-7.1
	c2.7-3.1,5.5-6.3,8.5-9.1c8.2-7.6,16.2-15.2,22.2-24.8c7.8-12.2,9.3-25.6,8.7-39.5c0-1.1-0.3-2.8-1.4-3c-1.3-0.2-1.7,1.3-2.3,2.3
	c-3.5,6.4-5.6,13.5-11.2,18.7c-1.6,1.4-3,3.9-5.2,2.8c-2.5-1.2-1.2-4-0.6-5.8c3.2-10.2,2.3-20.7,2.5-31.1c0.1-7.3-1.8-14.4-1.5-21.6
	c0.1-2.5,0.9-3.8,3.5-5c7.3-3.3,15.2-3,22.9-4.2c4.1-0.6,8.2-1.3,12.1-2.5c10.6-3.2,19.5-9.1,26.6-17.5c4-4.9,8.1-9.8,10.5-16.1
	c-3.8,2-7.2,4-10.8,5.7c-5.5,2.6-10.9,5.7-17.4,5.4c-1.2-0.1-2.6,0.3-3.1-1.1c-0.5-1.3,0.8-1.8,1.6-2.4c9.9-8,17.7-17.7,24.2-28.6
	c4.6-7.8,9.4-15.4,14.2-23.4c-4,0-7.8-0.7-11.3,0.1c-13.3,3.2-25.3,9.1-35,19.1c-4.4,4.6-9,9.1-13.6,13.7c-0.9,0.9-1.7,2.4-3.2,1.6
	c-1.5-0.8-1.1-2.3-0.6-3.5c2.6-7,2.7-14.2,2.3-21.4c-0.4-6.3-1.9-12.4-4.9-18c-0.3-0.6-0.2-1.7-1.2-1.4c-0.6,0.1-1.2,0.9-1.4,1.4
	c-2.6,7-6.9,13.1-10.2,19.7c-7.4,14.7-12.5,29.9-11.5,46.6c0.3,5.6,0.3,11.2,0.4,16.8c0.1,4.8-1.3,8.8-4.9,12.1
	c-4.1,3.7-7.4,8-10,12.8c-7.7,14.3-11,29.8-12.4,45.8c-0.1,1.1,0.3,2.7-1.3,2.9c-1.4,0.1-1.7-1.3-2.1-2.5c-3.3-12-9.8-22-19.8-29.6
	c-3-2.3-5.8-5.2-10.3-5.7c0.9,3.3,1.7,6.2,1.9,9.3c0.7,9.9,2.3,19.8,4.6,29.5c4.2,17.9,12.7,33.6,25.7,46.7c2.9,2.9,4,6.5,3.3,10.8
	c-1.9,11.8-1.6,23.6,1.2,35.3c3.3,13.7,10.2,25.7,17,37.7c0,0,0,0,0,0c0,0,0,0,0,0l0,0.1c0,0,0-0.1-0.1-0.1c0,0,0,0,0,0
	c-2.2-1.1-4.6-1.9-6.6-3.4c-11.3-8.5-24-12.7-38.1-12.6c-2.4,0-5.9-1.1-6.9,1c-0.8,1.9,2.6,3.5,4.2,5.2c10,10.9,19.4,22.4,31.5,31.3
	c11.6,8.4,24.1,14.5,38.1,17.6c5.5,1.2,10.5,2.4,14,7.9c11.3,17.7,27.4,29.5,46.9,37c7.1,2.7,14.2,5.2,21.6,6.8
	c0.9,0.2,2,0.5,1.9,1.7c-0.1,1.3-1.2,1.2-2.2,1.3c-18.8,1.9-33.9,10.7-46.3,24.6c-0.7,0.8-1.9,1.6-1.5,2.7c0.5,1.2,1.9,0.6,2.9,0.6
	c13.5,0.1,27.1,0.3,40.6,0.3c20.8,0.1,39.7-6.2,57.1-17c4.9-3.1,9.7-6,15.9-4.6c-0.1-0.3-0.2-0.6-0.3-0.9
	C239.6,458.9,240.3,455,240.3,451.1z"/>
<path fill="#CA9805" d="M502.2,220.3c1.1-7.8,1.5-15.8,3.6-23.5c0.2-0.9,0.7-2-0.3-2.6c-0.9-0.5-2.1-0.1-3,0.5
	c-12.2,8.1-21.3,18.7-25.9,32.7c-0.5,1.5-0.8,3.2-2.8,3c-1.9-0.2-1.9-2-1.8-3.4c0.2-7.3-1.1-14.4-2.8-21.4
	c-3.1-13.2-8.5-25.4-18.2-35c-4.4-4.4-5.6-9.1-5.2-14.7c0.5-7.2,0.4-14.5,0.4-21.7c0-7.3-1.9-14.4-4-21.2
	c-4.2-13.4-11.3-25.6-18-37.9c-1.3-2.3-1.9-1.5-2.8-0.2c-0.5,0.8-0.9,1.7-1.1,2.6c-3.2,10.9-5,21.9-2.2,33.2
	c0.5,1.9,1.8,4.6-0.7,5.8c-2.3,1.1-3.3-1.7-4.7-3c-10.1-10-19.5-20.8-33.5-25.8c-7.5-2.7-14.9-5.2-23.5-4.1c0.6,1.3,1,2.5,1.7,3.6
	c4.3,6.8,8.7,13.5,12.9,20.4c5,8.2,10.2,16.2,17.1,23c2,2,4.3,3.7,6.8,5.1c0.9,0.5,1.6,1.3,1.4,2.3c-0.2,1.2-1.4,1.2-2.3,1.2
	c-4.2,0.1-8.1-0.4-12-2.5c-4.4-2.4-9.2-4.3-13.6-6.7c-0.7-0.4-1.5-1.4-2.6-0.5c0,0.3,0,0.7,0.2,0.9c4,6.8,8.9,12.7,14.4,18.3
	c8.9,8.9,19.8,13.2,31.8,15.1c7.9,1.3,15.9,1.8,23.7,4.2c3.9,1.2,4.7,2.9,4.8,6.5c0.2,7.9-1.9,15.6-1.5,23.4
	c0.5,9.5-1.4,19.2,2.4,28.4c0.6,1.5,1.1,3.1,1.5,4.7c0.2,0.9,0.6,2-0.6,2.5c-0.9,0.4-1.8,0.2-2.6-0.5c-3.6-3.3-7.3-6.6-9.4-11
	c-2-4.1-4.9-7.8-6.2-12.3c-0.3-0.9-0.9-1.9-1.9-1.8c-1.1,0-0.8,1.3-1.1,2c-0.3,0.5-0.4,1.1-0.4,1.7c-1.7,16.8,2.9,31.9,12.8,45.4
	c3.7,5,8.4,9.3,13.1,13.6c5,4.5,10.1,9,13.9,14.8c1.5,2.3,1.5,4.2-0.1,6.5c-3.9,5.9-8.9,11.1-13.2,16.7c-8.1,10.5-16,21.1-19.3,34.2
	c-0.2,1-0.4,2-1.6,2.1c-1.4,0.1-1.7-1-2-2c-2.7-7.4-2-15-0.7-22.5c0.6-3.7,0.6-7.5,1.7-11.2c-4.3,2.9-7.1,6.6-9.8,10.6
	c-4.4,6.6-7.9,13.5-9.6,21.4c-1.7,7.7-0.6,15.4-1,23.1c-0.3,4.9,0.7,9.8,2.2,14.3c2.6,7.7,2.5,15.4,2.5,23.2c0,2-0.8,2.7-2.7,2.9
	c-11.9,1.4-23.8,2-35.5,4.4c-8.5,1.7-17.2,3.2-25.2,7.3c-2,1-3.7,2.6-5.7,3.4c-0.9,0.4-2,1.1-3,0.3c-0.8-0.7-0.4-1.8-0.2-2.7
	c0.5-2.8,2.1-4.9,4-7c5.4-6.1,11.7-11,18.3-15.7c1.3-0.9,3.4-2,2.9-3.6c-0.5-1.5-2.8-0.7-4.3-0.7c-12.4,0.2-23.8,4.3-34,10.9
	c-11.8,7.7-21.1,18.1-28.4,30.4c-3.3,5.7-6,11.8-11.4,16.1c-1.2,1-2.2,2.2-4,1.7c0,4.6,0,9.1,0,13.7c3.7,0.6,7.6,0.2,11,2.5
	c5.8,3.9,11.9,7.3,18.3,10.1c10.8,4.8,21.9,8.7,33.7,9.4c16.8,1,33.7,0.1,50.6,0c1,0,2.5,0.7,2.8-0.6c0.2-0.7-0.8-1.9-1.4-2.7
	c-10.6-12-23.5-20.1-39.4-23.3c-2.9-0.6-5.8-1-8.8-1.5c-0.7-0.1-1.5-0.4-1.6-1.2c-0.1-0.9,0.6-1.2,1.3-1.4c0.7-0.2,1.4-0.3,2.1-0.5
	c15.9-3.7,31.1-9.4,44.6-18.7c9.4-6.5,17-14.7,23.2-24.3c2.3-3.6,5.2-6.1,9.6-7.3c8.3-2,16.7-3.8,24.4-7.7
	c12.4-6.2,23.5-14.1,33.3-24c7-7.1,13.1-15.1,20.4-21.8c0.6-0.5,1.3-1.2,0.8-2.1c-0.2-0.4-1-0.5-1.6-0.5c-12.3-0.5-24,1.4-35.1,7
	c-5.2,2.6-9.5,6.6-14.9,8.8c0,0,0,0,0,0l0,0.1c0,0,0-0.1,0-0.1c0,0,0-0.1,0-0.1c0,0,0,0,0,0c2.7-4.9,5.5-9.6,7.9-14.6
	c4.8-9.9,8.7-20.2,10.4-31.3c1.2-8.3,1.6-16.6,0-24.8c-1.2-6,0.2-10.3,4.2-14.5C490.8,261.8,499.1,242.3,502.2,220.3z"/>
<path fill="#CA0E05" d="M279.9,437.4c0.5-0.5,1-1,1.5-1.5c6.3-5.5,5.5-12.6,1.9-17.6c-5.3-7.3-13.1-9.2-19.8-5.2
	c-1.9,1.1-3.8,1.6-6,0.6c-9.9-4.4-13.9-3.1-19.4,3.3c-2,2.3-3.6,4.3-4,7.6c-0.8,6.1,3,9.4,6.7,12.9c6.3,6,5.4,6.3-0.2,11.1
	c-0.2,0.1-0.2,0.4-0.3,0.6c0.1,0.6,0.1,1.2,0.1,1.8c0.1,3.8-0.7,7.7,0.4,11.5c0.1,0.3,0.2,0.6,0.3,0.9l0,0c0,0,0,0,0,0
	c1.3,1.8,2.8,3.1,5.3,3.1c1.1,0,2.7-0.4,3.2,0.9c0.4,1.3-0.6,2.4-1.5,3.4c-6.4,8.1-12.9,16.1-19.1,24.3c-2.3,3-5.1,5.6-6.9,9
	c-1.5,2.9-1.2,3.6,2,3.6c4.8,0,9.5-0.1,14.3,0c2.3,0.1,3.7-0.8,4.6-3c4.5-9.9,9.2-19.7,13.8-29.6c0.7-1.5,1.2-3.4,3.1-3.6
	c2.1-0.2,2.8,1.9,3.5,3.5c4.5,9.7,9,19.3,13.4,29c1.1,2.4,2.6,3.7,5.5,3.7c4.6-0.1,9.3,0,13.9-0.1c1,0,2.3,0.3,2.9-0.8
	c0.7-1.3-0.3-2.2-1-3.2c-5.5-7.1-11.1-14.2-16.7-21.3c-3.1-4-6.3-8-9.4-12.1c-1.1-1.4-1.7-2.9,1.1-3.3c2.9-0.5,4.8-2.4,6.6-4.5
	c0-4.6,0-9.1,0-13.7C274.4,443.1,274.4,443.1,279.9,437.4z M254.3,438.9c-0.1,0.1-0.2,0.2-0.4,0.2c-1.1,0.4-1.7-0.8-2.2-1.4
	c-2.5-3.1-5.5-5.9-6.7-9.9c-0.7-2.3-0.5-4.5,1.6-6.1c1.8-1.3,3.6-0.8,5.4,0.1c1.3,0.7,2,1.9,2.1,3.5c0.2,3.7,0.5,7.3,0.8,11
	c-0.1,0.6,0.1,1.4-0.1,2C254.6,438.6,254.5,438.8,254.3,438.9z M275.6,426.5c-0.1,2-1.1,3.6-2.4,5.1c-1.5,1.8-3.1,3.6-4.2,5.7
	c-0.6,1.1-1.4,2.5-3,1.9c-1.4-0.5-1.1-2-1.1-3.1c0-0.7,0.1-1.4,0.2-2.3c-0.5-2.8,0.7-5.7,1-8.6c0.3-2.7,1.9-4.3,4.8-4
	C273.8,421.4,275.7,423.6,275.6,426.5z"/>
<path fill="#CA0E05" d="M343.2,225.3c-1.8,5.5-2.8,11.2-3.8,16.9c-0.2,1.3-0.7,2.6-1.7,2.9c-1.4,0.4-1.7-1.2-2.3-2.2
	c-4.7-7.4-8.3-15.5-12.2-23.3c-1.7-3.4-4.1-4.4-7.4-5c-3.1-0.6-4.7,0.2-4.5,3.7c0.1,1-0.1,2.2-0.5,3.1c-3.4,9-4.6,18.5-6.9,27.8
	c-1.3,5.3-1.1,5.2,4,7c2.8,1,4-0.1,4.8-2.4c0.4-1.2,0.8-2.5,1.2-3.7c1.3-4.7,2.5-9.4,3.1-14.2c0.2-1.3,0.9-2.8,1.9-3.1
	c1.2-0.5,1.7,1.1,2.3,2.2c4.3,8.4,8.7,16.7,12.9,25.1c1.3,2.5,2.9,4,5.4,3.9c3.4,0.3,5.1-1.5,5.7-4.1c2.5-10.3,4.9-20.7,7.1-31
	c1.1-4.9,0.8-4.8-4.1-6.2C345.1,221.6,344,222.7,343.2,225.3z"/>
<path fill="#CA0E05" d="M253.2,238.7c0-2-0.1-4,0-6.1c0.1-2.1-0.7-2.7-2.7-2.6c-3.6,0.3-7.1,0.5-10.7,0.4c-4-0.1-2.6,2.7-2.8,4.7
	c-0.3,2.2,0.3,3.5,2.9,3c2.5-0.5,3.3,0.7,3.3,3.2c0,2.7-1.7,3.6-3.6,4c-2.2,0.5-4.5,0.5-6.7,0.4c-7.1-0.3-12.3-5.4-12.4-12.1
	c-0.2-8,4.4-13.6,11.8-14.1c5.6-0.4,11.2-0.8,16.6,1.1c0.8,0.3,1.5,0.6,1.9-0.7c1.1-4.2-0.8-7.6-5-8.6c-8-1.9-15.5-0.9-23.1,2.5
	c-7.3,3.3-11.6,8.5-12.6,16.2c-1.3,9.5,3,16.5,11,21.3c6,3.6,12.7,3.2,19.1,2.2C251.7,251.5,253.8,248.8,253.2,238.7z"/>
<path fill="#CA0E05" d="M166.6,268.1c4,1,9.4-3.3,9.7-7.6c0.1-1.4-0.6-3.3,1.5-4c5.1-1.6,10-3.5,15.3-4.3c1.6-0.2,2.9-0.1,3.7,1.3
	c2.7,4.6,6.5,5.4,11.2,3.4c1.1-0.5,2.3-0.6,3.8-0.9c-3.6-4.3-7-8.5-10.5-12.7c-4.7-5.6-9.5-11.2-14.1-16.9c-5.1-6.3-5.1-6.4-12.9-4
	c-0.3,0.1-0.7,0.2-1,0.2c-2.7,0-3.2,1.5-3.2,3.9c-0.1,7.1-1.8,14.1-2.5,21.1c-0.6,5.9-1.6,11.7-1.9,17.7
	C165.7,266.3,165.1,267.7,166.6,268.1z M177.9,246.8c0.5-4.7,0.9-9.4,1.4-15c3.7,4.7,6.9,8.8,10.4,13.1c-3.4,1.8-7.1,2.5-10.7,3.4
	C177.6,248.6,177.8,247.7,177.9,246.8z"/>
<path fill="#CA0E05" d="M355.7,269.6c7.3,3.2,14.6,6.4,22.1,9.3c2.7,1.1,4-1.3,5-3.3c1-2-0.9-2.5-2.3-3.1c-4.3-1.9-8.7-3.7-13-5.5
	c-1.3-0.5-2.5-0.9-2.2-2.9c-0.5-1.8,1.2-3.3,1.8-5c0.8-2.1,2.3-3.3,5-2.1c3.9,1.7,7.9,3.2,11.9,4.5c1.1,0.4,2.9,2.6,3.7-0.3
	c0.6-2.2,2-4.5-1.7-6.2c-3.9-1.7-7.9-2.8-11.6-5c-4-2.4-0.6-4.7-0.3-7c0.3-2.3,2-2.5,4-1.7c4.4,1.9,8.9,3.7,13.4,5.5
	c2.2,0.9,3.6,0.3,4.2-2.1c0.4-1.6,2.1-3.4-0.7-4.4c-7.6-2.6-14.7-6.3-22-9.4c-3-1.3-4.6-0.2-5.6,2.3c-4.5,10.6-9,21.2-13.4,31.8
	C352.9,267,353.7,268.7,355.7,269.6z"/>
<path fill="#CA0E05" d="M294.8,250.6c0-1.8,1.2-4.3-2.3-4.3c-3.4,0-6.9-0.2-10.3-0.4c-9.1-0.5-7.3,1.5-7.4-8.3c0-2.2,0.9-2.8,3-2.7
	c4.4,0.3,8.8,0,13.2,0.5c3.4,0.3,3.8-1.2,3.9-4c0.2-3.3-1.8-2.7-3.6-2.7c-3.6,0-7.1,0.1-10.7-0.1c-3.9-0.2-4.9-1.6-4.6-5.4
	c0.4-5.2,0.4-5.2,5.6-5.1c1.5,0,3.1,0,4.6,0c0,0,0,0.1,0,0.1c2.6,0,5.2-0.1,7.8,0c2.2,0.1,2.7-0.9,2.5-2.8c-0.2-1.5,1.1-3.9-2.1-3.8
	c-8.5,0.5-16.7-1.6-25.2-1.6c-2.4,0-3.3,0.4-3.3,3c0,6.3,0.1,12.6-0.8,18.8c-0.8,6-0.8,12.1-1,18.1c0,1.3,0.1,2.3,1.9,2.3
	c8.8-0.1,17.5,1.6,26.2,1.6C295.1,253.9,294.8,252.3,294.8,250.6z"/>
<path fill="#CA0E05" d="M147.5,269.4c-2.3,1.3-4.6,2.5-7.3,2.5c-3.2,0-6.4,0-9.6,0c1.4,6.7,2.6,7.9,8.8,7.6c4.8-0.2,9.1-2.2,13.1-4.7
	c5.4-3.4,8-9.4,6.6-14.2c-1.4-4.6-8-9-13.7-9c-3.6,0-7.1,0.2-10.7,0.1c-1.6,0-3.8,0.4-4.2-2.2c-0.4-2.4,0.6-3.8,2.8-5.1
	c3.9-2.3,8.1-2.3,12.4-2.4c0.9,0,2.3,0.5,2.1-1.4c-0.4-3.7-3.7-6.7-7.4-5.9c-6.1,1.3-12,3.2-16.5,8.1c-3,3.4-5,6.8-2.9,11.1
	c2.1,4.3,5.1,8.1,10.6,8.3c4.7,0.1,9.5-0.1,14.2,0c1.6,0,3.4,0.4,3.7,2.6C149.8,266.8,149.2,268.4,147.5,269.4z"/>
<path fill="#CA0E05" d="M317.7,291.8c-7.4,0.2-14.7,0.2-22.1,0c-2.4-0.1-2.7,0.9-2.7,2.9c0.1,5.6,0,11.2,0,16.7c0,4.2,0,8.3,0,12.5
	c0,7.7,0,7.7,7.7,7.1c1.7-0.1,2.3-0.7,2.2-2.3c-0.1-3.2,0.2-6.4-0.1-9.6c-0.4-3.5,1.1-4.3,4.2-4.1c3.5,0.2,7.1,0,10.7,0.1
	c1.7,0,2.5-0.4,2.5-2.4c0-3.9-0.8-4.9-4.7-4.9c-3.3-0.1-6.7-0.1-10,0c-2.3,0.1-3-0.8-2.7-2.9c0.1-0.9,0.1-1.9,0-2.8
	c-0.3-2.4,0.8-3.1,3.1-3c3.9,0.1,7.8-0.2,11.7,0.1c3,0.2,2.7-1.6,2.5-3.3C320.1,294.1,321.3,291.7,317.7,291.8z"/>
<path fill="#CA0E05" d="M224.9,331c2.1-0.1,2.6-0.7,2.6-2.7c-0.1-5.6,0-11.2,0-16.7c0-4.3,0-8.6,0-12.8c0-7.1,0-7-7.2-7
	c-2.4,0-3,0.8-2.9,3c0.1,9.6,0,19.2,0,28.9C217.3,331.3,217.3,331.2,224.9,331z"/>
<path fill="#CA0E05" d="M247.7,390.7c0.9,0.7,2.1-0.2,2.9-0.9c3.7-3.5,6-7.8,6-13c0.2-2.5-0.1-4.8-2.1-6.5c-3.2-2.8-6.9-2.1-10.1,1.8
	c-2.6,3.3-2,7.7,2.2,9.9c3.1,1.7,3.5,3.1,1.7,5.8C247.7,388.6,246.5,389.9,247.7,390.7z M247.4,376.1c0.2-1.7,0.1-3.9,2.5-3.9
	c2.1,0,2.7,2,2.8,3.9c0.1,1.9-0.6,3.7-2.8,3.7C247.4,379.7,247.6,377.7,247.4,376.1z"/>
<path fill="#CA0E05" d="M266.6,386.2c-1,1.7-3.9,3.2-3.1,4.8c0.9,1.7,3.9,0.3,5.5,0.7c1.6,0,2.7,0,3.9,0c2.2,0.1,4.3-0.3,4.2-3
	c-0.1-2.6-2.3-1.2-3.6-1.4c-3.3-0.4-3.5-0.8-1.9-3.5c1.1-1.9,2.3-3.8,3-5.9c0.9-3,0.4-5.8-2.3-8c-2.9-2.2-5.6-1.1-8.3,0.3
	c-0.9,0.5-2,1.7-1.3,3c0.8,1.3,1.6-0.1,2.4-0.4c4.2-1.4,6.5,0.5,5.9,4.9C270.7,381.1,268.3,383.4,266.6,386.2z"/>
<path fill="#CA0E05" d="M289.5,368.7c-1.6,0.1-2.8,0.1-2.6,2.2c0.2,3,0,5.9,0,8.9c0,3.1,0,6.2,0,9.3c0,1-0.4,2.4,1.2,2.5
	c1.3,0.1,2.7-0.2,3.2-1.8c0.2-0.7,0.3-1.4,0.3-2.1c0-5.6,0-11.2,0-16.8C291.7,369.4,291.3,368.6,289.5,368.7z"/>
<path fill="#CA0E05" d="M230.6,368.7c-2.1,0-2.2,1.1-2.2,2.7c0.1,2.8,0,5.7,0,8.5c0,3.1,0,6.2,0,9.2c0,1-0.5,2.4,1.2,2.5
	c1.3,0.1,2.7-0.2,3.1-1.8c0.2-0.8,0.3-1.6,0.3-2.4c0-5.3-0.1-10.7,0-16C233.2,369.5,232.7,368.7,230.6,368.7z"/>
<path fill="#CA0E05" d="M260.9,313.6c2.6-0.2,4-1.9,4.1-4.5c0.1-2.7-2-4.8-5.2-4.8c-2,0.2-3.7,1.4-4.1,4
	C255.4,310.5,258.6,313.9,260.9,313.6z"/>
<path fill="#CA0E05" d="M347.3,67c-0.8-2-3.2-0.9-4.9-0.9c-18.5-0.1-37.1-0.1-55.6,0c-3.5,0-5.6-0.8-6.8-4.5
	c-3.8-12.5-15.7-48.8-17.6-54.5c-0.5-1.6-1.6-3.3-3.3-3.4c-2-0.1-2.5,1.9-2.9,3.5c-1.3,6.3-13.9,41.9-17.4,53.9c-1.2,4-2.9,5-6.7,5
	c-18.7-0.1-37.3-0.1-56,0c-1.6,0-3.8-0.9-4.5,0.8c-0.8,1.9,1.3,3.1,2.4,4.4c0.4,0.4,38.4,27.8,46.9,34.1c1.5,1.1,2.3,2.6,1.6,4.7
	c-1.1,3.1-15.5,49.8-18.5,57.4c-0.4,1-0.6,2.6,0.6,3.3c1.4,0.8,2.9,0.2,4.3-0.7c6.9-4.3,46.6-34.2,47.6-34.9
	c2.1-1.4,3.8-1.2,5.8,0.3c8.1,6.1,47.6,35.4,48.1,35.2c3.9,0.4,4.8-0.3,3.8-3c-3.3-9.2-14.9-45.2-17.5-54.1c-1-3.3-1.8-6.6,1.9-9.2
	c8-5.6,38.3-27.5,45.4-32.8C345.9,70.6,348.2,69.3,347.3,67z"/>
</svg>
