<?xml version="1.0" encoding="utf-8"?><svg version="1.1" id="Layer_1" xmlns="http://www.w3.org/2000/svg" xmlns:xlink="http://www.w3.org/1999/xlink" x="0px" y="0px" viewBox="0 0 512 512" style="enable-background:new 0 0 512 512;" xml:space="preserve"><style type="text/css"> .st0{fill:#090707;} .st1{fill:#C30D11;} .st2{fill:#0A0707;} .st3{fill:#0A0706;} .st4{fill:#090909;} .st5{fill:#F3F5F0;} .st6{fill:#0A0A0A;} .st7{fill:#0D0D0D;} .st8{fill:#0E0E0E;} .st9{fill:#F5F4F0;} .st10{fill:#F5F2F0;} .st11{fill:#101010;} .st12{fill:#E5D357;} .st13{fill:#0F0F0F;} .st14{fill:#0C0C0C;} .st15{fill:#F8F8F4;} .st16{fill:#6F1B18;} .st17{fill:#8C8B86;} .st18{fill:#731E19;} .st19{fill:#0B0B0B;} .st20{fill:#672019;} .st21{fill:#651D1A;} .st22{fill:#8A8A84;} .st23{fill:#64251C;} .st24{fill:#801F1D;} .st25{fill:#7A171B;} .st26{fill:#786953;} .st27{fill:#93918D;} .st28{fill:#503620;} .st29{fill:#721D1A;} .st30{fill:#91918B;} .st31{fill:#8E8C89;} .st32{fill:#4B3E1F;} .st33{fill:#483721;} .st34{fill:#4C2B19;} .st35{fill:#2C2C2C;} .st36{fill:#91918E;} .st37{fill:#505050;} .st38{fill:#5D5D5D;} .st39{fill:#352817;} .st40{fill:#6A6A6A;} .st41{fill:#232323;} .st42{fill:#8B8785;} .st43{fill:#D9D9D9;} .st44{fill:#595959;} .st45{fill:#832622;} .st46{fill:#3F301C;} .st47{fill:#252525;} .st48{fill:#CFCFCF;} .st49{fill:#D3D3D3;} .st50{fill:#2E2E2E;} .st51{fill:#3D2F22;} .st52{fill:#3B2A18;} .st53{fill:#DFDFDF;} .st54{fill:#5C5C5C;} .st55{fill:#7D2021;} .st56{fill:#D8D8D8;} .st57{fill:#292929;} .st58{fill:#6F2120;} .st59{fill:#373737;} .st60{fill:#CBCBCB;} .st61{fill:#545454;} .st62{fill:#323232;} .st63{fill:#6D1E1C;} .st64{fill:#575757;} .st65{fill:#181818;} .st66{fill:#C5C5C5;} .st67{fill:#8D8A86;} .st68{fill:#4F4F4F;} .st69{fill:#CCCCCC;} .st70{fill:#594B2E;} .st71{fill:#8E8984;} .st72{fill:#6E6E6E;} .st73{fill:#565656;} .st74{fill:#747474;} .st75{fill:#333333;} .st76{fill:#CACACA;} .st77{fill:#3A3A3A;} .st78{fill:#34250E;} .st79{fill:#D2D2D2;} .st80{fill:#464646;} .st81{fill:#474747;} .st82{fill:#454545;} .st83{fill:#37230E;} .st84{fill:#702E26;} .st85{fill:#4A4A4A;} .st86{fill:#434343;} .st87{fill:#5A5438;} .st88{fill:#4D4D4D;} .st89{fill:#604B36;} .st90{fill:#3E3E3E;} .st91{fill:#4C4C4C;} .st92{fill:#606060;} .st93{fill:#8D8D8D;} .st94{fill:#837545;} .st95{fill:#75613D;} .st96{fill:#302211;} .st97{fill:#555555;} .st98{fill:#626262;} .st99{fill:#702B26;} .st100{fill:#B5B5B5;} .st101{fill:#353535;} .st102{fill:#AFAFAF;} .st103{fill:#762124;} .st104{fill:#585858;} .st105{fill:#969696;} .st106{fill:#55534D;} .st107{fill:#E7D559;} .st108{fill:#491F1A;} .st109{fill:#E3DCDD;} .st110{fill:#E9DAE7;} .st111{fill:#932021;} .st112{fill:#3B1F16;} .st113{fill:#95918E;} .st114{fill:#D9D2D3;} .st115{fill:#DCD2D6;} .st116{fill:#92191C;} .st117{fill:#921B1D;} .st118{fill:#4C2320;} .st119{fill:#FAFBFA;} .st120{fill:#847956;} .st121{fill:#CDBDBD;} .st122{fill:#FBFBFB;} .st123{fill:#908C86;} .st124{fill:#715A33;} .st125{fill:#FDFDFD;} .st126{fill:#DBDBDB;} .st127{fill:#D5D5D5;} .st128{fill:#E0E0E0;} .st129{fill:#581717;} .st130{fill:#FEFEFE;} .st131{fill:#5B5B5B;} .st132{fill:#CDCDCD;} .st133{fill:#B8B8B8;} .st134{fill:#515151;} .st135{fill:#E9E9E9;} .st136{fill:#BEBEBE;} .st137{fill:#666666;} .st138{fill:#F1F3F0;} .st139{fill:#7B7570;} .st140{fill:#89857F;} .st141{fill:#96908A;} .st142{fill:#605A59;} .st143{fill:#1C1111;} .st144{fill:#8D8883;} .st145{fill:#85817A;} .st146{fill:#E3DFDC;} .st147{fill:#F3EFEA;} .st148{fill:#78766F;} .st149{fill:#8D8E88;} .st150{fill:#423B39;} .st151{fill:#5D5A55;} .st152{fill:#5C3A2A;} .st153{fill:#DDDDDD;} .st154{fill:#E2E2E2;} .st155{fill:#E6D459;} .st156{fill:#CECECE;} .st157{fill:#E7D15C;} .st158{fill:#E7D25D;} .st159{fill:#919191;} .st160{fill:#C8C8C8;} .st161{fill:#F7F7F2;} .st162{fill:#E6D358;} .st163{fill:#F3F4F3;} .st164{fill:#841F20;} .st165{fill:#F4F4F2;} .st166{fill:#EFEEE9;} .st167{fill:#311D19;} .st168{fill:#F2F9F2;} .st169{fill:#F7F7F4;} .st170{fill:#E2C98A;} .st171{fill:#2F241A;} .st172{fill:#F9F8F3;} .st173{fill:#E5D360;} .st174{fill:#F8F7F4;} .st175{fill:#F8F5F3;} .st176{fill:#E6D35E;} .st177{fill:#E6D261;} .st178{fill:#E7D454;} .st179{fill:#E2CF7B;} .st180{fill:#E5D263;} .st181{fill:#7C615C;} .st182{fill:#E1CB71;} .st183{fill:#2C1E13;} .st184{fill:#F7F6F6;} .st185{fill:#79694F;} .st186{fill:#8F8D89;} .st187{fill:#B4947C;} .st188{fill:#F4F6F6;} .st189{fill:#651B1C;} .st190{fill:#86817C;} .st191{fill:#E4DED8;} .st192{fill:#CFC5BF;} .st193{fill:#F3EEEB;} .st194{fill:#F3F6F2;} .st195{fill:#908680;} .st196{fill:#EAE4E1;} .st197{fill:#8B8583;} .st198{fill:#EFECE7;} .st199{fill:#625D57;} .st200{fill:#8D8B86;} .st201{fill:#706D68;} .st202{fill:#F4F2EC;} .st203{fill:#E0E0DA;} .st204{fill:#E7E5DD;} .st205{fill:#F0EBE9;} .st206{fill:#841916;} .st207{fill:#EBE7E2;} .st208{fill:#DED5CA;} .st209{fill:#5F5B58;} .st210{fill:#928986;} .st211{fill:#F9F3EF;} .st212{fill:#F6F5F2;} .st213{fill:#F2ECE6;} .st214{fill:#636663;} .st215{fill:#F6F3ED;} .st216{fill:#E7E9E6;} .st217{fill:#522122;} .st218{fill:#831E16;} .st219{fill:#B91318;} .st220{fill:#E3DAD0;} .st221{fill:#64584D;} .st222{fill:#F2F2EB;} .st223{fill:#EDE9E8;} .st224{fill:#2F1714;} .st225{fill:#EEECE8;} .st226{fill:#DEDFDA;} .st227{fill:#EFEDE7;} .st228{fill:#F4F3EE;} </style><g><path class="st0" d="M232.3,282.3c-1.4-1-2.3-0.9-3.7,0.4c-7.1,6.1-14.3,12.1-21.5,18.1c-1.3,1.1-2.9,2.2-1.3,4 c3,3.5,0.6,4.6-2.2,5.7c-5.5,2.2-9,6.1-11.8,11.5c-8,15.2-19.5,27.6-32.3,39.1c-17,15.2-35.5,28-56.6,36.8 c-8,3.4-16.7,4.1-25.1,5.7c-2.8,0.5-3.1-0.7-2-3.1c10.2-22.8,22.8-43.8,42.1-60.2c11.7-9.9,23.2-20.3,36.8-27.7 c6.9-3.8,13.9-7.2,21.6-9.2c5.7-1.5,10.5-4.3,13-10c0.6-1.5,1.7-3.8,3.4-2.2c4.8,4.4,7-0.2,10-2.3c0.8-3.6,4.7-3.3,6.7-5.4 c0.7-0.4,1.5-0.8,2.2-1.1c3.8-2.1,3.3-7.9,8-9.2c0.8-0.5,1.6-1.1,2.3-1.7c1.1-0.9,1.4-2.7,3.4-2.4c3,4.2,6.2,8.3,8.9,12.7 C233.7,282.2,233.4,283,232.3,282.3z"/><path class="st0" d="M315.1,290.4c4.9,10.6,15.4,12.2,24.9,15.9c12.4,4.9,23.4,12.6,33.8,21.1c16.7,13.6,32.6,27.8,43.7,46.7 c4.8,8.2,8.8,16.7,12.9,25.3c0.6,1.2,1.7,2.5,1,3.5c-0.9,1.4-2.6,0.6-4.1,0.4c-17.7-2.3-33.4-9.1-48.5-18.6 c-19.7-12.4-37.1-27.2-52-45c-5.4-6.5-10.1-13.4-13.6-21.1c-2.1-4.5-6.2-6.5-10.5-8.2c-2.6-1-4.8-2.1-1.9-5.3 c2-2.3-0.1-3.5-1.6-4.8c-7.2-6-14.4-12-21.5-18c-0.8-1.3-3.3,0.1-3.6-2.2c1.3-3.4,3.3-6.2,6.3-8.3c1.4-0.3,2.8,0,4.2,0 c1.4,0.4,2.6,1.1,3.9,1.7c1.1,0.5,2.2,1.1,3.1,2c1.2,3.3,4.3,4.9,6.5,7.4c1.3,3,5,2.8,7,4.9C307.7,291.2,311.4,290.8,315.1,290.4z" /><path class="st1" d="M165.3,279.7c-3.2,0.4-6,1.9-8.8,3.3c-2.9,1.7-6.2,2.6-9,4.6c-1.3,0.6-1.7,2.6-3.6,2.3 c-4.4,1.4-8.9,3.6-12.6-1.5c-1.3-7-5.1-12.7-9.8-17.8c-2.2-2.4-4.6-4.6-6.9-7c-2.4-3.9-1.8-7.5,0.8-11c1.2-1.6,2.6-3,3.7-4.7 l-0.1,0c3.8-3.2,6.8-6.9,8.9-11.5c1.3-1.8,2.7-3.4,3.3-5.6c1.2-4.3,3-4.8,6.7-2.4c1.4,0.9,2.4,2.4,4.2,2.4c3.1,0.3,6.3-0.4,9.3,0.7 c1.4,0.8,1.6,1.9,0.7,3.2c-3.7,5.1-3.6,5.4,2.4,8.1c1.3,1.1,3,1.3,4.6,1.7c1.3,0.4,2,1,1.9,2.7c-0.2,5.3,1.9,7.5,7,8 c3.3,0.3,8.3-1.1,5.7,5.6c-0.7,1.9,1.8,2.9,3.1,4.1c7.5,5.6,7.5,5.5-1,9.5C172.4,276.4,168.1,276.5,165.3,279.7z"/><path class="st2" d="M154.6,172.9c-10.3-7.9-19.7-16.9-30.6-24.1c-2.1-1.4-4.3-2.7-6.6-3.8c-6.6-3-10-12.5-7-19.1 c1-2.3,2.6-2.9,4.8-1.5c1.2,0.8,2.5,1.6,3.6,2.5c36.3,30.2,72.7,60.4,108.9,90.7c3.8,3.2,7,6.9,10.5,10.4c0.5,0.7,0.7,1.5,0.5,2.3 c-2.6,3.4-5.9,6-9.6,8.2c-1.3-0.2-1.7-1.1-2.1-2.2c-1.5-4.9-6.1-6.8-9.6-9.5c-17.7-14-34.2-29.4-51.9-43.3c-1.3-1-2.7-1.9-3.9-3 c-1.8-2.3-4.5-2.7-7-3.6C152.9,175.6,155.4,174.2,154.6,172.9z"/><path class="st3" d="M268.7,228c7.4-8.9,16.8-15.8,25.6-23.2c30.8-25.8,61.7-51.3,92.7-76.9c2.2-1.8,4.3-5.6,7.8-3.6 c3.3,1.9,2.4,5.7,2.3,9c-0.1,4.7-1.7,8.8-6.1,10.9c-11.9,5.4-20.9,14.7-31,22.5c-2.5,1.9-4.9,3.8-7.3,5.8c-1.1,0.9-1.8,2,0,2.9 c0.3,2-1.3,1.8-2.4,2.3c-1.2,0.2-2.4,0.4-3.4,1c-1.1,0.6-1.9,1.4-2.8,2.2c-11.7,10-23.5,19.6-35.1,29.7 c-9.9,8.6-20.5,16.5-30.4,25.1c-0.9,0.8-1.9,1.1-3,0.9c-3.1-1.4-6.2-2.6-7.5-6.2C268,229.5,268.3,228.7,268.7,228z"/><path class="st4" d="M177.3,451.1c-6.3-2.1-8.1-1.3-12.2,5.3c-0.9,0.1-1.6,0-1-1.2c0.8-4.2,1-8.3-3.1-11.5c9.2,3.8,18.8,5.6,28,8.5 c9,2.8,18.4,3.2,27.4,5.3c9.7,2.2,15.8,9,16.2,18.2c0.5,10.5-4.2,17.2-14.3,20.6c-3-0.4-0.8-1.7-0.6-2.7c8.7-7.3,11-19,5.6-28.3 c-1.3-2.6-3.5-3.8-6.4-3.7c-11.3-3-11.3-2.9-12.8,8.6c-0.7,5-1.7,10-2.4,15.1c-1,6.6-0.3,7.6,6.4,8.3c1.1,0.1,2.2,0.1,3.2,0.5 c1.7,0.9,2.3,1.9,0.3,3.1c-8.6-1.2-17.1-2.5-26.4-3.8c2.1-2.3,3.9-1.5,5.4-1.6c1.6,0.9,1.9-0.4,2.4-1.4c0.7-2.4,0.9-4.8,0.9-7.3 c0-1.3,0.3-2.6,0.9-3.8c0.1-0.5,0.3-1,0.5-1.5c1-4.6,1.6-9.3,2.4-13.9c0.4-2.2,1-4.8-1.5-6.4c-7.6-4.9-9.9-4.2-12.3,3.9 c-1.8,6.1-3.5,12.3-5.5,18.4c-1.4,4.3-3.5,8.7,2.2,12.1c-5.9-1.7-11.7-3.5-17.6-5.2c0-0.4,0.1-0.7,0.1-1.1c1.8-0.2,3.6-0.3,5.4-0.5 c0.9,0.3,1.7,0,2.3-0.7c3.2-10.2,6.7-20.3,8.6-30.8C179.6,451.9,178.4,451.5,177.3,451.1z"/><path class="st5" d="M315.1,290.4c-4.2,3.6-7.7,2.3-10.8-1.6c-0.9-1.9,0.6-3.4,0.8-5.4c-2.6,0.3-5.2,2.3-7.6-0.1 c-3-2.1-6.2-3.9-7.1-7.9c0.6-2.7,2.6-3.2,4.9-3.4c1.3,1.2,1.2,3,2.2,4.3c0.8,1.1,1.9,1.6,3.3,1.5c1-0.1,1.6-0.8,1.6-1.9 c-0.1-1.5-1-2.3-2.3-2.7c-1.2-0.4-2.5-0.2-3.8-0.6c-1.6-1.6-3-0.4-4.4,0.3c-2.8,1.3-4.4,1.1-3.2-2.5c0.5-1.4,0.1-2.9,0.6-4.3 c3.9-3.2,8.5-1.4,12.7-1.5c2.5,0,5,0.6,7.5,1.1c2.6,0.8,5.3,1.3,7.9,2.3c4.7,1.9,5.1,2.6,4.9,7.5c-0.2-1.9,0.8-3.2,2.7-2.8 c3.7,0.9,8.2,0.2,10.1,4.9c-3.3,3-7.6,1.3-11.1,1.2c-3.8-0.1-5,0.7-6.2,3.8C317,285.3,315.7,287.7,315.1,290.4z"/><path class="st6" d="M100.5,416.9c5.2-0.5,10.5-0.9,15.1,2.3c0.1,1-0.6,1.4-1.4,1.6c-12.4-0.4-23.5,13.3-20.7,25.6 c1.3,5.9,4.7,8.3,12.1,8.5c2.6,0.1,5.1,0,7.2-1.7c5.2-4.3,8.1-10,9.1-16.6c0.5-3.6-0.6-7.3,0.1-10.9c0.4-0.6,0.9-0.6,1.5-0.2 c6,7,6.1,14.8,1.9,22.4c-5.2,9.5-13.7,12.6-24.6,10.4c1.9,6.4,5.9,9.5,12.2,10.6c-4.1,0.1-6.9,7.6-11.8,1.5 c-2.3-4.7-6.1-8.6-7.1-13.9c-0.4-0.8-0.8-1.7-1.7-2.2c-1.1-1.4-2.2-2.8-3.4-4.2c-1.5-4.1-2.9-8.2-2.4-12.7c0-6.1,3-10.8,7.2-14.9 l0,0C95.8,420.2,99.4,419.9,100.5,416.9z"/><path class="st4" d="M262.3,500.3c-8.3,0.3-16.6,0.6-24.9,1c-1,0-2,0-1.8-1.2c0.2-1,1.5-0.7,2.4-0.8c1.6-0.6,3.9-0.4,4-3.1 c0.2-6.9,0-13.7,0.1-20.6c-0.2-3.7,1-7.6-1.1-11.1c-0.2-0.1-0.4-0.2-0.7-0.3c-1.8-0.7-3.6-1.3-6.6-2.4c4.8-1.6,8.8-0.8,12.5-1 c4.6-0.2,9.2-0.3,13.7-0.2c8.7,0.2,16.1,5.8,18.6,13.8c2.6,8.3,0,16.3-7.1,21.9c-1.1,0.3-1.6-0.3-1.9-1.1c-0.3-2.1,0.9-3.8,1.6-5.6 c1.8-4.7,2.5-9.4,0.9-14.3c-0.7-4-2.5-7.4-5.7-10c-1.4-1-2.9-0.3-4.3-0.3c-11-1.5-12.8-3.7-12.5,11.4c0.1,4.6-0.1,9.1,0,13.7 c0.1,6.8,1.7,8.1,8.3,7c1.8-0.3,3.5-1,5.4-0.2C264.7,498.4,264,499.5,262.3,500.3z"/><path class="st7" d="M272.3,18.8c11.3-4.2,22.6-1,28.1,8.1c5.2,8.7,3.5,20.4-4.5,26.9c-7.6,6.2-16,6.6-24.7,2.4 c-1.5-2.3-4.2-3.5-5.6-5.9c-4.6-7.6-4.4-15.3-1-23.2C266.4,23.5,269.9,21.7,272.3,18.8z"/><path class="st8" d="M404.6,87.1c-5.2,2.6-7.4,7.6-10.4,12.1c-1.1,1.7,0.4,3.1,1.5,4.2c4.4,4.3,9.5,6.6,15.9,5.3 c1.7-0.4,3.6-1.4,5.1,0.8c-1.8,2.4-4.7,3.2-6.9,5c-1.5,1.2-2.6,0.5-3.8-0.5c-7.7-6.2-15.5-12.3-23.2-18.4c-0.8-0.6-2.4-1.1-1.2-2.3 c0.3-0.3,1.9,0.4,2.9,0.7c3.3,1.3,5.8,0.5,7.9-2.5c5.2-7.6,12.4-13.7,16.4-22.2c-0.1-0.7-0.2-1.4-0.9-1.9c-1-1.3-2-2.5-3-3.8 c0.3-0.3,0.7-0.7,0.8-0.7c8.8,5.6,16.7,12.4,24.6,19.2c3.9,3.4-1.3,6.6-1.8,10.1c-2.2-4.4-1.9-9.3-5.5-13.2 c-5.6-6.2-8.3-6.6-13.1-0.1c-1.7,2.3-5.2,3.7-4.2,7.5C405.8,87.1,405.7,87.6,404.6,87.1z"/><path class="st9" d="M106.2,184.2c-2.6,0.1-5-0.6-7.3-1.9c-2.8-1.7-1.3-2.7,0.5-3.7c6.9,0.7,13.5,2.8,20.5,3.2 c8.8,0.6,17.1-0.7,25.5-2.8c2.3-0.6,4.5-1.5,6.9-1.7c1.8,0.6,3.8-1,5.6,0.4c0.7,2.4,2.6,4.6,1.3,7.4c-1.5,1.9-3.8-0.7-5.4,1 c-0.5,3.1-0.1,6.1-0.2,9.2c-0.3,4.1,1.7,7.8,1.8,11.9c-0.2,1.2-0.5,2.3-1.9,2.6c-9.4-7.9-20.8-11-32.6-12.9 c-2.9-0.5-5.8-0.4-8.7,0.5c-2.1-1-4.4-1.9-6.4-3.1c-1-0.6-2-2-1.2-3.3c0.8-1.3,2.2-1,3.5-0.3c11.8,0.7,23.4,2.6,34.8,6.3 c1.5,0.5,3,1.5,4.7,1.1c-0.9-3-5.3-2.8-5.6-6.3c0.8-0.9,1.9-1,3-0.8c1.6,0.2,3.5,1,3.4-1.8c-0.1-2.2-0.4-4.4-3.4-4.7 c-2.9-0.3-5.7,0.8-8.6,1c-0.6,1.7,3.5,2.7,0.7,4.7c-3.2,0.4-6.1-1-9.1-1.9c-5.7-1.6-11.3-3-17.2-2.8 C109.1,185.6,107.4,185.6,106.2,184.2z"/><path class="st7" d="M321.9,27.7c-1.6-1.3-3.2-2.6-4.8-3.9c6.5,0.7,12.4,2.6,18.3,5.6c-5.7-0.9-7,2.5-8.2,6.7 c-1.6,5.6-3.7,11.1-5.5,16.7c-2.3,7.1,0.1,11.7,7,14.2c6.8,2.4,12.7-0.2,15.1-6.8c2.1-6,3.9-12.2,5.8-18.2c1.5-2.5-0.7-8,5.5-6.7 c1.5,0.4,3.2,0.4,4.6,2.5c-6.9,0-8.2,5.1-9.8,9.9c-1.2,3.5-2.4,6.9-3.5,10.4c-3.6,10.8-10,14.1-20.7,10.4c-1.7-0.6-3.3-1.5-4.9-2.3 c-1.4-1.7-3.3-2.9-4.2-4.9c-1.8-3.5-1.3-7.1-0.2-10.7c1.8-5.8,3.8-11.5,5.7-17.3C322.7,31.4,323.7,29.5,321.9,27.7z"/><path class="st10" d="M346.4,177.7c1-0.5,1.7-1.7,3-1.2c9.2,1,17.9,4.9,27.3,5.2c7.5,0.2,14.9,0.3,22.2-1.5 c1.3-0.3,2.5-0.4,3.5,0.7c-0.5,1.8,3.3,4.5-1.2,5.4c-8.5-2.3-16.5,1-24.6,2.5c-1.9,0.2-3.8,1.2-5.8,0.2c-0.6-1.8-0.1-4.3-3.5-3.9 c-1.7,0.2-3.5-0.9-5.4-0.6c-1,0.2-1.6,0.8-2.1,1.6c-2,3-1.8,5.4,2,6.8c0.6,2.5-2.3,3-2.8,5.1c4.7,0.6,8.8-4,13.6-1.6 c0.4,0.4,0.9,0.7,1.3,1.1c-2.6,3.8-7.5,3.3-10.8,5.9c-2.9,1.2-5.6,2.5-7.9,5.8c2-0.4,3.8-1.1,5.2,0.1c0.4,0.9,0,1.5-0.5,2.2 c-3.9,2.8-7.7,5.9-12.9,5.9c-0.5-0.7-0.7-1.4-0.7-2.3c1.4-4.2,4.7-7.6,5.4-12.1c0.3-1,0.5-2,0.6-3c-0.3-4.6,3-9.3-0.1-13.8 c-3,0.1-5.6-0.5-4.7-4.4C348,179.9,346,179.2,346.4,177.7z"/><path class="st8" d="M95.8,70.4c-6.2,3.2-6.2,3.2-1.9,8.5c4.3,5.3,8.7,10.4,12.8,15.8c3,4,5.7,8.4,12,4.3c-3,4.1-6.8,6.5-10.3,9.3 c-0.9,0.4-1.4-0.1-1.8-0.8c0.5-2.8-1.3-4.7-2.7-6.8C99.1,93.8,93.5,87.6,88.4,81c-1.5-1.9-0.4,1.2-1.2,0.7 c-2.4-3.1-4.3-2.9-6.5,0.4c-1.9,2.9-2.7,5.9-2.7,9.3c0,2.2-0.4,4.9-3,1.2c-0.7-0.9-0.7-2.1-0.4-3.1c0.9-2.7-1.5-0.5-1.9-1.3 c-1.1-2.2,0.5-3.2,1.9-4.4c7.5-6,15-12.1,22.5-18.1c2.4-1.9,9.4,0.4,9.7,3.4c0.2,2.5-1.9,1.1-3.2,1.2 C101.1,69.4,98.4,67.8,95.8,70.4z"/><path class="st11" d="M302.1,455.3c7.5-2.3,15.1-4.5,22.6-6.8c7.8-2.4,8.4-2,10.8,6.7c-2.3,1-3.2-1.2-4.7-2c-3-1.7-6-2.4-9.5-1.6 c-2.7,0.6-3.1,1.6-2.4,4.1c2.5,7.9,4.9,15.8,6.9,23.7c1.2,4.7,2.8,8.3,8.8,8.1c-6.3,1.9-12.6,3.7-19.1,5.6c0.2-3.2,2.9-2.4,4-3.7 c1-0.7,1.8-1.5,1.9-2.8c-1.4-9.6-5.2-18.6-7.4-28c-0.6-3.1-2.3-4.3-5.4-3.5c-1.8,1.1-3.7,2.3-5.5,3.4 C300.7,458.1,301.3,456.7,302.1,455.3z"/><path class="st12" d="M290.1,371.7c2-0.9,4-1.9,6.3-1.2c6.7,3.7,8.5,6.9,7.2,13c-1.1,5.3-4.2,7.5-10.5,7.3c-5.5-0.2-8.3-2.5-9.1-8 C282.7,376,284.1,373.4,290.1,371.7z"/><path class="st13" d="M372.6,47.3c-5.4,4.3-5.7,7.4-0.7,11.9c2.7,2.5,5.7,4.6,8.3,7.2c4.8,4.8,5.1,11.3,1.1,16.4 c-4.1,5.1-11.4,6.3-16.8,3.1c-4.1-2.4-6.1-8-12.1-7.7c-1.3,0.1-0.6-1.8-0.1-2.7c1.9-3.5,3.9-6.9,6.2-11c2,3.6,0.7,6.7,1,9.6 c1.2,9.8,8.2,13.9,16.5,9.4c1.3-0.1,1.6-1.3,2.3-2c1.9-5.7,0.7-8.8-5.7-13.7c-3.5-2.7-6.9-5.5-7.6-10.2c-0.5-2.7,0.6-5.2,1.3-7.7 c1.3-1.7,2.8-3.2,5.1-3.6C372.4,45.7,372.7,46.2,372.6,47.3z"/><path class="st14" d="M362.6,433c4.9-3.1,9.8-6.1,15.3-9.5c-0.6,7.4,4.6,11.2,6.9,16.3c0.5,1,3,0.1,2.3,2.3c1.5,4.4,4.6,7.7,7,11.6 c1.8,3,4.6,2,7.4,1.2c-2.4,3.4-5.9,5-9,7c-1,0.4-1.4-0.2-1.9-0.9c-3.6-10.7-11.8-18.7-17.1-28.4c-0.4-0.7-1.3-0.3-1.8,0.3 c-1.3-1-2.8-1.3-4-0.2c-1.6,1.3,0,2.6,0.5,3.9c0.7,1.9,1.5,3.8,2.9,7.1c-4-2.2-6.6-3.6-9.2-5.1C361.5,436.6,362.3,434.9,362.6,433z "/><path class="st13" d="M345.3,445.7c-0.8,6.6,0.5,12.7,4.1,18.4c3.5,5.6,8.2,9.5,15.2,8.9c6.8-0.6,10.6-5.1,12.8-11.2 c0.3-0.9,0.2-2.2,2.7-3.2c-0.6,6.2-3.4,10.4-7.6,13.8c-7,5.6-15.7,6.5-22.2,2.5c2.1-1.2,4,0.1,6.1,0.5 c-10.1-1.6-15.2-7.9-16.9-17.5c0.1-3.9-0.6-8,2.2-11.4l0.1,0.1c0.9-0.8,1.2-2.3,2.7-2.3C345.5,444.3,345.5,445,345.3,445.7z"/><path class="st13" d="M205,47.4c2.1,7.9-0.7,13.1-9,16.6c-4.5,1.9-9.2,3.2-14.1,1c-5.7-4.7-7.1-11.5-9-18.2 c-1.3-4.6-1.7-9.4-4.1-13.6c-0.5-1.3-2.7-1.6-2.2-3.5c4.2-1.2,8.3-2.3,12.5-3.5c-6.3,3.8-3.2,8.7-2,13.3c1.1,4.2,2.3,8.5,3.5,12.7 c2.2,8.2,5.3,10.9,11.8,10.1c7.9-0.9,11.5-5.2,11.5-13.7C203.3,47.6,203.9,47.3,205,47.4z"/><path class="st15" d="M366,177.5c2.5,0,5,0,7.5,0c10.8,1.3,19.7-4.1,29.1-8c2.8-1.2,6.7-4.5,8.3-2.4c2,2.7-1.9,6.1-3.4,9.1 c-0.9,1.9-2.8,3-4.7,3.6c-12.2,3.4-24.5,3.9-36.9,1c-1.1-0.3-2.3-0.6-2-2C364,177.7,364.9,177.3,366,177.5z"/><path class="st7" d="M396.2,419.2c-2.5-2.2-5.4-2.2-8.5-0.7c-0.1-0.4-0.3-0.9-0.4-1.3c5.2-3.3,10.3-6.7,15.5-10 c-5,5.5-0.4,9.3,2.1,13.4c3.1,5,6.5,9.8,9.5,14.8c2.3,3.9,4.5,7.6,10.3,4.8c-2.6,3-5.7,4.8-8.9,6.4c-0.9,0.4-1.5-0.1-2-0.7 c-4.5-9.9-11.8-18.1-16.7-27.8c-0.2,0.2-0.4-2.1-0.5,0C396.5,418.6,396.4,418.9,396.2,419.2z"/><path class="st14" d="M148.8,479.4c-5.8,0.8-10.6-1.5-15.3-4.5c-3-3.8-4.3-8.1-3.6-12.9c1.5-6.4,4.8-12.1,7.1-18.1 c0.8-2,1.9-3.9,1.9-6.1c-0.1-1.4-1.4-1.6-2.1-2.4c-0.9-1.3-3.3-0.9-3.3-3.7c6.3,1.7,11.8,4.7,17.9,7.9c-7.6-1.7-7.9,4.1-9.7,8.3 c-1.7,3.8-3.2,7.7-4.9,11.6c-4.3,10.1-2.8,13.8,7.6,18C145.5,478.8,148.3,476.6,148.8,479.4z"/><path class="st16" d="M242.8,203.9c-5.2-20.6-13.2-40-23.5-58.5c-1.7-1.3-4.6,1.1-5.8-1.9c6.3-2.9,7.4-8.1,6.2-14.3 c0.3-0.8,0.6-1.5,1.7-1.2c0.5,0.8,1.2,1.5,1.3,2.3c0.4,4.4,2.6,3.8,5.5,2.3c5.6-2.7,10.2-6.7,15.2-10.3c0.5-0.4,1-0.4,1.4,0.1 c-0.1,5.8-5.6,7.1-8.9,10c-2.6,2.3-5.8,4.2-9.3,5.5c-3.9,1.4-4,5-2.4,8.8c3.6,8.2,8.5,15.8,11.4,24.4c3.4,10,8.9,19.4,9.1,30.4 C244.5,202.6,244.4,203.8,242.8,203.9z"/><path class="st17" d="M366,177.5c-0.6,2-0.6,2,1.2,2.5c9,2.3,18,1.7,27.2,0.7c8.7-0.9,14.5-4.4,16.4-13.9 c-6.2,2.7-12.3,5.3-18.3,8.1c-5.5,2.6-11.3,3.7-17.4,3.7c-0.6,0-1.1-0.7-1.7-1.1c14.2-0.9,26.4-8.2,39.7-12.9 c-2.1,6.6-3.2,13.5-10.7,16.4c-18.2,4.7-35.8,2.8-53-4.4c1.1-0.4,2.6,0.4,3.3-1.2C357.2,175.6,361.7,176,366,177.5z"/><path class="st6" d="M282.1,460.9c-1.3-0.2-2.9,0.6-4.1-1.1c4.7-1.4,9.3-2,13.9-2.4c1.3-0.1,3-1.4,3.5,1.1 c-2.8,0.7-3.8,2.4-3.3,5.3c1.5,9,3,18.1,4.2,27.2c0.6,4.2,4.2,3.2,7.3,4.4c-3.6,1.9-6.8,2-10,2.1c-1.1,0.4-2.2,0.6-2.9-0.8 c-0.2-0.8-0.1-1.7-0.1-2.5c-1.5-10.8-2.1-21.7-5.7-32.1C284.1,461.2,283,461.3,282.1,460.9z"/><path class="st18" d="M245.8,395.9c-5-5.5-11.2-9.4-17.6-12.9c-1.6-0.9-3.4-2.6-5.2-0.1c-0.8-0.1-1.4-0.6-1.9-1.2 c-1-2.3-1.4-4.8-2.5-7c-0.2-1.3-1.6-2.4-1.1-3.9c2.5-0.2,3.1-2.3,3.9-4.1c4.1-8.3,8.2-16.7,12.3-25c0.5,0.3,0.8,0.8,1,1.3 c0.7,2.6,0.3,5-0.9,7.4c-2.9,5.7-5.6,11.5-8.7,17.1c-2.7,4.8-2.2,8.4,2.6,11.1c6.2,3.5,12.3,7.2,17.6,11.9c1.7,1.5,4,1.6,6.3,1.6 c3.3,0.1,6.6-0.4,9.8,0.5c0.5,0.2,0.9,0.6,1.2,1.1c-1.1,1.4-1,2.7,0,4.3c2.4,3.5,2.2,7.3,1.1,11.2c-1.4-0.7-1.7-2-2.2-3.3 c-1.9-8.2-3.9-9.5-13.7-9C247.1,396.8,246.4,396.5,245.8,395.9z"/><path class="st19" d="M121.1,53.8c1.4-2.9,3.8-5,6.6-6.6c1.1-0.4,1.5,0.3,1.6,1.2c-7.5,14.4,0.4,29.5,16.9,31.8 c0.9,0.1,1.8,0.4,2.6,0.9c0.4,0.5,0.5,1,0.1,1.5c-1.8,1.7-4.1,2.2-6.4,2.4c-4.9-0.5-10.1,0-13.8-4.3c-4.5-4-7.8-8.6-8.6-14.8 c-0.1-1.7-0.1-3.3-0.1-5C120,58.6,120.7,56.2,121.1,53.8z"/><path class="st6" d="M222.7,17.8c3.5-0.3,7.1-0.6,10.6-0.8c-6.8,1.6-5.6,6.6-5.2,11.2c0.5,6.9,1,13.8,1.6,20.7 c0.2,2.2,0.1,4.4,1.8,6.1c0.4,1,2.8,0.1,2.2,2.2c-1.1,0.1-2.1,0.1-3.2,0.2c-2.4,0.5-4.9,1.4-7-0.7c2.5-4.8-0.3-9.5-0.3-14.3 c0-7.2-0.6-14.5-2.1-21.6C220.9,19.3,221.4,18.3,222.7,17.8z"/><path class="st14" d="M148.8,82.7c0-0.5-0.1-0.9-0.1-1.4c1.5-3.3,4.3-5.7,5.9-8.9c0.9-1.1,1.7-2.3,1.6-3.8 c-0.8-10.9-6.6-18.1-16.3-22.6c-1-0.8-2.4-1.3-2.1-3c11-0.9,20,5.1,22.7,15.3C163.2,68.2,158.6,77.7,148.8,82.7z"/><path class="st20" d="M242.8,203.9c0.3-0.8,0.6-1.5,0.8-2.3c4,2.8,4,7.3,4.7,11.5c0.3,2,0.1,4,0.9,5.9c0.8,2,2.1,3.5,4.5,3.3 c2.5-0.2,2.4-2.3,2.7-4.1c1.4-10.1,4.1-20,7.8-29.5c0.7-1.9,0.9-4.5,3.7-4.9c0.6,0.8,0.6,1.6,0,2.5c-2.6,10.2-5.4,20.4-7.7,30.7 c-1.9,8.4-1.5,8.5,6.8,10.9c0.5,0.1,1.1,0,1.6,0c0.1,0.8,0.1,1.7,0.2,2.5c-1.4,1-2.8,0.5-4.1,0c-7.3-2.7-14.5-2.5-21.9-0.3 c-1.5,0.5-3.1,1-4.7,0.1c0-0.8,0.1-1.6,0.1-2.3c9.3-2.5,9.3-2.5,7.3-11.8C244.6,212.1,243.7,208,242.8,203.9z"/><path class="st21" d="M233.8,343c-0.1-0.4-0.1-0.9-0.2-1.3c5-15.2,10.3-30.3,12.8-46.2c0.6-4,0.5-6.7-3.9-7.7 c-0.4-0.6-0.3-1.1,0.3-1.6c7.9,0.2,15.7-0.7,23.6-1.1c0.6,0.4,0.7,0.9,0.3,1.5c-8,3.5-8,3.5-6.6,12.6c0.2,1.2,0.2,2.5,0.3,3.7 c-0.3,0.1-0.5,0.3-0.8,0.4c-3.3-1.6-2.9-4.8-3.2-7.6c-0.2-1.6-0.1-3.5-2.2-3.9c-2.4-0.4-3.3,1.2-3.8,3.1 c-2.2,8.9-3.9,17.8-6.3,26.7c-1.7,6.2-3.9,12.2-6.2,18.2C237.4,341.4,236.8,344,233.8,343z"/><path class="st22" d="M142.3,191.9c2.2,1.6,4.5,3.1,6.6,4.8c0.9,0.7,2.5,1.6,1.6,3.1c-0.8,1.5-2.2,0.7-3.4,0.2 c-8.1-2.9-16.4-5-24.9-6.6c-4.7-0.9-9.8,0.2-14.1-2.7c-0.2-2.3-3.3-3.7-1.9-6.5c11.2-1.4,21.5,2.4,31.9,5.5 C140.5,188.6,142,189,142.3,191.9z"/><path class="st23" d="M381.7,241.2c1.4,1.7,3,3.2,4.2,5c2.1,3,4.1,3.8,7.6,1.6c3-1.9,6.6-1.2,10-0.4c0.3,0.5,0.4,1,0.3,1.5 c-1.4,1.8-3.3,0.9-5.1,1.1c-4.1,0.3-6.9,2.4-7.9,6.3c-0.8,3.1,0.2,5.9,3,7.6c3.4,2.1,6.8,2.1,10.2-0.4c1.2-0.9,1.9-3.6,4.3-1.8 c0.1,0.8-0.2,1.6-0.4,2.4c-4.4,5-9.3,6.2-15.5,3c-2.4-1.2-3.5-0.7-5,1c-5.3,5.9-9.3,12.6-12.4,19.8c-0.5-0.2-0.9-0.6-1.1-1.2 c-1.3-4.4,1-7.9,3.5-11c2-2.6,3.9-5.2,5.8-7.9c4.9-7.2,4.9-12.5-0.3-19.8c-1.2-1.7-2.2-3.4-2.2-5.5 C380.9,241.9,381.2,241.5,381.7,241.2z"/><path class="st24" d="M335.2,277.7c-9.3-4.7-10.3-4.8-14.9-0.6c3.3-4.8,1.1-6.3-2.2-7.3c-2.9-0.9-5.8-1.9-8.7-2.9 c-1.3-2.6,0-3.8,2.4-4.5c2.7-0.5,5.1,0.5,7.4,1.4c3.4,1.3,6.8,1.4,10.2,1c0.5,0.1,1,0.3,1.5,0.6c-0.1,5.9-4.8,2.4-6.8,3.6 c8.6,2.7,17.5,5.8,26,10.1c1.4,0.7,3.2,1.2,3.1,3.4c-0.4,1.4-1.7,1-2.7,1.3C345.4,282,340.3,279.8,335.2,277.7z"/><path class="st25" d="M165.3,279.7c0.1-1.6,0.4-2.7,2.3-3.1c5.1-1,9.2-4.7,14.8-5.1c-1.4-3-5.3-2.8-6.1-5.8 c0.2-0.2,0.4-0.4,0.7-0.6c7.8,0.5,14.9-3.7,22.7-3.6c2.3,0.8,5.8-0.4,5.9,3.8c-0.8,1.9-2.6,2.4-4.4,2.6c-5.1,0.5-9.9,2.3-14.6,4.3 c-1.2,0.4-2.2,1.9-3.8,1.1C176.9,275.6,171.1,277.7,165.3,279.7z"/><path class="st26" d="M380.4,206.2c5.4,4.4,3.7,13.3-3.5,18.7c-0.7-0.4-1.3-0.8-1.4-1.7c0.1-1.3,1-2.2,1.8-3 c-3.9,2.3-8.1,1.7-12.5,1.1c-1.3-0.4-2.6-0.8-3.5-1.8c-0.1-0.5-0.1-1,0.3-1.5c2.5-1.6,5.3-1,7.9-0.8c4.5,0.4,7.4-1.8,9.7-5.5 c-5.9-2.5-11.3,2.1-16.7,0.1c-0.6-2.4,0.7-3.9,2.4-5.3c4.4-2.8,9.1-3.6,14.2-2.3C380,204.6,380.7,205.1,380.4,206.2z"/><path class="st27" d="M153.1,178.4c-8.3,2.4-16.6,5.1-25.3,5.1c-9.7-0.1-19.6,0.3-28.4-4.9c-0.6-1.3-1.2-2.7-1.7-4 c0.3-0.5,0.8-0.8,1.4-0.7c12.8,7.8,26.6,7.2,40.6,5c-0.2-0.6-0.8-1-1-1.5c4-0.7,8.1-1.3,12.1-2c1.6-0.3,3.3-0.4,3.7-2.4 c2.6,1.7-1.1,2.7-0.4,4.2C154.3,177.9,153.7,178.2,153.1,178.4z"/><path class="st28" d="M132.2,286.7c0,2.5,1.2,3.5,3.7,3.4c2.7-0.1,5.4-0.1,8.1-0.1c-2.3,1.8-3.4,3.4-2.3,6.8 c1.9,6-0.5,11.4-5.1,13.8c-3.8,2-11.3,0.6-14.2-2.6c-5.1-5.7-2.7-15.9,4.6-18c2.8-0.8,3.8-1.6,2.7-4.3 C131.1,284.7,131.6,285.7,132.2,286.7z"/><path class="st29" d="M290.1,371.7c-4.1,2.5-6.5,5.9-5.7,10.9c-0.4,0.5-0.8,0.5-1.2,0c-1.9-2.4-3.4-0.1-4.6,0.7 c-5.4,3.4-10.6,7-15.9,10.5l-0.3-0.4c-0.6-4.2,2.9-5.6,5.4-7.4c3.5-2.3,7-4.6,10.7-6.8c4.6-2.7,5.1-5,3.4-10 c-2.1-6.1-6.6-11-8.1-17.4c-0.4-1.6-1.5-3-0.4-4.7c0.5-0.4,1-0.3,1.5,0.1c3.2,6.2,6.5,12.2,9.4,18.5 C285.5,368.5,287.2,370.5,290.1,371.7z"/><path class="st30" d="M370.1,188.9c1.9-0.5,3.9-0.9,5.8-1.4c0.4,0.4,0.5,0.9,0.4,1.4c-2.7,3.6-7.3,3.8-10,5.7 c5.6-1.4,11.8-3.8,18.5-4.4c4.7-0.4,9.4-1,13.6-3.4c0.5,0,1,0.2,1.5,0.5c-1.5,3.9-4.6,5.2-8.6,5.5c-6.3,0.5-12.7,1.3-18.7,3.5 c-4.3,1.2-8.7,2.4-13.1,3.5c-1.1,0.3-2.5,1.3-3.3-0.4c-0.7-1.5,0.8-2.2,1.6-3.1c1.2-1.3,3.2-1.7,4-3.5 C364.4,191,366.1,187.4,370.1,188.9z"/><path class="st31" d="M112.2,197.4c0.1-2.3,1.6-2.5,3.5-2.4c11.8,1.1,23.2,3.4,33.5,9.7c2,1.2,3.2,3,4.5,4.7 c-0.7,3-2.8,2.1-4.6,1.7c-2.8-0.7-5.5-1.5-8.3-2.2c-1.2-0.7-1.4-1.6-0.8-2.8c2-1.5,4.1-0.5,6.4,0.2c-9.3-4.6-18.8-7-29.6-7.8 c1.8,3,4.2,3.5,6.7,4c1.8,0.4,4.2-0.3,4.9,2.5c-1.6,1.6-3.5,2.3-5.7,2.4C118.2,204.8,113.5,202.9,112.2,197.4z"/><path class="st16" d="M267.9,186.4c0-0.8,0-1.5,0-2.3c-1.4-7,1.2-13.2,4.2-19.1c2.3-4.5,5-8.9,7.5-13.4c2.8-5,4.1-10.1-0.2-15.1 c0.1-0.6,0.3-1.1,0.8-1.4c1.4-0.1,2.8-0.8,4.2,0c1.8,2,2.4,4.5,3.2,6.9c0.2,1.2-0.1,2.3-1,3.2C279.2,158.4,273.5,172.4,267.9,186.4 z"/><path class="st23" d="M350.6,284.1c0.8-0.3,1.5-0.6,2.3-0.8c2.9-1.3,5.9,0.1,7.6,1.6c4.4,3.7,9.1,3.6,14.1,2.8 c0.2,0.1,0.3,0.3,0.5,0.4c4.5,4.2,9,8.4,7.3,15.5c-0.2,0.7-0.6,1.3-0.9,1.9c-1.2-0.8-1.6-2.1-2-3.3c-0.6-3.4-0.8-7.1-4.6-8.8 c-2.8-1.3-5.8-1.3-8.4,0.6c-2.6,1.9-2.9,4.9-2.8,8c0.1,2.2,1.6,4.1,1.7,6.3c0,0.5-0.3,1-0.7,1.4c-4.9-4.3-6.2-9.2-3-15.3 c1.5-2.9,0.9-4-1.7-5.2C356.9,287.5,353.8,285.7,350.6,284.1z"/><path class="st32" d="M245,122.5c-0.5-0.1-0.9-0.2-1.4-0.3c2.1-2,0.6-3.9-0.2-5.9c-2.5-5.8-0.5-12.3,4.4-15.2 c4.4-2.5,11.5-1.1,14.7,3.2c3.1,4.1,2.6,8.6,0.6,12.9c-0.7,1.6-2.3,3-0.8,4.9c-0.6,0.8-1.4,1.1-2.3,1.1c-0.9,0-1.7-0.3-2.4-0.9 c-0.7-1-0.7-2.1-0.4-3.2c0.9-2,3.1-3.1,3.6-5.4c0.9-4.4-0.6-8.6-3.9-9.8c-4.7-1.8-8.7,0.1-10.9,5c-1.4,4,1.1,7.1,2.5,10.5 c0,1.5-0.9,2.3-2,3.1C245.9,122.7,245.4,122.7,245,122.5z"/><path class="st33" d="M286.6,145.3c0-1.2,0.1-2.4,0.1-3.5c2.4-0.9,4.7,0.3,7,0.2c4.3-0.2,7.2-2.5,7.7-6.3c0.5-3.7-1.7-7.3-5.4-8.5 c-4-1.3-7.7,0.2-9.7,4c-0.8,1.5-0.3,3.8-2.5,4.5c-1.3,0-2.5-0.1-3.8-0.1c-0.4-0.5-0.4-0.9,0.1-1.3c2.5,0.2,2.1-2,2.6-3.4 c2.1-5.8,5.6-7.8,13-7.3c4.4,0.3,7.1,3.1,8.4,6.8c1.9,5.3-0.7,12.1-5.1,14.3C295.1,146.5,290.8,144.9,286.6,145.3z"/><path class="st34" d="M119.1,248c-0.4,3.1-3.2,5.1-4.1,7.9c-0.8,2.4-1.3,5.3,0.6,7.7c0.3,1.1-0.1,1.5-1.3,1.2 c-4.1,2.1-8,4.7-13,3.8c-2.2-0.4-4.2-0.8-5.4-2.9c-0.3-0.3-0.4-0.6-0.3-0.9c0.1-0.3,0.2-0.4,0.3-0.4c2.8-0.5,5.2,1.2,8,1.1 c3.9-0.2,6.7-1.8,7.6-5.7c0.9-3.8-0.6-6.9-3.8-8.9c-3.3-2-6.6-1.6-9.6,0.9c-1.5,1.3-1.7,3.7-4,4.2c-1.5-1-1.1-2.3-0.5-3.7 c5.5-7,11.6-7.9,18.4-2.2C116,253.4,116.8,248.7,119.1,248z"/><path class="st35" d="M205,47.4c-0.4,0.5-0.8,0.9-1.2,1.4c-1.4-4.7-2.9-9.4-4.2-14.1c-1.5-5.2-2.5-10.7-10.2-10.1 c4.6-3,9.4-3.7,15.9-5c-6.2,5-5,10-3.5,15.2C203,38.9,203.9,43.2,205,47.4z"/><path class="st36" d="M380.4,206.2c-0.5-0.5-0.9-1-1.4-1.5c0.7-2.3,2.8-2,4.4-2.3c2.4-0.4,4.6-1,6.3-3.6 c-9.3-0.6-17.4,3.5-26.1,4.6c-0.5-0.2-1-0.5-1.2-1c3.2-3.1,7.8-3.1,11.5-5.1c5.8-0.6,11.4-2.4,17.3-2.4c3.2,0,3.7,1,2.5,4 C391.2,205.2,386,205.9,380.4,206.2z"/><path class="st27" d="M97.7,174.5c-2.2-2.9-5.7-7.2-3.9-9.4c2.1-2.6,6.1,1.3,9.1,2.7c9.5,4.3,18.9,8.7,29.5,9.5 c-0.1,0.9-0.6,1.5-1.4,1.9c-6,1.1-11.6-0.9-17-3c-5.1-2-9.9-4.8-14.9-7c-1.7,1.5,0.4,3.3-0.7,4.6C98.2,174.1,98,174.3,97.7,174.5z" /><path class="st37" d="M218.2,460.9c3.5-2.1,4.1,1.1,5.6,2.9c5.5,10.7,3.6,21.2-5.5,30.7c-0.4,0.6-1,1.2,0.1,1.7 c-2.1,1.6-4.4,1.3-6.8,0.9c0.7-0.8,1.2-1.7-0.2-2.3c0.1-1,0.8-1.6,1.6-2.1c11.3-7.5,13.4-17.2,6-28.8 C218.4,463,217.8,462.1,218.2,460.9z"/><path class="st38" d="M136.8,435.4c1.1,0.4,2.6-0.6,3.2,1c-2,7.6-5.8,14.5-8.7,21.8c-1.1,2.7-2.6,5.3-1.7,8 c0.6-1.1-1.4-3.6,1.5-4.4c-1.3,4.7,1.9,8.7,2.4,13.1c-6.2-4.4-7.7-9.1-5-15.9c2.3-5.7,4.8-11.4,7.1-17 C136.6,439.9,137.9,437.9,136.8,435.4z"/><path class="st39" d="M217.4,370.7c0.9,1,2.3,1.7,1.8,3.4c-1.7,0.4-3.2-0.7-4.8-0.9c-4.9-0.9-8.5,1-9.6,5c-1.2,4.2,0.3,8.3,3.6,10 c3.8,1.9,8.6,0.5,11.1-3.2c0.8-1.2,0.9-2.9,2.4-3.5c0.4,0.5,0.7,0.9,1.1,1.4c-1.2,7.1-4.9,9.5-13.6,8.7c-5.4-0.5-8.2-5.1-7.8-12.8 c0.3-5.4,4.1-8.5,10.5-8.5C213.9,370.3,215.7,369.7,217.4,370.7z"/><path class="st40" d="M272.3,18.8c-1.3,3.3-3.4,5.8-6.6,7.5c-3.7,8.4-5.1,16.7,1.6,24.4c1.8,1.5,3.7,2.9,3.8,5.5 c-7.9-3.5-10.8-10.2-10.7-18.1C260.7,29.6,263.7,22.4,272.3,18.8z"/><path class="st41" d="M233.7,57.2c-0.7-0.7-1.4-1.4-2.2-2.2c5.7,0.4,11.2,0.3,15.5-4.2c0.4,0.3,0.3,1,0.8,1.2 c-0.1-0.5-0.4-0.9-0.7-1.2c2.3-1.5,3-5,6.4-5.6c0,9.4-1.1,10.6-9.4,11.4C240.6,56.9,237.1,57,233.7,57.2z"/><path class="st42" d="M220.7,273.7c-2.5,1.1-4.5,2.5-5.1,5.6c-0.3,1.6-1.6,3.4-4,2.8c0.2-0.7,0.3-1.4,0.5-2.1 c0.6-2,4.7-3.5,2.1-5.8c-2.6-2.3-6.2-4.2-10.1-2.2c-3.7,1.9-7.3,4.1-10.9,6.2c-0.2-0.2-0.4-0.4-0.5-0.6c3.2-6.3,11.9-10.3,18.3-8.5 c1.9,0.5,3.8,1.3,5.9,1.5c1.1,0.1,2,0.5,2.8,1.2C220.2,272.2,220.6,272.9,220.7,273.7z"/><path class="st43" d="M87.2,81.8c0.4-1.5-2.1-2.2-1-4.2c4.5,3.4,7.2,8.2,10.7,12.3c3.3,3.9,6.5,7.9,9.6,12c1.1,1.4,2.9,3,0.4,4.9 c-1.5-2.9-4-5.2-5.6-8C96.6,93.1,91.9,87.4,87.2,81.8z"/><path class="st44" d="M366.1,49.7c0.8,2.6-0.3,5.2-0.2,7.8c-0.8,4.5,2.7,6.5,5.4,8.7c2,1.6,4,3.2,5.7,5.1c3.2,3.5,3.9,7.3,1.1,11.5 c-0.4,1.6-1.1,2.1-2.3,0.7c3.3-5.6,1.4-9.9-3.5-13.4c-2-1.5-4-3.1-5.8-4.9C361.6,59.9,361.5,55.5,366.1,49.7z"/><path class="st45" d="M141.2,232.4c-1,0-1.7-0.4-2.4-1.1c-4.7-4.2-4.7-4.2-6.7,1.6c-0.7,2.1-2.8,2.8-4.2,4.1 c-0.4-0.3-0.5-0.5-0.4-0.8c0.1-0.3,0.2-0.5,0.3-0.5c0.5-1.3,0.9-2.7,1.6-3.9c2.1-3.6,1.2-5.9-2.9-6.7c0.4-0.8,1.1-1.2,1.9-1.4 c2.6-0.3,5.1-1.5,7.8-1.6c1.1,0.1,2,0.6,2.8,1.3c0.6,2.7,2.1,5,2.8,7.6C141.7,231.6,141.6,232,141.2,232.4z"/><path class="st46" d="M245.8,395.9c0.9,0,1.8,0.1,2.7,0.1c0.1,2.2-1.5,3.7-2.1,5.5c-1.6,4.5-0.3,8.4,3.5,10.3 c3.8,1.9,8.5,0.4,10.9-3.4c0.6-1,0.6-2.6,2.2-2.8c0.3,1.2,0.6,2.4,0.9,3.6c-3.4,6.1-10.8,8.7-16,5.7 C241.3,411.3,240.4,401.3,245.8,395.9z"/><path class="st47" d="M404.6,87.1c0.3-0.3,0.7-0.6,1-0.9c7.8,5.2,7.8,5.2,13.9,2.2c-0.7,3.7-5.2,9.6-10.9,13.1 C414.5,93.4,408.1,90.9,404.6,87.1z"/><path class="st48" d="M396.2,419.2c-0.8-1.3-1.6-2.6-2.4-3.8c0.5-0.3,1-0.7,1.6-1c6.6,10.2,14.1,19.7,19.1,31 c-3.4,0.3-2.8-3.3-4.5-4.7c-1.4-2.1-3.6-3.6-4.3-6.2c-2.3-2.8-3.7-6.1-5.6-9.2C399.1,423.1,396.5,421.9,396.2,419.2z"/><path class="st49" d="M409,68.4c2.7,1.7,0.4,3.3-0.4,4.4c-5.5,7.3-11.4,14.3-16.9,21.5c-2.9,3.9-5,1-7.3-0.5c1.5-0.4,3-0.9,4.5-1.3 c4.3-2.4,6.3-6.7,9.1-10.4c1.6-1.4,3-3,3.8-5C404.9,74.9,406.3,71.1,409,68.4z"/><path class="st50" d="M345.3,445.7c-1.6-1.6-2.1,1.6-3.4,0.8c0.7-5.1,6.1-9.7,13.1-10.9c2.7-0.5,5.4-0.7,7.6-2.6 c1.6,2.1,2.3,4.1-0.9,5.5C353.3,436.5,349.8,438.1,345.3,445.7z"/><path class="st48" d="M371.6,432.9c0.4-1-1.4-2.1-0.3-2.7c1.4-0.8,2.4,0.6,3,1.6c4.7,7.2,9.3,14.3,14,21.5c1.5,2.3,3.4,4.4,2.9,7.4 c-3.4-0.4-2.4-4.2-4.4-5.7c-1.2-2.1-3.8-3.4-3.7-6.3c-4.4-4.7-6.7-10.9-11.1-15.5l-0.4,0L371.6,432.9z"/><path class="st51" d="M129.5,224.8c-1,0.1-2,0.3-3,0.4c-7.5-4.6-8.7-10-4.1-17.9c1.3-2,3.3-2.4,5.5-2.5c4.3-2.2,8.3-2,12,1.5 c0.4,0.7,0.7,1.4,1.1,2.1c0.8,0.2,1.3,0.6,1.6,1.3c0,0.5-0.2,0.9-0.6,1.2c-0.7,0.3-1.4,0.3-2.2,0c-1.1-0.5-2-1.4-3-2 c-2.8-1.5-5.9-1.8-9-1.4c-2.1,0.5-3.4,1.9-4,4C121.5,217.8,126,221.1,129.5,224.8z"/><path class="st52" d="M283.1,382.5c0.4,0,0.8,0,1.2,0c0.8,5.2,4,7.5,9,7.7c4.3,0.2,7.6-1.4,9-5.6c1.6-4.7,0.9-9-3.6-12.1 c-0.9-0.6-2.1-0.9-2.4-2.1c6.5,1.2,8.9,5.3,8,13.3c-0.6,5.3-5.2,8.1-12.8,7.8C286.5,391.4,283.4,388,283.1,382.5z"/><path class="st53" d="M169.7,32c3.3,6.6,4.2,14,6.3,20.9c1.3,4.1,2.3,8.1,6.4,10.4c1.4,0.8,1,1.6-0.6,1.7c-0.5-0.3-1-0.7-1.6-1 c-3.5-1.4-5.2-4.2-5.7-7.9c-2.7-7.3-3.6-15.1-6.7-22.3C167,31.7,167.6,31.1,169.7,32z"/><path class="st54" d="M317.4,61.7c2,0.8,3.4,2.1,3.4,4.5c-6.5-3.5-8.8-7.6-6.7-14.1c2.3-7.1,3.6-14.6,7.8-21.1 c0.7,6.6-2.8,12.1-4.6,18.1C316,53.4,315.2,57.5,317.4,61.7z"/><path class="st55" d="M114.3,264.8c0.4-0.4,0.9-0.8,1.3-1.2c7.4,6.4,14.1,13.2,16.6,23.1c-0.8-0.3-1.6-0.7-2.4-1 C125.8,277.8,121.1,270.5,114.3,264.8z"/><path class="st56" d="M221.6,19.8c3.7,6.4,1.7,13.6,3.1,20.3c0.8,3.7,0.6,7.7,0.9,11.5c0.1,1.9,0.3,3.7-1.7,4.8 c-1.2-0.2-2.1-0.5-1.2-2c1.1-1.2,0.8-2.4-0.1-3.5c0.2-7.4-0.5-14.8-1.3-22.1C221.6,25.9,219.7,22.7,221.6,19.8z"/><path class="st44" d="M171,486.4c-1.9,1.4-2.3,0.3-2.3-1.4c3-9.7,5.9-19.5,8.9-29.2c0.5-1.6,0.9-3.2-0.2-4.7 c1.2,0.1,2.7-0.9,3.5,0.9C178.2,463.6,174.4,475,171,486.4z"/><path class="st57" d="M400.1,425.3c2.5,2.7,4.8,5.5,5.6,9.2c-1.7-1.8-3.1-2.6-5.6-0.8c-4.2,3.1-8.7,5.7-13.1,8.4 c-0.8-0.8-1.5-1.6-2.3-2.3c6.1-1.6,10.6-6.2,15.9-9.3C403.2,429.1,399.1,427.2,400.1,425.3z"/><path class="st58" d="M375.7,223.7c0.4,0.4,0.8,0.8,1.3,1.3c-2.3,1.4-1.8,3.3-0.9,5.2c1.9,3.7,3.8,7.4,5.6,11.1 c-0.1,0.2-0.3,0.3-0.5,0.4c-3.7,0.8-4.5-2.2-5.7-4.4c-1.8-3.5-3.1-7.3-7.4-8.6c-1-1.4-0.5-2.7,0.4-4c0.6-0.7,1.3-1.2,2.1-1.6 C372.4,222.5,374.1,222.3,375.7,223.7z"/><path class="st59" d="M148.8,479.4c-1.1-1.6-3.4-0.3-4.4-2c8.4,0.1,10.6-1.4,14-9.3c1.9-4.3,3.8-8.6,5.7-12.9 c0.3,0.4,0.7,0.8,1,1.2c-2.2,5.4-4.2,10.9-6.7,16.2C156.6,476.4,153.6,479.3,148.8,479.4z"/><path class="st60" d="M317.4,61.7c-3.1-3.4-2.5-7.2-1.3-11.1C318,44,321,37.8,321.9,31c0-1.1,0-2.2,0-3.3c4.6-0.5,2.5,2.7,2,4.3 c-1.5,5.1-3.3,10-5,15C317.2,51.7,315.9,56.6,317.4,61.7z"/><path class="st44" d="M169.7,32c-1.3-0.1-1.4,0.4-1,1.6c2.2,7.5,4.3,15.1,6.4,22.6c-0.3,0.5-0.7,0.5-1.1,0.1 c-1.6-5.4-3.4-10.7-4.7-16.2c-1.1-4.6-2.3-8.6-8.9-6.9c1.4-3.4,4-2.9,6.1-3.4C167.6,30.6,168.7,31.3,169.7,32z"/><path class="st61" d="M88,436.4c0.3,4.5,0.7,9.1,1,13.6c-6.7-8.2-5.6-20.1,2.5-26.8c1.1,1.9-0.6,2.9-1.4,4.3 c-2.3,4.3-4.4,8.6-3.5,13.6C86.9,439.5,85.4,437.6,88,436.4z"/><path class="st62" d="M295.4,458.4c-0.9-1.2-2.4-0.6-3.5-1.1c3.4-0.7,6.8-1.4,10.2-2.1c0,1.2-0.3,2.5,1.1,3.3 c-1.5,2.5-2.3,5.6-4.7,7.8C296.3,463.9,298.7,460.1,295.4,458.4z"/><path class="st63" d="M274.8,347.2c-0.5,0-1,0.1-1.4,0.1c-4.3-2.1-5.2-6.6-6.5-10.4c-1.6-4.6-4.3-9.4-2.7-14.7 c0.4-0.5,0.9-0.6,1.5-0.3C268.7,330.3,271.7,338.7,274.8,347.2z"/><path class="st16" d="M280.2,134.2c0,0.4-0.1,0.9-0.1,1.3c0,0-0.2,0.2-0.2,0.2c-3.5,1.1-6.5-0.9-9-2.5c-3.8-2.4-7-5.6-10.6-8.3 c-0.8-0.6-0.9-1.5-0.3-2.4c0.8-0.1,1.5-0.1,2.3-0.2C268.2,126.3,273.8,130.9,280.2,134.2z"/><path class="st64" d="M308.6,455.2c3.1-1.8,5.9-2.6,6.6,2.4c-0.6,5.2,2.1,9.6,3.2,14.4c0.6,2.8,2,5.4,1.7,8.3 c-0.4,0.6-0.9,0.7-1.4,0.3c-2.2-7.3-4.4-14.5-6.5-21.8C311.6,456.9,311.5,454.8,308.6,455.2z"/><path class="st65" d="M384,49.4c0.5,0.5,1.1,0.9,1.6,1.4c1.6,1.7,5.8,0.7,5.7,3.1c0,3.6-1.9,7.1-4.2,10.4c-2-1.4-1.5-3-1.5-4.6 c1.2-2.8,0.7-5.1-1.7-7c-0.6-1-1.3-2.1-1.9-3.1C382.6,49.2,383.2,49.1,384,49.4z"/><path class="st66" d="M196.3,457.4c2.2-1.2,3.7-0.8,3.4,1.9c-0.7,6.2-1,12.5-3.5,18.4c-2.8-1-1.1-2.9-1.1-4.5 c0.2-4.1,2.6-8,1.2-12.3C196.3,459.7,196.3,458.5,196.3,457.4z"/><path class="st54" d="M292.1,495c-0.3,0.5-0.5,0.9-0.8,1.4c-0.6,0.5-1.3,1.1-2.2,0.8c-0.8-0.2-0.8-0.9-0.4-1.5 c0.2-5.8-1.1-11.5-2.4-17c-0.5-2.3-0.8-4.5-0.7-6.8c0.5-0.4,1.1-0.5,1.7-0.3c2,5.7,2.2,11.8,3.3,17.6 C291,491.1,291,493.2,292.1,495z"/><path class="st67" d="M399.9,187.4c-0.5,0-1-0.1-1.5-0.1c-5.5-0.4-10.9,0.9-16.2,1.8c-2.1,0.4-4.3,1.3-6.3-0.4c0-0.4,0-0.8,0-1.2 c6.8-1.9,13.7-3.6,20.8-3.7c1.9,0,4.3-0.7,4.5,2.4C400.8,186.7,400.4,187,399.9,187.4z"/><path class="st68" d="M341.7,446.5c-0.4,4.1-0.8,8.3-1.3,12.4c-0.3,3.5,3.5,6.1,2.3,9.8c-5-5.5-6.4-15-3.3-21.2 C340,446.4,340.8,446.5,341.7,446.5z"/><path class="st69" d="M342.8,468.7c0.2-3.5-4.2-5.9-2.3-9.8c6,12.2,7.4,13.5,18.9,17c-3.1,0.9-6-0.6-9-1c-0.4-0.1-0.5-0.3-0.5-0.7 c-3.4-0.5-5.1-3.2-7.2-5.5L342.8,468.7z"/><path class="st70" d="M221.5,128c-0.3,0.4-0.7,0.8-1,1.1c-5.3-1.8-10.6-3.4-15.9,0.2c-1,0-1.4-0.6-1.7-1.4 C209.1,121.3,215.9,121.3,221.5,128z"/><path class="st71" d="M209.3,283.2c-0.4,4.1-5.2,2.7-6.7,5.4c-0.8-1.2-1.6-2.4-2.4-3.6c-0.9-1.3-1.4-2.8-0.1-3.9 c1.6-1.4,2.1,0.7,2.9,1.4C205,284.2,207.3,282.8,209.3,283.2z"/><path class="st72" d="M221.6,28.7c1,7.4,3,14.8,1,22.3c-1.6-7.4-1.5-14.9-1.9-22.4C221,28.1,221.3,28.2,221.6,28.7z"/><path class="st73" d="M121.1,53.8c1.4,2.3-0.4,4.6,0,6.9c-1.5,2.3-0.9,4.8-0.3,7.2c0.4,3.5,3.8,6,3.4,9.8 C117.2,72.3,115.9,62,121.1,53.8z"/><path class="st74" d="M243.4,498.1c-1.3,2.4-3.6,0.7-5.3,1.2c3.1-1.6,2.2-4.6,2.3-7.2c0.1-2.7,0.1-5.4,0.2-8.2 c0.4-0.4,1-0.5,1.5-0.4c0.5,0.2,0.9,0.6,1,1.2C243.3,489.1,242.6,493.6,243.4,498.1z"/><path class="st75" d="M137.8,43.1c0.7,0.7,1.4,1.4,2.2,2.1c0.9,0.7,2,1.3,0.9,2.6c-4,0.7-7.9,0.5-11.9,0.5 c-0.4-0.4-0.9-0.7-1.3-1.1C130.6,44.8,133.9,43.2,137.8,43.1z"/><path class="st44" d="M129.6,80.5c3.6,3.5,9,1.8,12.8,4.6c-5.1,2.1-9.6,0.1-14-2.3c-1.1-0.6-0.8-1.4-0.2-2.2 C128.7,80.2,129.2,80.2,129.6,80.5z"/><path class="st69" d="M94.9,455.2c2.3,5.6,4.4,11.4,9.7,15.1c-1.3,1.2-2.3,0.1-3.3,0.1c-0.8-0.3-1.7-0.3-2-1.2 c-2.1-3.7-4.6-7.2-5.7-11.5C93.3,456.5,92.6,455.1,94.9,455.2z"/><path class="st76" d="M88,436.4c-0.5,1.5-0.9,3-1.6,5.1c-1.1-5.3,0.7-9.4,2.8-13.5c0.8-1.6,2.6-2.7,2.4-4.7 c0.8-0.3,1.5-0.5,2.3-0.8C92.7,427.4,87.9,430.9,88,436.4z"/><path class="st77" d="M355.1,35.2c-4.1,0.4-3.2,4.8-5.5,6.7c0.5-4-1.4-6.8-6-9.5C348.8,32.3,351.9,33.8,355.1,35.2z"/><path class="st78" d="M408,264.1c0-1-0.1-1.9-0.1-2.9c-1.9-3.9-1.6-8.6-4.3-12.2c0-0.6,0.1-1.1,0.1-1.7 C410.4,251.8,411.8,257,408,264.1z"/><path class="st79" d="M129.6,80.5c-0.4,0-0.9,0.1-1.3,0.1c-2.5,0.7-3.2-1.2-4.2-2.8c-1.2-3.6-4.1-6.5-4.1-10.5 c-0.3-1.1,0.1-1.4,1.1-1.1C122.3,72,125.7,76.4,129.6,80.5z"/><path class="st80" d="M101.3,98.8c2.7,2.1,4.8,4.6,5.6,8c0.5,0.5,0.9,1,1.4,1.5c-1.5,1.8-3,3.4-5.5,4.2c-0.9-3.1,3.8-4.1,2.2-7.4 C104,102.9,101.2,101.7,101.3,98.8z"/><path class="st81" d="M221.6,28.7l-0.5,0l-0.5,0c-0.4-4.4,0.4-9.5-7.2-9.2c3.2-1.6,6.1-2,9.2-1.6c-0.4,0.7-0.7,1.3-1.1,2 C221.6,22.7,221.6,25.7,221.6,28.7z"/><path class="st82" d="M386.9,455c2.7,0.9,1.9,4.6,4.4,5.7c0.4,0.4,0.8,0.8,1.1,1.2c-1.9,1.7-3.9,3.4-7,3.7 C389.3,462.3,387.8,458.7,386.9,455z"/><path class="st83" d="M364.9,309.6c0.1-0.5,0.1-1,0.2-1.5c1.1-0.4,2.2-0.3,3.2,0.1c5.9,1.8,9-2.3,12.3-6c1,0.9,0.7,2.2,0.9,3.3 C377.2,311.8,371.7,313.2,364.9,309.6z"/><path class="st68" d="M196.3,460.9c3,4.2-0.9,8.1-0.5,12.3c0.1,1.5-1.1,3.1,0.3,4.6c0.1,0.6,0.2,1.2,0.3,1.8 c-1.5,0.9-2.6,0.8-2.6-1.3C194.7,472.4,195.5,466.6,196.3,460.9z"/><path class="st84" d="M127.8,235.8c0,0.4,0.1,0.9,0.1,1.3c-0.9,5.3-4.1,8.8-8.9,10.9C122,244,124.9,239.9,127.8,235.8z"/><path class="st85" d="M372,433.2c5.5,3.9,7.7,10.2,11.1,15.5C377.5,444.9,375.6,438.5,372,433.2z"/><path class="st86" d="M410,440.7c2.6,0.5,1.5,4.6,4.5,4.7c0.4,0.4,0.9,0.8,1.3,1.2c-2,2-4.2,3.6-7.5,4.1 C412,447.7,411,444.2,410,440.7z"/><path class="st44" d="M193.9,478.2c0.5,1.1,1.5,1.3,2.6,1.3c-0.5,1.2-1,2.4-1.5,3.6c-0.5,2.8-0.9,5.7-1.1,8.5 c-1,1.6-2.1,1.7-3.2,0.1C192.9,487.4,191.9,482.5,193.9,478.2z"/><path class="st87" d="M214,143.5c1.3,1.9,4-0.1,5.3,1.9c-4.8-0.8-10.3,2.6-14.4-2.5c-0.3-0.6-0.3-1.1-0.1-1.7 C208.2,140.9,211.3,141.5,214,143.5z"/><path class="st88" d="M270,494.9c0.5,0.5,1,1,1.5,1.5c-2.5,2.7-5.6,3.7-9.2,3.9c0.4-1.1,0.7-2.3,1.1-3.4c0.1-1.9,1.1-2.5,2.8-2.2 C267.4,496,268.8,494.3,270,494.9z"/><path class="st89" d="M93.6,252.3c0.2,1.2-0.2,2.5,0.9,3.4c2.3,2.4,2.2,5.3,1.6,8.3c-0.1,0.5-0.2,1.1-0.2,1.6 C91,261.9,92.1,257.1,93.6,252.3z"/><path class="st42" d="M182.7,273.5c0.8-0.7,1.7-1.4,2.5-2.2c1.8,2.9,3.3,6.1,7.5,6.1c0.2,0.2,0.3,0.4,0.5,0.6 c-2.5,3.5-4.9,3.1-7.3-0.1C184.8,276.5,183.8,275,182.7,273.5z"/><path class="st88" d="M94.9,455.2c-1.8,3,0.8,5.1,1.6,7.7c0.7,2.2,3.1,3.7,2.8,6.3c-4.4-4-6.3-9.1-6.8-14.8 C93.3,454.4,94.3,454.1,94.9,455.2z"/><path class="st90" d="M384,49.4c-0.6,0.1-1.3,0.2-1.9,0.3c-2.8-2.2-5.9-3.1-9.5-2.4c-0.5-0.4-0.9-0.8-1.4-1.2 C376.4,43.7,380.3,45.9,384,49.4z"/><path class="st91" d="M241.5,484c-0.3,0-0.7,0-1,0c0-6.6-0.1-13.2-0.1-19.8c0,0-0.1-0.1-0.1-0.1c1.2-0.2,1.8,0.6,1.8,1.5 C242.5,471.7,243.4,477.9,241.5,484z"/><path class="st59" d="M222.7,54.5c0.4,0.7,0.8,1.3,1.2,2c2,1.5,4.5,0.1,6.6,0.9c-4.4,1.1-8.7,1.3-14,1 C218.5,56,221.4,56.5,222.7,54.5z"/><path class="st92" d="M398,82.2c-1.3,4.8-5.3,7.7-8.1,11.3c0,0.1-0.4,0-0.5-0.1c-0.2-0.3-0.3-0.6-0.5-0.9 C392.2,89.3,394.2,85,398,82.2z"/><path class="st93" d="M95.8,70.4c2.8-5.1,2.8-5.1,8,0C101.1,70.4,98.5,70.4,95.8,70.4z"/><path class="st94" d="M266.7,286.6c0-0.4,0-0.9,0-1.3c1.4-3.5,4-5.2,7.7-5.2c0.8,1,2.8,0.5,3.1,2.2 C272.9,281.2,270.8,286.4,266.7,286.6z"/><path class="st95" d="M242.7,286.5c0,0.4-0.1,0.8-0.1,1.2c-3.9-0.8-7.4-2.6-10.3-5.5c0.4-0.3,0.8-0.6,1.2-0.8 C237.8,280.9,240.5,283.4,242.7,286.5z"/><path class="st96" d="M205,141.1c0,0.6,0,1.2,0,1.7c-3.9-3.9-4.7-9.4-2-14.9c0.3,0.4,0.7,0.8,1,1.1 C204.5,133.1,204.6,137.1,205,141.1z"/><path class="st90" d="M383.9,52.9c5.2,2.9,5.4,3.9,1.7,7C385.1,57.5,384.5,55.2,383.9,52.9z"/><path class="st97" d="M286.7,471.8c-0.3,0-0.7,0-1,0c-1.2-3.6-0.2-8-3.6-10.9c0.8-0.4,1.6-0.7,2.5-1.1 C286.9,463.6,288.3,467.4,286.7,471.8z"/><path class="st98" d="M318.7,480.7c0.3,0,0.7,0,1,0c3.3,1.6,1.7,5.4,3.3,7.7c-0.7,1.9-2.2,0.9-3.4,1 C320.5,486.4,319.4,483.5,318.7,480.7z"/><path class="st99" d="M265.6,321.9c-0.4,0-0.8,0-1.1,0c-3.6-2-3.5-5.4-3.4-8.8c0.2-0.9,0.5-1.8,1.3-2.3 C264.4,314.2,264.7,318.1,265.6,321.9z"/><path class="st100" d="M100.5,416.9c-0.2,0.9,2.1,1.2,0.8,1.8c-2.5,1.2-4.2,4.1-7.4,3.9C95.5,419.8,97.2,417.4,100.5,416.9z"/><path class="st101" d="M114.5,420.1c0.4-0.3,0.8-0.6,1.2-0.9c3.3,1.3,6,3.2,7.8,6.3c-0.5,0-1.1,0-1.6-0.1c-1.1,0.4-2,0.1-3-0.4 C117.2,423.6,114.8,422.8,114.5,420.1z"/><path class="st98" d="M409,68.4c-1.5,3.7-3.5,6.9-7.2,8.8c1.4-3.7,5.3-5.8,6.1-9.9C408.2,67.7,408.6,68.1,409,68.4z"/><path class="st102" d="M72.7,88.2c1.5-0.4,1.1-2.7,3.1-2.7c1.6,2.5-1.6,4.6-0.9,7.1C73.6,91.5,72.7,90.1,72.7,88.2z"/><path class="st103" d="M147.5,287.7c2.1-3.2,5.4-4.2,9-4.6C154.2,285.9,151,287,147.5,287.7z"/><path class="st50" d="M288.7,495.7c0.5,1.5,1.7,0.6,2.6,0.7c0.8,0.3,1.5,0.7,2.3,1c-3.1,1.7-6.3,0.8-10.8,0.9 C285.5,497.1,287.1,496.4,288.7,495.7z"/><path class="st61" d="M174,56.3c0.4,0,0.7,0,1.1-0.1c0.9,3.1,2.8,5.6,5.2,7.8C175.6,63.5,174.6,60,174,56.3z"/><path class="st104" d="M342.8,468.6c3.1,1,4.3,4.3,7.2,5.5C345.7,474.6,344.2,471.6,342.8,468.6z"/><path class="st105" d="M247.1,50.8c1.1-0.2,2.4-0.5,2.3,1.1c-0.2,2.1-1.5,3.1-3.9,3C244.9,53.1,247.3,52.4,247.1,50.8 C247.1,50.9,247.1,50.8,247.1,50.8z"/><path class="st21" d="M262.4,310.7c-0.1,0.9-0.1,1.7-0.2,2.6c-4.1-2.7-4.3-6.2-2.1-10.1l0.3-0.2 C261.8,305.4,261.8,308.1,262.4,310.7z"/><path class="st106" d="M131.3,178.4c0.4-0.4,0.8-0.7,1.2-1.1c2.1,0,4.2,0,6.3,0c1.1,0.5,2.6,0.1,3.5,1.2 C138.5,179.4,134.9,180.9,131.3,178.4z"/><path class="st107" d="M242.7,286.5c-3-1.7-6.1-3.4-9.1-5.1c-4.2-3.2-6.9-7.5-8.8-12.3c-5.1-6.3-3.9-13.3-2.2-20.3 c1.8-3.9,2.3-8.5,6.6-10.8c2.5-3.1,5.8-5.3,9-7.6c10.3-4.5,20.5-4.3,30.7,0.1c2.3,1.8,4.6,3.6,6.9,5.3c6.4,3.7,6.9,10.4,8.8,16.5 c0.5,5,0.8,10-0.6,15c-0.6,2-1.1,3.8-3.1,4.8c-2.1,2.7-4.2,5.3-6.3,8c-2.6,1.8-5.2,3.5-7.7,5.2 C258.9,288.3,250.8,288.4,242.7,286.5z"/><path class="st108" d="M223.9,248.2c-1.6,7-1.4,14,0.8,20.9c-1,0.8-0.4,2.7-2,3.1c-1.8-1.6-1.3-4.1-2.3-6c-0.9-2.5-1.1-5.2-1.9-7.7 c-0.4-1.2-1-2.4-1.2-3.7c-0.1-0.8-0.1-1.6,0.1-2.3c0.3-0.8,0.7-1.4,1.3-1.8c1.8-0.9,2.4-3.1,4.3-3.9 C223.9,246.9,224.5,247.2,223.9,248.2z"/><path class="st109" d="M197,312.5c-5-3.9-9-6.7-10.2-13.6C191.8,303,194.8,306.5,197,312.5z"/><path class="st110" d="M221.5,265.9c1.5,1.9,1.8,4.1,1.2,6.4c-0.7,0.5-1.3,0.9-2,1.4c-0.4-0.4-0.8-0.8-1.1-1.2 C219.3,270,217.8,267.2,221.5,265.9z"/><path class="st111" d="M289.5,266.8c2.7,2,1.5,3.9-0.8,5.6c2.8,0.6,5-2.5,7.5-0.3c-0.1,0.5-0.4,0.6-0.8,0.2c-2,0.5-3.8,1.3-4.9,3.1 c-1.3,0.4-1.9-0.6-2.6-1.2c-2.9-2.8-1.3-7.1-3.4-10.2c0.8-3.1,0.1-6.5,2-9.3c3.5-1.1,5.8-4.9,9.9-4.8c0.3,0.2,0.6,0.5,0.6,0.9 c0.1,2.6,5,1.3,3.9,4.2c-1.4,3.6-4.2,6.5-8,7.7C290.3,263.4,288.9,264,289.5,266.8z"/><path class="st112" d="M287.5,254.6c-1.9,2.9-0.1,6.5-2,9.4c-1.6,2.6,0.4,5.8-1.4,8.3c-1.2,1-2.2,0.3-3.3-0.2 c2.4-6.7,3.4-13.5,2.4-20.6c-0.6-1.1-0.6-2.1,0.8-2.6c1.7,0.8,2.8,2.3,4.1,3.6C288.4,253.4,288.4,254.1,287.5,254.6z"/><path class="st113" d="M297.6,283.3c3.5,0.7,6.5-0.6,8.9-3.6c1.8,4.3-1.4,6.3-2.2,9.1c-2.4-1.6-5-2.6-7.6-3.8 C294.2,283.7,296.2,283.4,297.6,283.3z"/><path class="st114" d="M319,300.2c-0.1,5.7-4.3,8.4-8.9,12.7C311.4,306.3,315.5,303.4,319,300.2z"/><path class="st115" d="M284.1,272.3c-1.9-3.2-0.2-5.7,1.4-8.3c2.4,3,1.6,6.8,2.3,10.2C286.2,274.4,285.4,273,284.1,272.3z"/><path class="st116" d="M176.3,265.8c-5.5-2.8-6.1-4.5-1.8-8.5c-6.1-0.2-12.1,0.2-15.2-5.6c-0.9-1.7-0.8-3.6,0.9-5 c-1.8-1.7-5.2,0.7-5.9-2.8c0.4-0.5,0.8-0.9,1.5-1.2c4.3-0.8,8.7-0.7,13.1-1c4.5,1.3,9.3-0.4,13.7,1.4c0.5,0.5,1,1,0.9,1.7 c0,0.4-0.4,3.4-0.3,3.5c-2.8,2-6,1.1-9,1.3c-3,0.1-6.1,0.1-9.5,1.2c3.3,3.7,6.9,3.7,10.8,2.9c5.3-1,10.5-3.2,16.1-2.2 c2.1,1.1,2.1,1.1,1.1,3.6c-0.1,0.1,1.8-0.1,2.6,0.4c0.3,3-2.1,2.5-3.7,2.6c-3.8,0.4-7.5,1.4-11.3,2c-3.3,0.5-4.2,2.2-3.5,5.3 L176.3,265.8z"/><path class="st117" d="M155.6,243.5c-0.5,0.1-1,0.2-1.4,0.3c-2.6,0.3-4.9-0.9-5.7-3.1c-0.9-2.2-3.8-6,2.2-6.1c1.1,0,1.3-1,1.4-1.9 c1.3-1.4,2.8-1.5,4.2-0.3c1.4,1.2,0.6,2.5-0.2,3.7c-0.3,0.4-0.7,0.8-1.1,1.2c-1.6,0.9-2.7,1.9-0.8,3.6 C154.9,241.6,155.8,242.3,155.6,243.5z"/><path class="st118" d="M154.7,236.1c0-1.1,1.9-1.4,1.2-2.6c-0.9-1.4-2.5-0.7-3.8-0.7c-3.6-0.1-7.2-0.2-10.8-0.3 c0-0.3,0.1-0.7,0.1-1c7.1-3,14.4-1.5,21.6-1c0.6,0.2,1.1,0.6,1.4,1c0.2,0.8,0,1.6-0.8,1.7c-1.7,0.3-3.2,0.6-1.5,2.7 C159.7,237.8,157.2,237.8,154.7,236.1z"/><path class="st119" d="M222.8,247c-1,1.5-0.3,4.4-3.4,4.3c-5.4-4.3-10.2-9.2-15.7-13.4c-2.3-1.8-4.5-3.7-7-5.2 c-0.4-0.3-0.8-0.6-1.2-0.9c-2.5-2.4-5.2-4.6-8.5-6c-3.7-2.3-7.1-4.9-10.2-8c-3-3.3-6.5-6.2-9.3-9.7c-5.6-8.1-7-17.2-7.2-26.7 c0-0.6,0.1-1.2,0.4-1.7c0.5-0.5,1-0.5,1.6-0.1c15.3,10.8,28.6,24,43.2,35.6c6.8,5.5,13.6,11,20.4,16.5c1.4,1.1,3.4,1.8,2.3,4.2 C226.9,239.9,225.6,243.8,222.8,247z"/><path class="st120" d="M222.8,247c1.1-4,3.3-7.6,5.4-11.1c0.3,0.7-0.1,1.7,0.9,2c-1.7,3.4-3.5,6.8-5.2,10.2 C223.5,247.8,223.2,247.4,222.8,247z"/><path class="st121" d="M162.3,179.6c-0.6,0-1.2,0.1-1.9,0.1c-1.3,0.3-2.3-0.1-2.9-1.4c-1.5-1.4-2.9,0.6-4.4,0.1 c0.3-0.4,0.7-0.9,1-1.3C157.6,175.6,160.3,176.4,162.3,179.6z"/><path class="st122" d="M287.7,252.4c-2.5,0.4-3.3-1-3.5-3.2c-2.6-4.6-5-9.3-6.3-14.5c4.4-5.2,10.2-8.7,15.3-13 c16.7-14.2,33.7-28,50.7-42c3.7-1,2.8,2,2.6,3.5c-0.9,5.7-1,11.6-3.1,17.1c-4.9,11.3-14.6,18-23.9,25.1c-3.8,2.9-7.9,5.4-11.2,8.8 c-3.7,3.1-7,6.7-11.3,9.2c-2.9,1.1-4.8,3.3-6.4,5.9C289.9,250.5,289.4,252,287.7,252.4z"/><path class="st123" d="M342,200.7c2-6.3,2.4-12.9,3.4-19.4c0.2-1.5-0.5-1.4-1.4-1.6c0.5-1,1.3-1.7,2.4-2c0.4,1.7,5.1-1,3.1,2.9 c-2.6,5,0.3,4.1,3.3,3.5c1.4,1.5-1.2,3.2,0.2,4.7c-3,3.1-4.4,6.7-4.1,11c-1.4,2.6-2.6,1.4-3.8-0.2c-0.2-0.3-0.3-0.6-0.4-0.9 c-0.2,0.2,0,0.4,0,0.7c0,1-0.5,1.5-1.3,1.9C342.8,201.1,342.4,201,342,200.7z"/><path class="st124" d="M278,234.7c2.3,4.7,5.4,9.2,6.3,14.5c-0.4,0.7-0.7,1.5-1.1,2.2c-1.9-5.5-3.5-11.2-7.5-15.7 C276.7,235.9,277.5,235.6,278,234.7z"/><path class="st125" d="M218.2,460.9c10.2,8.2,8.3,29.6-6.8,33.9c-12.2,0.2-12.7-0.4-10.9-11.9c1-6.3,2-12.6,3.1-18.9 c1.2-6.5,2-7,8.4-5.3C214.2,459.1,216.2,460.1,218.2,460.9z"/><path class="st126" d="M171,486.4c-0.3-0.2-0.8-0.5-0.7-0.6c3.5-11.3,7-22.5,10.6-33.8c0.7,7.7-3.2,14.3-5.1,21.4 C174.6,477.8,174.2,482.7,171,486.4z"/><path class="st127" d="M218.3,494.5c4.4-6,8-12.3,7.8-20.2c-0.1-3.8-2-6.9-2.3-10.5C231,472,228,488.3,218.3,494.5z"/><path class="st128" d="M193.9,491.6c-1.8-3.1,0.1-5.8,1.1-8.5C195.5,486,195.7,488.9,193.9,491.6z"/><path class="st129" d="M289.5,266.8c-2.7-3-2.8-5.1,1.9-5.3c4.6-0.2,5.5-4.8,8.9-6.7c-1.1-1.8-5.3-0.7-3.9-4.3 c2.6-1.9,7.1,0,8.6-4.1c2-1.3,3.9-2.7,6.4-2.2c1.8,1.7,3.3,0,4.9-0.3c2-0.4,4.1-1.9,6,0.2c0.7,1.3,0.7,2.6,0,3.9 c-3,2.3-6.9,1.5-10.1,2.8c1.3,0.5,3,0.3,4.1,1.5c-1.2,1.5-0.8,4.2-3.4,4.7c-4.7,0.8-10-1-14.1,3.6c4,1.2,8.9-1.2,11.9,2.9 c-2.3,0.3,0,2.7-1.5,3.4c-6.1-0.5-12.2-1.1-18.3-1.5C290.6,265.4,290,266.3,289.5,266.8z"/><path class="st130" d="M295.5,272.3c0.2-0.3,0.5-0.4,0.8-0.2c0.5-0.1,1.1-0.3,1.6-0.4c3.4-0.6,5.9,0.3,6.4,4c0.3,1.9-0.2,4.2-2.6,4 c-2.9-0.3-6.5-0.6-6.2-5.2C295.5,273.8,295.5,273.1,295.5,272.3z"/><path class="st125" d="M114.5,420.1c1.5,1.4,3.1,2.9,4.6,4.3c2,1.1,2.7,3.1,3,5c1.7,9.2-6,26.1-16.5,26.8 c-10.2,0.3-15.2-5.4-13.5-15.5c0.9-5.5,3.1-10.6,6.5-15C102.6,420.5,107.8,418,114.5,420.1z"/><path class="st131" d="M105.6,456.2c11.9-5.1,18.9-22.4,13.5-31.8c0.9,0.3,1.9,0.7,2.8,1c2.6,3.9,1.4,8.2,1.5,12.3 c-2.8,5.8-5.3,11.7-9.7,16.5C111.4,456.9,108.5,456.6,105.6,456.2z"/><path class="st132" d="M113.6,454.3c3.2-5.5,6.5-11,9.7-16.5C121.8,444.3,119,450.1,113.6,454.3z"/><path class="st125" d="M266.7,494.8c-1.6-0.1-2.5,0.9-3.3,2c-0.8,0.3-1.7,0.6-2.5,0.9c-9.6,3.6-12.7,1.5-12.8-8.5 c0-6.8-0.2-13.6-0.3-20.4c0-6,1.2-7.1,7.1-6.5c2.9,0.3,5.9,0.5,8.4,2.2c6.8,2.3,7.7,8,8.1,14.1c-0.2,5.6,1.1,11.5-4,15.8 C267.3,494.6,267,494.7,266.7,494.8z"/><path class="st48" d="M270,494.9c-0.6,0.4-1.1,0.8-1.7,1.1c-0.6,0.3-1.2,0.6-1.7,0.9c0-0.7,0.1-1.4,0.1-2c0,0,0,0.1,0,0.1 c4.8-4.5,4.7-10.3,4.5-16.1c0-1.1,0-2.2,0.2-3.3c0.3-0.8,0.8-1.5,1.8-1.4C275.1,481.5,274.6,488.5,270,494.9z"/><path class="st133" d="M241.5,484c-0.5-6.6,1-13.4-1.2-19.9c1.7-2.2,2.2-0.6,2.7,0.9c1,3,0.6,6.1,0.5,9.2c-1.2,3.2,0.6,6.8-1.1,10 C242.1,484.1,241.8,484,241.5,484z"/><path class="st134" d="M272,475.6c0,1,0,1.9,0.1,2.9c-0.6,0.6-1.1,0.6-1.7,0c0.2-5.9-2.9-10.1-6.9-13.8c0.7-3.1,2-1.7,3.4-0.5 C269.1,467.7,272.3,470.9,272,475.6z"/><path class="st135" d="M242.4,484.1c0.9-3.3-0.8-6.8,1.1-10c0.1,8,0.6,16-0.1,24C241.3,493.6,243,488.8,242.4,484.1z"/><path class="st136" d="M272,475.6c-1.3-4-3.1-7.7-5.9-10.9c0-0.1,0.1-0.3,0.2-0.4c0.1-0.1,0.3-0.1,0.5-0.2c3.4,2.5,5.7,5.7,6.4,10 C272.8,474.6,272.4,475.1,272,475.6z"/><path class="st125" d="M293.3,49.5c-3.2,4.8-7,8.8-13.4,7.5c-6.7-1.4-9.2-6.7-10.3-12.8c-1-5.3-0.9-10.6,0.7-15.8 c2.9-9.1,9.9-11.9,18.5-7.5c4.3,2.7,6.7,6.6,6.9,11.6c0.2,4.2,0.3,8.4-0.2,12.5C294.9,46.6,296.2,49.1,293.3,49.5z"/><path class="st137" d="M294.3,45.3c0.2-4.5,0.7-9,0.1-13.5c-0.6-4.3-2.9-7.6-5.5-10.8c4.1-1.5,4.3,2,5.3,4.3c4,5.5,2.9,11.8,2.8,18 C296.9,44.4,296,45.6,294.3,45.3z"/><path class="st43" d="M294.3,45.3c4.2-3.7,1.9-8.5,1.9-12.7c0-2.4-1.3-4.9-2-7.3c4.9,5.4,5.1,20.8,0.3,25.9 c-0.4,0.4-0.8,0.7-1.1,0.1c-0.2-0.4,0-1.1,0.1-1.6C293.7,48.1,294,46.7,294.3,45.3z"/><path class="st60" d="M267.4,50.7c-6.9-4.7-5.2-11.7-4.6-18.2c0.2-2.1,1-4.6,2.9-6.2C263.6,34.6,261.8,42.9,267.4,50.7z"/><path class="st138" d="M142.1,209.6c-0.4-0.4-0.7-0.8-1.1-1.2c3.2-1.1,5.8,1,8.7,1.5c1.4,0.2,2.8,1.2,3.9-0.5 c0.3-0.8,0.6-1.5,0.8-2.3c4.3,1.7,4.3,6.6,7.3,9.3c3.6,4.6,8.6,7.9,11.8,12.9c0,0.3,0,0.5,0,0.8c-0.3,0.5-0.7,0.8-1.2,0.9 c-6-2.6-11.5-6.4-18.3-7c-4.3-0.9-8.8,0.1-12.9-2.2c-0.5-1.6,0.7-1.9,1.8-2.4c0.5-0.2,1.1-0.3,1.7-0.3c5.2-0.5,10.1,1,15,1.3 C154.9,215.2,147.8,213.5,142.1,209.6z"/><path class="st139" d="M160.9,217.3c-2.2-3.4-4.3-6.8-6.5-10.2c-1.3-3.9-2.4-7.9-2.1-12.1c1.3-2.1-0.7-4.8,1.3-6.7 c0.5-0.1,1,0.1,1.3,0.6c0.9,1.6,0.7,3.4,0.8,5.2c0.1,2.6,1.6,3.8,3.9,4.3c0.5,0.2,0.9,0.4,1.3,0.7c0.8,4.2,4.4,6.5,6.7,9.6 c0.3,0.4,0.4,0.9,0.5,1.4c-1.2,3.2-2.8,1.2-4.1,0.2c-2.2-1.6-3.8-3.9-6.2-5.7c0.4,4.3,4.2,6.4,5.9,9.7 C164.2,216.7,163.3,217.7,160.9,217.3z"/><path class="st140" d="M142.3,191.9c-1-1.4-2.5-2-4.2-2.2c-1.3-2.3-4.6-2-6.2-5.2c4.9-0.6,9.4-1.3,14-1.7c1.5-0.1,2.7,0.3,3.1,2.3 c0.5,2.7,1.7,5.3,0.3,8c-0.6,1.2-1.5,0.3-2.3,0C145.4,192.6,144.1,191.4,142.3,191.9z"/><path class="st141" d="M161.1,199.5c-0.5,0-0.9,0-1.4,0c-2.7-3.1-2.6-7.6-5.2-10.8l-0.5-0.2c-0.5-1.4-2.1-2.6-0.9-4.3 c2-0.8,3.6,0.9,5.4,1.1c0.5-0.3,0.9-0.2,1.3,0.2c0.2,0.4,0.3,0.9,0.3,1.4c-0.6,2.7,0.9,5.1,1.4,7.6c0.2,0.5,0.3,1,0.4,1.5 C162,197.1,162.1,198.4,161.1,199.5z"/><path class="st142" d="M160.1,185.9c-0.5-0.2-1-0.5-1.4-0.7c1.1-2.5-2.8-4.2-1.1-6.8c1,0.5,1.9,0.9,2.9,1.4 c0.1,0.4,0.3,0.8,0.4,1.2C161.5,182.7,162.5,184.6,160.1,185.9z"/><path class="st143" d="M153.2,184.1c-0.7,1.7,3,2.4,0.9,4.3c-1.8,1.9,0,4.7-1.9,6.5C152.5,191.4,150.8,187.5,153.2,184.1z"/><path class="st144" d="M370.3,223.7c-0.4,0.4-0.8,0.8-1.2,1.2c-0.6,0.4-1.3,0.8-2,0.7c-9.2-1-18.1-0.1-26.5,4 c-0.8,0.4-1.8,0.4-2.7,0c-1.8-2.4,0.5-3.2,1.8-4.1c3.2-2.2,7-3.3,10.9-3.6c-2.1,0.1-4.6,1.7-5.9-1.1c-0.8-1.8,0.6-3,2.5-3.3 c4.1-2.3,8.2-4.6,12.3-6.8c0.9,0.3,2.2,0,2.3,1.5c-3,3.2-7.3,3.9-10.4,5.9c3.1,0.4,6.6-1.6,10.1,0.2c0,0.2-0.1,0.5-0.1,0.7 c0.2,3.1,2.5,1.7,4,2C367.2,221.9,370,220.6,370.3,223.7z"/><path class="st145" d="M370.1,188.9c-3.4,0.1-4.9,4-8.3,3.9c-1.5-0.8-3.7,2.5-4.5-0.5c-0.7-2.7-1.2-5.8,2.2-7.6 c1.4,1.2,0.1,3.2,1.2,4.6c1.9-0.6,3.6-1.6,5.7-2.4c-2.4-1.2-5.5-0.7-6.7-3.7c5-0.9,9.7,1.5,14.8,1 C374.1,187.5,370.3,186.3,370.1,188.9z"/><path class="st146" d="M347.3,217.6c-0.5,1.1-2.4,1.9-1.7,3.1c1.4,2.3,4,0.2,6.4,1.1c-5.1,2.4-11,2.9-14.6,7.5 c-0.1,0.2-0.2,0.5-0.3,0.7c-1.1,1-2.2,1.4-3.2-0.1c0.2-2.9,2.6-4.3,4.3-6c2.4-2.3,4.3-4.9,5.5-8c1-1,2.1-1.7,3.6-1.1 C347.3,215.8,347.3,216.7,347.3,217.6z"/><path class="st147" d="M359.8,183.1c2.9,2.3,6.5,1.7,10.5,2.5c-3,2.8-6.5,3.5-9.4,5.1c-1.9,1.1-2.2-0.3-2.2-1.7 c0.1-1.4,0.5-2.9,0.7-4.3C359.6,184.2,359.7,183.6,359.8,183.1z"/><path class="st148" d="M345.3,198.5c1,0.5,1.1,3.1,3.1,1.4c0.3-1.5,1.6-1.8,2.8-1.9c1.5,0.2,1.8,1.5,2.5,2.5 c0.2,0.9,0.3,1.7-0.5,2.4c-0.4,0.3-0.9,0.5-1.3,0.6c-2.3,0.4-3.8,2.1-5.5,3.5c-1.4,1.1-2.7,2.7-4.8,1.3 C342.2,204.9,344.7,202,345.3,198.5z"/><path class="st149" d="M360.5,209.5c-2.4-0.6-4.5,1.7-7.1,0.5c1.5-4.5,5-6.4,9.1-7.5c0.1,0.2,0.3,0.4,0.4,0.5 c1,1.8-3.5,2.6-0.8,4.7C362.1,208.8,361.9,209.8,360.5,209.5z"/><path class="st150" d="M353.7,200.5c-0.7-0.7-1.3-1.4-2-2c-0.6-3.3-1-6.6,0.7-9.8c-2.3-1.7,0.6-3.1,0.3-4.7c4.7,2.3,1.6,6.3,2,9.5 C355.1,195.8,354.1,198.2,353.7,200.5z"/><path class="st151" d="M351.6,202.8c0.5,0,1,0.1,1.6,0.1c-0.5,4.7-3.3,8.3-6,11.9c-1,0.7-2,1.5-3.3,1.2c-0.1-0.2-0.3-0.4-0.4-0.6 C344.8,210.3,349.1,207.2,351.6,202.8z"/><path class="st152" d="M360.5,209.5c1-0.4,1.1-1.3,1.1-2.2c1.1-1,2.3-1,3.4,0.1c-0.7,1.4-1.5,2.8-2.2,4.2l-0.4,0.4 c0,0-0.5-0.1-0.5-0.1c-0.7-0.4-1.5-0.7-2.2-1.1C359.9,210.3,360.2,209.9,360.5,209.5z"/><path class="st132" d="M323,488.4c-2.4-2-1.2-5.6-3.3-7.7c-1.7-6.2-3.3-12.4-4.9-18.7c-0.4-1.5-2-3.2,0.5-4.4 c2.4,8.3,4.7,16.7,7.1,25C322.9,484.5,323.4,486.4,323,488.4z"/><path class="st153" d="M378.1,82.7c2.9-5.9,0-10-4.3-13.7c-2.3-2-4.9-3.8-6.9-6.1c-1.2-1.4-3.4-3.2-1-5.5c0.7,4.9,4.9,6.8,8.1,9.7 c2.7,2.4,5.8,4.5,6.5,8.3C381,78.2,380.8,80.9,378.1,82.7z"/><path class="st154" d="M131.1,461.8c-1.8,1.7-0.4,4.2-2,6c0.4-11.5,6.9-21.1,10.9-31.4c1.2,2.1,0,3.9-0.8,5.7 C136.6,448.7,133.8,455.3,131.1,461.8z"/><path class="st1" d="M260,122.5c5.9,5.5,12,10.7,19.9,13.2c5.9,5,4.8,10.7,1.2,16.1c-3.2,4.9-4.9,10.6-8.9,15.3 c-2.4,2.8-2.3,7.7-3.3,11.6c-0.4,1.8-0.7,3.6-1,5.3c-3.3,8.5-7,16.7-8.1,26c-0.4,3.8-1.9,7.6-2,11.6c0,1.8-1.5,3-2.8,2.7 c-2-0.4-4.5,0.2-5.9-2.1c-1.1-1.9-2.2-3.9-2-6.2c0.5-5.2-2-9.7-3.4-14.5c-2.6-16.4-9.3-31.3-16.8-45.9c-2-3.8-4.4-7.6-5.3-11.7 c-0.8-3.7,1.6-6.9,5.3-8.3c7.3-2.7,12.9-7.6,18.1-13.2c0.3,0,0.6-0.1,0.9-0.1c4.1-1.9,8.1-2.5,12.2-0.1 C258.7,122.4,259.4,122.4,260,122.5z"/><path class="st155" d="M205,141.1c-2.9-3.8-2.6-7.8-1.1-12c6-5.1,11-5.1,16.6,0.1c2.7,8.4-0.1,14.3-6.5,14.3 C210.8,143.5,207.6,143.6,205,141.1z"/><path class="st156" d="M286.7,471.8c0.3-4.2-1.2-8-2.1-12c1.8,0.5,2.7,2,2.9,3.6c1.6,10.5,3.1,21,4.6,31.5c-3.6-3.3-2.1-8-3.3-12 C287.8,479.4,287.4,475.6,286.7,471.8z"/><path class="st1" d="M260.1,303.2c-0.3,3.6,0.2,7,2.1,10.1c-0.4,3.2,0.9,5.9,2.2,8.6c1,9.1,4.4,17.4,8.8,25.4 c2.2,7.8,6.9,14.5,10,22c1.9,4.7,0.7,8.4-3.5,11c-6.2,3.9-13.6,6.2-17.6,13.1c-2.2,0.1-4.4-0.1-6.6,0.2c-7.4,1.2-12.7-2.3-17.8-7.2 c-2.8-2.7-7-4.1-10.5-6.1c-5.9-3.4-6.2-7.4-3.4-13.6c3.6-7.7,9.6-14.5,9.9-23.7c4.6-3.2,4.9-8.7,6.1-13.2c2.9-10,6.6-19.8,7.5-30.5 c0.2-2.9-0.8-9.4,6.1-9.4c2.9,0,4.4,0.7,4.3,4C257.8,297.1,257.3,300.6,260.1,303.2z"/><path class="st157" d="M221.9,381.5c-1.7,7.4-5.5,10.1-12.4,8.5c-5-1.1-7.6-6.2-6.2-12.1c1.6-6.5,9.3-8.4,16-3.7 C221.1,376.3,221.7,378.8,221.9,381.5z"/><path class="st158" d="M262.8,405.6c-0.6,4.9-3.1,8-8.2,8.5c-3.9,0.4-7.4-0.6-9.3-4.1c-2.4-4.3-1.7-8.7,1.7-12.4 c0.5-0.5,0.9-1.1,1.4-1.6C257.6,394.1,261.3,396.6,262.8,405.6z"/><path class="st125" d="M129,48.4c4-2.4,8.2-1.8,12.5-0.8c1-1.2,1.8-0.4,2.5,0.3c2.5,2.6,5.1,5,7.5,7.7c0.3,0.4,0.6,0.9,0.9,1.4 c2.2,5,5.9,9.8,3,15.8c-1,3.8-3.4,6.5-6.6,8.6c-13,1.5-26.1-12.1-24.4-25.2C124.8,52.8,126.5,50.4,129,48.4z"/><path class="st159" d="M121.2,66.2c-0.4,0.4-0.8,0.7-1.1,1.1c-0.8-2.4-2.8-4.9,1-6.5C121.1,62.6,121.1,64.4,121.2,66.2z"/><path class="st160" d="M143.2,48.1c-0.6-0.2-1.2-0.4-1.8-0.5c-0.5-0.8-0.9-1.6-1.4-2.3c10.3,3,17.5,12.9,17.4,24 c-2.9-1-1.6-3.8-2.6-5.7c-1.2-2.4-2.1-5-3.9-7.2l0,0C149,53,145.9,50.7,143.2,48.1z"/><path class="st44" d="M150.9,56.3c4.4,3.2,4.4,8.5,6.5,12.9c0.7,2-0.5,2.9-2.1,3.6C155.8,66.7,152.8,61.7,150.9,56.3z"/><path class="st161" d="M147.8,198.4c-11.4-4-22.5-6.9-34-7.9c-1.6-0.1-3.2-0.9-4.3-2.2c-0.4-0.5-1-1.3-0.9-1.8 c0.2-1,1.3-1.2,2.2-1.1c12.7,1.3,24.8,4.3,35.7,11.2C146.9,196.9,147.1,197.4,147.8,198.4z"/><path class="st1" d="M367.7,228.4c3.8-0.8,5.8,0.5,7.3,4.3c1.3,3.2,1.9,7.5,6.2,8.9c0.9,1.8,1.3,4.1,2.7,5.3 c3.8,3.4,4.1,7.5,4.3,12.2c0.3,7.1-5.1,10.8-8.4,15.7c-2.7,3.9-5.4,7.7-5.1,12.7c-4.5,3.2-8.6,3.5-13.1-0.6c-2.2-2-5.8-2.6-8.7-3.8 c-1.1-3.1-4.3-3.1-6.6-4.1c-8-3.5-16.2-6.4-24.3-9.6c-0.4-0.2-0.8-0.6-1.2-1c3.1-2.1,7.8,1.9,10.1-2.8c0.4-2.1,2.7-2.6,3.7-4.1 c-1-1.2-2.6-1.2-3.7-2.1c-0.4-0.4-0.6-0.9-0.6-1.4c1.4-4.1,5.6-1.6,8-3.4c1.8-1.8,4.6-2.4,5.8-4.8c-4.5-1.8-9.3-2-14-2.6 c-1.8-0.2-4.8,0.4-4.5-2.5c0.2-2.4,2.9-2.4,4.9-2.5c3.8-0.3,7.5,1.9,11.4,0.4c1.9-0.4,3.8-0.5,5.7,0.1c1.8,2.7,2.4,2.5,6.4-1.6 c0.6-1.3,1.8-2.3,1.7-3.9c-1-1.9-5.4-0.3-4.5-3.5c0.7-2.5,3.8-2.3,6.2-2.5c2.3-0.2,4.8,0.5,7-0.7 C365.3,229.7,366,228.1,367.7,228.4z"/><path class="st162" d="M403.5,249.1c4.9,2.8,5.1,7.3,4.3,12.2c-3.8,5.7-10.2,7.4-14.8,4.1c-4.2-3.1-5-9.5-1.6-13.7 C394.7,247.3,399.1,248.4,403.5,249.1z"/><path class="st163" d="M310.9,263.5c-4.6-1.7-9.6-0.9-14.5-1.4c3.3-8.1,10.1-6.3,16.2-6.3c6.2,0.2,12.6-0.7,18.1,3.3l0,0 c0.9,1.1,3.5-0.3,3.4,1.7c-0.1,2.5-2.6,3.6-4.4,4.9c-4.1,2.3-8,0.3-11.9-0.8C315.5,264.3,313.2,264,310.9,263.5z"/><path class="st164" d="M329.6,265.7c0.7-0.8,1.2-1.8,2-2.3c3.7-2.4,0.8-3.2-1-4.2c2.9-0.6,4.8,0.8,6.4,3.7c-2.9-0.2-3.9,2.4-6.3,3 C330.4,265.7,330,265.7,329.6,265.7z"/><path class="st165" d="M176.6,265.4c-1.1-1.4-2.3-2.8-3.7-4.6c7.4-3,15.1-3.2,22.5-4.8c5.7-3.2,11.6-2.2,14.3,2.6 c0.9,1.5,2.1,3.3-0.3,4.6c-3.3,0.9-6.5-0.9-9.8-0.4c-4.9,1.1-9.9,2-14.7,3.3C181.9,266.9,179.3,266.8,176.6,265.4z"/><path class="st166" d="M192.7,277.5c-5.1,1.4-6.7,0-7.5-6.1c6.2-3.5,13.3-3.9,19.9-5.7c1.5-1.3,3.2-1.3,5-0.9c3.3,1.2,7,2,6.7,6.8 c-0.5,0.2-1.1,0.6-1.4,0.4C206.1,266.7,199.3,271.7,192.7,277.5z"/><path class="st167" d="M210.4,265.9c-1.7-0.1-3.5-0.2-5.2-0.3c-0.5-3.5-4-1.4-5.6-2.8c3.3-0.6,6.6-0.7,9.9-0.1 c2.7,0.2,6.2-2.5,7.9,1.9C215.3,266.4,212.8,266.1,210.4,265.9z"/><path class="st168" d="M361.8,211.9c0.3,0,0.6-0.1,0.9-0.3c6.3-1.5,12.6-2.8,20-1.7c-4.2,5.2-7.3,10.6-15,8.5c-1.8-0.5-4,0-6,0 c-4.3,1.6-8.9,0.4-14,1.8C352,215.8,357.1,214.2,361.8,211.9z"/><path class="st169" d="M364.9,207.4c-1.1,0-2.2-0.1-3.4-0.1c-0.9-0.1-2.3,0-2.5-0.4c-0.4-0.9,0.7-1.3,1.4-1.8 c0.8-0.7,1.6-1.3,2.5-2c9.3-3.2,18.7-5.9,29.1-5.9c-0.8,4.2-3.6,5.9-7.1,6.6c-1.9,0.4-4.1-0.2-5.9,1 C374,204.2,369.5,206.2,364.9,207.4z"/><path class="st170" d="M370.3,223.7c-1.6-1.5-3.6-1.7-5.6-2c-0.5,0-1-0.2-1-0.7c0-0.5,0.5-0.8,1-0.8c5.3,0.1,11,1.8,15.3-4.4 c0.6,4.5-2.7,5.6-4.3,7.8C373.9,224.3,372.1,224.1,370.3,223.7z"/><path class="st171" d="M364.7,220.3c-0.9,0.5-1,1,0,1.5c-1.4,1.8-3.3,1.5-4.5,0.3c-1-1,0.4-2.1,1.4-3 C362.6,219.3,363.9,219.1,364.7,220.3z"/><path class="st172" d="M131.3,178.4c3.6,0,7.3,0.1,10.9,0.1c-10.1,4.9-20.6,3.3-31.1,1.8c-5.1-0.7-9.6-1.9-12.6-6.5 c-0.4-2.3-2.7-4-2.4-7.1C107.9,170.8,118.1,179.3,131.3,178.4z"/><path class="st173" d="M140.3,300.5c-0.1,5.9-3.5,9.3-9.2,9.2c-6-0.1-9.8-4-9.6-9.6c0.2-5.4,4.1-9,9.7-9 C137,291.1,140.4,294.6,140.3,300.5z"/><path class="st174" d="M376,188.7c6.1-1,12.2-2.1,18.3-3c1.5-0.2,3.8-1.6,4.2,1.5c-2.1,2.5-4.8,3.3-8.1,3.7 c-5,0.6-10.2,0.8-15.1,2.5c-4.6,1.6-9.4,2.6-15.4,4.2C365.2,192.7,371.1,191.6,376,188.7z"/><path class="st175" d="M139.9,206.3c-3.9-1.4-7.9-1.4-12-1.5c-3.4-1.6-7.8-0.3-10.8-3.2c-1.2-1.1-2.9-2.3-2.1-4.1 c0.7-1.5,2.3-0.4,3.5-0.3c9,0.7,17.7,2.6,25.9,6.5c1.8,0.9,3.5,1.9,4.6,3.8C145.9,207.7,143.1,205.7,139.9,206.3z"/><path class="st176" d="M284,135.6c1.3-7.7,4.5-11,10-10.6c5.9,0.4,9.4,4.4,9.1,10.2c-0.3,5.5-4,8.7-10,8.5 c-2.2-0.1-4.3-0.6-6.2-1.8C285.4,139.9,284.4,137.9,284,135.6z"/><path class="st177" d="M380.6,302.1c-1.9,7.7-7.6,9.9-15.6,5.9c-3.6-4.2-3.9-8.8-1.2-13.4c2.3-3.8,6.1-4.2,10.1-3.3 C379.8,292.6,380.7,297.1,380.6,302.1z"/><path class="st178" d="M248.2,120c-3.1-3-5.1-6.3-3.6-10.8c1.5-3.1,3.4-5.5,7.3-5.8c3.5-0.2,6.9,0.1,8.4,3.6 c1.5,3.4,2,7.1-1.2,10.1c-1.1,1-2.1,2-2.8,3.4C253.5,122.5,250.9,121.8,248.2,120z"/><path class="st179" d="M255.8,120.1c0.4-2.5,3.5-3.3,4-5.5c0.8-3.1,1.3-6.6-2-8.8c-3.4-2.3-6.9-1.7-10.1,0.5c-1.2,0.8-2,2-3,3 c-0.1-5.8,4.3-6.9,8.4-7.3c4-0.3,7.8,1.3,8.9,5.7c1.2,4.6,1.4,9.2-4.1,11.6C257.3,119.9,256.8,120.8,255.8,120.1z"/><path class="st16" d="M255.8,120.1c0.7-0.3,1.4-0.5,2.1-0.8c0.1,1,0.1,2,0.2,3.1c-4.1,0-8.2,0-12.2,0.1c0.5-1.1,1.3-2,2.4-2.4 C250.7,120.1,253.2,121.8,255.8,120.1z"/><path class="st180" d="M96.2,264c-1.8-2.5-1.2-5.5-1.6-8.3c1.7-6.3,6.3-8.9,12.4-6.9c5.4,1.7,7.9,7.7,5.5,12.9 c-2.3,5-8.9,6.9-14.1,4C97.5,265.3,96.9,264.6,96.2,264z"/><path class="st181" d="M210.4,265.9c2.3-0.5,4.5-1,6.8-1.5c1.3-2,0-4.9,2.3-6.6c0.7,2.7,1.3,5.4,2,8c-1.9,1.8-0.4,4.6-1.9,6.5 c-0.9-0.3-1.8-0.6-2.7-1C215.3,268.9,213.6,266.5,210.4,265.9z"/><path class="st138" d="M164.2,231.6c-7.6-0.1-15.2-0.1-22.8-0.2c-0.4-2.6-5.2-3.8-2.5-7.4c0.4-0.6,0.9-0.9,1.5-1.1 c4.5-0.5,8.9,0.4,13.4,0.4c4.3,0.8,8.5,1.9,12.4,4.1c1.6,0.9,4.4,1.8,3.3,4.1C168.4,233.5,166,232.9,164.2,231.6z"/><path class="st182" d="M129.5,224.8c-7.4-3-9-7.8-7-13.9c1-0.6,1.8,0,2.3,0.7c3.7,4.6,8.2,7.8,14.1,8.7c0.4,1.9-0.5,2.6-2.2,2.6 C134.3,223.5,131.9,224.1,129.5,224.8z"/><path class="st183" d="M136.7,222.8c0.6-0.7,1.3-1.4,1.9-2.2c1.2-3,2.7-3.1,4.5-0.4c-0.8,0.3-1.9,0.2-2.2,1.4c0.2,1-0.3,1.6-1,2.2 c-0.4,0.1-0.8,0.1-1.1,0.2C138.2,223.6,137.5,223.2,136.7,222.8z"/><path class="st184" d="M140,210.4c0.7,0.1,1.4,0.2,2.2,0.2c5.2,0.6,9.5,3.4,13.8,6.1c0.9,0.6,2,1.2,1.5,2.5 c-0.5,1.2-1.8,1.4-2.8,1.2c-3.6-0.7-7.3-0.1-10.8-1.1c-1.4-0.5-3-0.7-4.3-0.3c-6.3,2.2-10.3-1.2-13.9-5.6c-0.8-1-2-1.9-1.4-3.3 c0.6-1.5,2.2-1.8,3.7-1.9C132.2,207.6,136.3,208.2,140,210.4z"/><path class="st185" d="M140,210.4c-5-0.1-10-1.7-15.7-0.3c3.8,4.9,6.6,10.1,14,8.3c1.9-0.5,4,0,6,0c0.7,0.6,0.7,1.2,0,1.8 c-0.4,0-0.8,0-1.2,0c-1.6-1.3-3.2-1.4-4.5,0.4c-8.1,1.2-11.9-4.7-16.2-9.8c0.8-2.2,2.1-3.8,4.4-4.5c3.5,1.8,7.5,0.4,11,2 C138.6,209,139.3,209.7,140,210.4z"/><path class="st186" d="M144.4,220.2c0-0.6,0-1.2,0-1.8c4.2,1.2,8.4,0.8,13.5,0.9c-4.9-4.8-10.8-5.8-15.6-8.7 c-0.1-0.3-0.2-0.7-0.1-1c6.1,1,11.2,4.2,16.2,7.6c1.3,0.9,3.5,1.9,2.8,3.6c-0.8,2.1-3.2,1-4.9,0.8 C152.3,221.2,148.3,220.7,144.4,220.2z"/><path class="st187" d="M137.9,208.4c-3.6-1-8,2.3-11-2C130.7,206.2,134.6,205.6,137.9,208.4z"/><path class="st188" d="M367.7,228.4c-0.7,1-1.4,2-2.1,3c-7.2,1-14.4,1.1-21.6,1.7c-2.4-1-7,2-6.7-3.8c0,0,0,0.1,0,0.1 c7.9-3.3,15.9-6.6,24.8-5.5c2.3,0.3,4.7,0.7,7,1.1C368.7,226.1,368.2,227.2,367.7,228.4z"/><path class="st189" d="M219.5,257.9c-0.8,2.2,1.8,5.6-2.3,6.6c-2.2-2.3-5.5,0.2-7.8-1.8c-0.1-3.7-3.3-7.1-7-7.1 c-2.4,0-4.7,0.3-7.1,0.4c-1.5-0.2-3.1-0.3-4.6-0.5c0.5-1.9,2.9,0.2,3.1-1.7c0-0.4-1.3-0.9-2.1-1.4c0.7-1.1,2-1.3,3.1-1.6 c-3.9-1.9-8.4-0.3-11.9-3c-1.1-0.5-2.2-1-3.4-1.6c1.2-0.9,3.6-0.2,3.4-2.6c0.2-0.2,0.4-0.3,0.6-0.5c0.5-0.2,1-0.3,1.5-0.2 c3.4,0.4,6.8,2.1,10.4,1c1.7-0.2,3.5,0.3,4.6,1.5c3.1,3.6,7.1,4,11.3,4.1c0.9,0.4,1.7,1.2,2.6,1.7c1.1,0.9,2.9,1.4,2.2,3.5 c-3,1.3-3,1.3-0.9,3.6c0.9-1.1-0.3-2.9,1-3.7c0.7-0.6,1.4-0.5,2.1,0.1C218.7,255.7,219.1,256.8,219.5,257.9z"/><path class="st190" d="M196.2,231.5c9,5.1,17,11.4,23.2,19.8c-0.4,0.4-0.7,0.7-1.1,1.1c-2.8,0.4-3.2-2.6-5-3.5 c-1.7-1.3-3.5-2.6-5.7-3c-3.2-1.4-6.8-1.9-9.8-3.6c-1.1-0.9-0.8-2.2-1.2-3.3c-0.8-3.4-5.9-3.3-5.8-7.4 C192.5,229.8,194.4,232.4,196.2,231.5z"/><path class="st191" d="M213.5,247.6c2.3,0.9,3.1,3.3,4.8,4.8c0,0.7,0,1.4-0.1,2.2c-0.7,0-1.4,0-2.1-0.1l0,0 c-0.6-1.7-2.3-1.8-3.6-2.5C212,250.4,212.4,249,213.5,247.6z"/><path class="st192" d="M305.5,247c-1,6.3-5.6,3.3-9,3.5c-3.5,0.2-4.9,5-8.9,4.1c0.1-0.7,0.1-1.5,0.2-2.2c0.5-1.1,1.1-2.2,1.6-3.3 c2.6-2.1,4.4-4.9,7.3-6.7c3.6-2.9,7.1-5.9,10.7-8.8c0.7-0.5,1.5-0.7,2.3-0.3c0.5,5-3.3,7.3-6.4,10.1c-1.6,1.7-3.5,3.1-5.4,4.2 C300.3,247.8,302.7,245,305.5,247z"/><path class="st193" d="M182.9,247.9c5,1,10.5-0.3,15.2,3c-1.9,1.8-4.3,0.9-6.3,1.6c-5.9-0.2-11.5,1.5-17.2,2.8 c-5.6,1.2-9.9-0.5-13.5-5.7C168.6,247.8,175.8,248.4,182.9,247.9z"/><path class="st194" d="M155.6,243.5c-2.1-1.6-4.8-2.6-5.8-5.5c1.3-1.6,3.1-0.8,4.6-1.2c8.2-0.7,16.5-2.5,24.7-0.1 c0.6,0.1,1.2,0.3,1.8,0.6c1.2,1.6,6.8,2.8,0.5,5.2c-4.2,0.9-8.5,0.5-12.7,0.5C164.3,243.2,160,243.4,155.6,243.5z"/><path class="st189" d="M168.7,243c4.3-1.1,8.9,0.2,13.1-1.4c0.8,0.5,1.8,0.8,1.2,2c0,0-0.1,0.1-0.1,0.1 C178.2,243.3,173.4,244.4,168.7,243z"/><path class="st195" d="M180.8,238.1c-8.8-1.2-17.6-1.5-26.4-1.3c0-0.3,0.1-0.5,0.3-0.8c2.4-0.5,5.2,0.8,7.4-1.2 C168.5,232.2,177.8,233.9,180.8,238.1z"/><path class="st196" d="M180.8,238.1c-5.8-3.7-12.4-2.6-18.8-3.3c-0.8-0.5-1.5-0.9-2.3-1.4c1.2-1.6,2.9-0.5,4.4-0.9 c2.8-1,6.1,0.1,8.8-1.9l0.4-0.3c2.2-1.2,3.4,0.6,4.8,1.6c1.7,1.9,4.7,2.6,5.2,5.6C182.7,238.7,181.9,239,180.8,238.1L180.8,238.1z" /><path class="st197" d="M172.9,230.6c-2.1,4.6-5.8,1.5-8.8,1.9c0.1-0.3,0.1-0.6,0-0.9c1.5-0.2,3.1-0.4,5.2-0.7 c-4.3-4.7-10-5.3-15-7.1c-0.4-0.2-0.5-0.5-0.4-0.7c0.1-0.2,0.2-0.4,0.4-0.4C161.5,223,167.1,227.1,172.9,230.6z"/><path class="st198" d="M196.2,231.5c0,1.7-0.1,2-0.6,1.8c-1.6-0.8-3-1.9-4.9-1.8c-0.2,0-0.5-0.1-0.7-0.1c-2-1-4.1-1.7-6-2.8 c-1.4-1.4-2.4-3.1-4-4.3c-3-2.8-7.5-3.7-9.5-7.6c-2.5-0.5-5.6,1.5-7.3-2c-3.6-3.3-7.2-6.7-7.7-12.5c4.5,1.8,7.1,5,10,7.9 c1.2,1.2,2,1.6,2-0.6c0.4-0.4,0.9-0.4,1.4-0.2c3.2,2.5,5.3,6.3,9.2,7.9c2.9,2.5,5.9,5.1,8.8,7.6 C190.4,226.6,193.1,229.3,196.2,231.5L196.2,231.5z"/><path class="st141" d="M168.6,209.5c-0.4,0-0.7,0-1.1-0.1c0,0,0.1,0.1,0.1,0.1c-3.9-4-5.9-9-6.6-14.4l0.1,0.1 c-0.4-2.9-1.9-5.7-1.2-8.8c0.1-0.2,0.2-0.3,0.3-0.5c1.8-1.4,0.4-3.3,0.8-4.9c2.4,2.9,0.8,6.4,1.4,9.5c1.2,6.1,3.2,11.9,6.5,17.3 C169.1,208.4,169.1,209,168.6,209.5z"/><path class="st199" d="M168.6,209.5c0-0.6,0.1-1.2,0.1-1.8c3.1,3.2,6.2,6.3,9.3,9.5C173.4,216.6,171.6,212.3,168.6,209.5z"/><path class="st190" d="M196.3,231.5c-3.9-1.1-6.6-4-9.4-6.7C191,225.6,193.9,228.3,196.3,231.5z"/><path class="st200" d="M309.9,233.6c-0.9,0-1.7,0.1-2.6,0.1c7.1-7.3,16.2-12.1,23.6-19.2c4.4-4.2,8.4-8.5,11.1-13.9 c0.4,0,0.7,0,1.1,0.1c1.1,2-0.1,3.5-1,5c-1,1.6-1.9,3.1-1,5c-0.1,1.4-1,2.3-2.2,2.8c-0.7,0.3-1.4,0.5-2.1,0.7 c-3.5,2.3-6.8,4.9-9.8,7.9c-1.5,1.4-2.9,2.9-4.8,3.7c-3.1,1.6-5.9,3.7-8.2,6.3C312.9,233.4,311.5,233.9,309.9,233.6z"/><path class="st201" d="M296.6,242.5c-1.9,2.8-3.9,5.5-7.3,6.7C291.2,246.3,292.8,243.2,296.6,242.5z"/><path class="st202" d="M352.4,188.8c0.2,3.3,1.4,6.6-0.7,9.8c-1.1,0.5-2.2,0.9-3.3,1.4C346.7,195.5,348.2,191.2,352.4,188.8z"/><path class="st203" d="M340.6,210.7c-2.3-0.2-2.3-1.2-1.1-2.8c1.7-2.2,3.1-4.4,3.6-7.2c1.4-0.1-0.1-3.1,2.2-2.2 c2.2,4.8-2.6,7-3.8,10.5C341.6,209.8,341.3,210.4,340.6,210.7z"/><path class="st204" d="M346.1,191.8c0.1-1.8,0.2-3.6,0.3-6.1C350.6,188.2,347.2,190.1,346.1,191.8z"/><path class="st205" d="M345.5,250.2c-1.1,2.7-4.1,3.2-6,5c-2.5,2.2-5.3,1-8,0.8c-5.2-0.3-10.4-0.7-15-3.5c-2.4-0.7-5.1,0.3-7.6-1.4 c3.9-3.7,8.8-2,13.1-3c5.4-2.5,10.9-0.6,16.4-0.4c2.3,0.1,4.5,1.1,6.9,1.1C346.1,248.8,346.2,249.5,345.5,250.2z"/><path class="st164" d="M316.4,252.5c5.5,0,10.7,1.9,16,2.8c2.4,0.4,4.7,0.5,7-0.1c-0.7,2.6-2.9,1.6-4.6,1.8 c-1.7,0.2-3.9-0.5-4.2,2.2c-6.1-0.6-12.1-1.8-18.1-3.3C314.7,255.7,314.4,252.8,316.4,252.5z"/><path class="st206" d="M345.5,250.2c-6.2-2.9-12.9-1.2-19.3-2.1c-1.4-0.2-2.9-0.1-4.3-0.1c0-1.5,0-2.9,0-4.4 c0.1-0.3,0.3-0.6,0.4-0.9c2.6-2.6,5.9-1.4,8.9-1.8c3.7,0.2,7.7-0.6,10.6,2.8c-2.2,1.7-4.4,1-6.8,0.4c-3-0.7-6-0.8-8.8,0.9 c6.6,0.5,13,2.2,19.5,2.9c0.9,0.1,2.5-0.2,1.8,1.6C347.3,250,346.2,250,345.5,250.2z"/><path class="st207" d="M305.5,247c-3.1,0-5.7,2.5-9.2,1.9c0.7-3.3,4.3-3.7,5.7-6c1.9-1.4,4.2-2.1,6.5-2.6c2.1-0.5,4.5-0.5,5.1,2.6 c-0.1,0.7-0.6,1.1-1.3,1.1C310,245,307.7,246,305.5,247z"/><path class="st208" d="M312.2,244c0.2-0.3,0.4-0.4,0.8-0.3c4.8-4.7,6.7-4.7,8.8-0.1c0,0,0.2,0.1,0.2,0.1c-2.9,0.9-5.8,2-8.8,2.6 C309.5,247.1,312.6,244.8,312.2,244z"/><path class="st88" d="M270.4,478.5c0.6,0,1.1,0,1.7,0c0.3,6.2,0.7,12.4-5.3,16.5C270.2,490,270.2,484.2,270.4,478.5z"/><path class="st209" d="M163.2,214.7c2.4,0.6,2.3,0.3,5.7-1.5c1.3-0.7,2,1.2,2.1,2.6c0.5,1.1,0.5,2.1-0.5,2.9 c-0.8,0.5-1.7,0.5-2.9,0.8c1.8,3.2,5.1,5.1,7,8c0,1.1,0,2.3-1.7,1.8c-4.8-3.3-8.2-8-12.1-12.1C161.4,216.2,163.7,216.7,163.2,214.7 z"/><path class="st210" d="M154.3,222.7c0,0.4,0,0.7,0,1.1c-4.8,0-9.6,0-14.3,0c0.4-0.7-0.2-1.8,1-2.2 C145.4,221.9,150,221.4,154.3,222.7z"/><path class="st190" d="M173,229.3c0.4-0.7,0.7-1.3,1.1-2c2.2-1.7,3,0.2,4,1.6c0.3,0.8,0.4,1.7,0.2,2.6c-0.2,0.6-0.5,1-1,1.4 c-1.3-0.9-2.7-1.7-4-2.6C173.2,230,173.2,229.6,173,229.3z"/><path class="st211" d="M154.6,188.7c4.7,2.2,4.2,6.9,5.2,10.8C153.7,198.4,153.5,198,154.6,188.7z"/><path class="st198" d="M160.9,195.1c2.2,4.8,4.4,9.6,6.6,14.4c-2.9-2.9-7.5-4.7-6.4-10.1C161.1,198,161,196.5,160.9,195.1z"/><path class="st212" d="M147.4,191.3c-3.8-0.9-6.8-3-10.3-5C147,183,148.3,183.7,147.4,191.3z"/><path class="st213" d="M159.8,186.4c1.3,2.8,1.1,5.8,1.2,8.8C160.8,192.2,156.4,189.8,159.8,186.4z"/><path class="st148" d="M321.7,243.5c-3-5.6-5.8,0.9-8.8,0.1c0.4-2.2-1-2.3-2.6-2.1c-2.8,0.4-5.6,0.9-8.4,1.3 c3.6-2.3,5.7-5.8,7.9-9.3c0.7-1.3,2.3-0.7,3.2-1.5c2.4-2.5,5.2-4.3,8.7-4.9c1.9,0.2,3.8,0.6,5.5,1.6c0.7,3.3-2.1,2.6-3.7,2.9 c-6.7,1.2-8.6,2.1-12.2,6.4c5.9-0.8,10.6-3.9,15.4-6.7c1.4-0.8,1.3-2,1.2-3.3c5.5-3.3,10.6-7.1,14.7-12.2c0.5-0.2,1-0.1,1.4,0.3 c0,0-0.1-0.1-0.1-0.1c1.1,3.3-1.6,4.8-3.1,6.9c-2,2.7-5.5,4.1-6.7,7.5c-0.1,0.2-0.2,0.4-0.4,0.7c-2,2-4,4-6.5,5.3 c-1.4,0.8-0.9,1.6-0.5,2.5c0.2,2.5,4.2,0.4,4.1,3.3C327.7,242.9,324.5,241.8,321.7,243.5z"/><path class="st214" d="M337.4,229.3c1.1,4.2,4.6,1.2,6.7,2.3c0.2,0.7,0,1.3-0.7,1.7c-2.2,1.1-4.5,1.1-6.8,0.6 c-1.7-0.4-3.7-0.9-2.5-3.5c0,0-0.1,0-0.1,0C335.2,230.1,336.3,229.7,337.4,229.3z"/><path class="st215" d="M344,216.1c-0.4,0-0.8,0-1.2-0.1c-0.6,0.6-1.3,1.1-2.1,1.5c-1.5,0.4-3.1,0.7-3.7-1.1 c-0.6-1.6,0.4-2.8,1.8-3.6c0.6-0.7,1.2-1.4,1.8-2.2c0.3-0.6,0.6-1.1,1-1.7c3.9-1.3,5.3-6.5,10.1-6.2c-1,4-2.9,7.5-6.1,10 C344.4,213.7,343.8,214.7,344,216.1z"/><path class="st44" d="M143.2,48.1c3.8,1.6,6.8,4,7.8,8.2C148.3,53.6,145.1,51.5,143.2,48.1z"/><path class="st216" d="M330.7,242.3c-1.6-1-3.5-0.6-5.2-0.9c-0.7-0.1-2.1,0.4-1.7-1.2c0.2-1,1.3-1.1,2.2-1.1 c1.2-1.9,3.1-2.4,5.2-2.6c6-0.3,12-1.6,18.1-1c2.5,0.9,5.5-0.5,7.7,1.6c0.9,2.1-1.5,2.7-2,4.2c-1.9,1.8-3.6,4.2-6.8,2.6 c-2.1-0.1-4.3-0.1-6.4-0.2C338.1,243.3,334.4,242.8,330.7,242.3z"/><path class="st217" d="M357.1,237.1c-2.4-0.1-4.7-0.2-7.1-0.2c-2.6-1.1-5.6,0.4-8.1-1c-0.4-2.1,2.4-1.7,2.2-3.4 c-0.1-0.3-0.1-0.6,0-0.9c7.2-0.1,14.4-0.2,21.6-0.2c-1.8,2.4-4.4,0.9-6.5,1.2c-2.6,0.4-5.4-0.8-7.5,1.6 C352.9,236.2,357,232.9,357.1,237.1z"/><path class="st218" d="M348.2,243.9c2.5-0.3,4.7-1.4,6.8-2.6c-1,3.4-3.7,4.8-6.9,4.4C345.6,245.5,348.3,244.6,348.2,243.9z"/><path class="st191" d="M197.2,241.3c3.6,1.2,7.3,2.3,10.9,3.5c1.7,1.5,4.8,2,3.6,5.4c-4.6,0.6-9.2,1.6-12.3-3.6 c-0.6-1-2.4-2.3-4.3-1.8c-0.3-0.1-0.5-0.2-0.8-0.2c-1-0.8-2.2-1.7-1.2-3C194.2,240,195.8,240.2,197.2,241.3z"/><path class="st195" d="M180.7,238.1c0.7-0.3,1.3-0.5,2-0.8c0.2-0.9,0.7-1.5,1.5-1.8c2.9,0.3,5.8,0.6,7.8,3.2 c-1.5,0.6-1,2.5-2.2,3.3c-2,0.3-3.8,1.1-5.8,1.6c-0.4,0-0.7,0.1-1.1,0.1c-0.4-0.7-0.8-1.4-1.2-2C184.7,239.4,180,239.6,180.7,238.1 z"/><path class="st219" d="M216.2,254.5c-0.4,2.2,1.7,3.9,1.7,6.5c-4.2-0.9-6-3.7-7.8-7C212.4,254.3,214.3,254.4,216.2,254.5 C216.2,254.6,216.2,254.5,216.2,254.5z"/><path class="st220" d="M184.1,243.5c1.6-1,2.4-4,5.2-2.1c2.4,0.3,4,2.1,5.9,3.4c0,0-0.1-0.1-0.1-0.1C191,248,187.8,244,184.1,243.5 z"/><path class="st221" d="M211.7,250.1c0.5-2.9-2.7-3.3-3.6-5.4c2.4-0.1,3.5,2,5.4,2.8c0.5,1.6-0.4,3-0.8,4.5 C211.6,251.8,211.8,250.9,211.7,250.1z"/><path class="st222" d="M191.9,239c-2.6-1-5.2-2.1-7.8-3.1c-3.1-0.4-4.8-2.6-6.6-4.9c0.2-0.8,0.4-1.6,0.6-2.5c1-0.5,2-0.1,2.9,0.2 c3.3,0.6,6.8,0.7,9.7,2.8c0,0,0-0.1,0-0.1c1.4,2.2,3.8,3.2,5.8,4.6c1.3,0.9,1.9,1.6,0.6,2.9C195.4,240.7,193.7,240.7,191.9,239z"/><path class="st223" d="M209.1,242.7c-3.4-1.6-9.2-0.3-9.1-7.3C203.3,238.1,206.2,240.4,209.1,242.7z"/><path class="st224" d="M191.9,239c1.7,0,3.5,0,5.2-0.1c1.7,0.7,0.7,1.5,0.1,2.3c-1.3,0.2-2.6,0.4-3.9,0.6c0.6,1,1.3,2,1.9,2.9 c-2.3-0.5-4.1-1.9-5.9-3.4C190.7,241.1,190.3,239,191.9,239z"/><path class="st209" d="M177.6,231c2.2,1.6,4.4,3.3,6.6,4.9c-0.5,0.5-0.9,0.9-1.4,1.4c-1.8-1.5-3.6-3-5.4-4.5 C177.4,232.2,177.5,231.6,177.6,231z"/><path class="st225" d="M179.1,229.3c-0.3-0.3-0.7-0.5-1-0.8c-1.3-0.4-2.7-0.8-4-1.2c-4-2.1-6.4-5.9-10.7-9.8c3,0.5,4.6,0.7,6.2,0.9 c4.4,0.7,7.7,3.9,11.8,5.4c1.1,1.2,2.7,2.1,2.7,4C182.9,229.9,180.8,229.1,179.1,229.3z"/><path class="st190" d="M179.1,229.3c1.3-1.8,3.3-1,5-1.4c2.6,0.6,5.4,0.6,6.6,3.7C186.9,230.5,182.8,231.2,179.1,229.3z"/><path class="st190" d="M181.4,223.8c-4.5-0.6-7.9-3.6-11.8-5.4c1-0.6,1.4-1.5,1.5-2.6C173.4,220,178.5,220.4,181.4,223.8z"/><path class="st226" d="M340.5,216.1c0.7,0,1.5-0.1,2.2-0.1c-2.4,7.3-8.6,10.1-15.1,12.6l0,0c-2.2,1.2-4.1,0.4-5.9-0.8 c-0.9-1-0.8-1.9,0-2.9c2.2-0.2,2.8-2.3,4.3-3.4c1.1-0.5,2.1-1.4,3.3-1.7C333.2,218.5,337.2,218.3,340.5,216.1z"/><path class="st148" d="M340.5,216.1c-3,3.2-6.6,4.8-11,4.3c1.8-3.1,5.4-4.5,6.9-7.8c0.8,0,1.5,0.1,2.3,0.1c0,1.3-2.1,2.3-1,3.7 C338.6,217.6,339.6,216.2,340.5,216.1z"/><path class="st227" d="M336.5,212.7c-0.8,4-3.2,6.4-6.9,7.8c-1.1,0.4-2.3,0.7-3.4,1.1C329.1,218,332.8,215.4,336.5,212.7z"/><path class="st227" d="M321.9,225c0,1,0,1.9,0,2.9c-2.9,1.4-5.9,2.8-8.8,4.2C314.9,228.3,318.3,226.5,321.9,225z"/><path class="st146" d="M344.1,232.5c0.7,0.2,2,0.3,2,0.5c0.1,2.3-2.5,1.2-3.4,2.8c2.5,0.4,4.9,0.8,7.3,1.2c-8,0.2-16,0.8-24,2.2 c0.7-1.2-4.1-1.3-0.6-2.9c3.2-1.5,4.9-5.1,8.7-5.8C336.6,235.2,340.8,231.6,344.1,232.5z"/><path class="st228" d="M327.8,228.6C327.8,228.6,327.7,228.6,327.8,228.6c0.7,0.8,1.7,1.5,0.5,2.7c-4.7,4.6-10.7,6.8-16.8,8.8 c-1,0.3-2.1,0.1-2.6-1.3c-0.4-1.4,0.3-2,1.3-2.7c3.9-2.7,7.9-5.3,12.9-5.7C324.7,230.3,326.9,231.1,327.8,228.6z"/></g></svg> 