<?xml version="1.0" encoding="utf-8"?><svg version="1.1" id="Layer_1" xmlns="http://www.w3.org/2000/svg" xmlns:xlink="http://www.w3.org/1999/xlink" x="0px" y="0px" viewBox="0 0 512 512" style="enable-background:new 0 0 512 512;" xml:space="preserve"><style type="text/css"> .st0{fill:#080503;} .st1{fill:#F9E2C3;} .st2{fill:#ED2E1F;} .st3{fill:#FBCF4F;} .st4{fill:#FEFEFE;} .st5{fill:#FB8F0D;} </style><path class="st0" d="M73,208.1c-0.7-17.9,7.9-31.7,18.4-44.8c2.2-2.7,4.7-5.2,6.8-7.8c0.3-0.6,0.3-1.3,0-1.9 c-4.2-4.2-8.6-8.3-12.8-12.5c-0.2-0.5-0.2-1,0-1.5c3.7-4.1,7.7-7.9,10.9-12.3c1.2-1.6,0.8-4.6,0.8-6.8c0-11.7-0.5-23.4,0-35.1 c0-1.9,4.2-3.9,6.8-5.4c3.4-1.3,6.8-3,10-4.8c1.9-2.3,3.4-5,4.2-7.8c1.6-3.3,2.9-6.8,4.5-9.9c0.5-1,1.6-1.6,2.4-2.4 c0.7,0.7,1.4,1.6,1.9,2.4c1.6,3.3,2.9,6.8,4.3,10.2l0.4,0.6c0.2-0.2,0.3-0.4,0.3-0.6c3.3-14.3,10.4-27.5,20.4-38.2 c1.4-1.1,3-1.9,4.7-2.4c0.4,1.2,0.6,2.4,0.7,3.6c-0.7,9.4-1.6,18.8-2.2,28.1c-0.1,0.7-0.1,1.4,0,2c0.6-0.4,1.1-0.8,1.6-1.4 c4.3-6.8,8.4-14.1,12.8-21.1c0.4-0.6,2.2-1.4,2.3-1.2c1,1,1.7,2.1,2.1,3.5c0.9,4.1,1.5,8.1,2.2,12.2c0.4,0.4,1,0.7,1.6,0.6 c10.5-2.2,21.1-4.2,31.4-6.8c2.8-0.8,4.7-4.8,6.8-7.3c-1.1-0.9-2.2-1.8-3.4-2.6c-6.3-5.4-10.3-13.1-11-21.4c-0.7-2.7-1.2-5.4-1.8-8 c-0.1-0.5-0.1-1,0-1.5c0.3,0.1,0.7,0.3,1,0.5c7.2,5.8,15.5,10.2,24.3,12.9c1.8,0.8,3.4,2,4.6,3.5c3.7,4.6,7.5,2.4,11.5,0.8 c11.2-4.6,23.9-4.2,34.9,1c1.7,0.8,4.8-1.9,7.2-1.8c9.4,0,8-8.4,11.8-12.7c3.7-4.3,5.3-6.8,7.9-10h0.7c2.9,14.1,5.7,28.2,9,42.1 c0.3,1.2,4.7,2.7,6.8,2c2.1-0.7,3.9-3.5,5.5-5.6c4.5-5.6,8.5-12.1,13.7-17.4c6.8-6.8,14-13.6,21.1-20c0.2-0.2,0.6-0.3,0.9-0.3 c0.7,0.8,1.3,1.8,1.6,2.9c2.3,17-0.1,34.3-6.8,50.1c0,0,0,1.1,0,1.2c0,0.1,1.6,0.6,2,0.4c8.3-5.3,16.5-10.7,24.8-16.1l1.2-0.5 c0.4,1.6,0.6,3.3,0.5,5c-1.2,7.5-2.4,15-3.7,22.6c0.1,0.3,0.2,0.5,0.5,0.7c4.1,3.1,9.3,4.4,14.4,3.5c0.7,0,2.4,1.6,2.4,2.3 c-0.7,6.2,5,7.1,8.1,10.2c3.1,3.1,8.3,5.1,8.7,8.2c0.8,9,1,18.1,0.5,27.2c0,7.5,0,15.1,0,22.6c-0.2,3.9-0.8,7.8-1.7,11.6 c-1.9,9.6,3.8,15.5,9.6,21.8c10.8,11.8,18.4,26.2,21.9,41.9c0.2,1.3,0.4,2.6,0.3,3.9c-1.6-0.6-3.2-1.4-4.6-2.4 c-9.2-6.3-18.1-13.1-27-19.5l-0.7-0.4c0,0,0,0.5,0,0.8c2.3,8.3,4.1,16.7,5.4,25.2c0,5.8-0.7,11.5-2.1,17.1c0,0,0,0.5-0.5,0.7 c-0.2-0.1-0.4-0.3-0.6-0.5l-14.9-17.9l-0.4-0.3c0,0.3,0,0.7,0,1.1c-3.7,13-6.8,26.2-11.3,39c-2.7,8-6.1,15.7-10.1,23.2 c-9.2,17.2-18.5,34.4-28.5,51.1c-5.2,9-11.5,17.3-18.8,24.7c-5.2,5.1-2.8,9.7-2.5,14.7c1.1,10.9-0.5,22-4.8,32.1 c-4.3,9-10.5,17.5-15.6,26.8c-2.4,4.2-3.9,8.9-5.8,13.6v0.5c0-0.2,0-0.4,0-0.5c-1.2-3.4-2.2-6.8-3.3-10.1c-0.1-0.3-0.3-0.6-0.4-1 c0,0-0.4,0.5-0.5,0.8c-2,3.4-4.1,6.8-6.2,10.2c-0.3,0.1-0.7,0.1-1,0c-2.4-4.8-4.8-9.6-6.8-14.5 M284,434.6 c-3.6,3.2-7.5,6.3-10.9,9.6c-7.1,5.7-13.7,11.9-19.9,18.6c-4,5.3-4.7,12.9-8.7,18.2c-5.8,7.3-12.3,13.9-19.4,19.8 c-4.2,3.2-8.7,5.9-13.6,8c-1.9,1-3.5,0-3-2.9c0.6-11.3,5.5-22,13.6-29.8c9-7.7,18.9-14.4,28-21.9c10.9-8.9,23-16.8,29.6-29.9 c0.9-3.2,1.3-6.5,1.1-9.8c-0.5,0.1-1,0.3-1.4,0.7l-1.1,1.4c-4.1,4.6-8.4,9.1-12.2,13.6c-3.8,4.5-7.3,10.2-10.9,15.3 c-0.2,0.2-0.5,0.4-0.7,0.5v-0.7c-0.6-8.2-1.2-16.4-1.8-24.5c0-0.4,0-0.8,0-1.2l-0.6,0.8c-10.1,9.2-19.6,19-30.4,27.2 c-14.2,10.2-26.8,22.4-37.4,36.3c-6.5,7.8-14,14.6-22.4,20.4c-3.7,2.6-7.7,4.9-11.9,6.8c0,0-1.4,1.4-1.6,0.9 c-3.5-10.5,1.8-19,6.8-27.2c6.8-10.7,18.3-14,28.8-19.2c8.4-4.7,16.3-10.1,23.7-16.3c6.7-4.9,13.1-10.2,19.2-15.9 c1.8-1.8,1.4-5.8,2.2-8.7c2.5-8.6,5.2-17,7.9-25.5c0-0.5-0.1-1-0.5-1.3c-12.9-7.5-26.4-14.2-38.6-22.6 c-18.2-12.2-33.8-27.8-45.8-46.1c-8-12.2-14.6-25.3-22.2-37.8c-1.3-2.1-3.9-3.3-6-4.9c0,0-0.7-0.7-0.5-0.8c3.8-6-1.9-10.1-3.2-14.9 c-3.3-12-7.1-24-10.5-36.1c-1.3-4.6-2-9.4-2.9-14.1c0-0.2,0-0.4,0-0.6c0,0-0.5,0-0.5,0.4l-5.5,9.2c-0.5,1-1.4,1.8-2,2.8 c-1-1.1-2.7-2-2.7-3.1c-0.8-9.1-1.5-18.3-1.8-27.2c0.1-2.9,0.7-5.7,1.6-8.4c0.1-0.3,0.1-0.7,0-1c-0.2,0-0.5,0.2-0.6,0.3 c-5.3,8.1-10.7,16.2-15.8,24.5c-0.7,1.5-1.3,3.1-1.7,4.7c-0.3,0.5-0.6,1.1-0.9,1.6c-0.4-0.7-1.1-1.2-1.2-1.9 c-1-4.1-1.8-8.7-2.7-13.5L284,434.6z"/><path class="st1" d="M118.8,100l16.7-9.3c0.9-0.5,1.8-0.9,2.8-1.3c18.8-6.8,37.5-14.3,56.5-20.8c6.3-1.6,12.8-2.7,19.3-3.3 c3,0,6-0.2,8.9-0.6l14.3-0.5c0.6,0,0.6,0,0.4-0.4c7.2,0,14.5,0,21.7,1c16.4,1.6,32.7,3.9,48.8,7.1c18.2,4.5,36.1,9.9,53.7,16.3 c7.6,3.2,14.9,7.3,21.5,12.2c4.9,3.4,9.6,7,14.1,10.9c0,0,0,2-0.8,2.7l-26.5,31.5c-0.4,0.5-1,0.9-1.3,1.4c-3,4.3-5.1,0.6-7.3-0.7 c-3.7-2.3-7.2-4.9-10.9-6.8c-5.7-4.1-11.9-7.5-18.3-10.3c-12.8-4.1-25.8-7.6-39-10.3c-7.9-1.6-15.9-2.6-24-2.9c-8.3-0.4-16.6,0-25,0 c-8,0-16,0.6-24,1.6c-9.2,1.4-18.3,3.4-27.2,6.1c-12.5,3.7-24.8,8.2-37,12.7c-4.6,1.7-8.8,4.6-13.3,6.3c-1,0.4-3-1.3-4.1-2.4 l-30.9-27.9c-0.9-1-1.7-2-2.4-3.1c3.7-1.9,7.3-4.2,10.5-6.8c1-0.6,1.9-1.2,2.8-2l0,0l0,0l0,0C118.7,100.4,118.7,100,118.8,100z"/><path class="st2" d="M239.6,317.9c0,12.4,0,24.7,0,37c0,6.8,0,13.6,0,20.4c-0.6,0.4-1.4,0.6-2.1,0.4c-8.6-5-17.7-9.4-25.8-15.2 c-8.5-6-16.6-12.6-24.1-19.9c-6-6-11.5-12.6-16.2-19.6c-7.4-10.9-14.1-22.2-20.9-33.4c-0.1-0.3-0.1-0.7,0-1c0.4,0.1,0.8,0.1,1.2,0 c3.7-0.8,7.5-1.5,11.1-2.4c0.8-0.3,1.6-0.8,2.2-1.4c-0.1,0.8-0.1,1.5,0,2.3c0.8,1.8,1.8,3.5,2.7,5.2c1.2-1,2.4-2,3.7-2.9l0.6-0.3 c0.7,1,1.4,2,2,3.1c0,0.4,0,1,0,1.6c0,1.8,0,3.6,0,5.5l6.8-2.2h0.9c-0.1,0.3-0.1,0.5,0,0.8c0.5,2.6,1.1,5.1,1.8,7.6 c0.7,2,1.7,3.5,3.8,1.1c0.8,1.4,1.7,2.6,2.8,3.7c2.4,2.4,4.9,4.7,7.5,6.8c0,0,1.6,0,2.2-0.6c0.6-0.6,2.9-2.9,4.3-4.4 c0,0,0.4,0,0.5,0c4.8,4.5,5.8-1.1,8-3.1s4.1-4.1,6.3-6c0.2,0.3,0.5,0.5,0.7,0.7l3.7,2.6c0.7-1,1.2-2.1,1.5-3.3 c0-4.3,1.3-4.6,4.2-1.5c3.4,2.6,6.4,5.5,9.2,8.7C239.4,311.2,239.8,314.6,239.6,317.9z"/><path class="st2" d="M371.7,246.7c0,0,0.5,0.7,0.4,1c-3.4,9.7-6.8,19.6-10.5,29.2c-3.1,7.6-6.8,15-11.1,21.9 c-7.3,11.8-15.3,23.3-23,34.9c-2,2.5-4.3,4.8-6.8,6.8c-0.2,0-0.3,0-0.5,0l-0.1-0.8c-3.2-12-8.9-23.3-16.5-33.2 c-2-2.4-1.2-6.8-2-10.1c-1.4-6.1-3.3-12.1-4.8-18.1c0,0,0.9-1.1,1.3-1.1c6.8,0,6.8,0,5-6.8c-0.3-1.1-0.5-2.2-0.6-3.3l2.3,2.4 c6.9,7.1,16,11.7,25.8,13c0.4-0.4,0.7-0.9,0.7-1.5c0-0.6-1.2-1-1.6-1.5c-4.1-6.8-8.1-14.2-12.1-21.3c-0.1-0.3-0.1-0.6,0-1l1.2,0.5 c10.7,8,23.7,12.3,37,12.4c1.6-0.1,3.2-0.6,4.8-1.2l0.4-0.5c-0.2-0.3-0.5-0.6-0.9-0.9c-8.2-5-14.9-12-19.4-20.4c0,0,0.4-1.5,0.8-1.6 c3.3-0.6,6.8-1,10.1-1.6C351.5,243.7,365,245.8,371.7,246.7z"/><path class="st2" d="M187.2,132.2c-1-8.8,6.8-6.3,10.5-7.5c7.3-2.3,14.8-4,22.4-5c6.8-1.2,14.3-1.5,21.4-2.1c0,0,0.7,0.7,0.7,1.2 c0,13,0.7,26.2,1,39.2c0,7.6,0,15.2,0,22.9c-0.7,0.2-1.3,0.3-2,0.4l-8.1,2.3l-1.2,0.7c0-0.3,0.3-0.7,0.5-1c2.7-3.8,5.4-7.6,7.8-11.6 c0.3-1.2,0.3-2.5,0-3.7c-1.2-0.1-2.3,0.1-3.5,0.4c-3.9,2.4-7.6,5.2-11.6,7.3c-7.8,4.1-11.1,2.9-19.1-5.5c-1-1-2.2-1.8-3.3-2.6 c-5.3-4.1-3.9-10.5-5.6-15.9c-0.4-1.4-0.7-2.8-0.9-4.2l-3.2,1.5l-0.7,0.5c-0.1-0.3-0.1-0.5,0-0.8c-0.3-4.1-0.7-8.2-1-12.3 c0,0-0.7-0.7-1-0.7C187.2,135.4,187.2,135.6,187.2,132.2z"/><path class="st1" d="M441.7,215.1v0.8l-0.7-0.5l-30.4-22.3c-0.2-0.2-0.4-0.3-0.6-0.4l-4-0.6c1,1.3,2.4,2.4,2.9,3.8 c2.9,7.9,5.4,15.9,7.4,24.1c0.5,5.2,0.3,10.5-0.4,15.7l-0.4,1.2l-0.8-0.8c-4.8-6.1-9.2-12.5-14.3-18.1 c-10.7-11.9-21.7-23.4-32.8-34.9c-2.9-2.6-6.1-4.9-9.4-6.8l-0.8-0.7h1c5.3,0,10.7,0,16.1,0.8c7.5,1,10.3-5.9,15.2-9.1 c3.8-3.2,7.4-6.6,10.8-10.2c0.4,0,2.2,0.4,2.9,1.2c2.5,2.4,4.8,5,7.1,7.5c6.5,6.6,12.5,13.5,18,20.9c5.4,8.8,10.3,17.9,14.7,27.2 L441.7,215.1z"/><path class="st1" d="M295.6,356.4c-1.5-8.2-2.7-16.4-4.5-24.7c-0.5-2.4-3.3-4.3-3.9-6.8c-0.4-2.8-0.4-5.6,0-8.4c0,0,0.7,0,0.8,0 c2.1,2.2,4.2,4.4,6.4,6.8c0,0.3,1.2,0,1.7,0.3c0.1-0.5,0.1-1,0-1.6c0-1.6-0.7-3.3-0.8-5c-0.1-1.7,0-1.8,0-2.7 c1.4,1.1,3.4,1.9,4.3,3.5c6.2,8.4,9.9,18.4,10.9,28.8c1.5,12.6,2,25.4,1.4,38.1c-2,11.2-5.2,22.2-9.5,32.8c-2.9,9-6.3,17.9-9.4,26.8 c-0.2,0.5-0.5,1-0.8,1.5c-0.4-0.3-0.7-0.7-1-1.2c-2.4-4.8-4.3-9.8-5.8-14.9c-1.4-6.3-1.9-12.8-1.4-19.3c0.7-6.3,4-12.6,5.2-19 c2-10.1,3.3-20.4,4.9-30.6c0-1.4,0.4-2.7,0.5-4L295.6,356.4z"/><path class="st3" d="M241.2,368.7c0-11.6,0-23.3,0-35c0-6.8,0-13.6,0.5-20.4c0-0.5,0-1,0-1.4c0.8,0.3,1.5,0.7,2.2,1.2 c3.7,2.6,7.4,5.2,10.9,8c0.7,0.7,1.2,1.5,1.4,2.5c-1,13-1.2,26-0.5,39.1c1.5,12.8-6.8,19.9-11.8,29.2c-4.3,7.7-8.6,2.2-12.4,0.6 c-15.3-6.9-29.5-16-42-27.2c-3.4-2.4-6.5-5.2-9.2-8.4c-1.6-2.2-2.3-6.4,3.3-6.8c0.8,0,1.6-2.1,2.4-3.3c0.8-1.2,0.6-0.8,0.8-0.7 c1.3,0.4,2.5,1,3.7,1.8c7.8,5.7,15.3,12.1,23.4,17.3c8.3,5,16.8,9.5,25.5,13.6c0.9-1,1.5-2.2,1.9-3.5 C241.6,373.1,241.5,370.9,241.2,368.7z"/><path class="st1" d="M302.3,147.8c-2.9,1-4.5,1.8-6.2,2.3c-0.5,0.1-1.1,0.1-1.6,0v-1.4c2.8-7.4,5.1-15.1,6.8-22.8 c1.2-8.4,5.8-2.2,7.7-2c5,1,9.8,2.5,14.4,4.6c0.5,0,0.6,1.5,0.7,2.3c0.1,0.6,0.1,1.2,0,1.8c0-0.5,0.4-1.4,0.8-1.6 c0.4-0.2,2.5-1.3,3.3-0.9c5,2.4,9.8,5.2,14.4,8.2c0.8,0.6,0,5.2-1.3,6.5c-6.8,5.6-13.6,10.5-20.4,15.7l-5.4,4.1c1.6-0.7,3-1.3,4.5-2 c1.5-0.7,0.7-0.7,1.3-1c4.5-2.7,9-5.3,13.6-8l3.3-2c4.6-2.7,6.8,1.2,9.4,3.5c2.6,2.3,6.8,4.8,10.5,7.3c0.4,0.7,0.4,1.5,0,2.1 c-2.7,3.1-5,7.7-8.3,8.8c-7.5,2-15.1,3.3-22.8,3.9c-2.2,0.3-2.2,0-2.9-1.7c0,0-0.6-0.4-0.9-0.4L310,174c-0.5-0.2-0.9-0.8-1-1.4 c0.3-0.9,0.7-1.8,1.3-2.6c0.4-0.6,1.2-1,1.6-1.6c0.3-0.5,0.5-1,0.5-1.6c0-0.8,0-1.5,0-2.3c0.3-1.4,0.7-2.8,1.3-4.2 c-1.4,0-2.8,0-4.2,0h-3.2c0.5-0.9,1.2-1.8,1.8-2.7c3.6-4.4,6.8-8.9,10.7-13.6c0-0.5,0-1.3,0-2c-0.5,0.4-0.9,0.9-1.4,1.4 c-2.5,3.9-5.3,7.6-8.6,10.9c-1.4,1.3-5.2,0-7.9,0c0.7-1.2,1.2-2.5,1.8-3.8C303.1,150.2,302.6,149.2,302.3,147.8z"/><path class="st1" d="M75.5,208.3c0.4-16,6.7-31.3,17.8-42.9c2.7-2.8,4.8-6,7.3-8.9c0.6-0.4,1.4-0.4,2,0c8.2,5.6,15.9,11.9,24.4,16.8 c2.5,1.4,7.3-0.7,10.9-1.4l8.8-1.7h1.2c-0.2,0.3-0.4,0.6-0.7,0.9c-7.7,7.1-15.7,14-23.1,21.5c-5.6,5.9-10.9,12.2-15.8,18.7 c-3.5,4.5-6.3,9.5-9.4,14.4l-0.7,0.8c0-0.4-0.7-0.8-0.7-1.2c0-8,0-16.1,0-24.1c0-4.6,1.4-9.2,2.1-14c0.1-0.4,0.1-0.8,0-1.2 c-0.4,0.1-0.8,0.2-1.2,0.3c-4.5,4.6-8.8,9.5-12.7,14.7c-3.1,5.2-5.8,10.7-8.2,16.2c-0.1,0.2-0.2,0.3-0.3,0.4c-0.1-0.3-0.1-0.5,0-0.8 C76.3,214.3,76.1,211.4,75.5,208.3z"/><path class="st1" d="M164.2,143.9c-2.7,2-5.4,3.6-7.8,5.6c-9.4,7.6-18.8,14.4-28.2,21.9c-0.4,0.3-1.6,0-2.2-0.5 c-12.4-9.9-24.8-19.8-37.1-29.8c0.5-1.2,1.2-2.4,2.1-3.3c6.3-5.6,12.8-11.1,19-16.9c3-2.8,3.8,0,5.3,1.6 c8.9,7.3,17.5,14.9,27.2,21.5c2.7,1.8,7.7,0,11.8,0h9.8L164.2,143.9z"/><path class="st1" d="M272.6,328.6c2.5,2.4,5,5,7.5,7.3c0.3-0.2,0.6-0.4,0.7-0.7c0-0.2,0-0.5,0-0.7c0-2.4-0.5-4.8-0.8-7.2 c1.1,2.5,1.9,5.1,2.5,7.7c0.6,3.3,0.7,6.7,0.4,10c-0.5,7.9-1.8,15.8-3.8,23.4c-3.2,9.1-7.2,18-11.9,26.4 c-6.3,12.4-17.8,19.6-28.1,28.1c-2.3,2-4.6,4.1-6.8,6.2h-0.5v-0.3c1.1-12.2,5.3-23.9,12.3-34c5.2-6.5,10.1-13.3,14.5-20.4 c3.2-6.3,5.6-12.9,7.1-19.8c3.1-9.2,3.4-19,0.8-28.3c0,0,1.1-1.3,1.4-1.2c1.8,0.6,3.6,1.5,5.4,2.3L272.6,328.6z"/><path class="st3" d="M370.6,227.3c3.3,0.3,6.7,0.3,10.1,0c0.9,0,1.6-2.9,2-4.5c0.8-3.9,1.2-7.9,2.1-11.7c0-0.9,1.6-1.6,2.6-2.1 c1-0.5,1.2,0,1.6,0.5c2.9,2.7,5.3,5.9,7.3,9.4c1,3.2,1,6.7,0,9.9c-4.8,15.7-9,31.6-15,46.8c-5.3,13.2-12.6,25.5-19.2,38.1 c0,0-1.2,0.4-1.8,0c-3.3-1.2-6.8-2.4-9.9-3.7c-0.5,0-1.2-1.3-1.1-1.6c5.1-10.4,10.6-20.4,15.2-31.1c4.6-10.7,7.6-20.4,11.5-30.3 c0.2-0.3,0.4-0.6,0.7-0.8c1.4-0.7,2.7-1.3,3.9-2c-1.5-0.7-2.9-1.7-4.1-2.8c-4.1-4.5-8-9.2-12-13.6c0,0,0.4-0.5,0.6-0.5L370.6,227.3z "/><path class="st2" d="M137.5,219.2h-4.3c-3.5,0-6.3-0.7-6.8-5c-0.3-3.8-0.8-7.6-1.5-11.3c-1.3-6.8,3.3-10.4,7.1-14.4 c5.9-6.2,12.1-12.1,18.1-18.1c3.1-3,1.5-5.4-1.2-7.3c-2.7-2-4.2-2.9-0.5-5.2c3.7-2.3,5.7-4.1,8.6-6.1c0,0,1-0.5,1.2-0.3 c6.8,6.8,13.6,13.6,20.4,21.1c0.6,1.4,0.4,3-0.5,4.3c-4.9,5.7-10.2,11-15.8,16c-9.2,6.3-17,14.4-23.1,23.8 C138.7,217.5,138.2,218.4,137.5,219.2z"/><path class="st3" d="M218.2,244c-0.5-0.6-2.8-6.8-2.9-6.8l0,0c-1.4,0.8-0.8,0-1.5-1.7c0,0,0,0-0.5,0l0,0c0,0,0,0.4,0,0.7 c-0.1,0.5-0.1,1,0,1.6c0,0.5,0.3,1,0,1.3s-0.9,0-1.3,0c-0.4,0-0.7-1.5-1.1-2.1l0,0c-0.2,0.1-0.4,0.1-0.6,0l-2-5.2c0,0-0.5-0.8-0.4-1 c0.1-0.1,1.6-1.2,2-2c0.2-0.6,0.9-0.8,1.4-0.6c0,0,0,0,0.1,0c0,0,0.3,0,0.4,0c0.1,0,0.5,0,0.9,0.6c1.3,0.8,2.8,1.1,4.3,0.8 c1.1,0,2.2,0.6,3.3,0s0.5,0,0.8,0c0.3,0,0,0.7,0,0.7s0-0.6,0-0.8c0.6-0.5,1.4-0.5,1.9,0l0,0c0.7,0.4,0.7,0,0.8,0 c0-2.1,0-2.1,2.2-2.7l0,0l0,0h-0.6c-0.4,0-0.7-0.3-0.7-0.7c0-0.4,0-0.5,0.7-0.7s3.9-3,3.7-3.7c-0.1-0.7,0.7-1.2,1.8-0.9h0.4l1.8,1.8 c0.4,0.3,0.9,0.3,1.3,0l0,0l0.7-1.6c0.2-0.4,0.4-0.8,0.7-1.2c0.1,0.4,0.2,0.8,0.4,1.2l11.9,19.6c0,0,0.3,0.4,0.7,0.4 c0.7,0.1,1.4,0.6,1.7,1.2c0.4,0.8,1,1.5,1.8,2c0.5,0.3,0.8,0.8,0.8,1.4c0,0.6,0.4,1.1,0.9,1.3c0.9,0.3,1.6,0.9,2,1.8 c3.7,5.9,7.8,11.5,12.2,16.9c3.5,3.8,7.3,7.3,11.4,10.5c0.4,0.3,0.4,0.9,0,1.2c0,0,0,0,0,0c0,0-3.7,2.2-4.3,1.8 c-7.2-2-13.5-6.5-17.7-12.8c0,0,2.1,7.6-1.7,10.1c0,0-5.8,24.1-5.5,24.3l4.9,3.4c5,0.3,9.7,2.5,13.2,6c1.8,0,3.9,3.1,5,4.1 c0.4,0.5,1,0.9,1.7,1 M275.3,315.9c-0.1,0.2-0.1,0.4,0,0.5c1.1,4.7,2.2,9.3,3.2,14c0,0-0.3,0.6-0.5,1c-1.4-0.9-2.7-2.2-3.7-3.6 c-0.5-0.8-1.3-1.6-2.1-2.1l0,0c-1-1.4-1.8-2.7-2.8-4l0,0c-0.5-0.2-1-0.1-1.3,0.4c0,0,0,0,0,0c-0.1,0.2-0.1,0.5,0,0.7l0,0 c0.2,0.4,0.3,0.9,0.5,1.3l-1-0.7l0,0c-1.3-0.4-1.9-1.6-2.8-2.5l-5.8-5c-1.4-1.4-2.8-2.7-4.3-3.9l0,0l-2,0.5c0.6,0.9,1.1,1.8,1.6,2.8 c-0.3,0.4-0.7,0.5-1.2,0.3c-0.2-0.1-0.3-0.3-0.4-0.5c-0.2-0.5-0.7-0.8-1.2-0.8c-1.4,0-2.2-1.6-3.6-2.1c-0.7-0.1-1.4-0.5-1.9-1.1 l-8.6-10.6c-0.4-0.3-0.4-0.9,0-1.2c0,0,0,0,0,0l0,0c0.6-0.3,3.8-4.1,3.3-5.7c0,0-0.6-3.5-0.6-3.7c0-3.1,0-6,0-9c0-0.5,0-0.9,0-1.4 l1.2,0.9l3.4,2.9c0.3,0.4,0.9,0.4,1.2,0c0,0,0,0,0,0l0,0c0.6-1.9,1-3.8,1.4-5.7c0-2.2,0-4.6,0-6.8c0,0,0,0,0-0.4l0.7,0.4l3.1,2.9 c0.3,0.4,0.9,0.4,1.2,0c0,0,0,0,0,0l0,0l2.4-6.2c0.4-1.2,0.8-2.4,1-3.6c0.1-0.5-0.2-1-0.7-1.2h-0.6c-0.4-0.1-0.7-0.5-0.7-0.9 c0-1.2-0.8-1.9-2.4-1.7c-0.5,0-0.9-0.3-1.2-0.7c-0.4-0.5-1.1-0.8-1.8-0.8c-1.6,0.5-3,1.4-4.2,2.5l-1-1.6l-0.7-0.4 c-0.5,0-3.1,0-3.2,0.7c-0.1,0.7-0.5,1-1,0.4c-1-3.1,0-4.3,3.3-4.2c0.7,0,1.6-1.8,2.2-2.9c-0.4,0-1-0.4-1.2,0 c-0.3,0.4-0.5,1.2-0.9,1.3c-1.7,0.3-3.4,0.5-5.1,0.6c-0.5-1.8-18.3-11.1-18.3-11.1L275.3,315.9z"/><path class="st1" d="M344.5,147.9c7,1.3,14,2.2,21.1,2.7c2.4,0,5.2-3.5,7.3-5.8c6.8-7.8,13.6-15.8,20.4-23.6c0.4-0.2,0.9-0.2,1.4,0 c5.7,6,11.6,11.8,16.9,18.3c0.7,1-1.4,5.2-3.2,6.8c-9.8,9.8-19.8,19.2-30.2,28.5c-0.4,0.3-3.4-1.8-4.9-3.1l-25.5-20.4 c-1-1-2-2-3-3.1l0,0L344.5,147.9z"/><path class="st1" d="M259,408.5h-0.5c0-0.3,0-0.6,0-1c5.3-6,10-12.6,14.1-19.4c3.7-8.5,6.7-17.1,9.2-26c0.9-2.4,1.5-5,1.8-7.5 c0-7.1,0-14.2-0.4-21.3c0-1,0-1.9,0-2.8c0.8,0.6,1.6,1,2.4,1.4c0.5,0,1-0.1,1.4-0.5c0.1-1.3,0.1-2.5,0-3.8l0,0 c0.9,1.5,1.7,3,2.4,4.6c3.9,10.5,5.1,21.8,3.5,32.9c-1,9.2-2.7,18.3-5,27.2c-1.8,5.3-4.3,10.4-7.4,15c-5.4,8.6-11.4,16.9-17.2,25.3 c-2,3-3.9,6.1-6,9.1c-0.4,0.4-0.9,0.7-1.4,1c-0.4-0.5-0.6-1.1-0.7-1.7c-0.3-4.5-0.3-9.1,0-13.6c1-6.2,2.8-12.2,4.2-18.2 C259.5,408.5,259,408.5,259,408.5z"/><path class="st1" d="M299.8,431.5c1.8-6,4.5-13.2,6.3-20.4c3-12.4,5.4-25,8-37.4c0.1-1.2,0.1-2.4,0-3.6c0.3-5.5,0.1-11.1-0.7-16.6 c-2.4-10.2-5.7-20.4-8.9-30.2c-1.8-5.5-4.5-10.7-6.8-16c0-0.4,0.4-1.2,0.6-1.7c1.2,0.7,2.8,1.2,3.5,2.2c4.2,5.8,7.8,12,10.7,18.6 c4.5,12.2,7.5,24.7,11.4,37.2c3.1,10.2,3.5,21,1.2,31.5c-1,6-2.9,11.8-5.6,17.3c-4.5,8.8-9.9,17.1-14.9,25.5 c-0.6,0.9-1.2,1.8-1.8,2.7c-0.2,0.3-0.6,0.5-1,0.6c0,0-0.5-0.5-0.6-0.7C300.9,437.8,300.5,435.6,299.8,431.5z"/><path class="st1" d="M359.7,27.9c-1.6,6.8-2.9,13.6-5,19.8c-3.1,9.6-6.8,19-10.3,28.4c-2,5.1-4.7,0.8-6.8,0 c-7.7-1.9-15.3-4.2-22.7-6.8c-0.8,0-2-1.8-1.9-2.2c1.7-4,3.7-8,5.6-11.8c2.4-5.3,5-10.5,8-15.5c3.6-5.5,8-10.5,12-15.6 c0.8-0.3,19.9,2.6,21,2.8c0.3-0.1,0.6,0.1,0.6,0.4S360,27.9,359.7,27.9L359.7,27.9z"/><path class="st3" d="M176.2,238c-14.2,0-28.4,0-42.5,0c-2.2,0-5.7,0-3.3,4.1c0,0-0.3,0.7-0.7,0.8c-2.9,0.6-5.8,1.4-8.6,2.4 c-2,1-3.4,3,0,4.6c0.4,0.3,0.7,0.7,0.8,1.2c-1.3,1.1-2.6,2.1-3.9,3.1c-0.4-0.3-0.7-0.7-1-1.1c-2.9-11.8-6.3-23.6-8-35.5 c-0.5-3.3,3.9-8,7.1-10.7c3.3-2.7,7.2,1.6,7.5,5.4c0.5,8.3,1.7,8.8,12.7,9.7c2.7,0,5,3.7,7.6,5.3c1.7,0.7,3.5,1.1,5.3,1.3 c0.4,0,1,0,1,0c2,3.6,6.5,4.9,10.2,2.9c0.4-0.2,0.7-0.4,1.1-0.7c4.5-3.5,9.5-7.6,15.2-4.6c3.7,2,6,6.8,8.8,9.9c0,0-0.5,0.7-0.9,0.7 H176L176.2,238z"/><path class="st1" d="M267.2,309.6c-1-0.7-2.1-1.3-3.3-1.6c-1.8,0-3.6,0.3-5.3,0c-1.3-0.6-2.6-1.5-3.6-2.5c-0.6-0.5-1.1-1.2-1.8-1.6 c-0.7-0.5-3-1.8-3.7-3.1c-0.7-2-1.2-4.2-1.4-6.3c0,0,0.3-0.7,0.5-1.2c1.7-4.2,3.3-8.5,5-12.7c0.5-1,0.9-2.1,1.3-3.2 c0.1-1.1,0.1-2.3,0-3.4l0,0c0,0,0.7-0.4,0.7-0.7s0-1.2,0-1.8l1.4,1.4c0.2,0.1,0.5,0.1,0.7,0c0.2-0.1,0.4-0.4,0.4-0.6 c-0.4-1.1-0.6-2.2-0.8-3.3c0.1-1,0.2-2,0.5-2.9l1,0.9l1,0.6c1.2,0.5,2.3,1.2,3.3,1.9c2.7,2.4,5,5.2,7.7,7.4c1.8,1.2,3.8,2,5.8,2.4 c0,0,0.6-1.4,1.1-1.8c1-0.3,2.1-0.6,3.1-0.7l3.1-0.5c1.2,0.5,1.6,1.6,2.2,2.4c0.6,0.8,2.5,2.8,4.2,4.6c0.9,0.6,1.6,1.4,2,2.4 c0.8,1.4,1.9,2.7,3.2,3.7c1.5,1.6,3,3.3,4.3,5l0,0l0,0l1.2,9.2l0,0l0,0l-4.7-4.8c-0.5,0-2,1.4-1.9,2.2c0,4.8-4.6-1.8-6.8-2.5 c-0.8,0-3.3,8.6-3.9,8.8c-3.9-1.5-7.9-2.7-12-3.6c2,2.9,3.2,10,4.2,10.7c0.3,0.2,0.3,0.6,0.1,0.9c0,0-0.1,0.1-0.1,0.1l0,0h-0.6 l-7.7-5.6c0,0,0-0.7-0.4-1.1"/><path class="st3" d="M135.1,290.3c3-0.6,5.8-1.8,8.4-3.4c2.9-2.8,3.7-0.7,4.9,1c8.2,12.8,16.2,25.7,24.5,38.5 c2.2,3.5,5.1,6.8,7.3,10.1c1.4,2.4,2.5,4.9,3.3,7.5c0.1,0.8-0.2,1.6-0.8,2.1c-1,0.1-1.9-0.2-2.7-0.7c-0.7-0.5-1.3-1-1.8-1.7l0,0 l1.4,2.2c0.5,1,1.2,1.9,1.6,2.9l-4.4,0.7l0,0l-0.4,1.6c-0.6-0.1-1.2-0.4-1.7-0.7c-6.8-7.9-13.6-15.4-19.4-23.7 c-5.8-8.3-10.3-16.3-15.4-24.4l0,0l0,0c-1.6-3.5-3.2-6.8-4.7-10.5C134.3,291.2,134.1,290.6,135.1,290.3z"/><path class="st1" d="M335.7,231.8c-6.8-4.4-13.6-8.8-20.4-13.6c-2.7-2-5.2-4.3-7.5-6.8c0,0,0-1.1,0.5-1.2c2.9-1.6,6-3.1,8.8-4.8 c0.9-0.6,2.1-2.1,1.9-2.7c-0.9-1.4-2-2.7-3.2-3.9c-0.9-1-2-1.8-2.9-2.7c1.6-0.4,3.7-1.7,4.9-1.2c8.4,3.1,16.6,7,24.4,11.5 c5.5,4.5,10.6,9.5,15.2,15c0,1.1-3.1,8.7-4.3,8.7S338.6,231.8,335.7,231.8z"/><path class="st1" d="M284.3,143c0.7-4.6-1.8-2.9-4.1-1.7l-1.5,0.9c-0.1-1-0.1-1.9,0-2.9c0-6.8,0-13.6-0.4-20.4c-0.3,0.3-1,0.7-1,1 c0,0.3,0.4,1.2,0,1.8c0,7.1,0,14.3-0.6,21.4c0,1.6-2,2.9-3.1,4.3c-0.5,0.1-1.1-0.1-1.5-0.4c-1.1-4.1-2.8-5.4-5.7-1.3h-1.3 c-2.2-9.2-4.4-18.3-6.8-27.2c0-0.4,1-1.6,1.5-1.6c12.2,1,24.4,2.1,36.6,3.3c5.8,0.5,3.7,4.5,3,7.5c-1.6,5.9-3.4,11.8-5.2,17.5 c-0.3,0.6-0.8,1.1-1.4,1.4c0,0-0.7-0.4-0.7-0.7c-0.7-6.8-4.2-2.5-6.8-1.7l-1.4,0.7L284.3,143z"/><path class="st1" d="M190.3,183.7c6.8-0.6,13.6-1.2,20.4-2c2.7,0,5.4-1,8.2-1.5c0,0.6,0,1.1-0.5,1.5c-1,1-1.8,2.1-2.5,3.3 c-0.6,1.3-1.9,1.7-2.7,2.8s-1.5,2.2-2.3,3.3c-1.1,1-1.9,2.3-2.4,3.7l0,0c0,0-0.9,0.4-0.7,1c0.3,0.5,0.7,0.8,1.3,1 c0.9,0.1,1.7-0.1,2.4-0.6l1.1-0.7l8-3.7c0.6,0.8,0,1.6,0,2.5c-0.4,0.8-1.2,1.3-2,1.6c-1.3,0.6-2.6,1.2-3.9,2c-1.9,1.4-2.3,4.1-0.9,6 c0.1,0.2,0.3,0.3,0.4,0.5c0.5,0.4,1.3,0.7,1.3,1.6l-3.2,2.4c-1.1,0-1.6,1-2.5,1.4c-1.5,0.7-3.2,0.8-4.8,0.4c-1.6-0.4-3.2,0.3-4,1.7 c-0.8,1.1-2.1,1.7-3.5,1.6c-2.4,0-2.3,1-3,3.1c-0.2,0.4-0.2,0.8,0,1.2c1,0.7,1.6,1.7,2.7,2.1c0.6,0.2,1,0.6,1.3,1.1 c0.9,1.4,0.7,1.8-0.9,2.1c-0.5,0-0.9,0.3-1,0.8c-0.5,1-1.4,1.6-2.5,1.8h-1.2c-1.1,0.4-1.2,1.2-0.3,2c0.4,0.3,0.7,0.5,1,0.8 c0,0,0.6,0.7,0,1.2l-2.1-0.7c0.1,0.9,0.2,1.7,0.4,2.6c0.3,0.8,0.7,1.6,1.2,2.4c-1-0.3-2-0.7-2.9-1.2c-0.5-0.4-1-0.9-1.4-1.4 c-0.9-0.9-2-1.7-2.9-2.5c0,1,0,2.1,0,3.1c0.1,0.4,0.1,0.7,0,1.1c-0.4-0.2-0.7-0.4-1.1-0.6c-2.2-2.4-4.3-4.9-6.5-7.3 c-0.3-0.7-0.6-1.4-1.2-1.9c-0.5-0.6-0.5-1.5,0-2.1c0.5-0.9,1-1.8,1.4-2.7c0.1-0.7,0.8-1.1,1.5-1c0.1,0,0.1,0,0.2,0 c1.2,0.2,2.4-0.7,2.5-1.9c0,0,0-0.1,0-0.1v-0.7c-0.5-1.6,0.5-3.3,2.1-3.8c0.3-0.1,0.6-0.1,0.9-0.1c1.3,0,2.6-0.7,3.4-1.8 c0.6-1,1.3-1.9,2-2.9c0.4-0.5,0.4-1.1,0-1.6c-0.3-0.6-0.3-1.3,0-1.8c0.5-1.4,0.2-2.9-0.7-4c-0.4-0.5-0.4-1.2,0-1.7 c0.5-1,1-1.8,1.5-2.7s0.4-1.4-0.5-1.9c-0.9-0.3-1.7-1-2.2-1.8c-0.3-0.4-0.7-0.7-1.2-0.8c-0.9,0-1-0.7,0-1.2c1-1.2,2.3-2.1,3.7-2.8 l0,0l0,0C190.4,185,189.8,184.6,190.3,183.7z"/><path class="st1" d="M256.1,411.4c-4.3,5.8-9,11.3-14.1,16.4c-14.5,12.5-29.8,23.9-44.2,36.5c-5.5,4.8-8.9,12-14.1,17.4 c-6.8,6.8-14.5,12.9-21.7,19.2c-2.5,2.2-5.1,4.2-7.7,6.3c-1,0.6-2,1.1-3.1,1.5c-0.5-1.2-0.8-2.5-1-3.7c0-7.5,14.9-23.6,19.2-28.3 c0.8-0.9,1.8-1.6,2.9-2.1c6.8-2.4,13.3-5.5,19.6-9.1c10.6-7.2,20.4-15.6,30.4-23.8c8.2-6.8,15.8-14.5,23.7-21.7 c3.3-2.9,6.8-5.5,10.2-8.4L256.1,411.4z"/><path class="st1" d="M288.2,199c0.3,0,0,2.1,0,2.1c-2.4,0-4.6,0-6.8,0c-0.4-0.1-0.8-0.2-1.2-0.4c0.2,0.4,0.3,0.8,0.4,1.2 c0.4,1.7,0.8,3.5,1.1,5.2c0,0.3-1.4,1.2-1.6,1.1c-1.6-1.2-3.2-2.6-4.7-4c-0.2-0.1-0.3-0.3-0.4-0.5c0,0-0.5,0.6-0.4,0.8 c0.1,1,0.3,2,0.5,2.9c0,1,0,1.8,0,2.7c-1.1-0.5-2.2-1.2-3.1-1.9c-0.7-0.7-1.2-1.5-1.6-2.4c0.1,1,0.1,1.9,0,2.9 c0,1.9-0.5,3.7-0.8,5.4c-2.5-1.8-5.2-3.5-7.6-5.4c-0.8-0.7-1.4-1.6-1.8-2.5c-0.3,1.1-0.6,2.1-0.9,3.2s-0.8,3.3-1.4,5 c-0.3,0.7-0.8,1.3-1.4,1.8c-1.3-0.8-2.6-1.9-3.8-2.8l-1.3-1c0.1,0.5,0.3,1,0.5,1.4c1.6,2.4,3.2,4.7,4.8,6.8c0.7,0.8,1.5,1.5,2.4,2 h0.3c0-0.4,0-0.7,0-1.1c0-3.9,0.5-7.9,0.9-11.8h0.6c1,1.1,1.6,2.5,2.9,3.1c3.9,1.8,3.1,4.2,1.6,6.8c-0.6,1.6-1.3,3.1-2.2,4.6 c-0.8,1-2.1,1.5-3.3,1.4c-1.2-0.4-1.9-2-2.7-3.1c-0.2-0.4-0.4-0.8-0.5-1.3c-0.1,0.5-0.3,0.9-0.5,1.4l-2,3.9 c-1.2-1.3-2.1-2.7-2.9-4.3c-0.7-2.5-1.3-5-1.7-7.6v-1.2c0,0.3-0.7,0.5-0.7,0.9c-1.5,3.1-2.6,6.4-3.3,9.7c0,0.8,3.6,1.8,3.8,3 c0.5,3.7,0.7,7.4,0.7,11.1c-1.2-0.9-2.8-1.4-3.3-2.6c-1.2-2.7-1.8-5.8-2.9-8.5c0-0.7-2.2-0.5-2.7-1.2c-0.9-1.5-1.7-3.1-2.4-4.8l0,0 c-0.4-0.9-0.6-1.9-0.8-2.9c-0.1-0.9-0.1-1.7,0-2.6c-0.5,0.7-0.9,1.3-1.3,2c-0.7,1.2-1.3,2.4-2,3.7c-0.7-2.2-1.5-4.4-2.1-6.8 c0-0.5,0.3-1,0.7-1.3c0.7,0.2,1.4,0.5,2,0.9c0.4,0,0.7,0.5,1.1,0.6s0,0,0.4-0.4l-1-0.7l-3.8-6c1-1,1.8-2.1,2.6-3.3 c0-0.7,0.8-0.5,1.2,0c0.3,0.4,0.5,0.8,0.5,1.3c0,1.5,3.6,1.1,4,2.3c0.4,1.2,2,2.8,2,2s8.7-3.3,9.2-3.9c0.5-0.6,1.6-1.6,3.3-1.1 c1.6,0.5,6-4.2,6.8-4.8c9.4-2,16.5-9.9,17.5-19.4c0-0.4,0-0.7,0-1.1c0.9,0,1.1,0.5,1.4,1C280.7,180.8,287.6,198.4,288.2,199z"/><path class="st1" d="M358.5,209.8c-6.1-0.3-11.9-2.1-17.1-5.2c-6.1-3.5-12.5-6.6-19-9.1c-1.4-0.7-5.6,0-1.6-3.5s-0.8-4.9-2.1-5.4 c-3.7-1.6-4.9-1.6-0.7-4.9c6-4.8,12.1-2.1,18.1-2.1c3.9,0.2,7.7,1,11.4,2.2c3.7,1.1,7.6,2.7,11.4,3.9c1.7,1.1,1.7,2.2,0,3.2 c-1.1,3.4-2,6.9-2.7,10.5c-0.3,0.8-0.3,1.7,0,2.4c0.6,2.1,1.3,4.2,2.2,6.3C358.8,208.5,359.2,209.2,358.5,209.8z"/><path class="st1" d="M310.4,244.7l-9.7-12.9c-0.2-0.3-0.2-0.8,0-1.2c0,0,0.6-0.4,1-0.4h3.5c-0.5-1.9-0.9-3.9-1.5-5.7 c-0.5-1.3-1.2-2.5-1.8-3.7h3.9c3,0,6.8-2,8.9-0.6c6.1,5,11.8,10.5,17.1,16.4c2.6,3.3,4.9,6.7,6.8,10.4c2.4,3.7,4.9,7.5,7.2,11.3 c0,0.3,0,1,0,1.5s-0.8,0-1.2,0C332.6,256.1,321.1,251.1,310.4,244.7z"/><path class="st1" d="M212.3,506.5c-0.5-9,2.7-17.9,8.9-24.5c7.2-6.8,14.8-13.2,22.8-19.2c13.6-11.3,28.5-20.4,37.3-36.7v-0.4 c0.5-0.9,1-1.8,1.5-2.7c0,1.6,0.9,3.7,0,4.5c-6.8,7.6-13.6,15.5-21.2,22.4c-6.5,5.8-11.5,13-14.7,21.1 c-4.3,10.7-11.7,19.8-21.3,26.2c-4.1,3.1-8.2,6.3-12.4,9.4c-0.3,0-0.8,0-1.2,0S212.3,506.6,212.3,506.5z"/><path class="st1" d="M308.5,35.1c0.5,9,1,18.2,1.8,27.2c0.5,5.6,0.3,8.6-6.8,6.1c-5.9-1.4-11.8-2.5-17.8-3.2c-1,0-2.6-1.9-2.5-2.8 c0.9-7.8,1.9-15.6,3.3-23.3c0.8-2.8,1.8-5.6,3.2-8.2c0.6-0.3,1,0,1.4,0.5c0.5,0.8,0.9,1.8,1,2.8c0.2,1.7,0.8,3.3,1.7,4.8 c1.2,1.4,1.7,1.4,2.9,0c0.5-0.6,1.1-1.1,1.9-1.2c1.3,0,1.7,0,1.6,1.4c0,0,0,0.4,0,0.7s0,1,0.3,1.3c0.3,0.3,0.8-0.4,1.2-0.7 c1-1.6,2.3-2.8,3.9-3.7c0.6,0,0.8-0.9,1.2-1.4S307.8,34.7,308.5,35.1z"/><path class="st1" d="M265.8,260c-3.1-5.6-6.4-11-9.4-16.7c0-0.5,0.9-2,1.6-2.9c1.7-2.4,2.7-8,6.4-1.3c0,0.4,2.2,0,3.5,0 c1.2,0,1-0.3,1.1,0c0.1,0.3,0.8,1.6,1.3,2.2l5.7,9.9l0,0c-2-3.5-3.9-7.1-5.5-10.8c-0.5-2-0.6-4.2-0.5-6.3c0,0,0.7,0,0.9,0 c2.6,1.8,5.1,3.7,7.7,5.2c0,0,1.8-1.8,2.6-2.9c0.4-0.6,0.7-1.4,0.8-2.1c0.5,0,1.2,0.4,1.5,0.8c4.9,8.6,9.9,17.2,14.5,26 c1.3,3.3,2.3,6.7,2.8,10.2c-0.9,0.9-1.6,0-2.3,0c-6.3-5.6-13-10.9-20-15.8l-1.1-1.2c0,0.6,0,1.3,0,1.9c0,1.2,0.4,2.4,0.5,3.6 c-1,1.9-1.7,4-2.1,6.1C275.6,267.7,267.4,259,265.8,260z"/><path class="st4" d="M189.8,184.2h0.5c2.4,2.3,0,3-1.4,4c-2.9,2.2,1.6,2.2,1.1,3.6c3.1,0.9,2.7,2.3,1.3,4.8c-0.8,1.5,0,4,0.3,6 c0.5,4.2-0.7,7.8-5,8.8c-3.2,0.7-3.8,1.8-3.3,4.7c0,0.7-1.4,2.1-2.4,2.4c-3.8,1.2-4.3,3.3-2.3,6.4c0,0.2,0,0.5,0,0.7 c-2.4-0.6-4.6-1.5-6.8-2.6c-1.3-1.2-1.3-3.7-1.3-5c1.6-5.8-3.4-4.1-5.8-5.4l-5.6-2.9c-0.2-1.2-0.2-2.4,0-3.5c0.3-1.4,0.3-2.9,0-4.3 c1.8-2.7,3.7-5.6,5.8-8.2c2.1-2.6,4.5-5.2,6.8-7.7c0.1-0.1,0.3-0.2,0.3-0.3l0,0c0.7-0.5,1.3-0.6,1.9,0.3c1.9,1.5,4.4,2.2,6.8,2.1 c0.9-0.5,2.4-1.2,3.2-1.7"/><path class="st3" d="M241.6,52.6c4.5,6.7,13.6,8.5,20.3,4c0,0,0.1-0.1,0.1-0.1l0.5-0.3c0,0,0,0.5,0,0.7l-0.8,3.5 c-1.6,4.3-4.9,1.2-7.2,1.4c-6.8,0.4-14.1-0.3-21.2,0c-7.1,0.3-15.2,1.4-22.9,1.8c-2.1,0-4.2-0.4-6.1-1.2c-1-0.4-2.5-2.2-2.2-3 c0.3-0.7,1.2-6.8,1.4-7.3c0.4-1.1,1.4-1.9,2.6-2.1c6.8,0,9-4.7,12.8-8.4c1.1-1.2,3.8-0.8,5.7-0.9c1.9-0.1,5.2,0,7.9,0h1.2l-0.4,1.3 c-0.7,1.5-1.5,2.9-2.3,4.3l5.3,1.4C236.4,47.4,240.1,50.6,241.6,52.6z"/><path class="st3" d="M348.1,313.3l-0.7,3.3c0.8-0.7,1.4-1.6,2.4-2s1.6,0.7,2.4,0.7c2.2,0,3.6,0.7,3.3,3.1l3.3-1 c-0.9,2.3-2,4.6-3.2,6.8c-4.8,7.3-9.6,14.7-14.8,21.6c-4,5.4-8.7,10.4-13.2,15.5c-0.6,0.1-1.2-0.1-1.6-0.5c-1.8-4.6-3.1-9.4-4-14.2 c0-1.8,2.3-4.1,3.8-6.1l19.2-27.2c0.6-0.6,1.4-1.1,2.3-1.3C347.3,312,347.8,312.8,348.1,313.3z"/><path class="st5" d="M148,258.1l6.3,0.9c-1.5-0.7-3.1-1.3-4.8-1.8c-1.2,0-2.5,0.3-3.8,0s-4.1,0.3-5.2-0.6c-1.2-1,0-3.3,0-5l4.1,0.7 l6,0.8c0.2,0.1,0.4,0.1,0.5,0c0,0,0-0.5,0-0.6c-2.8-1.4-5.7-2.6-8.4-4.1c-1.3-1-2.4-2.2-3.3-3.5c0,0,0.4-1.5,0.7-1.5 c1.3-0.2,2.5-0.2,3.8,0c3.5,1.4,6.8,3.4,10.7,4.4c6.2,1.8,7.8,7.8,11.8,11.3c5.8,4.8,11.8,9.3,18.1,13.5c0.5,0.7,0.7,1.5,0.4,2.3 c-2,1.9-3.9,4.6-6.3,5.1c-2.4,0.5-4.1-2.6-6.3-3.3c-1.8-0.4-3.7-0.1-5.3,0.9c-2.8,2.7-5.8,5.2-9,7.4c-1.8,0.9-5-0.5-7.3-1.2 c-0.2-1.2-0.1-2.5,0.3-3.7c0-0.5,1.9-0.9,2.8-0.6c4.6,1,5.2-2,5.5-5.3c0.5-4.3-1.9-8.5-5.8-10.3c-1.4-0.7-3.5-0.4-5-1.2 c-1.6-0.7-1.7-2-2.6-3L148,258.1z"/><path class="st2" d="M169.1,259c-1.6-1.7-3-3.6-4.1-5.6c-2.9-6.5-9.6-6.8-14.7-9c-3.8-1.6-7.8-2.8-11.9-3.5c-1.2,0-2.6,0.7-3.9,1 c-1.3,0.3-1-0.3-1.4-0.5c1-0.6,2-1.8,2.9-1.9c7.5,0,14.9,0,22.3,0h43.5c0.4,0,0.8,0.1,1.1,0.3c-0.5,1.4-0.7,3.6-1.8,4.3 c-7.3,4.3-14.7,8.6-22.2,12.5C175.7,257.7,172.4,258.5,169.1,259z"/><path class="st3" d="M413.3,100.9c0,5.9,0,11.8,0,17.6c0,3.7-0.9,5.1-4.2,3.1c-2.5-1.7-5.7-1.9-8.3-0.3c-0.6,0-2.1-1-3.1-1.6 c0.2-0.7,0.5-1.4,0.9-2c1.3-2,3.3-3.9,3.7-6.2c0-1.1-2.5-3.2-4.2-4c-5.3-2.4-5.5-5.5-3.4-10.5c1.5-4.8,2.7-9.7,3.5-14.6 c0.5-0.6,1.3-0.8,2-0.7c3.6,2.1,7,4.7,9.9,7.7C412.1,92.9,413.2,96.8,413.3,100.9z"/><path class="st1" d="M291.8,179.1c0.8-0.2,1.5-0.5,2.2-1c-0.7-2.3,5.1-3.8,0.7-6.4c-0.1-0.2-0.1-0.5,0-0.7c3.3-3.1,6.9-6,10.6-8.7 c1.8-1.1,4.6-0.5,6.8-0.6c0.3,0.4,0.5,1,0.4,1.6c-2,6.8-7,12.3-13.6,14.8c-0.5,0-0.8,0.7-1.2,1l1.4-0.5c4.5-1.6,9-2.9,13.6-4 c2.8-0.2,5.7,0.1,8.4,1c0,0,0.6,1.4,0.4,1.6l-9.4,7.1l-0.6,0.5c0.4,0.4,0.9,0.7,1.4,1c2,1,4.1,1.8,6.1,2.8c0.7,0.4,1.3,0.9,1.8,1.5 c-1.4,1.2-2.7,3.1-4.2,3.3c-4.8,0.7-9.7,0.9-14.6,0.5c-1.8,0-3.4-2.7-5.2-4.1c-0.4,0-1.6,0.3-2,0c-2-1.4-1.3-2,0.7-2.6 c0.7,0,1.2-1.3,1.8-2c0.6-0.7,0,0,0,0s0-0.5,0-0.8c-1.1-1.5-2.7-2.6-4.5-3c-0.5,0-1,0-1.6,0c-1,0-1.1-0.5-0.5-1.3c0.6-0.7,0,0,0,0 l0,0L291.8,179.1z"/><path class="st4" d="M203.8,10.1c1.7,1.6,3.5,3.1,5.4,4.3c5.1,2.3,10.7,3.8,15.5,6.8c4.8,3,8.5,6.8,12.8,9.7 c1.8,1.3,3.8,2.4,5.6,3.5c0.3,0.2,0.6,0.5,0.7,0.9c-1.2,1.4-2.4,4.1-3.7,4.1c-5.5,0-10.9-1.1-16.4-1.5c-8-0.6-14.8-6-17.1-13.6 c-1.2-3.8-2.2-7.7-3.1-11.6C203.5,11.9,203.6,11,203.8,10.1z"/><path class="st1" d="M299.3,257.5c-3.5-5.8-6.8-11.8-10.3-17.5c-1.8-2.5-3.8-5-5.9-7.3c-0.4-0.7-0.7-1.4-0.9-2.2 c0.8,0,1.5,0.1,2.2,0.3c1.8,0.9,3.7,1.7,5.7,2.2c0.9,0,2.1-1.7,3.1-2.7c1-1,0-1,0-1.3s1.4,0,1.7,0c5.5,5.4,10.5,11.3,15.1,17.5 c4.2,7.4,7.9,15.1,11.1,23c0,0.4,0,1,0,1.4s-1.3,0-1.6,0c-1.3-1.7-3.3-2.6-4.6-4.2c-1.2-1.1-2.5-2.1-3.9-2.9 c-2.2-1.5-4.3-3.2-6.8-4.6c-0.5-0.3-0.9-0.7-1.3-1.2c-0.7-0.8-1.4-1.4-2.4-0.5L299.3,257.5z"/><path class="st3" d="M181.5,282.8l5.4-8c1.1-0.5,1.6,0.5,2.2,1c0.7,0.5,0.7,0.4,1.2,0c0.5-0.4,2.4-2.3,3.8-3.3 c1-0.8,2.3-1.4,3.6-1.5h0.1c1.1,0.4,1.4,1,0.5,1.6c-0.8,0.5-0.8,1.8-0.9,2.8c-0.1,1,0.3,0.8,0.9,0.7c0.9-0.4,1.8-0.9,2.6-1.5 c0.5-0.5,1.1-0.7,1.7-0.8c1.1,0,2-0.7,2.4-1.6c1.5-2.5,3.3-4.8,4.7-7.3c0.4-0.5,0.8-1,1.2-1.4c0,0,0.6-0.7,1.1-0.5 c0.4,0.3,0.6,0.8,0.5,1.2c0.1,0.9,0.1,1.8,0,2.7c-0.2,0.6-0.2,1.3,0,1.9l0,0l0,0c1.4-0.1,2.6-0.8,3.5-1.8c0.3-0.3,0.5-0.8,0.5-1.2 c0-1.1,1.4-1.8,1.7-2.7c0.3-1,2.2-1.7,2.9-3c0.7-1.3,1.2-0.4,1.8-0.5h0.5c1-0.2,2.1-0.4,3.1-0.7c0.9-0.4,2-0.4,2.9,0 c0.9,0.3,0.4,2.2,0.5,2.4c-0.8,2.3-3.9,5.2-4.1,4c-0.1-1.1-0.1-2.2,0-3.3c0,1.2,0,2.4-0.6,3.5c-0.6,1.2-1.3,5.6-1.3,5.6 s-1.5-1.6-2.2-2.3c-0.4-0.6-0.6-1.3-0.7-2c-0.1-0.7-0.1-1.3,0-2l-0.9-0.4c0,0.5-0.3,1.1-0.4,1.6c-0.3,1.2-0.6,2.4-0.7,3.7 c0.1,0.5,0.4,0.9,0.8,1.2c5-2-1.2,3.3-1.6,1.5c0-0.3,0-0.7,0-1c-0.4,0.2-0.7,0.5-1,0.9c-1.6,2.3-3.1,4.8-4.7,7.2 c-0.5,0.7-2.1,0-2.1-0.9c0-0.7,0-1.4,0-2.1c-0.8,0.5-1.6,1.2-2.2,2c-1.2,1.6-2.1,3.5-3.5,5.1c-1.4,1.6-2.4-0.7-2.1-2 c0.2-0.5,0.3-0.9,0.3-1.4c-0.5,0.2-0.9,0.4-1.4,0.7c-2.9,2-6,3.8-9.2,5.2c-1,0-5.9-0.4-6.8,1.2l0,0c-1,0-1.2,1.4-2,1.8l-5.8,4.3 c-0.7-1,0.6-1.2,0.6-1.8l0,0V291c-0.7-1.2,0-1.6,0.8-2.1c0.1-0.3,0.1-0.6,0-0.8c-0.8-1.6,0-2.5,0.7-3.7 C180.2,283.7,180.8,283.2,181.5,282.8z"/><path class="st5" d="M358.5,209.8c-0.7-1.7-1.3-3.4-1.8-5.1c-0.9-3.2-1.5-6.5-1.7-9.9c0-2.1,2-4.1,2.9-6.2c0.4-1,0.7-2.1,1-3.1 c7.9,1.5,15,5.9,19.9,12.2c2.2,2.5,4.6,4.9,6.8,7.5c0.1,0.7-0.1,1.3-0.5,1.9C376.2,208.3,367.3,209.2,358.5,209.8z"/><path class="st5" d="M359.7,27.9c-1.6,1.8-3.4,3.6-5.2,5.2c-4.1,3.1-8.5,6-12.8,9c0,0-1.5-0.7-1.6-1c0-5.2-0.4-10.3-0.7-15.3 c0-0.4-0.7-0.7-1.1-1l19.2-19c0.9-0.6,1.9-1.1,2.9-1.4c0.3,1,0.5,2.1,0.5,3.2C360.9,14.3,360.2,21.1,359.7,27.9z"/><path class="st5" d="M356.6,60.9l23.1-17.9c0.6-0.3,1.3-0.5,2-0.5c0.1,0.7,0.1,1.3,0,2c-1.6,9-3.3,18-5,27.2c-0.4,1.5-1,2.9-1.7,4.2 c-2.5-0.1-4.9-0.4-7.3-0.7c-2.1-0.7-3.9-2.2-4.9-4.2C360.9,67.5,358.7,64.1,356.6,60.9z"/><path class="st5" d="M308.5,35.1c-2.2,1.9-4.3,3.9-6.8,5.8c-0.5,0.5-1.2,1-1.8,1.4c0-0.8,0-1.6,0-2.4v-1.6c-0.6,0-1.6,0-2,0.4 c-3.9,4.4-4.4,0-5.6-2.2c-1.2-2.2-1.7-3.7-2.5-5.5l12.3-26.8c0,0,0.8,0,1.2-0.3C305,14.3,306.6,24.6,308.5,35.1z"/><path class="st5" d="M240.9,44.8c0.4-6.8,5.9-12.1,12.6-12.3c6.2,0,10.7,5.6,10.8,14.1c-0.5,5.6-4.8,10-10.3,10.7 C247.3,56.7,241.9,51.5,240.9,44.8z"/><path class="st3" d="M99.5,118.4c0-9.3,0-18.6,0-27.9c-0.2-3,1.7-5.8,4.6-6.8c3.4-1.6,6.8-3.3,10.1-4.8c0.8-0.1,1.5,0.3,2,1 c0.8,5.3,1.3,10.7,1.4,16c0,1.6-3.3,3.2-5.2,4.6c-3.5,2.4-6.8,4.7-10.6,7.3c0,1,0.3,2,0.8,2.8c1.7,2.4,3.7,4.5,5.4,6.8 c0.3,0.6,0.3,1.4,0,2c-1.6,1.3-3.3,2.2-4.9,3.5s-2.7,0.7-2.5-1.5c0.1-1,0.1-1.9,0-2.9L99.5,118.4z"/><path class="st1" d="M221.3,275.7L221.3,275.7c1.7-2,3.4-3.9,5.2-5.8s2.9-3.1,4.5-4.6c0.4-0.2,0.9-0.2,1.3,0 c0.9,0.8,1.7,1.6,2.4,2.5c0.6,0.8,1.6,1.6,1.7,2.5c1,5.7,1.8,11.4,2.6,17.2c0,0,0,0.5,0,0.7c-0.6-0.2-1.1-0.5-1.6-0.9 c-3-4.8-5.8-9.6-8.7-14.5L228,272c0,0.3,0,0.6,0,1c1.6,2.7,2.9,5.5,3.8,8.5c0.4,3.8,0.4,7.7,0,11.5c0,0.4,0,0.7,0,1.1 c0,1.5,0,3-0.3,4.5c-1.7-1.5-3.2-3.2-4.4-5.2c-1.6-3.8-2.5-8-3.8-12c0-0.4-0.7-0.6-1.2-0.9c0,0.3,0,0.7,0,1 c0.4,5.6,0.8,11.2,1.2,16.8c-0.1,0.5-0.5,0.9-0.9,1.2c-0.6,0-1.4-0.5-1.6-1c-1.3-4.4-2.4-8.8-3.5-13.6c-0.4-0.9-0.6-1.8-0.5-2.8 c0.4-1.1,1-2.2,1.8-3.1c0.3-0.5,0.6-0.9,1-1.3l0,0C221.2,278.1,220.9,276.6,221.3,275.7z"/><path class="st1" d="M197.8,271.1c-2.6,2.1-5.3,4-8.2,5.8c-0.3,0-1.8-1.4-2.8-2.2c6.8-5.8,13.9-11.6,20.9-17.3 c4.5-5.1,8.6-10.7,12.1-16.6h2.3l0,0v-1.2c0.5-0.8,1.5-0.8,2.1-1.7c0,0.4,0.3,1.4,0.7,1.6c1.6,0.8,3.4,1.4,5.1,2.1l0,0l-0.5,0.6 h-2.2c0,0.4-0.8,1.7,3.2,1.3c2.1,1.6,3.9,3.5,5.4,5.6c0.6,0.4,1.6,0.8,1.7,1.3c0,1.1-0.2,2.1-0.5,3.1c0,0.5,0,1,0,1.6 c-1.4,0-2.3,1.5-3.6,1.9c-1.3,0.4-0.5,1.2-0.8,1.7l-2,2.6c-0.5-2.4-1.3-3.8-3.8-1.7c-0.7,0.2-1.4,0.2-2,0c-4.2,0-5.4,2.9-6.8,6 c-1.4,3.1-3.4,2.2-5,2.9l0,0c-0.3-1.3-0.5-2.6-0.5-3.9c-0.1-0.7-0.1-1.4,0-2.1c-0.6,0.6-1.2,1.2-1.8,1.8c-1.8,3.2-3.9,6.1-6.3,8.8 c-2.1,1.5-4.4,2.6-6.8,3.3c0,0-0.5-0.4-0.4-0.6c0.1-0.2,0.5-2.4,0.8-3.6c0.1-0.3,0.4-0.6,0.7-0.8h-1L197.8,271.1z"/><path class="st1" d="M356.6,60.9c1.3,2.1,2.6,4.1,4.1,6c2,2.8,4.3,5.4,6.8,7.7c0.8,0.7,2.9,0,4.5,0c1,0.3,2,0.7,2.9,1.2 c-1.6,4.2-3,8.4-4.7,12.5c-0.6,0.6-1.5,0.8-2.3,0.6c-7.4-2.9-14.9-5.7-22-9.2c-0.7,0,0-5.6,1.2-7.7C350,68,353.2,64.3,356.6,60.9z" /><path class="st1" d="M153,61.9c-0.8,6.2-1.6,12.5-2.5,18.8c0,0.6-1.1,1.1-1.7,1.4l-16.2,7c0,0-0.5,0-0.8,0 c-0.9-8.6,0.3-17.2,3.6-25.1l0,0c3.2-0.6,15.4-5.2,16.6-2.8C152.4,61.4,152.7,61.6,153,61.9z"/><path class="st5" d="M396.9,75.5c-2.4,9.4-4.4,17.9-6.8,26.2c0,0-0.5,0-0.6,0c-5.8-3.7-11.7-7.2-17.4-11.1c0-1.1,0.4-2.2,1.1-3 c6.5-4.6,13-9.1,19.6-13.6C393.5,73.5,394.9,74.5,396.9,75.5z"/><path class="st5" d="M335.7,231.8c4.4-1.1,8.7-2.3,13-3.2c1.2,0,2.5,0.4,3.7,0.5c1.2,0.1,1-1,0.8-1.2c-2.4-4.5,0.9-5.4,3.9-6.8 c3.7,5.1,7.3,10.3,10.9,15.4c1.4,1.7,2.9,3.1,4.3,4.8c0.2,0.5,0.4,1,0.5,1.5c-0.3,0.2-0.7,0.3-1,0.3c-6-0.4-12-1.3-17.8-2.7 C347.8,237.9,341.7,235,335.7,231.8z"/><path class="st3" d="M129.3,284.2c-1.2-2.5-2.5-4.6-3.5-6.8c-2.5-6.3-4.8-12.7-7.1-19.2c-0.2-0.6-0.2-1.1,0-1.7 c0.5-0.2,1.1-0.2,1.6,0c4.8,0.8,9.6,1.9,14.3,3.5c1.8,0.7,2.4,4.1,3.5,6.4c1.5,3,2.9,6,4.1,9.2c0,0.7-1.4,2.2-2.4,2.9 C136.7,280.2,133.4,281.9,129.3,284.2z"/><path class="st3" d="M276,316.2c-1.6-3.7-3.4-7.4-4.8-11.2c0-0.7,1.4-2,2.1-3.1c0.5,0.6,1,1.6,1.6,1.6c0.5,0,2.2-0.5,3.5-0.6 c0.5-0.1,1-0.1,1.5,0l-0.7,1.3c-0.3,0.4-0.6,0.8-0.8,1.2l0,0c0.4,0,1.2-0.8,1.5-0.7c0.8,0.2,1.5,0.5,2.2,1c0.5,0.5,1,1,1.4,1.6 c0.2-0.7,0.2-1.4,0-2.1c-0.6-2.2-1.4-4.4-1.9-6.8c0-0.4,0-0.9,0-1.3l1.2,0.9l1.8,1.2v-3.8l1.5,1.3l6.8,5.4h0.7 c0-0.8-0.4-1.5-0.5-2.3c-0.1-0.8,0-1.6,0-2.4l2.8,1.8v4.3c0,0.5,0,2.4,0.6,2.7l-0.5,5.2L293,310c-0.3-0.1-0.7-0.1-1,0 c-0.1,0.4-0.1,0.7,0,1.1c0,1.2,0,2.3,0.3,3.5c0.3,1.2-1.3,1.4-2.4,1c-1.2-1.5-2.2-3.1-3.3-4.6c-0.3-0.1-0.7-0.1-1,0 c-0.3,0.1-0.6,0.3-0.7,0.7v12.5c-0.8,0.8-2.1,0.8-2.9,0c-0.7-1.1-2.1-1.8-2.7-3.1l0,0c0,0,0-0.5,0-0.8L276,316.2z"/><path class="st5" d="M153,61.9c-5.4-4.4-6.8,3.5-10.3,3.4c-2.4-0.4-4.8-0.9-7.1-1.7c4.9-9.4,9.7-18.8,14.7-28.1 c1.1-1.6,2.3-3.1,3.7-4.4h1.6C154.8,41.5,153.9,51.8,153,61.9z"/><path class="st3" d="M257.8,165.7c0.9,1.4,1.6,2.8,2.1,4.3c0.2,1.9,0.2,3.8,0,5.7c-1-0.5-3.1,5.3-2.5,5.6c0.5,0.3,0.8,8,0.8,8.6 c-0.3,2.3-0.8,4.6-1.5,6.8c-3.5-0.5-6.8-1.1-10.2-1.8c0,0-0.4-1.6-0.6-2.3s1.7,0,1.6-0.6c-0.1-0.6,0-13.9,0-14.1 c0.3-1.3,0.2-2.6-0.4-3.7c0,0-0.7-12-1.3-11.8c0-4.6,0-14.9,0-15.1s0-1.1,1-1c0.6,0,1.1,0.4,1.2,1l0,0c1.1,5.1,1.7,10.2,1.9,15.4 c0,0.6-0.5,1.5,0,1.6c0.8,0.5,1.7,1,2.6,1.3c0.4,0.5,1.3,0,1.4,0.5c0.1,0.5-0.8,0.6-1.3,0.8c-0.9,0.4-1.3,1.5-1,2.4l0,0 c0,0.5,2.4,2.9,2.9,3.6c0.5,0.7,0.5,0.4,0.8,0c0.1-0.4,0.1-0.9,0-1.4c0.4-2,1-4,1.9-5.8C257.2,165.7,257.6,165.8,257.8,165.7z"/><path class="st3" d="M200.4,62.8c0,0.6-1.5,1.8-2.6,2.2c-6.8,2-14.3,3.9-21.5,5.7c0,0-0.9-0.6-0.9-0.9c0.5-2,0.8-4.1,0.8-6.1 c-1.3-6.8,3.5-8.2,8.4-9.5c3.4-1,6.8-1.8,10.2-2.4C196.3,51.6,200.2,60,200.4,62.8z"/><path class="st2" d="M277.1,179.4c-0.2,7.8-5.6,14.5-13.3,16.2c0,0-1-0.5-1-0.8c0-9.2,0-18.5,0-27.9c0.1-0.3,0.3-0.5,0.5-0.5 C270.5,167,276.1,172.4,277.1,179.4z"/><path class="st1" d="M182.1,171.1c-5.4-5.2-10.9-10.5-16.4-15.9c-1.6-1.4-3-3-4.3-4.7c0,0,1.2-1.9,1.9-2.8c0.7-0.9,2.3-1.6,2.7-2.7 c0.6-1.5,0.6-3.1,0-4.6c-2.4-3.1,3.9-8.1,8-8.7c0,0,6.8,11.6,8.1,13.6c1,1.5,2.2,2.9,3.5,4.1c5.7,5,7.9,12,13.6,17 c-0.5,0.7,0,10.1-0.3,11c-0.8,0.7-2,0.9-3,0.5C194.3,176.9,182.4,171.3,182.1,171.1z"/><path class="st1" d="M174.1,131.6l7.8-3.2c0.3-0.1,0.6-0.1,0.9,0c0.1,0.6,0.1,1.2,0,1.8c0,0.5,0,1,0,1.4c0,0.5,0.5,0.3,0.6,0 c0.3-0.3,0.5-0.7,0.7-1.1l0.9-0.7c0,0.3,0.7,0.7,0.7,1.1c0,2.4,0,4.7,0,6.8c0,0.8,0.9,1.4,1.4,2.2c0.3-0.4,0.6-0.7,0.9-1 c0.6-0.3,1.2-0.6,1.8-0.7c0.7,0.9,1.1,2,1.4,3.1c0,3.9,0,7.8,0,11.7c0.1,0.5,0.2,0.9,0.4,1.4c0.4-0.3,0.7-0.7,0.9-1.1l2.4-4 c0.4,1.2,0.9,2.3,1.2,3.5c0.7,2.3,1.5,4.8,2.2,7.2c0.1,0.6,0.1,1.1,0,1.7c-1.2-0.9-11.2,3.1-16.4-2.1c-3.2-8.8-5.7-17.9-7.4-27.2 C174.3,132.2,174.2,131.9,174.1,131.6z"/><path class="st3" d="M261.5,199.7c0.6,0.7,1,1.4,1.4,2.2c0.3,0.7,0.5,1.5,0.7,2.3c-1.9,0.6-3.8,1.1-5.7,1.5c-2.2,0-4.4-2.4-6.8,1 c-1,1.6-4.6,1.4-6.8,2c-0.5,0-0.7,0.7-1.1,1.2c-0.3,0.5,0,0.6,0,1h-1.4c-1-0.3-1-1.2-1.2-2s0-0.8-0.4-0.9c-0.4-0.1-0.3,0.5-0.6,0.7 c-0.3,0.3,0,0.3-0.4,0c-0.4-0.3,0,0,0,0s-2.7-1.5-2.8-2.3c0-6-1.8-1-2.7-0.4l-1.3,0.7c1.1-1.6,2.2-3.3,3.3-5l2.2-3.6 c-1.7,0.1-3.3,0.2-5,0.5c-2.2,0.5-4.3,1.5-6.8,2.2l0,0l0,0c2.8-2.9,5.4-5.8,8.3-8.4c0.5-0.4,2.4,1,3.7,1.3 C246,196.1,253.7,197.8,261.5,199.7z"/><path class="st1" d="M289.9,198.8c0.7-0.7,1.6-1.3,2.5-1.8c1.3-0.4,2.6-0.6,3.9-0.4c0.5,0,0.8,1.4,1.3,2.2l-3.6,1.2H293 c0.5,0.5,1.5,1.1,1.7,1.7c0.4,2,0.7,4.1,0.9,6.1l0,0c0.2,0.1,0.5,0.1,0.7,0c6.3,1,11.8,4.8,14.9,10.4c0,0-0.3,1-0.7,1.1 c-5.9,1.4-12.2,0.4-17.4-2.7c-0.9,0-0.7-3.5-1.2-5.3c-0.3-0.7-0.7-1.4-1.2-2h-0.4c0,0.6,0,1.2,0.4,1.8c0.4,0.7,0.3,2.9,0.5,4.2 c-1.5-0.1-2.9-0.5-4.2-1.2c-1.4-1.1-2.4-2.6-3.1-4.2c-0.5-1.3-0.9-2.7-1-4.1l-0.7-2.5c1.4,0,3.2,0,4.3,0.8s1.9,3.3,3.3,4.1 s3.5,0,5.2,0c-0.2-0.1-0.4-0.2-0.5-0.4c-2.1-1.1-4.1-2.3-6-3.5c0,0,0.5-1.6,1-2.4s1.2-0.5,1.2-0.7 C290.4,200.3,290.2,199.5,289.9,198.8L289.9,198.8z"/><path class="st3" d="M194,229.5l-1.3-1.4c-0.4-0.5-0.7-1-1-1.5c0.6-0.5,1.4-0.9,2-1.4c1.7-1.3,3.3-2.7,5-4.1c-0.9-0.5-1.6-1-2.4-1.7 c-3.9-3.6-2.7-5.6,2.2-6.8c1.3,0,2.2-2.1,3.5-2.4c2.7-0.7,5.4-0.8,8.1-1.3c0.8-0.2,1.6-0.5,2.4-0.9v0.7c0.5,0,1,0.3,1.4,0 c3.8-1.8,7.5-3.7,11.3-5.5c0.4,0,0.5,0,0.4,0.3c-0.2,0.4-0.6,0.7-1,0.9c-0.7,0.5-1.6,0.8-1.9,1.8s-1.4,1.6-2.2,2.2 c-1.2,1.1-2.6,2-4,2.8c-1.2,0.5-4.6,2.1-5.3,2.5s-0.7,0.8-0.9,1.2v0.3c-1.2,1.2-1.4,0-2-0.8c-0.6-0.8,0,0,0,0s0,0,0,0.4l0,0 c-0.1,0.6-0.6,1.2-1.2,1.4c0.5,0.5,1.2,0,1.7,0.3s0.5,0.4,0.5,0.7c0.4,1.1,0.7,2.2,0.8,3.3c0,0.5,0,0.5,0.6,0.6 c0.6,0.1,1.2,0.3,1.8,0.6c0,0,0,0,0,0.5c-0.2,0.1-0.4,0.1-0.5,0c-2.5,0-5.2,0-7.7,0c0,0-1,1.3-0.8,1.6c1.5,3.1,3.1,6.2,4.6,9.2 c-0.6,0.7-1,0-1.3,0s-2.7-3.5-2.9-3.3c-0.3,0.1,0,0,0,0.6v0.6c0.1,0.6-0.2,1.1-0.7,1.3c-0.4,0-0.9,0-1.2-0.4l0,0 c-0.3-0.5-0.8-1-1.4-1.3l0,0c0.9,0.3,0.5,1.6,1.4,1.9s1.4,1.4,2,2.2c0.3,0.3,0.3,0.8,0,1.1l0,0l0,0L194,229.5z"/><path class="st2" d="M378.5,223.9c-5.6,0.3-11.1,0.3-16.7,0c-1.3,0-2.3-2.5-3.5-3.9l-5.7-6.8l-0.4-0.9h1c9.5,2,19.4,1.5,28.7-1.3 c0,0,1,1,0.9,1.4c-0.6,3.1-1.3,6.1-2.2,9.1C380,222.5,379.3,223.3,378.5,223.9z"/><path class="st1" d="M179.2,268.4L170,263c0,0,0-0.5,0-0.7l33.2-16.6c0.6,0.8,0,1.8,0.3,2.7c0.3,0.9,0.5,1,1.2,1 c0.3-0.1,0.6-0.1,0.8,0c1,0,1.3,1,0.5,1.7c-0.5,0.5-0.8,1.1-0.8,1.8c0.1,0.8-0.5,1.6-1.3,1.6c0,0,0,0,0,0c-3.8,2.5-7.4,5.3-10.8,8.3 c-1.1,0.2-2.1,0.9-2.6,1.9c-1.1,1.1-2.5,1.9-3.9,2.4c-0.6,0.3-1,0-1.4-0.5c-0.6-0.6-1.6-0.6-2.2,0 C182.1,267.1,179.6,267.8,179.2,268.4z"/><path class="st3" d="M260,22.4l13.6,3.7c0.5,0,1.3,0.9,1.2,1.2c-0.2,0.6-0.7,1.1-1.2,1.4c-3.6,1.7-6.8,3.4-10.8,4.8 c-1,0.4-2.5-0.7-3.8-0.8c-3.6-0.7-7.2-0.8-10.8-0.4c-3.4,1-7,0.1-9.5-2.3l-2.2-2c1-0.5,2-1,3.1-1.3L260,22.4z"/><path class="st1" d="M211.4,288.6c-0.4,5.4-0.5,10.8-1.3,16.2c0,1.6-2,3-3.1,4.5c-1-1.9-1.8-3.9-2.3-5.9c-0.7-5-1-10-1.4-14.9 c0-0.9,0.4-1.7,1-2.2c1-1.2,2.1-2.4,3.3-3.4c0,0,1.2,0,1.8,0c1.5-0.3,3-0.8,4.5-1.5c0.8-0.6,1.6-1.3,2.2-2v3c0.3,3.1,0.3,6.1,0,9.2 c-0.8,3.8-1.9,7.5-3.3,11.1c0,0-0.5,0-0.9,0.5c0-0.3,0-0.7,0-1"/><path class="st3" d="M178.5,268c2-0.8,4.8-2.9,5.6-2.3c4.1,2.9,5.3-1,7.3-2.7c3.7-2.9,7.3-5.9,10.9-8.9c1.2-1.1,2.4-2.3,3.6-3.5 c0,0-0.3-0.8-0.4-0.8c-4.1,0.5-2.2-2.3-2.4-4c1.1-1.7,2-3.5,3.3-5.2c0,0,1.4,0.6,2.1,0.7c0.6,0.1,1.3,0.1,1.9,0 c0.1,0.2,0.1,0.5,0,0.7c-0.1,0.5,0.2,1.1,0.8,1.2c0,0,0,0,0,0c0.6,0.2,0.9,0.7,0.9,1.3l0,0c0,0.2,0,0.3,0,0.5c0,0.7,0,1.7,0.5,2 s0.8-0.7,1.3-1.1c0.7-0.8,1.8-1.2,2.9-1c-3.5,3.9-6.8,8.1-10.7,11.6c-6,5.4-12.4,10.5-18.9,15.3c-1,0.7-3.9-1.2-5.9-2 C180.4,269.2,179.5,268.7,178.5,268z"/><path class="st5" d="M310.4,244.7l1.6,0.5c1.3,1.1,2.8,2.1,4.3,3.1c6.8,2.9,13.6,5.7,20.4,8.5c2.9,1.2,6,2,9,3.1 c2.9,2.1,6,4.2,8.8,6.4c0.1,0.3,0.1,0.6,0,0.8c-0.4,0.3-0.8,0.4-1.3,0.4c-11-0.5-21.7-4.2-30.6-10.6 C318.3,253.1,314.2,249,310.4,244.7z"/><path class="st2" d="M257,353.1c0.7-7.6,1.6-16.6,2.5-25.8c0.4-1.4,1.1-2.8,2-3.9c0.8,1.3,2.2,2.5,2.4,3.9c2.2,13.1,0.4,26.5-5,38.6 c-0.3,0.6-0.8,1.2-1.3,1.6c-0.1-0.6-0.2-1.3-0.3-1.9C257.5,362.1,257.3,358.4,257,353.1z"/><path class="st4" d="M281,41.5c-3-0.9-6-1.6-9-2.2c-1.4,0-2.9,1.3-4.3,1.2c-1.4-0.3-2.7-1-3.7-2c0-0.3,0.7-2.5,1.5-3.1 c4.6-2.8,9.2-5.4,13.6-7.8c2.6-1.2,5.4-2.2,8.2-3.1c0,0,1.3,0.8,1.2,1c-1.2,4.6-2.4,9.2-4,13.6C284.1,40.4,282.2,40.8,281,41.5z"/><path class="st1" d="M173.4,63.7c0.6,6.1-3.6,11.6-9.6,12.6c-3.3,1.2-6.5,2.6-9.6,4.2c-0.6,0.1-1.2,0.1-1.8,0 c-0.1-0.6-0.1-1.3,0-1.9c2.3-5.6,4.6-11.3,6.8-17c0.7,0,4-2.4,5.3-1.6c1.3,0.8,0.7,1,1,1.2C165.9,61.3,172.6,63.1,173.4,63.7z"/><path class="st3" d="M282.4,184.2l-3-4.9l-4.4-8.7l0,0l0,0c0,0-0.5-0.7-0.9-0.7l-2.8-3.4c-0.4-0.5,2.3-4.5,3.3-6.3 c0,0,0-0.4,0.4-0.6l0,0c0.5-0.4,1.2-0.4,1.7,0c1,1.3,1.9,2.7,2.7,4.1l0,0c0,0,0,0.7,0,1s3.3,1.2,5.2,0c0.3,0,1.6,0.4,1.6,0.5 c-0.7,2.7-1.6,5.3-2.3,7.9v0.9c0.2,0.1,0.5,0.1,0.7,0c2.2-0.5,4.3-1.1,6.8-1.8c0,0,2.2,0,2.1,0c-1.2,1-1.8,2.6-1.5,4.1 c0,2.1-1,2.3-2.9,3.3l0,0c0,0,0,0.4,0,0.7l0,0c0.5,0,0.8,0.5,0.4,1.2c-0.6,1-1.3,1.9-2.1,2.7c-0.4,0.6-1.3,0.8-1.9,0.3c0,0,0,0,0,0 c-0.7-0.6-1.6-0.7-2.4-0.5C282.9,184.2,282.6,184.2,282.4,184.2z"/><path class="st3" d="M182.1,171.1l9.1,4.4c1.6,0.9,3.2,1.6,5,2.2c0.7,0,1.8-0.4,2.7-0.7c-0.4-1-0.8-1.9-1.3-2.8 c-0.7-1-2.7-2-2.7-2.7c0.3-2.3,0-6.1,4.3-5l10.7,9.7c0.8,0.8,1.5,1.6,2.1,2.5c-1.5,0.7-3,1.2-4.6,1.6c-6.1,0.7-12.4,1.4-18.6,1.6 c-1.2,0-2.5-2.7-3.6-4.3c-1.1-1.6-2-3.7-3-5.7C182.3,171.6,182.2,171.3,182.1,171.1z"/><path class="st5" d="M119.2,87.7c-1.4-9.2-0.1-18.7,3.7-27.2c0.3-0.7,1.2-1.1,1.7-1.6c0.5,0.6,0.9,1.2,1.3,1.8 c1.8,4.4,3.5,8.9,5.1,13.6c0.2,1.1,0.2,2.3,0,3.4c-0.5,1.2-9.6,9.5-10.3,10.3c-0.3,0.3-0.8,0.3-1.1,0L119.2,87.7z"/><path class="st5" d="M279.4,64.1l-15-1.7c-0.3-0.2-0.5-0.5-0.5-0.8c2.3-6.3,4.8-12.6,6.8-18.8c1.1,0.4,2.9,0.7,3.1,1.4 c2.2,5.9,4.2,12,6,18.1C280.1,62.9,279.4,63.9,279.4,64.1z"/><path class="st5" d="M147.4,273.3c-2.1-4.1-3.6-7.2-5.1-10.3c0,0,0.4-1.2,0.7-1.2c0.6,0,1.2,0.2,1.7,0.4c4.6,2.2,10.7,2,13.3,7.7 c0.5,0.8,0.6,1.8,0.3,2.7c-0.4,0.6-1.6,0.9-2.5,1.3l-1.2,0.8l-8.9,3.3c-0.6,0.2-1.2,0.5-1.8,1c0.4,0.5,0.7,1.1,1,1.7 c0.1,0.8,0,1.7-0.5,2.4c-1.4,1.4-2.9,2.7-4.4,3.9c-0.6,0.5-2,1.3-2.1,1.2c-1.4-1.4-2.4-3.1-3.7-4.7c0.8-0.2,1.6-0.5,2.3-1 C139.8,280,143.1,277,147.4,273.3z"/><path class="st5" d="M256.5,120.5c1,4.7,2.1,9.3,2.8,14c0,0.9-0.9,2.2-1.7,2.9c-0.8,0.7-1.5-0.4-2.3-0.5c-0.8-0.1-1.3-0.5-1.8-0.4 c-7.5,2.8-7.7,2.8-8-5c-0.2-4.3-0.2-8.5,0-12.8c0-0.5,1.4-0.8,2.1-1.4C247.9,118.4,255.4,120.4,256.5,120.5z"/><path class="st5" d="M231.8,220.5l-1.6,1.4l-4.1,3.4l-0.4,0.4c0.4,0.2,0.8,0.4,1.2,0.5h1.5c-0.5,0-1.2,0-1.4,0 c-0.7,0.8-1.4,1.7-2,2.6l-0.8,1.1l-0.7-0.5h-1.1v0.7v0.5c-0.4,0.1-0.8,0.1-1.2,0c-2.7-0.8-5.4-1.3-8.2-1.7c-1.5,0-2.9,1.2-4.5,1.7 l-1.6-3.7l-1.5-2.7c1.8,0,3.8,0,5.6,0c3.8,0,8.2,0,12,0c-0.2-1.6-0.6-3.2-1-4.8c0-0.4-0.5-0.7-0.9-1c-4.7-4.6,1.9-4.1,2.9-5.8 c1.7-2,3.7-3.6,6-4.8h0.7c0.5,1.1,0.8,2.3,0.8,3.5c0,2.9,0,5.7,0,8.6V220.5z"/><path class="st5" d="M173.4,63.7c-1,0-2,1-2.9,0.8c-0.9-0.1-4.6,3.5-4.1-1.7c0-0.7-1.8-1.8-2.9-2.3c-1.1-0.5-1.5,0.9-2.4,1.2 c-0.6,0.1-1.3,0.1-1.9,0c3.2-5.9,6.8-11.8,9.9-17.7c0.6-1.1,1.3-2.1,2.1-3c0,0,1.9,0.5,2,0.9C173.4,49.1,173.4,56.4,173.4,63.7z"/><path class="st1" d="M263.9,157c1.8-4.7,3.1-8,4.3-11.3c0-0.5,0.7-0.8,1.1-1.3c0.4-0.5,1,0.9,1.2,1.5c0.5,2.2,0.9,4.3,1.4,6.8 c0,1,0,1.9,0.4,2.9c0.3-1.1,0.7-2.1,1.2-3.1c2.7-3.7,5.6-7.3,8.4-10.9c0.6,1.1,1,2.4,1.1,3.7c-0.8,4-2,8-3.2,11.9 c0,0.3-1.2,0.3-1.7,0.4c-0.5,0.1-2.8,0-3.5,0.7c-1.1,1.4-2.2,2.9-3.2,4.5c0,0-1.7-0.7-2.4-1.3C268.2,160.8,265.8,158.7,263.9,157z" /><path class="st1" d="M304.8,209.8c-2.2-1.9-4.8-4.3-7.5-6.8c-2.7-2.4-0.3-2.9,1.3-3.6c0.3-0.3,0.5-0.7,0.5-1.1 c-0.3-0.6-0.7-1.2-1.2-1.7h2.5c2.6-0.5,5.3-0.5,7.9,0c3.3,1.6,6.3,3.5,9.2,5.7c-1.5,1.7-3.2,3.3-5,4.8 C310,208.3,307.4,209.2,304.8,209.8z"/><path class="st5" d="M211.4,222.9l-1.8-0.7c0,0-0.8-0.5-0.9-0.7c-0.1-0.2,0-2.3,0-3.3l0,0l-1.7-0.5h-1c0-0.4,0.1-0.8,0.3-1.1 c0.5-0.5,1-1,1.6-1.6l0,0v-0.5l0,0l2.4,1.1l0,0c0-4,3.4-3.3,6-4.4c3.2-2,6.1-4.5,8.7-7.3l0,0l9.6-3.3c0,0,0,0,0.5,0 c-0.1,0.2-0.2,0.4-0.3,0.5c-5.3,4.6-10.6,9.4-16.2,13.6c-2.4,1.8-2.6,1.4,1.7,5.9c0.5,0.7,0.9,1.5,1.3,2.3c-1,0.2-1.9,0.4-2.9,0.5 L211.4,222.9z"/><path class="st1" d="M277.5,220c1.6,3.2,2.8,6.5,3.6,10c0.4,2.4-0.8,3.1-1.5,7.3c-1.5-0.7-3.3-0.8-4.2-2c-2.3-2.8-4.2-5.8-5.8-9 c-1-2.3-1.7-4.8-2.1-7.3c-0.5-2.2-0.6-4.4,2.9-4.3c0,0,0.9-1.8,1.1-2.7c0.1-0.8,0.1-1.5,0-2.3c0.5,0,1.1,0,1.4,0.6 c0.3,0.6,0.6,1.3,0.7,2c0.1,0.4,0.3,0.7,0.5,1l0,0"/><path class="st3" d="M299.8,294.8c-2.7-3-5.4-5.9-8-8.9l-8.4-9.4c-0.5-3.2-1.2-6.3-1.8-9.4c0-1.4-0.7-2.5-1.1-3.9 c-0.3-1.4,0-1.7-0.5-2.6c0.5,0.7,1.2,1.5,1.7,2.1C291,271.3,297.2,282.5,299.8,294.8z"/><path class="st1" d="M249.9,163c-0.6-4.5-1.3-8.8-2-13.6c-0.2-1-0.5-2-0.9-3l-1.2,0.8c0-1.6-0.5-3.9,0-4.8c4.6-4.7,10-2.4,14.9-0.6 c0.8,0.3,0.9,4.1,0,6.1c-1,3.1-2.7,4.3-6,1.7s-3.3,1.6-3.5,3.1s0.9,4.6,0.7,6.8C252.5,161,250.8,162.1,249.9,163z"/><path class="st1" d="M183.1,294.4c1.7-2.5,3.6-5,5.5-7.3c0.5-0.5,2.4,0,3.7,0.5s4-3.5,2.9,1.4c-0.4,2,0.3,4.2,0,6.2 c-0.7,4.3-1.7,8.6-2.6,12.8c0,0.2,0,0.5,0,0.7c-0.9-1-1.7-2.1-2.2-3.3c-0.7-3-0.9-6.1-1.4-9.2c0.1-0.2,0.1-0.3,0-0.5 c0,0,0,0-0.4,0.5c-0.8,1.4-1.5,2.9-2.3,4.2c-0.8,1.4-1,1.7-1.5,2.5c0-1-0.5-2-0.6-3.1C184.1,299,183.5,297.5,183.1,294.4z"/><path class="st5" d="M299.3,257.5c3.5-3.3,4.8,1.2,6.8,2.3c5.2,3.3,10.1,7.4,15,11.2l5.8,7.6c0,0.4,0,0.8,0,1.2c-0.4,0-0.9,0-1.2,0 c-6.8-4.7-13.6-9.2-19.9-14.3C303.4,263.1,301.2,260.4,299.3,257.5z"/><path class="st5" d="M278.8,255c0.5-0.7,1.1-1.6,1.7-2.3l1.5-1.5c0.7,0.8,1.2,1.7,1.9,2.5c4.8,5.5,9.8,11,14.7,16.4 c0.5,0.5,1.6,0.6,2.4,0.9c0.8,0.3,0.6,2.7,1,3.9c-1.9-0.2-3.7-0.6-5.4-1.2c-7.5-4-13.7-10.2-17.7-17.7 C278.8,255.7,278.7,255.3,278.8,255z"/><path class="st1" d="M238.6,259c0.7-0.7,1.5-1.8,2.3-2c1,0,1.9,0.3,2.7,0.8c0,0.3-1,1.2-0.9,1.3c2.9,6.4,3.9,13.5,2.7,20.4 c-0.1,0.7-0.4,1.4-0.7,2.1c-0.5-0.3-1.2-0.5-1.6-1c-1.7-3.2-3.3-6.4-5.1-9.6c-0.9-1.6-1.9-3-2.9-4.5v-0.7c0-2.1,0-2.5,2.4-2.9 L238.6,259z"/><path class="st1" d="M292.3,149.5l-10.4,16c-0.5-0.5-1.4-1.1-1.3-1.4c0.9-4.6,2-9.4,3-13.6c0.2-1.4,0.8-2.8,1.7-3.9 c1.4-1,2.9-1.8,4.6-2.4C290.5,145.3,291.1,146.7,292.3,149.5z"/><path class="st1" d="M198.4,284.2c0.7,0.4,2.1,0.7,2.2,1.4c0.8,3.2,1.4,6.5,1.8,9.8c0.4,3.9,0.4,8,0.5,12c0,0.6-0.5,1.2-0.7,1.7 c-0.3-0.3-0.6-0.6-0.8-0.9c-4.5-5.8-6.2-13.2-4.8-20.4c0.3-1.1,0.6-2.1,1.1-3.1l0,0c0,0,0.4,0,0.5,0l0,0l0,0L198.4,284.2z"/><path class="st1" d="M289,219.9c-1.1-0.7-2.1-1.4-3-2.3c-0.4-0.4,0-1.3-0.5-2c-0.5-0.7,1.1-0.4,1.6,0c3.7,1,7.4,2.3,10.9,3.8 c1.5,0.7,2.3,2.8,3.5,4.3c0.5,0.5,0.9,1.1,1.2,1.7c0.4,1.3,0.6,2.7,1,4c-2.5,0-5.6,0-7.3-1c-2.6-2.4-4.9-5.1-6.8-8.2H289L289,219.9z "/><path class="st1" d="M119.2,87.7l2.2-1.6l9.4-8.7c0.1,3.7,0,7.4-0.3,11.1c0,1.4-1.8,2.7-3.1,3.8c-1.4,0.9-2.9,1.7-4.3,2.4 c-2.9,1.9-2.9,0-3.1-2.1C119.7,90.4,119.5,89.1,119.2,87.7z"/><path class="st1" d="M304.6,153.9c0.6,2.9,1,3.7,0.8,3.9c-3.9,4.1-7.7,8.4-11.9,12.2c-1.4,1.2-3.9,1.1-5.8,1.6 c0.7-1.9,0.8-4.2,2-5.4C294,162.2,298.7,158.7,304.6,153.9z"/><path class="st1" d="M282.2,184.2c1.8-0.5,4.3-0.7,6.1-1.4c0,0,0-1.2,0-1.9c2.7-0.5,5.4,0.4,7.3,2.4c0.3,0.4,0.7,0.7,1.1,1 c0.4,0,0.7,0.5,0.6,1.2l0,0c-1.6,0.5-3.1,1.2-4.7,1.8c-0.5,0-0.7,1.2-1,1.8c-0.2,0.7,0,1.9-0.5,1.9c-1.1,0.1-2.2,0.1-3.3,0l-1.7-0.7 c-0.1,0.2-0.1,0.5-0.1,0.7c0,0,0.7,0,0.8,0c1.4,1.6,2.7,3.2,4,4.8l-4.8,1.2l-1.2,0.5c-1,0.5-2.2,0.1-2.6-0.9c0,0,0,0,0,0 c-0.1-0.3-0.1-0.7,0-1c-0.1-0.3-0.1-0.6,0-0.9c0.9-1,0.9-2.6,0-3.6C281.9,188.9,281.9,186.5,282.2,184.2z"/><path class="st1" d="M361.7,163.4l11.6,10.7l0.5,0.7H373c-5.7,0-11.3,0-17-0.6c-0.2-0.6-0.2-1.3,0-2c1.8-2.7,3.9-5.2,5.8-7.9 c0,0,0-0.7,0-1l0,0L361.7,163.4z"/><path class="st5" d="M220.4,196.6c0-0.8,0-4,0-4.8l17.3-7.1h1.4c0,0.6-0.2,1.3-0.5,1.8c-4.3,4.6-8.8,9.2-13.6,13.6 C223.7,200.8,220.9,197.1,220.4,196.6z"/><path class="st5" d="M218.2,181.4l0.7-1.4l0,0c0,0,0.5,0,0.7,0l17.1-9.4c0.6-0.1,1.2-0.1,1.8,0c0,0.4,0.3,1,0,1.1L225,186.6 c-1.2,0-1.3-0.7-1-2c0.3-1.4,0.5-1.2,0-1.5c-0.5-0.3-1,0-1.6,0.4c-1,0.6-2.1,1.1-3.2,1.6c-1.3,0.5-2,0-1.8-1.4 C217.4,182.8,217.7,182,218.2,181.4z"/><path class="st5" d="M265.8,260c0.9,0,2-0.4,2.6,0c2,1.3,3.9,2.9,5.8,4.3c0.9-1.3,1.7-2.6,2.7-3.9c0.3-0.4,0.7-0.9,1.1-1.2 c1.2,5.2,2.4,10.4,3.6,15.6c0,0.3,0,0.7,0,1s-1.4,0-1.8-0.6L265.8,260z"/><path class="st3" d="M220.5,194.2l5.9-1.5l0,0c-0.5,1.1-1.1,2.3-1.6,3.5c-0.4,1.2-0.8,2.3-1.2,3.5l1.4,0.3l-9.8,5.7 c-3.3-2-4.3-4.9-1.8-7.7C215.6,196.5,218,195.1,220.5,194.2z"/><path class="st1" d="M244.5,259.4v-0.7c0.2-1.3,1.4-2.1,2.6-1.9c0.1,0,0.2,0,0.2,0l0,0l0,0c1.7,0.5,3.3,1.2,4.8,2.1 c0.7,0.5,1.1,1.3,1.3,2.1c0.1,0.4,0.1,0.9,0,1.4c-0.6,3.1-1.2,6.2-1.7,9.3c0,0-0.7,0.7-1,0.7s-0.5-0.5-0.7-0.9c-1.7-2.7-3.5-5.3-5-8 c-0.4-0.9-0.7-1.8-0.9-2.8C244.2,260.3,244.3,259.8,244.5,259.4z"/><path class="st1" d="M351.1,175.6c1.8,1.2,3.7,2.2,5.5,3.5c3.3,2.4,6.8,4.7,9.8,7.1l0.4,0.5h-0.5l-28.7-8.2l0,0l0,0l13.6-3.6h0.4 L351.1,175.6z"/><path class="st1" d="M363.6,149.6c-1.7,0.1-3.4,0.1-5,0c-4.8-0.8-9.5-1.8-14.1-2.9c-0.3-1.3-0.3-2.5,0-3.8c1.8-8.6,6-1.4,8.1-0.5 c3.7,2,7.3,4.4,10.5,7.1L363.6,149.6z"/><path class="st3" d="M218.2,181.4c0,1.1,0,2.2-0.3,3.3l3.7-1.2l3.2-1.2c0,0.9-0.4,1.8-0.6,2.7s0.5,1,0.7,1.5 c-2.8,1.3-5.6,2.6-8.3,4.1c-1.6,0.9-3.2,2-4.6,3.2c-1.6,1-3.4,1.7-5.2,2.1c0.5-1.1,1.2-2.2,1.9-3.3 C211.4,188.9,214.8,185.2,218.2,181.4z"/><path class="st5" d="M152.5,204.6l1.6-1.6c0.8-0.4,1.7-0.8,2.6-1.1c0.4,1.4,1.4,2.9,1.2,4.2c-1.3,5.6,3,6.4,6.8,8 c0.5,0,0.7,0.9,1.1,1.4c-0.8,0.3-1.5,0.6-2.3,0.8l-6.3,1.2c-0.3,0-0.7,0-1-0.7c-0.3-0.9-0.8-1.7-1.5-2.4c-0.7-0.5-0.7-1.7-0.8-2.7 c-0.1-1,0-0.7-0.5,0c-0.5,0.7-1.2,0-1.8,0c-0.7,0-1.1-1.2,0-2.1s2-1,1.8-2.7C152.9,206.2,152.7,205.4,152.5,204.6z"/><path class="st1" d="M291.2,231.8c-5.2-0.7-9.6-4.3-11.2-9.3c0-0.9-0.3-1.9-0.5-2.8c0.9,0.4,1.9,0.7,2.9,0.9c1-0.1,2-0.5,2.9-1 c0.2-0.1,0.5-0.2,0.7-0.4c1.3,1.1,2.5,2.4,3.4,3.8c1,2.2,1.8,4.5,2.4,6.8C291.8,230.5,291.6,231.2,291.2,231.8z"/><path class="st1" d="M145.5,168.6l-14.1,3c-0.5,0.1-1,0.1-1.4,0c0.3-0.4,0.5-0.8,0.9-1.2c3.5-3,7.1-6,10.9-8.9 c0.4-0.3,1.8,0,2.4,0.5c0.7,0.5,3.2,3,4.8,4.6c0.3,0.4,0.5,0.8,0.5,1.2L145.5,168.6L145.5,168.6z"/><path class="st1" d="M286.9,162.3c0-3.5,6.8-11,11.8-12c0.9-0.1,1.9-0.1,2.8,0c-0.3,0.9-0.7,1.8-1.2,2.7c-3.8,4.3-7.7,8.6-11.6,12.8 c-0.2,0.2-0.5,0.4-0.8,0.5L286.9,162.3z"/><path class="st1" d="M252.2,234.8c-0.4-3-0.6-4.1-0.7-5.3c-0.1-0.8-0.1-1.7,0-2.5c0.4,0.6,0.9,1.1,1.4,1.6c0,0,0.7,0.6,0.7,0.5 c0.1-0.1,0.5-0.5,0.8-0.8s1.9-2.2,2.4-2.1c0.5,0.1,3.1,1.6,3.1,2.4c0.1,2.7-0.2,5.3-0.9,7.9c-0.5,1.2-2.1,2-3.1,3L252.2,234.8z"/><path class="st5" d="M256.8,197.1c0-4.7,0.9-9.4,1.3-14.1c0-0.4-1-0.9-1.2-1.4c-0.4-1.2-0.6-2.5-0.8-3.8l0,0l2-4.6 c0-0.5,0-1,0.5-1.5c0.3,0.5,0.5,1.1,0.7,1.7c0.3,0.7,0.5,1.5,0.7,2.3c0,6.8,0.5,13.6,0.5,19.9C260.4,196.1,258.1,196.6,256.8,197.1z "/><path class="st1" d="M189.8,184.2c-3.8,2.2-7.7,4-11.8,5.6c-1,0.3-3-2.2-4.5-3.5c-0.4-0.2-0.9-0.3-1.4-0.4l11.5-10.1h0.5 c0.1,0.3,0.1,0.6,0,0.9c-1.3,3.5-2.7,6.8-4,10.5c-0.1,0.5-0.1,0.9,0,1.4c0.4,0,0.9-0.2,1.3-0.3L189.8,184.2z"/><path class="st1" d="M275.6,208.1L275.6,208.1c3.9,1.7,8.8,2.4,8.4,8.5c0,1.3-0.4,2.7-0.5,3.9c-1.4-0.3-2.7-0.8-3.9-1.5 C277.2,215.9,275.8,212.1,275.6,208.1z"/><path class="st1" d="M269.1,229.9c-0.6,2.8-1.2,5.8-1.8,8.7c0,0.4-0.9,0.5-1.3,0.8c-1.7-3.2-2.9-6.7-3.7-10.2c0-2,2-4.4,3.3-6.8 c0.4-0.1,0.8-0.1,1.2,0C267.4,225,268.2,227.3,269.1,229.9z"/><path class="st1" d="M170.1,285.3c-0.7,1-1.5,2-2.2,3c-0.6-1.7-1-3.4-1.2-5.2c0-3,0.9-5.7,4.5-5c2.6,0.7,5.1,1.8,7.4,3.3 c0,0,0,1.7-0.3,2.2c-1.1,1.3-2.3,2.5-3.6,3.6l-1.4-3.2C173.2,284.2,170.7,284.8,170.1,285.3z"/><path class="st5" d="M217.1,245l-3.5,2.7c0,0-0.3,0-0.4,0s-0.7-1.3-1.1-1.9c-0.3-0.6-1-3.3-1.6-5c-0.5-1.7,0-3.7-0.5-5.4h0.7l0,0 l1.5,2.2c0.2,0.2,0.5,0.4,0.8,0.4c0-0.4,0-0.7,0-1.1v-2.6c0.5,0.1,1.1,0.2,1.6,0.5c0,0,0,1.1,0.5,1.2c0.8,0.1,1.6,0.1,2.4,0h0.7 c0,0.3,0,0.5,0,0.8h-0.6h-1.3c0.3,0.4,0.7,0.7,0.8,1.2c0.5,1.8,0.9,3.6,1.3,5.5L217.1,245z"/><path class="st1" d="M161.2,142.7h-15.4c-0.2,0.1-0.4,0.1-0.5,0l0.4-0.4c4.6-2.1,9-4.2,13.6-6c0.4,0,1.6,0.9,2.2,1.6 c0.5,0.7,2.1,2.9,3.2,4.3L161.2,142.7z"/><path class="st5" d="M240.2,289.7c0.7,1.8,0.9,3.8,0.7,5.8c-0.5,1.7-2.6,3-4.1,4.5c-2.8-3.6-3.9-8.2-2.9-12.6c0,0,0,0,0-0.4 s0,0.3,0,0.4C236.4,288,238.6,288.9,240.2,289.7z"/><path class="st1" d="M151,209.7v1.6c0.3,2.5,0.3,5,0,7.5l-2.8,3.1c-0.6-0.8-1-1.7-1.3-2.7c-0.5-1.2-1.6-2-2.9-2.2 c-0.7-0.2-1.4-0.3-2.2-0.3c-0.1-0.2-0.1-0.5,0-0.7l7.2-9l0,0C150,207.6,150.8,208.5,151,209.7z"/><path class="st1" d="M271.4,165.4c0.5,0.9,1,1.8,1.4,2.7c0.5,0.9,0.6,1,1,1.6c-5.5-4.3-12.4-6.4-19.4-5.8c-0.7,0.1-1.5,0.1-2.2,0 c0.7-0.5,1.2-1.3,1.9-1.6C259.9,159.2,267.1,160.5,271.4,165.4z"/><path class="st3" d="M280.9,42.3c0.7,1.4,2.3,3.1,2.2,4.7c-0.2,3.4-0.8,6.8-1.6,10.1c0,0.4-0.5,0.7-0.9,1.1c-0.3-0.3-0.5-0.6-0.7-1 c-0.9-2.9-1.8-5.7-2.4-8.7c-0.2-1.8-0.2-3.6,0-5.4C277.5,43.1,278.5,42.8,280.9,42.3z"/><path class="st5" d="M245.4,162.6l0.9-0.8c0,0.5,0,1,0,1.6c0,1.3,0,2.6,0,3.9l0.6,5.9l0,0l0,0l0.7,5.2l0,0c0,1.6,0,3.3,0.4,4.9 c0,2.7,0.8,5.5,1,8.3c0,0.5-1,1-1.3,1.6s0,0.7,0,0.7h1.3l-2.7,0.7c0,0-0.5-0.7-0.7-1.2v-0.6C246,182.9,245.7,172.7,245.4,162.6z"/><path class="st5" d="M137.6,250.9c-4-0.5-7.5-1-11-1.6c-0.3,0-0.8-1.5-0.6-1.9c0.2-0.4,2-3.3,2.4-3.2c3.5,1.1,6.9,2.3,10.2,3.7 c0.6,0,1,1.2,1.4,1.7L137.6,250.9z"/><path class="st3" d="M319.6,47.8l-5.8,10.6l-0.4,0.4l-1.2,2.4c0-1.1,0-2,0-3.1c0-2.9,0-5.7,0-8.6c-0.4-5,2.9-2.7,4.8-2.5 C317.9,47.2,318.8,47.4,319.6,47.8z"/><path class="st5" d="M125.7,254.1c0.6-1.3,1.3-3.1,1.6-3c2.4,0.4,4.8,0.9,7.3,1.5c-1.7,5.4,5.6,2.1,5.6,5.9c0,0.5,0,1.1,0,1.6h-1.1 c-3.7-1.1-7.5-2-11.1-3.3C127,256.3,126.6,255.1,125.7,254.1z"/><path class="st5" d="M345.7,242.4c-8.6,3-9.7-5.8-14.3-8.9c0,0,0-0.7,0-1.1s0.9,0,1.2,0l14.1,8.4c0.1,0.3,0.1,0.7,0,1L345.7,242.4z" /><path class="st3" d="M410.7,154v5.5c0,0.4,0,0.8,0,1.2l-1.2-1l-1.8-2.2c-0.9-1-2.8-2.9-2.6-3.1c1.9-2.4,3.9-4.6,6-6.8 c0,0.1,0,0.2,0,0.3v5.8L410.7,154z"/><path class="st3" d="M256.5,120.5c-1.4,1.2-5.3,0-4.1,3.9c0,0-0.3,0-0.4,0.3l-4.4-7.3c2.7-0.3,5.4-0.4,8.1-0.4 C256,117.1,256.1,119.3,256.5,120.5z"/><path class="st5" d="M203.3,235.7c-1.1-1.6-2.2-3-3.3-4.6l-1-1.7l2.3,1.9l0.7,0.7c0,0,0.7-0.5,0.7-0.7c0.1-0.7,0.1-1.3,0-2l2.2,1.8 l2.4,2.4c0.5,1.1,0.9,2.2,1.2,3.4c0.1,0.9,0.1,1.8,0,2.7l-2.2-1.4L203.3,235.7z"/><path class="st1" d="M257.8,165.7c-0.7,2.4-1.2,4.8-2,6.8c-0.2,0.5-0.5,1-0.9,1.5l-1-1c-1.2-1.2-2.1-2.5-2.9-3.9 c0-0.5,0.6-1.8,1.2-2.6c0.5-0.8,0.7,0,1.2,0l-1.1-0.7L257.8,165.7z"/><path class="st1" d="M293.6,191.4c4.8-3,6.3,0.4,7.6,3.9c0,0-1,1-1.3,1c-2.9-1.2-5.8-2.4-8.7-3.7L293.6,191.4z"/><path class="st1" d="M194.8,307.2c-0.1-1.4-0.1-2.9,0-4.3c0.2-0.8,0.5-1.5,0.9-2.2l0.6,1.8c1.1,2.4,2.1,4.8,2.9,7.3 c0,0.9-0.7,2.2-1.1,3.3c-1.2-1.2-2.3-2.4-3.3-3.7C194.6,308.7,194.6,307.9,194.8,307.2z"/><path class="st2" d="M243.5,185c0,3.1,0,5.3-0.5,7.5c0,0.2,0,0.4,0,0.6c-1.5-0.6-3-1.3-4.4-2.1c0,0,0-1,0-1.3l3.7-6.8l1-1.4 C243.3,182.7,243.4,183.8,243.5,185z"/><path class="st3" d="M151,218.9c0-1.9-0.4-3.7-0.5-5.5c0.1-0.7,0.3-1.4,0.5-2l2.6-1.2c0,1,0,2,0.4,3c0.4,1,0,0.5,0,0.6l2.5,3.5 L151,218.9z"/><path class="st3" d="M413,127.5c0,2.4-0.4,4.7-0.7,6.8c0,0-0.5,0-0.7,0.5c-1.6-2.9-3.1-5.8-4.5-8.7c0,0,0.4-0.7,0.7-1.2 c1.3,1.2,3.1,1.8,4.8,1.7L413,127.5z"/><path class="st5" d="M179,291.8l-0.7,1.9l-3,2.2c0.2-1.2,0.5-2.5,1-3.7c1-2.7,2.2-5.5,3.4-8.2c0-0.5,1.2-0.8,1.8-1.2 c-0.5,1.1-0.8,2.3-1.1,3.5c0,1.4,0,2.8,0,4.1s-0.7,0.8-1.2,1.4l0,0H179z"/><path class="st1" d="M253.9,154.3l1.1-2.4c2,2.3,4.1,4.8,6.1,7.1c-1.1,0.4-2.8,1.4-3.1,1.1C256.5,158.3,255.1,156.4,253.9,154.3z"/><path class="st2" d="M238.6,46.9l-6.8-1.9c1.4-1.4,3-2.8,4.6-4c0,0,2,0.9,2.3,1.7C238.8,44.1,238.8,45.5,238.6,46.9z"/><path class="st1" d="M159.1,226.5l4.4-4.6c1.4,0.7,2.7,1.6,4.2,2.2c0,0,0.5,0,0.5,0.5l-7.3,4C159.8,228.5,159.5,227.4,159.1,226.5z" /><path class="st5" d="M156.5,225l-3.4,3.7c0-1.2-1.2-3.1-0.7-3.7c2.2-2.2,4.4-4.2,6.8-6.2c0.4,0.6,0,1-0.3,1.4 C157.9,221.8,157.1,223.3,156.5,225z"/><path class="st2" d="M156.5,225l2.2-4.9c0-0.4,0.4-0.8,0.7-1.2h0.4c0,0,0.4,0,0.6,0l4-1.1h0.5c0,0,0,0,0,0.4 c-2.2,2.4-4.5,4.8-6.8,6.8C157.6,225,157.1,225,156.5,225z"/><path class="st5" d="M168.2,225h-0.6c-0.5-1.2-1.5-1.8-2.2-2.7s-0.8-1.6,0-2.4l3.4-3.4c0.4,0.7,0.6,1.4,0.7,2.2 C169.1,220.3,168.6,222.5,168.2,225z"/><path class="st1" d="M261.3,156.4c0-1.5,0-2.9,0.5-4c0.3-1,0.6-1.9,1.1-2.9c0.7,1.1,1.3,2.3,1.7,3.5c0.1,2.1,0.1,4.1,0,6.2 c0.1,0.2,0.1,0.5,0,0.7c-0.5,0-1.5,0-1.6-0.4C262.3,158.5,261.8,157.5,261.3,156.4z"/><path class="st3" d="M232.5,259c0-0.7,0-1.8,0.5-1.9c1.3-0.6,2.6-1.2,4-1.6v6.1L232.5,259z"/><path class="st5" d="M256.7,248.2c0,0-0.6,0-0.8,0c-0.9-0.7-1.7-1.4-2.4-2.3c-1.5-1.7-2.9-3.5-4.2-5.3l2.1-0.4l0,0l1.2-0.5 C254,242.4,255.4,245.4,256.7,248.2z"/><path class="st3" d="M141.9,216.8c2.4-1.6,5.9,1.4,6.4,5.2l-1,0.9c0,0,0,0-0.5,0c-0.1-0.2-0.1-0.4,0-0.6l0,0c0,0-1.2-1.4-1.9-2 s0-0.5-0.4,0l-1.9-0.4C141.3,218.7,141.8,217.6,141.9,216.8z"/><path class="st2" d="M378.8,73l1.2-2.9l5.6,3.1l-2,2.1c-1.5,0-2.8-0.7-4.2-1S378.9,73.5,378.8,73z"/><path class="st5" d="M378.8,73l4.8,2.2l-0.9,0.6l-4.1,2.2C378.7,76.4,378.7,74.7,378.8,73z"/><path class="st2" d="M141.9,216.8c0,1,0,1.9,0.5,2.9c0.7,0.6,1.3,1.4,1.6,2.2c0.3,0.8,0.8,1.4,1.8,0.7s0.8,0,1,0h0.5l-1.7,2.9 c-1.6-2-3-4.2-4.3-6.4c-0.4-0.7,0-2,0.5-3.2C141.7,216.1,141.7,216.5,141.9,216.8z"/><path class="st3" d="M237.7,262.9l-2.2,3.8c-1.4-1.5-2.8-2.9-4-4.4c0-0.3,0.3-1.2,0.5-1.8c0.4,0.3,0.8,0.6,1.3,0.8L237.7,262.9z"/><path class="st1" d="M246.6,223c0.7-1.9,1.4-3.3,1.8-4.6c0.9,2.2,1.8,4.3,2.7,6.8c0,0-0.7,0.8-0.8,0.7 C249,225,247.8,224.1,246.6,223z"/><path class="st3" d="M199.4,237.4h-10.5c-0.4,0.1-0.8,0.1-1.2,0l1.2-1.8c0,0,0.6,0,0.8,0c2.3,0,4.6,0,6.8,0c1.1,0.3,2.2,0.8,3.1,1.6 h0.3L199.4,237.4z"/><path class="st3" d="M151,209.7l-2.1-2.6l3.6-2.9c0.4,1.1,0.6,2.2,0.5,3.3C152.8,208.4,151.6,208.9,151,209.7z"/><path class="st3" d="M159.1,226.5l1.8,2.2c-1.3,0.7-2.6,1.2-3.9,1.7c-0.3,0-1-0.7-1.4-1.1L159.1,226.5z"/><path class="st1" d="M279.4,163.8c-1.2-0.7-2.4-1.4-3.5-2.2c-0.5-0.6-1-1.3-1.3-2l1.8-1.3L279.4,163.8z"/><path class="st3" d="M405.9,124.5c0,1-0.5,1.6-0.6,2.4c-0.8-0.8-2.1-1.4-2.4-2.4c-0.3-1,1.2-1.5,2-2.3L405.9,124.5z"/><path class="st2" d="M141,263.8c0.7,2.1,1.3,4.3,1.8,6.4c0.1,0.5,0.1,1.1,0,1.6c-0.3-0.5-0.6-1-0.8-1.6c-0.8-1.8-1.6-3.5-2.3-5.4 c-0.1-0.3-0.1-0.6,0-0.9L141,263.8z"/><path class="st3" d="M165.4,219.3c0.7,1.2,1.3,2.4,1.8,3.7c0.2,0.4,0.3,0.9,0.4,1.4l-4.1-2.5L165.4,219.3z"/><path class="st3" d="M159.4,201.7L159.4,201.7z"/><path class="st3" d="M223,64.6l-8.9,0.6L223,64.6z"/><path class="st1" d="M184.3,289.4l1.9-1.9L184.3,289.4z"/><path class="st1" d="M273.8,169.7l0.9,0.6L273.8,169.7z"/><path class="st1" d="M245.8,148.1L245.8,148.1z"/><path class="st1" d="M254.5,311.1l0.5,0.8L254.5,311.1z"/><path class="st1" d="M212.5,506.6c0,0.2,0,0.4,0,0.6l0,0v-0.7V506.6z"/><path class="st5" d="M160.3,218.2L160.3,218.2z"/><path class="st1" d="M279.4,164.6c0-0.3,0-0.7,0-1.1V164.6z"/><path class="st1" d="M274.6,159.3c0,0,0,0.4-0.4,0.7C273.8,160.3,274.6,159.6,274.6,159.3z"/><path class="st1" d="M279.4,320.1v0.8V320.1z"/><path class="st1" d="M253.5,313.3l-0.4-0.6L253.5,313.3z"/><path class="st1" d="M219.5,179.9h-0.7H219.5z"/><path class="st1" d="M290.1,198.8v-0.5l0,0C290,198.4,290,198.5,290.1,198.8L290.1,198.8z"/><path class="st1" d="M208.6,256.7h-0.5H208.6z"/><path class="st3" d="M226.2,201.4L226.2,201.4L226.2,201.4L226.2,201.4z"/><path class="st1" d="M300.9,304.3L300.9,304.3L300.9,304.3z"/><path class="st1" d="M274.8,170.6L274.8,170.6z"/><path class="st5" d="M139.3,302.3L139.3,302.3z"/><path class="st1" d="M361.7,163.4L361.7,163.4L361.7,163.4L361.7,163.4z"/><path class="st1" d="M172.2,185.7v0.3V185.7z"/><path class="st1" d="M344.3,148.1L344.3,148.1L344.3,148.1z"/><path class="st3" d="M299.8,295L299.8,295z"/><path class="st5" d="M202.8,235.6L202.8,235.6z"/><path class="st1" d="M256.1,411.5v-0.3l0,0V411.5z"/><path class="st3" d="M118.6,100.1L118.6,100.1z"/><path class="st3" d="M118.8,100L118.8,100z"/><path class="st0" d="M271.8,100.4l-0.5-8c-0.1-0.4-0.1-0.9,0-1.4c0.5-0.7,1.1-1.4,1.7-2l-2.9,1.9l-2,0.8c0-1,0-1.8,0-2.7 c0.1-0.8,0.2-1.6,0.4-2.4c0,0-0.3,0-0.4,0c-1.1,1.4-2.9,2.7-3,4.1c0.4,3.3,0.6,6.7,0.6,10.1c0,1.6-3.7,2.5-5.6,3.8 c-0.1-0.4-0.1-0.8,0-1.2c1.2-4.4,1.6-9,1.3-13.6c-0.9-4.2-0.5-6.3,3.3-7.8c0.4,0,0.7,0,1,0.2c0.8,0,2,0.9,2.3,0.5 c2.7-2.5,3-0.5,4.3,1.5c1.6,1.7,3.4,3.1,5.5,4.2c0.2-1.8,0.2-3.6,0-5.4c-0.6-2.9-1.7-5.7-2.6-8.6c0,0,0.5-0.6,0.9-0.7 c0.3-0.1,1.2,0,1.6,0c2.5-0.7,4.2-1.2,3.7,2.7c-0.4,4.9-0.4,9.7,0,14.6c0,0.4,0,0.7,0,1.1c0,0,0.7-0.5,0.8-0.8 c1.4-4.3,4.6-4.1,8.1-3.3c0,0,0.7,0.5,0.7,0.7c0,1.3-0.8,2.6-1.2,3.9c-0.2-0.4-0.4-0.8-0.7-1.2c-0.5-0.5-1.1-0.9-1.8-1.1 c-0.5,0-1.2,0.8-1.4,1.4c-0.3,0.5-0.3,1.1,0,1.6c3.7,3.6,3.7,9.5,0.1,13.2c-0.9,0.9-2,1.6-3.2,2.1c-1.6,0.7-4.5-1.4-6.8-2.4l1.8-2.3 l0.4-1c-0.4,0-1,0-1.2,0C273.5,105,272.6,102.7,271.8,100.4z"/><path class="st0" d="M230.2,106.6c-8.4,0.5-1-3.7-1.4-5.4c-1.1-4.2,1.6-9.3-3.1-12.7c-0.2-0.3-0.2-0.7,0-1l3.6-3.9 c0.1,0.7,0.4,1.4,0.7,2c0.3,0.4,0.8,0.6,1.3,0.5c2.7-3.3,4.5-0.8,6.8,1c0.3,0.3,0.7,0.5,1.1,0.7c0-0.5,0-1,0-1.4 c-0.4-3.6-1-6.8-1.2-10.8c0-0.5,1.6-1.2,2.6-1.6c0.9-0.2,1.8-0.4,2.8-0.5c-0.1,0.8-0.1,1.6,0,2.4v10.2l2.2-1.6l3.1-1.9 c0.5,1.3,0.9,2.6,1.1,3.9c0,3.8,0.5,7.7,0.8,11.6c0,2.4-4.2,6-6.4,5.3c-0.8-0.2-1.6-0.2-2.3,0c-4.6,2.1-2.8-1.7-2.9-3.3 c0-2.7,0-5.2,0-7.8c0.1-0.6,0.1-1.1,0-1.7l-1.4,1.2l-2.6,2.3c0-1,0-2.2,0-3.2c-0.1-0.3-0.2-0.6-0.3-1c0,0-0.9,0-0.9,0.5v14.5v1.4 L230.2,106.6z"/><path class="st0" d="M310.4,104.2c1.3,0,2,0,2.8,0l1.4,0.3c-0.2-0.8-0.5-1.5-0.8-2.2c-0.5-2-1-4.1-1.8-6.2c-0.7-2,0-2.9,2.6-2.5 c0.8-0.1,1.4-0.6,1.8-1.3c0.5-1.4,0.8-2.8,1-4.2c0.2-1.4,0.2-2.7,0-4.1c-2.9-0.7-6.2-2.7-8.4,1.3c-0.5,0.8-1.1,1.6-1.8,2.4 c-0.2,0-0.5,0-0.7,0c0,0,0-0.3,0-0.5c0-3,0.5-6,1.1-8.9c0,0,2.2-0.4,3.3,0c5.4,0.9,10.6,1.9,15.9,2.9c6.5,1.2,6.8,2.4,4.7,8.6 c-0.4,0.7-0.7,1.4-0.9,2.2c-0.4-0.7-1.2-1.3-1.2-2c0.1-2.1-1.6-3.9-3.7-4c-0.5,0-0.9,0-1.3,0.2c-1,0-1.4,3.5-2,5.5 c-0.6,2-1,4.6-1.5,6.8c0,0,0,0.5,0,0.5c-3.3,2.2-3.5,3.5-2,8.6c0,0.5-0.1,0.9-0.4,1.3c-6.4-0.5-3.2,4.8-4.3,7.3 c-0.5,1.8-0.8,3.7-0.8,5.6c0-1.8-0.5-3.5-0.9-5.3C311.7,112.7,311.3,109.5,310.4,104.2z"/><path class="st0" d="M146.9,122.3c-3-1.2-2.2-5.2-3.5-7.6c-0.2-0.3-0.3-0.6-0.4-0.9l-0.6,0.8l-1.2,1.7c-0.4-0.5-0.8-1-1.2-1.6 c-1.6-2.7-3-5.3-4.6-8c0,0-0.9,0-1.3,0c-0.4,0-1.2,1.2-2,1.4c-3.5,0.9-5.6,2.2-3,6c0,0,0,0.7,0,1.2c-0.4-0.1-0.8-0.3-1.2-0.5 c-1.7-1.9-3.4-3.7-5-5.7c0.3-0.6,0.8-1.2,1.3-1.6l19.9-13.2c0.3-0.1,0.7-0.1,1,0c1.3,2,2.5,3.9,3.8,5.8v0.5c0,0-1.9-0.7-2.7-0.4 c-2.3,0.8-4.6,1.7-6.8,2.8c0,0.6,0.2,1.1,0.6,1.6c1.5,1,3.1,1.8,4.6,2.6h1.1c1,3.3,2.7,6.4,5,9c2.3,5.1,3.9,10.4,4.7,15.9 c0,0,0,0.4,0,0.5c-0.3-0.1-0.5-0.4-0.7-0.6c-1.9-3.5-3.8-6.9-5.7-10.2c-2.9-5-0.5-0.3-0.6-0.5L146.9,122.3z"/><path class="st0" d="M170.3,120.7c-2.5-4.7-5-9.4-7.7-14.1c0-0.5-1.4-0.5-2.1-0.7c0,1.2-0.7,2.5,0,3.3c1.4,2.5,3.3,4.8,4.6,7.3 c0,0-1.7,1.6-2.7,2.4c-2,1.4-1.6,1.3-2.4-0.7c-2.1-4.7-4.6-9.2-6.8-13.6c-1.4-2.5-3.3-4.8-4.6-7.1c0-0.3,1.8-1.8,2.9-2.7 c1-0.8,1.9-1.4,2.9-2c0,1-0.9,2.1-0.5,2.9c1.2,3.5,2.7,6.8,4,10.3c0.5-0.8,1.4-1.6,1.5-2.4c0.7-7.5,3.9-3.7,5.7-1 c3.1,4.2,5.7,8.8,7.6,13.6c0.7,1.8-1.5,4.7-2.5,6.8c0,0-0.6-0.4-0.7-0.7s0-0.5,0-0.9L170.3,120.7z"/><path class="st0" d="M211.4,100.7c-0.8-3.5-1.1-7.2-0.9-10.8c0.4-2.1,3-3.7,4.8-5.4c1-0.9,2.1-1.7,3.2-2.4c2,3.7,3.8,7.4,5.8,11.1 c-2,0-3.8,0.5-5.8,0.8s-2,0.5-3,0.7l2.2,5.1h0.5c-0.1-0.6-0.2-1.2-0.3-1.8c0-0.8,0-1.6,0-2.5c1.7,0.3,3.5,0.8,5.2,1.4 c0.8,0.3,1.4,1.5,2,2.2c-2,1.4-3.8,3-5.4,4.8c-3.3,4.9-3.9-1.4-6.2-1.4C212.5,102.7,211.4,100.7,211.4,100.7z"/><path class="st0" d="M209.1,105.5c-3.1-1-6.3-1.1-7.7-2.8c-1.4-1.7-1.3-5-2.4-7.5c-1.3-3.2-0.4-6.8,2.2-9.1c2.4-2.6,1.6-5.4-2.4-7.5 l-1-0.7l1.3-0.7c2-0.6,4-1.3,6-1.8c0,0,0.8,0.7,0.9,1.2c1.7,8.4,3.3,16.9,4.8,25.3C211,103.1,209.9,104.2,209.1,105.5z"/><path class="st0" d="M169.1,107.4c0.4-3.3,0.7-6.1,1.2-8.8c0.2-0.6,0.5-1.2,1-1.6c0.4,0.4,0.8,1,1,1.6c1.2,3.1,2,6.4,3.3,9.4 c0.4,0.9,2,1.3,3,2c0-1.4,1-3.1,0.3-4.1c-0.6-1,0.7-5.8-3.6-5c0.5-1.5,1.2-3,2-4.4c0.7-0.7,1.5-1.3,2.4-1.8c0.7,2,1.4,4,2.2,6 c1.6,3.1,3.4,6.2,5,9.4c0,0.3,0,1.2,0,1.2c-1.4,0.6-3,1.3-4.5,1.8c-0.6,0.3-1.3,0.4-2,0.4c-1.8,0.2-3.7,0.1-5.4-0.5 C172.8,111.3,170.9,109.4,169.1,107.4z"/><path class="st0" d="M342,119.2c-3.7-1.1-3.1-3.4-2.5-6.8c0.8-5.9,5.9-10.3,11.8-10.3c0.3,0,1,1.4,1.2,2.2c0.9,1.6,1.4,3.4,1.6,5.2 c0,0.9-2,1.8-3.2,2.4c-1,0.3-2.1,0.5-3.2,0.6l2.2,1.4c0.4,0.3,1,1,0.8,1.2s-1,2.9-1.8,3.2C346.6,118.7,344.3,119,342,119.2z"/><path class="st0" d="M187.6,109.5l-2.2-5.8l-3.2-7.5c0-0.4-0.5-1.1-0.3-1.2l3.4-1.8c0,0,0,0,0.3,0.3s0,0,0,0.4c0,0.4,0.7,0,0.9,0 c1-1.4,1.9-3.9,3.1-4c4,0,4.7,3.3,5.7,6.3c1,3,2.5,5.5,3.1,8.4c0,1-1.6,2.4-2.5,3.5c-1,1.2-1.6,1.6-2.3,2.4c0.2-1.1,0.2-2.1,0-3.2 c-1-4.3-2.3-8.5-3.5-12.8h-0.4c-0.9,1.4-2.8,2.9-2.4,4c1.1,3,2.4,5.9,3.9,8.7c0.1,0.4,0.1,0.8,0,1.2 C189.9,108.8,188.8,109.2,187.6,109.5z"/><path class="st0" d="M363.4,114.3c4.3-1.9,5.4-0.8,5.1,2.4c-0.3,3.3-1.2,6.3-5.5,6c-0.3-0.1-0.6-0.3-0.7-0.6c0-0.3,0-0.4,0-0.7 l1.8-4.3c-0.3,0-0.7-0.3-0.9,0c-1.3,1.1-3.1,2-3.7,3.4c-0.6,1.4-0.9,5-1.8,7.3c0,0.5-2.6,0-4,0c-0.9-0.1-1.9-0.3-2.8-0.6 c0.5-0.7,1-1.4,1.5-2.1c3.9-3.3,5.5-8.7,4.1-13.6c0,0,0.8-1,1.4-1.2c1.4-0.1,2.8-0.1,4.1,0c0.5,0.3,1,0.7,1.2,1.2 C363.6,112.4,363.4,113,363.4,114.3z"/><path class="st0" d="M329.8,103.7v-3.1c-1,1.3-2.6,2.3-3.1,3.8c-0.7,2.4-1.3,4.8-1.6,7.3c0,0.3-0.4,0.8-0.6,0.8h-6 c0.5-0.6,0.9-1.3,1.2-2c0.7-4.2,1.8-8.4,3.3-12.4c0.7-1.6,4.1-2,6.3-3v0.5c0.1,0.5,0.1,1,0,1.6c0,0.2,0,0.4,0,0.5h0.5 c1,0,2.4-0.6,2.7,0c1.1,1.9,2.1,3.9,3,5.8l-4.9,2.3C330.4,105.1,330.1,104.4,329.8,103.7z"/><path class="st0" d="M256.6,94.7c0,3.1,0.6,5.2,0.8,6.8c0,0.4,0,1.1-0.5,1.2c-1.2,0.5-2.4,0.8-3.7,1.2v-1.2c0-5.4-0.4-10.9-0.5-16.3 c0,0,0.9-0.9,1-0.8c0.8,0.4,1.6,1,2.1,1.8c1.1,1.3,1.9,2.8,2.3,4.4C258.3,92.8,257,94.1,256.6,94.7z"/><path class="st0" d="M338.8,99.8l2.7,0.6c-0.4,0.7-0.7,1.5-1,2.2c-1.5,3.9-2.9,7.8-4.3,11.8c0,0.5-0.5,1.4-0.8,1.4 c-1.3,0.1-2.5,0.1-3.8,0c0.5-0.6,0.9-1.1,1.2-1.8c1.3-4.1,2.5-8.2,3.9-12.2C337.2,100.7,338.3,100.2,338.8,99.8z"/><path class="st0" d="M254,83.4c-0.8-0.7-1.5-1.5-2.1-2.3c1.4-1.8,2.9-3.5,4.3-5.3c0.7,1,2.1,2.5,1.9,2.9 C256.9,80.4,255.5,82,254,83.4z"/><path class="st0" d="M336.6,94c2.2-0.8,4.5-1.5,6.8-2c0.4,0,1.7,2.1,1.6,2.3c-1.6,1.4-3.1,2.7-4.8,4l-0.8-1.4L336.6,94z"/><path class="st1" d="M229.6,242.5h-1.1C228.8,242.3,229.2,242.3,229.6,242.5z"/><path class="st5" d="M211.4,229.5L211.4,229.5z"/><path class="st5" d="M223.2,230.8L223.2,230.8z"/><path class="st1" d="M254.9,274L254.9,274z"/><path class="st0" d="M259,408.5h0.3H259z"/><path class="st0" d="M176.4,349.7L176.4,349.7z"/><path class="st0" d="M238.6,220.8L238.6,220.8L238.6,220.8z"/><path class="st0" d="M276.1,250.6v0.4l0,0V250.6z"/><path class="st0" d="M161.8,207.7v-1.8c1.5-4.7,5.8-7.9,10.7-8.1c0,0,0.9,1.7,0.7,2c-3.2,3.1-6.8,6-9.9,9L161.8,207.7z"/><path class="st0" d="M288.6,179.9l2.9-0.6l1.7,1.5l5.2,3.5l-1,1l-9-4.3l0,0c-0.3-0.2-0.4-0.6-0.2-0.8c0-0.1,0.1-0.1,0.2-0.2H288.6z" /><path class="st0" d="M309.9,185.4c-1.9,0.8-3.8,1.5-5.8,2c-1.7,0.2-3.4,0.2-5.1,0c-0.3,0.1-0.6,0.1-1,0h1l10.9-1.6V185.4z"/><path class="st0" d="M291.5,179.3V179V179.3z"/><path class="st0" d="M309.9,185.4L309.9,185.4z"/><path class="st0" d="M221.3,275.7l-1.6,2.8L221.3,275.7z"/><path class="st0" d="M197.8,284.6h-0.5H197.8z"/><path class="st5" d="M181.5,289.6"/><path class="st0" d="M198.4,284.2v0.3V284.2z"/><path class="st1" d="M212.8,269.1L212.8,269.1z"/><path class="st3" d="M197.8,271.1h-0.5l0,0H197.8L197.8,271.1z"/><path class="st3" d="M222.4,240.7L222.4,240.7z"/><path class="st1" d="M239.1,208.9L239.1,208.9z"/><path class="st5" d="M207.6,214.4L207.6,214.4z"/><path class="st1" d="M288.5,179.9c0,0.3,0,0.7,0,1C288.5,181.1,288.5,180.2,288.5,179.9z"/><path class="st3" d="M208.4,218.2L208.4,218.2z"/><path class="st3" d="M210.8,235.6L210.8,235.6z"/><path class="st3" d="M179,291.8c-0.1,0.1-0.3,0.1-0.4,0l0,0H179z"/><path class="st0" d="M251.5,239.9h0.4h-0.5H251.5z"/><path class="st5" d="M146.7,222.8c-3.3,1.4-3.3-1.6-4.3-3.3h2.1l0,0l2.3,2.4l0,0v0.7L146.7,222.8z"/><path class="st5" d="M144.4,219.8L144.4,219.8z"/><path class="st5" d="M146.7,222.1L146.7,222.1z"/><path class="st1" d="M282,95.9v-2.2c0.4,0.6,0.7,1.2,1,1.8c0.5,2.7,5.4,4.6,1.4,8.1c-0.3,0.3-0.6,0.6-1,0.8 c-0.7-0.5-1.6-1.1-1.6-1.7c0-2.2,0-4.5,0.5-6.8L282,95.9z"/><path class="st1" d="M279.4,95.9l-3.5,4.3c-0.2-1.7-0.4-3.4-0.4-5.1c0-0.8,0.7-1.6,1-2.3L279.4,95.9z"/><path class="st1" d="M246.4,91c-0.7,3.1,2.8,7.4-3,8.7c-0.4-0.4-0.6-0.9-0.7-1.5c0-3.6-0.9-7.6,3.1-10.1L246.4,91z"/><path class="st1" d="M215.8,91.7c0,0,0-0.5,0-0.8s1.2-2.2,1.8-3.3l1.6,3.1L215.8,91.7z"/><path class="st1" d="M206.4,100.2l-1.4,1.7c-0.5-0.6-1.5-1.2-1.7-1.8c-0.5-3-0.7-6-1-9.1c0,0,0,0,0.3-0.4c0.3-0.4,2.2,1.4,2.5,2.2 C205.7,95.3,206.1,97.7,206.4,100.2z"/><path class="st1" d="M350.6,107.4l-3.9,2.1c-0.6,0.1-1.1,0.1-1.7,0l3.7-3.6L350.6,107.4z"/><path class="st1" d="M343.9,117.3c-1-1.3-1.2-1.8-1.2-1.8c1.1-1,2.2-1.8,3.5-2.8c0,0,0.4,0,0.5,0.3L343.9,117.3z"/></svg> 