<?xml version="1.0" encoding="utf-8"?><svg version="1.1" id="Layer_1" xmlns="http://www.w3.org/2000/svg" xmlns:xlink="http://www.w3.org/1999/xlink" x="0px" y="0px" viewBox="0 0 512 512" style="enable-background:new 0 0 512 512;" xml:space="preserve"><style type="text/css"> .st0{fill:#070809;} .st1{fill:#FE0200;} .st2{fill:#1CA700;} .st3{fill:#EEFE08;} </style><path class="st0" d="M509.3,246.2c0,4.7,0,9.5,0,14.2c-0.6,6.9-2.4,13.5-5.1,19.8c-3.9,9.3-9.4,17.5-16.2,24.9 c-11.5,12.7-25.4,22.3-40.7,29.7c-19.3,9.3-39.7,15-61,17.8c-13.7,1.8-27.4,2.1-41.1,1.5c-17-0.7-33.7-3.6-50.1-8.4 c-13-3.8-25.3-9.1-37.1-15.6c-1.7-0.9-3.1-1-4.8,0c-12.5,7.1-25.7,12.5-39.6,16.4c-13.4,3.8-27.1,6.2-41,7.3 c-11.1,0.9-22.3,0.8-33.5,0.2c-13.6-0.8-26.9-2.8-40-6.2c-23.3-6-44.9-15.6-63.7-30.9c-11-9-20.3-19.6-26.6-32.5 c-3.4-7-5.9-14.3-6.8-22c-2.8-22.8,3.9-42.7,18.7-60c10.5-12.3,23-21.8,37.2-29.4c13-7.1,26.8-12.3,41.1-16 c11.3-2.9,22.8-4.8,34.5-5.9c10.4-1,20.7-1.1,31.1-0.7c17.7,0.7,35,3.5,52,8.6c12.9,3.8,25.2,9,36.9,15.7c1.8,1.1,3.2,0.6,4.8-0.3 c8.9-5,18.2-9.1,27.8-12.5c12.5-4.4,25.3-7.4,38.3-9.4c14.4-2.2,28.9-2.7,43.5-2.1c25.4,1.1,49.9,6.3,73.3,16.5 c14,6.1,27,13.9,38.4,24.1c12,10.7,21.5,23.1,26.8,38.5C509.4,240.1,508.9,239.6,509.3,246.2z"/><path class="st1" d="M243.9,184.2c-3.4,2.8-6.5,5.5-9.7,8.2c-0.9,0.7-1.5,0-2.1-0.3c-11.5-5.3-23.4-9.1-35.8-11.7 c-17.7-3.7-35.7-5-53.8-4c-20,1.1-39.4,4.8-58.1,12.1c-16,6.3-30.6,14.8-42.3,27.8c-7,7.8-12.1,16.7-14.1,27.1 c-2.5,13.2,0.5,25.3,7.7,36.4c7.1,11.1,17,19.3,28.1,26c16,9.6,33.4,15.5,51.6,19c15.5,3,31.2,4.1,47,3.4c27.7-1.2,54.2-7,78.7-20.6 c4.6-2.5,8.9-5.4,13-8.7c1-0.8,1.6-0.8,2.6,0c2.4,1.9,4.9,3.7,7.6,5.3c1.6,1,1.4,1.5,0.1,2.5c-12.4,10-26.3,17.4-41.3,22.8 c-16.6,6-33.8,9.5-51.4,10.9c-31.7,2.5-62.5-1.2-92.2-13c-18-7.1-34.2-17-47.2-31.6c-8.3-9.3-14.3-19.8-16.7-32.1 c-3.2-16.1,0.3-31,9-44.7c8.3-13.1,19.8-22.9,32.9-30.9c18.2-11.1,38-17.6,58.9-21.4c12.9-2.3,26-3.5,39.1-3.3 c29.1,0.3,57.1,5.6,83.5,18.4C240.6,182.5,242.1,183.4,243.9,184.2z"/><path class="st2" d="M267.3,320.3c3.3-2.8,6.4-5.4,9.5-8.1c0.8-0.7,1.5-0.3,2.2,0.1c12.3,5.7,25,9.7,38.3,12.3 c8.4,1.6,16.9,2.7,25.5,3.3c7.5,0.5,15,0.6,22.5,0.3c28.4-1.2,55.7-7.2,80.6-21.6c12.1-7,22.6-15.8,30.2-27.8 c5.8-9.2,8.7-19.3,7.8-30.2c-0.9-10.9-5.2-20.4-12-28.9c-9.9-12.4-22.8-21-37-27.6c-16.4-7.6-33.7-12.1-51.6-14.3 c-11.2-1.4-22.4-2-33.6-1.5c-21.3,0.8-42,4.5-61.9,12.3c-10.8,4.2-21,9.5-30.2,16.6c-1.4,1.1-2.4,1.2-3.9,0 c-2.2-1.7-4.5-3.4-6.8-4.8c-1.5-0.9-1.3-1.5-0.1-2.5c5.7-4.7,11.8-8.8,18.3-12.4c18-10,37.2-16,57.4-19.3c12.5-2,25.1-3.1,37.8-2.8 c30.5,0.7,59.8,6.5,86.9,21c15.7,8.4,29.4,19.1,39.2,34.2c6.9,10.6,10.7,22.3,10.4,35c-0.4,13.9-5.5,26.2-13.8,37.2 c-8.9,11.6-20.1,20.4-32.7,27.6c-17.8,10.2-37.1,16.2-57.3,19.7c-13.4,2.3-26.8,3.3-40.4,2.9c-28.3-0.7-55.6-6.2-81.2-18.7 C270,321.7,268.8,321.1,267.3,320.3z"/><path class="st3" d="M143.7,254.7c0-10.6,0.1-21.3-0.1-31.9c0-2.1,0.5-2.8,2.7-2.7c4.8,0.2,9.6,0.1,14.4,0c1.4,0,1.8,0.4,1.8,1.8 c0,20.3,0,40.5,0,60.8c0,1.3-0.3,1.7-1.7,1.7c-5.2-0.1-10.5-0.1-15.7,0c-1.3,0-1.9-0.6-2.5-1.6c-6.9-10.2-13.9-20.5-20.8-30.7 c-0.5-0.7-1-1.4-1.8-2.6c0,1.3,0,2,0,2.6c0,10,0,20,0,30.1c0,1.6-0.3,2.2-2.1,2.2c-5-0.1-10-0.1-15,0c-1.3,0-1.7-0.2-1.7-1.6 c0-20.3,0-40.7,0-61c0-1.3,0.3-1.7,1.7-1.7c5.2,0.1,10.3,0.1,15.5,0c1.3,0,1.9,0.7,2.5,1.6c7.1,10.5,14.2,21,21.3,31.4 c0.4,0.6,0.8,1.1,1.2,1.7C143.4,254.8,143.5,254.7,143.7,254.7z"/><path class="st3" d="M259.1,250.2c0,9.9,0,19.9,0,29.8c0,4.3,0,4.3-4.4,4.3c-4.2,0-8.3-0.1-12.5,0c-1.7,0.1-2-0.5-2-2 c0.1-20,0.1-40.1,0-60.1c0-1.6,0.3-2.2,2.1-2.2c4.9,0.1,9.7,0.1,14.6,0c1.5,0,2.3,0.6,3.1,1.7c7.1,10.6,14.2,21.1,21.4,31.6 c0.3,0.5,0.5,1.2,1.4,1.5c0-1.9,0-3.6,0-5.4c0-9.2,0-18.3,0-27.5c0-1.5,0.3-2,1.9-1.9c5,0.1,10,0.1,15,0c1.6,0,1.9,0.6,1.9,2 c0,20.1,0,40.2,0,60.3c0,1.6-0.4,2.1-2,2c-5-0.1-10-0.1-15,0c-1.3,0-2-0.5-2.7-1.5c-6.9-10.3-13.9-20.5-20.8-30.7 c-0.5-0.7-1-1.4-1.5-2C259.4,250.2,259.3,250.2,259.1,250.2z"/><path class="st3" d="M376.1,241.6c0,6.2,0.1,12.3,0,18.5c-0.2,14.3-10.2,24.4-24.5,25.2c-5.6,0.3-11.2,0.2-16.7-0.8 c-10.5-1.9-17.3-8.6-19.4-19.1c-0.6-3-0.9-6.1-0.9-9.2c0-11.2,0.1-22.5,0-33.7c0-1.8,0.3-2.5,2.3-2.4c5.2,0.2,10.4,0.1,15.7,0 c1.6,0,2,0.4,2,2c-0.1,12.2,0,24.3,0,36.5c0,1.4,0,2.9,0.3,4.3c1.5,5.6,6,8.2,12.7,7.3c5-0.6,8.4-4.6,8.5-10.4 c0.1-6.7,0-13.5,0-20.2c0-5.9,0.1-11.9,0-17.8c0-1.3,0.3-1.7,1.6-1.7c5.5,0.1,11,0.1,16.5,0c1.4,0,1.6,0.5,1.6,1.7 C376.1,228.4,376.1,235,376.1,241.6z"/><path class="st3" d="M201.3,220.1c9.3,0,18.6,0,27.9,0c1.7,0,2.2,0.5,2.1,2.2c-0.1,3.9-0.1,7.9,0,11.8c0,1.6-0.3,2.2-2.1,2.2 c-5.3-0.1-10.6,0-15.9-0.1c-1.7,0-2.3,0.3-2.3,2.2c0.1,14.6,0,29.2,0.1,43.8c0,2-0.5,2.3-2.4,2.3c-5.2-0.1-10.3-0.1-15.5,0 c-1.8,0-2.1-0.6-2.1-2.2c0.1-14.6,0-29.2,0.1-43.8c0-2-0.6-2.4-2.4-2.3c-5.4,0.1-10.7,0-16.1,0.1c-1.3,0-1.7-0.4-1.7-1.7 c0.1-4.2,0.1-8.4,0-12.7c0-1.5,0.5-1.8,1.8-1.8C182.4,220.1,191.8,220.1,201.3,220.1C201.3,220.1,201.3,220.1,201.3,220.1z"/><path class="st3" d="M410,252.2c0,10.1,0,20.2,0,30.3c0,1.5-0.3,2-1.9,1.9c-5.4-0.1-10.9-0.1-16.3,0c-1.4,0-1.8-0.4-1.8-1.8 c0-20.3,0-40.5,0-60.8c0-1.3,0.4-1.7,1.7-1.7c5.5,0.1,11,0.1,16.5,0c1.5,0,1.8,0.5,1.8,1.8C410,232,410.1,242.1,410,252.2 C410.1,252.2,410,252.2,410,252.2z"/><path class="st0" d="M496.7,210.3c2.4,3.5,13.3,18.4,13.3,41.8c0,6.9-0.6,22.9-13.3,41.8"/></svg> 