<?xml version="1.0" encoding="utf-8"?><svg version="1.1" id="Layer_1" xmlns="http://www.w3.org/2000/svg" xmlns:xlink="http://www.w3.org/1999/xlink" x="0px" y="0px" viewBox="0 0 512 512" style="enable-background:new 0 0 512 512;" xml:space="preserve"><style type="text/css"> .st0{fill:#B8B8B8;} .st1{fill:#2F2F2F;} .st2{fill:#262626;} .st3{fill:#F5F5F5;} .st4{fill:#0C0B0B;} </style><g><g><path class="st0" d="M239,250.7c-0.1-2.5-0.2-4.6-0.2-5.3c0,0,0,0,0,0c0-0.3,0-0.2,0,0c0,0.2,0.7,0.8,1.5,1.4 c2.9-9.1,5.6-18,8.2-24.3c0.9-2.2,2.5-6.4,4.7-11.9c-3.9-4.3-16.7-15.6-20.8-23.2c0,0,18.1,16.2,21.1,17.9c0.7,0.4,1.4,0.2,2-0.5 c0.5-1.3,1.1-2.6,1.6-4c0.4-2.2,0.3-4.6-0.7-5.5c-2.2-1.9-40.4-31.5-44.6-41.3c0,0,35,31.3,49.7,36.6c2.8-6.3,6-13.1,9.5-19.9 c-0.4-2.5-0.7-4.5-0.7-5.4c0,0,1.1,1.1,3.1,0.9c5.1-9.5,10.8-18.9,17-27c0,0,0.3-9.5,0.9-20.5c-1.4-2.1-2.9-3.6-4.4-4.3 c-7.4-3.6-17.3-8.4-17.3-8.4s14.7,4,22.2,5.1h0c0.5-6.1,1.1-12.1,1.8-16.7c-0.3-2.1-0.6-3.8-1-4.2c0,0,0.8,0.1,1.8,0.3 c0.1-0.5,0.2-1,0.4-1.5c3.3-11.4,7.4-19.7,4.6-33.7c-1.7-0.7-3.6-1.2-5.9-1.5c-10.5-1.2-22.8-2.3-26.6-2.7c0,0,24.9-2.2,30.4-3.7 c-1.4-4.6-3.2-9.5-5-14.6c-2.2-3-4.5-5.8-6-6.9c0,0,1.7-0.3,3.6-0.4c-2.5-8.2-4.4-16.6-3.7-24.2c0,0-107.7,39.8-124.3,66.1 c-16.6,26.3-10.6,42.8-7.1,46.5s52.3,79,54.4,105c2.2,26,1,53.2,3.1,59.6c2.1,6.4,20,20.4,20,20.4c-1.9-13.8-0.2-26.7,4.1-39.8 C237.2,256.4,238.1,253.6,239,250.7z"/><g><path class="st1" d="M120.3,424.3c-1.2-7.4-3.2-16.3-3.2-16.3s9.3-8.9,15.5-14.5c3.8-3.5,8.8-8.8,12.3-12.6 c-3.8-2.9-8.9-6.9-15.1-11.7c-8.2,8.1-14.5,17-17.6,22c-3.6,5.9-9.4,16-9.4,16s4.1,11.3,5.9,16.5c1.8,5.2,9.4,21.4,10.2,26.5 c0.8,5,3.5,10.2,5.6,13.9c2.1,3.6,5.9,7.7,5.9,7.7l7.3-12.9c0,0-5.5-7.4-9.4-13C124.5,440.3,121.5,431.7,120.3,424.3z"/></g><g><path class="st1" d="M295,377.6c-0.5-3.3-1.9-6.4-3.1-8.9c-0.7-1.4-1.2-2.7-1.5-3.7c-0.9-0.7-4.4-2.6-14.5-4.3 c-0.5-0.1-1-0.2-1.5-0.2c5.4,8.6,13,21.4,16.1,31.2c0.5,1.7,1.2,3.6,2,5.9C294.3,389.9,295.7,382.3,295,377.6z"/><path class="st1" d="M323.7,455c-0.3-3.6-5.2-29.4-7.6-43.2c-3.3,6.5-7,13.9-10.3,20.6c2.6,6.4,4.6,11.4,5.3,13.3 c2.2,5.7,8.3,25.2,10.2,29.8c2,4.6,8.1,14,8.1,14l9.2-6.9c0,0-4.8-9.8-7.8-14C327.8,464.4,324.1,459.6,323.7,455z"/></g><path class="st2" d="M104.8,252.6c0,0-0.1,3.4,3,5.4c0,0-6.9,1.1-10.6-1.2c-3.6-2.3-9.6-13.8-9.6-16.6s5.2-10.4,5-26.2 c-0.2-15.9-0.6-38.4,2.9-44.1c3.5-5.7,8.1-10.5,20.5-16.8c12.4-6.4,21-4.8,21-4.8s-10.4,4.2-11.7,9.6c0,0,15-2.2,21.9,9.8 c6.9,12,11,22,14,39.3c3,17.4,1.7,23.5,7.1,34.9c5.4,11.4,6.2,21.9,18.5,20.7c12.3-1.1,17.7-19.2,16.4-33.4 c-1.3-14.2-6.7-39.4-18.7-59.6c-12-20.2-32.3-52.5-38.3-60.5c-6-8-5.8-9.2-6.2-13.8c-0.4-4.7-3.7-37.2,2.8-48.8 c0,0-0.7,17.4,6.5,28c0,0,20-22,56-40.5c36.1-18.5,86.1-34.4,86.1-34.4S257.2,13.8,240.4,22C223.6,30.3,186,52.1,175,61.3 c-11,9.2-18.3,18.5-18.3,18.5s40.5-13.5,59.4-18.3c18.9-4.9,22-5,29.7-3c7.7,2.1,56.8,15.1,56.8,15.1s-60.3-9.9-64.8-9.2 c-4.5,0.7-72.3,22.6-73.6,23.5c-1.3,0.9,5,2.1,12.5,3.5c7.5,1.5,43.9,9,50.3,12.3c6.4,3.4,68.4,37.7,68.4,37.7s-65-29.9-69.9-31.4 c-4.9-1.5-60.2-17.9-65.8-16.3c-3.2,0.9-4.3,4.3-4.7,6.4c-0.4,2.1,15.1,29.7,23.9,44.3c8.8,14.6,24.5,46.9,31.2,64.1 c6.7,17.2,12.3,31.4,11.8,42.2c-0.6,10.8-3.2,33.3,12.3,47.3c15.5,14,41.7,22.6,54.9,22.6c13.3,0,27.1-0.6,37.9,7.1 c10.8,7.7,14.9,13.8,14.9,23.9c0,10.1-11.2,23.4-15.1,31.9c-3.9,8.6-32.3,63.9-33.1,67.3c-0.7,3.4,5,19.4,6.7,23.9 c1.7,4.5,11.8,24.7,12.9,25.8l-13.6,10.8c0,0-2.8-7.7-3.4-11.2c-0.6-3.5,0-11-4.1-20.5c-4.1-9.5-13.3-27.6-14.2-29 c-0.9-1.3-1.1-3.4-0.9-5.8c0.2-2.4,1.9-4.1,3.2-7.5c1.3-3.4,10.3-22.8,13.3-33.8c3-11,5-20.5,4.1-26.5c-0.9-6-4.5-11.2-4.9-13.6 c0,0-1.7-3.2-16.6-5.6c-14.9-2.4-28.6-3.5-32.7-2.4c-4.1,1.1-23,12.9-28,16.4c-5,3.5-9.9,6-20.4,5.6c-10.5-0.4-27.1-6.4-32.3-6 c0,0,1.3,10.1,0.6,11.8c-0.7,1.7-5,3.7-9.2,1.1c-4.1-2.6-52.5-40.9-55.9-42.8c-3.4-1.9-4.3,1.7-4.3,3.2c0,1.5-3,14.8-3.9,19.6 c-0.9,4.9-1.5,10.6,0,15.3c1.5,4.7,5.4,11.6,5.4,11.6s-3.9,11-4.1,12c0,0-8.6-11.2-9.3-19.2c-0.7-8-2.8-28.8-3.7-34.9 c-0.9-6.2-2.4-18.5-2.2-19.8c0.2-1.3,2.2-3.4,3.9-4.7c1.7-1.3,6.4-3.5,12.7-2.1c6.4,1.5,26.2,8,28.6,8c0,0-0.7-16.6-0.7-18.3 c0-1.7,4.9-11.6,7.7-15.5c2.8-3.9,6.2-11.2,6-13.6c-0.2-2.4-2.8-5-2.8-6.5c0-1.5,5.4-4.9,6.5-6.4c1.1-1.5,4.5-6,2.6-9.3 c-1.9-3.4-5.6-15.5-5.6-27.8c0-12.3-0.7-17.6-5-20.4c0,0-4.9,4.5-8,7.1c-3.2,2.6-7.1,6.7-7.3,10.6c-0.2,3.9-0.7,17.6-3.4,19.6 C108.7,252.2,104.8,252.6,104.8,252.6z"/><path class="st3" d="M105.3,200.7c0,0-2-2-1.3-6c0.7-3.9,5.1-7.5,5.1-7.5s-0.9,3-0.8,3.8c0.1,0.8,0.7,3.8-0.1,5.9 C107.5,199.1,105.3,200.7,105.3,200.7z"/><g><path class="st2" d="M400.6,345.1c-19.9,0-46.9,1.9-65.4,0.2c-0.3,0-0.7-5.6-0.7-5.9c0-0.3,0.3-0.5,0.6-0.5 c25,2.3,65.7,3.8,82.9,2.4c20.7-1.6,54.8-9.8,64.1-25.6c9.6-16.2,6.1-27.4,2.7-34.5c-4-8.2-18-32.2-35.1-44.8 c-0.2-0.2-0.3-0.5-0.1-0.8c0.2-0.2,0.5-0.3,0.8-0.1c17.3,12.7,31.5,37,35.5,45.2c3.5,7.3,7.9,19.2-1.9,35.8 c-10.3,17.5-47.4,26.5-65.4,27.9C414.1,344.8,407.6,345.1,400.6,345.1z"/></g><path class="st1" d="M137.4,371.6c1.3-0.6,2.1-1.6,2.3-3.1c1.4-10.1-4.5-25.8-20.9-38.3c-6.2-1.6-20.7-6.3-26-7.5 c-6.4-1.5-11,0.7-12.7,2.1c-0.9,0.7-1.9,1.6-2.6,2.5c5.9,1.3,13,5.9,17.6,14.8c0.7-0.8,1.7-1.1,3.3-0.2 C100.6,342.9,121.7,359.4,137.4,371.6z"/><path class="st1" d="M157.3,278.9c-15.7,5.2-22.6,13.5-24.3,29.5c-1.5,14.4-2.6,18.7,5.3,31.5c6.6,10.7,17.8,27.4,17.5,17.4 c-0.4-10-1.9-20.4,3-39.3c4.9-18.9,12.7-30.6,9.3-34.7C164.7,279.2,157.3,278.9,157.3,278.9z"/><g><path class="st1" d="M104.8,253.1c0-0.3,0-0.5,0-0.5s3.9-0.4,6.5-2.4c2.6-2.1,3.2-15.7,3.4-19.6c0.2-3.9,4.1-8,7.3-10.6 c3.2-2.6,8-7.1,8-7.1c0.7,0.4,1.2,0.9,1.7,1.5c6.8-13.6-6.7-39.6-6.7-39.6c-4.1,3.4-20.5,60.4-20.8,69.8 C104.1,247.3,104.3,250.3,104.8,253.1z"/></g><path class="st1" d="M179.2,264c-0.1-0.8-0.3-1.8-0.5-3.1c-4.9-3.3-6.4-11-10.3-19c-5.4-11.4-4.1-17.6-7.1-34.9s-7.1-27.3-14-39.3 c-1.3-2.2-2.9-4-4.5-5.3c-8.5,14.6-7.3,21.3-4.9,29.9c2.6,9.4,7.8,29.1,7.4,37.4c-0.4,8.2,6.5,29.3,13.3,34.1 C165.3,268.4,180.7,273.8,179.2,264z"/><path class="st1" d="M289.2,320.7c-13.3,0-39.4-8.6-54.9-22.6c-3.8-3.4-6.5-7.4-8.4-11.6c1.2,18.5,9.9,40.6,54.5,41.8 c20.5,0.5,30.5-2.3,35.2-5.7C307.2,320.5,298,320.7,289.2,320.7z"/><path class="st1" d="M308.6,337.2c-10.1-7.5-9.4-6.9-13.9-1.3c-3.4,4.2-4.4,16.4-3.9,26.1c1.7,0.9,2.1,1.6,2.1,1.6 c0.4,2.4,3.9,7.7,4.9,13.6c0.9,6-1.1,15.5-4.1,26.5c-3,11-12,30.4-13.3,33.8c-0.4,1.1-0.9,1.9-1.3,2.8c3.9,0.9,8.9-1.6,11.6-6.3 c4.1-7.1,11.2-20.5,18.7-31.8s12.5-19.4,10.1-27.1S318.7,344.6,308.6,337.2z"/><path class="st4" d="M130,212.8c0.5,0.4,1,0.7,1.5,1.2c1.4-1.8,4.2-5.9,3.5-11c-1-6.7-5.3-17.9-5.3-17.9c1.9,9.6,4.6,22.8,0,28 C129.9,212.9,130,212.8,130,212.8z"/><path class="st4" d="M140.9,203.8c0,0,3.5,13.7,3.9,22.3c0.4,8.5,3.1,27.2,10.8,34.6c0,0-4-6.4-5.3-11.9 c-0.9-3.8-3.9-15.3-3.9-23.2C146.3,217.7,140.9,203.8,140.9,203.8z"/><path class="st4" d="M126.9,335.6c-1-1.5-4.1-5.3-5.6-7.4c0.1,1.5,0.1,2.5,0.1,2.5c-0.5,0-1.6-0.3-3.2-0.7 c5,4.9,11,10.9,12.6,11.6C132.5,342.3,128.2,337.6,126.9,335.6z"/><path class="st4" d="M133.9,302.4c-1.2,5.9-4.4,21.6-4,24.8s12.7,19.2,12.7,19.2s-10-16.2-9.9-20.5 C132.8,321.7,133.9,302.4,133.9,302.4z"/><g><path class="st4" d="M200,361.8c-2.4-7.8-3.5-24.7-3.5-24.7c-1.4,7.6,1.5,26.9,3.4,33.9c0.7,2.5,1.3,4.6,1.9,6.3 c2.1-0.2,3.8-0.6,5.5-1.1C204.9,372.6,201.5,366.7,200,361.8z"/><path class="st4" d="M211.3,362.5c-3.2-4.9-3.7-14-3.7-14s-1.5,6.9,0,12.6c1,3.8,4.4,8.7,6.6,11.7c0.4-0.3,0.9-0.6,1.3-0.9 c0.6-0.4,1.3-0.9,2.2-1.5C215.9,368.4,213.2,365.4,211.3,362.5z"/><path class="st4" d="M196,377.5c-1.1-3-2.5-6.8-3.9-10c-2.8-6.3-2.9-29.6-2.9-29.6s-1.1,1.3-1.3,15.3c-0.1,9,2.2,18.4,3.9,23.9 c1.2,0.1,2.3,0.2,3.3,0.3C195.5,377.5,195.8,377.5,196,377.5z"/><path class="st4" d="M165.1,331.4c-1.8,7.8,0,35.2,0.4,40.3c0.8,0.1,1.7,0.3,2.6,0.5c-0.2-5-0.9-20.7-0.9-30.5 c0-11.8,3.2-26.2,3.2-26.2S167.1,322.9,165.1,331.4z"/><path class="st4" d="M216.8,354.3c-0.7,3.8,2.5,10.3,4.4,13.9c0.6-0.4,1.2-0.7,1.8-1.1C219.7,362.2,216.8,354.3,216.8,354.3z"/><path class="st4" d="M163,372.5c-0.1-0.6-0.1-1-0.1-1c0.6,0,1.4,0,2.3,0.1c-5.3-12.2-7.6-33.2-6.9-42.2 c0.7-9.2,9.8-39.1,9.8-39.1s-9.5,18.8-12,38.2C153.5,348.1,160.9,364.5,163,372.5L163,372.5z"/><path class="st4" d="M177.3,344.9c-0.4-5.5,1.8-20.5,1.8-20.5s-2.2,4.3-3.5,13.5c-0.9,6.7,0.8,26.6,1.8,36.5 c1,0.2,2.1,0.5,3.1,0.7C179,366.2,177.6,349.2,177.3,344.9z"/></g><path class="st4" d="M241.2,318c8.3,5.7,15.8,8.3,20.5,9.2c4.6,1,24.4,1.1,24.4,1.1s-16.7-1.7-24.2-3.5 C254.2,323,241.2,318,241.2,318z"/><path class="st4" d="M292.9,363.5C292.9,363.5,292.5,362.6,292.9,363.5c-2.7-6.3-0.6-17.5,0-24.3c0,0-1.5,3.3-2.7,9 c-0.7,3.5-0.5,9.3-0.3,13.3C292.4,362.7,292.9,363.5,292.9,363.5z"/><path class="st1" d="M146.4,109.1c0.5,0.7,1.1,1.5,1.7,2.4c0.2-1,0.2-2.2,0.1-3.7c-1.9-17.6,10.2-17.9,13.5-19.1 c0.4-0.1,1.2-0.4,2.3-0.6c0,0,0-0.1,0.1-0.1c0.5-0.3,10-3.5,22-7.4c-4,0.2-8.7,0.6-14.1,1.1c-15.4,1.5-19.7,7.8-18.5,3.4 c0.3-1.1,1.6-3.1,3.5-5.3c-0.2,0.1-0.3,0.1-0.3,0.1s6-7.7,15.3-15.9c0,0,0.1-0.1,0.1-0.1s-5.5,1.8-10.3,4.8 c-4.8,3-11.2,10.8-13.5,9c-4.6-3.7-6.3-16.2-5.1-27.4c-0.1-2.2,0-3.6,0-3.6c-6.5,11.6-3.2,44.1-2.8,48.8 C140.6,99.9,140.5,101.1,146.4,109.1z"/></g></g></svg> 