<svg version="1.1" id="Ebene_1" xmlns="http://www.w3.org/2000/svg" xmlns:xlink="http://www.w3.org/1999/xlink" x="0px" y="0px"
	 viewBox="0 0 512 512" style="enable-background:new 0 0 512 512;" xml:space="preserve">
<path fill="#CB1C9B" d="M509,265.6c0-2.7-0.7-3.5-3.4-3.5c-19.2,0.1-38.5,0-57.7,0.1c-3.1,0-4.1-0.8-3.9-4c0.6-15.8-0.5-31.5-4.3-46.9
	c-12.7-51.5-44.3-88.7-88.8-115.8c-15.4-9.3-31.8-15.7-49.1-19.4c-14.6-3.9-29.9-6-45.7-6c-18.3,0-35.9,2.8-52.5,7.9
	c-49.2,13.4-85.4,44.2-112.4,87.1c-1.1,1.8-2.1,2.8-4.5,2.9c-13.8,0.4-27.5,1.6-41.1,4.3c-8.6,1.7-17.3,3.5-24.7,8.7c0,0,0,0,0,0
	c-1.1,0.3-2,1.1-2.7,2c0,0,0,0,0,0c-0.2,0.2-0.4,0.4-0.7,0.7c0,0,0,0,0,0c-0.2,0.2-0.4,0.4-0.5,0.6c-0.2,0.2-0.6,0.4-0.7,0.6
	c-0.7,1-2.2,2-0.8,3.3c1.2,1.1,2.1-0.4,3-1.1c4.5-3.5,9.7-5.3,15-7c15.8-5.1,32.1-5.1,48.4-4.6c1.1,0,2.4-0.4,3.4,0.6
	c-3.2,6.9-6.1,13.9-8.5,21.1c-6.6,19.9-9.1,40.4-8.4,61.3c0.1,2.7-0.7,3.5-3.4,3.4c-19.4-0.1-38.7,0-58.1-0.1
	c-2.9,0-3.9,0.6-3.9,3.7C3.1,306.4,3,346.9,3,387.5c0,4.7-0.6,4.2,4.1,4.2c38.8,0,77.6,0,116.4,0c1.9,0,3.4,0.4,4.9,1.8
	c21.5,20.3,46.6,34.2,75.2,41.9c26.4,7,53.3,7.7,80.2,4.6c38.1-4.3,71.2-19.9,99.4-46c1.7-1.6,3.4-2.3,5.7-2.3
	c38.8,0.1,77.6,0,116.4,0.1c2.9,0,3.6-0.7,3.6-3.6C508.9,347.3,508.9,306.5,509,265.6z"/>
<g>
	<path fill="#020001" d="M244.8,391.1c0,0,0.1-0.1,0.1-0.1L244.8,391.1z"/>
	<path fill="#020001" d="M447.3,340.5c-1.6-2.8-3.3-5.6-4.9-8.4c-0.1-0.3-0.3-0.5-0.4-0.7c-0.3-0.4-0.5-0.8-0.7-1.2
		c-1.2-2.3-0.7-2.7,2.2-4.8c0,0,0,0,0,0c0.2-0.2,0.6-0.4,0.4-0.7c0,0-0.1-0.1-0.2-0.1c-0.1,0-0.4,0.3-0.6,0.4
		c-3.9,1.9-8.1,2.3-12.4,2.3c-1.7,0-2.3-0.5-2.2-2.3c0.2-4.3,0.4-8.7,0.2-13c-0.2-2.8,1.2-3.5,3.4-3.7c4.3-0.4,8.5-0.3,12.4,2
		c0.1-1.9-1.2-2.1-2.1-2.4c-3.9-1.4-7.9-1.2-12-0.6c-2.8,0.4-3.1,1.4-3.1,3.8c-0.1,8.9,0.4,17.8-0.4,26.7c-0.1,1-0.6,2.4,1.5,2.8
		c0-1.4,0-2.6,0-3.7c0-8.3,0-8.2,8.2-8.5c2-0.1,2.9,0.7,3.8,2.2c1,1.8,1.9,3.6,3,5.4c0.3,0.4,0.5,0.9,0.8,1.3
		c0.8,1.3,1.8,2.5,2.9,3.6c0,0,0,0,0,0c0,0.2,0.1,0.3,0.2,0.4c0,0,0.1,0.1,0.2,0.1c0.1,0,0.1,0,0.2-0.1c0,0-0.1-0.3-0.2-0.5
		C447.4,340.7,447.4,340.6,447.3,340.5z"/>
	<path fill="#020001" d="M18,185c0.8,1,1.5,0.4,2.2-0.1c7.4-4.8,15.8-6.8,24.3-8.5c12.5-2.5,25.2-2.4,37.9-2c4.8,0.1,4.8,0.1,6.4-4.9
		c-16.1,0.3-32,1.9-47.6,5.4c-6.7,1.5-13.1,3.7-19.2,6.8c-0.1-0.2-0.3-0.3-0.4-0.5c0,0,0,0,0,0c-1.1,0.3-2,1.1-2.7,2c0,0,0,0,0,0
		c-0.2,0.2-0.4,0.4-0.7,0.7c0,0,0,0,0,0c-0.2,0.2-0.4,0.4-0.5,0.6C17.7,184.7,17.8,184.8,18,185z"/>
	<path fill="#020001" d="M499.7,275.5c0-2.8-0.6-3.7-3.5-3.7c-19.6,0.1-39.1,0-58.7,0.1c-2.2,0-3-0.4-2.9-2.8
		c0.3-5.5,0.3-11.1,0.2-16.6c-0.1-24.9-5.2-48.8-16.6-70.8c-32.6-62.6-84.3-96.5-155-99.7c-49.6-2.2-93.1,13.9-129.7,47.9
		c-11.9,11.1-22.2,23.5-30.9,37.9c2.7,0.2,5,0.1,7.2,0.4c2.4,0.3,3.7-0.5,5-2.5c6.2-9.6,13.2-18.7,21.6-26.5
		c41.2-38.1,89.5-55.4,145.4-47c57.7,8.7,100.5,39.5,127.2,91.6c10.9,21.2,16.3,44,17.5,67.8c0.3,5.5-0.1,11-0.8,16.5
		c-0.5,3.6-1.4,4-4.5,4c-49.5-0.1-98.9-0.1-148.4,0c-4,0-8,0.8-11.9,1.5c-3.2,0.5-6.6-0.2-9.6,1.8c-0.2,0.1-0.8-0.4-1.2-0.4
		c-3.5-0.2-6.3-2.9-9.9-2.9c-17.9,0-35.9,0-53.8,0c-2.3,0-4.1,0.6-4.2,3.3c-0.1,1.5-1.3,2.5-2.4,1.8c-2.7-1.6-6.5-0.4-8.4-3.6
		c-0.3-0.5-0.8-0.8-1.3-0.2c-1.5,1.9-4.3,2-5.6,4.2c-1,1.6-2.4,1.8-3.2-0.6c-0.8-2.5-4.6-4.9-7.3-4.9c-20.9,0-41.7,0-62.6,0.1
		c-2.4,0-3.7-0.6-3.7-3.2c-0.2-12.3-0.6-24.5,1.4-36.7c3-18.3,8.4-35.8,17.2-52.2c0.4-0.7,1.2-1.3,0.6-2.4c-0.6-0.1-1.3-0.2-1.9-0.2
		c-9.2-1.1-6.7-2.3-10.5,5.6c-12.8,26.9-17.4,55.4-15.7,85c0.2,3.1-0.7,3.8-3.7,3.8c-19.3-0.1-38.7,0-58-0.1c-3,0-3.8,0.7-3.8,3.8
		c0.1,34.2,0.1,68.5,0,102.7c0,3,0.7,3.7,3.7,3.7c37.3-0.1,74.6-0.1,111.9-0.1c2.1,0,3.6,0.5,5.2,2c15.2,14.4,32.6,25.7,51.9,33.8
		c30.6,12.9,62.4,16.5,95.2,12.4c37.7-4.7,70.5-20.3,98.3-46.2c1.6-1.5,3.1-2,5.1-2c37.2,0,74.4,0,111.5,0.1c2.8,0,3.7-0.5,3.7-3.5
		C499.6,344.2,499.6,309.9,499.7,275.5z M63.3,307.1c-3.6,12.1-7.2,24.1-10.7,36.3c-0.7,2.3-1.8,3.2-4.1,3.3
		c-7.7,0.4-7.7,0.5-10.1-6.9c-3.7-11.5-7.3-23-11-34.4c-0.5-1.6-0.6-2.4,1.5-2.4c2.5-0.1,5-0.4,7.4-0.9c2.5-0.4,3.7,0.3,4.4,2.8
		c1.4,5.5,3.2,11,5.1,17.3c3-5.9,4-11.2,5-16.5c0.6-3.1,2-4,4.8-3.5c1.6,0.3,3.2,0.4,4.9,0.6C64.4,303.3,64.5,303.4,63.3,307.1z
		 M81,319c3.2,0.2,6.3,0.4,9.4-0.1c0.9-0.1,1.7-0.4,2.1,0.8c0.7,2.6,1.6,5.2,2.2,7.8c0.4,1.8-0.2,2.8-2.4,2.7c-3.5-0.1-7,0-10.4-0.1
		c-1.8-0.1-2.9,0.3-2.9,2.4c0,2,0.3,3.3,2.7,3.4c3.9,0.2,7.8,0,11.7-0.2c3.4-0.2,3.8,0.2,2.9,3.7c-1.9,7.2-1.9,7.2-9.5,7.2
		c-5,0-10-0.2-15,0.1c-3,0.2-4.2-0.5-4.1-3.8c0.3-6.1,0.1-12.2,0.1-18.3c0,0,0,0,0,0c0-6.3,0.1-12.6,0-18.9c0-2.1,0.8-2.9,2.8-3.1
		c7.5-0.6,15,0.2,22.5-0.6c1.2-0.1,1.5,0.7,1.6,1.6c0.7,3.2,1.3,6.4,1.9,9.6c0.4,1.9-0.4,2.3-2.1,2c-4.4-0.8-8.8-1.2-13.3-1.1
		c-1.5,0-2.6,0.3-2.6,2.1C78.7,317.6,79,318.9,81,319z M126.1,335.8c-1.1,3.2-2.2,6.3-3.3,9.5c-0.4,1.3-1.4,1.2-2.3,1.2
		c-6.1,0-12.2,0-18.2,0.1c-1.7,0-2.3-0.6-2.1-2.3c1.3-13.2,0.9-26.5,0-39.7c-0.1-2.2,0.4-2.9,2.7-2.7c2.7,0.3,5.4,0.4,8.1,0.3
		c2.2-0.1,3.1,0.6,3,2.9c-0.2,4.4-0.1,8.9-0.1,13.3c0,4.2,0.2,8.5-0.1,12.7c-0.1,2.6,0.9,3.3,3.2,3.1c2.4-0.2,4.7-0.4,7.1-0.8
		C125.8,333.5,126.8,333.7,126.1,335.8z M308,343.4c0.2-6.4,0.1-12.8,0.1-19.2c0.1,0,0.3,0,0.4,0c0-6.4,0-12.8,0-19.2
		c0-2,0.2-2.9,2.7-2.7c5,0.4,9.9,0.4,14.9,1.3c6.1,1,9.8,8.2,10.5,13.5c0.8,6.3-1.8,11.3-7.1,14.2c-2,1.1-4.2,1-6.3,1.2
		c-1.7,0.1-2.5,0.8-2.6,2.6c-0.3,2.9-0.2,5.9,0.1,8.8c0.3,2.6-0.6,3.2-3,2.9c-2.3-0.3-4.6-0.5-6.8-0.4
		C308.6,346.2,307.9,345.6,308,343.4z M263.1,343.3c2.5-8.7,5.8-17.1,8.7-25.6c1.4-4,3-7.9,4.1-12c0.7-2.8,2-4,4.9-3.5
		c0.9,0.2,1.9,0,2.9,0c4.4,0,5.7,0,6.9,2.1c0.1,0.1,0.1,0.3,0.2,0.4c0.4,0.8,0.8,2,1.3,3.5c4,11.6,7.8,23.2,11.1,35
		c0.7,2.4,0.4,3.5-2.3,3.2c-1.5-0.2-3.1-0.2-4.6,0c-3.9,0.6-6.6-0.5-7.1-4.9c-0.2-1.4-1.1-1.3-2.1-1.2c-1.8,0.1-3.7,0.3-5.5,0.1
		c-3.5-0.4-6.2-0.2-6.5,4.3c-0.1,1.5-1.3,1.8-2.6,1.7c-2.4-0.1-4.8-0.3-7.2-0.1C262.7,346.6,262.5,345.4,263.1,343.3z M223.6,343.7
		c1.1-12.2,0.5-24.5,0.5-36.8c0-2.4,0.4-3.4,3.1-3.5c4.3-0.1,8.6-1,12.9-1.3c10.9-0.7,18,7,16.4,17.8c-0.5,3.1-2.6,5.3-4.8,7.2
		c-2,1.9-2,3.5-0.7,5.6c2.1,3.4,4,6.9,6.1,10.4c1.4,2.4,0.4,3.2-2,3.4c-4.9,0.5-9.1,0-11.4-5.4c-1.4-3.2-3.6-6.1-6.5-9.2
		c-1.1,4.2-0.8,7.8-0.9,11.3c-0.1,2-0.6,2.9-2.8,2.8c-2.5-0.2-5-0.1-7.5,0C224.1,346.2,223.4,345.6,223.6,343.7z M207.3,302.4
		c2.9,0,5.9-0.3,8.8-0.4c2.1-0.1,3,0.6,3,3c-0.2,6.4-0.1,12.8-0.1,19.2c0,0-0.1,0-0.1,0c0,6.4-0.1,12.8,0,19.2
		c0,1.7-0.1,2.6-2.1,2.7c-3,0.2-6,0.8-9.1,0.5c-1.7-0.2-2.4-0.9-2.3-2.7c0.7-13,1-26.1-0.1-39.1
		C205.1,303.1,205.5,302.4,207.3,302.4z M174.4,325.7c0.1-10.3,7.3-20.2,16.7-23.3c2-0.7,3.7-0.7,5,1.5c1.2,2.2,2.7,4.2,4.2,6.2
		c1.4,1.8,0.8,2.7-1.1,3.2c-3.6,1-6.5,2.9-9,5.6c-3,3.1-3.2,5.7-1,9.4c2.3,4,6.1,6.1,10.2,7.6c1.7,0.6,2,1.2,1.1,2.7
		c-1.3,2.1-2.6,4.2-3.8,6.4c-1,1.8-2.5,2.1-4.1,1.4c-7.2-3.5-13.6-7.8-16.9-15.5C174.8,329.1,174.1,327.3,174.4,325.7z M131,317.3
		c4.2-16.6,19.7-18.5,30.5-12.5c6.4,3.6,8.9,10.3,9,16.8c-0.4,8.3-1.5,15.4-7.4,20.8c-3.2,2.9-6.7,4.3-11.1,4.3
		C133.8,346.6,128,329.5,131,317.3z M265.5,422.8c-45.4,2.4-85.7-11.4-120.6-40.7c74.1,0,148.1,0,222.2,0
		C337.7,407,303.8,420.7,265.5,422.8z M372.4,305.3c-0.7,2.8-1.4,5.7-1.9,8.6c-0.3,2-1.1,2.4-3,2c-4.4-1-4.6-0.9-4.9,3.7
		c-0.5,8-0.7,16.1,0.2,24.1c0.3,2.4-0.1,3.4-2.8,3.2c-2.7-0.2-5.4-0.2-8.1,0c-2.4,0.2-3.2-0.4-2.9-3.1c1-8.7,1.2-17.5,1.1-26.3
		c0-2.8-1.2-3.3-3.6-3c-6.6,0.7-6.6,0.7-4.9-5.8c1.7-6.5,1.7-6.4,8.3-5.8c2.7,0.2,5.4,0,8.1,0c0,0.1,0,0.1,0,0.2
		c4.1,0,8.3,0.1,12.4,0C372.4,302.7,372.9,303.5,372.4,305.3z M409.8,342.1c-3.3,3.4-7.1,4.6-12,4.5c-2.3,0-4.5-0.4-6.4-1
		c-0.8-0.2-1.5-0.5-2.2-0.8c-0.6-0.3-1.2-0.6-1.7-0.9c-0.2-0.1-0.3-0.2-0.5-0.3c-7.2-4.3-10.4-12.8-10.3-20.2c0-2.3,0.2-4.5,0.8-6.7
		c0.1-0.3,0.2-0.6,0.3-0.9c4.7-15.3,19.7-16.3,29.8-11.3c4.6,2.2,7.1,6.7,8.2,11.3C418.1,325.3,417.1,334.5,409.8,342.1z
		 M452.1,346.7c-4.8,0.6-8.6-0.5-10.8-5.4c-1.2-2.7-3.3-5.1-5.1-7.6c-0.3-0.4-0.9-0.9-1.3-0.8c-0.9,0-0.8,0.9-0.8,1.5
		c-0.2,2.9-0.5,5.9-0.4,8.8c0.1,2.5-0.9,3.3-3.3,3c-0.5-0.1-1.1-0.1-1.6-0.1c-0.5,0-1.1,0-1.6,0c-1.6,0-2.8,0-3.6-0.1
		c-0.5-0.1-0.9-0.2-1.2-0.3c-0.2-0.1-0.4-0.2-0.5-0.4c-0.1-0.1-0.2-0.2-0.2-0.3c0-0.1-0.1-0.1-0.1-0.2c-0.1-0.1-0.1-0.3-0.1-0.5
		c-0.2-0.9-0.1-2.3,0-4.4c0.6-11.1,0.2-22.2,0.2-33.3c0-2.3,0.4-3.2,3-3.3c4.2-0.1,8.4-1,12.6-1.3c10.9-0.8,17.5,5.9,16.9,16.8
		c-0.2,3.8-2.7,6.1-5.1,8.4c-1.7,1.7-1.9,3-0.7,5c2.1,3.4,4.2,6.9,6,10.4C456,345.9,455.6,346.3,452.1,346.7z M479.8,305.8
		c-0.7,0.8-1.5,1.6-2.1,2.4c-3.5,4.4-4.7,9.1-1.8,14.4c1.9,3.4,3.8,6.9,3.9,11.6c-0.9,4.6-3.1,9.2-7.2,12.8
		c-0.6,0.5-1.2,0.8-2.1,0.5c-2.8-1.1-5.7-2-8.6-3.1c-1.7-0.6-2.1-1.4-0.7-3c1.8-2,3.3-4.3,3.9-7.1c0.7-3.2-0.1-6.2-1.9-8.7
		c-7.2-9.9-2-16.8,3.9-23.7c0.3-0.4,0.9-1,1.3-0.9c3.9,0.8,7.8,1.7,11.7,2.8C480.9,304.2,480.4,305.2,479.8,305.8z"/>
	<path fill="#020001" d="M101.6,176.2c27.7,3.4,52,10.2,74.5,20.9c5.8,2.8,11.5,6.1,17,9.3c2,1.2,4,2.3,6,3.5c1.3,0.7,2.2,0.9,3,0.6
		c0.8-0.3,1.4-1.1,1.8-2.4c0.1-0.4,0.3-0.8,0.4-1.2c1.3-3.6,2.6-7.4,2.2-11.5c-0.2-1.5-0.1-3.1-0.1-4.6c1.4,6.7,0.8,11.1-1.9,17.5
		l-0.1,0.3c-0.7,1.6-1.4,3.3-3.4,3.5c-5.2,0.4-8.4,3.2-9.8,8.6c-0.8,3-1.9,5-3.7,6.5c-2.7,2.2-6,4.7-10,5.6c-1.6,0.4-3.3,1-4,2.9
		c-1.6,4.4-3.9,8.7-6.1,12.8c-3.6,6.5-7.2,13.2-8.2,21.1c0,0.2-0.1,0.4-0.1,0.6c-0.2,1.8-0.5,3.5,1.7,4.2c0.3,0.1,0.8,0.2,1.2,0
		c0.4-0.3,0.3-0.8,0.3-1.3c0-0.2,0-0.4,0-0.6c0-0.1,0-0.1,0-0.2c0-0.1,0.1-0.2,0.3-0.2l0,0c0,1.5,0,3.1,0,5.4
		c2.4-2.5,2.7-4.8,2.6-7.2c0.6,0.5,0.5,1.2,0.4,2c-0.1,0.7-0.2,1.5,0.2,2.2l0.2,0.3l0.3-0.1c0.3-0.1,0.5-0.2,0.8-0.4
		c1.2-0.5,2.7-1.1,1.9-3.3l0.3-0.3c0.3,0.1,0.5,0.1,0.7,0.2c0.7,0.3,1.4,0.9,2,1.8c0.8,1.2,1.7,2.2,3,2.2c0.5,0,1-0.1,1.6-0.4
		l0.4-0.2l-0.3-0.3c-0.6-0.6-0.8-1.4-1.1-2.2c-0.5-1.3-1-2.7-2.6-3.5c-0.4-0.2-0.6-1-0.9-1.7c-0.1-0.3-0.2-0.6-0.3-0.8
		c1.7-0.9,1.4-2.3,1.1-3.5c-0.1-0.5-0.3-1-0.2-1.5c0.3,0.6,0.5,1.2,0.7,1.8c0.4,1.4,0.8,2.9,2.5,3.4c3,1,4.8,2.9,6.1,6.6l0.4,1.2
		l0.2-1.3c0.3-2.2,1.7-3.8,2.9-5.4c0.8-0.9,1.6-1.9,2.1-3l0.1-0.2l0,0c0.3-0.1,0.7,0,1.1,0c0.7,0.1,1.5,0.1,2.1-0.4
		c0.2-0.2,0.3-0.3,0.4-0.5c0.1-0.2,0.2-0.5,0.2-0.8c0.9,0.1,1.4,0.8,1.9,1.5c0.3,0.4,0.6,0.8,0.9,1.1c0.1,0.1,0.2,0.1,0.2,0.2
		c0.1,0.1,0.2,0.1,0.3,0.2l0.5,0.3l0-0.6c-0.3-4.3-1.7-7-4.4-8.7c-0.4-0.3-0.8-0.8-1.2-1.3c-0.9-1.1-2-2.5-3.9-1.2
		c-1.6,1.1-3.1,3.2-3.6,5.1c-0.6,2-1.7,3-3.2,4.3l-0.4,0.3c-0.5,0.4-1.2,0.9-1.7,0.8c-0.4-0.1-0.8-0.7-1-1.6
		c-2.4-8.7-0.7-15.2,5.3-20.5c3.2-2.8,6.7-5,10.6-6.5c0.6-0.2,1.2-0.5,1.8-0.7c2-0.8,4.2-1.5,6-2.7c4.3-2.8,9.1-4.6,14.6-5.6
		c4-0.7,6.7-2.9,8.2-6.6c1.4-3.3,3.4-6.3,6-8.7l0.5-0.6c3-3.5,6.1-7.2,8.4-11.3l1.6-3.3c-0.1,1.5-0.8,2.5-1.5,3.5l-0.1,0.1
		c-0.3,2.1-1.6,3.6-3,5.1l-0.3,0.4c-0.5,0.5-1,1.1-1.4,1.8c-0.8,1.1-1.8,2.1-2.7,3.1c-0.5,0.5-0.9,0.9-1.4,1.4l-0.1,0.2
		c-1.6,2.2-3.3,4.4-4.7,6.8c-0.5,0.9-1,1.7-1.4,2.5c-0.5,1.1-0.7,1.8-0.5,2.4c0.3,0.8,1.1,1.2,1.9,1.6c2.2,1,3.7,0.4,4.8-1.9
		c0.2-0.5,0.4-1,0.6-1.5c0.1-0.4,0.3-0.8,0.4-1.1c0.5-1.2,1.2-2.4,2.4-3.3c0.2,1,0.5,2,1,3.1l0,0.1c0.2,0.4,0.4,0.8,0.7,1.2
		c0.1,0.2,0.3,0.4,0.4,0.6c0.5,0.7,1,1.4,1.5,2.1c0.4,0.5,0.7,1,1.1,1.5c0.8,1.1,1.1,2,0.9,2.8c-0.2,0.7-0.7,1.3-1.8,1.8
		c-3.2,1.7-4.3,4.2-3.5,7.7c0.6,2.4,0.7,5.7-1.9,8.2c-1.8,1.7-1.9,3.3-0.5,5.5c2.8,4.1,5.9,9,7.3,14.7c0.3,1.3,1.2,2.5,2.5,3.6
		c1.1,0.9,2.2,1.6,3.2,2.2c2,1.1,4.1,1.7,6.1,1.7c2.5,0,5-0.8,7.7-2.5c0.3,1.3,1,2,2.2,2c0.2,0,0.3,0,0.5,0c0.4,0,0.9-0.2,1.5-0.3
		l0.4-0.1l-0.3-0.4c-0.1-0.1-0.2-0.3-0.4-0.4c-0.2-0.2-0.4-0.3-0.7-0.5c-0.3-0.2-0.5-0.3-0.7-0.5c-0.1-0.1-0.2-0.2-0.2-0.5
		c0.3,0.2,0.5,0.3,0.8,0.4c1,0.4,2,0.4,3.2,0.4c0.1,0,0.1,0,0.2,0.1c0.1,0.1,0.3,0.1,0.4,0.1c0.3,0.1,0.4-0.1,0.4-0.1
		c0.2-0.3,0.2-0.5,0.1-0.6c-0.1-0.3-0.3-0.4-0.6-0.4c-0.2-0.2-0.5-0.4-0.7-0.6l-0.2-0.2c-0.1-0.1-0.2-0.2-0.3-0.3l-0.2-0.2
		c-0.4-0.4-1-0.9-1.7-0.8c-0.6,0.1-1.1,0.5-1.6,1.2l-0.2-0.2l-0.1,0.3c0-0.1,0-0.2,0-0.3c0-0.1,0-0.3,0-0.4c0-0.2-0.1-0.3-0.2-0.4
		c-0.1-0.2-0.3-0.3-0.6-0.3l-0.1,0l-0.1,0.1c-0.4,0.4-0.3,0.9-0.3,1.3c0,0.4,0.1,0.6-0.1,0.7l0-0.1l-0.1,0.1
		c-0.6-2.2-0.5-3.5,1.8-4.4c0.7-0.3,1.2-0.9,1.2-1.6c0-0.7-0.4-1.3-1.1-1.5c-0.5-0.2-0.9-0.5-1-0.8c-0.2-0.4,0.1-1,0.3-1.5
		c0.1-0.1,0.1-0.3,0.2-0.4c0.1-0.3,0.3-0.5,0.5-0.6c0.5-0.2,1.3,0.2,1.8,0.4l0,0c0.9,0.4,1.7,1,2.5,1.5c0.4,0.2,0.7,0.5,1.1,0.7
		l0.2,0.1l0,0c0,0,0.1,0,0.1,0.1c0.2,0.1,0.3,0.2,0.4,0.2l0.3,0.1l0.1-0.2c0.1-0.2,0.2-0.4,0.1-0.6c-0.1-0.2-0.3-0.4-0.5-0.4
		c-1.4-2.1-3.5-3.6-6.5-4.6c-1.9-0.6-3.3-0.5-4.1,0.2c-0.9,0.7-1.3,2-1.2,4.1l-0.4,0.3c-0.1,0-0.2-0.1-0.3-0.2
		c-0.3-0.2-0.7-0.4-0.9-0.2c-0.3,0.2-0.1,0.7,0,0.9c1.1,2.7-0.3,4-1.9,5.4c-0.7,0.6-1.4,1.3-1.9,2.1c0,0-0.1-0.1-0.2-0.2
		c-0.1-0.2-0.2-0.5-0.1-0.8c0.6-0.2,1-0.5,1.3-0.8c0.1-0.1,0.3-0.3,0.4-0.4c0.1-0.1,0.1-0.3,0.2-0.5c0.1-0.4,0-0.8-0.3-1.3
		c-0.1-0.1-0.1-0.2-0.2-0.3c-0.1-0.2-0.3-0.4-0.5-0.7c-2.5-2.8-4.4-6.2-6.2-9.4l-0.8-1.4c-2.6-4.6-2.3-6.8,1.6-10.6l4.3-4.1
		c2.9-2.8,5.9-5.7,8.8-8.6c1.8-1.8,3.7-4.3,1.4-7.9c-0.8-1.3-1.4-2.9-1.9-4.7c-0.3-1.4-0.8-2.3-1.5-2.7c-0.7-0.4-1.5-0.4-2.6-0.1
		c-1.4,0.4-2.9,0.3-4.5,0.1c-1.9-0.2-3.9-0.4-5.8,0.5c-0.8-0.9-1.8-1.3-3-1.3c-0.3,0-0.6,0.1-1,0.1c-0.4,0.1-0.8,0.2-1.1,0.3
		c-0.5,0.1-1.1,0.3-1.6,0.3c0,0,0-0.1,0-0.1c0-0.1,0.3-0.3,0.5-0.3l0.1,0c1.6-0.7,3-0.9,4.3-0.7c9.4,1.8,18.9,0.3,30.8-4.7l0.6-0.3
		c2.2-0.9,3.3-1.4,3.6-2.3c0.4-0.9-0.2-2.1-1.4-4.7c-0.2-0.5-0.4-0.9-0.6-1.4c-0.1-0.1-0.1-0.3-0.2-0.4c0.7,0.8,1.2,1.8,1.8,2.8
		c0.2,0.4,0.4,0.7,0.5,1.1c0.6,1.4,1.1,2.8,1.6,4.7c0.8,2.8,1.8,6.1,3.7,9.1c1,1.6,2,2.4,3.1,2.6c1,0.2,2.1-0.2,3.4-1.2l0.5-0.4
		c5-4,10.1-8.1,12.8-14.4c0.3,1.2,1,2.1,2.1,2.8c2.2,1.5,2.5,3.5,1.1,6.1c-0.7,1.3-1.6,2.5-2.5,3.8c-0.4,0.6-0.9,1.3-1.4,1.9
		l-0.5,0.7l3.6-1l0.3-0.2c0.5-0.3,0.8-0.5,1.1-0.4l-1.2,0.5l-0.1,0.1c-0.8,1-1.9,1.7-3.6,2.4c-0.2,0.1-0.4,0.2-0.6,0.3
		c-0.6,0.2-1.1,0.4-1.7,0.6L295,222l1.2,0.2c2.5,0.4,5.3-0.4,7.7-2.2c2.8-2.1,4.8-8.3,4.8-8.3c-0.1-0.3-0.1-0.2-0.1-0.2
		s1.6,2.7,1.9,4.5c0,0.2,0.1,0.5,0.1,0.7c0.1,0.4,0.1,0.9,0.1,1.4c0.1,1,0.1,2.1,0.1,3.2c0,0.5,0,0.9,0,1.4l0,0.8l0.5-0.5
		c0.2-0.2,0.4-0.4,0.6-0.7c0.3-0.3,0.5-0.7,0.7-1c0.3-0.5,0.7-0.9,1-1.3c0.3-0.2,0.6-0.4,0.9-0.4c-0.3,0.4-0.7,0.8-0.9,1.3
		c-0.5,0.9-0.9,1.9-1.3,2.9c-0.2,0.6-0.4,1.2-0.7,1.7l-0.2,0.1l0,0.3c0,0,0,0.1,0,0.1c0,0.2,0,0.3,0.1,0.3l0.7,1.5l-0.1-1.8l0,0
		c1.7-0.6,2.9-1.7,3.5-3.1c0.5-1.1,0.5-2.4,0-3.5l0.4-0.3c0,0,0.1,0,0.1,0c0.2,0.1,0.3,0.5,0.4,0.9c0.1,0.6,0.3,1.3,1.1,1.4l0.2,0
		l0.1-0.2c1.1-2,0.1-3.4-0.9-4.8c0.4,0.2,0.8,0.2,1.1,0.2c0.7-0.1,1.4-0.6,2.1-1.5c0.2-0.2,0.3-0.4,0.5-0.5c0.3-0.3,0.5-0.4,0.8-0.3
		c0.2,0,0.4,0.1,0.5,0.4c-1,0.4-2,1-2.4,2c-0.3,0.8,0,1.8,0.8,2.9c0.9,1.3,1,2.8,1,4.8l0,0.8l0.6-0.6c2-2.2,1.8-4.4,1.6-6.6
		c-0.1-0.7-0.1-1.3-0.1-1.9l0-0.2l0,0c0-1.3-2.4-7.2-3.6-7.7c-2.8-1.2-5.3-3.1-7.7-4.9c-2.6-2-5.3-4-8.5-5.2c-2.1-0.8-3.6-0.9-4.8,1
		c-2.9,4.8-7.6,6.5-12.2,7.6c0-1.1-0.2-2.2-0.8-3.4c-2.4-4.4-3-9.2-1.9-14.6c0.4-1.9,0.5-3.6,0.4-5.1c-0.1-1.1-0.3-2.1-0.6-3.1
		l-0.2-0.3l0.2,0.2c0.3,0.4,0.5,0.9,0.7,1.3c0.2,0.4,0.3,0.9,0.4,1.3c0.4,2.2,0,4.5-0.5,6.7c-0.1,0.6-0.2,1.1-0.3,1.7
		c-0.6,3-0.3,5.6,0.9,8.9l0.3,0.8l0.3-0.8c3.6-8.5,10-14,16.1-19.2c2.9-2.5,5.8-5,8.5-7.8l0.2-0.3l-0.9-0.8l0.2-0.2
		c1.5,0.8,2.9,1.6,4.2,2.5c0.7,0.5,1.3,1,2,1.5c0.6,0.5,1.3,1.1,1.9,1.7c2.3,2.3,4.4,5,6.1,8.1c2.2,3.9,4.3,6.8,6.8,9.2
		c2.2,2.2,4.7,2.9,7.4,2.2l0.2-0.1l0-0.3c0-0.9-0.4-1.4-0.8-1.7c-0.2-0.2-0.4-0.3-0.5-0.4l-0.1-0.1c-0.1-0.1-0.2-0.2-0.4-0.3
		c-0.1-0.1-0.2-0.2-0.3-0.3c-0.1-0.1-0.3-0.3-0.3-0.4c-0.1-0.2-0.1-0.4-0.1-0.6c0-0.1,0-0.2,0-0.3l1.3-1.3l-0.2-0.2
		c-0.1-0.1-0.1-0.1-0.2-0.2c0,0,0.1,0.1,0.2,0.2l0.1,0c2.9,1.8,3.7,2.3,5,2.1c0.2,0,0.4-0.1,0.7-0.1c0.2-0.1,0.5-0.1,0.8-0.2l1-0.2
		l-1-0.4c-4.7-1.9-7-5.9-9.4-10c-2-3.5-4.1-7.1-7.7-9.6l-0.7-0.5l0.4,1.3c1.3,4.5,2.3,8,4.3,11.2c0.3,0.5,0.5,0.9,0.5,1.3
		c0,0.2,0,0.3,0.1,0.5c0,0.3,0,0.7-0.1,1.1c-0.1-0.1-0.2-0.1-0.3-0.2c-1-0.7-1.8-1.5-2.5-2.5c-0.3-0.5-0.6-0.9-0.8-1.3
		c-0.2-0.4-0.4-0.8-0.6-1.3c-0.2-0.4-0.3-0.9-0.4-1.3c-0.1-0.4-0.2-0.9-0.3-1.4c-0.1-0.5-0.1-0.9-0.1-1.4c-0.4-6.7-3-10.5-8.6-12.3
		c-0.6-0.2-1.2-0.5-1.8-0.8c-0.2-0.1-0.3-0.2-0.5-0.3c0.4-0.3,0.8-0.6,1.1-0.8l0.8,0.7c1.1,1,2.4,1.7,3.6,2.4c1.8,1,3.4,2,4.6,3.6
		l0.2,0.3l0.3-0.3c0.3-0.3,0.6-0.6,0.9-0.9c0.7-0.7,1.3-1.4,1.9-2.1c0.1-0.1,0.3-0.2,0.5-0.3c0.4-0.2,0.8-0.4,0.9-0.9
		c0.1-0.3,0-0.7-0.2-1.1c-0.6-1-1.5-1.4-2.6-1.1c-3,0.8-6.2,1.5-9.6-0.2l-0.7-0.4c0.9-0.3,1.7-0.2,2.6,0.4c1.8,1.1,3.6,0.8,5,0.5
		c2.4-0.6,4.7-1,6.7,1.6c0.7,0.9,2.1,1.4,3.3,1.7l0.3,0.1c5.4,1.8,11,1.1,16.3,0.5c1.4-0.2,2.8-0.3,4.1-0.4c0.5,0,0.9-0.2,1.1-0.5
		c0.3-0.4,0.1-1,0-1.5c-0.6-2.1-1.7-3.5-3.2-4.3c-2.9-1.6-5.6-2.5-8.1-2.7c-5.4-0.5-10.3-2.6-16-6.9c-0.1-0.1-0.3-0.2-0.4-0.3
		c-0.9-0.7-1.9-1.5-3.1-1.1c-1.6,0.5-3.2,0.9-4.9,1.3c0.5-0.3,1-0.6,1.4-1.1l0.3-0.3l-0.4-0.2c-7.6-3.4-14-4.2-20.4-2.5
		c-9.5,2.6-12.6,6.4-13.4,16.4l-0.1,0.8c-0.1,1.3-0.2,2.7-0.5,4c-0.8,3.5-2.5,4.6-6.3,4.3c-3.8-0.3-7.4-1.4-11.3-2.7
		c-9.7-3.2-18.8-2.9-26.9,0.8c-4.6,2.1-9,2.4-13.9,0.8c-3.4-1-6.1-0.7-8.1,1.1c-2.6,2.3-5.6,2.6-8.8,2.8
		c-17.1,1.3-33.8-0.2-49.3-2.1c-2-0.2-4-0.5-6-0.7c-16.7-2-33.9-4.1-51.1-4.6c-2.9-0.1-4.5,0.8-5.9,3.3c-0.8,1.4-1,2.2-0.7,2.7
		C99.2,175.8,100.2,176,101.6,176.2z M164.4,269.4c0,0,0-0.1,0-0.1c0.1,0,0.2,0,0.3,0c0.1,0.1,0.2,0.2,0.3,0.4c-0.2,0-0.5,0-0.7,0
		C164.3,269.6,164.3,269.6,164.4,269.4L164.4,269.4z M163,271.6l-0.1-0.1c-0.2-0.3-0.2-0.5-0.2-0.5c0-0.2,0.2-0.3,0.6-0.3l0.1,0
		C163.5,271.1,163.5,271.5,163,271.6z M163.6,270.3L163.6,270.3c0-0.2,0-0.2,0-0.3c0,0,0-0.1,0-0.1c0,0,0.1,0,0.3,0l0,0
		C163.9,270.1,163.8,270.2,163.6,270.3z M168.8,270.3c-0.2-0.2-0.4-0.4-0.6-0.6c-0.6-0.4-0.9-0.7-0.8-1.3c0,0,0.1-0.1,0.1-0.1
		c0.8,0.2,1.1,0.9,1.4,1.6c0,0.1,0.1,0.2,0.1,0.3L168.8,270.3z M254,261.2l1.4,0.4l0,0c-0.1,0-0.3,0.1-0.4,0.1
		c-0.5,0.1-0.8,0.1-1.1,0c-0.1-0.1-0.2-0.1-0.2-0.2L254,261.2z M313.5,208.8c0.8,0.9,1,2.1,1.2,3.2c0.1,0.4,0.2,0.9,0.3,1.3
		c0,0.1,0.1,0.3,0.1,0.4c-0.6-0.8-0.8-1.7-1-2.8c-0.1-0.7-0.3-1.4-0.5-2l-0.4-0.5L313.5,208.8z M334.5,191.7c0.6-0.1,0.7,0,0.8,0
		c0.1,0.1,0.1,0.4,0,0.8c-0.2,0.1-0.4,0.1-0.6,0.1c-0.3,0-0.3-0.1-0.3-0.2C334.4,192.3,334.4,192.1,334.5,191.7z M333.2,190.4
		c0.3-0.1,0.5-0.1,0.5,0c0.1,0.1,0.2,0.5,0.2,0.9c-0.4,0.1-0.6,0.1-0.6,0.1c0,0-0.1,0-0.1-0.2C333.2,190.9,333.2,190.6,333.2,190.4z
		 M332.3,188.6c0.2,0.2,0.3,0.6,0.3,1.2c-0.2,0-0.3,0-0.4-0.1c-0.5-0.2-0.7-0.6-0.9-1.3C331.8,188.3,332.1,188.4,332.3,188.6z
		 M322,159.3c0.3,0,0.6-0.1,0.9-0.1c1.6-0.1,3.5-0.2,3.6-2c0-1.5-1.5-2.1-3.1-2.5c1.8,0.1,3,1.3,4.2,2.5c0.1,0.1,0.3,0.3,0.4,0.4
		C326.1,159.3,324.4,160.7,322,159.3C322,159.3,322,159.3,322,159.3z M315.7,152.5c0.1,0,0.3,0,0.5,0c0.1,0,0.3,0,0.4,0.1l0.5,0.1
		c0.1,0,0.2,0,0.2,0c-0.2,0-0.4,0.1-0.5,0.1l-0.3,0.1c-0.7,0.1-1.3,0.2-2,0.3C314.7,152.7,315.1,152.5,315.7,152.5z M313.5,154
		l-0.7,1.8C312.7,154.8,312.8,154.3,313.5,154z M308.4,169.5L308.4,169.5l0.9,2l-0.3,0.2c-0.5-0.7-0.7-1.5-0.8-2.4l0-0.1
		c0-0.1,0-0.1-0.1-0.1l0.1,0.1L308.4,169.5z M302,167c0.8-1.2,2.2-1.9,3.5-2.6c0.6-0.3,1.1-0.6,1.7-0.9c-0.1,0.7-0.1,1.3,0,2.1
		c0,0.4,0.1,0.8,0.2,1.1c0.1,0.2,0.1,0.4,0.2,0.6c0.1,0.3,0.2,0.6,0.4,0.9c0.1,0.2,0.2,0.4,0.3,0.6l-0.1,0.1
		c-0.8-1.5-1.5-2.3-2.3-2.6c-1.1-0.4-2.3,0.4-3.8,2.5c-1.1,1.5-2,3.1-3,4.8c-0.1,0.2-0.2,0.4-0.4,0.6
		C299.2,171.8,300.4,169.3,302,167z"/>
	<path fill="#020001" d="M175.6,268.4l-0.5-0.2l0.1,0.5c0.6,3.4,2.1,5.4,5,6.7l0.5,0.2l0-0.5C180.4,272.5,179.7,269.6,175.6,268.4z"/>
	<path fill="#020001" d="M305.2,239.7c-2.1,1.5-1.9,3.3-1.8,5.1c0,0.2,0,0.4,0,0.6l0.1,0.7l0.5-0.5c1.8-1.9,1.8-2,1.7-5.6l0-0.6
		L305.2,239.7z"/>
	<path fill="#020001" d="M306.2,232.4L306.2,232.4c0.1-0.1,0.2-0.3,0.2-0.4c0.3-0.8-0.3-1.4-0.8-1.8c-0.1-0.1-0.2-0.1-0.2-0.2l-0.6-0.7
		c-0.4-0.4-0.6-0.9-0.8-1.5c-0.4-0.9-0.8-1.8-1.7-2.2c-0.2-0.1-0.5-0.2-0.7-0.2c-0.3,0-0.7,0-1.1,0c-2,0.3-3.5,0-4.8-0.8
		c-1.2-0.8-2.4-0.3-3.4,0.2c-3.4,1.9-6.6,1.4-9.4-1.3c-1.9-1.9-3.4-4-5.1-6.5l-0.2-0.3c-0.6-0.8-1.1-1.7-1.7-2.5
		c-0.2-0.2-0.3-0.4-0.5-0.7l1.3-0.4c-0.3-0.2-0.3-0.8-0.3-1.4c0-0.7,0-1.4-0.6-1.8c-0.3-0.2-0.8-0.2-1.5,0c0-0.7-0.2-1.4-0.7-1.7
		c-0.5-0.3-1.1-0.2-2,0.3c-0.9,0.5-1.9,0.8-2.9,1.1c-0.6,0.2-1.3,0.4-1.9,0.7c-3.9,1.6-4.4,2.8-3,6.8c0.6,1.8,1.9,2.7,3.4,3.7
		c4,2.6,7.4,5.1,10.5,7.6l0.7,0.6c3,2.4,6,4.8,10.2,5.1c0.9,0.1,1.5,0.3,1.9,0.8c0.3,0.4,0.5,1,0.3,1.8c-0.1,1,0.5,2,1.3,2.2
		c2.1,0.4,2.4,2,2.8,3.8l0.3,1.2l0.5-1.5c0.7-2,1.5-4.1-0.6-6c-0.1-0.1-0.1-0.1-0.2-0.2c0,0,0,0,0,0c0.7-0.2,1.1-0.4,1.3-0.8
		c0.3-0.5,0-1.1-0.3-1.6c-0.1-0.1-0.1-0.2-0.1-0.3c-0.1-0.1-0.1-0.3-0.1-0.5c0,0,0-0.1,0-0.1c0,0,0,0,0,0c0.1,0,0.1,0,0.2,0l0.2,0
		c0.2,0,0.4-0.1,0.5-0.1c0.1,0,0.2,0,0.3,0c0.5,0,1.1,0.1,1.5-0.3c0.2-0.2,0.4-0.6,0.4-1c0-1.1-0.8-1.1-1.3-1.1
		c-0.2,0-0.4,0-0.5-0.1c-0.6-0.3-1.2-0.2-1.8,0c0.1-0.3,0.2-0.5,0.4-0.6c0.4-0.3,1-0.1,1.6,0c0.4,0.1,0.9,0.2,1.3,0.1
		c0.3,0,0.4,0.1,0.4,0.1c0.3,0.2,0.3,1,0.3,1.5l0,0.3c0,2.2,0.2,4.3,1.7,6.3l0.5,0.6l0.1-0.8c0-0.2,0.1-0.4,0.1-0.5
		c0.1-0.3,0.1-0.5,0.1-0.8c-0.1-0.5-0.2-1-0.3-1.5c-0.1-0.4-0.1-0.7-0.2-1.1c0-0.1-0.1-0.3-0.1-0.4c-0.1-0.3-0.1-0.7-0.1-0.9
		c0,0,0-0.1,0-0.1c0.1-0.2,0.3-0.3,0.7-0.3v8.6l0.6-0.9c2.6-4,2.8-7,0.6-8.8c-0.1-0.3-0.1-0.5,0-0.6c0.1-0.2,0.5-0.2,0.8-0.2
		l0.4,0.5c0,0.1,0,0.3,0,0.4c0,0.5,0,1.2,0.8,1.5C305.6,232.9,306.1,232.7,306.2,232.4z M295.3,232.3
		C295.3,232.3,295.3,232.2,295.3,232.3C295.3,232.2,295.3,232.3,295.3,232.3z"/>
	<path fill="#020001" d="M266.4,262.5c-0.2-0.1-0.5,0-0.6,0.1l-0.4,0.2l0.6,0.6c0,0,0,0,0,0l0.1,0.1l0.3,0.2l0.2-0.1l-0.1-0.2l0.1-0.2
		l0.1,0c0,0,0,0,0,0c0,0,0,0,0,0l0,0l0,0c0,0,0,0,0,0C266.6,262.9,266.7,262.6,266.4,262.5z"/>
	<path fill="#020001" d="M210.7,404.7c2.3,0.8,4.5,2.4,7,0.3c0.8-0.7,1.5-0.5,2.4,0.4c1.2,1.2,3.2,0.7,4.6,0.3c1.4-0.5,0.5-2.1,0.6-3.2
		c0.1-1.9,0-3.9,0-5.9c0,0,0.1,0,0.1,0c0-2.4-0.1-4.8,0-7.2c0.1-1.6-0.2-2.4-2-2.4c-1.6,0-2.6,0.2-2.7,2.2c-0.1,3.1-0.5,6.3-0.7,9.4
		c-0.1,1.6-0.6,2.7-2.5,2.7c-2.2,0-2-1.4-2-2.9c0-3.3-0.1-6.5-0.1-9.8c-0.1-2.3-1.8-1.7-3.1-1.7c-1.1,0-2.6-0.3-2.4,1.7
		c0.4,4.7,0,9.3-0.3,14C209.5,403.6,209.6,404.4,210.7,404.7z M212.7,392.9c0.1-1,0.2-2.1,0.2-3.1c0,4,0,8.1,0,12.1c0,0,0,0.1,0,0.1
		l0,0c0,0,0,0,0,0c0.7,0,1.1,0.5,1.7,1c-0.3,0-0.5,0.1-0.7,0.1c-0.6,0-1-0.3-1-1.1c0,0,0,0,0,0c0,0,0,0,0,0c0-0.1,0-0.1,0-0.2
		c0,0,0,0,0,0C211.9,399,212.4,395.9,212.7,392.9z"/>
	<path fill="#020001" d="M238.6,406.2c0.6-0.1,1.3,0,1.9,0.1c4.4,0.5,7.3-1.6,9.2-5.3c2-3.7,1.1-7-1.2-10.3c-2.4-3.4-5.8-3.6-9.5-3.7
		c-2.4-0.1-3.6,0.4-3.3,3.1c0.2,2.1,0,4.3,0,6.5c-0.1,0-0.1,0-0.2,0c0,2.2,0.2,4.4-0.1,6.5C235.2,405.6,236.2,406.4,238.6,406.2z
		 M241.6,400.5c-1.3-0.3-0.5-1.6-0.7-2.5c-0.1-0.4,0-0.9,0-1.3c0,0,0,0,0,0c0-0.3-0.1-0.7,0-1c0.5-1.1-1.1-3.4,1.2-3.2
		c1.9,0.2,3.3,2,3.1,4.3c-0.1,0.8-0.7,1.6-1.2,2.2C243.5,399.9,242.6,400.8,241.6,400.5z M245.1,390.8c0.3,0.2,0.7,0.3,0.5,0.8
		c0,0,0,0,0,0l0,0c0,0,0,0,0,0c0.1,0,0.2,0,0.3,0c0.3,0,0.4,0.3,0.3,0.6c0,0,0,0,0,0c0,0,0,0,0,0c0,0,0,0,0,0c0,0.1,0.1,0.1,0.1,0.2
		c0,0,0,0,0,0c0,0,0,0,0,0c1.3,1.2,2,2.6,1.9,4c0,1.1-0.5,2.3-1.3,3.3c0,0,0,0,0,0c0,0.1-0.1,0.2-0.1,0.3c0,0,0,0,0,0c0,0,0,0,0,0
		c0,0,0,0,0,0l0,0c0.1,0.3,0.1,0.5,0,0.7c-0.1,0.2-0.3,0.4-0.6,0.5l0,0c0,0,0,0.1,0,0.1c0,0,0,0,0,0l0,0c0,0,0,0,0,0l0,0
		c0,0,0,0,0,0c0,0,0,0-0.1,0c0,0,0,0,0,0c-0.2,0.4-0.5,0.7-0.9,0.7c-0.1,0-0.2,0-0.4-0.1c0,0,0,0,0,0c0,0,0,0,0,0l0,0c0,0,0,0,0,0
		c0,0,0,0-0.1,0c0,0,0,0,0,0c0,0.1,0,0.2,0,0.4c-0.1,0-0.2-0.1-0.3-0.1l0,0c0,0,0,0,0,0c0.1-0.1,0.2-0.1,0.4-0.2c0,0,0-0.1,0-0.1
		c0,0,0,0,0.1,0c0.2-0.3,0.3-0.6,0.5-0.7c0.2-0.1,0.4-0.1,0.7,0.1c0,0,0,0,0,0c0,0,0,0,0,0c-0.1-0.2-0.2-0.3-0.2-0.5
		c0-0.3,0.2-0.5,0.5-0.6c0.1,0,0.1-0.1,0.2-0.1c0.1,0,0.1-0.1,0.2-0.1c0,0,0,0,0,0c0,0,0,0,0-0.1c0.1-0.1,0.1-0.2,0.2-0.2
		c0,0,0,0,0,0c0.4-0.9,0.5-1.8,0.6-2.7c0,0,0,0,0,0c0-0.3,0-0.7,0-1c0-0.2,0-0.3-0.1-0.5c-0.2-1.1-0.6-2.1-1.1-3.2
		c-0.1,0-0.1-0.1-0.2-0.1l0,0c0,0,0,0,0-0.1c-0.2,0-0.3-0.1-0.4-0.2c-0.1-0.1-0.2-0.3-0.2-0.4c0,0,0,0,0,0c0,0,0,0,0,0
		c0,0,0,0,0-0.1c0,0,0,0,0,0c-0.2-0.1-0.3-0.3-0.5-0.4c-0.1,0-0.1-0.1-0.2-0.1l0,0c-1.5-0.6-2.9-1.3-4.4-1.5c-0.5-0.1-1.1-0.1-1.6,0
		C241,389.2,243.4,388.6,245.1,390.8z"/>
	<path fill="#020001" d="M307.3,403.5c0.1,2.4,1.9,3.6,4,2.6c1.6-0.8,1.1-2.5,1.1-3.8c0-2.7,1.3-3,3.5-2.7c2.7,0.3,1.9,2.3,1.7,3.7
		c-0.3,1.9-0.2,3.1,2.3,3c2.1-0.1,3.6-0.1,3.3-2.9c-0.2-2.3,0-4.6,0-6.8c0,0,0,0,0.1,0c0-2.2-0.2-4.4,0-6.5c0.3-2.5-0.7-3.1-3.1-3.1
		c-3.6,0-2.1,2.7-2.2,4.2c-0.1,2.2-1.1,2.4-2.8,2.5c-1.9,0.1-2.6-0.6-2.5-2.4c0-0.9-0.1-1.7-0.2-2.6c-0.3-2.7-2.4-1.5-3.8-1.7
		c-1.8-0.3-1.8,0.8-1.8,2.2C307.1,394,307.2,398.7,307.3,403.5z M309.6,390.2c0.9,0,0.7,0.7,0.8,1.1c0.4,1.6-1,4.2,0.9,4.7
		c2.5,0.7,5.4,0.3,8.1,0.2c0.8,0,0.8-0.9,0.8-1.6c0-1.4,0-2.8,0.5-4.2c0,4.1,0,8.3,0,12.8c-1.4-2.1,0.8-5.2-1.5-6.1
		c-2-0.8-4.5-0.4-6.8-0.2c-4.2,0.4-1.1,4.1-2.8,5.8C309.6,398.6,309.6,394.4,309.6,390.2z"/>
	<path fill="#020001" d="M279.4,392.4c3-0.7,2.9,1.1,2.8,3.1c-0.1,1.4,0,2.8,0,3.7c-0.1,2-0.1,3.5-0.4,5c-0.5,2.3,1,2.3,2.4,2.1
		c1.4-0.2,3.7,1.2,3.5-2.1c-0.3-3-0.1-6.1-0.1-9.1c0-1.3-0.1-2.3,2-2.4c2.4-0.1,1.8-2.8,2-4.3c0.3-1.8-1.4-1.1-2.3-1.2
		c-2.8-0.1-5.6-0.1-8.4-0.1c-2.9,0-2,2.5-2.7,4C277.8,392.1,278.5,392.6,279.4,392.4z M288.9,389.3c0,0.4-0.1,0.7-0.1,0.7
		c-3.5-0.2-3.7,2-3.6,4.7c0.2,2.9,0,5.8,0,8.7c-0.3,0-0.5,0-0.8,0c0-3.1-0.1-6.3,0-9.4c0.2-2.6-0.3-4.4-3.6-4.1
		C283.7,388.7,286.3,389.4,288.9,389.3z"/>
	<path fill="#020001" d="M190.4,400.3c1.6,3.9,5.5,6.2,9.6,5.5c0.7-0.1,1.5-0.5,2.1,0.1c1.6,1.6,3.5,1.1,5.4,1.2c-2-5.3-2-5.3-1.2-6.8
		c1.9-3.6,1.1-8.7-1.7-11.1c-3.2-2.8-8.2-3-11.8-0.5C190,391,188.8,396.4,190.4,400.3z M192.9,400.1c-0.1,0-0.1-0.1-0.1-0.2
		c0-0.1,0-0.2-0.1-0.3c0,0,0,0,0,0c0,0,0,0,0,0c0.2,0.2,0.4,0.4,0.6,0.6C193.1,400.2,193,400.2,192.9,400.1z M194.6,402.1
		c-0.1,0-0.2,0-0.2,0c-0.2-0.1-0.4-0.3-0.4-0.6C194.5,401.4,194.8,401.5,194.6,402.1z M200.9,402.8
		C200.9,402.8,200.9,402.8,200.9,402.8c-1.1,0.4-2.1,0.7-3.1,0.6c-0.2,0-0.3,0-0.5,0c-0.4-0.1-0.8-0.1-1.1-0.3
		c-0.5-0.2-1-0.5-1.5-0.9c0.2,0,0.5,0.1,0.7,0.1c0.5,0.1,1.1,0.2,1.6,0.3c0.3,0,0.5,0.1,0.8,0.1c0.5,0.1,1,0.1,1.5,0.1c0,0,0,0,0,0
		C199.9,402.9,200.4,402.9,200.9,402.8C200.9,402.8,200.9,402.8,200.9,402.8C200.9,402.8,200.9,402.8,200.9,402.8c0.1,0,0.2,0,0.3,0
		l0,0C201.1,402.8,201,402.8,200.9,402.8z M203.8,404C203.8,404,203.7,404,203.8,404C203.7,404,203.7,404,203.8,404
		c-0.2-0.1-0.3-0.2-0.4-0.2C203.7,403.5,203.7,403.8,203.8,404C203.8,404,203.8,404,203.8,404C203.8,404,203.8,404,203.8,404
		C203.8,404,203.8,404,203.8,404S203.8,404,203.8,404C203.8,404,203.8,404,203.8,404c0.1,0,0.2,0.1,0.2,0.2
		C203.9,404.2,203.9,404.1,203.8,404z M204.9,398.3c-0.1,0.3-0.2,0.5-0.3,0.7c-0.1,0.2-0.2,0.3-0.3,0.5c-0.2,0.3-0.5,0.6-0.8,0.9
		c-0.1,0.1-0.2,0.2-0.3,0.3c0.9-1.6,1.3-3.3,1.3-5.1c0-0.7-0.1-1.3-0.3-2c-0.1-0.3-0.2-0.7-0.3-1
		C205.2,394.4,205.6,396.5,204.9,398.3z M203.4,391.7c0.2,0,0.3,0.3,0.3,0.6c-0.2-0.2-0.4-0.4-0.6-0.6
		C203.3,391.7,203.4,391.7,203.4,391.7z M203.1,401.8c0,0.1,0,0.2-0.1,0.3c-0.2,0.6-0.9,0.8-1.8,0.7c0.1-0.7,0.5-1,1-1.4
		c0.3-0.2,0.6-0.3,0.9-0.5C203.2,401.2,203.2,401.5,203.1,401.8z M203,390.8c0.1,0.1,0.1,0.3,0.1,0.5c0,0.1,0,0.2,0,0.2
		c-0.4-0.4-0.8-0.8-1.2-1.2C202.4,390.4,202.8,390.5,203,390.8z M201.3,389.8c0.1,0,0.3,0.1,0.4,0.1c0.1,0.1,0.2,0.2,0.1,0.5
		C201.5,390.3,201.2,390.2,201.3,389.8C201.2,389.8,201.3,389.8,201.3,389.8z M202,395.8c0,2.5-1.2,4.2-3.7,4.6
		c-2,0.3-4.1-2.3-4.1-4.6c0-2.1,2.2-4.3,4.2-4.1C200.8,391.9,202,393.4,202,395.8z M197.5,389C197.5,389,197.5,389,197.5,389
		c0.2-0.1,0.5-0.1,0.7-0.1c0.1,0,0.2,0,0.4,0c0.1,0,0.2,0,0.4,0c0.7,0.1,1.4,0.4,2.1,0.8c-0.8-0.1-1.6-0.2-2.4-0.2
		c-0.8,0-1.7,0.1-2.5,0.2C196.6,389.3,197,389.1,197.5,389z M195.9,389.7c-0.2,0.5-0.6,0.6-1.1,0.6c0,0-0.1,0-0.1,0
		C194.9,389.7,195.4,389.7,195.9,389.7z M194.6,390.4c-0.2,0.2-0.4,0.4-0.5,0.5C194,390.6,194.2,390.4,194.6,390.4z M193.9,391.1
		c-0.2,0.2-0.4,0.4-0.5,0.5C193.4,391.3,193.6,391.1,193.9,391.1z M194,401c0,0.1,0,0.2-0.1,0.4h0c0,0,0,0,0,0c0,0,0,0,0,0.1l0,0
		c0,0,0,0,0-0.1c0,0,0,0,0,0c-0.5-0.2-0.7-0.5-0.7-0.9c0-0.1,0-0.2,0.1-0.4C193.7,400.4,194,400.7,194,401z M192.8,392.1
		c0-0.1,0-0.1,0.1-0.2c0.1-0.1,0.2-0.2,0.5-0.2c-0.1,0.3-0.2,0.6-0.6,0.6C192.7,392.2,192.7,392.1,192.8,392.1z M191.5,395.5
		c0.1-1,0.5-2,1.2-3c-0.2,1.1-0.4,2.3-0.4,3.4c0,0.3,0,0.6,0,0.9c0,0.9,0.2,1.7,0.4,2.6c-0.2-0.2-0.3-0.5-0.5-0.7
		c-0.1-0.2-0.2-0.4-0.3-0.6c-0.1-0.1-0.1-0.3-0.2-0.4c-0.1-0.2-0.1-0.4-0.2-0.7c0,0,0-0.1,0-0.1
		C191.4,396.3,191.4,395.9,191.5,395.5z"/>
	<path fill="#020001" d="M259,406.3c6.9-0.3,11-8,7.7-14.1c-2.5-4.7-6.6-5.5-11.3-5.3c-1.9,0.1-2.8,0.4-2.6,2.5c0.2,2.4,0,4.8,0,7.2
		c0,0-0.1,0-0.1,0c0,1.2,0,2.4,0,3.6C252.6,406.6,252.6,406.6,259,406.3z M263.8,400.8c0,0.4-0.2,0.6-0.6,0.6c0,0.4-0.2,0.6-0.6,0.6
		c-0.1-0.5,0.1-0.7,0.6-0.7c0-0.1,0-0.2,0-0.3c0-0.1,0-0.2,0.1-0.2C263.3,400.7,263.5,400.7,263.8,400.8
		C263.8,400.8,263.8,400.8,263.8,400.8C263.8,400.8,263.8,400.8,263.8,400.8L263.8,400.8C263.8,400.8,263.8,400.8,263.8,400.8z
		 M264.5,393.7C264.5,393.7,264.5,393.7,264.5,393.7C264.5,393.7,264.5,393.7,264.5,393.7c0,0,0-0.1,0-0.1l0,0
		C264.5,393.7,264.5,393.7,264.5,393.7C264.5,393.7,264.5,393.7,264.5,393.7c1.1,1.5,1.3,3,0.8,4.4c-0.1,0.2-0.1,0.4-0.2,0.6
		c-0.1,0.3-0.3,0.6-0.4,0.9c-0.2,0.4-0.5,0.8-0.8,1.2c0.3-0.8,0.4-1.7,0.6-2.5c0-0.3,0.1-0.6,0.1-1
		C264.7,396.1,264.6,394.9,264.5,393.7z M264.2,393c0.2,0.1,0.2,0.3,0.2,0.6c-0.2,0-0.3,0-0.4,0c-0.1-0.1-0.2-0.3-0.2-0.6
		c0,0,0,0,0,0C264,393,264.1,393,264.2,393z M263.2,391.7C263.2,391.7,263.2,391.7,263.2,391.7L263.2,391.7
		C263.2,391.7,263.2,391.7,263.2,391.7C263.2,391.7,263.2,391.7,263.2,391.7c0.4,0.2,0.6,0.4,0.7,0.7c0,0.1,0,0.1,0,0.2
		c0,0.1,0,0.1,0,0.2c0,0.1,0,0.1-0.1,0.2c-0.3-0.2-0.6-0.4-0.7-0.7c0-0.1,0-0.2,0-0.3C263.1,391.9,263.1,391.8,263.2,391.7
		L263.2,391.7C263.2,391.7,263.2,391.7,263.2,391.7z M262.5,391C262.5,391,262.5,391,262.5,391L262.5,391L262.5,391
		C262.5,391,262.5,391,262.5,391c0.4,0,0.6,0.2,0.6,0.6c-0.2,0-0.3,0-0.5,0c-0.1,0-0.2-0.1-0.2-0.3
		C262.4,391.3,262.5,391.2,262.5,391C262.5,391.1,262.5,391.1,262.5,391z M258.9,389.2c1.4,0.2,2.7,0.5,3.6,1.8
		c-1.2,0.4-1.9-0.7-2.9-1c-3-1-3.7-0.5-3.8,2.5c0,2.2,0,4.3,0,6.5c0,4.3,1,5,5.2,3.6c0.2-0.1,0.5-0.2,0.8-0.2
		c0.2-0.1,0.4-0.1,0.7-0.2c0,0,0,0,0,0c0,0,0.1,0,0.1,0v0l0,0c0,0-0.1,0-0.1,0c0,0,0,0,0,0c-0.5,0.8-1.4,1-2.2,1.2
		c-0.3,0.1-0.6,0.1-0.9,0.2c-3.3,0.8-4,0.2-4-3.1c0-2.7,0.3-5.5,0-8.1C255,389.2,256.4,388.8,258.9,389.2z M258.1,398
		c-0.1-0.5,0-1.1,0-1.6c0,0,0,0,0,0c0-0.2-0.1-0.5,0-0.6c0.5-1.1-1.1-3.4,1.2-3.2c1.9,0.2,3.4,2,3.1,4.3c-0.1,0.8-0.7,1.6-1.2,2.3
		c-0.6,0.8-1.4,1.6-2.4,1.4C257.5,400.2,258.2,398.9,258.1,398z"/>
	<path fill="#020001" d="M301.4,406.2c2.1,0.2,2.3-1.7,3.1-2.9c1.1-1.7-0.6-1.7-1.4-2.1c-1.9-1-3.6-2.3-3.7-4.6
		c-0.1-2.3,1.9-3.2,3.5-4.3c0.8-0.5,3-0.3,1.5-2.2c-1-1.3-1.3-3.8-4-2.8c-3.8,1.3-7,5.9-6.9,9.9
		C293.5,400.4,298.2,405.8,301.4,406.2z M297.7,393C297.7,393,297.7,393,297.7,393C297.7,393,297.7,393,297.7,393
		c0-0.1,0.1-0.1,0.1-0.1c0,0,0,0,0,0c0.2-0.8,0.7-1.4,1.3-1.9c0.4-0.3,0.8-0.5,1.2-0.7c0,0,0-0.1,0-0.1l0,0c0,0,0.1,0,0.1,0
		c0.1-0.1,0.2-0.2,0.3-0.3c0,0.1,0,0.2,0.1,0.3c-0.1,0-0.3,0-0.4,0c0,0,0,0,0,0c0,0,0,0-0.1,0.1c0,0,0,0-0.1,0c0,0,0,0,0,0
		c-0.2,1.3-1,1.9-2.1,2.4c-0.1,0.1-0.3,0.1-0.4,0.2C297.7,393,297.7,393,297.7,393L297.7,393C297.7,393,297.7,393,297.7,393
		c0,0.2-0.1,0.3-0.1,0.5c-0.1-0.1-0.2-0.2-0.3-0.3C297.4,393.2,297.5,393.1,297.7,393z M296.3,395.4c0.1-0.2,0.2-0.4,0.4-0.6
		c-0.1,0.2-0.1,0.4-0.1,0.6c-0.1,1.4,0.4,2.7,0.4,4.1c0,0,0,0,0,0c0,0,0,0,0.1,0.1c0,0,0,0.1,0,0.1c0,0,0-0.1,0-0.1c0,0,0,0,0,0
		c0,0,0,0,0,0c0.4-0.1,0.5,0.1,0.6,0.4c0,0,0,0.1,0,0.1c0,0,0,0,0.1,0l0,0c0,0,0,0,0,0c0,0,0,0,0,0l0,0c0,0,0,0,0,0.1c0,0,0,0,0,0
		c0.1,0,0.2,0,0.2,0.1c0.2,0.1,0.3,0.3,0.4,0.5c0,0,0,0,0.1,0l0,0c0,0-0.1,0.1-0.1,0.1c0,0,0.1-0.1,0.1-0.1l0,0c0,0,0,0,0,0.1
		c0,0,0,0,0,0c0.1,0,0.2,0,0.2,0.1c0.1,0,0.1,0.1,0.2,0.1c0.1,0.1,0.1,0.1,0.1,0.2c0,0.1,0,0.1,0,0.2c0,0,0,0,0.1,0l0,0
		c0,0,0,0,0,0.1c0.4,0,0.6,0.2,0.6,0.6c0,0,0,0,0.1,0c0,0,0,0,0,0l0,0c0,0,0,0,0,0.1c0.3,0,0.5,0.1,0.6,0.3c0,0.1,0,0.2,0,0.3h0
		c0,0,0,0,0.1,0c0,0,0.1,0,0.1,0.1c0,0,0,0,0,0c0.2,0,0.5,0.1,0.7,0.1c-0.1,0.1-0.1,0.2-0.2,0.3c-0.2-0.1-0.4-0.3-0.5-0.4
		c0,0-0.1,0-0.1,0l0,0l0,0c0,0,0,0,0,0l0,0c0,0,0,0,0-0.1c-0.1,0-0.3,0-0.4-0.1c-0.2-0.1-0.3-0.2-0.2-0.5c0,0,0,0,0,0c0,0,0,0,0,0
		c0,0,0,0,0,0c0,0,0,0,0,0c0,0,0,0,0,0c0,0,0,0,0,0c-0.4,0-0.7-0.1-0.6-0.6c0,0,0,0,0,0c0,0,0,0,0,0c0,0,0,0,0,0c0,0,0,0,0,0
		c0,0,0,0,0,0c0,0,0,0,0,0c-0.5,0.1-0.7-0.1-0.6-0.6c0,0,0,0,0,0c0,0,0,0,0,0c0,0,0,0,0,0c0,0,0,0,0,0c-0.2,0-0.4,0-0.5-0.1
		c-0.1-0.1-0.1-0.3-0.1-0.5c0,0,0,0-0.1,0c0,0,0,0,0-0.1c0,0,0,0,0,0c-0.1,0-0.2,0-0.2,0c-0.2-0.1-0.3-0.3-0.4-0.5c0,0,0,0,0,0
		c0,0,0,0-0.1,0c0,0,0-0.1,0-0.1c0,0,0,0,0,0C295.9,398.2,295.6,396.8,296.3,395.4z"/>
	<path fill="#020001" d="M299,401.5C299,401.5,299,401.5,299,401.5C299,401.5,299,401.5,299,401.5z"/>
	<path fill="#020001" d="M272.7,406.2c1.1-0.3,3.3,0.9,3.1-1.6c-0.3-5.2,0-10.4,0.2-15.6c0-0.8,0.2-1.7-1-2c-3-0.9-4.8,0.3-4.7,3.4
		c0.1,2.1,0,4.1,0,6.2c0,0,0,0,0,0c0,2.6,0.1,5.2,0,7.8C270,406.4,271.4,406.5,272.7,406.2z M272.8,390.2c0.1,0,0.3,0,0.4,0
		c0,4.2,0,8.4,0,12.6c-0.1,0-0.3,0-0.4,0C272.8,398.6,272.8,394.4,272.8,390.2z"/>
	<path fill="#020001" d="M227.9,396.5c-0.1,0-0.2,0-0.3,0c0,2.6,0.1,5.2,0,7.8c-0.1,1.5,0.5,2.2,1.8,1.9c1.4-0.3,3.7,1.1,3.8-1.6
		c0.2-5.3,0.2-10.7,0.1-16c-0.1-2.9-2.4-1.3-3.7-1.5c-1.2-0.2-2.3,0-2.1,1.9C227.9,391.5,227.8,394,227.9,396.5z M230.4,390.1
		c0.2,0,0.3,0,0.5,0c0,4.2,0,8.5,0,12.7c-0.2,0-0.3,0-0.5,0C230.4,398.6,230.4,394.4,230.4,390.1z"/>
	<path fill="#020001" d="M434.4,321.2c0.1,0.9,0.5,1.5,1.7,1.5c2.5-0.1,6.1-3.8,5.9-6.4c-0.1-2.5-2.9-4.9-5.6-4.9
		c-3.3,0.1-2,2.6-2.3,4.3c0,0.3,0,0.6,0,1c0,0-0.1,0-0.1,0C434.2,318.2,434.3,319.7,434.4,321.2z"/>
	<path fill="#020001" d="M447,319.9c1.6-3.9,0.9-7.1-1.9-9.1C446.4,313.6,447.4,316.6,447,319.9z"/>
	<path fill="#020001" d="M444.4,324.2C444.4,324.2,444.4,324.2,444.4,324.2c0.1,0.1,0.2,0.2,0.2,0.2c0.1,0,0.4-0.3,0.6-0.5
		c1-0.8,2-1.6,1.6-3.7c-0.1,0.2-0.2,0.3-0.3,0.5c-0.7,1.1-1.3,1.9-1.8,2.8c0,0,0,0,0,0C444.5,323.7,444.2,324,444.4,324.2z"/>
	<path fill="#020001" d="M77.3,308.8c4.4,0.2,8.9,0.1,14.2,0.1c-1-0.8-1.2-1.2-1.4-1.2c-5.2-0.1-10.4-0.1-15.6-0.2
		c-1.7,0-1.6,1-1.6,2.2c0.2,10.2,0.3,20.4,0.4,30.6c0,1.8,0.6,2.5,2.5,2.4c4.2-0.1,8.5,0,12.7-0.1c0.8,0,2.2,0.5,2.1-0.7
		c0-1.3-1.5-0.9-2.4-0.9c-3.8,0-7.6-0.1-11.4,0c-1.7,0-2.3-0.5-2.3-2.3c0.1-3.7,0.1-7.4,0-11.1c-0.1-2,0.7-2.6,2.7-2.6
		c4.1,0.1,8.1,0,12.2,0c0-0.4,0-0.8-0.1-1.2c-3.9,0-7.7-0.2-11.6,0.1c-2.6,0.2-3.4-0.7-3.4-3.2c0.1-2.9-0.1-5.9-0.3-8.8
		C73.8,309.5,74.7,308.6,77.3,308.8z"/>
	<path fill="#020001" d="M46.6,339c-4.5-10.5-7.2-21.4-11.7-32.3c-0.5,1-0.7,1.2-0.6,1.3c3.4,10.4,6.7,20.9,10.1,31.3
		c0.3,0.9,0.7,1.4,1.8,1.4c1.3,0,1.5-0.9,1.8-1.9c2.9-9.3,5.8-18.7,8.7-28c0.3-1.1,0.7-2.2-0.3-4.1C53,318.1,49.8,328.6,46.6,339z"
		/>
	<path fill="#020001" d="M231,336.2c0-7.6,0-7.5,7.5-7.9c2.3-0.1,3.5,0.5,4.6,2.5c0.2,0.4,0.4,0.8,0.7,1.3c1.5,2.9,3.1,5.9,5.4,8.3
		c0,0,0,0,0,0c0.3,0.3,0.6,0.5,0.8,0.8c0.5-0.6,0-0.9-0.4-1.2c-1.6-2.7-3.2-5.4-4.8-8.1c-0.1-0.2-0.3-0.5-0.4-0.7
		c-0.3-0.4-0.5-0.8-0.6-1.1c-1.2-2.2-0.6-2.6,2.1-4.5c0,0,0,0,0,0c0.4-0.3,0.7-0.6,1.1-1c0.7-0.2,1.1-0.6,1.3-1.3
		c2.8-3,3.1-6.7,1.8-10.3c-1.4-3.7-4.3-5.9-8.4-6.2c-3-0.2-6.1-0.1-9.1,0.3c-2,0.3-2.7,1-2.7,3.1c0.1,9.3,0,18.7,0,28
		c0,0.8-0.1,1.6,0.8,2.7C231.3,339.1,231,337.6,231,336.2z M231.2,310.6c0-1.1,0.2-1.8,1.5-2c2.9-0.3,5.8-0.7,8.8-0.3
		c7.3,1,10,7.5,6.2,14.5c-0.4,0.5-0.8,0.9-1.2,1.4c-0.3,0.3-0.7,0.6-1,1c-0.5,0.2-1,0.4-1.4,0.6c-1,0.4-2,0.7-2.9,0.9
		c-2.5,0.6-5,0.7-7.7,0.7c-1.8,0-2.5-0.6-2.5-2.4C231.1,320.1,231.2,315.3,231.2,310.6z"/>
	<path fill="#020001" d="M276.3,335.4c3.4,0,6.7,0,10.1-0.1c4.4-0.2,9.2-1.1,9.6,6.2c0.4-0.3,0.7-0.7,1.1-1
		c-3.7-10.4-7.4-20.7-11.1-31.1c-0.5-1.5-1.7-1.3-2.9-1.5c-1.6-0.2-1.8,0.9-2.2,1.9c-2.5,6.6-4.9,13.2-7.3,19.8
		c-0.9,2.4-1.7,4.7-2.5,7.1C272.7,335.1,274.6,335.4,276.3,335.4z M274.4,331.8c2.6-7,5.1-14.1,7.6-21.1c0.3-0.9,0.7-1.6,1.8-1.5
		c0.9,0.1,1.2,0.9,1.4,1.6c2.5,7.1,4.9,14.2,7.4,21.2c0.6,1.7,0.2,2.1-1.5,2.1c-0.6,0-1.2,0-1.9,0c-1.9,0-3.7,0-5.6,0
		c-1.9,0-3.7,0-5.6,0c-0.6,0-1.2,0-1.9,0C274.4,334.1,273.7,333.6,274.4,331.8z"/>
	<path fill="#020001" d="M364.7,307.6c-4.9,0-9.8-0.1-14.7,0c-1.2,0-2.6,0-3.9,2c2.6,0,4.5,0.1,6.4,0c2.1-0.1,2.8,0.5,2.8,2.7
		c-0.1,8.7-0.1,17.4-0.1,26.1c0,0.8,0,1.5,0.1,2.3c0,0.2,0.4,0.5,0.7,0.6c0.5,0.1,0.8-0.2,0.9-0.7c0.1-0.8,0.1-1.5,0.1-2.3
		c0-8.4,0.2-16.7-0.1-25.1c-0.1-3,0.9-3.9,3.7-3.5c1.4,0.2,2.8,0.1,4.2,0c0.7,0,1.3-0.6,1.3-1.3
		C366.2,307.3,365.3,307.6,364.7,307.6z"/>
	<path fill="#020001" d="M164.3,331.9c2.6-5.8,2.3-11.8-1.1-17.1c-3.2-5-8-7.9-14.3-7.4c-5.9,0.5-9.2,4.4-11.6,9.3
		c-1.2,2.5-1.6,5.2-1.5,7.3c0,8.3,4.9,14.8,11.9,16.5C154.1,342.1,161.2,338.6,164.3,331.9z M149.1,339.1c-0.9-0.2-1.8-0.4-2.6-0.7
		c-0.5-0.2-1.1-0.4-1.6-0.7c-0.4-0.2-0.8-0.4-1.2-0.6c-4.2-2.5-6.6-7-6.6-12.4c0-5.5,2.1-9.9,6.3-13.2c0.3-0.2,0.6-0.4,0.9-0.7
		c3.7-2.6,8.8-2.7,12.6-0.2c6.4,4.2,9.2,12.6,6.6,19.8C161.4,336.1,154.9,340.1,149.1,339.1z"/>
	<path fill="#020001" d="M411.9,322c-0.6-7.5-6.7-13.8-13.9-14.6c-7-0.7-13,3.9-15.2,11.5c-0.4,1.2-0.6,2.5-0.7,3.8
		c-1.1,8.9,5.6,17.5,13.9,18.1c7.8,0.6,16.6-6.4,16-15.9C412,323.9,412,323,411.9,322z M397.6,339.3c-8.1-0.1-14.3-6.5-14.1-14.8
		c0.1-4.1,1.2-7.9,4-11.1c6.6-7.3,16.9-5.9,21.3,3c1.3,2.7,2,5.5,1.9,8.1C410.6,332.8,404.6,339.4,397.6,339.3z"/>
	<path fill="#020001" d="M111.3,339.9c-2.3,0.1-3.2-0.8-3.2-3.3c0.1-7.8,0.1-15.6,0-23.4c0-1.6,0.2-3.4-0.7-4.9c-0.4,0-0.9,0.1-1.3,0.1
		c0,10.4,0,20.7,0,31.1c0,1.1,0.5,1.6,1.6,1.6c3.5,0.1,6.9,0.2,10.4,0.2c0.9,0,1.8-0.2,1.6-1.5C116.9,339.9,114.1,339.8,111.3,339.9
		z"/>
	<path fill="#020001" d="M193.2,339.8c-2.9-1.6-5.3-3.7-7.5-6c-5.7-6-5.8-12.4-0.1-18.4c2.1-2.2,4.5-4.1,6.9-6.4
		c-6.4,1.5-12.6,9.7-12.4,16.1C180.3,330.8,187.2,338.8,193.2,339.8z"/>
	<path fill="#020001" d="M469,321c-1.6-3.7-1.5-7.1,1-10.4c0.6-0.8,1.4-1.7,1.1-3.2c-4.2,3.5-5.7,7.9-4.1,12.5c0.6,1.8,1.4,3.6,2.3,5.4
		c2.6,5.1,4.4,10.2-0.2,15.4c3.9-2.1,5.2-5.4,3.7-9.9C471.7,327.4,470.3,324.2,469,321z"/>
	<path fill="#020001" d="M314.7,341.7c0-2.9,0-5.3,0-7.6c0-5.4,0-5.3,5.2-5.9c1.8-0.2,3.6-0.6,5.4-0.9c3.4-0.6,5.2-3,6-6.1
		c1.6-5.8-2.2-11.9-8-13.2c-2.4-0.5-4.8-0.3-7.1-0.5c-2.3-0.2-2.7,0.8-2.7,2.8c0,9.7-0.1,19.3-0.1,29
		C313.5,339.8,313.1,340.7,314.7,341.7z M318.5,308.5c1.9,0.3,3.9,0.5,5.7,1c3.8,1,6,4.5,6.1,9.3c0.1,3.6-1.9,6.1-5.6,7.3
		c-0.4,0.1-0.8,0.2-1.3,0.3c-7.8,1.9-8.7,1.2-8.7-6.6c0-2.5,0.1-5-0.1-7.5C314.4,309.5,315,307.7,318.5,308.5z"/>
	<path fill="#020001" d="M212.6,308.3c-0.2,0-0.5,0-0.7,0c0,10.6,0,21.1,0,31.7c0.2,0,0.5,0,0.7,0C212.6,329.4,212.6,318.9,212.6,308.3
		z"/>
	<path fill="#020001" d="M236.9,321.1c0.1,1.2,0.6,1.7,1.9,1.5c2.4-0.3,5.6-3.6,5.8-5.9c0.1-2.4-2.6-5.1-5.2-5.3
		c-3.5-0.3-2.6,2.3-2.7,4.2c0,0.3,0,0.6,0,1c-0.1,0-0.1,0-0.2,0C236.6,318.1,236.8,319.6,236.9,321.1z"/>
	<path fill="#020001" d="M284.9,330.9c1.3-0.2,2-0.7,1.6-2.2c-0.7-2.4-1.3-4.8-3.2-7.3c-0.9,1.9-1.6,3.3-2.2,4.8
		C279.6,330.2,280.7,331.5,284.9,330.9z"/>
	<path fill="#020001" d="M150.4,314.1c-4.6-0.1-8.6,4.4-8.6,9.7c0,4.4,5,10.3,8.9,10.3c4.4,0,8.9-5.1,8.8-10
		C159.4,318.6,155.4,314.2,150.4,314.1z"/>
	<path fill="#020001" d="M396.7,314.1c-4.8-0.1-8.7,4.5-8.5,10c0.1,4.4,5,10,8.8,10c4.4,0,8.9-5.1,8.9-10
		C405.8,318.7,401.7,314.2,396.7,314.1z"/>
	<path fill="#020001" d="M321.8,321.9c2.3,0.1,4-0.9,4.1-3.6c0-2.9-2-5.5-4.6-5.3c-2.8,0.2-0.8,2.8-1.7,4.1
		C320.4,318.7,318.3,321.7,321.8,321.9z"/>
</g>
</svg>
