<?xml version="1.0" encoding="utf-8"?><svg version="1.1" id="Layer_1" xmlns="http://www.w3.org/2000/svg" xmlns:xlink="http://www.w3.org/1999/xlink" x="0px" y="0px" viewBox="0 0 512 512" style="enable-background:new 0 0 512 512;" xml:space="preserve"><style type="text/css"> .st0{fill:#B1BFAF;} .st1{fill:#F17027;} .st2{fill:#F27027;} .st3{fill:#F27127;} </style><g id="Ebene_3"><path class="st0" d="M365,54.1c-5.7-0.1-30.6-0.1-30.6-0.1c6-6.3,38.9-40.7,49-51.3c0,0-20.6,0.1-20.8,0.1 c-7.1,7.5-73.1,75.6-73.1,75.6S219.2,5.3,216.9,2.8l0,0l0,0c-0.4-0.1-20.8-0.1-20.7,0c6.6,6.8,39.2,41.2,48.9,51.3l-33.8,0.1 c-2.2-0.1-3.1,0.8-3.9,2.7c-7.8,20.8-95.8,249.1-97.8,254.3c-0.3,0.8-1.2,1.7-0.4,3c0.1-0.1,71.8-45.5,71.8-45.5 c51.3-30,103.8-57.6,157.1-84c2.7-1.4,4-3.1,4.5-6c3.3-17.9,19.6-99.1,24.2-122C367.4,54.4,366.9,54.1,365,54.1z"/><path class="st1" d="M246.9,95.7c4.5,0.1,8.4-3.7,8.4-8.2c0-4.4-3.7-8-8.1-8c-4.6,0-8.4,3.6-8.4,8.1 C238.8,91.8,242.6,95.7,246.9,95.7z"/><path class="st2" d="M331.8,95.7c4.4,0.1,8.5-3.6,8.5-8c0.1-4.4-3.6-8.1-8-8.2c-4.6-0.1-8.4,3.3-8.4,8 C323.8,91.8,327.4,95.5,331.8,95.7z"/><circle class="st3" cx="287.4" cy="398.1" r="99.1"/><path d="M400.1,389.8L400.1,389.8c-0.9-3.2-0.9-6.7-1.4-10c-3.5-22-12.6-41.3-27.7-57.5c-19.6-21.1-78-81.3-87.1-90.8 c-2.2-2.3-2.1-3.5,0.8-4.9c9.6-5,54.2-27.3,66.8-33.6c0.8-0.4,1.5-1,1.9-2.3c1.3-4.4,27.5-138.6,29.2-146c0.6-2.7,0.1-3.7-2.7-3.7 c-4.5,0.1-9,0-14.2,0c4.4-5.1,32-34,34.1-36.2c0.5-0.5,1.2-0.9,0.8-1.7c-0.4-0.8-1.2-0.5-1.8-0.5c-5.1,0-10.3,0-15.4,0l0,0 c-0.3-0.1-0.4,0.1-0.5,0.1c-10.2,10.8-20.5,21.5-30.6,32.3C332.2,56,312,77,291.9,98.1c-1.8,1.9-2.8,2.1-4.6,0 c-23.8-25-47.7-49.9-71.5-74.9c-6.6-6.8-13-13.8-19.6-20.6c-0.1-0.1-0.3-0.1-0.5-0.1l0,0c-5,0-10,0-15.1,0c-0.8,0-1.8-0.3-2.2,0.5 c-0.5,1,0.5,1.5,1.2,2.2c3.7,4.5,32.8,33.7,33.4,35.6c-3.6,0-6.9,0.3-10.2,0c-2.8-0.3-4,0.9-5,3.5c-12.2,32-89.5,233.1-115.9,301.7 c-1.3,3.3-3.1,6.4-3.2,10.3c1-1.9,3.1-2.7,4.6-3.9c5.1-4.2,9.9-9,15.2-13.1c6.2-5,12.6-9.6,18.9-14.3 c14.4-10.7,29.6-20.2,44.9-29.6c15.7-9.6,31.5-18.9,47.7-27.8c9.9-5.5,19.8-10.9,29.5-16.7c1.7-1,2.4-0.5,3.5,0.6 c4.2,5,26.1,25.7,31.1,32.5c0.5,0.6,1.8,1.2,1.3,2.2c-0.4,0.9-1.5,0.8-2.4,0.9c-2.3,0.4-4.8,0.6-7.1,1.2 c-26.8,5.5-48.6,19-65.4,40.5c-21.1,27.1-28,57.9-21.6,91.6c2.3,12.2,6.7,23.8,13,34.6c3,5,6.6,9.8,10.2,14.5 c2.6,3.5,6.4,5.5,8.7,9c2.2,3.3,5.7,5.4,8.6,7.8c4.9,4,10.3,7.2,16,10.2c5.5,2.8,11.3,5.4,17.2,7.3c6.6,2.2,13.1,4.1,20.1,4.8 c3,0.3,5.8,1.5,8.7,0.9c4.2,1.4,8.7,0.3,13,0.6l0,0l0,0c2.2,0.3,4.1-1.2,6.3-1.3c7.2-0.1,14.3-1.8,21.1-4c9.1-3.1,17.9-6.7,25.9-12 c5.1-3.5,10-7.5,15.1-11.2c4.8-3.6,8.4-8,12.1-12.4c4.5-5.3,8.2-11.3,11.7-17.5c4.4-8,7.7-16.5,10.3-25.1 c2.1-6.7,2.3-13.9,3.3-20.8l0,0c1.2-0.9,0.4-2.2,0.5-3.3l0,0l0,0c0-3,0-6,0-9C400.5,391.9,401.2,390.7,400.1,389.8z M339.5,316.7 c-3,4.6-5.1,9.6-7.1,14.8c-0.4,0.9-0.3,2.6-2.2,1.4c-11.4-7.5-24.1-11.3-38-12.4c2.1-6.4,3.7-12.6,4.1-19c0.1-1.9,1-2.2,2.7-1.9 c14,1.7,27,6,39.2,13.1C340.5,313.7,340.9,314.6,339.5,316.7z M342.6,424.7c1.4,2.4,1.3,4-0.1,6c-6.8,10.7-15.8,18.8-27.3,24.3 c-1.9,0.9-3.1,0.8-4.8-0.5c-21.9-17.2-46.7-25.5-74.5-24.6c-2.2,0.1-2.7-1-3.5-2.4c-4.9-8.9-7.6-19.7-7.6-31.3 c-1-5.4,1.5-8.9,8.2-11.8c22.6-9.8,39.8-26,51.8-47.6c1.3-2.3,2.7-3.1,5.3-3c13.4,0.4,25.2,4.6,36,12.4c1.5,1,1.9,2.2,1.7,4 C324.1,376.9,328.9,401.7,342.6,424.7z M332.3,79.5c4.4,0.1,8,3.9,8,8.2c-0.1,4.4-4.1,8.2-8.5,8c-4.4-0.1-7.8-3.9-7.8-8.2 C323.9,82.8,327.7,79.3,332.3,79.5z M247.3,79.5c4.4,0,8.1,3.7,8.1,8c0,4.5-3.9,8.2-8.4,8.2c-4.2-0.1-8.1-3.9-8.1-8.1 C238.9,83.1,242.6,79.5,247.3,79.5z M175.8,138.4c4,3.7,8,7.2,11.7,11.2c15.7,16.3,31.3,32.7,47,49c2.2,2.3,2.2,3.1-0.6,4.6 c-32.9,18-65.9,36-97.5,56.3c-3,1.9-5.9,3.9-9.6,6.2C143.6,222.5,159.8,180.3,175.8,138.4z M168.9,275.5 c-19.7,11.7-39,23.8-57.6,37.1c-0.8,0.5-1.5,1-2.3,1.5c-0.8-1.2,0.1-2.1,0.4-3c1.9-5.3,4.2-10.4,5.9-15.7c1.5-5,4.6-8.5,8.9-11.4 c26.5-18.7,115.3-68.8,131.7-78c2.3-1.3,2.8-1.9,0.8-4.1c-22.1-22.9-44.1-46.1-66.3-69.1c-1.9-1.9-3.6-4.2-5.7-5.9 c-2.8-2.3-3-4.5-1.7-7.8c8.1-20.7,16.1-41.4,23.9-62.3c0.8-2.1,1.7-2.8,3.9-2.7c3.2,0.3,6.4,0.4,9.6,0c4.6-0.6,7.7,1.2,10.5,4.6 c2.1,2.6,4.4,4.9,6.8,7.2c1.5,1.5,1.7,2.1-0.4,3.2c-10.8,5.9-14.4,18.5-8.5,28.8c7.7,13.4,26.6,13.9,35.2,1 c0.6-0.9,1.2-1.9,2.1-3.3c6.7,7.1,13.3,13.8,19.7,20.6c3.5,3.6,3.5,3.7,7.1-0.1c6.4-6.8,12.9-13.5,19.3-20.3 c1.3,0.6,1.4,1.7,1.9,2.6c4.6,7.5,13.3,11.1,21.9,9.3c8.6-1.8,15.1-8.6,16.3-17.2c1.3-8.4-2.8-17.1-10.4-21c-3-1.5-2.4-2.4-0.5-4.1 c0.8-0.6,1.4-1.4,2.2-2.2c8.5-9.3,8.5-9.3,21-9c1.9,0,2.4,0.3,2.1,2.4c-4.6,22.8-20.8,104.1-24.2,122c-0.5,3-1.8,4.6-4.5,6 C280.6,213,224,242.7,168.9,275.5z M255.5,244.9c-1.8-1.8-0.8-2.4,0.6-3.2c3.5-1.8,6.8-3.7,10.3-5.4c1.7-0.8,3.2-0.6,4.6,1 c2.8,3.3,45,48,49.3,52.4c-6.3-1-12.4-3.1-18.5-3c-6.3,0.1-9.6-3.5-13.4-7.3C277.5,267.8,266.5,256.2,255.5,244.9z M192.3,374.8 c9.8-41,45-71.8,86.8-75.5c4.1-0.4,4.2-0.4,3.6,3.7c-3.1,18.8-12.1,34.6-25.1,48.1c-15.6,16.1-34.3,26.1-56.9,28.8 c-1.4,0.1-2.7,0.1-4.1,0.3C191,380.2,191,380.2,192.3,374.8z M200.8,437.9c-1.7,0.8-2.3,0.4-3.1-1.2c-5.5-13-8.1-26.5-8.1-40.7 c0-1.3-0.3-2.4,1.9-2.4c6.6,0.4,13-0.6,19.7-1.7c0,6.4-0.1,12.9,1.2,19.2c1.3,6.3,3,12.5,5.8,18.3c0.9,1.9,0.8,2.7-1.5,3.1 C211.2,433.6,206,435.4,200.8,437.9z M319.4,491.1c-10.3,3.2-20.6,4.9-35,5c-30.2-1-57.2-15.1-77.2-42.5c-1.7-2.3-1.7-3.3,1.3-4.5 c25.3-9.5,50-7.2,74.1,4c16,7.5,29.2,18.3,38.3,33.6C322.4,489.1,322.5,490.2,319.4,491.1z M368.2,455.4c-8.5,11.6-19,21-31.4,28 c-1.3,0.8-1.9,0.6-2.6-0.8c-2.7-5.3-6-10.2-9.9-14.7c-1-1.2-1-1.8,0.5-2.6c11.6-6.2,21-14.8,28.4-26c4.6,5,9.4,9.6,14.8,13.4 C369.1,453.8,368.8,454.5,368.2,455.4z M377.7,439.3c-1.2,2.4-2.1,3-4.2,1c-15.3-12.5-24.8-28.6-29.8-47.3 c-6.2-23.2-5.1-45.9,6.3-67.5c1.8-3.5,1.9-3.5,4.9-0.8c21.1,19.7,31.6,44,32.2,71C386.8,412,383.9,426,377.7,439.3z"/><path d="M287.3,76.9c1.8,1.9,2.7,1.8,4.4,0C308.1,59.5,324.6,42.4,341,25c7.1-7.5,14.2-14.9,21.1-22.4c-3.7,0-7.6,0.1-11.3-0.1 c-4.2-0.4-7.3,0.9-10.4,4.2c-9.5,10.4-42.6,44.5-49.1,51.5c-1.4,1.5-2.4,1.5-3.9,0c-2.6-2.8-37.3-38.9-51.8-54.2 c-1-1-2.2-1.5-3.6-1.5c-5.1,0.1-10.3,0.1-15.4,0.1l0,0c2.3,2.6,4.6,5.1,6.9,7.6C244.8,32.5,266.2,54.6,287.3,76.9z"/></g></svg> 