<?xml version="1.0" encoding="utf-8"?><svg version="1.1" xmlns="http://www.w3.org/2000/svg" xmlns:xlink="http://www.w3.org/1999/xlink" x="0px" y="0px" viewBox="0 0 512 512" style="enable-background:new 0 0 512 512;" xml:space="preserve"><style type="text/css"> .st0{fill:#FFDA44;} .st1{fill:#D80027;} .st2{display:none;} </style><g id="Layer_1"><g><g><path class="st0" d="M0,256c0,141.4,114.6,256,256,256s256-114.6,256-256S397.4,0,256,0C114.6,0,0,114.6,0,256 c0,141.4,114.6,256,256,256s256-114.6,256-256"/></g></g><g><path class="st1" d="M250.4,113.8h218.4c-14.4-21.5-31.9-40.7-52-56.9H250.4V113.8z"/><path class="st1" d="M250.4,227.6h260c-2.2-19.7-6.6-38.8-13-56.9h-247V227.6z"/><path class="st1" d="M14.6,341.3h482.8c6.4-18.1,10.8-37.2,13-56.9H1.6C3.8,304.2,8.2,323.2,14.6,341.3z"/><path class="st1" d="M95.1,455.1h321.8c20-16.2,37.6-35.4,52-56.9H43.1C57.5,419.7,75.1,438.9,95.1,455.1z"/></g><path class="st1" d="M43.1,113.8h425.8c-14.4-21.5-31.9-40.7-52-56.9H95.1C75.1,73.1,57.5,92.3,43.1,113.8z"/><path class="st1" d="M1.6,227.6h508.8c-2.2-19.7-6.6-38.8-13-56.9H14.6C8.2,188.8,3.8,207.8,1.6,227.6z"/></g><g id="Layer_2" class="st2"></g></svg> 