<?xml version="1.0" encoding="utf-8"?>
<!-- Generator: Adobe Illustrator 22.1.0, SVG Export Plug-In . SVG Version: 6.00 Build 0)  -->
<svg version="1.1" id="Ebene_2" xmlns="http://www.w3.org/2000/svg" xmlns:xlink="http://www.w3.org/1999/xlink" x="0px" y="0px"
	 viewBox="0 0 1130 792" style="enable-background:new 0 0 1130 792;" xml:space="preserve">
<circle cx="1012.7" cy="305.2" r="99.3"/>
<g>
	<path d="M619.1,268.9c0-0.4,0-0.9,0-1.3c0-18.6-2.7-36.9-8-54.2c-55.8,0.2-109.7,6.2-161.3,18c-90.4,20.7-173.8,59-247.9,113.9
		C75.6,438.7,20.6,547.1,18.3,551.7c-6.8,13.7-1.3,30.4,12.4,37.2c4,2,8.2,2.9,12.4,2.9c10.2,0,20-5.6,24.9-15.4
		c0.5-1,51.3-101.1,166.9-186.7c67.9-50.3,144.4-85.4,227.3-104.3C512.1,274.1,564.5,268.5,619.1,268.9z"/>
	<path d="M888.9,251.7L805,140.5c-9.2-12.2-26.6-14.7-38.9-5.4c-12.2,9.2-14.7,26.7-5.4,38.9l45.6,60.4
		c-30.5-6.5-60.5-11.4-90.1-14.9c2.7,15.8,4,31.9,4,48.1c0,2.8-0.1,5.5-0.1,8.3c24.2,3.1,48.7,7.3,73.6,12.6l-58.9,44.5
		c-12.2,9.2-14.7,26.7-5.4,38.9c5.5,7.2,13.8,11,22.2,11c5.8,0,11.7-1.8,16.7-5.6l111.2-83.9c0.2-0.1,0.4-0.3,0.6-0.5
		c1.2-0.7,2.4-1.4,3.5-2.2C895.7,281.3,898.2,263.9,888.9,251.7z"/>
</g>
<g>
	<path d="M699.4,267.6C699.3,120.3,580,0.9,432.7,0.9c-147.2,0-266.6,119.4-266.6,266.6c0,25.3,3.5,49.7,10.1,72.9
		c5.7-4.5,11.5-8.9,17.4-13.3c11.4-8.5,23.1-16.5,35-24.3c-2-11.5-3-23.3-3-35.3c0-114.2,92.9-207.2,207.2-207.2
		c114.2,0,207.2,92.9,207.2,207.2c0,114.2-92.9,207.2-207.2,207.2c-67,0-126.6-32-164.5-81.4c-5.6,3.9-11.2,7.8-16.8,11.9
		c-10.8,8-21,16.1-30.6,24.2c43.6,57,109.7,95.9,185,103.4l0,255.2h59.5l0-255.9C597.2,516.1,699.4,403.8,699.4,267.6z"/>
</g>
</svg>
