<?xml version="1.0" encoding="utf-8"?>
<!-- Generator: Adobe Illustrator 22.0.0, SVG Export Plug-In . SVG Version: 6.00 Build 0)  -->
<svg version="1.1" xmlns="http://www.w3.org/2000/svg" xmlns:xlink="http://www.w3.org/1999/xlink" x="0px" y="0px"
	 viewBox="0 0 448 512" style="enable-background:new 0 0 448 512;" xml:space="preserve">
<style type="text/css">
	.st0{display:none;}
	.st1{display:inline;}
</style>
<g id="Layer_1" class="st0">
	<path class="st1" d="M424.4,214.7L224,96.2c-28.6-16.9-72.4-0.5-72.4,41.3l0,236.9c0,37.5,40.7,60.1,72.4,41.3l200.4-118.4
		c15.7-9.2,23.6-25.2,23.6-41.2c0-0.1,0-0.2,0-0.3C447.9,239.8,440.1,223.9,424.4,214.7L424.4,214.7z"/>
</g>
<g id="Layer_1_copy">
	<path d="M224,96.2L224,96.2L72.4,6.6C43.8-10.3,0,6.1,0,47.9V464c0,37.5,40.7,60.1,72.4,41.3L224,415.7l0,0c6-3.5,23.6-9.6,23.6-36
		c0-25-0.2-227,0-242.1C247.8,121.6,239.8,105.5,224,96.2L224,96.2z"/>
</g>
</svg>
