<?xml version="1.0" encoding="utf-8"?>
<!-- Generator: Adobe Illustrator 22.0.0, SVG Export Plug-In . SVG Version: 6.00 Build 0)  -->
<svg version="1.1" id="Layer_1" xmlns="http://www.w3.org/2000/svg" xmlns:xlink="http://www.w3.org/1999/xlink" x="0px" y="0px"
	 viewBox="0 0 751.3 512" xml:space="preserve">
<path d="M208,96c26.5,0,48-21.5,48-48S234.5,0,208,0s-48,21.5-48,48S181.5,96,208,96z M302.5,245.1l-23.3-11.8l-9.7-29.4
	c-14.7-44.6-55.7-75.8-102.2-75.9c-36-0.1-55.9,10.1-93.3,25.2c-21.6,8.7-39.3,25.2-49.7,46.2L17.6,213c-7.8,15.8-1.5,35,14.2,42.9
	c15.6,7.9,34.6,1.5,42.5-14.3L81,228c3.5-7,9.3-12.5,16.5-15.4l26.8-10.8l-15.2,60.7c-5.2,20.8,0.4,42.9,14.9,58.8l59.9,65.4
	c7.2,7.9,12.3,17.4,14.9,27.7l18.3,73.3c4.3,17.1,21.7,27.6,38.8,23.3s27.6-21.7,23.3-38.8l-22.2-89c-2.6-10.3-7.7-19.9-14.9-27.7
	l-45.5-49.7l17.2-68.7l5.5,16.5c5.3,16.1,16.7,29.4,31.7,37l23.3,11.8c15.6,7.9,34.6,1.5,42.5-14.3
	C324.5,272.4,318.2,253,302.5,245.1L302.5,245.1z M73.6,385.8c-3.2,8.1-8,15.4-14.2,21.5l-50,50.1c-12.5,12.5-12.5,32.8,0,45.3
	c12.5,12.5,32.7,12.5,45.2,0l59.4-59.4c6.1-6.1,10.9-13.4,14.2-21.5l13.5-33.8c-55.3-60.3-38.7-41.8-47.4-53.7
	C94.3,334.3,73.6,385.8,73.6,385.8z" style="fill:#000000;"/>
<path d="M194.1,509.8c-4.1-1.7-6-6.4-4.3-10.5l90.3-186.6c4.6,2.9,11.6,2.3,17,1.1l-92.5,191.7C202.9,509.6,198.2,511.5,194.1,509.8
	C194.1,509.8,194.1,509.8,194.1,509.8L194.1,509.8z" style="fill:#000000;"/>
<path d="M336.5,202.7c4.1,1.7,6,6.4,4.3,10.5l-18.8,39.5c-1.8-4.5-6.7-11.6-12.1-11.9l16.2-33.8C327.7,203,332.4,201,336.5,202.7
	C336.5,202.7,336.5,202.7,336.5,202.7L336.5,202.7z" style="fill:#000000;"/>
<path d="M617.3,227.9H450.4c-6.6,0-12,5.4-12,12v56c0,6.6,5.4,12,12,12h166.9v46.1c0,21.4,25.9,32.1,41,17l86.1-86.1
	c9.4-9.4,9.4-24.6,0-33.9l-86.1-86.1c-15.1-15.1-41-4.4-41,17V227.9z" style="fill:#000000;"/>
</svg>
