<?xml version="1.0" encoding="UTF-8" standalone="no"?>
<!DOCTYPE svg PUBLIC "-//W3C//DTD SVG 1.1//EN" "http://www.w3.org/Graphics/SVG/1.1/DTD/svg11.dtd">
<svg width="100%" height="100%" viewBox="0 0 512 512" version="1.1" xmlns="http://www.w3.org/2000/svg" xmlns:xlink="http://www.w3.org/1999/xlink" xml:space="preserve" xmlns:serif="http://www.serif.com/" style="fill-rule:evenodd;clip-rule:evenodd;stroke-linejoin:round;stroke-miterlimit:2;">
    <g transform="matrix(1.02415,-0.227049,0.227049,1.02415,-64.5571,51.8094)">
        <path d="M436.3,209.5L369.7,174.7L260.6,383.3C256.8,390.6 247.8,393.4 240.5,389.6L140.7,337.4L110.2,395.7C106.4,403 109.2,412 116.5,415.8L282.9,502.9C290.2,506.7 299.2,503.9 303,496.6L442.6,229.7C446.4,222.3 443.6,213.3 436.3,209.5Z" style="fill:rgb(247,172,22);fill-rule:nonzero;"/>
    </g>
    <g transform="matrix(1.02415,-0.227049,0.227049,1.02415,-64.5571,51.8094)">
        <path d="M436.3,209.5L369.7,174.7L260.6,383.3C256.8,390.6 247.8,393.4 240.5,389.6L210.8,374C233.2,418.5 268.3,455.7 311.2,480.7L442.6,229.6C446.4,222.3 443.6,213.3 436.3,209.5Z" style="fill:rgb(244,189,37);fill-rule:nonzero;"/>
    </g>
    <g transform="matrix(1.02415,-0.227049,0.227049,1.02415,-64.5571,51.8094)">
        <path d="M260.6,384.3C256.8,391.6 247.8,394.4 240.5,390.6L74.1,303.5C66.8,299.7 64,290.7 67.8,283.4L207.4,16.5C211.2,9.2 220.2,6.4 227.5,10.2L393.9,97.3C401.2,101.1 404,110.1 400.2,117.4L260.6,384.3Z" style="fill:rgb(147,147,147);fill-rule:nonzero;"/>
    </g>
    <g transform="matrix(1.02415,-0.227049,0.227049,1.02415,-64.5571,51.8094)">
        <path d="M183.5,258.7C183.5,300.7 193.6,340.4 211.5,375.4L240.5,390.6C247.8,394.4 256.8,391.6 260.6,384.3L400.2,117.4C404,110.1 401.2,101.1 393.9,97.3L296.2,46.2C228.2,92.3 183.5,170.3 183.5,258.7Z" style="fill:rgb(165,165,165);fill-rule:nonzero;"/>
    </g>
    <g transform="matrix(1.02415,-0.227049,0.227049,1.02415,-64.5571,51.8094)">
        <path d="M451.6,216C449.8,210.3 445.9,205.6 440.6,202.9L380.7,171.5L407.7,119.8C410.5,114.5 411,108.4 409.2,102.7C407.4,97 403.5,92.3 398.2,89.5L231.8,2.6C226.5,-0.2 220.4,-0.7 214.7,1.1C209,2.9 204.3,6.8 201.5,12.1L62,278.9C59.2,284.2 58.7,290.3 60.5,296C62.3,301.7 66.2,306.4 71.5,309.2L131.4,340.6L104.4,392.3C98.7,403.2 102.9,416.8 113.9,422.5L280.3,509.6C283.6,511.3 287.1,512.2 290.7,512.2C292.9,512.2 295.2,511.9 297.4,511.2C303.1,509.4 307.8,505.5 310.5,500.2L450,233.1C452.8,227.8 453.4,221.7 451.6,216ZM78.4,295.8C76.7,294.9 75.4,293.4 74.8,291.5C74.2,289.6 74.4,287.6 75.3,285.9L214.9,19C215.8,17.3 217.3,16 219.2,15.4C221.1,14.8 223.1,15 224.8,15.9L391.2,103C392.9,103.9 394.2,105.4 394.8,107.3C395.4,109.2 395.2,111.2 394.3,112.9L254.7,379.8C253.8,381.5 252.3,382.8 250.4,383.4C248.5,384 246.5,383.8 244.8,382.9L78.4,295.8ZM436.7,226.1L297.1,493C296.2,494.7 294.7,496 292.8,496.6C290.9,497.2 288.9,497 287.2,496.1L120.8,409C117.2,407.1 115.8,402.7 117.7,399.1L144.7,347.4L237.9,396.1C238.5,396.4 239.1,396.7 239.7,396.9C239.8,397 240,397 240.1,397.1C240.7,397.3 241.3,397.5 241.9,397.7C242,397.7 242.1,397.8 242.3,397.8C242.9,398 243.5,398.1 244,398.2L244.2,398.2C244.8,398.3 245.5,398.4 246.1,398.5L246.5,398.5C247.1,398.5 247.7,398.6 248.3,398.6L248.8,398.6C249.3,398.6 249.8,398.6 250.4,398.5C250.6,398.5 250.8,398.5 251.1,398.4C251.6,398.3 252,398.3 252.5,398.2C252.7,398.2 252.9,398.1 253.1,398.1C253.8,398 254.4,397.8 255,397.6C260.7,395.8 265.4,391.9 268.2,386.6L373.8,184.7L433.7,216.1C435.4,217 436.7,218.5 437.3,220.4C437.8,222.4 437.6,224.4 436.7,226.1Z" style="fill:rgb(35,31,32);fill-rule:nonzero;"/>
    </g>
    <g transform="matrix(65.4433,16.5855,-16.5855,65.4436,135.893,173.847)">
        <path d="M0.501,-0L0.077,-0L0.077,-0.714L0.501,-0.714L0.501,-0.559L0.27,-0.559L0.27,-0.447L0.484,-0.447L0.484,-0.292L0.27,-0.292L0.27,-0.157L0.501,-0.157L0.501,-0Z" style="fill-rule:nonzero;"/>
    </g>
    <g transform="matrix(65.4433,16.5855,-16.5855,65.4436,171.81,182.949)">
        <path d="M0.021,0.224C-0.014,0.224 -0.048,0.221 -0.079,0.214L-0.079,0.064C-0.069,0.066 -0.058,0.068 -0.046,0.071C-0.034,0.073 -0.021,0.074 -0.008,0.074C0.024,0.074 0.047,0.065 0.061,0.045C0.074,0.026 0.081,-0.007 0.081,-0.053L0.081,-0.714L0.275,-0.714L0.275,-0.07C0.275,0.027 0.254,0.1 0.211,0.15C0.169,0.199 0.106,0.224 0.021,0.224Z" style="fill-rule:nonzero;"/>
    </g>
    <g transform="matrix(65.4433,16.5855,-16.5855,65.4436,194.849,188.788)">
        <path d="M0.501,-0L0.077,-0L0.077,-0.714L0.501,-0.714L0.501,-0.559L0.27,-0.559L0.27,-0.447L0.484,-0.447L0.484,-0.292L0.27,-0.292L0.27,-0.157L0.501,-0.157L0.501,-0Z" style="fill-rule:nonzero;"/>
    </g>
    <g transform="matrix(65.4433,16.5855,-16.5855,65.4436,230.767,197.89)">
        <path d="M0.395,-0.566C0.349,-0.566 0.313,-0.547 0.288,-0.51C0.262,-0.472 0.249,-0.42 0.249,-0.354C0.249,-0.217 0.301,-0.148 0.406,-0.148C0.437,-0.148 0.468,-0.152 0.498,-0.161C0.527,-0.17 0.557,-0.181 0.587,-0.193L0.587,-0.03C0.527,-0.003 0.46,0.01 0.385,0.01C0.277,0.01 0.194,-0.021 0.137,-0.084C0.08,-0.146 0.051,-0.237 0.051,-0.355C0.051,-0.429 0.065,-0.494 0.093,-0.55C0.12,-0.606 0.16,-0.649 0.213,-0.679C0.265,-0.709 0.326,-0.724 0.397,-0.724C0.474,-0.724 0.548,-0.707 0.618,-0.674L0.559,-0.522C0.533,-0.534 0.506,-0.545 0.48,-0.553C0.454,-0.562 0.425,-0.566 0.395,-0.566Z" style="fill-rule:nonzero;"/>
    </g>
    <g transform="matrix(65.4433,16.5855,-16.5855,65.4436,273.235,208.653)">
        <path d="M0.392,-0L0.199,-0L0.199,-0.556L0.025,-0.556L0.025,-0.714L0.566,-0.714L0.566,-0.556L0.392,-0.556L0.392,-0Z" style="fill-rule:nonzero;"/>
    </g>
    <g transform="matrix(0.0388673,0.00985023,-0.00985023,0.0388673,222.414,55.7923)">
        <path d="M141,979L851,269C863.667,256.333 878.667,250 896,250C913.333,250 928.333,256.333 941,269L1651,979C1663.67,991.667 1668,1002.33 1664,1011C1660,1019.67 1649.33,1024 1632,1024L160,1024C142.667,1024 132,1019.67 128,1011C124,1002.33 128.333,991.667 141,979ZM1600,1536L192,1536C174.667,1536 159.667,1529.67 147,1517C134.333,1504.33 128,1489.33 128,1472L128,1216C128,1198.67 134.333,1183.67 147,1171C159.667,1158.33 174.667,1152 192,1152L1600,1152C1617.33,1152 1632.33,1158.33 1645,1171C1657.67,1183.67 1664,1198.67 1664,1216L1664,1472C1664,1489.33 1657.67,1504.33 1645,1517C1632.33,1529.67 1617.33,1536 1600,1536Z" style="fill-rule:nonzero;"/>
    </g>
</svg>
