<?xml version="1.0" encoding="UTF-8" standalone="no"?>
<!DOCTYPE svg PUBLIC "-//W3C//DTD SVG 1.1//EN" "http://www.w3.org/Graphics/SVG/1.1/DTD/svg11.dtd">
<svg width="100%" height="100%" viewBox="0 0 512 512" version="1.1" xmlns="http://www.w3.org/2000/svg" xmlns:xlink="http://www.w3.org/1999/xlink" xml:space="preserve" xmlns:serif="http://www.serif.com/" style="fill-rule:evenodd;clip-rule:evenodd;stroke-linejoin:round;stroke-miterlimit:2;">
    <g id="rote_karte_2">
        <path d="M332.6,395.3C337.1,373.9 347.6,323.7 347.6,323.7L401.1,68.7C403.1,59 396.9,49.6 387.3,47.5L200.6,8.4C190.9,6.4 181.5,12.6 179.4,22.2L114.5,331.2C112.5,340.9 118.7,350.3 128.3,352.4L301.6,388.8L332.6,395.3Z" style="fill:rgb(244,175,28);fill-rule:nonzero;"/>
        <path d="M387.2,47.5L283.7,25.8C259.4,58.1 241.7,96.2 232.8,138.3C213.2,231.3 241.5,323.3 300.9,388.6L301.8,388.8L332.6,395.4L347.7,323.8L401.2,68.8C403.2,59.1 397,49.6 387.2,47.5Z" style="fill:rgb(242,189,35);fill-rule:nonzero;"/>
        <path d="M142.3,337.1L207.2,28.1C209.2,18.4 218.7,12.3 228.4,14.3L200.7,8.5C191,6.5 181.6,12.7 179.5,22.3L114.6,331.3C112.6,341 118.8,350.4 128.4,352.5L156.1,358.3C146.4,356.2 140.3,346.7 142.3,337.1Z" style="fill:rgb(207,149,23);fill-rule:nonzero;"/>
    </g>
    <g id="gelbe_Karte">
        <path d="M365,353.9C360.7,332.4 350.7,282.1 350.7,282.1L300,26.6C298.1,16.9 288.7,10.6 279,12.5L91.9,49.6C82.2,51.5 75.9,60.9 77.8,70.6L139.2,380.4C141.1,390.1 150.5,396.4 160.2,394.5L334,360L365,353.9Z" style="fill:rgb(147,147,147);fill-rule:nonzero;"/>
        <path d="M279,12.5L175.2,33.1C165.5,72.3 164.1,114.3 172.5,156.6C191,249.8 253,323.3 333.2,360.1L334.1,359.9L365,353.9L350.8,282.1L300.1,26.6C298.1,16.9 288.7,10.6 279,12.5Z" style="fill:rgb(165,165,165);fill-rule:nonzero;"/>
        <path d="M167.1,374.9L105.7,65.1C103.8,55.4 110.1,46 119.8,44.1L92,49.5C82.3,51.4 76,60.8 77.9,70.5L139.3,380.3C141.2,390 150.6,396.3 160.3,394.4L188.1,388.9C178.4,390.8 169,384.5 167.1,374.9Z" style="fill:rgb(122,122,122);fill-rule:nonzero;"/>
    </g>
    <g transform="matrix(68.4724,-14.5425,14.5426,68.4727,127.215,222.669)">
        <path d="M0.501,-0L0.077,-0L0.077,-0.714L0.501,-0.714L0.501,-0.559L0.27,-0.559L0.27,-0.447L0.484,-0.447L0.484,-0.292L0.27,-0.292L0.27,-0.157L0.501,-0.157L0.501,-0Z" style="fill-rule:nonzero;"/>
    </g>
    <g transform="matrix(68.4724,-14.5425,14.5426,68.4727,164.794,214.688)">
        <path d="M0.021,0.224C-0.014,0.224 -0.048,0.221 -0.079,0.214L-0.079,0.064C-0.069,0.066 -0.058,0.068 -0.046,0.071C-0.034,0.073 -0.021,0.074 -0.008,0.074C0.024,0.074 0.047,0.065 0.061,0.045C0.074,0.026 0.081,-0.007 0.081,-0.053L0.081,-0.714L0.275,-0.714L0.275,-0.07C0.275,0.027 0.254,0.1 0.211,0.15C0.169,0.199 0.106,0.224 0.021,0.224Z" style="fill-rule:nonzero;"/>
    </g>
    <g transform="matrix(68.4724,-14.5425,14.5426,68.4727,188.9,209.568)">
        <path d="M0.501,-0L0.077,-0L0.077,-0.714L0.501,-0.714L0.501,-0.559L0.27,-0.559L0.27,-0.447L0.484,-0.447L0.484,-0.292L0.27,-0.292L0.27,-0.157L0.501,-0.157L0.501,-0Z" style="fill-rule:nonzero;"/>
    </g>
    <g transform="matrix(68.4724,-14.5425,14.5426,68.4727,226.48,201.586)">
        <path d="M0.395,-0.566C0.349,-0.566 0.313,-0.547 0.288,-0.51C0.262,-0.472 0.249,-0.42 0.249,-0.354C0.249,-0.217 0.301,-0.148 0.406,-0.148C0.437,-0.148 0.468,-0.152 0.498,-0.161C0.527,-0.17 0.557,-0.181 0.587,-0.193L0.587,-0.03C0.527,-0.003 0.46,0.01 0.385,0.01C0.277,0.01 0.194,-0.021 0.137,-0.084C0.08,-0.146 0.051,-0.237 0.051,-0.355C0.051,-0.429 0.065,-0.494 0.093,-0.55C0.12,-0.606 0.16,-0.649 0.213,-0.679C0.265,-0.709 0.326,-0.724 0.397,-0.724C0.474,-0.724 0.548,-0.707 0.618,-0.674L0.559,-0.522C0.533,-0.534 0.506,-0.545 0.48,-0.553C0.454,-0.562 0.425,-0.566 0.395,-0.566Z" style="fill-rule:nonzero;"/>
    </g>
    <g transform="matrix(68.4724,-14.5425,14.5426,68.4727,270.914,192.149)">
        <path d="M0.392,-0L0.199,-0L0.199,-0.556L0.025,-0.556L0.025,-0.714L0.566,-0.714L0.566,-0.556L0.392,-0.556L0.392,-0Z" style="fill-rule:nonzero;"/>
    </g>
    <g transform="matrix(0.0406663,-0.00863693,0.00863693,0.0406663,153.634,73.2287)">
        <path d="M141,979L851,269C863.667,256.333 878.667,250 896,250C913.333,250 928.333,256.333 941,269L1651,979C1663.67,991.667 1668,1002.33 1664,1011C1660,1019.67 1649.33,1024 1632,1024L160,1024C142.667,1024 132,1019.67 128,1011C124,1002.33 128.333,991.667 141,979ZM1600,1536L192,1536C174.667,1536 159.667,1529.67 147,1517C134.333,1504.33 128,1489.33 128,1472L128,1216C128,1198.67 134.333,1183.67 147,1171C159.667,1158.33 174.667,1152 192,1152L1600,1152C1617.33,1152 1632.33,1158.33 1645,1171C1657.67,1183.67 1664,1198.67 1664,1216L1664,1472C1664,1489.33 1657.67,1504.33 1645,1517C1632.33,1529.67 1617.33,1536 1600,1536Z" style="fill-rule:nonzero;"/>
    </g>
    <path d="M377.8,165.4C377.6,178.7 371.7,191.2 371.8,204.7C371.8,208.2 370,210.6 367.5,211.7C367.5,212.1 367.5,212.5 367.4,212.9C366,230 363.2,247 363.1,264.2C363.1,269.3 359.2,271.8 355.3,271.9L355.3,284.1L332.4,251.4C321.7,236.1 300.6,232.3 285.3,243C284.8,243.3 284.3,243.7 283.8,244.1C269.4,255 266,275.5 276.5,290.4L323.8,358.1L323.3,358.1C324.3,359 325.2,360.1 326,361.3C326.6,362.1 326.9,363.1 327,364.1C329.4,366.6 331.4,369.3 332.3,372.6C334.9,381.6 327.5,387.8 319.4,389.6C311,391.5 302.3,389.2 295.8,384.2C298.8,394.9 303.8,408.5 312.1,424.1C325.1,448.8 328.1,473.5 328.5,488.7C328.5,490.4 328.6,492 328.5,493.5C329.2,497.9 332,503.6 342.2,503.6L436.4,503.6C436.7,503.6 439.8,503.5 442.7,501.7C445.8,499.9 448.9,496.2 448,488.4C444.7,465.1 441.5,415.9 456.4,357.8C456.3,357.7 456.2,357.7 456,357.6C457.9,350.3 460,343 462.5,335.5C488.8,255.8 416.4,192.5 377.8,165.4Z" style="fill:rgb(249,209,138);fill-rule:nonzero;"/>
    <path d="M427.1,198C414.1,184.4 400.4,173.1 388.8,164.4L408.7,69.9C411.5,57 403.1,44.2 390.1,41.4L307.2,24C305.8,17.9 302.3,12.6 297.1,9.2C291.7,5.6 285.3,4.4 279.1,5.6L248.5,11.7L200.8,1.7C194.5,0.4 188.1,1.6 182.7,5.1C177.3,8.6 173.6,14 172.3,20.3L170.9,27.1L89.4,43.1C83,44.4 77.6,48 74,53.4C70.4,58.8 69.2,65.2 70.4,71.4L114.6,294.7L107,330.9C105.7,337.2 106.9,343.6 110.4,349C113.9,354.4 119.3,358.1 125.6,359.4L127.5,359.8L132.1,382.9C133.4,389.3 137,394.7 142.4,398.3C146.4,401 151,402.3 155.7,402.3C157.3,402.3 158.9,402.1 160.5,401.8L246.7,384.7L290.8,394C294,403.7 298.6,414.9 305.2,427.6C317.3,450.6 320.3,473.6 320.7,488.9C320.7,490.4 320.8,491.9 320.7,493.4C320.7,493.8 320.7,494.2 320.8,494.6C322.4,504.9 330.3,511 341.9,511L436.1,511C437.5,511 444.8,510.6 450,504.8C452.6,501.9 455.5,496.6 454.6,487.9L454.6,487.6C450.8,459.6 447.8,402.9 469.2,337.7C484.5,291.3 469.9,243 427.1,198ZM394,66.8L353.7,258.5L310.4,39.9L386.9,56C391.9,57.1 395,61.9 394,66.8ZM186.9,23.3C187.4,20.9 188.8,18.9 190.8,17.6C192.3,16.6 194,16.1 195.7,16.1C196.3,16.1 196.9,16.2 197.6,16.3L211,19L186.9,23.8L186.9,23.3ZM122.9,340.8C121.6,338.8 121.1,336.4 121.6,334L122,332.2L123.9,342C123.6,341.7 123.2,341.3 122.9,340.8ZM157.4,387.2C155.1,387.7 152.7,387.2 150.6,385.9C148.6,384.5 147.2,382.5 146.7,380L85.1,68.5C84.6,66.2 85.1,63.8 86.4,61.7C87.8,59.7 89.8,58.3 92.3,57.8L282,20.3C282.6,20.2 283.2,20.1 283.8,20.1C285.6,20.1 287.3,20.6 288.8,21.6C290.8,23 292.2,25 292.7,27.5L335.6,244.2C335.4,244 335.2,243.7 335,243.5C334.9,243.3 334.7,243.2 334.6,243C334.2,242.5 333.8,242.1 333.3,241.7L333,241.4C332.5,240.9 331.9,240.4 331.4,239.9L331.3,239.8C330.1,238.7 328.8,237.7 327.5,236.8C327.4,236.8 327.4,236.7 327.3,236.7C326.7,236.3 326.1,235.9 325.6,235.6C325.4,235.5 325.3,235.4 325.1,235.3C324.6,235 324.1,234.7 323.6,234.5C323.4,234.4 323.2,234.3 323,234.2C322.6,234 322.1,233.8 321.6,233.5C321.3,233.4 321.1,233.3 320.8,233.1C320.3,232.9 319.9,232.7 319.4,232.5C318.8,232.2 318.1,232 317.4,231.8C317.2,231.7 317.1,231.7 316.9,231.6C316.4,231.4 315.8,231.3 315.3,231.1C315.2,231.1 315.1,231 315,231C311.9,230.1 308.7,229.7 305.4,229.5L304,229.5C298.3,229.5 292.8,230.6 287.7,232.9L287.6,232.9C286.4,233.4 285.2,234 284,234.6C283.9,234.7 283.7,234.7 283.6,234.8C283.2,235 282.7,235.3 282.3,235.6C282.2,235.7 282,235.8 281.9,235.9C281.4,236.2 280.8,236.6 280.3,237C261.6,250.1 257,275.9 270.1,294.6L312.4,354.1L313.8,356.3L157.4,387.2ZM322.6,369.8L327.9,377.8C328.3,378.4 328.3,378.8 328.2,379.2C326.5,383.1 322.2,385.4 318.1,384.5L284.2,377.4L322.6,369.8ZM454.9,333.2C432.5,401.2 435.7,460.3 439.6,489.6C439.9,492.1 439.6,494 438.8,494.9C438,495.8 436.4,496.1 435.9,496.1L341.7,496.1C336.7,496.1 335.8,494.3 335.5,492.9C335.5,491.5 335.5,490 335.4,488.6C334.9,471.8 331.6,446.3 318.2,420.7C313.8,412.4 310.4,404.7 307.8,397.8L314.9,399.3C316.5,399.6 318.1,399.8 319.7,399.8C330.8,399.8 340.8,392 343.4,380.8C343.8,379.1 344.1,377.7 343.9,376.1C343.3,373.4 340.9,369.5 338.6,366.1C338.6,366 338.5,366 338.5,366L282.5,286C279.4,281.5 277.8,276.4 277.8,271.4C277.7,262.9 281.6,254.6 289,249.4C289.5,249.1 290,248.7 290.5,248.4C290.6,248.3 290.8,248.2 290.9,248.1C291.4,247.8 291.8,247.6 292.3,247.4C292.4,247.3 292.6,247.3 292.7,247.2C293.1,247 293.5,246.8 294,246.6C294.2,246.5 294.4,246.4 294.7,246.3C295.1,246.2 295.4,246 295.8,245.9C296.2,245.8 296.5,245.7 296.9,245.6C297.2,245.5 297.4,245.4 297.7,245.4C298,245.3 298.3,245.3 298.6,245.2C298.8,245.1 299.1,245.1 299.3,245.1C299.8,245 300.3,244.9 300.8,244.9C301,244.9 301.2,244.8 301.4,244.8C302,244.7 302.7,244.7 303.3,244.7L303.7,244.7C306.2,244.7 308.7,245 311.1,245.6C311.2,245.6 311.3,245.7 311.4,245.7C311.7,245.8 312.1,245.9 312.4,246C312.5,246 312.7,246.1 312.8,246.1C313.1,246.2 313.4,246.3 313.7,246.4C314.1,246.6 314.5,246.7 314.9,246.9C315,247 315.2,247 315.3,247.1C315.6,247.2 315.9,247.4 316.3,247.6C316.4,247.7 316.5,247.7 316.7,247.8C317,248 317.4,248.2 317.7,248.4C317.8,248.5 317.9,248.5 318,248.6C318.4,248.8 318.8,249.1 319.2,249.3L319.3,249.3C320.2,249.9 321,250.5 321.8,251.2C322.2,251.5 322.5,251.8 322.8,252.2C322.9,252.3 322.9,252.3 323,252.4C323.3,252.7 323.6,253 323.8,253.3L324.1,253.6C324.4,253.9 324.6,254.2 324.8,254.5C324.9,254.6 325,254.7 325,254.8C325.3,255.2 325.6,255.6 325.9,256L382.3,336.8C384.7,340.2 389.3,341 392.7,338.7C396.1,336.3 396.9,331.7 394.6,328.3L369,291.6C367.7,289.9 365.8,287.3 363.6,284.1L385.4,180.6C395.3,188.3 406.3,197.7 416.7,208.7C455.6,249.8 468.6,291.7 454.9,333.2Z" style="fill:rgb(35,31,32);fill-rule:nonzero;"/>
</svg>
