<?xml version="1.0" encoding="utf-8"?>
<!-- Generator: Adobe Illustrator 22.0.0, SVG Export Plug-In . SVG Version: 6.00 Build 0)  -->
<svg version="1.1" id="Layer_1" xmlns="http://www.w3.org/2000/svg" xmlns:xlink="http://www.w3.org/1999/xlink" x="0px" y="0px"
	 viewBox="0 0 512 512" style="enable-background:new 0 0 512 512;" xml:space="preserve">
<style type="text/css">
	.st0{fill:#EA473B;}
	.st1{fill:#F95450;}
	.st2{fill:#F7AC16;}
	.st3{fill:#F4BD25;}
	.st4{fill:#231F20;}
</style>
<path class="st0" d="M436.3,209.5l-66.6-34.8L260.6,383.3c-3.8,7.3-12.8,10.1-20.1,6.3l-99.8-52.2l-30.5,58.3
	c-3.8,7.3-1,16.3,6.3,20.1l166.4,87.1c7.3,3.8,16.3,1,20.1-6.3l139.6-266.9C446.4,222.3,443.6,213.3,436.3,209.5z"/>
<path class="st1" d="M436.3,209.5l-66.6-34.8L260.6,383.3c-3.8,7.3-12.8,10.1-20.1,6.3L210.8,374c22.4,44.5,57.5,81.7,100.4,106.7
	l131.4-251.1C446.4,222.3,443.6,213.3,436.3,209.5z"/>
<path class="st2" d="M260.6,384.3c-3.8,7.3-12.8,10.1-20.1,6.3L74.1,303.5c-7.3-3.8-10.1-12.8-6.3-20.1L207.4,16.5
	c3.8-7.3,12.8-10.1,20.1-6.3l166.4,87.1c7.3,3.8,10.1,12.8,6.3,20.1L260.6,384.3z"/>
<path class="st3" d="M183.5,258.7c0,42,10.1,81.7,28,116.7l29,15.2c7.3,3.8,16.3,1,20.1-6.3l139.6-266.9c3.8-7.3,1-16.3-6.3-20.1
	l-97.7-51.1C228.2,92.3,183.5,170.3,183.5,258.7z"/>
<path class="st4" d="M451.6,216c-1.8-5.7-5.7-10.4-11-13.1l-59.9-31.4l27-51.7c2.8-5.3,3.3-11.4,1.5-17.1c-1.8-5.7-5.7-10.4-11-13.2
	L231.8,2.6c-5.3-2.8-11.4-3.3-17.1-1.5c-5.7,1.8-10.4,5.7-13.2,11L62,278.9c-2.8,5.3-3.3,11.4-1.5,17.1c1.8,5.7,5.7,10.4,11,13.2
	l59.9,31.4l-27,51.7c-5.7,10.9-1.5,24.5,9.5,30.2l166.4,87.1c3.3,1.7,6.8,2.6,10.4,2.6c2.2,0,4.5-0.3,6.7-1
	c5.7-1.8,10.4-5.7,13.1-11L450,233.1C452.8,227.8,453.4,221.7,451.6,216z M78.4,295.8c-1.7-0.9-3-2.4-3.6-4.3
	c-0.6-1.9-0.4-3.9,0.5-5.6L214.9,19c0.9-1.7,2.4-3,4.3-3.6s3.9-0.4,5.6,0.5l166.4,87.1c1.7,0.9,3,2.4,3.6,4.3
	c0.6,1.9,0.4,3.9-0.5,5.6L254.7,379.8c-0.9,1.7-2.4,3-4.3,3.6c-1.9,0.6-3.9,0.4-5.6-0.5L78.4,295.8z M436.7,226.1L297.1,493
	c-0.9,1.7-2.4,3-4.3,3.6c-1.9,0.6-3.9,0.4-5.6-0.5l-166.4-87.1c-3.6-1.9-5-6.3-3.1-9.9l27-51.7l93.2,48.7c0.6,0.3,1.2,0.6,1.8,0.8
	c0.1,0.1,0.3,0.1,0.4,0.2c0.6,0.2,1.2,0.4,1.8,0.6c0.1,0,0.2,0.1,0.4,0.1c0.6,0.2,1.2,0.3,1.7,0.4c0.1,0,0.1,0,0.2,0
	c0.6,0.1,1.3,0.2,1.9,0.3c0.1,0,0.3,0,0.4,0c0.6,0,1.2,0.1,1.8,0.1c0,0,0.1,0,0.1,0c0.1,0,0.3,0,0.4,0c0.5,0,1,0,1.6-0.1
	c0.2,0,0.4,0,0.7-0.1c0.5-0.1,0.9-0.1,1.4-0.2c0.2,0,0.4-0.1,0.6-0.1c0.7-0.1,1.3-0.3,1.9-0.5c5.7-1.8,10.4-5.7,13.2-11l105.6-201.9
	l59.9,31.4c1.7,0.9,3,2.4,3.6,4.3C437.8,222.4,437.6,224.4,436.7,226.1z"/>
</svg>
