<?xml version="1.0" encoding="utf-8"?>
<!-- Generator: Adobe Illustrator 22.0.0, SVG Export Plug-In . SVG Version: 6.00 Build 0)  -->
<svg version="1.1" id="Layer_1" xmlns="http://www.w3.org/2000/svg" xmlns:xlink="http://www.w3.org/1999/xlink" x="0px" y="0px"
	 viewBox="0 0 512 512" style="enable-background:new 0 0 512 512;" xml:space="preserve">
<style type="text/css">
	.st0{fill:#F9D18A;}
	.st1{fill:#EA473B;}
	.st2{fill:#F75652;}
	.st3{fill:#D32420;}
	.st4{fill:#231F20;}
</style>
<path class="st0" d="M249.1,359c0,0,0,26.3,20.9,66c13,24.7,16,49.4,16.4,64.6l0,0c0,0,0,0,0,0c0,1.7,0.1,3.3,0,4.8
	c0.7,4.4,3.5,10.1,13.7,10.1h94.2h0c0.7,0,12.7-0.3,11.1-14.9c0,0,0,0,0,0c-3.6-26.5-7.3-85.6,15-153.2
	C455.7,229.4,313.2,152,313.2,152v133.9l-23.3-33.3c-10.7-15.3-31.8-19.1-47.1-8.4c-15.3,10.7-19.1,31.8-8.4,47.1l47.3,67.7
	L249.1,359L249.1,359L249.1,359z"/>
<path class="st1" d="M234.4,291.3c-10.7-15.3-7-36.4,8.4-47.1c15.3-10.7,36.4-7,47.1,8.4l23.3,33.3V25.4c0-9.9-8-17.9-17.9-17.9
	H104.6c-9.9,0-17.9,8-17.9,17.9v315.8c0,9.9,8,17.9,17.9,17.9h177.1L234.4,291.3z"/>
<path class="st2" d="M295.3,7.5H189.5c-17.1,36.6-26.7,77.5-26.7,120.6c0,95,46.6,179.2,118.1,230.9h0.9l-47.3-67.7
	c-10.7-15.3-7-36.4,8.4-47.1c15.3-10.7,36.4-7,47.1,8.4l23.3,33.3V25.4C313.2,15.5,305.2,7.5,295.3,7.5z"/>
<path class="st3" d="M115.1,341.2V25.4c0-9.9,8-17.9,17.9-17.9h-28.3c-9.9,0-17.9,8-17.9,17.9v315.8c0,9.9,8,17.9,17.9,17.9H133
	C123.1,359,115.1,351,115.1,341.2z"/>
<path class="st4" d="M385.1,198.9c-26-27.2-54.5-45.2-64.8-51.3l0-122.3c0-14-11.4-25.4-25.4-25.4H104.3c-14,0-25.4,11.4-25.4,25.4
	v315.8c0,14,11.4,25.4,25.4,25.4h137.6c1.4,10.9,5.9,33.1,21.1,62c12.1,23,15.1,46,15.5,61.3c0,0,0,0,0,0c0,1.5,0.1,3,0,4.5
	c0,0.4,0,0.8,0.1,1.2c1.6,10.3,9.5,16.4,21.1,16.4H394c0,0,0,0,0.1,0c1.4,0,8.7-0.4,13.9-6.2c2.6-2.9,5.5-8.2,4.6-16.9
	c0-0.1,0-0.2,0-0.3c-3.8-28-6.8-84.7,14.6-149.9C442.5,292.2,427.9,243.9,385.1,198.9z M104.3,351.5c-5.7,0-10.4-4.7-10.4-10.4V25.4
	c0-5.7,4.7-10.4,10.4-10.4h190.7c5.7,0,10.4,4.7,10.4,10.4l0,126.6v110.1l-9.6-13.8c-0.5-0.7-0.9-1.3-1.4-1.9
	c-0.1-0.2-0.3-0.3-0.4-0.5c-0.4-0.5-0.8-0.9-1.2-1.4c-0.1-0.2-0.3-0.3-0.4-0.5c-0.4-0.5-0.8-0.9-1.3-1.3c-0.1-0.1-0.2-0.2-0.3-0.3
	c-0.5-0.5-1.1-1-1.6-1.5c0,0-0.1-0.1-0.1-0.1c-1.2-1.1-2.5-2.1-3.8-3c-0.1,0-0.1-0.1-0.2-0.1c-0.6-0.4-1.2-0.8-1.7-1.1
	c-0.2-0.1-0.3-0.2-0.5-0.3c-0.5-0.3-1-0.6-1.5-0.8c-0.2-0.1-0.4-0.2-0.7-0.3c-0.4-0.2-0.9-0.4-1.4-0.7c-0.3-0.1-0.5-0.2-0.8-0.4
	c-0.5-0.2-0.9-0.4-1.4-0.6c-0.6-0.3-1.3-0.5-2-0.7c-0.2-0.1-0.3-0.1-0.5-0.2c-0.5-0.2-1.1-0.3-1.6-0.5c-0.1,0-0.2-0.1-0.3-0.1
	c-3.1-0.9-6.3-1.3-9.6-1.5c0,0-0.1,0-0.1,0c-0.4,0-0.9,0-1.3,0c-5.7,0-11.2,1.1-16.3,3.4c0,0-0.1,0-0.1,0c-1.2,0.5-2.4,1.1-3.6,1.7
	c-0.1,0.1-0.3,0.1-0.4,0.2c-0.4,0.2-0.9,0.5-1.3,0.8c-0.1,0.1-0.3,0.2-0.4,0.3c-0.5,0.3-1.1,0.7-1.6,1.1
	c-18.7,13.1-23.3,38.9-10.2,57.6l39.1,55.9h-18.2H104.3z M412.9,334.1c-22.4,68-19.2,127.1-15.3,156.4c0.3,2.5,0,4.4-0.8,5.3
	c-0.8,0.9-2.4,1.2-2.9,1.2h-94.2c-5,0-5.9-1.8-6.2-3.2c0-1.4,0-2.9-0.1-4.3c0,0,0,0,0,0c-0.5-16.8-3.8-42.3-17.2-67.9
	c-13.3-25.3-17.7-45-19.2-55.1h20.4l6.9,9.9c1.5,2.1,3.8,3.2,6.2,3.2c1.5,0,3-0.4,4.3-1.4c3.4-2.4,4.2-7,1.9-10.4L240.2,287
	c-3.1-4.5-4.7-9.6-4.7-14.6c-0.1-8.5,3.8-16.8,11.2-22c0.5-0.3,1-0.7,1.5-1c0.1-0.1,0.3-0.2,0.4-0.3c0.5-0.3,0.9-0.5,1.4-0.7
	c0.1-0.1,0.3-0.1,0.4-0.2c0.4-0.2,0.8-0.4,1.3-0.6c0.2-0.1,0.4-0.2,0.7-0.3c0.4-0.1,0.7-0.3,1.1-0.4c0.4-0.1,0.7-0.2,1.1-0.3
	c0.3-0.1,0.5-0.2,0.8-0.2c0.3-0.1,0.6-0.1,0.9-0.2c0.2-0.1,0.5-0.1,0.7-0.1c0.5-0.1,1-0.2,1.5-0.2c0.2,0,0.4,0,0.6-0.1
	c0.6-0.1,1.3-0.1,1.9-0.1c0.1,0,0.2,0,0.4,0c2.5,0,5,0.3,7.4,0.9c0.1,0,0.2,0.1,0.3,0.1c0.3,0.1,0.7,0.2,1,0.3
	c0.1,0,0.3,0.1,0.4,0.1c0.3,0.1,0.6,0.2,0.9,0.3c0.4,0.2,0.8,0.3,1.2,0.5c0.1,0.1,0.3,0.1,0.4,0.2c0.3,0.1,0.6,0.3,1,0.5
	c0.1,0.1,0.2,0.1,0.4,0.2c0.3,0.2,0.7,0.4,1,0.6c0.1,0.1,0.2,0.1,0.3,0.2c0.4,0.2,0.8,0.5,1.2,0.7c0,0,0,0,0.1,0
	c0.9,0.6,1.7,1.2,2.5,1.9c0,0,0,0,0,0c0.4,0.3,0.7,0.6,1,1c0.1,0.1,0.1,0.1,0.2,0.2c0.3,0.3,0.6,0.6,0.8,0.9
	c0.1,0.1,0.2,0.2,0.3,0.3c0.3,0.3,0.5,0.6,0.7,0.9c0.1,0.1,0.2,0.2,0.2,0.3c0.3,0.4,0.6,0.8,0.9,1.2l56.4,80.8
	c2.4,3.4,7,4.2,10.4,1.9c3.4-2.4,4.2-7,1.9-10.4l-31.8-45.6V165.3c12.8,8.2,34.5,23.5,54.2,44.2
	C413.6,250.7,426.6,292.6,412.9,334.1z"/>
</svg>
