<?xml version="1.0" encoding="utf-8"?>
<!-- Generator: Adobe Illustrator 22.1.0, SVG Export Plug-In . SVG Version: 6.00 Build 0)  -->
<svg version="1.1" id="Layer_1" xmlns="http://www.w3.org/2000/svg" xmlns:xlink="http://www.w3.org/1999/xlink" x="0px" y="0px"
	 viewBox="0 0 512 511.1" style="enable-background:new 0 0 512 511.1;" xml:space="preserve">
<style type="text/css">
	.st0{fill:#EA473B;}
	.st1{fill:#F75652;}
	.st2{fill:#D32420;}
	.st3{fill:#F4AF1C;}
	.st4{fill:#F2BD23;}
	.st5{fill:#CF9517;}
	.st6{fill:#F9D18A;}
	.st7{fill:#231F20;}
</style>
<g id="rote_karte_2">
	<path class="st0" d="M332.6,395.3c4.5-21.4,15-71.6,15-71.6l53.5-255c2-9.7-4.2-19.1-13.8-21.2L200.6,8.4
		c-9.7-2-19.1,4.2-21.2,13.8l-64.9,309c-2,9.7,4.2,19.1,13.8,21.2l173.3,36.4L332.6,395.3z"/>
	<path class="st1" d="M387.2,47.5L283.7,25.8c-24.3,32.3-42,70.4-50.9,112.5c-19.6,93,8.7,185,68.1,250.3l0.9,0.2l30.8,6.6
		l15.1-71.6l53.5-255C403.2,59.1,397,49.6,387.2,47.5z"/>
	<path class="st2" d="M142.3,337.1l64.9-309c2-9.7,11.5-15.8,21.2-13.8l-27.7-5.8c-9.7-2-19.1,4.2-21.2,13.8l-64.9,309
		c-2,9.7,4.2,19.1,13.8,21.2l27.7,5.8C146.4,356.2,140.3,346.7,142.3,337.1z"/>
</g>
<g id="gelbe_Karte">
	<path class="st3" d="M365,353.9c-4.3-21.5-14.3-71.8-14.3-71.8L300,26.6c-1.9-9.7-11.3-16-21-14.1L91.9,49.6
		c-9.7,1.9-16,11.3-14.1,21l61.4,309.8c1.9,9.7,11.3,16,21,14.1L334,360L365,353.9L365,353.9z"/>
	<path class="st4" d="M279,12.5L175.2,33.1c-9.7,39.2-11.1,81.2-2.7,123.5C191,249.8,253,323.3,333.2,360.1l0.9-0.2l30.9-6
		l-14.2-71.8L300.1,26.6C298.1,16.9,288.7,10.6,279,12.5z"/>
	<path class="st5" d="M167.1,374.9L105.7,65.1c-1.9-9.7,4.4-19.1,14.1-21L92,49.5c-9.7,1.9-16,11.3-14.1,21l61.4,309.8
		c1.9,9.7,11.3,16,21,14.1l27.8-5.5C178.4,390.8,169,384.5,167.1,374.9z"/>
</g>
<path class="st6" d="M377.8,165.4c-0.2,13.3-6.1,25.8-6,39.3c0,3.5-1.8,5.9-4.3,7c0,0.4,0,0.8-0.1,1.2c-1.4,17.1-4.2,34.1-4.3,51.3
	c0,5.1-3.9,7.6-7.8,7.7v12.2l-22.9-32.7c-10.7-15.3-31.8-19.1-47.1-8.4c-0.5,0.3-1,0.7-1.5,1.1c-14.4,10.9-17.8,31.4-7.3,46.3
	l47.3,67.7h-0.5c1,0.9,1.9,2,2.7,3.2c0.6,0.8,0.9,1.8,1,2.8c2.4,2.5,4.4,5.2,5.3,8.5c2.6,9-4.8,15.2-12.9,17
	c-8.4,1.9-17.1-0.4-23.6-5.4c3,10.7,8,24.3,16.3,39.9c13,24.7,16,49.4,16.4,64.6c0,1.7,0.1,3.3,0,4.8c0.7,4.4,3.5,10.1,13.7,10.1
	h94.2c0.3,0,3.4-0.1,6.3-1.9c3.1-1.8,6.2-5.5,5.3-13.3c-3.3-23.3-6.5-72.5,8.4-130.6c-0.1-0.1-0.2-0.1-0.4-0.2
	c1.9-7.3,4-14.6,6.5-22.1C488.8,255.8,416.4,192.5,377.8,165.4z"/>
<path class="st7" d="M427.1,198c-13-13.6-26.7-24.9-38.3-33.6l19.9-94.5c2.8-12.9-5.6-25.7-18.6-28.5L307.2,24
	c-1.4-6.1-4.9-11.4-10.1-14.8c-5.4-3.6-11.8-4.8-18-3.6l-30.6,6.1l-47.7-10c-6.3-1.3-12.7-0.1-18.1,3.4c-5.4,3.5-9.1,8.9-10.4,15.2
	l-1.4,6.8l-81.5,16C83,44.4,77.6,48,74,53.4s-4.8,11.8-3.6,18l44.2,223.3l-7.6,36.2c-1.3,6.3-0.1,12.7,3.4,18.1s8.9,9.1,15.2,10.4
	l1.9,0.4l4.6,23.1c1.3,6.4,4.9,11.8,10.3,15.4c4,2.7,8.6,4,13.3,4c1.6,0,3.2-0.2,4.8-0.5l86.2-17.1l44.1,9.3
	c3.2,9.7,7.8,20.9,14.4,33.6c12.1,23,15.1,46,15.5,61.3c0,1.5,0.1,3,0,4.5c0,0.4,0,0.8,0.1,1.2c1.6,10.3,9.5,16.4,21.1,16.4H436
	c0,0,0,0,0.1,0c1.4,0,8.7-0.4,13.9-6.2c2.6-2.9,5.5-8.2,4.6-16.9v-0.3c-3.8-28-6.8-84.7,14.6-149.9C484.5,291.3,469.9,243,427.1,198
	z M394,66.8l-40.3,191.7L310.4,39.9L386.9,56C391.9,57.1,395,61.9,394,66.8z M186.9,23.3c0.5-2.4,1.9-4.4,3.9-5.7
	c1.5-1,3.2-1.5,4.9-1.5c0.6,0,1.2,0.1,1.9,0.2L211,19l-24.1,4.8V23.3z M122.9,340.8c-1.3-2-1.8-4.4-1.3-6.8l0.4-1.8l1.9,9.8
	C123.6,341.7,123.2,341.3,122.9,340.8z M157.4,387.2c-2.3,0.5-4.7,0-6.8-1.3c-2-1.4-3.4-3.4-3.9-5.9L85.1,68.5
	c-0.5-2.3,0-4.7,1.3-6.8c1.4-2,3.4-3.4,5.9-3.9L282,20.3c0.6-0.1,1.2-0.2,1.8-0.2c1.8,0,3.5,0.5,5,1.5c2,1.4,3.4,3.4,3.9,5.9
	l42.9,216.7c-0.2-0.2-0.4-0.5-0.6-0.7c-0.1-0.2-0.3-0.3-0.4-0.5c-0.4-0.5-0.8-0.9-1.3-1.3l-0.3-0.3c-0.5-0.5-1.1-1-1.6-1.5l-0.1-0.1
	c-1.2-1.1-2.5-2.1-3.8-3c-0.1,0-0.1-0.1-0.2-0.1c-0.6-0.4-1.2-0.8-1.7-1.1c-0.2-0.1-0.3-0.2-0.5-0.3c-0.5-0.3-1-0.6-1.5-0.8
	c-0.2-0.1-0.4-0.2-0.6-0.3c-0.4-0.2-0.9-0.4-1.4-0.7c-0.3-0.1-0.5-0.2-0.8-0.4c-0.5-0.2-0.9-0.4-1.4-0.6c-0.6-0.3-1.3-0.5-2-0.7
	c-0.2-0.1-0.3-0.1-0.5-0.2c-0.5-0.2-1.1-0.3-1.6-0.5c-0.1,0-0.2-0.1-0.3-0.1c-3.1-0.9-6.3-1.3-9.6-1.5H304c-5.7,0-11.2,1.1-16.3,3.4
	h-0.1c-1.2,0.5-2.4,1.1-3.6,1.7c-0.1,0.1-0.3,0.1-0.4,0.2c-0.4,0.2-0.9,0.5-1.3,0.8c-0.1,0.1-0.3,0.2-0.4,0.3
	c-0.5,0.3-1.1,0.7-1.6,1.1c-18.7,13.1-23.3,38.9-10.2,57.6l42.3,59.5l1.4,2.2L157.4,387.2z M322.6,369.8l5.3,8
	c0.4,0.6,0.4,1,0.3,1.4c-1.7,3.9-6,6.2-10.1,5.3l-33.9-7.1L322.6,369.8z M454.9,333.2c-22.4,68-19.2,127.1-15.3,156.4
	c0.3,2.5,0,4.4-0.8,5.3s-2.4,1.2-2.9,1.2h-94.2c-5,0-5.9-1.8-6.2-3.2c0-1.4,0-2.9-0.1-4.3c-0.5-16.8-3.8-42.3-17.2-67.9
	c-4.4-8.3-7.8-16-10.4-22.9l7.1,1.5c1.6,0.3,3.2,0.5,4.8,0.5c11.1,0,21.1-7.8,23.7-19c0.4-1.7,0.7-3.1,0.5-4.7
	c-0.6-2.7-3-6.6-5.3-10c0-0.1-0.1-0.1-0.1-0.1l-56-80c-3.1-4.5-4.7-9.6-4.7-14.6c-0.1-8.5,3.8-16.8,11.2-22c0.5-0.3,1-0.7,1.5-1
	c0.1-0.1,0.3-0.2,0.4-0.3c0.5-0.3,0.9-0.5,1.4-0.7c0.1-0.1,0.3-0.1,0.4-0.2c0.4-0.2,0.8-0.4,1.3-0.6c0.2-0.1,0.4-0.2,0.7-0.3
	c0.4-0.1,0.7-0.3,1.1-0.4c0.4-0.1,0.7-0.2,1.1-0.3c0.3-0.1,0.5-0.2,0.8-0.2c0.3-0.1,0.6-0.1,0.9-0.2c0.2-0.1,0.5-0.1,0.7-0.1
	c0.5-0.1,1-0.2,1.5-0.2c0.2,0,0.4-0.1,0.6-0.1c0.6-0.1,1.3-0.1,1.9-0.1h0.4c2.5,0,5,0.3,7.4,0.9c0.1,0,0.2,0.1,0.3,0.1
	c0.3,0.1,0.7,0.2,1,0.3c0.1,0,0.3,0.1,0.4,0.1c0.3,0.1,0.6,0.2,0.9,0.3c0.4,0.2,0.8,0.3,1.2,0.5c0.1,0.1,0.3,0.1,0.4,0.2
	c0.3,0.1,0.6,0.3,1,0.5c0.1,0.1,0.2,0.1,0.4,0.2c0.3,0.2,0.7,0.4,1,0.6c0.1,0.1,0.2,0.1,0.3,0.2c0.4,0.2,0.8,0.5,1.2,0.7
	c0,0,0,0,0.1,0c0.9,0.6,1.7,1.2,2.5,1.9c0.4,0.3,0.7,0.6,1,1c0.1,0.1,0.1,0.1,0.2,0.2c0.3,0.3,0.6,0.6,0.8,0.9l0.3,0.3
	c0.3,0.3,0.5,0.6,0.7,0.9c0.1,0.1,0.2,0.2,0.2,0.3c0.3,0.4,0.6,0.8,0.9,1.2l56.4,80.8c2.4,3.4,7,4.2,10.4,1.9
	c3.4-2.4,4.2-7,1.9-10.4L369,291.6c-1.3-1.7-3.2-4.3-5.4-7.5l21.8-103.5c9.9,7.7,20.9,17.1,31.3,28.1
	C455.6,249.8,468.6,291.7,454.9,333.2z"/>
</svg>
