<?xml version="1.0" encoding="utf-8"?>
<!-- Generator: Adobe Illustrator 22.0.0, SVG Export Plug-In . SVG Version: 6.00 Build 0)  -->
<svg version="1.1" id="Layer_1" xmlns="http://www.w3.org/2000/svg" xmlns:xlink="http://www.w3.org/1999/xlink" x="0px" y="0px"
	 viewBox="0 0 512 512" style="enable-background:new 0 0 512 512;" xml:space="preserve">
<style type="text/css">
	.st0{fill:#F6AF1A;}
	.st1{fill:#F4BD25;}
	.st2{fill:#231F20;}
</style>
<path class="st0" d="M353.2,485.8c-2.4,10.8-13,17.5-23.7,15.1L84.6,446c-10.8-2.4-17.5-13-15.1-23.7l87.8-392.6
	c2.4-10.8,13-17.5,23.7-15.1l245,54.8c10.8,2.4,17.5,13,15.1,23.7L353.2,485.8z"/>
<path class="st1" d="M210.2,350.4c14.5,54.2,41.3,101.9,76.5,140.9l42.7,9.5c10.8,2.4,21.3-4.3,23.7-15.1L441,93.1
	c2.4-10.8-4.3-21.3-15.1-23.7L282.2,37.2C210.4,120.2,179.7,236.3,210.2,350.4z"/>
<path class="st2" d="M447.5,71.1c-4.3-6.7-10.9-11.5-18.7-13.3L184.1,3.2c-7.8-1.8-15.8-0.3-22.6,4S150,18.1,148.2,25.9L60.5,418.4
	c-1.8,7.8-0.3,15.8,4,22.6c4.3,6.8,10.9,11.5,18.7,13.1l107.7,24.1L328,508.9c0.9,0.2,1.7,0.4,2.6,0.4c0.1,0.1,0.4,0,0.6,0.2
	c0.9,0.1,1.6,0.1,2.5,0.2c0.1,0,0.3,0,0.5,0c0.9,0.1,1.6,0,2.3-0.1c0.1,0,0.1,0,0.3-0.1c0.8-0.1,1.8-0.2,2.5-0.2
	c0.1,0,0.4-0.1,0.5-0.1c0.8-0.2,1.5-0.3,2.3-0.5h0.1c0.1,0,0.4-0.1,0.5-0.1c0.6-0.2,1.3-0.3,2.1-0.7c0.3-0.1,0.5-0.1,0.9-0.3
	c0.6-0.3,1.2-0.4,1.7-0.8c0.3-0.1,0.5-0.2,0.8-0.3c0.9-0.3,1.6-0.9,2.2-1.2c6.7-4.3,11.5-10.9,13.3-18.7l87.8-392.9
	C453.3,85.9,451.8,77.9,447.5,71.1z M431.9,89.4l-87.7,392.7c-0.6,2.5-2.1,4.8-4.3,6.1c-2.2,1.4-4.9,1.8-7.4,1.3l-245-54.8
	c-2.5-0.6-4.8-2.1-6.1-4.3c-1.4-2.2-1.8-4.9-1.3-7.4L168,30.2c0.6-2.5,2.1-4.8,4.3-6.1c2.2-1.4,4.9-1.8,7.4-1.3l244.8,54.9
	c2.5,0.6,4.8,2.1,6.1,4.3C431.9,84.2,432.4,86.9,431.9,89.4z"/>
</svg>
