<?xml version="1.0" encoding="UTF-8" standalone="no"?>
<!DOCTYPE svg PUBLIC "-//W3C//DTD SVG 1.1//EN" "http://www.w3.org/Graphics/SVG/1.1/DTD/svg11.dtd">
<svg width="100%" height="100%" viewBox="0 0 512 512" version="1.1" xmlns="http://www.w3.org/2000/svg" xmlns:xlink="http://www.w3.org/1999/xlink" xml:space="preserve" xmlns:serif="http://www.serif.com/" style="fill-rule:evenodd;clip-rule:evenodd;stroke-linejoin:round;stroke-miterlimit:2;">
    <path d="M249.1,359C249.1,359 249.1,385.3 270,425C283,449.7 286,474.4 286.4,489.6C286.4,491.3 286.5,492.9 286.4,494.4C287.1,498.8 289.9,504.5 300.1,504.5L394.3,504.5C395,504.5 407,504.2 405.4,489.6C401.8,463.1 398.1,404 420.4,336.4C455.7,229.4 313.2,152 313.2,152L313.2,285.9L289.9,252.6C279.2,237.3 258.1,233.5 242.8,244.2C227.5,254.9 223.7,276 234.4,291.3L281.7,359L249.1,359Z" style="fill:rgb(178,109,49);fill-rule:nonzero;"/>
    <path d="M234.4,291.3C223.7,276 227.4,254.9 242.8,244.2C258.1,233.5 279.2,237.2 289.9,252.6L313.2,285.9L313.2,25.4C313.2,15.5 305.2,7.5 295.3,7.5L104.6,7.5C94.7,7.5 86.7,15.5 86.7,25.4L86.7,341.2C86.7,351.1 94.7,359.1 104.6,359.1L281.7,359.1L234.4,291.3Z" style="fill:rgb(147,147,147);fill-rule:nonzero;"/>
    <path d="M295.3,7.5L189.5,7.5C172.4,44.1 162.8,85 162.8,128.1C162.8,223.1 209.4,307.3 280.9,359L281.8,359L234.5,291.3C223.8,276 227.5,254.9 242.9,244.2C258.2,233.5 279.3,237.2 290,252.6L313.3,285.9L313.3,25.4C313.2,15.5 305.2,7.5 295.3,7.5Z" style="fill:rgb(165,165,165);fill-rule:nonzero;"/>
    <path d="M115.1,341.2L115.1,25.4C115.1,15.5 123.1,7.5 133,7.5L104.7,7.5C94.8,7.5 86.8,15.5 86.8,25.4L86.8,341.2C86.8,351.1 94.8,359.1 104.7,359.1L133,359.1C123.1,359 115.1,351 115.1,341.2Z" style="fill:rgb(122,122,122);fill-rule:nonzero;"/>
    <path d="M385.1,198.9C359.1,171.7 330.6,153.7 320.3,147.6L320.3,25.3C320.3,11.3 308.9,-0.1 294.9,-0.1L104.3,-0.1C90.3,-0.1 78.9,11.3 78.9,25.3L78.9,341.1C78.9,355.1 90.3,366.5 104.3,366.5L241.9,366.5C243.3,377.4 247.8,399.6 263,428.5C275.1,451.5 278.1,474.5 278.5,489.8C278.5,491.3 278.6,492.8 278.5,494.3C278.5,494.7 278.5,495.1 278.6,495.5C280.2,505.8 288.1,511.9 299.7,511.9L394.1,511.9C395.5,511.9 402.8,511.5 408,505.7C410.6,502.8 413.5,497.5 412.6,488.8L412.6,488.5C408.8,460.5 405.8,403.8 427.2,338.6C442.5,292.2 427.9,243.9 385.1,198.9ZM104.3,351.5C98.6,351.5 93.9,346.8 93.9,341.1L93.9,25.4C93.9,19.7 98.6,15 104.3,15L295,15C300.7,15 305.4,19.7 305.4,25.4L305.4,262.1L295.8,248.3C295.3,247.6 294.9,247 294.4,246.4C294.3,246.2 294.1,246.1 294,245.9C293.6,245.4 293.2,245 292.8,244.5C292.7,244.3 292.5,244.2 292.4,244C292,243.5 291.6,243.1 291.1,242.7C291,242.6 290.9,242.5 290.8,242.4C290.3,241.9 289.7,241.4 289.2,240.9L289.1,240.8C287.9,239.7 286.6,238.7 285.3,237.8C285.2,237.8 285.2,237.7 285.1,237.7C284.5,237.3 283.9,236.9 283.4,236.6C283.2,236.5 283.1,236.4 282.9,236.3C282.4,236 281.9,235.7 281.4,235.5C281.2,235.4 281,235.3 280.7,235.2C280.3,235 279.8,234.8 279.3,234.5C279,234.4 278.8,234.3 278.5,234.1C278,233.9 277.6,233.7 277.1,233.5C276.5,233.2 275.8,233 275.1,232.8C274.9,232.7 274.8,232.7 274.6,232.6C274.1,232.4 273.5,232.3 273,232.1C272.9,232.1 272.8,232 272.7,232C269.6,231.1 266.4,230.7 263.1,230.5L261.7,230.5C256,230.5 250.5,231.6 245.4,233.9L245.3,233.9C244.1,234.4 242.9,235 241.7,235.6C241.6,235.7 241.4,235.7 241.3,235.8C240.9,236 240.4,236.3 240,236.6C239.9,236.7 239.7,236.8 239.6,236.9C239.1,237.2 238.5,237.6 238,238C219.3,251.1 214.7,276.9 227.8,295.6L266.9,351.5L104.3,351.5ZM412.9,334.1C390.5,402.1 393.7,461.2 397.6,490.5C397.9,493 397.6,494.9 396.8,495.8C396,496.7 394.4,497 393.9,497L299.7,497C294.7,497 293.8,495.2 293.5,493.8C293.5,492.4 293.5,490.9 293.4,489.5C292.9,472.7 289.6,447.2 276.2,421.6C262.9,396.3 258.5,376.6 257,366.5L277.4,366.5L284.3,376.4C285.8,378.5 288.1,379.6 290.5,379.6C292,379.6 293.5,379.2 294.8,378.2C298.2,375.8 299,371.2 296.7,367.8L240.2,287C237.1,282.5 235.5,277.4 235.5,272.4C235.4,263.9 239.3,255.6 246.7,250.4C247.2,250.1 247.7,249.7 248.2,249.4C248.3,249.3 248.5,249.2 248.6,249.1C249.1,248.8 249.5,248.6 250,248.4C250.1,248.3 250.3,248.3 250.4,248.2C250.8,248 251.2,247.8 251.7,247.6C251.9,247.5 252.1,247.4 252.4,247.3C252.8,247.2 253.1,247 253.5,246.9C253.9,246.8 254.2,246.7 254.6,246.6C254.9,246.5 255.1,246.4 255.4,246.4C255.7,246.3 256,246.3 256.3,246.2C256.5,246.1 256.8,246.1 257,246.1C257.5,246 258,245.9 258.5,245.9C258.7,245.9 258.9,245.9 259.1,245.8C259.7,245.7 260.4,245.7 261,245.7L261.4,245.7C263.9,245.7 266.4,246 268.8,246.6C268.9,246.6 269,246.7 269.1,246.7C269.4,246.8 269.8,246.9 270.1,247C270.2,247 270.4,247.1 270.5,247.1C270.8,247.2 271.1,247.3 271.4,247.4C271.8,247.6 272.2,247.7 272.6,247.9C272.7,248 272.9,248 273,248.1C273.3,248.2 273.6,248.4 274,248.6C274.1,248.7 274.2,248.7 274.4,248.8C274.7,249 275.1,249.2 275.4,249.4C275.5,249.5 275.6,249.5 275.7,249.6C276.1,249.8 276.5,250.1 276.9,250.3L277,250.3C277.9,250.9 278.7,251.5 279.5,252.2C279.9,252.5 280.2,252.8 280.5,253.2C280.6,253.3 280.6,253.3 280.7,253.4C281,253.7 281.3,254 281.5,254.3C281.6,254.4 281.7,254.5 281.8,254.6C282.1,254.9 282.3,255.2 282.5,255.5C282.6,255.6 282.7,255.7 282.7,255.8C283,256.2 283.3,256.6 283.6,257L340,337.8C342.4,341.2 347,342 350.4,339.7C353.8,337.3 354.6,332.7 352.3,329.3L320.5,283.7L320.5,165.3C333.3,173.5 355,188.8 374.7,209.5C413.6,250.7 426.6,292.6 412.9,334.1Z" style="fill:rgb(35,31,32);fill-rule:nonzero;"/>
    <g transform="matrix(0.685009,0,0,0.515388,18.4941,70.5695)">
        <g transform="matrix(102.188,0,0,135.82,127.849,230.324)">
            <path d="M0.501,-0L0.077,-0L0.077,-0.714L0.501,-0.714L0.501,-0.559L0.27,-0.559L0.27,-0.447L0.484,-0.447L0.484,-0.292L0.27,-0.292L0.27,-0.157L0.501,-0.157L0.501,-0Z" style="fill-rule:nonzero;"/>
        </g>
        <g transform="matrix(102.188,0,0,135.82,183.932,230.324)">
            <path d="M0.021,0.224C-0.014,0.224 -0.048,0.221 -0.079,0.214L-0.079,0.064C-0.069,0.066 -0.058,0.068 -0.046,0.071C-0.034,0.073 -0.021,0.074 -0.008,0.074C0.024,0.074 0.047,0.065 0.061,0.045C0.074,0.026 0.081,-0.007 0.081,-0.053L0.081,-0.714L0.275,-0.714L0.275,-0.07C0.275,0.027 0.254,0.1 0.211,0.15C0.169,0.199 0.106,0.224 0.021,0.224Z" style="fill-rule:nonzero;"/>
        </g>
        <g transform="matrix(102.188,0,0,135.82,219.908,230.324)">
            <path d="M0.501,-0L0.077,-0L0.077,-0.714L0.501,-0.714L0.501,-0.559L0.27,-0.559L0.27,-0.447L0.484,-0.447L0.484,-0.292L0.27,-0.292L0.27,-0.157L0.501,-0.157L0.501,-0Z" style="fill-rule:nonzero;"/>
        </g>
        <g transform="matrix(102.188,0,0,135.82,275.992,230.324)">
            <path d="M0.395,-0.566C0.349,-0.566 0.313,-0.547 0.288,-0.51C0.262,-0.472 0.249,-0.42 0.249,-0.354C0.249,-0.217 0.301,-0.148 0.406,-0.148C0.437,-0.148 0.468,-0.152 0.498,-0.161C0.527,-0.17 0.557,-0.181 0.587,-0.193L0.587,-0.03C0.527,-0.003 0.46,0.01 0.385,0.01C0.277,0.01 0.194,-0.021 0.137,-0.084C0.08,-0.146 0.051,-0.237 0.051,-0.355C0.051,-0.429 0.065,-0.494 0.093,-0.55C0.12,-0.606 0.16,-0.649 0.213,-0.679C0.265,-0.709 0.326,-0.724 0.397,-0.724C0.474,-0.724 0.548,-0.707 0.618,-0.674L0.559,-0.522C0.533,-0.534 0.506,-0.545 0.48,-0.553C0.454,-0.562 0.425,-0.566 0.395,-0.566Z" style="fill-rule:nonzero;"/>
        </g>
        <g transform="matrix(102.188,0,0,135.82,342.305,230.324)">
            <path d="M0.392,-0L0.199,-0L0.199,-0.556L0.025,-0.556L0.025,-0.714L0.566,-0.714L0.566,-0.556L0.392,-0.556L0.392,-0Z" style="fill-rule:nonzero;"/>
        </g>
    </g>
    <g transform="matrix(0.0415734,0,0,0.0415734,200.211,85.8345)">
        <g transform="matrix(1,0,0,1,-896,-896)">
            <path d="M141,979L851,269C863.667,256.333 878.667,250 896,250C913.333,250 928.333,256.333 941,269L1651,979C1663.67,991.667 1668,1002.33 1664,1011C1660,1019.67 1649.33,1024 1632,1024L160,1024C142.667,1024 132,1019.67 128,1011C124,1002.33 128.333,991.667 141,979ZM1600,1536L192,1536C174.667,1536 159.667,1529.67 147,1517C134.333,1504.33 128,1489.33 128,1472L128,1216C128,1198.67 134.333,1183.67 147,1171C159.667,1158.33 174.667,1152 192,1152L1600,1152C1617.33,1152 1632.33,1158.33 1645,1171C1657.67,1183.67 1664,1198.67 1664,1216L1664,1472C1664,1489.33 1657.67,1504.33 1645,1517C1632.33,1529.67 1617.33,1536 1600,1536Z" style="fill-rule:nonzero;"/>
        </g>
    </g>
</svg>
