<?xml version="1.0" encoding="UTF-8" standalone="no"?>
<!DOCTYPE svg PUBLIC "-//W3C//DTD SVG 1.1//EN" "http://www.w3.org/Graphics/SVG/1.1/DTD/svg11.dtd">
<svg width="100%" height="100%" viewBox="0 0 64 64" version="1.1" xmlns="http://www.w3.org/2000/svg" xmlns:xlink="http://www.w3.org/1999/xlink" xml:space="preserve" xmlns:serif="http://www.serif.com/" style="fill-rule:evenodd;clip-rule:evenodd;stroke-linecap:round;stroke-linejoin:round;stroke-miterlimit:1.5;">
    <g id="COOKIE_1_">
        <g transform="matrix(-0.467502,1.69815,-1.69815,-0.467502,101.364,-7.49399)">
            <path d="M32,16C31.604,16 31.199,16.019 30.767,16.058C30.904,16.646 30.973,17.247 30.973,17.857C30.974,19.992 30.143,22.001 28.631,23.513C27.553,24.591 26.231,25.324 24.771,25.656C23.873,29.548 20.099,32.309 16.002,31.796C16.001,31.863 16,31.932 16,32C16,40.822 23.178,48 32,48C40.822,48 48,40.822 48,32C48,23.178 40.822,16 32,16Z" style="fill:rgb(180,129,74);fill-rule:nonzero;"/>
        </g>
        <g transform="matrix(-0.53254,1.93439,-1.93439,-0.53254,112.318,-15.2754)">
            <circle cx="35.709" cy="22.973" r="2" style="fill:rgb(81,58,43);"/>
        </g>
        <g transform="matrix(-0.621507,2.25756,-2.25756,-0.621507,125.08,-24.962)">
            <circle cx="41.875" cy="29.417" r="2" style="fill:rgb(81,58,43);"/>
        </g>
        <g transform="matrix(-0.467502,1.69815,-1.69815,-0.467502,101.364,-7.49399)">
            <circle cx="31.709" cy="31.417" r="2" style="fill:rgb(81,58,43);"/>
        </g>
        <g transform="matrix(-0.601972,2.1866,-2.1866,-0.601972,126.215,-17.98)">
            <circle cx="24.001" cy="37.25" r="2" style="fill:rgb(81,58,43);"/>
        </g>
        <g transform="matrix(-0.39841,1.44718,-1.44718,-0.39841,86.6118,-4.32893)">
            <circle cx="32" cy="42.292" r="2" style="fill:rgb(81,58,43);"/>
        </g>
        <g transform="matrix(-0.654585,2.37771,-2.37771,-0.654585,123.139,-23.1946)">
            <circle cx="38.875" cy="37.25" r="2" style="fill:rgb(81,58,43);"/>
        </g>
        <g transform="matrix(-0.370203,1.34472,-1.34472,-0.370203,90.3196,13.0089)">
            <circle cx="23.757" cy="35.92" r="2.635" style="fill:rgb(180,129,74);fill-opacity:0;stroke:rgb(46,46,48);stroke-width:1.08px;"/>
        </g>
        <g transform="matrix(-0.475765,1.72816,-1.72816,-0.475765,82.7207,20.5195)">
            <circle cx="23.757" cy="35.92" r="2.635" style="fill:rgb(180,129,74);fill-opacity:0;stroke:rgb(46,46,48);stroke-width:0.84px;"/>
        </g>
        <g transform="matrix(-0.491955,1.78697,-1.78697,-0.491955,108.486,26.5859)">
            <circle cx="23.757" cy="35.92" r="2.635" style="fill:rgb(180,129,74);fill-opacity:0;stroke:rgb(46,46,48);stroke-width:0.81px;"/>
        </g>
        <g transform="matrix(-0.42227,1.53385,-1.53385,-0.42227,113.869,20.4252)">
            <circle cx="23.757" cy="35.92" r="2.635" style="fill:rgb(180,129,74);fill-opacity:0;stroke:rgb(46,46,48);stroke-width:0.94px;"/>
        </g>
        <g transform="matrix(-0.499926,1.81593,-1.81593,-0.499926,107.474,-13.0308)">
            <circle cx="23.757" cy="35.92" r="2.635" style="fill:rgb(180,129,74);fill-opacity:0;stroke:rgb(46,46,48);stroke-width:0.8px;"/>
        </g>
        <g transform="matrix(-0.303481,1.10236,-1.10236,-0.303481,59.1243,9.98269)">
            <circle cx="23.757" cy="35.92" r="2.635" style="fill:rgb(180,129,74);fill-opacity:0;stroke:rgb(46,46,48);stroke-width:1.31px;"/>
        </g>
        <g transform="matrix(-0.467502,1.69815,-1.69815,-0.467502,101.364,-7.49399)">
            <path d="M32,50C22.075,50 14,41.925 14,32C14,31.495 14.034,30.999 14.074,30.506C14.098,30.208 14.255,29.937 14.501,29.766C14.746,29.596 15.053,29.545 15.343,29.624C18.937,30.64 22.45,28.154 22.921,24.661C22.982,24.215 23.333,23.863 23.779,23.804C25.087,23.629 26.275,23.039 27.217,22.099C28.35,20.965 28.974,19.458 28.973,17.858C28.973,17.078 28.823,16.316 28.526,15.592C28.409,15.308 28.429,14.986 28.581,14.719C28.733,14.452 28.998,14.269 29.302,14.223C30.309,14.071 31.166,14 32,14C41.925,14 50,22.075 50,32C50,41.925 41.925,50 32,50ZM16.002,31.795C16.001,31.863 16,31.932 16,32C16,40.822 23.178,48 32,48C40.822,48 48,40.822 48,32C48,23.178 40.822,16 32,16C31.604,16 31.199,16.019 30.767,16.058C30.904,16.646 30.973,17.247 30.973,17.857C30.974,19.992 30.143,22.001 28.631,23.513C27.553,24.591 26.231,25.324 24.771,25.656C23.872,29.547 20.099,32.309 16.002,31.795Z" style="fill:rgb(46,46,48);fill-rule:nonzero;"/>
        </g>
    </g>
</svg>
