<?xml version="1.0" encoding="utf-8"?>
<!-- Generator: Adobe Illustrator 22.0.0, SVG Export Plug-In . SVG Version: 6.00 Build 0)  -->
<svg version="1.1" id="Layer_1" xmlns="http://www.w3.org/2000/svg" xmlns:xlink="http://www.w3.org/1999/xlink" x="0px" y="0px"
	 viewBox="0 0 512 511.1" style="enable-background:new 0 0 512 511.1;" xml:space="preserve">
<style type="text/css">
	.st0{display:none;}
	.st1{display:inline;fill:#F9D18A;}
	.st2{display:inline;fill:#F4AF1C;}
	.st3{display:inline;fill:#F2BD23;}
	.st4{display:inline;fill:#CF9517;}
	.st5{display:inline;fill:#231F20;}
	.st6{fill:#F9D18A;}
	.st7{fill:#231F20;}
	.st8{fill:#EA473B;}
	.st9{fill:#F75652;}
	.st10{fill:#D32420;}
	.st11{fill:none;}
	.st12{fill:none;stroke:#231F20;stroke-width:15;stroke-miterlimit:10;}
	.st13{fill:#F4AF1C;}
	.st14{fill:#F2BD23;}
	.st15{fill:#CF9517;}
</style>
<g id="hand_mit_karte" class="st0">
	<path class="st1" d="M249.1,358.1c0,0,0,26.3,20.9,66c13,24.7,16,49.4,16.4,64.6l0,0l0,0c0,1.7,0.1,3.3,0,4.8
		c0.7,4.4,3.5,10.1,13.7,10.1h94.2l0,0c0.7,0,12.7-0.3,11.1-14.9l0,0c-3.6-26.5-7.3-85.6,15-153.2c35.3-107-107.2-184.4-107.2-184.4
		V285l-23.3-33.3c-10.7-15.3-31.8-19.1-47.1-8.4s-19.1,31.8-8.4,47.1l47.3,67.7L249.1,358.1L249.1,358.1L249.1,358.1z"/>
	<path class="st2" d="M234.4,290.4c-10.7-15.3-7-36.4,8.4-47.1c15.3-10.7,36.4-7,47.1,8.4l23.3,33.3V24.5c0-9.9-8-17.9-17.9-17.9
		H104.6c-9.9,0-17.9,8-17.9,17.9v315.8c0,9.9,8,17.9,17.9,17.9h177.1L234.4,290.4z"/>
	<path class="st3" d="M295.3,6.6H189.5c-17.1,36.6-26.7,77.5-26.7,120.6c0,95,46.6,179.2,118.1,230.9h0.9l-47.3-67.7
		c-10.7-15.3-7-36.4,8.4-47.1c15.3-10.7,36.4-7,47.1,8.4l23.3,33.3V24.5C313.2,14.6,305.2,6.6,295.3,6.6z"/>
	<path class="st4" d="M115.1,340.3V24.5c0-9.9,8-17.9,17.9-17.9h-28.3c-9.9,0-17.9,8-17.9,17.9v315.8c0,9.9,8,17.9,17.9,17.9H133
		C123.1,358.1,115.1,350.1,115.1,340.3z"/>
	<path class="st5" d="M385.1,198c-26-27.2-54.5-45.2-64.8-51.3l0.1-122.2c0-14-11.4-25.4-25.4-25.4H104.3c-14,0-25.4,11.4-25.4,25.4
		v315.8c0,14,11.4,25.4,25.4,25.4h137.6c1.4,10.9,5.9,33.1,21.1,62c12.1,23,15.1,46,15.5,61.3c0,1.5,0.1,3,0,4.5
		c0,0.4,0,0.8,0.1,1.2c1.6,10.3,9.5,16.4,21.1,16.4H394c0,0,0,0,0.1,0c1.4,0,8.7-0.4,13.9-6.2c2.6-2.9,5.5-8.2,4.6-16.9
		c0-0.1,0-0.2,0-0.3c-3.8-28-6.8-84.7,14.6-149.9C442.5,291.3,427.9,243,385.1,198z M104.3,350.6c-5.7,0-10.4-4.7-10.4-10.4V24.5
		c0-5.7,4.7-10.4,10.4-10.4H295c5.7,0,10.4,4.7,10.4,10.4l-0.1,126.6v110.1l-9.6-13.8c-0.5-0.7-0.9-1.3-1.4-1.9
		c-0.1-0.2-0.3-0.3-0.4-0.5c-0.4-0.5-0.8-0.9-1.2-1.4c-0.1-0.2-0.3-0.3-0.4-0.5c-0.4-0.5-0.8-0.9-1.3-1.3c-0.1-0.1-0.2-0.2-0.3-0.3
		c-0.5-0.5-1.1-1-1.6-1.5l-0.1-0.1c-1.2-1.1-2.5-2.1-3.8-3c-0.1,0-0.1-0.1-0.2-0.1c-0.6-0.4-1.2-0.8-1.7-1.1
		c-0.2-0.1-0.3-0.2-0.5-0.3c-0.5-0.3-1-0.6-1.5-0.8c-0.2-0.1-0.4-0.2-0.6-0.3c-0.4-0.2-0.9-0.4-1.4-0.7c-0.3-0.1-0.5-0.2-0.8-0.4
		c-0.5-0.2-0.9-0.4-1.4-0.6c-0.6-0.3-1.3-0.5-2-0.7c-0.2-0.1-0.3-0.1-0.5-0.2c-0.5-0.2-1.1-0.3-1.6-0.5c-0.1,0-0.2-0.1-0.3-0.1
		c-3.1-0.9-6.3-1.3-9.6-1.5H263c-0.4,0-0.9,0-1.3,0c-5.7,0-11.2,1.1-16.3,3.4h-0.1c-1.2,0.5-2.4,1.1-3.6,1.7
		c-0.1,0.1-0.3,0.1-0.4,0.2c-0.4,0.2-0.9,0.5-1.3,0.8c-0.1,0.1-0.3,0.2-0.4,0.3c-0.5,0.3-1.1,0.7-1.6,1.1
		c-18.7,13.1-23.3,38.9-10.2,57.6l39.1,55.9h-18.2L104.3,350.6L104.3,350.6z M412.9,333.2c-22.4,68-19.2,127.1-15.3,156.4
		c0.3,2.5,0,4.4-0.8,5.3c-0.8,0.9-2.4,1.2-2.9,1.2h-94.2c-5,0-5.9-1.8-6.2-3.2c0-1.4,0-2.9-0.1-4.3c-0.5-16.8-3.8-42.3-17.2-67.9
		c-13.3-25.3-17.7-45-19.2-55.1h20.4l6.9,9.9c1.5,2.1,3.8,3.2,6.2,3.2c1.5,0,3-0.4,4.3-1.4c3.4-2.4,4.2-7,1.9-10.4l-56.5-80.8
		c-3.1-4.5-4.7-9.6-4.7-14.6c-0.1-8.5,3.8-16.8,11.2-22c0.5-0.3,1-0.7,1.5-1c0.1-0.1,0.3-0.2,0.4-0.3c0.5-0.3,0.9-0.5,1.4-0.7
		c0.1-0.1,0.3-0.1,0.4-0.2c0.4-0.2,0.8-0.4,1.3-0.6c0.2-0.1,0.4-0.2,0.7-0.3c0.4-0.1,0.7-0.3,1.1-0.4c0.4-0.1,0.7-0.2,1.1-0.3
		c0.3-0.1,0.5-0.2,0.8-0.2c0.3-0.1,0.6-0.1,0.9-0.2c0.2-0.1,0.5-0.1,0.7-0.1c0.5-0.1,1-0.2,1.5-0.2c0.2,0,0.4-0.1,0.6-0.1
		c0.6-0.1,1.3-0.1,1.9-0.1c0.1,0,0.2,0,0.4,0c2.5,0,5,0.3,7.4,0.9c0.1,0,0.2,0.1,0.3,0.1c0.3,0.1,0.7,0.2,1,0.3
		c0.1,0,0.3,0.1,0.4,0.1c0.3,0.1,0.6,0.2,0.9,0.3c0.4,0.2,0.8,0.3,1.2,0.5c0.1,0.1,0.3,0.1,0.4,0.2c0.3,0.1,0.6,0.3,1,0.5
		c0.1,0.1,0.2,0.1,0.4,0.2c0.3,0.2,0.7,0.4,1,0.6c0.1,0.1,0.2,0.1,0.3,0.2c0.4,0.2,0.8,0.5,1.2,0.7c0,0,0,0,0.1,0
		c0.9,0.6,1.7,1.2,2.5,1.9c0.4,0.3,0.7,0.6,1,1c0.1,0.1,0.1,0.1,0.2,0.2c0.3,0.3,0.6,0.6,0.8,0.9c0.1,0.1,0.2,0.2,0.3,0.3
		c0.3,0.3,0.5,0.6,0.7,0.9c0.1,0.1,0.2,0.2,0.2,0.3c0.3,0.4,0.6,0.8,0.9,1.2l56.4,80.8c2.4,3.4,7,4.2,10.4,1.9
		c3.4-2.4,4.2-7,1.9-10.4l-31.8-45.6V164.4c12.8,8.2,34.5,23.5,54.2,44.2C413.6,249.8,426.6,291.7,412.9,333.2z"/>
</g>
<g id="hand">
	<path class="st6" d="M291.2,358.1c0,0,0,26.3,20.9,66c13,24.7,16,49.4,16.4,64.6l0,0l0,0c0,1.7,0.1,3.3,0,4.8
		c0.7,4.4,3.5,10.1,13.7,10.1h94.2l0,0c0.7,0,12.7-0.3,11.1-14.9l0,0c-3.6-26.5-7.3-85.6,15-153.2c35.3-107-107.2-184.4-107.2-184.4
		V285L332,251.7c-10.7-15.3-31.8-19.1-47.1-8.4c-15.3,10.7-19.1,31.8-8.4,47.1l47.3,67.7H291.2L291.2,358.1L291.2,358.1z"/>
	<path class="st7" d="M427.2,198c-26-27.2-54.5-45.2-64.8-51.3c0,0-8.5-4.2-15-2.5v6.9v110.1l-9.6-13.8c-0.5-0.7-0.9-1.3-1.4-1.9
		c-0.1-0.2-0.3-0.3-0.4-0.5c-0.4-0.5-0.8-0.9-1.2-1.4c-0.1-0.2-0.3-0.3-0.4-0.5c-0.4-0.5-0.8-0.9-1.3-1.3c-0.1-0.1-0.2-0.2-0.3-0.3
		c-0.5-0.5-1.1-1-1.6-1.5l-0.1-0.1c-1.2-1.1-2.5-2.1-3.8-3c-0.1,0-0.1-0.1-0.2-0.1c-0.6-0.4-1.2-0.8-1.7-1.1
		c-0.2-0.1-0.3-0.2-0.5-0.3c-0.5-0.3-1-0.6-1.5-0.8c-0.2-0.1-0.4-0.2-0.6-0.3c-0.4-0.2-0.9-0.4-1.4-0.7c-0.3-0.1-0.5-0.2-0.8-0.4
		c-0.5-0.2-0.9-0.4-1.4-0.6c-0.6-0.3-1.3-0.5-2-0.7c-0.2-0.1-0.3-0.1-0.5-0.2c-0.5-0.2-1.1-0.3-1.6-0.5c-0.1,0-0.2-0.1-0.3-0.1
		c-3.1-0.9-6.3-1.3-9.6-1.5h-1.4c-5.7,0-11.2,1.1-16.3,3.4h-0.1c-1.2,0.5-2.4,1.1-3.6,1.7c-0.1,0.1-0.3,0.1-0.4,0.2
		c-0.4,0.2-0.9,0.5-1.3,0.8c-0.1,0.1-0.3,0.2-0.4,0.3c-0.5,0.3-1.1,0.7-1.6,1.1c-18.7,13.1-23.3,38.9-10.2,57.6l39.1,55.9h-24.7
		c-0.9,6.2-1.1,11.4,0.1,18.1c1.8,11.7,6.8,32.5,20.7,59c12.1,23,15.1,46,15.5,61.3c0,1.5,0.1,3,0,4.5c0,0.4,0,0.8,0.1,1.2
		c1.6,10.3,9.5,16.4,21.1,16.4h94.3c0,0,0,0,0.1,0c1.4,0,8.7-0.4,13.9-6.2c2.6-2.9,5.5-8.2,4.6-16.9v-0.3
		c-3.8-28-6.8-84.7,14.6-149.9C484.6,291.3,470,243,427.2,198z M455,333.2c-22.4,68-19.2,127.1-15.3,156.4c0.3,2.5,0,4.4-0.8,5.3
		c-0.8,0.9-2.4,1.2-2.9,1.2h-94.2c-5,0-5.9-1.8-6.2-3.2c0-1.4,0-2.9-0.1-4.3c-0.5-16.8-3.8-42.3-17.2-67.9
		c-13.3-25.3-17.7-45-19.2-55.1h20.4l6.9,9.9c1.5,2.1,3.8,3.2,6.2,3.2c1.5,0,3-0.4,4.3-1.4c3.4-2.4,4.2-7,1.9-10.4l-56.5-80.8
		c-3.1-4.5-4.7-9.6-4.7-14.6c-0.1-8.5,3.8-16.8,11.2-22c0.5-0.3,1-0.7,1.5-1c0.1-0.1,0.3-0.2,0.4-0.3c0.5-0.3,0.9-0.5,1.4-0.7
		c0.1-0.1,0.3-0.1,0.4-0.2c0.4-0.2,0.8-0.4,1.3-0.6c0.2-0.1,0.4-0.2,0.7-0.3c0.4-0.1,0.7-0.3,1.1-0.4s0.7-0.2,1.1-0.3
		c0.3-0.1,0.5-0.2,0.8-0.2c0.3-0.1,0.6-0.1,0.9-0.2c0.2-0.1,0.5-0.1,0.7-0.1c0.5-0.1,1-0.2,1.5-0.2c0.2,0,0.4-0.1,0.6-0.1
		c0.6-0.1,1.3-0.1,1.9-0.1h0.4c2.5,0,5,0.3,7.4,0.9c0.1,0,0.2,0.1,0.3,0.1c0.3,0.1,0.7,0.2,1,0.3c0.1,0,0.3,0.1,0.4,0.1
		c0.3,0.1,0.6,0.2,0.9,0.3c0.4,0.2,0.8,0.3,1.2,0.5c0.1,0.1,0.3,0.1,0.4,0.2c0.3,0.1,0.6,0.3,1,0.5c0.1,0.1,0.2,0.1,0.4,0.2
		c0.3,0.2,0.7,0.4,1,0.6c0.1,0.1,0.2,0.1,0.3,0.2c0.4,0.2,0.8,0.5,1.2,0.7c0,0,0,0,0.1,0c0.9,0.6,1.7,1.2,2.5,1.9
		c0.4,0.3,0.7,0.6,1,1c0.1,0.1,0.1,0.1,0.2,0.2c0.3,0.3,0.6,0.6,0.8,0.9c0.1,0.1,0.2,0.2,0.3,0.3c0.3,0.3,0.5,0.6,0.7,0.9
		c0.1,0.1,0.2,0.2,0.2,0.3c0.3,0.4,0.6,0.8,0.9,1.2l56.4,80.8c2.4,3.4,7,4.2,10.4,1.9c3.4-2.4,4.2-7,1.9-10.4l-31.8-45.6V164.4
		c12.8,8.2,34.5,23.5,54.2,44.2C455.7,249.8,468.7,291.7,455,333.2z"/>
</g>
<g id="rote_karte_2">
	<path class="st8" d="M332.6,395.3c4.5-21.4,15-71.6,15-71.6l53.5-255c2-9.7-4.2-19.1-13.8-21.2L200.6,8.4
		c-9.7-2-19.1,4.2-21.2,13.8l-64.9,309c-2,9.7,4.2,19.1,13.8,21.2l173.3,36.4L332.6,395.3z"/>
	<path class="st9" d="M387.2,47.5L283.7,25.8c-24.3,32.3-42,70.4-50.9,112.5c-19.6,93,8.7,185,68.1,250.3l0.9,0.2l30.8,6.6
		l15.1-71.6l53.5-255C403.2,59.1,397,49.6,387.2,47.5z"/>
	<path class="st10" d="M142.3,337.1l64.9-309c2-9.7,11.5-15.8,21.2-13.8l-27.7-5.8c-9.7-2-19.1,4.2-21.2,13.8l-64.9,309
		c-2,9.7,4.2,19.1,13.8,21.2l27.7,5.8C146.4,356.2,140.3,346.7,142.3,337.1z"/>
	<line class="st11" x1="301.8" y1="388.8" x2="332.6" y2="395.3"/>
	<path class="st12" d="M316.5,391.9l-189.3-39.8c-8.9-1.9-14.7-10.7-12.8-19.6l65.3-310.8c1.9-8.9,10.7-14.7,19.6-12.8l189.3,39.8
		c8.9,1.9,14.7,10.7,12.8,19.6l-65.3,310.8C334.1,388,325.3,393.7,316.5,391.9z"/>
</g>
<g id="gelbe_Karte">
	<path class="st13" d="M365,353.9c-4.3-21.5-14.3-71.8-14.3-71.8L300,26.6c-1.9-9.7-11.3-16-21-14.1L91.9,49.6
		c-9.7,1.9-16,11.3-14.1,21l61.4,309.8c1.9,9.7,11.3,16,21,14.1L334,360L365,353.9L365,353.9z"/>
	<path class="st14" d="M279,12.5L175.2,33.1c-9.7,39.2-11.1,81.2-2.7,123.5c18.5,93.2,80.5,166.7,160.7,203.5l0.9-0.2l30.9-6
		l-14.2-71.8L300.1,26.6C298.1,16.9,288.7,10.6,279,12.5z"/>
	<path class="st15" d="M167.1,374.9L105.7,65.1c-1.9-9.7,4.4-19.1,14.1-21L92,49.5c-9.7,1.9-16,11.3-14.1,21l61.4,309.8
		c1.9,9.7,11.3,16,21,14.1l27.8-5.5C178.4,390.8,169,384.5,167.1,374.9z"/>
	<path class="st12" d="M348.7,357L159,394.6c-8.9,1.8-17.7-4-19.5-13.1L77.8,70c-1.8-8.9,4-17.7,13.1-19.5l189.7-37.6
		c8.9-1.8,17.7,4,19.5,13.1l61.7,311.5C363.5,346.4,357.6,355.3,348.7,357z"/>
</g>
<g id="daumen">
	<path class="st6" d="M456.4,357.8c-10.3-4.5-19.4-10.8-27.8-18.5c-5.3-4.9-10.1-10.3-15-15.6c-3.9,2.2-8.3,3.4-12.7,3.4
		c-13.3,0-23.6-9.8-26-22.2c-1.5-0.9-2.8-2-4.1-3.2c-7.2-3.1-12.7-9.4-15.1-17l-23.3-33.3c-10.7-15.3-31.8-19.1-47.1-8.4
		c-15.3,10.7-19.1,31.8-8.4,47.1l44.5,63.7c12,2.6,20.5,13.4,21,25.9c0.1,1.9-0.1,3.7-0.4,5.4l3.1,4.7c0,0-1.7-0.2-4.4-0.3
		c-0.1,0.3-0.2,0.5-0.3,0.8c0.6,2.1,0.9,4.2,1,6.4c0.6,14.3-12.6,26.5-26.5,26.5c-0.9,0-1.8,0-2.6-0.1c0.1,0.2,0.2,0.5,0.3,0.7
		c13,24.7,16,49.4,16.4,64.6c0,1.7,0.1,3.3,0,4.8c0.7,4.4,3.5,10.1,13.7,10.1h94.2c0.7,0,12.7-0.3,11.1-14.9
		C444.7,465.1,441.5,415.9,456.4,357.8z"/>
	<path class="st7" d="M312.5,354.1l7.3,11.4l11,16.7c1.5,2.1,1.7,0.5,4.1,0.5c1.5,0,1-4.5,2.3-5.5c3.4-2.4,4.2-7,1.9-10.4L282.6,286
		c-3.1-4.5-4.7-9.6-4.7-14.6c-0.1-8.5,3.8-16.8,11.2-22c0.5-0.3,1-0.7,1.5-1c0.1-0.1,0.3-0.2,0.4-0.3c0.5-0.3,0.9-0.5,1.4-0.7
		c0.1-0.1,0.3-0.1,0.4-0.2c0.4-0.2,0.8-0.4,1.3-0.6c0.2-0.1,0.4-0.2,0.7-0.3c0.4-0.1,0.7-0.3,1.1-0.4c0.4-0.1,0.7-0.2,1.1-0.3
		c0.3-0.1,0.5-0.2,0.8-0.2c0.3-0.1,0.6-0.1,0.9-0.2c0.2-0.1,0.5-0.1,0.7-0.1c0.5-0.1,1-0.2,1.5-0.2c0.2,0,0.4-0.1,0.6-0.1
		c0.6-0.1,1.3-0.1,1.9-0.1h0.4c2.5,0,5,0.3,7.4,0.9c0.1,0,0.2,0.1,0.3,0.1c0.3,0.1,0.7,0.2,1,0.3c0.1,0,0.3,0.1,0.4,0.1
		c0.3,0.1,0.6,0.2,0.9,0.3c0.4,0.2,0.8,0.3,1.2,0.5c0.1,0.1,0.3,0.1,0.4,0.2c0.3,0.1,0.6,0.3,1,0.5c0.1,0.1,0.2,0.1,0.4,0.2
		c0.3,0.2,0.7,0.4,1,0.6c0.1,0.1,0.2,0.1,0.3,0.2c0.4,0.2,0.8,0.5,1.2,0.7c0,0,0,0,0.1,0c0.9,0.6,1.7,1.2,2.5,1.9
		c0.4,0.3,0.7,0.6,1,1c0.1,0.1,0.1,0.1,0.2,0.2c0.3,0.3,0.6,0.6,0.8,0.9l0.3,0.3c0.3,0.3,0.5,0.6,0.7,0.9c0.1,0.1,0.2,0.2,0.2,0.3
		c0.3,0.4,0.6,0.8,0.9,1.2l56.4,80.8c2.4,3.4,7,4.2,10.4,1.9c3.4-2.4,4.2-7,1.9-10.4l-25.6-36.7c-6.7-8.8-28.4-41.9-32.9-46.8
		c-0.4-0.5-0.8-0.9-1.1-1.3c-0.1-0.2-0.3-0.3-0.4-0.5c-0.4-0.5-0.8-0.9-1.3-1.3l-0.3-0.3c-0.5-0.5-1.1-1-1.6-1.5l-0.1-0.1
		c-1.2-1.1-2.5-2.1-3.8-3c-0.1,0-0.1-0.1-0.2-0.1c-0.6-0.4-1.2-0.8-1.7-1.1c-0.2-0.1-0.3-0.2-0.5-0.3c-0.5-0.3-1-0.6-1.5-0.8
		c-0.2-0.1-0.4-0.2-0.6-0.3c-0.4-0.2-0.9-0.4-1.4-0.7c-0.3-0.1-0.5-0.2-0.8-0.4c-0.5-0.2-0.9-0.4-1.4-0.6c-0.6-0.3-1.3-0.5-2-0.7
		c-0.2-0.1-0.3-0.1-0.5-0.2c-0.5-0.2-1.1-0.3-1.6-0.5c-0.1,0-0.2-0.1-0.3-0.1c-3.1-0.9-6.3-1.3-9.6-1.5h-1.4
		c-5.7,0-11.2,1.1-16.3,3.4h-0.1c-1.2,0.5-2.4,1.1-3.6,1.7c-0.1,0.1-0.3,0.1-0.4,0.2c-0.4,0.2-0.9,0.5-1.3,0.8
		c-0.1,0.1-0.3,0.2-0.4,0.3c-0.5,0.3-1.1,0.7-1.6,1.1c-18.7,13.1-23.3,38.9-10.2,57.6L312.5,354.1z"/>
	<path class="st7" d="M455,487.6h0.1c-3.4-24.7-6.1-71.7,8-127.2c-4.9-1.6-9.5-3.7-14-6.1c-15.5,58.9-12.5,109-9.1,135.2
		c0.3,2.5,0,4.4-0.8,5.3c-0.8,0.9-2.4,1.2-2.9,1.2h-94.2c-5,0-5.9-1.8-6.2-3.2c0-1.4,0-2.9-0.1-4.3c-0.5-16.8-3.8-42.3-17.2-67.9
		c-0.5-1-1-2-1.5-3c-4.1,2.5-8.9,4-13.7,4c-0.3,0-0.6,0-0.9,0c1,2,2,3.9,3,6c12.1,23,15.1,46,15.5,61.3c0,1.5,0.1,3,0,4.5
		c0,0.4,0,0.8,0.1,1.2c1.6,10.3,9.5,16.4,21.1,16.4h94.3c0,0,0,0,0.1,0c1.4,0,8.7-0.4,13.9-6.2c2.6-2.9,5.5-8.2,4.6-16.9V487.6z"/>
</g>
</svg>
