<?xml version="1.0" encoding="UTF-8" standalone="no"?>
<!DOCTYPE svg PUBLIC "-//W3C//DTD SVG 1.1//EN" "http://www.w3.org/Graphics/SVG/1.1/DTD/svg11.dtd">
<svg width="100%" height="100%" viewBox="0 0 512 512" version="1.1" xmlns="http://www.w3.org/2000/svg" xmlns:xlink="http://www.w3.org/1999/xlink" xml:space="preserve" xmlns:serif="http://www.serif.com/" style="fill-rule:evenodd;clip-rule:evenodd;stroke-linejoin:round;stroke-miterlimit:2;">
    <path d="M353.2,485.8C350.8,496.6 340.2,503.3 329.5,500.9L84.6,446C73.8,443.6 67.1,433 69.5,422.3L157.3,29.7C159.7,18.9 170.3,12.2 181,14.6L426,69.4C436.8,71.8 443.5,82.4 441.1,93.1L353.2,485.8Z" style="fill:rgb(147,147,147);fill-rule:nonzero;"/>
    <path d="M210.2,350.4C224.7,404.6 251.5,452.3 286.7,491.3L329.4,500.8C340.2,503.2 350.7,496.5 353.1,485.7L441,93.1C443.4,82.3 436.7,71.8 425.9,69.4L282.2,37.2C210.4,120.2 179.7,236.3 210.2,350.4Z" style="fill:rgb(165,165,165);fill-rule:nonzero;"/>
    <path d="M447.5,71.1C443.2,64.4 436.6,59.6 428.8,57.8L184.1,3.2C176.3,1.4 168.3,2.9 161.5,7.2C154.7,11.5 150,18.1 148.2,25.9L60.5,418.4C58.7,426.2 60.2,434.2 64.5,441C68.8,447.8 75.4,452.5 83.2,454.1L190.9,478.2L328,508.9C328.9,509.1 329.7,509.3 330.6,509.3C330.7,509.4 331,509.3 331.2,509.5C332.1,509.6 332.8,509.6 333.7,509.7L334.2,509.7C335.1,509.8 335.8,509.7 336.5,509.6C336.6,509.6 336.6,509.6 336.8,509.5C337.6,509.4 338.6,509.3 339.3,509.3C339.4,509.3 339.7,509.2 339.8,509.2C340.6,509 341.3,508.9 342.1,508.7L342.2,508.7C342.3,508.7 342.6,508.6 342.7,508.6C343.3,508.4 344,508.3 344.8,507.9C345.1,507.8 345.3,507.8 345.7,507.6C346.3,507.3 346.9,507.2 347.4,506.8C347.7,506.7 347.9,506.6 348.2,506.5C349.1,506.2 349.8,505.6 350.4,505.3C357.1,501 361.9,494.4 363.7,486.6L451.5,93.7C453.3,85.9 451.8,77.9 447.5,71.1ZM431.9,89.4L344.2,482.1C343.6,484.6 342.1,486.9 339.9,488.2C337.7,489.6 335,490 332.5,489.5L87.5,434.7C85,434.1 82.7,432.6 81.4,430.4C80,428.2 79.6,425.5 80.1,423L168,30.2C168.6,27.7 170.1,25.4 172.3,24.1C174.5,22.7 177.2,22.3 179.7,22.8L424.5,77.7C427,78.3 429.3,79.8 430.6,82C431.9,84.2 432.4,86.9 431.9,89.4Z" style="fill:rgb(35,31,32);fill-rule:nonzero;"/>
    <g transform="matrix(86.5409,20.7887,-20.7887,86.5413,136.913,223.695)">
        <path d="M0.501,-0L0.077,-0L0.077,-0.714L0.501,-0.714L0.501,-0.559L0.27,-0.559L0.27,-0.447L0.484,-0.447L0.484,-0.292L0.27,-0.292L0.27,-0.157L0.501,-0.157L0.501,-0Z" style="fill-rule:nonzero;"/>
    </g>
    <g transform="matrix(86.5409,20.7887,-20.7887,86.5413,184.409,235.105)">
        <path d="M0.021,0.224C-0.014,0.224 -0.048,0.221 -0.079,0.214L-0.079,0.064C-0.069,0.066 -0.058,0.068 -0.046,0.071C-0.034,0.073 -0.021,0.074 -0.008,0.074C0.024,0.074 0.047,0.065 0.061,0.045C0.074,0.026 0.081,-0.007 0.081,-0.053L0.081,-0.714L0.275,-0.714L0.275,-0.07C0.275,0.027 0.254,0.1 0.211,0.15C0.169,0.199 0.106,0.224 0.021,0.224Z" style="fill-rule:nonzero;"/>
    </g>
    <g transform="matrix(86.5409,20.7887,-20.7887,86.5413,214.876,242.423)">
        <path d="M0.501,-0L0.077,-0L0.077,-0.714L0.501,-0.714L0.501,-0.559L0.27,-0.559L0.27,-0.447L0.484,-0.447L0.484,-0.292L0.27,-0.292L0.27,-0.157L0.501,-0.157L0.501,-0Z" style="fill-rule:nonzero;"/>
    </g>
    <g transform="matrix(86.5409,20.7887,-20.7887,86.5413,262.373,253.832)">
        <path d="M0.395,-0.566C0.349,-0.566 0.313,-0.547 0.288,-0.51C0.262,-0.472 0.249,-0.42 0.249,-0.354C0.249,-0.217 0.301,-0.148 0.406,-0.148C0.437,-0.148 0.468,-0.152 0.498,-0.161C0.527,-0.17 0.557,-0.181 0.587,-0.193L0.587,-0.03C0.527,-0.003 0.46,0.01 0.385,0.01C0.277,0.01 0.194,-0.021 0.137,-0.084C0.08,-0.146 0.051,-0.237 0.051,-0.355C0.051,-0.429 0.065,-0.494 0.093,-0.55C0.12,-0.606 0.16,-0.649 0.213,-0.679C0.265,-0.709 0.326,-0.724 0.397,-0.724C0.474,-0.724 0.548,-0.707 0.618,-0.674L0.559,-0.522C0.533,-0.534 0.506,-0.545 0.48,-0.553C0.454,-0.562 0.425,-0.566 0.395,-0.566Z" style="fill-rule:nonzero;"/>
    </g>
    <g transform="matrix(86.5409,20.7887,-20.7887,86.5413,318.532,267.323)">
        <path d="M0.392,-0L0.199,-0L0.199,-0.556L0.025,-0.556L0.025,-0.714L0.566,-0.714L0.566,-0.556L0.392,-0.556L0.392,-0Z" style="fill-rule:nonzero;"/>
    </g>
    <g transform="matrix(0.0513973,0.0123465,-0.0123465,0.0513973,249.028,66.6534)">
        <path d="M141,979L851,269C863.667,256.333 878.667,250 896,250C913.333,250 928.333,256.333 941,269L1651,979C1663.67,991.667 1668,1002.33 1664,1011C1660,1019.67 1649.33,1024 1632,1024L160,1024C142.667,1024 132,1019.67 128,1011C124,1002.33 128.333,991.667 141,979ZM1600,1536L192,1536C174.667,1536 159.667,1529.67 147,1517C134.333,1504.33 128,1489.33 128,1472L128,1216C128,1198.67 134.333,1183.67 147,1171C159.667,1158.33 174.667,1152 192,1152L1600,1152C1617.33,1152 1632.33,1158.33 1645,1171C1657.67,1183.67 1664,1198.67 1664,1216L1664,1472C1664,1489.33 1657.67,1504.33 1645,1517C1632.33,1529.67 1617.33,1536 1600,1536Z" style="fill-rule:nonzero;"/>
    </g>
</svg>
