<?xml version="1.0" encoding="utf-8"?>
<!-- Generator: Adobe Illustrator 22.1.0, SVG Export Plug-In . SVG Version: 6.00 Build 0)  -->
<svg version="1.1" id="Ebene_1" xmlns="http://www.w3.org/2000/svg" xmlns:xlink="http://www.w3.org/1999/xlink" x="0px" y="0px"
	 viewBox="0 0 96.9 111" style="enable-background:new 0 0 96.9 111;" xml:space="preserve">
<style type="text/css">
	.st0{fill:#231F20;}
</style>
<g id="Ebene_2_1_">
	<path class="st0" d="M95.8,61.6c0-1.2-0.6-1.8-1.8-1.8h-8.3c-1.2,0-1.8,0.6-1.8,1.8v1.2c0,19.6-16,35.7-35.7,35.7
		S12.5,82.3,12.5,62.7S28.6,27,48.2,27v1.2v8.3c0,4.2,4.1,6,6.5,3L69,23.4c1.8-1.7,1.8-4.7,0-6.5L54.7,0.8c-2.3-1.8-6.5,0-6.5,4.2
		v8.3v1.8C22,15.1,0.6,36.6,0.6,62.8s21.4,47.6,47.6,47.6S95.8,89,95.8,62.8C95.8,62.8,95.8,61.6,95.8,61.6z"/>
</g>
<g>
	<g>
		<path class="st0" d="M68.5,57.7c-0.6-1.4-1.5-2.6-2.4-3.5c-1-1-2.1-1.7-3.4-2.2c-1.3-0.5-2.7-0.8-4.2-0.8c-2.3,0-4.4,0.6-6,1.7
			c-1.7,1.1-3,2.8-3.9,5c-0.5,1.3-0.9,2.8-1.1,4.5c-0.2,1.7-0.3,3.6-0.3,5.7c0,1.6,0.1,3.2,0.3,4.6s0.5,2.8,1,4
			c0.9,2.2,2.3,4,4.1,5.3s3.9,1.9,6.2,1.9c2,0,3.8-0.5,5.4-1.4c1.6-1,2.9-2.3,4-4.1c0.8-1.4,1.3-3,1.6-4.7c0.3-1.7,0.4-3.7,0.4-5.9
			C70.1,63.4,69.6,60.1,68.5,57.7z M62.5,67.3c0,2.6-0.1,4.6-0.4,6.2c-0.3,1.4-0.7,2.5-1.3,3.3c-0.5,0.6-1.2,0.9-2.2,0.9
			c-0.9,0-1.6-0.3-2.1-0.9c-0.6-0.7-1-1.8-1.3-3.2c-0.3-1.6-0.4-3.6-0.4-6.1c0-3.6,0.3-6.3,1-8c0.5-1.4,1.4-2.1,2.8-2.1
			c1,0,1.7,0.3,2.2,0.9c0.6,0.7,1,1.7,1.3,3.1C62.4,62.9,62.5,64.9,62.5,67.3z"/>
	</g>
	<path class="st0" d="M41.1,52.3c-0.6-0.8-1.5-1.2-2.5-1.2c-0.9,0-1.6,0.2-2,0.7c-0.2,0.2-0.5,0.6-1.6,2.1c-0.7,1-1.5,1.9-2.5,2.7
		c-0.9,0.8-2.2,1.6-3.7,2.3c-1.2,0.6-2,1-2.5,1.4s-1.1,1.1-1.1,2.3c0,0.9,0.3,1.6,0.9,2.3c0.6,0.6,1.4,1,2.2,1c0.8,0,2.3-0.3,6-3
		v16.6c0,1.3,0.3,2.4,1,3.1c0.7,0.8,1.6,1.2,2.7,1.2c1.4,0,3.8-0.7,3.8-5.1V55.2C42,54,41.7,53,41.1,52.3z"/>
</g>
</svg>
