<?xml version="1.0" encoding="utf-8"?>
<!-- Generator: Adobe Illustrator 22.1.0, SVG Export Plug-In . SVG Version: 6.00 Build 0)  -->
<svg version="1.1" id="Ebene_1" xmlns="http://www.w3.org/2000/svg" xmlns:xlink="http://www.w3.org/1999/xlink" x="0px" y="0px"
	 viewBox="0 0 96.7 111.2" style="enable-background:new 0 0 96.7 111.2;" xml:space="preserve">
<style type="text/css">
	.st0{fill:#231F20;}
</style>
<g id="Ebene_2_1_">
	<path class="st0" d="M95.5,61.5c0-1.2-0.6-1.8-1.8-1.8h-8.3c-1.2,0-1.8,0.6-1.8,1.8v1.2c0,19.7-16.1,35.7-35.7,35.7
		S12.2,82.3,12.2,62.7S28.3,27,47.9,27v1.2v8.3c0,4.2,4.1,6,6.5,3l14.3-16.1c1.8-1.7,1.8-4.7,0-6.5L54.4,0.8c-2.3-1.8-6.5,0-6.5,4.2
		v8.3v1.8c-26.2,0-47.6,21.4-47.6,47.6s21.4,47.6,47.6,47.6s47.6-21.4,47.6-47.6C95.5,62.7,95.5,61.5,95.5,61.5z"/>
</g>
<path class="st0" d="M52.4,52.1c-0.6-0.8-1.5-1.2-2.5-1.2c-0.9,0-1.6,0.2-2,0.7c-0.2,0.2-0.5,0.6-1.6,2.1c-0.7,1-1.5,1.9-2.5,2.7
	c-0.9,0.8-2.2,1.6-3.7,2.3c-1.2,0.6-2,1-2.5,1.4s-1.1,1.1-1.1,2.3c0,0.9,0.3,1.6,0.9,2.3c0.6,0.6,1.4,1,2.2,1s2.3-0.3,6-3v16.6
	c0,1.3,0.3,2.4,1,3.1c0.7,0.8,1.6,1.2,2.7,1.2c1.4,0,3.8-0.7,3.8-5.1V55C53.3,53.8,53,52.9,52.4,52.1z"/>
</svg>
