<?xml version="1.0" encoding="utf-8"?>
<!-- Generator: Adobe Illustrator 22.1.0, SVG Export Plug-In . SVG Version: 6.00 Build 0)  -->
<svg version="1.1" id="Layer_1" xmlns="http://www.w3.org/2000/svg" xmlns:xlink="http://www.w3.org/1999/xlink" x="0px" y="0px"
	 viewBox="0 0 96.4 111.7" style="enable-background:new 0 0 96.4 111.7;" xml:space="preserve">
<style type="text/css">
	.st0{fill:#231F20;}
</style>
<g id="Ebene_2_1_">
	<path class="st0" d="M95.8,61.8c0-1.2-0.6-1.8-1.8-1.8h-8.3c-1.2,0-1.8,0.6-1.8,1.8V63c0,19.6-16,35.7-35.7,35.7
		S12.5,82.5,12.5,62.9s16.1-35.7,35.7-35.7v1.2v8.3c0,4.2,4.1,6,6.5,3L69,23.6c1.8-1.7,1.8-4.7,0-6.5L54.7,1c-2.3-1.8-6.5,0-6.5,4.2
		v8.4v1.8C22,15.4,0.5,36.8,0.5,63s21.5,47.6,47.7,47.6S95.8,89.2,95.8,63V61.8z"/>
</g>
<g>
	<path class="st0" d="M45,64c-0.9-1-2-1.8-3.2-2.3s-2.6-0.8-4-0.8c-1.5,0-2.9,0.3-4.1,0.9c-0.5,0.2-0.9,0.5-1.4,0.8
		c0.3-2.1,0.7-3.7,1.4-4.6c0.4-0.6,0.9-1,1.5-1.4c1.3-0.7,2.5-0.6,3.4,0.1c0.5,0.4,0.9,0.9,1.1,1.5c0.3,0.8,0.8,1.5,1.4,2
		c1.4,1.1,3.4,0.9,4.5-0.3c0.6-0.6,0.9-1.4,0.9-2.2c0-1.1-0.4-2.3-1.2-3.5c-0.8-1.1-1.9-2.1-3.4-2.9c-1.5-0.8-3.2-1.1-5.1-1.1
		c-2,0-3.7,0.4-5.3,1.1c-1.6,0.7-2.9,1.9-4,3.3C26.4,56,25.6,57.9,25,60c-0.6,2.1-0.8,4.5-0.8,7.2c0,3.3,0.5,6.1,1.4,8.4
		c1,2.4,2.4,4.2,4.2,5.4c1.8,1.2,4,1.8,6.5,1.8c2.2,0,4.1-0.5,5.8-1.4c1.7-1,3.1-2.3,4.1-4.1c1-1.7,1.4-3.6,1.4-5.7
		c0-1.4-0.2-2.8-0.7-4.1C46.7,66.2,45.9,65,45,64z M40.4,71.7c0,1.6-0.4,2.9-1.1,3.8c-0.7,0.9-1.6,1.3-2.6,1.3c-1.1,0-2-0.5-2.8-1.5
		c-0.8-1.1-1.2-2.4-1.2-4c0-1,0.2-1.8,0.6-2.5c0.4-0.7,0.9-1.2,1.5-1.6s1.2-0.5,1.9-0.5s1.3,0.2,1.9,0.5c0.6,0.4,1,0.9,1.4,1.6
		C40.2,69.7,40.4,70.7,40.4,71.7z"/>
	<path class="st0" d="M70.7,56.7c-0.6-1.4-1.5-2.6-2.4-3.5c-1-1-2.1-1.7-3.4-2.2c-1.3-0.5-2.7-0.8-4.2-0.8c-2.3,0-4.4,0.6-6,1.7
		c-1.7,1.1-3,2.8-3.9,5c-0.5,1.3-0.9,2.8-1.1,4.5c-0.2,1.7-0.3,3.6-0.3,5.7c0,1.6,0.1,3.2,0.3,4.6s0.5,2.8,1,4
		c0.9,2.2,2.3,4,4.1,5.3s3.9,1.9,6.2,1.9c2,0,3.8-0.5,5.4-1.4c1.6-1,2.9-2.3,4-4.1c0.8-1.4,1.3-3,1.6-4.7c0.3-1.7,0.4-3.7,0.4-5.9
		C72.3,62.4,71.8,59.1,70.7,56.7z M64.7,66.3c0,2.6-0.1,4.6-0.4,6.2C64,73.9,63.6,75,63,75.8c-0.5,0.6-1.2,0.9-2.2,0.9
		c-0.9,0-1.6-0.3-2.1-0.9c-0.6-0.7-1-1.8-1.3-3.2C57.2,71,57,68.9,57,66.4c0-3.6,0.3-6.3,1-8c0.5-1.4,1.4-2.1,2.8-2.1
		c1,0,1.7,0.3,2.2,0.9c0.6,0.7,1,1.7,1.3,3.1C64.6,61.9,64.7,63.9,64.7,66.3z"/>
</g>
</svg>
