<?xml version="1.0" encoding="utf-8"?>
<!-- Generator: Adobe Illustrator 22.0.0, SVG Export Plug-In . SVG Version: 6.00 Build 0)  -->
<svg version="1.1" id="Layer_1" xmlns="http://www.w3.org/2000/svg" xmlns:xlink="http://www.w3.org/1999/xlink" x="0px" y="0px"
	 viewBox="0 0 788.6 788.6" style="enable-background:new 0 0 788.6 788.6;" xml:space="preserve">
<style type="text/css">
	.st0{display:none;}
	.st1{display:inline;}
	.st2{fill:#FFFFFF;}
</style>
<g id="Ebene_2" class="st0">
	
		<ellipse transform="matrix(0.7071 -0.7071 0.7071 0.7071 35.6798 839.442)" class="st1" cx="1031.1" cy="376.7" rx="99.3" ry="99.3"/>
	<g class="st1">
		<path d="M627.5,336.4c0-0.4,0-0.9,0-1.3c0-18.6-2.7-36.9-8-54.2c-55.8,0.2-109.7,6.2-161.3,18c-90.4,20.7-173.8,59-247.9,113.9
			C84,506.2,29,614.6,26.7,619.2c-6.8,13.7-1.3,30.4,12.4,37.2c4,2,8.2,2.9,12.4,2.9c10.2,0,20-5.6,24.9-15.4
			c0.5-1,51.3-101.1,166.9-186.7c67.9-50.3,144.4-85.4,227.3-104.3C520.5,341.6,572.9,336,627.5,336.4z"/>
		<path d="M897.3,319.2L813.4,208c-9.2-12.2-26.6-14.7-38.9-5.4c-12.2,9.2-14.7,26.7-5.4,38.9l45.6,60.4
			c-30.5-6.5-60.5-11.4-90.1-14.9c2.7,15.8,4,31.9,4,48.1c0,2.8-0.1,5.5-0.1,8.3c24.2,3.1,48.7,7.3,73.6,12.6l-58.9,44.5
			c-12.2,9.2-14.7,26.7-5.4,38.9c5.5,7.2,13.8,11,22.2,11c5.8,0,11.7-1.8,16.7-5.6l111.2-83.9c0.2-0.1,0.4-0.3,0.6-0.5
			c1.2-0.7,2.4-1.4,3.5-2.2C904.1,348.8,906.6,331.4,897.3,319.2z"/>
	</g>
	<path class="st1" d="M707.8,335.1c0-147.2-119.4-266.6-266.6-266.6S174.6,187.9,174.6,335.1c0,25.3,3.5,49.7,10.1,72.9
		c5.7-4.5,11.5-8.9,17.4-13.3c11.4-8.5,23.1-16.5,35-24.3c-2-11.5-3-23.3-3-35.3c0-114.2,92.9-207.2,207.2-207.2
		c114.2,0,207.2,92.9,207.2,207.2c0,114.2-92.9,207.2-207.2,207.2c-67,0-126.6-32-164.5-81.4c-5.6,3.9-11.2,7.8-16.8,11.9
		c-10.8,8-21,16.1-30.6,24.2c43.6,57,109.7,95.9,185,103.4v255.2h59.5V599.7C605.6,583.6,707.8,471.3,707.8,335.1z"/>
</g>
<g id="Ebene_3" class="st0">
	<circle class="st1" cx="564.1" cy="340.7" r="106.3"/>
	<g class="st1">
		<path d="M627.5,335.4c0-0.4,0-0.9,0-1.3c0-18.6-2.7-36.9-8-54.2c-55.8,0.2-109.7,6.2-161.3,18c-90.4,20.7-173.8,59-247.9,113.9
			C84,505.2,29,613.6,26.7,618.2c-6.8,13.7-1.3,30.4,12.4,37.2c4,2,8.2,2.9,12.4,2.9c10.2,0,20-5.6,24.9-15.4
			c0.5-1,51.3-101.1,166.9-186.7c67.9-50.3,144.4-85.4,227.3-104.3C520.5,340.6,572.9,335,627.5,335.4z"/>
		<path d="M897.3,318.2L813.4,207c-9.2-12.2-26.6-14.7-38.9-5.4c-12.2,9.2-14.7,26.7-5.4,38.9l45.6,60.4
			c-30.5-6.5-60.5-11.4-90.1-14.9c2.7,15.8,4,31.9,4,48.1c0,2.8-0.1,5.5-0.1,8.3c24.2,3.1,48.7,7.3,73.6,12.6l-58.9,44.5
			c-12.2,9.2-14.7,26.7-5.4,38.9c5.5,7.2,13.8,11,22.2,11c5.8,0,11.7-1.8,16.7-5.6l111.2-83.9c0.2-0.1,0.4-0.3,0.6-0.5
			c1.2-0.7,2.4-1.4,3.5-2.2C904.1,347.8,906.6,330.4,897.3,318.2z"/>
	</g>
	<g class="st1">
		<path d="M707.9,335.7c0-71.4-27.8-138.5-78.3-189S512,68.4,440.6,68.4s-138.5,27.8-189,78.3s-78.3,117.6-78.3,189
			s27.8,138.5,78.3,189c44,44,100.5,70.7,161.6,76.9v254.9h59.5V601.1c59.3-7,114.1-33.5,156.9-76.4
			C680.1,474.2,707.9,407.1,707.9,335.7z M440.6,543c-114.3,0-207.2-93-207.2-207.2c0-64.1,29.3-121.5,75.2-159.6
			c35.8-29.5,81.7-47.3,131.6-47.3c114.2,0,207.2,92.9,207.2,207.2c0,87.4-54.4,162.3-131,192.7C492.8,537.9,467.3,543,440.6,543z"
			/>
	</g>
	<g class="st1">
		<path d="M634.8,336.1c0,39.7-11.9,78-34.5,110.6c-11.8,17-25.9,31.8-42,44.1c8.7-0.8,17.6-0.1,26.5,1.7
			c23.7,4.8,47.3,10.2,71.3,13.9c2,0.2,4,0.4,6,0.6c37.7-48.9,58.3-108.5,58.3-171.3c0-46.7-11.4-91.6-32.8-131.7
			c-5.7,0.1-11.3-0.8-17-2.5c-27.3-5.3-54-13.1-81.4-17.7c-9-0.9-18-1.3-27.1-0.8c-0.4,0.1-0.9,0.2-1.3,0.3l-0.1,0.1
			c5.9,4.7,11.5,9.7,16.9,15.1C614.5,235.3,634.8,284.1,634.8,336.1z"/>
		<path class="st2" d="M538.7,489.2c3.4,1,6.8,2,10.2,3.1c9.2-2.1,18.7-2.3,28.3-1.1c42.9-38,70-93.4,70-155.1
			c0-60.5-26.1-115-67.6-153c-5.8-0.3-11.7-0.4-17.5-0.1c-0.4,0.1-0.9,0.2-1.3,0.3c-3.3,3-6.9,5.5-10.7,7.7
			c43.8,33.3,72.1,85.9,72.1,145c0,37.2-11.2,72.9-32.3,103.5C576.2,459.4,558.8,476.2,538.7,489.2z"/>
		<path class="st2" d="M647.5,504.9c2.8,0.5,5.6,1,8.4,1.4c7,0.8,13.9,1.3,20.9,1.6c36.4-49.7,56-109.4,56-172.2
			c0-47.1-11.1-92.4-32-133.2c-0.8,0.1-1.6,0.1-2.4,0.2c-8.8,2-17.6,1.7-26.5-0.8c23.3,40.2,35.8,86,35.8,133.8
			C707.9,398.2,686.6,457.3,647.5,504.9z"/>
	</g>
</g>
<g id="Ebene_4">
	<path class="st0" d="M861.4,840.5h-878c-6.6,0-12-5.4-12-12v-878c0-6.6,5.4-12,12-12h878c6.6,0,12,5.4,12,12v878
		C873.4,835.1,868,840.5,861.4,840.5z"/>
	<g>
		<path d="M407.3,263c-0.1-2.9,0-5.7,0.2-8.4c-60.9,21.9-117.9,52.3-170.3,91.1C111,439.2,55.9,547.6,53.6,552.2
			c-6.8,13.7-1.3,30.4,12.4,37.2c4,2,8.2,2.9,12.4,2.9c10.2,0,20-5.6,24.9-15.4c0.5-1,51.3-101.1,166.9-186.7
			c46.4-34.3,96.8-61.6,150.4-81.4C412.1,295.3,408,279,407.3,263z"/>
		<circle cx="532.2" cy="251.8" r="99.3"/>
		<path d="M734.8,267.1c0-147.2-119.4-266.6-266.6-266.6S201.6,119.9,201.6,267.1c0,25.3,3.5,49.7,10.1,72.9
			c5.7-4.5,11.5-8.9,17.4-13.3c11.4-8.5,23.1-16.5,35-24.3c-2-11.5-3-23.3-3-35.3c0-114.2,92.9-207.2,207.2-207.2
			c114.2,0,207.2,92.9,207.2,207.2c0,114.2-92.9,207.2-207.2,207.2c-67,0-126.6-32-164.5-81.4c-5.6,3.9-11.2,7.8-16.8,11.9
			c-10.8,8-21,16.1-30.6,24.2c43.6,57,109.7,95.9,185,103.4v255.2h59.5V531.7C632.6,515.6,734.8,403.3,734.8,267.1z"/>
	</g>
</g>
</svg>
