<?xml version="1.0" encoding="utf-8"?>
<!-- Generator: Adobe Illustrator 22.1.0, SVG Export Plug-In . SVG Version: 6.00 Build 0)  -->
<svg version="1.1" id="Ebene_1" xmlns="http://www.w3.org/2000/svg" xmlns:xlink="http://www.w3.org/1999/xlink" x="0px" y="0px"
	 viewBox="0 0 470.9 258.4" style="enable-background:new 0 0 470.9 258.4;" xml:space="preserve">
<style type="text/css">
	.st0{fill:#66E292;}
</style>
<rect x="224.4" y="2.8" class="st0" width="23.2" height="253.1"/>
<g>
	<path d="M0-0.2v258.4h471.5V-0.2H0z M237.5,2.8h83.8v252.4h-83.8V2.8z M234.5,255.2H153V2.8h81.5V255.2z M3,2.8h103.9v0.9h3V2.8
		H150v252.4h-40.2v-1.5h-3v1.5H3V2.8z M468.5,255.2H366.1V254h-3v1.2h-38.8V2.8h38.8v1.2h3V2.8h102.3V255.2z"/>
	<rect x="363.1" y="34.4" width="3" height="6.1"/>
	<rect x="363.1" y="46.6" width="3" height="6.1"/>
	<rect x="363.1" y="58.8" width="3" height="6.1"/>
	<rect x="363.1" y="83.2" width="3" height="6.1"/>
	<rect x="363.1" y="71" width="3" height="6.1"/>
	<rect x="363.1" y="22.2" width="3" height="6.1"/>
	<rect x="363.1" y="156.4" width="3" height="6.1"/>
	<rect x="363.1" y="10" width="3" height="6.1"/>
	<rect x="363.1" y="205.2" width="3" height="6.1"/>
	<rect x="363.1" y="217.4" width="3" height="6.1"/>
	<rect x="363.1" y="180.8" width="3" height="6.1"/>
	<rect x="363.1" y="193" width="3" height="6.1"/>
	<rect x="363.1" y="95.4" width="3" height="6.1"/>
	<rect x="363.1" y="168.6" width="3" height="6.1"/>
	<rect x="363.1" y="241.8" width="3" height="6.1"/>
	<path d="M363.1,119.8v5.1c-1.6,0.6-2.7,2.1-2.7,3.9c0,1.8,1.1,3.3,2.7,3.9v5.3h3v-5.3c1.6-0.6,2.7-2.1,2.7-3.9
		c0-1.8-1.1-3.3-2.7-3.9v-5.1H363.1z"/>
	<rect x="363.1" y="229.6" width="3" height="6.1"/>
	<rect x="106.9" y="168.4" width="3" height="6.1"/>
	<rect x="106.9" y="9.7" width="3" height="6.1"/>
	<rect x="106.9" y="180.6" width="3" height="6.1"/>
	<rect x="106.9" y="21.9" width="3" height="6.1"/>
	<rect x="106.9" y="156.2" width="3" height="6.1"/>
	<rect x="106.9" y="229.4" width="3" height="6.1"/>
	<rect x="106.9" y="241.6" width="3" height="6.1"/>
	<rect x="106.9" y="217.2" width="3" height="6.1"/>
	<rect x="106.9" y="192.8" width="3" height="6.1"/>
	<rect x="106.9" y="205" width="3" height="6.1"/>
	<rect x="106.9" y="82.9" width="3" height="6.1"/>
	<rect x="106.9" y="70.7" width="3" height="6.1"/>
	<rect x="106.9" y="34.1" width="3" height="6.1"/>
	<rect x="106.9" y="95.1" width="3" height="6.1"/>
	<rect x="106.9" y="58.5" width="3" height="6.1"/>
	<rect x="106.9" y="46.3" width="3" height="6.1"/>
	<path d="M106.9,132.9v5h3v-5c1.6-0.6,2.7-2.1,2.7-3.9c0-1.8-1.1-3.3-2.7-3.9v-5.4h-3v5.4c-1.6,0.6-2.7,2.1-2.7,3.9
		C104.2,130.7,105.3,132.2,106.9,132.9z"/>
	<circle cx="365.5" cy="147.1" r="4.2"/>
	<path d="M364.9,107c-2.3,0-4.2,1.9-4.2,4.2s1.9,4.2,4.2,4.2s4.2-1.9,4.2-4.2S367.3,107,364.9,107z"/>
	<path d="M108.7,150.6c2.3,0,4.2-1.9,4.2-4.2s-1.9-4.2-4.2-4.2c-2.3,0-4.2,1.9-4.2,4.2S106.3,150.6,108.7,150.6z"/>
	<path d="M108.7,115c2.3,0,4.2-1.9,4.2-4.2s-1.9-4.2-4.2-4.2c-2.3,0-4.2,1.9-4.2,4.2S106.3,115,108.7,115z"/>
</g>
</svg>
