<?xml version="1.0" encoding="utf-8"?>
<!-- Generator: Adobe Illustrator 22.1.0, SVG Export Plug-In . SVG Version: 6.00 Build 0)  -->
<svg version="1.1" id="Ebene_1" xmlns="http://www.w3.org/2000/svg" xmlns:xlink="http://www.w3.org/1999/xlink" x="0px" y="0px"
	 viewBox="0 0 471.5 285.1" style="enable-background:new 0 0 471.5 285.1;" xml:space="preserve">
<style type="text/css">
	.st0{fill:#66E292;}
	.st1{fill:#020203;}
	.st2{fill:none;}
</style>
<circle class="st0" cx="236.4" cy="64.9" r="11.6"/>
<g>
	<path class="st1" d="M0,0v258.4h471.5V0H0z M237.5,3h83.8v252.4h-83.8V3z M234.5,255.4H153V3h81.5V255.4z M3,3h103.9v0.9h3V3H150
		v252.4h-40.2V254h-3v1.5H3V3z M468.5,255.4H366.1v-1.2h-3v1.2h-38.8V3h38.8v1.2h3V3h102.3V255.4z"/>
	<rect x="363.1" y="34.7" class="st1" width="3" height="6.1"/>
	<rect x="363.1" y="46.9" class="st1" width="3" height="6.1"/>
	<rect x="363.1" y="59.1" class="st1" width="3" height="6.1"/>
	<rect x="363.1" y="83.5" class="st1" width="3" height="6.1"/>
	<rect x="363.1" y="71.3" class="st1" width="3" height="6.1"/>
	<rect x="363.1" y="22.5" class="st1" width="3" height="6.1"/>
	<rect x="363.1" y="156.7" class="st1" width="3" height="6.1"/>
	<rect x="363.1" y="10.3" class="st1" width="3" height="6.1"/>
	<rect x="363.1" y="205.5" class="st1" width="3" height="6.1"/>
	<rect x="363.1" y="217.7" class="st1" width="3" height="6.1"/>
	<rect x="363.1" y="181.1" class="st1" width="3" height="6.1"/>
	<rect x="363.1" y="193.3" class="st1" width="3" height="6.1"/>
	<rect x="363.1" y="95.7" class="st1" width="3" height="6.1"/>
	<rect x="363.1" y="168.9" class="st1" width="3" height="6.1"/>
	<rect x="363.1" y="242.1" class="st1" width="3" height="6.1"/>
	<path class="st1" d="M363.1,120.1v5.1c-1.6,0.6-2.7,2.1-2.7,3.9s1.1,3.3,2.7,3.9v5.3h3v-5.3c1.6-0.6,2.7-2.1,2.7-3.9
		s-1.1-3.3-2.7-3.9v-5.1H363.1z"/>
	<rect x="363.1" y="229.9" class="st1" width="3" height="6.1"/>
	<rect x="106.9" y="168.6" class="st1" width="3" height="6.1"/>
	<rect x="106.9" y="10" class="st1" width="3" height="6.1"/>
	<rect x="106.9" y="180.8" class="st1" width="3" height="6.1"/>
	<rect x="106.9" y="22.2" class="st1" width="3" height="6.1"/>
	<rect x="106.9" y="156.4" class="st1" width="3" height="6.1"/>
	<rect x="106.9" y="229.6" class="st1" width="3" height="6.1"/>
	<rect x="106.9" y="241.8" class="st1" width="3" height="6.1"/>
	<rect x="106.9" y="217.4" class="st1" width="3" height="6.1"/>
	<rect x="106.9" y="193" class="st1" width="3" height="6.1"/>
	<rect x="106.9" y="205.2" class="st1" width="3" height="6.1"/>
	<rect x="106.9" y="83.2" class="st1" width="3" height="6.1"/>
	<rect x="106.9" y="71" class="st1" width="3" height="6.1"/>
	<rect x="106.9" y="34.4" class="st1" width="3" height="6.1"/>
	<rect x="106.9" y="95.4" class="st1" width="3" height="6.1"/>
	<rect x="106.9" y="58.8" class="st1" width="3" height="6.1"/>
	<rect x="106.9" y="46.6" class="st1" width="3" height="6.1"/>
	<path class="st1" d="M106.9,133.1v5h3v-5c1.6-0.6,2.7-2.1,2.7-3.9s-1.1-3.3-2.7-3.9v-5.4h-3v5.4c-1.6,0.6-2.7,2.1-2.7,3.9
		S105.3,132.5,106.9,133.1z"/>
	<circle class="st1" cx="365.5" cy="147.3" r="4.2"/>
	<path class="st1" d="M364.9,107.3c-2.3,0-4.2,1.9-4.2,4.2s1.9,4.2,4.2,4.2s4.2-1.9,4.2-4.2S367.3,107.3,364.9,107.3z"/>
	<path class="st1" d="M108.7,150.8c2.3,0,4.2-1.9,4.2-4.2s-1.9-4.2-4.2-4.2c-2.3,0-4.2,1.9-4.2,4.2S106.3,150.8,108.7,150.8z"/>
	<path class="st1" d="M108.7,115.2c2.3,0,4.2-1.9,4.2-4.2s-1.9-4.2-4.2-4.2c-2.3,0-4.2,1.9-4.2,4.2S106.3,115.2,108.7,115.2z"/>
</g>
<g>
	<rect x="167.7" y="263.2" class="st1" width="137.6" height="18.9"/>
	<rect x="185.4" y="267.9" class="st2" width="103.5" height="11.6"/>
</g>
</svg>
