<?xml version="1.0" encoding="utf-8"?>
<!-- Generator: Adobe Illustrator 22.1.0, SVG Export Plug-In . SVG Version: 6.00 Build 0)  -->
<svg version="1.1" id="Ebene_1" xmlns="http://www.w3.org/2000/svg" xmlns:xlink="http://www.w3.org/1999/xlink" x="0px" y="0px"
	 viewBox="0 0 98.2 112.1" style="enable-background:new 0 0 98.2 112.1;" xml:space="preserve">
<style type="text/css">
	.st0{display:none;}
	.st1{display:inline;}
	.st2{display:inline;fill:none;}
	.st3{enable-background:new    ;}
	.st4{fill:#231F20;}
</style>
<g id="Layer_1" class="st0">
	<path class="st1" d="M-5,96.2v-4l-5,5l5,5v-4c3.3,0,6,2.7,6,6s-2.7,6-6,6s-6-2.7-6-6h-2c0,4.4,3.6,8,8,8s8-3.6,8-8
		S-0.6,96.2-5,96.2z"/>
	<rect x="-15.4" y="99.6" class="st2" width="7" height="7"/>
	<text transform="matrix(1 0 0 1 -8.4819 107.0768)" class="st1" style="font-family:'Arial-BoldMT'; font-size:6px;">60</text>
</g>
<g id="Ebene_2_1_">
	<path class="st4" d="M1.4,63.5c0,26.2,21.4,47.6,47.6,47.6s47.6-21.4,47.6-47.6S75.2,15.9,49,15.9v-1.8V5.8c0-4.2-4.2-6-6.5-4.2
		L28.1,17.7c-1.8,1.8-1.8,4.8,0,6.5l14.3,16.1c2.4,3,6.5,1.2,6.5-3V29v-1.2c19.6,0,35.7,16.1,35.7,35.7S68.6,99.3,49,99.3
		S13.3,83.2,13.3,63.5v-1.2c0-1.2-0.6-1.8-1.8-1.8H3.2c-1.2,0-1.8,0.6-1.8,1.8V63.5z"/>
</g>
<g>
	<path class="st4" d="M46.5,64c-0.9-1-2-1.8-3.2-2.3s-2.6-0.8-4-0.8c-1.5,0-2.9,0.3-4.1,0.9c-0.5,0.2-0.9,0.5-1.4,0.8
		c0.3-2.1,0.7-3.7,1.4-4.6c0.4-0.6,0.9-1,1.5-1.4c1.3-0.7,2.5-0.6,3.4,0.1c0.5,0.4,0.9,0.9,1.1,1.5c0.3,0.8,0.8,1.5,1.4,2
		c1.4,1.1,3.4,0.9,4.5-0.3c0.6-0.6,0.9-1.4,0.9-2.2c0-1.1-0.4-2.3-1.2-3.5c-0.8-1.1-1.9-2.1-3.4-2.9c-1.5-0.8-3.2-1.1-5.1-1.1
		c-2,0-3.7,0.4-5.3,1.1c-1.6,0.7-2.9,1.9-4,3.3c-1.1,1.4-1.9,3.3-2.5,5.4c-0.6,2.1-0.8,4.5-0.8,7.2c0,3.3,0.5,6.1,1.4,8.4
		c1,2.4,2.4,4.2,4.2,5.4c1.8,1.2,4,1.8,6.5,1.8c2.2,0,4.1-0.5,5.8-1.4c1.7-1,3.1-2.3,4.1-4.1c1-1.7,1.4-3.6,1.4-5.7
		c0-1.4-0.2-2.8-0.7-4.1C48.1,66.2,47.4,65,46.5,64z M41.9,71.8c0,1.6-0.4,2.9-1.1,3.8c-0.7,0.9-1.6,1.3-2.6,1.3
		c-1.1,0-2-0.5-2.8-1.5c-0.8-1.1-1.2-2.4-1.2-4c0-1,0.2-1.8,0.6-2.5c0.4-0.7,0.9-1.2,1.5-1.6s1.2-0.5,1.9-0.5s1.3,0.2,1.9,0.5
		c0.6,0.4,1,0.9,1.4,1.6C41.7,69.7,41.9,70.7,41.9,71.8z"/>
	<path class="st4" d="M72.1,56.7c-0.6-1.4-1.5-2.6-2.4-3.5c-1-1-2.1-1.7-3.4-2.2s-2.7-0.8-4.2-0.8c-2.3,0-4.4,0.6-6,1.7
		c-1.7,1.1-3,2.8-3.9,5c-0.5,1.3-0.9,2.8-1.1,4.5c-0.2,1.7-0.3,3.6-0.3,5.7c0,1.6,0.1,3.2,0.3,4.6s0.5,2.8,1,4
		c0.9,2.2,2.3,4,4.1,5.3c1.8,1.3,3.9,1.9,6.2,1.9c2,0,3.8-0.5,5.4-1.4c1.6-1,2.9-2.3,4-4.1c0.8-1.4,1.3-3,1.6-4.7
		c0.3-1.7,0.4-3.7,0.4-5.9C73.8,62.4,73.2,59.1,72.1,56.7z M66.2,66.3c0,2.6-0.1,4.6-0.4,6.2c-0.3,1.4-0.7,2.5-1.3,3.3
		c-0.5,0.6-1.2,0.9-2.2,0.9c-0.9,0-1.6-0.3-2.1-0.9c-0.6-0.7-1-1.8-1.3-3.2c-0.3-1.6-0.4-3.6-0.4-6.1c0-3.6,0.3-6.3,1-8
		c0.5-1.4,1.4-2.1,2.8-2.1c1,0,1.7,0.3,2.2,0.9c0.6,0.7,1,1.7,1.3,3.1C66,61.9,66.2,63.9,66.2,66.3z"/>
</g>
</svg>
