<?xml version="1.0" encoding="utf-8"?>
<!-- Generator: Adobe Illustrator 22.1.0, SVG Export Plug-In . SVG Version: 6.00 Build 0)  -->
<svg version="1.1" id="Ebene_1" xmlns="http://www.w3.org/2000/svg" xmlns:xlink="http://www.w3.org/1999/xlink" x="0px" y="0px"
	 viewBox="0 0 97.5 113.1" style="enable-background:new 0 0 97.5 113.1;" xml:space="preserve">
<style type="text/css">
	.st0{fill:#231F20;}
</style>
<g id="Ebene_2_1_">
	<path class="st0" d="M0.8,63.8c0,26.2,21.4,47.6,47.6,47.6S96.1,90,96.1,63.8S74.7,16.2,48.5,16.2v-1.8V6.1c0-4.2-4.2-6-6.5-4.2
		L27.6,18c-1.8,1.8-1.8,4.8,0,6.5l14.3,16.1c2.4,3,6.5,1.2,6.5-3v-8.3v-1.2c19.6,0,35.7,16.1,35.7,35.7S68.1,99.5,48.5,99.5
		S12.8,83.5,12.8,63.8v-1.2c0-1.2-0.6-1.8-1.8-1.8H2.6c-1.2,0-1.8,0.6-1.8,1.8V63.8z"/>
</g>
<g>
	<g>
		<path class="st0" d="M68.1,57.7c-0.6-1.4-1.5-2.6-2.4-3.5c-1-1-2.1-1.7-3.4-2.2c-1.3-0.5-2.7-0.8-4.2-0.8c-2.3,0-4.4,0.6-6,1.7
			c-1.7,1.1-3,2.8-3.9,5c-0.5,1.3-0.9,2.8-1.1,4.5c-0.2,1.7-0.3,3.6-0.3,5.7c0,1.6,0.1,3.2,0.3,4.6c0.2,1.4,0.5,2.8,1,4
			c0.9,2.2,2.3,4,4.1,5.3c1.8,1.3,3.9,1.9,6.2,1.9c2,0,3.8-0.5,5.4-1.4c1.6-1,2.9-2.3,4-4.1c0.8-1.4,1.3-3,1.6-4.7
			c0.3-1.7,0.4-3.7,0.4-5.9C69.8,63.5,69.2,60.1,68.1,57.7z M62.2,67.3c0,2.6-0.1,4.6-0.4,6.2c-0.3,1.4-0.7,2.5-1.3,3.3
			c-0.5,0.6-1.2,0.9-2.2,0.9c-0.9,0-1.6-0.3-2.1-0.9c-0.6-0.7-1-1.8-1.3-3.2c-0.3-1.6-0.4-3.6-0.4-6.1c0-3.6,0.3-6.3,1-8
			c0.5-1.4,1.4-2.1,2.8-2.1c1,0,1.7,0.3,2.2,0.9c0.6,0.7,1,1.7,1.3,3.1C62,62.9,62.2,64.9,62.2,67.3z"/>
	</g>
	<path class="st0" d="M40.8,52.3c-0.6-0.8-1.5-1.2-2.5-1.2c-0.9,0-1.6,0.2-2,0.7c-0.2,0.2-0.5,0.6-1.6,2.1c-0.7,1-1.5,1.9-2.5,2.7
		c-0.9,0.8-2.2,1.6-3.7,2.3c-1.2,0.6-2,1-2.5,1.4c-0.5,0.4-1.1,1.1-1.1,2.3c0,0.9,0.3,1.6,0.9,2.3c0.6,0.6,1.4,1,2.2,1
		c0.8,0,2.3-0.3,6-3v16.6c0,1.3,0.3,2.4,1,3.1c0.7,0.8,1.6,1.2,2.7,1.2c1.4,0,3.8-0.7,3.8-5.1V55.2C41.7,54,41.4,53,40.8,52.3z"/>
</g>
</svg>
