<?xml version="1.0" encoding="utf-8"?>
<!-- Generator: Adobe Illustrator 22.1.0, SVG Export Plug-In . SVG Version: 6.00 Build 0)  -->
<svg version="1.1" id="Ebene_1" xmlns="http://www.w3.org/2000/svg" xmlns:xlink="http://www.w3.org/1999/xlink" x="0px" y="0px"
	 viewBox="0 0 97.3 112.1" style="enable-background:new 0 0 97.3 112.1;" xml:space="preserve">
<style type="text/css">
	.st0{fill:#231F20;}
</style>
<g id="Ebene_2_1_">
	<path class="st0" d="M1.1,63.3c0,26.2,21.4,47.6,47.6,47.6s47.6-21.4,47.6-47.6S74.9,15.6,48.7,15.6v-1.8V5.5c0-4.2-4.2-6-6.5-4.2
		L27.9,17.4c-1.8,1.8-1.8,4.8,0,6.5L42.2,40c2.4,3,6.5,1.2,6.5-3v-8.3v-1.2c19.6,0,35.7,16.1,35.7,35.7S68.4,99,48.7,99
		S13,82.9,13,63.3v-1.2c0-1.2-0.6-1.8-1.8-1.8H2.9c-1.2,0-1.8,0.6-1.8,1.8V63.3z"/>
</g>
<path class="st0" d="M52.4,51.1c-0.6-0.8-1.5-1.2-2.5-1.2c-0.9,0-1.6,0.2-2,0.7c-0.2,0.2-0.5,0.6-1.6,2.1c-0.7,1-1.5,1.9-2.5,2.7
	c-0.9,0.8-2.2,1.6-3.7,2.3c-1.2,0.6-2,1-2.5,1.4c-0.5,0.4-1.1,1.1-1.1,2.3c0,0.9,0.3,1.6,0.9,2.3c0.6,0.6,1.4,1,2.2,1
	c0.8,0,2.3-0.3,6-3v16.6c0,1.3,0.3,2.4,1,3.1c0.7,0.8,1.6,1.2,2.7,1.2c1.4,0,3.8-0.7,3.8-5.1V54C53.3,52.8,53,51.9,52.4,51.1z"/>
</svg>
