<?xml version="1.0" encoding="utf-8"?>
<!-- Generator: Adobe Illustrator 22.1.0, SVG Export Plug-In . SVG Version: 6.00 Build 0)  -->
<svg version="1.1" xmlns="http://www.w3.org/2000/svg" xmlns:xlink="http://www.w3.org/1999/xlink" x="0px" y="0px"
	 viewBox="0 0 198.3 218.9" style="enable-background:new 0 0 198.3 218.9;" xml:space="preserve">
<style type="text/css">
	.st0{display:none;fill:#010002;}
	.st1{fill:#F3C686;}
	.st2{display:none;fill:#F3C686;}
	.st3{fill:#633C3F;}
	.st4{fill:#FFEC00;stroke:#FFEC00;stroke-linecap:round;stroke-linejoin:round;stroke-miterlimit:10;}
	.st5{opacity:0.1;}
	.st6{fill:#FFB600;}
</style>
<g id="Capa_1">
	<path class="st0" d="M70.3,50.8C81.4,49.5,89.5,39.3,88.2,28C86.9,16.7,76.8,8.5,65.6,9.8c-11.2,1.3-19.2,11.5-17.9,22.8
		C49,43.9,59.1,52,70.3,50.8z"/>
	<path class="st1" d="M30.1,206.9c12.4-21.4,24.9-42.7,37.3-64.1c1.1,0.9,21.8,9.9,29.9,15.4c-8.4,5.1-16.7,10.2-25.1,15.3
		c-13.9,8.4-1.2,30.4,12.7,21.9c13-7.9,42.9-27,43.8-29c3.9-4.5,4.8-11.2-0.9-16.3c-9.8-8.6-20.3-16-31.7-21.8
		c7.7-15.1,15.7-30,24.1-44.6c26.9,8.3,52.5-1.5,70.7-27.3c9.4-13.4-12.3-26-21.7-12.8c-14.3,20.2-33.4,22.6-54,10.2
		c-1.4-0.8-7.6-4.3-9-5.1C73.2,28.7,40.2,36.5,18,67.9c-9.4,13.4,12.4,26,21.7,12.8c11.4-16.2,26-20.9,41.9-15.8
		C73.4,79.3,24.3,167,8.5,194.1C0.3,208.2,21.9,221,30.1,206.9z"/>
</g>
<g id="Ebene_9">
	<path class="st2" d="M187,195.4c-15.8-27.1-65-114.8-73.1-129.2c15.9-5.1,30.5-0.4,41.9,15.8c9.3,13.2,31.1,0.5,21.7-12.8
		C155.3,37.8,122.2,30,89.2,49.9c-1.4,0.8-7.6,4.3-9,5.1c-20.6,12.3-39.7,10-54-10.2C16.9,31.6-4.9,44.2,4.5,57.6
		c18.2,25.8,43.8,35.6,70.7,27.3c8.4,14.7,16.4,29.6,24.1,44.6c-11.4,5.9-21.9,13.2-31.7,21.8c-5.8,5.1-4.8,11.8-0.9,16.3
		c0.9,2.1,30.9,21.1,43.8,29c13.9,8.4,26.5-13.5,12.7-21.9c-8.4-5.1-16.7-10.2-25.1-15.3c8.1-5.5,28.8-14.6,29.9-15.4
		c12.4,21.4,24.9,42.8,37.3,64.1C173.5,222.3,195.2,209.5,187,195.4z"/>
	<g>
		<path class="st3" d="M143,33.2c-3.7-3.5-9.9-4.6-14.4,0.1c-2,2.1-4.8,5.7-7.9,5.6c-2.3-0.1-6-1.8-8.1-2.7
			c-0.1-0.1-0.2-0.1-0.4-0.2c-0.6-1.3-1.4-2.4-2.6-3.3c-0.7-0.5-1.5-0.9-2.2-1.4c-0.5-0.3-1.1-0.4-1.6-0.6c-1-0.8-2.1-1.4-3.2-1.7
			c0.1-0.9,0.1-1.6,0.2-2.3c0.2-1.4,0.6-2.8,1.2-4.1l5.4-12.1c3.3-7.5,10.5-7.6,14.3-7c1.4,0.2,2.7,0.6,3.9,1.2l21.3,9.5
			c2.6,1.1,1.1,3.4,1.1,3.4L143,33.2z"/>
		<path class="st1" d="M144.8,29.2l-8.4-3.7c-3.3-1.5-5.2-2.8-11.7,1.6c-6.7,4.6-9.5,5.6-14.8,3.4c-5.4-2.2-7.1-3.2-7.1-3.2
			s-3.7,13.5,11.3,21.2s25.5-7.4,25.5-7.4L144.8,29.2"/>
	</g>
</g>
<g id="Ebene_7">
	<g>
		<g>
			<path class="st4" d="M81.6,64.9c-6.9-2.2-13.5-2.6-19.8-1c0.2-1.4,0.4-2.9,0.5-4.4c0.3-7.3-2.1-14.3-6.2-20
				c15.7-4.1,33-1.3,50.2,9.1c1.4,0.8,7.6,4.3,9,5.1c14,8.4,27.3,10,38.8,3.8c-0.4,2-0.7,4-0.8,6.1c-0.3,6.9,1.8,13.5,5.6,19
				c-12.1,4.7-25.2,5.1-38.7,0.9c-8.4,14.7-16.4,29.6-24.1,44.6c9.7,5,18.7,11,27.2,18c-10.5,0.1-19.9,4.4-26.2,11.7
				c0,0-0.4-0.2-0.3-0.2c-8.1-5.5-28.2-14.1-29.3-15c-5.8,9.9-11.5,19.8-17.3,29.7c-5.7-6.5-13.7-11.1-22.2-12.4
				C48.6,123.6,75.7,75.2,81.6,64.9z"/>
		</g>
	</g>
</g>
<g id="Ebene_6" class="st5">
	<g>
		<path d="M59,44.3c-0.2,0-0.3,0.2-0.3,0.3c0,0.1,0,0.2,0,0.3c-0.4,0.1-1,0.4-1.1,0.4c-12.1,4.6-23.1,13.6-32.3,26.5
			c-3.8,5.4-2.5,10.6,1,14.2c-7.8-1.6-14.1-9.7-8.3-18.1c10.5-14.8,23.4-24.4,37.6-28.3c0-0.1,0-0.2,0-0.3c0.1-0.2,0.2-0.3,0.3-0.3
			c16.1-4.2,33.6-1.1,50.6,9.1c0,0,0.1,0,0.1,0c-14.4-6.9-29-8.8-42.7-5.4C63.7,42.9,59.2,44.2,59,44.3z"/>
		<path d="M8.4,194.1c4.4-7.5,11.3-19.7,19.2-33.6c-0.1,0-0.2-0.1-0.2-0.2c-0.1-0.1-0.1-0.3,0-0.5c5.9-10.3,18.6-32.9,25.3-44.7
			c0,0,0,0,0,0c4.1-7.2,8-14.3,11.7-20.8c6.6-11.7,13.3-23.5,16.4-29c2.9,1,4.4,2,7.4,3.8c-2.7,4.7-8.8,15.5-16.4,29.1
			c-1.8,3.2-3.4,6.1-5.3,9.3c0,0,0,0,0,0c-6.7,11.8-24.5,43.5-30.8,54.5c-0.1,0.1-0.1,0.3,0,0.5c0,0.1,0.1,0.2,0.2,0.2
			c-7.9,14-15.8,27.7-20.1,35.2c-3.3,5.7-1.8,11.2,1.8,14.8C9.9,211.3,3.3,203,8.4,194.1z"/>
		<path d="M176.5,47.4c-4.3,6.1-9.1,10.6-14.2,13.5c-3.1,1.7-7.6,3-8.5,3.2c0-0.1-0.1-0.1-0.1-0.2c-0.2-0.1-0.3-0.1-0.5,0
			c-0.6,0.2-0.7,0.2-1,0.2c-9,1.6-18.8-0.6-29.4-7c-0.2-0.1-0.7-0.4-1.2-0.7c11.8,5.5,22.6,5.7,32.2,0.6c0.2-0.1,0.4-0.1,0.5,0
			c0.1,0,0.1,0.1,0.1,0.2c5.3-2.9,10.2-7.5,14.7-13.8c5.6-7.9,15.6-6.5,20.7-1.3C185.2,41.2,180,42.5,176.5,47.4z"/>
		<path d="M72.2,173.5c8.2-5,16.5-10,24.7-15c0,0,0,0,0,0c0.1-0.1,0.2-0.1,0.3-0.2c2.5,1.4,4.8,2.7,6.5,3.8l0,0
			c0.1,0,0.2,0.1,0.2,0.1l0.1,0.1c0.1,0,0.1,0.1,0.2,0.1c-8.3,5-16.5,10-24.8,15c-8.1,4.9-7.1,14.4-2.2,19.8
			C67.1,196,61,180.3,72.2,173.5z"/>
		<path d="M102.7,27.3C102.7,27.3,102.7,27.3,102.7,27.3c0-0.1,0-0.3,0.1-0.5c0.2-1.4,0.6-2.8,1.2-4.1l5.4-12.1
			c3.3-7.5,10.5-7.6,14.3-7c1.4,0.2,2.7,0.6,3.9,1.2l21.3,9.5c0.8,0.4,1.2,0.8,1.4,1.3c0,0,0,0,0,0L135,8.6c-1.2-0.6-2.6-1-3.9-1.2
			c-3.8-0.6-11-0.5-14.3,7l-5.4,12.1c-0.6,1.3-1,2.7-1.2,4.1c0,0.1,0,0.3-0.1,0.5c0,0,0,0,0,0s-2.9,10.8,7.2,18.6
			c-1-0.3-2.1-0.8-3.2-1.3C99.1,40.8,102.7,27.3,102.7,27.3z"/>
	</g>
</g>
<g id="Ebene_8">
	<g>
		<g>
			<g>
				<path class="st6" d="M23.6,119.5c1.8-2.5,3.6-4,5.8-5.5c5.5-3.6,12.8-3.6,19.5,0.4c0.4,0.2,2.1,1.2,2.5,1.4
					c5.8,3.5,11.2,2.8,15.2-2.9c2.6-3.7,8.4-0.4,6.1,3.6c-1.7,3-4.3,6.6-7.4,8.8c-3.9,2.7-9,3.6-13.2,2.3c-3.1-1-4.6-1.5-7.8-2.8
					c-3.3-1.3-6.6-1.5-10.4,2.8c-1.7,1.9-6.2,3.4-9.5,0.6C21.2,125.5,22.4,121.1,23.6,119.5z"/>
			</g>
		</g>
		<path class="st5" d="M23.5,119.5c1.8-2.5,3.6-4,5.8-5.5c5.5-3.6,12.8-3.6,19.5,0.4c0.4,0.2,2.1,1.2,2.5,1.4
			c1.2,0.7,2.3,1.2,3.5,1.6c-7.4-1.9-12.7-3-18.2,0.5c-2.2,1.4-4,2.9-5.8,5.5c-0.8,1.2-1.7,3.8-0.9,6.3c-1.8,0.3-3.8,0-5.6-1.4
			C21.2,125.5,22.4,121.1,23.5,119.5z"/>
	</g>
</g>
</svg>
