<?xml version="1.0" encoding="UTF-8" standalone="no"?>
<!DOCTYPE svg PUBLIC "-//W3C//DTD SVG 1.1//EN" "http://www.w3.org/Graphics/SVG/1.1/DTD/svg11.dtd">
<svg width="100%" height="100%" viewBox="0 0 1182 1182" version="1.1" xmlns="http://www.w3.org/2000/svg" xmlns:xlink="http://www.w3.org/1999/xlink" xml:space="preserve" xmlns:serif="http://www.serif.com/" style="fill-rule:evenodd;clip-rule:evenodd;stroke-linejoin:round;stroke-miterlimit:2;">
    <g id="Ebene_5" transform="matrix(2.98076,0,0,2.98076,283.165,-16.1511)">
        <path d="M127,12.5C136.3,141.8 140.1,175.8 123.8,240.5C131.2,243 142.5,251.3 144.6,255.8C148.7,265.3 150.9,275.7 150.9,286.6C150.9,329.8 115.9,364.8 72.7,364.8C59.6,364.8 47.2,361.6 36.3,355.8C50.1,377.9 74.7,392.6 102.7,392.6C111.7,392.6 120.3,391.1 128.4,388.3C158.2,379.8 183.3,354.1 187.2,312.4C205.2,231.4 177.1,104.6 127,12.5Z" style="fill-opacity:0.1;fill-rule:nonzero;"/>
        <path d="M82.4,13.6C76,102.1 76.6,181.8 85.6,243.1C52.1,247.5 27.6,270.7 24.5,322.9C2,242.6 30.3,109.3 82.4,13.6Z" style="fill-opacity:0.1;fill-rule:nonzero;"/>
    </g>
    <g transform="matrix(2.98076,0,0,2.98076,283.165,-16.1511)">
        <path d="M186.6,333.1C199.7,294.5 200.7,239.6 189.5,178.4C178.7,119.6 157.9,59.7 130.7,9.8C129,6.7 125.4,5.2 122,6.2C118.6,7.2 116.4,10.4 116.6,13.9C122.8,99.4 122.1,174.5 114.8,231.8C112.9,231.6 111.1,231.4 109.2,231.2C108.4,231.1 107.6,231.1 106.9,231.1L106.7,231.1C101.6,230.9 96.5,231.2 91.4,231.9C84.1,175 83.5,100.2 89.7,14.8C90,11.3 87.7,8.1 84.3,7.1C80.9,6.1 77.3,7.6 75.6,10.7C47.2,62.8 25.8,125.2 15.5,186.2C5.6,244.5 7,296 19.3,333.2C19.4,333.4 19.4,333.6 19.4,333.8C19.5,334.2 19.7,334.6 19.9,335C21,338.1 22.1,341.1 23.3,344C29.1,360.5 39.6,374.6 53.6,384.7C61.9,390.9 71.3,395.3 81.6,398C88.6,399.9 95.9,400.9 103.3,400.9C143.3,400.9 178.1,372.6 186.4,333.5C186.5,333.4 186.5,333.2 186.6,333.1ZM103.4,385.9C97.4,385.9 91.4,385.1 85.6,383.5C77.1,381.3 69.4,377.6 62.6,372.6C50.9,364.1 42.2,352.5 37.5,338.8C37.4,338.6 37.4,338.5 37.3,338.3C36,335.3 34.8,332.1 33.7,328.9C30.2,315.7 32.7,296.4 39.5,284.5C41.6,280.9 40.3,276.3 36.7,274.3C33.1,272.2 28.5,273.5 26.5,277.1C25.9,278.2 25.3,279.3 24.7,280.5C22.8,253.5 24.6,222.4 30.3,188.8C38.1,142.5 53.1,94 72.4,51C68.7,123.3 70.1,185.2 76.7,235.5C68.9,238.1 61.2,241.7 53.6,246.5C50.1,248.7 49.1,253.3 51.3,256.8C53.5,260.3 58.1,261.3 61.6,259.1C76.2,249.9 90.9,245.5 106,246C106.4,246 106.9,246 107.3,246.1L107.4,246.1C111.3,246.3 115.3,246.9 119.5,247.9C119.9,248 120.3,248 120.8,248.1C129.7,250.2 138.6,253.9 147.8,259.3C149,260 150.3,260.3 151.6,260.3C154.2,260.3 156.7,259 158.1,256.6C160.2,253 159,248.4 155.4,246.3C146.7,241.2 138.1,237.4 129.6,234.9C136.1,184.9 137.6,121.7 133.9,49.9C152.4,90.8 166.6,136.3 174.8,181C181.5,217.6 183.7,251.6 181.4,280.8C180.8,279.5 180.1,278.2 179.4,277C177.3,273.4 172.8,272.2 169.2,274.2C165.6,276.3 164.4,280.8 166.4,284.4C173.2,296.2 175.6,315.4 172.2,328.6C172.1,328.9 172,329.2 171.9,329.6C165.4,362.3 136.6,385.9 103.4,385.9Z" style="fill:rgb(35,31,32);fill-rule:nonzero;"/>
    </g>
</svg>
