<?xml version="1.0" encoding="utf-8"?>
<!-- Generator: Adobe Illustrator 22.0.0, SVG Export Plug-In . SVG Version: 6.00 Build 0)  -->
<svg version="1.1" id="Layer_1" xmlns="http://www.w3.org/2000/svg" xmlns:xlink="http://www.w3.org/1999/xlink" x="0px" y="0px"
	 viewBox="0 0 60 60" style="enable-background:new 0 0 60 60;" xml:space="preserve">
<style type="text/css">
	.st0{fill:#FDB913;}
	.st1{fill:#E28703;}
</style>
<title></title>
<g id="text">
</g>
<g id="colour_1_">
	<circle class="st0" cx="30" cy="50" r="9" fill-opacity="0.02" stroke-opacity="0.02" />
	<path class="st1" d="M36.4,43.7c-0.9-0.9-1.9-1.5-3-2" fill-opacity="0.02" stroke-opacity="0.02"/>
	<path class="st0" d="M2,1c13,7,24,11,24,41L13,30C13,23,9,10,2,1z" fill-opacity="0.02" stroke-opacity="0.02"/>
	<path class="st0" d="M60,1C47,8,36,12,36,42l13-12C49,23,53,10,60,1z" fill-opacity="0.02" stroke-opacity="0.02"/>
</g>
<g id="Layer_1_2_">
	<path fill-opacity="0.02" stroke-opacity="0.02" d="M59.8,0.4c-0.3-0.4-0.8-0.5-1.2-0.2c-0.7,0.4-1.5,0.8-2.2,1.2C44.5,7.6,34.3,13,34,40.8c-2.6-1.1-5.5-1.1-8,0
		C25.7,13,15.5,7.6,3.7,1.3C3,0.9,2.2,0.5,1.5,0.1C1-0.1,0.4,0,0.1,0.5C-0.1,0.9,0,1.3,0.2,1.6C6.9,10.2,11,23,11,30
		c0,0.3,0.1,0.5,0.3,0.7l12.4,11.5c-4.3,3.5-5,9.7-1.6,14.1s9.7,5,14.1,1.6s5-9.7,1.6-14.1c-0.5-0.6-1-1.1-1.6-1.6l12.4-11.5
		c0.2-0.2,0.3-0.5,0.3-0.7c0-7,4.1-19.8,10.8-28.4C60.1,1.2,60.1,0.7,59.8,0.4z M4.2,3.9C15.1,9.6,23.5,15.1,24,39.7L13,29.6
		C12.9,23,9.6,12.3,4.2,3.9z M36.2,45H23.8c2.7-3.4,7.8-4,11.2-1.3C35.4,44.1,35.9,44.5,36.2,45L36.2,45z M22.1,51h15.9
		c-0.1,0.7-0.3,1.4-0.5,2H22.6C22.3,52.4,22.2,51.7,22.1,51L22.1,51z M22.1,49c0.1-0.7,0.3-1.4,0.5-2h14.8c0.3,0.6,0.4,1.3,0.5,2
		H22.1z M30,58c-2.4,0-4.7-1.1-6.2-3h12.5C34.7,56.9,32.4,58,30,58L30,58z M47,29.6L36,39.7c0.5-24.5,8.9-30.1,19.8-35.8
		C50.4,12.3,47.1,23,47,29.6z"/>
</g>
</svg>
