<?xml version="1.0" encoding="utf-8"?>
<!-- Generator: Adobe Illustrator 22.1.0, SVG Export Plug-In . SVG Version: 6.00 Build 0)  -->
<svg version="1.1" xmlns="http://www.w3.org/2000/svg" xmlns:xlink="http://www.w3.org/1999/xlink" x="0px" y="0px"
	 viewBox="0 0 203.8 407.1" style="enable-background:new 0 0 203.8 407.1;" xml:space="preserve">
<style type="text/css">
	.st0{display:none;}
	.st1{display:inline;fill:#FFFFFF;}
	.st2{display:inline;fill:#FFFFFF;}
	.st3{opacity:0.01;}
	.st4{fill:none;stroke:#DDDDDD;stroke-width:15;stroke-linecap:round;stroke-linejoin:round;stroke-miterlimit:10;}
</style>
<g id="Ebene_2">
</g>
<g id="Ebene_4">
</g>
<g id="Ebene_1" class="st0">
	<circle class="st1" cx="103.8" cy="315.3" r="77.3"/>
	<path class="st2" d="M124.4,12.6c9.3,129.3,13.1,163.3-3.2,228c7.4,2.5,18.7,10.8,20.8,15.3c4.1,9.5,6.3,19.9,6.3,30.8
		c0,43.2-35,78.2-78.2,78.2c-13.1,0-25.5-3.2-36.4-9c13.8,22.1,38.4,36.8,66.4,36.8c9,0,17.6-1.5,25.7-4.3
		c29.8-8.5,54.9-34.2,58.8-75.9C202.6,231.6,174.5,104.7,124.4,12.6z"/>
</g>
<g id="Ebene_5">
	<path class="st3" d="M127,12.5c9.3,129.3,13.1,163.3-3.2,228c7.4,2.5,18.7,10.8,20.8,15.3c4.1,9.5,6.3,19.9,6.3,30.8
		c0,43.2-35,78.2-78.2,78.2c-13.1,0-25.5-3.2-36.4-9c13.8,22.1,38.4,36.8,66.4,36.8c9,0,17.6-1.5,25.7-4.3
		c29.8-8.5,54.9-34.2,58.8-75.9C205.2,231.4,177.1,104.6,127,12.5z"/>
	<path class="st3" d="M82.4,13.6c-6.4,88.5-5.8,168.2,3.2,229.5c-33.5,4.4-58,27.6-61.1,79.8C2,242.6,30.3,109.3,82.4,13.6z"/>
</g>
<g id="Ebene_3">
	<path class="st4" d="M124.1,13.3c6.3,87.5,5.8,166.3-2.9,227.3c-5.7-1.3-11.6-2.1-17.7-2.1c-6.4,0-12.6,0.8-18.5,2.2
		c-8.7-60.9-9.1-139.4-2.8-226.5C26,117.4-2.5,264.1,30.4,341.3c5.3,15.2,15.1,28.2,27.8,37.4c7.4,5.5,15.9,9.6,25.5,12.1
		c6.3,1.7,12.9,2.6,19.7,2.6c37.5,0,68.8-26.7,75.9-62.2C206.5,251.9,178,112.5,124.1,13.3z"/>
	<path class="st4" d="M57.6,252.8c30.4-19.2,61.8-18.8,94,0"/>
	<path class="st4" d="M26.7,331.7c-4.4-15.4-1.6-37.1,6.3-50.9"/>
	<path class="st4" d="M179.2,331.7c4.4-15.4,1.6-37.1-6.3-50.9"/>
</g>
</svg>
