<?xml version="1.0" encoding="utf-8"?>
<!-- Generator: Adobe Illustrator 22.1.0, SVG Export Plug-In . SVG Version: 6.00 Build 0)  -->
<svg version="1.1" id="Ebene_1" xmlns="http://www.w3.org/2000/svg" xmlns:xlink="http://www.w3.org/1999/xlink" x="0px" y="0px"
	 viewBox="0 0 537 539.5" style="enable-background:new 0 0 537 539.5;" xml:space="preserve">
<style type="text/css">
	.st0{fill:#2C06FF;stroke:#231F20;stroke-width:15;stroke-miterlimit:10;}
	.st1{opacity:0.1;enable-background:new    ;}
	.st2{fill:#FFCF04;}
	.st3{fill:#FFDF05;}
	.st4{fill:#231F20;}
</style>
<g id="Ebene_4">
	<circle class="st0" cx="265.8" cy="264.3" r="242.6"/>
	<path class="st1" d="M412.5,177.5c0,134-108.6,242.6-242.6,242.6c-40.7,0-79.1-10.1-112.8-27.8c42.8,68.7,119,114.3,205.8,114.3
		c134,0,242.6-108.6,242.6-242.6c0-93.3-52.6-174.2-129.8-214.8C399,86.4,412.5,130.4,412.5,177.5z"/>
</g>
<g id="Ebene_1_1_">
	<path class="st2" d="M191.3,403.5c-3.4-8.7-5.3-18.1-5.3-28c0-35.9,24.5-66,57.6-74.8c-8.6-60.9-9.1-139.3-2.7-226.4
		c-56.8,104.3-85.3,253.2-50.6,329.6C190.6,403.8,191,403.7,191.3,403.5z"/>
	<circle class="st3" cx="262.2" cy="376" r="77.3"/>
	<path class="st2" d="M282.8,73.4c9.3,129.3,13.1,163.3-3.2,228c7.4,2.5,18.7,10.8,20.8,15.3c4.1,9.5,6.3,19.9,6.3,30.8
		c0,43.2-35,78.2-78.2,78.2c-13.1,0-25.5-3.2-36.4-9c13.8,22.1,38.4,36.8,66.4,36.8c9,0,17.6-1.5,25.7-4.3
		c29.8-8.5,54.9-34.2,58.8-75.9C361,292.3,332.9,165.5,282.8,73.4z"/>
</g>
<path class="st4" d="M348,239.1c-10.8-58.8-31.6-118.7-58.8-168.6c-1.7-3.1-5.3-4.6-8.7-3.6c-3.4,1-5.6,4.2-5.4,7.7
	c6.2,85.5,5.5,160.6-1.8,217.9c-1.9-0.2-3.7-0.4-5.6-0.6c-0.8-0.1-1.6-0.1-2.4-0.1h-0.1c-5.1-0.2-10.2,0.1-15.4,0.8
	c-7.3-56.9-7.9-131.7-1.7-217.1c0.3-3.5-2-6.7-5.4-7.7s-7,0.5-8.7,3.6c-28.4,52.1-49.7,114.5-60,175.5c-9.7,57.3-8.5,108,3.3,145.1
	c0.2,0.9,0.4,1.7,0.6,2.5c0.2,0.6,0.5,1.2,0.8,1.8c1,2.9,2.1,5.7,3.2,8.4c5.8,16.5,16.3,30.6,30.3,40.7c8.3,6.2,17.7,10.6,28,13.3
	c7,1.9,14.3,2.9,21.7,2.9c40.2,0,75.1-28.5,83.2-67.7C358.2,355.3,359.2,300.4,348,239.1z M262,446.6c-6,0-12-0.8-17.8-2.4
	c-8.5-2.2-16.2-5.9-23-10.9c-11.7-8.5-20.4-20.1-25.1-33.8c-0.1-0.2-0.1-0.3-0.2-0.5c-1.5-3.5-2.8-7.1-4.1-10.9
	c-2.9-13.1-0.3-31.4,6.2-42.8c2.1-3.6,0.8-8.2-2.8-10.2c-3.6-2.1-8.2-0.8-10.2,2.8c-0.6,1-1.1,2.1-1.7,3.2
	c-1.9-27-0.1-58.1,5.6-91.6c7.8-46.2,22.7-94.7,42-137.7c-3.7,72.3-2.3,134.2,4.3,184.5c-7.8,2.6-15.5,6.2-23.1,11
	c-3.5,2.2-4.5,6.8-2.3,10.3s6.8,4.5,10.3,2.3c14.6-9.2,29.3-13.6,44.4-13.1c0.4,0,0.9,0,1.3,0.1h0.1c3.9,0.2,7.9,0.8,12.1,1.8
	c0.4,0.1,0.8,0.1,1.3,0.2c8.9,2.1,17.8,5.8,27,11.2c1.2,0.7,2.5,1,3.8,1c2.6,0,5.1-1.3,6.5-3.7c2.1-3.6,0.9-8.2-2.7-10.3
	c-8.7-5.1-17.3-8.9-25.8-11.4c6.5-50,8-113.2,4.3-185c18.4,40.9,32.6,86.3,40.8,131.1c6.7,36.6,8.9,70.6,6.7,99.9
	c-0.6-1.3-1.3-2.6-2-3.8c-2.1-3.6-6.6-4.8-10.2-2.8c-3.6,2.1-4.8,6.6-2.8,10.2c6.9,12.1,9.4,31.9,5.6,45.1c-0.1,0.5-0.2,0.9-0.3,1.4
	C323.2,423.7,294.7,446.6,262,446.6z"/>
</svg>
