<?xml version="1.0" encoding="utf-8"?>
<!-- Generator: Adobe Illustrator 22.1.0, SVG Export Plug-In . SVG Version: 6.00 Build 0)  -->
<svg version="1.1" xmlns="http://www.w3.org/2000/svg" xmlns:xlink="http://www.w3.org/1999/xlink" x="0px" y="0px"
	 viewBox="0 0 537 539.5" style="enable-background:new 0 0 537 539.5;" xml:space="preserve">
<style type="text/css">
	.st0{fill:#1C00B2;stroke:#000000;stroke-width:15;stroke-miterlimit:10;}
	.st1{opacity:0.1;}
	.st2{display:none;}
	.st3{display:inline;fill:#2C06FF;stroke:#000000;stroke-width:15;stroke-miterlimit:10;}
	.st4{display:inline;opacity:0.1;}
	.st5{fill:#FFCF04;}
	.st6{fill:#FFDF05;}
	.st7{fill:none;stroke:#000000;stroke-width:15;stroke-linecap:round;stroke-linejoin:round;stroke-miterlimit:10;}
</style>
<g id="Ebene_2">
	<circle class="st0" cx="265.6" cy="264.6" r="242.6"/>
	<path class="st1" d="M117.8,350.6c0-134,108.6-242.6,242.6-242.6c40.7,0,79.1,10.1,112.8,27.8C430.4,67.1,354.2,21.5,267.4,21.5
		c-134,0-242.6,108.6-242.6,242.6c0,93.3,52.6,174.2,129.8,214.8C131.3,441.7,117.8,397.7,117.8,350.6z"/>
</g>
<g id="Ebene_4" class="st2">
	<circle class="st3" cx="265.8" cy="264.3" r="242.6"/>
	<path class="st4" d="M412.5,177.5c0,134-108.6,242.6-242.6,242.6c-40.7,0-79.1-10.1-112.8-27.8C99.9,461,176.1,506.6,262.9,506.6
		c134,0,242.6-108.6,242.6-242.6c0-93.3-52.6-174.2-129.8-214.8C399,86.4,412.5,130.4,412.5,177.5z"/>
</g>
<g id="Ebene_1">
	<path class="st5" d="M240.9,74.4C231.5,203.7,237,314,262.2,376v77.3C137.6,451,161.9,219.5,240.9,74.4z"/>
	<circle class="st6" cx="262.2" cy="376" r="77.3"/>
	<path class="st5" d="M282.8,73.4c9.3,129.3,13.1,163.3-3.2,228c7.4,2.5,18.7,10.8,20.8,15.3c4.1,9.5,6.3,19.9,6.3,30.8
		c0,43.2-35,78.2-78.2,78.2c-13.1,0-25.5-3.2-36.4-9c13.8,22.1,38.4,36.8,66.4,36.8c9,0,17.6-1.5,25.7-4.3
		c29.8-8.5,54.9-34.2,58.8-75.9C361,292.3,332.9,165.5,282.8,73.4z"/>
</g>
<g id="Ebene_3">
	<path class="st7" d="M282.6,74.1c6.3,87.5,5.8,166.3-2.9,227.3c-5.7-1.3-11.6-2.1-17.7-2.1c-6.4,0-12.6,0.8-18.5,2.2
		c-8.7-60.9-9.1-139.4-2.8-226.5c-56.1,103.1-84.6,249.8-51.7,327c5.3,15.2,15.1,28.2,27.8,37.4c7.4,5.5,15.9,9.6,25.5,12.1
		c6.3,1.7,12.9,2.6,19.7,2.6c37.5,0,68.8-26.7,75.9-62.2C364.9,312.7,336.5,173.3,282.6,74.1z"/>
	<path class="st7" d="M216.1,313.6c30.4-19.2,61.8-18.8,94,0"/>
	<path class="st7" d="M185.2,392.5c-4.4-15.4-1.6-37.1,6.3-50.9"/>
	<path class="st7" d="M337.7,392.5c4.4-15.4,1.6-37.1-6.3-50.9"/>
</g>
</svg>
