<?xml version="1.0" encoding="utf-8"?>
<!-- Generator: Adobe Illustrator 22.1.0, SVG Export Plug-In . SVG Version: 6.00 Build 0)  -->
<svg version="1.1" id="Ebene_1" xmlns="http://www.w3.org/2000/svg" xmlns:xlink="http://www.w3.org/1999/xlink" x="0px" y="0px"
	 viewBox="0 0 203.8 407.1" style="enable-background:new 0 0 203.8 407.1;" xml:space="preserve">
<style type="text/css">
	.st0{fill:#FFCF04;}
	.st1{fill:#FFDF05;}
	.st2{fill:#231F20;}
</style>
<g id="Ebene_1_1_">
	<path class="st0" d="M27,315.6c0-36.1,24.8-66.5,58.3-74.9c-8.7-61-9.2-139.7-2.9-227.1C24.5,120.1-4,273.1,34,347.9
		C29.5,338.1,27,327.1,27,315.6z"/>
	<circle class="st1" cx="103.8" cy="315.3" r="77.3"/>
	<path class="st0" d="M124.4,12.6c9.3,129.3,13.1,163.3-3.2,228c7.4,2.5,18.7,10.8,20.8,15.3c4.1,9.5,6.3,19.9,6.3,30.8
		c0,43.2-35,78.2-78.2,78.2c-13.1,0-25.5-3.2-36.4-9c13.8,22.1,38.4,36.8,66.4,36.8c9,0,17.6-1.5,25.7-4.3
		c29.8-8.5,54.9-34.2,58.8-75.9C202.6,231.6,174.5,104.7,124.4,12.6z"/>
</g>
<path class="st2" d="M186.6,333.1c13.1-38.6,14.1-93.5,2.9-154.7c-10.8-58.8-31.6-118.7-58.8-168.6c-1.7-3.1-5.3-4.6-8.7-3.6
	c-3.4,1-5.6,4.2-5.4,7.7c6.2,85.5,5.5,160.6-1.8,217.9c-1.9-0.2-3.7-0.4-5.6-0.6c-0.8-0.1-1.6-0.1-2.3-0.1c-0.1,0-0.1,0-0.2,0
	c-5.1-0.2-10.2,0.1-15.3,0.8c-7.3-56.9-7.9-131.7-1.7-217.1c0.3-3.5-2-6.7-5.4-7.7c-3.4-1-7,0.5-8.7,3.6
	C47.2,62.8,25.8,125.2,15.5,186.2C5.6,244.5,7,296,19.3,333.2c0.1,0.2,0.1,0.4,0.1,0.6c0.1,0.4,0.3,0.8,0.5,1.2
	c1.1,3.1,2.2,6.1,3.4,9c5.8,16.5,16.3,30.6,30.3,40.7c8.3,6.2,17.7,10.6,28,13.3c7,1.9,14.3,2.9,21.7,2.9c40,0,74.8-28.3,83.1-67.4
	C186.5,333.4,186.5,333.2,186.6,333.1z M103.4,385.9c-6,0-12-0.8-17.8-2.4c-8.5-2.2-16.2-5.9-23-10.9c-11.7-8.5-20.4-20.1-25.1-33.8
	c-0.1-0.2-0.1-0.3-0.2-0.5c-1.3-3-2.5-6.2-3.6-9.4c-3.5-13.2-1-32.5,5.8-44.4c2.1-3.6,0.8-8.2-2.8-10.2c-3.6-2.1-8.2-0.8-10.2,2.8
	c-0.6,1.1-1.2,2.2-1.8,3.4c-1.9-27-0.1-58.1,5.6-91.7c7.8-46.3,22.8-94.8,42.1-137.8c-3.7,72.3-2.3,134.2,4.3,184.5
	c-7.8,2.6-15.5,6.2-23.1,11c-3.5,2.2-4.5,6.8-2.3,10.3c2.2,3.5,6.8,4.5,10.3,2.3c14.6-9.2,29.3-13.6,44.4-13.1c0.4,0,0.9,0,1.3,0.1
	c0,0,0.1,0,0.1,0c3.9,0.2,7.9,0.8,12.1,1.8c0.4,0.1,0.8,0.1,1.3,0.2c8.9,2.1,17.8,5.8,27,11.2c1.2,0.7,2.5,1,3.8,1
	c2.6,0,5.1-1.3,6.5-3.7c2.1-3.6,0.9-8.2-2.7-10.3c-8.7-5.1-17.3-8.9-25.8-11.4c6.5-50,8-113.2,4.3-185
	c18.5,40.9,32.7,86.4,40.9,131.1c6.7,36.6,8.9,70.6,6.6,99.8c-0.6-1.3-1.3-2.6-2-3.8c-2.1-3.6-6.6-4.8-10.2-2.8
	c-3.6,2.1-4.8,6.6-2.8,10.2c6.8,11.8,9.2,31,5.8,44.2c0,0,0,0,0,0c-0.1,0.3-0.2,0.6-0.3,1C165.4,362.3,136.6,385.9,103.4,385.9z"/>
</svg>
