<?xml version="1.0" encoding="utf-8"?>
<!-- Generator: Adobe Illustrator 22.1.0, SVG Export Plug-In . SVG Version: 6.00 Build 0)  -->
<svg version="1.1" id="Ebene_1" xmlns="http://www.w3.org/2000/svg" xmlns:xlink="http://www.w3.org/1999/xlink" x="0px" y="0px"
	 viewBox="0 0 297 297" style="enable-background:new 0 0 297 297;" xml:space="preserve">
<style type="text/css">
	.st0{fill:#F9D18A;}
	.st1{fill:#231F20;}
</style>
<path class="st0" d="M261,10H136.9c-24.7,0-49.1,3.9-72.3,11.7L36,31.3c-6.2,2.2-9.2,8-8,15.2c1.8,3.5,8.9,6.4,13.2,5.2l29.1-7.3
	c10.2-2.5,19.8-3.7,29.4-3.7H147h0.1c1.8,0,3.3,0.1,4.9,0.1c3.9,0.1,7.6,0.3,14.5,0.2c2.8,0,5,2.2,5,5s-2.2,5-5,5.1
	c-13,0.1-25.4,0-27,0l-9,0.6c-7.9,1-19.6,2.6-21.1,8.1c0.1,1.5,0.7,2.2,1.2,2.7c2,1.8,7.9,3.5,24.4,1.7c0,0,0,0,0.1,0
	c2-0.1,4-0.2,6-0.2c8.4,0,16.2,1.6,23.8,3.2c2.5,0.5,4.8,1,7.1,1.4c13.5,2.7,24.9,2.5,38-0.5c0.1,0,0.1,0,0.2,0
	c0.1,0,12.4-2.4,19-7.8c10.5-8.4,20.9-7,27.8-4.3c0.2,0.1,0.3,0.1,0.5,0.2c2.6,1.3,5.5,1.2,8-0.3s3.9-4.1,3.9-7.1V18.4
	C269.4,13.8,265.7,10,261,10z"/>
<path class="st0" d="M136.2,74.4c-0.4,0-0.7,0.1-1.1,0.1l-2.5,7.5c-7.8,23.3-11.7,47.6-11.7,72.3v124.2c0,4.6,3.8,8.4,8.4,8.4h30.5
	c3,0,5.5-1.4,7.1-3.9c1.5-2.5,1.6-5.4,0.3-8c-0.1-0.2-0.2-0.3-0.2-0.5c-2.7-6.9-4.1-17.4,4.3-27.8c4.4-5.5,7.1-15.6,7.8-19
	c0-0.1,0-0.1,0-0.2c3-13.2,3.1-24.5,0.5-38c-0.4-2.4-0.9-4.7-1.4-7.2c-1.9-9.4-3.9-19.1-2.9-29.8c1.8-16.6,0.1-22.4-1.7-24.5
	c-0.5-0.5-1.1-1.1-2.7-1.2c-5.5,1.5-7.1,13.3-8.1,21.1v0.2l-0.6,8.8c0,1.7,0.1,14.1,0,27.1c0,2.8-2.3,5.1-5.1,5c-2.8,0-5-2.3-5-5
	c0-6.9-0.1-10.6-0.2-14.5c-0.1-1.5-0.1-3.1-0.1-4.9v-47.4c0-9.6,1.2-19.2,3.7-29.4l2.9-11.6C151.2,74.8,143.7,73.7,136.2,74.4z"/>
<path class="st1" d="M261.1,0H136.9c-25.8,0-51.2,4.1-75.5,12.4L32.8,22c-11.1,3.9-16.9,14.9-14.4,27.2c0.1,0.3,0.2,0.6,0.3,0.9
	c3,7.5,15,14.3,25.3,11.6l29-7.3c9.4-2.3,18.2-3.4,27-3.4h3.5c-2,2.1-3.4,4.7-3.9,7.9c-0.1,0.3-0.1,0.6-0.1,0.9
	c0.1,4.3,1.6,7.9,4.6,10.5c4,3.5,10.3,5.1,20.2,4.9l-1.2,3.7c-8.1,24.3-12.2,49.7-12.2,75.5v124.2c0,10.1,8.2,18.4,18.4,18.4h30.5
	c6.4,0,12.3-3.3,15.6-8.8c3.3-5.3,3.6-11.9,0.8-17.5c-3.3-8.6,0-14.2,2.8-17.7c6.1-7.7,9-19.6,9.7-23.3c3.4-14.6,3.5-27.2,0.6-42.1
	c-0.5-2.4-1-4.9-1.5-7.3c-1.7-8.7-3.6-17.6-2.7-26.7c1.9-17.1,0.7-26.7-4.1-32.1c-2.6-2.9-6.1-4.5-10.5-4.6c-0.3,0-0.6,0-0.9,0.1
	c-3.3,0.5-5.8,1.9-7.9,3.9v-3.5c0-8.8,1.1-17.6,3.4-26.9l3.1-12.3c0.6,0.1,1.3,0.2,1.9,0.3c7,1.4,13.5,2.1,20,2.1
	c7.2,0,14.4-0.9,22.1-2.7c1.8-0.4,15-3.2,23.3-9.8c3.5-2.7,9.1-6.1,17.7-2.8c5.6,2.8,12.1,2.5,17.5-0.8c5.5-3.3,8.8-9.2,8.8-15.6
	V18.4C279.5,8.3,271.3,0,261.1,0z M162.2,184c0.1-13,0-25.4,0-27.1l0.6-8.8v-0.2c1-7.8,2.6-19.6,8.1-21.1c1.6,0.1,2.2,0.7,2.7,1.2
	c1.8,2.1,3.5,7.9,1.7,24.5c-1,10.7,1,20.4,2.9,29.8c0.5,2.5,1,4.8,1.4,7.2c2.6,13.5,2.5,24.8-0.5,38c0,0.1,0,0.1,0,0.2
	c-0.7,3.4-3.4,13.5-7.8,19c-8.4,10.4-7,20.9-4.3,27.8c0,0.2,0.1,0.3,0.2,0.5c1.3,2.6,1.2,5.5-0.3,8c-1.6,2.5-4.1,3.9-7.1,3.9h-30.5
	c-4.6,0-8.4-3.8-8.4-8.4V154.3c0-24.7,3.9-49,11.7-72.3l2.5-7.5c0.4,0,0.7-0.1,1.1-0.1c7.5-0.7,15,0.4,22.2,1.8l-2.9,11.6
	c-2.5,10.2-3.7,19.8-3.7,29.4v47.4c0,1.8,0,3.4,0.1,4.9c0.1,3.9,0.2,7.6,0.2,14.5c0,2.7,2.2,5,5,5
	C159.9,189.1,162.2,186.8,162.2,184z M269.4,48.8c0,3-1.4,5.6-3.9,7.1s-5.4,1.6-8,0.3c-0.2-0.1-0.3-0.1-0.5-0.2
	c-6.9-2.7-17.3-4.1-27.8,4.3c-6.6,5.4-18.9,7.8-19,7.8s-0.1,0-0.2,0c-13.1,3-24.5,3.2-38,0.5c-2.3-0.4-4.6-0.9-7.1-1.4
	c-7.6-1.6-15.4-3.2-23.8-3.2c-2,0-4,0.1-6,0.2c-0.1,0-0.1,0-0.1,0c-16.5,1.8-22.4,0.1-24.4-1.7c-0.5-0.5-1.1-1.2-1.2-2.7
	c1.5-5.5,13.2-7.1,21.1-8.1l9-0.6c1.6,0,14,0.1,27,0c2.8-0.1,5-2.3,5-5.1s-2.2-5-5-5c-6.9,0.1-10.6-0.1-14.5-0.2
	c-1.6,0-3.1-0.1-4.9-0.1H147H99.7c-9.6,0-19.2,1.2-29.4,3.7l-29.1,7.3C36.9,52.9,29.8,50,28,46.5c-1.2-7.2,1.8-13,8-15.2l28.6-9.6
	C87.8,13.9,112.2,10,136.9,10H261c4.7,0,8.4,3.8,8.4,8.4V48.8z"/>
</svg>
