<?xml version="1.0" encoding="iso-8859-1"?>
<!-- Generator: Adobe Illustrator 18.0.0, SVG Export Plug-In . SVG Version: 6.00 Build 0)  -->
<!DOCTYPE svg PUBLIC "-//W3C//DTD SVG 1.1//EN" "http://www.w3.org/Graphics/SVG/1.1/DTD/svg11.dtd">
<svg version="1.1" id="Capa_1" xmlns="http://www.w3.org/2000/svg" xmlns:xlink="http://www.w3.org/1999/xlink" x="0px" y="0px"
	 viewBox="0 0 297 297" style="enable-background:new 0 0 297 297;" xml:space="preserve">
<g>
	<path d="M252.066,0H129.165c-22.022,0-43.9,3.55-64.792,10.514l-21.635,7.212c-7.393,2.464-10.89,10.906-7.405,17.876
		c2.684,5.369,8.737,8.153,14.56,6.697l23.377-5.844c7.603-1.901,15.411-2.862,23.248-2.862h39.264c3.822,0,6.921,3.098,6.921,6.921
		c0,2.621-1.481,5.018-3.826,6.19l-29.302,14.651c-6.442,3.221-9.053,11.054-5.832,17.495l0,0c3.033,6.066,10.21,8.795,16.507,6.276
		l68.963-25.616c6.246-2.32,11.917-5.96,16.629-10.671c2.525-2.525,6.155-3.604,9.649-2.867l34.315,7.232
		c6.811,1.436,13.217-3.761,13.217-10.722V10.957C263.024,4.906,258.118,0,252.066,0z"/>
	<path d="M195.557,160.18c-6.442-3.221-14.275-0.61-17.496,5.832l-14.651,29.302c-1.172,2.345-3.569,3.826-6.19,3.826
		c-3.822,0-6.92-3.098-6.92-6.921v-39.264c0-7.837,0.961-15.645,2.862-23.248l6.977-27.91c1.379-5.516-2.145-10.028-7.83-10.028l0,0
		c-6.97-3.485-15.412,0.011-17.876,7.405l-7.843,23.529c-6.546,19.638-9.883,40.202-9.883,60.902v102.438
		c0,6.051,4.906,10.957,10.957,10.957h25.23c8.161,0,13.458-8.603,9.784-15.89c-3.842-9.719,0.342-16.307,2.867-18.832
		c4.711-4.711,8.351-10.383,10.671-16.629l25.616-68.963C204.351,170.389,201.623,163.213,195.557,160.18z"/>
</g>
<g>
</g>
<g>
</g>
<g>
</g>
<g>
</g>
<g>
</g>
<g>
</g>
<g>
</g>
<g>
</g>
<g>
</g>
<g>
</g>
<g>
</g>
<g>
</g>
<g>
</g>
<g>
</g>
<g>
</g>
</svg>
