<?xml version="1.0" encoding="utf-8"?>
<!-- Generator: Adobe Illustrator 22.0.0, SVG Export Plug-In . SVG Version: 6.00 Build 0)  -->
<svg version="1.1" id="Capa_1" xmlns="http://www.w3.org/2000/svg" xmlns:xlink="http://www.w3.org/1999/xlink" x="0px" y="0px"
	 viewBox="0 0 297 297" style="enable-background:new 0 0 297 297;" xml:space="preserve">
<style type="text/css">
	.st0{fill:#FFFFFF;stroke:#000000;stroke-width:8;stroke-miterlimit:10;}
</style>
<g>
	<path class="st0" d="M246.3,5.2H127.8c-21.2,0-42.4,3.3-62.5,10.1l-20.8,7c-7.2,2.5-10.5,10.5-7.2,17.3c2.6,5.2,8.4,7.9,14.1,6.5
		L74,40.5c7.4-1.9,14.8-2.8,22.4-2.8h37.9c3.6,0,6,0,6,3.6c0,2.6-2.6,3.3-4.9,4.5l-26.1,6.5c-6.2,3-9.1,9.2-6.1,15.5l0,0
		c4.9,3.9,9.1,4.3,16.1,3.3l65.1-11.4c6-2.3,13-2.8,17.5-7.5c2.5-2.5,6-3.4,9.2-2.8l33.1,7c6.6,1.4,12.8-3.6,12.8-10.3V15.8
		C256.9,10,252.1,5.2,246.3,5.2z"/>
	<path class="st0" d="M175.6,164.5c-7.1-0.9-11.3,9.8-14.3,15.9l-4.2,12.7c-0.4,2.6-0.9,3.8-3.7,4.1c-3.1,0.3-5.2-3.5-5.2-6.8v-37.6
		c0-7.6,1-15,2.8-22.4l5.8-23.1c1.4-5.3-1.8-13.4-6.8-15.4l0,0c-7.8-1.6-14.6,1.9-17.1,8.9l-7.6,22.7c-6.3,18.9-9.5,38.8-9.5,58.8
		v98.8c0,5.9,4.7,10.6,10.6,10.6h24.3c7.9,0,13-8.3,9.4-15.3c-3.6-9.3,0.3-15.7,2.8-18.2c4.5-4.5,5.7-9.5,8-15.5l12-60.4
		C184.4,175.6,182.4,165.3,175.6,164.5z"/>
</g>
</svg>
