<?xml version="1.0" encoding="utf-8"?>
<svg version="1.1" id="Ebene_1" xmlns="http://www.w3.org/2000/svg" xmlns:xlink="http://www.w3.org/1999/xlink" x="0px" y="0px"
	 viewBox="0 0 400.6 295.9" style="enable-background:new 0 0 400.6 295.9;" xml:space="preserve">
<style type="text/css">
	.st0{fill:#020203;}
	.st1{fill:#FFFFFF;}
</style>
<g>
	<path class="st0" d="M0.2,32v219.3h400.1V32H0.2z M201.7,34.6h71.1v214.2h-71.1L201.7,34.6L201.7,34.6z M199.2,248.8H130V34.6h69.2
		V248.8z M2.7,34.6h88.2v0.8h2.5v-0.8h34v214.2H93.3v-1.2h-2.5v1.3H2.7V34.6z M397.7,248.8h-86.9v-1h-2.5v1h-32.9V34.6h32.9v1h2.5
		v-1h86.8L397.7,248.8L397.7,248.8z"/>
	<rect x="308.3" y="61.5" class="st0" width="2.5" height="5.2"/>
	<rect x="308.3" y="71.8" class="st0" width="2.5" height="5.2"/>
	<rect x="308.3" y="82.2" class="st0" width="2.5" height="5.2"/>
	<rect x="308.3" y="102.9" class="st0" width="2.5" height="5.2"/>
	<rect x="308.3" y="92.5" class="st0" width="2.5" height="5.2"/>
	<rect x="308.3" y="51.1" class="st0" width="2.5" height="5.2"/>
	<rect x="308.3" y="165" class="st0" width="2.5" height="5.2"/>
	<rect x="308.3" y="40.8" class="st0" width="2.5" height="5.2"/>
	<rect x="308.3" y="206.4" class="st0" width="2.5" height="5.2"/>
	<rect x="308.3" y="216.8" class="st0" width="2.5" height="5.2"/>
	<rect x="308.3" y="185.7" class="st0" width="2.5" height="5.2"/>
	<rect x="308.3" y="196.1" class="st0" width="2.5" height="5.2"/>
	<rect x="308.3" y="113.3" class="st0" width="2.5" height="5.2"/>
	<rect x="308.3" y="175.4" class="st0" width="2.5" height="5.2"/>
	<rect x="308.3" y="237.5" class="st0" width="2.5" height="5.2"/>
	<path class="st0" d="M308.3,134v4.3c-1.4,0.5-2.3,1.8-2.3,3.3c0,1.5,0.9,2.8,2.3,3.3v4.5h2.5v-4.5c1.4-0.5,2.3-1.8,2.3-3.3
		s-0.9-2.8-2.3-3.3V134C310.8,134,308.3,134,308.3,134z"/>
	<rect x="308.3" y="227.1" class="st0" width="2.5" height="5.2"/>
	<rect x="90.9" y="175.1" class="st0" width="2.5" height="5.2"/>
	<rect x="90.9" y="40.5" class="st0" width="2.5" height="5.2"/>
	<rect x="90.9" y="185.5" class="st0" width="2.5" height="5.2"/>
	<rect x="90.9" y="50.9" class="st0" width="2.5" height="5.2"/>
	<rect x="90.9" y="164.8" class="st0" width="2.5" height="5.2"/>
	<rect x="90.9" y="226.9" class="st0" width="2.5" height="5.2"/>
	<rect x="90.9" y="237.2" class="st0" width="2.5" height="5.2"/>
	<rect x="90.9" y="216.5" class="st0" width="2.5" height="5.2"/>
	<rect x="90.9" y="195.8" class="st0" width="2.5" height="5.2"/>
	<rect x="90.9" y="206.2" class="st0" width="2.5" height="5.2"/>
	<rect x="90.9" y="102.6" class="st0" width="2.5" height="5.2"/>
	<rect x="90.9" y="92.3" class="st0" width="2.5" height="5.2"/>
	<rect x="90.9" y="61.2" class="st0" width="2.5" height="5.2"/>
	<rect x="90.9" y="113" class="st0" width="2.5" height="5.2"/>
	<rect x="90.9" y="81.9" class="st0" width="2.5" height="5.2"/>
	<rect x="90.9" y="71.6" class="st0" width="2.5" height="5.2"/>
	<path class="st0" d="M90.9,145v4.2h2.5V145c1.4-0.5,2.3-1.8,2.3-3.3s-0.9-2.8-2.3-3.3v-4.6h-2.5v4.6c-1.4,0.5-2.3,1.8-2.3,3.3
		S89.5,144.5,90.9,145z"/>
	<circle class="st0" cx="310.3" cy="157" r="3.6"/>
	<path class="st0" d="M309.8,123.1c-2,0-3.6,1.6-3.6,3.6s1.6,3.6,3.6,3.6s3.6-1.6,3.6-3.6S311.9,123.1,309.8,123.1z"/>
	<path class="st0" d="M92.4,160c2,0,3.6-1.6,3.6-3.6s-1.6-3.6-3.6-3.6c-2,0-3.6,1.6-3.6,3.6S90.4,160,92.4,160z"/>
	<path class="st0" d="M92.4,129.8c2,0,3.6-1.6,3.6-3.6s-1.6-3.6-3.6-3.6c-2,0-3.6,1.6-3.6,3.6S90.4,129.8,92.4,129.8z"/>
</g>
<g>
	<rect x="142.5" y="279.4" class="st0" width="116.8" height="16"/>
	<g>
		<path class="st1" d="M190.2,287.5l-2.7-4c-0.1-0.2,0-0.3,0.2-0.3h1.2c0.1,0,0.2,0.1,0.2,0.1l1.9,2.8l1.9-2.8c0,0,0.1-0.1,0.2-0.1
			h1.2c0.2,0,0.3,0.2,0.2,0.3l-2.8,4v3.8c0,0.1-0.1,0.2-0.2,0.2h-1.1c-0.1,0-0.2-0.1-0.2-0.2V287.5z"/>
		<path class="st1" d="M199,283.1c2.4,0,4.3,1.9,4.3,4.3s-1.9,4.3-4.3,4.3c-2.4,0-4.3-1.9-4.3-4.3S196.6,283.1,199,283.1z
			 M199,290.1c1.5,0,2.8-1.2,2.8-2.7c0-1.5-1.2-2.8-2.8-2.8s-2.7,1.3-2.7,2.8C196.2,288.9,197.5,290.1,199,290.1z"/>
		<path class="st1" d="M204.8,283.4c0-0.1,0.1-0.2,0.2-0.2h1.1c0.1,0,0.2,0.1,0.2,0.2v5c0,1,0.7,1.7,1.7,1.7c1,0,1.8-0.7,1.8-1.7v-5
			c0-0.1,0.1-0.2,0.2-0.2h1.1c0.1,0,0.2,0.1,0.2,0.2v5.1c0,1.8-1.5,3.2-3.3,3.2c-1.9,0-3.3-1.4-3.3-3.2V283.4z"/>
	</g>
</g>
</svg>
