<?xml version="1.0" encoding="utf-8"?>
<svg version="1.1" id="Layer_1" xmlns="http://www.w3.org/2000/svg" xmlns:xlink="http://www.w3.org/1999/xlink" x="0px" y="0px"
	 viewBox="0 0 512 512" style="enable-background:new 0 0 512 512;" xml:space="preserve">
<style type="text/css">
	.st0{fill:#F7CB4F;}
	.st1{fill:#FBAB00;}
</style>
<g transform="translate(-72.851 -60.3)">
	<g transform="translate(72.851 119.935)">
		<path class="st0" d="M128.9,440.2c-10.2,0-20.1-3.2-28.4-9.1c-15-10.7-22.5-29-19.2-47.1l20.1-116.6L16.8,185
			c-19.1-18.5-19.6-49.1-1.1-68.2c7.4-7.6,17.1-12.6,27.6-14.2l117.1-16.9l52.1-106.1c8-16.4,24.7-26.9,43-27
			c18.4-0.1,35.1,10.4,43,27l52.1,106.1l117.1,16.9c26.3,3.9,44.6,28.4,40.7,54.7c-1.5,10.5-6.5,20.2-14.2,27.6l-84.6,82.3
			L429.8,384c3.3,18.1-4.2,36.5-19.2,47.1c-8.3,5.9-18.2,9.1-28.4,9.1l0,0c-7.8,0-15.5-1.9-22.4-5.5l-104.7-54.9l-104.7,54.9
			C143.8,438.5,136.4,440.4,128.9,440.2z"/>
		<path class="st1" d="M325.1,259.1l24.2,141.3l5.9,31.8l13.7,6.3c14.3,3.3,26.5,2.9,41.7-7.4c20.4-14.6,20.8-37.6,19.2-47.1
			l-20.1-116.6L498,181c1.9-3.3,9.7-9.7,10.9-28.5c1.2-32.5-26.5-48.7-41.1-49.8l0,0L333.3,233.5C326.4,240,323.3,249.7,325.1,259.1
			z"/>
	</g>
</g>
</svg>
