<svg xmlns="http://www.w3.org/2000/svg" width="297.904" height="310.783" viewBox="0 0 297.904 310.783"><defs><style>.a{fill:#4c7221;opacity:0.37;}.b{fill:#efb19c;}.c{fill:#67b5ef;}.d{opacity:0.1;}.e{fill:#f7cb4f;}.f{fill:#fbab00;}</style></defs><g transform="translate(-72.851 -60.3)"><circle class="a" cx="117.287" cy="117.287" r="117.287" transform="translate(102.787 127.627)"/><g transform="translate(89.941 161.515)"><path class="b" d="M288.306,288.068a13.756,13.756,0,1,1,9.833,25.694l-14.671,5.63a13.756,13.756,0,0,1,9.833,25.694c-4.758,1.824-41.316,15.781-46.074,17.6a58.67,58.67,0,0,1-42.981-.4l-25.694,9.833L150.4,298.695l18.874-7.216c2.934-10.706,17.6-21.57,23.473-31.245,10.389-25.694,7.613-28.786,2.617-49.8-3.251-21.808,13.481-16.415,16.495-13.8,16.812,11.419,19.588,54.639,19.588,54.639,4.282-1.665,39.73-15.622,43.854-17.208,6.423-2.458,14.036-.317,17.446,5.551a13.831,13.831,0,0,1-6.979,19.9,13.756,13.756,0,1,1,9.833,25.694Z" transform="translate(-105.992 -189.205)"/><path class="c" d="M171.078,405.2l-36.717,14.036-33.862-88.5L137.3,316.7C138.565,320.031,169.651,401.394,171.078,405.2Z" transform="translate(-95.664 -214.586)"/><g class="d" transform="translate(32.195 9.732)"><path d="M312.213,251.632a8.932,8.932,0,0,1-4.441,12.847h0a4.919,4.919,0,1,0,3.489,9.2h0a7.607,7.607,0,0,1,2.22-.555.6.6,0,0,1-.159-.317,4.958,4.958,0,0,1,2.855-6.344h0a8.559,8.559,0,0,0,5.155-5.313,8.758,8.758,0,0,0-10.706-11.419A12.615,12.615,0,0,1,312.213,251.632Z" transform="translate(-170.105 -210.399)"/><path d="M323.323,285.427a8.874,8.874,0,0,1-5.075,11.5l-7.375,2.776h0a4.919,4.919,0,1,0,3.489,9.2,7.607,7.607,0,0,1,2.22-.555.6.6,0,0,1-.159-.317,4.928,4.928,0,0,1,2.855-6.344h0l7.375-2.776a8.914,8.914,0,0,0-5.63-16.891A8.4,8.4,0,0,1,323.323,285.427Z" transform="translate(-170.746 -217.073)"/><path d="M313.178,340.442h0l14.671-5.63a8.873,8.873,0,0,0,.476-16.415,8.343,8.343,0,0,0-6.027-.4,8.4,8.4,0,0,1,2.3,3.41,8.913,8.913,0,0,1-5.155,11.5l-14.671,5.63h0a4.919,4.919,0,1,0,3.489,9.2,7.606,7.606,0,0,1,2.22-.555.6.6,0,0,1-.159-.317A4.986,4.986,0,0,1,313.178,340.442Z" transform="translate(-169.484 -224.506)"/><path d="M303.991,360.927a8.874,8.874,0,0,1-5.075,11.5l-46.074,17.6a53.55,53.55,0,0,1-27.042,3.013,53.832,53.832,0,0,0,35.448-1.031l46.074-17.6a8.914,8.914,0,0,0-5.63-16.891A8.4,8.4,0,0,1,303.991,360.927Z" transform="translate(-153.794 -232.7)"/><path d="M231.695,250.875a4.927,4.927,0,0,0,2.22,3.806,4.737,4.737,0,0,0,4.362.476c.4-.159,1.19-.476,2.141-.793a4.637,4.637,0,0,1-.317-1.507c-.714-11.34-5.234-42.585-17.446-50.912a2.1,2.1,0,0,1-.476-.4c-.952-.714-4.917-2.062-6.9-.872H215.2C226.7,209.955,230.981,239.852,231.695,250.875Z" transform="translate(-151.6 -200.205)"/><path d="M201.833,398.025,187.4,403.576l1.745,4.52,21.174-8.089a.715.715,0,0,1,.4-.079,45.618,45.618,0,0,1-5.234-1.824A5.252,5.252,0,0,0,201.833,398.025Z" transform="translate(-145.846 -241.091)"/><path d="M170.924,400.988,166.8,390.282,141.741,324.7,135,327.317,158.394,388.3l4.124,10.785h0l1.11,3.013-20.936,8.009,1.745,4.52,27.6-10.547-1.11-3.013Z" transform="translate(-135 -225.973)"/></g><path d="M288.927,316.851a18.719,18.719,0,0,0,10.151-23.87,18.4,18.4,0,0,0-6.741-8.644,18.784,18.784,0,0,0,3.886-5.63,18.557,18.557,0,0,0,.4-14.274,18.823,18.823,0,0,0-10.626-10.706l.952-2.141a18.859,18.859,0,0,0-1.507-15.7c-4.52-7.772-14.591-11.1-23.473-7.692-2.062.793-11.578,4.52-21.57,8.485-5.948,2.3-11.975,4.679-16.257,6.423-.555-4.441-1.427-10.547-2.934-17.208-3.965-17.367-9.992-28.945-17.922-34.417-3.093-2.458-11.261-5.472-17.684-1.9-4.044,2.22-8.485,7.534-6.582,20.381,0,.159.079.238.079.4.555,2.22,1.031,4.282,1.507,6.186,3.727,14.988,4.758,19.112-3.727,40.206-2.141,3.331-5.551,7.058-9.12,10.944-5.551,5.948-11.261,12.133-13.878,18.794l-12.212,4.6-1.031-2.776a4.982,4.982,0,0,0-2.538-2.7,4.688,4.688,0,0,0-3.727-.079l-36.8,14.036a4.928,4.928,0,0,0-2.855,6.344l33.862,88.5a4.982,4.982,0,0,0,2.538,2.7,4.437,4.437,0,0,0,1.983.4,4.521,4.521,0,0,0,1.745-.317l36.8-14.036a4.981,4.981,0,0,0,2.7-2.538,4.688,4.688,0,0,0,.079-3.727l-1.19-3.013,19.35-7.375a62.986,62.986,0,0,0,44.726-.238l46.074-17.6a18.34,18.34,0,0,0,10.389-9.833,18.557,18.557,0,0,0,.4-14.274A17.109,17.109,0,0,0,288.927,316.851ZM135.875,386.24l-30.373-79.3,27.6-10.547,4.917,12.847,24.266,63.521h0l1.19,3.013Zm149.008-51.625a8.9,8.9,0,0,1-4.917,4.679l-46.074,17.6a53.3,53.3,0,0,1-39.413-.4,4.639,4.639,0,0,0-3.569,0l-21.174,8.089L145.153,300.2l14.274-5.472a4.82,4.82,0,0,0,2.934-3.251c1.507-5.313,7.058-11.34,12.45-17.208,4.044-4.362,7.851-8.565,10.468-12.768.159-.238.238-.476.4-.714,9.437-23.394,8.644-29.421,4.362-46.629-.476-1.824-.952-3.727-1.427-5.868-.793-5.313-.159-9.04,1.507-10.071,1.983-1.19,6.027.159,6.9.872.159.159.317.238.476.4,12.133,8.247,16.733,39.572,17.446,50.912a4.927,4.927,0,0,0,2.22,3.806,4.737,4.737,0,0,0,4.362.476c2.22-.872,12.45-4.837,22.363-8.8,9.6-3.727,19.429-7.613,21.491-8.406,4.441-1.665,9.358-.159,11.5,3.489a8.932,8.932,0,0,1-4.441,12.847h0c-.634.238-23.394,10.389-23.394,10.389a4.858,4.858,0,0,0-2.538,6.423,4.935,4.935,0,0,0,4.52,2.934,5.452,5.452,0,0,0,1.9-.4s23.156-10.071,23.553-10.389a8.9,8.9,0,0,1,5.789,16.812l-24.742,10.706a4.858,4.858,0,0,0-2.538,6.423,4.935,4.935,0,0,0,4.52,2.934,5.451,5.451,0,0,0,1.9-.4l19.27-8.327a8.872,8.872,0,0,1,4.044,17.129L260.458,318.6a4.857,4.857,0,0,0-2.538,6.423,4.935,4.935,0,0,0,4.52,2.934,5.452,5.452,0,0,0,1.9-.4l12.371-5.313a8.878,8.878,0,0,1,8.327,5.71A8.134,8.134,0,0,1,284.883,334.615Z" transform="translate(-94.402 -187.933)"/></g><g transform="translate(274.991 119.935)"><path class="e" d="M354.767,224.836a8.451,8.451,0,0,1-4.917-1.586,8.233,8.233,0,0,1-3.331-8.168l3.489-20.222-14.671-14.274a8.359,8.359,0,0,1,4.6-14.274l20.3-2.934,9.04-18.4a8.345,8.345,0,0,1,7.454-4.679,8.205,8.205,0,0,1,7.454,4.679l9.04,18.4,20.3,2.934a8.359,8.359,0,0,1,4.6,14.274L403.458,194.86l3.489,20.222a8.232,8.232,0,0,1-3.331,8.168,8.451,8.451,0,0,1-4.917,1.586h0a8.281,8.281,0,0,1-3.886-.952l-18.16-9.516-18.16,9.516A7.239,7.239,0,0,1,354.767,224.836Z" transform="translate(-328.797 -136.494)"/><path d="M375.688,143.43a4.289,4.289,0,0,1,3.886,2.458l9.992,20.222,19.112,2.776,3.172.476a4.363,4.363,0,0,1,3.569,3.013h0a4.372,4.372,0,0,1-1.11,4.52L398.13,192.676l3.806,22.2a4.334,4.334,0,0,1-1.745,4.282,4.458,4.458,0,0,1-2.538.872,4.626,4.626,0,0,1-2.062-.476l-3.648-1.9-16.336-8.565L355.7,219.4a4.627,4.627,0,0,1-2.062.476,4.449,4.449,0,0,1-4.282-5.155l3.806-22.2-16.178-15.781a4.5,4.5,0,0,1-1.11-4.52,4.63,4.63,0,0,1,3.569-3.013l22.363-3.251L371.8,145.73a4.438,4.438,0,0,1,3.886-2.3m0-7.93a12.24,12.24,0,0,0-11.023,6.82L356.5,158.894l-18.239,2.617a12.187,12.187,0,0,0-9.913,8.406,12.375,12.375,0,0,0,3.093,12.609L344.6,195.373l-3.093,18.16a12.282,12.282,0,0,0,4.917,12.054,12.477,12.477,0,0,0,7.216,2.379,11.955,11.955,0,0,0,5.71-1.427l16.257-8.565,12.609,6.661,3.648,1.9a12.134,12.134,0,0,0,12.926-.952,12.282,12.282,0,0,0,4.917-12.054l-3.093-18.16,13.164-12.847a12.093,12.093,0,0,0,3.093-12.609,12.313,12.313,0,0,0-9.913-8.406l-3.172-.476-14.988-2.22-8.168-16.495a11.952,11.952,0,0,0-10.944-6.82Z" transform="translate(-327.751 -135.5)"/><path class="f" d="M403.377,201.153l4.2,24.5.079.634,3.648,1.9a4.374,4.374,0,0,0,4.6-.317,4.426,4.426,0,0,0,1.745-4.282l-3.806-22.2,16.178-15.781a4.5,4.5,0,0,0,1.11-4.52,4.63,4.63,0,0,0-3.569-3.013l-3.172-.476L404.8,196.712A4.821,4.821,0,0,0,403.377,201.153Z" transform="translate(-343.386 -144.214)"/></g><g transform="translate(72.851 119.935)"><path class="e" d="M99.767,224.836a8.451,8.451,0,0,1-4.917-1.586,8.233,8.233,0,0,1-3.331-8.168l3.489-20.222L80.338,180.585a8.359,8.359,0,0,1,4.6-14.274l20.3-2.934,9.04-18.4a8.345,8.345,0,0,1,7.454-4.679,8.205,8.205,0,0,1,7.454,4.679l9.04,18.4,20.3,2.934a8.359,8.359,0,0,1,4.6,14.274L148.458,194.86l3.489,20.222a8.233,8.233,0,0,1-3.331,8.168,8.451,8.451,0,0,1-4.917,1.586h0a8.281,8.281,0,0,1-3.886-.952l-18.16-9.516-18.16,9.516A7.24,7.24,0,0,1,99.767,224.836Z" transform="translate(-73.876 -136.494)"/><path d="M120.709,143.43a4.289,4.289,0,0,1,3.886,2.458l9.992,20.222,19.112,2.776,3.172.476a4.363,4.363,0,0,1,3.569,3.013h0a4.372,4.372,0,0,1-1.11,4.52l-16.178,15.781,3.806,22.2a4.334,4.334,0,0,1-1.745,4.282,4.458,4.458,0,0,1-2.538.872,4.626,4.626,0,0,1-2.062-.476l-3.648-1.9-16.336-8.565L100.645,219.56a4.627,4.627,0,0,1-2.062.476,4.449,4.449,0,0,1-4.282-5.155l3.806-22.2L81.93,176.9a4.5,4.5,0,0,1-1.11-4.52,4.63,4.63,0,0,1,3.569-3.013l22.363-3.251,9.992-20.222a4.5,4.5,0,0,1,3.965-2.458m0-7.93a12.24,12.24,0,0,0-11.023,6.82L101.6,158.894l-18.239,2.617a12.187,12.187,0,0,0-9.913,8.406,12.375,12.375,0,0,0,3.093,12.609L89.7,195.373l-3.093,18.16a12.282,12.282,0,0,0,4.917,12.054,12.477,12.477,0,0,0,7.216,2.379,11.955,11.955,0,0,0,5.71-1.427l16.257-8.565,12.609,6.661,3.648,1.9a12.134,12.134,0,0,0,12.926-.952,12.282,12.282,0,0,0,4.917-12.054l-3.093-18.16,13.164-12.847a12.093,12.093,0,0,0,3.093-12.609,12.313,12.313,0,0,0-9.913-8.406l-3.172-.476-14.988-2.22-8.168-16.495a12.153,12.153,0,0,0-11.023-6.82Z" transform="translate(-72.851 -135.5)"/><path class="f" d="M148.377,201.153l4.2,24.5.079.634,3.648,1.9a4.374,4.374,0,0,0,4.6-.317,4.426,4.426,0,0,0,1.745-4.282l-3.806-22.2,16.178-15.781a4.5,4.5,0,0,0,1.11-4.52,4.63,4.63,0,0,0-3.569-3.013l-3.172-.476L149.8,196.712A4.821,4.821,0,0,0,148.377,201.153Z" transform="translate(-88.465 -144.214)"/></g><g transform="translate(173.881 60.3)"><path class="e" d="M227.267,149.656a8.451,8.451,0,0,1-4.917-1.586,8.233,8.233,0,0,1-3.331-8.168l3.489-20.143-14.671-14.274a8.359,8.359,0,0,1,4.6-14.274l20.3-2.934,9.04-18.4a8.345,8.345,0,0,1,7.454-4.679,8.205,8.205,0,0,1,7.454,4.679l9.04,18.4,20.3,2.934a8.359,8.359,0,0,1,4.6,14.274L275.958,119.76l3.489,20.222a8.233,8.233,0,0,1-3.331,8.168,8.451,8.451,0,0,1-4.917,1.586h0a8.281,8.281,0,0,1-3.886-.952l-18.16-9.516-18.16,9.516A8.076,8.076,0,0,1,227.267,149.656Z" transform="translate(-201.297 -61.314)"/><path d="M248.188,68.23a4.289,4.289,0,0,1,3.886,2.458l9.992,20.222,19.112,2.776,3.172.476a4.363,4.363,0,0,1,3.569,3.013h0a4.372,4.372,0,0,1-1.11,4.52L270.63,117.476l3.806,22.2a4.334,4.334,0,0,1-1.745,4.282,4.458,4.458,0,0,1-2.538.872,4.627,4.627,0,0,1-2.062-.476l-3.648-1.9-16.336-8.565L228.125,144.36a4.627,4.627,0,0,1-2.062.476,4.449,4.449,0,0,1-4.282-5.155l3.806-22.2-16.019-15.86a4.5,4.5,0,0,1-1.11-4.52,4.63,4.63,0,0,1,3.569-3.013l22.363-3.251,9.992-20.222a4.151,4.151,0,0,1,3.806-2.379m0-7.93a12.24,12.24,0,0,0-11.023,6.82L229,83.615l-18.239,2.617a12.187,12.187,0,0,0-9.913,8.406,12.375,12.375,0,0,0,3.093,12.609L217.1,120.093l-3.093,18.16a12.282,12.282,0,0,0,4.917,12.054,12.478,12.478,0,0,0,7.216,2.379,11.955,11.955,0,0,0,5.71-1.427l16.257-8.565,12.609,6.661,3.648,1.9a12.134,12.134,0,0,0,12.926-.952,12.282,12.282,0,0,0,4.917-12.054l-3.093-18.16,13.164-12.847a12.093,12.093,0,0,0,3.093-12.609,12.313,12.313,0,0,0-9.913-8.406l-3.172-.476L267.3,83.535l-8.168-16.495A12.017,12.017,0,0,0,248.188,60.3Z" transform="translate(-200.251 -60.3)"/><path class="f" d="M275.877,125.853l4.2,24.5.079.634,3.648,1.9a4.374,4.374,0,0,0,4.6-.317,4.426,4.426,0,0,0,1.745-4.282l-3.806-22.2,16.178-15.781a4.5,4.5,0,0,0,1.11-4.52,4.63,4.63,0,0,0-3.569-3.013l-3.172-.476L277.3,121.412A4.953,4.953,0,0,0,275.877,125.853Z" transform="translate(-215.886 -68.993)"/></g></g></svg>