<svg id="Logo" xmlns="http://www.w3.org/2000/svg" viewBox="0 0 327.19 220.16"><defs><style>.cls-1{fill:#fff;}.cls-2,.cls-5{fill:none;stroke:#5573b6;stroke-linecap:round;}.cls-2{stroke-miterlimit:10;stroke-width:3px;}.cls-3{fill:#ff7f20;}.cls-4{fill:#5573b6;}.cls-5{stroke-linejoin:round;stroke-width:7px;}.cls-6{fill:#3cbdee;}.cls-7{opacity:0.1;}.cls-8{opacity:0.05;}</style></defs><title>app_icon_v4</title><g id="Uhr"><circle class="cls-1" cx="163.02" cy="68.93" r="46.78"/><line class="cls-2" x1="198.98" y1="69.07" x2="209.02" y2="69.07"/><line class="cls-2" x1="117.86" y1="68.72" x2="127.91" y2="68.72"/><line class="cls-2" x1="162.91" y1="114.65" x2="162.91" y2="104.61"/><line class="cls-2" x1="162.92" y1="34.84" x2="162.92" y2="24.8"/><g id="Knopf2"><polygon class="cls-3" points="202.07 23.76 195.63 30.2 200.09 34.66 206.53 28.22 202.07 23.76 202.07 23.76"/><path class="cls-4" d="M210.81,29.61a2.11,2.11,0,0,1-3,0l3-3A2.1,2.1,0,0,1,210.81,29.61Z" transform="translate(-1.29 -1.19)"/><path class="cls-4" d="M203.27,22.07a2.09,2.09,0,0,1,3,0l-3,3A2.09,2.09,0,0,1,203.27,22.07Z" transform="translate(-1.29 -1.19)"/><rect class="cls-4" x="203.77" y="23.74" width="6.55" height="4.19" transform="translate(77.61 -140.02) rotate(45)"/></g><g id="Knopf1"><polygon class="cls-3" points="167.33 5.98 158.41 5.98 158.41 18.87 167.33 18.87 167.33 5.98 167.33 5.98"/><path class="cls-4" d="M172.59,4.5a3.32,3.32,0,0,1-3.32,3.32V1.19A3.32,3.32,0,0,1,172.59,4.5Z" transform="translate(-1.29 -1.19)"/><path class="cls-4" d="M155.7,4.51A3.31,3.31,0,0,1,159,1.19V7.83A3.32,3.32,0,0,1,155.7,4.51Z" transform="translate(-1.29 -1.19)"/><rect class="cls-4" x="157.66" width="10.37" height="6.63"/></g><line id="Zeiger2" class="cls-5" x1="163.14" y1="68.73" x2="187.43" y2="44.44"/><path id="Zeiger1" class="cls-6" d="M175.2,103.07l-7.76-29.28a4.75,4.75,0,0,0,1.69-3.63,4.82,4.82,0,1,0-5.53,4.75l7.73,29.19a2,2,0,0,0,1.93,1.49,2.24,2.24,0,0,0,.51-.07A2,2,0,0,0,175.2,103.07Z" transform="translate(-1.29 -1.19)"/><path class="cls-7" d="M168,36.85a38.88,38.88,0,0,1,38.14,31.62,41.83,41.83,0,1,0-58,40.59A38.82,38.82,0,0,1,168,36.85Z" transform="translate(-1.29 -1.19)"/></g><g id="mittelrer_Hoop" data-name="mittelrer Hoop"><path id="Hoop2" class="cls-3" d="M218.32,70.71a53.81,53.81,0,1,0-59.24,53.53v97.11h12V124.1A53.8,53.8,0,0,0,218.32,70.71Zm-53.81,41.8a41.8,41.8,0,1,1,41.81-41.8A41.85,41.85,0,0,1,164.51,112.51Z" transform="translate(-1.29 -1.19)"/><path id="Schatten" class="cls-8" d="M164.51,16.91a53.8,53.8,0,0,0-5.43,107.33v97.11l4.83,0v-102l-5-.11a48.91,48.91,0,1,1,12.12-.14v5.05a53.8,53.8,0,0,0-6.52-107.21Z" transform="translate(-1.29 -1.19)"/></g><g id="mittelrer_Hoop-2" data-name="mittelrer Hoop"><path class="cls-3" d="M55.1,88.7A53.8,53.8,0,0,0,49.67,196v25.29c4.61,0,4.8,0,12,0l0-25.45A53.8,53.8,0,0,0,55.1,88.7Zm0,95.61A41.81,41.81,0,1,1,96.9,142.5,41.86,41.86,0,0,1,55.1,184.31Z" transform="translate(-1.29 -1.19)"/><path class="cls-8" d="M55.1,88.7A53.8,53.8,0,0,0,49.67,196v25.29l4.82,0V191.11l-5-.11a48.86,48.86,0,1,1,12.13-.13v5A53.8,53.8,0,0,0,55.1,88.7Z" transform="translate(-1.29 -1.19)"/></g><g id="mittelrer_Hoop-3" data-name="mittelrer Hoop"><path class="cls-3" d="M274.68,60.1a53.81,53.81,0,0,0-5.43,107.34v53.87h12v-54a53.8,53.8,0,0,0-6.57-107.2Zm0,95.61a41.81,41.81,0,1,1,41.8-41.8A41.85,41.85,0,0,1,274.68,155.71Z" transform="translate(-1.29 -1.19)"/><path class="cls-8" d="M274.6,60a53.87,53.87,0,0,0-5.35,107.48v53.87c1.67,0,3.17,0,4.83,0V162.52l-5-.11a48.9,48.9,0,1,1,12.12-.14v5A53.88,53.88,0,0,0,274.6,60Z" transform="translate(-1.29 -1.19)"/></g></svg>