<svg id="Logo" xmlns="http://www.w3.org/2000/svg" viewBox="0 0 229.43 229.42"><defs><style>.cls-1{fill:#004d40;}.cls-2{opacity:0.1;}.cls-3{fill:#ff7f20;}.cls-4{opacity:0.05;}.cls-5{fill:#fff;}.cls-6,.cls-8{fill:none;stroke:#5573b6;stroke-linecap:round;}.cls-6{stroke-miterlimit:10;stroke-width:3px;}.cls-7{fill:#5573b6;}.cls-8{stroke-linejoin:round;stroke-width:7px;}.cls-9{fill:#3cbdee;}</style></defs><title>app_icon_v3</title><g id="Hintergrund"><rect class="cls-1" width="229.41" height="229.41" rx="12" ry="12"/><path class="cls-2" d="M217.49,229.26H114.36V-.07H217.49a12,12,0,0,1,12,12V217.3A12,12,0,0,1,217.49,229.26Z" transform="translate(-0.06 0.08)"/></g><g id="rechter_Hoop" data-name="rechter Hoop"><path id="Hoop3" class="cls-3" d="M225.14,79.77a41.67,41.67,0,0,1,4.35.23V68c-1.44-.12-2.89-.2-4.35-.2a53.8,53.8,0,0,0-3.43,107.49v53.25a12,12,0,0,0,7.74-11.2V175.2h0v-12a41.81,41.81,0,1,1-4.35-83.39Z" transform="translate(-0.06 0.08)"/><path id="Schatten" class="cls-4" d="M225.06,72.64c1.45,0,2.88.07,4.3.2v-5c-1.42-.11-2.85-.18-4.3-.18a53.87,53.87,0,0,0-3.49,107.63v53.32a12.18,12.18,0,0,0,5-3.5l.05-54.84h-5.05a48.87,48.87,0,0,1,3.49-97.62Z" transform="translate(-0.06 0.08)"/></g><g id="Uhr"><circle class="cls-5" cx="114.63" cy="78.18" r="46.78"/><line class="cls-6" x1="150.59" y1="78.33" x2="160.63" y2="78.33"/><line class="cls-6" x1="69.47" y1="77.97" x2="79.52" y2="77.97"/><line class="cls-6" x1="114.51" y1="123.91" x2="114.51" y2="113.87"/><line class="cls-6" x1="114.52" y1="44.1" x2="114.52" y2="34.05"/><g id="Knopf2"><polygon class="cls-3" points="153.68 33.01 147.24 39.46 151.7 43.92 158.14 37.47 153.68 33.01 153.68 33.01"/><path class="cls-7" d="M161.18,37.59a2.09,2.09,0,0,1-3,0l3-3A2.09,2.09,0,0,1,161.18,37.59Z" transform="translate(-0.06 0.08)"/><path class="cls-7" d="M153.64,30.05a2.12,2.12,0,0,1,3,0l-3,3A2.1,2.1,0,0,1,153.64,30.05Z" transform="translate(-0.06 0.08)"/><rect class="cls-7" x="154.14" y="31.73" width="6.55" height="4.19" transform="translate(69.96 -101.32) rotate(45)"/></g><g id="Knopf1"><polygon class="cls-3" points="118.94 15.24 110.02 15.24 110.02 28.12 118.94 28.12 118.94 15.24 118.94 15.24"/><path class="cls-7" d="M123,12.49a3.32,3.32,0,0,1-3.32,3.32V9.17A3.32,3.32,0,0,1,123,12.49Z" transform="translate(-0.06 0.08)"/><path class="cls-7" d="M106.07,12.5a3.32,3.32,0,0,1,3.32-3.32v6.63A3.32,3.32,0,0,1,106.07,12.5Z" transform="translate(-0.06 0.08)"/><rect class="cls-7" x="109.27" y="9.26" width="10.37" height="6.63"/></g><line id="Zeiger2" class="cls-8" x1="114.75" y1="77.99" x2="139.04" y2="53.69"/><path id="Zeiger1" class="cls-9" d="M125.57,111.06l-7.75-29.28A4.81,4.81,0,1,0,114,82.9l7.72,29.19a2,2,0,0,0,1.93,1.49,2.4,2.4,0,0,0,.52-.07A2,2,0,0,0,125.57,111.06Z" transform="translate(-0.06 0.08)"/><path class="cls-2" d="M118.34,44.84a38.88,38.88,0,0,1,38.15,31.62,41.84,41.84,0,1,0-58,40.59,38.82,38.82,0,0,1,19.81-72.21Z" transform="translate(-0.06 0.08)"/></g><g id="mittelrer_Hoop" data-name="mittelrer Hoop"><path id="Hoop2" class="cls-3" d="M168.69,78.7a53.81,53.81,0,1,0-59.23,53.53v97.1h12V132.09A53.8,53.8,0,0,0,168.69,78.7Zm-53.8,41.8a41.81,41.81,0,1,1,41.8-41.8A41.85,41.85,0,0,1,114.89,120.5Z" transform="translate(-0.06 0.08)"/><path id="Schatten-2" data-name="Schatten" class="cls-4" d="M114.81,24.76a53.88,53.88,0,0,0-5.53,107.47V229h5V127.31l-5-.11a48.91,48.91,0,1,1,12.13-.14v5a53.87,53.87,0,0,0-6.6-107.34Z" transform="translate(-0.06 0.08)"/></g><g id="linker_Hoop" data-name="linker Hoop"><path class="cls-3" d="M8.24,96.38A55.63,55.63,0,0,0,.15,97V109.2a42.6,42.6,0,0,1,8.09-.82,41.8,41.8,0,0,1,0,83.6,42.61,42.61,0,0,1-8.09-.83v26.36a12.05,12.05,0,0,0,9.73,11.78c.34,0,.67,0,1,0h1.26V203.83A53.8,53.8,0,0,0,8.24,96.38Z" transform="translate(-0.06 0.08)"/><path class="cls-2" d="M8.24,96.38a55.88,55.88,0,0,0-8,.6v5a47.2,47.2,0,0,1,7.91-.74,48.88,48.88,0,0,1,4,97.59v5A53.87,53.87,0,0,0,62,150.12,53.69,53.69,0,0,0,8.24,96.38Z" transform="translate(-0.06 0.08)"/><path class="cls-4" d="M.12,217.33a12,12,0,0,0,5,9.7V198.52l-5-.21Z" transform="translate(-0.06 0.08)"/></g></svg>