<?xml version="1.0" encoding="UTF-8" standalone="no"?>
<!DOCTYPE svg PUBLIC "-//W3C//DTD SVG 1.1//EN" "http://www.w3.org/Graphics/SVG/1.1/DTD/svg11.dtd">
<svg width="100%" height="100%" viewBox="0 0 80 78" version="1.1" xmlns="http://www.w3.org/2000/svg" xmlns:xlink="http://www.w3.org/1999/xlink" xml:space="preserve" xmlns:serif="http://www.serif.com/" style="fill-rule:evenodd;clip-rule:evenodd;">
    <g id="_1411215201296" transform="matrix(0.132944,0,0,0.132944,0.279645,-17.1796)">
        <path d="M445.72,327.572C445.72,327.572 461.339,365.499 469.531,386.334C504.51,383.357 561.061,376.668 583.37,340.214C561.798,289.616 545.414,231.562 528.321,193.635C528.321,193.635 450.935,165.345 389.906,146.013C389.906,146.013 383.216,143.773 380.239,148.989C357.902,180.227 346.762,201.798 296.901,201.798C249.279,201.061 237.373,180.227 215.802,148.989C212.06,143.773 205.37,146.013 205.37,146.013C145.106,164.608 66.983,193.635 66.983,193.635C49.861,231.562 33.477,290.353 11.906,340.214C34.243,375.931 89.291,383.357 125.745,386.334C133.937,365.499 149.556,327.572 149.556,327.572L445.72,327.572Z" style="fill:rgb(73,70,70);"/>
    </g>
    <g id="_1411215199984" transform="matrix(0.132944,0,0,0.132944,0.279645,-17.1796)">
        <path d="M299.14,695.877C350.476,695.14 423.383,682.498 465.817,666.113C460.602,617.017 445.72,327.572 445.72,327.572C445.72,327.572 450.935,165.345 389.906,146.013C389.906,146.013 383.216,143.773 380.239,148.989C357.902,180.227 346.762,201.798 296.901,201.798C249.279,201.061 237.373,180.227 215.802,148.989C212.06,143.773 205.37,146.013 205.37,146.013C145.106,164.608 149.556,327.572 149.556,327.572C149.556,327.572 133.937,617.017 129.487,666.113C172.63,682.498 244.8,695.877 296.164,695.877L299.14,695.877Z"/>
    </g>
    <g transform="matrix(0.132944,0,0,0.132944,0.279645,-17.1796)">
        <path d="M348.293,242.844C348.18,246.529 350.816,253.134 346.989,255.231C344.069,251.376 346.479,247.323 342.765,244.715C341.717,246.529 341.575,252.85 341.972,255.033C343.247,262.006 341.065,261.808 341.773,266.485C342.624,272.098 344.154,267.789 343.814,275.329C343.559,281.452 347.102,281.395 347.187,286.724C342.227,290.665 341.915,287.887 337.096,286.157C338.74,289.474 339.052,291.6 342.539,292.932C352.687,296.844 327.855,319.294 332.249,330.066C336.076,339.477 332.107,343.191 328.224,351.184C323.008,361.899 330.576,358.668 331.2,358.951C332.589,359.631 332.787,373.351 335.254,369.439C339.534,362.58 333.043,355.465 332.476,352.035C332.447,351.95 340.243,350.249 341.915,349.427C347.357,346.762 345.288,352.176 350.476,343.332C353.197,338.683 350.447,351.921 353.083,352.658C356.117,353.48 354.557,343.049 358.186,339.194C364.677,332.306 364.62,328.082 364.365,318.359C364.11,308.693 360.425,314.617 358.413,311.868C354.076,305.858 358.384,301.209 360.425,296.759C362.466,292.28 360,281.82 362.806,281.367C368.447,280.46 367.597,278.277 363.628,273.798C360.283,273.175 361.644,274.876 360.765,271.162L366.265,269.972L368.674,255.373C372.643,255.713 369.439,256.507 372.416,257.102C375.165,257.641 372.869,256.394 376.696,256.507C378.255,259.427 378.312,260.022 376.016,262.488C380.58,261.553 379.417,258.321 378.227,254.806L372.841,254.58L372.501,250.668C362.013,253.134 366.576,259.455 364.139,266.202C358.838,268.894 359.943,265.861 354.983,271.134C354.586,271.049 349.058,268.441 348.86,268.356C349.002,261.808 346.535,264.529 346.62,261.043C346.734,256.904 349.937,258.009 350.702,257.698C351.383,254.466 352.942,243.099 352.006,241.002L349.682,243.808L348.293,242.844ZM294.945,344.608L294.123,349.54L291.883,349.483C291.288,356.769 290.041,357.307 288.198,363.572C286.866,368.164 288.935,372.529 285.42,374.117C282.643,372.869 281.48,362.523 278.391,366.321C275.499,369.865 283.465,374.91 279.298,379.899L276.406,374.117C275.726,374.485 272.494,393.874 276.86,396.454C284.854,401.187 278.419,380.58 287.773,382.054C292.762,382.819 292.734,383.669 295.03,377.575C296.22,374.428 298.006,369.836 298.772,366.718C300.699,358.894 298.97,362.58 303.846,359.178C305.631,357.931 305.603,352.828 304.866,350.986L305.887,347.613L309.061,349.313C308.665,347.301 308.608,343.701 308.778,341.972C309.118,338.4 310.876,339.846 313.313,338.145C314.872,329.953 308.239,322.583 312.973,317.197C316.602,324.822 316.261,316.261 320.542,324.51L321.619,322.328C319.465,316.148 319.861,314.22 319.351,308.041C318.557,298.573 318.104,303.959 316.176,304.214C314.05,304.498 315.213,298.828 314.022,295.909C311.017,288.709 313.71,287.943 312.803,281.906C312.775,281.906 309.402,291.883 306.879,280.687C306.17,277.483 307.106,274.309 305.603,271.672C304.583,269.915 301.918,268.554 301.55,270.68C300.983,273.94 301.55,282.472 301.521,286.044C301.436,292.45 300.019,297.95 299.962,304.384C299.877,312.831 302.513,305.291 307.587,310.535C312.18,315.298 304.016,312.491 302.995,319.833C301.55,330.52 308.494,332.561 300.614,330.973C293.924,329.613 294.236,340.554 294.945,344.608ZM231.534,251.263C234.879,253.616 236.551,258.633 235.049,262.658C231.959,262.63 234.369,260.731 231.449,262.46C230.797,268.498 239.386,276.463 232.809,281.339C232.356,281.679 227.225,299.424 225.921,302.003C223.483,302.202 224.929,300.728 222.803,302.173C222.548,303.959 226.318,322.583 220.167,330.548L221.669,333.411L219.118,333.78L218.494,342.567L221.102,336.387C223.569,340.696 218.154,350.391 222.973,353.849C227.849,350.391 225.099,335.906 225.071,330.803C228.076,329.584 225.128,333.865 229.294,329.272C231.506,326.806 231.874,324.312 232.469,323.717L232.554,336.501C233.093,336.189 236.381,322.469 237.458,319.294C239.499,317.367 238.904,315.893 240.463,312.548C242.447,308.296 242.617,310.167 240.661,305.66C245.339,301.72 245.367,300.189 245.083,293.187L242.674,293.698C240.917,288.709 243.326,289.843 242.589,284.145C241.909,277.852 244.29,277.54 245.225,272.58L246.472,270.057C246.387,266.23 244.8,268.072 244.403,264.756C244.063,261.865 245.82,263.31 247.068,262.517L248.939,246.529C245.735,247.89 247.323,256.422 244.658,258.605C242.957,255.487 247.38,253.191 244.261,249.08C240.945,249.165 240.35,251.376 238.989,254.239C235.559,246.331 245.764,248.031 245.509,243.354L238.507,245.849C232.129,231.931 244.913,232.328 239.074,211.465C237.26,216.935 236.551,234.737 235.304,238.847C233.631,244.346 233.773,241.88 234.737,247.861C232.271,249.676 233.688,247.039 231.534,251.263ZM409.635,202.592C409.805,207.836 410.23,213.987 409.89,219.175C409.663,222.406 408.728,226.261 408.728,229.436C408.784,233.943 413.461,236.608 413.093,244.205C412.724,251.518 413.575,252.822 413.887,259.88C414.369,270.595 410.712,277.03 410.343,286.611C409.918,297.553 410.542,300.841 408.132,312.123C405.383,324.992 408.472,321.024 408.671,321.477C408.699,321.562 410.797,340.271 411.42,330.265C413.008,304.753 410.683,326.891 420.803,300.614C423.78,292.904 422.787,284.712 420.661,276.86C417.543,265.181 419.357,263.367 419.301,252.312C419.244,237.969 420.52,246.047 422.306,240.123C423.071,237.628 418.45,233.405 420.491,226.375C421.739,222.094 423.383,219.713 423.269,214.98C423.184,212.287 423.099,211.068 422.05,213.959C415.162,233.235 414.709,224.646 412.639,212.343C411.959,208.29 410.57,206.391 409.635,202.592ZM158.145,549.128L157.124,552.472C155.594,561.742 153.439,571.153 151.909,580.479C151.2,584.759 150.973,605.622 152.391,608.683C154.346,605.395 152.447,593.575 155.877,589.635L157.578,596.551C161.235,591.449 163.757,556.271 165.26,548.419C168.35,532.46 170.646,540.057 171.439,539.858C176.06,538.668 181.984,499.068 176.797,495.439C169.285,490.139 168.718,507.912 168.718,511.115C168.718,521.008 170.872,522.142 164.58,530.249C161.745,533.877 158.74,544.45 158.145,549.128ZM223.597,563.528L223.228,563.783L222.803,563.811L221.216,567.439L220.62,565.087C216.737,567.439 215.32,568.261 216.425,573.052C219.118,574.753 218.806,569.565 222.69,572.23C228.047,575.972 224.702,571.493 228.076,571.436C230.485,576.652 221.017,581.981 220.28,595.304C220.11,598.054 218.863,609.364 218.948,610.384C219.061,611.773 219.883,610.866 220.904,611.915C222.491,613.559 221.811,614.92 223.654,616.054C226.176,612.283 224.277,606.302 227.707,602.306C231.25,603.439 228.161,609.194 230.797,610.923C232.639,609.619 237.855,584.929 237.912,581.556C237.997,576.113 237.43,570.444 237.515,564.973C237.628,557.036 239.839,556.441 242.164,549.808C238.082,550.743 240.548,549.326 237.43,546.831C236.296,549.128 237.77,548.476 236.211,551.877C234.454,555.676 233.348,554.939 231.619,557.433C227.764,562.876 231.619,562.847 224.504,568.091L223.597,563.528ZM218.126,334.545L217.191,332.617L219.033,329.159L218.438,324.85L214.583,323.915L214.753,319.833L216.567,321.477L218.466,319.323L218.693,314.476L212.088,312.094L211.38,298.176L214.299,299.367C215.206,295.54 215.32,294.265 214.271,290.494C207.78,298.063 211.011,302.683 209.282,311.499C206.079,313.739 205.257,306.454 203.584,309.175C203.471,320.117 206.447,322.101 204.236,335.622C203.556,339.619 201.118,359.008 198.369,360.17L198.51,350.901C196.98,350.844 195.307,376.923 196.526,378.539C200.069,377.235 197.235,368.05 200.835,363.855C206.419,363.317 204.52,370.261 206.022,371.254C210.387,357.562 209.083,350.107 218.126,334.545ZM366.18,536.202L367.654,538.129C365.924,540.595 365.046,539.943 364.62,542.041C364.025,545.017 365.131,544.706 364.365,548.391C368.447,553.691 354.246,552.302 354.246,552.302L353.962,556.866L355.039,556.866C357.25,557.83 357.279,558.255 358.016,560.608C358.072,558.312 357.619,558.142 359.518,557.065C367.795,562.422 359.461,579.487 365.131,583.994L366.548,578.239C371.339,577.332 369.78,560.268 369.553,555.477C369.043,545.216 368.164,532.743 372.217,523.219L373.181,526.592L376.554,520.498C379.02,522.198 377.745,528.094 377.83,530.929L377.972,532.828L380.154,533.48C380.665,530.362 379.304,528.236 379.729,524.069C380.041,521.206 380.438,517.436 380.551,514.63C378.227,512.787 378.028,516.359 376.894,512.334C375.676,507.912 378.255,488.494 376.129,482.031C371.679,481.975 370.885,500.457 370.885,500.485C371.735,502.894 373.663,503.376 374.287,506.806C375.817,515.197 372.331,515.65 370.29,519.25C368.476,522.397 366.69,532.375 366.18,536.202ZM310.28,443.254L312.633,441.439L313.398,444.132C311.102,448.526 311.783,445.946 312.491,450.312C313.2,454.819 311.556,453.231 312.548,455.839C321.364,446.343 314.391,434.976 310.961,435.005C309.969,438.463 311.244,437.301 308.409,438.605C306.794,435.827 308.494,435.487 311.017,434.183C311.811,430.639 314.816,422.674 313.058,419.754C312.236,420.888 312.435,428.258 308.891,424.063C306.113,420.775 304.101,413.065 301.294,410.598C293.074,411.761 300.331,416.494 297.723,421.257C295.172,425.934 291.94,428.485 293.811,434.494C295.88,441.014 292.932,446.485 295.143,449.15C296.957,451.332 297.666,448.781 298.857,451.786C299.849,454.337 298.431,455.981 300.614,457.824C301.776,457.002 302.57,441.411 302.202,439.03C306.907,439.909 305.121,443.48 310.28,443.254ZM395.093,301.238L396.794,303.449L398.239,300.869C395.972,274.054 397.899,289.077 399.827,284.967C401.528,276.633 397.814,269.036 397.616,260.731C397.502,255.6 398.75,244.403 396.312,240.265L394.526,246.671C390.813,245.282 391.72,226.375 388.715,230.258C387.298,232.072 388.12,263.735 388.97,266.23C390.359,270.227 393.817,271.559 393.704,274.309C393.279,285.449 394.413,290.466 395.093,301.238ZM404.476,330.463C404.022,339.109 396.425,349.682 398.976,356.088C400.195,359.15 401.443,352.488 403.569,357.165C408.246,367.512 401.301,378.34 401.074,389.849C401.017,393.987 399.912,405.269 400.507,408.416C400.989,411.024 403.058,408.671 404.05,415.162C405.411,423.836 406.205,415.559 406.091,412.328C405.95,408.359 401.698,381.487 405.581,379.502C406.913,378.822 407.849,409.238 409.351,399.713C411.222,387.865 407.764,376.98 407.707,364.904C407.65,356.457 407.509,337.833 404.476,330.463ZM394.072,318.161L394.413,308.126C394.384,304.498 394.668,298.233 390.444,296.844C388.318,299.225 387.043,326.013 386.107,331.483C385.852,331.937 381.345,330.236 381.628,342.539C381.713,347.131 379.928,359.036 383.811,361.502C386.135,357.931 384.208,351.666 385.625,346.224C387.071,343.276 388.97,349.739 390.926,334.318C391.861,327.09 391.436,325.446 394.072,318.161ZM294.576,557.915L296.731,557.036C297.978,552.983 296.334,545.924 301.294,546.151C304.016,546.265 302.598,543.827 305.405,544.224C308.438,544.62 307.531,547.71 310.989,547.37C311.329,543.628 310.195,520.214 307.928,518.995C304.101,523.531 307.701,535.748 297.865,534.586C296.277,530.391 298.205,530.957 300.359,528.548L297.213,526.904C294.661,530.844 296.334,535.691 295.2,540.255C293.839,545.839 291.203,549.95 290.098,553.776L294.576,557.915ZM313.682,384.378L311.074,384.066C309.317,387.808 308.608,391.408 312.406,393.591C313.257,393.165 312.378,383.924 320.031,393.874C321.959,396.397 318.132,403.427 322.016,408.671C325.219,405.808 325.871,367.994 321.25,366.661C318.557,370.006 320.06,371.934 317.764,375.165C314.22,380.239 314.617,377.49 313.682,384.378ZM217.276,240.491C223.654,240.86 218.636,238.847 222.236,237.685C225.893,242.079 221.074,253.899 224.419,260.986L227.027,255.43L230.967,250.923L231.137,243.978C227.792,242.589 230.542,246.614 229.436,234.624C229.039,230.457 230.457,230.117 230.258,225.723C230.145,223.257 229.294,219.515 229.039,216.68L226.205,214.781C225.326,226.205 227.792,222.491 222.463,233.15C219.458,231.676 222.491,230.74 219.09,231.846L217.276,240.491ZM407.82,627.591C408.416,626.712 410.769,602.05 411.222,598.762C414.028,578.494 413.263,590.627 411.477,585.156C410.882,583.285 411.506,581.556 410.428,580.139C403.682,586.233 409.124,603.156 405.071,605.537C400.564,599.216 404.362,584.504 402.661,576.567C399.487,592.951 401.754,591.222 401.839,597.373C401.868,600.378 400.819,601.512 400.847,604.091L407.82,627.591ZM196.271,510.066L197.603,511.285C196.809,515.509 196.526,519.335 192.076,520.016C191.65,522.935 190.318,529.767 189.439,532.346C188.362,535.55 185.159,539.433 190.545,540.85C195.08,534.983 189.298,532.148 197.065,527.754L200.211,530.702C207.751,511.937 198.142,502.753 198.113,502.668C197.802,501.619 198.425,493.994 198.425,491.981C198.17,499.408 196.072,495.581 195.279,499.209C195.024,500.513 195.987,508.139 196.271,510.066ZM242.164,549.808L245.679,549.439L245.679,553.918L247.493,554.315C252.822,547.682 259.313,517.833 253.814,510.917C251.518,511.455 247.918,515.282 247.578,517.748C247.039,521.66 250.016,522.283 248.031,528.86L243.893,528.945L250.668,535.465C245.594,549.694 248.542,545.924 242.787,546.973L242.164,549.808ZM208.205,419.102L204.18,417.515L205.625,413.49C206.787,406.97 206.674,394.186 203.159,388.403C199.956,392.683 198.454,427.266 200.296,429.761C202.904,427.918 202.139,422.929 202.535,419.896C209.735,427.465 204.236,430.101 206.787,435.458C210.643,432.255 208.998,423.496 208.205,419.102ZM302.627,651.118C308.126,651.146 304.129,650.863 305.631,652.195C308.778,645.874 304.384,642.529 303.647,636.009C303.024,630.425 304.469,620.05 301.89,617.131C298.602,617.783 301.153,621.241 298.772,622.63C296.334,618.605 307.956,588.132 299.367,591.08L294.746,630.057L298.97,626.91C303.279,632.721 301.72,644.202 302.627,651.118ZM211.436,244.148C212.712,248.372 210.161,260.589 209.565,265.748C208.573,274.252 208.148,276.293 208.658,285.335L210.784,283.805L215.15,290.608L213.335,271.247L218.013,268.894L218.381,253.219C215.376,257.499 217.446,258.945 215.887,262.545C212.372,259.625 215.093,248.485 214.809,243.893L211.436,244.148ZM184.507,617.896L187.965,613.956C189.95,617.839 185.187,616.28 190.488,619.37C190.488,622.12 189.439,625.805 191.594,627.109L194.91,614.778L197.376,615.458C198,612.227 199.843,599.556 194.967,599.556C190.743,604.63 193.72,610.356 191.367,614.693C186.746,607.975 189.666,593.802 188.249,592.356C186.775,597.657 182.835,612.17 184.507,617.896ZM307.559,639.213C312.86,636.435 309.175,634.082 310.847,628.611C310.932,628.328 314.135,618.321 314.135,618.293C318.869,620.844 316.148,625.578 317.225,628.016C321.137,623.48 316.857,620.872 317.792,615.373C318.586,610.894 318.444,614.013 317.083,612.255C314.901,609.42 316.715,609.562 315.609,605.849C308.75,606.416 309.005,619.483 307.928,623.849C306.964,627.704 303.449,636.094 307.559,639.213ZM402.831,200.154C402.718,203.981 403.569,205.739 400.422,207.78C402.066,212.598 400.762,212.882 399.827,217.587L397.162,217.276L395.121,224.419C398.863,225.496 393.591,221.698 398.098,224.079C401.357,227.197 399.543,225.468 399.912,229.011C400.479,234.397 400.706,231.024 401.698,234.369C403.172,239.272 400.025,243.014 404.617,247.521C408.728,244.29 404.277,242.362 403.54,237.827C403.058,234.879 405.043,230.287 405.213,226.743C405.411,222.208 404.759,218.665 405.014,213.42C405.241,208.29 402.775,206.532 403.625,200.438L402.831,200.154ZM398.041,424.885C399.515,420.236 397.474,417.231 398.296,412.214C401.329,393.591 400.507,396.51 394.696,376.894C392.825,384.633 394.214,381.118 394.441,386.447C394.668,391.068 392.74,395.631 393.307,400.819C393.619,403.625 394.583,404.816 394.753,407.197C395.008,410.145 393.987,410.882 394.441,413.858C394.923,417.033 395.83,416.353 396.822,419.584C397.587,422.135 396.595,422.986 398.041,424.885ZM317.055,429.307C318.586,431.717 319.72,432.765 321.591,433.332C321.335,438.52 319.946,435.94 319.408,439.257L324.822,439.597C325.701,435.572 325.843,429.591 326.438,425.565C327.402,419.131 326.721,415.701 321.959,411.42C315.921,415.871 319.294,414.34 319.691,419.102C319.861,421.03 317.679,426.643 317.055,429.307ZM243.581,477.439L245.594,477.439C257.896,467.121 254.948,449.036 251.773,446.939C248.258,451.531 255.033,454.195 246.643,462.728C244.375,465.052 243.099,465.619 243.071,468.51C243.014,473.499 241.654,470.665 240.633,476.164L243.581,477.439ZM320.627,258.548C318.274,255.883 320.145,256.706 316.998,256.252L312.009,265.89L316.29,267.25L316.913,262.602L321.279,265.238L318.841,271.672L323.036,274.734C327.543,269.688 329.499,261.298 325.134,255.373C321.42,255.402 322.894,255.543 320.627,258.548ZM388.885,437.159L387.836,438.888L386.306,436.167C383.301,442.8 384.378,441.213 383.471,447.902C382.876,452.268 381.713,453.855 380.693,457.398C379.899,460.148 382.337,473.726 384.69,475.143L384.718,456.803C385.739,452.381 385.228,444.614 387.241,441.751L388.176,451.559C391.039,452.665 393.222,448.214 393.732,445.748C390.076,441.78 390.019,443.565 388.885,437.159ZM396.085,527.754L398.013,528.321C398.239,527.131 398.551,517.068 401.386,515.169C403.228,513.978 401.698,516.274 404.135,515.31C405.609,511.597 405.78,494.306 403.625,491.329C401.131,495.241 405.581,502.214 400.28,505.162L397.474,500.4C396.907,501.676 395.745,526.62 396.085,527.754ZM185.641,440.787L188.135,437.131C190.687,444.557 180.454,460.828 184.394,466.611C185.754,462.699 184.649,454.62 187.88,452.494C190.375,454.054 189.581,456.378 190.573,459.411C194.74,457.342 187.937,454.507 192.728,449.235C195.704,446.003 194.287,438.35 193.124,434.183C191.65,433.219 188.362,435.543 190.488,430.668C188.164,433.361 185.017,436.507 185.641,440.787ZM240.605,624.302C251.235,614.353 246.954,624.614 247.351,609.534L251.036,608.23C249.137,596.239 253.049,598.876 249.959,592.838C245.537,594.879 246.841,595.446 245.679,599.811C245.197,601.625 242.986,606.302 242.901,607.748C242.589,612.283 245.367,610.243 242.532,616.592C240.973,620.079 239.357,621.043 240.605,624.302ZM357.052,694.431C360.057,692.306 361.672,699.676 362.268,695.906C363.43,688.422 363.317,692.249 365.868,686.551C364.365,683.093 364.734,687.345 363.798,681.959C363.288,679.096 363.487,676.998 361.956,674.419C360.397,677.367 359.065,684.624 358.413,688.394C357.449,693.978 353.934,689.386 357.052,694.431ZM210.331,391.748C211.691,399.742 210.217,403.682 208.687,411.534C209.14,413.717 209.991,410.882 210.586,415.191C211.068,418.564 208.545,419.726 212.797,420.038C213.477,417.203 214.809,409.465 215.206,406.233C216.198,397.984 215.433,398.069 213.732,390.756L210.331,391.748ZM179.008,426.954L176.627,422.929C175.89,427.068 174.756,438.293 173.679,441.043C171.241,447.08 167.698,451.701 172.063,458.391C173.225,456.18 171.439,456.293 172.97,452.494C173.991,450.028 176.06,448.044 176.967,445.691C179.178,440.079 178.923,432.964 179.008,426.954ZM265.096,326.211L265.124,325.361L261.383,323.745C257.641,328.819 260.532,334.346 261.723,341.603L263.027,334.772L266.825,341.49C269.575,339.704 272.239,335.934 268.98,335.112C267.25,330.236 267.024,330.435 265.096,326.211ZM284.088,453.77L285.25,452.296L281.31,457.569C278.192,455.244 279.269,453.77 278.986,450.822C274.649,452.636 277.03,455.499 277.427,457.569C278.362,462.161 275.613,464.627 279.099,468.595C282.132,467.376 279.241,468.028 281.48,466.243C284.173,464.088 284.145,465.846 286.157,463.748C289.531,460.233 285.534,456.803 284.088,453.77ZM320.06,598.677L322.951,612.255C324.765,611.093 326.268,605.055 326.976,602.391C328.11,598.139 326.608,600.718 326.693,598.592C326.806,595.729 329.414,601.965 327.628,590.854C322.894,591.846 320.57,594.283 320.06,598.677ZM210.019,373.493C211.209,370.715 208.772,371.225 211.351,367.427C211.776,368.107 214.724,373.748 214.923,374.457C216.255,371.792 216.794,353.225 215.433,350.334C213.704,356.712 204.973,366.576 210.019,373.493ZM380.211,223.625L382.62,221.159C385.342,226.743 382.734,224.079 381.713,228.671L384.775,230.57C388.035,227.197 392.088,222.973 389.027,219.175L385.569,223.512L385.285,217.049L383.046,219.487L382.082,201.203C380.069,204.775 380.013,218.976 380.211,223.625ZM386.447,424.942L386.306,436.167L387.836,438.888L388.885,437.159L391.72,436.734L391.861,425.48L394.498,427.606C395.915,423.808 394.809,421.569 393.902,417.827L392.683,422.22C387.553,421.115 391.465,425.679 388.715,421.002L386.447,424.942ZM426.444,535.266C429.449,532.233 426.671,531.496 428.23,526.961C432.482,526.961 431.065,532.091 432.964,532.97C435.883,521.575 433.02,516.614 432.992,513.921C432.935,510.463 434.211,511.087 432.397,507.969C429.817,511.03 430.186,521.745 430.186,521.773C429.761,524.041 423.496,526.791 426.444,535.266ZM376.781,287.178L374.91,290.891C371.877,290.835 374.797,292.139 371.65,289.672L370.545,290.183C371.537,292.961 373.805,302.939 374.627,304.469L375.761,297.694L379.02,303.109C381.628,299.849 379.502,292.961 378.964,288.397L376.781,287.178ZM394.413,308.126L394.072,318.161L396.085,313.483L398.183,328.677C404.334,326.494 400.507,319.805 398.296,315.496L400.45,312.378L398.778,313.115C395.235,302.769 397.928,310.422 398.239,300.869L396.794,303.449L395.093,301.238L394.413,308.126ZM163.304,580.847C164.211,588.699 160.611,587.962 160.611,594.085C160.639,598.535 159.25,604.488 159.874,607.408C166.025,603.865 162.624,599.868 164.239,593.717C165.373,589.38 165.912,583.569 165.288,579.005L163.304,580.847ZM436.819,679.209C439.739,677.367 439.483,670.224 440.164,666.283C440.957,661.776 442.063,656.589 438.208,653.272C436.961,654.831 435.345,676.517 436.819,679.209ZM189.298,265.436C190.942,269.972 191.991,267.109 191.906,274.054C191.877,278.391 190.545,282.019 195.562,282.926C198.312,278.561 194.769,267.562 192.557,263.424C189.269,263.792 190.857,263.225 189.298,265.436ZM278.617,564.803C281.962,563.528 283.55,559.672 283.039,556.186L279.184,548.844C274.876,551.282 276.463,551.991 276.86,556.186C277.228,560.211 275.669,561.94 278.617,564.803ZM217.332,686.013C220.762,683.858 219.742,678.586 216.709,674.447C213.817,676.29 215.688,683.178 217.332,686.013ZM207.326,635.698C208.403,634.535 208.913,632.665 209.509,630.85C211.408,625.323 209.65,628.384 209.31,625.181C209.14,623.594 212.967,618.86 210.643,608.202C207.496,612.369 205.654,630.68 207.326,635.698ZM247.635,311.754C250.356,310.677 246.472,310.677 254.154,303.08C253.843,300.671 252.879,299.735 253.049,298.431C253.276,296.334 254.551,297.241 254.693,293.584L252.057,289.928C251.178,292.139 249.902,298.715 249.364,301.436C248.343,306.454 245.934,306.255 247.635,311.754ZM288.595,251.065L285.222,253.984C284.598,249.619 287.036,241.455 283.408,239.187C282.104,242.362 283.89,240.009 284.23,243.751C284.343,245.14 283.436,249.591 283.266,251.376C283.011,253.814 283.181,256.62 282.869,258.973C282.217,263.849 280.431,262.63 282.586,265.918C285.25,263.792 288.369,254.665 288.595,251.065ZM364.365,548.391C365.131,544.706 364.025,545.017 364.62,542.041C365.046,539.943 365.924,540.595 367.654,538.129L366.18,536.202L360.794,537.25C359.972,540.879 358.724,547.88 360.567,550.403L364.365,548.391ZM234.454,527.924C236.806,523.049 234.765,526.961 238.394,524.098C237.6,519.959 235.899,520.214 236.721,514.998C237.572,509.698 239.046,508.904 236.693,503.093C233.15,504.539 234.028,524.381 234.454,527.924ZM270.935,506.778C271.531,503.773 269.235,487.077 267.335,485.178C262.885,488.778 266.258,494.731 266.287,494.759C267.732,500.428 266.4,501.506 270.935,506.778ZM188.277,316.602L190.29,310.054L192.416,316.743C195.335,312.208 193.039,301.89 189.213,298.913C187.512,305.263 187.909,309.969 188.277,316.602ZM268.299,407.14L263.395,413.518C265.068,416.324 265.776,416.806 268.384,417.827L271.871,414.595L270.482,408.954C273.26,405.411 274.706,407.537 274.592,401.556C271.502,405.411 275.669,405.354 268.299,407.14ZM328.054,292.507C327.912,296.872 329.443,298.488 329.556,301.38C329.726,305.66 327.345,303.817 328.224,309.515C329.499,307.814 329.613,306.709 330.435,305.036C332.135,301.578 332.362,302.825 334.346,299.991C333.808,296.277 333.865,293.868 331.427,290.891C328.762,292.025 330.718,291.94 329.301,292.734C327.713,293.641 330.151,291.997 328.054,292.507ZM338.485,421.115C340.498,417.487 343.304,412.498 342.057,408.557L338.513,410.769L335.65,406.488C333.865,411.25 336.076,417.175 338.485,421.115ZM157.124,552.472L158.145,549.128C154.517,547.03 157.181,548.929 155.339,546.094L150.236,548.334C149.528,551.934 148.791,554.542 150.803,557.376L153.241,551.65L154.12,558.624L157.124,552.472ZM209.169,237.77C205.795,239.698 206.702,240.094 203.187,237.827C203.726,241.625 202.932,250.072 205.767,251.858C207.553,249.08 206.589,245.849 205.654,242.617L208.148,247.55C209.934,244.8 208.942,244.205 210.671,236.58L209.169,237.77ZM268.554,478.346L271.899,484.554L275.754,468.425C272.438,467.546 271.559,468.454 270.765,471.628C270.34,473.301 270.624,474.151 270.057,475.795C269.376,477.78 269.518,475.625 268.554,478.346ZM368.022,442.176L367.909,451.304C369.808,450.68 373.011,433.02 371.735,429.732C365.471,436.309 368.391,433.474 368.022,442.176ZM439.087,505.417L439.852,509.131C442.403,501.619 441.553,503.603 440.646,496.517C440.192,492.917 441.638,487.729 439.398,485.206C436.762,487.786 439.002,500.485 439.087,505.417ZM429.364,222.633C429.477,226.743 428.202,228.643 430.441,231.506C433.701,229.635 431.915,221.556 432.028,217.729L429.364,217.871L428.06,213.137C425.31,216.34 428.031,214.384 428.258,218.835C428.485,223.143 425.962,219.345 429.364,222.633ZM333.496,236.636C331.54,238.054 328.847,238.479 331.795,241.257L333.099,238.961L337.691,242.844C340.157,238.961 338.91,237.487 336.869,233.802L333.439,232.356L333.496,236.636ZM432.539,294.576C435.288,291.061 436.706,275.556 433.928,271.786C433.304,274.422 431.376,291.77 432.539,294.576ZM289.361,264.869C288.312,268.639 289.502,269.008 291.883,272.098C293.187,270.425 292.422,270.425 293.131,269.461L300.529,261.836L299.424,257.613C296.731,262.63 296.164,267.25 289.361,264.869ZM221.244,404.872C224.872,403.965 223.257,402.86 223.342,399.827C223.427,395.887 224.674,396.17 223.654,391.833L221.471,394.753L219.912,389.594C218.268,395.858 219.713,399.005 221.244,404.872ZM337.465,630.482C338.202,632.92 339.194,633.203 339.194,635.301C339.165,638.731 336.898,638.391 339.959,641.934C342.425,638.532 340.328,636.661 340.866,632.523C341.433,627.987 343.417,628.951 344.58,625.691C341.291,624.246 338.91,627.335 337.465,630.482ZM413.263,578.693C415.077,576.057 415.304,571.663 414.652,568.573L411.591,570.359C410.4,564.973 413.263,559.729 410.712,555.817C409.521,560.324 410.23,575.631 413.263,578.693ZM158.74,250.696C160.413,248.031 161.008,230.542 158.995,228.557C157.124,230.882 157.294,248.202 158.74,250.696ZM192.076,520.016C196.526,519.335 196.809,515.509 197.603,511.285L196.271,510.066L193.096,509.953C191.792,512.561 191.197,517.039 192.076,520.016ZM373.663,596.381C378.765,593.745 376.809,576.567 376.781,576.567C373.521,578.466 374.513,581.017 374.74,584.476C375.024,589.011 373.578,592.186 373.663,596.381ZM337.039,282.189C339.335,280.233 337.946,268.186 337.124,266.91C330.265,270.397 336.104,275.726 337.039,282.189ZM247.436,229.72L248.825,234.85L250.611,233.972L251.943,239.556C255.515,237.912 255.118,236.948 254.92,233.376L251.546,231.846L250.838,227.679L247.436,229.72ZM243.496,504.255C244.913,505.219 244.743,503.858 245.055,506.551C242.532,508.025 242.334,505.984 241.937,509.017C244.998,509.357 245.82,509.556 248.4,507.969C249.25,504.369 248.854,504.142 246.699,501.874C244.205,499.294 246.586,498.869 243.95,497.31L243.496,504.255ZM377.972,532.828L377.83,530.929L374.372,528.86C371.764,532.403 373.294,531.609 374.627,531.893L374.287,536.627L377.433,537.874C377.263,541.814 376.271,541.531 378.539,544.195C381.77,541.049 377.263,540 377.972,532.828ZM357.165,669.033L359.518,666.765C360.113,668.551 359.065,668.353 361.219,669.118L360.68,656.617C358.668,660.132 359.603,658.942 356.91,662.627C354.869,665.405 355.068,666.709 357.165,669.033ZM348.293,242.844L349.682,243.808L352.006,241.002C351.326,236.778 354.557,239.726 352.205,235.049L349.115,236.013L346.28,233.575C344.466,238.564 345.373,238.025 349.257,239.726L348.293,242.844ZM218.324,294.463C221.216,291.628 219.6,289.049 220.649,286.243C221.414,284.23 223.965,283.748 221.839,279.865C217.616,282.501 215.773,290.268 218.324,294.463ZM239.216,354.671L244.233,355.663L242.419,345.345C238.592,346.961 238.252,350.787 239.216,354.671ZM309.09,368.164C311.443,364.649 312.746,358.441 311.329,354.359L307.956,354.189L309.09,368.164ZM227.849,467.178L227.537,481.861C230.145,478.261 228.728,477.354 231.222,473.216C232.894,470.409 231.109,471.997 230.769,470.58C230.428,469.02 231.364,469.616 231.449,467.178L227.849,467.178ZM211.748,226.772C213.931,223.285 215.631,215.49 211.408,213.222C209.48,215.49 209.679,217.389 210.331,220.45C210.387,220.649 211.72,226.658 211.748,226.772ZM166.28,489.912L170.617,488.665C171.723,484.639 171.524,485.603 170.759,481.635L168.094,477.071L167.301,479.14C167.669,484.894 168.435,485.036 166.28,489.912ZM400.422,207.78C403.569,205.739 402.718,203.981 402.831,200.154L402.548,198.567L405.553,197.915L405.468,194.542L399.288,194.542C400.054,196.724 400.819,199.729 401.159,201.969C402.009,207.524 400.252,203.981 400.422,207.78ZM203.414,237.373C206.079,234.283 205.483,232.753 206.192,228.813C206.986,224.476 208.148,224.731 208.857,221.641L205.427,222.094C204.406,225.156 202.45,234.624 203.414,237.373ZM226.205,214.781L229.039,216.68C232.441,214.328 232.157,213.931 232.101,209.82C229.663,208.715 231.279,209.991 229.606,209.14C227.254,207.95 229.72,207.978 226.687,207.213C225.269,211.861 226.885,210.671 228.728,214.441L226.205,214.781ZM351.411,650.92C351.723,652.762 356.542,657.439 357.307,657.808L358.243,649.417C355.72,648.454 353.792,649.587 351.411,650.92ZM325.049,287.631L327.827,282.784C325.417,281.083 327.317,283.436 325.276,281.452C323.49,279.723 324.539,279.865 321.902,278.192C319.663,282.047 321.392,285.619 325.049,287.631ZM372.104,474.094L371.735,476.419C365.357,475.427 365.499,483.392 366.463,487.701C369.411,485.915 366.576,485.008 368.164,480.444L373.691,478.346L371.707,470.778L372.104,474.094ZM383.754,271.502C385.682,268.866 384.236,268.072 384.236,264.359C384.236,260.561 385.739,258.973 384.35,256.422C381.657,259.228 380.098,270 383.754,271.502ZM188.589,641.735C190.488,639.609 189.836,625.72 188.362,623.169C187.54,626.06 186.463,640.573 188.589,641.735ZM431.887,640.346L432.85,645.222L435.43,643.294L435.855,647.887C437.981,645.364 435.628,637.682 435.061,634.394L431.887,640.346ZM176.627,422.929L179.008,426.954L183.572,419.953C183.458,416.353 184.365,417.742 181.928,416.523C179.263,418.904 180.935,418.507 179.518,420.52C177.676,423.071 179.291,419.272 176.627,422.929ZM215.745,653.131C217.757,650.353 219.345,644.343 215.83,642.047C212.372,643.209 212.769,644.343 214.101,647.348C215.773,651.061 214.441,650.806 215.745,653.131ZM313.285,593.773C318.387,593.49 317.565,582.491 315.836,578.806C315.553,579.317 313.2,593.206 313.285,593.773ZM235.446,343.928C233.32,346.309 233.49,345.997 234.34,349.767L238.224,346.394C238.025,344.636 236.92,336.926 236.353,336.047C234.255,338.57 235.077,340.583 235.446,343.928ZM405.496,269.32C407.055,265.748 409.068,253.956 405.609,251.688C404.759,253.672 404.787,267.732 405.496,269.32ZM200.409,596.353C202.11,591.109 204.208,585.581 203.471,580.054C199.814,585.666 198.85,589.55 200.409,596.353ZM303.279,524.976C305.858,521.065 304.328,514.715 301.436,511.569C300.387,513.156 300.784,515.849 301.38,517.89C302.57,521.887 300.926,523.899 303.279,524.976ZM372.444,355.691L372.699,357.931C376.866,359.065 375.704,359.405 378.17,362.296C380.041,359.263 379.389,356.598 377.15,354.047L372.444,355.691ZM366.18,272.353L367.002,273.742L371.849,273.061L374.343,272.835C375.591,269.008 376.101,269.972 373.975,267.165C369.581,269.008 372.472,270.567 366.18,272.353ZM181.899,548.192C185.839,545.924 183.43,538.101 183.345,533.962C180.992,537.42 180.595,543.969 181.899,548.192ZM187.824,396.539L187.512,388.375C178.98,391.691 184.762,398.069 187.824,396.539ZM357.137,486.794L356.91,490.762L358.894,488.948L360.737,492.831C362.778,489.883 362.494,486.283 361.616,482.967C358.441,484.611 361.389,484.923 357.137,486.794ZM268.299,407.14C269.291,402.605 268.951,403.824 272.239,401.783C271.417,400.394 268.101,398.948 266.315,398.835L265.833,405.865L268.299,407.14ZM179.49,246.104L181.276,232.753L178.243,232.384C177.449,235.729 178.271,243.099 179.49,246.104ZM388.828,212.031C390.246,209.424 389.254,201.203 386.532,200.211C384.973,204.52 386.079,208.46 388.828,212.031ZM295.88,459.638L293.896,451.389C290.835,452.891 292.677,451.587 292.365,453.061C292.195,453.912 288,461.906 295.88,459.638ZM336.557,230.854C337.691,228.557 337.861,220.734 336.586,219.005C332.22,221.131 334.828,227.282 336.557,230.854ZM245.083,293.187L245.764,285.222L242.589,284.145C243.326,289.843 240.917,288.709 242.674,293.698L245.083,293.187ZM361.304,363.912L364.535,361.446C360.567,358.186 363.543,358.724 360.227,355.493C356.202,356.655 359.887,361.956 361.304,363.912ZM296.05,252.709C298.857,251.433 297.354,243.043 295.597,240.52C293.357,244.63 294.888,248.513 296.05,252.709ZM203.414,237.373L203.187,237.827C206.702,240.094 205.795,239.698 209.169,237.77L208.772,229.465C206.617,231.619 206.135,234.142 206.192,236.92L203.414,237.373ZM353.991,509.868L359.49,504.085L359.433,498.983C357.506,500.57 352.8,507.118 353.991,509.868ZM247.068,338.031L248.995,342.539L250.498,343.984L252.709,339.137L248.4,335.509L247.068,338.031ZM285.506,475.597L282.643,471.77C279.666,475.285 279.836,477.553 280.97,481.578L284.145,478.431L282.501,476.702C284.485,474.605 283.238,475.143 285.506,475.597ZM430.044,463.493C430.498,459.865 432.312,451.672 428.825,450.057C427.833,454.791 428.145,458.731 430.044,463.493ZM420.888,315.694C421.654,312.406 421.682,306.34 419.698,304.016C417.685,306.652 418.139,313.795 420.888,315.694ZM348.406,700.98C350.532,698.315 353.282,699.024 351.014,696.246C348.18,698.031 346.847,698.485 348.406,700.98ZM225.978,625.89C227.735,624.728 229.238,617.811 229.606,615.118C225.893,616.734 223.88,623.452 225.978,625.89ZM327.146,490.592L329.641,484.866L326.75,482.287C324.283,485.518 324.142,487.956 327.146,490.592ZM366.151,307.729L370.573,303.25C366.888,300.586 369.609,302.769 367.285,299.112C365.584,301.465 364.309,305.206 366.151,307.729ZM366.491,596.126C364.28,597.969 364.422,596.324 364.592,600.378L368.561,599.499C368.787,596.268 369.723,592.583 368.164,590.91L366.491,596.126ZM371.65,289.672C374.797,292.139 371.877,290.835 374.91,290.891L376.781,287.178L377.518,284.683L372.359,286.157L371.65,289.672ZM285.506,475.597C284.769,478.517 285.364,475.994 286.214,477.978C287.121,480.161 285.307,477.638 286.668,480.189C290.353,479.48 292.762,477.071 292.252,473.244C289.247,475.767 290.183,477.184 285.506,475.597ZM379.814,384.406C381.713,382.224 381.458,378.51 379.276,376.328C376.413,379.049 376.101,382.564 379.814,384.406ZM351.043,557.915L348.208,557.972L348.435,562.62C352.148,562.394 354.047,560.183 355.039,556.866L353.962,556.866L352.772,558.992L351.043,557.915ZM181.361,489.543C181.984,485.915 182.778,478.63 180.935,475.767C178.526,479.424 180.227,485.348 181.361,489.543ZM234.454,483.619C237.997,482.117 239.216,477.78 238.706,474.236C237.373,476.05 237.855,476.164 235.531,478.828C233.461,481.181 232.668,481.181 234.454,483.619ZM413.235,194.542L409.918,194.542L408.586,198.624L411.619,198.737L413.065,204.265L413.235,194.542ZM356.712,229.153C358.214,226.545 357.846,224.702 357.534,221.613L354.671,221.187C353.991,224.249 354.387,226.857 356.712,229.153ZM431.49,685.276C432.737,682.469 434.438,677.055 431.66,675.383C429.619,678.274 429.449,682.072 431.49,685.276ZM359.121,580.649C360.907,578.324 362.069,575.603 360.765,573.024C356.485,574.157 356.428,577.644 359.121,580.649ZM314.731,459.071C312.123,461.254 312.236,460.828 313.115,464.57C317.395,462.132 313.654,463.294 317.906,463.55C318.274,460.97 317.65,459.213 314.731,459.071ZM347.584,491.783L349.937,492.293C350.249,488.523 351.439,485.178 348.917,483.704C347.046,486.113 348.151,483.165 347.669,487.417C347.556,488.438 347.528,490.762 347.584,491.783ZM175.606,227.254C178.923,225.241 179.15,222.605 178.271,219.288L175.55,219.09L175.606,227.254ZM265.124,325.361L265.096,326.211L268.271,325.361C268.413,321.052 266.031,320.315 262.63,318.841C262.346,322.753 262.006,319.975 265.351,322.611L265.124,325.361ZM372.104,474.094L371.707,470.778C371.112,467.008 372.217,468.425 369.581,465.732C367.285,467.235 366.775,467.66 366.463,470.353L368.702,467.688L370.233,473.187L372.104,474.094ZM197.093,257.754L199.389,261.269C200.409,257.301 202.139,253.984 200.126,251.603L197.093,257.754ZM236.665,384.945C240.775,383.386 241.172,382.224 239.754,378.255C236.041,379.162 236.268,381.203 236.665,384.945ZM422.986,328.791L421.795,328.422L421.824,332.872C425.254,330.293 428.145,327.572 424.148,324.765C422.079,327.402 423.638,324.283 422.986,328.791ZM251.972,582.094L254.324,582.265L254.863,580.847L253.049,577.701L249.449,576.709C249.676,580.649 249.902,579.09 251.972,582.094ZM354.983,271.134C353.792,273.742 354.359,275.017 355.89,277.682C357.307,275.783 358.583,273.94 358.469,271.701L354.983,271.134ZM209.424,691.115C211.55,687.855 221.896,687.203 216.652,692.532L209.424,691.115C207.269,693.581 208.885,687.997 209.424,691.115ZM372.444,355.691L377.15,354.047L376.328,349.71C372.756,351.128 372.614,352.205 372.444,355.691ZM379.899,327.628L383.244,328.025C383.414,324.907 383.159,323.83 381.061,321.931C379.304,323.943 379.247,324.935 379.899,327.628ZM245.594,477.439L243.581,477.439L240.973,481.266C243.694,482.542 244.885,481.55 247.266,479.424L245.594,477.439ZM376.838,572.428C378.057,569.622 378.85,567.553 376.129,565.625C373.691,568.488 373.465,570.444 376.838,572.428ZM387.78,553.776C391.55,553.918 389.594,554.003 391.748,550.29L392.882,554.854C394.044,552.586 393.194,551.622 391.776,549.553C388.063,550.63 386.957,549.638 387.78,553.776ZM164.891,462.699C167.698,461.169 168.831,456.265 168.151,453.175C166.762,458.334 162.794,459.184 164.891,462.699ZM367.767,362.041C368.22,358.611 368.674,354.784 366.69,352.148C365.443,353.82 365.556,354.557 366.038,357.506C366.378,359.518 366.718,360.482 367.767,362.041ZM294.746,279.808C296.107,277.795 295.795,273.685 294.18,271.814C291.657,274.252 292.762,277.285 294.746,279.808ZM214.951,662.031C217.417,658.913 218.381,657.694 215.745,655.087C213.222,656.844 213.591,659.197 214.951,662.031ZM338.854,462.813C341.943,460.772 341.887,457.115 338.542,456.066C337.861,458.731 337.465,460.261 338.854,462.813ZM363.628,273.798L366.18,272.353L366.265,269.972L360.765,271.162C361.644,274.876 360.283,273.175 363.628,273.798ZM218.438,324.85L218.466,319.323L216.567,321.477L214.753,319.833L214.583,323.915L218.438,324.85ZM425.82,251.915C429.165,251.376 429.279,247.918 428.995,244.885C426.246,247.238 425.565,247.918 425.82,251.915ZM374.343,272.835L371.849,273.061L376.923,279.326L376.611,273.742L374.343,272.835ZM291.883,349.483L294.123,349.54L294.945,344.608L291.005,344.976L291.883,349.483ZM208.205,419.102L208.12,415.162L205.625,413.49L204.18,417.515L208.205,419.102ZM427.55,234.113C428.797,231.647 428.4,228.019 425.707,226.658C424.857,229.975 425.339,231.307 427.55,234.113ZM284.655,444.416L288.397,443.424L285.137,436.904L284.655,444.416ZM239.074,211.465L242.107,210.671L242.391,203.329L240.718,207.666L239.669,206.334L239.074,211.465ZM430.639,490.734C433.247,488.58 433.531,486.907 431.348,484.044C429.364,486.51 429.08,488.296 430.639,490.734ZM403.228,572.712C404.532,570.643 405.383,567.723 404.391,565.342C401.244,567.014 401.556,569.906 403.228,572.712ZM352.885,208.8L354.331,212.4C356.031,209.877 358.498,208.318 355.068,206.192L352.885,208.8ZM223.228,563.783L223.597,563.528L226.8,564.236C228.132,560.551 227.849,562.479 226.857,559.191C225.043,560.041 223.937,561.685 223.228,563.783ZM294.576,557.915C293.641,560.438 293.783,561.005 295.654,562.677C297.609,560.324 297.751,559.843 296.731,557.036L294.576,557.915ZM400.45,312.378L403.2,311.584L403.313,305.008C400.706,305.972 401.868,308.58 400.45,312.378ZM390.047,411.902C391.294,409.89 390.161,406.403 388.63,404.702C387.808,408.557 386.901,410.173 390.047,411.902ZM332.901,694.743C335.169,693.893 309.373,683.376 338.598,696.302C335.962,697.861 332.844,691.654 332.901,694.743ZM250.668,425.31C251.66,428.117 251.433,428.06 254.041,428.882C255.883,426.416 256.082,426.926 253.672,425.48C250.384,423.496 250.98,425.31 250.668,425.31ZM209.906,473.924C211.606,471.345 212.655,469.616 210.869,467.065C208.488,468.85 208.573,471.373 209.906,473.924ZM194.031,460.857C196.781,458.929 197.603,457.739 195.591,455.046C193.351,456.718 192.586,458.419 194.031,460.857ZM279.354,594.737C281.395,593.348 282.359,588.756 281.197,586.715C279.213,588.529 279.043,592.129 279.354,594.737ZM259.002,412.696C262.148,412.384 262.488,411.534 263.565,409.011L261.326,407.339L259.002,412.696ZM386.447,424.942L384.803,418.762L382.876,426.274L386.447,424.942ZM370.176,312.265C371.594,310.11 372.217,307.928 370.743,305.717C368.901,306.595 367.965,310.932 370.176,312.265ZM224.419,260.986L226.148,262.318C228.557,258.973 228.132,258.831 227.027,255.43L224.419,260.986ZM428.91,318.643C431.745,317.735 432.482,314.419 429.902,312.661C428.202,315.099 428.428,315.609 428.91,318.643ZM180.935,581.584C183.118,579.742 182.948,576.567 182.523,573.761C180.142,575.773 180.227,578.778 180.935,581.584ZM380.778,371.792L384.406,374.542C385.03,371.169 384.917,371.112 383.046,368.901L380.778,371.792ZM260.646,598.62C263.027,596.58 262.772,593.915 261.666,591.08C259.625,593.802 259.937,595.389 260.646,598.62ZM214.526,384.973C216,382.649 216.397,379.729 214.441,377.461C212.627,380.013 213.562,381.912 214.526,384.973ZM218.126,334.545C218.636,332.872 217.928,333.128 219.118,333.78L221.669,333.411L220.167,330.548L219.033,329.159L217.191,332.617L218.126,334.545ZM216.765,515.707L215.405,520.214L220.564,516.813C219.402,514.97 219.175,515.339 216.765,515.707ZM410.655,458.504C413.008,456.491 413.036,453.883 411.335,451.502C409.606,453.855 409.918,455.159 410.655,458.504ZM354.331,212.4L352.885,208.8C350.646,211.55 350.816,211.663 351.609,215.178L354.331,212.4ZM254.324,582.265L251.972,582.094L250.611,583.087L252.737,588.104L254.324,582.265ZM287.546,646.753C290.041,645.732 290.608,644.23 290.608,641.849L287.433,642.189L287.546,646.753ZM344.551,560.438C347.074,557.773 346.762,557.943 345.487,554.513C343.757,555.959 342.312,558.822 344.551,560.438ZM245.679,553.918L243.043,554.627L243.893,559.843C246.501,558.255 245.565,557.405 245.679,553.918ZM228.331,527.556L230.315,532.517C232.413,529.654 232.214,530.476 231.647,527.613L228.331,527.556ZM323.093,236.721L326.183,238.961L325.814,231.591L323.093,236.721ZM305.631,652.195C304.129,650.863 308.126,651.146 302.627,651.118L300.756,654.831C303.732,655.002 302.797,654.718 305.631,652.195ZM282.557,565.852L283.663,568.743C286.299,568.205 287.065,567.921 287.773,565.654L282.557,565.852ZM378.709,554.06C379.446,550.403 379.786,551.735 378,549.099C374.457,550.97 375.619,552.132 378.709,554.06ZM297.496,236.381C298.828,233.915 297.95,232.724 296.476,230.967C294.463,233.291 294.775,229.946 295.398,233.66C295.767,235.729 296.391,235.531 297.496,236.381ZM342.709,623.339C344.551,620.844 344.891,619.852 342.992,616.989C341.32,619.455 341.348,620.901 342.709,623.339ZM294.917,405.298C297.298,404.362 298.715,402.009 295.795,400.11C294.038,402.576 294.265,401.924 294.917,405.298ZM399.94,489.231C402.463,486.51 401.698,488.069 401.357,484.611L398.636,483.335L399.94,489.231ZM248.995,342.539L247.068,338.031L244.63,338.627L247.38,342.794L248.995,342.539ZM196.696,440.872C197.972,438.831 198.425,437.556 196.214,435.912C194.287,438.35 194.088,439.143 196.696,440.872ZM377.603,364.252L378.142,369.893L381.033,366.038L377.603,364.252ZM398.013,528.321L396.085,527.754L398.693,533.31C400.365,530.05 400.28,530.561 398.013,528.321ZM232.753,627.109L236.75,628.724L237.118,624.302L232.753,627.109ZM395.121,224.419L393.647,227.112C397.417,227.565 396.255,227.197 398.098,224.079C393.591,221.698 398.863,225.496 395.121,224.419ZM205.512,296.334C205.654,294.094 205.172,292.989 203.272,291.855C201.628,294.378 202.677,295.852 205.512,296.334ZM403.965,432.482C406.403,430.639 407.509,429.449 404.589,427.578C403.228,429.506 403.172,429.817 403.965,432.482ZM205.682,290.494C206.22,287.178 206.306,286.469 202.847,286.866C202.791,289.049 203.216,289.332 205.682,290.494ZM310.961,435.005L311.017,434.183C308.494,435.487 306.794,435.827 308.409,438.605C311.244,437.301 309.969,438.463 310.961,435.005ZM207.921,446.513C209.509,443.65 209.083,443.764 207.099,442.375C205.455,444.331 204.633,444.614 207.921,446.513ZM280.261,260.192C281.679,257.698 281.537,257.471 280.176,254.891C278.447,256.847 278.249,258.463 280.261,260.192ZM344.353,399.515C346.904,399.118 347.102,398.721 347.414,395.802C344.126,396.198 344.239,396.992 344.353,399.515ZM359.036,516.699L359.575,520.186C362.92,518.74 361.871,520.441 362.778,517.011C360.539,516.274 362.608,517.493 360.992,517.55C359.546,517.606 361.162,517.209 359.036,516.699ZM273.288,462.047C275.017,459.496 274.932,459.524 274.337,456.321C272.154,458.306 272.069,459.609 273.288,462.047ZM427.039,354.643L425.792,349.654C423.78,352.176 423.439,354.444 427.039,354.643ZM249.534,418.337C250.696,416.636 251.263,415.134 250.299,413.348C247.691,414.624 248.031,415.644 249.534,418.337ZM292.762,392.258C294.746,390.416 294.633,389.48 293.414,387.326C291.6,389.452 291.373,389.82 292.762,392.258ZM305.405,341.32C307.247,339.024 307.871,339.024 305.745,336.246C304.271,338.627 304.413,339.109 305.405,341.32ZM205.682,652.11C207.043,649.956 207.241,650.693 205.767,648.283C202.819,649.757 203.074,650.58 205.682,652.11ZM281.339,581.329L283.946,580.394L282.387,577.276C280.517,579.26 280.545,578.239 281.339,581.329ZM225.468,372.728C227.225,375.08 227.65,375.25 229.493,372.671C227.083,371.027 228.019,371.282 225.468,372.728ZM226.715,456.463C229.068,455.868 229.38,455.102 229.55,452.835C226.602,453.317 226.46,453.798 226.715,456.463ZM245.027,399.033C246.813,396.397 246.246,394.129 243.524,393.449L245.027,399.033ZM260.391,616.252L263.877,611.688C261.269,613.106 257.953,612.879 260.391,616.252ZM391.606,371.055C393.222,369.043 393.222,367.427 392.145,365.244C390.557,367.54 390.983,368.249 391.606,371.055ZM193.578,424.12C195.222,421.427 195.307,422.532 193.918,419.244C191.906,422.334 191.877,421.228 193.578,424.12ZM348.208,557.972L351.043,557.915L350.901,555.08C347.839,555.987 348.548,554.995 348.208,557.972ZM430.101,626.995L431.688,631.843L432.539,626.088L430.101,626.995ZM337.266,658.29L340.498,657.95L339.222,655.115C336.104,657.553 337.266,656.05 337.266,658.29ZM425.82,478.743L428.57,472.309C425.367,473.896 425.395,475.767 425.82,478.743ZM222.35,690.038L222.038,696.019C231.874,685.531 221.216,687.487 222.35,690.038ZM379.106,506.636C380.239,508.564 380.126,509.216 382.535,507.061C380.268,503.575 379.446,506.636 379.106,506.636ZM243.893,335.027C245.48,332.872 245.934,332.872 244.517,330.236C242.957,332.504 242.759,332.504 243.893,335.027ZM308.863,561.26C311.046,558.028 309.997,559.871 308.665,557.773C306.794,559.644 305.631,559.389 308.863,561.26ZM225.468,362.665C226.743,365.357 226.715,365.584 229.465,363.77C227.424,362.183 227.934,362.239 225.468,362.665ZM304.866,350.986L309.061,349.313L305.887,347.613L304.866,350.986ZM177.846,406.318C179.66,404.306 179.943,403.143 177.137,402.661C176.655,404.702 175.776,403.54 177.846,406.318ZM237.458,319.294L236.239,315.014L234.085,317.367L237.458,319.294ZM253.049,577.701L254.863,580.847C255.997,578.268 256.224,578.891 254.778,576.709L253.049,577.701ZM321.732,672.35C323.291,669.94 323.773,670.677 321.137,669.061C319.635,671.329 319.493,670.904 321.732,672.35ZM357.222,369.468C358.809,367.257 359.348,367.994 357.364,365.443C355.663,368.05 355.748,366.973 357.222,369.468ZM285.902,232.243L289.644,233.83L288.454,230.315L285.902,232.243ZM245.225,272.58L248.882,274.11L246.472,270.057L245.225,272.58ZM369.439,329.357C371.877,328.224 372.161,329.074 370.205,326.126C367.71,328.139 368.674,327.77 369.439,329.357ZM288.369,326.891C290.778,326.183 290.551,325.701 290.494,323.631C288.142,324.057 288.142,324.085 288.369,326.891ZM368.362,399.487C370.63,398.665 371.055,398.523 369.893,396.34C367.767,397.474 367.795,395.972 368.362,399.487ZM360.964,390.387C362.438,387.921 362.296,388.715 360.737,386.22C359.291,388.658 359.291,387.95 360.964,390.387ZM295.2,645.562C296.391,643.663 297.014,645.109 295.172,642.189C292.507,644.513 293.443,644.23 295.2,645.562ZM330.066,447.874C332.334,449.263 330.917,449.49 333.354,447.987L331.88,445.805L330.066,447.874ZM352.97,233.688C353.991,231.562 354.444,231.449 352.29,229.663C351.156,231.846 351.524,231.789 352.97,233.688ZM284.428,609.732C286.441,606.983 286.271,608.23 284.91,605.565C283.493,607.578 283.266,607.039 284.428,609.732ZM384.633,304.838C387.553,304.271 386.957,304.724 386.901,302.031C384.86,302.428 384.831,301.805 384.633,304.838ZM402.52,284.627L404.249,281.906C400.592,281.735 400.025,281.707 402.52,284.627ZM247.294,368.079C249.534,366.605 249.42,367.398 248.117,364.961C245.82,366.633 245.792,366.123 247.294,368.079ZM310.677,275.414C312.265,272.806 311.981,273.6 310.025,272.324C308.891,273.912 307.644,272.721 310.677,275.414ZM335.82,572.627L338.315,575.291L338.06,571.068L335.82,572.627ZM345.005,676.29L345.912,671.839C343.843,673.285 342.737,673.625 345.005,676.29ZM284.088,453.77L286.894,455.046C286.951,451.729 287.858,453.912 285.25,452.296L284.088,453.77ZM186.973,380.013L189.496,377.83L187.172,376.243L186.973,380.013ZM227.112,250.328L229.55,246.784C226.828,247.181 225.978,248.145 227.112,250.328ZM184.167,554.457C186.406,553.833 186.038,554.542 186.18,551.65C183.685,552.274 184.082,552.529 184.167,554.457ZM330.69,254.608C333.411,254.126 332.674,254.551 332.589,251.631C330.293,253.049 330.775,252.454 330.69,254.608ZM209.197,254.806C210.501,252.227 210.643,253.899 208.885,251.405C207.638,253.276 207.156,252.34 209.197,254.806ZM337.096,286.157L337.039,282.189L334.942,283.946L337.096,286.157ZM312.435,346.904L312.463,343.134C310.337,345.146 309.685,345.288 312.435,346.904ZM202.876,303.789L204.718,299.877C202.054,300.869 201.77,301.408 202.876,303.789ZM244.176,390.586C245.452,388.233 245.48,389.537 244.035,387.326C243.184,388.517 241.767,387.524 244.176,390.586ZM288.595,251.065C291.572,249.874 290.863,251.376 291.033,248.513C288.369,249.052 289.757,248.117 288.595,251.065ZM310.28,443.254L313.398,444.132L312.633,441.439L310.28,443.254ZM426.019,273.685C426.246,271.077 427.068,271.559 424.29,271.729C424.29,273.827 423.694,273.09 426.019,273.685ZM168.831,349.2C170.334,346.932 170.447,348.463 168.973,346.082C167.783,347.669 167.386,346.932 168.831,349.2ZM393.222,541.701L395.065,538.894C392.003,539.291 392.06,539.631 393.222,541.701ZM256.649,258.548L255.969,255.543C254.098,257.443 253.899,257.754 256.649,258.548ZM373.294,604.715L373.55,600.52C371.735,602.504 371.424,601.852 373.294,604.715ZM285.25,270.198C287.121,267.676 286.554,269.036 285.732,267.335C284.655,268.583 283.408,267.165 285.25,270.198ZM325.304,278.22L328.706,275.754C326.353,275.613 325.446,275.896 325.304,278.22ZM318.671,349.115C321.052,350.504 320.287,350.617 321.335,348.746C319.266,347.414 321.506,347.102 318.671,349.115ZM268.299,308.976C269.32,307.247 269.745,308.466 268.129,306.028C266.995,307.389 266.627,306.765 268.299,308.976ZM331.427,231.137C330.775,229.124 331.88,229.833 329.244,229.663C330.038,233.121 329.528,231.335 331.427,231.137ZM166.28,489.912L164.098,490.45L164.806,493.03L166.28,489.912ZM220.62,565.087L221.216,567.439L222.803,563.811L220.62,565.087ZM252.822,480.841C252.765,478.743 253.786,479.169 251.065,479.14C251.235,480.898 250.384,480.529 252.822,480.841ZM296.05,252.709L294.605,254.268L296.901,255.572L296.05,252.709ZM315.666,564.52L316.431,560.778C314.532,562.819 314.391,562.025 315.666,564.52ZM208.12,205.285C209.594,202.592 209.849,195.165 208.517,193.209C207.326,194.967 205.965,202.819 208.12,205.285ZM321.619,322.328C324.227,321.024 323.858,322.98 323.546,319.351L321.619,322.328ZM399.6,621.808L400.904,618.775C398.183,620.164 398.806,618.378 399.6,621.808ZM220.309,299.65L221.698,297.043C219.458,297.78 219.118,297.723 220.309,299.65ZM327.005,656.844L326.948,654.094C324.879,655.739 324.992,655.313 327.005,656.844ZM375.42,315.383C378.17,315.213 377.546,316.006 377.631,313.172L375.42,315.383ZM267.902,606.671L270.028,604.035C267.534,604.658 267.789,604.233 267.902,606.671ZM267.959,271.304L268.639,268.328C267.222,269.773 266.031,268.98 267.959,271.304ZM315.751,345.118L316.006,342.028C314.731,343.304 313.71,342.34 315.751,345.118ZM244.97,432.907C247.266,433.984 246.104,433.757 247.068,432.255C245.509,431.631 246.813,430.838 244.97,432.907ZM377.546,330.888C380.494,331.087 379.616,331.569 379.672,329.074L377.546,330.888ZM349.002,410.995C349.002,410.995 349.88,413.603 350.504,411.506C351.071,409.55 349.115,410.683 349.002,410.995ZM168.18,493.852L170.277,492.18C166.082,492.208 168.463,492.576 168.18,493.852ZM238.054,611.943C240.633,613.332 239.953,612.85 239.754,610.866L238.054,611.943ZM241.767,524.154L243.411,525.345C243.553,522.539 244.006,523.247 241.767,524.154ZM386.192,338.4L386.561,335.82C385.228,337.351 384.35,335.82 386.192,338.4ZM195.109,610.328C195.08,610.554 196.951,612.34 196.441,610.328C195.987,608.627 195.109,610.271 195.109,610.328ZM344.239,453.458L342.539,451.672C342.964,454.932 342.624,453.628 344.239,453.458ZM215.036,591.817L215.32,589.55C213.931,590.967 212.939,589.578 215.036,591.817ZM277.087,407.707L277.795,405.326C276.406,406.715 275.669,405.213 277.087,407.707ZM220.876,622.403C220.876,622.431 223.228,623.934 222.378,622.29C221.783,621.099 220.847,622.29 220.876,622.403ZM213.987,617.868L214.498,615.742C212.825,617.216 212.23,615.742 213.987,617.868ZM382.876,501.165L383.641,499.039C381.997,500.372 381.487,498.784 382.876,501.165ZM377.887,309.94L378.425,307.474C377.15,309.061 376.469,307.814 377.887,309.94ZM360.34,651.6C360.34,651.798 362.75,652.876 362.013,651.685C361.417,650.693 360.34,651.402 360.34,651.6ZM261.439,293.187C261.439,293.216 263.31,294.831 262.743,293.102C262.29,291.742 261.439,293.102 261.439,293.187ZM315.865,362.665L318.274,362.75C315.978,360.992 318.076,361.162 315.865,362.665ZM215.858,431.603L216.227,429.42C214.866,430.951 214.157,429.307 215.858,431.603ZM287.065,316.346C287.065,316.346 289.361,317.679 288.595,316.318C288.142,315.496 287.065,315.921 287.065,316.346ZM243.411,511.682C243.383,511.88 245.14,513.269 244.715,511.824C244.375,510.661 243.439,511.455 243.411,511.682ZM228.841,203.584C228.841,203.754 230.91,204.86 230.287,203.584C229.776,202.564 228.841,203.386 228.841,203.584ZM313.569,597.713L314.079,595.446C312.69,597.118 312.151,595.134 313.569,597.713ZM279.043,431.121C279.043,431.263 281.225,432.454 280.602,431.178C280.091,430.157 279.043,431.065 279.043,431.121ZM174.019,410.995C173.991,411.194 175.663,412.299 175.181,410.825C174.756,409.55 174.019,410.797 174.019,410.995ZM240.094,342.539C240.123,342.879 242.107,343.644 241.512,342.567C241.03,341.688 240.066,342.17 240.094,342.539ZM335.055,378.765C335.055,379.049 336.898,379.871 336.302,378.624C335.764,377.49 335.055,378.68 335.055,378.765ZM338.23,569.055C338.23,569.225 339.846,570.246 339.335,568.8C338.91,567.524 338.23,568.942 338.23,569.055ZM222.803,418.422L223.285,416.58C222.265,417.543 221.272,416.58 222.803,418.422ZM331.058,443.197C331.058,443.282 332.844,444.189 332.249,442.885C331.824,441.865 331.058,442.942 331.058,443.197ZM368.22,340.526C368.277,341.008 369.921,342.198 369.383,340.923C368.901,339.761 368.192,340.243 368.22,340.526ZM171.78,272.069C171.78,272.069 173.395,273.657 172.942,272.154C172.658,271.162 171.808,271.814 171.78,272.069ZM229.805,490.252C229.55,490.507 229.833,491.584 230.4,490.592C230.712,490.054 230.598,489.402 229.805,490.252ZM411.931,415.956L412.668,413.461L411.931,415.956ZM162.397,265.578L162.907,262.517L162.397,265.578ZM363.146,473.584L365.017,472.564L363.146,473.584ZM377.405,319.748L376.98,317.849L377.405,319.748ZM236.721,496.346L237.685,494.079L236.721,496.346ZM423.156,321.165L423.78,318.983L423.156,321.165ZM229.521,390.416L230.627,388.346L229.521,390.416ZM418.904,421.569L419.726,419.669L418.904,421.569ZM374.428,449.83L374.23,447.732L374.428,449.83ZM353.622,407.509L355.805,406.715L353.622,407.509ZM218.183,445.323L219.43,441.524L218.183,445.323ZM221.783,438.066L222.52,435.798L221.783,438.066Z" style="fill:rgb(237,50,55);fill-opacity:0.65;"/>
    </g>
    <g transform="matrix(0.132944,0,0,0.132944,0.279645,-17.1796)">
        <path d="M157.748,327.572C157.748,327.572 142.866,617.017 139.153,666.113C180.085,682.498 247.776,695.877 296.164,695.877" style="fill:none;stroke:rgb(202,206,52);stroke-width:7.44px;"/>
    </g>
    <g transform="matrix(0.132944,0,0,0.132944,0.279645,-17.1796)">
        <path d="M456.123,666.113C451.672,617.017 437.528,327.572 437.528,327.572" style="fill:none;stroke:rgb(202,206,52);stroke-width:7.44px;"/>
    </g>
    <g id="_1411214265360" transform="matrix(0.132944,0,0,0.132944,0.279645,-17.1796)">
        <path d="M389.906,151.2C389.906,183.203 353.452,216.68 298.375,216.68C243.326,216.68 206.872,183.203 206.872,151.2" style="fill:none;stroke:rgb(236,22,38);stroke-width:22.32px;"/>
        <path d="M389.906,151.2C389.906,183.203 353.452,230.088 298.375,230.088C243.326,230.088 206.872,183.203 206.872,151.2" style="fill:none;stroke:black;stroke-width:22.32px;"/>
    </g>
    <g id="_1411214254192" transform="matrix(0.132944,0,0,0.132944,0.279645,-17.1796)">
        <g>
            <path d="M430.101,163.871C430.101,163.871 436.791,172.035 439.767,172.035C442.743,172.035 447.194,160.894 447.194,160.894L462.076,182.466C462.076,182.466 459.865,189.893 458.362,195.109C456.888,200.324 450.935,218.183 447.194,218.92C442.743,219.657 434.551,207.014 430.838,201.798C428.598,198.822 422.646,188.419 422.646,188.419L430.101,163.871Z" style="fill:none;stroke:black;stroke-width:1.86px;"/>
            <path d="M462.076,182.466C462.076,182.466 469.531,190.658 471.77,190.658C474.746,190.658 478.46,179.49 478.46,179.49L493.342,201.798C493.342,201.798 491.839,208.517 490.365,213.704C488.863,218.92 482.91,236.778 479.197,237.515C474.746,238.28 466.554,225.609 462.841,220.422C460.602,217.446 453.912,207.014 453.912,207.014L462.076,182.466Z" style="fill:none;stroke:black;stroke-width:1.86px;"/>
        </g>
        <g>
            <path d="M514.913,186.18C513.439,191.395 507.487,209.254 503.745,209.991C499.294,210.728 491.102,198.085 487.389,192.869C485.15,189.893 479.197,179.49 479.197,179.49L481.436,173.537C480.699,173.537 516.416,181.729 514.913,186.18Z" style="fill:none;stroke:black;stroke-width:1.86px;"/>
            <path d="M540.964,220.422C538.724,224.872 536.485,228.586 535.011,228.586C530.532,229.351 522.369,216.68 518.627,211.493C516.416,208.517 510.463,198.085 510.463,198.085L514.913,186.18C514.913,186.18 543.94,214.469 540.964,220.422Z" style="fill:none;stroke:black;stroke-width:1.86px;"/>
            <path d="M436.791,209.991C436.791,209.991 443.48,218.183 446.457,218.183C449.433,218.183 453.912,207.014 453.912,207.014L468.794,228.586C468.794,228.586 466.554,236.041 465.052,241.257C463.578,246.444 457.625,264.302 453.912,265.068C449.433,265.805 441.241,253.162 437.528,247.946C435.288,244.97 429.335,234.539 429.335,234.539L436.791,209.991Z" style="fill:none;stroke:black;stroke-width:1.86px;"/>
            <path d="M468.794,229.351C468.794,229.351 476.22,237.515 478.46,237.515C481.436,237.515 485.15,226.375 485.15,226.375L500.031,248.683C500.031,248.683 498.557,255.373 497.055,260.589C495.581,265.805 489.628,283.663 485.887,284.4C481.436,285.137 473.244,272.494 469.531,267.279C467.291,263.565 461.339,253.162 461.339,253.162L468.794,229.351Z" style="fill:none;stroke:black;stroke-width:1.86px;"/>
            <path d="M494.079,201.798C494.079,201.798 500.769,209.991 503.745,209.991C506.721,209.991 511.2,198.822 511.2,198.822L526.082,220.422C526.082,220.422 523.843,227.849 522.369,233.065C520.866,238.28 514.913,256.139 511.2,256.876C506.721,257.613 498.557,244.97 494.816,239.754C492.605,236.778 486.652,226.375 486.652,226.375L494.079,201.798Z" style="fill:none;stroke:black;stroke-width:1.86px;"/>
            <path d="M525.345,220.422C525.345,220.422 532.772,228.586 535.011,228.586C537.987,228.586 555.109,246.444 553.606,251.66C552.132,256.876 546.18,274.734 542.438,275.471C537.987,276.208 529.795,263.565 526.082,258.35C523.843,255.373 517.89,244.97 517.89,244.97L525.345,220.422Z" style="fill:none;stroke:black;stroke-width:1.86px;"/>
        </g>
        <g>
            <path d="M444.217,257.613C444.217,257.613 450.935,265.805 453.912,265.805C456.888,265.805 461.339,254.636 461.339,254.636L476.22,276.208C476.22,276.208 473.981,283.663 472.507,288.879C471.005,294.066 465.052,311.924 461.339,312.69C456.888,313.427 448.696,300.784 444.983,295.569C442.743,292.592 436.791,282.161 436.791,282.161L444.217,257.613Z" style="fill:none;stroke:black;stroke-width:1.86px;"/>
            <path d="M476.22,276.208C476.22,276.208 483.676,284.4 485.887,284.4C488.863,284.4 492.605,273.231 492.605,273.231L507.487,295.569C507.487,295.569 505.984,302.258 504.51,307.474C503.008,312.69 497.055,330.548 493.342,331.285C488.863,332.022 480.699,319.38 476.957,314.164C474.746,311.187 468.794,300.784 468.794,300.784L476.22,276.208Z" style="fill:none;stroke:black;stroke-width:1.86px;"/>
        </g>
        <g>
            <path d="M500.769,248.683C500.769,248.683 507.487,256.876 510.463,256.876C513.439,256.876 517.89,245.707 517.89,245.707L532.772,267.279C532.772,267.279 530.532,274.734 529.058,279.95C527.556,285.137 521.603,302.995 517.89,303.761C513.439,304.498 505.247,291.855 501.534,286.639C499.294,283.663 493.342,273.231 493.342,273.231L500.769,248.683Z" style="fill:none;stroke:black;stroke-width:1.86px;"/>
            <path d="M532.772,268.044C532.772,268.044 540.227,276.208 542.438,276.208C545.414,276.208 549.893,265.068 549.893,265.068L564.775,285.902C564.775,285.902 563.272,294.066 561.798,298.545C560.296,303.761 554.343,321.619 550.63,322.356C546.18,323.093 537.987,310.45 534.274,305.235C532.035,302.258 526.082,291.855 526.082,291.855L532.772,268.044Z" style="fill:none;stroke:black;stroke-width:1.86px;"/>
            <path d="M450.935,303.761C450.935,303.761 457.625,311.924 460.602,311.924C463.578,311.924 468.028,300.784 468.028,300.784L482.91,322.356C482.91,322.356 480.699,329.783 479.197,334.998C477.723,340.214 471.77,358.072 468.028,358.809C463.578,359.546 455.386,346.904 451.672,341.688C449.433,338.712 443.48,328.309 443.48,328.309L450.935,303.761Z" style="fill:none;stroke:black;stroke-width:1.86px;"/>
            <path d="M482.91,323.093C482.91,323.093 490.365,331.285 492.605,331.285C495.581,331.285 499.294,320.117 499.294,320.117L514.176,342.454C514.176,342.454 512.674,349.143 511.2,354.359C509.698,359.546 503.745,377.405 500.031,378.17C495.581,378.907 487.389,366.265 483.676,361.049C481.436,358.072 475.483,347.641 475.483,347.641L482.91,323.093Z" style="fill:none;stroke:black;stroke-width:1.86px;"/>
            <path d="M508.224,295.569C508.224,295.569 514.913,303.761 517.89,303.761C520.866,303.761 525.345,292.592 525.345,292.592L540.227,314.164C540.227,314.164 537.987,321.619 536.485,326.806C535.011,332.022 529.058,349.88 525.345,350.617C520.866,351.383 512.674,338.712 508.961,333.524C506.721,330.548 500.769,320.117 500.769,320.117L508.224,295.569Z" style="fill:none;stroke:black;stroke-width:1.86px;"/>
            <path d="M539.461,314.164C539.461,314.164 546.917,322.356 549.156,322.356C552.132,322.356 556.583,311.187 556.583,311.187L571.465,332.022C571.465,332.022 569.991,340.214 568.488,344.665C567.014,349.88 561.061,367.739 557.32,368.476C552.869,369.241 544.677,356.57 540.964,351.383C538.724,348.406 532.772,337.975 532.772,337.975L539.461,314.164Z" style="fill:none;stroke:black;stroke-width:1.86px;"/>
        </g>
    </g>
    <g id="_1411214240432" transform="matrix(0.132944,0,0,0.132944,0.279645,-17.1796)">
        <g>
            <path d="M163.701,163.871C163.701,163.871 157.011,172.035 154.035,172.035C151.058,172.035 146.58,160.894 146.58,160.894L131.698,182.466C131.698,182.466 133.937,189.893 135.439,195.109C136.913,200.324 142.866,218.183 146.58,218.92C151.058,219.657 159.25,207.014 162.964,201.798C165.203,198.822 171.156,188.419 171.156,188.419L163.701,163.871Z" style="fill:none;stroke:black;stroke-width:1.86px;"/>
            <path d="M131.698,182.466C131.698,182.466 124.271,190.658 122.031,190.658C119.055,190.658 115.342,179.49 115.342,179.49L100.46,201.798C100.46,201.798 101.934,208.517 103.436,213.704C104.91,218.92 110.863,236.778 114.605,237.515C119.055,238.28 127.247,225.609 130.961,220.422C133.2,217.446 139.153,207.014 139.153,207.014L131.698,182.466Z" style="fill:none;stroke:black;stroke-width:1.86px;"/>
        </g>
        <g>
            <path d="M78.888,186.18C80.362,191.395 86.315,209.254 90.028,209.991C94.507,210.728 102.699,198.085 106.413,192.869C108.652,189.893 114.605,179.49 114.605,179.49L112.365,173.537C113.102,173.537 77.386,181.729 78.888,186.18Z" style="fill:none;stroke:black;stroke-width:1.86px;"/>
            <path d="M52.838,220.422C55.077,224.872 57.288,228.586 58.791,228.586C63.241,229.351 71.433,216.68 75.146,211.493C77.386,208.517 83.339,198.085 83.339,198.085L79.625,186.18C79.625,186.18 49.861,214.469 52.838,220.422Z" style="fill:none;stroke:black;stroke-width:1.86px;"/>
            <path d="M157.011,209.991C157.011,209.991 150.321,218.183 147.345,218.183C144.369,218.183 139.89,207.014 139.89,207.014L125.008,228.586C125.008,228.586 127.247,236.041 128.721,241.257C130.224,246.444 136.176,264.302 139.89,265.068C144.369,265.805 152.532,253.162 156.274,247.946C158.485,244.97 164.438,234.539 164.438,234.539L157.011,209.991Z" style="fill:none;stroke:black;stroke-width:1.86px;"/>
            <path d="M125.008,229.351C125.008,229.351 117.581,237.515 115.342,237.515C112.365,237.515 108.652,226.375 108.652,226.375L93.77,248.683C93.77,248.683 95.244,255.373 96.746,260.589C98.22,265.805 104.173,283.663 107.887,284.4C112.365,285.137 120.557,272.494 124.271,267.279C126.51,264.302 132.463,253.899 132.463,253.899L125.008,229.351Z" style="fill:none;stroke:black;stroke-width:1.86px;"/>
            <path d="M100.46,201.798C100.46,201.798 93.77,209.991 90.794,209.991C87.817,209.991 83.339,198.822 83.339,198.822L68.457,220.422C68.457,220.422 70.696,227.849 72.17,233.065C73.672,238.28 79.625,256.139 83.339,256.876C87.817,257.613 95.981,244.97 99.723,239.754C101.934,236.778 107.887,226.375 107.887,226.375L100.46,201.798Z" style="fill:none;stroke:black;stroke-width:1.86px;"/>
            <path d="M68.457,220.422C68.457,220.422 61.03,228.586 58.791,228.586C55.814,228.586 38.693,246.444 40.195,251.66C41.669,256.876 47.622,274.734 51.335,275.471C55.814,276.208 64.006,263.565 67.72,258.35C69.959,255.373 75.912,244.97 75.912,244.97L68.457,220.422Z" style="fill:none;stroke:black;stroke-width:1.86px;"/>
        </g>
        <g>
            <path d="M149.556,257.613C149.556,257.613 142.866,265.805 139.89,265.805C136.913,265.805 132.463,254.636 132.463,254.636L117.581,276.208C117.581,276.208 119.792,283.663 121.294,288.879C122.769,294.066 128.721,311.924 132.463,312.69C136.913,313.427 145.106,300.784 148.819,295.569C151.058,292.592 157.011,282.161 157.011,282.161L149.556,257.613Z" style="fill:none;stroke:black;stroke-width:1.86px;"/>
            <path d="M117.581,276.208C117.581,276.208 110.126,284.4 107.887,284.4C104.91,284.4 101.197,273.231 101.197,273.231L86.315,295.569C86.315,295.569 87.817,302.258 89.291,307.474C90.794,312.69 96.746,330.548 100.46,331.285C104.91,332.022 113.102,319.38 116.816,314.164C119.055,311.187 125.008,300.784 125.008,300.784L117.581,276.208Z" style="fill:none;stroke:black;stroke-width:1.86px;"/>
        </g>
        <g>
            <path d="M93.005,248.683C93.005,248.683 86.315,256.876 83.339,256.876C80.362,256.876 75.912,245.707 75.912,245.707L61.03,267.279C61.03,267.279 63.241,274.734 64.743,279.95C66.217,285.137 72.17,302.995 75.912,303.761C80.362,304.498 88.554,291.855 92.268,286.639C94.507,283.663 100.46,273.231 100.46,273.231L93.005,248.683Z" style="fill:none;stroke:black;stroke-width:1.86px;"/>
            <path d="M61.03,268.044C61.03,268.044 53.575,276.208 51.335,276.208C48.359,276.208 43.909,265.068 43.909,265.068L29.027,285.902C29.027,285.902 30.501,294.066 32.003,298.545C33.477,303.761 39.43,321.619 43.172,322.356C47.622,323.093 55.814,310.45 59.528,305.235C61.767,302.258 67.72,291.855 67.72,291.855L61.03,268.044Z" style="fill:none;stroke:black;stroke-width:1.86px;"/>
            <path d="M142.866,303.761C142.866,303.761 136.176,311.924 133.2,311.924C130.224,311.924 125.745,300.784 125.745,300.784L110.863,322.356C110.863,322.356 113.102,329.783 114.605,334.998C116.079,340.214 122.031,358.072 125.745,358.809C130.224,359.546 138.416,346.904 142.129,341.688C144.369,338.712 150.321,328.309 150.321,328.309L142.866,303.761Z" style="fill:none;stroke:black;stroke-width:1.86px;"/>
            <path d="M110.863,323.093C110.863,323.093 103.436,331.285 101.197,331.285C98.22,331.285 94.507,320.117 94.507,320.117L79.625,342.454C79.625,342.454 81.099,349.143 82.602,354.359C84.076,359.546 90.028,377.405 93.77,378.17C98.22,378.907 106.413,366.265 110.126,361.049C112.365,358.072 118.318,347.641 118.318,347.641L110.863,323.093Z" style="fill:none;stroke:black;stroke-width:1.86px;"/>
            <path d="M86.315,295.569C86.315,295.569 79.625,303.761 76.649,303.761C73.672,303.761 69.194,292.592 69.194,292.592L54.312,314.164C54.312,314.164 56.551,321.619 58.054,326.806C59.528,331.285 65.48,349.88 69.194,349.88C73.672,350.617 81.865,337.975 85.578,332.759C87.817,329.783 93.77,319.38 93.77,319.38L86.315,295.569Z" style="fill:none;stroke:black;stroke-width:1.86px;"/>
            <path d="M54.312,314.164C54.312,314.164 46.885,322.356 44.646,322.356C41.669,322.356 37.219,311.187 37.219,311.187L22.337,332.022C22.337,332.022 23.811,340.214 25.313,344.665C26.787,349.88 32.74,367.739 36.454,368.476C40.932,369.241 49.124,356.57 52.838,351.383C55.077,348.406 61.03,337.975 61.03,337.975L54.312,314.164Z" style="fill:none;stroke:black;stroke-width:1.86px;"/>
        </g>
    </g>
    <g id="_1411214270480" transform="matrix(0.132944,0,0,0.132944,0.279645,-17.1796)">
        <path d="M293.357,366.775L295.795,366.973C294.265,369.496 290.58,371.169 287.66,371.452L287.376,369.524C285.392,367.795 285.676,357.477 283.861,349.88C283.124,346.904 282.189,343.899 281.282,340.951C280.148,337.323 281.169,334.573 278.901,331.852C273.827,347.272 273.855,352.148 266.655,369.099C265.606,374.315 264.529,372.813 259.483,373.493C255.997,374.003 252.992,374.655 249.477,374.967C236.353,376.214 207.326,383.386 195.874,388.942C196.384,392.031 204.009,406.913 205.654,409.691C209.31,415.757 206.872,414.085 204.52,419.896C199.814,431.546 201.061,432.454 208.743,440.561C219.458,451.871 229.946,450.822 239.301,456.094L243.865,457.058C244.233,457.228 246.728,458.872 247.918,459.553C251.433,461.452 253.361,463.294 256.139,465.732C260.476,469.559 270.34,476.079 271.106,478.687C271.672,478.488 272.806,478.12 273.118,477.95C275.953,479.282 283.408,484.526 286.072,484.724C288.51,484.894 286.243,485.121 288.17,483.931C288.312,483.874 288.425,483.761 288.567,483.676C288.68,483.591 288.85,483.506 288.964,483.42C289.106,483.364 289.304,483.25 289.417,483.194C292.791,481.323 296.504,488.636 297.071,492.435C297.638,498.076 298.857,502.639 298.942,509.272C325.672,507.713 348.775,484.923 352.715,460.602L353.537,449.66C355.096,441.78 349.143,435.09 351.751,430.611C351.893,430.384 357.959,423.326 361.474,417.883L369.666,403.71C372.756,398.069 375.25,390.416 377.546,388.8C375.137,386.759 369.978,386.532 368.05,384.463C367.71,383.443 368.079,382.961 368.504,382.337C369.184,381.288 370.63,380.523 373.408,376.243C375.477,373.068 377.887,370.743 379.191,367.398C373.209,368.617 368.986,372.189 364.252,374.513C363.203,376.243 359.631,377.972 357.676,378.935C352.743,381.402 347.953,378.992 339.959,377.291C333.808,375.987 331.852,376.781 332.561,374.315L331.342,374.117C333.893,367.654 337.38,367.682 341.802,355.606L349.172,333.865C347.471,334.998 348.321,334.431 347.017,336.076L333.298,351.666C328.847,356.003 321.647,366.52 316.828,368.929C318.954,361.531 329.244,341.008 330.888,330.463C328.365,331.852 323.461,337.918 321.534,339.959C311.641,350.391 311.046,352.517 298.205,362.693C296.476,364.054 294.973,365.584 293.357,366.775Z" style="fill:rgb(16,16,16);"/>
        <path d="M279.184,420.35C283.89,424.658 307.531,420.18 311.556,419.187C313.257,418.762 315.411,418.592 317.112,417.883L321.959,415.786C326.183,414.425 327.203,412.356 330.86,410.797C329.613,414.765 317.112,419.613 312.775,420.605C303.165,422.731 298.828,423.666 287.631,423.751C309.912,425.254 313.654,426.728 335.169,421.398C337.635,420.803 341.206,420.435 343.559,419.613L339.42,414.567C337.068,415.956 334.148,416.948 331.483,417.94C330.094,418.45 328.734,418.876 327.118,419.386C321.789,421.115 322.923,419.584 322.356,418.989C329.301,416.409 332.419,417.458 338.428,413.263C339.024,412.866 339.165,412.753 339.477,412.469C338.145,407.792 335.565,407.055 336.557,400.876C338.513,399.288 339.931,399.402 342.283,398.098L358.951,387.128C357.874,386.022 361.928,382.564 349.313,390.076C336.784,397.531 333.524,398.409 320.598,404.589C315.893,406.828 295.767,415.417 290.466,416.948C286.583,418.054 282.784,418.847 279.184,420.35Z" style="fill:rgb(70,59,74);"/>
        <path d="M264.132,396.992C266.74,397.701 272.891,397.049 273.713,396.34L273.713,403.852L260.702,410.287C265.493,401.669 267.165,404.504 268.526,398.665C268.101,398.778 265.776,399.515 265.635,399.742C265.096,400.677 265.89,401.244 265.918,401.074C265.918,400.961 266.06,401.357 266.06,401.528C262.857,404.05 262.488,403.313 261.609,404.617C258.18,408.104 256.989,407.254 256.989,414.709L264.643,414.198C264.047,415.531 264.472,414.964 263.169,415.814C260.759,417.402 252.51,419.046 249.789,419.556C244.658,420.548 237.175,421.767 231.704,421.285C232.016,418.592 231.902,420.066 233.376,417.969C230.882,419.244 229.493,419.953 226.743,420.888L221.301,422.277C220.054,422.787 220.649,422.447 219.855,423.156L223.625,423.921C221.017,424.261 219.458,424.998 217.417,425.962C216.595,426.359 215.405,427.068 214.724,427.351C212.825,428.173 213.42,428.23 211.946,427.436C211.635,425.31 211.068,422.419 212.343,420.265C207.694,420.718 208.035,428.003 206.731,424.658C206.476,425.055 206.306,425.282 206.107,426.076L205.427,430.894C208.913,430.271 211.72,430.753 215.546,430.809C220.11,430.894 220.592,432 224.164,432.737L226.261,430.668C229.153,428.343 235.276,423.468 238.734,422.957C240.775,422.646 245.14,423.241 244.375,424.318L251.688,429.902L249.25,430.526L252.34,431.546C252.369,428.287 252.113,430.951 253.077,429.761C255.685,432 259.852,432.624 264.019,432.737C262.403,429.789 258.066,428.457 258.208,424.233C267.449,430.157 271.757,429.704 282.472,429.761C280.602,427.89 279.893,428.825 277.625,427.578C274.677,425.962 265.975,420.123 265.606,417.458C276.321,417.855 279.723,416.863 289.077,412.98C290.948,412.214 294.718,411.477 295.313,409.72C291.742,409.323 287.206,410.683 283.493,410.769C279.581,410.825 274.847,410.315 270.709,410.145C272.353,407.622 273.09,407.565 274.45,407.112L274.932,403.852L276.803,393.506C274.62,393.959 265.946,395.802 264.132,396.992Z" style="fill:rgb(38,54,65);"/>
        <path d="M368.05,384.463C369.978,386.532 375.137,386.759 377.546,388.8L386.901,392.598C388.403,393.591 387.269,392.287 388.205,394.044C388.148,392.683 387.468,396.283 387.213,396.935C383.499,406.687 379.106,415.049 373.72,423.808C370.488,429.024 357.137,447.562 353.537,449.66L352.715,460.602C353.31,459.383 377.206,434.098 379.899,427.691C381.317,424.318 381.402,425.962 382.932,423.213L390.728,408.557C393.789,402.548 397.389,393.931 399.572,387.298C397.956,385.654 383.669,380.551 379.984,379.304C377.83,378.567 375.817,378.935 373.011,378.17C371.877,379.871 369.723,383.556 368.05,384.463Z" style="fill:rgb(226,232,20);"/>
        <path d="M353.537,449.66C357.137,447.562 370.488,429.024 373.72,423.808C379.106,415.049 383.499,406.687 387.213,396.935C387.468,396.283 388.148,392.683 388.205,394.044C387.269,392.287 388.403,393.591 386.901,392.598L377.546,388.8C375.25,390.416 372.756,398.069 369.666,403.71L361.474,417.883C357.959,423.326 351.893,430.384 351.751,430.611C349.143,435.09 355.096,441.78 353.537,449.66Z" style="fill:rgb(126,116,40);"/>
        <path d="M206.334,432.142C207.95,436.904 217.559,444.359 223.143,446.372C222.293,443.707 220.564,441.071 219.402,438.236C223.37,438.406 231.534,442.488 235.02,444.274C243.468,448.583 244.29,451.984 249.08,452.976C248.627,450.057 247.946,447.534 246.132,445.238L244.517,443.31L253.304,444.047C252.907,444.359 252.822,444.472 251.915,444.784C251.802,444.841 251.065,444.983 250.894,445.039C261.666,447.392 266.287,458.107 267.307,459.213C268.186,460.176 267.874,459.865 269.008,460.545L268.413,451.814C279.213,454.252 281.707,460.913 285.222,464.939C285.761,465.562 285.222,464.91 285.817,465.591L286.441,466.271C285.364,450.879 273.033,435.118 259.427,433.191C260.844,436.082 264.359,440.22 265.124,442.97C254.239,442.63 232.384,435.175 224.901,434.494L230.769,436.876C229.011,436.649 227.112,436.28 225.468,435.855C223.313,435.317 222.917,434.636 220.734,433.984L222.973,433.616C216.765,432.028 213.591,430.214 206.334,432.142Z" style="fill:rgb(38,54,65);"/>
        <path d="M282.047,435.317C282.643,436.876 283.011,436.961 284.315,438.18C285.279,439.058 285.761,439.597 286.668,440.419C288.624,442.233 289.191,443.083 290.92,445.351C305.433,464.57 299.906,480.302 300.813,489.005C301.011,490.45 302.088,494.759 303.08,496.035C310.762,488.154 309.798,475.002 311.102,472.961C312.463,471.572 319.238,469.814 321.506,468.907C325.106,467.461 328.762,465.477 331.455,463.946C330.435,463.266 331.455,462.841 326.835,464.428C320.995,466.469 316.857,467.688 310.365,467.858C310.054,461.027 307.332,457.427 306.227,451.304C309.657,450.765 313.087,449.15 315.893,447.732C318.217,446.57 322.554,444.671 324.057,442.375C310.904,444.189 306.227,451.219 300.784,444.132C298.913,441.694 297.751,440.504 296.05,438.605C294.718,439.058 294.86,439.342 295.398,438.009C294.094,436.847 291.373,434.863 289.616,433.956C285.647,431.858 285.817,434.523 282.047,435.317Z" style="fill:rgb(226,232,20);"/>
        <path d="M215.49,396.283C216.312,399.033 217.672,402.066 219.118,404.164L237.203,395.178L226.743,408.728C224.957,410.91 224.532,410.287 223.285,413.49C232.753,415.786 246.444,400.11 251.405,393.619C253.276,391.153 257.301,387.184 258.094,384.321C246.132,384.831 226.602,392.882 215.49,396.283Z" style="fill:rgb(236,22,38);"/>
        <path d="M296.277,492.435C294.605,490.847 295.143,492.038 292.564,490.961L276.888,481.861C271.361,478.006 272.183,480.416 271.106,478.687C270.34,476.079 260.476,469.559 256.139,465.732C253.361,463.294 251.433,461.452 247.918,459.553C246.728,458.872 244.233,457.228 243.865,457.058L239.301,456.094L235.191,455.471C236.92,460.403 258.265,476.419 263.509,480.274C268.157,483.704 291.628,498.926 297.354,499.918L296.277,492.435Z" style="fill:rgb(226,232,20);"/>
        <path d="M329.471,365.754C328.45,368.816 328.167,368.249 326.494,370.261C325.701,371.225 325.729,371.594 324.85,372.643C323.631,374.088 324.312,372.643 323.121,374.4C322.384,376.951 314.164,385.257 311.698,387.666C310.11,389.225 308.92,390.444 307.276,391.89C304.554,394.299 290.098,405.354 289.106,407.282L312.123,399.6C321.307,396.17 325.191,393.109 332.22,388.63C329.613,386.787 325.871,385.625 324.085,382.847C321.165,378.369 323.745,377.915 329.754,371.197C332.164,368.476 337.748,360.34 337.635,356.627C334.8,359.178 335.339,359.802 331.285,362.948C329.698,364.167 329.868,363.883 329.471,365.754Z" style="fill:rgb(42,56,67);"/>
        <path d="M300.813,489.005C299.906,480.302 305.433,464.57 290.92,445.351C289.191,443.083 288.624,442.233 286.668,440.419C285.761,439.597 285.279,439.058 284.315,438.18C283.011,436.961 282.643,436.876 282.047,435.317C279.354,436.28 275.783,435.657 272.835,435.798C273.458,437.414 274.734,437.783 276.435,439.115C280.772,442.545 283.918,447.08 286.469,452.154C292.535,464.315 290.098,464.372 290.466,477.553C291.6,478.346 292.677,478.63 293.754,479.395C294.718,480.076 296.022,481.521 296.674,482.23C298.828,484.611 299.764,487.587 300.813,489.005Z" style="fill:rgb(125,114,39);"/>
        <path d="M343.304,403.597C343.786,409.975 344.92,410.173 348.038,413.575C350.079,415.786 353.112,419.131 356.06,419.924C358.157,417.912 371.537,394.016 371.594,390.586C361.276,383.471 364.252,395.631 343.304,403.597Z" style="fill:rgb(236,22,38);"/>
        <path d="M259.71,396.964C259.852,397.02 260.079,396.935 260.135,397.077L261.836,397.191C263.31,397.106 262.176,396.737 264.132,396.992C265.946,395.802 274.62,393.959 276.803,393.506L274.932,403.852C279.808,398.863 278.249,400.791 282.586,397.134C287.461,393.024 297.156,385.313 300.841,380.835C304.328,376.583 303.137,380.041 303.789,376.554C299.82,378.113 300.189,378.425 297.524,380.976C295.767,382.649 294.463,384.038 291.628,384.548C295.88,380.92 292.819,384.888 298.828,378.85L310.734,364.847C312.633,362.126 314.306,360.312 316.148,357.222L303.335,368.391C293.414,376.271 271.502,391.153 259.71,396.964Z" style="fill:rgb(125,114,39);"/>
        <path d="M316.148,357.222C314.306,360.312 312.633,362.126 310.734,364.847L298.828,378.85C292.819,384.888 295.88,380.92 291.628,384.548C294.463,384.038 295.767,382.649 297.524,380.976C300.189,378.425 299.82,378.113 303.789,376.554C303.137,380.041 304.328,376.583 300.841,380.835C297.156,385.313 287.461,393.024 282.586,397.134C278.249,400.791 279.808,398.863 274.932,403.852L274.45,407.112C287.32,401.783 303.364,384.038 310.167,372.331C311.868,369.411 317.452,358.951 317.537,355.521L316.148,357.222Z" style="fill:rgb(226,232,20);"/>
        <path d="M264.132,396.992C262.176,396.737 263.31,397.106 261.836,397.191L260.135,397.077C260.079,396.935 259.852,397.02 259.71,396.964C258.094,399.317 252.283,401.528 249.364,403.682C247.436,405.128 241.795,410.598 240.775,412.498C244.346,410.939 247.351,407.339 251.15,406.687C250.157,408.331 250.866,408.246 248.967,409.606C246.898,411.08 243.439,412.753 240.973,414.907C239.272,416.409 239.046,417.742 237.883,417.798C239.471,415.672 246.019,413.773 249.279,411.789C251.15,410.627 253.361,409.465 255.005,408.189C257.102,406.488 259.257,405.666 261.609,404.617C262.488,403.313 262.857,404.05 266.06,401.528C266.06,401.357 265.918,400.961 265.918,401.074C265.89,401.244 265.096,400.677 265.635,399.742C265.776,399.515 268.101,398.778 268.526,398.665C267.165,404.504 265.493,401.669 260.702,410.287L273.713,403.852L273.713,396.34C272.891,397.049 266.74,397.701 264.132,396.992Z" style="fill:rgb(50,69,83);"/>
        <path d="M240.775,412.498C240.009,414.142 239.386,414.142 237.373,415.304C235.729,416.268 235.049,416.835 233.376,417.969C231.902,420.066 232.016,418.592 231.704,421.285C237.175,421.767 244.658,420.548 249.789,419.556C252.51,419.046 260.759,417.402 263.169,415.814C264.472,414.964 264.047,415.531 264.643,414.198L256.989,414.709C256.989,407.254 258.18,408.104 261.609,404.617C259.257,405.666 257.102,406.488 255.005,408.189C253.361,409.465 251.15,410.627 249.279,411.789C246.019,413.773 239.471,415.672 237.883,417.798C239.046,417.742 239.272,416.409 240.973,414.907C243.439,412.753 246.898,411.08 248.967,409.606C250.866,408.246 250.157,408.331 251.15,406.687C247.351,407.339 244.346,410.939 240.775,412.498Z" style="fill:rgb(21,21,21);"/>
        <path d="M195.874,388.942C207.326,383.386 236.353,376.214 249.477,374.967C252.992,374.655 255.997,374.003 259.483,373.493C264.529,372.813 265.606,374.315 266.655,369.099C245.764,373.068 211.039,379.417 193.096,389.282C193.209,394.186 200.75,406.998 203.556,412.923L204.831,415.191C205.739,416.268 204.69,415.332 205.909,416.211C206.929,412.016 204.094,408.841 200.863,402.378C199.587,399.827 194.428,391.493 195.874,388.942Z" style="fill:rgb(226,232,20);"/>
        <path d="M258.151,396.68C260.816,392.854 264.557,392.117 270.057,385.2C271.843,382.989 277.795,374.797 277.228,370.97C276.831,371.934 276.406,373.323 275.726,374.23C275.272,374.797 276.18,374.428 274.677,375.052C273.572,375.534 274.422,375.25 273.94,375.024C273.77,373.124 273.685,373.011 275.159,371.82C274.961,366.605 277.852,360.34 277.54,353.055C276.038,357.364 275.187,360.907 273.26,365.357L264.898,382.932C262.715,387.893 256.62,392.797 254.75,398.608L258.151,396.68Z" style="fill:rgb(88,110,123);"/>
        <path d="M332.561,374.315C331.852,376.781 333.808,375.987 339.959,377.291C347.953,378.992 352.743,381.402 357.676,378.935C359.631,377.972 363.203,376.243 364.252,374.513C358.696,373.465 340.809,370.091 335.906,370.375C334.29,372.274 334.261,372.756 332.561,374.315Z" style="fill:rgb(226,232,20);"/>
        <path d="M275.159,371.82C273.685,373.011 273.77,373.124 273.94,375.024C274.422,375.25 273.572,375.534 274.677,375.052C276.18,374.428 275.272,374.797 275.726,374.23C276.406,373.323 276.831,371.934 277.228,370.97C277.795,374.797 271.843,382.989 270.057,385.2C264.557,392.117 260.816,392.854 258.151,396.68C261.836,394.384 264.728,392.003 268.554,389.48C270.369,388.318 271.899,387.071 273.6,385.88C282.898,379.417 282.813,381.118 281.565,367.03C281.14,362.126 280.29,356.258 278.447,352.403C278.277,360.992 275.924,366.35 275.159,371.82Z" style="fill:rgb(47,66,80);"/>
        <path d="M308.778,454.876C309.203,457.172 309.94,458.164 310.535,460.29C311.074,462.217 311.159,464.91 311.726,466.554C314.957,466.894 323.631,464.598 326.806,462.699L328.564,461.197C315.609,457.795 315.411,451.531 308.778,454.876Z" style="fill:rgb(125,114,39);"/>
        <path d="M230.683,430.724C229.975,432.028 230.258,431.008 230.202,432.312C236.891,433.899 255.146,439.143 260.674,439.172C254.239,429.506 250.951,439.597 236.409,431.631C242.929,432.567 248.769,434.835 255.572,432.907L252.34,431.546L249.25,430.526C241.483,428.825 238.677,426.869 230.683,430.724Z" style="fill:rgb(252,252,250);"/>
        <path d="M206.731,424.658C208.035,428.003 207.694,420.718 212.343,420.265C211.068,422.419 211.635,425.31 211.946,427.436C213.42,428.23 212.825,428.173 214.724,427.351C215.405,427.068 216.595,426.359 217.417,425.962C219.458,424.998 221.017,424.261 223.625,423.921L219.855,423.156C220.649,422.447 220.054,422.787 221.301,422.277L226.743,420.888C229.493,419.953 230.882,419.244 233.376,417.969C235.049,416.835 235.729,416.268 237.373,415.304C239.386,414.142 240.009,414.142 240.775,412.498C238.365,413.178 235.899,415.786 229.039,417.912C226.29,418.762 219.118,421.087 216.227,420.435L215.348,420.094C212.769,419.159 216.482,412.866 216.85,411.08C212.513,413.802 209.48,419.272 206.731,424.658Z" style="fill:rgb(88,110,123);"/>
        <path d="M323.121,374.4C324.312,372.643 323.631,374.088 324.85,372.643C325.729,371.594 325.701,371.225 326.494,370.261C328.167,368.249 328.45,368.816 329.471,365.754L318.926,376.498C311.414,383.584 304.526,390.076 296.334,396.51C292.252,399.685 285.222,403.71 284.23,406.29C289.786,406.375 296.617,399.515 300.104,396.227C302.06,394.384 303.591,394.044 305.405,392.343L323.121,374.4Z" style="fill:rgb(234,21,38);"/>
        <path d="M284.655,477.78C284.258,469.899 279.524,461.31 274.989,459.383C274.082,462.472 272.608,469.899 274.791,471.855L284.655,477.78Z" style="fill:rgb(236,22,38);"/>
        <path d="M271.106,478.687C272.183,480.416 271.361,478.006 276.888,481.861L292.564,490.961C295.143,492.038 294.605,490.847 296.277,492.435L297.071,492.435C296.504,488.636 292.791,481.323 289.417,483.194C289.304,483.25 289.106,483.364 288.964,483.42C288.85,483.506 288.68,483.591 288.567,483.676C288.425,483.761 288.312,483.874 288.17,483.931C286.243,485.121 288.51,484.894 286.072,484.724C283.408,484.526 275.953,479.282 273.118,477.95C272.806,478.12 271.672,478.488 271.106,478.687Z" style="fill:rgb(126,116,40);"/>
        <path d="M230.683,430.724C238.677,426.869 241.483,428.825 249.25,430.526L251.688,429.902L244.375,424.318C240.831,424.46 239.102,423.326 236.013,425.452C234.567,426.472 234.369,426.983 233.32,427.946C231.477,429.591 231.676,428.457 230.683,430.724Z" style="fill:rgb(171,171,171);"/>
        <path d="M296.05,438.605C300.132,439.909 302.995,444.699 304.186,445.38C306.652,446.74 310.337,444.983 313.342,444.104L316.517,442.942C312.236,442.375 309.515,441.808 305.631,440.419C302.91,439.455 298.006,436.677 295.398,438.009C294.86,439.342 294.718,439.058 296.05,438.605Z" style="fill:rgb(125,114,39);"/>
        <path d="M347.953,384.86C343.361,383.216 337.918,382.252 332.249,382.167C333.723,385.313 335.169,384.038 340.186,386.362C343.446,387.865 345.798,387.468 347.953,384.86Z" style="fill:rgb(234,21,38);"/>
        <path d="M265.124,463.238C263.877,458.759 259.54,452.211 255.458,451.729C256.706,457.427 260.787,461.112 265.124,463.238Z" style="fill:rgb(234,21,38);"/>
        <path d="M287.376,369.524L287.66,371.452C290.58,371.169 294.265,369.496 295.795,366.973L293.357,366.775L287.688,367.172L287.376,369.524Z" style="fill:rgb(226,232,20);"/>
        <path d="M246.302,417.855C249.279,417.657 252.057,417.146 253.956,415.843L254.154,412.243C250.894,412.583 247.493,414.68 246.302,417.855Z" style="fill:rgb(221,227,44);"/>
    </g>
    <path d="M40.2,75.6C47.1,75.5 56.9,73.8 62.6,71.6C61.9,65 59.9,26.1 59.9,26.1C59.9,26.1 62,31.2 63.1,34C67.8,33.6 75.4,32.7 78.4,27.8C75.5,21 73.3,13.2 71,8.1C71,8.1 60.6,4.3 52.4,1.7C52.4,1.7 51.5,1.4 51.1,2.1C48.1,6.3 46.6,9.2 39.9,9.2C33.5,9.1 31.9,6.3 29,2.1C28.5,1.4 27.6,1.7 27.6,1.7C19.5,4.2 9,8.1 9,8.1C6.7,13.2 4.5,21.1 1.6,27.8C4.6,32.6 12,33.6 16.9,34C18,31.2 20.1,26.1 20.1,26.1C20.1,26.1 18,65 17.4,71.6C23.2,73.8 32.9,75.6 39.8,75.6" style="fill:none;fill-rule:nonzero;stroke:black;stroke-width:3px;stroke-linecap:round;stroke-linejoin:round;"/>
</svg>
