<?xml version="1.0" encoding="UTF-8"?><svg xmlns="http://www.w3.org/2000/svg" xmlns:xlink="http://www.w3.org/1999/xlink" version="1.1" id="Layer_1" x="0px" y="0px" viewBox="0 0 80 77.1" style="enable-background:new 0 0 80 77.1;" xml:space="preserve"><style type="text/css">.st0{fill:none;stroke:#000000;stroke-width:3;stroke-linecap:round;stroke-linejoin:round;} .st1{fill:none;stroke:#cacaca;stroke-width:0.5;stroke-linecap:butt;stroke-linejoin:miter;stroke-miterlimit:4;stroke-dasharray:none;stroke-opacity:1;} .st2{fill:none;stroke:#186949;stroke-width:3.4000001;stroke-linecap:square;stroke-linejoin:round;stroke-miterlimit:4;stroke-dasharray:none;stroke-opacity:1} .st3{fill:#ffffff;stroke:#000000;stroke-width:3;stroke-linecap:round;stroke-linejoin:round;} </style><path class="st3" d="m 40.2,75.6 c 6.9,-0.1 16.7,-1.8 22.4,-4 -0.7,-6.6 -2.7,-45.5 -2.7,-45.5 0,0 2.1,5.1 3.2,7.9 4.7,-0.4 12.3,-1.3 15.3,-6.2 C 75.5,21 73.3,13.2 71,8.1 71,8.1 60.6,4.3 52.4,1.7 c 0,0 -0.9,-0.3 -1.3,0.4 -3,4.2 -4.5,7.1 -11.2,7.1 v 0 C 33.5,9.1 31.9,6.3 29,2.1 28.5,1.4 27.6,1.7 27.6,1.7 19.5,4.2 9,8.1 9,8.1 c -2.3,5.1 -4.5,13 -7.4,19.7 3,4.8 10.4,5.8 15.3,6.2 1.1,-2.8 3.2,-7.9 3.2,-7.9 0,0 -2.1,38.9 -2.7,45.5 5.8,2.2 15.5,4 22.4,4 v 0"/><path class="st1" d="m 22.546336,41.200978 c 0.808807,-1.063299 8.159935,-7.444932 8.69019,-7.179805 0.749475,0.374738 -0.264291,3.071012 -0.415903,3.677461 -1.177361,4.709446 -5.097131,9.947748 -8.755859,13.221347"/><path class="st1" d="m 25.00044,38.853716 c 3.175353,-5.7203 7.953062,-11.890086 13.138135,-16.392179 0.760007,-0.659898 4.776384,-3.5938 4.951506,-2.573157 1.159489,6.75772 -10.509179,14.686473 -12.251859,17.7215"/><path class="st1" d="m 40.802509,20.56319 c -0.783483,-2.150736 9.667499,-7.856922 13.158993,-10.184585 4.3863,-2.5677626 4.26784,-0.4245243 2.163553,2.650397 -2.78633,4.179494 -8.026283,8.129298 -13.105829,8.942025"/><path class="st1" d="m 55.695572,13.660993 c 6.59443,-3.50441 4.55654,0.750744 2.514719,4.01858 -1.095184,1.752792 -12.818235,7.746212 -17.437685,9.184847"/><path class="st1" d="m 38.17547,29.98942 c 2.441052,-0.741636 14.762644,-5.299831 15.372632,-4.109208 1.836851,3.585315 -18.893628,11.081594 -22.624301,11.457083"/><path class="st1" d="m 31.091136,37.296891 c 5.819138,-0.485259 27.736746,-2.076255 15.06428,3.836542 -2.338102,1.090926 -6.560095,1.124366 -10.878436,0.929292"/><path class="st1" d="m 29.316581,41.765596 c 13.150413,-0.0586 9.088199,2.912989 5.508938,4.137096 -3.579261,1.224107 -8.794881,2.410328 -10.830529,3.106428"/><path class="st1" d="m 23.99499,49.00912 c 18.021622,-0.05822 5.328923,4.983844 -1.953152,5.390278"/><path class="st1" d="m 24.741053,54.075332 c 7.236124,2.303233 0.22392,4.430837 -2.964023,5.384853"/><path class="st1" d="m 57.381531,18.484219 c 2.378266,-0.296038 6.223015,-1.18822 3.739137,2.315472 -0.943683,1.331133 -4.421384,3.153256 -12.607625,5.815712"/><path class="st1" d="m 55.953429,23.916736 c 8.451622,-0.647828 3.31719,3.731397 -3.729614,4.52304"/><path class="st1" d="m 46.728864,31.693059 c 3.246793,-0.317447 5.252587,0.244569 4.376791,1.358862 -0.875796,1.114292 -4.726931,2.866797 -5.756498,3.602202"/><path class="st1" d="m 38.931448,42.151058 c 6.685968,0.709551 11.417513,0.309756 7.4896,3.625765 -1.216023,1.026586 -8.223464,3.361625 -13.56138,0.729878"/><path class="st1" d="m 35.574443,47.424077 c 4.708619,1.917568 8.594389,4.188824 5.392216,5.400446 -1.896716,0.71767 -8.87493,1.309026 -12.186989,0.315453"/><path class="st1" d="m 30.696766,53.500629 c 7.714894,2.307493 6.810139,3.31922 3.707923,4.451627 -3.102216,1.132407 -8.805166,1.650766 -11.426914,1.126416"/><path class="st1" d="m 27.974969,59.194267 c 4.063869,1.400549 4.235814,3.102381 2.968705,3.952067 -1.267109,0.849685 -5.745072,1.615855 -8.078044,1.795314"/><path class="st1" d="m 21.583192,63.3533 c 4.282167,5.214935 3.619839,5.767343 -0.919365,4.859502"/><path class="st1" d="m 54.085495,28.124893 c 10.172606,1.81748 7.223423,5.839532 -2.995059,4.889357"/><path class="st1" d="m 53.984439,33.144114 c 1.266966,0.493435 2.804344,0.87448 3.86113,1.379899"/><path class="st1" d="m 48.054186,35.131427 c 3.325944,0.996834 6.320906,2.994509 9.384247,4.143262"/><path class="st1" d="m 57.992927,46.481705 c -2.107982,-0.42229 -4.49506,-2.942665 -9.124203,-6.787101"/><path class="st1" d="m 55.759859,45.415802 c 0.79713,0.754947 1.592471,1.49944 2.320303,2.188964"/><path class="st1" d="M 57.963785,50.613526 C 52.720271,51.853189 49.512324,44.380897 46.850329,40.904103"/><path class="st1" d="m 51.897916,48.050293 c 6.775231,10.301493 0.05895,6.663 -4.896987,1.451018"/><path class="st1" d="m 24.1121,68.370227 c 0.755035,2.458355 0.879726,3.046796 1.140116,4.370166"/><path class="st1" d="m 24.112405,64.801646 c 5.936925,8.439978 5.121824,10.341009 0.831309,6.502128"/><path class="st1" d="m 26.847694,64.447612 c 2.182257,3.429373 4.703069,8.722371 1.21699,7.033904"/><path class="st1" d="m 30.213676,63.510036 c 2.862053,7.753867 2.620367,9.040562 -0.762398,6.013878"/><path class="st1" d="m 31.273183,58.760743 c 3.053087,5.41372 5.428512,15.438715 0.352286,8.891321"/><path class="st1" d="m 34.235985,57.981489 c 0.5108,1.048741 5.741497,11.310775 2.855932,10.733662 -0.760412,-0.152083 -1.992796,-1.2767 -2.800071,-2.140409"/><path class="st1" d="m 36.255013,53.555651 c 1.077785,3.134502 10.215135,16.723348 0.919321,11.097798"/><path class="st1" d="m 40.329563,52.867592 c 2.779544,6.35075 8.037334,13.428477 0.154783,9.317948"/><path class="st1" d="m 42.387833,47.258095 c 2.605624,6.274115 3.877498,10.239828 4.217827,12.210953 0.435599,2.522911 0.15363,2.20168 -2.798516,0.599227"/><path class="st1" d="m 45.3295,46.402827 c 0.910589,1.692659 2.900718,5.497367 4.359655,7.713624 2.429237,3.690227 0.231072,4.385865 -3.997454,1.995829"/><path class="st1" d="m 20.773438,69.17031 c 1.294369,1.120138 2.494737,2.858975 3.210937,3.84375"/><path class="st1" d="m 21.03125,69.57656 c 0.164144,0.784611 0.692152,1.414928 0.921875,2.132813"/><path class="st2" d="m 51.835064,3.7743114 c -3,4.2 -3.6735,7.6308806 -11.58088,7.5808796 -7.90738,-0.05 -9.905985,-3.7892483 -12.805985,-7.9892483"/><path class="st2" d="m 60.357928,71.131967 c -0.865358,-5.143866 -2.246825,-40.530153 -2.345193,-46.56629 1.333167,-0.946822 2.123233,-1.033633 3.439639,-0.299239 1.053729,2.179111 2.004649,5.292668 3.085453,7.277506 5.240811,-0.113901 8.521769,-1.7494 12.269074,-4.438001"/><path class="st2" d="m 19.809064,71.131967 c 0.865358,-5.143866 2.246825,-40.530153 2.345193,-46.56629 -1.333167,-0.946822 -2.123233,-1.033633 -3.439639,-0.299239 -1.053729,2.179111 -2.004649,5.292668 -3.085453,7.277506 C 10.388354,31.430043 6.9322779,29.663206 3.1849729,26.974605"/><path class="st0" d="m 39.9,75.6 v 0 c 0.1,0 0.2,0 0.3,0"/><path class="st0" d="m 40.2,75.6 c 6.9,-0.1 16.7,-1.8 22.4,-4 -0.7,-6.6 -2.7,-45.5 -2.7,-45.5 0,0 2.1,5.1 3.2,7.9 4.7,-0.4 12.3,-1.3 15.3,-6.2 C 75.5,21 73.3,13.2 71,8.1 71,8.1 60.6,4.3 52.4,1.7 c 0,0 -0.9,-0.3 -1.3,0.4 -3,4.2 -4.5,7.1 -11.2,7.1 v 0 C 33.5,9.1 31.9,6.3 29,2.1 28.5,1.4 27.6,1.7 27.6,1.7 19.5,4.2 9,8.1 9,8.1 c -2.3,5.1 -4.5,13 -7.4,19.7 3,4.8 10.4,5.8 15.3,6.2 1.1,-2.8 3.2,-7.9 3.2,-7.9 0,0 -2.1,38.9 -2.7,45.5 5.8,2.2 15.5,4 22.4,4 v 0"/></svg>