<?xml version="1.0" encoding="utf-8"?><svg version="1.1" xmlns="http://www.w3.org/2000/svg" xmlns:xlink="http://www.w3.org/1999/xlink" x="0px" y="0px" viewBox="0 0 80 77.1" style="enable-background:new 0 0 80 77.1;" xml:space="preserve"><style type="text/css"> .st0{fill:#AA0088;} .st1{fill:#4400AA;} .st2{fill:none;stroke:#000000;stroke-width:0.3663;} .st3{fill:#87CDDE;} .st4{fill:#87CDDE;stroke:#000000;stroke-width:0.3669;} .st5{fill:none;stroke:#000000;stroke-width:3;stroke-linecap:round;stroke-linejoin:round;} </style><g id="svg8"><g id="layer1" ><path id="path53" class="st0" d="M36.3,75.5c-4.8-0.4-11.6-1.6-15.2-2.7c-1-0.3-2.1-0.6-2.3-0.7 c-0.4-0.1-0.5-0.2-0.4-1.1c0.4-3.1,2.1-44.3,1.9-45c-0.2-1-1-1.5-1.8-0.8c-0.2,0.2-1.2,1.4-2,3.4l-1.4,3.7l-1.5-0.1 c-4.1-0.4-8.6-2-10.7-3.8L2,27.6L3,25.2c0.5-1.3,1.7-4.6,2.6-7.3c1.8-5,3.2-8.9,3.5-9.3c0.3-0.4,17.4-6.3,18.2-6.3 c0.2,0,0.8,0.7,1.4,1.6c1.7,2.4,3.3,3.9,5.1,4.7c2,1,4.8,1.4,7.4,1.3c4.8-0.3,7.4-1.8,10.4-6c0.6-0.9,1.2-1.6,1.4-1.6 c0.7,0,17.8,5.9,18.1,6.3c0.3,0.3,1.1,2.3,3.4,8.9c1.1,3.1,2.4,6.7,2.9,7.8l0.8,2.1l-0.9,0.8c-1,0.9-4,2.5-5.8,3 c-1.6,0.4-4.7,1-5.6,1c-0.7,0-0.7,0-2.2-3.8c-1.4-3.3-1.6-3.8-2.1-4c-0.8-0.3-0.9,1.8-1.4,2.3c-0.3,0.3-0.4,0.1-0.4,1.5 c0.1,4.4,1.5,35.2,1.8,39.9c0.1,1.4,0.2,2.9,0.2,3.2v0.7l-2.2,0.7C52.4,74.8,42.1,76,36.3,75.5L36.3,75.5z"/><path id="path71" class="st1" d="M9.9,32.4c-3.9-0.4-5.3-0.7-7.4-2.5L1,28.1l1.2-3.3 c0.4-1.1,1.8-5,3.1-8.5C8,8.6,8.9,8,9.5,7.7C10.8,7,27.1,1.3,27.1,1.6c0,0.5-7.3,24.6-7.6,24.8c-1.1,0.7,0.2-0.6-1.2,2.7 c-0.8,1.9-1.3,4.5-1.4,4.5c-0.1,0-3.7-0.3-4.6-0.4L9.9,32.4z"/><path id="path99" class="st2" d="M40,8.3c-0.3,0.4-0.6,0.9-1,1.2c-0.2,0.1-0.4,0-0.6,0 c-0.2,0-0.4,0-0.6,0c-0.2,0-0.4,0-0.6,0c-0.2,0-0.3,0.2-0.4,0.2c-0.2,0.1-0.4,0.2-0.6,0.2c-0.3,0.1-0.7,0.2-1,0.2 c-0.1,0-0.3,0-0.4,0c-0.4,0.1-0.7,0.3-1,0.4c-0.1,0-0.3-0.1-0.4,0c-0.2,0.1-0.3,0.3-0.4,0.4c-0.1,0-0.1,0-0.2,0 c-0.2,0.1-0.2,0.4-0.4,0.4c-0.1,0-0.3-0.1-0.4,0c-0.3,0.2-0.4,0.4-0.6,0.6c-0.1,0.1-0.3,0.1-0.4,0.2c-0.2,0.1-0.4,0.3-0.6,0.4 c-0.4,0.3-0.6,0.7-0.8,1c-0.1,0.1-0.2,0.1-0.2,0.2c0,0.1,0,0.1,0,0.2c-0.1,0.2-0.3,0.3-0.4,0.4c-0.5,0.7,0,0.1-0.2,0.8 c-0.3,1-0.1,0-0.4,0.6c0,0.1,0,0.1,0,0.2c0,0.1,0,0.3,0,0.4c0,0.4,0,0.8,0,1.2c0,1.2,0,2.5,0,3.7c4.3-3.7,0.2-0.3,2.3-1.9 c0.1-0.1,0.1-0.2,0.2-0.2c0.1,0,0.1,0,0.2,0c0.2-0.1,0.3-0.3,0.4-0.4c0.1-0.1,0.3-0.1,0.4-0.2c0.1-0.1,0.1-0.2,0.2-0.2 c0.1-0.1,0.8,0.1,0.8,0c0,0,0-0.2,0-0.2c0,0,0.1,0,0.2,0s0.1,0,0.2,0c0.2,0,0.4,0,0.6,0c0.6,0,1.1,0,1.7,0c0.1,0,0.5,0,0.6,0 c0.1,0,0.3,0.2,0.4,0.2c0.1,0,0.3,0,0.4,0c0.1,0,0.1,0,0.2,0c0.1,0,0.1,0.2,0.2,0.2c0.1,0.1,0.3,0,0.4,0c0.2,0.1,0.4,0.1,0.6,0.2 c0.2,0.1,0.2,0.3,0.4,0.4c0.1,0.1,0.3,0,0.4,0c0.8,0.3,0.1,0.1,0.6,0.4c0.1,0.1,0.3,0.1,0.4,0.2c0.1,0.1,0.1,0.2,0.2,0.2 c0.1,0,0.2,0,0.2,0c0.1,0.1,0.1,0.3,0.2,0.4c0.1,0.1,0.3,0,0.4,0c1,0.3,0,0.1,0.6,0.4c0.2,0.1,0.5-0.1,0.6,0c0.1,0,0,0.2,0,0.2 c0,0,0.5,0,0.6,0c0.1,0,0.1,0.2,0.2,0.2c0.1,0,0.9,0,1,0c0.1,0,1,0,1,0c0.1,0,0.1-0.2,0.2-0.2c0.2-0.1,0.3,0.2,0.8-0.2 c0.2-0.1,0.3-0.3,0.4-0.4c0.1-0.1,0.3,0.1,0.4,0c0.1,0,0.1-0.1,0.2-0.2c0.1-0.1,0.3-0.3,0.4-0.4c0.1,0,0.2,0,0.2,0 c0,0,0-0.2,0-0.2c0.1-0.1,0.3,0.1,0.4,0c0.1,0,0.1-0.1,0.2-0.2"/><path id="path101" class="st2" d="M48.5,19.8c0.2,1.1-1,1.6-1.2,2.5c0,0.1,0,0.1,0,0.2 c-0.3,1.1-0.2,0.1-0.4,1.7c0,0.2,0.1,0.4,0,0.6c-0.1,0.2-0.3,0.2-0.4,0.4c-0.1,0.3,0,0.6,0,0.8c0,0.3,0,0.7,0,1c0,0.2,0,0.4,0,0.6 c0.1,0.3,0.2,0.5,0.2,0.8c0.1,0.5-0.2,0.7,0,1.2c0.1,0.5,0.5,0.6,0.6,1c0.1,0.3-0.1,0.7,0,1c0.3,1,0.1,0,0.4,0.6 c0.1,0.1-0.1,0.3,0,0.4c0.1,0.2,0.3,0.3,0.4,0.4c0.2,0.2,0.2,0.6,0.4,0.8c0.1,0.1,0.2,0.1,0.2,0.2c0,0.1,0,0.1,0,0.2 c0.1,0.3,0.5,0.4,0.6,0.6c0.1,0.1,0.1,0.3,0.2,0.4c0.1,0.1,0.3,0.1,0.4,0.2c0,0,0,0.1,0,0.2c0,0.1,0.1,0.1,0.2,0.2 c0.2,0.2,0.4,0.4,0.6,0.6c0.1,0.1,0.2,0.1,0.2,0.2c0,0.1,0,0.2,0,0.2c0.1,0.1,0.3,0.1,0.4,0.2c0.1,0.1-0.1,0.3,0,0.4 c0,0.1,0.1,0,0.2,0c0.1,0,0.2,0.1,0.2,0.2c0,0.1,0,0.1,0,0.2c0.1,0.1,0.2,0.1,0.2,0.2c0,0.1,0,0.2,0,0.2c0,0,0.2,0,0.2,0 c0.1,0.1,0.2,0.3,0.2,0.4c0,0.1,0,0.2,0,0.2c0,0,0.2,0,0.2,0c0.1,0.1-0.1,0.7,0,0.8c0,0.1,0.2,0.1,0.2,0.2c0,0.1,0,0.1,0,0.2 c0,0.1,0,0.1,0,0.2"/><path id="path103" class="st2" d="M52.9,40.7c0,0,0.4-0.8,0.4-0.8c0.1-0.2,0.1-0.4,0.2-0.6 c0.1-0.2,0.3-0.3,0.4-0.4c0.1-0.1,0.1-0.3,0.2-0.4c0.1-0.2,0.3-0.4,0.4-0.6c0.3-0.5,0.7-1.4,0.8-1.9c0.2-0.6,0.2-1.3,0.4-1.9 c0.1-0.4,0.3-0.8,0.4-1.2c0.1-0.3,0-0.7,0-1c0-0.2,0.2-0.3,0.2-0.4c0-0.1,0-0.3,0-0.4c0-0.1,0-1.3,0-1.5c0-0.1,0.2-0.1,0.2-0.2 c0-0.1,0-1,0-1c0-0.1,0.2-0.1,0.2-0.2c0-0.1,0-0.1,0-0.2c0-0.1,0-0.1,0-0.2c0-0.4,0-0.8,0-1.2c0-0.1,0-0.8,0-0.8 c0-0.1,0.2-0.1,0.2-0.2c0.1-0.1,0.1-0.3,0.2-0.4c0.1-0.1,0.3,0,0.4,0c0.1-0.1,0.3-0.3,0.4-0.4c0.1-0.1,0.3-0.1,0.4-0.2 c0.1-0.1,0.1-0.3,0.2-0.2c0.7,0.5,1.3,1.2,2,1.8"/><path id="path105" class="st3" d="M52.7,38.4c-0.2-0.3-0.4-0.6-0.4-0.7c0-0.1-0.1-0.2-0.2-0.3 c-0.1,0-0.8-0.8-1.5-1.6c-1.5-1.7-2.9-4-2.7-4.6c0-0.2-0.1-0.7-0.4-1.1c-0.2-0.4-0.4-0.8-0.3-0.9c0.1-0.1,0-1-0.1-1.9 c-0.1-1.3-0.1-1.9,0.1-2.2c0.1-0.2,0.3-0.9,0.4-1.4c0.1-0.6,0.4-1.5,0.9-2.2c0.4-0.7,0.7-1.4,0.6-1.5c-0.1-0.2-0.4-0.4-0.8-0.4 c-0.5-0.1-0.8,0-1.1,0.3c-0.3,0.2-0.5,0.4-0.6,0.4c-0.1,0-0.3,0.1-0.5,0.3c-0.2,0.2-0.8,0.4-1.4,0.4c-1.2,0.1-3-0.4-4.5-1.4 c-2.1-1.3-4-1.8-6.7-1.6c-1.9,0.1-2.8,0.5-4.2,1.8l-0.6,0.5l0-2c0-2.1,0.2-2.9,1-4.2c0.4-0.7,0.9-1.1,2.6-2.2 c1.6-1,3.4-1.5,6.9-1.7c6.5-0.5,8.7-1.5,11.5-5.1c1-1.2,1.3-1.5,1.4-1.2c0.6,1.4,7.2,19.5,7.2,19.6c0,0.1-0.1,0.1-0.3,0 c-0.2-0.1-0.6,0.1-0.9,0.3s-0.7,0.4-0.8,0.4c-0.4,0-0.9,1-0.9,1.9c0,0.5-0.1,1.6-0.2,2.4c-0.1,0.9-0.3,2.2-0.4,3 c-0.3,2.2-1,4.6-1.7,5.8c-0.3,0.6-0.7,1.1-0.8,1.2C53.1,38.8,52.9,38.6,52.7,38.4L52.7,38.4z"/><path id="path163" class="st4" d="M19.6,55.3c1.4-1.8-0.1,0,3.2-2.5c0.7-0.5,1.2-1.1,1.9-1.6 c0.2-0.2,0.5-0.2,0.6-0.4c0.2-0.2,0.3-0.4,0.4-0.6c0.2-0.2,0.4-0.4,0.6-0.6c0.1,0,0.2,0,0.2,0c0,0,0-0.2,0-0.2c0,0,0.1,0,0.2,0 c0.1,0,0.1-0.1,0.2-0.2c0.1-0.1,0.2-0.1,0.2-0.2c0-0.1,0-0.2,0-0.2c0,0,0.2,0,0.2,0c0.1-0.1,0.1-0.3,0.2-0.4 c0.3-0.3,0.7-0.4,1.1-0.6c0.2-0.1,0.3-0.3,0.4-0.4c0.1-0.1,0.2-0.1,0.2-0.2c0-0.1-0.1-0.3,0-0.4c0-0.1,0.1,0,0.2,0 c0,0,0.8-0.8,0.8-0.8c0-0.1,0-0.1,0-0.2c0.1-0.2,0.4-0.2,0.4-0.4c0-0.1-0.1-0.3,0-0.4c0.2-0.4,0.4-0.3,0.6-0.6 c0.1-0.1,0.1-0.3,0.2-0.4c0.1-0.2,0.3-0.2,0.4-0.4c0.1-0.1,0-0.3,0-0.4c0.1-0.2,0.3-0.2,0.4-0.4c0-0.1,0-0.1,0-0.2 c0-0.1,0.2-0.1,0.2-0.2c0-0.1,0-0.2,0-0.2c0,0,0.2,0,0.2,0c0.1-0.1,0.1-0.3,0.2-0.4c0.1-0.1,0.2-0.1,0.2-0.2 c0.1-0.1-0.1-0.3,0-0.4c0.4-0.9,0,0.2,0.4-0.2c0,0,0-0.2,0-0.2c0,0,0.2,0,0.2,0c0,0,0-0.1,0-0.2c0-0.1,0.2-0.1,0.2-0.2 c0-0.1,0-0.2,0-0.2c0.4-0.4,0,0.6,0.4-0.2c0.1-0.1-0.1-0.3,0-0.4c0-0.1,0.2-0.1,0.2-0.2c0-0.1,0-0.1,0-0.2c0-0.1,0.1-0.1,0.2-0.2 c0.1-0.1,0.1-0.2,0.2-0.2c0.1,0,0.2-0.1,0.2,0c0.1,0.1,0,0.3,0,0.4c0.3,0.9,0.2-0.9,0.4,0.6c0.1,0.3,0,0.7,0,1c0,0.1,0,0.3,0,0.4 c0,0.1,0.2,0.1,0.2,0.2c0.2,0.6-0.1,0.2,0,0.6c0.1,0.2,0.2,0.4,0.2,0.6c0,0.1-0.1,0.3,0,0.4c0,0.1,0.2,0.1,0.2,0.2 c0.1,0.2-0.1,0.5,0,0.6c0,0.1,0.2,0.1,0.2,0.2c0.1,0.1-0.1,1,0,1c0,0,0.2,0,0.2,0c0,0-0.1,0.9,0.2,0.6c0.1-0.1,0-0.4,0-0.6 c0-0.2-0.1-0.4,0-0.6c0-0.1,0.2-0.1,0.2-0.2c0.1-0.2-0.1-0.4,0-0.6c0.1-0.3,0.3-0.5,0.4-0.8c0-0.1,0-0.3,0-0.4 c0-0.1,0.2-0.1,0.2-0.2c0.1-0.2-0.1-0.6,0-0.8c0.5-1.5-0.1,0.3,0.4-0.6c0.5-1.5-0.1-0.1,0.4-0.8c0.4,0,0.1-0.5,0.2-0.6 c0-0.1,0.2-0.1,0.2-0.2c0-0.1,0-0.2,0-0.2c0,0,0.2,0,0.2,0c0,0,0,0.1,0,0.2c0,0.1-0.1,0.3,0,0.4c0.1,0.1,0.3,0.1,0.4,0.2 c0.1,0.1,0,0.3,0,0.4c0,0.1,0.2,0.1,0.2,0.2c0,0.1,0,0.1,0,0.2c0,0.3,0,0.3,0.2,0.6c0.1,0.1,0.2,0.1,0.2,0.2c0,0.1,0,0.3,0,0.4 c0,0.1,0.2,0.1,0.2,0.2c0.2,0.4-0.4,0,0,0.6c0.1,0.1,0.3,0.1,0.4,0.2c0.1,0.1-0.1,0.3,0,0.4c0.7,0.7-0.1-0.2,0.2,0.4 c0,0.1,0.2,0.1,0.2,0.2c0.1,0.2-0.1,0.4,0,0.6c0,0.1,0.2,0,0.2,0c0.1,0.1-0.1,0.3,0,0.4c0,0,0.2,0,0.2,0c0,0,0,0.1,0,0.2 c0,0.1,0.2,0.1,0.2,0.2c0,0.1,0,0.1,0,0.2c0.1,0.3,0.3,0.5,0.4,0.8c0,0.1,0,0.1,0,0.2c0,0.1,0.2,0.1,0.2,0.2c0,0.1,0,0.1,0,0.2 c0.3,0.7,0.1,0.1,0.4,0.6c0.1,0.1,0.2,0.3,0.2,0.4c0,0.1,0,0.1,0,0.2c0.1,0.2,0.3,0.2,0.4,0.4c0.1,0.1-0.1,0.3,0,0.4 c0,0.1,0.2,0.1,0.2,0.2c0.1,0.1,0.1,0.3,0.2,0.4c0.1,0.1,0.1,0.3,0.2,0.4c0.1,0.2,0.3,0.2,0.4,0.4c0.1,0.1,0.1,0.3,0.2,0.4 c0.1,0.1,0.2,0.1,0.2,0.2c0,0.1,0,0.1,0,0.2c0.1,0.2,0.1,0.4,0.2,0.6c0.1,0.1,0.3,0.1,0.4,0.2c0.1,0.1,0,0.3,0,0.4 c0,0.1,0.1,0.3,0.2,0.4c0,0,0.2,0,0.2,0c0,0,0,0.1,0,0.2c0,0.1,0.2,0.1,0.2,0.2c0.3,0.5-0.6-0.2,0.2,0.6c0.1,0.1,0.3,0.1,0.4,0.2 c0.1,0.1-0.1,0.3,0,0.4c0,0.1,0.2,0.1,0.2,0.2c0.1,0.1,0.1,0.3,0.2,0.4c0.1,0.2,0.3,0.4,0.4,0.6c0,0.1,0,0.1,0,0.2 c0,0.1,0,0.3,0,0.4c0,0.1,0.2,0.1,0.2,0.2c0.2,0.2,0.3,0.4,0.4,0.6c0,0.1,0,0.1,0,0.2c0,0.1,0.2,0.3,0.2,0.4c0,0.1,0,0.1,0,0.2 c0,0.1,0.2,0.1,0.2,0.2c0.1,0.2,0.1,0.4,0.2,0.6c0,0.1,0.2,0,0.2,0c0,0,0,0.1,0,0.2c0.1,0.3,0.1,0.5,0.2,0.8 c0.1,0.2,0.1,0.4,0.2,0.6c0.3,0.6,0.2-0.4,0.4,0.6c0,0.1-0.1,0.3,0,0.4c0.1,0.2,0.3,0.4,0.4,0.6c0.1,0.2,0.2,0.4,0.2,0.6 c0,0.1,0,0.1,0,0.2c0,0.1,0.2,0.1,0.2,0.2c0,0.1,0,0.3,0,0.4c0,0.1,0.2,0.1,0.2,0.2c0,0.1,0,0.1,0,0.2c0,0.1,0.2,0.1,0.2,0.2 c0,0.1,0,1,0,1c0,0,0.2,0,0.2,0c0.1,0.1,0,0.3,0,0.4c0.2,0.7,0.2,0.2,0.2,0.6c0,0.6,0,1.2,0,1.8c0,0.1,0,0.8,0,0.8 c0,0.1-0.2,0.1-0.2,0.2c-0.1,0.1-0.1,0.3-0.2,0.4c0,0-0.1,0-0.2,0c-0.1,0-0.1,0.2-0.2,0.2c-0.3,0.2-0.6,0.2-0.8,0.4 c-0.1,0.1-0.1,0.2-0.2,0.2c-0.1,0-0.3,0-0.4,0c-0.1,0-0.3,0-0.4,0c-0.6,0-1.1,0-1.7,0c-0.5,0-1,0-1.5,0c-0.1,0-0.3,0-0.4,0 c-0.1,0-0.1-0.2-0.2-0.2c-0.1,0-0.1,0-0.2,0c-0.1,0-0.1-0.2-0.2-0.2c-0.1-0.1-0.3,0.1-0.4,0c-0.1,0-0.8-0.8-0.8-0.8 c-0.1-0.1-0.3-0.3-0.4-0.4c-0.1-0.1-0.2-0.1-0.2-0.2c-0.1-0.1-0.1-0.3-0.2-0.4c0,0-0.2,0-0.2,0c0,0,0-0.1,0-0.2 c0-0.1-0.2-0.1-0.2-0.2c0-0.1,0-0.1,0-0.2c-0.1-0.1-0.1-0.3-0.2-0.4c-0.1-0.2-0.3-0.2-0.4-0.4c-0.1-0.1-0.1-0.3-0.2-0.4 c-0.1-0.2-0.3-0.2-0.4-0.4c0-0.1,0-0.2,0-0.2c0,0-0.2,0-0.2,0C41,65.2,41,65,40.9,64.9c-0.1-0.1-0.1-0.1-0.2-0.2 c-0.1-0.1-0.1-0.2-0.2-0.2c-0.1,0-0.2,0-0.2,0c0,0,0-0.2,0-0.2c0,0-0.1,0-0.2,0c-0.1,0-0.1-0.2-0.2-0.2c-0.1,0-0.2,0.1-0.2,0 c0-0.1,0.3,0,0.2,0c-0.1,0-0.3,0-0.4,0c-0.1,0-0.3,0-0.4,0c-0.1,0-0.2,0-0.2,0c-0.1,0.1-0.1,0.3-0.2,0.4c-0.1,0.2-0.7,0.6-0.8,0.6 c-0.1,0-0.1,0-0.2,0c-0.1,0-0.3,0.1-0.4,0.2c-0.1,0.1-0.3,0.1-0.4,0.2c-0.1,0.1-0.1,0.2-0.2,0.2c-0.1,0-0.1,0-0.2,0 c-0.1,0-0.1,0.2-0.2,0.2c-0.1,0.1-0.3,0.1-0.4,0.2c-0.1,0.1-0.1,0.2-0.2,0.2c-0.1,0-0.2,0-0.2,0c0,0,0,0.2,0,0.2c0,0-0.1,0-0.2,0 c-0.3,0.1-0.4,0.5-0.6,0.6c-0.1,0-0.2,0-0.2,0c0,0,0,0.2,0,0.2c0,0-0.8,0.4-0.8,0.4c-0.1,0.1-0.1,0.2-0.2,0.2c-0.1,0-0.2,0-0.2,0 c0,0,0,0.2,0,0.2c-0.1,0.1-0.3,0.1-0.4,0.2c-0.9,0.6,1.1-0.4-0.8,0.6c-0.1,0-0.2,0-0.2,0c0,0,0,0.2,0,0.2c0,0-0.8,0.4-0.8,0.4 c-0.2,0.1-0.2,0.3-0.4,0.4c-0.5,0.3,0.2-0.6-0.6,0.2c-0.1,0.1-0.1,0.3-0.2,0.4c0,0-0.1,0-0.2,0c-0.1,0-0.1,0.2-0.2,0.2 c-0.1,0.1-0.3,0.1-0.4,0.2c-0.1,0.1-0.1,0.3-0.2,0.4c0,0-0.1,0-0.2,0c-0.2,0.1-0.2,0.3-0.4,0.4c-0.1,0-0.2,0-0.2,0 c0,0,0,0.2,0,0.2c0,0-0.2,0-0.2,0c0,0,0,0.2,0,0.2c0,0-0.1,0-0.2,0c-0.2,0.1-0.3,0.3-0.4,0.4c-0.1,0.1-0.3,0.1-0.4,0.2 c0,0,0,0.2,0,0.2s-0.1,0-0.2,0c-0.1,0-0.1,0.2-0.2,0.2c-0.1,0-0.1,0-0.2,0c-0.1,0.1-0.1,0.2-0.2,0.2c-0.1,0.1-0.3-0.1-0.4,0 c0,0,0,0.1,0,0.2c-0.2,0.3-0.7,0.2-0.2,0.2"/><path id="path183" class="st3" d="M21.2,72.8L18.5,72l0.1-2.2c0.1-1.2,0.3-4.8,0.5-8 c0.2-3.2,0.7-6.8,0.7-6.8c0.1-0.1,5.3,17.9,5.3,18.3C25.1,73.6,24.5,73.7,21.2,72.8L21.2,72.8z"/><path id="path130" class="st3" d="M52.7,38.2c-0.2-0.2-0.3-0.5-0.3-0.5c0-0.1-0.5-0.7-1.2-1.4 c-1.8-2-3.3-4.4-3.3-5.2c0-0.2-0.2-0.7-0.3-1.1c-0.3-0.7-0.3-1-0.3-2.8c0-2.4,0.3-3.9,1.3-5.7c0.7-1.3,0.7-1.7,0.2-1.9 c-0.7-0.3-1-0.2-2,0.5c-1.1,0.7-1.6,0.9-2.6,0.9c-1.1,0-2.3-0.4-4-1.4c-2.4-1.4-3-1.5-5.7-1.5c-2.3,0-2.4,0-3.3,0.4 c-0.5,0.2-1.2,0.7-1.7,1.1l-0.8,0.7l0-1.2c0-1.9,0.2-3.2,0.8-4.3c0.5-1,1.1-1.6,2.6-2.5c2-1.2,3.5-2.1,7.3-2.5 c6.8-0.7,7-1,10.1-4.8C50,4.2,50.6,3.9,50.7,4c0.1,0-0.3-0.3-0.3-0.4c0-0.1,0.7-0.9,0.6-0.9c-0.3-0.1,0.5-0.8,0.9-0.8 c0.1,0,0.6-0.8,0.6-0.7c-0.1,0.2,1.8,5.4,4.5,12.9c2.6,7,3.1,8.3,3.6,9.4l0.4,0.7h-0.6c-0.6,0-1.2-0.3-1.2-0.7 c0-0.5-2.2,0.5-2.6,1.2c-0.2,0.2-0.3,1.1-0.4,2.3c-0.5,4.5-1,7.4-1.7,9.2c-0.3,0.9-1.2,2.3-1.3,2.3C53.1,38.7,52.9,38.5,52.7,38.2 L52.7,38.2z M58.7,22c-0.1-0.4-0.3-0.7-0.3-0.6c0,0,0.1,0.4,0.2,0.8c0.1,0.4,0.3,0.7,0.3,0.6S58.8,22.4,58.7,22z M58,20.2 c-0.1-0.3-0.2-0.5-0.2-0.4c0,0,0,0.3,0.1,0.5c0.1,0.3,0.2,0.5,0.2,0.4C58.2,20.7,58.1,20.4,58,20.2L58,20.2z M57.4,18.5 c-0.1-0.3-0.2-0.5-0.2-0.4c0,0,0,0.3,0.1,0.5c0.1,0.3,0.2,0.5,0.2,0.4C57.6,19,57.5,18.8,57.4,18.5L57.4,18.5z M56.9,16.9 c-0.1-0.3-0.2-0.5-0.2-0.4c0,0,0,0.3,0.1,0.5c0.1,0.3,0.2,0.5,0.2,0.4C57,17.4,56.9,17.2,56.9,16.9L56.9,16.9z M56.3,15.3 c-0.1-0.3-0.2-0.5-0.2-0.4c0,0,0,0.3,0.1,0.5c0.1,0.3,0.2,0.5,0.2,0.4C56.4,15.8,56.4,15.5,56.3,15.3z M55.6,13.4 c-0.2-0.3-0.2-0.2-0.1,0.2c0.1,0.1,0.1,0.2,0.2,0.2C55.7,13.7,55.6,13.5,55.6,13.4L55.6,13.4z M55.1,12.2 c-0.1-0.4-0.3-0.7-0.3-0.6c0,0,0.1,0.4,0.2,0.8c0.1,0.4,0.3,0.7,0.3,0.6C55.4,12.9,55.3,12.6,55.1,12.2z M54.6,10.8 c-0.1-0.3-0.2-0.5-0.2-0.4c0,0,0,0.3,0.1,0.5c0.1,0.3,0.2,0.5,0.2,0.4C54.8,11.3,54.7,11.1,54.6,10.8L54.6,10.8z M54.1,9.3 C54,9.1,53.9,9,53.9,9.1c0,0.2,0.2,0.7,0.2,0.6C54.2,9.7,54.1,9.5,54.1,9.3L54.1,9.3z M53.5,7.7c-0.2-0.3-0.2-0.2-0.1,0.2 c0.1,0.1,0.1,0.2,0.2,0.2C53.6,8,53.6,7.9,53.5,7.7L53.5,7.7z M53,6.4c-0.1-0.3-0.2-0.5-0.2-0.4c0,0,0,0.3,0.1,0.5 c0.1,0.3,0.2,0.5,0.2,0.4C53.1,6.9,53.1,6.6,53,6.4L53,6.4z M52.4,4.7c-0.1-0.3-0.2-0.5-0.2-0.4c0,0,0,0.3,0.1,0.5 c0.1,0.3,0.2,0.5,0.2,0.4C52.5,5.2,52.5,5,52.4,4.7L52.4,4.7z"/><path id="path73" class="st1" d="M62.5,32c-0.2-0.1-0.3-1.2-0.9-2.8c-1.6-3.9-1-1.6-1.3-2.2 c-0.3-0.5,0.2-3.5-3.5-13.6c-2.9-7.8-4.3-11.6-4.1-11.6c0.6-0.2,17.7,5.7,18.1,6.2c0.3,0.4,1.6,2.2,3.8,8.5c1,2.7,2.5,6.5,3.1,8.2 l1.1,3l-1.3,1.5c-1,0.8-3.4,2.2-5.1,2.8c-1,0.3-3.3,1-6.1,1.4c-0.3,0-3.4,0-3.5-0.1L62.5,32z"/></g></g><g id="Layer_1"><path class="st5" d="M40.2,75.6c6.9-0.1,16.7-1.8,22.4-4c-0.7-6.6-2.7-45.5-2.7-45.5s2.1,5.1,3.2,7.9c4.7-0.4,12.3-1.3,15.3-6.2 C75.5,21,73.3,13.2,71,8.1c0,0-10.4-3.8-18.6-6.4c0,0-0.9-0.3-1.3,0.4c-3,4.2-4.5,7.1-11.2,7.1l0,0c-6.4-0.1-8-2.9-10.9-7.1 c-0.5-0.7-1.4-0.4-1.4-0.4C19.5,4.2,9,8.1,9,8.1c-2.3,5.1-4.5,13-7.4,19.7c3,4.8,10.4,5.8,15.3,6.2c1.1-2.8,3.2-7.9,3.2-7.9 S18,65,17.4,71.6c5.8,2.2,15.5,4,22.4,4l0,0"/></g></svg> 