<svg xmlns="http://www.w3.org/2000/svg" xmlns:xlink="http://www.w3.org/1999/xlink" viewBox="0 0 79.8 77.06"><defs><style>.cls-1{fill:url(#Unbenannter_Verlauf_8);}.cls-2,.cls-3{fill:#124988;}.cls-2{opacity:0.35;}.cls-4{fill:none;stroke:#000;stroke-linecap:round;stroke-linejoin:round;stroke-width:3px;}</style><linearGradient id="Unbenannter_Verlauf_8" x1="41" y1="72.59" x2="41" y2="-7.84" gradientUnits="userSpaceOnUse"><stop offset="0.44" stop-color="#83c7e9"/><stop offset="0.57" stop-color="#a8d8f0"/><stop offset="0.77" stop-color="#d7edf8"/><stop offset="0.91" stop-color="#f4fafd"/><stop offset="1" stop-color="#fff"/></linearGradient></defs><title>jersey_template_bluecaps</title><g id="Layer_1" data-name="Layer 1"><path class="cls-1" d="M62.69,53.78c0-4.61-1.33-12.35-1.64-24.59-.85-2.68,2.48,8.06,3.82,8,3.65-.3,13.84-3,14.15-5.93.33-3.13-5.49-17-6.24-19.63C72.31,10,53.92,5.93,52.28,4.91,51.82,6.5,48.5,9.6,47.18,11c-1.13,1.22-5.56,1.16-7.21,1.2S35.34,11.85,33.4,10a19.22,19.22,0,0,1-3.87-5.1C27,6.51,19.22,7.17,10.69,11,7.5,16.9,4.15,28.36,3.09,30.3c-1.36,2.45,8.77,7.12,14.3,6.39,2.92-.39,2.25-5.26,2.95-6.28.6,10.79-.51,18.66-.51,23.27S18.1,74.59,18.1,74.59c1.37,0,8.89,3.9,22.34,3.88s22-3.16,23.37-3.16C63.81,75.31,62.69,58.4,62.69,53.78Z" transform="translate(-1 -3.44)"/><path class="cls-2" d="M63.39,68.13s-.11-1.82-.21-4c-1.28.4-3.72,1.41-4.65,2.63,0,0,0-1.7.77-2.21s-4.83,1.73-3.46,6.93a5.64,5.64,0,0,0,.51,1.3s2.61,2.44,3.44,0C61.33,68.3,63.39,68.13,63.39,68.13Z" transform="translate(-1 -3.44)"/><path class="cls-2" d="M59.39,51.14s-3.89.73-4.25,3.64c0,0-2.49-2.1-.12-6.42,0,0-6.77,1.22-6,6.65s3.46,6.42,2.48,10c0,0,9-2.6,8.18-7.83S58.7,51.86,59.39,51.14Z" transform="translate(-1 -3.44)"/><path class="cls-2" d="M43.44,43.65s1.82-5.51-1.3-7.86c0,0,.29,5.82-5,7.15s-5,9-3.67,12.66c0,0,2.59-6.73,8-7.15a3.13,3.13,0,0,0,1.21,3,9.42,9.42,0,0,1,2-1.57c1-.52,3.17-5.26,1.31-9,0,0-.54,1.21-1.39,1.51A2.22,2.22,0,0,0,43.44,43.65Z" transform="translate(-1 -3.44)"/><path class="cls-2" d="M52.61,34.3s-4.77.36-5.48,4.06c0,0,4.49,4.22,1.18,9.58a5.43,5.43,0,0,0,4.24-6.5C51.71,35.88,51.58,37.16,52.61,34.3Z" transform="translate(-1 -3.44)"/><path class="cls-2" d="M62,39.22s-5,2.26-4.28,5-.22,4-.22,4,4-1.37,3.92-4.85S62,39.22,62,39.22Z" transform="translate(-1 -3.44)"/><path class="cls-2" d="M60.47,30.24s-4.36,3-2.91,6.55a3.51,3.51,0,0,1,2.29-1.52c1.5-.21.6-2.54.6-2.54A5.51,5.51,0,0,1,60.47,30.24Z" transform="translate(-1 -3.44)"/><path class="cls-2" d="M39.14,32.11s-2.1,2.4-1.3,4.34-1,4.95-4.21,5.52c0,0,.26-3.41-1-5S35.62,32.13,39.14,32.11Z" transform="translate(-1 -3.44)"/><path class="cls-2" d="M36.2,27.22s-.93.25-1.7,3.2-3.56,1.4-3.56,1.4A6.47,6.47,0,0,0,32.09,29C32.63,26.87,36.2,27.22,36.2,27.22Z" transform="translate(-1 -3.44)"/><path class="cls-2" d="M25,45.71a3.66,3.66,0,0,1,3-2.58c2.54-.53,2.94-4.26,2.4-5.61,0,0-.63.76-1.14.81s-1.15.31-1.21.55a5,5,0,0,0,.57-5.34s-1.72,3.7-4,4.67S25,45.71,25,45.71Z" transform="translate(-1 -3.44)"/><path class="cls-2" d="M49.73,78.06c3.2.27,9.49-1.12,14.08-2.75a11,11,0,0,0,0-1.61c-.08-.84-.27-3.27-.27-3.27S60.79,72,60.77,74.3s-5.61.64-7.44-1.87c-2.74-3.73.74-5.93.74-5.93s-4.12-.38-5.59,1.87c0,0,3.06-4.66,0-8s-1.31-7.27-.54-8.53c0,0-4.93-.11-4.75,4.34,0,0-2.48-.6-2.24-2.43,0,0-7,2.69-5.28,8.24,0,0-3.86-1-4.24-4.44a8.63,8.63,0,0,0-6.69,5.8s-1.37-2.87,3-7.23S30.07,49,30.07,49a5.24,5.24,0,0,1,.9-3.93,4.3,4.3,0,0,0-4.3,2.26c-1.54,2.74-3.58,2.5-3.58,2.5s1.26-1.94-.36-2.94-.28-1.94-.28-1.94a4.61,4.61,0,0,0-3.3,1.19c-.21.23.41,2.15.48,3,.05.58-.14,4.83-.2,6.12-.18,3.39,0,4.8-.51,10.81-.3,3.78-.64,8.28-.82,8.57.84-.1,3.39,1.35,4.29,1.64,5.2,1.63,8,2.36,11.12,2C39.63,79.39,43.81,79.49,49.73,78.06Z" transform="translate(-1 -3.44)"/><path class="cls-3" d="M23.87,43.12c-.28,2.65,3.33,5.31,2.38,7.82.66-.1,1.22-1.38,1.3-1.91,1.55,3-2.23,9-5.7,8.67a2.38,2.38,0,0,0-2.05.67,12.79,12.79,0,0,1-.92-5.55c.4-3,2.35-4,2.63-6.42S23,43.9,23.87,43.12Z" transform="translate(-1 -3.44)"/><path class="cls-3" d="M36.13,42s1.76,3.54-.35,5.55c0,0,3.18.74,5.2-3.7,0,0,3.11,6.13-1.7,8.69s-7.22,1-9.46,3.91c0,0-3.33-8.69,1.31-11.16S36,43,36.13,42Z" transform="translate(-1 -3.44)"/><path class="cls-3" d="M52,50.79s3.3-4.7,7.06-3.61c0,0-4.82,3.22-2.7,8.21s-4.11,9.32-7.9,10.4c0,0,3.81-6,.88-10.62a3.11,3.11,0,0,1-3.1.78s1.38-1.61,1.27-2.8c-.25-2.69,1-5.36,5.12-6.06a3,3,0,0,0-.37,2A2.17,2.17,0,0,1,52,50.79Z" transform="translate(-1 -3.44)"/><path class="cls-3" d="M53.65,37.48s2.6,4,.08,6.77c0,0-6.08-1.09-8.37,4.72A5.34,5.34,0,0,1,48,41.75C52.93,39.13,52,40,53.65,37.48Z" transform="translate(-1 -3.44)"/><path class="cls-3" d="M42.55,31s1.19,5.29-1.43,6.39-3.07,2.55-3.07,2.55-1.33-4,1.51-6S42.55,31,42.55,31Z" transform="translate(-1 -3.44)"/><path class="cls-3" d="M57.82,29.79S58.06,35,54.35,36a3.4,3.4,0,0,0-.17-2.72c-.73-1.33,1.67-2,1.67-2S57.52,30.48,57.82,29.79Z" transform="translate(-1 -3.44)"/><path class="cls-3" d="M61.06,35.14s-1,.74-.39,4.55S57.19,43,57.19,43s.42-1,0-3.8S61.06,35.14,61.06,35.14Z" transform="translate(-1 -3.44)"/><path class="cls-3" d="M49.73,78.06a23.4,23.4,0,0,0,8.47-1.22c1.42-.41,4.63-1.7,5.61-1.53-.27-3.36-.2-4.39-.33-5.69A21.1,21.1,0,0,0,59.72,71s-1.44-1.51-.2-4.36a4.27,4.27,0,0,0-.83-4.78A5.05,5.05,0,0,1,57,64.32a3.17,3.17,0,0,1-1.31.62c-.95.21-2.89,1.28-3.93,6-.47,2.18-3.31,2.23-3.31,2.23,1.26-2.91-.1-4.33-.1-4.33-3,1.7-6.19-.81-6.19-.81,5.52-1.9,3.39-9.09,3.39-9.09-1.34,1.27-3.35-.38-3.35-.38,3.69-2.46.57-6.37.57-6.37-.54,1.37-2.62,5.12-7.2,4.57s-6.9,6.76-6.9,6.76a8.56,8.56,0,0,0-1.48-7.71s-1,3.67-4.27,3.61c-3.12-.07-3,1-3.6,1.77,0,0-1.73,13.57-1.73,13.57a74.15,74.15,0,0,0,10,3.06C35.4,78.4,37.79,79,49.73,78.06Z" transform="translate(-1 -3.44)"/></g><g id="Ebene_2" data-name="Ebene 2"><path class="cls-4" d="M71.9,11.4S61.5,7.6,53.3,5c0,0-.9-.3-1.3.4-3,4.2-4.5,7.1-11.2,7.1h0c-6.4-.1-8-2.9-10.9-7.1A1.29,1.29,0,0,0,28.5,5C20.4,7.5,9.9,11.4,9.9,11.4c-2.3,5.1-4.5,13-7.4,19.7,3,4.8,10.4,5.8,15.3,6.2,1.1-2.8,3.2-7.9,3.2-7.9s-2.1,38.9-2.7,45.5a73.56,73.56,0,0,0,22.4,4H41V79h.1v-.1c6.9-.1,16.7-1.8,22.4-4-.7-6.6-2.7-45.5-2.7-45.5s2.1,5.1,3.2,7.9c4.7-.4,12.3-1.3,15.3-6.2C76.4,24.3,74.2,16.5,71.9,11.4Z" transform="translate(-1 -3.44)"/></g></svg>