<?xml version="1.0" encoding="utf-8"?><svg version="1.1" id="Layer_1" xmlns="http://www.w3.org/2000/svg" xmlns:xlink="http://www.w3.org/1999/xlink" x="0px" y="0px" viewBox="0 0 80 77.1" style="enable-background:new 0 0 80 77.1;" xml:space="preserve"><style type="text/css"> .st0{fill:#FFFFFF;} .st1{fill:#157464;} .st2{fill:#AA1E23;} .st3{fill:#167464;} .st4{fill:#AA1F24;} .st5{fill:none;stroke:#000000;stroke-width:3;stroke-linecap:round;stroke-linejoin:round;} </style><path class="st0" d="M40.2,75.8c6.9-0.1,16.7-1.8,22.4-4c-0.7-6.6-2.7-45.5-2.7-45.5s2.1,5.1,3.2,7.9c4.7-0.4,12.3-1.3,15.3-6.2 c-2.9-6.8-5.1-14.6-7.4-19.7c0,0-10.4-3.8-18.6-6.4c0,0-0.9-0.3-1.3,0.4c-3,4.2-4.5,7.1-11.2,7.1l0,0c-6.4-0.1-8-2.9-10.9-7.1 c-0.5-0.7-1.4-0.4-1.4-0.4C19.5,4.4,9,8.3,9,8.3c-2.3,5.1-4.5,13-7.4,19.7c3,4.8,10.4,5.8,15.3,6.2c1.1-2.8,3.2-7.9,3.2-7.9 S18,65.2,17.4,71.8c5.8,2.2,15.5,4,22.4,4l0,0"/><g><path class="st1" d="M20.1,25.1c-0.5,0.3-0.5,0.6-0.8,1.2c-0.8,2-1.1,4.4-1.8,6.4c-0.2,0.5-2.1,0-2.7-0.1 c-3.8-0.4-7.5-1.1-10.8-3.3C2.3,28.1,2.3,28,3,26.1c2-5.5,4-10.9,6-16.4c0.2-0.6,0.6-1.1,1.2-1.3C15.5,6.5,20.8,4.6,26.2,3 c0.4,0.5,0.1,0.9-0.1,1.4c-3.5,5.8-4.9,12.2-6.3,18.7C19.7,23.5,20.5,24.6,20.1,25.1z"/><path class="st2" d="M20.5,39.2c0.2,2.7,1.6,5,2.4,7.5c1.1,3.7,2.2,7.4,2.5,11.4c0.1,1.8,0.7,3.6,1.1,5.3c0.7,3.6,0.6,7.2-0.1,10.9 c-1.1-0.3-2.3-0.5-3.4-0.8c-0.2-0.2-0.3-0.5-0.2-0.8c0.3-3.7-0.4-7.3-0.8-10.9c-0.2-1.6-0.3-3.1-0.4-4.7c-0.2-2.4-1.3-4.6-1.5-7 C20.2,46.5,20.4,42.9,20.5,39.2z"/><path class="st2" d="M56,70.1c-0.2-2.6-0.5-5.1-0.7-7.7c-0.4-0.7-0.2-1.3,0.2-1.9c0.4-2.3,0.5-4.7,0.6-7c0.1-3.4,1.3-6.4,2.4-9.5 c0.5-1.4,0.8-2.8,1.6-4c0.2,3.2,0.4,6.4,0.6,9.6c-0.8,1.5-0.9,3.2-1,4.8c-0.3,3.7-0.3,7.4-0.3,11.1c0,2,0.2,4,0.4,6.1 c0.1,0.5,0.1,1-0.1,1.5c-1.1,0.3-2.2,0.5-3.3,0.8c-0.1-0.7-0.2-1.4-0.3-2.1C56,71.2,55.8,70.7,56,70.1z"/><path class="st2" d="M54.8,3c1.2,3.7,2.4,7.4,3.7,11c1.2,3.5,2.2,9.1,3,12.6c-1.6,0.1-2.1-1.5-2,0.1c0,0.4,0,0.9,0,1.3 c-0.3-1.2-0.7-2.4-1-3.6c-1.6-6.7-3.7-13.1-6.1-19.5c-0.1-0.4-1-1.4-1.2-1.8C51.8,1.8,53.5,2.3,54.8,3z"/><path class="st3" d="M47.1,75.5c-1.3-0.9-2.5-1.8-3.8-2.7c-3.7-2.4-6.7-5.4-9.3-9c-0.3-0.4-0.4-0.8-0.5-1.3 c-0.1-0.6,0.1-1.1,0.7-1.5c0.5-0.3,1-0.2,1.5,0.1c0.5,0.4,1,0.8,1.2,1.4c1,2.7,3,4.5,5.1,6.3c2.5,2.1,5,4.1,7.5,6.2 C48.8,75.2,47.9,75.4,47.1,75.5z"/><path class="st4" d="M19,25.8c1.2-7.1,3-15.3,6.7-21.6C26,3.8,26.2,3.5,26.2,3c0.8-0.2,1.7-1.2,2.2,0.3c-1.3,1.7-2,3.6-2.6,5.6 c-1.4,4.6-3.4,9-4.2,13.7c-0.1,0.9-0.3,1.8-0.4,2.7C20.6,24.8,19.8,25.6,19,25.8z"/><path class="st1" d="M55.5,60.6c-0.1,0.6-0.1,1.3-0.2,1.9c-4.6-2.8-9.1-5.7-12.9-9.7c-1.1-1.1-2.3-2.2-3.5-3.1 c-3.1-2.4-5.4-5.5-7.4-8.8c-1.6-2.6-3.6-5.1-4.5-8.1c-0.1-0.4-0.3-0.9-0.3-1.3c-0.1-0.7,0-1.5,0.7-1.8c0.8-0.3,1.5,0.1,1.9,0.8 c0.7,1.3,1.4,2.6,1.8,4.1c0.6,2.2,1.6,4.1,2.8,5.9c2.8,4.2,6.3,7.7,10.2,10.9c2.4,1.9,4.5,4.2,6.9,6C52.5,58.4,54,59.5,55.5,60.6z" /><path class="st3" d="M56,70.1c0.4,0.5,0.3,1.1,0.2,1.6c-1.3-0.3-2.6-0.7-3.7-1.4c-4.2-2.6-8.7-4.7-12.4-8 c-4.3-3.8-8.2-7.8-10.7-13.1c-0.3-0.7-0.6-1.5,0.2-2c0.8-0.6,1.5-0.1,2,0.5c0.5,0.6,0.8,1.3,1.1,2.1c0.8,1.9,2,3.4,3.4,5 c1.8,2,3.8,3.9,5.5,6.1c0.2,0.3,0.5,0.6,0.8,0.8c3.5,2.4,6.8,5,10.4,7.2C53.9,69.5,54.9,69.9,56,70.1z"/></g><path class="st5" d="M40.2,75.6c6.9-0.1,16.7-1.8,22.4-4c-0.7-6.6-2.7-45.5-2.7-45.5s2.1,5.1,3.2,7.9c4.7-0.4,12.3-1.3,15.3-6.2 C75.5,21,73.3,13.2,71,8.1c0,0-10.4-3.8-18.6-6.4c0,0-0.9-0.3-1.3,0.4c-3,4.2-4.5,7.1-11.2,7.1l0,0c-6.4-0.1-8-2.9-10.9-7.1 c-0.5-0.7-1.4-0.4-1.4-0.4C19.5,4.2,9,8.1,9,8.1c-2.3,5.1-4.5,13-7.4,19.7c3,4.8,10.4,5.8,15.3,6.2c1.1-2.8,3.2-7.9,3.2-7.9 S18,65,17.4,71.6c5.8,2.2,15.5,4,22.4,4l0,0"/></svg> 