<?xml version="1.0" encoding="utf-8"?>
<!-- Generator: Adobe Illustrator 22.0.0, SVG Export Plug-In . SVG Version: 6.00 Build 0)  -->
<svg version="1.1" id="Layer_1" xmlns="http://www.w3.org/2000/svg" xmlns:xlink="http://www.w3.org/1999/xlink" x="0px" y="0px"
	 viewBox="0 0 80 77.1" style="enable-background:new 0 0 80 77.1;" xml:space="preserve">
<style type="text/css">
	.st0{clip-path:url(#SVGID_2_);}
	.st1{fill:#453A3E;}
	.st2{clip-path:url(#SVGID_4_);}
	.st3{fill:#ACA5AC;}
	.st4{fill:#CC872A;}
	.st5{clip-path:url(#SVGID_4_);fill:none;stroke:#CC872A;stroke-width:3;stroke-miterlimit:10;}
	.st6{fill:none;stroke:#000000;stroke-width:2;stroke-linecap:round;stroke-linejoin:round;}
	.st7{fill:#707577;}
	.st8{fill:none;stroke:#707577;stroke-miterlimit:10;}
	.st9{fill:none;stroke:#A85409;stroke-width:0.75;stroke-miterlimit:10;}
	.st10{fill:none;stroke:#000000;stroke-miterlimit:10;}
	.st11{fill:none;stroke:#CC872A;stroke-width:0.5;stroke-miterlimit:10;}
	.st12{fill:none;stroke:#000000;stroke-width:0.25;stroke-miterlimit:10;}
	.st13{fill:#7A3505;}
</style>
<g>
	<g>
		<g>
			<defs>
				<rect id="SVGID_1_" x="-170.8" y="-61.3" width="163" height="225.7"/>
			</defs>
			<clipPath id="SVGID_2_">
				<use xlink:href="#SVGID_1_"  style="overflow:visible;"/>
			</clipPath>
			<g class="st0">
			</g>
		</g>
	</g>
</g>
<path class="st1" d="M40.2,75.5c6.9-0.1,16.7-1.8,22.4-4C61.9,64.9,59.9,26,59.9,26s2.1,5.1,3.2,7.9c4.7-0.4,12.3-1.3,15.3-6.2
	C75.5,20.9,73.3,13.1,71,8c0,0-10.4-3.8-18.6-6.4c0,0-0.9-0.3-1.3,0.4c-3,4.2-4.5,7.1-11.2,7.1l0,0C33.5,9,31.9,6.2,29,2
	c-0.5-0.7-1.4-0.4-1.4-0.4C19.5,4.1,9,8,9,8c-2.3,5.1-4.5,13-7.4,19.7c3,4.8,10.4,5.8,15.3,6.2c1.1-2.8,3.2-7.9,3.2-7.9
	S18,64.9,17.4,71.5c5.8,2.2,15.5,4,22.4,4l0,0"/>
<g>
	<defs>
		<path id="SVGID_3_" d="M40.2,75.5c6.9-0.1,16.7-1.8,22.4-4C61.9,64.9,59.9,26,59.9,26s2.1,5.1,3.2,7.9c4.7-0.4,12.3-1.3,15.3-6.2
			C75.5,20.9,73.3,13.1,71,8c0,0-10.4-3.8-18.6-6.4c0,0-0.9-0.3-1.3,0.4c-3,4.2-4.5,7.1-11.2,7.1l0,0C33.5,9,31.9,6.2,29,2
			c-0.5-0.7-1.4-0.4-1.4-0.4C19.5,4.1,9,8,9,8c-2.3,5.1-4.5,13-7.4,19.7c3,4.8,10.4,5.8,15.3,6.2c1.1-2.8,3.2-7.9,3.2-7.9
			S18,64.9,17.4,71.5c5.8,2.2,15.5,4,22.4,4l0,0"/>
	</defs>
	<clipPath id="SVGID_4_">
		<use xlink:href="#SVGID_3_"  style="overflow:visible;"/>
	</clipPath>
	<g class="st2">
		<polygon class="st3" points="67.2,4.8 28.5,55.6 22.9,51.6 61.6,0.8 		"/>
		<polygon class="st4" points="17.4,0.9 55.1,50.5 49.5,54.5 11.8,4.9 		"/>
		<polygon class="st1" points="72.7,8.8 41.2,50.2 35.6,46.2 67.1,4.8 		"/>
		<polygon class="st3" points="11.8,4.9 49.5,54.5 44,58.6 6.2,8.9 		"/>
		<polygon class="st4" points="61.9,34.3 41.8,60.8 36.2,56.8 58.9,27 		"/>
		<polygon class="st1" points="6.2,8.9 46.1,61.4 40.6,65.4 0.7,12.9 		"/>
		<polygon class="st3" points="61.6,46 39.4,75.2 35.3,69.4 60.9,35.6 		"/>
		<polygon class="st4" points="18.2,33.9 43.8,69.6 39.4,75.2 12.6,37.8 		"/>
	</g>
	<path class="st5" d="M52.1,0.7c0,4.3-4.3,9.8-11.7,9.8s-12.9-6-12.9-10.3s5.5-4.8,12.9-4.8S52.1-3.6,52.1,0.7z"/>
</g>
<path class="st6" d="M40.2,75.6c6.9-0.1,16.7-1.8,22.4-4c-0.7-6.6-2.7-45.5-2.7-45.5s2.1,5.1,3.2,7.9c4.7-0.4,12.3-1.3,15.3-6.2
	C75.5,21,73.3,13.2,71,8.1c0,0-10.4-3.8-18.6-6.4c0,0-0.9-0.3-1.3,0.4c-3,4.2-4.5,7.1-11.2,7.1l0,0c-6.4-0.1-8-2.9-10.9-7.1
	c-0.5-0.7-1.4-0.4-1.4-0.4C19.5,4.2,9,8.1,9,8.1c-2.3,5.1-4.5,13-7.4,19.7c3,4.8,10.4,5.8,15.3,6.2c1.1-2.8,3.2-7.9,3.2-7.9
	S18,65,17.4,71.6c5.8,2.2,15.5,4,22.4,4l0,0"/>
<g>
	<g>
		<polygon class="st7" points="33.7,25.3 30.3,27.3 30.3,17.7 33.7,17.7 		"/>
		<polyline class="st8" points="30,26.9 26.8,25.2 26.8,17.9 29.9,17.9 		"/>
	</g>
	<g>
		<line class="st9" x1="34.3" y1="21" x2="26.2" y2="24.9"/>
		<path class="st10" d="M31.2,19.5c0,0-1.7-0.5-1.9,0c-0.5,1.1,1.8,3.6,1.4,4.7c-0.3,0.7-2.1,1.5-2.8,1.2c-0.7-0.2-1.9-2.4-0.3-2.8
			s4.3,3.1,5.4,2.2c1.1-0.8,0.6-4.5-0.8-3.6c-1.5,0.8-0.7,1.7-0.2,2c0.8,0.4,2.8,0.2,2.8,0.2"/>
		<path class="st11" d="M29,25.5l1.5-0.5c1.8-0.7-1.2-4.1-0.7-5.2c0.2-0.5,1.2,0,1.2,0"/>
		<path class="st12" d="M32.1,19.6c-0.2-0.2-0.7-0.2-0.8,0.2c0,0.2,0.3,0.5,0.3,0.5"/>
		<ellipse transform="matrix(0.3846 -0.9231 0.9231 0.3846 1.1341 40.782)" cx="31.2" cy="19.5" rx="0.5" ry="0.6"/>
		<ellipse transform="matrix(0.9202 -0.3916 0.3916 0.9202 -7.9015 11.9468)" class="st13" cx="25.3" cy="25.3" rx="1.2" ry="0.5"/>
		<line class="st9" x1="34.3" y1="21" x2="32.1" y2="22"/>
		<polygon points="34.7,23.7 35.3,23.4 34.6,23 		"/>
	</g>
</g>
</svg>
