<?xml version="1.0" encoding="utf-8"?>
<!-- Generator: Adobe Illustrator 22.0.0, SVG Export Plug-In . SVG Version: 6.00 Build 0)  -->
<svg version="1.1" id="Layer_1" xmlns="http://www.w3.org/2000/svg" xmlns:xlink="http://www.w3.org/1999/xlink" x="0px" y="0px"
	 viewBox="0 0 80 77.1" style="enable-background:new 0 0 80 77.1;" xml:space="preserve">
<style type="text/css">
	.st0{fill:#00B7BB;}
	.st1{fill:#FFFFFF;}
	.st2{fill:none;stroke:#00B7BB;stroke-miterlimit:10;}
	.st3{stroke:#00B7BB;stroke-width:0.25;stroke-miterlimit:10;}
	.st4{fill:none;stroke:#00B7BB;stroke-width:0.25;stroke-miterlimit:10;}
	.st5{fill:none;stroke:#00B7BB;stroke-width:3;stroke-miterlimit:10;}
	.st6{fill:none;stroke:#000000;stroke-width:2;stroke-linecap:round;stroke-linejoin:round;}
</style>
<path d="M40.2,75.5c6.9-0.1,16.7-1.8,22.4-4C61.9,64.9,59.9,26,59.9,26s2.1,5.1,3.2,7.9c4.7-0.4,12.3-1.3,15.3-6.2
	C75.5,20.9,73.3,13.1,71,8c0,0-10.4-3.8-18.6-6.4c0,0-0.9-0.3-1.3,0.4c-3,4.2-4.5,7.1-11.2,7.1l0,0C33.5,9,31.9,6.2,29,2
	c-0.5-0.7-1.4-0.4-1.4-0.4C19.5,4.1,9,8,9,8c-2.3,5.1-4.5,13-7.4,19.7c3,4.8,10.4,5.8,15.3,6.2c1.1-2.8,3.2-7.9,3.2-7.9
	S18,64.9,17.4,71.5c5.8,2.2,15.5,4,22.4,4l0,0"/>
<g transform="translate(0.000000,440.000000) scale(0.100000,-0.100000)">
	<path class="st0" d="M197.4,4145.9c-0.4-11.7-0.2-21.2,0.7-26.3c0.7-4.3,1.4-14.4,1.4-22.5c0.1-8.1,0.3-14.8,0.5-15.1
		s2.1-0.7,4.2-1.2c5.9-1.2,9.2-3.1,19.9-11.1c5.4-4.1,11.1-7.6,12.6-7.9c1.8-0.2,4.3-2.4,7.1-6.3c2.3-3.2,7.6-9.2,11.7-13.2
		c5.1-5.1,8.2-9.2,9.9-13.4c1.4-3.4,2.9-6.1,3.5-6.1c0.5,0,4-2.9,7.7-6.4c7.9-7.3,7.7-9.3-0.8-6.8c-3,0.8-7.5,2.4-10.3,3.6
		c-9,3.7-16,6.2-19.9,7.1c-2.1,0.5-4.3,1.4-5.1,2c-0.6,0.7-2.6,1.4-4.4,1.6c-1.8,0.2-3.7,0.8-4.3,1.3c-0.5,0.5-3.6,1.8-6.7,2.9
		c-3.1,1.1-7.2,2.9-8.9,4.1c-1.7,1-5.3,2.3-7.9,2.8c-4.3,0.7-4.7,0.6-5.5-1.9c-0.4-1.4-0.7-3.4-0.4-4.3c0.5-1.3,5.3-3.3,10.2-4
		c0.7-0.2,4.8-2.3,9.4-5c4.6-2.6,9-4.7,9.7-4.8c0.8,0,3.7-1.1,6.5-2.6c2.9-1.3,8.9-3.8,13.5-5.5c12.9-4.7,23.3-9.7,22.2-10.7
		c-0.5-0.4-4-1.1-7.7-1.4c-3.8-0.3-11.4-1.1-17.1-1.8c-5.6-0.7-14.4-1.4-19.6-1.7c-11.2-0.5-17.5-3.1-22.4-9
		c-4.5-5.4-5.5-11.9-1.9-12.1c1.2-0.1,2.3,0.6,2.4,1.5s0.6,1.7,1,1.6c0.6,0,1.8,1.1,2.7,2.7c0.9,1.5,2.3,2.7,3.2,2.6
		c0.8,0,1.5,0.4,1.5,0.8c0,0.5,1,0.8,2.1,0.9c1.9,0.1,6.8,0.5,15.3,1.3c4.2,0.3,4.3,0.3,3.3-2.6c-0.6-2.1-0.4-3,1-3.7
		c1-0.5,2.4-0.4,3.1,0.3s2,0.8,2.7,0.4c0.9-0.4,1.6-0.1,1.6,0.6c0.1,1,0.7,1,2.5-0.2l2.4-1.5l-2.8-1c-1.6-0.6-3.4-0.8-4.2-0.6
		c-0.7,0.2-1.6-0.2-2.1-0.9c-1-1.3,3.8-3.6,8.2-3.9c2.3-0.1,3.1-0.6,2.6-1.6c-0.3-0.8,0-2.4,0.7-3.4c1.2-2,1.7-2,5.7-0.6l4.3,1.4
		l-0.2-3.5c-0.2-2.5-1.7-5.1-4.7-8.5c-4.2-4.5-4.8-5.6-5.8-13.9c-1.2-8-2.4-15.5-4.1-24.1c-0.3-1.6-1-4.5-1.5-6.5
		c-1-3-1.3-3.4-2.6-2.2c-0.9,0.8-2.9,4.7-4.5,8.7c-2.2,5.3-2.7,8.1-2,10.3c0.9,2.9,0.9,3-2.7,2.4c-3.5-0.6-3.5-0.5-3.3,4.4
		c0.1,2.7,0.2,5.5,0.4,6.3c0.5,2.1-0.8,1.6-4.6-1.7c-2.4-2.1-4.5-2.9-6-2.6c-1.3,0.4-2.8,0.7-3.1,0.8c-2.9,0.5,0,14.5,3.8,18.8
		c0.7,0.7,1.1,2.6,0.9,4.2c-0.3,2.4-0.2,2.6,1.1,1.4c1.2-1.1,1.1-0.3-0.2,2.8c-1,2.3-2.1,4.3-2.6,4.3c-1.4,0.1-4.7-5.2-5.8-9
		c-1.2-4.9-7.7-15.8-10-16.9c-1-0.5-1.7-1.9-1.6-3.6c0.1-2,0.9-2.9,3.5-3.3c1.9-0.3,3.9-1.1,4.6-1.9c0.8-0.6,2.2-0.9,3.4-0.7
		c3.6,0.9,18.2-11.5,17.3-14.8c-0.3-1.1-3.7-2.8-9.1-4.4c-10.3-3.1-12.4-3.3-10.2-0.9c1.9,2,1.1,2.1-3.8,0.1c-2.2-0.9-4.4-2.7-4.7-4
		c-0.4-1.3-1.4-4.3-2.2-6.8c-0.8-2.4-1.3-8.2-1.3-12.7l0.2-8.3l2.6,2.2c6,4.9,8.6-0.1,3.1-6.3c-5.9-6.9-7-9.9-7.6-20.8
		c-0.5-8.6-0.2-11.8,1.7-17.4c3.4-10.3,2.5-16.3-4.1-25.5c-3-4.2-5.3-10.6-3.8-10.7c0.5,0,2.3,1.1,4.2,2.6c3.7,2.6,7.2,2.3,6.4-0.7
		c-0.3-1-2.8-3.3-5.8-5.2c-2.9-1.9-6-3.9-6.8-4.5c-0.9-0.6-1.6-4.1-2-9.7c-0.3-7-0.2-8.2,0.9-6.5c3.6,5.8,12.2,11.7,17.9,12.3
		c1.7,0.1,4.1,0.6,5.4,0.9c3.9,1,2.4-1.1-5.1-7c-7.7-6.2-14.7-14.7-16.3-19.6c-1-3.2,1.4-12.3,3.3-12.4c0.6,0,0.6-0.6,0.3-1.3
		c-0.5-0.5,1.4-3.5,4-6.4c6.2-6.7,8.8-13.2,7.6-19.8c-0.5-3.2-0.4-4.9,0.5-5c0.7,0,1.3,0.5,1.3,1c0,0.7,0.9,1.1,1.8,1
		s1.7-0.6,1.6-1.1c-0.2-2.5-1.8-4.5-3.6-4.4c-3.3,0.2-4.8-2.2-5.1-7.9l-0.3-5.5l3.1,3.3c3,3.2,6.7,4.1,7.8,2.1
		c0.3-0.6,0.1-2.5-0.6-4.3c-1.5-4.4-6.1-5.7-10.5-2.7c-3.1,2.1-3.3,2.1-3.4,0c-0.1-1.2,0.5-4.2,1.4-6.6c1.4-4,1.4-4.5-0.6-5.7
		c-1.2-0.7-3.5-1.3-5.2-1.1c-4.4,0.3-5.1-1.5-2-5c3-3.4,4.7-3.7,14.5-2.5c9.2,1.1,14.9,3.1,18.3,6.5c4.8,4.8,10.2,12.3,12,17
		c2.3,5.7,1.2,10.6-4.4,20.2c-2.3,3.6-4,7-3.9,7.4c0,0.5-1.3,2.9-2.8,5.6c-1.5,2.7-4.1,7.8-5.7,11.3c-1.5,3.5-3.9,8.3-5.2,10.5
		c-1.3,2.2-2.3,4.6-2.3,5.2c0.2,3.2,25.7,17,30.7,16.7c0.9-0.1,4.7,2.1,8.4,4.8c7.9,5.7,10.5,10.3,11.1,20.3c0.2,5.2-0.1,7-2,9.2
		c-3.3,3.7-10.1,9.5-14.8,12.4c-6,3.7-7.7,5.7-6.3,7.7c1.5,2.4,6.3,6.7,9.6,8.6c1.4,0.8,3.3,2.1,4.1,2.8c2.5,2.1,14.9,6.5,17.9,6.3
		c6.5-0.4,21.1-4.3,26.7-7.1c3.3-1.7,9.6-3.9,13.8-4.8c4.3-1.1,10.2-2.5,13.1-3.2s7.4-1.5,9.8-1.6s5.5-0.9,6.6-1.5
		c1.1-0.7,6.6-1.8,12.1-2.3c5.5-0.7,11.2-1.5,12.7-1.9c1.4-0.4,8.7-2.5,15.9-4.5c7.3-2.2,15.1-4.9,17.4-6.2c2.2-1.4,5.6-2.8,7.6-3.3
		c4.1-0.9,9.9-4.2,9.8-5.5c0-0.5,1.9-2.2,4.3-3.9c6.1-4.2,24.9-27.8,27.9-34.9c3.1-7,2.6-10.6-1.3-10.4c-1.6,0-6.1-0.6-10.3-1.5
		c-4.1-0.8-10.3-1.6-13.7-1.9s-9.4-1-13.2-1.5c-6.9-1-7.1-1-12,2.2c-7.7,5.2-19.1,4.8-15-0.5c1.4-1.8,1.3-2-0.3-1.9
		c-1.1,0.1-4.4,2.3-7.2,5c-4.4,4.1-5.8,4.8-10.1,5c-2.8,0.1-6.5-0.5-8.2-1.3l-3.3-1.4l3.3-1c10-2.9,10.9-6,2.2-7.9
		c-5.5-1.3-6.1-1.2-10,1.1c-5.8,3.4-6,4.6-2.3,8.1c2.8,2.4,2.9,3,1.4,3.8c-1,0.4-2.7,0.8-3.8,0.9c-2,0.1-9.6-6.3-9.7-8.3
		c-0.1-1.7-2.2-2.5-4.6-1.5c-1.8,0.7-2.1,1.8-1.9,5.3c0.3,4.1,0.1,4.4-2.9,4.6c-3.7,0.2-6.6-2.2-8-6.5c-1.6-5-0.2-7.1,10.6-16.3
		l10.4-8.8l12.4-0.1c12.8,0.1,29.1,1.2,43.2,3.1c4.4,0.5,10.8,1.2,14.2,1.4c3.4,0.2,8.1,0.6,10.2,1.1c2.2,0.4,6.2,0.9,8.9,1
		c2.6,0.2,6.9,0.6,9.7,0.7c2.6,0.2,8.4,0.8,12.8,1.3c4.4,0.6,11.9,1.2,16.9,1.1c4.9,0,9.7,0.6,10.6,1.3c2.3,1.7,5.8,7.4,6.3,10.2
		c0.4,2.8-2.2,14.3-3.3,14.3c-0.9,0.1-2.5,5.7-2,7.1c0.1,0.4-1.3,2.2-3.4,4.2c-3.3,3.1-6.5,8.4-5.5,9.2c1.9,1.6,9.2-0.6,8-2.3
		c-0.4-0.7-0.1-1,0.7-1c1.6,0.1,3.9-0.8,12.7-5.5c2.5-1.4,5.3-2.5,6.2-2.5c1-0.1,2.3-0.9,3-1.9s2.3-1.8,3.5-1.9
		c1.6-0.1,2-0.7,1.5-1.9c-0.5-1.3-0.2-1.6,1.5-1.1c1.5,0.4,2.5,0,2.9-1.2c0.3-1,1.1-1.5,1.9-1.1c0.7,0.3,0.8,0.1,0.3-0.6
		c-0.5-0.6,0.1-2.3,1.2-3.6c1.9-2.2,1.9-3.5,0.9-13.4c-0.6-6.1-1.6-13-2.2-15.5c-0.6-2.4-1.1-4.9-1.1-5.6c-0.1-0.6-2.3-1.9-4.8-3
		c-2.5-1-5-2.3-5.4-2.8c-1.4-1.8-0.1-5.6,1.7-5.1c1.3,0.4,1.2,0,0.2-1.6c-0.8-1.2-1.1-2.9-0.7-3.6s0.3-0.9-0.4-0.5
		c-0.6,0.5-1.5,0.2-1.9-0.7c-0.4-0.9-2.4-1.8-4.4-2.1c-4.5-0.7-10.5-6.2-10.7-9.8c-0.1-2.4,0.1-2.5,1.6-1.5c1.4,1,1.8,1,1.7-0.4
		c-0.2-2.6-8-7.3-13-7.5c-4.7-0.4-5.3-1-3.3-3.3c0.6-0.7,0.9-1.6,0.4-2.1c-1.1-1-5.6-0.7-8.3,0.5c-4,1.6-3.4-2.2,0.8-5.1
		c2.9-2.1,5-2.5,13.6-2.8c10-0.3,10.3-0.2,17.2,4.2c9,5.8,20.5,14.3,24,17.8c1.6,1.5,2.8,3.9,2.9,5.5s2.2,12.9,4.5,25.2
		c2.5,12.3,4.9,26,5.4,30.4c1,7.6,0.9,8.5-2.1,13.7c-2.5,4.6-4.2,6.3-9.7,8.9c-3.6,1.8-6.6,3.6-6.5,4.1c0,0.5-0.7,0.8-1.6,0.9
		c-0.9,0.1-1.7,0.6-1.6,1c0.1,0.9-7.3,7.5-15,13.5c-2,1.6-4,3.3-4.3,3.8c-0.3,0.5-4.3,3.8-8.8,7.3c-8.2,6.2-8.4,6.5-8.2,11
		c0.4,12.1,1.4,16.8,4.5,20.8c6.9,8.7,6.7,10.7-2.8,21.7c-5.5,6.3-6.4,8.1-5.8,10.5c1.2,4.6,6.7,16.5,7.3,16c0.3-0.1,1,3,1.5,7.1
		c1,9.3-0.8,16.7-7.8,32.3c-2.8,6.1-6.2,14-7.8,17.5c-3.4,7.7-4.7,10.8-8.9,19.2c-0.9,2-2.5,6.8-3.6,11c-1.8,6.6-1.9,7.9-0.4,11.4
		c3.6,8.1,12.3,13.4,31.1,18.6c11,3,12.2,3.6,13.4,6.6c1,2.7,1.9,3.4,4.3,3.2c1.6-0.1,4.2-1.3,5.7-2.6c3.9-3.4,4.3-3.1,3.8,2.3
		c-1,9.1-5.7,13.7-17.3,16.7c-7.7,2.1-16.1,1.2-19.9-1.8c-1.2-0.9-2.1-1.1-2.1-0.5c0.2,2.5-5.5,3.1-10.3,1c-2.7-1.1-5.7-1.9-6.6-1.8
		c-1,0.1-4.7-0.8-8.1-1.9c-3.7-1.2-9.5-2-13.8-1.8c-6.3,0.2-8.3-0.3-13.2-3.2c-3.2-1.9-6.6-3.7-7.5-3.8c-4.7-0.9-15.7-3.9-17.3-4.6
		c-0.9-0.4-4.6-1.2-8-1.8c-14.1-2.3-18.1-3.8-16.2-6.4c0.7-1.1,0.6-1.8-0.7-2.8c-1-0.7-1.9-2.5-1.9-3.9c-0.1-2.4,0.4-2.7,3.7-2.9
		c2-0.1,6,0.4,8.7,1.2c2.6,0.7,7.2,1.2,9.9,1.1l5.1-0.3l-1.2-4.7c-1.5-6.2-1.7-13.9-0.4-16.7c0.5-1.2,0.9-3,0.9-4
		c-0.1-1,0.8-4,2-6.7c1.2-2.7,2.4-6.4,2.8-8.3c0.4-1.8,2.2-8.6,4-14.8c3.5-12,4-22.2,1.2-24.3c-0.8-0.5-3.8-1.6-6.7-2.2
		c-2.9-0.6-5.7-1.4-6.4-1.9c-1.4-0.9-7.2-1.6-16.4-1.7c-7,0-7.8,0.5-13.3,8.2c-7.8,11-12.6,29.1-11.7,43.5c0.5,8.4,1.6,10.8,4.3,9.5
		c1.8-0.8,2.2-2.4,1.6-6.2c-0.1-0.9,0.2-2.5,0.7-3.4c0.9-1.4,1.3-1.4,3.2,0c1.2,0.8,5.1,3.1,8.7,4.8c9.4,4.5,11.6,9.6,7.6,17.8
		c-2.1,4.4-9.7,9.5-14.8,9.9c-1.2,0.1-2.8,1-3.6,2c-1.7,2.3-4.7,12.9-4.5,15.8c0.1,1.1-0.8,4.2-1.8,6.8c-1.1,2.7-1.9,6-1.8,7.4
		c0.1,1.4-0.6,4.9-1.5,8c-2.7,8.7-4.7,16.2-7.4,27.5c-1.4,5.7-3.5,12.5-4.8,15.3c-2.4,5.2-10.3,13.9-14.8,16.2
		c-1.5,0.8-3.5,2-4.3,2.9c-0.9,0.8-4.3,3.2-7.6,5.2c-8.7,5.3-20.6,12.8-25.6,16.2c-2.4,1.6-7.4,4.6-11.1,6.8s-7.3,4.6-8,5.6
		c-0.6,0.9-1.6,1.7-2.2,1.7c-1.8,0.1-8.6,5.6-8.5,6.9c0,0.8-2.1,0.9-7,0.1c-11.8-1.7-23.5,1.9-31.2,9.6c-4.3,4.2-5.5,4.8-10.7,5.1
		l-5.7,0.4L197.4,4145.9z M253.8,4142.9c1-0.4,1.9-1.1,1.8-1.6c0-0.5,2-2,4.6-3.6c7.5-4.4,17-10.8,18.3-12.3
		c0.7-0.8,2.2-1.5,3.3-1.6c1.1-0.1,2-0.6,2-1.1c0-0.5,3.5-3,7.9-5.6c4.2-2.6,9.8-6,12.2-7.7c2.4-1.6,7.2-4.5,10.7-6.4
		c6.1-3.7,7.7-6,4.3-7.1c-0.9-0.3-3.6,1.4-6.3,3.8c-4.3,3.9-7.8,6.5-18.6,12.8c-1.7,1.1-4,2.5-4.9,3c-0.9,0.6-6.8,4-13.1,7.7
		c-6.3,3.7-11.8,7.2-12.1,7.7c-0.3,0.6-1.8,1.7-3.2,2.6c-8.1,4.9-12.9,9-12.8,10.9c0,0.6,0.9,0.6,2,0.1
		C250.9,4144,252.7,4143.2,253.8,4142.9z M247.3,4136.9c1.5-2,13.8-10.6,15.4-10.7c0.6,0,1-0.5,0.9-1.2c0-0.6,0.8-1.2,2-1.3
		c1.2-0.1,4.1-1.6,6.3-3.6c2.3-1.8,5.5-4.1,7.3-4.9c1.6-0.9,2.9-2.1,2.9-2.8c-0.1-1.7-1.3-1.3-6.1,2.1c-4.6,3.1-8.2,4.1-8.3,2.2
		c0-0.6,0.6-1.2,1.5-1.2c1.8-0.1,7.2-4.7,7.1-6.2c-0.1-1.7-4.6-0.8-5.1,1c-0.4,0.9-1.2,1.8-2.1,1.8c-0.8,0-1.9,0.8-2.3,1.7
		c-1.8,3.8-13.4,8-13.6,4.9c-0.2-3-9.5,1.7-10.4,5.3c-0.3,1.1-2,3.1-3.7,4.3l-3.2,2.4l3.2,4C242.1,4139,245.2,4139.7,247.3,4136.9z
		 M239.4,4112.2c2.9-1.1,2.2-2.7-1.2-2.5c-3.5,0.2-6.7,2-7.3,4.3c-0.5,1.4,0.1,1.4,3,0.3C235.9,4113.5,238.3,4112.6,239.4,4112.2z
		 M224.1,4111.8c1-0.7,4-2.3,6.8-3.7c2.7-1.4,15-8.3,27.3-15.4c30.7-17.5,33.6-21,37.8-43.8c0.9-4.4,2.4-9.8,3.6-11.9
		c1.5-2.8,1.8-4.9,1.2-6.9c-1.3-3.8-4-3.7-4.6,0.1c-0.5,3.1-4.7,4.8-6.9,2.8c-2.2-1.9-5.4-1.1-5.2,1.2c0.1,1.4-0.9,2.4-2.6,3
		c-1.5,0.5-3.7,1.9-4.9,3.2c-1.1,1.2-3.3,3.3-5,4.5c-4.3,3.2-8.2,7-17.9,17.4c-8.3,9-13.6,13.2-17.3,13.4c-1,0.1-5.4,2.4-9.9,5.1
		c-4.5,2.8-8.6,5.1-9.3,5.1c-2.3,0.1-9.9,4.6-9.8,5.7c0.1,0.6,1.4,2.9,2.9,5.1c1.5,2.2,4.6,6.6,6.8,10
		C221.4,4113.5,221.3,4113.4,224.1,4111.8z M248.7,4106.8c2.2-1.4,7.2-4.1,11.2-6c4-1.8,9.2-4.5,11.7-5.8c2.5-1.4,4.9-2.5,5.3-2.5
		c1.7-0.1,9-4.6,11.2-7c1.4-1.4,2.3-3.4,2-4.4c-0.4-1.6-0.8-1.5-4.3,0.6c-11,6.9-31.1,17.9-33.1,18c-2.4,0.1-10.6,6.4-10.5,8
		C242.3,4109.9,243.9,4109.7,248.7,4106.8z M213.1,4083.5c0.9-0.8,2.6-2,4-2.5c4.5-1.5,21.1-10.1,23-12c1.6-1.7,2.4-4.9,1.2-4.8
		c-0.3,0-2.6,1.6-5.2,3.5c-4.5,3.3-7.2,4.7-17,8.9c-2.6,1.2-4.7,2.4-4.7,3c0,0.6-1,1.1-2.2,1.2c-2.4,0.1-6.6,3.6-6.5,5.3
		C205.9,4087.5,211.3,4085.5,213.1,4083.5z M495.3,4035.5c0.9-0.7,2.5-2,3.8-2.7c1.2-0.6,2.4-2,2.6-2.9c0.4-1.3-0.3-1.3-2.6-0.6
		c-2.2,0.7-4.8,0.3-9.4-1.7c-5.2-2.2-6.6-2.3-7.3-1c-0.5,0.9-0.9,2.3-0.8,3.1c0.1,1.6-2.6,2-5.6,0.6c-1.7-0.8-2-0.6-1.4,1.1
		c0.8,2.7,5.1,6.1,8.1,6.7C485.9,4038.8,493.5,4037.2,495.3,4035.5z M310.8,4039.9c1.8-5.3,1.7-6.7-0.3-5.2
		c-1.9,1.5-4.5,10.7-2.8,10.6C308.3,4045.3,309.7,4042.8,310.8,4039.9z M462,4029.2c0.3-0.9-1.9-1.5-6.4-1.7
		c-5.9-0.3-7.6-1-13.1-4.9c-6.5-5-10.1-6.5-14.1-6.2c-1.6,0.2-0.3,1,3.7,2.5c3.4,1.1,7.9,3.6,9.9,5.3l3.8,3l-6.5,0.7
		c-5.4,0.7-7.4,0.2-11.8-1.9c-2.8-1.4-5.2-3.1-5.2-3.7c0-0.7-0.5-0.8-1.2-0.4s-1.2-0.4-1.3-2c-0.1-2.1-1.2-3-4.9-4.2
		c-5.9-1.9-5.8-4.6,0.2-8c4.3-2.4,4.3-2.5,1.5-3c-2.6-0.5-2.7-0.5-0.7-1.5c2.1-0.9,2-1-0.9-2.4c-1.9-0.8-3.3-2.1-3.3-2.7
		c-0.2-2.6-4.4,3.3-5.4,7.7c-0.7,3-2,4.9-3.7,5.7c-3.7,1.7-15.7,1-20.1-1.1c-4.9-2.5-9.3-3.4-8-1.9c1.6,2.4,12.7,5.6,25.6,7.6
		c13,1.9,14.4,2.6,21.1,9.4c4.4,4.5,8.9,6,18.7,6.2C453.2,4031.7,461.6,4030.8,462,4029.2z M478,4027.4c-0.1-2.3-3.5-5.3-15.4-14.4
		c-7.7-5.7-15.6-11.9-17.6-13.6c-5.5-4.7-9.6-4.8-16.4-0.6l-5.8,3.6l6.2,0.3c3.9,0.1,9.1,1.6,14.3,3.9c4.5,2,9.3,3.6,10.5,3.5
		c3.4-0.2,12.4,7.1,13,10.5c0.2,1.6,0.6,3.5,0.7,4.3c0,0.7,1.7,1.3,3.6,1.1c1.9-0.1,3.4,0.4,3.5,0.9c0,0.7,0.9,1.1,1.8,1
		S478,4027.6,478,4027.4z M490.8,4023.6c0.7-1.4-3.6-3.8-8.2-4.7c-3.3-0.5-3.3-0.5,1.3,2.6C489.1,4025.1,489.9,4025.3,490.8,4023.6z
		 M461,4024.4c0.1-0.6,0.1-1.8,0.2-2.5c0.1-1.8-1.7-3.1-4.3-2.9c-2,0.1-2.7,4.6-0.9,6C457.3,4026.2,461,4025.6,461,4024.4z
		 M435.4,4025.1c0.9-1.8-1.6-3.9-3.5-2.9c-1.5,0.7-1.6,1.1-0.4,2.4C433.2,4026.4,434.5,4026.5,435.4,4025.1z M455.9,4013.1
		c-1.4-0.6-2.9-0.6-3.3-0.1c-1.2,1.2,2.2,2.7,4.1,1.8C458.1,4014.2,457.8,4013.7,455.9,4013.1z M222,4026.4c3.5-1.8,7.1-3.8,8-4.3
		c1-0.6,3.3-1.6,5.3-2.1c2-0.5,3.5-1.5,3.5-2.1c-0.1-1.5-3-0.6-12.8,3.7c-8.9,4.1-14.8,7.2-14.8,7.8
		C211.3,4030.7,216.4,4029.4,222,4026.4z M392.6,4017.6c0-0.6-2-1.5-4.5-2c-8.3-2-9.4-0.7-1.5,1.6
		C391.8,4018.8,392.7,4018.8,392.6,4017.6z M449.5,3978.3c2.5-5.7,4.4-11.2,4.3-12.3c-0.1-1.1,0.2-2.3,0.7-2.5
		c0.4-0.1,1.6-2.2,2.5-4.5c1.6-3.7,7.4-13.9,9.8-17.1c1.6-2.1,3.9-9.3,6.4-18.8c2.5-9.5,2.3-17.9-0.5-24.4c-1.1-2.4-2-5.2-2.1-6.1
		c-0.1-0.9-1.2-2.9-2.5-4.4c-2.3-2.7-2.3-2.7-1,14.8c1.3,17.1,1.2,17.6-1.5,24.4c-7.9,19.9-13.1,32-16.6,38.8c-2.1,4-3.8,7.7-3.8,8
		c0,0.3-1.1,3.4-2.5,6.8c-1.9,5.1-2.2,6.6-1,7.9C443.7,3991.1,444.3,3990.4,449.5,3978.3z M435,3985.1c2.1-1.8,3.2-4.3,11-22.7
		c8.7-20.7,10.7-25.2,12.5-26.7c1.2-1,1.3-1.5,0.2-2c-1.1-0.6-1.1-1.2-0.1-2.6c0.7-1.1,1.2-2.1,1.1-2.3c-1.5-1.7-0.4-7.6,1.8-9.8
		c1.4-1.4,2.6-3.7,2.7-4.9c0.4-4.9-2.9-21.4-4.7-23.9c-1.1-1.5-2.1-4.7-2.4-7.1c-0.3-2.5-1-4.7-1.7-4.9c-0.8-0.2-1,4.6-0.4,14.8
		c1,17.9-0.7,26.4-9.2,46c-6.6,15.1-10.4,21.7-14,23.7c-3.9,2.2-6.8,8-7,14.4c-0.2,5.2,1,8,4.2,9
		C431.8,3986.9,433.1,3986.7,435,3985.1z M421.9,3971.4c2.4-3.1,8.2-22.8,8.9-30.5c2.2-24.3,1.9-28.8-2.1-33.5
		c-1.2-1.4-2.6-3.8-3.1-5.3c-1.1-3.3-7.8-7.3-12-7c-4.2,0.3-4.5,4.1-0.6,8.6c1.7,2,3.6,5.5,4.1,7.9c1.3,5.6,4,10.2,6.2,10
		c1.6-0.1,1.8,0.9,1.5,7c-0.2,3.9-0.2,10.5-0.1,14.7c0.3,6.2-0.1,8.1-1.7,9.5c-2.3,1.8-6.6,13.6-6.4,17.4
		C417,3974.5,419.1,3975,421.9,3971.4z M318.7,3958.1c-0.5-7.9,0.7-10.9,8-19.5c3.9-4.8,6.6-8.8,5.9-9c-0.7-0.2-3.1,1.8-5.2,4.3
		c-3.6,4.3-10.6,9.8-11.3,8.9c-0.1-0.1-0.8-1.8-1.6-3.6c-1.4-3.6-5-4.8-6.7-2.2c-0.6,0.9-2.3,2.4-3.6,3.3c-1.9,1.1-2.3,2.3-1.8,4
		c1,3.4-0.4,5.7-3.9,5.9c-1.7,0.1-2.9,0.7-2.8,1.6c0.1,2.3,2.3,2.9,3,0.9c0.3-1,1.1-1.9,1.7-1.9c0.8,0,1,2,0.8,5.6
		c-0.4,5.9,1.4,8.1,2.4,2.8c0.2-1.5,1.4-3,2.6-3.4c2.2-0.7,2.6,0.3,2.5,5.6c0,1.8,0.6,2.4,2.4,2.3c1.2-0.1,2.6,0.6,3.2,1.7
		c0.8,1.5,1.1,1.4,2.8-1C318.1,3963,318.9,3960.2,318.7,3958.1z M271.7,3947.8c2.3-4.3,2.3-8.1,0.2-11c-0.7-1.1-1.1-2.9-0.7-4
		c0.6-1.8,0.8-2,2.7-0.3c2.7,2.1,5.6,2,6.3-0.4c0.4-1.3-0.2-2-1.7-2.3c-2.7-0.5-3.1-2.2-0.8-3.2c0.9-0.5,1.6-1.6,1.5-2.5
		c-0.1-0.9,2.5-3,5.8-4.7c3.4-1.8,6.2-4,6.5-5.3c0.4-1.3,1.6-3.5,2.7-5c1.6-2.1,2.3-2.4,3.1-1.4c0.7,1.1,2.7,0.1,7.6-3.8
		c3.7-2.8,6.3-5.6,5.9-6.1c-0.9-1.3-34,1-34.8,2.4c-0.9,1.6-6.2,1.9-6,0.3c0.2-0.7-0.3-1.5-1-1.6c-0.7-0.3-1.6,1.5-2,3.9
		c-0.4,2.3-1.3,4.4-2.1,4.7c-1.3,0.5-6.7-7.7-8.3-12.8c-1.1-3.7-5.3-4.8-6-1.7c-0.4,1.2-0.3,2.6,0.1,3.2c1.2,1.7,3.5,12.6,7.3,35.5
		c1.5,9,2.3,11.1,5.7,15.2c2.2,2.7,4.4,4.8,4.9,4.8C269.3,3951.6,270.6,3949.8,271.7,3947.8z M212.3,3938.4c-1.3-3.8-2-4.5-4.3-4.4
		c-1.7,0.1-2.6,0.6-2.1,1.3c0.5,0.6,1.3,0.8,1.8,0.4c0.5-0.5,1-0.3,1,0.3c0,0.6,1,3,2.1,5.3C213.5,3946.4,214.4,3944.6,212.3,3938.4
		z M326.4,3925.2c2.2-2.6,2.5-3.4,1.1-2.9c-1.2,0.5-3.3,1.3-4.8,1.8c-1.7,0.6-2.6,1.6-2.5,3C320.4,3930.2,322.8,3929.5,326.4,3925.2
		z M398.7,3916.3c-0.1-1.1-0.8-2.2-1.7-2.5c-2.1-0.7-4.4,2.3-3.5,4.4C394.5,3920.5,398.8,3918.8,398.7,3916.3z M387.4,3915.9
		c2.7-1.8,2.6-4.2-0.3-4.8c-2.9-0.5-3.5,0.2-3.3,3.6C384,3917.6,384.4,3917.7,387.4,3915.9z M378.9,3913.2c1.5-2.8-0.3-3.7-4-2
		c-2.8,1.2-3.2,4.2-0.8,4.8C376.1,3916.5,377.6,3915.6,378.9,3913.2z M299.4,3915.2c1-1.6,1.4-2.9,0.8-2.9c-1,0.1-3.5,3-4.8,5.6
		C294.2,3920.5,297.5,3918.3,299.4,3915.2z M368.7,3911.2c0.1-1.4-0.5-2-1.9-1.9c-2.5,0.2-5,2.9-3.7,4.1
		C364.6,3914.8,368.5,3913.2,368.7,3911.2z M361.7,3907c0.2-1.1-0.5-1.9-1.4-1.8c-2,0.1-4.2,3-3.1,4
		C358.6,3910.5,361.5,3909.2,361.7,3907z M344.8,3904.5c0.7-1.1,1-2.1,0.6-2.4c-0.8-0.9-5.2,1.9-5.1,3.3
		C340.4,3907,343.3,3906.5,344.8,3904.5z M393.4,3897.7c0.3-0.6-2.2-2.1-5.4-3.5c-5.6-2.4-6-2.4-9-0.5c-2.8,1.9-3.8,3.7-2.5,4.9
		C377.6,3899.5,392.9,3898.6,393.4,3897.7z M423.4,3887.5c7.9-3.1,15-6.4,15.7-7.2c0.6-0.8,2.4-2,3.8-2.4c3.1-1.1,12.1-6.2,12.8-7.2
		c0.3-0.5,1.9-1.4,3.6-2.1c2.4-1.2,3.1-1,4.1,0.5c1.1,2,1.4,2.6,1.5,4.8c0.1,1.4,4.5-1.5,8.5-5.5c2.7-2.8,1.4-4.3-3.1-4
		c-3.7,0.2-4-1.3-1.2-4.9c3.5-4.3,3-9.1-0.4-5.2c-0.5,0.6-2.5,1.5-4.3,1.9c-13.6,2.6-16.3,3.2-16.8,4.1c-0.3,0.6-1,0.9-1.5,0.5
		c-0.6-0.3-3.6,2.4-6.7,6c-5.3,6.1-10.6,9.3-16.2,9.6c-3.2,0.2-9.9,4.2-14.3,8.5c-3.8,3.9-6.1,5-6.2,3.2c-0.1-0.9,5.5-6.7,7.6-7.9
		c0.8-0.4,2.2-1.3,3-1.9c3.8-2.5,7.9-4.3,11.7-5.3c4-0.9,7.1-4.2,5.4-5.8c-2.7-2.3-21.4,4.3-32.1,11.4c-3.5,2.4-6.6,4.3-7.2,4.3
		c-0.5,0-2,1.6-3.6,3.4l-2.8,3.3l2.5,1.9c1.9,1.4,3.5,1.6,6.8,0.8c3.6-0.9,4.4-0.7,4.5,0.9C398.5,3896.1,407,3894.2,423.4,3887.5z
		 M377.2,3889.9c6.3-8.2,24.5-25.9,30.7-29.9c3.4-2.1,3.5-2.1,5.5,0c2.3,2.6,4.8,2.6,6.6,0.2c0.7-1,2.1-1.8,3.2-1.9
		c1-0.1,6.6-2.8,12.5-6.1c7.9-4.5,10.8-6.7,11.1-8.5c0.9-4.9-0.9-4.9-8.7-0.1c-17.6,10.7-21.9,13.1-22.4,12.6
		c-0.4-0.3,1.6-2.2,4.1-4.3c2.7-2.1,5-4.4,5.3-5.3c0.8-2.9-1.2-8.1-4.1-10.1c-7.8-5.5-10.8-5.8-10.5-0.9c0.3,5.2-3.9,14.8-9.1,20.8
		c-2.6,3-12.5,10.6-22.2,17.2c-9.7,6.5-17.4,12.6-17.5,13.5c0.1,2.1,7.3,8.6,9.5,8.5C372.2,3895.4,374.9,3892.8,377.2,3889.9z
		 M227.9,3898.2c0.7-1,2.1-1.8,3.2-2c1.4-0.1,1.2-0.3-0.5-1c-1.3-0.4-2.7-0.3-3.3,0.3c-2.9,3-8.6,0-8.9-4.4
		c-0.2-2.5,0.6-3.1,9.2-7.9c7.6-4.3,7.1-7.1-1.7-9.5c-3.1-0.8-7.4-2.7-9.5-4.2c-4-2.7-7.9-3.1-9-1.1c-0.4,0.7,1.4,3.6,3.9,6.5
		c3.4,4,4.7,6.5,5,9.7c0.3,2.5-0.1,4.3-0.5,4c-2.9-1.5,1.8,8.8,4.9,10.8C222.6,3900.8,226.5,3900.1,227.9,3898.2z M290.9,3892.3
		c-0.1-1.5-1-3.6-2-4.7c-1-1.1-1.9-2.9-1.9-3.9c-0.1-1.1-1.3-4.1-2.6-6.6c-1.4-2.6-3.9-7.6-5.7-11.1c-1.8-3.6-3.5-5.9-3.8-5.2
		c-0.8,1.4,1.1,7.1,4.9,14.3c1.4,2.5,2.5,5.5,2.6,6.6c0.2,2.8,6.2,13.4,7.6,13.3C290.5,3894.9,290.9,3893.7,290.9,3892.3z
		 M300.4,3893.2c0.3-0.5-0.5-2.8-1.9-5.1c-3.7-6.2-9.3-22.5-9.7-27.8c-0.3-5-2.5-6.9-4.7-4.3c-1.4,1.6-1.3,4.4,0.3,7.8
		c0.7,1.4,2.2,5.7,3.4,9.7c3.4,10.5,6.4,18,7.8,19.6C297.1,3894.7,299.6,3894.8,300.4,3893.2z M307.7,3890.7c-0.1-1.1-0.9-3.9-2-6.4
		c-0.9-2.4-3.2-8.1-5-12.4c-1.7-4.4-3.4-7.6-3.8-7.1c-1.4,1.7,5,23.3,7.8,26.7C306.3,3893.3,307.9,3893,307.7,3890.7z M273.1,3887.5
		c-3.7-4.3-5-4.2-3.6,0.1c1.1,3.8,4.5,6.5,5.9,4.9C276.1,3891.7,275.3,3890.1,273.1,3887.5z M281.2,3889.2c-0.9-2-3.1-2.1-2.9,0
		s3,4.4,3.3,2.8C281.7,3891.4,281.6,3890.1,281.2,3889.2z M316.7,3890.1c0-0.6-0.7-3.7-1.6-7c-0.8-3.3-1.7-7.5-2.2-9.4
		c-0.8-4.1-3.7-13.9-4.6-16c-0.4-1-1-1.2-1.6-0.5c-0.7,0.8-0.3,5.6,1,13.5c1.9,12.2,3.9,18.2,6.1,19.5
		C315.6,3891.3,316.8,3891.2,316.7,3890.1z M343.3,3888.1c0.3-0.7,0.1-2.4-0.6-3.6c-3.2-5.8-7.2-18.5-7.5-23.6
		c-0.5-7.5-1.7-8.9-4.9-6c-2.2,2.1-2.4,3.2-1.9,10.8c0.4,6.2,1.3,9.9,3.1,13.3c1.5,2.6,3,5.7,3.5,6.8c0.4,1,2,2.4,3.3,2.8
		C341.9,3889.6,342.5,3889.6,343.3,3888.1z M328.2,3884.9c-0.6-2.3-1.4-5-2.1-6c-1.9-3.2-5-15.1-5.1-19.5c0-2.4,0.2-7.4,0.4-10.9
		c0.4-6.1,0.3-6.6-1.8-6.4c-3.2,0.2-3.5,1.1-2,4.6c1.2,2.6,1.1,3.5-0.2,5.3c-1.9,2.4-2.3,10.8-0.6,14.9c0.7,1.4,1.3,3.8,1.6,5
		c0.3,1.3,1.2,4.9,2,8c0.9,3,1.3,5.9,1.1,6.4c-1,1.8,1.1,3.1,4.4,2.9C329.1,3889.1,329.2,3888.9,328.2,3884.9z M354,3884.1
		c0.3-1.8-0.3-5.2-1.3-7.5c-3.4-8-4-13.2-2.8-24.1c0.7-5.8,1.6-11.8,2.1-13.3c2.2-6.7-1.8-6.3-7.1,0.6c-4.5,5.6-4.5,7-1.6,22.9
		c2.6,13.6,4.8,22.2,6.1,23.7C351.7,3888.7,353.6,3887.6,354,3884.1z M232.1,3888.1c0.2-2.4,0-4.3-0.7-4.3c-0.6,0-1,0.7-0.9,1.6
		c0.1,1-1.2,1.9-3.5,2.3c-4.8,0.8-5,2.8-0.4,4.7C231,3894.3,231.6,3893.8,232.1,3888.1z M362,3876.6c0.7-0.8,1-5,0.7-10.9
		c-0.6-9.9,1.1-24.2,3.4-28.4c2-3.7,1.6-5-1.4-4.8c-3.6,0.2-5.5,4-6.6,13.4c-0.4,4.4-1.2,10.5-1.5,13.4c-1,7.8-0.3,15.3,1.5,17.1
		C359.9,3878.4,360.4,3878.4,362,3876.6z M243.2,3880.1c4.3-2.3,4.6-3.1,2.1-4.9c-3.2-2.3-10.7,2.4-10.5,6.4
		C234.9,3883.1,239.1,3882.4,243.2,3880.1z M377.8,3865c4.8-5.3,6.2-9.2,4.4-12.2c-1-1.5-1.8-1.8-3.2-0.9c-1,0.6-3.2,1-4.9,0.8
		c-3.3-0.5-3.6,0.2-4.3,9.2C369.2,3870.8,371.7,3871.8,377.8,3865z M272.5,3870c-0.1-1.2-0.9-2.2-1.8-2.1c-0.9,0.1-1.6,1.1-1.5,2.4
		c0.1,1.2,0.9,2.2,1.8,2.1C271.8,3872.3,272.6,3871.2,272.5,3870z M262.5,3865.7c-0.4-1.6-1.3-2.5-1.8-2.1c-1.4,1-0.9,4.8,0.8,5.3
		C263.4,3869.3,263.6,3869,262.5,3865.7z M460,3854.1c7-2.4,7.9-3.8,4.4-7c-3.7-3.6-7.6-3.7-10.3-0.4c-1.3,1.5-4,3.4-6,4.2
		c-2,0.8-5.9,2.9-8.7,4.5l-5,2.9l9.9-1.2C449.8,3856.6,456.8,3855.2,460,3854.1z M240.6,3866c0-0.1-1.3-3-2.8-6.3
		c-1.6-3.3-3.9-9.1-5.2-13c-3.2-9.7-4.3-10.1-6.6-3c-3,9.4-3.2,12.1-1,16.1c2,3.5,4.9,5.5,9.4,6.1
		C237.2,3866.4,240.6,3866.5,240.6,3866z M391.8,3849.7c2.3-5,2.7-7.4,2.2-13.7c-0.4-6.4-1-8-3.1-9.8c-4.5-3.8-5.9-1.8-5.4,8
		c0.3,4.8,0.5,12,0.4,15.8C385.7,3858.9,387.5,3858.8,391.8,3849.7z M296.1,3855.4c0.8-2.3-1.8-4.6-3.2-3c-1.3,1.4,0,5,1.6,4.9
		C295,3857.3,295.7,3856.4,296.1,3855.4z M433.2,3840.2c0.2-1.1-0.8-3.5-2.2-5.2c-1.5-1.6-2.6-3.7-2.7-4.5c0-0.8-1.1-2.1-2.4-2.8
		c-2.2-1.1-2.3-1-2.1,2.6c0.3,4.3,2.6,9.6,4.2,9.5c0.5,0,1,0.7,1,1.7C429.2,3844.1,432.9,3842.8,433.2,3840.2z M472,3836.5
		c0.6-6-1.5-10-6-11.3c-5.8-1.7-8.7-1.2-8.5,1.4c0.1,1.8,0.9,2.2,4,2c4.1-0.3,5.3,1,5.6,5.9C467.5,3841.5,471.4,3842.9,472,3836.5z
		 M211.4,3851.8c1.7-2.4,0.4-5.1-2.5-4.9c-2.9,0.2-4.6,3.6-2.7,5.4C208.1,3854.1,209.8,3853.9,211.4,3851.8z M445.7,3833.4
		c0.3-1.1,0.6-2.9,0.5-3.9c0-2.5-4.5-6.4-7.2-6.2c-2.1,0.1-2.1,0.2-0.4,2.5c2.5,3.1,2.7,6.4,0.5,6.5c-2.4,0.1-3.2,3.1-1.3,4.9
		c1.3,1.2,2,1.1,4.3-0.2C443.7,3836.2,445.3,3834.6,445.7,3833.4z M472.6,3819c1.6-1.5,5.6-4.6,8.8-7.3c15.8-12.8,22.8-21,10.4-12.2
		c-2.7,1.9-7.2,4.7-10,6.5c-2.9,1.8-6.2,4.1-7.2,5.3c-1.2,1.1-2.4,2.1-2.7,2.1c-0.5,0-1.4,0.8-2.2,1.6c-0.9,0.7-2.2,2.2-3.2,3
		c-0.9,0.8-1.3,2-1,2.7C466.8,3822.3,469.6,3821.5,472.6,3819z M452.8,3817.6c0.4,0.3,1.1-0.9,1.6-2.7c0.6-1.8,2.8-7.4,4.9-12.5
		c2.2-5,3.6-9.5,3.2-10c-0.4-0.5-0.2-1,0.5-1c0.6,0,1.4-1.2,1.8-2.6c0.3-1.4,1.3-3.2,2.1-4.2s1.2-2.6,0.8-3.6
		c-0.7-1.4-0.4-1.4,0.9,0.2c1.6,1.7,1.9,1.5,4.4-3.4c1.5-3,2.4-5.7,2-6c-0.4-0.4-2.7,0.1-5.3,1c-2.4,0.9-4.3,2-3.9,2.3
		c0.4,0.3-0.4,2-1.9,3.7c-1.5,1.7-4,6.2-5.6,10.1c-1.7,3.8-4,8.8-5.1,11.1c-5.1,10.2-8.7,18.4-8.1,18.9c0.4,0.3,2,0,3.8-0.6
		C450.8,3817.6,452.5,3817.3,452.8,3817.6z M239.7,3825.7c1-1.3,2.8-2.4,3.9-2.5c2.5-0.2,5.5-3.5,4.5-5c-1.4-1.8-6,0.5-10.4,5.4
		c-3.6,4-4,4.8-2.2,4.7C236.8,3828.1,238.7,3827,239.7,3825.7z M482.2,3801.1c1.9-1.6,5-3.6,6.7-4.6c5.5-3.1,17.9-12.5,17.8-13.7
		c0-0.6-0.9-1-1.8-0.9c-0.9,0.1-1.7,0.6-1.6,1.1c0,0.5-2.1,1.9-4.9,3.1c-2.7,1.3-4.9,2.7-4.9,3.2c0,0.6-1.4,1.3-3.3,1.9
		c-1.8,0.6-3.5,1.5-3.9,2.1c-0.3,0.6-2.8,2.4-5.6,4.1s-6.1,4.2-7.2,5.7l-2.1,2.7l3.7-0.9C477.1,3804.3,480.3,3802.7,482.2,3801.1z
		 M248.1,3809.8l2.5-1l-3.4-3c-1.8-1.7-4-3-4.7-3c-1.8,0.1-1.6,4.9,0.3,6.5C244.6,3810.9,244.7,3810.9,248.1,3809.8z M221.8,3806
		c-0.9-2.3-4.8-1.1-5,1.7c-0.2,2.4-0.1,2.4,2.7,1C221,3807.9,222,3806.7,221.8,3806z M228.8,3804.9c-0.2-2.8-4-9.7-5.7-10.3
		c-1.5-0.4-0.9,5,0.7,8.3c0.8,1.5,1,2.3,1.6,3.9C225.9,3808.5,228.9,3806.8,228.8,3804.9z M254.3,3800.1c0.1-1.5-0.1-3.4-0.5-4.3
		c-0.7-1.4-1.1-1.3-3.5,0.6c-2.9,2.4-3.3,3.9-1.1,5.8C251.5,3804.3,254.1,3803.1,254.3,3800.1z M217.3,3802.3
		c-0.1-1-5.6-6.5-6.6-6.5c-1.4,0.1-0.2,2.8,2.2,5.2C215.6,3803.6,217.5,3804.1,217.3,3802.3z M528.5,3777.7c2.3-3.4,3.2-6.5,2-6.5
		c-1.8,0.1-4,1.8-3.9,3.2c0.1,0.9-0.4,1.6-0.8,1.6c-0.9,0.1-4.4,6.2-4.3,7.5C521.6,3785.1,526,3781.5,528.5,3777.7z M518,3782.2
		c0-0.7,1.1-2.3,2.6-3.8c2.3-2.3,3.5-7.9,1.5-7.8c-0.5,0-2.4,2-4.3,4.3c-3.7,4.5-4.3,8.6-1.5,8.5
		C517.3,3783.4,518.1,3782.7,518,3782.2z M238.7,3797.9c1.4-2.1,0.1-3.5-10.5-10.5c-6.9-4.7-18.3-14.3-18.4-15.6
		c-0.1-1.7-8.4-8.2-10.2-8.1c-1,0.1-1.5,1.3-1.4,3.5c0.1,1.9,0.6,3.4,1.1,3.3c0.5,0,4,2.7,8.1,6.1c3.9,3.3,10,8,13.3,10.4
		c3.3,2.5,7.5,6.4,9.5,8.8C233.8,3800.3,236.4,3801,238.7,3797.9z M474,3768.4c1.3-1,2.3-2.4,2.3-3c-0.1-1.4-4.9,0.2-5.3,1.7
		c-0.5,1.5-4,1.5-5.7,0c-1.8-1.6-3-0.3-2,2C464.3,3771.4,470.8,3771,474,3768.4z M469.5,3759c-0.5-1.5-0.4-2,0.5-1.6
		c1.4,0.8,1.6-1.6,0.1-3.3c-1.4-1.8-5.7-1.3-6.3,0.6c-0.8,2.4,3.2,7.9,5.1,7.1C469.8,3761.5,470.1,3760.3,469.5,3759z M480.3,3760.9
		c1.2-0.9,1.1-1.7-0.4-4.7c-1-2.1-2.5-4.3-3.5-5c-1.4-0.9-1.6-0.1-1.5,5c0.1,5.2,0.4,6.1,2.1,6
		C478,3762.1,479.5,3761.5,480.3,3760.9z M520.9,3748.9c-0.2-3.8-1.5-9-2.6-11.4l-2.1-4.4l0.4,6.8c0.1,3.7,0.8,9.4,1.5,12.7
		C519.5,3760.7,521.6,3758.1,520.9,3748.9z M456.8,3756.1c-0.4-0.9-2.1-1.6-3.8-1.5c-1.8,0.1-4-0.1-5-0.4c-1-0.3-1.8-0.1-1.8,0.6
		c0.1,1.2,9.3,4.2,10.6,3.3C457.2,3757.8,457.3,3756.9,456.8,3756.1z M439.6,3753.2c-0.5-0.5-2-1-3.2-1.3c-1.5-0.2-0.8-0.5,1.5-0.8
		c3.1-0.3,3.5-0.6,2.4-1.8c-0.8-0.9-3.6-1.8-6.2-2c-2.6-0.3-7.3-1.3-10.6-2.4c-4.4-1.4-7.3-1.7-11.9-0.8c-4.4,0.7-7.2,0.6-9.5-0.5
		c-1.9-0.8-3.4-1.3-3.5-1.1c-0.1,0.2-1.1,2.6-2.4,5.4l-2.3,4.9l8.2-0.3c4.5-0.2,11.6-0.5,15.7-0.6c4.2-0.1,8.1,0.1,8.8,0.5
		c0.7,0.4,2.7,1,4.4,1.1c1.7,0.2,3.8,0.8,4.8,1.2C437.9,3755.4,441.1,3754.3,439.6,3753.2z M457,3751.5c-0.1-1.1-1.2-1.6-3.1-1.5
		c-1.7,0.1-4.8,0-6.7-0.3c-5.1-0.7-4.3,1.6,1,2.7C454.5,3753.7,457.1,3753.4,457,3751.5z M526.3,3744.6c0.3-0.6-0.3-6.8-1.3-13.8
		c-3.3-23.1-10.8-34.4-26.1-39.3c-4.6-1.5-9.1-2.4-10.1-2c-3.3,1.6-0.5,4.8,7.4,8.1c10,4.2,11.8,6.4,8.1,9.6c-2.1,1.9-2.3,2.5-1,4
		c1,1,3.6,1.9,6.1,2.1c4.4,0.5,4.4,0.5,4,4.7s1.2,6.9,2.5,4.4c0.3-0.6,1.3-1.2,2.1-1.3c0.9-0.1,2.2,3.8,3.7,12.2
		C523.7,3744.5,524.9,3747.3,526.3,3744.6z M383.8,3751c2.8-0.9,6.1-1.7,7.6-2.2c2.9-0.9,3.1-3.2,0.4-5.2c-2.1-1.6-8.8-1.8-22.3-0.7
		c-5.4,0.3-12,0.3-14.5-0.2c-4.2-0.9-5.1-0.7-8.9,2.1c-2.6,2-4.2,4.1-4.1,5.5c0.2,2.8,0.6,2.8,6.3-0.4l4.6-2.7l6.7,2
		c3.7,1,8.9,1.7,11.5,1.5c2.7-0.2,4.9,0.3,4.9,0.8C376,3752.9,377.3,3752.8,383.8,3751z M336.2,3749.9c2.7-4,0.9-4.7-3.7-1.6
		c-4.4,3-5,5.2-1.4,4.9C332.9,3753.1,334.8,3751.7,336.2,3749.9z M200.6,3758.3c1.3-1,2.2-11.7,1-11.6c-0.8,0-2.7,3.5-3.2,5.3
		c-0.1,0.7-0.9,2.2-1.6,3.5c-0.8,1.3-1.4,2.7-1.4,3.1C195.4,3759.7,198.9,3759.5,200.6,3758.3z M214.4,3748.9
		c0.6-1.1,0.7-2.2,0.2-2.6c-1.1-1.1-5.2,3.3-4.3,4.6C211.3,3752.2,213.1,3751.4,214.4,3748.9z M222.7,3735.8
		c2.3-4.7,3.3-8.8,1.8-8.7c-1,0.1-5.3,5.6-6.7,8.6c-1.3,2.9-0.7,5.5,1.4,5.3C219.6,3741,221.3,3738.6,222.7,3735.8z M218.9,3724
		c2.3-1.4,4.6-3.5,5.4-4.4c0.7-1.1,2.8-2,4.7-2c6.8-0.2,9.3-10.8,3.9-16.1c-1.8-1.7-2.1-1.8-3.7-0.1c-2.7,2.7-6.3,2.4-8.6-0.6
		c-3.1-4.1-4-3.1-2.9,3l1,5.6l-4.4,0.4c-2.4,0.3-4.8,0.3-5.5,0.2c-2.4-0.3,1,1.7,4.5,2.7c3.3,0.9,3.7,1.4,3.6,4.8
		c-0.1,2.2-0.9,5-1.7,6.6C213.1,3727.3,213.7,3727.4,218.9,3724z"/>
	<path class="st0" d="M429.9,3750.7c0.8-0.4,1.8-0.3,2.1,0c0.5,0.3-0.2,0.7-1.4,0.7C429.4,3751.5,429,3751.1,429.9,3750.7z"/>
	<path class="st0" d="M224.1,3964.2c-0.1-0.9,0.3-1.9,0.9-2.3c0.5-0.5,0.8,0.3,0.5,1.5C225,3966.1,224.3,3966.4,224.1,3964.2z"/>
	<path class="st0" d="M215.6,3927.9c0.3-0.6,0.8-1.2,1.2-1.2c0.2,0,0.5,0.5,0.5,1.1c0,0.7-0.5,1.2-1.2,1.2
		C215.6,3929,215.3,3928.6,215.6,3927.9z"/>
</g>
<path class="st1" d="M37.8,9.4l2.1,0.1c-6.4-0.1-8-2.9-10.9-7.1C28.5,1.7,27.6,2,27.6,2C19.5,4.5,9,8.4,9,8.4
	c-2.3,5.1-4.5,13-7.4,19.7c3,4.8,10.4,5.8,15.3,6.2c1.1-2.8,3.2-7.9,3.2-7.9s-0.1,2.7-0.4,6.9C19.7,33.3,44.5,9.4,37.8,9.4z"/>
<path class="st0" d="M42.2,9.5L19.8,35.7V22.8L33.4,7c0,0,2.6,2.1,3.8,2.2C38.9,9.2,42.2,9.5,42.2,9.5z"/>
<g>
	<path class="st2" d="M58,21c0,0-2.2-0.6-3-0.7c-0.8-0.1-3.2,0.6-3.2,0.6s0,4.3,0.4,5.5c0.4,1.1,2.8,3.3,2.8,3.3"/>
	<line class="st2" x1="55" y1="20.4" x2="55" y2="29.7"/>
	<line class="st2" x1="56.5" y1="20.6" x2="56.5" y2="28.8"/>
	<line class="st2" x1="58" y1="21" x2="58" y2="22.5"/>
	<path class="st3" d="M53,24.1l-1.6,1.2c0,0,2,0.2,2.4,0.1s0.9-1.4,1.7-1.2c0.7,0.2,2.5,1.8,2.5,1.8l0.6-1.4c0,0-1.6-2.4-2.9-2.2
		c-1.3,0.2-1.6,0-2.1,0.5c-0.6,0.5-1.8-0.2-2.4,0.7s0.2,0.2,1.1,0.3S53,24.1,53,24.1z"/>
	<path class="st4" d="M50.3,26.2l-0.1-1.4c0,0,0.4-0.2,1.6-0.1s-1.1-0.1-1.1,0.4S50.3,26.2,50.3,26.2z"/>
</g>
<path class="st5" d="M52.4,2.1c0,4.3-4.9,8.8-12.3,8.8S27.8,6.4,27.8,2.1"/>
<path class="st6" d="M40.2,75.6c6.9-0.1,16.7-1.8,22.4-4c-0.7-6.6-2.7-45.5-2.7-45.5s2.1,5.1,3.2,7.9c4.7-0.4,12.3-1.3,15.3-6.2
	C75.5,21,73.3,13.2,71,8.1c0,0-10.4-3.8-18.6-6.4c0,0-0.9-0.3-1.3,0.4c-3,4.2-4.5,7.1-11.2,7.1l0,0c-6.4-0.1-8-2.9-10.9-7.1
	c-0.5-0.7-1.4-0.4-1.4-0.4C19.5,4.2,9,8.1,9,8.1c-2.3,5.1-4.5,13-7.4,19.7c3,4.8,10.4,5.8,15.3,6.2c1.1-2.8,3.2-7.9,3.2-7.9
	S18,65,17.4,71.6c5.8,2.2,15.5,4,22.4,4l0,0"/>
</svg>
