<?xml version="1.0" encoding="utf-8"?><svg version="1.1" id="Layer_1" xmlns="http://www.w3.org/2000/svg" xmlns:xlink="http://www.w3.org/1999/xlink" x="0px" y="0px" viewBox="0 0 80 77.1" style="enable-background:new 0 0 80 77.1;" xml:space="preserve"><style type="text/css"> .st0{fill:#00A3E3;} .st1{fill:#072538;} .st2{fill:#1C3761;} .st3{fill:none;stroke:#000000;stroke-width:3;stroke-linecap:round;stroke-linejoin:round;}</style><polygon class="st0" points="20,26.3 8.9,8.3 28.2,2.7 31.5,6.5 38.8,9.2 45,8.7 51,2.3 70.9,8.3 60.2,26.8 62,71.2 50,74.8 39.3,74.9 24.9,74 17,71.3 "/><polygon class="st1" points="20,26.3 8.9,8.3 1.5,28 9.7,33.5 16.8,34.2 "/><polygon class="st1" points="60.2,26.8 70.9,8.3 78.3,28 69.4,33.9 63.5,33.7 "/><path class="st2" d="M50.1,58.2c-1,0.8-1.6,2.2-2.6,3.1c-0.4,0.4-1.2,0.3-1.5,0.6s-1.5-0.2-1.9-0.2c-0.2,0.4,2.4,0.5,2.5,0.4 c-1.6,0.8-4.2,2-5.6,2.9c-0.3,0.2-1.1-0.4-1.4-0.3c0,0.5,2,0.5,2,0.5c-1.4,0.9-4.6,3.4-6.1,4c-3.5,1.4-7.2,2.5-10.9,2.8 c-1.2,0.1-2.9,1-3.8,1.3c0.3-0.2,5.9-4.4,5.9-4.2c0-0.8,3.9-0.7,4-1.8c0-0.4-4.3-1.9-4.8-2c0.4,0.7,1.7-0.7,2-0.5 c-1.4-0.4-2.4,0.8-3.8-0.4c-0.8-0.7-2.3-1.7-3.2-2.1c0.2,0.1,2.7-0.1,2.5-0.4c-0.6-0.2-1.9,0.7-2.5,0.1c-0.7-0.5-1.4-0.9-2.1-1.6 c-0.7-0.7-0.9-2.2-1.4-2.9c-0.4-0.6,1.7-6.8,1.4-7.6c0.1,0.2,0.3-0.4,0.3-0.4c-0.3-0.3,0.1-13.9,0.3-14.5c1.2,2.4,2.5,4.6,4.2,6.7 c1.6,1.9,3.7,3.8,4.7,6.1c0.4,1,0,2.6,0.3,3.4c0.6,1.3-1.3,4-0.7,5.8c0.6,1.5,1.7,2.6,2.3,4c0.1,0.2,0.4,0.3,0.6,0.5 c0.1-0.4,0.9-1.6,0.4-2c-0.2-0.2,0.4-2,0.6-1.9l0.6-0.4c-0.1-0.1-1.7-1.3-1.6-1.3c-0.2,0-1.3-2.1-1.1-1.7c0.4,0.1,1.7,1.4,2.2,1.8 c0,0-1-1.3-0.7-1.5c0.1,0-0.2-2.1,0.1-1.4c1.5,1.1,1.5,2.7,3.7,3.6c0.7,0.3,1.5,2,1.9,2.1c0.6,0.1,0.1,1.4,0.2,1.6 c1.4-0.9-2-0.6-2.4-0.5c-0.2,0.1,0.1,0.9,0.2,0.9c0.7-0.2,0.8,1.8,2,0.4c0.8-0.9,1.7-1.6,2.1-2.8c0.4-0.9,0.2-2,0.5-2.8 c0.4-1.3-1.4-3.5-0.8-4.6c0.2-0.5-0.2-1.5,0.1-2.1c0.3-0.8,0.8-1.5,1.1-2.3c0.8-2,3.3-4.4,4.8-5.8c0.7-0.6,1.9-3.9,2.7-4.2 c0.2-0.1,0.6-1.2,0.6-1.4c0.1,0.5,2,5.8,2.1,5.9c0.4,0.2-1.6,2.2-1.6,2.2c0.1,0.1-1.6,1.1-1.7,1.2c0.4-0.1,3.3-0.7,3.2-1.4l0.8-1.1 c-0.1,0.7,0.7,3.5,0.9,4.4c0.2,0.8-1.7,1.6-1.6,2c0,0.2-1.6,0.9-1.8,1c0.3,0,3-0.4,2.9-0.9l0.9-0.9c-0.3,0.9,0.1,3,0,4.1 c-0.1,0.8-1.6,1-1.7,1.5c-0.1,0.4-1.7,0.5-1.9,0.7c0.2,0.1,2.6,0.1,2.6-0.4c0,0,1.1-0.7,1-0.6c-0.3,0.5-1.1,3.1-1.2,3.8 c-0.1,0.5-1.6,0.8-1.6,1s-1.8,0.2-2,0.3c0.2,0,2,0.5,2.1,0.1C49.7,57.3,51.1,58.7,50.1,58.2z"/><path class="st3" d="M40.2,75.6c6.9-0.1,16.7-1.8,22.4-4c-0.7-6.6-2.7-45.5-2.7-45.5s2.1,5.1,3.2,7.9c4.7-0.4,12.3-1.3,15.3-6.2 C75.5,21,73.3,13.2,71,8.1c0,0-10.4-3.8-18.6-6.4c0,0-0.9-0.3-1.3,0.4c-3,4.2-4.5,7.1-11.2,7.1l0,0c-6.4-0.1-8-2.9-10.9-7.1 c-0.5-0.7-1.4-0.4-1.4-0.4C19.5,4.2,9,8.1,9,8.1c-2.3,5.1-4.5,13-7.4,19.7c3,4.8,10.4,5.8,15.3,6.2c1.1-2.8,3.2-7.9,3.2-7.9 S18,65,17.4,71.6c5.8,2.2,15.5,4,22.4,4l0,0"/></svg>