<?xml version="1.0" encoding="utf-8"?><svg version="1.1" id="Layer_1" xmlns="http://www.w3.org/2000/svg" xmlns:xlink="http://www.w3.org/1999/xlink" x="0px" y="0px" viewBox="0 0 80 77.1" style="enable-background:new 0 0 80 77.1;" xml:space="preserve"><style type="text/css"> .st0{fill:#777778;} .st1{fill:#5A5A59;} .st2{fill:#6D6D6D;} .st3{fill:#4E4E4E;} .st4{fill:none;stroke:#000000;stroke-width:3;stroke-linecap:round;stroke-linejoin:round;} </style><g id="Layer_1_1_"><path class="st0" d="M40.1,75.3c6.9-0.1,16.7-1.8,22.4-4c-0.7-6.6-2.7-45.5-2.7-45.5s2.1,5.1,3.2,7.9c4.7-0.4,12.3-1.3,15.3-6.2 c-2.9-6.8-5.1-14.6-7.4-19.7c0,0-10.4-3.8-18.6-6.4c0,0-0.9-0.3-1.3,0.4C48,6,46.5,8.9,39.8,8.9l0,0c-6.4-0.1-8-2.9-10.9-7.1 c-0.5-0.7-1.4-0.4-1.4-0.4C19.4,3.9,8.9,7.8,8.9,7.8c-2.3,5.1-4.5,13-7.4,19.7c3,4.8,10.4,5.8,15.3,6.2c1.1-2.8,3.2-7.9,3.2-7.9 s-2.1,38.9-2.7,45.5c5.8,2.2,15.5,4,22.4,4l0,0"/></g><g id="Ebene_2"><path class="st1" d="M20.4,59.4c0.3,0,0.6,0.2,0.9,0.2c0.2,0,0.4,0,0.5-0.1c0.5-0.2,0.8-0.1,1.1,0.3c0.3,0.4,0.7,0.5,1.2,0.5 c0.4,0,0.8,0,1.2,0c0.5,0,0.4,0,0.5-0.5c0-0.3,0-0.7,0-1c0-0.2-0.1-0.3-0.3-0.4c-0.5-0.3-1-0.6-1.5-0.9c-0.2-0.1-0.2-0.2-0.2-0.4 c0-0.3,0-0.6,0-0.9c0-0.1,0-0.2-0.2-0.3c-0.6-0.2-1.2-0.4-1.9-0.7c-0.3-0.1-0.5,0.1-0.8,0.1s-0.6,0-0.9,0c-0.1,0-0.1,0-0.2-0.1 c-0.1,1.4-0.2,2.7-0.2,4C19.9,59.2,20,59.3,20.4,59.4z"/><path class="st1" d="M20.2,53.2c0.2,0,0.5-0.1,0.7-0.2c0.2,0,0.4-0.1,0.5,0.1c0.4,0.3,0.5,0.3,1,0c0.3-0.2,0.7-0.3,1-0.5 c0.2-0.1,0.3-0.1,0.4,0.1c0.2,0.1,0.4,0.2,0.5,0.4c0.4,0.3,0.7,0.4,1.2,0.2c0.3-0.1,0.4,0,0.5,0.2c0.3,0.6,0.7,1.1,0.9,1.7 c0.3,0.6,0.9,0.7,1.4,0.4c0.2-0.1,0.4-0.3,0.6-0.3c0.5,0.1,1,0,1.3,0.4c0.3,0.3,0.7,0.3,1,0.2c0.4-0.2,0.8-0.2,1.2-0.4 c0.2-0.1,0.4,0,0.4,0.2c0,0.4,0.2,0.7,0.3,1c0.1,0.2,0.1,0.4-0.1,0.5c-0.2,0.2-0.3,0.3-0.6,0.3c-0.5,0-0.9,0-1.4,0 c-0.4,0.1-0.9,0.8-0.7,1.2c0.1,0.3,0.2,0.6,0.3,0.9c0,0.1,0.1,0.2,0.3,0.2c0.5,0,0.9,0,1.4,0.1s1-0.2,1.6-0.1 c0.2,0,0.5,0.1,0.7,0.1s0.4-0.1,0.4-0.3c0.1-0.4,0.3-0.8,0.5-1.2c0.1-0.3,0.1-0.6,0-0.8c-0.2-0.2-0.2-0.5,0-0.7c0,0,0-0.1,0.1-0.1 c0.3-0.9,0.3-0.9,1.3-1c0,0,0,0,0.1,0c0.8-0.3,0.8,0,0.8,0.6c0,0.4,0,0.8,0.1,1.2c0,0.3,0.3,0.4,0.5,0.5c0.3,0.1,0.6,0.3,0.9,0.3 c0.1,0,0.2,0.1,0.2,0.3c0.1,0.5,0.2,0.6,0.7,0.5c0.3-0.1,0.7-0.1,1-0.1c0.2-0.1,0.3-0.1,0.3-0.3c0-0.3,0.1-0.6-0.1-0.8 c-0.1-0.1,0-0.2,0.1-0.2s0.2,0,0.2,0.1c0,0.2,0,0.4,0,0.6c0,0.3,0.1,0.5,0.3,0.8c0.4,0.5,0.9,0.6,1.4,0.8c0.3,0.1,0.7-0.2,0.8-0.5 c0.3-0.5,0.5-1.1,0.8-1.6c0.1-0.2,0.2-0.4,0.5-0.4c0.2,0,0.3,0,0.5-0.1s0.2,0,0.3,0.2c0.1,0.7,0.2,1.5,0.1,2.2 c0,0.2-0.2,0.3-0.3,0.4c-0.2,0.2-0.3,0.4-0.2,0.8c0.1,0.2,0.2,0.5,0.3,0.7c0,0.1,0.1,0.1,0,0.2c-0.1,0.2-0.6,0.7-0.8,0.8h-0.1 c-0.6,0.2-1.1,0.1-1.6-0.3c-0.5-0.4-1.3,0.2-1.3,0.8c0,0.4-0.1,0.8,0.2,1.2c0.1,0.1,0.1,0.3,0,0.4c-0.3,0.4-0.4,0.8-0.7,1.2 c-0.1,0.1-0.2,0.3-0.4,0.3c-0.5,0-1,0.1-1.5,0.1c-0.2,0-0.3-0.1-0.4-0.3c-0.2-0.6-0.5-1.2,0-1.9c0-0.1,0.1-0.1,0.1-0.2 c0-0.5-0.1-0.9-0.2-1.4c0-0.2-0.1-0.2-0.3-0.3c-0.3-0.1-0.7-0.2-1-0.3c-0.2-0.1-0.3,0-0.4,0.1c-0.3,0.3-0.7,0.2-1,0.2 c-0.4,0-0.8-0.1-1.2-0.2c-0.3,0-0.6,0.2-0.5,0.5s0.2,0.6,0.3,0.9c0.1,0.2,0.1,0.3-0.1,0.5c-0.2,0.2-0.2,0.5-0.1,0.8 c0.1,0.4,0.2,0.8,0.3,1.2c0.1,0.3,0.2,0.4,0.5,0.3c0.7-0.4,1.3-0.2,1.8,0.3c0.2,0.1,0.4,0.2,0.6,0.1c0.3-0.1,0.7,0,1,0h0.1 c0.1,0.1,0.3,0.9,0.2,1.1c-0.2,0.2-0.2,0.4-0.4,0.6S39,69,39.1,69.3c0.1,0.2,0.1,0.4,0,0.7c0,0.9,0.4,1.6,0.5,2.5v0.1 c0,0.6,0.1,0.6,0.6,0.5c0.1,0,0.2-0.1,0.2-0.1c0.8-0.3,0.9-0.2,1.3,0.4c0.1,0.1,0.2,0.2,0.3,0.3c0.1,0.1,0.3,0.1,0.4,0 c0.3-0.2,0.7-0.5,1-0.7c0.2-0.1,0.4-0.3,0.3-0.5c-0.1-0.3-0.1-0.8-0.5-0.9c-0.5-0.1-1-0.3-1.6-0.4s-0.7-0.4-0.6-1 c0.1-0.4,0.2-0.8,0.2-1.2c0.1-0.7,0.5-1.3,0.9-1.9c0.1-0.2,0.3-0.1,0.5-0.1s0.5,0.1,0.7,0.1c0.3,0,0.5-0.2,0.5-0.5 c0-0.4,0.1-0.7,0.2-1c0-0.3,0.3-0.4,0.6-0.4c0.1,0,0.2,0,0.3,0c0.7-0.1,0.8-0.1,1.1,0.6c0.1,0.2,0.3,0.5,0.4,0.7 c0.3,0.4,0.7,0.4,1,0c0.3-0.5,0.4-1,0.7-1.5c0.2-0.3,0.4-0.4,0.7-0.3c0.2,0,0.4,0.1,0.5,0.1c0.6,0.1,1-0.2,1.1-0.8 c0-0.3,0.1-0.7,0.1-1s0.2-0.5,0.5-0.6c0.5-0.2,1-0.3,1.5-0.5c0.3-0.1,0.6,0.2,0.6,0.6c0.1,0.4,0.1,0.9,0.1,1.3 c0,0.5,0.3,0.7,0.7,0.9c0.2,0.1,0.5,0.3,0.7,0.4c0.4,0.2,0.8,0,0.8-0.5s0.1-0.9,0.1-1.4c0-0.2,0.1-0.3,0.3-0.4 c0.5-0.1,1-0.2,1.4-0.2s0.6,0.2,0.4,0.6c-0.1,0.1-0.1,0.3-0.2,0.4c-0.1,0.2,0,0.4,0.2,0.6c0.3,0.2,0.6,0.5,0.9,0.7 c0.3,0.2,0.4,0.4,0.3,0.7c-0.1,0.3-0.3,0.6-0.6,0.5c-0.7,0-1,0.6-1.4,1c-0.1,0.1,0,0.2,0,0.3c0.2,0.4,0.4,0.7,0.7,1.1 c0.2,0.3,0.5,0.4,0.8,0.3c0.1,0,0.2-0.1,0.3-0.2c0.3-0.4,0.6-0.9,0.9-1.3c0.2-0.2,0.4-0.3,0.6-0.2c0.2,0.1,0.3,0.2,0.3,0.5 c0,0.5,0,1.1,0.1,1.6c0,0.2,0.1,0.4,0.1,0.6c0.1,0.4,0,0.9,0,1.3h0.1c-0.2-1.9-0.4-5-0.6-8.6c0,0.6-0.1,1.1,0,1.7 c0,0.1,0,0.2,0,0.3v0.1c0,0.1-0.1,0.1-0.1,0.1c-0.1,0.1-0.2,0-0.2-0.1c0.2-0.5,0.2-0.6,0.1-0.7c-0.3-0.5-0.5-1-0.8-1.5 c-0.1-0.2-0.1-0.4,0-0.6c0-0.1,0.1-0.1,0.2-0.2c0.1-0.1,0.2-0.2,0.2-0.3s0.1-0.2,0.1-0.4c0-0.1,0-0.2,0.1-0.2 c0.1-0.2,0.3-0.3,0.4-0.4c0.1,0,0.1,0,0.2-0.1c-0.3-4.2-0.5-9.1-0.8-13.8l0,0c0,0,0,0,0,0.1c-0.1-0.4-0.5-0.4-0.8-0.4h-0.1 c-0.6-0.2-1,0.1-1.3,0.5c-0.2,0.2-0.4,0.2-0.6,0.2c-0.4-0.1-0.9,0-1.3-0.1c-0.2,0-0.3-0.1-0.4-0.2c-0.3-0.5-0.8-0.6-1.3-0.6 c-0.2,0-0.3-0.1-0.3-0.3c0-0.4-0.1-0.7-0.1-1.1c0-0.2,0-0.3,0.1-0.3c0,0,0.1-0.1,0.2-0.1c0.6-0.1,1.1-0.3,1.7-0.5 c0.3-0.1,0.5,0.2,0.7,0.4c0.1,0.1,0.2,0.2,0.3,0.2c0.3,0.2,0.7,0.1,0.9-0.2c0.1-0.1,0.2-0.2,0.3-0.3s0.2-0.2,0.3-0.3 s0.2-0.2,0.3-0.1c0.4,0.2,0.9,0,1.3,0.3c0,0,0.1,0,0.2,0c-0.1-1.1-0.1-2.2-0.2-3.3l0,0v-0.1c0-0.1,0-0.2,0-0.3 c-0.1-0.5-0.2-0.5-0.7-0.4s-1,0.2-1.6,0.2c-0.4,0-0.9,0.1-1.3,0.2c-0.1,0.1-0.2,0-0.3-0.2c-0.3-0.5-0.3-1.1-0.5-1.7 c0-0.1,0-0.3-0.1-0.4c-0.1-0.2-0.3-0.4-0.6-0.3c-0.3,0.1-0.5,0.1-0.8,0.2c-0.2,0-0.3,0.2-0.4,0.4c0,0.1,0,0.2-0.1,0.2 c-0.4,0.6-0.2,1.1,0.3,1.5c0.2,0.2,0.1,0.4,0,0.6c-0.3,0.4-0.5,0.8-0.8,1.3c-0.1,0.2-0.3,0.3-0.5,0.2c-0.2,0-0.3-0.1-0.5-0.1 c-0.4,0-0.6-0.2-0.6-0.6c0-0.6-0.4-0.9-0.9-1.1c-0.5-0.1-0.9-0.4-1.4-0.6c-0.2-0.1-0.3-0.3-0.3-0.5c0-0.4,0-0.7,0-1.1 c0-0.2-0.1-0.3-0.2-0.4c-0.4-0.2-0.8-0.2-1.1-0.4c-0.2-0.1-0.3,0.1-0.4,0.2c-0.2,0.5-0.5,0.9-0.7,1.4c0,0.1-0.1,0.2-0.2,0.3 c-0.2,0.2-0.2,0.4,0.1,0.5c0.3,0.2,0.3,0.4,0.2,0.7c-0.1,0.4-0.1,0.7-0.2,1.1c0,0.5-0.2,0.6-0.6,0.5c-0.3-0.1-0.6-0.2-0.9-0.3 c-0.2,0-0.4-0.2-0.3-0.5c0-0.1,0-0.1,0-0.2c0.1-0.7,0-1-0.7-1.2c-0.4-0.1-0.7-0.3-1.1-0.3c-0.2,0-0.2-0.2-0.2-0.3 c0-0.3,0-0.6,0.1-0.9c0.1-0.5-0.1-0.7-0.6-0.7c-0.4,0-0.7,0-1.1,0c-0.3,0-0.4-0.1-0.4-0.4c0-0.5-0.2-1-0.2-1.5 c0-0.2-0.1-0.3-0.3-0.4c-0.3-0.2-0.3-0.4-0.3-0.7c0.1-0.4,0-0.8,0-1.3c0-0.2-0.1-0.3-0.3-0.3c-0.4-0.1-0.9-0.1-1.3-0.1 c-0.2,0-0.3,0.2-0.3,0.4c-0.1,0.5-0.2,0.9-0.3,1.4c0,0.3-0.2,0.4-0.4,0.3c-0.4,0-0.7,0-1.1-0.1c-0.4-0.1-0.7,0-1,0.2 c-0.3,0.3-0.7,0.3-1.1,0.4c-0.3,0-0.4,0.2-0.5,0.4c-0.1,0.3-0.2,0.5-0.3,0.7c-0.2,0.3-0.1,0.7,0.1,0.9c0.2,0.2,0.2,0.4,0.1,0.7 c-0.1,0.3-0.2,0.7-0.3,1c0,0.1,0,0.1,0,0.2c0.2,0.6,0.2,1.2,0.3,1.9c0,0.1,0.1,0.2,0.1,0.3c0.2,0.4-0.1,0.8-0.5,0.8 c-0.5,0-1.1,0-1.6-0.1c-0.3,0-0.4,0.1-0.5,0.4c-0.1,0.4-0.3,0.7-0.4,1.1c-0.1,0.3-0.1,0.5,0.2,0.7c0.6,0.5,0.5,1.4-0.2,1.8 c-0.3,0.2-0.7,0.2-1,0.4c-0.1,0.1-0.3,0.1-0.4-0.1c-0.1-0.1-0.2-0.2-0.3-0.3c-0.3-0.6-0.8-0.5-1.3-0.4s-0.5,0.1-0.7-0.4 c-0.1-0.3-0.1-0.6-0.3-0.8c-0.1-0.2-0.1-0.4,0.1-0.6c0.1-0.1,0.1-0.2,0.2-0.3c0.3-0.4,0.2-0.4,0.1-0.8c-0.2-0.5-0.6-0.7-1.1-0.8 c-0.4-0.1-0.7-0.2-1.1-0.3c-0.2-0.1-0.3,0-0.5,0c-0.4,0.1-0.7,0.3-1.1,0.3c-0.3,0.1-0.4,0.2-0.4,0.5c0,0.5-0.1,1.1-0.2,1.6 c0,0.3,0,0.6,0.1,0.9c0.1,0.6-0.3,0.7-0.7,0.7c-0.2,0-0.3,0-0.5,0c-0.1,0-0.2,0-0.2,0c-0.1,2.4-0.3,4.8-0.4,7.2 C20.1,53.2,20.2,53.2,20.2,53.2z M51.2,53.6c0.1-0.1,0.2-0.2,0.4-0.2c0.4-0.2,0.9-0.2,1.3-0.4c0.1,0,0.2-0.1,0.3-0.2 c0.4-0.4,0.5-0.3,1-0.1c0.3,0.1,0.6,0.2,0.6,0.6c0,0.2,0,0.4,0,0.7c0,0.1,0,0.1,0,0.2c0.1,0.3,0.1,0.5,0,0.6s-0.3,0.2-0.5,0.3 c-0.3,0.1-0.6,0.2-0.9,0.3c-0.3,0.1-0.5,0-0.7-0.1c-0.4-0.2-0.8-0.3-1.2-0.5c-0.4-0.1-0.3-0.4-0.3-0.8C51,53.8,51.1,53.7,51.2,53.6 z M40.8,57.5c-0.5-0.1-0.7,0.2-1,0.4C39.9,57.4,40.5,57.1,40.8,57.5z"/><path class="st2" d="M76.7,27.6c-0.2-0.6-0.4-1.1-0.7-1.7c-0.5-0.4-1-0.7-1.5-1.1c-0.1-0.1-0.2-0.1-0.3-0.2 c-0.9-0.8-1.8-1.5-2.7-2.3c-0.3-0.2-0.5-0.5-0.8-0.7s-0.7-0.5-1.1-0.5c-0.1,0-0.2,0-0.2-0.1c0-0.2-0.1-0.3-0.2-0.4 s-0.3-0.1-0.4-0.2c0,0.1,0,0.1,0.1,0.2s0.2,0.2,0.1,0.3c-0.1,0.1-0.3,0.1-0.4,0s-0.2-0.2-0.3-0.3c-0.4-0.5-0.9-0.6-1.4-0.6 s-1,0-1.5-0.2c-0.3-0.1-0.6,0-0.9,0c-0.1,0-0.2,0.1-0.2,0.2c0,0.4,0.1,0.9,0.1,1.3c0,0.3,0.2,0.5,0.5,0.6c0.4,0.1,0.5,0.4,0.6,0.7 c0,0.2,0.1,0.5,0.2,0.7c0.1,0.3,0,0.6-0.3,0.7c-0.2,0.1-0.4,0.2-0.6,0.3c-0.2,0.1-0.4,0.2-0.6,0.4c-0.2,0.2-0.3,0.3-0.5,0.1 c-0.1-0.1-0.2-0.1-0.4-0.1s-0.4,0-0.5-0.2c-0.1-0.1-0.3-0.1-0.5-0.2c-0.4-0.3-0.5-0.8-0.4-1.2c0.1-0.6-0.2-0.9-0.8-0.8 c-0.3,0.1-0.6,0.2-0.8,0.5C60.2,23,60,23,59.7,23c-0.4,0-0.8,0.1-1.1,0.3c-0.1,0.1-0.3,0.2-0.4,0.3c-0.2,0.2-0.4,0.4-0.6,0.3 c-0.3,0-0.6,0.3-0.9,0.2c-0.3-0.1-0.6-0.3-1-0.5c-0.1-0.1-0.2-0.2-0.2-0.3c0-0.4,0-0.7-0.1-1c0-0.3,0-0.5,0.2-0.8 c0.3-0.5,0.1-0.9-0.1-1.4c0-0.1-0.1-0.1-0.2-0.1c-0.3,0-0.5-0.1-0.8-0.1c-0.6,0-1.1-0.4-1.6-0.6c-0.3-0.2-0.4-0.6-0.2-0.9 c0.1-0.2,0.1-0.3,0.1-0.4c-0.1-0.4,0-0.9-0.1-1.3c-0.1-0.3-0.1-0.7-0.1-1s0.2-0.7,0.6-0.6c0.4,0.1,0.8,0,1.2-0.1 c0.2,0,0.2-0.2,0.2-0.3c-0.1-0.5,0-0.9-0.1-1.4c0-0.1,0-0.2,0-0.3c-0.1-0.2,0-0.5,0.1-0.7c0.3-0.4,0.2-0.8,0-1.2 c-0.2-0.3-0.4-0.4-0.7-0.5c-0.8-0.3-1.4-0.2-2,0.4c-0.3,0.3-0.6,0.4-0.9,0.6c-0.1,0.1-0.2,0.3-0.1,0.4c0.1,0.2,0.2,0.5,0.2,0.7 c0.1,0.4,0,0.6-0.4,0.8c-0.2,0.1-0.4,0.1-0.7,0.1c-0.4,0-0.7,0.2-1,0.3c-0.2,0.1-0.2,0.2-0.2,0.3c0,0.4-0.3,0.7-0.4,1.1 c-0.1,0.1-0.2,0.2-0.4,0.2c-0.4,0-0.8,0-1.1-0.3c-0.1-0.1-0.3-0.1-0.4,0c-0.2,0.2-0.4,0.5-0.5,0.8c0,0.2-0.1,0.5-0.2,0.7 c-0.1,0.2-0.1,0.4,0.2,0.5c0.1,0.1,0.2,0.2,0.4,0.3c0.1,0.1,0.3,0.1,0.4,0c0.4-0.2,0.8-0.5,1.2-0.7c0.3-0.1,0.5,0,0.7,0.2 s0.5,0.3,0.7,0.3c0.3,0,0.4,0.2,0.3,0.5c-0.1,0.2-0.2,0.3-0.2,0.5c0,0.3-0.2,0.4-0.4,0.4c-0.1,0-0.2,0-0.2,0 c-0.4,0.5-1,0.3-1.5,0.4c-0.4,0.1-0.7,0.4-0.9,0.8c-0.1,0.3-0.3,0.2-0.4,0.1c-0.4-0.4-0.9-0.2-1.4-0.2c-0.1,0-0.2,0.1-0.4,0.1 s-0.4,0.2-0.4,0.4c0,0.6-0.5,1-0.8,1.5c-0.1,0.1-0.3,0.1-0.5,0.1c-0.3,0-0.6,0-0.8,0c-0.3,0-0.4-0.1-0.6-0.3 c-0.5-0.7-1.2-0.7-1.8-0.1c0,0.4-0.2,0.5-0.4,0.5s-0.4,0.1-0.6,0.1c-0.4,0.1-0.9,0.2-1.4,0c-0.6-0.2-1.2-0.3-1.8-0.5 c-0.2-0.1-0.2-0.2-0.3-0.4c-0.1-0.3,0-0.7-0.3-1c-0.1-0.1-0.3-0.2-0.5-0.1c-0.3,0.1-0.6,0.2-0.9,0.2c-0.3,0-0.4,0.2-0.5,0.4 c-0.1,0.3-0.3,0.7-0.3,1.1c-0.1,0.3,0.3,0.7,0.6,0.6c0.5-0.1,1-0.2,1.4-0.4c0.2-0.1,0.3,0,0.3,0.2c0,0.3,0.1,0.6,0.1,0.8 c0,0.9,0.2,1.7,0.6,2.4c0.3,0.6,0.1,1.1-0.5,1.4c-0.2,0.1-0.5,0-0.7-0.1c-0.6-0.1-1.1-0.4-1.7-0.2c-0.3,0.1-0.6-0.1-0.9-0.1 c-0.4-0.1-0.8-0.2-1.1-0.2c-0.5-0.1-0.6-0.3-0.5-0.8c0.1-0.3,0.1-0.5,0.1-0.8s-0.2-0.4-0.4-0.3c-0.4,0.1-0.9,0-1.3,0.1 c-0.2,0-0.4,0-0.4,0.3s-0.1,0.6-0.1,1c0,0.3-0.2,0.5-0.5,0.5s-0.7,0.1-1,0.1c-0.2,0-0.3,0.1-0.5,0.3c-0.2,0.2-0.4,0.4-0.6,0.5 c-0.1,0.1-0.2,0.2,0,0.3c0.3,0.1,0.5,0.3,0.5,0.6c0,0.1,0.1,0.2,0.2,0.3c0.2,0.2,0.2,0.4,0.1,0.6c-0.3,0.6-0.3,0.6-0.8,0.1 c-0.2-0.2-0.5-0.4-0.6-0.8l-0.1-0.1c-0.3-0.1-0.3-0.2-0.2-0.5c0.1-0.1,0-0.2-0.1-0.2c-0.3-0.2-0.8-0.4-1.1-0.6 c-0.3-0.2-0.6-0.3-0.9-0.5c-0.2-0.1-0.4-0.1-0.6,0c-0.1,1-0.5,10-1.1,19.8c0.1,0,0.1,0,0.2,0c0.2,0,0.3,0,0.5,0 c0.4,0,0.7-0.2,0.7-0.7c0-0.3-0.1-0.6-0.1-0.9c0.1-0.5,0.2-1.1,0.2-1.6c0-0.3,0.1-0.5,0.4-0.5c0.4-0.1,0.8-0.2,1.1-0.3 c0.1,0,0.3-0.1,0.5,0c0.3,0.2,0.7,0.2,1.1,0.3c0.5,0.1,0.9,0.3,1.1,0.8s0.2,0.5-0.1,0.8c-0.1,0.1-0.1,0.2-0.2,0.3 c-0.2,0.2-0.2,0.4-0.1,0.6c0.2,0.3,0.2,0.6,0.3,0.8c0.1,0.5,0.2,0.5,0.7,0.4s1-0.1,1.3,0.4c0.1,0.1,0.2,0.2,0.3,0.3 c0.1,0.1,0.3,0.1,0.4,0.1c0.3-0.2,0.7-0.3,1-0.4c0.7-0.4,0.8-1.3,0.2-1.8c-0.3-0.2-0.3-0.4-0.2-0.7c0.2-0.4,0.3-0.7,0.4-1.1 c0.1-0.3,0.2-0.4,0.5-0.4c0.5,0.1,1.1,0.1,1.6,0.1c0.5,0,0.7-0.3,0.5-0.8c0-0.1-0.1-0.2-0.1-0.3c-0.1-0.6-0.1-1.3-0.3-1.9 c0-0.1,0-0.1,0-0.2c0.1-0.3,0.2-0.7,0.3-1s0.1-0.5-0.1-0.7c-0.2-0.3-0.3-0.6-0.1-0.9c0.1-0.2,0.2-0.5,0.3-0.7s0.2-0.4,0.5-0.4 c0.4,0,0.8-0.1,1.1-0.4c0.3-0.3,0.6-0.3,1-0.2s0.7,0.1,1.1,0.1c0.2,0,0.4-0.1,0.4-0.3c0-0.5,0.2-0.9,0.3-1.4c0-0.2,0-0.4,0.3-0.4 c0.4,0,0.9,0,1.3,0.1c0.2,0,0.3,0.1,0.3,0.3c0,0.4,0.1,0.9,0,1.3c-0.1,0.3,0,0.5,0.3,0.7c0.1,0.1,0.3,0.2,0.3,0.4 c0,0.5,0.2,1,0.2,1.5c0,0.3,0.2,0.4,0.4,0.4c0.4,0,0.7,0,1.1,0c0.5,0,0.7,0.3,0.6,0.7C42,38.8,42,39.1,42,39.4 c0,0.2,0.1,0.3,0.2,0.3c0.4,0.1,0.7,0.3,1.1,0.3c0.7,0.2,0.9,0.5,0.7,1.2c0,0.1,0,0.1,0,0.2c0,0.3,0.1,0.4,0.3,0.5 c0.3,0,0.6,0.2,0.9,0.3c0.5,0.1,0.6,0,0.6-0.5c0-0.4,0.1-0.8,0.2-1.1c0.1-0.2,0.1-0.5-0.2-0.7c-0.2-0.1-0.3-0.3-0.1-0.5 c0.1-0.1,0.1-0.2,0.2-0.3c0.2-0.5,0.5-0.9,0.7-1.4c0-0.1,0.2-0.3,0.4-0.2c0.3,0.2,0.7,0.2,1.1,0.4c0.2,0.1,0.2,0.2,0.2,0.4 c0,0.4,0,0.7,0,1.1c0,0.2,0.1,0.4,0.3,0.5c0.4,0.2,0.9,0.4,1.4,0.6c0.6,0.2,0.9,0.5,0.9,1.1c0,0.4,0.2,0.6,0.6,0.6 c0.2,0,0.3,0.1,0.5,0.1s0.4-0.1,0.5-0.2c0.3-0.4,0.5-0.8,0.8-1.3c0.1-0.2,0.2-0.4,0-0.6c-0.4-0.5-0.7-0.9-0.3-1.5 c0-0.1,0-0.2,0.1-0.2c0.1-0.2,0.2-0.4,0.4-0.4c0.3,0,0.5-0.1,0.8-0.2c0.3-0.1,0.6,0,0.6,0.3c0,0.1,0.1,0.3,0.1,0.4 c0.2,0.6,0.2,1.1,0.5,1.7c0.1,0.1,0.2,0.2,0.3,0.2c0.4-0.2,0.8-0.2,1.3-0.2s1-0.2,1.6-0.2c0.5-0.1,0.6,0,0.7,0.4 c0-0.9-0.1-1.7-0.1-2.5c-0.1,0-0.1,0-0.1-0.1c-0.1-0.1,0-0.2,0-0.3c0-1.3-0.1-2.5-0.1-3.8c0-0.4-0.1-0.7-0.1-1.1 c-0.1-0.5-0.2-0.9-0.2-1.4c0-0.9,0-1.8,0-2.7c0-0.1,0-0.2,0-0.3c0-0.3,0-0.5,0-0.7c0,0.1,0,0.1-0.1,0.1s-0.1-0.1-0.1-0.1 c-0.3-0.6-0.2-1.2-0.2-1.9c0-0.1,0.1-0.2,0.1-0.2c0.4-0.2,0.6-0.6,0.9-0.9c0.4-0.4,0.8-0.5,1.3-0.4c0.1,0,0.2,0,0.3,0.1 c0.1,0,0.2,0.1,0.2,0.2s-0.1,0.1-0.2,0.2c0.1,0,0.1,0.1,0.2,0.1c0.1-0.1,0.2-0.2,0.3-0.1c0.5,0.2,1,0.5,1.2,1s0.3,1,0.5,1.5 c0,0.1,0,0.3,0.2,0.3c0.1,0,0.1,0.1,0.1,0.1c0,0.4,0.3,0.4,0.5,0.4c0.1,0,0.2,0,0.2,0.1s-0.1,0.1-0.2,0.1c-0.3,0-0.4,0.1-0.5,0.4 c0,0.1-0.1,0.2-0.2,0.2c0.3,0.6,0.4,1.1,0.7,1.7c0.1,0.1,0.1,0.3,0.1,0.4V31c0.3,0.1,0.2,0.3,0.3,0.5c0.5-0.1,0.4-0.2,0.3-0.6 c0-0.1-0.2-0.3-0.1-0.4c0-0.1-0.1-0.2-0.2-0.2c-0.3,0-0.3-0.2-0.3-0.4c-0.1-0.3-0.2-0.6-0.4-0.9c-0.1-0.1-0.2-0.2-0.1-0.3 c0.1-0.1,0.2-0.1,0.3-0.1c0.1,0,0.2,0,0.3,0.1c0.2,0.3,0.5,0.4,0.8,0.6s0.3,0.1,0.3-0.2c0.1,0.3,0.2,0.5,0.5,0.7 c0.2,0.1,0.1,0.3-0.1,0.4c-0.1,0.1-0.1,0.1,0,0.2c0.2,0.1,0.3,0.2,0.3,0.4c0.1,0.3,0.2,0.5,0.3,0.8c0.1,0.2,0.1,0.3-0.1,0.4 c-0.1,0.1-0.3,0.1-0.4,0c-0.2-0.1-0.3,0-0.2,0.1c0,0.1,0,0.2-0.1,0.2c-0.2,0-0.4,0.1-0.7,0.1c0,0.1,0,0.2,0.1,0.3H65 c0-0.1,0.1-0.1,0.2-0.1c0.4-0.1,0.8-0.2,1.3-0.3c-0.1-0.1-0.2,0-0.3-0.1c0.3-0.2,1-0.2,1.2,0c0.1,0,0.3-0.1,0.4,0.1 c0.1,0,0.1,0,0.2,0c0.1-0.3,0.4-0.1,0.5-0.2c-0.1-0.1-0.3,0-0.5-0.1c0.3-0.2,0.7-0.2,0.9,0c0.1,0,0.2,0,0.3,0.1h0.1 c0.1-0.3,0.4-0.1,0.5-0.2c-0.1-0.1-0.3,0-0.5-0.1c-0.1,0-0.1,0-0.2-0.1c0,0,0-0.1,0.1-0.1c0.1-0.1,0.1-0.1,0.2-0.1 c0.3,0.1,0.5,0,0.7-0.2c0.1-0.1,0.2-0.1,0.4-0.1c0.2,0,0.4,0,0.6-0.2c0-0.1,0.1-0.1,0.2-0.1c0.3,0,0.6,0.1,0.9-0.2 c0.1-0.1,0.4-0.1,0.5,0.1h0.1c0-0.1,0.1-0.1,0.2-0.2c0-0.1-0.1-0.1-0.1-0.2s0.1-0.1,0.2-0.1s0.2,0.1,0.3,0.1c0,0,0,0,0.1-0.1 c0-0.1,0-0.3,0.2-0.3c0.1,0,0.3,0,0.3,0.2l0,0c0,0,0.1,0,0.1-0.1c0.1-0.1,0.2-0.1,0.2-0.2C75.3,29.1,76.1,28.5,76.7,27.6z M23.6,29.9L23.6,29.9C23.5,29.9,23.5,29.9,23.6,29.9L23.6,29.9L23.6,29.9z M32.4,38.6c-0.1,0.2-0.2,0.3-0.1,0.5 c0.1,0.4,0.1,0.4-0.3,0.4h-0.1c-0.2,0-0.3,0-0.5,0s-0.3,0-0.5,0c-0.1,0.1-0.2,0.1-0.4,0.2c-0.1,0-0.2,0.1-0.3,0 c-0.4-0.2-0.9-0.1-1.3-0.2c-0.1,0-0.3-0.1-0.4,0.1c-0.2,0.3-0.5,0.4-0.7,0.7c-0.1,0.1-0.1,0.2-0.2,0.2c-0.5-0.1-0.9,0-1.4-0.3 c-0.2-0.1-0.5-0.3-0.5-0.6c0-0.1,0-0.2,0-0.4c0-0.3,0.1-0.6,0.1-0.9c0-0.5,0.5-0.9,0.9-0.9c0.2,0,0.4,0,0.6,0 c0.4-0.1,0.7,0.1,1,0.4c0.1,0.1,0.2,0.2,0.2,0.4c0,0.1,0,0.2,0.1,0.2s0.1-0.1,0.1-0.2c0-0.3,0.1-0.4,0.4-0.4 c0.4-0.1,0.9-0.1,1.3-0.4c0.1-0.1,0.2,0,0.2,0c0.4,0,0.8,0.1,1.1,0c0.2-0.1,0.4,0,0.4,0.2c0,0.1,0.2,0.2,0.2,0.4 C32.5,38.2,32.5,38.4,32.4,38.6z M32.8,32.9c-0.4,0.5-0.8,0.8-1.5,0.7l0,0c-1.1,0-0.8,0-1.3-0.9c-0.1-0.2-0.1-0.3,0-0.5 c0.1-0.3,0.3-0.6,0.4-0.9s0.3-0.3,0.5-0.2c0.5,0.2,1,0.4,1.6,0.6C33,31.9,33.1,32.4,32.8,32.9z M46.3,22.3c-0.1,0-0.2,0-0.3,0l0,0 c-0.1,0-0.1,0-0.2,0c-0.2,0-0.4-0.2-0.3-0.4c0-0.2,0.2-0.3,0.4-0.3c0.1,0,0.2,0.1,0.4,0.1s0.3,0.1,0.3,0.2 C46.7,22.2,46.5,22.3,46.3,22.3z M51.7,17.7c0.2,0,0.4,0.1,0.4,0.3c0,0.3-0.3,0.2-0.5,0.3c-0.2,0-0.3-0.1-0.3-0.3 C51.3,17.8,51.4,17.7,51.7,17.7z M53.6,36c-0.3,0.2-0.7,0.3-1.1,0.3c-0.2,0-0.3,0-0.5,0c-0.3,0.1-0.5,0-0.7-0.4 c-0.1-0.1-0.1-0.3-0.2-0.4C51,35.4,51,35.3,51,35.2c0.1-0.5,0.3-0.9,0.6-1.3c0.1-0.1,0.2-0.1,0.3-0.1c0.6,0.2,1.2,0.5,1.8,0.7 C54,34.6,54,34.8,54,35C54,35.6,53.8,35.8,53.6,36z M56,26.7c0-0.1,0-0.2,0.1-0.2s0.1,0.1,0.1,0.2s0,0.2-0.1,0.2 C55.9,26.9,56,26.8,56,26.7z M55.7,27.4c-0.1-0.1,0-0.1,0-0.2c0.2-0.1,0.3,0.1,0.4,0.1C56,27.4,55.9,27.6,55.7,27.4z M67.5,22.2 c0.2,0,0.3,0,0.4,0.2l0,0h-0.1C67.6,22.3,67.5,22.4,67.5,22.2C67.4,22.2,67.5,22.2,67.5,22.2z M66.7,27.8c-0.1,0-0.2-0.1-0.2-0.2 s0-0.1,0.1-0.1C66.7,27.6,66.8,27.7,66.7,27.8C66.8,27.8,66.8,27.8,66.7,27.8z M66.4,27c-0.2,0-0.3,0.1-0.3,0.3 c0,0.1,0,0.2-0.1,0.2s-0.1-0.1-0.1-0.2c-0.1-0.3,0-0.6,0.1-0.9c0,0,0-0.1,0.1-0.1c0.2,0.1,0.2-0.1,0.3-0.1c0.1-0.1,0.2-0.3,0.4-0.2 c0.1,0.1,0,0.3,0.1,0.5C66.7,26.7,66.7,27,66.4,27z M68.1,26.5c-0.4-0.1-0.8,0.1-0.8,0.6c0,0.1,0,0.1,0,0.2s0,0.2-0.2,0.2 c-0.1,0-0.2-0.1-0.2-0.2s0-0.2,0.1-0.3c0.3-0.4,0-0.8-0.1-1.2c0-0.1-0.2-0.2-0.3,0c0,0.1-0.1,0.1-0.2,0.1s-0.1-0.1-0.1-0.1 c0-0.2,0.1-0.1,0.2-0.1s0-0.1,0-0.1c0-0.1,0-0.2,0.1-0.3c0.1,0,0.2,0.1,0.3,0c0-0.1-0.2-0.2-0.2-0.4c0-0.3,0.2-0.4,0.3-0.6 c0.1-0.1,0.2-0.3,0.3-0.4c0-0.1,0.1-0.2,0.2-0.2s0.1,0.1,0.1,0.2s0,0.2,0,0.3c0,0.1,0,0.2,0.1,0.3l0.1,0.1c0,0.4,0.3,0.6,0.3,1 c0,0.3,0.2,0.5,0.2,0.7C68.4,26.4,68.3,26.5,68.1,26.5z M68.8,21.7c-0.2,0.3-0.3,0.3-0.7,0.2c0.2,0,0.2-0.1,0.2-0.2 s0.1-0.2,0.2-0.3c0.1-0.1,0.2,0,0.3,0.1C68.9,21.6,68.8,21.7,68.8,21.7z"/><path class="st3" d="M53.3,72c0-0.4-0.2-0.7-0.4-1c-0.1-0.1-0.2-0.3-0.1-0.5c0.1-0.3,0.1-0.6,0.2-1c0-0.1,0-0.2,0.1-0.2 c0.1-0.2,0.2-0.3,0.5-0.3s0.7,0,1,0c0.2,0,0.4,0.1,0.5,0.3c0.2,0.6,0.7,0.9,1.2,1.1c0.6,0.2,0.7,0.3,0.7,1c0,0.1,0,0.3,0,0.4 c1.4-0.4,2.8-0.7,3.9-1.1c0-0.4,0-0.9,0-1.3c0-0.2-0.1-0.4-0.1-0.6c-0.1-0.5,0-1.1-0.1-1.6c0-0.2-0.1-0.4-0.3-0.5 c-0.3-0.1-0.5,0-0.6,0.2c-0.3,0.4-0.6,0.9-0.9,1.3c-0.1,0.1-0.2,0.2-0.3,0.2c-0.3,0.1-0.7,0-0.8-0.3c-0.2-0.3-0.4-0.7-0.7-1.1 c-0.1-0.1-0.1-0.2,0-0.3c0.4-0.4,0.7-1,1.4-1c0.3,0,0.5-0.2,0.6-0.5s0-0.5-0.3-0.7s-0.6-0.4-0.9-0.7c-0.2-0.2-0.3-0.3-0.2-0.6 c0.1-0.1,0.1-0.3,0.2-0.4c0.2-0.4,0-0.6-0.4-0.6c-0.5,0-1,0.1-1.4,0.2c-0.2,0-0.3,0.2-0.3,0.4c0,0.5,0,0.9-0.1,1.4 c0,0.5-0.4,0.7-0.8,0.5c-0.2-0.1-0.5-0.3-0.7-0.4c-0.4-0.2-0.7-0.4-0.7-0.9c0-0.4,0-0.9-0.1-1.3c-0.1-0.4-0.4-0.7-0.6-0.6 c-0.5,0.2-1,0.3-1.5,0.5c-0.3,0.1-0.4,0.3-0.5,0.6c0,0.3-0.1,0.7-0.1,1c-0.1,0.6-0.5,0.9-1.1,0.8c-0.2,0-0.4-0.1-0.5-0.1 c-0.3-0.1-0.5,0-0.7,0.3c-0.2,0.5-0.4,1.1-0.7,1.5s-0.7,0.4-1,0c-0.1-0.2-0.3-0.4-0.4-0.7c-0.3-0.7-0.4-0.7-1.1-0.6 c-0.1,0-0.2,0-0.3,0c-0.3,0-0.5,0.2-0.6,0.4c0,0.4-0.2,0.7-0.2,1s-0.2,0.5-0.5,0.5c-0.2,0-0.5-0.1-0.7-0.1s-0.4-0.1-0.5,0.1 c-0.4,0.6-0.8,1.2-0.9,1.9c-0.1,0.4-0.1,0.8-0.2,1.2c-0.2,0.6,0,0.9,0.6,1c0.5,0.1,1,0.3,1.6,0.4c0.5,0.1,0.5,0.5,0.5,0.9 c0.1,0.3-0.1,0.4-0.3,0.5c-0.4,0.2-0.7,0.4-1,0.7c-0.2,0.1-0.3,0.1-0.4,0c-0.1-0.1-0.2-0.2-0.3-0.3c-0.4-0.6-0.6-0.6-1.3-0.4 c-0.1,0-0.2,0.1-0.2,0.1c-0.6,0.2-0.6,0.1-0.6-0.5v-0.1c-0.1-0.8-0.5-1.6-0.5-2.5c0-0.2,0-0.5,0-0.7c-0.1-0.3,0-0.6,0.2-0.8 c0.2-0.2,0.2-0.4,0.4-0.6c0.1-0.1-0.1-1-0.2-1.1h-0.1c-0.3,0-0.7-0.1-1,0c-0.2,0.1-0.4,0-0.6-0.1c-0.6-0.5-1.1-0.6-1.8-0.3 c-0.2,0.1-0.4,0-0.5-0.3c-0.1-0.4-0.2-0.8-0.3-1.2c-0.5,0-0.5-0.3-0.3-0.5c0.1-0.1,0.1-0.3,0.1-0.5c-0.1-0.3-0.2-0.6-0.3-0.9 c-0.1-0.3,0.2-0.6,0.5-0.5c0.4,0,0.8,0.1,1.2,0.2c0.4,0,0.7,0.2,1-0.2c0.1-0.1,0.2-0.2,0.4-0.1c0.3,0.1,0.7,0.2,1,0.3 c0.2,0,0.3,0.1,0.3,0.3c0.1,0.4,0.2,0.9,0.2,1.4c0,0.1,0,0.2-0.1,0.2c-0.5,0.6-0.2,1.3,0,1.9c0.1,0.2,0.2,0.2,0.4,0.3 c0.5,0,1-0.1,1.5-0.1c0.2,0,0.3-0.1,0.4-0.3c0.3-0.4,0.4-0.8,0.7-1.2c0.1-0.1,0.1-0.3,0-0.4c-0.4-0.4-0.3-0.8-0.2-1.2 c0.1-0.7,0.8-1.2,1.3-0.8s1,0.5,1.6,0.3h0.1c0.2,0,0.7-0.5,0.8-0.8c0-0.1,0-0.1,0-0.2c-0.1-0.2-0.2-0.5-0.3-0.7 c-0.1-0.3,0-0.5,0.2-0.8c0.1-0.1,0.3-0.2,0.3-0.4c0.1-0.7,0-1.5-0.1-2.2c0-0.1-0.1-0.2-0.3-0.2c-0.1,0.1-0.3,0.1-0.5,0.1 c-0.3,0-0.4,0.2-0.5,0.4c-0.2,0.5-0.5,1.1-0.8,1.6c-0.1,0.3-0.6,0.6-0.8,0.5c-0.5-0.2-1.1-0.3-1.4-0.8c-0.2-0.3-0.3-0.5-0.3-0.8 c0-0.2,0-0.4,0-0.6c0-0.1-0.1-0.2-0.2-0.1c-0.1,0-0.1,0.1-0.1,0.2c0.2,0.3,0.1,0.5,0.1,0.8c0,0.2-0.1,0.3-0.3,0.3 c-0.3,0.1-0.7,0.1-1,0.1c-0.4,0.1-0.5,0.1-0.7-0.5c0-0.2-0.1-0.3-0.2-0.3c-0.3,0-0.6-0.2-0.9-0.3c-0.2,0-0.5-0.2-0.5-0.5 c-0.1-0.4-0.1-0.8-0.1-1.2c0-0.7,0-0.9-0.8-0.6c0,0,0,0-0.1,0c-0.9,0.2-0.9,0.2-1.3,1c0,0,0,0.1-0.1,0.1c-0.2,0.2-0.2,0.5,0,0.7 c0.2,0.3,0.2,0.6,0,0.8c-0.2,0.4-0.3,0.8-0.5,1.2c-0.1,0.2-0.2,0.3-0.4,0.3s-0.5,0-0.7-0.1c-0.5-0.1-1,0.2-1.6,0.1 c-0.4-0.1-0.9,0-1.4-0.1c-0.2,0-0.2-0.1-0.3-0.2c-0.1-0.3-0.2-0.6-0.3-0.9c-0.1-0.4,0.3-1.2,0.7-1.2c0.5-0.1,0.9-0.1,1.4,0 c0.3,0,0.4-0.1,0.6-0.3c0.1-0.2,0.1-0.3,0.1-0.5c-0.1-0.3-0.3-0.6-0.3-1c0-0.3-0.2-0.3-0.4-0.2c-0.4,0.2-0.8,0.2-1.2,0.4 c-0.4,0.2-0.7,0.1-1-0.2c-0.4-0.4-0.9-0.3-1.3-0.4c-0.2,0-0.4,0.2-0.6,0.3c-0.5,0.3-1.1,0.2-1.4-0.4c-0.3-0.6-0.6-1.1-0.9-1.7 c-0.1-0.2-0.3-0.3-0.5-0.2c-0.4,0.2-0.8,0.1-1.2-0.2c-0.2-0.1-0.4-0.2-0.5-0.4c-0.1-0.1-0.3-0.1-0.4-0.1c-0.3,0.2-0.7,0.3-1,0.5 c-0.5,0.3-0.6,0.3-1,0c-0.2-0.1-0.4-0.1-0.5-0.1c-0.2,0-0.5,0.1-0.7,0.2c-0.1,0-0.1,0-0.1,0.1c0,0.7-0.1,1.4-0.1,2.1 c0.1,0.1,0.1,0.1,0.2,0.1c0.3,0,0.6,0,0.9,0s0.5-0.2,0.8-0.1c0.6,0.2,1.2,0.5,1.9,0.7c0.1,0,0.2,0.1,0.2,0.3c0,0.3,0,0.6,0,0.9 c0,0.2,0.1,0.3,0.2,0.4c0.5,0.3,1,0.6,1.5,0.9c0.1,0.1,0.2,0.2,0.3,0.4c0.1,0.3,0,0.7,0,1c0,0.4,0,0.5-0.5,0.5c-0.4,0-0.8,0-1.2,0 c-0.5,0-0.8-0.1-1.2-0.5c-0.3-0.4-0.6-0.4-1.1-0.3c-0.2,0.1-0.3,0.1-0.5,0.1c-0.3,0-0.6-0.1-0.9-0.2c-0.4,0-0.5-0.1-0.7,0 c-0.3,4.8-0.6,8.9-0.7,11.3c5.8,2,14.7,3.5,20.8,3.5c0.1,0,0.1,0,0.2,0c0.1,0,0.1,0,0.2,0c4-0.1,8.9-0.7,13.4-1.6 C53.4,72.4,53.3,72.2,53.3,72z M30.7,68.1c-0.1,0.1-0.1,0.1-0.3,0.2c-0.6,0.1-1.2,0.2-1.8,0.4c-0.7,0.2-1.3,0-1.9,0 c-0.1,0-0.2-0.1-0.3,0c-0.3,0-0.5,0-0.6-0.3c-0.1-0.1-0.3-0.2-0.5-0.2c-0.4,0.1-0.8,0.2-1.3,0.2c0,0-0.1,0-0.1,0.1 c-0.1,0.1-0.1,0.1-0.2,0.2C23.2,69,22.5,69,22,69.2c-0.2,0.1-0.4,0-0.6-0.1c-0.5-0.2-1.1-0.3-1.6-0.4c-0.4-0.1-0.4-0.2-0.3-0.6 c0.1-0.3,0.2-0.5,0.2-0.8c0-0.1,0.1-0.2,0.2-0.3c0.1-0.1,0.1-0.1,0.3-0.2c0.4-0.1,0.8-0.3,1.2-0.4c0.1,0,0.2,0,0.2-0.1 c0.4-0.4,0.8-0.2,1.2-0.1c0.2,0.1,0.4,0.1,0.6-0.1c0.4-0.3,0.8-0.4,1.3-0.3c0.1,0,0.3,0,0.4,0c0.3,0,0.5,0.1,0.7,0.3 c0.1,0.2,0.4,0.3,0.6,0.2c0.3-0.1,0.6-0.1,0.9,0c0.3,0,0.6,0,0.9-0.2c0.1-0.1,0.3-0.1,0.4,0c0.5,0.2,1,0.3,1.5,0.4 c0.4,0.1,0.6,0.3,0.6,0.7c0,0.2,0,0.3,0.1,0.5C30.8,67.9,30.8,68,30.7,68.1z M32.8,63.9c0,0.1-0.1,0.2-0.2,0.2 c-0.1,0.1-0.2,0.1-0.4,0.1s-0.4-0.1-0.5-0.1c-0.4-0.1-0.7,0.2-0.9,0.4c-0.2,0.1-0.4,0.2-0.7,0.1c-0.4-0.1-0.7-0.1-1.1-0.2 c-0.2,0-0.3-0.2-0.3-0.4c0-0.3,0-0.5,0-0.8s-0.1-0.5-0.3-0.7c-0.1-0.1-0.2-0.2-0.3-0.3c-0.1-0.2-0.1-0.3,0-0.5 c0.2-0.2,0.4-0.4,0.5-0.7c0.1-0.2,0.2-0.3,0.3-0.4c0.3-0.3,0.7-0.5,1.2-0.5h0.1c0.6-0.1,0.6-0.1,0.6,0.6c0,0.1,0,0.2,0,0.3 c0,0.5,0.1,0.6,0.6,0.8c0.4,0.1,0.8,0.2,1.3,0.4c0.2,0.1,0.5,0.2,0.5,0.5C33,63,32.9,63.4,32.8,63.9z"/><path class="st2" d="M10.4,31.3c0.2,0,0.3,0,0.2,0.2c0.1,0,0.1,0,0.2,0c0-0.2,0.1-0.3,0.3-0.3c0.3,0,0.6,0,0.8,0 c0.3,0.1,0.6,0.2,0.9,0.2c0.1,0,0.3,0.1,0.3,0.2c0.2,0.1,0.4,0.1,0.6,0.1c0.1,0,0.3,0,0.3,0.2c0.1,0,0.1,0,0.2,0 c0.1-0.1,0.1-0.1,0.1,0c0.1,0,0.1,0,0.2,0c0.2-0.2,0.4-0.5,0.8-0.4c0-0.1,0.1-0.2,0.1-0.4c0-0.1,0-0.1,0-0.2s0.1-0.1,0.2-0.1 c0-0.1,0-0.1,0-0.2c-0.3-0.2-0.3-0.4-0.1-0.7c0.1-0.2,0.3-0.5,0.3-0.7c0.1-0.5,0.3-0.9,0.5-1.3c0.1-0.1,0.1-0.4-0.1-0.3 c-0.3,0-0.5-0.1-0.7-0.1c-0.3,0-0.5-0.1-0.6-0.5s-0.4-0.8-0.9-0.8c-0.1,0-0.3-0.1-0.4,0.1c-0.1,0.1,0,0.3,0,0.4 c0.1,0.2,0.2,0.4,0.3,0.6s0,0.3-0.2,0.3s-0.2,0.1-0.2,0.2s-0.1,0.2-0.2,0.1c-0.1,0-0.1-0.1-0.1-0.2s0.1-0.3,0.3-0.3 c0.1,0,0.2,0,0.3-0.1c-0.1-0.1-0.2,0-0.2-0.1c-0.2,0-0.4-0.3-0.4-0.5c0.1-0.4-0.1-0.6-0.3-0.8c-0.3-0.3-0.3-0.4-0.1-0.7 c0.2-0.2,0.3-0.4,0-0.6c-0.1-0.1-0.1-0.2,0-0.3c0.1-0.2,0.1-0.5-0.2-0.7c-0.2-0.1-0.4,0-0.5,0c-0.4,0-0.6,0-0.8-0.4 c-0.1-0.1,0-0.3-0.1-0.5c0.1-0.1,0.3,0.2,0.3,0c0-0.1,0-0.3-0.2-0.4c-0.1-0.1-0.2,0-0.4,0s-0.4,0-0.5-0.1c-0.1,0-0.1-0.2-0.1-0.4 c0.2-0.4-0.2-1.3-0.1-1.4c0.1-0.1,0.1-0.1,0.2-0.2c-0.1,0-0.2,0-0.3,0.1S10,20.5,10,20.6c0,0.1,0,0.1-0.1,0.2S9.7,21,9.5,21 S9.1,20.9,9,21.1c0.4,0,0.6,0.2,0.7,0.6c0,0.1-0.1,0.1-0.1,0.1c-0.2-0.2-0.4,0-0.5,0.1c-0.5,0.2-0.6,0.6-0.6,1.1c0,0.2,0,0.3,0,0.5 c0,0.4-0.3,0.7-0.8,0.5c-0.2-0.1-0.5-0.2-0.7-0.3c-0.1-0.1-0.2-0.1-0.4,0c-0.5,0.4-1,0.8-1.5,1.1c-0.2,0.1-0.3,0.3-0.6,0.4 c-0.1,0-0.2,0.1-0.3,0.1c0,0.1-0.1,0.2-0.2,0.2c0,0-0.1,0-0.1-0.1s0.1-0.1,0.2-0.1c0-0.2,0.2-0.3,0.1-0.4C4.1,25,4,25.1,3.9,25.2 C3.6,26,3.3,26.8,3,27.5C4.1,29,5.9,30,7.8,30.7c0,0,0.1-0.1,0.2,0c0.1,0,0.1,0,0.1,0.1l0,0c0.1,0,0.1,0,0.2,0.1c0.1,0,0.3,0,0.4,0 c0.1,0,0.1,0,0.1,0.1h0.1c0.2-0.1,0.2,0,0.2,0.2c0,0,0.1,0,0.1,0.1h0.1c0.1,0,0.1,0,0.2,0C10,31.2,10.2,31.3,10.4,31.3z M12.7,27.8 c0.1,0,0.1,0,0.1,0.1S12.7,28,12.6,28c-0.1,0-0.1,0-0.1-0.1C12.6,27.8,12.6,27.8,12.7,27.8z"/><path class="st1" d="M32.2,37.6c-0.1-0.3-0.2-0.3-0.4-0.2c-0.4,0.1-0.8,0.1-1.1,0c-0.1,0-0.2-0.1-0.2,0c-0.4,0.3-0.8,0.3-1.3,0.4 c-0.3,0-0.4,0.1-0.4,0.4c0,0.1,0,0.2-0.1,0.2s-0.1-0.1-0.1-0.2c0-0.2,0-0.3-0.2-0.4c-0.3-0.2-0.6-0.4-1-0.4c-0.2,0-0.4,0-0.6,0 c-0.5,0-0.9,0.4-0.9,0.9c0,0.3-0.1,0.6-0.1,0.9c0,0.1-0.1,0.2,0,0.4c0.1,0.3,0.3,0.4,0.5,0.6c0.4,0.3,0.9,0.2,1.4,0.3 c0.1,0,0.2-0.1,0.2-0.2c0.2-0.3,0.5-0.4,0.7-0.7c0.1-0.1,0.3-0.1,0.4-0.1c0.4,0.1,0.9,0,1.3,0.2c0.1,0,0.2,0,0.3,0 c0.1,0,0.2-0.1,0.4-0.2c0.2-0.1,0.3-0.1,0.5,0c0.2,0,0.3,0.1,0.5,0h0.1c0.4,0,0.4,0,0.3-0.4c-0.1-0.2,0-0.4,0.1-0.5 c0.1-0.2,0.1-0.4,0.1-0.6C32.4,37.8,32.3,37.7,32.2,37.6z"/><path class="st1" d="M32.5,31.7c-0.5-0.2-1.1-0.4-1.6-0.6c-0.2-0.1-0.4,0-0.5,0.2c-0.1,0.3-0.3,0.6-0.4,0.9c-0.1,0.2-0.1,0.3,0,0.5 c0.5,0.9,0.2,0.9,1.3,0.9l0,0c0.6,0.1,1.1-0.1,1.5-0.7C33.1,32.4,33,31.9,32.5,31.7z"/><path class="st1" d="M53.7,34.6c-0.6-0.2-1.2-0.5-1.8-0.7c-0.1,0-0.2-0.1-0.3,0.1c-0.3,0.4-0.5,0.8-0.6,1.3c0,0.1,0,0.2,0.1,0.3 s0.1,0.3,0.2,0.4c0.1,0.3,0.3,0.5,0.7,0.4c0.2,0,0.3,0,0.5,0c0.4,0,0.8-0.1,1.1-0.3s0.5-0.4,0.5-0.9C54.1,34.9,54,34.7,53.7,34.6z" /><path class="st1" d="M31.8,11.7c0.5,0.2,1,0.5,1.6,0.7c0.5,0.2,1.5,0.8,1.5,0.8c0.2,0,0.7,0.5,0.8,0.6c0,0,0.9,0.6,1.2,1 c0,0,1.2,1.1,1.3,1.2c1,0.7,2.2,0.8,3.3,0.5c0.6-0.1,1.1-0.4,1.5-0.8l0.7-0.6c0-0.1,0.2-0.2,0.3-0.3c0-0.1,0.5-0.5,0.5-0.5 c0.1-0.2,0.5-0.4,0.5-0.4c0-0.1,1-0.8,1.3-1c0.7-0.5,1.5-0.7,2.2-1c0.5-0.2,0.9-0.6,1-1.2c0.1-0.4,0.3-0.8,0.3-1.2 c0-0.3-0.1-0.6-0.2-0.9c0-0.3-0.3-0.1-0.4,0c-0.2,0.1-0.4,0.3-0.7,0.5c-0.7,0.4-1.4,0.7-2.1,1c-1.1,0.5-2.3,0.7-3.4,1 c-0.2,0-1.7,0.3-2.3,0.3c-0.7-0.1-1.5,0.1-2.2-0.1c-1.6-0.3-3.3-0.5-4.9-1.2c-0.7-0.3-1.4-0.6-2-1.1c-0.1,0-0.4-0.3-0.5-0.5H31 c-0.2,0.5-0.3,1.1-0.5,1.6c-0.1,0.3,0.1,0.5,0.3,0.8C31.2,11.3,31.5,11.6,31.8,11.7z"/><path class="st1" d="M7,17.7c-0.9,2.5-1.8,5.1-2.8,7.7C4.4,25.2,4.6,25,4.6,25c0.3-0.2,2.1-1.8,2.5-1.9c0-0.1,3.5-2.7,3.6-2.7 c0,0,4.4-2.6,4.6-2.9c0.1-0.1,1.5-1,2.7-1.8c0.1-0.1,0.6-0.6,1.2-1.4c0.8-0.9,1.4-1.8,1.6-2.2c0.3-0.6,0.5-1.2,0.6-1.9 c0-0.2,0.2-2,0.1-2.7c-0.1-0.3-0.2-2-0.2-2.2c-4.9,1.7-9.4,3.3-11,3.9C9.1,11.7,8.1,14.6,7,17.7z"/><path class="st1" d="M58.2,5.5c-0.2-0.3-0.3,4.3-0.1,5.2c0.1,0.7,1.6,3.1,1.6,3.1s1.4,1.7,1.5,1.8s1.7,1,1.9,1.2 c0.3,0.1,2.1,1.3,2.4,1.5c0.3,0.2,0.5,0.3,0.8,0.5c0.4,0.2,2.2,1.4,2.2,1.4c0.1,0,2,1.2,2.3,1.4c0.3,0.2,2.6,2.2,3.5,3 c0.1,0.1,1.3,0.9,1.8,1.3c-1.1-2.7-2-5.5-3-8.2c-1.1-3.1-2.1-6.1-3.2-8.5c-1.7-0.5-6.5-2.2-11.7-4C58.3,5.3,58.3,5.6,58.2,5.5z"/><path class="st1" d="M56.9,71.4c0-0.7-0.1-0.8-0.7-1c-0.6-0.2-1.1-0.5-1.2-1.1c-0.1-0.2-0.3-0.3-0.5-0.3c-0.3,0-0.7,0-1,0 c-0.2,0-0.4,0.1-0.5,0.2c0,0,0,0.1-0.1,0.2c-0.1,0.3-0.1,0.6-0.2,1c-0.1,0.2,0,0.4,0.1,0.5c0.3,0.3,0.4,0.6,0.4,1 c0,0.3,0.2,0.5,0.4,0.6c1.1-0.2,2.2-0.5,3.2-0.7C56.9,71.7,56.9,71.5,56.9,71.4z"/><path class="st3" d="M59.7,60.8c0,0,0,0.1,0,0.2c0,0.2,0,0.3-0.1,0.4c-0.1,0.1-0.1,0.2-0.3,0.3c-0.1,0.1-0.1,0.1-0.1,0.2 c-0.1,0.2-0.1,0.3,0,0.5c0.3,0.5,0.5,1,0.8,1.5c0,0.1,0.1,0.1,0.2,0.2c0.1,0.1,0.1,0.1,0.2,0.1c0,0,0.1,0,0.1-0.1c0,0,0,0,0-0.1 s0-0.2,0-0.3c-0.1-0.6,0-1.3,0-1.9l0,0c0-0.4-0.1-0.9-0.1-1.4c-0.1,0-0.1,0-0.2,0.1C59.9,60.5,59.8,60.6,59.7,60.8z"/><path class="st2" d="M57.9,43.4c-0.1,0-0.2,0-0.3,0.1s-0.2,0.2-0.3,0.3S57.1,44,57,44.1l0,0l0,0c-0.2,0.3-0.6,0.4-0.9,0.2 c-0.1-0.1-0.2-0.2-0.3-0.2c-0.2-0.1-0.4-0.4-0.7-0.4c-0.6,0.1-1.1,0.3-1.7,0.5c-0.1,0-0.1,0-0.1,0.1c-0.1,0.1-0.1,0.2-0.1,0.3 c0,0.4,0.1,0.7,0.1,1.1c0,0.2,0.1,0.3,0.3,0.3c0.5,0.1,1,0.2,1.3,0.6c0.1,0.1,0.2,0.1,0.4,0.2c0.4,0.1,0.9,0,1.3,0.1 c0.2,0,0.4,0,0.6-0.2c0.3-0.4,0.7-0.7,1.3-0.5h0.1c0.3,0,0.6,0,0.8,0.4l0,0c-0.1-0.9-0.1-1.8-0.2-2.7c-0.1,0-0.1,0-0.2,0 C58.8,43.4,58.3,43.6,57.9,43.4z"/><path class="st3" d="M51.1,53.9c0,0.4,0,0.7,0.3,0.8c0.4,0.1,0.8,0.3,1.2,0.5c0.2,0.1,0.4,0.2,0.7,0.1c0.3-0.1,0.6-0.2,0.9-0.3 c0.2-0.1,0.3-0.1,0.4-0.2c0.1-0.1,0.1-0.3,0-0.5c0-0.1,0-0.1,0-0.2c0-0.2,0-0.4,0-0.7c0-0.4-0.3-0.5-0.6-0.6 c-0.5-0.2-0.6-0.4-1,0.1c-0.1,0.1-0.2,0.1-0.3,0.2c-0.4,0.2-0.9,0.3-1.3,0.4c-0.2,0.1-0.3,0.1-0.3,0.2 C51.1,53.7,51.1,53.8,51.1,53.9z"/><path class="st1" d="M30.7,67.8c0-0.2-0.1-0.3-0.1-0.5c0-0.4-0.2-0.6-0.6-0.7c-0.5-0.1-1-0.2-1.5-0.4c-0.1,0-0.3-0.1-0.4,0 c-0.3,0.2-0.6,0.3-0.9,0.2c-0.3,0-0.6,0-0.9,0c-0.2,0-0.4,0-0.6-0.2s-0.4-0.3-0.7-0.3c-0.1,0-0.3,0-0.4,0c-0.5-0.1-0.9,0-1.3,0.3 c-0.2,0.1-0.4,0.2-0.6,0.1c-0.4-0.2-0.8-0.3-1.2,0.1c-0.1,0.1-0.2,0.1-0.2,0.1c-0.4,0.1-0.8,0.3-1.2,0.4C20,66.9,20,67,19.9,67 c-0.1,0.1-0.1,0.1-0.1,0.2c-0.1,0.3-0.1,0.5-0.2,0.8c-0.1,0.4-0.1,0.5,0.3,0.6c0.5,0.2,1.1,0.3,1.6,0.4c0.2,0.1,0.4,0.1,0.6,0.1 c0.5-0.2,1.1-0.2,1.6-0.6c0.1,0,0.1-0.1,0.1-0.2l0,0c0,0,0,0,0-0.1l0.1-0.1c0.4-0.1,0.9-0.1,1.3-0.2c0.2,0,0.3,0.1,0.5,0.2 c0.2,0.2,0.4,0.3,0.6,0.3c0.1,0,0.2,0,0.3,0c0.6,0,1.2,0.2,1.9,0c0.6-0.2,1.2-0.3,1.8-0.4c0.1,0,0.2,0,0.2-0.1 C30.7,68,30.7,67.9,30.7,67.8z"/><path class="st1" d="M33,62.7c0-0.3-0.2-0.4-0.5-0.5c-0.4-0.1-0.8-0.2-1.3-0.4c-0.5-0.1-0.6-0.3-0.6-0.8c0-0.1,0-0.2,0-0.3 c0-0.6,0-0.6-0.6-0.6h-0.1c-0.4,0-0.8,0.2-1.1,0.4c-0.1,0.1-0.2,0.2-0.3,0.3c-0.1,0.2-0.3,0.5-0.5,0.7s-0.2,0.3,0,0.5 c0.1,0.1,0.2,0.2,0.3,0.3c0.3,0.2,0.4,0.4,0.3,0.7c0,0.3,0,0.5,0,0.8c0,0.2,0.1,0.3,0.3,0.4c0.4,0.1,0.8,0.1,1.1,0.2 c0.2,0.1,0.5,0,0.7-0.1c0.3-0.2,0.5-0.5,0.9-0.4c0.2,0,0.4,0.1,0.5,0.1c0.1,0,0.2,0,0.3,0s0.1-0.1,0.1-0.2 C32.8,63.5,32.9,63.1,33,62.7z"/><path class="st4" d="M40.2,75.6c6.9-0.1,16.7-1.8,22.4-4c-0.7-6.6-2.7-45.5-2.7-45.5s2.1,5.1,3.2,7.9c4.7-0.4,12.3-1.3,15.3-6.2 C75.5,21,73.3,13.2,71,8.1c0,0-10.4-3.8-18.6-6.4c0,0-0.9-0.3-1.3,0.4c-3,4.2-4.5,7.1-11.2,7.1l0,0c-6.4-0.1-8-2.9-10.9-7.1 c-0.5-0.7-1.4-0.4-1.4-0.4C19.5,4.2,9,8.1,9,8.1c-2.3,5.1-4.5,13-7.4,19.7c3,4.8,10.4,5.8,15.3,6.2c1.1-2.8,3.2-7.9,3.2-7.9 S18,65,17.4,71.6c5.8,2.2,15.5,4,22.4,4l0,0"/></g></svg> 