<?xml version="1.0" encoding="utf-8"?>
<svg version="1.1" id="BOUN_Renegades_Jersey" xmlns="http://www.w3.org/2000/svg" xmlns:xlink="http://www.w3.org/1999/xlink"
	 x="0px" y="0px" viewBox="0 0 80 77.1" style="enable-background:new 0 0 80 77.1;" xml:space="preserve">
<style type="text/css">
	.st0{clip-path:url(#Outline_2_);fill:url(#Background_1_);}
	.st1{clip-path:url(#Outline_2_);}
	.st2{clip-path:url(#Chest_Cut_1_);fill:url(#Color_1_);}
	.st3{fill-rule:evenodd;clip-rule:evenodd;fill:url(#Wing_14_);}
	.st4{fill-rule:evenodd;clip-rule:evenodd;fill:url(#Wing_15_);}
	.st5{fill-rule:evenodd;clip-rule:evenodd;fill:url(#Wing_16_);}
	.st6{fill-rule:evenodd;clip-rule:evenodd;fill:url(#Wing_17_);}
	.st7{fill-rule:evenodd;clip-rule:evenodd;fill:url(#Wing_18_);}
	.st8{fill-rule:evenodd;clip-rule:evenodd;fill:url(#Wing_19_);}
	.st9{fill-rule:evenodd;clip-rule:evenodd;fill:url(#Wing_20_);}
	.st10{fill-rule:evenodd;clip-rule:evenodd;fill:url(#Wing_21_);}
	.st11{fill-rule:evenodd;clip-rule:evenodd;fill:url(#Wing_22_);}
	.st12{fill-rule:evenodd;clip-rule:evenodd;fill:url(#Wing_23_);}
	.st13{fill-rule:evenodd;clip-rule:evenodd;fill:url(#Wing_24_);}
	.st14{fill-rule:evenodd;clip-rule:evenodd;fill:url(#Wing_25_);}
	.st15{fill-rule:evenodd;clip-rule:evenodd;fill:url(#Wing_26_);}
	.st16{fill-rule:evenodd;clip-rule:evenodd;fill:url(#Wing_27_);}
	.st17{fill:none;stroke:#000000;stroke-width:3;stroke-linecap:round;stroke-linejoin:round;}
</style>
<g id="Jersey_Design">
	<defs>
		<path id="Outline" d="M40.2,75.6c6.9-0.1,16.7-1.8,22.4-4c-0.7-6.6-2.7-45.5-2.7-45.5s2.1,5.1,3.2,7.9c4.7-0.4,12.3-1.3,15.3-6.2
			C75.5,21,73.3,13.2,71,8.1c0,0-10.4-3.8-18.6-6.4c0,0-0.9-0.3-1.3,0.4c-3,4.2-4.5,7.1-11.2,7.1l0,0c-6.4-0.1-8-2.9-10.9-7.1
			c-0.5-0.7-1.4-0.4-1.4-0.4C19.5,4.2,9,8.1,9,8.1c-2.3,5.1-4.5,13-7.4,19.7c3,4.8,10.4,5.8,15.3,6.2c1.1-2.8,3.2-7.9,3.2-7.9
			S18,65,17.4,71.6c5.8,2.2,15.5,4,22.4,4l0,0"/>
	</defs>
	<clipPath id="Outline_2_">
		<use xlink:href="#Outline"  style="overflow:visible;"/>
	</clipPath>
	
		<radialGradient id="Background_1_" cx="40" cy="38.55" r="39.2817" gradientTransform="matrix(-0.6463 0.7631 -1.7944 -1.5199 135.0258 66.6178)" gradientUnits="userSpaceOnUse">
		<stop  offset="0" style="stop-color:#C21724"/>
		<stop  offset="0.1251" style="stop-color:#A31820"/>
		<stop  offset="0.2869" style="stop-color:#821A1C"/>
		<stop  offset="0.4536" style="stop-color:#681B19"/>
		<stop  offset="0.6247" style="stop-color:#561B17"/>
		<stop  offset="0.803" style="stop-color:#4B1C15"/>
		<stop  offset="1" style="stop-color:#471C15"/>
	</radialGradient>
	<rect id="Background" class="st0" width="80" height="77.1"/>
	<g id="Chest" class="st1">
		<defs>
			<path id="Chest_Cut" d="M20,29.1l18.8,9.5c0.6,0.3,1.4,0.3,2,0L60,29.1c0.7-0.4,1.2-1.1,1.2-1.9V16.7c0-1.5-1.5-2.6-2.9-2.1
				l-17.6,5.9c-0.5,0.2-1,0.2-1.5,0l-17.5-5.9c-1.4-0.5-2.9,0.5-2.9,2.1v10.5C18.8,28,19.3,28.7,20,29.1z"/>
		</defs>
		<clipPath id="Chest_Cut_1_">
			<use xlink:href="#Chest_Cut"  style="overflow:visible;"/>
		</clipPath>
		
			<radialGradient id="Color_1_" cx="33.7101" cy="6.2556" r="18.5773" gradientTransform="matrix(3.7037 0 0 1.4187 -87.1179 16.9698)" gradientUnits="userSpaceOnUse">
			<stop  offset="9.693880e-02" style="stop-color:#EEEDEE"/>
			<stop  offset="0.2579" style="stop-color:#E5E3E4"/>
			<stop  offset="0.528" style="stop-color:#CCCACA"/>
			<stop  offset="0.6429" style="stop-color:#C0BDBD"/>
			<stop  offset="1" style="stop-color:#8A8685"/>
		</radialGradient>
		<rect id="Color" x="6.9" y="7.2" class="st2" width="66.9" height="66.9"/>
	</g>
	<g id="Left_Wings" class="st1">
		
			<linearGradient id="Wing_14_" gradientUnits="userSpaceOnUse" x1="17.7078" y1="37.6211" x2="25.0645" y2="37.6211" gradientTransform="matrix(0.9958 9.186281e-02 -9.186281e-02 0.9958 4.5592 -1.7411)">
			<stop  offset="5.618000e-03" style="stop-color:#E8EAEB"/>
			<stop  offset="0.2528" style="stop-color:#FFFDEA"/>
			<stop  offset="0.4229" style="stop-color:#F0ECDD"/>
			<stop  offset="0.5955" style="stop-color:#DDD6CC"/>
			<stop  offset="0.7865" style="stop-color:#F2F2F2"/>
			<stop  offset="1" style="stop-color:#DEDBC5"/>
		</linearGradient>
		<polygon id="Wing_6_" class="st3" points="19.2,31.8 25,39.8 25.6,43.5 19.6,36.1 		"/>
		
			<linearGradient id="Wing_15_" gradientUnits="userSpaceOnUse" x1="18.594" y1="44.3927" x2="26.5246" y2="44.3927" gradientTransform="matrix(0.9958 9.186281e-02 -9.186281e-02 0.9958 4.5592 -1.7411)">
			<stop  offset="5.618000e-03" style="stop-color:#E8EAEB"/>
			<stop  offset="0.2528" style="stop-color:#FFFDEA"/>
			<stop  offset="0.4229" style="stop-color:#F0ECDD"/>
			<stop  offset="0.5955" style="stop-color:#DDD6CC"/>
			<stop  offset="0.7865" style="stop-color:#F2F2F2"/>
			<stop  offset="1" style="stop-color:#DEDBC5"/>
		</linearGradient>
		<polygon id="Wing_5_" class="st4" points="19.5,38.2 25.7,46.8 26.3,50.8 20,42.8 		"/>
		
			<linearGradient id="Wing_16_" gradientUnits="userSpaceOnUse" x1="19.6943" y1="52.4623" x2="27.475" y2="52.4623" gradientTransform="matrix(0.9958 9.186281e-02 -9.186281e-02 0.9958 4.5592 -1.7411)">
			<stop  offset="5.618000e-03" style="stop-color:#E8EAEB"/>
			<stop  offset="0.2528" style="stop-color:#FFFDEA"/>
			<stop  offset="0.4229" style="stop-color:#F0ECDD"/>
			<stop  offset="0.5955" style="stop-color:#DDD6CC"/>
			<stop  offset="0.7865" style="stop-color:#F2F2F2"/>
			<stop  offset="1" style="stop-color:#DEDBC5"/>
		</linearGradient>
		<polygon id="Wing_4_" class="st5" points="20,45.4 26.1,55.4 26.5,59.9 20.1,50.5 		"/>
		
			<linearGradient id="Wing_17_" gradientUnits="userSpaceOnUse" x1="20.3365" y1="59.1091" x2="25.5251" y2="59.1091" gradientTransform="matrix(0.9958 9.186281e-02 -9.186281e-02 0.9958 4.5592 -1.7411)">
			<stop  offset="5.618000e-03" style="stop-color:#E8EAEB"/>
			<stop  offset="0.2528" style="stop-color:#FFFDEA"/>
			<stop  offset="0.4229" style="stop-color:#F0ECDD"/>
			<stop  offset="0.5955" style="stop-color:#DDD6CC"/>
			<stop  offset="0.7865" style="stop-color:#F2F2F2"/>
			<stop  offset="1" style="stop-color:#DEDBC5"/>
		</linearGradient>
		<polygon id="Wing_3_" class="st6" points="19.9,53.8 24,61.3 24.1,64.6 19.7,57.6 		"/>
		
			<linearGradient id="Wing_18_" gradientUnits="userSpaceOnUse" x1="20.6476" y1="64.332" x2="24.2547" y2="64.332" gradientTransform="matrix(0.9958 9.186281e-02 -9.186281e-02 0.9958 4.5592 -1.7411)">
			<stop  offset="5.618000e-03" style="stop-color:#E8EAEB"/>
			<stop  offset="0.2528" style="stop-color:#FFFDEA"/>
			<stop  offset="0.4229" style="stop-color:#F0ECDD"/>
			<stop  offset="0.5955" style="stop-color:#DDD6CC"/>
			<stop  offset="0.7865" style="stop-color:#F2F2F2"/>
			<stop  offset="1" style="stop-color:#DEDBC5"/>
		</linearGradient>
		<polygon id="Wing_2_" class="st7" points="19.5,60.6 22.4,65.8 22.5,68.1 19.5,63.2 		"/>
		
			<linearGradient id="Wing_19_" gradientUnits="userSpaceOnUse" x1="21.0123" y1="69.3841" x2="22.7754" y2="69.3841" gradientTransform="matrix(0.9958 9.186281e-02 -9.186281e-02 0.9958 4.5592 -1.7411)">
			<stop  offset="5.618000e-03" style="stop-color:#E8EAEB"/>
			<stop  offset="0.2528" style="stop-color:#FFFDEA"/>
			<stop  offset="0.4229" style="stop-color:#F0ECDD"/>
			<stop  offset="0.5955" style="stop-color:#DDD6CC"/>
			<stop  offset="0.7865" style="stop-color:#F2F2F2"/>
			<stop  offset="1" style="stop-color:#DEDBC5"/>
		</linearGradient>
		<polygon id="Wing_1_" class="st8" points="19.3,67.5 20.7,70.1 20.7,71.2 19.2,68.8 		"/>
		
			<linearGradient id="Wing_20_" gradientUnits="userSpaceOnUse" x1="16.6582" y1="30.4429" x2="21.5877" y2="30.4429" gradientTransform="matrix(0.9958 9.186281e-02 -9.186281e-02 0.9958 4.5592 -1.7411)">
			<stop  offset="5.618000e-03" style="stop-color:#E8EAEB"/>
			<stop  offset="0.2528" style="stop-color:#FFFDEA"/>
			<stop  offset="0.4229" style="stop-color:#F0ECDD"/>
			<stop  offset="0.5955" style="stop-color:#DDD6CC"/>
			<stop  offset="0.7865" style="stop-color:#F2F2F2"/>
			<stop  offset="1" style="stop-color:#DEDBC5"/>
		</linearGradient>
		<polygon id="Wing" class="st9" points="18.7,26.4 22.5,31.7 22.9,34.3 19,29.3 		"/>
	</g>
	<g id="Right_Wings" class="st1">
		
			<linearGradient id="Wing_21_" gradientUnits="userSpaceOnUse" x1="38.0484" y1="37.441" x2="45.4051" y2="37.441" gradientTransform="matrix(-0.9958 9.186281e-02 9.186281e-02 0.9958 96.1013 -1.7411)">
			<stop  offset="5.618000e-03" style="stop-color:#E8EAEB"/>
			<stop  offset="0.2528" style="stop-color:#FFFDEA"/>
			<stop  offset="0.4229" style="stop-color:#F0ECDD"/>
			<stop  offset="0.5955" style="stop-color:#DDD6CC"/>
			<stop  offset="0.7865" style="stop-color:#F2F2F2"/>
			<stop  offset="1" style="stop-color:#DEDBC5"/>
		</linearGradient>
		<polygon id="Wing_13_" class="st10" points="61.1,33.5 55.4,41.4 54.8,45.2 60.7,37.8 		"/>
		
			<linearGradient id="Wing_22_" gradientUnits="userSpaceOnUse" x1="38.9346" y1="44.2127" x2="46.8652" y2="44.2127" gradientTransform="matrix(-0.9958 9.186281e-02 9.186281e-02 0.9958 96.1013 -1.7411)">
			<stop  offset="5.618000e-03" style="stop-color:#E8EAEB"/>
			<stop  offset="0.2528" style="stop-color:#FFFDEA"/>
			<stop  offset="0.4229" style="stop-color:#F0ECDD"/>
			<stop  offset="0.5955" style="stop-color:#DDD6CC"/>
			<stop  offset="0.7865" style="stop-color:#F2F2F2"/>
			<stop  offset="1" style="stop-color:#DEDBC5"/>
		</linearGradient>
		<polygon id="Wing_12_" class="st11" points="60.8,39.9 54.7,48.5 54,52.5 60.4,44.5 		"/>
		
			<linearGradient id="Wing_23_" gradientUnits="userSpaceOnUse" x1="40.0349" y1="52.2822" x2="47.8156" y2="52.2822" gradientTransform="matrix(-0.9958 9.186281e-02 9.186281e-02 0.9958 96.1013 -1.7411)">
			<stop  offset="5.618000e-03" style="stop-color:#E8EAEB"/>
			<stop  offset="0.2528" style="stop-color:#FFFDEA"/>
			<stop  offset="0.4229" style="stop-color:#F0ECDD"/>
			<stop  offset="0.5955" style="stop-color:#DDD6CC"/>
			<stop  offset="0.7865" style="stop-color:#F2F2F2"/>
			<stop  offset="1" style="stop-color:#DEDBC5"/>
		</linearGradient>
		<polygon id="Wing_11_" class="st12" points="60.4,47.1 54.3,57 53.9,61.6 60.3,52.2 		"/>
		
			<linearGradient id="Wing_24_" gradientUnits="userSpaceOnUse" x1="40.6772" y1="58.929" x2="45.8657" y2="58.929" gradientTransform="matrix(-0.9958 9.186281e-02 9.186281e-02 0.9958 96.1013 -1.7411)">
			<stop  offset="5.618000e-03" style="stop-color:#E8EAEB"/>
			<stop  offset="0.2528" style="stop-color:#FFFDEA"/>
			<stop  offset="0.4229" style="stop-color:#F0ECDD"/>
			<stop  offset="0.5955" style="stop-color:#DDD6CC"/>
			<stop  offset="0.7865" style="stop-color:#F2F2F2"/>
			<stop  offset="1" style="stop-color:#DEDBC5"/>
		</linearGradient>
		<polygon id="Wing_10_" class="st13" points="60.5,55.5 56.4,63 56.3,66.3 60.6,59.3 		"/>
		
			<linearGradient id="Wing_25_" gradientUnits="userSpaceOnUse" x1="40.9882" y1="64.1519" x2="44.5953" y2="64.1519" gradientTransform="matrix(-0.9958 9.186281e-02 9.186281e-02 0.9958 96.1013 -1.7411)">
			<stop  offset="5.618000e-03" style="stop-color:#E8EAEB"/>
			<stop  offset="0.2528" style="stop-color:#FFFDEA"/>
			<stop  offset="0.4229" style="stop-color:#F0ECDD"/>
			<stop  offset="0.5955" style="stop-color:#DDD6CC"/>
			<stop  offset="0.7865" style="stop-color:#F2F2F2"/>
			<stop  offset="1" style="stop-color:#DEDBC5"/>
		</linearGradient>
		<polygon id="Wing_9_" class="st14" points="60.8,62.3 58,67.5 57.9,69.8 60.9,64.9 		"/>
		
			<linearGradient id="Wing_26_" gradientUnits="userSpaceOnUse" x1="41.3529" y1="69.2041" x2="43.116" y2="69.2041" gradientTransform="matrix(-0.9958 9.186281e-02 9.186281e-02 0.9958 96.1013 -1.7411)">
			<stop  offset="5.618000e-03" style="stop-color:#E8EAEB"/>
			<stop  offset="0.2528" style="stop-color:#FFFDEA"/>
			<stop  offset="0.4229" style="stop-color:#F0ECDD"/>
			<stop  offset="0.5955" style="stop-color:#DDD6CC"/>
			<stop  offset="0.7865" style="stop-color:#F2F2F2"/>
			<stop  offset="1" style="stop-color:#DEDBC5"/>
		</linearGradient>
		<polygon id="Wing_8_" class="st15" points="61.1,69.2 59.7,71.8 59.7,72.9 61.2,70.5 		"/>
		
			<linearGradient id="Wing_27_" gradientUnits="userSpaceOnUse" x1="36.9988" y1="30.2628" x2="41.9284" y2="30.2628" gradientTransform="matrix(-0.9958 9.186281e-02 9.186281e-02 0.9958 96.1013 -1.7411)">
			<stop  offset="5.618000e-03" style="stop-color:#E8EAEB"/>
			<stop  offset="0.2528" style="stop-color:#FFFDEA"/>
			<stop  offset="0.4229" style="stop-color:#F0ECDD"/>
			<stop  offset="0.5955" style="stop-color:#DDD6CC"/>
			<stop  offset="0.7865" style="stop-color:#F2F2F2"/>
			<stop  offset="1" style="stop-color:#DEDBC5"/>
		</linearGradient>
		<polygon id="Wing_7_" class="st16" points="61.7,28.1 57.8,33.4 57.5,35.9 61.4,31 		"/>
	</g>
	<path id="Gun" class="st1" d="M60.3,68.8C60,68,59,63.9,59,63.9c0,0-0.2-1.1-1-1l0,0c0,0-0.4-0.2-0.5-0.7c-0.1-0.5,0-1.4,0.1-1.6
		c0.1-0.2,0.3-1,0.1-1.4c0,0,0-0.1-0.1-0.1c-0.1,0-0.2,0-0.3,0.1l0,0l0,0c0,0,0.1,0.4,0,0.8c-0.1,0.4-0.3,0.6-0.6,0.8
		c-0.3,0.2-0.7,0.6-0.8,0.9c-0.1,0-0.5,0-0.9,0.1c-0.4,0.1-0.9,0.4-1.1,0.5l-0.2-0.2c0,0-0.2-0.4-0.5-0.4c-0.1,0-0.2,0-0.2,0
		c-0.2,0-0.5,0-0.6-0.2c0-0.1-0.1-0.3-0.2-0.5c-0.1-0.5-0.3-1.2-0.6-1.6l0-0.1l0,0c-1.3-1.8-2.7-2.7-4.6-2.8c-2-0.2-3.6-0.6-4.6-0.8
		c-0.9-0.2-1.4-0.3-1.5-0.2c-0.3,0.3-0.1,1,0.2,2.2c0.1,0.4,0.2,0.8,0.3,1.3c0.1,0.6,0.2,1.1,0.3,1.5c0.3,1.2,0.4,1.9,0.6,2
		c0.2,0.1,0.4,0,0.7-0.2c0.1-0.1,0.2-0.2,0.4-0.3l0,0c1.4-0.9,2.8-1,4.1-0.5l0,0l0.2,0.1c0.5,0.2,0.9,0.6,1.2,1
		c0.2,0.4,0.4,0.7,0.4,1c0.1,0.6-0.3,1-0.9,1.6l0,0c-0.7,0.6-0.6,1.5-0.3,2.5c0.3,1.2,1.1,1.7,1.7,1.7c0.4,0,0.7,0,1.1-0.1
		c0.4-0.1,0.7-0.1,0.9,0c0.4,0.1,0.6,0.5,0.6,0.5l0,0l0.1,0.1c0.2,0.6,0.3,1,0.4,1.2c0.1,0.1,0.2,0.2,0.4,0.2c0.1,0,0.1,0,0.2,0l0,0
		l0,0c0.1,0.1,0.4,0.7,0.5,0.9c0.1,0.2,0.4,0.2,0.4,0.2l0,0l0,0c0,0,1-0.1,1.7,0c0.8,0.2,0.9,0.3,1,0.3l0,0l0.3-0.1l0,0l0.3-0.1
		l0.6-0.2l0,0l0.1-0.1l2.1-0.6c0,0,0,0,0.1,0c0,0,0.1,0,0.1,0c0.1-0.1,0.1-0.2,0.1-0.5C60.6,70.3,60.5,69.7,60.3,68.8z M49.9,64.7
		c0,0,0.6,0.1,0.9,0.7c0,0,0,0,0,0c-0.2,0-1.2,0.1-1.8,0.3c-0.4,0.2-0.6,0.3-0.6,0.4c0,0,0,0.1,0.1,0.1c0,0,0.1,0,0.1,0
		c0.1,0,0.3-0.1,0.6-0.2c0.1,0,0.1-0.1,0.2-0.1c0.3-0.1,0.8-0.1,1.2-0.1c0.3,0.1,0.5,0.2,0.5,0.2c0,0.1,0.1,0.3,0.1,0.4l0.1,0.7
		c0,0,0,0.4-0.1,0.7c-0.1,0.3-0.4,0.7-1,0.9c-0.9,0.2-1.6-0.3-1.9-1.4c-0.4-1.5-0.2-1.9,0.3-2.2C49,64.7,49.8,64.7,49.9,64.7z"/>
</g>
<path id="Outline_1_" class="st17" d="M40.2,75.6c6.9-0.1,16.7-1.8,22.4-4c-0.7-6.6-2.7-45.5-2.7-45.5s2.1,5.1,3.2,7.9
	c4.7-0.4,12.3-1.3,15.3-6.2C75.5,21,73.3,13.2,71,8.1c0,0-10.4-3.8-18.6-6.4c0,0-0.9-0.3-1.3,0.4c-3,4.2-4.5,7.1-11.2,7.1l0,0
	c-6.4-0.1-8-2.9-10.9-7.1c-0.5-0.7-1.4-0.4-1.4-0.4C19.5,4.2,9,8.1,9,8.1c-2.3,5.1-4.5,13-7.4,19.7c3,4.8,10.4,5.8,15.3,6.2
	c1.1-2.8,3.2-7.9,3.2-7.9S18,65,17.4,71.6c5.8,2.2,15.5,4,22.4,4l0,0"/>
</svg>
