<?xml version="1.0" encoding="UTF-8" standalone="no"?>
<svg
   xmlns:dc="http://purl.org/dc/elements/1.1/"
   xmlns:cc="http://creativecommons.org/ns#"
   xmlns:rdf="http://www.w3.org/1999/02/22-rdf-syntax-ns#"
   xmlns:svg="http://www.w3.org/2000/svg"
   xmlns="http://www.w3.org/2000/svg"
   xml:space="preserve"
   style="enable-background:new 0 0 80 77.1;"
   viewBox="0 0 80 77.1"
   y="0px"
   x="0px"
   id="Layer_1"
   version="1.1"><metadata
     id="metadata4680"><rdf:RDF><cc:Work
         rdf:about=""><dc:format>image/svg+xml</dc:format><dc:type
           rdf:resource="http://purl.org/dc/dcmitype/StillImage" /><dc:title></dc:title></cc:Work></rdf:RDF></metadata><defs
     id="defs4678"><filter
       height="1.0182428"
       y="-0.0091214189"
       width="1.0350664"
       x="-0.017533217"
       id="filter4394"
       style="color-interpolation-filters:sRGB"><feGaussianBlur
         id="feGaussianBlur4396"
         stdDeviation="8.1008713" /></filter></defs><style
     id="style4672"
     type="text/css">
	.st0{fill:none;stroke:#000000;stroke-width:3;stroke-linecap:round;stroke-linejoin:round;}
</style><path
     style="fill:#6ddaff;stroke:none;stroke-width:3;stroke-linecap:round;stroke-linejoin:round;fill-opacity:1"
     id="path4674-9"
     d="m 40.199999,75.531696 c 6.900001,-0.1 16.700001,-1.8 22.400001,-4 -0.7,-6.6 -2.7,-45.5 -2.7,-45.5 0,0 2.1,5.1 3.2,7.9 4.7,-0.4 12.3,-1.3 15.3,-6.2 -2.9,-6.8 -5.1,-14.6 -7.4,-19.6999996 0,0 -10.4,-3.8 -18.6,-6.4 0,0 -0.9,-0.3 -1.3,0.4 -3,4.2 -4.5,7.1 -11.200001,7.1 l 0,0 c -6.4,-0.1 -8,-2.9 -10.9,-7.1 -0.5,-0.7 -1.4,-0.4 -1.4,-0.4 -8.099999,2.5 -18.5999993,6.4 -18.5999993,6.4 -2.3,5.0999996 -4.5,12.9999996 -7.4,19.6999996 3,4.8 10.4000003,5.8 15.3000003,6.2 1.1,-2.8 3.2,-7.9 3.2,-7.9 0,0 -2.1,38.9 -2.7,45.5 5.799999,2.2 15.499999,4 22.399999,4 l 0,0"
     class="st0" /><path
     id="path4674-9-4"
     d="M 51.900391 1.5703125 C 51.625391 1.5828125 51.299609 1.68125 51.099609 2.03125 C 49.965116 3.6195411 49.044372 5.0224037 47.976562 6.1523438 L 39.375 18.349609 C 39.375 18.349609 51.920155 23.269273 60.748047 41.84375 C 60.335493 34.235514 59.900391 26.03125 59.900391 26.03125 C 59.900391 26.03125 61.999609 31.131641 63.099609 33.931641 C 67.799609 33.531641 75.400391 32.632422 78.400391 27.732422 C 75.500391 20.932422 73.3 13.13125 71 8.03125 C 71 8.03125 60.600391 4.2328125 52.400391 1.6328125 C 52.400391 1.6328125 52.175391 1.5578125 51.900391 1.5703125 z "
     style="fill:#ffc1ee;fill-opacity:1;stroke:none;stroke-width:3;stroke-linecap:round;stroke-linejoin:round" /><g
     style="opacity:0.25;filter:url(#filter4394)"
     transform="matrix(0.36703956,-0.01873283,0.02531415,0.49598989,-719.61825,437.62975)"
     id="g4355" /><g
     style="opacity:0.5"
     transform="matrix(1.0345796,0,0,0.98767618,204.65461,257.96026)"
     id="g6415"><path
       style="opacity:1;fill:#ee666d;fill-opacity:1;stroke:none;stroke-width:20;stroke-linecap:butt;stroke-linejoin:round;stroke-miterlimit:4;stroke-dasharray:none;stroke-opacity:1"
       d="m -178.0625,-235.40039 c -0.076,0.32077 -0.084,0.65408 -0.11328,0.98242 l -0.0156,0.29492 c 0,0 3.70473,0.1005 5.4961,0.33594 0.96395,0.12682 1.89846,0.30282 2.78906,0.52539 0.90617,0.22689 1.7592,0.49438 2.55859,0.79492 1.70879,0.64722 3.17563,1.41337 4.42774,2.23438 1.41245,0.92192 2.61144,1.90769 3.64844,2.91015 1.16383,1.12179 2.1622,2.27517 3.04101,3.4375 0.963,1.2719 1.79701,2.565 2.54297,3.85938 0.79561,1.37963 1.49524,2.76531 2.12305,4.1582 0.6521,1.44632 1.22917,2.90103 1.75,4.35547 0.52719,1.47194 0.99799,2.94683 1.42187,4.42383 0.81822,2.8514 1.47069,5.7121 2,8.57422 0.45452,2.45662 0.8174,4.91673 1.10156,7.3789 0.18044,1.56277 0.3255,3.12922 0.43555,4.69727 0.73916,-0.14509 1.46457,-0.29589 2.17969,-0.45703 -0.10725,-1.44494 -0.23817,-2.88764 -0.4043,-4.32617 -0.28599,-2.47827 -0.65549,-4.95522 -1.11328,-7.42969 -0.53296,-2.88278 -1.18951,-5.76695 -2.01562,-8.64649 -0.42806,-1.49177 -0.90378,-2.98231 -1.4375,-4.47265 -0.52721,-1.47259 -1.11466,-2.9479 -1.77735,-4.41797 -0.63781,-1.41567 -1.34873,-2.83323 -2.16211,-4.24414 -0.76223,-1.32361 -1.62299,-2.64703 -2.61718,-3.96094 -0.90648,-1.20069 -1.94668,-2.40541 -3.16797,-3.58398 -1.08687,-1.05378 -2.36299,-2.09802 -3.88477,-3.09375 -1.3491,-0.889 -2.96484,-1.73263 -4.87305,-2.45899 -0.89501,-0.33695 -1.8614,-0.63639 -2.89062,-0.89453 -1.0124,-0.25322 -2.0744,-0.45812 -3.17774,-0.60351 -1.90836,-0.25117 -5.86523,-0.37305 -5.86523,-0.37305 z"
       id="path6097-5" /><path
       style="opacity:1;fill:#f5b166;fill-opacity:1;stroke:none;stroke-width:20;stroke-linecap:butt;stroke-linejoin:round;stroke-miterlimit:4;stroke-dasharray:none;stroke-opacity:1"
       d="m -177.27539,-234.15625 c -0.30463,-0.005 -0.61062,1.8e-4 -0.91602,0.002 -8.1e-4,0.015 -0.062,1.12755 -0.0664,1.20899 1.70895,-0.0144 3.41766,0.0851 5.07617,0.30273 0.8276,0.10864 1.63237,0.26237 2.4043,0.45508 0.78605,0.19638 1.53532,0.43197 2.24218,0.69727 1.51491,0.57019 2.83962,1.26697 4,2.02343 1.30784,0.8512 2.42904,1.77771 3.41993,2.73242 1.10997,1.06847 2.06823,2.17743 2.92187,3.30469 0.93433,1.23323 1.74914,2.48983 2.48047,3.75781 0.77954,1.35129 1.46508,2.71731 2.08398,4.08985 0.64264,1.42506 1.21333,2.85853 1.72852,4.29687 0.52139,1.45558 0.98604,2.91686 1.40625,4.38086 0.81127,2.82655 1.45822,5.66578 1.98437,8.50977 0.45165,2.44099 0.81509,4.88782 1.09766,7.33594 0.19265,1.66872 0.34597,3.33944 0.45703,5.01171 0.71738,-0.12251 1.42156,-0.25778 2.12696,-0.39648 -0.10998,-1.56726 -0.25326,-3.1314 -0.4336,-4.69336 -0.28424,-2.46285 -0.64886,-4.92544 -1.10351,-7.38281 -0.52947,-2.86298 -1.18146,-5.72368 -2,-8.57617 -0.42404,-1.47759 -0.89444,-2.95511 -1.42188,-4.42774 -0.52107,-1.45512 -1.09947,-2.90833 -1.75195,-4.35547 -0.62817,-1.3937 -1.32687,-2.78346 -2.12305,-4.16406 -0.7465,-1.29532 -1.58302,-2.58635 -2.54687,-3.85937 -0.87963,-1.16341 -1.87793,-2.31846 -3.04297,-3.44141 -1.03824,-1.00368 -2.23831,-1.98915 -3.65235,-2.91211 -1.25383,-0.82213 -2.72293,-1.59035 -4.43359,-2.23828 -0.80041,-0.30093 -1.65533,-0.56974 -2.5625,-0.79688 -0.89165,-0.22283 -1.82607,-0.40039 -2.79102,-0.52734 -1.49823,-0.1969 -3.03483,-0.31191 -4.58398,-0.33789 z"
       id="rect5893-9-0" /><path
       style="opacity:1;fill:#fef466;fill-opacity:1;stroke:none;stroke-width:20;stroke-linecap:butt;stroke-linejoin:round;stroke-miterlimit:4;stroke-dasharray:none;stroke-opacity:1"
       d="m -178.04102,-232.96875 c -0.0717,1.9e-4 -0.14325,0.001 -0.21484,0.002 -0.004,0.0833 -0.0621,1.10322 -0.0703,1.25391 1.5589,-0.0185 3.12565,0.064 4.65039,0.26367 0.68967,0.0903 1.36593,0.22037 2.01758,0.38281 0.66435,0.16547 1.30519,0.36818 1.91797,0.59766 1.31795,0.49199 2.49832,1.11636 3.56445,1.80664 1.20068,0.77881 2.24458,1.64153 3.1875,2.54688 1.05418,1.01327 1.97162,2.07742 2.79883,3.16796 0.90432,1.1928 1.6943,2.41609 2.41015,3.65625 0.76258,1.32141 1.43747,2.66079 2.04688,4.01172 0.6326,1.4025 1.19395,2.81905 1.70312,4.24024 0.51521,1.43814 0.97435,2.88193 1.39063,4.33203 0.80383,2.79998 1.44589,5.61679 1.96875,8.44141 0.44857,2.4242 0.80898,4.85215 1.08984,7.28515 0.19667,1.70394 0.35614,3.41221 0.4668,5.11719 0.003,0.0528 0.005,0.10541 0.008,0.1582 0.72337,-0.10539 1.44683,-0.22044 2.16797,-0.34375 -0.11106,-1.67325 -0.26624,-3.34403 -0.45898,-5.01367 -0.28262,-2.4485 -0.64594,-4.89454 -1.09766,-7.33594 -0.52624,-2.84451 -1.17293,-5.68261 -1.98438,-8.50976 -0.4203,-1.46432 -0.88471,-2.92685 -1.40625,-4.38282 -0.51532,-1.43872 -1.08761,-2.87135 -1.73046,-4.29687 -0.61909,-1.37298 -1.30413,-2.73996 -2.08399,-4.0918 -0.73163,-1.26851 -1.54762,-2.52591 -2.48242,-3.75976 -0.85408,-1.12785 -1.81122,-2.23753 -2.92188,-3.30664 -0.99151,-0.95541 -2.11505,-1.88258 -3.42382,-2.73438 -1.16128,-0.75705 -2.48594,-1.45479 -4.00196,-2.02539 -0.70739,-0.26551 -1.4575,-0.50074 -2.24414,-0.69726 -0.77249,-0.19286 -1.57807,-0.34832 -2.40625,-0.45704 -1.58942,-0.20855 -3.22381,-0.31282 -4.86133,-0.30859 z"
       id="path6095-4" /><path
       style="opacity:1;fill:#c6e8fa;fill-opacity:1;stroke:none;stroke-width:20;stroke-linecap:butt;stroke-linejoin:round;stroke-miterlimit:4;stroke-dasharray:none;stroke-opacity:1"
       d="m -177.4707,-230.55859 c -0.3077,-0.005 -0.61381,-0.003 -0.91992,0.002 -0.0114,0.21075 -0.0556,0.99269 -0.0703,1.26367 1.25524,-0.028 2.54308,0.045 3.80274,0.20899 0.41446,0.0536 0.8341,0.13614 1.24609,0.23828 0.42164,0.10382 0.84796,0.23636 1.27344,0.39453 0.92534,0.33611 1.81432,0.81616 2.69336,1.375 0.98749,0.63477 1.87658,1.38007 2.72461,2.1875 0.94356,0.90382 1.77968,1.87657 2.55468,2.89453 0.84499,1.11282 1.59201,2.26789 2.27735,3.45312 0.7291,1.26242 1.37605,2.55297 1.96679,3.86133 0.6128,1.35801 1.15892,2.73171 1.65626,4.11914 0.50304,1.40384 0.95473,2.81753 1.36328,4.24024 0.78919,2.7477 1.41755,5.51627 1.93359,8.30273 0.44252,2.39121 0.79868,4.792 1.07617,7.19531 0.19426,1.68371 0.352,3.36553 0.46094,5.04493 0.0126,0.19501 0.0203,0.3876 0.0312,0.58203 0.72391,-0.067 1.45236,-0.14667 2.19531,-0.23633 -0.008,-0.13117 -0.0129,-0.26106 -0.0215,-0.39258 -0.10986,-1.69314 -0.26734,-3.38942 -0.46289,-5.08398 -0.27931,-2.41926 -0.63822,-4.83136 -1.08399,-7.24024 -0.51964,-2.80689 -1.15609,-5.60522 -1.95312,-8.38086 -0.41268,-1.43733 -0.86743,-2.86696 -1.37696,-4.28906 -0.50364,-1.4054 -1.05833,-2.80004 -1.68164,-4.18164 -0.60065,-1.33092 -1.26299,-2.64788 -2.00976,-3.94141 -0.70143,-1.21412 -1.47157,-2.40585 -2.34766,-3.56054 -0.80229,-1.05581 -1.6787,-2.07654 -2.67969,-3.03711 -0.89705,-0.8579 -1.86776,-1.66238 -2.96484,-2.3711 -0.97464,-0.62587 -2.01322,-1.18025 -3.13867,-1.5957 -0.52053,-0.19435 -1.05476,-0.36489 -1.59961,-0.5 -0.53342,-0.13269 -1.08097,-0.23645 -1.63477,-0.30859 -1.08976,-0.14234 -2.20322,-0.22518 -3.31054,-0.24414 z"
       id="path6093-8" /><path
       style="opacity:1;fill:#c4dd9f;fill-opacity:1;stroke:none;stroke-width:20;stroke-linecap:butt;stroke-linejoin:round;stroke-miterlimit:4;stroke-dasharray:none;stroke-opacity:1"
       d="m -178.32422,-231.73047 c -0.008,0.14395 -0.0574,1.00262 -0.0684,1.20508 1.40857,-0.0227 2.83632,0.0564 4.22852,0.23828 0.55288,0.072 1.10031,0.17613 1.63281,0.30859 0.54383,0.13486 1.0779,0.30399 1.59766,0.49805 1.1234,0.41469 2.15933,0.96862 3.13281,1.59375 1.09544,0.70766 2.06477,1.51209 2.96094,2.36914 0.99982,0.95946 1.8761,1.97826 2.67773,3.0332 0.87529,1.15365 1.64473,2.34526 2.3457,3.5586 0.74626,1.29264 1.40748,2.60729 2.00782,3.9375 0.62297,1.38086 1.17821,2.77489 1.68164,4.17969 0.50931,1.42148 0.96442,2.85029 1.37695,4.28711 0.79674,2.77464 1.43167,5.5708 1.95117,8.37695 0.44565,2.40824 0.80475,4.82159 1.08399,7.24023 0.1955,1.69415 0.35305,3.38938 0.46289,5.08203 0.009,0.13213 0.0136,0.2627 0.0215,0.39454 0.71215,-0.0857 1.4209,-0.17431 2.14063,-0.2793 -0.003,-0.0528 -0.004,-0.10535 -0.008,-0.1582 -0.11068,-1.70532 -0.27009,-3.413 -0.46679,-5.11719 -0.28091,-2.43338 -0.6412,-4.8625 -1.08985,-7.28711 -0.52282,-2.82509 -1.16474,-5.64081 -1.96875,-8.44141 -0.41637,-1.4504 -0.87527,-2.8974 -1.39062,-4.33594 -0.50931,-1.42156 -1.07227,-2.83532 -1.70508,-4.23828 -0.60961,-1.35137 -1.28398,-2.69171 -2.04687,-4.01367 -0.71615,-1.24067 -1.5073,-2.46476 -2.41211,-3.6582 -0.82764,-1.0911 -1.74393,-2.15597 -2.79883,-3.16992 -0.94353,-0.90593 -1.98977,-1.7694 -3.19141,-2.54883 -1.06693,-0.6908 -2.24725,-1.31811 -3.56641,-1.81055 -0.6133,-0.22968 -1.25498,-0.43204 -1.91992,-0.59765 -0.65221,-0.16259 -1.32929,-0.29053 -2.01953,-0.38086 -1.52489,-0.19968 -3.09135,-0.28409 -4.65039,-0.26563 z"
       id="path6091-7" /></g><path
     id="path5005-83-7"
     d="m 26.724001,23.125464 c -0.0244,-0.0042 -0.06546,0.07771 -0.104311,0.23319 -0.03508,0.138776 -0.07959,0.401835 -0.0063,0.56251 l 0.21682,0.474548 0.02859,-0.188177 c 0.0063,-0.04032 -0.03351,-0.194869 -0.06954,-0.392734 -0.03613,-0.197854 -0.0575,-0.431693 -0.04912,-0.519561 0.0111,-0.111107 0.0021,-0.166634 -0.01634,-0.169776 z m -0.06546,1.096388 -0.06745,0.315004 c -0.07551,0.362498 -0.06504,0.484309 0.04503,0.71797 l 0.249559,0.529782 -0.0021,-0.615692 0.0063,-0.388649 -0.116595,-0.280234 -0.114542,-0.278181 z m -0.139091,0.96956 -0.10431,0.259781 c -0.0575,0.145458 -0.09886,0.397111 -0.07164,0.527729 0.02734,0.130618 0.263132,0.605261 0.364091,0.83047 l 0.200462,0.474559 c 0,0 0.03487,-0.445329 0.01435,-0.732287 -0.01288,-0.182815 -0.0063,-0.360938 -0.04503,-0.540014 -0.03341,-0.153522 -0.155962,-0.363368 -0.212725,-0.49296 -0.06305,-0.143719 -0.14505,-0.326807 -0.145228,-0.327278 z m -0.229095,0.97774 -0.108415,0.452053 c -0.04011,0.167367 0.01058,0.476265 0.04912,0.627965 0.07174,0.282507 0.624394,1.648854 0.654556,1.636392 0.0094,-0.0042 0.02712,-0.147092 0.04095,-0.319089 0.0509,-0.632678 -0.131257,-1.46695 -0.488876,-2.043452 -0.05592,-0.09007 -0.14727,-0.353869 -0.14727,-0.353869 z m -0.21682,1.284575 -0.114553,0.257728 c -0.06263,0.141929 -0.109557,0.409208 -0.10431,0.593196 l 0.0084,0.333415 0.255685,0.364091 c 0.139928,0.199561 0.360938,0.573768 0.490917,0.832512 l 0.235232,0.470463 0.0021,-0.529782 0,-0.529782 -0.159555,-0.480686 c -0.08818,-0.263718 -0.262105,-0.66705 -0.386597,-0.895925 l -0.227042,-0.41523 z m -0.235232,1.409339 c -0.0021,-2.41e-4 -0.0042,0.001 -0.0063,0.0021 -0.101063,0.04179 -0.104415,0.485378 0.01435,0.773194 0.03079,0.07436 0.05592,0.209102 0.114542,0.298645 0.07331,0.111673 0.317057,0.360007 0.317057,0.360007 0,0 0.130231,0.134681 0.198409,0.249548 0.08116,0.136807 0.137855,0.249182 0.216821,0.497054 0.09248,0.290226 0.164288,0.651614 0.175913,0.646378 0.01163,-0.0052 -0.0021,-0.389488 -0.02042,-0.60547 l -0.03477,-0.392734 -0.19023,-0.462274 c -0.214872,-0.520587 -0.68985,-1.34293 -0.785468,-1.36639 z m -0.175913,0.9082 c -0.02995,0.01236 -0.08462,0.173609 -0.12069,0.357953 l -0.06546,0.335468 0.347732,0.41523 c 0,0 0.248648,0.273081 0.335468,0.431599 0.07771,0.141677 0.206589,0.537961 0.206589,0.537961 0.01163,0.03645 0.01917,0.06881 0.0287,0.102321 -0.0063,-7.4e-5 -0.01215,2.1e-5 -0.01843,0 -0.04587,-1.99e-4 -0.123193,0.0073 -0.206599,0.01843 -0.02,-0.190921 -0.04964,-0.377674 -0.07362,-0.435694 -0.02723,-0.06598 -0.191037,-0.282234 -0.364101,-0.480685 l -0.315004,-0.360006 -0.03886,0.155449 c -0.05991,0.244951 0.02304,0.849918 0.163639,1.190476 l 0.01634,0.03687 c -0.06284,0.01278 -0.124774,0.02472 -0.19023,0.03885 l -0.01225,-0.05928 c -0.02849,-0.136389 -0.06912,-0.253445 -0.08996,-0.261823 -0.04336,-0.01801 -0.214768,0.279019 -0.245454,0.402955 -0.06587,0.01582 -0.133383,0.02849 -0.198419,0.04503 -1.234201,0.313025 -1.464479,0.341364 -1.80821,0.210683 -0.290299,-0.110374 -0.499809,0.0052 -0.617734,0.343648 -0.125361,0.359566 -0.114542,0.691568 0.03069,1.039111 0.119705,0.286507 0.111169,0.308217 -0.460232,1.558661 -0.319047,0.698166 -0.629275,1.320749 -0.69138,1.382748 -0.062,0.062 -0.224036,0.124848 -0.357953,0.139091 -0.149857,0.01592 -0.252627,0.08137 -0.270012,0.169776 -0.03048,0.154978 0.138713,0.631234 0.22501,0.632061 0.02891,2.51e-4 0.158434,0.08504 0.286371,0.188188 0.230163,0.185632 0.231797,0.201079 0.282276,1.405244 l 0.05111,1.215024 -0.317057,0.308867 c -0.284255,0.276076 -0.308259,0.33065 -0.225,0.513413 0.08933,0.195938 0.394305,0.325142 0.930696,0.394787 0.150003,0.01948 0.271573,0.152318 0.460232,0.501139 0.140829,0.260388 0.378114,0.655268 0.52774,0.877514 0.362499,0.538464 0.40129,0.726432 0.237274,1.141389 -0.135058,0.3417 -0.132723,0.352435 0.04912,0.501139 0.201185,0.164593 0.638879,0.158131 0.957286,-0.01225 0.149501,-0.08001 0.223922,-0.05278 0.490918,0.177966 l 0.312962,0.272044 -0.218874,0.259781 c -0.120585,0.143321 -0.220915,0.28347 -0.220915,0.310909 0,0.02744 -0.158518,0.28746 -0.353869,0.578879 -0.195362,0.291419 -0.45554,0.696836 -0.576827,0.90001 -1.451607,2.431421 -2.699841,4.328054 -3.291194,4.999178 -1.062078,1.205379 -1.323995,1.752473 -1.352062,2.82891 -0.01718,0.660191 -0.06409,0.817902 -0.306825,1.272301 -0.05215,0.88607 -0.10232,1.782027 -0.153407,2.638679 0.416539,-0.178971 0.796485,-0.458367 1.094335,-0.848881 l 0.284318,-0.37228 1.165928,1.194571 c 0.642041,0.65619 1.258319,1.318989 1.368431,1.474794 0.327478,0.463321 0.257361,0.797564 -0.282276,1.362295 -0.365829,0.382837 -0.446973,0.925731 -0.237274,1.566851 0.139698,0.427095 1.436663,2.758668 2.022988,3.636873 0.07017,0.105137 0.158748,0.242238 0.245464,0.376375 0.270054,0.03383 0.587142,0.08263 0.758867,0.08996 0.295556,0.01341 0.581089,0.0084 0.852976,-0.01843 -0.271981,0.02629 -0.557284,0.03383 -0.852976,0.02042 -0.171714,-0.0073 -0.488813,-0.05812 -0.758867,-0.09206 0.135457,0.209553 0.270211,0.422834 0.366133,0.578869 0.857846,1.394876 2.333279,2.100247 3.61643,1.73048 1.040263,-0.299776 1.489111,-0.678047 1.489111,-1.255921 1e-5,-0.594348 -0.326483,-1.086847 -1.468658,-2.215271 -0.02231,-0.02199 -0.04346,-0.04158 -0.06546,-0.06346 l 0,-0.0021 c -1.208532,-1.200153 -2.00375,-2.161367 -2.288906,-2.769591 -0.178511,-0.381381 -0.204023,-0.53216 -0.169776,-1.010468 0.04838,-0.675753 0.282234,-1.218218 0.928653,-2.162089 0.638554,-0.932392 0.820699,-1.53294 0.871388,-2.875954 0.02691,-0.713508 0.07163,-1.065639 0.134996,-1.065702 0.05205,-8.3e-5 0.431106,0.06116 0.844786,0.137049 0.642743,0.117967 0.792684,0.179024 1.024795,0.411145 0.226885,0.226906 0.272044,0.332599 0.272044,0.650462 0,0.530557 0.13621,0.778189 0.540014,0.973655 0.61875,0.299536 2.142578,0.203363 4.727124,-0.29455 0.556132,-0.107138 1.062057,-0.224456 1.523891,-0.353869 1.851348,-0.518765 2.957663,-1.220282 3.397557,-2.149805 0.290131,-0.612989 0.408401,-1.541946 0.253643,-1.986176 -0.167755,-0.481491 -0.528452,-0.720106 -1.073881,-0.715917 -0.481251,0.0042 -1.106232,0.197802 -1.867539,0.580911 -0.131917,0.0664 -0.262524,0.12866 -0.390681,0.19023 l 0,0.0021 c -2.17339,1.044211 -3.795758,1.395703 -4.498039,0.967518 -0.316062,-0.192712 -0.307443,-0.130943 -0.149312,-0.877514 0.421597,-1.990365 -0.238835,-3.625542 -1.824579,-4.510303 -0.623201,-0.347732 -1.791255,-0.695799 -2.579362,-0.769109 l -0.582963,-0.0532 0.396818,-0.343647 c 0.391592,-0.338526 1.105478,-0.8701 1.918668,-1.429793 0.414391,-0.285261 0.42498,-0.287596 0.940927,-0.204546 1.085841,0.174877 1.822464,-0.08975 3.745289,-1.347978 0.555106,-0.363221 1.031916,-0.660694 1.059565,-0.660694 0.06682,0 0.261267,0.678645 0.656609,2.282769 0.04441,0.180092 0.08766,0.345972 0.130911,0.505234 0.512188,1.885269 0.981657,2.359283 2.241851,2.454587 0.753358,0.05697 1.734669,-0.159628 2.020946,-0.445915 0.358184,-0.358174 0.172782,-1.408166 -0.402966,-2.272547 -0.0797,-0.119695 -0.146663,-0.241097 -0.19023,-0.335458 -0.02838,-0.06148 -0.04912,-0.114165 -0.04912,-0.139091 0,-0.218936 -0.931219,-2.434227 -1.611853,-3.835293 -0.730265,-1.503186 -0.917479,-1.739874 -1.50548,-1.900256 -0.338495,-0.09237 -1.520687,-0.05655 -2.106845,0.06336 l -0.249559,0.05111 0.208642,-0.229095 c 0.114908,-0.125873 0.461802,-0.453131 0.771151,-0.728191 l 0.56251,-0.499097 0.775236,0.582964 c 0.409061,0.307463 0.91241,0.743356 1.149569,0.996151 0.01047,0.01089 0.02126,0.0243 0.03069,0.03477 0.222696,0.246386 0.512429,0.566972 0.644325,0.713875 0.723583,0.805953 2.722547,0.458556 3.542784,-0.615691 0.322796,-0.422729 0.371694,-0.726108 0.173872,-1.108652 -0.170447,-0.329613 -0.770921,-0.83535 -1.343883,-1.133199 -0.09352,-0.04859 -0.229912,-0.127225 -0.378418,-0.214779 -0.272557,-0.160717 -0.599417,-0.36343 -0.87343,-0.544098 -0.423314,-0.279114 -1.470553,-0.861439 -2.32776,-1.294797 -1.508559,-0.762626 -1.578235,-0.78751 -2.123224,-0.78751 -0.868707,0 -1.130152,0.176667 -2.485262,1.671161 l -1.161843,1.28048 -0.454095,-0.169776 c -0.250271,-0.09363 -0.6471,-0.196524 -0.881609,-0.229095 -0.316984,-0.04409 -0.384031,-0.0754 -0.25977,-0.120689 0.549115,-0.199719 0.718232,-0.33306 0.693421,-0.546141 -0.02283,-0.196252 -0.05666,-0.214978 -0.400923,-0.206599 -0.20684,0.0052 -0.570679,0.0466 -0.810017,0.09206 l -0.435683,0.08179 c -0.161052,-0.262472 -0.192523,-0.278443 -0.315004,-0.50115 -0.04629,0.08043 -0.147458,0.339972 -0.192282,0.46638 -0.114124,0.321665 -0.231169,0.285135 -0.392734,-0.118648 l -0.139091,-0.345679 -0.153407,0.188177 c -0.0842,0.103996 -0.151365,0.275553 -0.151365,0.38046 0,0.348496 -0.215815,0.297535 -0.407061,-0.09614 -0.200127,-0.411648 -0.342391,-0.413596 -0.351816,-0.0042 -0.0031,0.146683 -0.03309,0.333342 -0.06546,0.41524 -0.06703,0.169734 -0.516471,0.490383 -0.634103,0.452052 -0.04294,-0.01403 -0.202012,-0.248637 -0.353869,-0.521603 -0.151878,-0.272966 -0.275249,-0.521488 -0.276139,-0.552278 -0.0021,-0.112741 1.191523,-0.325142 1.859349,-0.329331 l 1.544345,0.04503 c 0.670894,0.124763 2.047631,0.228874 2.507769,0.190229 1.198613,-0.100854 1.775482,-0.520042 1.775482,-1.292744 0,-0.320921 -0.04493,-0.419282 -0.317047,-0.691379 -0.23918,-0.23918 -0.410538,-0.33065 -0.701611,-0.374322 -0.211982,-0.03215 -0.462326,-0.03393 -0.556373,-0.0042 -0.150894,0.04786 -0.165242,0.101377 -0.122722,0.460242 0.04231,0.357398 0.02273,0.43339 -0.161596,0.617734 -0.37736,0.377328 -0.925376,0.472307 -2.773686,0.480685 -0.922464,0.0042 -2.005342,0.03268 -2.407543,0.06336 -0.724987,0.0554 -0.732287,0.05341 -0.732287,-0.139091 0,-0.269153 0.403082,-0.770324 0.728202,-0.906157 0.459761,-0.192105 0.564343,-0.150402 0.781373,0.312962 0.214622,0.458231 0.221659,0.454691 0.364101,-0.192272 0.06682,-0.303558 0.239474,-0.22676 0.427504,0.190229 0.16144,0.357964 0.311276,0.338474 0.409093,-0.05111 0.05498,-0.21902 0.382512,-0.299714 0.382512,-0.09405 0,0.06189 0.06221,0.236405 0.137049,0.386597 l 0.134996,0.274097 0.233189,-0.376376 c 0.241212,-0.38755 0.319413,-0.425514 1.041154,-0.523645 0.475082,-0.06462 1.072236,-0.375579 1.24571,-0.648419 0.06441,-0.101273 0.161146,-0.401762 0.214767,-0.666831 0.08556,-0.423179 0.07865,-0.520263 -0.05519,-0.793647 -0.225094,-0.459572 -0.432436,-0.530003 -1.366389,-0.468422 -0.774073,0.05111 -0.810949,0.04493 -1.313208,-0.208641 -0.284099,-0.143416 -0.641329,-0.371736 -0.795689,-0.507276 -0.241055,-0.211658 -0.578031,-0.368783 -0.932749,-0.447958 -0.02566,-0.172352 -0.05687,-0.366038 -0.09813,-0.486833 -0.181244,-0.530473 -0.41724,-0.884573 -0.738413,-1.339788 -0.171316,-0.238604 -0.336191,-0.423503 -0.366143,-0.411145 z m 0.975697,3.031413 c 0.152276,0 0.278904,0.04985 0.366144,0.137049 -0.08734,-0.08734 -0.213868,-0.137049 -0.366144,-0.137049 z m 4.105295,0.906147 c 0.08912,-0.001 0.08054,0.02734 0.0084,0.114553 -0.130607,0.157376 -0.452806,0.180385 -0.402955,0.02859 0.01885,-0.05739 0.140305,-0.117558 0.272044,-0.132953 0.05257,-0.0063 0.09321,-0.0094 0.122732,-0.01047 z M 19.863431,34.03202 c -0.03487,0.636837 -0.07488,1.353854 -0.116595,2.112982 0.05551,-0.0532 0.07383,-0.05456 0.135007,-0.120679 0.451193,-0.512576 0.620383,-1.284125 -0.01843,-1.992303 z m -0.41524,7.496715 c -0.236845,4.251224 -0.345051,6.105975 -0.619776,10.853364 1.884714,-2.880132 2.869094,-4.484843 3.141871,-5.218041 0.258367,-0.694584 0.278014,-1.742094 0.04702,-2.425954 C 21.714549,43.841697 21.459722,43.458535 20.558874,42.559656 20.20622,42.207787 19.855776,41.890385 19.44817,41.528735 Z M 36.720304,57.56537 c -0.05341,0.05393 -0.112982,0.100435 -0.184093,0.14727 -0.01917,0.01267 -0.03467,0.02503 -0.04912,0.03885 0.01445,-0.01382 0.02995,-0.02828 0.04912,-0.04095 0.07111,-0.04681 0.130681,-0.09132 0.184093,-0.145227 z"
     style="display:inline;opacity:1;fill:#36c2f1;fill-opacity:1" /><path
     id="path4674"
     d="M40.2,75.6c6.9-0.1,16.7-1.8,22.4-4c-0.7-6.6-2.7-45.5-2.7-45.5s2.1,5.1,3.2,7.9c4.7-0.4,12.3-1.3,15.3-6.2  C75.5,21,73.3,13.2,71,8.1c0,0-10.4-3.8-18.6-6.4c0,0-0.9-0.3-1.3,0.4c-3,4.2-4.5,7.1-11.2,7.1l0,0c-6.4-0.1-8-2.9-10.9-7.1  c-0.5-0.7-1.4-0.4-1.4-0.4C19.5,4.2,9,8.1,9,8.1c-2.3,5.1-4.5,13-7.4,19.7c3,4.8,10.4,5.8,15.3,6.2c1.1-2.8,3.2-7.9,3.2-7.9  S18,65,17.4,71.6c5.8,2.2,15.5,4,22.4,4l0,0"
     class="st0" /></svg>