<?xml version="1.0" encoding="UTF-8" standalone="no"?>
<svg
   xmlns:dc="http://purl.org/dc/elements/1.1/"
   xmlns:cc="http://creativecommons.org/ns#"
   xmlns:rdf="http://www.w3.org/1999/02/22-rdf-syntax-ns#"
   xmlns:svg="http://www.w3.org/2000/svg"
   xmlns="http://www.w3.org/2000/svg"
   xml:space="preserve"
   style="enable-background:new 0 0 80 77.1;"
   viewBox="0 0 80 77.1"
   y="0px"
   x="0px"
   id="Layer_1"
   version="1.1"><metadata
     id="metadata4680"><rdf:RDF><cc:Work
         rdf:about=""><dc:format>image/svg+xml</dc:format><dc:type
           rdf:resource="http://purl.org/dc/dcmitype/StillImage" /><dc:title></dc:title></cc:Work></rdf:RDF></metadata><defs
     id="defs4678"><filter
       height="1.0182428"
       y="-0.0091214189"
       width="1.0350664"
       x="-0.017533217"
       id="filter4394"
       style="color-interpolation-filters:sRGB"><feGaussianBlur
         id="feGaussianBlur4396"
         stdDeviation="8.1008713" /></filter></defs><style
     id="style4672"
     type="text/css">
	.st0{fill:none;stroke:#000000;stroke-width:3;stroke-linecap:round;stroke-linejoin:round;}
</style><path
     style="fill:#ffc1ee;stroke:none;stroke-width:3;stroke-linecap:round;stroke-linejoin:round;fill-opacity:1"
     id="path4674-9"
     d="m 40.199999,75.531696 c 6.900001,-0.1 16.700001,-1.8 22.400001,-4 -0.7,-6.6 -2.7,-45.5 -2.7,-45.5 0,0 2.1,5.1 3.2,7.9 4.7,-0.4 12.3,-1.3 15.3,-6.2 -2.9,-6.8 -5.1,-14.6 -7.4,-19.6999996 0,0 -10.4,-3.8 -18.6,-6.4 0,0 -0.9,-0.3 -1.3,0.4 -3,4.2 -4.5,7.1 -11.200001,7.1 l 0,0 c -6.4,-0.1 -8,-2.9 -10.9,-7.1 -0.5,-0.7 -1.4,-0.4 -1.4,-0.4 -8.099999,2.5 -18.5999993,6.4 -18.5999993,6.4 -2.3,5.0999996 -4.5,12.9999996 -7.4,19.6999996 3,4.8 10.4000003,5.8 15.3000003,6.2 1.1,-2.8 3.2,-7.9 3.2,-7.9 0,0 -2.1,38.9 -2.7,45.5 5.799999,2.2 15.499999,4 22.399999,4 l 0,0"
     class="st0" /><g
     style="opacity:0.25;filter:url(#filter4394)"
     transform="matrix(0.36703956,-0.01873283,0.02531415,0.49598989,-719.61825,437.62975)"
     id="g4355" /><g
     style="opacity:0.5"
     transform="matrix(1.0345796,0,0,0.98767618,204.65461,257.96026)"
     id="g6415"><path
       style="opacity:1;fill:#ee666d;fill-opacity:1;stroke:none;stroke-width:20;stroke-linecap:butt;stroke-linejoin:round;stroke-miterlimit:4;stroke-dasharray:none;stroke-opacity:1"
       d="m -178.0625,-235.40039 c -0.076,0.32077 -0.084,0.65408 -0.11328,0.98242 l -0.0156,0.29492 c 0,0 3.70473,0.1005 5.4961,0.33594 0.96395,0.12682 1.89846,0.30282 2.78906,0.52539 0.90617,0.22689 1.7592,0.49438 2.55859,0.79492 1.70879,0.64722 3.17563,1.41337 4.42774,2.23438 1.41245,0.92192 2.61144,1.90769 3.64844,2.91015 1.16383,1.12179 2.1622,2.27517 3.04101,3.4375 0.963,1.2719 1.79701,2.565 2.54297,3.85938 0.79561,1.37963 1.49524,2.76531 2.12305,4.1582 0.6521,1.44632 1.22917,2.90103 1.75,4.35547 0.52719,1.47194 0.99799,2.94683 1.42187,4.42383 0.81822,2.8514 1.47069,5.7121 2,8.57422 0.45452,2.45662 0.8174,4.91673 1.10156,7.3789 0.18044,1.56277 0.3255,3.12922 0.43555,4.69727 0.73916,-0.14509 1.46457,-0.29589 2.17969,-0.45703 -0.10725,-1.44494 -0.23817,-2.88764 -0.4043,-4.32617 -0.28599,-2.47827 -0.65549,-4.95522 -1.11328,-7.42969 -0.53296,-2.88278 -1.18951,-5.76695 -2.01562,-8.64649 -0.42806,-1.49177 -0.90378,-2.98231 -1.4375,-4.47265 -0.52721,-1.47259 -1.11466,-2.9479 -1.77735,-4.41797 -0.63781,-1.41567 -1.34873,-2.83323 -2.16211,-4.24414 -0.76223,-1.32361 -1.62299,-2.64703 -2.61718,-3.96094 -0.90648,-1.20069 -1.94668,-2.40541 -3.16797,-3.58398 -1.08687,-1.05378 -2.36299,-2.09802 -3.88477,-3.09375 -1.3491,-0.889 -2.96484,-1.73263 -4.87305,-2.45899 -0.89501,-0.33695 -1.8614,-0.63639 -2.89062,-0.89453 -1.0124,-0.25322 -2.0744,-0.45812 -3.17774,-0.60351 -1.90836,-0.25117 -5.86523,-0.37305 -5.86523,-0.37305 z"
       id="path6097-5" /><path
       style="opacity:1;fill:#f5b166;fill-opacity:1;stroke:none;stroke-width:20;stroke-linecap:butt;stroke-linejoin:round;stroke-miterlimit:4;stroke-dasharray:none;stroke-opacity:1"
       d="m -177.27539,-234.15625 c -0.30463,-0.005 -0.61062,1.8e-4 -0.91602,0.002 -8.1e-4,0.015 -0.062,1.12755 -0.0664,1.20899 1.70895,-0.0144 3.41766,0.0851 5.07617,0.30273 0.8276,0.10864 1.63237,0.26237 2.4043,0.45508 0.78605,0.19638 1.53532,0.43197 2.24218,0.69727 1.51491,0.57019 2.83962,1.26697 4,2.02343 1.30784,0.8512 2.42904,1.77771 3.41993,2.73242 1.10997,1.06847 2.06823,2.17743 2.92187,3.30469 0.93433,1.23323 1.74914,2.48983 2.48047,3.75781 0.77954,1.35129 1.46508,2.71731 2.08398,4.08985 0.64264,1.42506 1.21333,2.85853 1.72852,4.29687 0.52139,1.45558 0.98604,2.91686 1.40625,4.38086 0.81127,2.82655 1.45822,5.66578 1.98437,8.50977 0.45165,2.44099 0.81509,4.88782 1.09766,7.33594 0.19265,1.66872 0.34597,3.33944 0.45703,5.01171 0.71738,-0.12251 1.42156,-0.25778 2.12696,-0.39648 -0.10998,-1.56726 -0.25326,-3.1314 -0.4336,-4.69336 -0.28424,-2.46285 -0.64886,-4.92544 -1.10351,-7.38281 -0.52947,-2.86298 -1.18146,-5.72368 -2,-8.57617 -0.42404,-1.47759 -0.89444,-2.95511 -1.42188,-4.42774 -0.52107,-1.45512 -1.09947,-2.90833 -1.75195,-4.35547 -0.62817,-1.3937 -1.32687,-2.78346 -2.12305,-4.16406 -0.7465,-1.29532 -1.58302,-2.58635 -2.54687,-3.85937 -0.87963,-1.16341 -1.87793,-2.31846 -3.04297,-3.44141 -1.03824,-1.00368 -2.23831,-1.98915 -3.65235,-2.91211 -1.25383,-0.82213 -2.72293,-1.59035 -4.43359,-2.23828 -0.80041,-0.30093 -1.65533,-0.56974 -2.5625,-0.79688 -0.89165,-0.22283 -1.82607,-0.40039 -2.79102,-0.52734 -1.49823,-0.1969 -3.03483,-0.31191 -4.58398,-0.33789 z"
       id="rect5893-9-0" /><path
       style="opacity:1;fill:#fef466;fill-opacity:1;stroke:none;stroke-width:20;stroke-linecap:butt;stroke-linejoin:round;stroke-miterlimit:4;stroke-dasharray:none;stroke-opacity:1"
       d="m -178.04102,-232.96875 c -0.0717,1.9e-4 -0.14325,0.001 -0.21484,0.002 -0.004,0.0833 -0.0621,1.10322 -0.0703,1.25391 1.5589,-0.0185 3.12565,0.064 4.65039,0.26367 0.68967,0.0903 1.36593,0.22037 2.01758,0.38281 0.66435,0.16547 1.30519,0.36818 1.91797,0.59766 1.31795,0.49199 2.49832,1.11636 3.56445,1.80664 1.20068,0.77881 2.24458,1.64153 3.1875,2.54688 1.05418,1.01327 1.97162,2.07742 2.79883,3.16796 0.90432,1.1928 1.6943,2.41609 2.41015,3.65625 0.76258,1.32141 1.43747,2.66079 2.04688,4.01172 0.6326,1.4025 1.19395,2.81905 1.70312,4.24024 0.51521,1.43814 0.97435,2.88193 1.39063,4.33203 0.80383,2.79998 1.44589,5.61679 1.96875,8.44141 0.44857,2.4242 0.80898,4.85215 1.08984,7.28515 0.19667,1.70394 0.35614,3.41221 0.4668,5.11719 0.003,0.0528 0.005,0.10541 0.008,0.1582 0.72337,-0.10539 1.44683,-0.22044 2.16797,-0.34375 -0.11106,-1.67325 -0.26624,-3.34403 -0.45898,-5.01367 -0.28262,-2.4485 -0.64594,-4.89454 -1.09766,-7.33594 -0.52624,-2.84451 -1.17293,-5.68261 -1.98438,-8.50976 -0.4203,-1.46432 -0.88471,-2.92685 -1.40625,-4.38282 -0.51532,-1.43872 -1.08761,-2.87135 -1.73046,-4.29687 -0.61909,-1.37298 -1.30413,-2.73996 -2.08399,-4.0918 -0.73163,-1.26851 -1.54762,-2.52591 -2.48242,-3.75976 -0.85408,-1.12785 -1.81122,-2.23753 -2.92188,-3.30664 -0.99151,-0.95541 -2.11505,-1.88258 -3.42382,-2.73438 -1.16128,-0.75705 -2.48594,-1.45479 -4.00196,-2.02539 -0.70739,-0.26551 -1.4575,-0.50074 -2.24414,-0.69726 -0.77249,-0.19286 -1.57807,-0.34832 -2.40625,-0.45704 -1.58942,-0.20855 -3.22381,-0.31282 -4.86133,-0.30859 z"
       id="path6095-4" /><path
       style="opacity:1;fill:#c6e8fa;fill-opacity:1;stroke:none;stroke-width:20;stroke-linecap:butt;stroke-linejoin:round;stroke-miterlimit:4;stroke-dasharray:none;stroke-opacity:1"
       d="m -177.4707,-230.55859 c -0.3077,-0.005 -0.61381,-0.003 -0.91992,0.002 -0.0114,0.21075 -0.0556,0.99269 -0.0703,1.26367 1.25524,-0.028 2.54308,0.045 3.80274,0.20899 0.41446,0.0536 0.8341,0.13614 1.24609,0.23828 0.42164,0.10382 0.84796,0.23636 1.27344,0.39453 0.92534,0.33611 1.81432,0.81616 2.69336,1.375 0.98749,0.63477 1.87658,1.38007 2.72461,2.1875 0.94356,0.90382 1.77968,1.87657 2.55468,2.89453 0.84499,1.11282 1.59201,2.26789 2.27735,3.45312 0.7291,1.26242 1.37605,2.55297 1.96679,3.86133 0.6128,1.35801 1.15892,2.73171 1.65626,4.11914 0.50304,1.40384 0.95473,2.81753 1.36328,4.24024 0.78919,2.7477 1.41755,5.51627 1.93359,8.30273 0.44252,2.39121 0.79868,4.792 1.07617,7.19531 0.19426,1.68371 0.352,3.36553 0.46094,5.04493 0.0126,0.19501 0.0203,0.3876 0.0312,0.58203 0.72391,-0.067 1.45236,-0.14667 2.19531,-0.23633 -0.008,-0.13117 -0.0129,-0.26106 -0.0215,-0.39258 -0.10986,-1.69314 -0.26734,-3.38942 -0.46289,-5.08398 -0.27931,-2.41926 -0.63822,-4.83136 -1.08399,-7.24024 -0.51964,-2.80689 -1.15609,-5.60522 -1.95312,-8.38086 -0.41268,-1.43733 -0.86743,-2.86696 -1.37696,-4.28906 -0.50364,-1.4054 -1.05833,-2.80004 -1.68164,-4.18164 -0.60065,-1.33092 -1.26299,-2.64788 -2.00976,-3.94141 -0.70143,-1.21412 -1.47157,-2.40585 -2.34766,-3.56054 -0.80229,-1.05581 -1.6787,-2.07654 -2.67969,-3.03711 -0.89705,-0.8579 -1.86776,-1.66238 -2.96484,-2.3711 -0.97464,-0.62587 -2.01322,-1.18025 -3.13867,-1.5957 -0.52053,-0.19435 -1.05476,-0.36489 -1.59961,-0.5 -0.53342,-0.13269 -1.08097,-0.23645 -1.63477,-0.30859 -1.08976,-0.14234 -2.20322,-0.22518 -3.31054,-0.24414 z"
       id="path6093-8" /><path
       style="opacity:1;fill:#c4dd9f;fill-opacity:1;stroke:none;stroke-width:20;stroke-linecap:butt;stroke-linejoin:round;stroke-miterlimit:4;stroke-dasharray:none;stroke-opacity:1"
       d="m -178.32422,-231.73047 c -0.008,0.14395 -0.0574,1.00262 -0.0684,1.20508 1.40857,-0.0227 2.83632,0.0564 4.22852,0.23828 0.55288,0.072 1.10031,0.17613 1.63281,0.30859 0.54383,0.13486 1.0779,0.30399 1.59766,0.49805 1.1234,0.41469 2.15933,0.96862 3.13281,1.59375 1.09544,0.70766 2.06477,1.51209 2.96094,2.36914 0.99982,0.95946 1.8761,1.97826 2.67773,3.0332 0.87529,1.15365 1.64473,2.34526 2.3457,3.5586 0.74626,1.29264 1.40748,2.60729 2.00782,3.9375 0.62297,1.38086 1.17821,2.77489 1.68164,4.17969 0.50931,1.42148 0.96442,2.85029 1.37695,4.28711 0.79674,2.77464 1.43167,5.5708 1.95117,8.37695 0.44565,2.40824 0.80475,4.82159 1.08399,7.24023 0.1955,1.69415 0.35305,3.38938 0.46289,5.08203 0.009,0.13213 0.0136,0.2627 0.0215,0.39454 0.71215,-0.0857 1.4209,-0.17431 2.14063,-0.2793 -0.003,-0.0528 -0.004,-0.10535 -0.008,-0.1582 -0.11068,-1.70532 -0.27009,-3.413 -0.46679,-5.11719 -0.28091,-2.43338 -0.6412,-4.8625 -1.08985,-7.28711 -0.52282,-2.82509 -1.16474,-5.64081 -1.96875,-8.44141 -0.41637,-1.4504 -0.87527,-2.8974 -1.39062,-4.33594 -0.50931,-1.42156 -1.07227,-2.83532 -1.70508,-4.23828 -0.60961,-1.35137 -1.28398,-2.69171 -2.04687,-4.01367 -0.71615,-1.24067 -1.5073,-2.46476 -2.41211,-3.6582 -0.82764,-1.0911 -1.74393,-2.15597 -2.79883,-3.16992 -0.94353,-0.90593 -1.98977,-1.7694 -3.19141,-2.54883 -1.06693,-0.6908 -2.24725,-1.31811 -3.56641,-1.81055 -0.6133,-0.22968 -1.25498,-0.43204 -1.91992,-0.59765 -0.65221,-0.16259 -1.32929,-0.29053 -2.01953,-0.38086 -1.52489,-0.19968 -3.09135,-0.28409 -4.65039,-0.26563 z"
       id="path6091-7" /></g><path
     id="path4742"
     d="m 36.795307,32.025624 c -0.02732,0.0022 -0.09053,0.06117 -0.17383,0.173829 -0.08366,0.113156 -0.2228,0.336125 -0.2168,0.509765 l 0.01953,0.513672 0.09766,-0.160156 c 0.0208,-0.03429 0.04053,-0.189371 0.08203,-0.382813 0.04149,-0.193441 0.10939,-0.415647 0.15039,-0.492187 0.0592,-0.1107 0.06832,-0.16431 0.04102,-0.16211 z m -0.46289,0.972657 -0.17774,0.263672 c -0.20477,0.301285 -0.24287,0.41419 -0.23047,0.667972 l 0.0293,0.57617 0.22852,-0.56055 0.15039,-0.351561 0,-0.296875 0,-0.298828 z m -0.49024,0.830078 -0.1914,0.199216 c -0.10687,0.11071 -0.24143,0.32215 -0.26563,0.45117 -0.0242,0.12902 0.01253,0.64992 0.01953,0.89258 l 0.0059,0.50781 c 0,0 0.19781,-0.39165 0.28711,-0.66015 0.05693,-0.17108 0.13041,-0.33229 0.16211,-0.50977 0.0271,-0.15215 -0.0068,-0.39014 -0.0098,-0.52929 -0.003,-0.15452 -0.0078,-0.351566 -0.0078,-0.351566 z m -0.57422,0.804686 -0.26953,0.37109 c -0.09939,0.13713 -0.1695,0.43549 -0.1914,0.5879 -0.0408,0.28384 -0.05163,1.73437 -0.01953,1.73437 0.0098,0 0.0811,-0.12418 0.1582,-0.27539 0.28379,-0.5562 0.43107,-1.38258 0.32226,-2.04102 -0.017,-0.10292 0,-0.37695 0,-0.37695 z m -0.67968,1.08594 -0.20117,0.19141 c -0.1102,0.10557 -0.25181,0.33084 -0.31641,0.5 l -0.11914,0.30859 0.0957,0.42383 c 0.05239,0.23399 0.11367,0.65929 0.13477,0.94336 l 0.03711,0.51562 0.19921,-0.48242 0.20118,-0.48047 0.0332,-0.49609 c 0.0188,-0.27291 0.01167,-0.7061 -0.01562,-0.96094 l -0.04883,-0.46289 z m -0.75,1.19141 c -0.10761,0 -0.27735,0.40268 -0.27735,0.70898 0,0.07916 -0.02761,0.21295 -0.0078,0.31641 0.02473,0.12905 0.1543,0.44531 0.1543,0.44531 0,0 0.06703,0.17074 0.08593,0.30078 0.02251,0.15488 0.03097,0.28011 0.0098,0.53516 -0.0248,0.29863 -0.09443,0.65234 -0.08203,0.65234 0.01236,0 0.14488,-0.35325 0.20898,-0.55664 l 0.11719,-0.3711 0,-0.49218 c 0,-0.5719 -0.13148,-1.53906 -0.20898,-1.53906 z m -4.30664,0.25585 c 0.01323,0.28579 -0.17923,0.70003 -0.26953,0.96094 -0.22528,0.65125 0.10365,1.23598 0.19335,1.41406 -0.15029,0.46448 -0.33548,1.05974 -0.92968,1.7168 0.05132,-0.08573 0.23579,-0.39419 0.41211,-0.6875 l 0.32226,-0.5332 0.01172,-0.29883 c 0,0 0.03147,-0.19714 0.01367,-0.29883 -0.01779,-0.10169 -0.08244,-0.19787 -0.12304,-0.29687 -0.04069,-0.09901 -0.1048,-0.18647 -0.1211,-0.29688 -0.0163,-0.11041 0.02211,-0.23004 0.03321,-0.3457 l 0.0332,-0.34766 -0.25,-0.10742 c -0.13746,-0.05878 -0.54547,-0.18269 -0.90625,-0.27539 0,0 -0.4332,-0.13307 -0.65625,-0.16797 -0.2407,-0.0377 -0.72852,-0.04297 -0.72852,-0.04297 -0.40128,-0.0238 -0.70814,-0.01883 -0.68164,0.0098 0.02647,0.0286 0.27933,0.15229 0.5625,0.27539 0.70385,0.30598 1.00291,0.50008 1.12305,0.73242 0.03394,0.06562 0.08096,0.12627 0.10156,0.19727 0.0789,0.27113 0.07227,0.84375 0.07227,0.84375 0.04028,0.464 0.12264,0.98748 0.18164,1.16406 0.10313,0.30842 0.33289,0.63281 0.44922,0.63281 0.0031,0 0.0097,-0.0039 0.01367,-0.0059 -0.59712,0.60257 -1.55653,1.25077 -3.17969,1.89649 -2.14615,0.85376 -4.79277,1.68598 -5.82226,1.94531 -0.08863,0.02232 -0.16561,0.04168 -0.25196,0.0625 -0.22257,3.95345 -0.38027,6.61531 -0.61523,10.61719 0.97686,0.36898 2.12461,0.19077 3.13476,-0.07618 0.466,-0.12314 1.16108,-0.53623 1.27149,-0.68554 0.05767,0.05654 0.08304,0.06834 0.18164,0.12304 -0.24394,0.69409 -0.83823,1.53338 -1.33789,2.0586 -0.51145,0.53762 -1.47488,1.33782 -2.39649,1.81445 0.20023,0.5374 0.5138,1.08817 0.90821,1.53125 0.21861,0.24559 0.4844,0.46048 0.7832,0.59766 0.35915,0.16494 0.53898,0.26779 1.16016,0.24609 0.27789,-0.0097 0.66443,-0.02485 1.11132,-0.21484 0.3742,-0.73715 0.48216,-0.73631 0.25196,-1.94141 -0.17439,-0.91295 0.51583,-1.68305 0.88672,-2.2207 0.36001,-0.52188 0.63292,-0.74675 1.05273,-1.36328 0.18265,-0.26823 0.45842,-0.76385 0.64453,-1.05078 0.25755,-0.39704 0.369,-0.79258 0.4043,-1.26563 0.04138,-0.55479 -0.61901,-0.90113 -1.13672,-1.15039 -0.21757,-0.10475 -1.18667,-0.52296 -4.11719,-0.83984 2.05568,-0.04569 3.72913,0.41737 4.50586,0.66406 1.03897,-0.38316 2.16268,-1.60784 2.57813,-2.9082 -0.72888,-0.2921 -1.03569,-0.3956 -2.03125,-0.72071 3.11683,0.74838 3.49993,1.17932 3.79296,1.23242 0.18549,0.03359 1.10039,0.24707 1.66407,0.45118 0.81239,0.29417 1.56139,0.64972 2.07226,1.04296 0.21882,0.16842 0.38314,0.3321 0.57032,0.55079 0.29233,-0.01017 0.91013,-0.09566 1.14257,-0.13086 0.74396,-0.11281 1.31074,-0.90955 1.26954,-1.5918 -0.03846,-0.63637 -0.18997,-1.19688 -0.47266,-1.76758 -1.17726,-0.20815 -2.42758,-0.21324 -3.62305,-0.18555 -0.70483,0.01635 -1.31026,-0.11423 -1.98437,-0.2871 -0.69703,-0.17876 -1.44627,-0.56607 -1.48047,-1.31055 -0.01901,-0.41362 0.17186,-1.34351 1.35351,-2.23828 -0.11733,-0.11539 -0.19665,-0.17577 -0.22265,-0.60157 0.13573,0.28853 0.46224,0.63425 0.83593,0.84376 0.37369,0.20947 0.82753,0.28339 1.17774,0.30859 0.63817,0.04585 0.87891,-0.15625 0.87891,-0.15625 0,0 0.53287,0.06343 0.96679,0.24023 0.55816,0.22742 0.54521,0.71769 0.67188,0.77539 0.07869,0.0358 0.69033,0.21479 1.04883,0.08008 0.17715,-0.06656 0.76646,-0.32748 1.01367,-0.44726 -0.42434,-0.36628 -0.80688,-0.4018 -2.04102,-1.09571 1.44611,0.54768 2.20597,0.80337 2.3086,0.78907 0.11016,-0.01533 0.1522,-0.05952 0.1582,-0.23047 0.0024,-0.06635 0.09212,-0.59048 0.01172,-0.67578 -0.0582,-0.06184 -0.07402,-0.44179 -0.04102,-0.52539 0.0792,-0.20067 0.1013,-0.23579 -0.01953,-0.44727 -0.16095,-0.28172 -0.20823,-0.26475 -0.29883,-0.26563 -0.32506,-0.29296 -0.82428,-0.65423 -1.27734,-0.91992 -1.04246,-0.61133 -1.36379,-0.69794 -2.57227,-1.32226 -0.49294,-0.25466 -1.3573,-0.81678 -1.82617,-1.10547 -0.21261,-0.4868 -0.55413,-1.0183 -0.93164,-1.45313 -0.325,-0.37435 -0.71391,-0.77628 -0.99023,-0.91797 z m 3.8125,0.50586 c -0.03187,0 -0.14021,0.12715 -0.24219,0.28125 l -0.18555,0.2793 0.15821,0.50977 c 0,0 0.12307,0.34082 0.14257,0.51757 0.0175,0.15797 -0.01367,0.56641 -0.01367,0.56641 -0.0221,0.26132 -0.0677,0.43908 -0.0918,0.51758 l -0.04492,0.14258 0.18164,0.08398 c 0.09959,0.0453 0.19238,0.08203 0.20508,0.08203 0.0127,0 0.05701,-0.1393 0.09961,-0.30859 0.04265,-0.16928 0.12787,-0.49021 0.13867,-0.66406 0.03429,-0.5504 -0.0487,-0.96161 -0.16992,-1.4961 -0.06623,-0.28125 -0.14583,-0.51172 -0.17773,-0.51172 z m -8.92969,0.2168 c -0.30717,-0.0085 -0.58639,0.02129 -0.86328,0.08789 l -0.34766,0.08399 0.42774,0.04101 c 0.58711,0.05704 1.25026,0.39198 1.60156,0.8086 0.26539,0.31472 0.57874,0.94748 0.80664,1.6289 0.06205,0.18554 0.14775,0.40318 0.18945,0.48438 0.21584,0.42056 0.7155,0.74693 1.27149,0.83203 0.2384,0.03648 0.31,0.01551 0.51757,-0.15821 0.22168,-0.18557 0.23312,-0.2132 0.13672,-0.33007 -0.29677,-0.35976 -0.39981,-0.69003 -0.47851,-1.54688 -0.11044,-1.20212 -0.14409,-1.29424 -0.50782,-1.33594 -0.16019,-0.01836 -0.55697,-0.11558 -0.88085,-0.21679 -0.77319,-0.24163 -1.3611,-0.36471 -1.87305,-0.37891 z m 5.65234,0.38086 c 0.13332,0.45462 0.24933,0.55982 0.44141,0.79687 0.40451,0.49928 0.55411,0.46837 0.47461,0.69922 -0.07588,0.22037 -0.17698,0.28173 -0.33594,0.23243 -0.25916,-0.08047 -0.23837,-0.10332 -0.34961,-0.43555 -0.05199,-0.15528 -0.13675,-0.28368 -0.24414,-0.64844 -0.0915,-0.31073 0.01367,-0.64453 0.01367,-0.64453 z m 2.70899,0.14844 -0.09375,0.1289 c -0.14643,0.20025 -0.29883,0.78015 -0.29883,1.14258 l 0,0.33008 0.20117,0.14258 c 0.11067,0.07876 0.21477,0.14258 0.23047,0.14258 0.01573,0 0.08043,-0.16575 0.14453,-0.36914 0.06413,-0.20339 0.11719,-0.42785 0.11719,-0.49805 0,-0.07017 -0.06749,-0.32686 -0.15039,-0.57227 l -0.15039,-0.44726 z m -8.06446,0.46875 c -0.16122,-0.0104 -0.38057,0.02016 -0.71875,0.07226 -0.64437,0.0992 -0.95372,0.1094 -1.78906,0.0586 -1.13801,-0.06916 -1.97434,-0.07956 -2.7168,-0.04102 -0.02501,0.45322 -0.03396,0.64273 -0.06054,1.12305 0.27837,0.09967 0.4977,0.21595 0.7207,0.375 0.18575,0.13249 0.4463,0.27681 0.57813,0.32031 0.42643,0.14073 1.52332,0.08507 2.16796,-0.10937 0.95064,-0.28672 1.49909,-0.2644 2.18946,0.08789 0.28143,0.14361 0.54162,0.35425 0.78125,0.63086 0.5427,0.62693 1.1569,0.86699 1.60156,0.6289 l 0.24219,-0.1289 -0.27735,-0.002 c -0.40346,-0.0043 -0.9735,-0.33015 -1.21875,-0.69531 -0.11056,-0.16466 -0.20117,-0.32758 -0.20117,-0.36328 0,-0.13454 -0.49752,-1.18926 -0.69922,-1.48242 -0.22531,-0.32748 -0.33091,-0.45731 -0.59961,-0.47461 z m 7.48633,0.47461 c -0.09396,0.02981 -0.36914,0.25495 -0.36914,0.31445 0,0.02917 0.07647,0.08721 0.16797,0.12891 l 0.16602,0.07617 0.04492,-0.2461 c 0.0255,-0.13472 0.03328,-0.25773 0.01758,-0.27343 -0.0047,-0.0044 -0.01395,-0.004 -0.02735,0 z m -12.52148,1.24023 c -0.07713,-0.0022 -0.18192,0.01262 -0.2793,0.02344 -0.01722,0.31064 -0.02325,0.38909 -0.04102,0.70898 0.43696,0.1542 0.91857,0.32854 1.08008,0.41602 0.20854,0.113 0.4335,0.19253 0.5,0.17773 0.87128,-0.19299 1.43365,-0.34637 1.76368,-0.48047 0.59103,-0.24011 1.12643,-0.33154 1.60546,-0.27734 0.55879,0.06322 0.84809,0.19278 1.22071,0.54883 0.17147,0.16383 0.41596,0.36873 0.54492,0.45703 0.2483,0.17001 0.74398,0.25329 0.89844,0.15039 0.06398,-0.04267 5.3e-4,-0.07677 -0.20313,-0.10937 -0.2496,-0.03992 -0.3746,-0.12956 -0.83594,-0.60157 -0.82338,-0.8424 -1.48388,-1.08375 -2.44922,-0.89648 -2.2675,0.43986 -2.48042,0.44677 -3.13281,0.09961 -0.26229,-0.13953 -0.43129,-0.2098 -0.67187,-0.2168 z m 11.75976,0.26953 c 0.13557,0.12003 0.15007,0.2088 0.41407,0.2793 0.49295,0.13163 0.88112,0.35887 1.17187,1.00195 -0.48112,0.16527 -0.62403,0.19172 -0.9082,0.16992 -0.32185,-0.02467 -0.466,-0.19374 -0.375,-1.08789 -0.15746,-0.1145 -0.20964,-0.17787 -0.30274,-0.36328 z m -7.33203,0.51563 c -0.2913,5.3e-4 -0.64884,0.07749 -1.19726,0.25781 -0.43041,0.14153 -1.1639,0.32159 -1.62891,0.40039 -0.75841,0.1285 -0.92995,0.13591 -1.67383,0.06641 -0.102,-0.0095 -0.19098,-0.02533 -0.28906,-0.03711 -0.01764,0.31691 -0.01903,0.35951 -0.03711,0.68359 0.02791,0.0077 0.06061,0.02248 0.08789,0.0293 0.28254,0.07063 0.61244,0.18104 0.73438,0.24414 0.18022,0.09321 0.43736,0.11523 1.37109,0.11523 0.90439,0 1.20347,0.02333 1.40625,0.11133 0.14166,0.06148 0.43127,0.18178 0.64453,0.26758 l 0.38867,0.15625 0.72071,-0.29102 c 0.39639,-0.1598 0.98666,-0.41411 1.31054,-0.5664 l 0.58789,-0.27735 -0.33593,-0.15039 c -0.18505,-0.08252 -0.52116,-0.32103 -0.7461,-0.52929 -0.44582,-0.41275 -0.6423,-0.48147 -1.34375,-0.48047 z m 12.78125,1.96094 c 0.08206,-3.1e-4 0.21704,0.01561 0.43946,0.04101 -0.0954,0.28976 -0.15668,0.40901 -0.04688,0.64063 -0.36164,-0.0161 -0.6784,-0.36083 -0.52344,-0.63282 0.019,-0.0334 0.04876,-0.04848 0.13086,-0.04882 z m 2.29883,3.37109 c -0.32372,-0.0031 -0.75296,0.24678 -1.58789,0.66992 -1.07316,0.54388 -1.375,0.71289 -1.375,0.71289 l 0.38867,0.05078 c 0.13482,0.324 0.25122,0.64581 0.39258,0.99414 0,0 0.60802,-0.2641 1.28125,-0.60156 0.67486,-0.33829 1.27358,-0.68333 1.33398,-0.76953 0.15853,-0.22634 0.155,-0.73093 -0.02929,-0.88867 -0.13279,-0.11362 -0.25716,-0.16697 -0.4043,-0.16797 z m -7.66992,3.70117 c -0.05432,0 -1.1751,0.53807 -2.49024,1.19531 -1.88231,0.94068 -2.38079,1.21693 -2.34179,1.29883 0.0273,0.05719 0.06187,0.32923 0.07617,0.60547 0.0142,0.27625 0.04666,0.502 0.07226,0.5 0.02557,-0.002 0.85698,-0.4132 1.84766,-0.91211 0.99069,-0.49891 2.23609,-1.10514 2.76953,-1.34766 0.53345,-0.24252 1.09563,-0.50026 1.24805,-0.57226 l 0.27734,-0.13086 -0.68164,-0.31836 c -0.3742,-0.1752 -0.72304,-0.31836 -0.77734,-0.31836 z m -8.80274,5.21484 c 0,0 -0.21706,0.10976 -0.38086,0.19336 -0.62275,0.31771 -1.05008,0.42234 -1.86328,0.46094 l -0.79687,0.03906 -1.16016,0.57813 c -0.02709,0.01354 -0.02218,0.01395 -0.04883,0.02734 -0.02626,0.44497 -0.05213,0.89477 -0.07812,1.33203 0.10031,-0.04074 0.91774,-0.4483 1.97265,-0.98632 1.8043,-0.9202 2.01728,-1.04713 2.16211,-1.28711 0.08837,-0.14643 0.19336,-0.35743 0.19336,-0.35743 z"
     style="display:inline;opacity:1;fill:#ff90e1;fill-opacity:1" /><path
     id="path4674"
     d="M40.2,75.6c6.9-0.1,16.7-1.8,22.4-4c-0.7-6.6-2.7-45.5-2.7-45.5s2.1,5.1,3.2,7.9c4.7-0.4,12.3-1.3,15.3-6.2  C75.5,21,73.3,13.2,71,8.1c0,0-10.4-3.8-18.6-6.4c0,0-0.9-0.3-1.3,0.4c-3,4.2-4.5,7.1-11.2,7.1l0,0c-6.4-0.1-8-2.9-10.9-7.1  c-0.5-0.7-1.4-0.4-1.4-0.4C19.5,4.2,9,8.1,9,8.1c-2.3,5.1-4.5,13-7.4,19.7c3,4.8,10.4,5.8,15.3,6.2c1.1-2.8,3.2-7.9,3.2-7.9  S18,65,17.4,71.6c5.8,2.2,15.5,4,22.4,4l0,0"
     class="st0" /></svg>