<?xml version="1.0" encoding="utf-8"?><svg version="1.1" id="Layer_1" xmlns="http://www.w3.org/2000/svg" xmlns:xlink="http://www.w3.org/1999/xlink" x="0px" y="0px" viewBox="0 0 80 77.1" style="enable-background:new 0 0 80 77.1;" xml:space="preserve"><style type="text/css"> .st0{fill:#015B34;} .st1{stroke:#000000;stroke-linecap:round;stroke-linejoin:round;stroke-miterlimit:10;} .st2{fill:none;stroke:#FFFFFF;stroke-linecap:round;stroke-miterlimit:10;} .st3{fill:none;stroke:#000000;stroke-width:3;stroke-linecap:round;stroke-linejoin:round;}</style><path class="st0" d="M40.2,75.6c6.9-0.1,16.7-1.8,22.4-4c-0.7-6.6-2.7-45.5-2.7-45.5s2.1,5.1,3.2,7.9c4.7-0.4,12.3-1.3,15.3-6.2 C75.5,21,73.3,13.2,71,8.1c0,0-10.4-3.8-18.6-6.4c0,0-0.9-0.3-1.3,0.4c-3,4.2-4.5,7.1-11.2,7.1l0,0c-6.4-0.1-8-2.9-10.9-7.1 c-0.5-0.7-1.4-0.4-1.4-0.4C19.5,4.2,9,8.1,9,8.1c-2.3,5.1-4.5,13-7.4,19.7c3,4.8,10.4,5.8,15.3,6.2c1.1-2.8,3.2-7.9,3.2-7.9 S18,65,17.4,71.6c5.8,2.2,15.5,4,22.4,4l0,0"/><path class="st1" d="M52.4,1.7c0,0-0.9-0.3-1.3,0.4c-0.3,0.5-0.7,0.9-1,1.4l0,0c0,0-2.7,10.3-9.1,11.6c-5.2,1-21.1,1.6-21.1,1.6 l-1.3,3.9c0,0,30-1.8,35,3.3c3.6,3.6,1.7,36.7-0.9,39.5c-4.5,4.9-17.9,12-18.2,12c1.8,0.2,3.6,0.3,5.2,0.3h0.4 c4.1-0.1,9.3-0.7,14-1.7c0,0,2.4-3.3,4.7-6.3c2.5-3.3,3.1-4.9,3.1-4.9l0,0c-0.9-13.6-2-36.6-2-36.6s2.1,5.1,3.2,7.9 c4.7-0.4,12.3-1.3,15.3-6.2C75.5,21,73.3,13.2,71,8.1C71,8.1,60.6,4.3,52.4,1.7z"/><path class="st2" d="M18.6,20.5c0,0,30-1.8,35,3.3c3.6,3.6,1.7,36.7-0.9,39.5c-4.5,4.9-17.9,12-18.2,12"/><path class="st3" d="M40.2,75.6c6.9-0.1,16.7-1.8,22.4-4c-0.7-6.6-2.7-45.5-2.7-45.5s2.1,5.1,3.2,7.9c4.7-0.4,12.3-1.3,15.3-6.2 C75.5,21,73.3,13.2,71,8.1c0,0-10.4-3.8-18.6-6.4c0,0-0.9-0.3-1.3,0.4c-3,4.2-4.5,7.1-11.2,7.1l0,0c-6.4-0.1-8-2.9-10.9-7.1 c-0.5-0.7-1.4-0.4-1.4-0.4C19.5,4.2,9,8.1,9,8.1c-2.3,5.1-4.5,13-7.4,19.7c3,4.8,10.4,5.8,15.3,6.2c1.1-2.8,3.2-7.9,3.2-7.9 S18,65,17.4,71.6c5.8,2.2,15.5,4,22.4,4l0,0"/></svg>