<?xml version="1.0" encoding="utf-8"?>
<!-- Generator: Adobe Illustrator 22.0.0, SVG Export Plug-In . SVG Version: 6.00 Build 0)  -->
<svg version="1.1" id="Layer_1" xmlns="http://www.w3.org/2000/svg" xmlns:xlink="http://www.w3.org/1999/xlink" x="0px" y="0px"
	 viewBox="0 0 80 77.1" style="enable-background:new 0 0 80 77.1;" xml:space="preserve">
<style type="text/css">
	.st0{fill:#27253A;}
	.st1{fill:#E8C500;}
	.st2{fill:#00B7AE;}
	.st3{fill:#FFF212;}
	.st4{fill:none;stroke:#27253A;stroke-width:3;stroke-miterlimit:10;}
	.st5{fill:none;stroke:#000000;stroke-width:2;stroke-linecap:round;stroke-linejoin:round;}
	.st6{fill:none;stroke:#00B7AE;stroke-width:2;stroke-miterlimit:10;}
	.st7{fill:#00334B;}
	.st8{fill:none;stroke:#00B7AE;stroke-width:0.75;stroke-miterlimit:10;}
	.st9{fill:#00132E;}
	.st10{enable-background:new    ;}
	.st11{fill:none;stroke:#00B7AE;stroke-width:0.85;stroke-miterlimit:10;}
	.st12{fill:#D2A500;}
	.st13{fill:none;stroke:#000000;stroke-width:0.25;stroke-miterlimit:10;}
</style>
<g>
	<path class="st0" d="M40.3,75.7c6.9-0.1,16.7-1.8,22.4-4C62,65.1,60,26.1,60,26.1s2.1,5.1,3.2,7.9c4.7-0.4,12.3-1.3,15.3-6.2
		c-2.9-6.8-5.1-14.6-7.4-19.7c0,0-10.4-3.8-18.6-6.4c0,0-0.9-0.3-1.3,0.4c-3,4.2-4.5,7.1-11.2,7.1l0,0c-6.4-0.1-8-2.9-11-7.1
		c-0.5-0.7-1.4-0.4-1.4-0.4C19.5,4.2,9,8.1,9,8.1c-2.3,5.1-4.5,13-7.4,19.7c3,4.8,10.4,5.8,15.3,6.2c1.1-2.8,3.2-7.9,3.2-7.9
		s-2.1,39-2.7,45.6c5.8,2.2,15.5,4,22.4,4H40.3L40.3,75.7z"/>
	<path class="st1" d="M15.1,6.3c6.9,2.8,6.7,12.5,6.2,12C33.9,22.1,50.9,30.9,60.2,35l-0.1-1.1l-11.5-5.3
		c-0.5-0.2,11.3-9.4,11.8-9.9c0.4-0.8-0.3-5.4,5.4-12.2l-14-4.9C49,7,44.8,9.4,40.5,9.5s-8.7-2.1-11.6-7.3
		C28.4,0.8,15.1,6.3,15.1,6.3L15.1,6.3z"/>
	<path class="st1" d="M62.1,63.6C57.6,62.4,52,61,45.5,59.8c-10.6-2.1-19.8-5.2-26.9-8.2l-0.1,1.3c6.8,2.8,15.7,5.7,26,7.7
		c6.9,1.3,12.8,2.8,17.6,4.2V63.6z"/>
	<path class="st2" d="M62.2,71.9c-6.7-2.2-15-4.5-24.3-6.2c-7.8-1.4-14.4-3.1-19.8-4.8l0.3-5.9c6.2,2.4,14.2,4.9,23.9,6.8
		c7.7,1.5,14.4,3.2,19.9,4.9l0.4,4.9L62.2,71.9z"/>
	<g>
		<path class="st2" d="M20.1,26.1c-2.7,0.2-9,0.8-12.3,1.2c-2.7,0.4-4.6,0.8-5.8,1.1l-0.4-0.6l0.2-0.4c1.3-0.4,3.9-1,8.7-1.6
			c4.9-0.6,6.2-0.6,9.7-0.9v1.2C20.2,26.1,20.1,26.1,20.1,26.1z"/>
		<path class="st3" d="M2.5,25.8c1.9-0.4,6.2-1.2,9.9-1.7c3-0.4,5.9-0.6,7.7-0.7V24c-1.8,0.1-4.6,0.3-7.8,0.6C8,25.1,4,26,2.2,26.4
			L2.5,25.8z"/>
	</g>
	<g>
		<path class="st2" d="M60,24.9c3.5,0.3,4.8,0.3,9.7,0.9c4.8,0.6,7.4,1.2,8.7,1.6l0.2,0.4l-0.4,0.6c-1.3-0.3-3.2-0.7-5.8-1.1
			c-3.2-0.5-9.5-1-12.3-1.2L60,24.9L60,24.9z"/>
		<path class="st3" d="M77.9,26.4c-1.8-0.4-5.9-1.3-10.1-1.8c-3.3-0.4-6.1-0.5-7.8-0.6v-0.6c1.8,0.1,4.7,0.3,7.7,0.7
			c3.8,0.4,8.1,1.3,9.9,1.7L77.9,26.4z"/>
	</g>
</g>
<path class="st4" d="M52.3,1.6c0,4.3-4.9,8.8-12.3,8.8S27.7,5.9,27.7,1.6"/>
<path class="st5" d="M40.2,75.6c6.9-0.1,16.7-1.8,22.4-4c-0.7-6.6-2.7-45.5-2.7-45.5s2.1,5.1,3.2,7.9c4.7-0.4,12.3-1.3,15.3-6.2
	C75.5,21,73.3,13.2,71,8.1c0,0-10.4-3.8-18.6-6.4c0,0-0.9-0.3-1.3,0.4c-3,4.2-4.5,7.1-11.2,7.1l0,0c-6.4-0.1-8-2.9-10.9-7.1
	c-0.5-0.7-1.4-0.4-1.4-0.4C19.5,4.2,9,8.1,9,8.1c-2.3,5.1-4.5,13-7.4,19.7c3,4.8,10.4,5.8,15.3,6.2c1.1-2.8,3.2-7.9,3.2-7.9
	S18,65,17.4,71.6c5.8,2.2,15.5,4,22.4,4l0,0"/>
<g>
	<g>
		<path class="st6" d="M51.7,39.5c0,5.8-6.2,5-13.2,6.3c-6.3,1.1-9.9-0.5-9.9-6.3S33.8,29,40.1,29S51.7,33.7,51.7,39.5z"/>
		<path class="st7" d="M51.7,39.5c0,5.8-6.2,5-13.2,6.3c-6.3,1.1-9.9-0.5-9.9-6.3S33.8,29,40.1,29S51.7,33.7,51.7,39.5z"/>
		<path class="st8" d="M47.1,36l-1.8-0.3c0-0.1-0.1-0.2-0.3-0.2c-0.1-0.9-1.6-3.5-1.6-3.7c0-0.1-1.9-3.1-2.3-2.6c0,0,0,0.1,0,0.2
			L40,28.8c0,0,0,0,0.1,0l4.4-3.6l0,0c0,0,0,0,0.1,0H45c0.2,0,0.4-0.2,0.4-0.4c0-0.2-0.2-0.4-0.4-0.4h-0.4c-0.1,0-0.4,0.2-0.6,0.4
			l-2.4-2.4c-0.1-0.1-0.3-0.3-0.4-0.3h-1.1v-0.5c0-0.3-0.2-0.5-0.5-0.5s-0.5,0.2-0.5,0.5v0.5H38c-0.1,0-0.5,0.2-0.5,0.3L35,24.8l0,0
			c0,0-0.1-0.1-0.2-0.1c-0.1-0.1-0.3-0.2-0.4-0.2H34c-0.2,0-0.4,0.2-0.4,0.4c0,0.2,0.2,0.4,0.4,0.4h0.4c0.1,0,0.2,0,0.4,0.1l4.1,3.3
			c0,0,0.1,0,0.1,0.1v0.3c-0.2-0.2-0.5-0.3-0.8-0.3h-1c-0.1,0-0.3,0-0.4,0.1c-0.2-0.2-0.5-0.3-0.8-0.3h0c-0.7,0-1.2,0.5-1.2,1.2
			s2,3.9,2.7,3.9L36.3,31c0.1,0,0.3,0,0.4-0.1c0.2,0.2,0.5,0.3,0.8,0.3h0.8v3.2c0,0.1,0.1,0.3,0.3,0.3c0.1,0,0.3-0.1,0.3-0.3
			l0.2,0.9c-0.6,0.1-1.2,0.2-1.6,0.2c-0.6,0-1.4,0.3-2,0.7L35.2,36c0-0.5-2.1,2.1-2.6,2.1L32,37.5c-0.5,0-0.8,0.4-0.8,0.8
			c0,0.5,0.4,0.8,0.8,0.8h0.3c0.2,0,1-0.6,1.8-1.3L33.5,39c-0.1,0.3-0.5,0.9-0.3,1l-1,2.5c0.3,0.1,2.3-2.6,2.5-2.9l1.9-1.1l1.1,1.1
			c0.1,0.3,1.5,3.4,1.8,3.4L39,40.3c0.3-0.1,0-0.7-0.1-1l-0.2-0.7c0.9,0.1,2.1,0.1,2.6-0.3l0.6,1c0,0.3,0.4,3.7,0.7,3.7l0.4-2.7
			c0.3,0,0.2-0.7,0.2-1l0.2-2.3l0.8-0.4c0.1,0,1,0,1.8-0.1c0.1,0,0.2,0.8,0.2,1.5c0,0.3-2.8,2.4-2.8,2.6c0,0.2,2.9-1.5,3-1.5
			c0.3,0,0.7-2.7,0.9-2.7C47.7,36.4,47.1,36.1,47.1,36z M40.1,22.3c0,0,1.1,0.1,1.2,0.2l2.5,2.5l0,0l-3.7,3V22.3z M35.4,24.8
			l2.4-2.3c0.1-0.1,1.3-0.1,1.3-0.1v5.5L35.4,24.8z"/>
		<path class="st9" d="M47.1,36.3L45.4,36c0-0.1-0.1-0.2-0.3-0.2c-0.1-0.9-1.6-3.5-1.6-3.7c0-0.1-1.9-3.1-2.3-2.6c0,0,0,0.1,0,0.2
			L40.1,29c0,0,0,0,0.1,0l4.4-3.6l0,0c0,0,0,0,0.1,0H45c0.2,0,0.4-0.2,0.4-0.4c0-0.2-0.2-0.4-0.4-0.4h-0.4c-0.1,0-0.4,0.2-0.6,0.4
			l-2.4-2.4c-0.1-0.1-0.3-0.3-0.4-0.3h-1.1v-0.5c0-0.3-0.2-0.5-0.5-0.5s-0.5,0.2-0.5,0.5v0.5H38c-0.1,0-0.5,0.2-0.5,0.3L35,25l0,0
			c0,0-0.1-0.1-0.2-0.1c-0.1-0.1-0.3-0.2-0.4-0.2H34c-0.2,0-0.4,0.2-0.4,0.4c0,0.2,0.2,0.4,0.4,0.4h0.4c0.1,0,0.2,0,0.4,0.1l4.1,3.3
			c0,0,0.1,0,0.1,0.1v0.3c-0.2-0.2-0.5-0.3-0.8-0.3h-1c-0.1,0-0.3,0-0.4,0.1c-0.2-0.2-0.5-0.3-0.8-0.3h0c-0.7,0-1.2,0.5-1.2,1.2
			s2,3.9,2.7,3.9L36.3,31c0.1,0,0.3,0,0.4-0.1c0.2,0.2,0.5,0.3,0.8,0.3h0.8v3.2c0,0.1,0.1,0.3,0.3,0.3c0.1,0,0.3-0.1,0.3-0.3
			l0.2,0.9c-0.6,0.1-1.2,0.2-1.6,0.2c-0.6,0-1.4,0.3-2,0.7L35.2,36c0-0.5-2.1,2.1-2.6,2.1L32,37.8c-0.5,0-0.8,0.4-0.8,0.8
			c0,0.5,0.4,0.8,0.8,0.8h0.3c0.2,0,1-0.6,1.8-1.3l-0.6,1.2c-0.1,0.3-0.5,0.9-0.3,1l-1,2.5c0.3,0.1,2.3-2.6,2.5-2.9l1.9-1.1l1.1,1.1
			c0.1,0.3,1.5,3.4,1.8,3.4L39,40.6c0.3-0.1,0-0.7-0.1-1l-0.2-0.7c0.9,0.1,2.1,0.1,2.6-0.3l0.6,1c0,0.3,0.4,3.7,0.7,3.7l0.4-2.7
			c0.3,0,0.2-0.7,0.2-1l0.2-2.3l0.8-0.4c0.1,0,1,0,1.8-0.1c0.1,0,0.2,0.8,0.2,1.5c0,0.3-2.8,2.4-2.8,2.6c0,0.2,2.9-1.5,3-1.5
			c0.3,0,0.7-2.7,0.9-2.7C47.7,36.7,47.1,36.3,47.1,36.3z M40.1,22.6c0,0,1.1,0.1,1.2,0.2l2.5,2.5l0,0l-3.6,2.9v-5.6H40.1z
			 M35.4,25.1l2.4-2.3c0.1-0.1,1.3-0.1,1.3-0.1v5.5L35.4,25.1z"/>
		<g class="st10">
			<path class="st2" d="M30.9,47.9l-0.1-0.5l0.9-0.2l0.1,0.8l-0.5,0.7l-2,0.3l-0.6-3.7l0.5-0.7l1.9-0.3l0.3,1.6L30.5,46l-0.1-0.8
				l-0.7,0.1l0.4,2.7L30.9,47.9z"/>
			<path class="st2" d="M31.5,44.2l2.1-0.4l0.1,0.8l-1.2,0.2l0.1,0.8l1.1-0.2l0.1,0.8l-1.1,0.2l0.2,1l1.2-0.2l0.1,0.8l-2.1,0.4
				L31.5,44.2z"/>
			<path class="st2" d="M36.2,45.9l-0.4-2.5l0.9-0.1l0.7,4.3l-0.9,0.2l-1.3-2.3l0.4,2.5l-0.9,0.1L34,43.7l0.9-0.2L36.2,45.9z"/>
			<path class="st2" d="M39.8,43.6L39,43.8l0.6,3.5l-0.9,0.2l-0.6-3.5l-0.8,0.1l-0.1-0.8l2.6-0.4L39.8,43.6z"/>
			<path class="st2" d="M41.7,46.9l-0.9,0.2l-0.6-3.6l0.6-0.8l1.9-0.3l0.7,4.3l-0.9,0.2l-0.2-1.4l-0.8,0.1L41.7,46.9z M42.1,44.5
				l-0.2-1.3l-0.8,0.1l0.2,1.3L42.1,44.5z"/>
			<path class="st2" d="M46.3,46.2l-2.6,0.4L43,42.3l0.9-0.2l0.6,3.5l0.7-0.1L44.6,42l0.9-0.2L46.3,46.2z"/>
			<path class="st2" d="M48.3,45.8l-0.8-1.5l-0.2,0l0.3,1.6l-0.9,0.2L46,42.4l0.6-0.7l1.9-0.3l0.5,2.8l-0.5,0.1l0.8,1.5L48.3,45.8z
				 M47.9,43.4l-0.2-1.1L47,42.4l0.2,1.1L47.9,43.4z"/>
			<path class="st2" d="M48.9,41.3l2.6-0.4l0.7,4.3l-2.6,0.4L48.9,41.3z M50.4,44.6l0.8-0.1l-0.4-2.7l-0.8,0.1L50.4,44.6z"/>
			<path class="st2" d="M55,44.7l-2.4,0.4l-0.2-1.3l0.9-0.2l0.1,0.5l0.6-0.1l-0.1-0.7l-1.6-0.8l-0.3-1.7l2.3-0.4l0.2,1.3l-0.8,0.1
				l-0.1-0.5L53,41.4l0.1,0.6l1.6,0.8L55,44.7z"/>
		</g>
		<g class="st10">
			<path class="st11" d="M30.9,47.9l-0.1-0.5l0.9-0.2l0.1,0.8l-0.5,0.7l-2,0.3l-0.6-3.7l0.5-0.7l1.9-0.3l0.3,1.6L30.5,46l-0.1-0.8
				l-0.7,0.1l0.4,2.7L30.9,47.9z"/>
			<path class="st11" d="M31.5,44.2l2.1-0.4l0.1,0.8l-1.2,0.2l0.1,0.8l1.1-0.2l0.1,0.8l-1.1,0.2l0.2,1l1.2-0.2l0.1,0.8l-2.1,0.4
				L31.5,44.2z"/>
			<path class="st11" d="M36.2,45.9l-0.4-2.5l0.9-0.1l0.7,4.3l-0.9,0.2l-1.3-2.3l0.4,2.5l-0.9,0.1L34,43.7l0.9-0.2L36.2,45.9z"/>
			<path class="st11" d="M39.8,43.6L39,43.8l0.6,3.5l-0.9,0.2l-0.6-3.5l-0.8,0.1l-0.1-0.8l2.6-0.4L39.8,43.6z"/>
			<path class="st11" d="M41.7,46.9l-0.9,0.2l-0.6-3.6l0.6-0.8l1.9-0.3l0.7,4.3l-0.9,0.2l-0.2-1.4l-0.8,0.1L41.7,46.9z M42.1,44.5
				l-0.2-1.3l-0.8,0.1l0.2,1.3L42.1,44.5z"/>
			<path class="st11" d="M46.3,46.2l-2.6,0.4L43,42.3l0.9-0.2l0.6,3.5l0.7-0.1L44.6,42l0.9-0.2L46.3,46.2z"/>
			<path class="st11" d="M48.3,45.8l-0.8-1.5l-0.2,0l0.3,1.6l-0.9,0.2L46,42.4l0.6-0.7l1.9-0.3l0.5,2.8l-0.5,0.1l0.8,1.5L48.3,45.8z
				 M47.9,43.4l-0.2-1.1L47,42.4l0.2,1.1L47.9,43.4z"/>
			<path class="st11" d="M48.9,41.3l2.6-0.4l0.7,4.3l-2.6,0.4L48.9,41.3z M50.4,44.6l0.8-0.1l-0.4-2.7l-0.8,0.1L50.4,44.6z"/>
			<path class="st11" d="M55,44.7l-2.4,0.4l-0.2-1.3l0.9-0.2l0.1,0.5l0.6-0.1l-0.1-0.7l-1.6-0.8l-0.3-1.7l2.3-0.4l0.2,1.3l-0.8,0.1
				l-0.1-0.5L53,41.4l0.1,0.6l1.6,0.8L55,44.7z"/>
		</g>
		<g class="st10">
			<path class="st12" d="M30.9,47.9l-0.1-0.5l0.9-0.2l0.1,0.8l-0.5,0.7l-2,0.3l-0.6-3.7l0.5-0.7l1.9-0.3l0.3,1.6L30.5,46l-0.1-0.8
				l-0.7,0.1l0.4,2.7L30.9,47.9z"/>
			<path class="st12" d="M31.5,44.2l2.1-0.4l0.1,0.8l-1.2,0.2l0.1,0.8l1.1-0.2l0.1,0.8l-1.1,0.2l0.2,1l1.2-0.2l0.1,0.8l-2.1,0.4
				L31.5,44.2z"/>
			<path class="st12" d="M36.2,45.9l-0.4-2.5l0.9-0.1l0.7,4.3l-0.9,0.2l-1.3-2.3l0.4,2.5l-0.9,0.1L34,43.7l0.9-0.2L36.2,45.9z"/>
			<path class="st12" d="M39.8,43.6L39,43.8l0.6,3.5l-0.9,0.2l-0.6-3.5l-0.8,0.1l-0.1-0.8l2.6-0.4L39.8,43.6z"/>
			<path class="st12" d="M41.7,46.9l-0.9,0.2l-0.6-3.6l0.6-0.8l1.9-0.3l0.7,4.3l-0.9,0.2l-0.2-1.4l-0.8,0.1L41.7,46.9z M42.1,44.5
				l-0.2-1.3l-0.8,0.1l0.2,1.3L42.1,44.5z"/>
			<path class="st12" d="M46.3,46.2l-2.6,0.4L43,42.3l0.9-0.2l0.6,3.5l0.7-0.1L44.6,42l0.9-0.2L46.3,46.2z"/>
			<path class="st12" d="M48.3,45.8l-0.8-1.5l-0.2,0l0.3,1.6l-0.9,0.2L46,42.4l0.6-0.7l1.9-0.3l0.5,2.8l-0.5,0.1l0.8,1.5L48.3,45.8z
				 M47.9,43.4l-0.2-1.1L47,42.4l0.2,1.1L47.9,43.4z"/>
			<path class="st12" d="M48.9,41.3l2.6-0.4l0.7,4.3l-2.6,0.4L48.9,41.3z M50.4,44.6l0.8-0.1l-0.4-2.7l-0.8,0.1L50.4,44.6z"/>
			<path class="st12" d="M55,44.7l-2.4,0.4l-0.2-1.3l0.9-0.2l0.1,0.5l0.6-0.1l-0.1-0.7l-1.6-0.8l-0.3-1.7l2.3-0.4l0.2,1.3l-0.8,0.1
				l-0.1-0.5L53,41.4l0.1,0.6l1.6,0.8L55,44.7z"/>
		</g>
		<g class="st10">
			<path class="st13" d="M30.9,47.9l-0.1-0.5l0.9-0.2l0.1,0.8l-0.5,0.7l-2,0.3l-0.6-3.7l0.5-0.7l1.9-0.3l0.3,1.6L30.5,46l-0.1-0.8
				l-0.7,0.1l0.4,2.7L30.9,47.9z"/>
			<path class="st13" d="M31.5,44.2l2.1-0.4l0.1,0.8l-1.2,0.2l0.1,0.8l1.1-0.2l0.1,0.8l-1.1,0.2l0.2,1l1.2-0.2l0.1,0.8l-2.1,0.4
				L31.5,44.2z"/>
			<path class="st13" d="M36.2,45.9l-0.4-2.5l0.9-0.1l0.7,4.3l-0.9,0.2l-1.3-2.3l0.4,2.5l-0.9,0.1L34,43.7l0.9-0.2L36.2,45.9z"/>
			<path class="st13" d="M39.8,43.6L39,43.8l0.6,3.5l-0.9,0.2l-0.6-3.5l-0.8,0.1l-0.1-0.8l2.6-0.4L39.8,43.6z"/>
			<path class="st13" d="M41.7,46.9l-0.9,0.2l-0.6-3.6l0.6-0.8l1.9-0.3l0.7,4.3l-0.9,0.2l-0.2-1.4l-0.8,0.1L41.7,46.9z M42.1,44.5
				l-0.2-1.3l-0.8,0.1l0.2,1.3L42.1,44.5z"/>
			<path class="st13" d="M46.3,46.2l-2.6,0.4L43,42.3l0.9-0.2l0.6,3.5l0.7-0.1L44.6,42l0.9-0.2L46.3,46.2z"/>
			<path class="st13" d="M48.3,45.8l-0.8-1.5l-0.2,0l0.3,1.6l-0.9,0.2L46,42.4l0.6-0.7l1.9-0.3l0.5,2.8l-0.5,0.1l0.8,1.5L48.3,45.8z
				 M47.9,43.4l-0.2-1.1L47,42.4l0.2,1.1L47.9,43.4z"/>
			<path class="st13" d="M48.9,41.3l2.6-0.4l0.7,4.3l-2.6,0.4L48.9,41.3z M50.4,44.6l0.8-0.1l-0.4-2.7l-0.8,0.1L50.4,44.6z"/>
			<path class="st13" d="M55,44.7l-2.4,0.4l-0.2-1.3l0.9-0.2l0.1,0.5l0.6-0.1l-0.1-0.7l-1.6-0.8l-0.3-1.7l2.3-0.4l0.2,1.3l-0.8,0.1
				l-0.1-0.5L53,41.4l0.1,0.6l1.6,0.8L55,44.7z"/>
		</g>
	</g>
	<circle class="st1" cx="37.8" cy="29.4" r="0.3"/>
</g>
</svg>
