<?xml version="1.0" encoding="utf-8"?><svg version="1.1" xmlns="http://www.w3.org/2000/svg" xmlns:xlink="http://www.w3.org/1999/xlink" x="0px" y="0px" viewBox="0 0 80 77.0999985" style="enable-background:new 0 0 80 77.0999985;" xml:space="preserve"><style type="text/css"> .st0{fill:#931A1D;} .st1{fill:#EC1C24;} .st2{clip-path:url(#SVGID_2_);} .st3{clip-path:url(#SVGID_6_);fill:#F3F2F2;} .st4{clip-path:url(#SVGID_6_);fill:#941B1E;} .st5{clip-path:url(#SVGID_6_);fill:#E52729;} .st6{clip-path:url(#SVGID_6_);fill:#FFFEFE;} .st7{clip-path:url(#SVGID_8_);} .st8{clip-path:url(#SVGID_10_);fill:#FFFFFF;} .st9{clip-path:url(#SVGID_10_);fill:#E52629;} .st10{clip-path:url(#SVGID_10_);fill:#383938;} .st11{clip-path:url(#SVGID_10_);fill:#FFFCFC;} .st12{fill:none;stroke:#000000;stroke-width:3;stroke-linecap:round;stroke-linejoin:round;} </style><g id="Layer_1"><path class="st0" d="M40.2000008,75.5999985c6.9000015-0.0999985,16.7000008-1.8000031,22.3999977-4 c-0.7000008-6.5999985-2.7000008-45.5-2.7000008-45.5S61.9999962,31.1999989,63.0999985,34 c4.6999969-0.4000015,12.3000031-1.2999992,15.3000031-6.2000008C75.5,21,73.3000031,13.1999998,71,8.1000004 c0,0-10.4000015-3.8000002-18.5999985-6.4000001c0,0-0.9000015-0.3-1.2999992,0.4000001 c-3,4.1999998-4.5,7.1000004-11.2000008,7.1000004l0,0c-6.4000015-0.1000004-8-2.9000001-10.8999996-7.0999999 c-0.5-0.7-1.3999996-0.4-1.3999996-0.4C19.5,4.1999998,9,8.1000004,9,8.1000004c-2.3000002,5.1000004-4.5,13-7.4000001,19.7000008 C4.5999999,32.6000023,12,33.6000023,16.8999996,34C18,31.2000008,20.1000004,26.1000004,20.1000004,26.1000004 S18,65,17.3999996,71.5999985c5.8000011,2.1999969,15.5000019,4,22.3999996,4l0,0"/></g><g id="Layer_4"><path class="st1" d="M29.2109718,1.6360949c0,0-5.5932045,4.9875731-7.4682045,11.2250738 C20.2429218,17.8506565,19.53125,25.625,19.53125,25.625l1.5249996,0.5249996c0,0,0.7312527-8.0874996,3.4937515-12.7749996 S31.875,5.2847052,31.875,5.2847052l-2.8749981-3.1847043"/><path class="st1" d="M50.8202782,1.6360949c0,0,5.5932045,4.9875731,7.4682045,11.2250738 C59.7883301,17.8506565,60.5,25.625,60.5,25.625l-1.5250015,0.5249996c0,0-0.7312508-8.0874996-3.4937477-12.7749996 C52.71875,8.6875,48.15625,5.2847052,48.15625,5.2847052l2.875-3.1847043"/><g><g><defs><rect id="SVGID_1_" x="47.15625" y="19.833334" width="10.510417" height="10.510417"/></defs><clipPath id="SVGID_2_"><use xlink:href="#SVGID_1_" style="overflow:visible;"/></clipPath><g class="st2"><defs><rect id="SVGID_3_" x="47.15625" y="19.833334" width="10.510417" height="10.510417"/></defs><clipPath id="SVGID_4_"><use xlink:href="#SVGID_3_" style="overflow:visible;"/></clipPath></g><g class="st2"><defs><rect id="SVGID_5_" x="47.15625" y="19.833334" width="10.510417" height="10.510417"/></defs><clipPath id="SVGID_6_"><use xlink:href="#SVGID_5_" style="overflow:visible;"/></clipPath><path class="st3" d="M54.8468513,27.1719322c0.0257492,0,0.0420303,0.0015965,0.0579224-0.0002308 c0.241436-0.027916,0.4477234,0.0523834,0.6325493,0.2022934c0.1964302,0.1593266,0.3355675,0.3628082,0.4551239,0.582119 c0.1270256,0.2330589,0.224575,0.4786339,0.305233,0.7306633c0.1082039,0.3381939,0.1962051,0.6816845,0.2513237,1.0330067 c0.0186043,0.1186619,0.0385208,0.2371254,0.0573959,0.3557453c0.0097656,0.0614223,0.0008316,0.0680237-0.0600548,0.0480633 c-0.3057594-0.1001835-0.6055908-0.2150631-0.8980103-0.3499336c-0.2748909-0.1267872-0.5413589-0.2685299-0.7948494-0.4337959 c-0.2098961-0.1368561-0.4034538-0.2945957-0.5716095-0.4809246c-0.1521187-0.1685562-0.2662315-0.3594151-0.30513-0.5867653 c-0.0279236-0.1631737-0.0020905-0.3209457,0.0666695-0.4714966c0.0120964-0.0264759,0.0257378-0.0522594,0.0386772-0.0783672 c-0.0028076-0.0033951-0.0056-0.0067883-0.008419-0.0101833c-0.0432091,0.0285664-0.0870552,0.0562191-0.129509,0.0858688 c-0.1550064,0.1082363-0.3093643,0.2174301-0.4643059,0.3257618c-0.3152618,0.2204132-0.630764,0.4405117-0.9461479,0.6607571 c-0.0334053,0.0233326-0.0687904,0.0443974-0.0994835,0.0708714c-0.030941,0.0267086-0.0539169,0.0202007-0.0845146-0.0013351 c-0.3399277-0.2391853-0.6807709-0.4770565-1.021328-0.7153282c-0.196312-0.1373596-0.3925018-0.2748985-0.5890465-0.4119244 c-0.0084381-0.0058746-0.0178986-0.0152073-0.0340309-0.0068836c0.0177841,0.0552216,0.0499763,0.1044102,0.0685806,0.1597271 c0.087204,0.2593021,0.0415154,0.5015678-0.0914116,0.7319241c-0.1456528,0.2524281-0.3586998,0.4417324-0.5887299,0.6135769 c-0.283886,0.21208-0.5945206,0.3791103-0.913765,0.5299358c-0.3086472,0.1458111-0.6273232,0.2672997-0.9520226,0.3727722 c-0.04842,0.0157337-0.0572395,0.0095959-0.0492935-0.0445004c0.0297546-0.2024307,0.057869-0.4052505,0.1004372-0.6054745 c0.0623283-0.293272,0.1371727-0.5833588,0.2334366-0.8675194c0.0655022-0.1933804,0.1399689-0.3836193,0.2325554-0.5654907 c0.115139-0.2261734,0.2479935-0.4411125,0.4375877-0.6150379c0.1551666-0.1423321,0.3288918-0.2411728,0.5449333-0.2607212 c0.0682678-0.0061817,0.1349678,0.0059795,0.2094307,0.0023956c-0.021389-0.0359344-0.0504379-0.0536556-0.0764732-0.0679188 c-0.1161079-0.0635452-0.158802-0.172823-0.1884193-0.2904549c-0.0714912-0.2839069-0.1228561-0.5717983-0.1686287-0.8608246 c-0.0337715-0.2132454-0.0725327-0.4257145-0.1054001-0.6390953c-0.0326233-0.2117958-0.0604553-0.4243279-0.090744-0.6364803 c-0.0289268-0.2024612-0.06007-0.4046288-0.0869446-0.6073551c-0.0198441-0.1497211-0.0331802-0.3002815-0.0516472-0.4502029 c-0.0181084-0.1469135-0.0318031-0.2939339-0.0392342-0.4419422c-0.0066032-0.131506,0.0561867-0.213623,0.1662941-0.2673111 c0.1310234-0.0638809,0.2720642-0.1013203,0.4093056-0.1486912c0.0308723-0.0106468,0.0620766-0.0203362,0.0930176-0.0307541 c0.0340462-0.0114651,0.0397415-0.0300999,0.0155258-0.0580063c-0.1270599-0.1463776-0.2538795-0.2929668-0.3805923-0.4396286 c-0.0383224-0.0443649-0.0749817-0.0902214-0.1144371-0.1335468c-0.027832-0.0305519-0.0170898-0.0596046-0.0031013-0.0901356 c0.035347-0.0772114,0.0705338-0.1544724,0.1060066-0.2316189c0.0409508-0.0890236,0.0815086-0.178236,0.123436-0.2668076 c0.0256233-0.0541382,0.0284081-0.0552425,0.0698204-0.0088921c0.0650902,0.0728703,0.1277847,0.1478825,0.1910172,0.2224007 c0.084259,0.0992928,0.1681023,0.1989517,0.2520485,0.2985172c0.1017952,0.1207218,0.2040405,0.2410564,0.3048325,0.3626099 c0.0232201,0.0280094,0.0388908,0.0364399,0.0685806,0.0051193c0.086483-0.0912628,0.1649818-0.187149,0.1863518-0.3152084 c0.015377-0.0921555,0.0082588-0.1847839-0.007431-0.2771797c-0.0146637-0.0863438-0.0391731-0.17132-0.0354309-0.2605343 c0.0056458-0.1344051,0.0575867-0.2369881,0.1836815-0.2987881c0.125515-0.0615082,0.2580719-0.1006813,0.3918152-0.1375504 c0.0122452-0.0033741,0.0243835-0.0071373,0.0444603-0.0130329c-0.1674309-0.0707569-0.289772-0.1884308-0.4058189-0.3111305 c-0.1499405-0.1585388-0.2908745-0.3253803-0.4202271-0.5015774c-0.026001-0.0354309-0.0533829-0.0698414-0.080143-0.1047153 c-0.0057068-0.0074406-0.0167503-0.0132637-0.0126305-0.0243416c0.0043716-0.0117092,0.0165215-0.0083351,0.0257378-0.0083561 c0.184227-0.000452,0.3678436,0.0004196,0.5513992,0.0266018c0.2463226,0.0351467,0.480484,0.1051044,0.7015152,0.2180595 c0.1533165,0.0783443,0.294796,0.1745243,0.4142685,0.2998829c0.0289459,0.0303535,0.0469627,0.041832,0.0863342,0.0067787 c0.191288-0.170269,0.4927292-0.1765213,0.6798325-0.0178146c0.0311737,0.0264435,0.0509872,0.0230598,0.0803223-0.0066948 c0.2303047-0.23353,0.5103035-0.3808765,0.8237762-0.4696255c0.1696892-0.0480328,0.3419037-0.0755081,0.5179405-0.0898132 c0.0975266-0.007925,0.1959686,0.0057182,0.2925682-0.0158386c0.012394-0.0027637,0.0326347-0.0086288,0.0396461,0.0080605 c0.0060005,0.0143166-0.0081139,0.0263939-0.0167198,0.0382175c-0.1121178,0.1540184-0.2242432,0.30826-0.3477592,0.4532719 c-0.1183586,0.138979-0.237915,0.2776108-0.3853455,0.3882751c-0.0422211,0.0317001-0.0876541,0.0565357-0.1368446,0.075098 c-0.0118561,0.0044765-0.0280838,0.0067463-0.0284424,0.0227337c-0.0004501,0.0197067,0.0182991,0.014473,0.0295792,0.0175514 c0.1495705,0.0407715,0.2987785,0.0816345,0.4376831,0.1537571c0.1120949,0.0582066,0.1591072,0.1538105,0.1684608,0.2731552 c0.008934,0.1138077-0.0284309,0.2221489-0.0429344,0.3332024c-0.0220604,0.1689758-0.0009346,0.3248653,0.1172752,0.458065 c0.0259705,0.0292606,0.0523224,0.0581532,0.0783768,0.0873203c0.0202942,0.0227222,0.034893,0.0163651,0.0514259-0.0032578 c0.0734482-0.0871735,0.1474609-0.1738644,0.22089-0.2610378c0.0839119-0.0996075,0.1672516-0.199667,0.2511444-0.2992725 c0.0880966-0.1046009,0.1773529-0.2082329,0.2645798-0.3135471c0.056839-0.0686226,0.0623589-0.0699692,0.099144,0.0087452 c0.0753479,0.1612492,0.1484909,0.3235302,0.2231789,0.485096c0.0161438,0.0349274,0.0125389,0.0623379-0.0140724,0.0928497 c-0.1123695,0.1288261-0.221981,0.2600594-0.3331718,0.389925c-0.048748,0.0569363-0.0985756,0.112957-0.1484604,0.1689148 c-0.0316467,0.0354824-0.0287781,0.0495148,0.0163956,0.0653419c0.1509209,0.0529099,0.3051186,0.0964546,0.4530945,0.1577301 c0.0591125,0.0244675,0.112957,0.0563049,0.1551361,0.1066799c0.0377007,0.0450172,0.0533905,0.0947628,0.0530663,0.1532116 c-0.000885,0.1582451-0.0189934,0.3148079-0.0387535,0.4714546c-0.021347,0.1691551-0.0385399,0.3388348-0.0606346,0.5078945 c-0.0233421,0.1786251-0.0504608,0.3567562-0.0756645,0.5351391c-0.0206718,0.1462936-0.039959,0.292799-0.061718,0.4389343 c-0.0231857,0.1557655-0.0480537,0.3112659-0.0730896,0.4667377c-0.0273552,0.1699104-0.0545578,0.3398533-0.0839348,0.5094185 c-0.0468979,0.2706852-0.0941315,0.5411282-0.1691437,0.8062229c-0.0311737,0.1101475-0.1047592,0.176815-0.1921844,0.2367458 c-0.0134201,0.0092068-0.0260315,0.0196228-0.0386467,0.0299129 C54.8578682,27.1548634,54.8559227,27.1592464,54.8468513,27.1719322 M52.3942986,20.7114735 c-0.1559525,0.0077248-0.2665634,0.0856285-0.341713,0.2240505c-0.1726875-0.2133942-0.3876152-0.3658257-0.6395607-0.4669151 c-0.2492332-0.1000061-0.5087662-0.1426258-0.7866096-0.1455688c0.161335,0.2042484,0.3196411,0.3949718,0.5062561,0.5605526 c0.0829163,0.0735722,0.1783295,0.1177158,0.2866821,0.1402397c0.1831551,0.0380688,0.3688087,0.0520802,0.5547295,0.0633049 c0.0359955,0.0021744,0.044426,0.0108776,0.0464439,0.0464134c0.0109329,0.1925182,0.18367,0.3523521,0.3742142,0.3499336 c0.2072029,0.0126648,0.3860054-0.146904,0.3984909-0.360014c0.0021744-0.0371647,0.0136414-0.045351,0.0469704-0.0475178 c0.128849-0.0083656,0.2569389-0.0241108,0.3846092-0.0438271c0.1690369-0.0260983,0.3296051-0.0697899,0.4524193-0.2001286 c0.0493355-0.0523529,0.1012573-0.1023293,0.1494789-0.1556702c0.1104851-0.1222363,0.2133522-0.2506943,0.3165016-0.3912296 c-0.5531731,0.0262451-1.0362129,0.1868954-1.3995361,0.6208191 C52.6599083,20.7772579,52.5467834,20.7084465,52.3942986,20.7114735 M50.3499184,22.624054 c-0.2455444-0.2897186-0.4911003-0.5794506-0.7397957-0.8729c-0.0343094,0.0745506-0.0626335,0.1406384-0.0950699,0.2046471 c-0.0159531,0.0315113-0.0099716,0.051712,0.0123215,0.0775471c0.2030296,0.2353687,0.4045753,0.4720211,0.6065559,0.7082863 c-0.0391617,0.0272312-0.0846825,0.040844-0.127964,0.0591202c-0.1881294,0.0794582-0.3863335,0.1307182-0.5761833,0.2053642 c-0.1331978,0.0523624-0.142868,0.0698833-0.1295738,0.2106915c0.0402565,0.4263973,0.0977364,0.8507023,0.1573105,1.2746506 c0.0788803,0.5613403,0.1624908,1.1220284,0.2635803,1.6798897c0.037838,0.2088318,0.0745621,0.4179993,0.1337776,0.6223736 c0.0133896,0.0462055,0.0372276,0.0808792,0.0767899,0.1090145c0.1517601,0.1079006,0.3019829,0.2179546,0.4527893,0.3272209 c-0.0463638,0.0549698-0.0946388,0.1084785-0.1382866,0.1655293c-0.023304,0.0304585-0.041172,0.03438-0.0754967,0.0153027 c-0.1066589-0.0592575-0.2205315-0.0970421-0.3439941-0.1027279c-0.2358131-0.0108585-0.4185791,0.0967903-0.5759201,0.258503 c-0.1886711,0.1939278-0.3148804,0.428236-0.4221382,0.6731815c-0.178196,0.4069328-0.2947998,0.833025-0.3851967,1.2667999 c-0.0229149,0.1099491-0.0419579,0.2207088-0.0635796,0.3353653c0.0151901-0.0037098,0.0230408-0.0048447,0.030323-0.0075245 c0.525322-0.1939812,1.0326576-0.4246006,1.4959908-0.7429714c0.2152748-0.147913,0.4150429-0.3138504,0.5649452-0.5314598 c0.1306114-0.1895866,0.1953049-0.3946552,0.1329651-0.6253681c-0.0348206-0.1288795-0.1049995-0.2387352-0.1930122-0.3373013 c-0.0192986-0.0216084-0.0193825-0.0331078-0.0000534-0.0546112c0.0534554-0.0595207,0.1037827-0.1218472,0.1553459-0.1830711 c0.0098457,0.0055389,0.0202522,0.0102901,0.0294685,0.0167332c0.5251656,0.3671188,1.0500336,0.7346458,1.5755234,1.1012917 c0.0694427,0.0484524,0.1356392,0.1019402,0.2108078,0.1419544c0.0138931,0.0051174,0.0200539-0.0076103,0.0284004-0.0134239 c0.4061737-0.2829189,0.8120422-0.5662689,1.218071-0.8493977c0.1901665-0.1325989,0.3805504-0.2648735,0.5708427-0.3972931 c0.0476456,0.0560513,0.0928078,0.1145096,0.1438446,0.1672935c0.0321198,0.0331917,0.0285034,0.0521622-0.0005264,0.0863628 c-0.2543602,0.2996216-0.2713127,0.6138096-0.0515823,0.9400311c0.1354904,0.2011395,0.3164902,0.3566818,0.5112381,0.4970703 c0.3653831,0.2634106,0.7659225,0.4621944,1.1791,0.6373405c0.1305046,0.0553169,0.2620659,0.1079636,0.3970184,0.1538734 c0.0063896-0.0211277,0.0010834-0.0385437-0.0022507-0.0559902c-0.0211983-0.1107063-0.04039-0.2218437-0.0640602-0.3320236 c-0.0921326-0.4288673-0.2098808-0.8499775-0.3908615-1.2510548c-0.1095047-0.2427063-0.2380791-0.4737682-0.431263-0.6618195 c-0.1520119-0.1479568-0.327652-0.2422981-0.5476646-0.2327328c-0.1288986,0.0056019-0.246006,0.0478115-0.3581123,0.1078587 c-0.0155144,0.0083027-0.0295868,0.0207882-0.0461922-0.0008831c-0.0495987-0.0647869-0.109539-0.1211967-0.1546288-0.1897354 c0.1291504-0.0919762,0.2549171-0.189249,0.3885384-0.2741737c0.0961189-0.0610867,0.1425095-0.1425743,0.1668015-0.2504425 c0.1250496-0.5552444,0.2084503-1.1176453,0.2927132-1.6798382c0.0583839-0.3895054,0.1111259-0.7798729,0.1630592-1.1703033 c0.0301628-0.2268562,0.0565758-0.4542179,0.0751495-0.6825142c0.006073-0.0747604-0.0221443-0.1149426-0.0876579-0.1430893 c-0.1067009-0.0458565-0.2178497-0.0783348-0.3271141-0.1164875c-0.1429634-0.0499344-0.2879448-0.0947495-0.4224586-0.1661892 c0.2028542-0.2372532,0.4058075-0.4743881,0.6082611-0.711977c0.0115623-0.0135784,0.0332336-0.023941,0.0214424-0.0492611 c-0.0346107-0.0742893-0.0685081-0.148901-0.1054306-0.2294121c-0.2507477,0.2952595-0.4960098,0.5840645-0.7412796,0.8728809 c-0.0638618-0.0309429-0.1179276-0.0759907-0.1698914-0.1228886c-0.199604-0.1801376-0.3110657-0.396946-0.2716408-0.6735611 c0.0133476-0.0936775,0.0312691-0.1867065,0.0444794-0.2804165c0.0149803-0.1062603-0.0136108-0.1574154-0.1105881-0.2029037 c-0.0874786-0.0410233-0.1794777-0.0704098-0.2736206-0.0898438c-0.2188377-0.0451622-0.4326591-0.1292992-0.6636047-0.0875511 c-0.0308685,0.0055809-0.0425262,0.0133266-0.0496292,0.044754c-0.0213165,0.0941925-0.0683517,0.1754608-0.1359215,0.2452068 c-0.1102562,0.1137962-0.2483292,0.1574154-0.4021301,0.1629753c-0.0130653-0.0088081-0.0283546-0.0062218-0.0427246-0.0085564 c-0.1908913-0.0310364-0.3524971-0.1145306-0.4150887-0.3057899c-0.0336304-0.1028023-0.0791321-0.1369495-0.1802101-0.1330299 c-0.0806885,0.0031319-0.1614189-0.0221138-0.2433891-0.0007458c-0.0599403,0.0156288-0.1217003,0.0240993-0.1821671,0.037899 c-0.1559334,0.0356007-0.3119507,0.070158-0.4601059,0.1337681c-0.0840378,0.0360813-0.1187134,0.0947399-0.1123772,0.1845722 c0.0058975,0.0836105,0.0238686,0.1649818,0.039814,0.2466068C50.8645096,22.1727161,50.626133,22.4641914,50.3499184,22.624054 "/><path class="st4" d="M54.6325531,22.7420197c0.1345139,0.0714397,0.2794914,0.1162663,0.4224548,0.1661911 c0.1092682,0.0381527,0.2204132,0.070631,0.3271141,0.116497c0.0655136,0.0281467,0.0937347,0.0683193,0.0876579,0.1430798 c-0.0185585,0.2282963-0.0449829,0.4556675-0.0751495,0.6825237c-0.0519295,0.3904209-0.1046715,0.780798-0.1630592,1.1702938 c-0.0842514,0.562191-0.1676598,1.1245937-0.2927017,1.6798382c-0.0242996,0.1078777-0.070694,0.1893654-0.1668129,0.2504406 c-0.133606,0.0849247-0.2593842,0.1821995-0.388485,0.2741337c-0.061348,0.0447845-0.1227303,0.0896225-0.1841125,0.134449 c-0.1902885,0.1324215-0.3806763,0.2646942-0.5708389,0.3972931c-0.4060173,0.2831402-0.8119011,0.5664902-1.2180748,0.849411 c-0.0083466,0.0058022-0.0145035,0.0185299-0.0284004,0.0134106c0.0002213-0.0261173,0.0006447-0.0522461,0.0006523-0.0783768 c0.0002441-0.5225143,0.0004311-1.0450287,0.0006332-1.5675545c0.0112534,0.0018501,0.0227318,0.0028381,0.0337257,0.0056648 c0.1762085,0.0453644,0.3556519,0.0602779,0.534832,0.0325089c0.7211838-0.1117573,1.1972008-0.5330238,1.4857025-1.1877499 c0.0111694-0.0253716,0.0058098-0.0326042-0.0206451-0.0386162c-0.1783905-0.0404739-0.3523483-0.0967064-0.5256348-0.1545238 c-0.04533-0.0151234-0.0623283-0.0058022-0.0826645,0.0369968c-0.1559753,0.3281994-0.4020882,0.5525112-0.7621727,0.633831 c-0.2391319,0.0540028-0.4638557,0.0153656-0.6644058-0.1333256c0.0000839-0.1070995,0.0001793-0.214222,0.0002632-0.3213348 c0.0143242-0.0076923,0.0285263-0.0156498,0.0430069-0.0230389c0.4361191-0.2227249,0.73983-0.5667114,0.9298782-1.0149174 c0.0088501-0.0209045,0.0188675-0.0366058-0.01688-0.0444889c-0.1754799-0.0386677-0.3454857-0.0968552-0.5169754-0.1496792 c-0.0665512-0.0204964-0.06567-0.0201797-0.0947418,0.0401707c-0.0812874,0.1687031-0.1894188,0.3161106-0.3425217,0.4273529 c-0.0007782-0.1349964-0.0015564-0.2699909-0.0023346-0.4049873c0.1169281-0.1227608,0.2561073-0.2110596,0.4157181-0.2673225 c0.3352203-0.1181679,0.7096748-0.0357132,0.9161415,0.2404366c0.0191689,0.0256557,0.0305519,0.0122662,0.0462227,0.0000954 c0.1703758-0.1323166,0.3403397-0.2651367,0.5117645-0.3960743c0.0269585-0.0205803,0.0238152-0.0337505,0.0051193-0.0567665 c-0.3649025-0.4494152-0.8332787-0.6132202-1.3992615-0.5080109c-0.1748009,0.0324879-0.3363457,0.1016674-0.4938316,0.1815453 c-0.0003052-0.0605488-0.0019264-0.1211205-0.0005913-0.1816406c0.0019341-0.088129-0.0067787-0.1764793,0.004921-0.2644215 c0.0977554,0.0466576,0.1776657,0.1152687,0.2429352,0.2008553c0.0153656,0.0201492,0.0251732,0.0225334,0.0457649,0.0064106 c0.1723595-0.1348591,0.3453064-0.2689495,0.5189171-0.4022121c0.0227051-0.0174255,0.020813-0.0286407,0.0044365-0.0495987 c-0.1317253-0.1684818-0.2902031-0.3040657-0.4815674-0.4010258c-0.1069412-0.0541916-0.2202454-0.089159-0.3358574-0.118084 c0.000103-0.3472214,0.0001984-0.6944447,0.0003128-1.041666c0.153801-0.0055714,0.2918663-0.0491772,0.4021187-0.1629848 c0.0675735-0.0697479,0.1146049-0.1510143,0.1359215-0.2451973c0.007103-0.0314274,0.0187607-0.0391827,0.0496292-0.0447636 c0.2309456-0.041748,0.4447708,0.0423889,0.6636086,0.0875607c0.0941505,0.0194244,0.1861382,0.048811,0.2736168,0.0898438 c0.0969772,0.0454788,0.1255684,0.0966434,0.1105919,0.2029037c-0.0132141,0.0937004-0.0311317,0.1867275-0.0444832,0.2804184 c-0.0394249,0.2766018,0.0720406,0.493412,0.2716446,0.6735497c0.0519638,0.046896,0.1060295,0.0919437,0.169899,0.1228771 C54.4827156,22.6730404,54.5552711,22.7118874,54.6325531,22.7420197"/><path class="st5" d="M52.3834305,26.9736519c-0.0001984,0.5225258-0.0003891,1.0450401-0.0006294,1.5675564 c-0.0000114,0.0261288-0.0004311,0.0522461-0.0006599,0.0783749c-0.075161-0.0400124-0.1413574-0.0935001-0.2108002-0.1419525 c-0.5254898-0.3666458-1.0503578-0.7341747-1.5755196-1.1012917c-0.0092278-0.006443-0.0196228-0.0111942-0.0294838-0.0167332 c-0.0568199-0.0485592-0.1192398-0.0892544-0.181881-0.1296463c-0.1508026-0.1092663-0.3010406-0.2193108-0.4528008-0.3272209 c-0.0395508-0.0281353-0.0633888-0.0628109-0.0767784-0.1090145c-0.0592155-0.2043648-0.0959396-0.4135418-0.1337776-0.6223736 c-0.1010857-0.5578613-0.1846962-1.1185493-0.2635765-1.6798897c-0.0595741-0.4239388-0.1170654-0.8482552-0.1573105-1.274641 c-0.013298-0.1408081-0.0036278-0.158329,0.12957-0.2107029c0.1898499-0.0746441,0.3880577-0.1259041,0.5761833-0.2053623 c0.0432816-0.0182781,0.0888023-0.031889,0.127964-0.0591221c0.0772705-0.0295029,0.1493225-0.0685902,0.2159882-0.1175804 c0.2762146-0.1598625,0.5145912-0.4513378,0.4368362-0.8493042c-0.0159454-0.0816231-0.0339203-0.1629944-0.039814-0.2465954 c-0.00634-0.0898418,0.0283356-0.1485004,0.1123772-0.1845837c0.1481552-0.0636082,0.3041687-0.0981674,0.4601021-0.1337662 c0.0604668-0.0137997,0.1222267-0.0222702,0.1821671-0.0379009c0.0819702-0.0213661,0.1627007,0.0038795,0.2433891,0.0007477 c0.101078-0.0039215,0.1465797,0.0302277,0.1802139,0.1330299c0.0625763,0.1912575,0.2241859,0.2747536,0.4150848,0.3057899 c0.01437,0.0023327,0.0296631-0.0002518,0.0427246,0.0085545l-0.0003014,1.0416775 c-0.1753998-0.0289459-0.3509636-0.0341167-0.5267639-0.0036469c-0.3959694,0.0686436-0.7298508,0.255476-1.0017662,0.5469627 c-0.4368477,0.4683228-0.6346931,1.0172081-0.5240402,1.6592045c0.0957489,0.5555706,0.5107765,0.9859314,1.0607109,1.1063156 c0.0303535,0.0066433,0.0425453,0.0184155,0.0510712,0.0476665c0.0867538,0.2977066,0.2494125,0.5444393,0.4972382,0.7333221 C52.0732574,26.8537502,52.224369,26.9215527,52.3834305,26.9736519"/><path class="st5" d="M54.1994591,27.3594666c0.0613785-0.0448265,0.1227608-0.0896645,0.1841087-0.134449 c0.0450401,0.0685902,0.1049805,0.1249905,0.1545906,0.1897755c0.0166054,0.0216732,0.0306778,0.0091858,0.0461807,0.0008831 c0.1121063-0.0600452,0.2292137-0.1022549,0.35812-0.1078587c0.220005-0.0095634,0.3956451,0.0847893,0.547657,0.2327442 c0.1931915,0.1880417,0.3217545,0.4191132,0.431263,0.661808c0.1809807,0.4010887,0.2987289,0.8221893,0.390873,1.2510662 c0.0236702,0.1101704,0.0428619,0.2213078,0.0640488,0.3320236c0.0033455,0.0174484,0.0086517,0.034853,0.0022507,0.0559883 c-0.1349525-0.045908-0.2665024-0.0985546-0.3970108-0.1538811c-0.4131851-0.1751461-0.8137245-0.37393-1.1791115-0.6373425 c-0.1947479-0.1403866-0.3757477-0.2959309-0.5112267-0.4970684c-0.219738-0.3262234-0.202774-0.6404114,0.0515747-0.9400311 c0.0290413-0.0342007,0.0326462-0.0531712,0.0005379-0.0863628 C54.2922668,27.4739876,54.2471008,27.4155178,54.1994591,27.3594666 M56.1067543,29.4723129 c-0.0006866-0.006506-0.0009155-0.0130959-0.0021439-0.0194969c-0.0672798-0.3478947-0.1499138-0.6918278-0.2755432-1.0238514 c-0.0787964-0.2082634-0.1693764-0.4108849-0.3052101-0.5902538c-0.0237045-0.0313015-0.0366745-0.0296078-0.0644608-0.0060539 c-0.1482315,0.1256618-0.2983093,0.2491589-0.4476814,0.3734875c-0.1431198,0.1191349-0.285759,0.2388592-0.4295921,0.3571434 c-0.0279045,0.0229549-0.0301132,0.0376682-0.003376,0.0652161c0.0959702,0.0989151,0.1990585,0.1890316,0.3117599,0.2682171 c0.2579269,0.1811886,0.5362854,0.3252869,0.8243217,0.4513264c0.1166458,0.0510597,0.2337837,0.1012573,0.3546028,0.1420174 C56.0862465,29.4957294,56.1100845,29.5113907,56.1067543,29.4723129 M54.9755592,27.5150318 c-0.1995316,0.0075455-0.3688316,0.1225719-0.5031013,0.2925453c-0.1211128,0.1533051-0.1564293,0.327116-0.089489,0.5159054 c0.018322,0.0516796,0.0179214,0.0509109,0.0584068,0.0170898c0.1704063-0.1423645,0.3414955-0.2838974,0.5120773-0.4260406 c0.1078796-0.0898952,0.2149696-0.180748,0.3231773-0.2702332c0.0262451-0.0217037,0.026432-0.0350513-0.0041542-0.0528679 C55.1887321,27.5426426,55.0995407,27.5155354,54.9755592,27.5150318"/><path class="st4" d="M50.3844528,27.2299614c0.0626411,0.04039,0.1250648,0.0810871,0.1818924,0.1296444 c-0.0515633,0.061224-0.1018867,0.1235619-0.1553421,0.1830711c-0.0193291,0.0215149-0.0192337,0.0330029,0.000061,0.0546112 c0.0880165,0.098568,0.1581841,0.2084217,0.1930046,0.3373013c0.062336,0.2307148-0.0023537,0.4357834-0.1329575,0.62537 c-0.14991,0.2176075-0.3496819,0.3835449-0.5649452,0.5314579c-0.4633293,0.3183727-0.9706802,0.5489922-1.4959984,0.7429714 c-0.0072746,0.0026913-0.0151367,0.0038147-0.030323,0.0075264c0.0216179-0.1146584,0.0406647-0.2254181,0.0635872-0.3353672 c0.0903893-0.4337749,0.2069931-0.8598671,0.3851852-1.2667999c0.1072578-0.2449436,0.2334671-0.4792538,0.4221497-0.6731815 c0.1573334-0.1617126,0.3400955-0.2693596,0.5759201-0.258503c0.123455,0.0056858,0.2373352,0.0434704,0.3439941,0.1027298 c0.0343285,0.0190754,0.0521851,0.0151558,0.0754967-0.0153046 C50.2898178,27.338438,50.3381004,27.2849293,50.3844528,27.2299614 M48.6593895,29.4610691 c0.0002289,0.0407276,0.0034065,0.0429459,0.0359039,0.03088c0.3360176-0.1248112,0.6623878-0.2705593,0.9695015-0.4563618 c0.1861382-0.1126099,0.3642807-0.236517,0.5126114-0.3982506c0.0417824-0.0455627,0.0417175-0.0458355-0.0089111-0.0879192 c-0.2886772-0.239954-0.5776329-0.4795704-0.8657112-0.7202377c-0.0246048-0.0205479-0.036869-0.0216293-0.0574188,0.0059071 c-0.1192932,0.1598225-0.2066231,0.3367538-0.2806892,0.5205078c-0.1125259,0.2791557-0.1928673,0.56814-0.2561493,0.8620319 C48.6903648,29.3019619,48.6743355,29.3867722,48.6593895,29.4610691 M49.7662506,27.5144978 c-0.0838509-0.0014286-0.1616478,0.0200024-0.2356529,0.057272c-0.0794792,0.0400238-0.0785675,0.0431137-0.0101547,0.0994701 c0.2052078,0.1690292,0.409256,0.3394661,0.6137047,0.509409c0.0677071,0.0562725,0.1349831,0.113081,0.2031555,0.168787 c0.0118752,0.0097218,0.0268974,0.0286083,0.0388451-0.0032272c0.0398674-0.1062489,0.0558624-0.2131824,0.0249214-0.3254547 c-0.0446701-0.1620598-0.1446037-0.2800083-0.2776871-0.378397 C50.0154839,27.5625839,49.8979988,27.5213089,49.7662506,27.5144978"/><path class="st5" d="M52.3942986,20.7114716c0.1524849-0.003027,0.2656059,0.0657845,0.3493729,0.1944427 c0.3633385-0.4339218,0.8463745-0.594574,1.3995361-0.6208076c-0.1031494,0.1405239-0.2060127,0.2689819-0.3164978,0.3912182 c-0.0482216,0.0533409-0.1001434,0.1033173-0.1494789,0.1556702c-0.1228142,0.1303501-0.283371,0.1740303-0.4524117,0.2001286 c-0.1276817,0.0197182-0.2557602,0.0354614-0.3846169,0.043829c-0.033329,0.0021648-0.044796,0.0103626-0.0469704,0.0475178 c-0.0124779,0.2131081-0.1912918,0.3726768-0.3985062,0.3600235 C52.3945694,21.2261448,52.3944321,20.9688091,52.3942986,20.7114716"/><path class="st4" d="M52.3942986,20.7114716c0.0001335,0.2573376,0.0002708,0.5146732,0.0004272,0.7720222 c-0.1905212,0.0024166-0.3632584-0.1574154-0.3741989-0.3499451c-0.0020103-0.0355358-0.0104485-0.0442371-0.0464478-0.0464039 c-0.1859169-0.0112343-0.3715744-0.0252457-0.554718-0.0633144c-0.1083527-0.0225124-0.2037773-0.0666676-0.2866936-0.1402397 c-0.1866112-0.1655712-0.3449211-0.3563042-0.5062561-0.5605526c0.2778435,0.002943,0.5373764,0.0455627,0.7866135,0.1455688 c0.2519417,0.1010895,0.4668694,0.2535229,0.6395569,0.4669151 C52.1277313,20.7971001,52.2383537,20.7191963,52.3942986,20.7114716"/><path class="st4" d="M50.3499184,22.624054c-0.0666695,0.0489883-0.1387177,0.0880775-0.2159882,0.1175804 c-0.2019806-0.2362652-0.4035263-0.4729176-0.6065559-0.7082863c-0.0222931-0.025835-0.0282745-0.0460358-0.0123215-0.0775471 c0.0324364-0.0640087,0.0607605-0.1300964,0.0950699-0.2046471 C49.8588181,22.0446033,50.1043739,22.3343353,50.3499184,22.624054"/><path class="st5" d="M54.6325531,22.7420197c-0.077282-0.0301323-0.1498375-0.0689793-0.2169991-0.1177788 c0.2452621-0.288805,0.4905205-0.5776119,0.7412682-0.87286c0.0369339,0.0804996,0.0708199,0.1551132,0.1054306,0.2294006 c0.0117912,0.0253201-0.0098686,0.0356827-0.0214424,0.049263 C55.0383606,22.2676334,54.8354034,22.5047798,54.6325531,22.7420197"/><path class="st6" d="M52.3834305,26.9736519c-0.1590614-0.0520992-0.310173-0.1199017-0.4442825-0.222126 c-0.2478256-0.1888828-0.4104843-0.4356155-0.4972382-0.7333221c-0.0085258-0.0292511-0.0207176-0.0410233-0.0510712-0.0476665 c-0.5499344-0.1203842-0.964962-0.550745-1.0607109-1.1063156c-0.1106529-0.6419964,0.0871925-1.1908817,0.5240402-1.6592045 c0.2719154-0.2914867,0.6057968-0.4783192,1.0017662-0.5469627c0.1758003-0.0304699,0.3513641-0.0252991,0.5267639,0.0036469 c0.115612,0.0289249,0.2289047,0.0638924,0.3358498,0.1180744c0.1913605,0.0969696,0.3498383,0.2325439,0.481575,0.4010353 c0.0163765,0.0209465,0.0182686,0.0321732-0.0044365,0.0495987c-0.1736107,0.1332512-0.3465576,0.2673531-0.5189171,0.4022121 c-0.0205917,0.0161133-0.0303993,0.0137367-0.0457649-0.0064106c-0.0652695-0.0855865-0.1451797-0.1542091-0.2428741-0.2008018 c-0.1751137-0.0928593-0.3617668-0.1130714-0.5514412-0.0679073c-0.4171677,0.0993118-0.6847,0.3679161-0.8190956,0.7672291 c-0.0996704,0.2961197-0.0716171,0.5839062,0.1089401,0.847086c0.0718498,0.1047363,0.1661606,0.1853943,0.2824135,0.2434425 c0.0042152-0.0122032,0.0076828-0.0196648,0.0093651-0.0275059c0.0773163-0.3603706,0.2467003-0.6720467,0.4955673-0.9424057 c0.1373405-0.1491852,0.2972565-0.269371,0.4698563-0.37393c0.1574898-0.0798779,0.3190231-0.1490574,0.4938316-0.1815567 c0.5659866-0.1051979,1.0343513,0.0586071,1.3992653,0.5080109c0.0186844,0.0230179,0.0218391,0.0361977-0.0051193,0.056778 c-0.1714249,0.1309376-0.3414001,0.2637577-0.5117722,0.3960743c-0.0156631,0.0121708-0.0270462,0.0255604-0.0462151-0.0000954 c-0.2064781-0.2761497-0.5809326-0.3586044-0.9161415-0.2404366c-0.1596222,0.056263-0.29879,0.1445503-0.4157066,0.2673225 c-0.1611061,0.159832-0.2640533,0.3509331-0.3157654,0.5785675c0.1204605-0.0437031,0.2270775-0.0942783,0.3180885-0.1735897 c0.1531029-0.1112423,0.2612343-0.2586517,0.3425217-0.4273434c0.0290604-0.0603504,0.0281906-0.060667,0.0947304-0.0401707 c0.1714973,0.052824,0.341507,0.1110115,0.5169868,0.1496792c0.0357475,0.0078831,0.0257301,0.0235844,0.0168686,0.0444889 c-0.1900368,0.4482079-0.4937477,0.7921925-0.9298668,1.0149193c-0.0144844,0.0073872-0.0286827,0.0153446-0.0430069,0.0230274 c-0.0713768,0.0276947-0.1427536,0.0553894-0.2165794,0.0840302c0.0583649,0.0947094,0.1255379,0.1766701,0.2163048,0.2373142 c0.2005501,0.1486912,0.4252739,0.1873283,0.6644173,0.1333256c0.3600845-0.0813198,0.6061974-0.3056316,0.7621727-0.633831 c0.0203285-0.0428085,0.0373344-0.0521202,0.0826645-0.0369968c0.173275,0.0578175,0.3472443,0.1140499,0.5256348,0.1545238 c0.0264435,0.0060024,0.0318146,0.0132446,0.0206451,0.0386162c-0.2885132,0.654726-0.7645302,1.0759926-1.4857025,1.1877499 c-0.1791916,0.0277596-0.3586235,0.0128441-0.534832-0.0325089C52.4061661,26.97649,52.3946877,26.975502,52.3834305,26.9736519 "/><path class="st5" d="M52.3837357,23.8714161c-0.1726036,0.1045589-0.3325195,0.2247448-0.4698601,0.3739395 c-0.2488518,0.2703495-0.418251,0.5820351-0.4955635,0.9423962c-0.0016823,0.0078411-0.0051498,0.0153027-0.0093651,0.0275059 c-0.1162567-0.0580502-0.2105675-0.1386967-0.2824173-0.2434425c-0.1805458-0.2631817-0.2086105-0.5509663-0.1089401-0.8470879 c0.134407-0.3993111,0.4019318-0.6679153,0.8191109-0.7672291c0.1896706-0.0451508,0.3763123-0.02495,0.5514297,0.0679092 c-0.0117645,0.0878868-0.0030594,0.176239-0.0049858,0.2643681 C52.381813,23.7502937,52.3834305,23.8108654,52.3837357,23.8714161"/><path class="st5" d="M52.384201,25.0824966c-0.0910187,0.0793114-0.1976357,0.1298771-0.3180885,0.1735897 c0.0517044-0.2276459,0.1546631-0.418745,0.3157539-0.578577C52.3826447,24.8125153,52.3834229,24.9475002,52.384201,25.0824966 "/><path class="st5" d="M52.382164,26.1684361c-0.0907784-0.0606461-0.1579514-0.1425953-0.2163048-0.2373161 c0.0738258-0.0286407,0.1452026-0.056324,0.2165794-0.0840187 C52.3823433,25.9542122,52.3822479,26.0613346,52.382164,26.1684361"/><path class="st4" d="M56.1067543,29.4723091c0.0033302,0.0390892-0.0205078,0.023428-0.037323,0.0177517 c-0.1208191-0.0407486-0.237957-0.0909557-0.3546028-0.1420059c-0.2880363-0.1260414-0.5663948-0.2701378-0.8243217-0.4513378 c-0.1127014-0.0791855-0.2157898-0.169302-0.3117599-0.2682056c-0.0267372-0.0275478-0.0245323-0.0422726,0.003376-0.0652161 c0.1438332-0.1182842,0.2864723-0.2380199,0.4295921-0.3571548c0.1493721-0.1243286,0.2994499-0.2478256,0.4476814-0.3734875 c0.0277863-0.0235538,0.0407562-0.0252361,0.0644569,0.0060539c0.1358376,0.1793804,0.2264175,0.3819904,0.3052139,0.5902538 c0.1256294,0.3320236,0.2082748,0.6759567,0.2755394,1.0238628 C56.1058388,29.4592133,56.1060677,29.4658031,56.1067543,29.4723091"/><path class="st4" d="M54.9755592,27.5150318c0.1239815,0.0005035,0.2131729,0.0276108,0.296917,0.0763988 c0.0305862,0.0178165,0.0303993,0.0311642,0.0041542,0.0528679c-0.1082077,0.0894852-0.2152977,0.1803379-0.3231773,0.2702332 c-0.1705818,0.1421432-0.341671,0.2836761-0.5120773,0.4260406c-0.0404854,0.0338211-0.0400848,0.0345898-0.0584068-0.0170898 c-0.0669403-0.1887894-0.0316238-0.3626003,0.089489-0.5159054 C54.6067276,27.6376038,54.7760277,27.5225773,54.9755592,27.5150318"/><path class="st5" d="M48.6593933,29.461071c0.0149345-0.0742989,0.0309753-0.1591072,0.0491371-0.2434425 c0.063282-0.2938919,0.1436234-0.5828762,0.2561378-0.8620338c0.0740776-0.1837521,0.1614075-0.3606853,0.2806892-0.5205059 c0.0205612-0.0275383,0.0328255-0.0264549,0.0574188-0.0059071c0.2880936,0.2406673,0.5770454,0.4802837,0.8657227,0.7202358 c0.0506287,0.0420837,0.0506935,0.0423584,0.0089035,0.0879192c-0.1483231,0.1617355-0.3264732,0.2856426-0.5126038,0.3982506 c-0.3071136,0.1858044-0.6334839,0.3315411-0.9695015,0.4563637 C48.6627998,29.5040169,48.6596146,29.5017986,48.6593933,29.461071"/><path class="st5" d="M49.7662506,27.5144978c0.1317482,0.0068111,0.2492332,0.0480862,0.357132,0.1278591 c0.1330833,0.0983887,0.233017,0.2163372,0.2776871,0.378397c0.030941,0.1122723,0.014946,0.2192059-0.0249214,0.3254547 c-0.0119476,0.0318356-0.0269699,0.012949-0.0388451,0.0032272c-0.0681725-0.055706-0.1354485-0.1125145-0.2031555-0.168787 c-0.2044487-0.1699429-0.4084969-0.3403797-0.6137047-0.509409c-0.0684128-0.0563564-0.0693245-0.0594463,0.0101547-0.0994701 C49.6046028,27.5345001,49.6823997,27.5130692,49.7662506,27.5144978"/></g></g></g><g><g><defs><rect id="SVGID_7_" x="19.8773785" y="39.7066841" transform="matrix(0.1431656 -0.9896988 0.9896988 0.1431656 -24.9155369 90.5171204)" width="39.8827934" height="39.8827934"/></defs><clipPath id="SVGID_8_"><use xlink:href="#SVGID_7_" style="overflow:visible;"/></clipPath><g class="st7"><defs><rect id="SVGID_9_" x="19.8773785" y="39.7066841" transform="matrix(0.1431656 -0.9896988 0.9896988 0.1431656 -24.9155369 90.5171204)" width="39.8827934" height="39.8827934"/></defs><clipPath id="SVGID_10_"><use xlink:href="#SVGID_9_" style="overflow:visible;"/></clipPath><path class="st8" d="M45.2504311,53.3409157c0.1132965-0.0530434,0.2265472-0.1060562,0.3397942-0.1590652 c0.3969879-0.1574821,0.8084717-0.1914902,1.229454-0.1440544c0.908577,0.1756401,1.4989357,0.8654251,1.692791,1.6984978 c0.0870895,0.3743935,0.1028061,0.7487793,0.0309334,1.1194382c-0.1271133,0.6555939-0.427845,1.2199059-0.923439,1.682972 c-0.3373413,0.3151321-0.715992,0.5302734-1.1663284,0.6228104c-0.1227684,0.0252037-0.2024994,0.0738335-0.2105179,0.2256432 c-0.01688,0.3206253-0.1304855,0.6335068-0.0768585,0.9740067c2.1819649-0.7866783,4.3630905-1.5731087,6.5930977-2.3770981 c-0.1069946,0.2103539-0.115818,0.3975487-0.1484222,0.5803413c-0.015316,0.0857964-0.1080704,0.097683-0.1639633,0.1155128 c-0.7742348,0.2464905-1.5320473,0.5387993-2.2960396,0.813652c-0.6761208,0.2431984-1.3497238,0.4935265-2.0266151,0.7345581 c-0.6393852,0.2277184-1.282383,0.4453163-1.9217682,0.6730347c-0.0870094,0.0309753-0.1706696,0.0777893-0.167511,0.2055473 c0.0027161,0.1102028-0.0281334,0.2212372-0.0478859,0.357769c2.1915054-0.7782402,4.3653412-1.5502167,6.5554123-2.3279839 c0.0277939,0.1515923,0.0590935,0.2979279,0.0798225,0.4457588c0.0110703,0.0786514-0.0436974,0.1048622-0.1156616,0.1301537 c-0.7579308,0.2663803-1.5141945,0.5376396-2.2703896,0.8090248c-0.91185,0.3272476-1.8224945,0.6578598-2.7350197,0.9830742 c-0.4657059,0.1659203-0.9320526,0.3309784-1.4033051,0.4798126c-0.1455612,0.0460014-0.222271,0.1043777-0.2270622,0.2625771 c-0.003933,0.129715-0.0343819,0.2585754-0.0573616,0.41745c2.3455124-0.8299904,4.6625671-1.6498718,6.9793205-2.4696426 c0.0813828,0.1614418,0.1614418,0.3203125,0.2395897,0.475399c-0.4519463,0.1627502-0.8975525,0.3259315-1.3450775,0.4837227 c-0.6097832,0.2150307-1.2256927,0.4136238-1.8305397,0.6416206c-0.8232002,0.3102951-1.6604271,0.5801964-2.4833565,0.8919754 c-0.8305283,0.3147163-1.6796494,0.5802383-2.5182343,0.8740387c-0.8487358,0.2973747-1.6941566,0.6041679-2.5418053,0.9046402 c-0.7966423,0.2824211-1.5943527,0.5616226-2.3914566,0.8428116c-0.8043213,0.2836838-1.6083641,0.5682602-2.4127426,0.8517761 c-0.0714684,0.0252075-0.1192055,0.0560226-0.1243095,0.1470413c-0.0078354,0.1385803-0.0367241,0.2758865-0.0607567,0.4420242 c0.331028-0.113266,0.6447868-0.2149277,0.9543762-0.3279114c0.4874268-0.177887,0.9716911-0.3642883,1.4579697-0.5454025 c0.5521698-0.2056427,1.1040077-0.4123306,1.6580048-0.6130676c0.6128998-0.2220764,1.2287636-0.4359512,1.8420067-0.657093 c0.3615952-0.1303635,0.719677-0.270462,1.0810432-0.4015045c0.565136-0.2050095,1.1366539-0.3934174,1.6963997-0.6121445 c0.6223145-0.2431641,1.2527504-0.4630661,1.8796043-0.6933212c0.518116-0.1902924,1.0350456-0.3838196,1.5524063-0.5761528 c0.8933182-0.3320274,1.7860985-0.6653404,2.6799889-0.9957542c0.3304596-0.1221313,0.6639175-0.2362976,0.9949379-0.3570175 c0.0731659-0.0266533,0.1426659-0.0245781,0.1839104,0.0385284c0.0837059,0.1280899,0.1970444,0.2243118,0.3397064,0.3326378 c-0.2340431,0.0921593-0.4450989,0.1800232-0.659626,0.2584381c-0.2884674,0.1054001-0.5808067,0.2002449-0.8693237,0.3054352 c-0.5479774,0.1997948-1.0944099,0.4036827-1.6414185,0.6059532c-0.9202538,0.3402214-1.8398247,0.6821098-2.760807,1.0201263 c-0.513073,0.188324-1.0299072,0.3664322-1.5425682,0.5557785c-1.1046677,0.4080009-2.206459,0.8236732-3.3118324,1.2295952 c-0.6740837,0.2474823-1.3543396,0.4780731-2.0287361,0.7247009c-0.5850372,0.2138977-1.1638336,0.4448166-1.7488785,0.6587524 c-0.6794586,0.2484818-1.3677025,0.4735184-2.0427818,0.733223c-0.5804787,0.2233429-1.1698608,0.4215851-1.7487259,0.6501999 c-0.6914864,0.2730865-1.4018021,0.4980774-2.099926,0.7549362c-1.088047,0.4003296-2.1718121,0.8123245-3.2591076,1.2146988 c-0.5978184,0.221199-1.2004662,0.429245-1.7986565,0.6493759c-0.9389229,0.3455811-1.8717766,0.7079926-2.8152676,1.0405807 c-0.5795326,0.2042542-1.1587772,0.4084778-1.7309895,0.6323242c-0.0440807,0.0172424-0.0771179,0.0280609-0.0984497-0.0169754 c-0.060751-0.128273-0.1258125-0.255722-0.1711273-0.3895721c-0.0212097-0.0625916,0.0365448-0.0938492,0.1024971-0.1168671 c0.4350395-0.1519775,0.8683605-0.309082,1.3005924-0.4689636c0.6367226-0.2355118,1.2691994-0.4828873,1.9096489-0.7076721 c0.2055454-0.0720596,0.4082909-0.1512146,0.6142159-0.2208786c0.0999947-0.0338135,0.1324825-0.0848465,0.1429825-0.1800003 c0.018898-0.1715927,0.0477962-0.3421021,0.0739632-0.5230026C27.1819592,68.7876434,26.938736,68.914299,26.685154,69 c-0.4744492,0.1603394-0.9421654,0.3393021-1.4202156,0.4916687c-0.5087643,0.1621475-1.0026379,0.3704147-1.5054188,0.5519257 c-0.5616169,0.2026978-1.1275501,0.3937302-1.6879482,0.5997086c-0.1293087,0.0475845-0.1766605,0.0233612-0.221302-0.1048355 c-0.1185684-0.3406219-0.1255589-0.3402252,0.2259731-0.4645462c0.8587036-0.303627,1.7215233-0.596138,2.576231-0.9105835 c0.8621635-0.3172302,1.7291203-0.620224,2.5996056-0.9130783c0.2080288-0.0700073,0.3555927-0.1604919,0.3425159-0.408844 c-0.004488-0.0845871,0.022049-0.1708145,0.0375404-0.2779007c-0.2398739,0.0762024-0.4730892,0.137001-0.6961918,0.2237244 c-0.7073021,0.2749176-1.4264412,0.5160446-2.1411743,0.7698898c-0.5209866,0.1850815-1.0374889,0.3829041-1.5575333,0.5706635 c-0.1796055,0.064888-0.3670864,0.1087341-0.5446644,0.1782684c-0.0769749,0.0301285-0.1090565,0.013443-0.1385441-0.0495758 c-0.0025635-0.0054092,0.0021896-0.0143127-0.000473-0.019577c-0.2089252-0.4149475-0.21031-0.4262695,0.2712574-0.5566864 c0.5080585-0.1375046,0.9884567-0.3509445,1.4860706-0.5167999c0.5725613-0.1908798,1.140852-0.3948669,1.7088566-0.5990982 c0.5194168-0.1867599,1.0367546-0.3795013,1.5534039-0.5738754c0.1670628-0.0628815,0.1647339-0.0690613,0.1942673-0.4311752 c-0.2299099,0.0805817-0.4511471,0.1558151-0.6707115,0.2356339c-0.5369053,0.1951141-1.0722218,0.3945618-1.6096764,0.5881805 c-0.5366077,0.1933441-1.076807,0.376976-1.6114693,0.5755157c-0.1356411,0.050415-0.2062035,0.036499-0.2385654-0.1097488 c-0.0081196-0.0366364-0.0410614-0.0671539-0.0594921-0.1021347c-0.085722-0.1626358-0.0332584-0.2481308,0.1399479-0.3083496 c0.6716499-0.2334824,1.3390484-0.4790726,2.0083351-0.7193451c0.669035-0.2401962,1.3376198-0.4817429,2.0086517-0.7162399 c0.0894318-0.0312729,0.139925-0.0613632,0.150034-0.1646729c0.0240364-0.2444382,0.0622883-0.4874268,0.0947819-0.7309952 c0.2733192-0.2023773,0.541111-0.4113922,0.780962-0.6537399l-0.1758518,1.2156525 c0.3228283-0.0610123,0.6080742-0.192627,0.9020367-0.2931213c0.5387459-0.184166,1.0710564-0.3870773,1.6059475-0.5824738 c0.6937904-0.2533798,1.3864689-0.5099335,2.0815563-0.7597351c0.6856842-0.2463646,1.3742638-0.4846153,2.0606041-0.7291145 c0.5744286-0.2046356,1.1461258-0.4171181,1.7224274-0.6163177c0.103508-0.0358047,0.0992966-0.1044769,0.1102867-0.1784859 c0.1035118-0.6958008,0.2062683-1.3916702,0.3092613-2.0875053l0.6512108,0.4644165L37.8139725,62.36409 c0.43573-0.1511955,0.8593025-0.2935486,1.2795181-0.4452934c0.5481873-0.1979103,1.0932503-0.4045753,1.6404953-0.6051216 c0.4219971-0.1545906,0.8456993-0.3045387,1.2679863-0.4583626c0.4989395-0.1817017,0.9975891-0.3655815,1.4977379-0.5428391 c0.5914421-0.2097054,1.1834946-0.4183159,1.7744408-0.6298676c0.0828667-0.029644,0.1126671-0.0699005,0.1237335-0.1503067 c0.0562592-0.407856,0.1145821-0.8154945,0.1772728-1.2224236c0.01334-0.0863609,0.0024643-0.117878-0.0947647-0.1455231 c-0.5177879-0.1473541-0.9356918-0.433075-1.2300072-0.8973236c-0.3241386-0.511322-0.4476929-1.0631828-0.3800468-1.6598015 c0.0273285-0.2404556,0.0580063-0.4815102,0.1353531-0.7131157c0.0616417-0.1291466,0.1214828-0.2592354,0.1853485-0.3873329 C44.43433,54.0186234,44.8150978,53.65485,45.2504311,53.3409157 M47.5337677,55.8939667 c0.0954704-0.5883636,0.0092087-0.9489746-0.215847-1.2788506c-0.2864304-0.4198685-0.7995338-0.6043472-1.2599449-0.4928741 c-0.8268127,0.200161-1.3992767,1.1648178-1.1776085,2.0385056c0.1854172,0.7309456,0.8519592,1.1414871,1.5835304,0.904377 C47.1281624,56.8498344,47.4389381,56.3509254,47.5337677,55.8939667 M36.6791687,65.4722824 c-0.9240646,0.32061-1.824913,0.6305923-2.7240028,0.9456635c-0.8151741,0.2857437-1.6292038,0.5747147-2.4423256,0.8663177 c-1.0805893,0.3875046-2.1591816,0.7807007-3.2412968,1.1640015c-0.0575104,0.0203705-0.0879936,0.0252304-0.0961418,0.0882492 c-0.0258389,0.1995239-0.0565529,0.3984604-0.0883961,0.6185989c0.2410641-0.0950089,0.453167-0.1851044,0.6697292-0.2628174 c0.7700367-0.2765198,1.545023-0.5396271,2.3117828-0.8249588c1.0421925-0.387825,2.082571-0.7798615,3.1323185-1.1474838 c0.7697983-0.2695847,1.5287704-0.5699081,2.2938957-0.8531418c0.060585-0.0223846,0.106205-0.0405273,0.1154022-0.1118927 C36.6301689,65.7993088,36.654274,65.6443787,36.6791687,65.4722824 M28.3089428,67.8573837 c0.7190742-0.2498779,1.4447422-0.4988022,2.16819-0.7541275c0.9552708-0.3371353,1.9083614-0.6806641,2.8632946-1.0188065 c0.4708176-0.1667099,0.9450645-0.3236923,1.4152527-0.4921875c0.489872-0.17556,0.9712791-0.3764801,1.4663048-0.5355759 c0.5502625-0.176857,0.55513-0.1617661,0.6205902-0.7435455c-0.0510521,0.004982-0.1040878,0.0005341-0.1503601,0.0162048 c-0.4416084,0.149498-0.8848381,0.2979126-1.3194962,0.4631653c-1.0368233,0.3941574-2.0895615,0.7426147-3.1314926,1.1216888 c-0.541317,0.1969299-1.0818768,0.3983688-1.6330452,0.5711823c-0.5934334,0.1861267-1.1638165,0.447197-1.7596054,0.6237183 C28.4564381,67.2252502,28.2238178,67.3972778,28.3089428,67.8573837 M45.1168404,61.3464355 c-0.3850479,0.1328964-0.771122,0.2622986-1.1544304,0.3993111c-0.6585503,0.235424-1.3145294,0.4781456-1.9732437,0.7130203 c-0.5409431,0.1929169-1.0845413,0.378315-1.6265945,0.5680847c-0.8173332,0.2861557-1.6366768,0.567028-2.4489632,0.8670502 c-0.1156693,0.0427094-0.2944527,0.0303459-0.3398056,0.1761513c-0.0511017,0.1643982-0.0559311,0.3431854-0.0840034,0.5372696 c0.4080696-0.1416092,0.7810326-0.2720261,1.1546516-0.4005661c0.9456367-0.325428,1.8852806-0.6679192,2.829216-0.9983063 c1.0226746-0.3579216,2.0410004-0.7292519,3.0647545-1.0848808c0.532074-0.1848488,0.5314217-0.1867561,0.5885506-0.7449188 C45.1274376,61.3737602,45.1238976,61.368412,45.1168404,61.3464355 M36.9702339,63.2386856 c-0.3784599,0.1397285-0.7622337,0.2858238-1.1490288,0.4232635c-0.8511276,0.3025055-1.7052116,0.5964813-2.555294,0.9018021 c-0.6576653,0.2362366-1.3107071,0.4851074-1.9663658,0.7269897c-0.4040279,0.1490479-0.8038445,0.3124466-1.2149696,0.4386673 c-0.4534588,0.1391983-0.8808632,0.3515244-1.3436413,0.4618073c-0.2056789,0.0490341-0.2849312,0.1865463-0.2851601,0.3928833 c-0.000103,0.1132584,0.0427876,0.1031418,0.1195335,0.0748749c0.3010139-0.1108017,0.6021347-0.2215042,0.9047146-0.3280792 c0.7071571-0.2491074,1.416214-0.492981,2.1226025-0.7442856c0.5796642-0.2062988,1.1556835-0.4227448,1.7348766-0.6302338 c0.5681915-0.2035599,1.1370659-0.4054565,1.7081795-0.6008148c0.4962006-0.1697693,0.979744-0.3748512,1.4857597-0.518013 C36.8160286,63.7570152,37.0777702,63.6371918,36.9702339,63.2386856 M37.6655502,63.3904037 c0.0406723,0.0222054,0.0618744,0.0129814,0.0882645,0.0032578c0.5548859-0.2043571,1.1044426-0.4259262,1.6674004-0.6050186 c0.9330788-0.2968559,1.8465195-0.6490211,2.7715607-0.9679985c0.9220695-0.3179512,1.8361588-0.6623688,2.7596321-0.9780235 c0.2096405-0.0716667,0.3184395-0.161068,0.3117752-0.3824196c-0.0019875-0.0653687,0.0172386-0.1314163,0.0277023-0.2037697 c-0.0286636,0.003994-0.0538864,0.0031242-0.0759125,0.0111008c-0.5377731,0.194706-1.0749512,0.3911438-1.6128578,0.5856667 c-1.0316772,0.3730621-2.0620689,0.7498169-3.0961952,1.1161613c-0.8876305,0.3144302-1.7653351,0.6571808-2.6631165,0.9431839 c-0.0679741,0.0216827-0.1257553,0.0656281-0.1330795,0.1541519 C37.7016029,63.177124,37.6805725,63.2865524,37.6655502,63.3904037"/><path class="st9" d="M46.8196793,53.0377884c-0.4209824-0.0474358-0.8324661-0.0134277-1.229454,0.1440544 c-0.0202599-0.3240662-0.0451431-0.6479149-0.0595169-0.9722557c-0.0184822-0.4165726-0.0238571-0.8337898-0.0438766-1.2503014 c-0.0118713-0.2472153,0.022007-0.4959068-0.0278015-0.7421608c-0.0078583-0.0387306-0.0007973-0.0811539,0.06353-0.1023941 c0.3384781-0.1118279,0.6769447-0.2235718,1.0028152-0.3716354c0.2279549-0.1035538,0.36903,0.0725632,0.5229683,0.1929169 c0.5029831,0.3931656,1.005764,0.7866287,1.5402451,1.2047043c-0.0016289-0.2246971,0.0025291-0.4086189-0.0052681-0.5920563 c-0.0198746-0.4679489-0.0455818-0.9356995-0.0676804-1.4036102c-0.0037613-0.0801353,0.0258331-0.1284409,0.1132851-0.1588287 c0.3249779-0.1129341,0.6488113-0.2305069,0.9668579-0.3615265c0.1428261-0.0588455,0.169178,0.009964,0.1742706,0.1179352 c0.0177345,0.3774567,0.0323372,0.7551041,0.0453682,1.1327705c0.0169411,0.4885216,0.0312386,0.9771881,0.0466003,1.4657669 c0.0110207,0.3516998,0.0249138,0.7033348,0.0308495,1.0551071c0.0016212,0.0943718,0.0345802,0.15765,0.1076088,0.2143974 c0.4835739,0.3758125,0.9640465,0.7555313,1.4478683,1.1310158c0.0802841,0.0623093,0.1721001,0.1098404,0.2757759,0.1750908 c0.0526733-0.2390442,0.0016251-0.4653244,0.0004311-0.6896782c-0.0019035-0.3386955-0.0288239-0.6774254-0.0256271-1.0159912 c0.0013657-0.1406403-0.0311623-0.1600952-0.1531639-0.1137123c-0.3705215,0.1408424-0.7449036,0.2715721-1.1133156,0.4176331 c-0.0646362,0.0256271-0.125515,0.0182724-0.1918335,0.0446663c-0.0148888-0.4929466-0.0259705-0.9751816-0.0447845-1.4571648 c-0.0274353-0.7028961-0.0609512-1.4055443-0.0905838-2.1083145c-0.0046654-0.1109276,0.0193367-0.2281075-0.00877-0.331871 c-0.0473175-0.1748848,0.0450668-0.2446976,0.1779709-0.2926102c0.7164612-0.2582741,1.4350967-0.5106735,2.1508102-0.7710342 c0.4895439-0.1780624,0.9756165-0.3658142,1.4780312-0.5548325c0.0584641,0.3839531,0.0131454,0.7543411,0.05653,1.1193924 c0.0109558,0.0922546-0.0803566,0.0891571-0.1189194,0.1019554c-0.3571243,0.1184387-0.7009125,0.2747498-1.0572853,0.3899498 c-0.321331,0.1038704-0.6290932,0.2404099-0.9479027,0.348877c-0.0858231,0.029171-0.1750298,0.0544281-0.26054,0.0758705 c-0.2189331,0.0548477-0.2678871,0.1770821-0.1812019,0.3854294c0.4392166-0.1594315,0.8861465-0.3217392,1.3453979-0.48843 c0.0192337,0.3818665,0.0370789,0.7487793,0.0567131,1.115593c0.0046883,0.0865517-0.063446,0.0867691-0.1164093,0.1063499 c-0.3792343,0.1400642-0.7548676,0.2911644-1.1394577,0.4144936c-0.1594353,0.0510864-0.1357117,0.1414413-0.1052856,0.2436447 c0.0365448,0.1226349,0.1297379,0.0458488,0.1844482,0.0261574c0.6456528-0.2323303,1.2894821-0.4696007,1.9314728-0.711731 c0.0551186-0.0207977,0.1105499-0.0346222,0.1651421-0.0531998c0.3268776-0.1112862,0.331707-0.111557,0.3392029,0.2361298 c0.0043678,0.2021217-0.0026207,0.4044952-0.0046387,0.6209679c1.1593933-0.4247093,2.3064041-0.8448792,3.4629478-1.2685471 c0.0711861,0.3620186,0.0381126,0.7149162,0.0703888,1.0631256c0.0073242,0.0791969-0.0411263,0.1127281-0.109726,0.1375809 c-0.6960602,0.252079-1.3916054,0.5056038-2.0867462,0.7602348c-0.256424,0.093956-0.5098648,0.1962395-0.7675972,0.2864189 c-0.1373596,0.0480728-0.0945625,0.1658897-0.0882378,0.2447395c0.0094681,0.1173058,0.1088715,0.0597153,0.1686325,0.0374527 c0.5477028-0.2043076,1.0919533-0.4181442,1.6419449-0.6159973c0.1956787-0.0704193,0.3881187-0.1685944,0.5877419-0.206131 c0.4876823-0.09161,0.679512,0.1331139,0.706871,0.640152c0.0192947,0.358017,0.0018425,0.7179718,0.0185661,1.0762215 c0.0146484,0.3143883-0.3473053,0.8862839-0.6685448,0.9532928c-0.2830391,0.0589943-0.5483856,0.2012253-0.8227768,0.3032188 c-0.5538254,0.205925-1.1084404,0.4098358-1.6629257,0.6139297c-0.3111,0.1144943-0.6245232,0.223053-0.9332771,0.3436127 c-0.1351395,0.0527878-0.1987152,0.0532227-0.1755333-0.1215019c0.0345039-0.2602501,0.0062256-0.5274849-0.0235252-0.7809105 c-0.0297966-0.2533913,0.1227646-0.2745209,0.2622833-0.3258286c0.7382469-0.2715263,1.4800529-0.5334282,2.2202606-0.7995529 c0.1034622-0.037178,0.2042084-0.0817642,0.3078651-0.1183472c0.2734871-0.0965652,0.2738647-0.0955467,0.2180977-0.3886375 c-0.7197418,0.2695236-1.4364204,0.5401802-2.1552467,0.8047638c-0.1150131,0.0423584-0.2394218,0.0780792-0.3604965,0.0812798 c-0.306488,0.0082512-0.5103302-0.1727142-0.5336266-0.4838791c-0.0277596-0.3700027-0.0157356-0.7433968-0.0515823-1.1123505 c-0.0238762-0.2461281,0.0662231-0.4452629,0.16782-0.6497879c0.0141411-0.0161285,0.0582085-0.0196266,0.0359001-0.0500946 c-0.0167503-0.0229378-0.0465202-0.010479-0.0616341,0.0168343c-0.068264-0.0186577-0.1086502,0.0396118-0.1622467,0.0605125 c-0.3548813,0.1383057-0.3409958,0.1386986-0.3212242,0.5168152c0.0347099,0.663208,0.0499306,1.3274231,0.0755348,1.9911652 c0.017601,0.4555359,0.0312309,0.9115067,0.0634308,1.366127c0.009491,0.1335907-0.0268135,0.1895523-0.1471748,0.2301712 c-0.3077469,0.1038589-0.6169853,0.2065735-0.9150276,0.334446c-0.1270027,0.0544891-0.2142258,0.0301018-0.3069954-0.039814 c-0.3849983-0.2903061-0.7684631-0.5826073-1.152317-0.8744431c-0.1953964-0.1485519-0.3903847-0.2976913-0.6098518-0.4650841 c0.0083466,0.2618561,0.0075111,0.494091,0.0249405,0.7248993c0.0313377,0.4157372,0.0020103,0.8338127,0.0547943,1.248661 c0.0122948,0.09692-0.0423508,0.1676788-0.13414,0.1965942c-0.328537,0.10355-0.6562767,0.2091103-0.9710159,0.3501625 c-0.0843658,0.0377655-0.1285858,0.0515175-0.1326981-0.0741234c-0.0134354-0.4096756-0.0422516-0.818882-0.0598488-1.2284737 c-0.0203705-0.4751205-0.0353088-0.9504585-0.0522346-1.4257202c-0.0123062-0.3450394-0.0274467-0.6900024-0.0337753-1.035141 c-0.0018044-0.0967369-0.0092087-0.1790047-0.0931129-0.2427673c-0.5615616-0.4269867-1.1215973-0.8558922-1.6829147-1.2831688 c-0.0234528-0.0178185-0.0545883-0.0254669-0.0790024-0.0363731 C46.7956429,52.1684723,46.807682,52.6031342,46.8196793,53.0377884"/><path class="st9" d="M28.7602139,64.4533615c-0.2398911,0.2423477-0.5076828,0.4513626-0.780962,0.6537399 c-0.4151974,0.2619171-0.8624115,0.4353867-1.3496609,0.509819c-0.9423618,0.1439896-1.7532024-0.1286926-2.443594-0.7702026 c-0.2654266-0.2466583-0.4794559-0.5393906-0.6138573-0.8786354c-0.0416336-0.1049957-0.1052113-0.1295853-0.1941376-0.1254845 c-0.4067383,0.0187378-0.7719841-0.1362534-1.1171265-0.3109856c-0.4205875-0.212841-0.7568798-0.5387383-1.0286026-0.9315796 c-0.2585011-0.3736382-0.4195843-0.7877884-0.5081196-1.2243309c-0.0871181-0.4298859-0.0961819-0.8714523-0.0254745-1.3073196 c0.1462116-0.9009895,0.5441265-1.6808167,1.1733418-2.3385735c0.6372013-0.666153,1.4264374-1.0478096,2.3423405-1.0919037 c0.8036957-0.0386848,1.5102291,0.2541656,2.1022778,0.811657c0.0773907,0.0728531,0.0393333,0.1125221-0.0020027,0.1567535 c-0.3030987,0.3243942-0.6085072,0.6466446-0.9156113,0.9672394c-0.0313721,0.0327377-0.0605316,0.0738564-0.1256161,0.0131416 c-0.5534782-0.516571-1.1854763-0.5597153-1.8467579-0.2566681c-0.7703972,0.3531113-1.1923523,0.9670639-1.3357391,1.8050728 c-0.1087875,0.6358795,0.0473366,1.1854401,0.4363499,1.670887c0.1608181,0.2006531,0.3974915,0.3312836,0.6406498,0.4360085 c0.0974865,0.0420303,0.0836906-0.0252876,0.0835781-0.0668526c-0.0019341-0.7109337,0.2673702-1.3466034,0.6188793-1.932663 c0.3239651-0.5402374,0.7706261-0.9856758,1.3280697-1.3166428c0.4947529-0.2937317,1.0192738-0.4544868,1.5858498-0.5017624 c0.342907,0.0322342,0.6876163,0.0531235,1.0178452,0.1640816c0.3927422,0.1292686,0.7364483,0.3381653,1.0432243,0.6162682 c0.069355,0.0629425,0.0957737,0.1176605,0.088419,0.2011032l0.001688-0.0010872 c-0.0438499-0.0470428-0.0623646-0.0065231-0.0836945,0.0242043c-0.2831841,0.2959251-0.5663967,0.5917664-0.849659,0.8876801 c-0.0686092,0.0865097-0.1078186,0.0948601-0.208128,0.0035439c-0.3092575-0.2815666-0.6963158-0.3935699-1.1082115-0.3762245 c-0.5165024,0.0217552-0.9583683,0.2326279-1.325388,0.5980301c-0.4318962,0.4300079-0.6840706,0.9411354-0.7197113,1.5803032 c0.6016331-0.3132896,0.947897-0.8071022,1.1531067-1.4055786c0.0442562-0.1290398,0.0838413-0.142498,0.1996517-0.1293716 c0.3540897,0.0401802,0.7008133,0.1396217,1.0629501,0.1199951c0.1667252-0.0090103,0.1039982,0.1259842,0.0843639,0.2001534 c-0.1174526,0.4439354-0.2944202,0.8658447-0.5536709,1.2442551c-0.372303,0.5434418-0.827137,1.0041389-1.4275761,1.3008385 c-0.0851078,0.0420494-0.1306553,0.0752754-0.0353584,0.1692123c0.4569206,0.4503021,1.0017262,0.6178818,1.6179638,0.4624176 c0.9017754-0.22752,1.4149647-0.8495522,1.6507549-1.7257309c0.2219448,0.0263023,0.4439335,0.0525703,0.6659164,0.0788765 c0.2080765,0.0358238,0.415554,0.0924721,0.6272125,0.0770721c0.0998611-0.0072746,0.0841846,0.0359116,0.0679569,0.0873642 C29.5392513,63.2811165,29.2516899,63.9220848,28.7602139,64.4533615"/><path class="st9" d="M38.0277061,60.8866882l-0.6512489-0.4644241 c-0.4770584-0.3670959-0.9541092-0.7342262-1.4629974-1.1258698c0.0119896,0.3539391,0.0214539,0.6645927,0.0333023,0.9751892 c0.0160866,0.4231186,0.0352516,0.8461189,0.0495949,1.2693062c0.0019188,0.0563736-0.0052299,0.1082878-0.0831909,0.1354942 c-0.2651215,0.0924988-0.5253448,0.1990395-0.7886696,0.2969551c-0.0722771,0.0269012-0.1037712,0.0042114-0.1056023-0.0837021 c-0.0095177-0.4559784-0.025383-0.9118271-0.0419006-1.3676071c-0.0134621-0.3713188-0.0308189-0.7424736-0.0467186-1.1136627 c-0.0147896-0.3448715-0.0369682-0.6896439-0.0412254-1.0346451c-0.0015297-0.1231308-0.0052643-0.1505089-0.1385498-0.1010818 c-0.6151085,0.2281647-1.2356834,0.4414749-1.8531837,0.6630478c-0.1000099,0.0358658-0.1444626,0.0810165-0.0654449,0.2028236 c0.523056,0.8065453,1.0357513,1.6198158,1.5523682,2.4305077c0.1026001,0.1610031,0.2093773,0.3193054,0.3109169,0.480957 c0.070713,0.1126289,0.1301384,0.1829224-0.0801239,0.2552643c-0.3562813,0.1226311-0.7120972,0.252903-1.0636024,0.3915367 c-0.0787659,0.0310783-0.1018333,0.0189552-0.1477432-0.0564728c-0.205719-0.3379173-0.2124634-0.338932-0.5850067-0.2033424 c-0.4574966,0.1665421-0.9077682,0.3541946-1.3702106,0.5050697c-0.1684475,0.0549011-0.2391129,0.1628723-0.2696095,0.2998657 c-0.0641937,0.2885971-0.2354698,0.4410515-0.5139751,0.5235519c-0.3165627,0.0937576-0.6227932,0.2224998-0.9753742,0.3513031 c0.1085052-0.2993507,0.1992645-0.5654449,0.3009682-0.8272591c0.2662849-0.6855507,0.5305176-1.371685,0.7785187-2.0642738 c0.1688385-0.4715652,0.3631878-0.9339561,0.5432549-1.4015198c0.0607586-0.1578827,0.1257935-0.3160744,0.1636868-0.4799652 c0.0221996-0.0960808,0.0968075-0.10149,0.1523972-0.1325378c0.0538788-0.0300865,0.1210327-0.0371742,0.1818638-0.0635147 c0.1329746-0.0576134,0.3328934-0.0604057,0.3851967-0.1765556c0.0492706-0.109375,0.0107956-0.2804832-0.0024986-0.4211922 c-0.0703888-0.7469521-0.0435486-1.4977264-0.1006203-2.2456512c-0.0281029-0.3684387-0.023407-0.7416039-0.0461693-1.1121674 c-0.0056-0.0916443,0.0338707-0.1386032,0.1259003-0.1705475c0.3323936-0.1154442,0.6611443-0.2413712,0.9903908-0.365696 c0.0922012-0.0348167,0.1106606-0.0214691,0.1191101,0.0878334c0.039711,0.5138588,0.0365791,1.0285759,0.0539932,1.5427971 c0.0144653,0.427639,0.0424156,0.8548088,0.0645943,1.2850952c0.8135071-0.2956581,1.6217651-0.5865135,2.4271507-0.8850784 c0.1256943-0.0465736,0.1781502-0.0367317,0.1738892,0.1077652c-0.010067,0.3367653,0.0596275,0.6739845-0.0038261,1.0103989 c-0.0096092,0.0511208,0.019577,0.0641251,0.0523872,0.0888596c0.5053024,0.3807716,1.0090065,0.7636871,1.5131035,1.1460953 c0.092968,0.1373253,0.2587929,0.1897202,0.3653908,0.3122139c0.0183792,0.0211563,0.063488,0.0391655,0.0874596,0.0313873 c0.0551682-0.017807,0.0155525-0.061821,0.0142517-0.097393c-0.026619-0.7194176-0.0482063-1.4390793-0.0812759-2.1581841 c-0.0029488-0.0640182,0.0045166-0.0718842,0.0545769-0.0900688c0.2547264-0.0925102,0.5088692-0.1868362,0.7608376-0.2864723 c0.0956573-0.0378227,0.1443291-0.0483551,0.1360931,0.0865822c-0.0061455,0.1007042,0.0243111,0.2035561,0.0384636,0.3054581 c0.0062065,0.219799,0.0101929,0.4396362,0.0189972,0.6592865c0.0343666,0.8555756,0.0712357,1.7111168,0.1036911,2.5667801 c0.0024605,0.0646324,0.0216637,0.1424828-0.0792923,0.176239 C38.661602,60.6526146,38.3559074,60.8010597,38.0277061,60.8866882 M32.8212204,61.3953476 c-0.0622787-0.1358261-0.1647491-0.2316895-0.231144-0.3557816c-0.1072731-0.2005653-0.2507591-0.3817482-0.3789101-0.5711479 c-0.0413399-0.0610657-0.0886002-0.092041-0.1241035-0.0003815c-0.133934,0.3456039-0.2717419,0.6901245-0.39044,1.0409927 c-0.0364285,0.1078072-0.1332302,0.1958809-0.1167526,0.3446655 C31.9983139,61.6991539,32.4063606,61.5485115,32.8212204,61.3953476"/><path class="st9" d="M45.2504158,53.3408966c-0.4353409,0.3139725-0.8160667,0.6777153-1.0593987,1.165905 c-0.0638657,0.1280937-0.1236649,0.258152-0.1853065,0.3873329c-0.3334312,0.0654907-0.3531723,0.0930595-0.3260765,0.4177513 c0.0194168,0.2332306,0.0511971,0.4673271,0.045784,0.7003098c-0.0133858,0.5742035,0.0457878,1.1457253,0.0461426,1.7193756 c0.0001488,0.3313141,0.0373955,0.662468,0.0442772,0.9940262c0.0018616,0.0871544,0.0158768,0.1947594-0.1203346,0.2407417 c-0.3391457,0.1144714-0.6722527,0.2468185-1.008667,0.3697433c-0.0530968,0.0193977-0.1040459,0.044548-0.1653748-0.0036926 c-0.3622437-0.2849197-0.7265625-0.5672379-1.0935135-0.8461075c-0.2369003-0.180027-0.4794235-0.3526878-0.7215919-0.5302925 c-0.0112839,0.0239563-0.0208321,0.0345421-0.0203209,0.044651c0.0302658,0.6429405,0.0617523,1.2858124,0.0915337,1.9287605 c0.0026588,0.0568428,0.0086136,0.110939-0.0720634,0.1393661c-0.3622704,0.1275253-0.7214622,0.2638779-1.0821152,0.3961105 c-0.0683479,0.0250893-0.110611,0.0141411-0.1134644-0.0741997c-0.0167542-0.5204544-0.0372391-1.0407639-0.0556946-1.5611382 c-0.0230522-0.6496315-0.0453377-1.2992744-0.0679398-1.9489632c-0.0106621-0.0708542,0.0056877-0.1407051-0.0041504-0.2139359 c-0.038475-0.2861633-0.0159492-0.2972908,0.2664452-0.3897057c0.1687355-0.0552216,0.3453178-0.1008835,0.4932861-0.2089157 c0.0690765-0.0173264,0.1491241-0.0180016,0.2052498-0.0549736c0.1913986-0.126091,0.3611984-0.076664,0.509861,0.0595284 c0.4237518,0.388195,0.9236107,0.6809731,1.3400269,1.077816c0.0749741,0.0714569,0.1876869,0.0898552,0.2473488,0.1766205 c0.0717735-0.0225792,0.0636101-0.0795326,0.0617599-0.1182823c-0.0251541-0.5395622-0.0589333-1.0788002-0.0792236-1.6185417 c-0.0049171-0.1303902-0.0237846-0.1392441-0.1461945-0.0944901c-0.2421417,0.0885239-0.4677391,0.2290115-0.745636,0.2145233 c-0.4035721-0.0209846-0.5522575-0.1397324-0.576767-0.5798225c-0.0307693-0.5528259-0.0547485-1.1063614-0.0644608-1.6598892 c-0.0059166-0.3393593-0.0493355-0.6779747,0.0030327-1.0196609c0.0736504-0.4804573,0.3814468-0.75457,0.7989655-0.913311 c0.8451424-0.3213043,1.6929893-0.6356888,2.5464592-0.9351578c0.243084-0.0852852,0.4908638-0.1671143,0.7274017-0.2737389 c0.1193733-0.0538177,0.1648483-0.0052071,0.1693192,0.1118202c0.0112648,0.2926216,0.0248451,0.5851326,0.033844,0.8778267 c0.002552,0.0826569-0.0234642,0.1416016-0.118885,0.1758308c-0.931118,0.3336906-1.8585587,0.6776237-2.7907333,1.0083427 c-0.1756554,0.0623589-0.1501541,0.1802521-0.1445656,0.3101768c0.0215073,0.5015144,0.0405045,1.003109,0.0609131,1.5166779 c0.3684502-0.0810966,0.711647-0.2561913,1.0753517-0.3694038c0.2036819-0.063343,0.4012184-0.1463547,0.6024742-0.2177048 c0.0814667-0.0288773,0.1386414-0.0722656,0.1443214-0.1661453c0.0069962-0.11549-0.0010567-0.1929779-0.1554337-0.1300392 c-0.2842789,0.1160011-0.5748787,0.2163734-0.8611641,0.3275719c-0.176075,0.0683403-0.2012177,0.0463295-0.2021561-0.145546 c-0.0013847-0.2734604-0.0104065-0.5473366-0.029747-0.8200912c-0.0083923-0.1177559,0.0293541-0.1850739,0.1353989-0.2234116 c0.7069588-0.2552567,1.4145927-0.5087624,2.1201744-0.7678871c0.1679802-0.0616951,0.1979218-0.0179558,0.1976585,0.1568604 C45.2056961,52.4292946,45.2338181,52.8851051,45.2504158,53.3408966"/><path class="st9" d="M53.7898254,57.5046844c0.1816063-1.4696693,1.5843506-2.5289268,3.0862656-2.2796707 c1.4418182,0.239315,2.4772263,1.5575714,2.2299995,3.1078529c-0.2178268,1.3659821-1.5283546,2.482502-3.1487007,2.2012024 C54.5903625,60.2967491,53.5593834,58.9545135,53.7898254,57.5046844 M58.047718,59.7457428 c-1.1327782,0.3510246-2.1075783,0.1440086-2.8008156-0.7558632c-0.8204803-1.0651665-0.6732597-2.1659241,0.1318512-3.2055664 c-0.785923,0.4540291-1.2295113,1.1339607-1.2624855,2.0408096c-0.0356102,0.97715,0.479023,1.799324,1.2919121,2.2143898 C56.3562775,60.5236282,57.3548279,60.3360977,58.047718,59.7457428"/><path class="st8" d="M54.7588654,61.0249786c-0.3747597,0.1305542-0.7435608,0.2553215-1.1096954,0.3875694 c-0.5492172,0.1983261-1.0968056,0.4012794-1.6446457,0.6034317c-0.5158615,0.1903343-1.0295715,0.3867073-1.5471268,0.5722847 c-0.8135529,0.2917824-1.6309967,0.5728874-2.4442329,0.8655586c-0.8785019,0.3162384-1.7535248,0.6421242-2.6311378,0.960865 c-0.5775108,0.2097931-1.1575203,0.4126129-1.7352295,0.6218033c-0.640522,0.2319489-1.2765198,0.4769592-1.9204216,0.6991043 c-0.676178,0.2333145-1.3459358,0.4840775-2.0219421,0.7181473c-1.008812,0.3492889-2.0032616,0.7399902-3.0066757,1.1051712 c-0.8064117,0.2934189-1.6186066,0.5710907-2.4254913,0.8633118c-0.808197,0.2926788-1.6112328,0.5995255-2.4197617,0.8911438 c-0.7397575,0.2669144-1.4855213,0.5171661-2.2255669,0.7833099c-0.7734261,0.2782059-1.5416107,0.5709076-2.3150063,0.8491974 c-0.6445026,0.2318954-1.2968006,0.4424667-1.930624,0.7036285c-0.0117931,0.0049057-0.0298252,0.0120087-0.0375443,0.0068588 c-0.1512203-0.1001358-0.1289349-0.2920685-0.2229328-0.4256363c-0.0556602-0.0790558,0.0530205-0.0937958,0.0892277-0.1078644 c0.3941307-0.1530609,0.7955379-0.287056,1.1936359-0.4291c0.3547573-0.1265564,0.7097168-0.2542572,1.0651512-0.3796692 c0.4403286-0.1554031,0.8807602-0.3106689,1.319191-0.471344c0.6570663-0.2407532,1.3108139-0.4906158,1.968977-0.7283478 c0.6323929-0.2284088,1.2702808-0.4416275,1.9026775-0.6700745c0.7932892-0.2865372,1.5826187-0.5838776,2.3752136-0.8723221 c0.5823021-0.2119522,1.1677856-0.4150314,1.7505417-0.6256714c0.7237206-0.2616577,1.4455566-0.5286636,2.1692429-0.7903671 c0.7351761-0.2659225,1.472187-0.5266724,2.2074127-0.7923813c1.1789818-0.4261475,2.3562469-0.8570938,3.5359993-1.2810287 c0.829792-0.2982216,1.6648521-0.5818558,2.4933624-0.8834419c0.9469414-0.3447418,1.8835945-0.7186546,2.835247-1.0494537 c0.9374084-0.3259315,1.8746872-0.6506729,2.8015442-1.0058937c0.3656693-0.1401711,0.7438889-0.2475777,1.11026-0.3861961 c0.1219292-0.046154,0.2179337-0.0381889,0.3255768,0.0186043 C54.4226875,60.859848,54.5843964,60.9376411,54.7588654,61.0249786"/><path class="st8" d="M40.1418648,56.0680084c-0.1479263,0.1080399-0.3245544,0.1537361-0.4932442,0.2089195 c-0.2824364,0.092411-0.3049622,0.1035385-0.2664909,0.38974c0.0098419,0.0731926-0.0064697,0.1430473,0.0041504,0.2139359 c-0.1298637,0.1205254-0.2747269,0.2154655-0.4476891,0.2625809c-0.0141525-0.1019058-0.0446053-0.2047997-0.0384674-0.3054619 c0.0082436-0.1349754-0.0404282-0.1244469-0.1360931-0.0865822c-0.2519684,0.0996361-0.5061035,0.193924-0.7608337,0.2864342 c-0.0500183,0.0181923-0.0575294,0.0260925-0.0545425,0.0901146c0.0330353,0.7190971,0.0546265,1.4387169,0.0812416,2.1581383 c0.001297,0.0356102,0.0409546,0.0795898-0.0142555,0.0974312c-0.0239677,0.0077362-0.0690804-0.0102348-0.0874557-0.0313873 c-0.1066017-0.1224937-0.2723846-0.1748848-0.3653946-0.3122139c0.0782051-0.5252953,0.1544342-1.0508728,0.2365379-1.5755653 c0.0144958-0.0926819-0.0047226-0.1300392-0.1022644-0.1393547c-0.6683578-0.0639572-1.1450996-0.4346313-1.4861717-0.9823723 c-0.2076874-0.3335266-0.3143921-0.7151909-0.3449364-1.1091309c-0.0555992-0.7179718,0.150444-1.3634377,0.5598831-1.9510307 c0.3863373-0.5543861,0.8987732-0.9371986,1.5586967-1.0773582c0.7810669-0.1658363,1.4698372,0.0258408,2.0128555,0.6397896 c0.4782944,0.5407143,0.6477432,1.1711845,0.5775146,1.8859444 C40.5276222,55.2123108,40.4003677,55.6591034,40.1418648,56.0680084 M36.865551,54.6924858 c-0.0514755,0.2703247-0.0073395,0.5259933,0.0888977,0.7794456c0.324173,0.8537407,1.2683182,1.0506439,1.9562683,0.5267487 c0.5260086-0.4005928,0.7826424-0.9762383,0.664444-1.6573257c-0.1554718-0.8956261-0.9780083-1.3504143-1.7815933-0.9740524 C37.2378006,53.6276245,36.9650612,54.1043053,36.865551,54.6924858"/><path class="st8" d="M29.0587749,62.4370308c-0.2219906-0.026268-0.4439735-0.052578-0.6659184-0.0788803 c0.0673923-0.5767441,0.1320076-1.1538124,0.2048187-1.7298584c0.0133381-0.1053009,0.0026264-0.1557732-0.1165829-0.1646347 c-0.168972-0.012516-0.3204441-0.0939064-0.4789448-0.1473389c0.2832184-0.2958832,0.5664368-0.5917625,0.849617-0.8876495 c0.0323277,0.0071754,0.0669155,0.0221329,0.0836983-0.0242424l-0.0016937,0.0011253 c0.3424072,0.0685501,0.6412735-0.0808792,0.8758202-0.277092c0.5348454-0.4474716,0.771534-1.0362396,0.6225624-1.7397118 c-0.1504726-0.7106552-0.8042431-1.1426048-1.4668293-0.9767952c-0.6827755,0.170826-1.0594845,0.6566849-1.2033787,1.3349571 c-0.0604305,0.2848701-0.0065289,0.5624619,0.0401878,0.8412323c-0.3302345-0.11092-0.6749382-0.1318474-1.0178432-0.1640816 c-0.0751076-0.1059265-0.0360088-0.23386-0.0294628-0.3381729c0.0737686-1.1765823,0.5966091-2.0876465,1.6770325-2.6049347 c0.4656544-0.22295,0.9705486-0.2416306,1.4938583-0.0962143c0.6586266,0.1830406,1.0662441,0.6120224,1.3437042,1.1930771 c0.1673832,0.350544,0.2035885,0.7345848,0.2105961,1.1237869c0.0115261,0.6382103-0.2385063,1.1877327-0.5795593,1.6942673 c-0.2134113,0.3169785-0.4948921,0.5874825-0.840498,0.7775421c-0.2067299,0.113678-0.4145851,0.2250977-0.6487846,0.2626266 c-0.1111851,0.017849-0.0739002,0.0966225-0.0816574,0.1480103 C29.2360497,61.2012291,29.148138,61.8192558,29.0587749,62.4370308"/><path class="st10" d="M53.4183884,51.416626c0.01511-0.0273094,0.0449181-0.0397606,0.061676-0.0168648 c0.0222702,0.0304604-0.021759,0.0339661-0.0359001,0.0500946 C53.4356117,51.4387856,53.4269791,51.4277039,53.4183884,51.416626"/><path class="st10" d="M28.9354477,59.4044456c-0.0167828,0.0463715-0.0513706,0.031414-0.0836544,0.0242081 C28.8730831,59.3979225,28.8915997,59.3574028,28.9354477,59.4044456"/><path class="st11" d="M58.047718,59.7457428c-0.6928902,0.5903549-1.6914406,0.7778854-2.6395378,0.2937698 c-0.8128891-0.4150658-1.3275223-1.2372398-1.2919121-2.2143898c0.0329742-0.9068489,0.4765625-1.5867805,1.2624855-2.0408096 c-0.8051109,1.0396423-0.9523315,2.1403999-0.1318512,3.2055664 C55.9401398,59.8897514,56.9149399,60.0967674,58.047718,59.7457428"/><path class="st9" d="M40.1064758,59.1108704c0,0-0.2492447,0.1649132-0.3588715,0.4004326 c-0.0876923,0.1883583-0.1601906,0.491188-0.1601906,0.491188l0.0571938,0.0294304c0,0,0.0750771-0.3150673,0.2108612-0.4843025 c0.1358261-0.1692696,0.3353271-0.2775421,0.3353271-0.2775421l-0.0952988-0.1420937"/></g></g></g></g><g id="Layer_2"><path class="st12" d="M40.2000008,75.5999985c6.9000015-0.0999985,16.7000008-1.8000031,22.3999977-4 c-0.7000008-6.5999985-2.7000008-45.5-2.7000008-45.5S61.9999962,31.1999989,63.0999985,34 c4.6999969-0.4000015,12.3000031-1.2999992,15.3000031-6.2000008C75.5,21,73.3000031,13.1999998,71,8.1000004 c0,0-10.4000015-3.8000002-18.5999985-6.4000001c0,0-0.9000015-0.3-1.2999992,0.4000001 c-3,4.1999998-4.5,7.1000004-11.2000008,7.1000004l0,0c-6.4000015-0.1000004-8-2.9000001-10.8999996-7.0999999 c-0.5-0.7-1.3999996-0.4-1.3999996-0.4C19.5,4.1999998,9,8.1000004,9,8.1000004c-2.3000002,5.1000004-4.5,13-7.4000001,19.7000008 C4.5999999,32.6000023,12,33.6000023,16.8999996,34C18,31.2000008,20.1000004,26.1000004,20.1000004,26.1000004 S18,65,17.3999996,71.5999985c5.8000011,2.1999969,15.5000019,4,22.3999996,4l0,0"/></g></svg> 