<?xml version="1.0" encoding="utf-8"?><svg version="1.1" id="Layer_1" xmlns="http://www.w3.org/2000/svg" xmlns:xlink="http://www.w3.org/1999/xlink" x="0px" y="0px" viewBox="0 0 80 77.1" style="enable-background:new 0 0 80 77.1;" xml:space="preserve"><style type="text/css"> .st0{fill:#D40000;stroke:#000000;stroke-width:3;stroke-linecap:round;stroke-linejoin:round;} .st1{fill:none;stroke:#FFFFFF;stroke-width:0.5257;stroke-linecap:round;stroke-linejoin:round;} .st2{fill:#FFFFFF;} .st3{fill:none;stroke:#000000;stroke-width:3;stroke-linecap:round;stroke-linejoin:round;} </style><path class="st0" d="M40.3,76.6c6.9-0.1,16.7-1.8,22.4-4C62,66,60,27.1,60,27.1s2.1,5.1,3.2,7.9c4.7-0.4,12.3-1.3,15.3-6.2 c-2.9-6.8-5.1-14.6-7.4-19.7c0,0-10.4-3.8-18.6-6.4c0,0-0.9-0.3-1.3,0.4c-3,4.2-4.5,7.1-11.2,7.1l0,0c-6.4-0.1-8-2.9-10.9-7.1 c-0.5-0.7-1.4-0.4-1.4-0.4C19.6,5.2,9.1,9.1,9.1,9.1c-2.3,5.1-4.5,13-7.4,19.7c3,4.8,10.4,5.8,15.3,6.2c1.1-2.8,3.2-7.9,3.2-7.9 S18.1,66,17.5,72.6c0.8,0.3,1.6,0.6,2.5,0.9c2.4,0.7,5.1,1.4,7.9,1.9c0.2,0,0.4,0.1,0.5,0.1c4,0.7,8,1.1,11.4,1.1l0,0"/><g id="svg2"><g id="layer2_2_" ><path id="path11764_2_" class="st1" d="M20.6,40c5.2-6.7,14.2-10.2,22.8-6.8l4.4-7.3 c-10.1-3.5-19.6-1.3-26.6,4 M19,69.8l2.3-2.8c-0.8-1.1-1.6-2.3-2.2-3.4 M19.4,60c2.2,5.5,6.5,7.1,5.8,11.9 M44.5,35.2 c-11.5-4-20.3,1.2-24.2,8.7 M24.4,67.7c-2.7,1.8-3.6,3.8-3.1,5.7 M48.5,31.4c-10.4,8.3-15,24.1-26.5,32.9 M48.5,31.4l2.5,7.5 M49.1,33.1C38.6,42,33.7,58.8,22.8,65.5 M50.3,36.8c-10.7,8.1-15,22.5-26.5,30 M51,38.9c-9.6,6.3-14.7,22.8-26.3,29.4 M44.4,26.6 l-3.1,5.9 M42.9,24.6l-3.2,7.5 M39.7,26.1L37.8,32 M37.8,24.2l-2,7.7 M35.1,26.2l-0.9,5.9 M32.8,24.7l-0.5,7.7 M30.4,27l0.2,5.9 M27.9,26.1l1,7.4 M25.9,28.8l1.3,5.5 M23.5,28.4l2.3,6.9 M22,31.2l2.2,5.1 M19.4,31.4l1.6,2.8l1.9,3.3 M43.4,33.2 C41.7,32.9,40.7,33,40,34 M21.2,63.2c-0.6,1.5-0.8,2.4,0.1,3.8 M22.4,40.7C25.3,45,31.3,41.6,38,44 M21.9,41.3 c0.4,8.2,8.6,7.2,11.5,9.8 M37,45.5c-4-1.8-12.1,1-14.9-2.8 M36,47.1c-2.9-1.2-9.4,0.3-12.6-1.1 M34.9,48.8 c-1.9-0.6-6.7,0-7.9-0.3 M33,37.5l-0.3-3.3 M33.2,40.7l-0.2-2 M31.4,36.1l1.5,1.1 M33.1,39c-0.2,0.1-0.4,0.1-0.7,0.1 c-0.9,0-1.6-0.7-1.6-1.6c0-0.6,0.3-1,0.7-1.3 M33.2,40.7c-2.8,0.5-5.8-2.8-3-5.8 M29.9,39.5c-1.9,0.6-3.6-1-4-2.1 M25.4,40 l-1.9-0.5 M25.4,40c1.6,1.8,5.6,1.7,6.5,0.7 M31.5,41c0,0.6,0.3,1.4,1.1,2.1 M25.1,39.9c-0.3,0.6-0.3,2.2-0.1,2.8 M35.5,37.5 l-1.4,5.6 M39.3,38.9l-4.1,4.4 M37.2,37.7c-0.1,1.1-0.4,2.3,0,3.4 M37.1,35.5c2.1-0.4,2.4,2.7,0.1,2.5 M36.2,36.2 c-2.5-2.1,2.3-4,2.1-0.6 M35.5,35.3c-1.9,0.1-1.4,2.5-0.1,2.5 M40.7,37.9c-0.5-2.1,1.6-2.8,2.6-1.3 M40.7,36.8 c-1.6-0.8-2.8,0.9-1.6,2.3 M47.5,34.5l-0.3,2.8l2,0.4 M50.6,39.1c0,0,4.1,12.4,5.3,15.6c1.2,3.1,2.1,4.6-0.8,4.8 c-2.3-0.6-3.4,0.7-3.4,0.7s-1.6-1.1,0-2.6 M53.8,63.3c1.3-1,1.3-1.3,0.7-2c-0.5-0.7-0.2-1.1,0.5-1.8 M49.5,64.1 c1.5-0.3,3.1-0.9,4.3-0.8 M40.9,50.1c0.5,2.2-0.5,5.4-4.6,6.6 M42.2,48.2c2,5.6-2.4,10.6-7.2,10.3 M36,65.9c0,0.7-0.5,1.2-1.2,1.2 c-0.7,0-1.2-0.5-1.2-1.2c0-0.7,0.5-1.2,1.2-1.2C35.5,64.7,36,65.2,36,65.9z M37.8,65.9c0,1.7-1.3,3-3,3c-1.7,0-3-1.3-3-3 c0-1.7,1.3-3,3-3C36.5,62.9,37.8,64.2,37.8,65.9L37.8,65.9z M23.1,73.5c-0.5-1.4-0.1-2.9,2.1-4.2 M26.4,67.2 c0.7,1.1,1.7,4.8-3.5,5.3 M28,66.1c2.4,3.9-0.7,8-4.7,7.9 M29.3,64.9c2.1,3.7,1.5,7.9-2.5,10 M29.2,75.5c4.6-3.8,2.8-10,1.4-11.9 M34,68.8c0.1,1.6-0.4,4.7-2.6,7.1 M36.7,68.2c9.4,5.9,21.3,2.3,16.3-2.3c0.4-0.6,0.7-0.9,1.5-1c0.2-0.7-0.1-1.3-0.7-1.6 M46.4,71.5c-0.5,1.7-0.8,3.3-0.9,4.8 M32.3,61.9c0.1,0.6,0.2,1.2,0.5,1.8 M33.8,60.1c0,1.1,0.3,2.1,0.6,2.8 M34,61.9 c1-1.3,3.2-0.8,2.4,1.4 M35.5,59.5c2.7,0.1,3.7,3.4,2.1,5.1 M36,58.5l-0.1,1.1 M42.7,50c1.8-1.6,2.2-3.5,2-5.2 M46.1,43.2 c0.8,3.6,0.3,6.5-3.5,9 M48.7,40.6c0.2,1.9-0.4,3.3-2.3,4.7 M50.5,39.2c0.4,3.4-0.8,6.8-4.2,8.1 M45.5,49.5c2.6-1.2,6-1.7,8.3-0.7 M44.5,53c0,0,2.2,1,5.2,0.5 M47.5,51.5c-0.1,0.9,0,1.6,0.3,2.1 M26.8,48.4c-5,2.2-7.4,10.4,0.2,11.3 M29.2,49.3 c-8.8,2.8-5.2,10.7-0.3,8.1 M32.9,50.7c-8.4,0.7-7.8,5.5-5.8,5.5s1.9-3-0.7-3 M28.1,51.8c1.9,0.8,2.3,2.5,2.1,3.9 M30.3,51.1 c0.8,0.6,1.5,1.7,1.6,2.4 M25.2,47.5c-6.9,4.9-3.7,8.2-5.7,10c1.7,0,1.9-0.3,2.8-1.2 M23.9,48.4c-1.1-0.9-2.6-2-2.9-3.5 c-0.8,2.3,0.4,4.2,1.1,5.2 M20.8,57.4c1.3,2.6,3,3.2,4.5,4 M21.3,58.1c0,0.9,0.2,2.6,0,3.4c1.5,0,2-0.7,2.4-1.1 M19.7,52.1 c0.6-0.5,1.2-1,1.9-1.1 M44.3,53.1c0,0,1.9-2.3,6.6-2 M50.1,51.5c0.3-0.1,0.8-0.2,0.8-0.4l-1.4,0 M49.7,63.3 c-0.1,0.1-0.3,0.8-0.3,1"/><g id="g4158_2_" transform="matrix(1.0316253,0,0,1.0316253,-5.4616119,104.00313)"><path id="path11752_2_" class="st2" d="M44.3-61.4L44.3-61.4c-0.3-0.1-0.6-0.2-0.8-0.4 c0,0-0.3-0.4-0.3-0.2c-0.1,0.5,0.1,1.2,0.5,1.6C43.6-60.4,44.1-61.1,44.3-61.4"/><path id="path11754_2_" class="st2" d="M47.4-59.9c0,0.2-0.2,0.4-0.4,0.4 c-0.2,0-0.4-0.2-0.4-0.4c0-0.2,0.2-0.4,0.4-0.4C47.2-60.3,47.4-60.2,47.4-59.9"/><path id="path11756_2_" class="st2" d="M50.1-63.2c0,0.3-0.2,0.5-0.5,0.5 c-0.3,0-0.5-0.2-0.5-0.5s0.2-0.5,0.5-0.5C49.9-63.7,50.1-63.5,50.1-63.2"/><path id="path11758_2_" class="st2" d="M48.7-61.6c0,0.3-0.2,0.5-0.5,0.5s-0.5-0.2-0.5-0.5 c0-0.3,0.2-0.5,0.5-0.5S48.7-61.9,48.7-61.6"/><path id="path11760_2_" class="st2" d="M53.6-65.8c-0.5,0.2-1-0.1-1.1-0.5 c-0.2-0.5,0.1-1,0.5-1.1l0.2,0l0.6,1.6L53.6-65.8L53.6-65.8z"/><path id="path11762_2_" class="st2" d="M54.3-50.2c0.1,0.8-0.3,1.4-0.8,1.5c-0.5,0-1-0.5-1-1.3 c-0.1-0.8,0.3-1.4,0.8-1.5C53.7-51.6,54.2-51,54.3-50.2"/><path id="path11748_2_" class="st2" d="M32.8-64.5c0,0.3-0.2,0.5-0.5,0.5 c-0.3,0-0.5-0.2-0.5-0.5c0-0.3,0.2-0.5,0.5-0.5C32.6-65,32.8-64.8,32.8-64.5"/><path id="path16_2_" class="st2" d="M41.3-63.2L41.3-63.2c-0.2,0.1-0.4,0.2-0.7,0.2 c-0.1,0-0.6-0.1-0.6,0.1c0.2,0.5,0.7,0.6,1.2,0.7C41.2-62.3,41.2-62.9,41.3-63.2"/></g></g></g><path class="st3" d="M40.2,75.6c6.9-0.1,16.7-1.8,22.4-4c-0.7-6.6-2.7-45.5-2.7-45.5s2.1,5.1,3.2,7.9c4.7-0.4,12.3-1.3,15.3-6.2 C75.5,21,73.3,13.2,71,8.1c0,0-10.4-3.8-18.6-6.4c0,0-0.9-0.3-1.3,0.4c-3,4.2-4.5,7.1-11.2,7.1l0,0c-6.4-0.1-8-2.9-10.9-7.1 c-0.5-0.7-1.4-0.4-1.4-0.4C19.5,4.2,9,8.1,9,8.1c-2.3,5.1-4.5,13-7.4,19.7c3,4.8,10.4,5.8,15.3,6.2c1.1-2.8,3.2-7.9,3.2-7.9 S18,65,17.4,71.6c5.8,2.2,15.5,4,22.4,4l0,0"/></svg> 