<?xml version="1.0" encoding="utf-8"?><svg version="1.1" id="Layer_1" xmlns="http://www.w3.org/2000/svg" xmlns:xlink="http://www.w3.org/1999/xlink" x="0px" y="0px" viewBox="0 0 79.8 77" style="enable-background:new 0 0 79.8 77;" xml:space="preserve"><style type="text/css"> .st0{fill:none;stroke:#000000;stroke-width:3;stroke-linecap:round;stroke-linejoin:round;} .st1{fill:#006937;} .st2{fill:#0E4C2A;} </style><title>jersey_dresden_2</title><path class="st0" d="M40,75.4h0.3"/><g id="Layer_4"><path class="st1" d="M71.9,7.9c0,0-10.4-3.8-18.6-6.4c0,0-0.9-0.3-1.3,0.4C49,6.1,47.5,9,40.8,9l0,0c-6.4-0.1-8-2.9-10.9-7.1 c-0.3-0.4-0.9-0.6-1.4-0.4C20.4,4,9.9,7.9,9.9,7.9c-2.3,5.1-4.5,13-7.4,19.7c3,4.8,10.4,5.8,15.3,6.2c1.1-2.8,3.2-7.9,3.2-7.9 s-2.1,38.9-2.7,45.5c7.2,2.5,14.8,3.8,22.4,4H41v0.1h0.1v-0.1c6.9-0.1,16.7-1.8,22.4-4c-0.7-6.6-2.7-45.5-2.7-45.5s2.1,5.1,3.2,7.9 c4.7-0.4,12.3-1.3,15.3-6.2C76.4,20.8,74.2,13,71.9,7.9z"/></g><g id="Layer_3"><path class="st2" d="M19.2,44"/><path class="st2" d="M16.7,66.8c0-0.1,0.1-0.3,0.1-0.4C16.8,66.5,16.8,66.6,16.7,66.8z"/><path class="st2" d="M17,65.1"/><path class="st2" d="M18.1,61.9c-0.3,0.3-0.2,0.7-0.5,1c-0.1,0.1,0,0.3-0.1,0.3l-0.4,0.7 M16.9,61.6c0.6-0.9,1.3-1.8,1.9-2.8 c0.1-0.2,0.7-3.1,0.8-3.4s0.1-0.8,0.2-1.2s0.2-0.7,0.3-1s0-0.6,0.2-0.7s0.2-0.4,0.3-0.6c0.1-0.1,0.1-0.3,0.1-0.5 c0.1-0.5,0.2-1,0.2-1.5c0-0.6-0.1-1.1-0.2-1.7c-0.1-0.6-0.1-1.2-0.2-1.9c0-0.2-0.1-0.4-0.2-0.5h-0.1v0.5h-0.1 c-0.1-0.6-0.2-1.2-0.3-1.7v-0.1l0,0v-1l0,0v-0.1c0-0.1,0-0.2-0.1-0.3c0-1.2-0.1-2.3-0.1-3.5s0-2.3,0.1-3.5c0.2-1,0.2-2,0.4-3 l0.3-1.8c0.1-0.5,0.3-1.1,0.4-1.6v-0.2c-0.1-0.4,0.2-0.8,0.4-1.1c0.2-0.2,0.2-0.6,0-0.8v-0.3h-0.1c-0.2,0.2-0.4,0.4-0.5,0.6 l0.1,0.1c0.1-0.1,0.3-0.2,0.4-0.3c-0.3,0.6-0.6,1.2-0.8,1.8c-0.3,1.3-0.6,2.6-0.8,4c-0.2,1.9-0.3,3.7-0.3,5.6l0,0 c0,0.2-0.1,0.3-0.1,0.5s-0.1,0.3-0.2,0.5c0,0.3-0.1,0.5-0.2,0.8c0,0.3,0.3,0.6,0.1,0.8l0.3,0.9c0,0.3,0.1,0.5,0.2,0.8v1.2 c-0.2,0-0.2,0.2-0.3,0.4c0.3,0.3,0.1,0.7,0.2,1v0.3C19,45.9,18.9,45.4,19,45c-0.1-0.3-0.3-0.6-0.2-0.9c0.1-0.6-0.3-0.9-0.8-1 c0.1,0.1,0.2,0.2,0.3,0.4c0,0.1,0,0.2,0.1,0.3c0.4,1.1,0.6,2.4,1,3.5c0-0.3,0-0.6-0.1-0.9c0.3,0.8,0.5,1.6,0.5,2.4 c0,0.9,0.1,1.8,0.2,2.7v0.2c-0.1,0.4-0.2,0.7-0.3,1.1c-0.3,1.2-1.1,5.2-1.6,6.4c-0.1,0.2-0.2,0.3-0.3,0.4c-0.2,0.3-0.4,0.6-0.7,0.8 M18.2,63.7c0.1-0.1-0.4-0.7-0.3-0.8 M17.4,64c-0.1,0.1-0.2,0.2-0.3,0.4L17,65.1l0,0l-0.1,1.5l0.4-0.4c-0.1,0.2-0.2,0.4-0.4,0.5 v0.5c0,0.1-0.1,0.2-0.1,0.4c0.3-0.3,0.7-0.5,0.8-1c0.1,0.1,0.1,0.2,0.2,0.3c0.4-0.3-1.8-1.3-1.4-1.6l0,0c0.1,0,0.2,0,0.3-0.1 c0.4-0.3,0.4-0.8,0.9-1.1c0.1-0.1,0.1-0.3,0.2-0.5c0.2-0.2,0.4-0.5,0.5-0.8c0.1,0,0.1,0,0.1,0.1s-0.1,0.3-0.2,0.5l0,0 c0.2-0.3,0.4-0.5,0.6-0.8v0.2c0.1-0.2,0.4-0.4,0.3-0.7c0-0.1,0-0.1,0.1-0.2c0.3,0.1,0.3-0.2,0.4-0.3c0.1-0.2,0.2-0.5,0.3-0.7 c0.2-0.5,0.6-1,0.8-1.6c0.5-2.1,1-4.2,1.3-6.3c0.3-2,0.4-3.9,0.2-5.9c-0.2-1.6-0.4-3.2-0.5-4.9c-0.1-0.8-0.1-1.5,0-2.3 c0.1-1,0.2-2.1,0.3-3.1l0.3-2.7c0.4-2.3,0.7-4.6,0.9-6.9c0.1-1.6-0.2-3.2-0.9-4.6c-0.5-0.9-1.2-1.6-2.1-2.1l-1.3-0.2 c0.2,0.1,0.5,0.1,0.8,0.2c0.5,0.2,0.9,0.5,1.3,0.8c0.4,0.4,0.7,0.8,1,1.2c0.4,0.6,0.7,1.3,0.9,2c0.3,1.5,0.4,3.1,0.1,4.6 c-0.2,1.8-0.6,3.6-1,5.4c-0.3,1.6-0.4,3.2-0.5,4.8c-0.1,1.2,0,2.4,0.1,3.6c0.1,1,0.2,1.9,0.3,2.9s0.1,2,0.1,3 c0,0.6-0.1,1.3-0.1,1.9c0,0.5-0.1,1-0.2,1.5h-0.1v-0.4c0-0.4,0.1-0.8,0.1-1.2c0-0.1,0-0.3-0.1-0.1l0,0c0,0.3-0.1,0.6-0.1,1 c-0.1,0.1-0.2,0.2-0.2,0.3c-0.1,0.7-0.3,1.4-0.4,2.1c-0.1,0.4-0.3,0.8-0.5,1.1c-0.1,0.2-0.1,0.3-0.2,0.5c-0.3,0.5-0.9,3.8-1.2,4.2 c-0.4,0.7-0.9,1.4-1.4,2c-0.1,0.1-0.3,0.2-0.5,0.4c0,0.1,0,0.1,0.1,0.2 M22,46.3v1.4l0,0V46.3z M22,47.9L22,47.9 c0.1,0.7,0.1,1.5,0.1,2.2h-0.2C22,49.3,22,48.6,22,47.9z M21,54c0.1-0.5,0.3-1,0.4-1.4h0.1c0,0.2,0,0.5-0.1,0.7 c0,0.3-0.1,0.5-0.2,0.8c0,0.1-0.1,0.2-0.2,0.2C21,54.2,20.9,54.1,21,54z M20.8,54.9L20.8,54.9c0,0.3,0.1,0.6-0.2,0.8h-0.1 C20.6,55.4,20.7,55.1,20.8,54.9z M18.8,60.2L18.8,60.2c-0.2,0.5-0.5,1-0.9,1.4l-0.1-0.1C18.1,61,18.4,60.6,18.8,60.2z"/><path class="st2" d="M21,21.8l-0.1-0.1C20.9,21.8,20.9,21.8,21,21.8C20.9,21.9,21,21.9,21,21.8z"/><path class="st2" d="M20.8,21.7L20.8,21.7c0.2,0.1,0.3,0.2,0.4,0.3c0.1,0.1,0.1,0.1,0.1,0.2c0.7,1,1,2.2,1.1,3.4 c0.1,1.8-0.1,3.5-0.6,5.2c-0.2,0.9-0.5,1.8-0.7,2.7l-0.6,3c-0.1,0.7-0.2,1.3-0.2,2c0,0.6,0,1.1,0.1,1.7h0.1v-0.5h0.1 c0.1,1,0.2,1.9,0.4,2.9h0.1c-0.1-0.5-0.1-1-0.1-1.5c-0.1-1-0.2-2.1-0.1-3.1c0.1-1.3,0.3-2.6,0.5-3.9c0.3-1.8,0.8-3.5,1.1-5.3 c0.4-1.6,0.4-3.4,0-5c-0.2-1.2-1-2.2-2.1-2.8c-0.6-0.3-1.1-0.6-1.7-0.9c-0.2-0.1-0.5-0.2-0.7-0.3l0,0 C18.9,20.5,19.9,21.1,20.8,21.7z"/><path class="st2" d="M19.7,49.4c-0.1,0.3-0.1,0.7-0.1,1C19.9,50.1,20,49.7,19.7,49.4C19.7,49.4,19.7,49.4,19.7,49.4z"/><path class="st2" d="M21.3,48.3c0,0.2,0,0.4-0.1,0.6V49c0,0.1,0.1,0.1,0.1,0.2C21.3,48.9,21.6,48.6,21.3,48.3z"/><path class="st2" d="M34.8,20.2c-2.5-1.1-4.6-2.8-6.9-4.1c0.1,0.1,0.2,0.3,0.4,0.4l2.2,1.6c0.2,0.2,0.5,0.3,0.7,0.5 c0.7,0.5,1.4,1,2.1,1.4c0.1,0,0.1,0.1,0.2,0.1h0.4C34.2,20.1,34.4,20.2,34.8,20.2z"/><path class="st2" d="M23.8,21.3l-0.2-0.2v0.1C23.7,21.2,23.7,21.2,23.8,21.3z"/><path class="st2" d="M21.9,18.6l1.7,2.4C23.2,20.1,22.6,19.2,21.9,18.6z"/><path class="st2" d="M24,16.7"/><path class="st2" d="M23.5,21.4c0-0.1-0.1-0.1-0.2-0.1c0.2,0.5,0.4,1,0.6,1.6c0,0.1,0.1,0.2,0.2,0.3C24.1,22.5,23.9,21.9,23.5,21.4 z"/><path class="st2" d="M24,23.1"/><path class="st2" d="M23.3,21.3"/><path class="st2" d="M22,19.1l0.8,0.9C22.6,19.6,22.3,19.3,22,19.1z"/><path class="st2" d="M21.3,61.4c-0.5,0.4-0.7,0.9-0.8,1.5C20.7,62.3,21,61.8,21.3,61.4z"/><path class="st2" d="M23,47.8v1.5h0.1C23.1,48.8,23.1,48.3,23,47.8z"/><path class="st2" d="M19.5,64.7L19.5,64.7c0.2-0.2,0.3-0.4,0.4-0.7c-0.2,0.1-0.3,0.2-0.4,0.2V64.7z"/><path class="st2" d="M17.2,65.6"/><path class="st2" d="M17.3,65.6c0.2-0.3,0.5-0.6,0.7-0.9"/><path class="st2" d="M17.2,65.6"/><path class="st2" d="M43.5,35.7"/><path class="st2" d="M24.3,46.7"/><path class="st2" d="M29.1,56.9c0-0.5-0.1-0.9-0.3-1.3c-0.3-0.9-0.8-3.1-1.1-4c-0.4-1.4-0.8-2.8-1.2-4.3c-0.1-0.3-0.1-0.6-0.2-1 h-0.1c0.1,0.5,0.1,1,0.2,1.4h-0.1c-0.1-0.5-0.2-0.9-0.2-1.4c-0.1-0.7-0.1-1.4-0.2-2.1c0.1,0,0.1,0.1,0.2,0.2c0-0.4,0-0.8,0.1-1.2 c0.1-0.7,0.2-1.4,0.3-2c0.1-0.8,0.2-1.7,0.3-2.5c0-0.3,0.1-0.7,0.2-1c0.1-0.6,0.1-1.3,0.1-1.9v0.1h0.1c0-0.1,0-0.2,0.1-0.3 c0-0.5,0-1,0.1-1.5c0.3-2.1,0.4-4.2,0.3-6.3c0-0.5-0.2-1.1-0.5-1.5c-0.1-0.1-0.1-0.2-0.2-0.2c0.4,0.8,0.5,1.6,0.5,2.5v2.8 c-0.1,0.6-0.2,1.1-0.3,1.7s-0.1,1.3-0.2,2l0,0V35h-0.1c0,0.4-0.1,0.9-0.1,1.3h0.1L26.6,39c0,0.9-0.2,1.9-0.4,2.8 c-0.2,0.7-0.3,1.5-0.3,2.2l0,0c-0.1,0-0.1,0-0.1,0.1c0,0.7-0.1,1.3-0.1,2c0,0.4,0.1,0.8,0.1,1.3c0,0.3,0,0.5,0.1,0.8 c0.2,0.8,0.4,1.6,0.7,2.4c0.2,0.9,0.4,1.7,0.8,2.5c0,0.1,0,0.2,0.1,0.3c0,0.1,0.1,0.3,0.1,0.4c0.2,1.1,0.5,2.3,0.8,3.4 c0.1,0.2,0,0.4,0,0.5c0,0.3,0.1,0.6,0.1,0.9c0.3,1.7,0.4,3.5,0.2,5.2c0.2-0.2,0.4-0.2,0.6-0.4c0-0.6,0.1-3.5,0.1-4 c0.1-0.7,0-1.4-0.2-2.1C29.2,57.1,29.1,57,29.1,56.9z"/><path class="st2" d="M16.7,71.1c0.1,0,0.3,0,0.3-0.3c0-0.1,0.1-0.2,0.2-0.3c0.2-0.1,0.4-0.3,0.5-0.5c0.1-0.2,0.2-0.4,0.5-0.2 c0,0,0.2-0.1,0.2-0.2s0.1-0.2,0.2-0.4c0.1,0.2,0.1,0.2,0.1,0.3c0.1,0,0.2,0,0.3-0.1c0.4-0.5,1-0.9,1.5-1.2c0.4-0.2-1.6,3.6-1.3,3.4 v-0.2c0.1,0,0.2,0,0.2-0.1c0.2-0.2,0.4-0.5,0.6-0.7s0.8-0.6,0.9-1.2c0.1-0.1,0.1-0.1,0.1-0.2c0,0.1,0.1,0.1,0.1,0.2 c0.1-0.4,0.2,0,0.3-0.4c0.1,0.1,0.1,0.2,0.2,0.2l0,0v-0.8c0-0.1,0.1-0.2,0.1-0.3v-1c0-0.1-0.1-0.3,0.2-0.3c0-0.1,0-0.2,0.1-0.3 c-0.1,1.1,0,3.9-0.4,4.9c0.1-0.3,0.3-0.6,0.4-0.9l0,0c0,0.3-0.1,0.6-0.1,0.9c0.3-0.4,0.6-0.8,1-1.1v-4.8c0-0.7-0.1-1.4-0.1-2.2l0,0 c-0.1-0.7-0.1-1.4,0.2-2.1c0-0.1,0.2-0.1,0.3-0.1l0,0c0-0.1,0.1-0.2,0.1-0.4c0-0.1,0-0.2-0.1-0.3l0,0c-0.1,0.1-0.1,0.3-0.2,0.4 c0.4-2.7,0.7-5.5,0.8-8.2H24c0,0.2,0.1,0.4,0.1,0.6c0,0.8-0.3,4.4-0.4,5.2s-0.3,1.3-0.4,1.9l0,0c0.2-0.4,0.4-0.9,0.5-1.4v-0.1 c0,0.5-0.1,0.9-0.2,1.4c-0.1,0.4-0.2,0.7-0.2,1.1c0,0.8,0.4,3.6,0.4,4.5l0,0c0.1-0.1,0.1-0.1,0.2-0.6c0.1,0.4,0.1,0.8,0.2,1.2h-0.1 c-0.1-0.2-0.2-0.5-0.3-0.7l0,0c0.1,0.7,0.2,1.5,0.2,2.2v0.9c0.1-0.1,0.2-0.2,0.3-0.4v-1.3h0.2c0,0.2,0.1,0.4,0.1,0.6 c-0.1-0.7-0.1-1.4-0.2-2.1s-0.5-3.6-0.5-4.4c0-1.1,0.2-2.1,0.1-3.2c-0.1-0.6,0.2-4.2,0.2-4.8c0-1.6-0.1-3.2-0.3-4.8 c-0.1-1.1-0.3-2.3-0.5-3.4c0-0.1-0.1-0.1-0.1-0.2l0,0v-0.1l0,0v-0.1c-0.1-0.2-0.1-0.5-0.2-0.7l0,0c0-0.1,0.1-0.2,0.1-0.3 c0-1.1-0.1-2.2,0-3.3l0.3-2.1v-0.7l0,0c0-0.4,0-0.8,0.1-1.2c0-0.1,0.1-0.2,0.2-0.3c-0.2,0.2-0.2-0.1-0.2-0.1 c0.1-0.5,0.1-1.1,0.2-1.6c0.1,0,0.1,0,0.2-0.1c0-0.2,0-0.5-0.1-0.7v-0.4l0,0v-0.4l0,0c0-0.1,0.1-0.1,0.1-0.2c0-0.3,0.1-0.6,0.1-0.9 c0-0.6,0.1-1.2,0.1-1.8v-1.5c0.1-0.9,0.1-1.9,0-2.8c0-0.7-0.1-1.5-0.3-2.2c-0.1-0.2-0.2-0.5-0.3-0.7v0.3c0.1,0.5,0.2,1,0.2,1.5 c0,1.3,0,2.7,0.1,4c0,0.4-0.1,0.8-0.1,1.3h-0.1v-0.2c0-1.3,0.1-2.5,0.1-3.8c-0.1-2.7-0.7-5.2-2.9-7.1l-1-0.6c0.5,0.4,1,0.9,1.5,1.4 c0.9,1,1.5,2.2,1.8,3.5c0.4,1.8,0.5,3.7,0.3,5.5c-0.3,3.1-0.8,6.2-1,9.4c-0.2,2.1-0.2,4.3,0,6.4c0.3,2.1,0.5,4.3,0.4,6.4 c0,2.5-0.3,5-0.7,7.5c-0.2,0.8-0.5,1.6-0.8,2.4c-0.2,0.6-0.5,1.2-0.8,1.8c-0.1,0.3-0.3,0.6-0.4,0.9l0.3-1.2 c-0.1,0.3-0.6,0.7-0.5,1.4c0.1-0.1,0.2-0.1,0.2-0.2c-0.1,0.2-0.2,0.5-0.2,0.7c-0.3,0.9-0.5,1.7-0.8,2.6c-0.1,0.4-0.3,0.8-0.5,1.1 c-0.1,0-0.1,0-0.1-0.1s0.1-0.2,0.2-0.4c-0.3,0.2-0.6,0.4-0.6,0.7c0,0.4-0.2,0.7-0.5,0.9c-0.1,0.1-0.2,0.3-0.3,0.4h0.1l0.3-0.3 l0.1,0.1c-0.3,0.4,1.4-3.4,1-3.1c-0.2,0.2-0.5,0.4-0.8,0.5c-0.1,0.1-0.1,0.3-0.2,0.4c-0.3,0.3-0.7,0.5-0.9,1c0,0.1-0.1,0.1-0.2,0.1 l-0.3,0.8c0.6-0.3,0.8-0.9,1.2-1.3c0.2-0.2,0.4-0.4,0.7-0.5c0.3-0.2,0.7-0.5,1.1-0.8c0,0.1,0,0.2-0.1,0.3c-0.1,0.1-0.2,0.1-0.3,0.3 s-0.1,0.3-0.2,0.5h-0.3v-0.2c-0.1,0.2-0.3,0.3-0.1,0.5c-0.4,0.4-0.8,0.7-1.2,1.1l-0.2,0.2c-0.2,0.1-0.5,0.2-0.4,0.5 c-0.1,0.1-0.1,0.1-0.1,0.2h-0.1c0-0.1,0-0.2,0.1-0.3l0.3,0.4l0,0 M23.1,43.7L23.1,43.7C23.2,43.8,23.2,43.7,23.1,43.7L23.1,43.7 c0-0.2,0-0.2,0.1-0.2l-0.1-0.1l0.1-0.1c-0.1,0-0.1,0-0.1-0.1l0,0c0-0.1,0-0.1,0.1-0.1s0-0.1-0.1-0.1l0,0v-0.1l0,0V43l0,0 c0,0.1,0,0.1,0.1,0.1l-0.1,0.1l0,0c0.1,0,0.1,0,0.1,0.1l-0.1,0.1l0.1,0.1C23.2,43.5,23.2,43.6,23.1,43.7z M23.7,33.8V33h0.2 C23.9,33.2,23.8,33.5,23.7,33.8c0,0.5,0,1-0.1,1.5c0,0.5-0.1,0.9-0.1,1.4c0,0.1,0,0.2-0.1,0.2h-0.2C23.4,35.8,23.6,34.8,23.7,33.8z M19.5,68.5c-0.2,0-0.3,0.1-0.5,0.1c0-0.3,0.1-0.5,0.5-0.5V68.5z M20.4,68.9c-0.1,0.3-0.2,0.6-0.4,0.9c-0.1-0.4,0.1-0.7,0.3-1 C20.4,68.8,20.4,68.8,20.4,68.9z M20.5,66.2c0.4,0.2,0.2,0.4,0.1,0.7C20.6,66.6,20.5,66.4,20.5,66.2z M20.9,67.9h-0.2 c0-0.2,0.1-0.4,0.1-0.7h0.1V67.9z M21.6,65.9c-0.2-0.5-0.1-1,0.1-1.5h0.2C21.8,64.8,21.7,65.4,21.6,65.9z M23.9,49.1 c0-0.2,0-0.4,0.1-0.5c0-0.1,0-0.3-0.1-0.4H24c0,0.1,0,0.3-0.1,0.4c0,0.2,0,0.3,0.1,0.5H23.9z M23.9,62.7h-0.1 c0.1-0.5,0.1-1.1,0.2-1.6h0.1C24,61.6,24,62.1,23.9,62.7z"/><path class="st2" d="M16.8,69.5h0.1v-0.1C16.9,69.4,16.9,69.5,16.8,69.5z"/><path class="st2" d="M29.8,62.5c0.1-0.1,0.2-0.2,0.2-0.3v-0.5h-0.1C29.9,62,29.8,62.2,29.8,62.5z"/><path class="st2" d="M21.1,22L21.1,22c0-0.1,0-0.1-0.1-0.1l0,0L21.1,22z"/><path class="st2" d="M30.4,58c0-0.4,0-0.9-0.1-1.3c0-0.4,0-0.7-0.1-1.1c-0.1-0.5-0.3-2.4-0.4-2.8c0-0.1-0.2-0.2-0.2-0.3h-0.1 c0,0.1,0.1,0.2,0.1,0.4h-0.1c-0.2-0.6-0.5-1.2-0.7-1.8h0.1c0.1,0.3,0.2,0.6,0.4,0.8c0,0.1,0.1,0.2,0.2,0.2l0.6,0.3 c-0.3-0.4-0.6-0.9-0.9-1.3l0,0c0.1,0,0.1,0,0.2,0.1c-0.1-0.2-0.1-0.3-0.2-0.4c-0.2-0.5-0.5-1-0.7-1.5V49c0-0.3-0.1-0.6-0.2-0.9 c-0.1-0.2-0.2-0.5-0.3-0.7s0.1-0.4,0.1-0.6c0-0.7-0.1-1.4-0.1-2.1v-2c0-0.4,0.2-0.8,0.2-1.2v-1.9c-0.2,1.4-0.4,2.8-0.6,4.1 c0-0.1,0-0.2-0.1-0.3c-0.1,0.3-0.1,0.6-0.2,0.8h-0.2c0.3-2.1,0-4.3,1.1-6.3v1.4c0.1-0.1,0.1-0.3,0.2-0.4c0.3-0.1,0.3-0.3,0.3-0.6 c0-0.1,0-0.2,0.1-0.3c0.2-0.7,0.5-1.4,0.7-2.1l-0.1-0.1h-0.5c0.1,0.4-0.1,0.6-0.5,0.8c0.1-0.3,0.1-0.6,0.2-0.9 c-0.4,0.4-0.3,0.9-0.4,1.3h0.1c0,0.3,0,0.5,0.1,0.8h-0.2c0-0.3,0-0.5-0.1-0.8l0,0c-0.1,0.3-0.2,0.7-0.4,1v-1.5h-0.1 c0,0.1-0.1,0.1-0.1,0.2c-0.2,0.8-0.3,1.5-0.5,2.3c-0.1,0.8-0.2,1.5-0.2,2.3c-0.1,0.9-0.2,1.7-0.2,2.6c-0.1,2,0.1,4.1,0.8,6 c0.3,0.9,0.7,1.8,1,2.7c0.2,0.4,0.4,2.4,0.6,2.8c0.4,0.7,0.5,3.9,0.6,4.7c0.1,0.5,0.1,1,0.2,1.5h0.1c0.3-0.3,0.5-0.8,0.4-1.2 C30.5,59.6,30.5,58.8,30.4,58z M27.4,46.6c-0.1-0.3-0.1-0.6-0.2-0.9h0.1C27.4,46,27.4,46.3,27.4,46.6z M27.2,44.4l0.3,0.9 C27.1,45.3,27,44.8,27.2,44.4z"/><path class="st2" d="M45.3,36.3"/><path class="st2" d="M27.1,55.2c-0.1-0.8-0.3-1.6-0.5-2.4c-0.5-1.8-0.9-3.7-1.2-5.6c-0.3-1.7-0.4-3.5-0.2-5.3 c0.2-1.2,0.3-2.3,0.5-3.5c0.3-2.3,0.5-4.5,0.7-6.8l0.3-4.5v-1.3c0-0.4,0.1-0.8,0.1-1.2v-1.3H27c0.3,0.3,0.7,0.5,1,0.8 c0.9,1.3,1.7,2.7,2.5,4.1s1.6,2.9,2.5,4.4c0.6,1,1.4,1.8,2.4,2.4c0.1,0,0.1,0.1,0.2,0.1s0.1,0,0.2,0.1c-1.4-1-2.5-2.4-3.3-3.9 c-1-1.7-1.9-3.5-2.9-5.2c-0.5-0.8-1-1.7-1.5-2.5c-0.3-0.5-0.6-0.8-1.1-1.1c-0.2-0.1-0.4-0.1-0.4,0.1c0,0.5-0.1,1-0.1,1.5 c0,1.1,0.1,2.2,0.1,3.3c-0.1,1.7-0.2,3.3-0.4,5c-0.1,1.4-0.3,2.8-0.5,4.2s-0.3,3.1-0.6,4.6c-0.2,1-0.3,2-0.1,3v-0.1l0,0 c0,0.4,0,0.8,0.1,1.2l0,0c0.2,0.7,0,1.4,0.2,2.2c0.1,0.3,0.1,0.7,0.2,1.1c0.4,1.9,1,4.4,1.4,6.3c0.1,0.6,0.2,1.3,0.2,1.9 c0.1,0.4,0.3,6.8,0.3,8.5l-0.3-1.2c-0.2-1.2-0.4-2.3-0.4-3.5c-0.1-0.8-0.5-5.7-0.6-6.5c-0.1-0.6-0.3-1.3-0.4-1.9 c0-0.2,0-0.5-0.1-0.7c-0.1-0.9-0.3-1.8-0.5-2.7c-0.1-1-0.2-1.9-0.4-2.9c-0.2-1.4-0.3-2.7-0.1-4.1c0.3-2.7,0.6-5.4,0.9-8.2 c0.2-2,0.3-3.9,0.4-5.9c0-0.5-0.1-0.9-0.1-1.4l0,0V26l0,0c0-0.1,0.1-0.2,0-0.4c-0.1-0.4-0.2-0.8-0.2-1.2c0-0.7-0.1-1.4-0.3-2.1 c0-0.2,0-0.4-0.1-0.6C25,21.4,25,21,25,20.7c0-0.4,0.2-0.5,0.5-0.3c0.4,0.2,0.7,0.4,1,0.7c-0.4-0.7-1.1-1.2-1.9-1.3h-0.2 c-0.1,0.2-0.2,0.4-0.1,0.6c0.1,0.6,0.4,1.2,0.5,1.9s0.3,1.2,0.4,1.9c0.3,2.2,0.3,4.4,0.1,6.6c-0.2,2.7-0.5,5.4-0.7,8.1 c0,0.6-0.1,1.2-0.3,1.8c-0.2,0.7-0.3,1.5-0.3,2.2c0,1.1,0.1,2.3,0.1,3.5l0,0c0,0.1,0,0.2,0.1,0.2l0,0c0,0.1,0,0.2-0.1,0.3V47H24 c0.1,0.2,0.1,0.3,0.2,0.5l0,0v0.1c0,0.1,0,0.1,0.1,0.1l0,0c0,0.2,0.1,0.5,0.1,0.7c0.1,0.9,0.1,1.7,0.2,2.6c0,0.1,0,0.3,0.1,0.4h0.1 V51l0.3,1.8c0.6,4.3,0.4,9.9,0.6,8.5c-0.1,0.8-0.1,1.7,0.1,2.5c0.3,1,0.7,3.6,0.9,4.6c0.3-0.3,0.9,0.6,1.1,0.3 c-0.1-0.4-0.3-1.5-0.5-2.7C27.4,64.8,27.1,55.8,27.1,55.2z"/><path class="st2" d="M35.9,24.8c-0.2,0-0.3,0.1-0.5,0.1S35.1,25,34.9,25c-0.4-0.1-0.7-0.3-1-0.5l-0.6-0.3v0.1l0.3,0.3h-0.2 l-1.1-0.8c-0.1-0.1-0.2-0.1-0.3-0.2c0.1,0,0.2-0.1,0.4-0.1c-0.1-0.1-0.3-0.2-0.4-0.3c0,0.1-0.1,0.3-0.1,0.4v0.1 c-0.1-0.1-0.2-0.3-0.4-0.4s-0.3-0.1-0.4-0.2c-0.4-0.4-0.8-0.9-1.2-1.4c-0.4-0.5-0.8-1-1.3-1.5L27.4,19c-0.4-0.5-0.9-1-1.4-1.4 c-0.6-0.4-1.2-0.8-1.9-1.2l0.3,0.4c1.3,0.8,2.5,1.9,3.4,3.1c0.4,0.4,0.8,0.9,1.1,1.4c0.8,1,1.6,1.9,2.4,2.9l0.6,0.6 c0.1,0,0.1,0,0.1-0.1c-0.2-0.3-0.4-0.7-0.6-1c0.3,0.2,0.6,0.4,0.9,0.7v-0.2c0.3,0.2,0.6,0.3,0.9,0.5c0,0.1-0.1,0.1-0.1,0.2 c0.1,0,0.3,0,0.4,0.1c0-0.1,0-0.2-0.1-0.2c0.4,0.2,0.9,0.3,1.3,0.5v-0.2c0.7,0.1,1.4,0,2-0.4c0.6-0.2,1.3-0.3,1.7-1 c-0.1,0.1-0.3,0.1-0.4,0.1c0-0.1,0-0.1-0.1-0.1c0.3-0.1,0.5-0.2,0.7-0.4c0-0.1,0-0.1,0.1-0.2c-0.1,0-0.2-0.1-0.3,0 c-0.4,0.3-0.7,0.7-1.1,1C37,24.5,36.5,24.8,35.9,24.8z"/><path class="st2" d="M38,32.5c-0.2,0.1-0.4,0.3-0.6,0.3c-0.7,0-1.3,0-2-0.2c-0.8-0.4-1.5-1-2-1.7c-0.6-0.8-1.1-1.7-1.6-2.5 c-0.7-1.3-1.4-2.5-2.2-3.8h-0.1c0.1,0.2,0.1,0.4,0.2,0.6c0.6,1.1,1.2,2.2,2,3.2c0.4,0.5,0.7,1,0.9,1.6c0.1,0.4,0.5,0.7,0.7,1.1 c0.6,0.9,1.4,1.7,2.4,2.2c0.1,0.1,0.3,0.1,0.4,0.1c-0.9-0.5-1.7-1.2-2.4-2h0.1c0.1,0,0.1,0,0.1,0.1c0.6,0.7,1.3,1.2,2.1,1.5 c0.5,0.1,0.9,0.2,1.4,0.2c0.3,0,0.6,0,0.7-0.4l0.1-0.1c0.2,0,0.3-0.2,0.2-0.4C38.3,32.4,38.2,32.4,38,32.5z"/><path class="st2" d="M41.9,30.4L41.9,30.4c-0.1,0-0.1-0.1-0.2-0.1c-0.1,0.2-0.2,0.4-0.4,0.6c-0.1,0.1-0.1,0.2-0.2,0.3 s-0.5,0.3-0.7,0.5c-0.5,0.3-0.7,0.9-1.4,0.7c0,0.1-0.1,0.2-0.1,0.3l-0.2,0.2V33c0.1,0,0.3,0,0.3-0.1s0.3-0.2,0.5-0.2 c0.4,0,0.5-0.2,0.5-0.4c0.2,0,0.4,0,0.5-0.1c0.4-0.3,0.8-0.6,1.1-1c-0.1-0.2,0-0.4,0.2-0.5c0,0,0,0,0,0l0,0 C42,30.5,42.1,30.5,41.9,30.4z"/><path class="st2" d="M27.7,18.7c0.6,0.8,1.4,1.4,2.2,1.9c-0.2-0.2-0.3-0.4-0.5-0.6c-0.7-0.6-1.3-1.2-2-1.8c-0.4-0.4-0.8-0.7-1.2-1 c-0.7-0.5-1.5-0.9-2.3-1.3l2.8,1.9C27.1,18,27.4,18.3,27.7,18.7z"/><path class="st2" d="M30.9,20.4c0.2,0,0.3,0.1,0.5,0.2c0.4,0.2,0.8,0.5,1.1,0.8l0.1-0.1c-0.9-0.6-1.8-1.3-2.5-2.2l0.3,0.3 c-0.1-0.2-0.4-0.5-0.5-0.5c-0.3,0.2-0.3-0.1-0.6-0.2c0.2,0.5,0.8,0.6,1,1.1c-0.3-0.1-0.5-0.2-0.8-0.3 C29.9,19.9,30.4,20.2,30.9,20.4z"/><path class="st2" d="M37,26.6c0.3-0.2,0.6-0.5,0.9-0.7c0.5-0.3,0.8-0.7,1-1.2c-0.9,0.7-1.8,1.3-2.6,2l0,0c-0.3,0.1-0.6,0.1-1,0.2 C35.9,27.1,36.5,27,37,26.6z"/><path class="st2" d="M34,26.6c0,0.2-0.1,0.2-0.1,0.4c-0.1-0.1-0.2-0.1-0.4-0.2c0.3,0.4,0.7,0.7,1.2,0.8c0.1,0,0.2-0.1,0.3-0.2 C34.9,26.8,34.3,27,34,26.6z"/><path class="st2" d="M24.1,23.3"/><path class="st2" d="M32.9,21.1L32.9,21.1c-0.5-0.5-1-0.9-1.6-1.3v0.1C31.8,20.3,32.2,20.9,32.9,21.1z"/><path class="st2" d="M25.2,67.1c-0.2-1-0.6-3.9-0.8-4.9C24.6,63.8,24.9,65.4,25.2,67.1z"/><path class="st2" d="M26.2,16.8l-0.4-0.4c-0.2-0.2-0.4-0.3-0.7-0.4c-0.2-0.1-0.5-0.3-0.7-0.4v0.1C25,16.1,25.6,16.4,26.2,16.8z"/><path class="st2" d="M37.6,24.9c-0.3,0.1-0.5,0.2-0.8,0.3c-0.1,0.4-0.6,0.2-0.8,0.4C36.6,25.5,37.2,25.3,37.6,24.9z"/><path class="st2" d="M24.2,16.8"/><path class="st2" d="M24.4,17.1c0.3,0.3,0.7,0.6,1.1,0.8c0.1,0,0.1,0.1,0.2,0.1c-0.1-0.2-0.3-0.3-0.4-0.4l-1.1-0.8 C24.3,16.9,24.3,17.1,24.4,17.1z"/><path class="st2" d="M31.8,25.7c0.4,0.5,0.8,1,1.2,1.6l0.1-0.1C32.7,26.6,32.3,26.1,31.8,25.7z"/><path class="st2" d="M30.9,24.4c0.2,0.3,0.5,0.6,0.8,0.8l0.1-0.1C31.6,24.7,31.1,24.3,30.9,24.4z"/><path class="st2" d="M22.8,35c0.1-0.6,0.2-1.2,0.3-1.9H23C23,33.1,22.8,35,22.8,35z"/><path class="st2" d="M39.4,32L39.4,32c0.3-0.2,0.5-0.4,0.6-0.7l-0.1-0.1C39.9,31.6,39.4,31.6,39.4,32z"/><path class="st2" d="M33.2,21.4c0.4,0.2,0.7,0.4,1.1,0.6c0-0.1,0-0.1,0.1-0.1C34,21.7,33.6,21.5,33.2,21.4z"/><path class="st2" d="M40,24c-0.2,0.1-0.5,0.4-0.8,0.6C39.7,24.6,39.8,24.2,40,24z"/><path class="st2" d="M42.3,29.7c-0.4,0.1-0.3,0.4-0.5,0.6C42,30.1,42.2,30,42.3,29.7z"/><path class="st2" d="M43.5,35.7"/><path class="st2" d="M34,34.8c-0.8-0.9-1.6-1.8-2.2-2.8c-0.5-0.9-1.2-1.7-1.7-2.6c-0.3-0.5-0.6-1.1-0.9-1.6s-0.5-1-0.8-1.5 c0-0.1,0-0.1-0.1-0.1l0,0c-0.2-0.3-0.3-0.7-0.3-1.1c0-0.4-0.2-0.5-0.5-0.6l-0.2-0.2h-0.1v0.8h0.2c0-0.2,0.1-0.3,0.1-0.5 c0.2,0.6,0.4,1.3,0.6,1.9c0.6,1.2,1.3,2.4,2,3.6c1,1.7,2.2,3.2,3.5,4.6c1.3,1.4,2.6,2.9,3.9,4.3c0.1,0.1,0.2,0.2,0.2,0.3l0.1-0.1 c0-0.1-0.1-0.1-0.1-0.2C36.3,37.5,35.1,36.2,34,34.8z"/><path class="st2" d="M1.7,29.2C3,27.9,4,27.9,5.8,27.9h4.5c0.9,0.1,1.7-0.2,2.3-0.9c-0.2,0-0.3,0.1-0.5,0.1L12,27 c0.2-0.2,0.4-0.4,0.6-0.7c0.3,0.4,0.8,0.6,0.6,1s-0.4,0.9-0.8,1c-0.4,0.1-0.7,0.1-1.1,0.1c-0.9,0-1.9,0.1-2.8,0.1 c-1.4-0.2-2.7-0.2-4.1,0c-1.1,0.2-1,0.5-1.8,1.2C1.5,30.7,1.7,27.7,1.7,29.2"/><path class="st2" d="M9.2,26.3l-0.1-0.1l0.3-0.4c0.1,0.1,0.1,0.2,0.2,0.4C9.5,26.3,9.4,26.3,9.2,26.3z"/><path class="st2" d="M10.5,25.6c-0.1,0-0.2-0.1-0.3-0.2C10,25.1,9.8,25,9.5,24.9l0.1-0.1l0.9,0.3c0.1,0,0.1,0.2,0.2,0.3 C10.6,25.4,10.5,25.6,10.5,25.6z"/><path class="st2" d="M11.2,24.8c0,0.1,0,0.1-0.1,0.2l-1.5-0.5v-0.1C10.2,24.5,10.8,24.4,11.2,24.8z"/><path class="st2" d="M8.8,25.3c0,0.7-0.1,0.7-1.1,0H8.8z"/><path class="st2" d="M5.7,27.1l-3.1,0.6C3.5,27.1,4.6,26.9,5.7,27.1z"/><path class="st2" d="M18.9,60.3c0.1-0.5,0.1-1,0.2-1.5c0-0.1,0.1-0.3-0.2-0.2c-0.1,0.4-0.2,0.8-0.2,1.2"/><path class="st2" d="M19.7,61.9c0.5-2.5,0.6-5.1,0.5-7.6c-0.2-2.1-0.4-4.2-0.5-6.2c-0.1-1,0-1.9,0.1-2.9c0.1-1.3,0.3-2.6,0.4-4 c0.1-1.1,0.2-2.3,0.5-3.4c0.7-2.9,1.1-5.8,1.4-8.8c0.2-2.1-0.1-4.1-1-6c-0.5-1.2-1.4-2.2-2.6-2.8c-1.1-0.6-2.3-1.2-3.4-1.8 c-0.1-0.1-0.2-0.1-0.3-0.2c0-0.6-0.5-0.5-0.8-0.6c-0.1,0.1-0.1,0.1-0.2,0.1c-0.2-0.2-0.5-0.4-0.8-0.5c-0.7-0.3-1.4-0.5-2-0.8 c-0.3-0.1-0.5-0.2-0.8-0.3V16c0.2,0,0.5,0.1,0.7,0.1V16c-0.2-0.1-0.4-0.1-0.6-0.3s-0.6-0.2-0.7-0.4s-0.3-0.4-0.4-0.6 C9,14.4,9.1,14,9.3,13.8c0.3-0.3,0.6-0.6,0.9-1c-0.1,0.3-0.3,0.6-0.4,0.9c0,0.1-0.1,0.4-0.1,0.5c0.2,0.1,0.4,0.3,0.6,0.3 c0.2,0,0.5,0.1,0.7,0.2c0.2,0.2,0.4,0.2,0.6,0.4c0-0.1,0.1-0.1,0.1-0.2s-0.3-0.2-0.4-0.3c-0.3-0.7,0-1.6,0.7-1.9h0.4 c1.5-1.2,3.2-1.3,5-1.5c0.2,0,0.3,0,0.5,0.1v-0.2c-0.2,0-0.5-0.1-0.6-0.1c0.4,0,0.9-0.1,1.3-0.1h0.9c0.2,0,0.3-0.1,0.5-0.1 s0.4,0.1,0.6,0.1c0.7,0.1,1.3,0.2,2,0.2c1.1,0.2,2.2,0.7,3.1,1.3l3.3,2.1c0-0.1,0-0.1,0.1-0.1l0,0c-1.3-0.9-2.7-1.8-4-2.7 c2,0.9,3.7,2.4,5.6,3.5L30.5,15l-0.1-0.1l0,0l0.1,0.1c1.2,0.9,2.3,1.8,3.5,2.6l-0.1,0.1c-0.5-0.3-1-0.7-1.6-1.1 c0.2,0.2,0.3,0.4,0.5,0.5c0,0.1,0,0.1-0.1,0.1c-1-0.7-1.9-1.4-2.9-2.1c0.2,0.3,0.5,0.6,0.8,0.8c1.3,0.9,2.5,1.8,3.8,2.7 c0.8,0.6,1.7,1,2.7,1.1c0.8,0.1,1.6,0,2.2-0.5c0.6-0.4,1.2-0.9,1.7-1.5c0.3-0.3,0.6-0.7,0.7-1.2c0.2-0.3,0.4-0.6,0.7-0.9 c0.4-0.5,0.7-1.1,1.1-1.6c0.1-0.1,0.1-0.2,0.1-0.3c0.2-0.4,0.3-0.7,0.5-1.1c0-0.1,0.2,0,0.3,0c0.4-0.7,0.7-1.4,1-2.1 c0.1,0.2,0.1,0.2,0.1,0.3c0.2-0.4-0.3-1.8-0.1-2.1l-1.5-1.2c-0.2,0.1-0.3,0.3-0.4,0.5l-0.6,1.2c-0.3,0.6-0.6,1.2-0.8,1.8l0,0 c0.2-0.3,0.5-0.7,0.7-1h0.1c-0.3,0.7-0.7,1.4-1,2.1h-0.1c0-0.1,0-0.3,0.1-0.4c-0.1,0-0.1,0-0.1,0.1c-0.5,1-1.1,1.9-1.6,2.9 c-0.5,1.1-1.5,2-2.7,2.2c-0.2,0-0.4,0.1-0.5,0c-0.3-0.4-0.7-0.3-1-0.3c-1.3-0.4-2.5-1-3.6-1.8c-2-1.4-4-2.8-6-4.1 c-2.9-1.9-6.3-3.1-9.8-3.2c-1.8-0.2-3.6,0.3-5.2,1.2c-1.8,1-3.4,2.4-4.7,4.1c-0.3,0.3-0.6,0.7-0.9,1l0,0c0.1-0.2,0.2-0.3,0.3-0.5 L6,13.2c-0.4,0.5-0.2,1.1-0.7,1.5c-0.3,0.4,0.1,0.6-0.3,1c-0.5,0.6,0.2,1.1-0.2,1.7c-0.1,0.1,0.5-0.1,0.4,0L4,19.5 c0.1-0.1,0.4-0.9,0.6-1c0,0.3-0.4,0.1-0.4,0.3c0,0,0.2,1.1,0.3,1.1s-0.3-1-0.3-1.1c-0.1-0.4-0.3-0.7,0.1-0.8c0,0.3-0.1,0.4-0.1,0.8 c0.4-0.2-0.2,0-0.1-0.8c0.1-0.1,0.1-0.1,0.2-0.1c0.3-0.1,0.6-0.2,0.9-0.2c0.4-0.1,0.8-0.1,1.3-0.2s1.2-0.2,1.7-0.3 C8.4,17,8.7,17,8.9,17c0.9,0,1.8,0.1,2.7,0.3c1.2,0.4,2.3,0.9,3.4,1.4c0.6,0.3,1.1,0.8,1.7,1.1c0.3,0.1,0.7,0.2,1,0.3 c0.6,0.3,1.1,0.7,1.6,1.1c0.5,0.4,0.9,1,1.2,1.5c0.6,0.8,0.9,1.7,1,2.6c0.3,2,0.3,3.9,0,5.9c-0.4,2.3-0.9,4.6-1.5,6.9 c-0.4,2-0.7,4.1-0.9,6.1c-0.1,1.5,0,3.1,0,4.6c0,1.2,0.2,2.5,0.2,3.7c0.1,1.3,0.1,2.6,0,3.9L19,58.8c-0.1,0.6-0.2,1.3-0.3,1.9"/><path class="st2" d="M11.8,10.4L11.8,10.4c0.3-0.2,0.6-0.4,0.8-0.7c-0.1,0-0.2,0.1-0.4,0.1C12.3,9.4,13.1,9,13.9,9 c-0.2,0.1-0.2,0.2-0.3,0.3c0.5-0.1,1-0.3,1.5-0.4V9C14,9.5,12.9,10,11.8,10.4z"/><path class="st2" d="M13,11.8c0-0.1,0-0.1-0.1-0.2c0.3-0.1,0.6-0.2,0.8-0.4c0,0.1,0,0.1,0.1,0.1l0,0C13.5,11.4,13.2,11.6,13,11.8z" /><path class="st2" d="M15.7,9.2V9c0.4,0,0.7-0.1,1.1-0.1V9C16.5,9.1,16.1,9.1,15.7,9.2z"/><path class="st2" d="M20.5,9.3c0.9,0.1,1.8,0.3,2.6,0.6c0,0.1,0,0.1-0.1,0.2C22.3,9.9,21.4,9.6,20.5,9.3z"/><path class="st2" d="M30.7,13.7L30.7,13.7c-0.8-0.4-1.6-0.9-2.3-1.5c0-0.1,0-0.1,0.1-0.1l0,0C29.2,12.6,29.9,13.1,30.7,13.7z"/><path class="st2" d="M25.1,9.9c0,0.1,0,0.1-0.1,0.1l0,0l-1.8-0.9V9C23.8,9.3,24.5,9.6,25.1,9.9z"/><path class="st2" d="M15.5,7.9h1.6c0.1,0,0.2,0.1,0.3,0.2S17.8,8,18,8c2.6,0.4,5.1,1.2,7.4,2.4c1.2,0.7,2.3,1.5,3.4,2.2 c0.3,0.2,0.6,0.4,0.8,0.7c-0.8-0.5-1.7-1.1-2.5-1.6s-1.8-0.9-2.6-1.4c-1.5-0.9-3.2-1.5-5-1.8h-0.2l0.9,0.3 c-1.1-0.1-2.1-0.1-3.2-0.2V8.5h2.4c-1-0.1-2.1-0.2-3.1-0.2h-2L15.5,7.9C15.4,8,15.4,7.9,15.5,7.9z"/><path class="st2" d="M14.3,8.7c-0.9,0.3-1.7,0.6-2.6,0.9c0-0.1,0-0.1-0.1-0.1l0,0C12.3,8.8,13.3,8.5,14.3,8.7z"/><path class="st2" d="M8.7,11.9L8.7,11.9c0.5-0.6,1-1.1,1.5-1.6l0,0C9.7,10.8,9.2,11.3,8.7,11.9z"/><path class="st2" d="M8.7,12.5c0.3-0.3,0.6-0.6,0.8-1l0.1,0.1C9.5,12.1,9,12.2,8.7,12.5z"/><path class="st2" d="M9.5,12.8c0.3-1,1.1-1.8,2.1-2.1c-0.4,0.3-0.7,0.6-1,0.8v0.1c0.1,0,0.2-0.1,0.3-0.2l0,0 C10.5,11.9,10,12.4,9.5,12.8z"/><path class="st2" d="M8.6,16.2v-0.3h0.8v0.2C9.2,16.1,8.9,16.2,8.6,16.2z"/><path class="st2" d="M19.8,55.2v-1.7h0.1v1C19.8,54.7,19.8,54.9,19.8,55.2z"/><path class="st2" d="M19.6,58.3c0.1-0.9,0.1-1.9,0.1-2.8h0.1c0,0.9,0,1.9-0.1,2.8H19.6z"/><path class="st2" d="M22.6,65.1c0.2-2.6,0.1-5.2-0.1-7.8c-0.1-1.5-0.3-2.9-0.5-4.4c0-0.1-0.1-0.2-0.2-0.3l0,0v-0.2l0,0v-0.1l0,0 c-0.1-0.3-0.1-0.6-0.2-0.9h-0.1c0-0.1,0.1-0.3,0.1-0.4c0-1.4,0-2.8,0.1-4.2c0.1-0.9,0.3-1.8,0.5-2.7v-0.9l0,0c0-0.5,0.1-1,0.1-1.5 c0-0.1,0.2-0.3,0.2-0.4c-0.3,0.2-0.2-0.1-0.2-0.2l0.3-2.1c0.1-0.1,0.1-0.1,0.2-0.1v-1.5l0,0c0-0.1,0-0.3,0.1-0.4l0,0 c0.1-0.1,0.2-0.2,0.2-0.3c0.1-0.4,0.1-0.8,0.1-1.2c0.1-0.8,0.2-1.5,0.2-2.3c0.1-0.6,0.1-1.3,0-1.9c0.1-1.2,0.2-2.4,0.2-3.6 c-0.1-1-0.2-1.9-0.3-2.9L23,23.9v0.3c0.1,0.7,0.2,1.3,0.2,2c0,1.7,0,3.5-0.1,5.2c0,0.5-0.1,1.1-0.2,1.6h-0.1v-0.3l0.3-4.8 c0-3.5-0.7-6.7-3.4-9.2c-0.5-0.5-1-1.2-1.7-1.4h-0.1c0.2,0.2,0.3,0.5,0.5,0.6c0.6,0.6,1.3,1.1,1.9,1.8c1.1,1.3,1.9,2.9,2.2,4.6 c0.4,2.3,0.5,4.7,0.2,7.1c-0.5,4-1.2,8-1.6,12c-0.4,2.7-0.4,5.4-0.2,8.1c0.3,2.8,0.4,5.5,0.3,8.3c0,2-0.3,4-0.8,5.9"/><path class="st2" d="M21.5,69.2c0.5-2.2,0.8-4.5,0.9-6.8h0.1c0,0.3,0.1,0.6,0,0.8"/><path class="st2" d="M21.8,41.6c0.2-1.4,0.4-2.7,0.7-4.1c0-0.3,0.1-0.7,0.1-1.1h0.2c-0.1,0.3-0.1,0.7-0.2,1c-0.1,0.7-0.1,1.3-0.2,2 s-0.1,1.2-0.2,1.8c0,0.1-0.1,0.2-0.1,0.3S21.9,41.6,21.8,41.6z"/><path class="st2" d="M21.4,50.3L21.4,50.3v-0.2l0.1-0.1l-0.1-0.1l0.1-0.1c-0.1,0-0.1,0-0.1-0.1l0,0l0.1-0.1c0-0.1,0-0.1-0.1-0.1 l0,0v-0.1l0,0v0.1l0,0c0,0.1,0,0.1,0.1,0.1l-0.1,0.1l0,0c0.1,0,0.1,0,0.1,0.1l-0.1,0.1l0.1,0.1c0,0.1,0,0.1-0.1,0.1v0.1l0,0 C21.3,50.2,21.3,50.2,21.4,50.3z"/><path class="st2" d="M22.1,57.1c0-0.2,0.1-0.5,0.1-0.7v-0.5h0.1c0,0.2-0.1,0.3-0.1,0.5c0,0.2,0,0.5,0.1,0.7H22.1z"/><path class="st2" d="M47.4,40.9"/><path class="st2" d="M31.6,58.8c-0.2-0.4-0.2-1-0.5-1.2c-0.3-0.1-0.4-0.5-0.2-0.7c0,0,0-0.1,0-0.1v-0.4c0-0.2,0-0.4,0.1-0.5 c0.3-0.3,0.2-0.5,0.1-0.9s-0.3-0.7,0.1-1.1v-0.3c0-0.4,0-0.7,0.1-1.1l0.1-0.1c0.1-0.1,0.2-0.3,0.4-0.5c0.2,0,0.3,0.1,0.5,0.2 l0.1-0.1c-0.3-0.4-0.5-0.7-0.8-1.1c0.5-0.1,0.5-0.1,0.4-0.4c0-0.1,0-0.1-0.1-0.2v-0.5h0.5c0.1,0,0.1,0,0.2,0.1c0-0.2,0-0.4,0.1-0.4 c0.4-0.5,0.5-0.9,0.1-1.3c-0.1-0.1-0.2-0.2-0.3-0.4c0,0.1,0,0.1-0.1,0.2c-0.4-0.7-0.4-1,0-1.3c0.1,0.1,0.2,0.2,0.3,0.4 c0.4-0.4,0.1-0.8,0-1.1c-0.2,0-0.4,0-0.4-0.1c-0.2-0.2-0.4-0.4-0.6-0.7c-0.1-0.2-0.3-0.3-0.4-0.5c-0.2-0.2-0.4-0.3-0.6-0.4 l-0.6,0.6c-0.1-0.1-0.1-0.2-0.2-0.3h-0.1c-0.1,1-0.2,1.9-0.3,2.9h-0.1c0-0.1-0.1-0.2-0.2-0.4c-0.2,1-0.2,1.9-0.3,2.8 c0,0.5,0,0.9-0.1,1.4c-0.1,0.3-0.1,0.7-0.1,1l0,0v0.5h0.2c0-0.3,0.1-0.6,0.1-0.9c0.1,0.2,0.2,0.3,0.2,0.5h0.1c0-0.5,0-0.9,0.1-1.4 h0.1c0.1,0.1,0.1,0.3,0.2,0.4c0.2,0.6,0.3,1.3,0.4,1.9c0,0.2-0.1,0.4-0.1,0.6c-0.2-0.2-0.4-0.3-0.4-0.4c-0.7,0.8-0.2,1.6-0.2,2.4 c-0.1-0.2-0.3-0.5-0.4-0.7l0,0c0.1,0.4,0.2,0.8,0.4,1.1c-0.1-0.1-0.4-0.2-0.4-0.4c-0.1-0.2-0.1-0.5-0.1-0.7h0.2 c-0.1-0.6-0.2-1.1-0.3-1.6c-0.1-0.3-0.2-0.5-0.2-0.8c-0.1-0.3,0-0.5,0.3-0.4l0,0l-0.3-0.6c-0.2,0.4-0.3,0.9-0.3,1.4 c0.1,0.3,0.1,0.5,0.2,0.8c0.2,1,0.2,2,0.5,3c0.5,1.6,1.1,3.2,1.7,4.8"/><path class="st2" d="M31,47.4c0,0.3,0,0.6,0.1,0.9H31c-0.2-0.5-0.3-1-0.5-1.5s0.2-0.7,0.5-0.9c0,0,0.3,0,0.3,0.1 c0.3,0.6,0.5,1.2,0.6,1.9c-0.1-0.2-0.2-0.5-0.3-0.7l-0.4-0.4C31.2,47,31.1,47.2,31,47.4z"/><path class="st2" d="M22.9,54.8"/><path class="st2" d="M24.8,66.2c-0.1-1-0.1-2-0.2-3c-0.1-0.8-0.3-1.6-0.4-2.4c-0.1-0.3,0-0.6-0.1-0.9c-0.1-1.1-0.3-2.3-0.5-3.4 s-0.2-2.5-0.3-3.7c-0.2-1.8-0.2-3.5,0-5.3c0.5-3.5,1-6.9,1.4-10.4c0.3-2.5,0.6-5,0.8-7.5c0.1-0.6,0-1.2-0.1-1.8l0,0v-0.4l0,0 c0-0.2,0.1-0.3,0.1-0.5c-0.2-0.5-0.2-1-0.2-1.5c0.2-1-0.3-1.8-0.3-2.6c0-0.3,0-0.5-0.1-0.8c-0.3-0.4-0.2-0.8-0.2-1.3 s0.3-0.6,0.7-0.3c0.5,0.3,0.9,0.6,1.3,1c-0.5-0.9-1.3-1.5-2.3-1.8h-0.2C24.1,19.8,24,20,24,20.3c0.1,0.8,0.5,1.6,0.6,2.4 c0.1,0.8,0.2,1.6,0.4,2.4c0.3,2.8,0.2,5.7-0.1,8.5c-0.4,3.5-0.8,6.9-1.3,10.4c0,0.8-0.2,1.6-0.4,2.3c-0.3,0.9-0.5,1.8-0.4,2.8 c-0.1,1.5,0,3,0,4.4l0,0c0,0.1,0.1,0.2,0.1,0.3l0,0c0,0.1-0.1,0.3-0.1,0.4v0.1h-0.1c0.1,0.2,0.2,0.4,0.2,0.6l0,0V55 c0,0.1,0.1,0.1,0.1,0.2l0,0c0,0.3,0.1,0.6,0.1,1c0.1,1.1,0.1,2.2,0.1,3.3c0,0.2,0,0.4,0.1,0.6h0.1v-0.5c0.1,0.8,0.2,1.5,0.3,2.3 c0.2,1.9,0.3,3.8,0.1,5.7"/><path class="st2" d="M28.4,63.1c-0.3-1.1-0.8-2.1-1.2-3.2c-0.5-1.8-0.9-3.6-1.4-5.5c-0.1-0.4-0.1-0.8-0.2-1.2h-0.1 c0.1,0.6,0.1,1.2,0.2,1.8h-0.1c-0.1-0.6-0.2-1.2-0.2-1.8c-0.1-0.9-0.1-1.7-0.1-2.6c0.1,0.1,0.2,0.2,0.3,0.2c0-0.5,0-1.1,0.1-1.6 c0.1-0.9,0.3-1.7,0.4-2.6s0.3-2.1,0.4-3.2c0.1-0.4,0.2-0.9,0.2-1.3c0.1-0.9,0.1-1.7,0.2-2.6c0-0.1,0-0.2,0.1-0.2 c0.3-0.2,0.1-0.4-0.1-0.7c-0.2,1.7-0.4,3.4-0.7,5c-0.1,1.2-0.3,2.4-0.6,3.5c-0.3,0.9-0.4,1.9-0.4,2.8l-0.1-0.1L25,49.9 c-0.1,0.8-0.2,1.7-0.2,2.5c0,0.5,0.1,1.1,0.1,1.6c0,0.4,0,0.7,0.1,1.1c0.2,1,0.5,2.1,0.8,3.1c0.2,1.1,0.5,2.2,0.9,3.2 c0.1,0.1,0,0.2,0.1,0.3s0.1,0.3,0.2,0.5c0.3,0.8,0.6,1.7,0.8,2.5"/><path class="st2" d="M23.2,65.3c-0.1-1.1-0.1-2.1-0.1-3.2V62C23,62.2,23,62.5,23,62.8c0.1,1.7-0.1,3.5-0.4,5.2"/><path class="st2" d="M46.3,11.7c0.3-0.4,0.7-0.9,1-1.3l-0.1-0.1c-0.3,0.4-0.7,0.9-1,1.3L46.3,11.7z"/><path class="st2" d="M5,30c0,0.1,0,0.2-0.1,0.3c1.3-0.2,2.6-0.1,3.8,0.2c1.2,0.2,2.5,0.4,3.7,0.5c1.2,0.1,2.4-0.2,3.3-1 c1-1,1.3-2.6,0.7-3.9c-0.5-1.5-1.7-2.2-2.9-3c-0.2-0.1-0.5-0.2-0.7-0.3l0,0c0.5,0.3,0.9,0.6,1.4,0.9c0,0.1,0,0.1-0.1,0.1l0,0 c-0.4-0.2-0.7-0.3-1.1-0.5c0,0.1,0,0.1,0.1,0.2s0.2,0.1,0.3,0.2c0.9,0.6,1.6,1.4,2,2.4c0.5,1.2,0.2,2.6-0.9,3.3 c-0.1,0-0.1,0-0.2,0.1c0.1,0.4-0.3,0.4-0.4,0.4c-0.8,0.1-1.5,0.1-2.3,0.2h-0.5v0.1c0.4,0.2,0.8,0.3,1.3,0.3c0.6,0,1.2-0.1,1.8-0.1 c-0.6,0.5-1.5,0.7-2.3,0.4c-1.3-0.2-2.6-0.5-3.9-0.9c-0.5-0.2-1.1-0.3-1.6-0.4c-2.7-0.3-2.3-0.9-2.9,1.6"/><path class="st2" d="M16.5,27.8c-0.2,1-1.2,2.3-2,2.2c1.1-0.5,1.8-1.7,1.7-2.9c0-1.4-0.9-2.2-1.9-3C15.7,24.7,16.6,26.2,16.5,27.8z "/><path class="st2" d="M6.3,20.1c1.3-0.3,2.6-0.6,3.9-0.7h0.1c0.9,0.2,1.9,0.3,2.8,0.5c0.4,0.1,0.8,0.3,1.2,0.4s1,0.5,1.5,0.7 c0.3,0.2,0.6,0.3,0.9,0.5c0.1,0,0.1,0,0.1,0.1l0,0c1.5,0.5,2.7,1.6,3.2,3.1c0.5,1.3,0.6,2.6,0.5,4c-0.1,0.8-0.3,1.6-0.4,2.4 c0.1-0.1,0.2-0.2,0.2-0.3c0.1-0.7,0.2-1.5,0.3-2.2c0.1-1.3,0-2.6-0.3-3.8c-0.5-1.3-1.3-2.4-2.5-3.2c0.1,0,0.2,0,0.3,0.1 c0-0.1,0-0.1,0.1-0.1l0,0c-0.5-0.3-1-0.6-1.5-0.8c-0.9-0.5-1.8-1-2.8-1.4c-1.1-0.5-2.3-0.7-3.5-0.7c-0.9,0-1.8,0.2-2.7,0.5 c-1,0.4-2.2,0.8-3.2,1.1"/><path class="st2" d="M19.5,22.2c-0.1-0.1-0.1-0.1-0.2-0.1C19.4,22.2,19.4,22.2,19.5,22.2z"/><path class="st2" d="M19.4,38.7c0.5-2.3,1.1-4.7,1.6-7c0.5-2.2,0.6-4.5,0.1-6.7c-0.2-1.6-1.2-3-2.5-3.9c-0.7-0.4-1.4-0.8-2.2-1.2 c-0.2-0.2-0.5-0.3-0.8-0.4l0,0c1.2,0.9,2.5,1.8,3.7,2.6h0.1l0.5,0.5c0.1,0.1,0.1,0.2,0.2,0.3c0.8,1.4,1.2,3,1.2,4.6 c0,2.3-0.4,4.7-1,6.9c-0.3,1.2-0.7,2.3-1,3.5s-0.6,2.7-0.9,4c-0.2,0.9-0.3,1.8-0.4,2.6c-0.1,0.8-0.1,1.5,0,2.3h0.1v-0.7h0.2 l0.3,3.9h0.1c0-0.7-0.1-1.3-0.1-2c0-1.4-0.2-2.7-0.1-4.1C18.7,42.1,19,40.4,19.4,38.7z"/><path class="st2" d="M9.7,18c-1.8,0.2-3.5,0.7-5,1.6c0,0.1,0,0.1,0.1,0.1l0,0c1.1-0.4,2.1-0.7,3.1-1c-0.2,0.1-0.4,0.2-0.6,0.4 c0.4-0.1,0.9-0.2,1.3-0.4v-0.2C8.9,18.1,9.4,18.6,9.7,18z"/><path class="st2" d="M8.6,20.3L8.6,20.3c-0.1-0.1-0.2-0.3-0.3-0.2l-1.2,0.3c0,0.1,0,0.1,0.1,0.3C7.5,20.2,8.1,20,8.6,20.3z"/><path class="st2" d="M18.8,58.6"/><path class="st2" d="M18.8,57.4c0,0.3-0.1,0.5-0.1,0.8v0.1c0,0.1,0.1,0.2,0.1,0.3C18.8,58.2,19.2,57.8,18.8,57.4z"/><path class="st2" d="M18.8,46.4c-0.1-0.5-0.1-1.1-0.2-1.6h-0.1C18.6,45.3,18.7,45.8,18.8,46.4z"/><path class="st2" d="M5.7,13.4L5.7,13.4c0.6-0.5,1.1-1.1,1.6-1.7l0,0C6.7,12.3,6.2,12.9,5.7,13.4z"/><path class="st2" d="M4.1,19.9"/><path class="st2" d="M29.9,61.1c-0.4-0.6-0.7-1.2-1.1-1.7l0.1-0.1c0.1,0,0.1,0.1,0.2,0.1c-0.1-0.2-0.2-0.4-0.2-0.6 c-0.3-0.6-0.6-1.2-0.8-1.9c-0.1-0.1,0-0.3,0-0.4c0-0.4-0.1-0.7-0.2-1.1c-0.1-0.3-0.3-0.6-0.4-0.9s0.1-0.5,0.1-0.8 c0-0.9-0.1-1.8-0.1-2.7c0-0.8,0-1.7,0.1-2.5c0.1-0.5,0.2-1,0.3-1.6c0.1-0.8,0-1.6,0.1-2.4c-0.3,1.8-0.6,3.5-0.9,5.2 c0-0.1,0-0.3-0.1-0.4c-0.1,0.4-0.1,0.7-0.2,1h-0.2c0.5-2.6,0.1-5.4,1.6-8v1.8c0.1-0.2,0.2-0.3,0.3-0.5c0.3-0.1,0.4-0.4,0.4-0.7 c0-0.1,0.1-0.3,0.1-0.4c0.3-0.9,0.7-1.8,1-2.7l-0.1-0.1h-0.7c0.1,0.4-0.1,0.9-0.6,1c0,0,0,0,0,0l0,0c0.1-0.4,0.2-0.8,0.2-1.2 c-0.5,0.5-0.4,1.1-0.5,1.7h0.2c0,0.3,0,0.7,0.1,1h-0.2c0-0.3,0-0.7-0.1-1l0,0c-0.3,0.4-0.5,0.8-0.7,1.3c0-0.7,0.1-1.3,0.1-1.9h-0.1 c0,0.1-0.1,0.2-0.1,0.3c-0.2,1-0.5,1.9-0.6,2.8s-0.2,1.9-0.3,2.9s-0.2,2.2-0.4,3.3c-0.2,2.6,0,5.1,0.8,7.6c0.3,1.2,0.7,2.3,1.2,3.4 c0.1,0.6,0.3,1.2,0.6,1.7"/><path class="st2" d="M29.2,61.7c-0.3-0.8-0.6-1.5-0.9-2.3c0.1,0,0.1,0,0.1-0.1c0.1,0.3,0.3,0.7,0.4,1c0,0.1,0.1,0.2,0.2,0.3 c0.2,0.2,0.5,0.3,0.8,0.4"/><path class="st2" d="M26.8,52.3c0.1,0.4,0.1,0.8,0.2,1.1h-0.1C26.8,53,26.8,52.6,26.8,52.3z"/><path class="st2" d="M27,51.8c-0.5,0-0.7-0.5-0.4-1.2C26.8,50.9,26.9,51.3,27,51.8z"/><path class="st2" d="M44.9,45.1c-0.9,0.3-1.6,0.8-2.3,1.4c-0.2,0.2-0.4,0.3-0.7,0.4l-0.6,0.3c-0.1,0.1-0.2,0.2-0.4,0.3 c-0.1,0.1-0.3,0.2-0.4,0.3C40.3,48.1,40,48,39.7,48h-0.3c-0.1,0-0.2,0.1-0.3,0.1c-0.4-0.2-0.9-0.2-1.2,0.2c-0.5-0.3-1-0.6-1.4-1 c-0.6-0.5-1.3-0.9-1.9-1.4c-0.5-0.4-1-0.9-1.5-1.4c-0.3-0.3-0.5-0.6-0.7-0.8c-0.6-0.5-0.8-1.2-0.7-1.9c0.1-0.2,0.1-0.4,0.1-0.6 c-0.4-0.2-0.9-0.4-1.3-0.5c0,0.1,0,0.3-0.1,0.4c-0.4,0.2-0.2,0.5,0,0.6c0.9,0.5,0.9,1.4,1.3,2.2c0.1,0.2,0.2,0.6,0.4,0.7 c0.4,0.1,0.3,0.3,0.4,0.6l0.3,0.6c0.1,0.2,0.3,0.3,0.5,0.5c0.4,0.5,0.8,1,1.3,1.4v-0.2c0.5,0.2,1.1,0.4,1.6,0.6 c0.7,0.2,1.3,0.4,2,0.7c0.6,0.2,1.2,0.3,1.8,0.4c0.1,0,0.2,0,0.3-0.1c-0.2-0.1-0.5-0.1-0.7-0.2v-0.1c0.4,0,0.8,0.1,1.1,0.1 c0.2-0.2,0.4-0.4,0.5-0.6c0.2-0.4,0.6-0.7,1.1-0.7c0.4-0.1,0.8-0.3,1.1-0.6"/><path class="st2" d="M26.1,64.3c-0.2-1.1-0.6-2.3-0.7-3.4c-0.4-2.3-0.8-4.5-1.1-6.8c-0.4-2.2-0.4-4.5-0.1-6.8 c0.2-1.5,0.5-3,0.7-4.5c0.4-2.9,0.8-5.7,1.1-8.6c0.2-1.9,0.3-3.8,0.5-5.7v-1.6c0-0.5,0.1-1,0.1-1.5s0.1-1.1,0.1-1.7h0.2 c0.4,0.3,0.8,0.7,1.2,1.1c1.1,1.7,2.1,3.5,3.1,5.3c1,1.8,2,3.8,3.1,5.7c0.7,1.3,1.7,2.3,2.9,3.1c0.1,0,0.1,0.1,0.2,0.2 s0.1,0,0.2,0.1c-1.7-1.4-3.1-3.1-4.1-5c-1.2-2.2-2.3-4.5-3.5-6.7c-0.6-1.1-1.2-2.2-1.9-3.2c-0.3-0.6-0.8-1.1-1.4-1.4 c-0.3-0.2-0.5-0.1-0.6,0.2C26,23.6,26,24.2,26,24.8c0,1.4,0.1,2.8,0,4.1c-0.1,2.1-0.4,4.2-0.6,6.3c-0.2,1.8-0.4,3.5-0.7,5.3 s-0.5,3.9-0.8,5.8c-0.3,1.2-0.4,2.5-0.2,3.8V50l0,0v1.5l0,0c0.2,0.9-0.1,1.8,0.2,2.7c0.1,0.5,0.2,0.9,0.2,1.4 c0.5,2.5,1,4.9,1.4,7.4l0.3,1.8"/><path class="st2" d="M35.3,26.1H35l-1.3-1c-0.1-0.1-0.3-0.2-0.4-0.3c0.1-0.1,0.3-0.1,0.5-0.2c-0.1-0.2-0.3-0.3-0.5-0.4 c0,0.2-0.1,0.3-0.1,0.5v0.1c-0.2-0.2-0.3-0.4-0.5-0.5s-0.4-0.1-0.5-0.2l-1.5-1.8c-0.5-0.7-1-1.4-1.6-2c-0.5-0.5-1-1.1-1.5-1.6 s-1.1-1.3-1.7-1.8c-0.7-0.6-1.5-1.1-2.3-1.6l-2.1-1.2c-0.3-0.2-0.7-0.1-1.1-0.2c0.1,0.1,0.3,0.2,0.4,0.3c1.1,0.5,2.2,1,3.2,1.6 c1.6,1.1,3.1,2.5,4.3,4.1c0.5,0.6,0.9,1.2,1.3,1.9c1,1.3,1.9,2.6,2.9,3.9c0.2,0.3,0.5,0.6,0.7,0.9c0.1,0,0.1,0,0.1-0.1 c-0.2-0.5-0.5-0.9-0.7-1.3c0.3,0.3,0.7,0.6,1.2,1c0-0.2-0.1-0.2-0.1-0.2c0.4,0.2,0.8,0.5,1.2,0.7c0,0.1-0.1,0.1-0.1,0.2 c0.2,0,0.3,0.1,0.5,0.1c0-0.1-0.1-0.2-0.1-0.3c0.5,0.2,1.1,0.5,1.6,0.7v-0.3c0.9,0.2,1.7,0,2.5-0.4c0.8-0.3,1.7-0.4,2.2-1.3 c-0.2,0.1-0.3,0.1-0.5,0.1c0-0.1,0-0.1-0.1-0.1c0.3-0.1,0.6-0.3,0.8-0.5c0.1,0,0.1-0.2,0.1-0.3s-0.3-0.1-0.3,0 c-0.4,0.5-0.9,0.9-1.4,1.2c-0.6,0.5-1.4,0.8-2.2,0.8c-0.2,0-0.4,0.1-0.6,0.1s-0.5,0.2-0.6,0.1c-0.4-0.2-0.8-0.4-1.3-0.6 c-0.3-0.1-0.6-0.2-0.8-0.4v0.1c0.2-0.2,0.4-0.1,0.6,0C35.3,25.9,35.3,26,35.3,26.1z"/><path class="st2" d="M48.1,34.3c-0.2,0.3-0.4,0.5-0.6,0.8L47.4,35C47.6,34.7,47.8,34.5,48.1,34.3z"/><path class="st2" d="M32.7,30.9c-0.9-1.7-1.8-3.4-2.6-5.1h-0.2c0.1,0.3,0.1,0.6,0.2,0.8c0.7,1.5,1.5,2.9,2.4,4.3 c0.5,0.6,0.9,1.4,1,2.2c0.2,0.5,0.5,1,0.9,1.5c0.7,1.2,1.7,2.3,3,2.9c0.2,0.1,0.4,0.1,0.6,0.2c-1.2-0.7-2.2-1.6-3-2.7h0.1 c0.1,0,0.1,0,0.1,0.1c0.7,0.9,1.6,1.5,2.6,2c0.6,0.2,1.2,0.3,1.8,0.3c0.3,0,0.8,0.1,0.9-0.4c0.1-0.1,0.1-0.1,0.2-0.1 c0.3,0,0.3-0.2,0.3-0.5c-0.2,0.1-0.4,0.1-0.5,0.2c-0.3,0.1-0.5,0.4-0.8,0.3c-0.9,0.1-1.7-0.1-2.5-0.4c-1-0.5-1.9-1.3-2.5-2.3 C34,33.1,33.3,32,32.7,30.9z"/><path class="st2" d="M20.3,13.6c-0.9-0.3-1.9-0.3-2.9-0.2c-0.4,0.1-0.8,0.1-0.9,0.6c0,0.1-0.2,0.2-0.4,0.2 c-0.4,0.1-0.6,0.5-0.3,0.8c0.6,0.7,1.2,1.3,1.9,1.9c0.1,0.1,0.2,0,0.3,0v-0.1l-0.3-0.3l-0.9-0.9c-0.2-0.3-0.1-0.8,0.2-1 c0.1,0.3,0.3,0.5,0.4,0.8h0.1c-0.2-0.4-0.1-1,0.3-1.3c0.4-0.3,0.9-0.4,1.4-0.3c0.4,0.1,0.7,0.1,1.1,0 C20.4,13.7,20.4,13.6,20.3,13.6z"/><path class="st2" d="M20.4,13.8"/><path class="st2" d="M28.5,14.8c0.2,0.2,0.3,0.4,0.5,0.6c0.9,0.8,1.8,1.5,2.7,2.2c0.3,0.2,0.6,0.4,0.9,0.7l2.6,2 c0.1,0.1,0.2,0.1,0.3,0.1H36l1.1,0.3c0-0.1,0-0.1,0.1-0.1C34,19.1,31.4,16.7,28.5,14.8z"/><path class="st2" d="M23.1,21.6c-0.6-1.6-1.4-3.1-2.5-4.5h0.2c-0.1-0.3-0.3-0.7-0.2-0.9c0.3-0.5,0.7-0.9,1.1-0.7 c-0.5-0.3-1.1-0.4-1.7-0.4c-0.1,0.2-0.1,0.4-0.2,0.5c-0.4,0.3-0.3,0.6-0.1,0.9c0.3,0.6,0.7,1.1,1.2,1.6c0.9,1,1.6,2.2,2.1,3.4 C22.9,21.5,23,21.5,23.1,21.6z"/><path class="st2" d="M43.4,35.5c-0.6,0.4-0.9,1.2-1.8,1c-0.1,0.2-0.1,0.3-0.2,0.4s-0.2,0.2-0.3,0.2v0.1c0.2,0,0.4,0,0.4-0.1 c0.2-0.2,0.4-0.3,0.6-0.3c0.5,0,0.7-0.2,0.7-0.5c0.2-0.1,0.5,0,0.6-0.1c0.5-0.4,0.9-0.8,1.5-1.3c-0.1-0.2,0-0.5,0.2-0.6h0.1 c0.2-0.1,0.3-0.2,0-0.3l0,0c-0.1,0-0.2-0.1-0.3-0.1c-0.1,0.3-0.3,0.6-0.5,0.8c-0.1,0.1-0.2,0.3-0.3,0.3S43.7,35.3,43.4,35.5z"/><path class="st2" d="M44.4,28.1c0.1-0.1,0.1-0.2,0.2-0.3c0.3-0.4,0.6-0.7,0.9-1.1c0.4-0.4,0.9-0.8,1.4-1.2c0.7-0.7,1.3-1.5,1.9-2.2 c0-0.1,0-0.1,0.1-0.1l-0.1-0.1c-2,1.2-3.1,3.2-4.6,4.9C44.3,28,44.3,28.1,44.4,28.1z"/><path class="st2" d="M20.8,13.1c0,0.1,0,0.1-0.1,0.1l0,0c0.5,0.2,1.1,0.5,1.6,0.7c1.5,0.8,2.9,1.8,4.2,2.9c0.5,0.4,0.9,0.8,1.3,1.3 c0.7,1.1,1.7,1.9,2.8,2.5c-0.2-0.3-0.4-0.5-0.6-0.7l-2.5-2.5c-0.5-0.5-1-1-1.5-1.4c-0.9-0.6-1.9-1.3-2.8-1.8S21.6,13.5,20.8,13.1z" /><path class="st2" d="M44.2,42c0.1-0.1,0.3-0.1,0.4-0.1c0.3,0.1,0.4,0.1,0.6-0.1c0.4-0.4,0.8-0.7,1.2-1.1c0.5-0.4,1-0.8,1.3-1.4 c0-0.1,0.1-0.2,0.1-0.3l0,0c-1.4,1-2.7,2-4,3.1C44,42.1,44.1,42,44.2,42z"/><path class="st2" d="M31.8,20.4c0.2,0,0.4,0.2,0.6,0.3c0.5,0.3,1,0.7,1.4,1.1l0.1-0.1c-1-1-2.4-1.6-3.1-2.9 c0.1,0.1,0.2,0.3,0.3,0.4c-0.1-0.3-0.3-0.5-0.6-0.7c-0.3,0.2-0.4-0.2-0.7-0.3c0.3,0.7,1,0.9,1.3,1.5c-0.3-0.1-0.7-0.3-1-0.4 C30.6,19.8,31.1,20.4,31.8,20.4z"/><path class="st2" d="M39.5,28.9l1.2-0.9c0.6-0.4,1-0.9,1.3-1.5c-1.1,0.8-2.2,1.7-3.4,2.5l0.1,0.1c-0.4,0.1-0.8,0.2-1.3,0.3 C38.1,29.5,38.9,29.3,39.5,28.9z"/><path class="st2" d="M19.5,14.6c0.5,0.1,1,0.1,1.5,0.2c0.7,0.2,1.4,0.5,2,0.7h0.5c-0.3-0.1-0.7-0.2-1-0.4c-0.8-0.5-1.7-0.8-2.7-0.8 l-1.4,0.3l-0.1,0.1c0.1,0.1,0.1,0.2,0.2,0.3C18.6,14.6,19.1,14.4,19.5,14.6C19.5,14.5,19.5,14.6,19.5,14.6z"/><path class="st2" d="M40.7,19.1c0.9-0.9,1.6-2,2.2-3.1c0.1-0.3,0.2-0.7,0.3-1c-0.8,1.5-1.8,3-2.9,4.3 C40.5,19.2,40.6,19.2,40.7,19.1z"/><path class="st2" d="M43.2,15"/><path class="st2" d="M34.7,41.3c0.5,0.7,1,1.3,1.6,2c0.2,0.2,0.5,0.4,0.8,0.5l0.2-0.1C36.4,42.8,35.5,42,34.7,41.3z"/><path class="st2" d="M36.6,29.9c0.1,0,0.2-0.1,0.3-0.2c-0.2-0.7-0.9-0.5-1.3-1c0,0.2-0.1,0.3-0.1,0.5c-0.1-0.1-0.3-0.2-0.4-0.3 C35.5,29.3,36,29.6,36.6,29.9z"/><path class="st2" d="M16.2,18l0.1-0.1l-3.1-2.2c-0.1,0.1-0.1,0.1-0.1,0.2C14.1,16.6,15.1,17.3,16.2,18z"/><path class="st2" d="M23.3,24.1"/><path class="st2" d="M22.7,21.7c0-0.1-0.2-0.1-0.3-0.2l0.6,2.1c0.1,0.1,0.1,0.2,0.2,0.4C23.4,23.2,23.2,22.3,22.7,21.7z"/><path class="st2" d="M12.4,14.9l2,1.4h0.1c0-0.1-0.1-0.2-0.1-0.3c-0.4-0.3-0.8-0.6-1.2-0.8c-0.3-0.2-0.6-0.4-1-0.5 C12.4,14.8,12.4,14.9,12.4,14.9z"/><path class="st2" d="M45.2,21.9c-0.2,0.3-0.4,0.6-0.7,0.9c0.1,0,0.1,0.1,0.2,0.1c0.7-1.2,1.4-2.3,2.1-3.5c-0.6,0.3-0.8,0.9-1.1,1.4 C45.5,21.1,45.3,21.5,45.2,21.9z"/><path class="st2" d="M34.4,21.3c-0.7-0.5-1.3-1.1-2-1.6c0,0.1,0,0.1-0.1,0.1C33,20.3,33.5,21.2,34.4,21.3z"/><path class="st2" d="M20.6,46.3c0.2-1.5,0.3-2.9,0.5-4.4H21c-0.2,1.5-0.3,2.9-0.5,4.4H20.6z"/><path class="st2" d="M26,15.6c-0.2-0.2-0.3-0.4-0.5-0.5l-0.9-0.6c-0.3-0.2-0.6-0.4-0.9-0.5v0.1C24.5,14.6,25.2,15.1,26,15.6z"/><path class="st2" d="M36.2,40.1c0.8,0.7,1.6,1.2,2.6,1.6c-0.9-0.6-1.7-1.1-2.5-1.7L36.2,40.1z"/><path class="st2" d="M15.5,11.5c0.9,0,1.9-0.1,2.8-0.1C17.4,11,16.4,11.1,15.5,11.5z"/><path class="st2" d="M20.9,18.6c-0.6-0.7-1.2-1.4-1.8-2c0.1,0.1,0.1,0.3,0.2,0.4s0.3,0.4,0.5,0.6l0,0l2,2.3 C21.5,19.4,21.2,19,20.9,18.6z"/><path class="st2" d="M19,16.5"/><path class="st2" d="M48.8,15.1c0-0.1,0.1-0.1,0.2-0.2c0.3-0.2,0.3-0.2,0.2-0.7c-0.3,0.4-0.7,0.8-1.1,1.1 C48.4,15.5,48.7,15.5,48.8,15.1z"/><path class="st2" d="M40.2,26.5c-0.4,0.1-0.7,0.2-1,0.3c-0.1,0.6-0.7,0.2-1,0.5C39,27.4,39.7,27.1,40.2,26.5z"/><path class="st2" d="M47.2,18.7c0.2-0.2,0.4-0.4,0.5-0.6c0.2-0.2,0.4-0.4,0.5-0.6c0.2-0.2,0.6-0.2,0.4-0.8 C48.1,17.3,47.6,18,47.2,18.7z"/><path class="st2" d="M43.6,34.1c0.4-0.5,0.7-1,1-1.4l-0.1-0.1c-0.2,0.2-0.3,0.4-0.6,0.7C43.5,33.4,43.4,33.6,43.6,34.1z"/><path class="st2" d="M23.5,15.5"/><path class="st2" d="M25.1,17c0.1,0.1,0.2,0.1,0.3,0.2c-0.1-0.2-0.3-0.4-0.5-0.6c-0.4-0.4-0.9-0.7-1.4-1c0.1,0.1,0.1,0.3,0.3,0.4 C24.3,16.2,24.7,16.6,25.1,17z"/><path class="st2" d="M34.5,29.4L33,27.3c-0.1,0-0.1,0-0.1,0.1c0.5,0.7,1,1.4,1.4,2.1C34.4,29.5,34.5,29.5,34.5,29.4z"/><path class="st2" d="M31.8,25.7c0.3,0.4,0.7,0.7,1,1.1l0.1-0.1C32.6,26.1,32.1,25.6,31.8,25.7z"/><path class="st2" d="M43.2,15"/><path class="st2" d="M44.4,13.1L44.3,13c-0.3,0.7-0.7,1.3-1,2C44,14.5,44,13.7,44.4,13.1z"/><path class="st2" d="M20.7,56.9v-2.7h-0.1C20.6,55.1,20.6,56,20.7,56.9z"/><path class="st2" d="M21.1,56.8H21c0,0.6,0,1.3-0.1,1.9h0.2C21,58,21,57.4,21.1,56.8z"/><path class="st2" d="M21.7,37L21.7,37c-0.2,0.8-0.3,1.6-0.5,2.4h0.1C21.5,38.6,21.6,37.8,21.7,37z"/><path class="st2" d="M21.5,19.9c0.2,0.3,0.4,0.6,0.5,1c0.2,0.2,0.3,0.4,0.4,0.7C22.4,20.9,22,20.3,21.5,19.9z"/><path class="st2" d="M22.4,21.5"/><path class="st2" d="M37,48.8V49l1.2,0.3C37.8,48.6,37.3,49,37,48.8z"/><path class="st2" d="M34.2,47.7c-0.3-0.1-0.5-0.3-0.7-0.5c0,0.1,0,0.1-0.1,0.1C33.5,47.5,33.5,48,34.2,47.7z"/><path class="st2" d="M40.3,31.9c0,0.2-0.1,0.3-0.1,0.5c0.2-0.2,0.4-0.4,0.7-0.5v-0.1C40.9,31.8,40.3,31.9,40.3,31.9z"/><path class="st2" d="M19,16.5"/><path class="st2" d="M18.6,16.2c0.1,0.1,0.3,0.2,0.4,0.3c-0.2-0.3-0.3-0.7-0.5-1C18.2,15.7,18.3,16,18.6,16.2z"/><path class="st2" d="M31.7,44.2c-0.2-0.4-0.4-0.9-0.5-1.4c-0.1,0-0.1,0-0.1,0.1C31.3,43.3,31.5,43.8,31.7,44.2z"/><path class="st2" d="M33.1,38.6c0.1,0,0.1,0,0.2-0.1c-0.2-0.3-0.4-0.6-0.5-1h-0.1C32.8,37.9,33,38.3,33.1,38.6z"/><path class="st2" d="M41.7,20.4L41.7,20.4c-0.5,0.3-1,0.7-1.4,1.1l0.1,0.1C40.9,21.2,41.3,20.8,41.7,20.4z"/><path class="st2" d="M42.3,35.9L42.3,35.9c0.3-0.2,0.6-0.5,0.8-0.8L43,35C42.9,35.4,42.3,35.4,42.3,35.9z"/><path class="st2" d="M20.4,18.5h-0.3c0.4,0.2,0.6,0.4,0.8,0.5c-0.3-0.5-0.7-1-1.1-1.4C19.7,18.1,20.3,18.1,20.4,18.5z"/><path class="st2" d="M34.7,21.8c0.4,0.3,0.8,0.6,1.3,0.8c0-0.1,0-0.1,0.1-0.1c-0.4-0.3-0.8-0.6-1.3-0.8 C34.7,21.7,34.7,21.7,34.7,21.8z"/><path class="st2" d="M48.8,29.8c0.2-0.3,0.4-0.6,0.6-0.8c0-0.1-0.1-0.1-0.2-0.1C49,29.1,48.9,29.4,48.8,29.8z"/><path class="st2" d="M38.3,35.3c-0.4-0.2-0.9-0.3-1.3-0.4C37.4,35.1,37.8,35.3,38.3,35.3z"/><path class="st2" d="M18.4,19.1c-0.4-0.3-0.8-0.6-1.3-0.8c0,0.1,0,0.1-0.1,0.1l0,0C17.4,18.7,17.9,18.9,18.4,19.1z"/><path class="st2" d="M34.3,49.8c-0.3-0.3-0.5-0.7-0.8-1l-0.1,0.1L34.3,49.8z"/><path class="st2" d="M43.2,25.5c-0.3,0.2-0.7,0.5-1,0.7C42.8,26.2,42.9,25.7,43.2,25.5z"/><path class="st2" d="M46.1,33c-0.5,0.1-0.4,0.5-0.6,0.8c0.2-0.2,0.5-0.4,0.7-0.6C46.2,33.1,46.2,33,46.1,33z"/><path class="st2" d="M23.9,16.8l1.2,0.9l0,0C24.8,17.3,24.4,16.9,23.9,16.8z"/><path class="st2" d="M48.2,40c-0.3,0.3-0.5,0.6-0.8,0.9c0.3-0.3,0.6-0.5,0.9-0.8C48.3,40,48.3,40,48.2,40z"/><path class="st2" d="M47.4,40.9"/><path class="st2" d="M39.1,40.5c0.3,0,0.7,0,1,0.1v-0.1c-0.3-0.1-0.6-0.1-1-0.2C39.2,40.4,39.2,40.4,39.1,40.5z"/><path class="st2" d="M15.8,17.1c-0.4-0.2-0.8-0.4-1.2-0.7L15.8,17.1z"/><path class="st2" d="M14.7,16.4c-0.1,0-0.1,0-0.1-0.1l0,0L14.7,16.4z"/><path class="st2" d="M20.1,20.4c-0.3-0.3-0.6-0.5-0.9-0.8l0,0C19.5,19.9,19.8,20.1,20.1,20.4z"/><path class="st2" d="M20.6,57.9c0,0.4-0.1,0.9-0.1,1.3h0.1c0-0.4,0.1-0.9,0.1-1.3H20.6z"/><path class="st2" d="M21.9,52.5"/></g><path class="st0" d="M40.1,75.5c6.9-0.1,16.7-1.8,22.4-4C61.8,64.9,59.8,26,59.8,26s2.1,5.1,3.2,7.9c4.7-0.4,12.3-1.3,15.3-6.2 c-2.9-6.8-5.1-14.6-7.4-19.7c0,0-10.4-3.8-18.6-6.4c0,0-0.9-0.3-1.3,0.4c-3,4.2-4.5,7.1-11.2,7.1l0,0C33.4,9,31.8,6.2,28.9,2 c-0.3-0.4-0.9-0.6-1.4-0.4C19.4,4.1,8.9,8,8.9,8c-2.3,5.1-4.5,13-7.4,19.7c3,4.8,10.4,5.8,15.3,6.2C17.9,31.1,20,26,20,26 s-2.1,38.9-2.7,45.5c7.2,2.5,14.8,3.8,22.4,4l0,0"/></svg> 