<?xml version="1.0" encoding="utf-8"?><svg version="1.1" id="Layer_1" xmlns="http://www.w3.org/2000/svg" xmlns:xlink="http://www.w3.org/1999/xlink" x="0px" y="0px" viewBox="0 0 80 77.1" style="enable-background:new 0 0 80 77.1;" xml:space="preserve"><style type="text/css"> .st0{fill:url(#SVGID_1_);} .st1{clip-path:url(#SVGID_3_);fill:#910000;} .st2{clip-path:url(#SVGID_3_);} .st3{display:none;fill:#FFFFFF;} .st4{display:none;opacity:0.8;fill:#FFFFFF;} .st5{display:none;fill:#BABFC4;} .st6{fill:#910000;} .st7{fill:#2B2C2D;} .st8{fill:#555555;} .st9{fill:#222324;} .st10{fill:#636363;} .st11{fill:url(#SVGID_4_);} .st12{fill:url(#SVGID_5_);} .st13{fill:url(#SVGID_6_);} .st14{fill:none;stroke:#000000;stroke-width:3;stroke-linecap:round;stroke-linejoin:round;} </style><linearGradient id="SVGID_1_" gradientUnits="userSpaceOnUse" x1="40" y1="75.6" x2="40" y2="1.6361"><stop offset="0" style="stop-color:#520000"/><stop offset="3.618324e-02" style="stop-color:#4A0000"/><stop offset="0.1729" style="stop-color:#2F0000"/><stop offset="0.3225" style="stop-color:#1A0000"/><stop offset="0.4896" style="stop-color:#0B0000"/><stop offset="0.6883" style="stop-color:#030000"/><stop offset="1" style="stop-color:#000000"/></linearGradient><path class="st0" d="M40.2,75.6c6.9-0.1,16.7-1.8,22.4-4c-0.7-6.6-2.7-45.5-2.7-45.5s2.1,5.1,3.2,7.9c4.7-0.4,12.3-1.3,15.3-6.2 C75.5,21,73.3,13.2,71,8.1c0,0-10.4-3.8-18.6-6.4c0,0-0.9-0.3-1.3,0.4c-3,4.2-4.5,7.1-11.2,7.1l0,0c-6.4-0.1-8-2.9-10.9-7.1 c-0.5-0.7-1.4-0.4-1.4-0.4C19.5,4.2,9,8.1,9,8.1c-2.3,5.1-4.5,13-7.4,19.7c3,4.8,10.4,5.8,15.3,6.2c1.1-2.8,3.2-7.9,3.2-7.9 S18,65,17.4,71.6c5.8,2.2,15.5,4,22.4,4l0,0"/><g><defs><path id="SVGID_2_" d="M40.2,75.6c6.9-0.1,16.7-1.8,22.4-4c-0.7-6.6-2.7-45.5-2.7-45.5s2.1,5.1,3.2,7.9c4.7-0.4,12.3-1.3,15.3-6.2 C75.5,21,73.3,13.2,71,8.1c0,0-10.4-3.8-18.6-6.4c0,0-0.9-0.3-1.3,0.4c-3,4.2-4.5,7.1-11.2,7.1l0,0c-6.4-0.1-8-2.9-10.9-7.1 c-0.5-0.7-1.4-0.4-1.4-0.4C19.5,4.2,9,8.1,9,8.1c-2.3,5.1-4.5,13-7.4,19.7c3,4.8,10.4,5.8,15.3,6.2c1.1-2.8,3.2-7.9,3.2-7.9 S18,65,17.4,71.6c5.8,2.2,15.5,4,22.4,4l0,0"/></defs><clipPath id="SVGID_3_"><use xlink:href="#SVGID_2_" style="overflow:visible;"/></clipPath><path class="st1" d="M20.1,26.1c1.2,4,2.1,34.1,1.4,46.8c-0.7,12.7-8.7-4-8.7-4S18.9,22.1,20.1,26.1z"/><path class="st1" d="M60,26.1c-1.2,4-2.1,34.1-1.4,46.8s8.7-4,8.7-4S61.2,22.1,60,26.1z"/><g class="st2"><path id="Fog_Fill_1_" class="st3" d="M72.3,79.1c0.6,3.2,8.4,1.9,4.5,4.8c-4.5,3.3-1.9,6.3,2.5,6.8c21.3,2.8,48.5,8.7,57.3-0.9 c1.5-1.7,12.8-16.7,1.8-16.7c-9.2,0-16.6-7.9-21.4-9.1c-4.8-1.1-5.8,6.3-10.1,5.1c-5.8-1.5-8.2-2.1-23.2,2.7 C73.1,75.2,72,77.4,72.3,79.1z"/><path class="st4" d="M89.3,78.8c4,0.1,15.3,0,19.2-1c0,0,8.3-11.9,4.9-11.2c-10.3,2.1-11-2.5-15.1-2.5c-4.1,0-8.2,4.5-11,4.3 c-2.6-0.1-3,0-5.6-1.3c-3.2-1.6-7.7,5.8-15.7,6.3c-5.5,0.4-8.8,6-8.8,6C75.4,75.1,84.7,78.6,89.3,78.8z"/><path class="st5" d="M76.2,78.8c0,0,6.7-9.6,18.3-8.8c5,0.3,7.4,2.7,13.5,2.2c5.3-0.4,5.8-4.6,11-4.2c8.2,0.6,13.1,6,17.5,5.6 c13.7-1-1.7,8-1.7,8l-57.1,2.8L76.2,78.8z"/><path class="st6" d="M40.9,91.1c-0.4,0-0.8-0.2-1-0.4c-0.8-0.5-6.6-4.1-9.8-8.1c-1.7-2.1-3-4-4-5.9c-0.5-0.3-1.4-0.6-2.4-0.6 c-0.8,0-1.5,0.2-2.2,0.6c-2.5,1.3-3.4,2.9-3.7,3.6c0.2,1.9,1.6,4.5,2.1,5.4L18.4,87l-1.1-0.9c-0.6-0.5-1.6-1.6-2.1-2.4 c-0.1-0.1-0.1-0.2-0.2-0.3l-1-0.1l0-0.3c-0.1-0.8-0.2-1.6-0.1-2.4c0.1-2.5,0.6-4.6,1.6-6.4c0.1-0.1,0.2-0.4,0.3-0.6 c1.6-2.7,3.8-4.7,5.7-5.9c-0.1-0.1-0.1-0.2-0.2-0.4c-0.1-0.4-0.2-0.7-0.2-1L21,63.7l1.9,1.8c0.1,0.1,0.3,0.2,0.5,0.2c0,0,0,0,0,0 c0.2,0,0.3,0,0.4-0.1c0,0,0.1,0,0.1-0.1c0.1-0.1,0.1-0.2,0.2-0.4l0-0.1c0.2-0.5,0.5-1,0.7-1.4c0.5-0.7,1.2-1.4,2.2-2.1 c0.7-0.5,1.4-0.9,2.4-1.4l0.3-0.1l0.4,0l0.1,0c0.6,0.1,1.2,0.3,1.8,0.5c0,0,0.3,0.1,0.4,0.1c0,0,0,0,0,0c0.3-0.3,0.6-0.7,0.8-1 l1.4-1.7c0.5-0.5,0.9-1.1,1.3-1.6c0.3-0.3,0.5-0.7,0.8-1.1c0.2-0.3,0.4-0.6,0.6-0.9l0.4-0.6c0.3-0.4,0.8-1.2,1.6-1.6 c0.6-0.3,1.4-0.4,1.9-0.4l0.5,0c0.3,0,0.6,0,0.8-0.1c0.2,0,0.4-0.1,0.6-0.2c0.1-0.1,0.2-0.2,0.3-0.3c0.1-0.1,0.1-0.3,0.1-0.5 c0-0.5-0.2-1-0.3-1.5c-0.3-0.8-0.6-1.5-1-2.3c-0.2-0.5-0.4-0.9-0.6-1.4c-0.6-1.3-1.1-2.7-1.3-4.3c0-0.4-0.1-0.8,0-1.2 c0-0.4,0.1-0.9,0.2-1.2c0.2-0.9,0.4-1.7,0.8-2.3c0.4-0.8,1-1.5,1.7-2c0.7-0.5,1.5-0.9,2.4-1.1c0.7-0.2,1.4-0.3,2.2-0.3l0.3,0 c0.9,0,1.7,0.1,2.4,0.3c0.9,0.3,1.7,0.6,2.3,1.2c0.7,0.6,1.3,1.4,1.6,2.2c0.3,0.8,0.4,1.6,0.3,2.5c0,0.7-0.1,1.4-0.2,2.2 c-0.1,0.7-0.3,1.4-0.5,2.1c-0.1,0.3-0.2,0.6-0.2,0.9c-0.1,0.4-0.2,0.7-0.3,1.1c-0.1,0.2-0.1,0.5-0.1,0.8c0,0.1,0.1,0.4,0.2,0.6 c0.2,0.5,0.5,1,0.8,1.6c0.4,0.6,0.7,1,1.1,1.4c0.2,0.2,0.4,0.3,0.6,0.4c0.1,0,0.1,0.1,0.2,0.1l0.1,0c0.5-0.1,1-0.2,1.6-0.5 l0.2-0.1c0.3-0.1,0.6-0.2,0.9-0.3c0.3-0.1,0.6-0.1,0.8-0.2l0.3,0l0.1,0c0.1,0,0.2,0,0.3,0.1c0.2,0.1,0.4,0.1,0.5,0.2 c0.4,0.2,0.7,0.5,1,0.7c0.2,0.2,0.4,0.4,0.7,0.6l0.4,0.3c0.4,0.4,0.9,0.7,1.3,1.1c1.2,0.9,2.2,1.7,3.2,2.3 c1.3,0.8,2.4,1.3,3.4,1.5l0.3,0.1l0.3,0.2c0.3,0.3,0.6,0.6,0.9,0.9l0.4,0.4c0.4,0.4,0.8,0.8,1.2,1.1c0.9,0.8,1.7,1.4,2.6,1.9 c0.9,0.5,1.9,0.9,2.9,1c0.5,0.1,0.9,0.1,1.4,0.1c0.5,0,1.1,0,1.6-0.1l2.1-0.7l-1,2.1c-0.1,0.3-0.3,0.5-0.4,0.6 c-0.1,0.1-0.1,0.1-0.2,0.2l0.2,0.1c2.3,1.5,4.3,3.2,6.4,5c4.5,3.9,9.7,8.3,19.8,12.1c1.4,0.5,3.3,1.4,3.1,3.1 c-0.4,3.5-12.8,5.8-20.2,6.8l-0.1,0l-25.6-1.9l0.8-2h-8.8L40.9,87c0.4,1,0.8,1.9,0.9,2.2c0.2,0.3,0.3,0.8,0,1.3 C41.7,90.8,41.3,91.1,40.9,91.1z"/><path class="st6" d="M109.2,82.1c-15-5.6-19.2-12.5-26.5-17.3c-0.1,0-0.1-0.1-0.2-0.1c-0.1-0.1-0.2-0.1-0.2-0.2 c0,0-0.1-0.1-0.1-0.1c0,0,0,0,0,0l0,0c-0.3-0.2-0.7-0.4-1-0.6c0,0,0.1,0,0.1,0c0.2-0.1,0.4-0.2,0.6-0.3c0.2-0.1,0.4-0.2,0.5-0.4 c0.1-0.1,0.2-0.1,0.2-0.2c0.1-0.1,0.2-0.2,0.2-0.3l0,0l0,0l0,0c-1.1,0.2-2.3,0.2-3.4,0c-1.1-0.2-2.2-0.6-3.2-1.2 c-1-0.6-1.9-1.2-2.8-2c-0.4-0.4-0.8-0.8-1.3-1.2c-0.4-0.4-0.8-0.8-1.2-1.2l-0.1,0l-0.1,0l0,0c-1.3-0.3-2.5-0.9-3.7-1.6 c-1.2-0.7-2.3-1.5-3.3-2.4c-0.5-0.4-1.1-0.9-1.6-1.3c-0.3-0.2-0.5-0.5-0.8-0.7c-0.3-0.2-0.5-0.4-0.9-0.6c-0.1,0-0.2-0.1-0.3-0.1 c0,0-0.1,0-0.1,0l-0.1,0c-0.1,0-0.1,0-0.2,0c-0.2,0-0.4,0.1-0.6,0.1c-0.4,0.1-0.7,0.3-1,0.4c-0.6,0.3-1.2,0.5-1.9,0.6l-0.1,0 c0,0-0.1,0-0.1,0c-0.1,0-0.1,0-0.2,0c-0.1,0-0.3-0.1-0.4-0.2c-0.3-0.1-0.5-0.3-0.8-0.6c-0.5-0.4-0.9-1-1.3-1.5 c-0.4-0.6-0.7-1.2-0.9-1.8c-0.1-0.3-0.2-0.6-0.2-0.9c0-0.3,0.1-0.7,0.1-1c0.2-0.7,0.4-1.3,0.5-2c0.2-0.7,0.3-1.3,0.4-2 c0.1-0.7,0.2-1.4,0.2-2.1c0-0.7,0-1.4-0.3-2.1c-0.3-0.7-0.7-1.3-1.3-1.8c-0.6-0.5-1.3-0.8-2-1c-0.7-0.2-1.4-0.3-2.1-0.3 c-0.7,0-1.4,0-2.2,0.2c-0.7,0.2-1.4,0.5-2,1c-0.6,0.5-1.1,1.1-1.4,1.7c-0.3,0.7-0.6,1.3-0.7,2c-0.1,0.3-0.1,0.7-0.1,1.1 c0,0.4,0,0.7,0,1.1c0.2,1.4,0.7,2.7,1.2,4c0.5,1.3,1.2,2.5,1.6,3.8c0.2,0.6,0.4,1.3,0.4,1.9c0,0.3-0.1,0.6-0.3,0.9 c-0.1,0.3-0.4,0.5-0.6,0.7c-0.3,0.2-0.6,0.3-0.9,0.3c-0.3,0.1-0.7,0.1-1,0.1c-0.3,0-1.4-0.1-2.1,0.3c-0.7,0.3-1.1,1.1-1.3,1.4 c-0.3,0.5-0.7,0.9-1,1.4c-0.7,0.9-1.3,1.8-2.1,2.7L34.4,60c-0.4,0.4-0.8,0.9-1.1,1.3c-0.1,0.1-0.2,0.2-0.3,0.3 c0,0-0.1,0.1-0.1,0.1c-0.1,0-0.1,0-0.2,0c-0.3,0-0.5-0.1-0.8-0.2c-0.6-0.2-1.1-0.3-1.7-0.4l0,0L30,61l-0.1,0 c-0.8,0.4-1.6,0.8-2.3,1.3c-0.7,0.5-1.4,1.1-1.9,1.8c-0.3,0.4-0.5,0.8-0.6,1.2c-0.1,0.2-0.2,0.4-0.3,0.6c-0.1,0.2-0.2,0.3-0.4,0.4 c-0.3,0.2-0.7,0.3-1.1,0.3c-0.4,0-0.8-0.2-1.1-0.5l-0.1-0.1l0,0.1c0,0.2,0,0.5,0.1,0.7c0.1,0.2,0.2,0.5,0.4,0.6 c0.1,0.1,0.3,0.2,0.5,0.3c-2,1-4.7,3.2-6.5,6.2c-0.1,0.3-0.3,0.5-0.3,0.6c-0.9,1.6-1.4,3.5-1.5,5.9c0,0.8,0,1.5,0.1,2.2l0,0.3 l0.1-0.3l0,0l0.4-1.1c0,0.1,0,0.2,0.1,0.3c0.1,0.4,0.3,0.8,0.5,1.1c0.4,0.7,1.3,1.6,1.9,2.2l1.1,0.9c0,0-2.2-3.6-2.3-6.1 c0,0,0,0,0,0c0.5-1.2,1.7-3,4.3-4.3c2.6-1.3,4.9-0.3,5.8,0.2c0.9,1.6,2.1,3.6,4,6c3.3,4.1,9.6,7.9,9.6,7.9s0.4,0.4,0.5,0.1 s0-0.4,0-0.4s-0.9-2-1.6-3.7l19.5,0.2h10.3l-0.9,2.1l24.1,1.8C92.4,90.1,120,86.1,109.2,82.1z"/></g><g class="st2"><g><path class="st7" d="M68.7,88l6.4-14.7l1.1-4.5l6.1-4.1c2.4,1.5,4.5,3.3,6.7,5.2c4.6,4,9.8,8.5,20.2,12.3 c1.6,0.6,2.4,1.2,2.3,1.8c-0.1,0.7-1.4,2.1-9.6,4c-4.5,1-9.1,1.7-9.5,1.8L68.7,88z"/><path d="M82.2,65.1c2.3,1.5,4.4,3.3,6.6,5.1c4.6,4,9.9,8.5,20.3,12.4c1.6,0.6,2.2,1.2,2.1,1.5c0,0.3-0.6,1.7-9.4,3.7 c-4.4,1-8.9,1.7-9.4,1.7l-23.3-1.8l6.2-14.3l0,0l0,0l1-4.4L82.2,65.1 M82.2,64.4l-6.3,4.3l-1.1,4.6l-6.5,15l24.1,1.8 c0,0,27.6-4,16.8-8C93.8,76.3,89.8,69.2,82.2,64.4L82.2,64.4z"/></g><polygon class="st7" points="35.9,63.8 33.1,66.2 35.5,80.5 38.2,85.9 58.9,86.2 78.2,86.2 88.9,84.9 82.7,69.2 83,66.4 78.8,63.8 64.9,59.9 "/><path d="M35.1,65.1c0,0,1.1,3.2,1.4,7s1.7,10.4,2.1,11.7c0.4,1.3,2.4,5.8,2.4,5.8s0.1,0.1,0,0.4s-0.5-0.1-0.5-0.1S34.2,86,30.9,82 s-4.5-6.7-5.4-8.9c-0.9-2.2-0.9-4.6-0.9-4.6l4.3-3.4l3-1.1L35.1,65.1z"/><path id="Dementor_Fill_3_" class="st7" d="M24.1,67.8c-0.4,0.3-1.1,0.7-1.9,1l2.6,0c0.9,0,1.8,0.1,2.7,0.4l0.5-2.5l2.1-1.8h49.8 l2.1,1.8l0.4,2.3c0.7-0.2,1.3-0.2,1.7-0.2c0,0,0.5,0,1.2,0c0.1-0.3-0.3-0.2-0.4-0.6c-0.5-2.2-4.3-4.5-4.3-4.5s1.9-0.7,2.2-1.2 c-6,1.4-10.2-3.5-12.1-5.3c-4.4-1.1-9.7-6.6-10.7-6.7c-1-0.1-2,0.9-3.8,1c-1.8,0.1-4-4-4.1-5.2c-0.1-1.2,1.1-3.3,1.2-7.1 c0.2-3.8-2.8-4.9-5.6-4.9c-2.8,0-5.1,1.2-5.8,5c-0.7,4.2,3.5,9,3.1,11.7s-3.9,1.8-5,2c-0.4,1.4-6.6,8.3-7,8.6 c-0.4,0.3-0.8-0.1-2.9-0.4c-4.7,2.3-4.6,4.1-5.2,4.9c-0.6,0.8-2,0.8-2.7,0C22.4,67.8,23.3,67.7,24.1,67.8z"/><path class="st8" d="M76.6,62.2c0,0,3.6,1.3,6.1,0.5C82.4,63.1,80.1,64.4,76.6,62.2z"/><path class="st8" d="M55.8,51.9c0,0,1.8-0.1,2.7-0.5c1.4,0.8,0.1,1.2,0.1,1.2L55.8,51.9z"/><path class="st8" d="M46.2,35.9c0,0,2.9-0.3,6.1,1.4C49,34,46.2,35.9,46.2,35.9z"/><path class="st8" d="M33.3,61.7c0,0,0.2,0.7,0.6,1.3c0.1-1.8,1.8-2.8,2.7-4.8L33.3,61.7z"/><path class="st8" d="M30.1,61.6l0.7,0.1l1.6,0.3c-0.7-0.1-1.3-0.1-2-0.1c0,0-3.9,2.1-4.5,2.8C27.3,62.8,29.9,61.7,30.1,61.6z"/><path class="st8" d="M22.2,66.3c0,0,1.1,0.9,2.3,0.4C23.6,67.4,22.6,67.4,22.2,66.3z"/><path class="st8" d="M67.2,56.3l7.4,6.7c-3.6-2-6.5-4.4-7.9-7L67.2,56.3z"/><path d="M52.4,39.5c0,0-1.4,8.3-1.5,9.3c-0.1,1-2-4.6-1.9-7.1c1.4,1.8,1.4,1.9,1.4,1.9S51.3,40.9,52.4,39.5z"/><path d="M47.1,42.5c0,0,2,10.7,2,12.2S46.4,44,47.1,42.5z"/><path d="M52.1,50.2c0,0,0.9,1.5,2.7,3.5c-0.7-0.2-1.2-0.4-0.9,0s0.7,1.1,0.7,1.1s-0.6-0.5-0.7-0.2c-0.1,0.3-0.5,3.2-0.4,3.8 c0.1,0.6-2.3-5.4-2.1-6.6S52.1,50.2,52.1,50.2z"/><path d="M58.3,56.1c0,0,4.6,3.5,5.3,4.3c-0.8,0.1-3.5-0.8-4-0.7c-0.3,0.2-0.4,3.1,0,4c-1-1.3-2.3-2-1.9-3.8 C58.1,58,58.4,57.5,58.3,56.1z"/><path d="M48.2,67.2c-2.5-2.4-2.2-7.8-2.2-7.8s-0.3,0.2-0.6,0.5c-0.3,0.8-0.4,3.6-0.1,5.1c0.3,1.4,1.5,3.8,1.7,4.9 c0.3,1.1,1.4,5.7,1.4,5.7C48.8,75.1,48.2,70,48.2,67.2z"/><path d="M55.8,65l-2.4-4.9c-0.2,1-0.6,1.4-1,1.8c-0.5,0.4-1.4,0.1-2-0.3c-0.2,0.7-0.4,1.4-0.4,1.4s-0.3-0.3-0.9-1.1 c0.3,0.9,1.9,10.9,1.7,10.8c0.3-1.7,0.6-3.4,0.7-5.4c1.1,1.8,2.5,3.6,4.1,5.4c-0.2-1.3-0.4-2.8-0.5-4.9l2.5,2.8 C57.4,68.8,56.8,66.9,55.8,65z"/><path d="M70.2,65.7l-2.7-2.2c-0.1,0.5-0.8,0.9-1.6,1.5c-0.8,0.7-3.2,2.2-3.2,2.2c1.1-0.1,2.4-0.3,3.7-0.9c-1,2.4-2,4.8-1.8,6.3 C66.4,69.5,68.3,66.9,70.2,65.7z"/><path d="M42.6,66.1c-0.3-1-1.4-4.2-1.4-4.2c-0.1,0.7-0.9,1.6-0.9,1.6s0.2-2.1,0.1-2.5c-0.1-0.5-0.2-0.2-0.8,0.8 c-0.5,0.7-1.4,2.3-2.1,3.3c-0.6,0.9-2.1,2.5-2.1,2.5l0.1,2l2.4-2.2c-0.5,2.5-0.5,6.8-0.7,10.7l0.4,2.2c0.3-3.5,0.7-6.9,1.3-9.9 c1,6.3,3.1,11.3,6.2,15C41.6,78.8,40,72.9,41.3,68c0.3,1.5,1.7,4.5,3.8,8.7C44.2,74.2,43,67.5,42.6,66.1z"/><path id="Contour_3_" d="M83.2,65.1c-0.6-0.5-1.3-0.9-2-1.2c0,0,0.1,0,0.1,0c0.2-0.1,0.4-0.2,0.6-0.3c0.2-0.1,0.4-0.2,0.5-0.4 c0.1-0.1,0.2-0.1,0.2-0.2c0.1-0.1,0.2-0.2,0.2-0.3l0,0l0,0l0,0c-1.1,0.2-2.3,0.2-3.4,0c-1.1-0.2-2.2-0.6-3.2-1.2 c-1-0.6-1.9-1.2-2.8-2c-0.4-0.4-0.8-0.8-1.3-1.2c-0.4-0.4-0.8-0.8-1.2-1.2l-0.1,0l-0.1,0l0,0c-1.3-0.3-2.5-0.9-3.7-1.6 c-1.2-0.7-2.3-1.5-3.3-2.4c-0.5-0.4-1.1-0.9-1.6-1.3c-0.3-0.2-0.5-0.5-0.8-0.7c-0.3-0.2-0.5-0.4-0.9-0.6c-0.1,0-0.2-0.1-0.3-0.1 c0,0-0.1,0-0.1,0l-0.1,0c-0.1,0-0.1,0-0.2,0c-0.2,0-0.4,0.1-0.6,0.1c-0.4,0.1-0.7,0.3-1,0.4c-0.6,0.3-1.2,0.5-1.9,0.6l-0.1,0 c0,0-0.1,0-0.1,0c-0.1,0-0.1,0-0.2,0c-0.1,0-0.3-0.1-0.4-0.2c-0.3-0.1-0.5-0.3-0.8-0.6c-0.5-0.4-0.9-1-1.3-1.5 c-0.4-0.6-0.7-1.2-0.9-1.8c-0.1-0.3-0.2-0.6-0.2-0.9c0-0.3,0.1-0.7,0.1-1c0.2-0.7,0.4-1.3,0.5-2c0.2-0.7,0.3-1.3,0.4-2 c0.1-0.7,0.2-1.4,0.2-2.1c0-0.7,0-1.4-0.3-2.1c-0.3-0.7-0.7-1.3-1.3-1.8c-0.6-0.5-1.3-0.8-2-1c-0.7-0.2-1.4-0.3-2.1-0.3 c-0.7,0-1.4,0-2.2,0.2c-0.7,0.2-1.4,0.5-2,1c-0.6,0.5-1.1,1.1-1.4,1.7c-0.3,0.7-0.6,1.3-0.7,2c-0.1,0.3-0.1,0.7-0.1,1.1 c0,0.4,0,0.7,0,1.1c0.2,1.4,0.7,2.7,1.2,4c0.5,1.3,1.2,2.5,1.6,3.8c0.2,0.6,0.4,1.3,0.4,1.9c0,0.3-0.1,0.6-0.3,0.9 c-0.1,0.3-0.4,0.5-0.6,0.7c-0.3,0.2-0.6,0.3-0.9,0.3c-0.3,0.1-0.7,0.1-1,0.1c-0.3,0-1.4-0.1-2.1,0.3c-0.7,0.3-1.1,1.1-1.3,1.4 c-0.3,0.5-0.7,0.9-1,1.4c-0.7,0.9-1.3,1.8-2.1,2.7L34.4,60c-0.4,0.4-0.8,0.9-1.1,1.3c-0.1,0.1-0.2,0.2-0.3,0.3 c0,0-0.1,0.1-0.1,0.1c-0.1,0-0.1,0-0.2,0c-0.3,0-0.5-0.1-0.8-0.2c-0.6-0.2-1.1-0.3-1.7-0.4l0,0L30,61l-0.1,0 c-0.8,0.4-1.6,0.8-2.3,1.3c-0.7,0.5-1.4,1.1-1.9,1.8c-0.3,0.4-0.5,0.8-0.6,1.2c-0.1,0.2-0.2,0.4-0.3,0.6c-0.1,0.2-0.2,0.3-0.4,0.4 c-0.3,0.2-0.7,0.3-1.1,0.3c-0.4,0-0.8-0.2-1.1-0.5l-0.1-0.1l0,0.1c0,0.2,0,0.5,0.1,0.7c0.1,0.2,0.2,0.5,0.4,0.6 c0.2,0.2,0.5,0.3,0.7,0.3c0,0,0.1,0,0.1,0c-0.2,0.1-0.4,0.2-0.6,0.3c-0.4,0.2-0.5,0.2-0.9,0.4c-0.1,0-0.2,0.1-0.3,0.1l1.2,0.1h0 l2,0c0.9,0,1.8,0.1,2.7,0.4l0.5-2.5l2.1-1.8H34l-1.1-2.5l-2.2-0.5c-1.3,0.4-2.4,1.1-3.5,2l-1.4,1.4c0,0-0.4,1.2-1.6,2.1h-0.1h0 c-0.2,0-0.5,0-0.7-0.1c-0.2,0-0.4-0.1-0.6-0.2c-0.2-0.1-0.3-0.3-0.4-0.5c-0.1-0.1-0.1-0.3-0.2-0.5c0.3,0.3,0.6,0.4,1,0.5 c0.4,0.1,0.9,0,1.3-0.2c0.2-0.1,0.4-0.3,0.5-0.5c0.1-0.2,0.2-0.4,0.3-0.6c0.2-0.4,0.4-0.8,0.6-1.1c0.5-0.7,1.2-1.2,1.9-1.7 c0.7-0.5,1.4-0.9,2.2-1.2c0.5,0.1,1.1,0.1,1.6,0.3l0.4,0.1c0.1,0,0.3,0.1,0.5,0.1c0.1,0,0.1,0,0.2,0c0.9,1,1.6,2.1,1.9,3.1 l0.4,0.1c-0.2-0.6-1.3-2.7-1.8-3.5c0.1-0.1,0.1-0.1,0.2-0.2c0.8-0.8,1.7-1.7,2.4-2.6c0.8-0.9,1.6-1.8,2.3-2.7 c0.2-0.2,0.4-0.5,0.6-0.7c0.2-0.1,0.4-0.2,0.7-0.4c1.3-0.6,2.9-0.7,3.8-0.8c-0.3,0.4-0.4,1.1-0.8,3.5c0.4-2.1,3-5.6,3.3-6.4 c0.7,3.7,1.9,5.7,2.5,6.6c-0.7-1.6-1.2-8.9-1.6-10.3c-0.4-1.4-2.8-6.8-2.8-6.8c-0.1,1.9-0.7,3.3-0.8,3.6c-0.2-0.5-0.4-1-0.5-1.6 c-0.2-0.6-0.3-1.3-0.4-2c0-0.3,0-0.7,0-1c0-0.3,0.1-0.6,0.2-1c0.1-0.6,0.4-1.3,0.7-1.8c0.3-0.6,0.7-1.1,1.2-1.4 c0.5-0.4,1.1-0.6,1.7-0.8c0.6-0.2,1.3-0.2,1.9-0.2c0.7,0,1.3,0.1,1.9,0.2c0.6,0.2,1.2,0.4,1.7,0.8c0.5,0.4,0.9,0.9,1.2,1.5 c0.2,0.6,0.4,1.2,0.3,1.9c0,0.7-0.1,1.4-0.1,2c-0.1,0.7-0.2,1.3-0.4,2c-0.1,0.3-0.2,0.7-0.2,1c-0.1,0.3-0.2,0.7-0.2,1 c-0.1,0.3-0.1,0.7-0.1,1.1c0,0.1,0,0.2,0,0.3c0,0.1,0,0.2,0.1,0.3c0,0.2,0.1,0.3,0.2,0.5c0.1,0.3,0.3,0.6,0.4,1 c0.2,0.3,0.3,0.6,0.5,0.9c0.4,0.6,0.8,1.2,1.3,1.7c0.2,0.3,0.5,0.5,0.8,0.7c0.2,0.1,0.3,0.2,0.5,0.2c0.1,0,0.2,0,0.3,0.1 c0.1,0,0.1,0,0.2,0l0.1,0c0.7,0,1.4-0.2,2.1-0.5c0.3-0.1,0.6-0.3,0.9-0.3c0.1,0,0.3-0.1,0.4-0.1c0,0,0.1,0,0.1,0l0,0c0,0,0,0,0,0 c0,0,0.1,0,0.2,0.1c0.3,0.1,0.5,0.3,0.8,0.5l0.8,0.6c0.6,0.4,1.1,0.8,1.7,1.2c0.5,0.4,1,0.8,1.6,1.1l8.4,7.3 c-1.1-1.6-3.9-4.2-5.2-5.3c0.2,0.1,0.3,0.2,0.5,0.2c0.6,0.3,1.2,0.5,1.9,0.7c0.8,0.8,1.6,1.6,2.5,2.3c0.9,0.7,1.9,1.4,2.9,1.9 c1,0.5,2.2,0.9,3.3,1c1.1,0.1,2.3,0.1,3.4-0.2c-0.1,0.1-0.3,0.2-0.5,0.3c-0.2,0.1-0.4,0.2-0.6,0.2c-0.2,0.1-0.4,0.1-0.6,0.2 c-0.2,0.1-0.4,0.1-0.6,0.2l0,0l-0.6,0.2l0.6,0.3c0.8,0.4,1.7,0.9,2.4,1.4L83.2,65.1z"/><path id="Cloth_Left_Fill_6_" class="st9" d="M16.8,74.2l0.9,1.4l-0.8,4.3c0,0-0.9,1.8,1,5c-1.6-1.3-2.1-2.6-2.2-3.9l-0.6,2 C15,82.8,14.3,78.3,16.8,74.2z"/><path id="Cloth_Left_Contour_6_" d="M16.8,83.4c-0.1-0.1-0.2-0.3-0.3-0.5c-0.2-0.3-0.3-0.7-0.4-1c-0.1-0.4-0.2-0.7-0.2-1.1l0,0 l-0.3-1.2l-0.2,1.2l-0.3,1.5c0-0.6,0-1.1,0-1.7c0-0.7,0.1-1.5,0.3-2.2c0.2-1.3,1.3-3.6,1.6-4l-0.2-0.3c-1.1,1.6-1.8,3.8-1.9,6.5 c0,0.8,0,1.5,0.1,2.2l0,0.3l0.1-0.3l0,0l0.4-1.1c0,0.1,0,0.2,0.1,0.3c0.1,0.4,0.3,0.8,0.5,1.1c0.4,0.7,1.3,1.6,1.9,2.2l1.1,0.9 c0,0-2.2-3.6-2.3-6.1c0,0,0.3-1.8,0.3-1.8s-0.5,1.3-0.6,1.8C16.4,80.7,16.4,82.1,16.8,83.4z"/><path d="M76.1,64.7c0,0-1.8,7.8-2.8,10.4s-1.6,4.6-1.8,6.2c-0.3,1.6-0.4,4.7-0.7,5.5c1.1-2.1,2.4-5.9,3.3-8.7s1.1-3.2,1.1-3.2 s10.3,12,13.7,13.9C81.5,82.6,76,71.6,76,71.6c0.3-1.6,0.6-4,0.7-6.4L76.1,64.7z"/><path d="M60.9,65.5c0,0,1.7,5.3,3.2,7.2c-0.5,0.8-1.8,2.9-2,3.6C61.9,75,60.7,68.7,60.9,65.5z"/><path id="Cloth_Right_Fill_3_" class="st7" d="M82.3,68.4c-1.8,1.1-3.5,2.7-4.8,4.5c1-1.1,4.7-1.6,4.7-1.6s2.7-0.8,3.2-2.4 c-0.7,0.1-1.1-0.8-1.1-0.8C83.9,68,82.3,68.4,82.3,68.4z"/><path id="Cloth_Left_Fill_5_" class="st7" d="M16.7,74.3c1.8-2.2,3.7-4.3,6-5.7h2.4l1.6,5.4l-5.8,1.3L17.6,78l-0.8,1.8 c0,0-0.9,1.8,1,5c-1.6-1.3-2.1-2.6-2.2-3.9l-0.6,2C15,82.8,14.2,78.4,16.7,74.3z"/><path d="M24.9,67.4c0,0-1.7,0.6-4.2,3.5c-2.5,2.9-2.9,4.3-2.9,4.3s4.1-5,8.2-5.8C30.1,68.7,24.9,67.4,24.9,67.4z"/><path d="M29.2,65.4l0.3,0.3l1.8,2.2l1.7,2.1c0,0,0,0,0,0l-0.8-2.7h-0.5l0,0c0.1,0,0.3,0,0.4-0.1L30.7,65L30,64.8L29.2,65.4z"/><path d="M33.9,66c0,0,0.3,0.6,0.9,1.6c0,0,0,0,0,0c0.1-0.6-0.1-1.9-0.1-1.9s-0.4-0.4-0.8-0.8h-1.1C33.1,65.3,33.5,65.7,33.9,66z" /><path d="M28.6,69.1C28.6,69.1,28.6,69.1,28.6,69.1C28.2,68.7,28,69,27.8,69c-0.1,0-1.5-0.2-1.7-0.5l0.9,1.2 C27.5,69.3,28.1,69.1,28.6,69.1z"/><path d="M28,66.7c0,0,0.1,0.1,0.1,0.2c0.6,0.4,1.5,2.2,1.5,2.2s0.7,0.5,1.9,1.2c0,0,0,0,0,0c-0.3-0.6-0.9-1.4-0.9-1.4l-1.9-2.7 l0.1-0.2L28,66.7z"/><g><path class="st10" d="M30,63.1l0.8-0.9c0,0,0.9,0.6,2.1,0.3c0.9,1.3,2.2,3,2.2,3s-0.1,1.4-0.3,2.1c0,0,0,0,0,0 c-0.6-1.3-0.5-1.9-0.5-1.9c-0.7-1-1.8-2.2-1.8-2.2l-1.2-0.1L30.7,64l1.6,3.1l0.9,2.9c0,0,0,0,0,0l-1.7-2.4l-1.9-3L29,64.5 l-0.3,0.5l1.7,3.4c0,0,0.9,1.1,1.1,1.9c0,0,0,0,0,0c-1.2-0.9-1.9-1.5-1.9-1.5s-1.3-2.5-1.8-3.1c-0.2-0.3-0.3-0.9-0.3-0.9l0.2-0.7 h1l0.3-0.9L30,63.1z"/></g><g><path class="st10" d="M27.4,68.2c-0.2-0.1-0.8-1.4-0.8-1.4l0.8-1.1c-0.2-0.4-0.2-0.8-0.2-0.8l0-0.3L27,64.6l-1.6,2.1l1.6,2.4 c0,0,1.1-0.2,1.5,0c0,0,0,0,0,0C28.2,68.6,27.6,68.3,27.4,68.2z"/></g><path id="Cloth_Left_Contour_5_" d="M16.8,83.4c-0.1-0.1-0.2-0.3-0.3-0.5c-0.2-0.3-0.3-0.7-0.4-1c-0.1-0.4-0.2-0.7-0.2-1.1l0,0 l-0.3-1.2l-0.2,1.2l-0.3,1.5c0-0.6,0-1.1,0-1.7c0-0.7,0.1-1.5,0.3-2.2c0.2-1.3,1.3-3.5,1.6-3.9l-0.2-0.3c-1.1,1.6-1.8,3.8-1.8,6.5 c0,0.8,0,1.5,0.1,2.2l0,0.3l0.1-0.3l0,0l0.4-1.1c0,0.1,0,0.2,0.1,0.3c0.1,0.4,0.3,0.8,0.5,1.1c0.4,0.7,1.3,1.6,1.9,2.2l1.1,0.9 c0,0-2.2-3.6-2.3-6.1c0,0,0.3-1.8,0.3-1.8s-0.5,1.3-0.6,1.8C16.4,80.7,16.4,82.1,16.8,83.4z"/><path d="M16.9,74.5c0,0,3.1-4.4,5.9-5.7s2.5-2,0.5-1.1s-4.9,3.2-6.7,6.3C15.3,76.5,16.9,74.5,16.9,74.5z"/><path d="M27.2,76.2c0,0-2.9-2.1-6.2-0.4s-4.3,4.1-4.5,5.1c-0.1,1.1,0.5-2.5,0.5-2.5s2-2.9,4.7-3.8s5-0.9,5-0.9L27.2,76.2z"/></g><g class="st2"><linearGradient id="SVGID_4_" gradientUnits="userSpaceOnUse" x1="63.2741" y1="34.0778" x2="63.2741" y2="90.0846"><stop offset="0.5251" style="stop-color:#000000;stop-opacity:0"/><stop offset="1" style="stop-color:#000000"/></linearGradient><path class="st11" d="M109.2,82.1c-15-5.6-19.2-12.5-26.5-17.3c-0.1,0-0.1-0.1-0.2-0.1c-0.1-0.1-0.2-0.1-0.2-0.2 c0,0-0.1-0.1-0.1-0.1c0,0,0,0,0,0l0,0c-0.3-0.2-0.7-0.4-1-0.6c0,0,0.1,0,0.1,0c0.2-0.1,0.4-0.2,0.6-0.3c0.2-0.1,0.4-0.2,0.5-0.4 c0.1-0.1,0.2-0.1,0.2-0.2c0.1-0.1,0.2-0.2,0.2-0.3l0,0l0,0l0,0c-1.1,0.2-2.3,0.2-3.4,0c-1.1-0.2-2.2-0.6-3.2-1.2 c-1-0.6-1.9-1.2-2.8-2c-0.4-0.4-0.8-0.8-1.3-1.2c-0.4-0.4-0.8-0.8-1.2-1.2l-0.1,0l-0.1,0l0,0c-1.3-0.3-2.5-0.9-3.7-1.6 c-1.2-0.7-2.3-1.5-3.3-2.4c-0.5-0.4-1.1-0.9-1.6-1.3c-0.3-0.2-0.5-0.5-0.8-0.7c-0.3-0.2-0.5-0.4-0.9-0.6c-0.1,0-0.2-0.1-0.3-0.1 c0,0-0.1,0-0.1,0l-0.1,0c-0.1,0-0.1,0-0.2,0c-0.2,0-0.4,0.1-0.6,0.1c-0.4,0.1-0.7,0.3-1,0.4c-0.6,0.3-1.2,0.5-1.9,0.6l-0.1,0 c0,0-0.1,0-0.1,0c-0.1,0-0.1,0-0.2,0c-0.1,0-0.3-0.1-0.4-0.2c-0.3-0.1-0.5-0.3-0.8-0.6c-0.5-0.4-0.9-1-1.3-1.5 c-0.4-0.6-0.7-1.2-0.9-1.8c-0.1-0.3-0.2-0.6-0.2-0.9c0-0.3,0.1-0.7,0.1-1c0.2-0.7,0.4-1.3,0.5-2c0.2-0.7,0.3-1.3,0.4-2 c0.1-0.7,0.2-1.4,0.2-2.1c0-0.7,0-1.4-0.3-2.1c-0.3-0.7-0.7-1.3-1.3-1.8c-0.6-0.5-1.3-0.8-2-1c-0.7-0.2-1.4-0.3-2.1-0.3 c-0.7,0-1.4,0-2.2,0.2c-0.7,0.2-1.4,0.5-2,1c-0.6,0.5-1.1,1.1-1.4,1.7c-0.3,0.7-0.6,1.3-0.7,2c-0.1,0.3-0.1,0.7-0.1,1.1 c0,0.4,0,0.7,0,1.1c0.2,1.4,0.7,2.7,1.2,4c0.5,1.3,1.2,2.5,1.6,3.8c0.2,0.6,0.4,1.3,0.4,1.9c0,0.3-0.1,0.6-0.3,0.9 c-0.1,0.3-0.4,0.5-0.6,0.7c-0.3,0.2-0.6,0.3-0.9,0.3c-0.3,0.1-0.7,0.1-1,0.1c-0.3,0-1.4-0.1-2.1,0.3c-0.7,0.3-1.1,1.1-1.3,1.4 c-0.3,0.5-0.7,0.9-1,1.4c-0.7,0.9-1.3,1.8-2.1,2.7L34.4,60c-0.4,0.4-0.8,0.9-1.1,1.3c-0.1,0.1-0.2,0.2-0.3,0.3 c0,0-0.1,0.1-0.1,0.1c-0.1,0-0.1,0-0.2,0c-0.3,0-0.5-0.1-0.8-0.2c-0.6-0.2-1.1-0.3-1.7-0.4l0,0L30,61l-0.1,0 c-0.8,0.4-1.6,0.8-2.3,1.3c-0.7,0.5-1.4,1.1-1.9,1.8c-0.3,0.4-0.5,0.8-0.6,1.2c-0.1,0.2-0.2,0.4-0.3,0.6c-0.1,0.2-0.2,0.3-0.4,0.4 c-0.3,0.2-0.7,0.3-1.1,0.3c-0.4,0-0.8-0.2-1.1-0.5l-0.1-0.1l0,0.1c0,0.2,0,0.5,0.1,0.7c0.1,0.2,0.2,0.5,0.4,0.6 c0.1,0.1,0.3,0.2,0.5,0.3c-2,1-4.7,3.2-6.5,6.2c-0.1,0.3-0.3,0.5-0.3,0.6c-0.9,1.6-1.4,3.5-1.5,5.9c0,0.8,0,1.5,0.1,2.2l0,0.3 l0.1-0.3l0,0l0.4-1.1c0,0.1,0,0.2,0.1,0.3c0.1,0.4,0.3,0.8,0.5,1.1c0.4,0.7,1.3,1.6,1.9,2.2l1.1,0.9c0,0-2.2-3.6-2.3-6.1 c0,0,0,0,0,0c0.5-1.2,1.7-3,4.3-4.3c2.6-1.3,4.9-0.3,5.8,0.2c0.9,1.6,2.1,3.6,4,6c3.3,4.1,9.6,7.9,9.6,7.9s0.4,0.4,0.5,0.1 s0-0.4,0-0.4s-0.9-2-1.6-3.7l19.5,0.2h10.3l-0.9,2.1l24.1,1.8C92.4,90.1,120,86.1,109.2,82.1z"/><linearGradient id="SVGID_5_" gradientUnits="userSpaceOnUse" x1="63.2741" y1="34.0778" x2="63.2741" y2="90.0846"><stop offset="0.5877" style="stop-color:#000000;stop-opacity:0"/><stop offset="1" style="stop-color:#000000"/></linearGradient><path class="st12" d="M109.2,82.1c-15-5.6-19.2-12.5-26.5-17.3c-0.1,0-0.1-0.1-0.2-0.1c-0.1-0.1-0.2-0.1-0.2-0.2 c0,0-0.1-0.1-0.1-0.1c0,0,0,0,0,0l0,0c-0.3-0.2-0.7-0.4-1-0.6c0,0,0.1,0,0.1,0c0.2-0.1,0.4-0.2,0.6-0.3c0.2-0.1,0.4-0.2,0.5-0.4 c0.1-0.1,0.2-0.1,0.2-0.2c0.1-0.1,0.2-0.2,0.2-0.3l0,0l0,0l0,0c-1.1,0.2-2.3,0.2-3.4,0c-1.1-0.2-2.2-0.6-3.2-1.2 c-1-0.6-1.9-1.2-2.8-2c-0.4-0.4-0.8-0.8-1.3-1.2c-0.4-0.4-0.8-0.8-1.2-1.2l-0.1,0l-0.1,0l0,0c-1.3-0.3-2.5-0.9-3.7-1.6 c-1.2-0.7-2.3-1.5-3.3-2.4c-0.5-0.4-1.1-0.9-1.6-1.3c-0.3-0.2-0.5-0.5-0.8-0.7c-0.3-0.2-0.5-0.4-0.9-0.6c-0.1,0-0.2-0.1-0.3-0.1 c0,0-0.1,0-0.1,0l-0.1,0c-0.1,0-0.1,0-0.2,0c-0.2,0-0.4,0.1-0.6,0.1c-0.4,0.1-0.7,0.3-1,0.4c-0.6,0.3-1.2,0.5-1.9,0.6l-0.1,0 c0,0-0.1,0-0.1,0c-0.1,0-0.1,0-0.2,0c-0.1,0-0.3-0.1-0.4-0.2c-0.3-0.1-0.5-0.3-0.8-0.6c-0.5-0.4-0.9-1-1.3-1.5 c-0.4-0.6-0.7-1.2-0.9-1.8c-0.1-0.3-0.2-0.6-0.2-0.9c0-0.3,0.1-0.7,0.1-1c0.2-0.7,0.4-1.3,0.5-2c0.2-0.7,0.3-1.3,0.4-2 c0.1-0.7,0.2-1.4,0.2-2.1c0-0.7,0-1.4-0.3-2.1c-0.3-0.7-0.7-1.3-1.3-1.8c-0.6-0.5-1.3-0.8-2-1c-0.7-0.2-1.4-0.3-2.1-0.3 c-0.7,0-1.4,0-2.2,0.2c-0.7,0.2-1.4,0.5-2,1c-0.6,0.5-1.1,1.1-1.4,1.7c-0.3,0.7-0.6,1.3-0.7,2c-0.1,0.3-0.1,0.7-0.1,1.1 c0,0.4,0,0.7,0,1.1c0.2,1.4,0.7,2.7,1.2,4c0.5,1.3,1.2,2.5,1.6,3.8c0.2,0.6,0.4,1.3,0.4,1.9c0,0.3-0.1,0.6-0.3,0.9 c-0.1,0.3-0.4,0.5-0.6,0.7c-0.3,0.2-0.6,0.3-0.9,0.3c-0.3,0.1-0.7,0.1-1,0.1c-0.3,0-1.4-0.1-2.1,0.3c-0.7,0.3-1.1,1.1-1.3,1.4 c-0.3,0.5-0.7,0.9-1,1.4c-0.7,0.9-1.3,1.8-2.1,2.7L34.4,60c-0.4,0.4-0.8,0.9-1.1,1.3c-0.1,0.1-0.2,0.2-0.3,0.3 c0,0-0.1,0.1-0.1,0.1c-0.1,0-0.1,0-0.2,0c-0.3,0-0.5-0.1-0.8-0.2c-0.6-0.2-1.1-0.3-1.7-0.4l0,0L30,61l-0.1,0 c-0.8,0.4-1.6,0.8-2.3,1.3c-0.7,0.5-1.4,1.1-1.9,1.8c-0.3,0.4-0.5,0.8-0.6,1.2c-0.1,0.2-0.2,0.4-0.3,0.6c-0.1,0.2-0.2,0.3-0.4,0.4 c-0.3,0.2-0.7,0.3-1.1,0.3c-0.4,0-0.8-0.2-1.1-0.5l-0.1-0.1l0,0.1c0,0.2,0,0.5,0.1,0.7c0.1,0.2,0.2,0.5,0.4,0.6 c0.1,0.1,0.3,0.2,0.5,0.3c-2,1-4.7,3.2-6.5,6.2c-0.1,0.3-0.3,0.5-0.3,0.6c-0.9,1.6-1.4,3.5-1.5,5.9c0,0.8,0,1.5,0.1,2.2l0,0.3 l0.1-0.3l0,0l0.4-1.1c0,0.1,0,0.2,0.1,0.3c0.1,0.4,0.3,0.8,0.5,1.1c0.4,0.7,1.3,1.6,1.9,2.2l1.1,0.9c0,0-2.2-3.6-2.3-6.1 c0,0,0,0,0,0c0.5-1.2,1.7-3,4.3-4.3c2.6-1.3,4.9-0.3,5.8,0.2c0.9,1.6,2.1,3.6,4,6c3.3,4.1,9.6,7.9,9.6,7.9s0.4,0.4,0.5,0.1 s0-0.4,0-0.4s-0.9-2-1.6-3.7l19.5,0.2h10.3l-0.9,2.1l24.1,1.8C92.4,90.1,120,86.1,109.2,82.1z"/><linearGradient id="SVGID_6_" gradientUnits="userSpaceOnUse" x1="29.4846" y1="49.4897" x2="88.0824" y2="108.0875"><stop offset="0.3575" style="stop-color:#000000;stop-opacity:0"/><stop offset="1" style="stop-color:#000000"/></linearGradient><path class="st13" d="M109.2,82.1c-15-5.6-19.2-12.5-26.5-17.3c-0.1,0-0.1-0.1-0.2-0.1c-0.1-0.1-0.2-0.1-0.2-0.2 c0,0-0.1-0.1-0.1-0.1c0,0,0,0,0,0l0,0c-0.3-0.2-0.7-0.4-1-0.6c0,0,0.1,0,0.1,0c0.2-0.1,0.4-0.2,0.6-0.3c0.2-0.1,0.4-0.2,0.5-0.4 c0.1-0.1,0.2-0.1,0.2-0.2c0.1-0.1,0.2-0.2,0.2-0.3l0,0l0,0l0,0c-1.1,0.2-2.3,0.2-3.4,0c-1.1-0.2-2.2-0.6-3.2-1.2 c-1-0.6-1.9-1.2-2.8-2c-0.4-0.4-0.8-0.8-1.3-1.2c-0.4-0.4-0.8-0.8-1.2-1.2l-0.1,0l-0.1,0l0,0c-1.3-0.3-2.5-0.9-3.7-1.6 c-1.2-0.7-2.3-1.5-3.3-2.4c-0.5-0.4-1.1-0.9-1.6-1.3c-0.3-0.2-0.5-0.5-0.8-0.7c-0.3-0.2-0.5-0.4-0.9-0.6c-0.1,0-0.2-0.1-0.3-0.1 c0,0-0.1,0-0.1,0l-0.1,0c-0.1,0-0.1,0-0.2,0c-0.2,0-0.4,0.1-0.6,0.1c-0.4,0.1-0.7,0.3-1,0.4c-0.6,0.3-1.2,0.5-1.9,0.6l-0.1,0 c0,0-0.1,0-0.1,0c-0.1,0-0.1,0-0.2,0c-0.1,0-0.3-0.1-0.4-0.2c-0.3-0.1-0.5-0.3-0.8-0.6c-0.5-0.4-0.9-1-1.3-1.5 c-0.4-0.6-0.7-1.2-0.9-1.8c-0.1-0.3-0.2-0.6-0.2-0.9c0-0.3,0.1-0.7,0.1-1c0.2-0.7,0.4-1.3,0.5-2c0.2-0.7,0.3-1.3,0.4-2 c0.1-0.7,0.2-1.4,0.2-2.1c0-0.7,0-1.4-0.3-2.1c-0.3-0.7-0.7-1.3-1.3-1.8c-0.6-0.5-1.3-0.8-2-1c-0.7-0.2-1.4-0.3-2.1-0.3 c-0.7,0-1.4,0-2.2,0.2c-0.7,0.2-1.4,0.5-2,1c-0.6,0.5-1.1,1.1-1.4,1.7c-0.3,0.7-0.6,1.3-0.7,2c-0.1,0.3-0.1,0.7-0.1,1.1 c0,0.4,0,0.7,0,1.1c0.2,1.4,0.7,2.7,1.2,4c0.5,1.3,1.2,2.5,1.6,3.8c0.2,0.6,0.4,1.3,0.4,1.9c0,0.3-0.1,0.6-0.3,0.9 c-0.1,0.3-0.4,0.5-0.6,0.7c-0.3,0.2-0.6,0.3-0.9,0.3c-0.3,0.1-0.7,0.1-1,0.1c-0.3,0-1.4-0.1-2.1,0.3c-0.7,0.3-1.1,1.1-1.3,1.4 c-0.3,0.5-0.7,0.9-1,1.4c-0.7,0.9-1.3,1.8-2.1,2.7L34.4,60c-0.4,0.4-0.8,0.9-1.1,1.3c-0.1,0.1-0.2,0.2-0.3,0.3 c0,0-0.1,0.1-0.1,0.1c-0.1,0-0.1,0-0.2,0c-0.3,0-0.5-0.1-0.8-0.2c-0.6-0.2-1.1-0.3-1.7-0.4l0,0L30,61l-0.1,0 c-0.8,0.4-1.6,0.8-2.3,1.3c-0.7,0.5-1.4,1.1-1.9,1.8c-0.3,0.4-0.5,0.8-0.6,1.2c-0.1,0.2-0.2,0.4-0.3,0.6c-0.1,0.2-0.2,0.3-0.4,0.4 c-0.3,0.2-0.7,0.3-1.1,0.3c-0.4,0-0.8-0.2-1.1-0.5l-0.1-0.1l0,0.1c0,0.2,0,0.5,0.1,0.7c0.1,0.2,0.2,0.5,0.4,0.6 c0.1,0.1,0.3,0.2,0.5,0.3c-2,1-4.7,3.2-6.5,6.2c-0.1,0.3-0.3,0.5-0.3,0.6c-0.9,1.6-1.4,3.5-1.5,5.9c0,0.8,0,1.5,0.1,2.2l0,0.3 l0.1-0.3l0,0l0.4-1.1c0,0.1,0,0.2,0.1,0.3c0.1,0.4,0.3,0.8,0.5,1.1c0.4,0.7,1.3,1.6,1.9,2.2l1.1,0.9c0,0-2.2-3.6-2.3-6.1 c0,0,0,0,0,0c0.5-1.2,1.7-3,4.3-4.3c2.6-1.3,4.9-0.3,5.8,0.2c0.9,1.6,2.1,3.6,4,6c3.3,4.1,9.6,7.9,9.6,7.9s0.4,0.4,0.5,0.1 s0-0.4,0-0.4s-0.9-2-1.6-3.7l19.5,0.2h10.3l-0.9,2.1l24.1,1.8C92.4,90.1,120,86.1,109.2,82.1z"/></g><path class="st1" d="M25.4,2.1c0,0,4.1,10.6,14.6,10.3c10.5-0.3,14.8-10,14.8-10L25.4,2.1z"/><path class="st1" d="M2.6,24.5c0,0,3,3.3,6.6,4.5s8.9,1.9,8.9,1.9L17,35c0,0-12.3-1.2-16-7C2.6,24.5,2.6,24.5,2.6,24.5z"/><path class="st1" d="M77.5,24.7c0,0-2.7,3.1-6.4,4.3c-3.7,1.2-9.2,2.1-9.2,2.1l1.1,4c0,0,12.3-1.2,16-7 C77.5,24.7,77.5,24.7,77.5,24.7z"/></g><path class="st14" d="M40.2,75.6c6.9-0.1,16.7-1.8,22.4-4c-0.7-6.6-2.7-45.5-2.7-45.5s2.1,5.1,3.2,7.9c4.7-0.4,12.3-1.3,15.3-6.2 C75.5,21,73.3,13.2,71,8.1c0,0-10.4-3.8-18.6-6.4c0,0-0.9-0.3-1.3,0.4c-3,4.2-4.5,7.1-11.2,7.1l0,0c-6.4-0.1-8-2.9-10.9-7.1 c-0.5-0.7-1.4-0.4-1.4-0.4C19.5,4.2,9,8.1,9,8.1c-2.3,5.1-4.5,13-7.4,19.7c3,4.8,10.4,5.8,15.3,6.2c1.1-2.8,3.2-7.9,3.2-7.9 S18,65,17.4,71.6c5.8,2.2,15.5,4,22.4,4l0,0"/></svg> 