<?xml version="1.0" encoding="UTF-8" standalone="no"?>
<svg
   xmlns:dc="http://purl.org/dc/elements/1.1/"
   xmlns:cc="http://creativecommons.org/ns#"
   xmlns:rdf="http://www.w3.org/1999/02/22-rdf-syntax-ns#"
   xmlns:svg="http://www.w3.org/2000/svg"
   xmlns="http://www.w3.org/2000/svg"
   xmlns:xlink="http://www.w3.org/1999/xlink"
   version="1.1"
   id="Layer_1"
   x="0px"
   y="0px"
   viewBox="0 0 80 77.1"
   style="enable-background:new 0 0 80 77.1;"
   xml:space="preserve"><defs
     id="defs9"><linearGradient
       id="linearGradient4232"><stop
         style="stop-color:#000000;stop-opacity:1;"
         offset="0"
         id="stop4234" /><stop
         style="stop-color:#006801;stop-opacity:1"
         offset="1"
         id="stop4236" /></linearGradient><linearGradient
       xlink:href="#linearGradient4232"
       id="linearGradient4238"
       x1="45.875"
       y1="11.474998"
       x2="45.75"
       y2="51.724998"
       gradientUnits="userSpaceOnUse" /></defs><style
     type="text/css"
     id="style3">
	.st0{fill:none;stroke:#000000;stroke-width:3;stroke-linecap:round;stroke-linejoin:round;}
</style><path
     id="path4222"
     d="M40.2,75.6c6.9-0.1,16.7-1.8,22.4-4c-0.7-6.6-2.7-45.5-2.7-45.5s2.1,5.1,3.2,7.9c4.7-0.4,12.3-1.3,15.3-6.2  C75.5,21,73.3,13.2,71,8.1c0,0-10.4-3.8-18.6-6.4c0,0-0.9-0.3-1.3,0.4c-3,4.2-4.5,7.1-11.2,7.1l0,0c-6.4-0.1-8-2.9-10.9-7.1  c-0.5-0.7-1.4-0.4-1.4-0.4C19.5,4.2,9,8.1,9,8.1c-2.3,5.1-4.5,13-7.4,19.7c3,4.8,10.4,5.8,15.3,6.2c1.1-2.8,3.2-7.9,3.2-7.9  S18,65,17.4,71.6c5.8,2.2,15.5,4,22.4,4l0,0"
     class="st0"
     style="fill:url(#linearGradient4238);fill-opacity:1" /><!-- Saum links--><path
     style="fill:#148b15;fill-rule:evenodd;stroke:none;stroke-width:1px;stroke-linecap:butt;stroke-linejoin:miter;stroke-opacity:1;fill-opacity:1"
     d="m 3.8461538,25.968777 2.2624435,1.58371 1.9230769,0.904978 2.0361988,0.678733 2.375566,0.452488 2.488688,0.452489 2.488687,0.565611 -1.131221,2.714932 L 7.3529412,32.416741 3.0542986,29.023075 2.4886878,27.778732 Z"
     id="path4273" /><!--Saum rechts--><path
     style="fill:#148b15;fill-rule:evenodd;stroke:none;stroke-width:1px;stroke-linecap:butt;stroke-linejoin:miter;stroke-opacity:1;fill-opacity:1"
     d="m 62.782805,30.380541 2.941177,0 2.149321,-0.339366 2.714932,-0.791855 2.488688,-1.131222 3.506787,-2.60181 1.470589,2.262444 -4.864254,3.959276 -8.484163,1.58371 -3.16742,-1.357466 z"
     id="path4277" /><!--Saum oben--><path
     style="fill:#148b15;fill-opacity:1;fill-rule:evenodd;stroke:none;stroke-width:1px;stroke-linecap:butt;stroke-linejoin:miter;stroke-opacity:1"
     d="m 25.565611,2.439365 2.149321,3.3936651 2.640435,3.0929243 c 1.364869,1.1402396 2.319917,2.0408186 4.14965,2.7314906 1.88537,0.699329 4.220473,1.088548 6.218965,0.940847 2.149033,0.02985 3.944975,-0.457121 5.352613,-0.921534 1.885502,-0.590661 2.785249,-1.524876 3.771657,-2.4886883 1.400063,-1.1989921 1.729204,-1.6092775 2.753558,-3.1287952 L 55.429865,1.760632 51.809955,1.0818989 48.076923,6.0592745 43.552036,8.7742066 36.764706,8.6610844 32.579186,6.7380075 29.298643,2.439365 28.393665,1.1950211 25.113122,1.9868763 Z"
     id="path4279" /><!--Hellgruen--><path
     style="fill:#22bb23;fill-opacity:1;fill-rule:evenodd;stroke:none;stroke-width:1px;stroke-linecap:butt;stroke-linejoin:miter;stroke-opacity:1"
     d="m 19.397463,53.315643 c 1.057082,-1.321353 2.114165,-2.642706 3.171247,-3.964059 4.175476,2.149401 8.350951,4.298802 12.526427,6.448203 1.444679,-0.581395 2.889359,-1.162791 4.334038,-1.744186 1.987495,0.990767 3.991378,2.066393 6.248884,2.226423 5.210908,0.896336 10.421815,1.792673 15.632723,2.68901 0.440451,4.087386 0.880902,8.174771 1.321353,12.262157 C 57.170542,72.783579 51.70895,74.333966 46.247357,75.884354 40.625279,75.37833 34.954916,75.308321 29.368251,74.468007 26.185599,73.918276 23.002948,73.368546 19.820296,72.818815 18.88654,71.69126 17.952783,70.563706 17.019027,69.436151 17.811839,64.062648 18.604651,58.689146 19.397463,53.315643 Z"
     id="path3347" /><!--Mittelgruen--><path
     style="fill:#158a17;fill-opacity:1"
     d="m 49.449654,40.734811 c 0.119139,1.862377 -0.325056,2.92955 -0.06098,4.336809 l 0,8.252604 c -1.529871,2.378691 -4.24823,1.143021 -4.729544,-0.663119 -0.08572,-1.655212 -0.08633,-3.981355 -0.0431,-5.712675 2.734245,-0.130926 3.641888,-5.39047 -0.729805,-5.648794 -0.808431,-0.179573 -0.01972,0.0047 0.0336,0.686288 3.444664,0.123832 2.633448,4.470113 -0.03683,4.415158 0.03318,2.614942 -0.0576,3.798444 -0.122902,6.130792 0.02514,3.063577 -3.727323,1.861017 -5.645651,2.138323 1.150453,1.580135 -18.296167,-0.879177 -17.322601,-0.0043 -0.711976,-1.069919 0.538025,-1.857856 1.031502,-0.565624 -0.808027,-1.182242 -0.102665,-1.533087 0.19723,-2.798624 1.566815,0.02207 1.001327,2.822755 2.486221,2.632551 -0.704406,0.436554 -1.041372,1.956993 0.02663,0.876912 0.874568,1.169736 -2.412087,3.116075 0.05728,1.865684 0.155747,0.385253 -1.281597,2.113527 0.352312,0.973805 1.002716,-0.154683 0.529529,3.63431 1.511506,1.610198 0.268016,-2.268986 1.225274,-0.432531 1.019622,0.798155 0.161539,0.708889 0.458456,3.499491 1.024804,1.589021 0.505069,1.07159 1.536305,-0.07907 0.519223,-0.478981 0.872311,-0.733333 0.862115,-2.351275 1.106701,-2.608881 0.639262,0.533851 -0.24999,2.514041 1.481532,2.764764 -0.06125,0.341715 -0.607193,1.557021 0.267619,1.270937 -1.442983,0.361965 0.729262,0.334585 -0.414702,0.614251 1.100085,0.252665 2.935454,-0.339697 1.324569,-1.237007 0.09645,-0.162627 1.403706,-0.552568 0.283958,-0.793795 0.689758,-0.113136 0.98516,-3.431099 1.117191,-1.46196 0.777927,-0.388109 -0.556706,1.76924 0.670984,0.951712 -1.031677,0.124312 -0.195826,1.606815 -0.04781,0.266425 0.834791,-0.03926 2.816973,-0.658866 1.011908,-1.182419 -0.134961,-0.850228 1.451768,-1.399498 0.337076,-2.040727 0.626479,-0.605168 2.220252,0.0885 1.70502,-1.453779 0.4038,-0.199562 1.266036,0.267442 1.1303,-0.691315 0.718899,0.794893 0.436758,2.675022 0.603016,2.898369 1.133684,-0.0566 -0.754176,1.718365 0.537239,1.695435 -0.908093,0.816399 -1.004097,0.98333 0.204153,1.117821 1.351913,1.12287 0.965081,-3.677968 1.643757,-1.425314 0.285193,1.311732 0.608253,4.453965 0.971946,4.574423 0.130322,-0.96848 0.886226,-1.557624 0.705803,-0.200442 1.19624,1.810818 1.171847,-4.635449 1.740728,-1.74752 0.146855,1.694013 0.802293,1.301786 0.966488,0.114629 0.388858,-0.598031 0.110154,-1.802985 1.143822,-2.066688 0.751549,-0.445353 1.277703,-3.031292 2.130732,-1.200401 0.690098,2.295567 1.935598,3.799618 0.782793,4.903871 0.949633,-0.451356 1.826172,0.454858 1.908423,-1.201902 -0.04295,-1.297295 0.94293,-4.67383 1.081879,-1.657971 1.960448,6.070446 0.764973,2.157319 2.16694,0.159587 -0.231053,-1.346381 0.946946,-2.154064 0.856275,-0.334119 -0.243966,1.017166 0.763652,3.963969 1.35847,1.877462 -1.182141,-0.658617 0.702684,-1.338378 0.154203,-2.649231 0.101943,-2.053567 1.209411,-0.677509 1.245926,0.563648 -0.222872,0.937854 1.623541,2.405044 -0.0092,2.401554 2.316322,1.403557 1.498558,-2.942689 2.330898,-4.158844 0.998304,-1.76396 -0.737559,-4.02059 -1.736258,-3.820731 0.602195,-1.189611 -1.911414,-1.748165 -0.428562,-2.13305 -0.653702,-0.553513 -1.098594,-0.635575 -0.489911,-1.180986 -0.405372,-1.875582 -2.884295,-1.379213 -2.503493,0.52778 -1.158044,0.530836 -0.07814,0.872464 -0.413612,-0.183141 -0.128556,-2.251945 -0.07039,-4.884026 -0.05149,-6.516692 2.769104,0.0564 4.546005,-5.779126 -0.649158,-5.742431 -0.0063,0.183266 0.10335,0.141777 -0.0861,0.598909 4.14239,-0.02403 2.768103,4.508008 0.115583,4.624839 0.172597,2.204501 -0.4553,4.760409 -0.181264,6.848721 0.196833,0.935862 -0.64619,1.965454 -1.189287,0.701763 0.563965,0.948024 -1.411043,0.442593 -0.554594,1.279502 -1.245514,-0.0079 0.775736,1.283794 -0.573768,0.930901 0.303791,0.975697 -1.927756,2.118102 -1.401123,0.950346 -0.387134,-0.400235 -1.591373,-2.815543 -1.233517,-4.289277 -0.09821,-3.541327 -0.01168,-7.085578 -0.02908,-10.628769 2.763338,-0.09005 3.5299,-5.557587 -0.449808,-5.573623 l -0.03934,0.471694 c 2.333864,0.229981 3.08957,4.222005 -0.172365,4.637489 z m 8.44683,9.90972 -0.192912,0.213961 z m -0.855468,0.02148 c -0.09255,0.248737 0.207505,0.128376 0,0 z m -0.0293,0.464843 c 0.0807,0.263723 -0.303674,0.0043 0,0 z m -0.201172,0.259766 c -0.135879,0.400521 -0.170588,0.03475 0,0 z m -0.308594,0.148437 c 0.214441,-0.235998 0.09038,0.152447 0,0 z M 22.246094,51.625 c -0.222537,1.327896 0.35899,1.849718 0,0 z m 0.724609,0.01953 c 0.165616,0.104279 -0.122391,0.150363 0,0 z m 35.84375,0.703125 c 0.318117,-0.02904 0.04561,0.278499 0,0 z m -2.660156,0.05273 c -0.227663,0.05218 0.13909,0.166207 0,0 z m 0.248047,0.06445 c 0.09154,0.152693 -0.188058,0.01783 0,0 z m -33.369141,0.06445 c -0.34924,0.02506 0.131686,0.332462 0,0 z m -0.07617,0.335935 c -0.231695,0.114451 0.231695,0.114451 0,0 z m -2.099609,0.121094 c 0.260848,0.142259 -0.134016,0.332521 0,0 z m 2.02539,0.11523 c -0.974235,0.629401 -0.318161,2.075762 0,0 z m 36.46875,0.02148 c 0.24297,0.138593 -0.261937,0.140337 0,0 z m -37.166015,0.333984 c -0.196191,0.224493 0.241982,0.144818 0,0 z m -1.419922,0.222657 c 0.136816,1.02077 0.460848,0.10835 0,0 z m 28.394531,0.386718 c 0.385361,0.213664 -0.313947,0.09538 0,0 z m 10.308594,0.03906 c 0.0386,0.336293 -0.353454,-0.173525 0,0 z m -10.029297,0.230469 c 0.224899,0.09315 -0.204442,0.08134 0,0 z m -26.863281,0.113281 c -0.756504,0.192369 -0.0804,0.621945 0,0 z m -0.814453,0.06836 c 0.05714,0.761954 0.448602,0.488463 0,0 z m 33.642578,0.05078 c 0.145388,0.164408 -0.229071,0.0548 0,0 z m -33.509766,0.01563 c -0.08514,0.585701 0.418819,-0.09798 0,0 z m 1.201172,0.15625 c -0.742592,0.146979 -0.06031,0.427995 0,0 z m 29.957031,0.214849 c -0.270165,0.122608 0.227459,0.104821 0,0 z m -3.203125,0.02734 c 0.289737,0.02035 -0.150696,0.238182 0,0 z m 4.617188,0.08203 c 0.63544,0.576618 -0.19345,0.416307 0,0 z m -31.728516,0.02148 c -0.731952,0.222661 -0.02823,0.708356 0,0 z M 21.517578,55.125 c -0.132949,0.496993 0.530395,-0.06541 0,0 z m 37.994141,0.01172 c 0.11891,0.220002 -0.275101,-0.01211 0,0 z m -36.96875,0.03711 c -0.566317,-0.15902 -0.128104,0.603848 0,0 z m 32.345703,0.271484 c 0.143328,0.161533 -0.224647,0.05563 0,0 z m -0.916016,0.11718 c 0.198723,0.1598 -0.371463,0.03929 0,0 z m -13.21875,0.291068 c 0.446143,0.034 -0.105247,0.291756 0,0 z m 9.695313,0.0059 c 0.145388,0.164408 -0.229071,0.05481 0,0 z m 4.804687,0.05083 c -0.09743,0.349867 -0.47136,-0.04895 0,0 z m -15.96875,0.01953 c 0.16121,0.108012 -0.121034,0.14254 0,0 z m 0.205078,0.0332 c 0.403363,0.413974 -0.361668,0.217321 0,0 z m 0.923828,0.23242 c 0.277416,0.01445 -0.0497,0.242282 0,0 z m 10.09961,0.02539 -0.175664,0.193624 z m 2.1543,0.318341 -0.109347,0.06933 z m -14.496094,0.01367 c -0.341194,0.118082 0.273711,0.348109 0,0 z m 2.945313,0.03125 c 0.400594,-0.133615 -0.09731,0.304161 0,0 z m -0.917969,0.07425 c 0.224899,0.09315 -0.204442,0.08134 0,0 z m -0.542969,0.02734 c 0.307991,0.109609 -0.304493,0.118859 0,0 z m -1.367188,0.07812 c -0.178505,0.180751 0.232064,0.08464 0,0 z m 0.822266,0.07617 c -0.13909,0.166207 0.227663,0.05218 0,0 z m 2.212891,0.01563 c 0.214602,-0.236028 0.09032,0.152463 0,0 z m -3.242188,0.03516 c -0.229968,0.116066 0.230815,0.110414 0,0 z m 1.587891,0.146484 c -0.525846,0.214064 0.414937,0.60636 0,0 z m -0.296875,0.06058 c -0.231695,0.114451 0.231695,0.114451 0,0 z m -1.066406,0.06836 c -0.110628,0.371728 0.376711,-0.108989 0,0 z m 6.380859,0.03516 c 0.229071,0.05481 -0.145388,0.164408 0,0 z m -7.972656,0.0078 c -0.756835,0.176319 0.04505,0.57001 0,0 z m 2.658203,0.04297 c -0.227419,0.113056 0.227419,0.113056 0,0 z m -2.447266,0.103516 c -0.3484,0.110867 0.277138,0.197472 0,0 z m 1.222654,0.226567 c -0.124484,0.149821 0.168111,0.101197 0,0 z m 1.291015,0 c -0.126046,0.148844 0.165071,0.102214 0,0 z m -13.859375,0.357417 c 0.214602,-0.236028 0.09032,0.152463 0,0 z m 4.847656,0.04296 c -0.02941,0.908767 -0.297217,0.225672 0,0 z m -0.464843,0.0059 c 0.213764,0.218121 -0.147463,0.146547 0,0 z m 10.054687,0.06248 c -0.02268,0.24375 -0.262832,-0.135776 0,0 z m 3.535156,0.0039 c 0.290039,0.02441 -0.241364,0.189431 0,0 z m -18.324218,0.02344 c -0.951864,0.05155 0.537159,0.528742 0,0 z m 23.863281,0.07227 c 0.168069,0.101239 -0.124184,0.149709 0,0 z m -16.636719,0.08398 c 0.268958,0.163186 -0.269498,0.166929 0,0 z m 9.501953,0.06055 c 0.199362,0.08212 -0.05982,0.227876 0,0 z m -7.972656,0.0332 c 0.266846,0.371385 -0.450125,0.656687 0,0 z m 9.869141,0.02148 c 0.242779,0.19366 -0.411971,0.047 0,0 z m -18.962891,0.06055 c -0.103015,0.612974 0.682424,-0.205986 0,0 z m 18.603516,0.04688 c 0.213251,-0.233147 0.08604,0.152021 0,0 z m -3.19336,0.01172 c 0.367202,0.04165 -0.292237,0.324903 0,0 z m -7.945312,0.02347 c 0.145388,0.164408 -0.229071,0.05481 0,0 z m 4.123047,0 c 0.227664,0.05219 -0.139091,0.166208 0,0 z m 7.679687,0.01367 c 0.203525,0.218622 -0.139746,0.141904 0,0 z m -0.820312,0.05273 c 0.217802,-0.231579 0.08874,0.153396 0,0 z m -14.332032,0.11132 c 0.444989,-0.114032 -0.250121,0.298572 0,0 z m 7.363282,0.09571 c 0.214441,-0.235998 0.09038,0.152447 0,0 z m -6.623047,0.06055 c 0.261341,-0.135041 0.03462,0.236634 0,0 z m 19.136718,0.259757 c -0.157897,0.306951 0.259038,0.668116 0,0 z m -18.234374,0.02734 c 0.632747,0.26899 -0.352459,0.162002 0,0 z m -0.701172,0.10162 c 0.240845,0.125927 -0.169379,0.193761 0,0 z m 3.4375,0.19147 c 0.427922,0.0014 -0.221833,0.136838 0,0 z m -2.753907,0.01367 c 0.07865,0.464751 -0.408015,0.0607 0,0 z m -0.939453,0.06055 c -0.242453,-0.04874 -0.01018,0.275648 0,0 z m 1.111328,0 c 0.107004,0.354928 -0.454669,0.09823 0,0 z m 27.582032,0.0625 c -0.122022,0.1491 0.164269,0.101805 0,0 z m 0.277343,0.002 c -0.340691,0.14629 0.217304,0.309255 0,0 z m -28.816406,0.03125 c -0.0083,0.532406 0.569375,-0.120523 0,0 z m -3.527344,0.0293 c -0.934701,-0.470262 -0.03181,0.385243 0,0 z m 13.097657,0.03516 c -0.347124,0.109687 0.277836,0.194654 0,0 z m 9.486328,0.05273 c -0.703904,0.608084 0.253465,0.409178 0,0 z m 9.208984,0.0625 c -0.318796,0.229547 0.286784,0.226007 0,0 z m -26.492187,0.04297 c 0.214437,-0.235994 0.09039,0.152447 0,0 z m -5.222657,0.08594 c -0.36905,-0.06022 0.169422,0.256829 0,0 z m 3.541016,0.02348 c 0.01318,0.307012 0.359774,-0.06352 0,0 z m -3.283203,0.0078 c -0.133164,0.27871 0.28341,-0.03074 0,0 z M 28.0625,59.9375 c 0.497194,0.07244 -0.128245,0.380393 0,0 z m 8.207031,0 c 0.277486,-0.01288 -0.116587,0.220867 0,0 z m 22.306641,0 c -0.300638,0.197592 0.27421,0.186602 0,0 z m -25.423828,0.09766 c 0.260454,-0.04919 0.317458,0.308481 0,0 z m 25.042968,0.0078 c -0.536586,0.497391 0.690634,0.447283 0,0 z m -31.71289,0.0176 c -0.122871,0.142905 0.164704,0.107745 0,0 z m 22.476562,0.07031 c -0.144957,0.169144 0.226922,0.323439 0,0 z m -18.28125,0.01172 c 0.143328,0.161533 -0.224647,0.05564 0,0 z m -1.076172,0.05273 c 0.717381,-0.01517 -0.170994,0.429873 0,0 z m 5.019532,0.04102 c -0.0137,0.455857 -0.421395,0.180073 0,0 z m -3.197266,0.08793 c 0.225705,0.09754 -0.208156,0.07697 0,0 z m -3.224609,0.07813 c 0.142637,0.161429 -0.225152,0.05268 0,0 z m 7.537109,0 c 0.142637,0.161429 -0.225152,0.05268 0,0 z m -4.935547,0.0098 c 0.211902,0.225209 -0.352951,0.04836 0,0 z m 17.300781,0 c -0.06231,0.224564 0.196678,0.08326 0,0 z m -14.458984,0.01563 c -0.358994,0.24397 0.290809,0.22033 0,0 z m 1.087891,0.0039 c 0.164831,0.290901 -0.310325,0.05321 0,0 z m -3.205078,0.01172 c 0.661544,-0.04443 -0.590765,0.287996 0,0 z m 2.236328,0.01758 c -0.212739,0.595429 0.663395,-0.07625 0,0 z m 15.546875,0 c -0.829824,0.486286 0.131106,1.145019 0,0 z m -31.21875,0.0625 c -0.182766,0.0035 0.09233,0.19951 0,0 z m 31.130859,0.002 c 0.252809,0.329628 -0.337458,0.164627 0,0 z m -20.101562,0.0157 c 0.358219,-0.154207 -0.08498,0.248293 0,0 z m 1.59375,0.05273 c 0.659378,0.05833 -0.781125,0.09283 0,0 z m -0.783203,0.04297 c -0.276644,-0.02412 0.182646,0.18247 0,0 z m 28.330078,0.01172 c -0.08713,0.564207 0.404468,0.02519 0,0 z m -28.019532,0.02148 c -0.06231,0.224562 0.196677,0.08326 0,0 z m 5.3125,0.04102 c -0.229968,0.116066 0.230815,0.110414 0,0 z m 12.771485,0.11723 c -0.156629,0.266528 0.268059,0.01328 0,0 z m -14.927735,0.0098 c -0.219271,0.516192 0.407304,0.0136 0,0 z m -4.068359,0.002 c -0.01205,0.546264 0.506974,-0.240143 0,0 z M 33.875,60.85385 c -0.447474,0.09274 0.584403,0.128259 0,0 z m 5.863281,0.01367 c 0.411478,-0.123511 0.06196,0.303626 0,0 z m -6.115234,0.06058 c 0.14243,0.751888 0.454043,0.08419 0,0 z m 24.607422,0.0098 c -0.122871,0.142905 0.164704,0.107745 0,0 z M 58.917969,61 c -0.338981,0.03845 0.109128,0.357552 0,0 z m -28.140625,0.04492 c -0.267108,-0.141509 -0.0327,0.241626 0,0 z m 0.271484,0.04492 c 0.128733,0.134578 0.171291,-0.19735 0,0 z m -3.652344,0.0078 c -0.29527,0.196794 0.269897,0.188794 0,0 z m 31.71875,0.0059 c -0.55005,0.147071 -0.198588,0.895474 0,0 z m -28.392578,0.0449 c -0.565621,0.280067 1.146382,-0.01386 0,0 z m 4.236328,0.01953 c -0.28176,0.126998 0.283703,0.119816 0,0 z m -5.283203,0.01953 c -0.239314,-0.09001 -0.06084,0.19114 0,0 z m 28.519531,0.09769 c -0.02529,0.414512 -0.17671,-0.158286 0,0 z m -26.375,0.22656 c 0.08639,0.429527 -0.499598,-0.01453 0,0 z m 26.142579,0.07812 c -0.106458,0.671934 0.629899,0.470822 0,0 z m -25.273438,0.07422 c 0.272479,-0.147141 0.02949,0.244295 0,0 z m 0.552735,0.17778 c -0.210862,0.469801 0.52842,-0.09568 0,0 z m -3.894532,0.07225 c 0.08384,0.162951 0.237029,-0.252694 0,0 z m 1.791016,0.08989 c 0.0417,0.233765 0.257833,-0.0822 0,0 z m 2.375,0.15224 c -0.309149,0.115999 0.309149,0.115999 0,0 z m 26.328125,0.12308 c 0.337612,0.175759 -0.500684,-0.0022 0,0 z m -0.646485,0.154311 c -1.171958,-0.104273 0.336376,0.392611 0,0 z m -2.267578,0.18943 c 0.390188,-0.157425 0.112591,0.430287 0,0 z m 2.621094,0.22067 c 0.08287,0.156599 0.224938,-0.244387 0,0 z m -1.539062,0.08789 c -0.234704,0.111992 0.2347,0.117296 0,0 z m -0.126954,0.05081 c -0.224647,0.05563 0.143328,0.161533 0,0 z m 1.324219,0.01172 c 0.142732,0.406153 0.399066,-0.230981 0,0 z m -25.558593,0.19535 c -0.27469,-0.0085 0.117916,0.217409 0,0 z m -1.330079,0.08606 c -0.313126,0.997444 1.118205,0.281884 0,0 z m -0.552734,0.09179 c -1.48499,-0.395221 0.198822,1.031256 0,0 z m 28.369141,0.10559 c 0.833745,-0.127236 -0.481016,0.31677 0,0 z m -5.013672,0.1641 c -0.08479,0.259843 0.214178,0.106374 0,0 z m -12.851563,0.01758 c -0.402703,0.178395 0.267404,0.418046 0,0 z m 17.251953,0.15821 c 0.01235,0.369322 0.370568,-0.10399 0,0 z m -1.710937,0.0293 c -1.172627,-0.233952 -0.229882,0.968088 0,0 z m -5.601563,0.16016 c -0.134578,0.128733 0.19735,0.171291 0,0 z M 26.529297,74.289064 c 0.08365,0.290533 0.380963,-0.126817 0,0 z m 0.130859,0 c 0.04078,0.273768 0.236047,-0.05879 0,0 z m 0.0957,0.0332 c 0.0438,0.347099 0.203714,-0.04275 0,0 z m 0.160157,-0.03321 c 8.790766,0.190315 17.602854,0.117397 26.383627,0.053 -5.908194,-0.113851 -11.833155,-0.02457 -17.74847,-0.053 z m 26.93164,0 c -0.689184,0.05461 0.08012,0.159276 0,0 z m 2.117188,0 c -0.270389,0.08776 0.06732,0.166993 0,0 z"
     id="path4335" /><!--Dunkelgruen--><path
     style="fill:#013f00;fill-opacity:1"
     d="m 49.75,35.429688 c -3.619645,-0.02149 -4.025533,5.810463 -0.588001,5.806884 -0.0084,3.064546 -0.01254,9.426133 -0.01889,11.9359 0.658597,2.093434 -1.337584,1.297603 1.50967,1.931118 0.593421,-0.565441 -0.475102,-2.030176 -0.948357,-2.27523 0.08061,-4.099286 0.03215,-8.19944 0.04547,-12.299148 -2.950477,-0.122607 -2.544097,-4.186196 0.06762,-4.420989 z m 5.511565,4.765726 c -3.753696,-0.05663 -3.220935,5.530044 -0.483891,5.734269 0.118259,3.152834 -0.02488,5.144041 0.268014,7.615305 -0.642408,1.413751 -0.926565,-1.851519 -1.324192,0.17048 -0.265076,0.463045 -0.245123,0.610757 -0.592288,1.056952 0.25156,1.16 2.001951,-0.179002 1.826408,1.17733 1.001057,-2.645884 0.04013,0.53504 0.529442,-2.197439 -0.04667,-2.429163 -0.154991,-6.659224 -0.203364,-8.407972 -2.47626,-0.278295 -2.35741,-4.650205 0.132798,-4.573027 0.499098,0.01547 0.529459,0.911693 -0.152927,-0.575898 z M 43.898438,41.25 c -4.007293,0.09207 -3.235639,5.658099 -0.410419,5.713108 -0.02649,1.282138 0.336833,4.332034 0.07925,6.421976 -0.561185,-1.22268 -1.230203,0.201192 -1.241536,-1.181379 -1.130308,-1.131912 -0.609319,2.739427 -1.837913,0.87638 -0.750561,-0.166766 -2.082606,0.239923 -0.796624,-0.760884 -1.209483,-0.777602 -0.36079,-3.425381 -2.115014,-3.877275 -1.153113,1.097363 -1.494264,3.996936 -3.536545,2.33032 C 33.966517,49.925155 33.332805,48.85565 32.534804,50.073979 32.156,49.095448 31.171339,51.274363 30.872158,49.59469 30.131663,48.641597 29.959045,48.528973 31.073675,48.831003 30.994645,48.457411 29.51139,47.596991 30.694663,47.938061 30.023966,46.358992 29.032918,43.351777 27.88043,46.4827 c 0.661874,0.709986 -0.232258,0.658521 -0.542794,1.391417 1.809438,-0.285234 -1.581705,1.112939 0.51865,1.240803 -0.63469,1.534939 -2.622184,1.530121 -2.187579,-0.291414 0.142456,-0.970827 -0.179428,-1.462135 -0.650973,-1.768081 -0.14425,-1.201931 -0.336303,-3.097058 -1.839689,-3.385195 0.236238,1.322767 -1.18634,1.285633 -0.891028,2.312707 -1.2734,1.332042 -1.055789,3.616835 -2.262564,4.664095 -0.931677,-0.684595 -1.03864,-1.155255 -0.222718,-1.209404 -2.725741,-3.490445 -3.164751,7.011625 1.951752,1.973635 0.827778,-2.000868 1.754992,1.99397 2.719462,2.017223 -0.354834,1.553652 1.321691,3.326544 0.08935,4.214767 1.724596,-1.976776 0.894905,3.792968 1.834932,1.140898 0.01648,-1.839194 1.360638,-1.216115 0.925923,0.256637 -0.310644,0.876439 0.964468,1.37978 0.565159,0.488423 1.423291,0.08105 2.329331,-3.833813 2.852424,-1.073173 0.460028,0.837356 0.830493,2.348649 1.025168,0.962949 0.675342,-1.197783 0.884736,-0.941055 1.387121,-0.210958 0.648057,-0.796442 1.140897,-1.735811 1.338198,-0.175868 0.288437,0.822223 1.34486,2.133119 0.916404,0.471805 1.423271,-0.787602 -0.111659,-2.249223 1.748692,-2.463579 0.965369,-0.474826 0.747469,-1.551786 1.563283,-1.370948 0.481576,-1.745555 1.086622,2.608171 2.082582,0.187692 0.901622,0.185176 1.229199,2.317525 1.809064,3.182468 2.314673,-1.099469 1.506008,-3.69095 1.504705,-5.849599 -0.03151,-2.807824 -0.02125,-4.190979 -0.0077,-6.759617 -3.093437,-0.381307 -2.262368,-4.55092 -0.106388,-4.375859 l -0.10005,-0.802117 -0.0033,-0.334185 c 0.07347,0.882381 0.07347,1.214132 -7.8e-5,0.331778 z m -21.5,9.767578 c 0.391555,0.225649 0.0029,-0.335718 0,0 z m 0.955078,-7.148437 c 0.171897,0.207772 -0.127024,0.110569 0,0 z m 3.736328,4.761718 c 0.130442,0.157207 -0.210583,0.074 0,0 z m -6.15625,0.121094 c 0.167392,-0.15334 0.08014,0.127727 0,0 z m 5.890625,0.05078 c -0.67104,0.268631 0.431553,0.232627 0,0 z m 11.035156,0.332032 c 0.171902,0.207772 -0.127036,0.110569 0,0 z m -11.996094,0.08399 c 0.142676,0.123839 -0.101401,0.147288 0,0 z m 10.667969,0.599609 c 0.210583,0.074 -0.130442,0.157207 0,0 z m 2.162109,0.1875 c 0.345148,0.08789 -0.07614,0.345945 0,0 z m -5.720703,0.277344 c 0.372973,0.124141 -0.378658,0.114444 0,0 z m 12.847656,0.0059 c -1.830564,1.844695 -1.34488,4.606281 -1.061021,6.967768 0.471781,1.212868 0.441716,2.213537 1.454865,1.254852 1.643432,0.150424 0.918738,-0.210389 -0.05822,-0.445632 2.080097,-0.406346 0.573938,-1.862198 1.839058,-3.133361 -0.545026,-1.204408 -1.377967,-2.082207 -1.048678,-2.918391 -0.306663,-0.616752 -0.902575,-1.069399 -1.126004,-1.725236 z m -18.832031,0.0039 c 0.245634,0.155952 -0.246563,0.149876 0,0 z m 9.972657,0.04883 c 0.03595,0.306465 -0.448974,-0.151279 0,0 z m -0.763672,0.07031 c -0.02323,0.222363 -0.268672,-0.09744 0,0 z m -13.277344,0.04492 c 0.147457,0.118585 -0.101304,0.156718 0,0 z m 15.794922,0.242188 c 0.536306,-0.08437 -0.217855,0.294862 0,0 z m -16.970703,0.126953 c 0.226556,0.05769 -0.07533,0.246966 0,0 z m 1.09375,0.246094 c 0.164356,0.262945 -0.121631,0.120366 0,0 z m 12.453125,0.03711 c -0.124272,0.158474 0.20944,0.07246 0,0 z m 0.865234,0.02148 c 0.06243,0.250391 -0.292842,0.04226 0,0 z m -2.419922,0.09766 c 0.167392,-0.15334 0.08014,0.127727 0,0 z m 5.353516,0.03711 c -0.05351,0.336355 -0.662872,-0.165109 0,0 z m -17.666016,0.03711 c 0.220081,0.610259 -0.366269,0.315025 0,0 z m 1.722656,0.0137 c 0.263624,0.05963 0.04959,0.217033 0,0 z m 22.058594,0.07813 c 0.217142,0.08881 -0.152027,0.191966 0,0 z M 23,51.486328 c 0.269093,-0.174235 0.02392,0.14378 0,0 z m 21.71875,0.109375 c 0.405332,0.827274 -0.324491,0.370194 0,0 z m -21.53125,0.01953 c 0.200491,0.169933 -0.195346,0.298462 0,0 z m 21.980469,0.01172 c 0.385634,0.07257 -0.189344,0.10921 0,0 z M 21.408203,51.80664 c 0.217273,0.100985 -0.201568,0.07938 0,0 z m 1.90625,0.02539 c 0.20944,0.07246 -0.124272,0.158474 0,0 z m -2.169922,0.310547 c 0.08178,0.773379 -0.478108,0.100746 0,0 z m 24.09961,0.19336 c 0.234772,0.481806 -0.265495,0.318033 0,0 z m 1.802734,0.09961 c 0.150211,0.235104 -0.442412,-0.06009 0,0 z m -26.087891,0.242187 c 0.146035,0.124059 -0.103432,0.147009 0,0 z m 23.88086,0.05078 c 0.125363,0.878126 -0.406747,0.265079 0,0 z m -20.277344,0.1875 c 0.31141,0.291114 -0.354179,0.178985 0,0 z m -0.189451,0.257816 c -0.635582,0.08191 0.104225,0.303701 0,0 z m 18.833984,0.01953 c 0.146424,0.115538 -0.10077,0.1555 0,0 z m 1.623047,0.355466 c 0.17388,0.263452 -0.12921,0.124309 0,0 z m -22.355471,0.02734 c -0.592913,0.124286 0.210106,0.281159 0,0 z m 27.125,0.01172 c 0.235568,0.218192 -0.313183,0.132166 0,0 z m -4.947265,0.01953 c 0.150155,0.115237 -0.103326,0.155713 0,0 z m 5.667968,0.03125 c 0.205934,0.174972 -0.289958,0.05749 0,0 z m -30.05664,0.11914 c 0.16072,-0.142425 0.07226,0.124683 0,0 z m 29.072266,0.0098 c 0.249282,0.193784 -0.404364,0.256095 0,0 z m -29.205079,0.04687 c 0.28775,0.03816 -0.05193,0.25575 0,0 z m -0.101562,0.103516 c 0.194445,0.08689 -0.055,0.204742 0,0 z m 34.978515,0.136715 c 0.552447,1.423276 -1.315483,0.864531 0,0 z M 22.488281,54.125 c -0.283215,0.113766 -0.02627,0.659125 0,0 z m 27.236328,0.04102 c -0.187244,0.119255 -0.109301,0.06961 0,0 z m -1.97075,0.263679 c 0.362185,-0.07955 -0.08708,0.362276 0,0 z M 24.224562,54.56837 c 0.132575,0.159789 -0.214955,0.07356 0,0 z m -3.882812,0.02539 c -1.178638,0.01663 0.917154,0.589568 0,0 z m 29.5625,0.01172 c 0.379031,0.106432 -0.361416,0.04598 0,0 z m -0.203125,0.01367 c 0.124272,0.158474 -0.20944,0.07246 0,0 z M 47.75,54.794922 c 0.150155,0.115237 -0.103326,0.155713 0,0 z m -8.287109,0.152348 c 0.152206,0.338694 -0.388614,0.01123 0,0 z M 24.09375,54.95899 c -0.294433,0.09233 -0.220805,0.418437 0,0 z m 30.867188,0.02148 c 0.210583,0.074 -0.130442,0.157207 0,0 z m -7.19336,0.03125 c 0.313787,-0.06516 -0.06587,0.306272 0,0 z m 2.34961,0.02148 c -0.48211,0.230838 0.477762,0.260184 0,0 z m -30.328126,0.117188 c -0.491409,0.05495 0.309899,0.366844 0,0 z m 19.496094,0.0059 c 0.146035,0.124059 -0.103432,0.147009 0,0 z m 13.291016,0.05078 c -0.338254,0.302955 0.660126,0.122237 0,0 z m -11.519531,0.1875 c 0.14256,0.199369 -0.215471,0.143631 0,0 z m -0.398438,0.0098 c 0.356492,0.240693 -0.699961,0.429236 0,0 z m 9.910156,0.09375 c -1.13915,0.563027 1.114628,0.0021 0,0 z m -11.115234,0.103515 c 0.130213,0.156823 -0.211424,0.07105 0,0 z m -18.339844,0.01953 c -0.05003,0.207983 0.190983,0.08602 0,0 z m 30.025391,0.134765 c -0.904769,0.266795 0.773846,0.45574 0,0 z m -10.09961,0.01953 c -0.103574,0.155925 0.150205,0.115073 0,0 z m -0.632812,0.03125 c 0.216025,0.121636 -0.217589,0.11483 0,0 z m 6.646484,0.08594 c 0.879441,-0.147686 0.274519,0.387579 0,0 z m 5.509766,0.05859 c -0.235468,0.544161 0.488023,0.06917 0,0 z m -27.572266,0.185547 c -0.188172,0.308998 -0.121131,0.198911 0,0 z m 25.775391,0.06445 c -0.862786,0.691628 0.997788,0.732916 0,0 z m -13.132813,0.03906 c 0.195166,0.08657 -0.05667,0.207516 0,0 z m -0.599609,0.01953 c 0.171902,0.207772 -0.127036,0.110569 0,0 z m 0.447266,0 c 0.300227,0.220015 -0.10325,0.448557 0,0 z m 4.005859,0.06445 c 0.211424,0.07105 -0.130213,0.156823 0,0 z m 11.128906,0 c -0.468981,0.111201 0.461721,0.12108 0,0 z m -30.958984,0.06641 c 0.08014,0.127758 0.167387,-0.153356 0,0 z m 25.511719,0.03516 c 0.378965,0.119292 -0.37897,0.119285 0,0 z m 3.638672,0 c 0.297026,0.115023 -0.293284,0.123788 0,0 z m -26.378907,0.02148 c -1.008394,0.455575 0.46775,0.280177 0,0 z m 17.074219,0.123046 c 0.179804,0.119992 -0.09828,0.436566 0,0 z m -1.609375,0.01172 c 0.132575,0.159789 -0.214955,0.07356 0,0 z m -14.714844,0.138672 c 0.370841,0.16425 -0.67699,0.148031 0,0 z m 14.208985,0.01563 c -0.204773,0.112752 0.397216,0.06721 0,0 z m -1.853516,0.0039 c -0.243718,0.224819 0.328017,0.262198 0,0 z m -12.15625,0.107422 c -0.124753,0.267117 -0.407331,0.06518 0,0 z m -4.025391,0.0957 c -0.114478,0.205434 0.27035,0.02085 0,0 z m 25.566407,0.01367 c 0.304702,0.152346 0.247718,0.123855 0,0 z m -20.238281,0.08984 c 0.163821,0.156953 0.01844,0.417812 0,0 z m 18.191406,0 c 0.21455,0.11665 -0.21455,0.11665 0,0 z m -18.595703,0.01953 c 0.150155,0.115237 -0.103326,0.155713 0,0 z m 11.046875,0 c 0.150155,0.115237 -0.103326,0.155713 0,0 z m -17.175782,0.261719 c -0.609205,0.417033 0.934748,-0.02776 0,0 z m 25.03711,0.08008 c 0.377176,0.265006 -0.482887,0.30215 0,0 z m -15.535156,0.113281 c 0.119626,0.227037 -0.356304,0.486364 0,0 z m 17.054687,0.119141 c 0.220341,0.08837 -0.24577,0.142316 0,0 z m -20.443359,0.232422 c 0.14256,0.199369 -0.215471,0.143631 0,0 z m 0.210937,0 c 0.128792,0.157175 -0.215486,0.07169 0,0 z m 5.677735,0.002 c 0.25124,0.235071 -0.379575,0.111777 0,0 z m -5.628907,0.152344 c 0.281189,0.206298 -0.337991,0.163976 0,0 z m 15.603516,0.01953 c 0.150155,0.115237 -0.103326,0.155713 0,0 z m -12.505859,0.03125 c -0.217589,0.11483 0.216025,0.121636 0,0 z m -2.207032,0.02148 c 0.190441,0.0867 -0.04837,0.204848 0,0 z m -1.658203,0.03125 c 0.347899,0.153226 -0.451147,0.5028 0,0 z m 6.369141,0.01563 c 0.224121,0.222892 -0.311834,0.288526 0,0 z m 1.638672,0.0059 c 0.144621,0.273172 -0.365006,0.208452 0,0 z m 8.564453,0.111328 c 0.210317,0.153314 -0.197455,0.131005 0,0 z m -16.423828,0.02148 c 0.161652,0.285662 -0.395266,0.215425 0,0 z m 14,0.02148 c -0.93558,-0.07065 -0.256563,0.32438 0,0 z m -6.533203,0.01758 c 0.164431,0.210051 -0.120204,0.109003 0,0 z m 13.09375,0.01172 c 1.13037,-0.147821 -0.167166,0.484682 0,0 z m -15.878907,0.02344 c -0.32291,0.100343 0.225325,0.386212 0,0 z m 13.431641,0.08789 c -0.31107,0.04428 0.0386,0.416197 0,0 z m -16.550781,0.01172 c 0.126773,0.0956 -0.132833,0.210548 0,0 z m 19.421875,0.0059 c 0.251696,-0.09068 0.04031,0.226294 0,0 z m -20.482422,0.02734 c 0.179719,0.207567 -0.32987,0.0575 0,0 z m 7.126953,0.002 c 0.130178,0.264345 -0.290736,0.138812 0,0 z m 0.189453,0.05273 c -0.114196,0.236497 0.189286,0.147616 0,0 z m -1.642578,0.03516 c 0.164436,0.210052 -0.120217,0.109004 0,0 z m -3.267578,0.101563 c -0.0024,0.244958 -0.271025,-0.04202 0,0 z m 4.498047,0.01367 c 0.277627,0.05393 -0.289959,0.109137 0,0 z m 9.523437,0 c 1.404973,-0.272573 -0.287043,0.316855 0,0 z m -7.123047,0.01172 c -0.207685,0.343214 0.465255,0.02009 0,0 z m -6.203125,0.01367 c -0.527501,0.289758 0.371358,0.63911 0,0 z m -1.607422,0.04102 c 0.164362,0.262943 -0.121644,0.120367 0,0 z m 14.882813,0.08789 c -0.300752,0.346614 -0.360196,-0.05554 0,0 z m -16.289063,0.01367 c -0.235483,0.758432 0.164887,0.639935 0,0 z m 18.9375,0.05859 c 0.126773,0.0956 -0.132833,0.210548 0,0 z m -12.419922,0.09766 c 0.164405,0.263199 -0.121547,0.120362 0,0 z m 12.302735,0.06445 c 0.212576,0.107959 -0.20227,0.06719 0,0 z m -10.837891,0.08203 c -0.329866,0.271763 0.371173,0.41875 0,0 z m -6.113281,0.0332 c 0.164431,0.210051 -0.120204,0.109003 0,0 z m 6.505859,0.05664 c 0.209999,0.379666 -0.177746,0.703315 0,0 z m -8.759765,0.0078 c 0.228606,0.132123 -0.240188,0.16186 0,0 z m -1.228516,0.134766 c -0.183475,0.09016 0.120617,0.179438 0,0 z m 1.177735,0.09766 c 0.156955,0.190375 -0.218883,0.09387 0,0 z m 5.203124,0.191406 c -0.348625,0.279237 -0.0407,0.773253 0,0 z m 2.048829,0.126953 c -0.192752,0.351355 0.47554,-0.01382 0,0 z m 1.847656,0.244141 c 0.150155,0.115237 -0.103326,0.155713 0,0 z m 0.107422,0.07031 c 0.292305,0.192326 -0.23219,0.393548 0,0 z m -4.300781,0.06445 c -0.292598,0.05788 0.2085,0.176582 0,0 z m -2.804688,0.05664 c -0.364481,-0.06418 -0.04425,0.348019 0,0 z m 3.048828,0.06055 c -0.240127,0.04883 0.252209,0.565635 0,0 z m 34.22461,0.371094 c -0.02002,0.475398 0.003,1.439322 0.0033,0.40225 z m -42.177735,13.63066 0.07705,0.04792 z m 0.04687,0 0.05253,0.05128 z m 0.306641,0 c -0.03537,0.232144 0.316,-0.105937 0,0 z m 0.04297,0 c 0.110422,0.215788 0.222944,-0.155661 0,0 z m 0.992187,0 c 10.414783,0.157 20.830848,0.04211 31.246222,0.06253 -10.414381,-0.141201 -20.830959,-0.02832 -31.246222,-0.06253 z m 31.398437,0 c 0.83544,0.22934 1.364573,-0.120148 0,0 z m 5.71875,0 c -0.06917,0.213415 0.150473,-0.01435 0,0 z"
     id="path4339" /><!--outline--><path
     class="st0"
     d="M40.2,75.6c6.9-0.1,16.7-1.8,22.4-4c-0.7-6.6-2.7-45.5-2.7-45.5s2.1,5.1,3.2,7.9c4.7-0.4,12.3-1.3,15.3-6.2  C75.5,21,73.3,13.2,71,8.1c0,0-10.4-3.8-18.6-6.4c0,0-0.9-0.3-1.3,0.4c-3,4.2-4.5,7.1-11.2,7.1l0,0c-6.4-0.1-8-2.9-10.9-7.1  c-0.5-0.7-1.4-0.4-1.4-0.4C19.5,4.2,9,8.1,9,8.1c-2.3,5.1-4.5,13-7.4,19.7c3,4.8,10.4,5.8,15.3,6.2c1.1-2.8,3.2-7.9,3.2-7.9  S18,65,17.4,71.6c5.8,2.2,15.5,4,22.4,4l0,0"
     id="path5" /></svg>