<?xml version="1.0" encoding="utf-8"?><svg version="1.1" id="Layer_1" xmlns="http://www.w3.org/2000/svg" xmlns:xlink="http://www.w3.org/1999/xlink" x="0px" y="0px" viewBox="0 0 80 77.1" style="enable-background:new 0 0 80 77.1;" xml:space="preserve"><style type="text/css"> .st0{fill:#2B1E21;} .st1{fill:#D53232;} .st2{fill:#623775;} .st3{fill:#FCEBEB;} .st4{fill:#2C1E23;} .st5{fill:#E4CDCD;} .st6{fill:#F5E3E4;} .st7{fill:#F5D2D2;} .st8{fill:#F7E6E7;} .st9{fill:#E0C8C9;} .st10{fill:#D5C4C5;} .st11{fill:#58494C;} .st12{fill:#77686A;} .st13{fill:#F9E7E8;} .st14{fill:none;stroke:#000000;stroke-width:3;stroke-linecap:round;stroke-linejoin:round;} </style><g><path class="st0" d="M17.9,69.3c0.2-3.2,0.3-6.1,0.5-9.3c0.1-2,0.2-3.4,0.3-5.3c0.6-0.8,2.4-2,3-2.8c1.1-1,2.1-2.1,3.1-3.2 c4.6-4.3,9.2-8.6,13.8-13c1.2-1.2,2.4-2.5,4.1-3c1.8,1.6,3.3,3.5,5.2,5c1.7,1.7,3.7,3.2,5.3,5.1c2.2,2.4,5.5,5.8,7.4,8.5 c0.4,6.3,0.6,11.7,1.2,18.1c-1.7,0.1-4.5-0.1-6.2-0.6c-0.3-0.1-0.4,0-0.5,0.2c-0.5,0.3-1.1,0.3-1.6,0.4c-0.5,0.1-0.9-0.2-0.9-0.7 c0-1.6-0.3-3.2-0.3-4.8c-0.1-1.5-0.6,0.5-0.8-0.1c-1.1-0.4-1-1.3-0.6-2c0.7-1.5,0.1-2.7-0.5-4.1c-0.5-1.3-1-2.7-1.1-4.2 c0-0.7,0.1-1.4-0.2-2.2c-0.3,0.3-0.2,0.7-0.2,0.9c0.4,1.6,0.1,3.2-0.3,4.7c-0.2,0.8-0.8,1.5-0.8,2.4c0,0.6,0,1.2,0.1,1.9 c0.3,0.9-0.8,1.1-0.9,1.8c-0.4,1.2,0.3,2.2,0.6,3.3c0.1,0.3,0.3,0.6,0.3,0.9c0.2,1.3-0.2,1.7-1.5,1.3c-1.6-0.5-3.2-0.9-4.8-0.1 c-0.3,0.2-0.7,0.2-1-0.1c-1.3-1.2-2.9-1.3-4.6-1.4c-1.3-0.1-2.6-0.1-3.9-0.1c-0.3,0-0.6,0-0.8,0.2c-1,1.2-2.4,0.7-3.7,0.9 c-0.9,0.1-1.4-0.4-1.5-1.3c-0.2-0.9,0-1.7,0.2-2.5c0.1-0.5,0.3-1-0.4-1.2c-0.3-0.1-0.3-0.3-0.3-0.6c0.1-0.5,0.2-1-0.3-1.4 c-0.7-0.5-0.8-1.2-0.8-2c0-1.6,0.1-3.1-0.2-4.7c0,1.2,0.1,2.4-0.5,3.5c-0.1,0.2-0.2,0.6-0.1,0.8c0.3,1.1,0,2-0.9,2.8 c-0.5,0.4-0.2,1.1-0.2,1.6c0.1,1-0.1,1.2-1.2,0.7c-0.2,0.7-0.2,1.4,0.4,2c0.3,0.3,0.3,0.7,0.4,1.1c0.1,1.1-0.3,2.2-0.2,3.3 c0,0.5-0.3,0.8-0.8,0.6C20.6,70.5,18.5,70.1,17.9,69.3z"/><path class="st1" d="M29.6,5.9c0.6,0.7,1,1.6,1.8,2.2c1.5,1.3,2.9,2.8,4.3,4.4c2,2.3,4.6,4.1,6.7,6.3c0.6,0.6,1.1,0.5,1.8,0 c2.3-2,4.7-4,7.2-5.7c1.4-1,1.6-0.9,2.3,0.7c0.7,1.7,1.5,3.3,2.2,4.9c0.3,0.6,0.6,1.2,0.5,1.9c-0.7,1-1.9,1.5-2.8,2.2 c-1,0.8-2,1.4-2.9,2.3c-0.5,0.4-0.8,0.9-0.3,1.5c1.5,1.5,3,3,4.5,4.4c1.1,0.9,2,1.9,3,2.9c0.4,0.3,1.6,1.3,1.8,1.7 c0.5,1.9,0.2,3.6,0.4,5.5c0.3,2.9,0.7,5.8,0.9,8.8c-0.6,0.2-2.1-0.6-2.3-0.9c-2.3-2.5-4.3-5.2-6.7-7.6c-1.3-1.2-2.6-2.3-3.8-3.6 c-1.4-1.9-3.5-3.2-5.1-5c-0.5-0.5-0.9,0-1.2,0.3c-1.8,1.3-3.4,2.8-5,4.3c-2.2,2-4.3,4.2-6.6,6.3c-1.8,1.6-3.5,3.3-5.4,5 c-1,1.2-2.1,2.4-3.4,3.4c-0.6,0.2-1.9,0.8-2.5,0.9c0.2-4,0.5-7.8,0.7-11.8c0.1-0.6,1.6-1,2-1.4c2.6-2.5,5.2-5.2,7.9-7.7 c2-1.9,4-3.9,6.1-5.7c0.5-0.5,0.3-0.7,0-1.1c-2.8-3.3-6.4-5.6-9.6-8.5c-2.4-2.1-2.4-2.3-0.8-5.1c1.1-1.8,2.3-3.6,3.4-5.4 C28.9,5.8,29.1,5.4,29.6,5.9z"/><path class="st0" d="M59.8,36.4c-2.2-2.8-6.4-6.3-8.8-8.8c-0.3-0.3-0.7-0.6-0.9-1c0.1-0.3,0.3-0.5,0.5-0.7c0.9-0.7,1.7-1.4,2.5-2.2 c0.7-0.5,1.4-1.1,2.1-1.6c0.5-0.4,0.9-0.9,1-1.6c0.1-0.7-0.3-1.2-0.6-1.8c-0.8-1.9-1.7-3.7-2.5-5.6c-0.4-0.9-0.7-0.7-1.2-0.3 c-2.8,2-5.5,4.1-8,6.4c-0.5,0.4-0.7,0.4-1.2,0c-4-3.4-7.7-7.1-11.2-11c-3.9-4.3-2.4-4.3-2.5-4.4c1.8,1.1,6,5.2,8.2,5.4 C43.2,10.1,46.5,9,50,3.9c1.3-1.9,2.3-2.1,4.5-1.3c4.9,1.7,9.9,3.5,14.7,5.2c0.7,0.2,2.1,1.7,2.3,2.3c2,5.6,3.9,11.1,6,16.7 c0.2,0.5,0.1,1.5-0.3,1.9c-0.9,1-2.6,1.9-3.7,2.4c-2.5,1.2-5.8,2.2-8.4,2.5c-0.7,0.1-1.8-1.2-2.1-2c-0.7-1.9-1.3-3-2.1-5 c-0.4-0.9-0.4-1.7-1.2-1.3c-0.7,0.3-0.3,1.2-0.2,2.2C59.5,30.2,60,33.6,59.8,36.4z"/><path class="st2" d="M30.6,5c-0.2-0.1-1.4,0.7-1.6,1c-1.4,2.4-3,4.7-4.3,7.2c-0.4,0.8-0.4,1.3,0.3,2c2.8,2.6,5.9,5,8.9,7.5 c1,0.8,1.5,2.1,2.6,2.7c0.4,0.3,0,0.5-0.2,0.7c-4.3,3.6-8.2,7.6-12.2,11.5c-1.1,1.1-3.1,3.1-4.3,4.2c-0.1-0.6,0-1.7,0.2-2.2 c0.2-0.6,1.6-1.4,2.1-1.9c3.6-3.5,7-7.2,10.7-10.7c1.8-1.7,1.7-2.1-0.1-3.7c-2.6-2.2-5.5-4-8.3-5.9c-0.3-0.2-0.5-0.4-0.8-0.4 c-0.2,0.2-0.1,0.3,0.1,0.4c2,1.6,3.8,3.4,6.1,4.6c1.2,0.6,2.1,1.6,3,2.5c0.6,0.6,0.7,1.2,0,1.8c-1.1,1.1-2.3,2.2-3.4,3.4 c-2,2-4.1,3.9-5.9,6.1c-0.7,0.8-2.7,2-3.8,2.2c0.2-3.7,0.8-7.8,1-11.5c0-0.9,0.5-1-0.5-1.2c-1-0.2-1.1,0.5-1.4,1.4 c-0.7,1.9-0.5,3.2-1.2,5c-0.2,0.5-1.6,1.7-2.2,1.6c-3.7-0.4-7.6-1.1-10.8-3.3c-1.6-1.1-2.5-2.7-1.9-4.5c1.9-5.2,3.8-10.3,5.7-15.6 c0.3-0.7,1.9-2.2,2.6-2.5C16.2,5.8,21.7,3.9,27,2.1c0.6-0.2,2.1,0.8,2.5,1.4C29.9,4.2,30.1,4.3,30.6,5z"/><path class="st3" d="M47.8,61.1c-0.5-1.3-0.1-2.4,0.4-3.7c0.5-1.3,1-2.7,0.7-4.1c-0.1-0.6-0.2-1.3-0.3-1.9c0-0.4,0-0.8,0.5-0.8 c0.4,0,0.5,0.3,0.6,0.6c0,0.2,0.1,0.5,0,0.7c-0.3,2.2,0.4,4.1,1.2,6.1c0.5,1,1.2,2.1,0.3,3.5c-0.4,0.5-0.8,1.6,0.3,2.2 c0.3,0.1,0.7-0.1,0.9,0.2c0.2,0.2,0.3,0.4,0,0.6c-0.2,0.1-0.5,0.4-0.3,0.5c1.4,0.9,0.4,2,0.4,3.1c0,0.8,0,1.2,1,1 c0.8-0.1,1.6-0.1,1.4-1.4c0.4,1,1.2,0.8,1.8,1.1c1.3,0.6,3.8-0.4,4.9,0.6c0.3,1.1-0.9,2.1-2,2.5c-6.6,1.8-13.7,3.2-20.5,3.1 c-6.7,0-13.9-1.6-20.3-3.5c-0.9-0.3-0.8-1.6-0.7-2.2c1,0.2,2.8,1.8,3.5,1.2c0.5-0.4,0.2-1.9,0.2-3c0-0.7,0.1-1.4-0.7-2 c-0.5-0.4-0.4-1.6-0.1-2.2c0.5-0.8,0.8,0.2,1.2,0.5c0-0.4,0.1-0.8,0-1.1c-0.5-1-0.1-1.6,0.7-2.1c0.4-0.3,0.6-0.7,0.4-1.2 c-0.2-0.9-0.1-1.6,0.4-2.5c0.4-0.7,0.3-1.7,0.1-2.6c-0.1-0.3-0.3-0.8,0.1-1c0.6-0.2,0.6,0.4,0.7,0.8c0.4,1.6,0.1,3.2,0.2,4.8 c0,0.9,0.1,1.7,1.1,2.2c0.9,0.4,0,0.9-0.2,1.3c-0.2,0.6,0.2,1.1,0.1,1.5c0-0.2-0.2-0.6,0.1-1c0.7-0.1,1.1,0.3,0.8,1 c-0.2,0.5-0.3,1.1-0.4,1.6c-0.4,1.6,0.6,2.7,2.3,2.1c0.5-0.1,0.8-0.4,1.3-0.1c0.5,0.3,0.5-0.2,0.6-0.4c0.3-0.6,0.8-0.7,1.4-0.7 c1.8,0.1,3.7,0.2,5.5,0.2c1.1,0,2.1,0.5,2.9,1.2c0.3,0.2,0.5,0.7,1,0.3c1.6-1.2,3.3-0.5,4.9,0c0.3,0.1,0.7,0.7,1,0.2 c0.3-0.4,0.5-1.1,0-1.6c-0.9-0.8-0.1-2.1-1.1-2.9c-0.3-0.2,0.7-0.6,0.4-1.1c0.1-0.3,0.2-0.7,0.7-0.6c0.5,0.1,0.4,0.4,0.4,0.6 C47.8,62.4,48.1,61.7,47.8,61.1z"/><path class="st4" d="M20.4,38.2c1.4-1,3.1-2.6,4.2-3.9c2.6-2.7,5.3-5.3,7.9-8c0.6-0.6,0.5-0.9,0-1.5c-1.7-2-4.1-2.8-6-4.5 c-1-0.9-2.1-1.7-3.2-2.5c-0.3-0.2-0.7-0.5-0.4-0.9c0.3-0.4,0.7-0.2,1.1,0c3.3,2.3,6.7,4.3,9.6,7.1c1.1,1.1,1.2,1.3,0.2,2.4 c-1.5,1.6-3.1,3.3-4.7,4.8c-1.6,1.4-2.9,3-4.4,4.6c-1.2,1.2-3.3,3.1-4.5,4.3C20.2,39.6,20.4,38.7,20.4,38.2z"/><path class="st5" d="M48.3,37.5c0.7,0.6,1.3,1.3,2,1.9c3.5,2.9,7.3,7.7,10.4,11.1c0,0.3-0.1,0.4-0.1,0.7c-1.6-1.5-4.1-4.3-5.5-6 c-1.9-2.2-3.9-4.2-6.1-6.1c-0.4-0.4-0.8-0.9-1.2-1.3C47.9,37.6,48.1,37.5,48.3,37.5z"/><path class="st6" d="M19.3,52.3c0.3-0.5,1.5-0.3,2.1-0.6c0.3-0.1,0.6-0.1,0.6,0.3c-0.7,0.7-1.8,2.6-2.8,2.9 C19.2,54.6,19.3,52.7,19.3,52.3z"/><path class="st7" d="M24.8,48.5c1.7-1.9,3.7-3.5,5.5-5.3c3.8-3.6,7.4-7.3,11.6-10.6c0.5-0.4,0.9-0.7,1.4-0.1 c-0.1,0.3-0.3,0.3-0.6,0.4c-2.1,1.4-3.9,3.1-5.8,4.8c-4,3.7-8,7.5-11.9,11.2C24.6,48.9,24.6,48.8,24.8,48.5z"/><path class="st8" d="M42.7,32.9c0.1-0.2,0.3-0.3,0.6-0.4c1.7,1.6,3.5,3.2,5,5c-0.1,0.2-0.3,0.3-0.5,0.3 C45.9,36.5,44.3,34.7,42.7,32.9z"/><path class="st9" d="M24.8,48.5c0,0.2,0.1,0.4,0.3,0.4c-0.9,1.2-2,2.2-3.1,3.2c-0.1-0.2-0.3-0.3-0.6-0.3 C22.5,50.6,23.6,49.5,24.8,48.5z"/><path class="st10" d="M52.6,63.8c-0.3,0-0.7,0.3-0.9-0.2c0,0,0.1,0,0.1,0c0.5-0.3-0.2-1.3,0.5-1.2C53,62.4,52.4,63.3,52.6,63.8z"/><path class="st11" d="M47.8,61.1c0.5,0.7,0.2,1.5,0.3,2.4c-0.6-0.4-0.1-1.1-0.7-1.2c-0.4-0.1-0.3,0.4-0.5,0.6 c-0.1-0.3-0.1-0.7,0.3-0.8C47.9,62,47.8,61.5,47.8,61.1z"/><path class="st12" d="M26.2,62.8c0,0.5,0,1,0,1.8c-0.4-0.9-0.6-1.5-0.2-2.2C26,62.5,26.1,62.6,26.2,62.8z"/><path class="st13" d="M50.7,26.1c-0.1,0.3-0.3,0.4-0.6,0.5c-0.8-0.5-0.6-1,0-1.5c1.9-1.7,3.9-3.2,6.1-4.5c0.3,0.4,0.4,0.8,0,1.1"/></g><path class="st14" d="M40.2,75.6c6.9-0.1,16.7-1.8,22.4-4c-0.7-6.6-2.7-45.5-2.7-45.5s2.1,5.1,3.2,7.9c4.7-0.4,12.3-1.3,15.3-6.2 C75.5,21,73.3,13.2,71,8.1c0,0-10.4-3.8-18.6-6.4c0,0-0.9-0.3-1.3,0.4c-3,4.2-4.5,7.1-11.2,7.1l0,0c-6.4-0.1-8-2.9-10.9-7.1 c-0.5-0.7-1.4-0.4-1.4-0.4C19.5,4.2,9,8.1,9,8.1c-2.3,5.1-4.5,13-7.4,19.7c3,4.8,10.4,5.8,15.3,6.2c1.1-2.8,3.2-7.9,3.2-7.9 S18,65,17.4,71.6c5.8,2.2,15.5,4,22.4,4l0,0"/></svg> 