<!--Generator: Adobe Illustrator 22.0.0, SVG Export Plug-In . SVG Version: 6.00 Build 0)--><svg version="1.1" id="Layer_1" xmlns="http://www.w3.org/2000/svg" x="0" y="0" viewBox="0 0 80 77.1" xml:space="preserve"><style>.st0{fill:#fefefe}.st1{fill:#a74f77}.st2{fill:#983762}.st3{fill:#7c0e31}.st4{fill:#be8aa1}.st5{fill:#d45f70}.st6{fill:#f7adaf}.st7{fill:#373435}.st8{fill:#ab3142}.st9{fill:#911d4e}.st10{fill:#c9749b}.st11{fill:#a23667}.st14{fill:#ffca47}</style><path class="st0" d="M40.2 75.7c6.9-.1 16.8-1.8 22.5-4C62 65.1 60 26.3 60 26.3l3.2 7.9c4.7-.4 12.4-1.3 15.4-6.2-2.9-6.8-5.1-14.6-7.4-19.7 0 0-10.4-3.8-18.7-6.4 0 0-.9-.3-1.3.4-3 4.2-4.5 7.1-11.2 7.1-6.4-.1-8-2.9-10.9-7.1-.5-.7-1.4-.4-1.4-.4C19.4 4.4 8.9 8.3 8.9 8.3c-2.3 5.1-4.5 13-7.4 19.7 3 4.8 10.4 5.8 15.4 6.2l3.2-7.9S18 65.1 17.4 71.7c5.8 2.2 15.8 4 22.8 4z"/><g id="_1195619904"><path class="st1" d="M29.8 32.7l1.7-3.3 1.4-1 .9 1.1 1.7 1.5 1.7-1.8h1.1l1.7.8s1.1-.6.4-1.1a78 78 0 00-2.3-1.4l.5-.8 3.1.9V26l.7.8 1.1-.3s1-1.4 1.7-1.5c.6-.1 1.3-.3 1.3-.7s-.1-1.5 0-1.6l3.5 1c.8.7 1 1.8 1 1.8l.7-2.4-.3 3.5v1.6l1 .9s.4.2.8.8c.4.6.4.7.5 1.2l.4 1s-.3.2-1.2.3l-2.4.1s-.9 1.4-.7 2.3c.2.9-.7 1.4-.7 1.4l-2.2-.2h-2.4s-.5.4-2.6.1c-2.1-.2-4.8-1.4-5.4-1.5-.7-.1-2 .1-2.6.6-.7.4-2.9-.7-2.9-.7l-1.2-1.8z"/><path class="st2" d="M43.2 50.7l3.2.1 1.1.5 1.9-.7.7-1.4.2-1.8L50 46s.1-1.2-.2-1.6l-1.2-1.9-1.2-1.4s.9.4 1-.5c.1-.9.9-1.2.3-1.6-.7-.4-.8-.9-1.4-1.1-.6-.2-1.2-1-2.5-1l-4-.2-3.7-.2s-1.4 1.2-2.1 1.4c-.7.1-2.9.9-2.9.9l-1.4 2.8s.3 1.2 1 1.9.1.9 2.6 2.1l2.5 1.2.6 2.2 3.5.9 2.3.8z"/><path class="st3" d="M26.1 40.3s.6-1.4 1-4.2c.4-2.7 1.2-3.6 1.2-3.6s2-4.7 2.5-2c.4 2.7 1.7 3.1 1.7 3.1l1-1.3s1-1.6 1.7-1.5l1 .1s1.9 2.1 2.3 2.2c.4.1 1.1-.9.8-1.4-.3-.6-.9-2.1-.4-1.9.5.2 1.5 1.6 1.5 1.6l.7.1s.7.5 1.4.1 1.9-.7 2.3-.5c.4.1 1.7.4 2.5 1s.9 2.1.9 2.1-.1.8-1.2 1.8l-2.2 1.9s-2-.1-3.3-.4l-3.7-.5.1 1.9s-.2 1.3-.9 1.4l-4 .6-.7 1-6.2-1.6z"/><path class="st1" d="M36.4 42.9l.8-1.5.6-.4.4.5.8.7.8-.8h.5l.7.4s.5-.3.2-.5l-1-.6.2-.4 1.3.4V40l.3.4.5-.1s.4-.6.7-.7c.3 0 .6-.1.6-.3v-.7l1.5.4c.4.3.4.8.4.8l.3-1-.1 1.5v.7l.4.4.4.4.2.5.2.4-.5.1-1 .1s-.4.6-.3 1c.1.4-.3.6-.3.6l-.9-.1H43s-.2.2-1.1.1c-.9-.1-2.1-.6-2.4-.7-.3 0-.9.1-1.1.3-.3.2-1.3-.3-1.3-.3l-.7-.9z"/><path class="st1" d="M37.7 42l.8-1.5.6-.4.4.5.8.7.8-.8h.5l.7.4s.5-.3.2-.5l-1-.6.2-.4 1.3.4v-.7l.3.4.5-.1s.4-.6.7-.7c.3 0 .6-.1.6-.3v-.7l1.5.4c.4.3.4.8.4.8l.3-1-.1 1.5v.7l.4.4.4.4.2.5.2.4-.5.1-1 .1s-.4.6-.3 1c.1.4-.3.6-.3.6l-.9-.1h-1.1s-.2.2-1.1.1c-.9-.1-2.1-.6-2.4-.7-.3 0-.9.1-1.1.3-.3.2-1.3-.3-1.3-.3l-.7-.9zM38.3 49l.8-1.5.6-.4.4.5.8.7.8-.8h.3l.7.4s.5-.3.2-.5l-1-.6.2-.4 1.3.4v-.7l.3.4.5-.1s.4-.6.7-.7c.3 0 .6-.1.6-.3v-.7l1.5.4c.4.3.4.8.4.8l.3-1-.1 1.5v.7l.4.4.4.4.2.5.2.4-.5.1-1 .1s-.4.6-.3 1c.1.4-.3.6-.3.6l-.9-.1h-1.1s-.2.2-1.1.1c-.9-.1-2.1-.6-2.4-.7-.3 0-.9.1-1.1.3-.3.2-1.3-.3-1.3-.3l-.5-.9z"/><path class="st3" d="M43.9 26l.2-.9c.1-.6.3-.8.3-.8s.4-1.1.5-.4c.1.6.4.7.4.7l.2-.3s.2-.4.4-.3h.2l.5.5.2-.3-.1-.4.3.2h.5l.5-.1.6.2c.2.1.2.5.2.5l-.3.4-.5.4-.7-.1-.8-.1v.4s0 .3-.2.3l-.9.1-.1.2-1.4-.2z"/><path class="st2" d="M48.6 33.3h.8l.3.1.4-.2.2-.4v-.7-.4l-.3-.5-.3-.3s.2.1.2-.1.2-.3.1-.4l-.3-.3-.6-.2h-1.9l-.5.3-.7.2-.3.7.3.4c.2.2 0 .2.6.5l.6.3.1.5.8.2.5.3z"/><path class="st1" d="M40 32.4l.3-.6.3-.2.2.2.3.3.3-.3h.2l.3.1s.2-.1.1-.2l-.4-.2.1-.1.5.2v-.3l.1.1h.2l.3-.3.2-.1v-.3l.6.2.2.3.1-.4V31.7l.2.2.1.1.1.2.1.2H43.8s-.2.3-.1.4l-.1.2h-.8-.5c-.4 0-.9-.3-1-.3l-.5.1c-.1.1-.5-.1-.5-.1l-.3-.3z"/><path class="st4" d="M42.6 28.5l.5-.9.4-.3.3.3.5.4.5-.5h.2l.5.2s.3-.2.1-.3L45 27l.1-.2.9.3v-.4l.2.2.3-.1s.3-.4.5-.4l.4-.2v-.4l1 .3.3.5.2-.7-.1 1v.4l.3.3.2.2.1.3.1.3-.4.1h-.7s-.3.4-.2.6c.1.2-.2.4-.2.4l-.6-.1h-.7-.7l-1.5-.4c-.2 0-.5 0-.7.2-.2.1-.8-.2-.8-.2l-.4-.5zM41.6 44.6l.4-.2h.2v.2l.1.3.3-.1.1.1.1.2s.2 0 .1-.1l-.1-.3h.1l.3.4.1-.2v.1h.4c.1.1.2.1.2 0l.1-.2.3.4v.3l.3-.2-.3.4-.1.2v.6l-.2-.1-.3-.2-.3.2-.2.1-.2-.2v-.1l-.3-.2-.5-.6-.3-.1-.3-.3v-.4zM46.1 49.3l.4-.2h.2v.2l.1.3.3-.1.1.1.1.2s.2 0 .1-.1l-.1-.3h.1l.3.4.1-.2v.1h.4c.1 0 .2.1.2 0l.1-.2.5.5v.3l.3-.2-.3.4-.1.2v.6l-.2-.1-.3-.2-.3.2-.2.1-.2-.2-.3-.2-.3-.2-.5-.6-.3-.1-.3-.3.1-.4zM33.4 30.5l.4-.2h.2v.2l.1.3.3-.1.1.1.1.2s.2 0 .1-.1l-.1-.3h.1l.3.4.1-.2v.1h.4c.1.1.2.1.2 0l.1-.2.3.4v.3l.3-.2-.3.4-.1.2v.6l-.2-.1-.3-.2-.3.2-.2.1v-.1l-.3-.2-.3-.2-.5-.6-.3-.1-.3-.3.1-.4z"/></g><g id="_1195610816"><path class="st5" d="M19.4 38.6s1.5.9 3.5 1.7c2 .7 4.7.3 5.9-.6a14 14 0 003.2-3.6c0-.6.2.7.2 1.5l-.2 2.2s3.3-.2 5.7.3a22 22 0 015.7 2.3l.9.7s-2.2-.4-4.2-.3c-1.9 0-3.4.4-3.4.4h-.3s2.4 1.8 3.4 3.3c1.1 1.5 1.6 3.8 1.6 3.8s-2.9-1.6-4.3-3-4.5-3.6-4.5-3.6-5.8-1.2-6-1.1c-.3.2.4.8-1.1 1.1-1.5.1-6.5 3.1-6.5 3.1l.4-8.2z"/><path class="st5" d="M19 46.2s1.8-1.4 3-2c1.2-.6 3.2-1.1 3.2-1.1s-1.1-1-1.5-2.4c-.5-1.4-.5-2.1-.5-2.1s3.5 1.9 4.6 2.2c1.1.2 5.5 2.5 5.5 2.5s1.3.7 2 1.5 3.9 3.6 5.2 4.4l3.4 2 1.5.7c.3.2.4.7.4.7l.7 1-.5 1.8c-.2 1 .1 2.3.1 2.3s0 .9-.6 1.1c-.6.2-2 0-2 0l-.4.3-1.7-1.3s-.4-.2-.7.2c-.3.4.1.7.4.9.3.2 1.8 1.1 1.2 1.3-.6.2-1.9 1.3-2.6 1.2-.7-.1-1.5 0-2-1.8s-3-1.3-3-1.3h-1.3s-.2.4-1.1.7c-.9.3-1.5.3-1.5.3l4.9 4.6c1.8 1.8 3.4 3.9 3.7 4.4.3.5 1 1.6.8 2.7-.2 1.1-1.2 3.3-1.2 3.3l-.4 1.2-5.7-.4c-1 0-6.6-1.1-6.6-1.1l-4-1-4.6-1.5L19 46.2z"/><path class="st0" d="M33.7 46.8s-.4-1.2-1.1-1.6c-.6-.4-1.8-.5-1.8-.5s.1.9.5 1.2a6 6 0 002.4.9z"/><path class="st6" d="M27.2 47l.5 1.5.1.6s1.2.2 2.3 1.1l2.1 1.8s-.3-2.8-5-5z"/><path class="st7" d="M33.2 47.8s1.4.3 2.8 1.1l4.8 2.8s-3.1-1.5-4.6-2L34 49s.3-.3-.8-1.2zM43 53.8l-.3-.9s.2-.4.7-.4c.5 0 1.4-.1 1.5.4l-.2 1v1.7l-.7-1.9s-.1-.4-.4-.4c-.4 0-.6-.1-.6.5z"/><path class="st6" d="M43.6 58.8l-2.4-2.3c-.5-.4-1.1-.2-1.1-.2l.1.3s1.4.8 1.8 1.3l1 1.2.6-.3z"/><path class="st7" d="M40.9 58.7l1 .8.4.4c.1.2-.1.3-.1.3l-1.1-.8c-.3-.3-1.4-.7-1.9-1.1-.4-.4-.4-.9-.2-1.4.2-.5 1.3-.6 1.3-.6l.1.3.8.5.9.7 1.2 1.3-1.2-.9-.5-.4s-.4-.2-.7.1c-.5.3-.2.7 0 .8z"/><path class="st5" d="M34 43.8l5.6-7.3-9.1 5.5 3.5 1.8z"/><path class="st8" d="M23.6 50.2s-1.7 4.3-.1 7.9c1.5 3.6 5.4 7.4 6.9 9s3.6 4.2 4.1 5.6c.5 1.4.6 2.3.6 2.3l2.4.2h.2s.5-4.6-1.2-7.8-4.9-6.5-4.9-6.5l-1.5-2.2-.6-.8s-2.5.7-3.9-1.4c-1.4-2-1.9-4.1-1.9-4.1l-.1-2.2z"/><path class="st6" d="M18.5 55.3s-.3 3 2.2 7.2 5 8.9 5 8.9l-3-1.2a13 13 0 01-4.1-2.2 65 65 0 00-.8-1.1l.7-11.6z"/><path class="st7" d="M31.7 42.3l7.9-5.8-9.1 5.5 1 .5zM34.1 43.8l5.5-7.3-6.1 6.9z"/><path class="st8" d="M25.8 47.3s-.9 2.2.2 4.6c1.1 2.4 2.6 3.1 2.6 3.1s1.3.6 2.6.5c1.3-.1 2.3-.8 2.3-.8l-.4 1.1s1.1.6 1.3.9c.2.3 2.7 1.1 3 1.5s1.4 1.2 1.4 1.2.4.4 1.3.2l.8-.3.7.3.6.5-.7.4c-.5.3-1.1.7-1.6.8-.4.1-1 0-1.3-.2-.3-.2-.6-.4-.8-.9-.2-.5-.3-1.2-.7-1.4-.4-.3-1.1-.7-1.7-.7l-6.8-.7-3-1.2-1.6-2.4.2-3 .1-1.8 1.5-1.7z"/><path class="st7" d="M25.9 46.8s-1.7 2.1-1.6 4.4c.1 2.3.7 4 1.7 4.6 1 .7 2.8 1.5 4.6.7s3-2.1 3-2.1-1.6 2.3-2.1 2.6l-.6.3s1.4-.2 1.9-.1l2.4.5 1.4.7s-.7-.4-1.5-.3h-2s-.5.5-1.1.7l-1.5.3 3.7 3.5c.5.5 4.9 4.8 5.3 6.2.4 1.4.7 1.3-.3 4s-1 2.4-1 2.4l-.8-.1s.1-3.6-.8-5.9l-.9-2.3s-2.4-3.6-3.9-4.9c-1.5-1.3-2.1-2.8-2.4-3.2l-.3-.4s-2.1.5-3.7-1.1c-1.6-1.5-2.1-4.2-2.1-4.2s-.5-3.8 2.6-6.3zM23.1 38.7s0 .6.4 1.8a6.3 6.3 0 001.4 2.5l.2.2-.6.1-.8-1.5c-.3-1-.6-3.1-.6-3.1zM41.4 49.9s-.6-2.1-1.5-3.5a9.1 9.1 0 00-2.3-2.3l-1.1-.9s1.9-.4 3.5-.4l2.6.1 1 .1.7.1s-.5-.6-2.1-1.3l-2-.9s-1.8-.8-3.2-.9l-.2.2a88.4 88.4 0 006.5 2.3l.2.2-3.1-.2c-1.4 0-3.9.4-3.9.4l-.5.2c-.2.1.6.3 1.6 1.2 1.1.9 3.7 4.1 3.8 5.6z"/><path class="st7" d="M43.6 58.8h1.7c.6-.1.8-.5.8-.8v-.4s-.3-.8-.2-1.5c0-.6 0-.7.3-1.5l.3-1.1-.7-1-.1-.4-.4-.4-1.2-.5-1.5-.8-1.2-.7-1.2-.7-2-1.6-2.2-1.7-.8-.8-1.1-.9-1.5-.8-3-1.5-1.3-.5-1.3-.4-2-.9-1-.5-.9-.5v.2l1.6.8 2.2 1.1 2.4.9a1008.7 1008.7 0 015.1 2.7l1.7 1.7 2.4 2.1a82.4 82.4 0 013.6 2.5l2 1 1.1.5c.2.1.2.3.2.4l.6.8.2.2s-.2.1-.4.8c-.1.7-.6 1.9-.4 2.5.2.6-.1 1.2-.5 1.3-.3-.1-1.3.4-1.3.4zM23 48.5s-2.2 3-2.2 6.5 2.1 6.2 2.1 6.2l3.1 3.5s-3.6-2.1-5-5.3c-1.3-3.3-1.6-8.1 2-10.9zM25.1 43.1l-2.4.7a9.3 9.3 0 00-2.7 1.6l-1 .8v-.9s1.5-1.1 3-1.6c1.5-.6 3.1-.6 3.1-.6z"/></g><path class="st9" d="M29 2.9s.7.8 1.2 1.7l.8 1 1.8 2L35.4 9l1 .4 2.6.3-.8 1.4-.8.9c-.3.4-1.3 2.7-2.2 2.3-.9-.5-1-1-1.9-1.2-.9-.2-1.4.5-1.5-.8l-.1-1.5-.1-1.6.9-1.1-2.4-.3s-.5 1.2-1 1.5c-.6.3-1.5 1-2 1.8-.4.9-1.1 1.8-1.1 1.8s-1.7.7-1.7-.8-.7-1.2.3-1.7l1.2-.7s1.4-.7.4-.8l-1.6-.2-.5 2 .1.4-2.1.6s-.9 1.1-1.6 1c-.7-.1-.9 1.2-.9-.9l.1-2.5s.5-.4 1.6-.3 1.9-.3 1.9-1 0-.4.3-1.4 1.2-1.2-.5-1.2c-1.7.1-2.5.3-2.5.3l-1.7 2-1.4 2.2-1.8 1.4s.3 1.5-.3 1.8c-.6.3-.9.3-2.2.4-1.3.1-1.1.9-2 .1-.9-.8-1.5 0-1.7-.8-.2-.8 1.1-2.2 1.1-2.2s.9.8 1.6-.1c.7-.6 1.3-1.5 1.3-1.5l.8-1.2s-3.1.5-3.2.9c-.1.4-.1 1.2-.9 1.5-.9.3-1.3 2-1.7.4-.2-.8.7-2 .8-2 .8-.6 2.3-1 2.8-1.1l4.7-1.7 3.9-1.3 2.3-.8 4.8-1.5h.4l.4.2.2.3.3.2z"/><path class="st10" d="M27.2 5s-.1 1.2.8 1.7 1.8.7 1.8.7l1.7.3 2.4.6v.3l-.6 1.5-.5.6c-.2.3-.8 1.7-1.4 1.4-.5-.3-.7-.6-1.2-.7-.5-.1-.9.4-.9-.5l-.1-1-.1-1 .5-.7-1.4-.2s-.3.8-.7 1c-.4.2-.9.7-1.3 1.2l-.7 1.1s-1.1.4-1.1-.5-.4-.7.2-1.1l.8-.4s.9-.4.2-.5l-1-.1-.2 1.3v.2l-1.3.4s-.6.7-1 .7-.6.8-.6-.6l.1-1.5s.3-.2 1-.2 1.2-.2 1.2-.7c0-.5 0-.2.2-.9s.8-.8-.3-.7c-1.1 0-1.6.2-1.6.2L21 8.1l-.9 1.4-1.1.9s.2 1-.2 1.1c-.4.2-.5.2-1.4.3-.8.1-.7.6-1.3.1-.5-.5-.9 0-1.1-.5-.1-.5.7-1.4.7-1.4s.6.5 1 0l.8-1.1.6-.9s-2 .3-2 .6c-.1.3-.1.8-.6 1-.5.2-.8 1.3-1.1.3-.2-1 1.8-2.3 2.3-2.3l3-.7 2.6-.7 1.4-.5 2.7-.6.8-.1z"/><path class="st11" d="M31.4 6.2s-.1 1.2.5 1.7a4 4 0 001.3.7l1.2.3 1.7.4v.6l-.4 1.5-.3.6c-.1.3-.6 1.7-1 1.4-.4-.4-.4-.7-.8-.8-.4-.1-.6.4-.7-.5v-2l.4-.7-1.1-.2s-.2.8-.5 1a3 3 0 00-.9 1.2l-.5 1.1s-.8.4-.8-.5-.3-.7.1-1.1l.5-.4s.6-.4.2-.5l-.7-.1-.2 1.3v.2l-1 .4s-.4.7-.7.7c-.3 0-.4.8-.4-.6v-1.5s.2-.2.7-.2c.5 0 .9-.2.9-.7l.1-.9c.1-.7.5-.8-.2-.7-.8 0-1.1.2-1.1.2L27 9.3l-.6 1.4-.8.9s.1 1-.1 1.1c-.3.2-.4.2-1 .3-.6.1-.5.6-.9.1s-.7 0-.8-.5c-.1-.5.5-1.4.5-1.4s.4.5.7 0l.6-1.1.3-.8s-1.4.3-1.4.6 0 .8-.4 1c-.4.2-.6 1.3-.8.3-.2-1 1.3-2.3 1.6-2.3L26 8l1.8-.7 1-.5 1.9-.6h.7zM19.8 6s0 .8.4 1.1l.8.4.8.2 1.1.2v.4l-.3.9-.2.4c-.1.2-.4 1.1-.6.9l-.5-.5c-.2-.1-.4.2-.4-.3V8.5L21 8l-.7-.1s-.1.5-.3.6-.4.4-.6.8l-.3.7s-.5.3-.5-.3-.2-.5.1-.7l.3-.3s.4-.3.1-.3l-.4-.1-.1.8v.2l-.6.2-.4.4c-.2 0-.3.5-.3-.4v-1l.4-.1c.3 0 .5-.1.5-.4l.1-.6c.1-.5.4-.5-.1-.5l-.7.1-.5.8-.4.9-.6.7s.1.6-.1.7l-.6.2c-.4 0-.3.4-.6 0-.2-.3-.4 0-.5-.3l.3-.9s.3.3.4 0l.4-.7.2-.5s-.9.2-.9.4 0 .5-.3.6c-.1 0-.2.7-.3.1-.1-.6.9-1.4 1-1.5l1.4-.4 1.2-.4.6-.3 1.2-.4h.4z"/><path class="st9" d="M50.9 2.9s-.7.8-1.2 1.7a7 7 0 01-.8 1l-1.8 2L44.4 9l-1 .4-2.5.4.8 1.4.8.9c.3.4 1.3 2.7 2.2 2.3.9-.5 1-1 1.9-1.2.9-.2 1.4.5 1.5-.8l.1-1.5.1-1.6-.9-1.1 2.4-.3s.5 1.2 1 1.5c.6.3 1.5 1 2 1.8l1.1 1.7s1.7.7 1.7-.8.7-1.2-.3-1.7L54 9.8s-1.4-.7-.4-.8l1.6-.2.5 2-.1.4 2.1.6s.9 1.1 1.6 1c.7-.1.9 1.2.9-.9l-.1-2.5s-.5-.4-1.6-.3-1.9-.3-1.9-1c0-.8 0-.4-.3-1.4s-1.2-1.2.5-1.2c1.7.1 2.5.3 2.5.3l1.7 2 1.4 2.2 1.8 1.4s-.3 1.5.3 1.8c.6.3.9.3 2.2.4 1.3.1 1.1.9 2 .1.9-.8 1.5 0 1.7-.8.2-.8-1.1-2.2-1.1-2.2s-.9.8-1.6-.1L66.4 9l-.8-1.2s3.1.5 3.2.9c.1.4.1 1.2.9 1.5.9.3 1.3 2 1.7.4.2-.8-.7-2-.8-2-.8-.6-2.3-1-2.8-1.1l-4.7-1.7-3.9-1.3-2.2-.8-4.8-1.5h-.4l-.4.2-.2.3-.3.2z"/><path class="st10" d="M52.6 4.9s.1 1.2-.8 1.7-1.8.7-1.8.7l-1.7.3-2.3.7v.3l.6 1.5.5.6c.2.3.8 1.7 1.4 1.4.5-.3.7-.6 1.2-.7.5-.1.9.4.9-.5l.1-1 .1-1-.5-.7 1.3-.2s.3.8.7 1c.4.2.9.7 1.3 1.2l.7 1.1s1.1.4 1.1-.5.4-.7-.2-1.1l-.8-.4s-.9-.4-.2-.5l1-.1.3 1.3v.2l1.3.4s.6.7 1 .7.6.8.6-.6l-.1-1.5s-.3-.2-1-.2-1.2-.2-1.2-.7c0-.5 0-.2-.2-.9s-.8-.8.3-.7c1.1 0 1.6.2 1.6.2l1.1 1.3.9 1.4 1.1.9s-.2 1 .2 1.1c.4.2.5.2 1.4.3.8.1.7.6 1.3.1.5-.5.9 0 1.1-.5.1-.5-.7-1.4-.7-1.4s-.6.5-1 0L62.4 9l-.6-1s2 .3 2 .6c.1.3.1.8.6 1 .5.2.8 1.3 1.1.3.2-1-1.8-2.3-2.3-2.3l-3-.7-2.6-.7-1.4-.5-2.7-.6-.9-.2z"/><path class="st11" d="M48.4 6.2s.1 1.2-.5 1.7-1.3.7-1.3.7l-1.2.3-1.7.4v.6l.4 1.5.3.6c.1.3.6 1.7 1 1.4.4-.3.5-.6.9-.7.4-.1.6.4.7-.5v-2l-.4-.7 1.1-.2s.2.8.5 1c.3.2.7.7.9 1.2l.5 1.1s.8.4.8-.5.3-.7-.1-1.1l-.5-.4s-.8-.5-.3-.6l.7-.1.2 1.3v.2l1 .4s.4.7.7.7c.3 0 .4.8.4-.6v-1.5s-.2-.2-.7-.2c-.5 0-.9-.2-.9-.7l-.1-.9c-.1-.7-.5-.8.2-.7.8 0 1.1.2 1.1.2l.8 1.3.6 1.4.8.9s-.1 1 .1 1.1c.3.2.4.2 1 .3.6.1.5.6.9.1s.7 0 .8-.5c.1-.5-.5-1.4-.5-1.4s-.4.5-.7 0l-.6-1.1-.3-.9s1.4.3 1.4.6 0 .8.4 1c.4.2.6 1.3.8.3.2-1-1.3-2.3-1.6-2.3l-2.1-.7-1.9-.8-1-.5-1.9-.6-.7-.1zM60.1 6s0 .8-.4 1.1l-.8.4-.8.2-1.1.2v.4l.3.9.2.4c.1.2.4 1.1.6.9l.5-.5c.2-.1.4.2.4-.3V8.5l-.1-.5.7-.1s.1.5.3.6c.2.1.4.4.6.8l.3.7s.5.3.5-.3.2-.5-.1-.7l-.4-.3s-.4-.3-.1-.3l.4-.1.1.8v.2l.6.2.4.4c.2 0 .3.5.3-.4v-1l-.4-.1c-.3 0-.5-.1-.5-.4l-.1-.6c-.1-.5-.4-.5.1-.5l.7.1.5.8.4.9.5.6s-.1.6.1.7l.6.2c.4 0 .3.4.6 0 .2-.3.4 0 .5-.3l-.3-.9s-.2.4-.4 0l-.4-.7-.2-.5s.9.2.9.4 0 .5.3.6c.2.1.4.8.5.2.1-.6-.9-1.4-1-1.5l-1.4-.4-1.2-.4-.6-.3-1.2-.4h-.4z"/><path class="st10" d="M58.8 24.4s-1.2-.4-1.2-1.4c0-1 .2-1.9.2-1.9l.5-1.6.5-2.4-.2-.1-1.6-.2-.7.2c-.3 0-1.9 0-1.9.6s.3.8.1 1.4c-.1.5-.7.7 0 1.1l.8.5.9.5.9-.2-.5 1.4s-.8-.1-1.2.2-1 .6-1.6.6l-1.3.2s-.9.8 0 1.2c.8.4.5.7 1.1.3l.7-.5s.8-.6.5 0-.3 1-.3 1l-1.3-.3-.2-.2-.9 1s-.9.2-1 .6c-.1.4-1 .2.2.8l1.4.6s.3-.2.6-.8c.3-.7.7-1 1.1-.8.4.2.2.1.9.2s1-.4.5.6l-.9 1.4-1.7.4-1.7.2-1.3.7s-.8-.6-1.1-.3c-.3.2-.4.4-.9 1.1-.4.7-.8.4-.6 1.1.2.7-.4.8 0 1.2.4.3 1.6 0 1.6 0s-.2-.8.5-.9l1.4-.3.9-.1s-1.1 1.6-1.4 1.6c-.3-.1-.7-.3-1.1.1-.4.4-1.5.2-.7.8.8.7 2.9-.7 3.1-1 .2-.4 2-2.4 2-2.4l1.7-2 1.1-1.1 1.7-2.1.4-1z"/><path d="M52.3 1.6c0 4.3-4.9 8.8-12.3 8.8S27.7 5.9 27.7 1.6" fill="none" stroke="#7c0e31" stroke-width="3" stroke-miterlimit="10"/><path d="M40.2 75.6c6.9-.1 16.7-1.8 22.4-4-.7-6.6-2.7-45.5-2.7-45.5l3.2 7.9c4.7-.4 12.3-1.3 15.3-6.2C75.5 21 73.3 13.2 71 8.1c0 0-10.4-3.8-18.6-6.4 0 0-.9-.3-1.3.4-3 4.2-4.5 7.1-11.2 7.1h0c-6.4-.1-8-2.9-10.9-7.1-.5-.7-1.4-.4-1.4-.4C19.5 4.2 9 8.1 9 8.1c-2.3 5.1-4.5 13-7.4 19.7 3 4.8 10.4 5.8 15.3 6.2l3.2-7.9S18 65 17.4 71.6c5.8 2.2 15.5 4 22.4 4h0" fill="none" stroke="#000" stroke-width="2" stroke-linecap="round" stroke-linejoin="round"/><g><path class="st14" d="M50.6 13.1l-.3.2-.5.4-1.8 1.4c-.3.2-.6.4-.6.8l.1.3-.5.6a4 4 0 00-.6 2.4l.1.7.1.3.1.3.4.7.3.3-.1.4c0 .3.3.6.6.7 0-.2-.3-.3-.4-.4l-.1-.3.1-.4-.2-.2v.1h.1v-.1h-.1V21h-.1l.1.1v.1l.2.1v.1c-.3-.1-.5-.6-.5-.9v.1h-.1l-.2-.6h-.1c-.1-.6-.2-1.1-.1-1.7l.2-.8.2-.4.1-.3.4-.5.1-.1-.1-.3c0-.3.3-.4.4-.6l.4-.2c0-.2.3-.3.4-.4l.1-.2.2-.1c.2-.1.4-.4.6-.4h-.1.1l.2-.2.5-.4c.4-.1.4-.2.4-.3.2-.1.5-.4.7-.3.2 0 .4.2.6.4l.2.2.2.2c0 .1-.1 0-.2 0l.4.3-.2-.2.3.1.5.4.2.2.3.3v.1l-.4-.3.4.3v.1l.2.2h.1l-.2-.2v-.1l.4.3.5.4.2.1v.1h-.1l.3.2-.2-.2c.2-.1.4.3.4.5 0 .1-.1.1 0 .2l.3.3v.1l.2.2c.2.1.2.5.5.4l-.3-.3c-.2-.2-.3-.6-.6-.7v-.5a.8.8 0 00-.4-.4l-.9-.7-.6-.5-.2-.2-.4-.3c-.5-.4-1.1-1.3-1.8-.7-.2-.1-.4-.1-.4 0zM51.3 12.7zM51.2 12.7zM51.4 12.7zM51.1 12.7zM51.1 12.7zM51.5 12.7z"/><path class="st14" d="M50.5 13.3l-.5.4c-.1.1-.2.1-.1.2h-.2c-.1-.1-.2.1-.2.1-.2.1-.4.4-.6.4l-.2.2c-.1.1-.4.2-.4.4l-.4.2c-.2.1-.5.3-.4.6l.1.3-.1.1c-.3.1-.4.5-.6.7 0 .3-.3.6-.3.8-.2.7-.1 1.4.1 2.1h.1l.2.6h.1v-.1c0 .3.1.4.3.6.1.1.1.2.3.2V21l-.2-.1v-.1l-.1-.1v-.1.1l-.2-.3v.1l-.2-.3.1.1-.1-.2h-.1v-.2.1-.1.1l-.1-.2V19.2v.1-.7.1l.1-.6v.1-.2.1-.4h.1l.1-.2v-.1.1l.1-.2v.1l.1-.3v.1l.1-.2v.1l.2-.3h.1l.1-.2v.1-.1h.1l.1-.2.1-.1.2-.3v-.1-.1.1l-.7.1c-.2-.2.2-.5.4-.6l.1-.1h.1l-.1.1.2-.3.4-.2s.1-.1 0-.1l.4-.3.3-.2.3-.2h-.1l.2-.2h-.1l.2-.1.2-.1.1-.2h.2-.1l.1-.1v-.1c.2.1.3-.1.4-.2l.6-.2v-.1h.1v.1h.1v.1l.2.2-.1-.1h.1l.1.1.2.1.1.1v.1h-.1s.2 0 .1.1c0 0 .2.1.2 0l-.2-.2-.2-.2-.6-.4-.7.4-.2.1z"/><path class="st14" d="M51.4 12.8l-.6.3c-.1.1-.2.3-.4.3v.1l-.1.1.2-.1.6-.5.3.1v-.3zM51.7 12.8zM51.8 12.9zM51.3 12.9h.1-.1zM51.4 12.9zM50.8 13zM51.2 12.9zM51.4 13zM51.1 13.1zM51.6 13zM51.9 13z"/><path class="st14" d="M51.1 13.2c0 .2-.2.3-.4.4l-.2.1.4-.2.1-.2h.1l.2-.1v.1l-.2.1v.1H51l.1.1.2-.1.3.2-.1-.1v-.1h.1v.1h.1v.1-.1c0 .2.3.3.4.4v-.1l.2.1.1.1-.3-.1v.1H52l.2.1h.1l-.1-.1.2.1.1.1v.1l-.2-.1v-.1.1c.2.1.4.4.6.4h-.1v-.1h.1v-.1l.2.1-.2-.1-.1-.1.1.1h-.1.1v.1l-.2-.1h.1-.1l-.1-.1-.2-.2v-.1l.1.1-.4-.2c0-.1-.1-.2-.3-.2v-.1h-.1l.1.1h.1l.1.1h.1v.1l-.3-.2h-.1v-.1l-.1-.1h.1l-.4-.2-.2-.2.3-.1-.3.1z"/><path class="st14" d="M51.4 13.1l-.2.1h.3l.1.1-.2-.2.1.1-.1-.1zM51.6 13.1zM50.6 13.1zM51.2 13.1zM51.7 13.1l.1.1v-.1h-.1zM52 13.1zM51.1 13.1zM51.4 13.1l.1.1-.1-.1zM51.4 13.2z"/><path class="st14" d="M51.1 13.2l-.1.1.1-.1-.1.1h.1v.1c-.2 0-.3.3-.5.3l-.1.1h.1l-.2.1-.1.1-.3.2-.1.1v.1-.1l-.1.1h.1v.1l-.3.1v.1l.2-.1h.1v-.1h.1l.1-.1v-.1H50l.1-.1h.1v-.1h.1V14l-.1.1-.2.1.1-.1.3-.1.2-.1h.1v-.1l.2-.1v-.1h.2c0-.1.2 0 .1-.1h.1l.2-.2v-.1l-.2.1h-.1l-.2.2-.4.2.2-.1c.1-.1.4-.2.4-.4h-.1zM51 13.2zM51 13.3l.1-.1-.1.1m.8-.1zM50.8 13.3z"/><path class="st14" d="M51.5 13.3l.1.1h.1l-.2-.1zM51.8 13.3l.2.2h.1v-.1l-.1-.1h-.2zM52 13.3zM52.2 13.3zM50.8 13.5l-.3.2.5-.3v-.1l-.2.2zM51.7 13.3zM50.6 13.4zM51.7 13.4zM50.599999999999994 13.5zM51.1 13.4zM51.1 13.4zM51.4 13.4zM51.8 13.4zM52 13.4zM50.8 13.4zM51.7 13.4zM51.8 13.4zM51.2 13.4zM51.5 13.4l.1.2v-.1.1-.1h-.1v-.1h.1-.1m-.7 0zM51.4 13.4zM50.5 13.5zM51.1 13.5zM51.4 13.5zM50.7 13.5zM51.5 13.5zM51.7 13.5l.1.1h.1l.3.2-.1-.1-.1-.1h-.1v-.1h-.2zM52.1 13.5zM50.1 13.5zM50.5 13.5zM51.6 13.5zM50.4 13.5l-.1.1.1-.1zM51 13.6zM51.5 13.5zM50 13.5zM50.6 13.5zM51.5 13.5zM51 13.6l-.1.1v.1l-.2.1v.1l.2-.2.1-.2zM51.7 13.6zM52.3 13.6c0 .1.3.1.2.2l.3.2v.1l.3.2H53l.1.1-.1-.1.1.1h.1l.4.3v-.1l-.3-.3-.2-.2-.5-.4-.3-.1zM50 13.6zM50.6 13.6zM51 13.6zM51.6 13.6zM52.6 13.6zM51.7 13.6l.2.2-.2-.2zM50.3 13.6zM51.6 13.6zM50.9 13.7zM51.7 13.7zM52.3 13.7zM50.1 13.8l-.2.1h.1l-.2.2.5-.4-.2.1zM50.8 13.7zM50.4 13.8h.1c0-.1-.1-.1-.1 0zM52.1 13.7l.1.1-.1-.1zM52.4 13.7zM51.7 13.7zM52.8 13.7zM51.8 13.7zM49.8 13.8zM50.3 14h.1l.1-.1.2-.1-.4.2zM50.7 13.8zM50.2 13.9l-.3.3v-.1l.1-.1c.1.1.2 0 .2-.1l.2-.2-.2.2zM49.7 13.8zM50.1 13.8zM50.3 13.8zM52 13.8zM50.7 13.8zM52.2 13.8l.1.1v-.1h-.1m.1 0z"/><path class="st14" d="M52.5 13.8l.2.1.1.1-.3-.2zM50 13.8zM50.7 13.8zM52.9 13.9zM50 14.2h.1l.1-.1v.1l.4-.3h-.1l-.2.1c0 .1-.2 0-.3.2zM52.1 13.9zM52 13.9l.1.1-.1-.1zM52.4 13.9zM50.2 13.9zM50.6 13.9zM52.1 13.9l.2.2-.1-.1-.1-.1zM52 13.9zM52.7 13.9zM49.9 14zM52 14zM52.4 14l.2.3.1.1h.1-.1c0 .1.1.2.2.1h-.1.1v-.1h-.1l-.1-.1-.1-.1h.1l-.2-.2h-.1zM49.8 14zM52.1 14h.1-.1zM50 14zM50.5 14zM50.5 14zM52.3 14z"/><path class="st14" d="M52.5 14.1l.1.1v-.1h-.1m-2.9.1l.2-.1-.2.1zM52.3 14.1zM52.8 14.1z"/><path class="st14" d="M52.3 14.1l.1.1.2.1v-.1l-.1-.1h-.2m.9 0z"/><path class="st14" d="M52.3 14.1l.1.1v-.1h-.1zM52.9 14.1zM49.3 14.1zM52.699999999999996 14.2zM52.8 14.2zM50.1 14.2l-.2.1h-.1v.1l-.1.1-.1.1h-.1l-.2.1v-.1h-.1l-.3.3h.1v.1h-.1v.1h-.1v.1l.2-.2h-.1l-.1.1.3-.2.1.1h-.1l-.2.1-.1.1h.1v-.1l-.2.1.3-.3-.3.1-.6.5h.1l.1-.1-.3.2v.2-.1l.2-.2-.3.2c-.3.3.1.4.1.5l-.3.3v.1l-.1.1h.2l-.1.1c.1.1.3-.2.4-.3l.1-.1c.1-.1.3-.2.2-.3l-.1-.2-.1.1h.1v.1h-.2l.1.1h-.1L48 16l.2.1-.2-.1h.1v-.1h.1v-.1l-.1.1v.1H48v.1h-.1v.1c-.2 0-.1-.2 0-.3l-.1.1h.1l.2-.1.1.1.2-.1h-.2l.2-.2h-.1l.1-.1.2-.1h-.1v.2h-.1l-.1.1h.1l.2-.1v-.1h.1l.6-.4V15h-.1.1l.2-.2v.1-.1l.1.1.1-.1c0-.1-.1-.1-.2 0l.3-.2-.1.2.4-.3v-.3m2.9 0zM50.2 14.2z"/><path class="st14" d="M49.3 14.4l-.4.3.4-.3.3-.2-.3.2m.5-.2l-.2.2.2-.1v-.1zM52.3 14.2zM52.3 14.2zM52.7 14.2zM53 14.2l.1.1-.1-.1zM52.4 14.2zM53.2 14.2zM49.699999999999996 14.299999999999999zM50.1 14.3zM52.4 14.3zM49.7 14.5l.2.1.1-.2c-.1-.1-.2 0-.3.1zM52.9 14.3zM52.6 14.3zM52.9 14.4zM49.6 14.4zM50 14.4zM52.6 14.4zM52.9 14.4l.1.2v.1h.1l.1.1-.2-.2.2.1h.1v-.1l-.1-.1h.1l-.3-.1v.1l-.1-.1m-3.6 0zM50 14.4zM50 14.4zM52.6 14.4zM49.5 14.4zM49.400000000000006 14.5zM52.8 14.5zM52.9 14.5zM49.400000000000006 14.5zM49.7 14.5zM53.1 14.5l.1.1-.1-.1zM53.1 14.5zM49.4 14.5l-.1.1h.1v-.1zM52.9 14.5h.1-.1zM49.6 14.5l-.2.1-.1.2v.1l.1-.1h-.1l.1-.1H49.7l-.1-.2zM51.2 14.5zM51.2 14.5zM50.2 15.5c.2 0 .2-.1.2-.3l.3-.4a1 1 0 011.3.1l.2.2.1.2h-.1l.2.1h-.1.1-.1.1c-.1-.5-.5-.8-.9-.9-.6 0-1.3.4-1.3 1z"/><path class="st14" d="M52.9 14.5v.1l.2.1-.1-.1-.1-.1zM53.8 14.5zM49.7 14.6zM51.5 14.6zM53.8 14.6zM49.7 14.6zM49.8 14.6zM51.6 14.6zM52.8 14.6zM48.9 14.6zM49.3 14.6zM50.9 14.6zM52.8 14.6z"/><path class="st14" d="M53 14.6l.2.1-.2-.1v.1l.1.2c.1.1.4.4.6.4v-.1h.1-.1v-.1l.2.1h-.1l.1.1v-.1h.1l.1.1v.1h-.2l.1.1c-.1 0-.2-.2-.3-.1l.2.2h.2v-.1H54l.2.1h.1l-.6-.6-.3-.2.1.1v.1l-.1-.1.1.1-.3-.3h.2l-.1-.1.1.1h-.1l-.3-.1zM53.5 14.6zM48.7 14.6zM49.1 14.6zM53.7 14.6v.1l.2.1.1.1-.1.1h.2l.1.1-.1.1H54.4l.1.1h.1l.1.1h.1l-.1.1.2.1v-.1l-.3-.3-.3-.2-.6-.4m-4.4 0zM49.5 14.7l.1-.1-.1.1zM51.8 14.6zM49.2 14.6zM53.3 14.6zM48.4 14.8l.1-.1-.1.1zM48.6 14.7zM48.6 14.7zM49.2 14.7l-.2.2-.3.3.2-.1v.1h-.1l.1-.1.2-.1h.1-.1v-.1l-.3.2.1-.1h.1l.2-.1v-.1h.1v-.1l.1.1v-.1h-.2zM50.8 14.7zM50.9 14.7zM51.4 14.7zM53.1 14.7z"/><path class="st14" d="M53.3 14.7l.1.3h.1l-.1-.1.1.1v-.1l-.1-.1-.1-.1m.3 0zM49.5 14.7l-.1.1c.1 0 .2 0 .1-.1zM51.9 14.7zM52.9 14.7zM54 14.7zM50.7 14.7zM50.8 14.7zM53.4 14.7zM49.1 14.7l-.1.2.1-.2zM50.7 14.7zM53.6 14.7zM49.3 14.8zM51.7 14.8zM53 14.8zM53.1 14.8l.1.1h.1l-.2-.1zM48.5 15l-.2.2.2-.2.4-.2-.4.2zM49.4 14.8zM49.5 14.8zM50.9 14.8zM51.7 14.8zM54.1 14.8zM48.4 14.8zM53.5 14.8zM49.3 14.8zM50.6 14.8zM50.8 14.8zM53.1 14.8zM49.20000000000001 14.9zM50.7 14.9zM53.8 14.9zM50.5 15.5c.1-.3.5-.6.8-.6l.3.1-.3-.1c-.3-.1-.8.2-.8.6zM51.9 14.9zM53.6 14.9zM51.1 14.9zM49.2 14.9zM49.2 14.9zM51 14.9zM53.9 14.9zM54.2 14.9zM48.3 14.9zM48.7 14.9zM48.9 14.9zM49.3 15l.1-.1-.1.1zM52 14.9zM50.6 14.9zM51.3 15zM51.4 14.9zM52.2 14.9zM53.6 14.9l.1.1-.1-.1zM53.9 14.9l.3.2V15H54v-.1h-.1zM48.8 15zM50.6 15zM51.5 15zM53.7 15zM51.6 15zM53.300000000000004 15zM48.5 15zM50.5 15zM53.4 15zM49.2 15zM51 15zM51.7 15zM53.5 15l.2.1-.2-.1h.2-.2zM48.5 15.1zM51.7 15.1zM49.2 15.1zM50.9 15.1zM51.8 15.1zM52.3 15.1zM53.7 15.1l.1.1-.1-.1v.1l.3.2-.1-.1h.2v-.1h-.2v.1l-.1-.1h.1l-.2-.1m.8 0zM49.1 15.1zM53.9 15.1zM54.1 15.1zM53.4 15.1zM54.2 15.2c0 .1.3.4.4.2h-.1l-.1-.1h-.1l-.1-.1m-5.9-.1zM49 15.1zM53.6 15.1zM54.5 15.1zM48.3 15.2zM50.7 15.2zM50.8 15.2zM52.2 15.2l.1.1-.1-.1zM50.800000000000004 15.2zM48.5 15.2zM50.8 15.2zM52.3 15.2zM53.5 15.2zM53.6 15.2zM49 15.2zM50.8 15.2zM52.4 15.2zM53.6 15.2zM54.2 15.2zM48.1 15.3l-.2.1-.4.4v.3l.1.1-.1-.2c0-.3.4-.5.6-.7zM48.4 15.3l-.1.1h.1l-.2.2h.2v-.1l.1-.1h.1v-.2h.1l-.3.1zM47.8 15.2zM48.7 15.2zM53.7 15.2zM52.4 15.3zM54.1 15.3zM48.4 15.3zM48.5 15.3zM48.6 15.4l.1-.1-.1.1zM54.3 15.3zM52.3 15.3zM54.7 15.3zM47.800000000000004 15.3zM48.5 15.3zM48.7 15.3v.1-.1zM50.2 15.3zM52.4 15.3zM54.1 15.3zM48.1 15.4zM48.3 15.4zM48.5 15.4zM48.7 15.4zM48.8 15.4zM51.7 15.4zM54.8 15.4zM48.3 15.4zM50.2 15.4zM51.7 15.7l.2.3-.3-.4.2-.1c-.2-.2-.4.2-.1.2z"/><path class="st14" d="M51.6 15.5l.3.5h-.1v.1h.1-.1c-.2 0-.4.1-.3.4.2-.2.7.3.9-.1h-.1.1-.1.1-.3.2l-.4-.1.4-.3-.3-.4.6-.1-.1-.1h.1-.1.1l-.3-.1H52l-.4.2m2.5-.1l.1.1-.1-.1v.2h.1v-.1l.1.1h-.1.2l.1.1h-.1v.1h.2v-.2h.1-.2l-.1-.1h.1-.1l-.3-.1m-5.4 0zM51.8 15.4zM47.6 15.4zM50.4 15.4zM51.8 15.4h.1-.1zM54.3 15.4zM48.3 15.5h-.2l-.1.2v.1-.1h.1v-.1l.3-.2-.1.1zM48.7 15.4zM51.6 15.4zM52 15.4zM54.9 15.5zM50.2 15.5zM50.5 15.5zM54.6 15.5zM48.6 15.5zM50.1 15.6H50l-.3.1h.1l-.1.1v.1h-.1l.1.1v-.1l.1.1h.1v.2l-.2-.2v.2l.2.4c.1 0 .1 0 0 0v.1-.1l.1.1h.1l.4-.2.2-.1.1-.3c0-.3-.2-.6-.5-.6h-.2.1l-.1.1zM50.3 15.5zM54 15.6l.1-.1-.1.1zM48.1 15.5zM50 15.6l.2-.1-.2.1zM50.5 15.5z"/><path class="st14" d="M54.2 15.5l-.2.1.3.3.1-.1-.1-.1h-.2l.1-.2.1.1-.1-.1zM47.9 15.6zM50.3 15.5h.1-.1m.1.1c.3 0 .6.2.5.5l-.1.3-.2.1c-.1.2-.4.1-.5.3l.4-.1c.4-.2.7-.4.5-.8-.1-.2-.4-.5-.6-.3zM50.5 15.5zM51.9 15.6l.3.4-.4.3c.1.1.4-.1.5-.2 0-.2-.2-.4-.4-.5.3.1.6.2.7 0l-.3.1-.4-.1m2.4-.1l.1.1h.1l-.2-.1zM54.4 15.5zM48.4 15.6h.1c0-.1 0 0-.1 0zM50.6 15.5zM54 15.5zM47.9 15.6zM50.2 15.6zM54.1 15.6zM54.1 15.6zM54.6 15.6zM47.8 15.6zM50.1 15.6zM54.5 15.6zM50 15.6h.1-.1zM51.6 15.6zM54 15.6zM48.4 15.6zM50.8 15.6zM52.5 15.7zM48.3 15.6c-.1.1 0 .1 0 0zM50 15.6zM52 15.6h.1-.1zM54.1 15.6zM48 15.7z"/><path class="st14" d="M50 16l-.1-.1.1.1h-.1c0 .1 0 .1.1 0 .1.2.2.6.4.6l-.4-.8.3-.1c-.1-.1-.3 0-.4.1l.1.2zM50.3 15.6zM52.2 15.6zM54.1 15.6zM49.9 15.7zM52.3 15.7l.2-.1-.2.1m2 0zM54.5 15.7v.2h-.2l.1.1h-.1.2l-.1.1-.1.1.3.2-.2-.2h-.1l.2-.2v.1l.1-.1-.1-.1-.1-.1.1.1v-.1l.1.1c.1-.2 0-.2-.1-.2zM48 15.799999999999999c-.2 0-.2.2-.1.2v-.1h.1v-.1l.2-.1h-.1l-.1.1zM49.8 15.7h.1-.1zM52.3 15.7v.3l.1.1-.1.2-.1.1h.1-.1.1v.1l.2-.5v-.2l-.2-.1zM48.3 15.7zM50.2 15.7v.1-.1zM50.2 15.7zM50.3 15.7zM51.6 15.7zM54.4 15.7zM50.3 15.7l-.1.1.1-.1zM50.3 15.7zM50.3 15.7v.1-.1zM50.4 15.7zM53.3 15.7h.1-.1zM54.2 15.7zM54.6 15.7z"/><path class="st14" d="M48.2 15.7l-.1.1c.1 0 .2 0 .1-.1zM53.2 15.7l.1.2-.1.2V16h.2l-.1-.1v-.1l.2.2c0-.2-.1-.3-.3-.3zM47.8 15.799999999999999zM49.6 15.9l.1-.1c0-.1-.2 0-.1.1zM50.3 15.8zM54.3 15.8v.1-.1zM47.8 15.8l-.1.1.1-.1zM50 15.8zM51.7 15.8zM52.1 15.8zM51.9 15.8v.1h.1l-.1-.1z"/><path class="st14" d="M53.4 15.8v.1l.1.1h-.2v.1-.1l-.1.1h.1l-.1.1v-.1h-.1v.1H53v.1h.1l-.1-.1h.1l-.2.1h.1-.1l-.1.2v.2c.1 0 .1.1.2 0l.1-.1.2-.3h.1v-.1l.2-.1c.2 0 .4.3.3.4v-.1l-.2.4h-.1l.1-.1-.2.4-.1.1.2.1-.1-.1h.1s-.1.2 0 .2c.3-.1.4-.6.7-.6h.1l-.1-.2-.2-.1v.1-.1h-.2v-.1l-.2-.1h.1-.1.1-.1l-.1-.1.1.1-.3-.5zM54.3 15.8zM54.7 15.8zM54.9 15.8v.2c0 .2-.2.2 0 .3v-.5m-5.2 0zM47.4 15.8zM50.3 15.8v.1-.1zM53.3 15.8zM54.3 15.8zM54.7 15.8l-.1.1h.1v-.1zM50.2 15.8zM50.2 15.9zM50.2 15.9v.1-.1zM54.4 15.9zM54.8 15.9v.1-.1zM48.1 15.9zM50.3 15.9zM54.5 15.9zM47.6 15.9zM48.1 15.9zM49.6 15.9l.1.3V16h-.1v-.1m.6 0v.1h.1c0 .1.1.4.3.5v-.1h.1l-.2-.5h-.3zM51 15.9zM54.6 15.9zM51.8 15.9zM50.4 15.9z"/><path class="st14" d="M48.4 16.6l.1-.2h.1c.3-.4.8-.4 1.2-.2-.2-.4-.9-.2-1.2 0-.2.1-.4.3-.2.4zM49.1 15.9h.1-.1zM49.4 15.9zM51 15.9zM48.1 16v.1-.1zM49 16zM49.5 16zM50 16zM52.3 16zM52.5 16.4h-.2.1-.4.3-.1.1-.1.1c-.2.2-.6 0-.9 0l.2.1c.4.1.7.2.9-.1l-.2.2c-.1.3-.1.8.1 1h.2l-.1-.2h-.1v-.1h.1l.1-.9h.1l.2-.3.2-.1h.1l.1-.1-.6.3-.2.2m1.1-.4zM54.4 16z"/><path class="st14" d="M52.3 16l-.1.2h.1c-.1-.1 0-.1 0-.2zM53.1 16zM55.2 16zM47.6 16zM48 16l.1.1-.1-.1v.3h.1l-.1-.1.1-.1-.1-.1zM48.8 16zM50.2 16zM50.6 16c.1.2.1.3 0 .4l.1.1.2-.2v.1h-.1c.1-.1.1-.1 0-.2v.1l-.2-.3zM51.1 16zM52.4 16zM54.8 16zM47.8 16zM49.6 16zM50.6 16zM53 16zM53.1 16zM53.2 16l-.1.1.1-.1m.5 0zM47.4 16zM48.1 16zM48.2 16zM53.4 16.1l.1-.1-.1.1zM54.3 16zM54.4 16.1zM55.1 16zM47.7 16.1zM52.9 16.1zM53.7 16.1l.2.1v.1h.1c0-.3-.2-.2-.3-.2zM53.9 16.1zM54.3 16.1z"/><path class="st14" d="M54.2 16.3l-.2-.1v.2-.1l.2.1.1.2h-.1c-.2 0-.4.3-.6.5l-.1.1c-.1 0 0-.1 0-.1h-.1l.1.1h-.1l.3.2.5-.5-.1.4c-.1.3-.2.5-.5.6.5-.1.7-.5.6-1h-.1l.4-.1h-.1l-.2-.5.6.5-.1-.2.2.3-.1-.1v.1h.1v.1l.1.1V17l.1.1c-.2.1.1.3.2.3V17l-.3-.4-.2-.2c-.1-.1-.4 0-.4-.2-.1 0-.1-.1 0-.1V16c-.2.1-.2.2-.2.3zM54.9 16.1zM54.3 16.1zM49.3 16.1zM51.7 16.2l.1-.1-.1.1zM52.2 16.1zM54.3 16.1zM47.4 16.1zM49 16.1zM50.2 16.1z"/><path class="st14" d="M53.4 16.3l-.3.4-.1.1-.2-.1.3.2.2-.2.4-.4.3.2-.4-.3c-.1-.1-.2 0-.2.1zM47.9 16.1zM49 16.1zM54 16.1l.1.2-.1-.2zM47.7 16.1l-.2.3c.1 0 .2-.1.2-.3.1.1.1.1 0 0zM47.9 16.1zM48.3 16.1zM52.4 16.1zM54.2 16.1v0zM54.5 16.2l.1.2h.1l-.2-.2h.1-.1zM47.9 16.2l-.1.2c.1-.1.3-.2.1-.2zM48.2 16.2zM50.4 16.2zM51.6 16.2zM54.1 16.2zM55.1 16.2zM49.6 16.2zM51.1 16.2zM54.1 16.2zM54.8 16.2zM47.4 16.2zM50.3 16.2zM50.5 16.2zM53.6 16.2zM54.1 16.2zM47.8 16.2zM48.5 16.2zM47.4 16.2zM47.7 16.2zM52.6 16.2zM52.8 16.2zM53 16.3zM53.6 16.2zM54.8 16.2z"/><path class="st14" d="M47.9 16.4l.1-.2-.1.2-.2.2.1-.1.3-.2h.2v-.1l-.4.2zM52.2 16.2v.1-.1zM52.6 16.2zM53.6 16.2zM54.6 16.3zM48.3 16.3zM50.3 16.3zM51 16.3zM51.4 16.3zM51.9 16.3zM52.2 16.3zM48.6 16.6l.6-.2.5.1c-.4-.3-.9-.2-1.1.1zM49.3 16.3zM49.3 16.3zM50.4 16.3zM50.5 16.3zM50.9 16.3zM52.6 16.3zM52.7 16.3zM50.2 16.3zM52.2 16.3zM53.5 16.3zM54.2 16.3zM48.1 16.3zM52.5 16.3zM52.7 16.3zM50.6 16.3zM50.6 16.3zM51.4 16.3c0 .1 0 .1 0 0zM52.5 16.3zM52.6 16.3zM52.7 16.3zM54.3 16.3zM48.3 16.4zM48.5 16.4zM48.8 16.4zM49.2 16.4zM49.2 16.4zM52.4 16.4zM53.6 16.4zM55 16.4zM47.8 16.4zM49.5 16.4zM52.8 16.4c.1 0 0 0 0 0zM53.6 16.4zM53.7 16.4zM47.6 16.4zM49.6 16.4zM52.3 16.4h.1-.1zM52.5 16.4zM53.7 16.4l.2.1-.2-.1zM49.6 16.4zM48.5 16.4zM49.6 16.4zM50.4 16.4zM55 16.4z"/><path class="st14" d="M47.7 16.4l-.2.3.1-.1-.1.1v.1l-.1.1h.1v.1h.1v-.1h.1v-.1h.1v.1l-.2.2.3-.2h-.1l.1-.1h-.1l.1-.1-.2-.3zM48.3 16.4zM48.9 16.4zM52.2 16.4zM52.5 16.4l-.1.1.1-.1zM53.8 16.4zM54.6 16.4l.2.1-.2-.1zM47.4 16.6l.1-.1-.1.1zM48 16.6l.1-.1-.1.1zM53.8 16.5zM53.9 16.5zM54.4 16.5zM54.9 16.5l.1.1-.1-.1zM47.1 16.5zM48.1 16.5zM50.5 16.5zM54.4 16.5zM54.8 16.5zM48.1 16.5zM51.5 16.5zM47.6 16.6l.1-.1-.1.1zM50.5 16.5zM51.7 16.5zM47.6 16.5zM48.2 16.5zM48.2 16.7v-.1h.1v-.1l-.1.2zM48.800000000000004 16.5zM52.5 16.5l-.1.1.1-.1zM54.5 16.5zM55.199999999999996 16.5l.4.6.2.2-.1-.2-.5-.6zM48 16.5zM50.4 16.6zM50.7 16.6l.6.2v.5h.1l.1.1v-.5l.2-.1.3-.2-.2.1c-.1-.1-.3 0-.4 0-.3 0-.5-.2-.7-.1zM51.8 16.5zM52.4 16.5zM52.7 16.5l.1.1-.1-.1zM47.6 16.6zM47.9 16.6zM48.3 16.6z"/><path class="st14" d="M48.4 16.6h-.1v.1h-.1v.1-.1.2l.4.1.3.2h-.1l.1.2v.1l.2-.1.2-.4h-.2v.2l-.3-.1-.1-.2-.3-.3z"/><path class="st14" d="M48.9 17.1l.3.1v-.1h.1V17l-.6-.5.1-.1h-.1.1l-.1-.1c-.1 0 0 .1 0 .2-.1.3.2.5.2.6zM48.6 16.6h.2-.2zM51.8 16.6zM51.8 16.6h.2-.2zM52 16.6zM52.3 16.6zM52.7 16.6zM54.4 16.6zM48 16.6zM52.5 16.6zM54.9 16.6l.1.1-.1-.1zM55 16.6zM55.2 16.6zM52 16.6zM52.8 16.6zM54.6 16.6zM55.5 16.6zM48.5 16.6zM51 16.6zM51.9 16.7l.1-.1-.1.1m2.4-.1zM54.6 16.6zM54.8 16.6l.2.3c.1-.1-.2-.3-.2-.3zM55.2 16.6zM47.3 16.7zM48.6 16.6zM48.4 16.7zM50.5 16.7zM51.5 16.6zM51.7 16.7zM52.5 16.6zM54.8 16.6zM47.9 16.7zM49.4 16.7zM49.9 16.7l.1.1-.1-.1zM51.3 16.7h.1-.1zM55.2 16.7l.1.1-.1-.1m.4 0zM47 16.7zM47.7 16.7zM47.9 16.7z"/><path class="st14" d="M49.4 16.7l.2.2-.2.2.1-.2h-.1v.1l-.1.1h.1l-.2.4-.1.1.3-.3c.1-.2.5-.5.2-.6h-.2zM50.8 16.7zM51.1 16.7zM53.7 16.7zM54.4 16.7zM54.7 16.7zM55 16.7l.1.1c.2 0 0-.1-.1-.1m-7.8.2l.1-.2c-.1 0-.2.1-.1.2zM47.9 16.7zM50.8 16.7zM52.3 16.7v.1-.1zM47.8 16.7zM49.3 16.7z"/><path class="st14" d="M49.3 16.9v-.1s.1 0 0 .1h.1l-.1.2h.1c0-.1.2-.1.1-.2 0-.2-.2-.2-.2 0zM51.8 16.7zM53.1 16.7zM47.5 16.8l-.1.1h-.1v-.1l-.1.1v.1l.1-.1-.1.2h-.1V17l-.1.2v.1l.2-.1v.1l.1-.2h.1l.1-.1v.1l.1-.1-.2.1.1-.3h.1-.1zM50.3 16.7zM51.7 16.7zM54.9 16.7v.2h-.1l.1-.2zM49.3 16.8l.1.1-.1-.1zM50.2 16.8h.1-.1.1-.1m2.2 0zM53.6 16.8zM50.300000000000004 16.8c0 .5-.2.9-.6 1.2.2.1.3 0 .3-.2h.1v-.1h.1l.2-.7-.1-.2s-.1 0 0 0zM51 16.8zM53.1 16.8zM54.3 16.8zM54.3 16.8v.5l-.1.4-.3.3h.2l.3-.2c.2-.2.3-.6.2-.9l-.3-.1zM54.4 16.8l.1.1v-.1h-.1zM54.8 16.8zM47.4 16.8zM50.3 16.8zM51 16.8zM52.4 16.8zM53.1 16.8zM54.2 16.8zM55.3 16.8zM56.8 16.8h0zM47.8 16.8zM49.6 16.8zM51.5 16.8zM51.5 16.8zM52.3 16.8zM52.9 16.8zM47.2 16.8zM50.2 16.8zM54.1 16.8zM54.2 16.8zM54.2 16.8zM56.9 16.8zM47.7 16.9zM53.3 17.2h.2l.1-.3c-.1 0-.3.1-.3.3zM55 16.8zM56.699999999999996 16.8zM56.7 16.8l-.1.1.1-.1zM57 16.8zM46.9 16.9zM47.3 16.9zM54.1 16.9zM54.9 16.9zM55.2 16.9l.1.1-.1-.1zM56.9 16.9c.1.3.1.7-.2 1l-.7.2-.9.3-.7.2-.1.1-.5.2-.2.1c0 .1.3.3.3.1h.3l-.4.1c0-.2.5-.3.7-.3 0-.2.2-.2.3-.3l1-.3v.1h-.1l.1.2v-.1h.1v-.1l.1.1h.1v-.2.1-.1l.3-.1c.1 0 0 .2 0 .2h.1v-.3l.2-.1.4-.2c.2-.3.2-.6.1-1l-.3.1m-9.8 0l-.1.3.1-.3zM47.5 17l.1-.1-.1.1zM48.9 16.9zM50.3 16.9zM54.1 16.9zM54.4 16.9z"/><path class="st14" d="M47.3 16.9l-.1.2h.1v-.2zM53.5 16.9zM55 16.9zM55.3 16.9zM52.3 16.9zM54 17.1l.1-.1-.1.1zM47.1 16.9zM50.4 16.9zM54.1 16.9zM55.4 16.9zM56.5 16.9zM46.8 17zM48.1 16.9c0 .2 0 .8.3.8l-.2-.4-.1-.4.2.1-.2-.1m.6.1zM52.3 17zM55.1 17l.1.1-.1-.1zM56.5 17zM49.3 17zM53.6 17zM54 17zM54.1 17v.1-.1zM55 17zM55 17l.1.2h.1L55 17zM53.4 17zM47.1 17zM47.6 17zM48.2 17zM48.4 17l.5.3-.3-.2-.2-.1zM49.1 17zM57 17zM47.5 17.1zM56.3 17zM47.5 17.1zM53.3 17.1z"/><path class="st14" d="M55.1 17.1l.1.2v-.1l-.1-.1m-7.9 0zM47.4 17.1v.1l.1-.1h-.1zM48.2 17.1zM55.5 17.1zM56.2 17.1zM46.7 17.1zM47.5 17.1zM55.4 17.1zM55.8 17.1zM56.2 17.1zM48.4 17.1l.1.1-.1-.1zM55.2 17.1zM55.2 17.1zM47.2 17.1z"/><path class="st14" d="M47.1 17.2l-.1.1.1-.1-.1.4.2-.2.1-.1v.1h.1l.1-.2v-.1h-.1l-.1.1v-.1l-.2.1zM47.4 17.1zM47.4 17.1l-.1.2.1-.2zM49.4 17.1zM51.4 17.1v.1-.1zM52.2 17.1zM55.4 17.1l.1.2-.1-.2zM55.6 17.1zM48.2 17.2zM55.2 17.2l.1.2v-.1l-.1-.1zM55.4 17.2zM48.1 17.2zM48.6 17.2zM54.1 17.2zM47.3 17.2l.1.1-.1-.1zM48.5 17.2zM55.1 17.2zM46.9 17.2l-.1.3.1-.3zM48.5 17.2v.1-.1zM48.6 17.2l.2.1-.2-.1zM47.1 17.2zM55.3 17.2zM46.6 17.3z"/><path class="st14" d="M47.2 17.3v.1l-.2.2.1-.3c-.1.2-.3.6-.2.8l.1-.1v.9l.1.7-.1-.2v-1.3l-.1.4.2 1.3h.2-.3l.2.5h.1l.2.2v.1h.1-.2l.1.1v-.1l.2.1-.1-.2h.1l-.1.1.1.1.1.1v.2l-.1-.1-.1.1h-.1c.1.1.2.3.4.3l-.2-.2.2.2.2.1v-.1l.2.1v.1h-.1l-.2.3-.1.1c.1 0 .5-.2.5-.4h-.1.2-.1l-.1-.1h-.1l-.3-.4v.1l-.1-.1v.1l-.1-.2-.1-.2c-.5-.7-.6-1.4-.6-2.2h-.1v.6-.8l.1-.4v.4l.1-.3.3-.7h-.2l.1.1h-.1v-.1zM50.2 17.3zM53.7 17.3zM54.4 17.3zM48.5 17.3zM50.3 17.3zM53.4 17.3zM55.2 17.3zM48.3 17.3zM48.8 17.3zM50.8 17.3v.2-.1.3-.1l.1.2v-.1l.7.1.2.1c.1 0 .2 0 .1.1h.1c0-.1.1 0 .1 0H52h.2v.1c.3.2.4.1.7 0l-.1-.1.3.1-.2-.1-.3-.1h.1-.1.1-.1v-.1.1h-.2.1l-.1-.1h.1l-.1-.1-.1.1h-.2l-.2-.1-.5-.1v-.1h-.2.2-.3v-.1h-.3zM51 17.3zM54.5 17.3zM47 17.4zM50.2 17.4zM50.800000000000004 17.4h.2-.2zM47.3 17.4zM48.1 17.4zM48.5 17.4zM49.2 17.4zM55.2 17.4zM46.6 17.4zM50.3 17.4zM51.2 17.4zM52.4 17.4zM52.4 17.4zM55.3 17.4zM50.699999999999996 17.4v.1-.1z"/><path class="st14" d="M51.5 17.5h.2v.1l.5.1.2.1h.2l-.1-.1-.6-.2c-.2-.1-.4-.1-.4 0zM54 17.4zM50.3 17.4zM51.7 17.4zM54.1 17.4zM55.3 17.4zM47 17.5zM47.2 17.5zM50.2 17.5zM51.8 17.5zM50.2 17.5zM51.8 17.5zM52.3 17.5zM55.2 17.5zM48.3 17.5zM48.9 17.5zM48.2 17.5zM51.7 17.5zM54 17.5zM52 17.5zM55 17.5zM46.9 17.6v.2-.2zM50.1 17.6zM46.5 17.6zM48.2 17.6zM52.4 17.6zM54 17.6zM47.1 17.6zM52.2 17.6zM47.1 17.6v.1-.1zM50.2 17.6zM51.7 17.6l.3.1-.3-.1zM52.4 17.6zM47.2 17.6zM50.2 17.6zM52.2 17.6zM54.2 17.6zM54.9 17.6zM54.2 17.6zM47 17.7v.1-.1zM50.2 17.7zM54 17.7zM54.7 17.7zM46.599999999999994 17.7zM46.7 17.7zM47.1 17.7l-.1.2h.1l.1-.1h-.1v-.1zM48.3 17.7l.2.1-.1-.1c0 .1-.1 0-.1 0zM50 17.7zM50.8 17.7v.1-.1z"/><path class="st14" d="M52.4 17.7l.1.1v-.1h-.1zM53.9 17.7zM54.2 17.7zM47.2 17.7zM52.4 17.7zM52.6 17.7l.1.1h.1-.1.2-.1l.2.1h.1l.1.1h-.1v.1l-.3-.1.2.2-.5.1c.1.2.5.1.6 0l-.1-.2.4.1v-.1h.1l.3-.1c-.3 0-.8.1-1.1-.2l-.1-.1zM54.7 17.7zM46.9 17.7v.4c0-.1.1-.3 0-.4zM53.7 17.7zM46.7 17.7zM48.1 17.8c.3 0 .6.1.6.4v.1l.1-.1c0 .3 0 .8-.4.8.2.1.4-.2.4-.3.1-.3.1-.7-.2-.9h-.5zM54.3 17.7zM54.6 17.7zM56.9 17.7zM48.1 17.8zM52.5 17.8h-.1.1zM53.8 17.8z"/><path class="st14" d="M48.00000000000001 17.8l-.2.2-.1.1c-.2.2-.1.5-.1.7v-.1.1h.3v.1H47.6h.1l.2.1h.1v.1h.4-.1c.4 0 .4-.6.4-.8l-.1.1v-.1c0-.2-.2-.3-.4-.4l-.2-.1zM50.2 17.8h.1-.1zM52.6 17.8zM53.7 17.8zM50.9 17.8l.5.1h-.1l.1.1v.1h.1l-.1-.2.6.2-.2-.1-.2-.1-.7-.1zM53.7 17.8zM54.1 17.8zM47.1 17.8zM48 17.8zM48.6 17.8zM50 17.8zM50 17.8v.1-.1zM50.3 17.8zM52.7 17.8zM54.4 17.8zM46.8 17.8zM53.6 17.8zM54 17.8zM53.5 17.8zM48.6 17.9zM50.9 17.9zM51 17.9zM51.1 17.9h.1-.1zM46.7 17.9zM51.3 17.9h.1-.1zM54 17.9zM56.8 17.9zM47.1 17.9zM49.3 17.9zM51.5 17.9zM52.7 17.9zM52.7 17.9zM54 17.9zM46.9 18.3v.7-.6h.1v-.3.4l-.1-.2.1-.4-.1.4zM47.1 17.9zM49.3 17.9l.2.2V18h.1l-.3-.1zM50.6 17.9zM51.4 17.9zM53.9 17.9zM56.8 17.9zM46.7 17.9zM49.7 17.9zM50 17.9zM50.1 17.9zM52.9 17.9zM53.9 17.9zM56.8 17.9zM47.8 18zM48.7 17.9l.1.2v-.2h-.1zM52.8 17.9zM46.800000000000004 18zM47 18zM53.7 18l.1-.1-.1.1zM51.8 18zM52.9 18zM56.6 18zM46.4 18zM46.6 18v.2-.2zM47.8 18z"/><path class="st14" d="M48.8 18v.2l.3.1v-.1l.1.1h-.1v2.6H49l.2-.1h.2v-2.5l.2-.1-.2-.1.1.1-.2-.1h.1l-.6-.1zM51.8 18zM46.8 18zM48.8 18zM50.7 18zM51.9 18zM53.7 18zM53.9 18zM48.3 18l-.1.1.3.2v-.1l-.2-.2zM49.8 18zM51.1 18h.2-.2zM51.9 18zM53.1 18zM53.7 18zM56.5 18zM46.4 18.1zM47.1 18.1zM51.4 18.1zM52.9 18.1zM53.6 18.1zM53.7 18.1zM53.7 18.1zM56.4 18.1zM49.2 18.1zM49.2 18.1zM49.3 18.1zM49.4 18.1zM52 18.1l.1.1-.1-.1zM53.4 18.1h.1-.1zM56.4 18.1zM46.8 18.1l-.1.5.1-.4v1.3l.1.2-.1-.7v-.9zM47.7 18.1zM48.8 18.1z"/><path class="st14" d="M49.3 18.1c0 .1.1 0 .2 0h-.2zM53.1 18.1zM47 18.1zM48.5 18.7h-.3v-.1h.1c.1-.2.1-.4-.1-.5l.1.3c0 .1-.1.1-.1 0v-.2c0 .2-.1.2.1.4-.3 0-.5-.5-.1-.5-.2-.1-.3.2-.3.4-.1.3.4.3.6.2m-.4-.6zM48.4 18.1zM49.1 18.1v.1h.1l-.1-.1zM49.3 18.1zM49.8 18.1l.1.1-.1-.1zM49.8 18.1zM51.5 18.1zM52.9 18.1zM53.1 18.1zM46.4 18.2zM46.800000000000004 18.200000000000003zM48.3 18.2zM48.9 18.2zM52.2 18.2zM48.4 18.2zM51.7 18.2l.1.1-.1-.1zM53.1 18.2zM46.9 18.2zM47 18.2v.3-.3zM48.1 18.2zM49 18.2zM49.4 18.2zM50.1 18.2h.1-.1zM53 18.2zM53.2 18.2zM56 18.2zM56.1 18.4c0-.1-.1-.1 0-.2-.1 0-.1.3 0 .2z"/><path class="st14" d="M48.1 18.2v.2-.2.2s0 .2.1.1l-.1-.3zM48.1 18.2zM53.3 18.2zM53.4 18.2zM46.4 18.3zM46.6 18.2v.6-.6zM52.300000000000004 18.2zM47.9 18.3zM56.7 18.3c-.1 0 0 0 0 0zM56.7 18.3zM56 18.3v.1-.1zM49.8 18.3zM52 18.3zM53.2 18.3h.1-.1zM55.6 18.3h.1-.1l.2.1v-.1h-.2zM47.8 18.3zM46.3 18.3v.1-.1zM48.4 18.3zM52 18.3zM52.4 18.3zM52.9 18.3zM53.7 19.8h.1c.1-.2.4-.1.5-.2l.1-.1.6-.1.7-.1-.1.2h.1l.1-.2v.1-.2l.3-.1v.2l.1-.2c.5 0 .5-.5.5-.9l-.1.3-.2.5-.5.1-1 .2c-.2 0-.4 0-.6.2-.2.2-.6.1-.6.3zM56.8 18.3v.2-.2zM49.8 18.4zM55.5 18.4zM55.6 18.4zM47.7 18.4v.2-.2zM53.1 18.4zM53.1 18.4zM55.4 18.4zM56.4 18.4zM46.6 18.4v.1-.1zM47 18.4zM47.8 18.4zM48.7 18.4zM49.8 18.4zM56.3 18.4zM52.1 18.4l.1.1-.1-.1zM52.7 18.4zM49.9 18.4zM52.1 18.4zM52.6 18.4zM52.6 18.4zM52.9 18.4zM55.2 18.4zM48.099999999999994 18.5zM56 18.5zM46.3 18.5v.1-.1zM46.8 18.5v.3-.3zM49.4 18.5V20v-1.5zM50 18.5l.1.1-.1-.1zM55.7 18.5zM52.3 18.5l.4.5c.2.4.3.9.2 1.4l-.1.5.2-.2c.1-.6.1-1.2-.3-1.7l-.4-.5m.3 0l.1.1-.1-.1zM48.2 18.6zM50.4 18.6l-.1.4c.1-.1.1-.3.3-.3l-.1.2h.2v-.1h.1l-.4-.2zM54.8 18.6zM48.6 18.6zM48.8 18.6zM50.1 18.6zM46.7 18.6v.2-.2zM48.1 18.6zM54.7 18.6zM47.7 18.6l.1.2H48.1v-.1h-.3l-.1-.1zM48.1 18.6zM50.5 18.6zM48.6 22.6h-.1.1zM50.7 21.6v-.1zM50.7 21.3v.2-.2zM48.5 22.5v.1zM56.6 18.3zM56.7 18.3h-.1.1zM54.9 15.8zM50 19.7v.1-.1z"/><path class="st14" d="M56.9 16.9H56.6l-.2.1-.6.2h.2c-.3.1-.2-.3-.5-.4 0-.1-.1-.3-.2-.2v-.1c-.1-.1-.3-.2-.3-.4v-.2c0-.2-.2-.6-.4-.5l.2.2h-.1l.1.1v.6l.2.1.1.1h.1v.1l.4.5.1.2-.1-.1v.1l-.1-.1v.1l-.1-.2v-.2h-.1v.1l-.1-.1h.1l-.1-.1-.1.1-.1-.1c0-.1-.2-.1-.1-.2l-.1-.1h-.1.1l-.1-.1.1.1h-.1l-.1-.2.3-.2h-.1l.1-.1-.1-.1v.1h.1l.1.1-.1.1v-.1l-.2.2h.1l.2.2-.3-.2.1-.1c-.1 0-.3.1-.1.1 0 .2.2.1.4.2l.2.2.4.4.1.4h-.2c-.1.2-.4.2-.6.3l-.4.2-.2.1H54h.1-.1l-.3.1h-.1v.1l-.4.2h-.5l.1.1.2.2v.1h.1v.1c.1 0 .1 0 0 .1l.1.4v-.1.2-.1.7l-.1.2v.2-.2c0 .1-.1.2 0 .2l-.2.2.1-.5c.1-.5 0-1-.2-1.4l-.3-.3-.1-.1-.2-.1-.2-.1-.2-.1h.1l-.2-.1V18H51.4c-.1.1-.6 0-.7-.1h.1l-.3-.1h.1-.2l-.2-.1v.2l.1.1.1.3h-.2l-.2-.1h.1l-.1-.1-.5-.1v.1h-.2v.1l.1.1.2.1.1.1h.1-.1l.2.2h-.1l.1.3v-.1l.1.7v-.2V20l.1.2v-.1.1l.1.1h.3l.1-.2.2-.2.4-.2c.3-.2.3-.5.1-.8l.2.2.1-.1v.1l.1.2V20.1l-.2.2v.1h-.1l-.2.4-.2-.2v-.1l-.2.7v-.1.6h-.1.1-.1l-.1-.1-.4-.1-.4-.3-.3-.3h.1l-.2-.1v.1H49h.1l-.1.2h-.1l-.2.4v-.1l-.1.2h-.1v.1h-.1v.1l-.2.2v.1h-.1v.1l-.2.1v.1l-.2-.1h.1l-.1-.1-.2-.2.1-.2v.1l.1-.1h-.1l.1-.1-.2-.2-.1-.1v.1l-.1-.1.2.2-.1.2v.2l.1.3.3.3.1.2.2.6v-.1l.1.1v-.1l.3-.2-.3-.5h.1-.1l-.1-.1c.3-.1.5-.4.7-.7l.3-.3v.3h.1l-.1-.1.2.2.1.2h-.1l.2.2v-.1s.1.1 0 .1l.3.3.1.1.1.1v.1h.1l.2.1-.1-.1.2.1h-.1l.3.2c.4.2.6-.1.8-.4l.2-.2.3-.1h.4l-.4-.6h.2l.1.1.2.1.4.3h.1v.1l.1.1h-.1l.1.2s.1 0 0-.1v.1l.1.1h.5l.3-.1.1-.1-.1-.1.1-.1.3-.3h-.2l.1.1-.1.1-.2.1h-.1v-.1l-.4-.3.1-.1h-.1v.1l-.2-.1.1.1-.3-.2v.1c-.1 0-.5-.3-.3-.4l.4.1.3.1v.1h.1-.1.2l.5.3v.1h.1v-.1l.2.1-.1.1h.1v-.1c.1 0 .3.1.4 0 .2 0 .4-.3.5-.4l-.1-.1a.2.2 0 01-.2-.2l.1-.1-.2.1h-.1l.1-.1-.2.2.1-.1-.1.1h.1v.1H54.5h.1l-.2-.1v-.1l.1-.1h-.2v.1h-.1l.3-.2v.1l.1.1.1-.1h-.1l-.2-.1-.2.2s-.1-.1-.1 0h-.3.2l-.5-.1-.2-.5v-.1.1l.2-.1v-.1l.1.1.3.1h.2l.2.1c.3.1.8.4 1.1.3l.5-.5v-.1h.1v-.1h-.2v-.1l-.1.1.2-.3h-.1v.1l-.1.2h-.1v.1h-.2v-.2h.1l.1-.2h-.3v.1l.1.1h-.7l-.3-.1v-.1h-.5.1l-.2-.1h.5l.2-.1H56.3c.2-.1.2-.3.3-.4l.1-.3h-.2.1H56.3v-.2c-.2 0-.1.2-.3.3v-.2.1-.1l-.1.2h-.2l-.1.1H55l-.7.1-.3.1-.2.1-.1-.1h.1l-.1-.1v.1h-.1c0-.2.4-.1.5-.2l.1-.1.5-.1.8-.1.7-.1.2-.5.1-.3h-.2l-.3.1v-.1.1h-.1s.1-.2 0-.2h-.2.2c-.1.1 0 .1 0 .2h-.1v.1h-.1v-.3.1-.1.2h-.1l-.1-.1v.1l-.1-.1v.1h-.1v.1-.1h-.1.1l-.4.1h.1-.3.1l-.2.1h-.1v-.1l-.2.1h.1l-.1.2h.1l-.3.1h-.2.1-.3c0 .2-.3 0-.3-.1l.2-.1.5-.2.1-.2.7-.2.8-.3.9-.3c.2-.1.3-.4.3-.6v-.2zm-6.4 1.9l.1-.1-.1.1zm5.1-1.4zM49.9 20zM49.9 20zM50.8 18.6zM52.4 18.6zM54.6 18.6zM50.6 18.7zM55.5 18.6zM56.8 18.7v.1-.1m-8.5 0h.1-.1zM55.3 18.7zM50.2 18.7zM52.8 18.7zM47.7 18.8z"/><path class="st14" d="M51.3 18.8l.1.4c0 .4-.4.5-.7.7-.1.1-.2.4-.4.4h-.2c0 .2.3.2.4.1l.2-.3.4-.3.2-.1v.1c-.2 0-.1.3-.1.5l.1-.1v-.1h-.2.1v-.4c.3-.4.3-.9.1-.9zM54.4 18.8zM55.1 18.8zM47.699999999999996 18.8zM55.1 18.8zM56.8 18.8zM46.7 18.8v.1-.1zM48 18.8zM50.1 18.8l-.1.8c.1-.2.2-.6.1-.8zM54.8 18.900000000000002l.2-.1-.2.1zM54.8 18.8zM47.7 18.9l.3.2h.1-.1l-.3-.2M46.5 18.9zM54.3 18.9zM47.7 18.9zM50.1 18.9zM52.7 18.9zM54.2 18.9zM51.5 18.9zM52.9 18.9zM54.2 18.9zM54.4 19l.4-.1-.4.1zM46.699999999999996 18.9v.2-.2zM52.9 18.9zM56.7 18.9zM54 19zM54.4 19zM46.5 19v.4-.4zM50.1 19zM51.5 19zM54 19zM48.5 19zM52.9 19zM47.9 19zM51.4 19zM54.1 19.1l.3-.1-.3.1zM48 19.1zM53 19.1l.1.2-.1-.2zM46.3 19.1v.1-.1m.6 0v.2-.2zM50.1 19.1zM51.6 19.1zM56.6 19.1zM47 19.1zM56.6 19.2zM46.599999999999994 19.2v.1-.1M46.4 19.3v.1-.1zM54.2 19.3zM50 19.3zM53.8 19.3l.1.1-.1-.1zM55.9 19.3zM46.7 19.3zM55.5 19.400000000000002c.2.1.2.1.2 0h-.2zM56 19.3v.2l.1-.1h.1l-.2-.1zM56.3 19.3zM46.9 19.4l.1.3-.1-.3zM47 19.4zM53.1 19.4v.2-.2zM46.4 19.4zM46.6 19.4v.2-.2zM51.4 19.4zM55.3 19.4zM46.8 19.4zM51.6 19.4zM55.2 19.4zM55.6 19.4l.1.1-.1-.1zM55.1 19.4zM51.4 19.5zM53.1 19.5zM54.9 19.5zM56.3 19.5h.2-.2zM54.8 19.5zM47 19.5zM54.7 19.5zM46.8 19.5zM47.1 19.5zM51.4 19.5zM55.6 19.5zM56.5 19.5zM51.4 19.5zM54.4 19.5zM54.5 19.5zM55.5 20.3l-.1.2h-.1v.1c.2-.1.1-.3.3-.3l-.2.4h.1v-.1h.1l.1-.2v-.1h.1l-.2.3c.2 0 .2-.2.3-.3l.3-.1c.2-.2.3-.5.3-.7l-.2.2c-.1.2-.1.4-.3.5l-.5.1-.8-.1h-.4l-.2.1c-.1 0-.3-.1-.4 0v.1l.2-.1h.4l.2-.1c.3.1.7.2 1 .1z"/><path class="st14" d="M51.2 19.6h.1v-.1l-.1.1zM53 19.5zM55.5 19.6h.2-.2m.4 0zM48.3 19.6zM56.5 19.6zM46.7 19.6V19.9l.1.2-.1-.5zM46.7 19.6zM48.3 19.6l.1.2h.4v.1h-.2l-.2.1h-.1v-.2.2h.2v-.1h.1v-.1h.2l.1.4.1-.4-.1.7c.2-.1.2-.4.2-.6v-.2c-.1-.1-.3 0-.4 0l-.4-.1m7.1 0zM46.4 19.6zM50 19.6v.2-.2zM53 19.6zM55.2 19.6h.1-.1z"/><path class="st14" d="M48.2 20v-.2.2h.1l.2-.2.2.1h.1v-.1h-.4c0-.1-.1-.1-.1 0l-.1.2zM51.4 19.6v.1-.1zM51.6 19.7zM53.2 19.6v.4-.4m.5 0zM56.5 19.7zM48.800000000000004 19.7zM54.3 19.7zM54.7 19.7h.1-.1zM53.8 19.8h.3l.3-.1.7-.1h-.3l-1 .2zM47 19.7v.2-.2zM46.8 19.7zM47.1 19.7zM51.6 19.7zM54 19.7h.1-.1zM46.7 19.7zM47.1 19.7z"/><path class="st14" d="M47.7 19.7l.1.6c.1.2.7.2.8 0-.2 0-.6.2-.8-.1v-.5h-.1m.5 0zM53.9 19.7zM56.5 19.7zM53.7 19.8v.1h.1l-.1-.1zM54.3 19.8zM46.8 19.8zM46.9 19.8zM51.6 19.8zM54.6 19.8z"/><path class="st14" d="M46.7 19.8v.1-.1m1 0l.1.8v-.1l.1.1h.1v.1c.2.1.6 0 .7-.2h-.1l.1-.7-.1.4v-.1.1h.1c-.2.1-.7.2-.8 0v-.5h-.2zM51.2 19.8zM56.5 19.8zM47.2 19.8zM50.9 19.8zM51.4 19.8v.1-.1zM54.7 19.9l.1.1v-.1h-.1zM46.9 19.8zM51.6 19.8zM46.9 19.9zM48.4 19.9zM48.6 19.9zM46.8 19.9zM46.9 20l.1.3.1.2H47h.1c0 .1.2.2.1.4l.1.1v-.1h.1-.1v-.1l-.2-.2H47V20h.1c-.1-.1-.2-.1-.2 0zM47.2 19.9zM47.7 19.9v.3-.3zM47.8 19.9v.2-.2zM49.9 19.9zM50.7 19.9zM51.3 19.9c0 .1.1 0 .2 0h-.2zM46.9 19.9v.1-.1zM56.4 20zM51.5 20zM46.8 20zM46.9 20zM47.1 20l.1.2-.1-.2zM46.5 20zM51.3 20v.2-.2zM48.7 20.1v.2-.2z"/><path class="st14" d="M47 20.1l.2.4-.2-.3c.1 0 0-.1 0-.1zM47.3 20.1zM48.2 20.1zM48.8 20.1v.1-.1zM51.4 20.1zM53 20.1zM46.6 20.1zM47 20.1v.1-.1zM46.8 20.200000000000003v.2h.1l-.1-.2zM46.6 20.2zM50.6 20.2zM53.1 20.2v.2l-.1.2v-.2h.1c.1 0 .1-.1 0-.2zM47 20.2zM53.1 20.2zM47.2 20.2l.1.3v-.1l-.1-.2zM47.3 20.2l.1.1-.1-.1zM47.2 20.3zM47.3 20.3zM46.6 20.3zM53.1 20.3v.1-.1zM54.4 20.3zM50.5 20.3zM54.4 20.3zM54.7 20.3h.1-.1zM46.6 20.3zM55 20.3zM56.1 20.3zM46.8 20.3zM47.3 20.3zM46.9 20.4zM54.1 20.4zM55.3 20.4zM55.5 20.4zM55.6 20.4zM51.2 20.4zM47.1 20.4zM47.7 20.4zM48.1 20.4h.2-.2m.3 0h.1-.1zM53.2 20.4zM46.7 20.4zM46.9 20.4l.2.3-.2-.3zM47.1 20.4zM55.1 20.5zM55.2 20.4zM55.3 20.4l-.1.1-.1.1h.1l.1-.1v-.1zM55.6 20.4zM46.7 20.5zM53.8 20.4h.1-.1m.1 0l.2.1-.2-.1zM54 20.4zM47.2 20.5l.2.3-.2-.3zM48.8 20.5zM51.1 20.5zM51.1 20.5l-.1.1.1-.1m.1 0zM46.7 20.5zM48.3 20.5zM49.4 20.5v.2-.2zM53 20.5zM54.2 20.5l.4.1-.4-.1zM54.2 20.5l.2.1-.2-.1zM55.1 20.6l.1-.1-.1.1zM47.8 20.5c.1.4.6.3.8.2-.1 0-.5.2-.5 0h-.2l-.1-.2zM47.400000000000006 20.6zM47.8 20.6zM54.9 20.6zM47.4 20.6zM47.5 20.6zM51 20.6zM47.5 20.7l.1.2-.2-.1v.1h.1l.1-.1.1.1v-.1l-.1-.1h-.1.1-.1zM47.1 20.7l.2.2v-.1h-.1l-.1-.1zM47.1 20.7zM55.4 20.7zM47.1 20.7v.1-.1zM47.3 20.7zM46.9 20.8zM47.3 20.8zM48.5 20.7zM49.3 20.7c0 .1 0 .1 0 0zM47.9 20.8zM50.9 20.8v.1-.1zM55.9 20.8zM48.3 20.8h.1-.1m.9 0zM47.7 20.8zM56 20.8c-.2.2-.2.4-.5.5-.3.1-.8-.2-1.1-.3l-.2-.1c-.1 0-.1.1-.2 0l-.3-.1-.1-.1v.1c-.1-.1-.2-.1-.2.1v-.1.2l.2.1.5.1H54l-.4-.1V21c.2-.1.4.1.6.1.1 0 .1-.1.2 0l.2.1c-.1 0-.2.1-.1.2 0 0 .2-.1.1-.2l.3.1h.2l-.1.1h.1l.2-.1c-.2.1-.1.3.1.4l-.1-.3.1-.1h.4l.5-.6H56zM56 20.8zM48.1 20.8h.1-.1zM49.1 20.8zM47.2 20.9zM48.9 21.1l.2-.1c-.1-.1-.2 0-.2.1m.6-.2c.2.2.4.6.7.6l-.4-.5-.3-.1zM49.5 20.9zM47.8 20.9l.1.2-.1-.2zM53.2 20.9l.1.1-.1-.1zM53.6 20.9zM56.1 20.9zM47.5 21zM50.8 21zM47.599999999999994 21l.1.1-.1-.1M53.5 21zM47.3 21zM49.699999999999996 21.1zM53.5 21.1zM54.2 21.1zM47.7 21.1l.1.2h.1l-.2-.2zM48 21.1zM54.3 21.1zM47.4 21.1zM47.6 21.1zM48 21.1zM55.9 21.1zM47.8 21.1l.1.1-.1-.1zM53.6 21.1zM47.5 21.200000000000003zM47.5 21.2l.2.2-.2-.2zM47.7 21.2zM54.5 21.2zM47.5 21.2zM48 21.2zM50.8 21.2v.4-.4zM53.7 21.2zM47.7 21.2zM48.1 21.2zM47.5 21.2zM48 21.2zM48 21.2zM53.8 21.2zM54.6 21.2z"/><path class="st14" d="M54.6 21.2l-.3.2h.1v-.1h.2l-.1.1v.1l.2-.2-.1-.1zM49.8 21.2zM48 21.3l.2.2-.2-.2zM48.1 21.3zM53.9 21.3zM54.3 21.3zM48.3 21.3zM53.5 21.3h.1-.1zM54.3 21.3zM48.7 21.3l-.1.1.1-.1m5.3 0h.1-.1zM54.5 21.3zM55.8 21.3zM47.6 21.3l.2.2-.1.1.2-.1-.3-.2zM47.9 21.3h.1-.1zM48.3 21.4zM48.7 21.3zM50 21.4zM54.1 21.4h.1-.1zM54.3 21.4zM47.7 21.4zM48.3 21.4c.2 0 .1 0 0 0zM48.1 21.4v.1-.1l-.2.2h.1l-.1.2v-.1l.1.1v.1h-.1.2l.1.1-.2-.2.2.1v-.1l.1-.1.1.1v-.2h.1v-.1h.1l.1-.2h-.1c.1.3-.3.2-.3.5v-.1h-.1l.1-.1.2-.2v-.1l-.4.1zM53.3 21.4zM54.6 21.4zM55.300000000000004 21.4zM53.1 21.9l-.2-.3c.2-.1.4.1.5.2h-.1v.2-.1l.1.2V21.8l-.3-.1c-.1 0-.3-.2-.4-.1l.4.3m1.2-.5zM48.2 21.4zM48.3 21.4zM50.1 21.4zM55.2 21.4zM48.6 21.5zM49.9 21.5z"/><path class="st14" d="M54.7 21.5l.1.1v-.1h-.1.1-.1m-6.3 0v.2h-.1v.1h-.1v.1h-.1v.1c.2-.1.3-.2.3-.4v-.1zM48.3 22.5l.2.1.4.3-.1-.1v-.1h.1-.1v.1h-.1l-.2-.2.2.1h.1-.2l.5-.7c.1-.1.2-.2.1-.3l-.3.3-.4.6c0-.2-.1-.2-.2-.1zM55.1 21.5zM50.1 21.5l.1.1-.1-.1zM52.9 21.5zM48.1 21.5l-.1.1.1-.1zM48.5 21.5zM49.3 21.6zM52.9 21.6zM47.8 21.6zM48.8 21.6zM48.4 21.6zM49.3 21.6zM54.7 21.6zM47.4 21.6zM49.4 21.6l.3.4-.1-.2-.2-.2zM47.699999999999996 21.900000000000002l.1.1v-.1l-.1-.1v.1l.1-.1.1-.2-.2.3zM48.5 21.7zM49.2 21.7zM49.3 21.7zM50.3 21.7zM53.3 21.7zM47.4 21.7zM49.3 21.7v.1h.1l-.1-.1zM52.8 21.7zM49.2 21.7zM49.2 21.7zM49.3 21.7zM53.3 21.7z"/><path class="st14" d="M53.4 21.8c.1.1.2.1.2 0h-.2m-5.8-.1l-.1.2.2.2-.2-.3.1-.1m1.7 0l-.1.1v.9l-.2-.1v.1h-.1v.1h-.1l.1.1c0 .1.1.2.2.1H49v-.1h.1v.1H49c.1.1.2.3.4.3l.4.3v-.1l.2.2h-.1.1l.2.2c.2.2.5.5.7.5v-.1l.1.1.2.1v.1h.1-.1l.2-.1-.1.2.3-.2h-.1v-.1h-.1l.1-.1h-.1l.1-.1h-.1v-1h-.2v1.1c-.2-.1-.3-.4-.5-.4 0-.1-.2-.3-.3-.1l.2.2-.2-.1h-.1v-.1h-.1l.1-.1v-.1h-.1l-.2-.1c.1-.1.1 0 .2.1 0 0 .1 0 0 .1l.2.1v-.1l-.4-.3v.1l-.3-.1.3.1-.4-.5-.2-.1v-.3l-.1-.9zM53 21.7zM47.9 21.8zM48.4 21.7zM49.3 21.7zM49.4 21.7zM49.4 21.7zM50.4 21.7zM52.9 21.7zM53.3 21.7zM47.4 21.8zM49.2 21.8zM50.8 21.8zM53.3 21.8zM50.5 21.8l.1.1-.1-.1zM53.1 21.8zM48.1 21.8l.1.2-.1-.1-.2-.1v.1l.2.2-.1-.1h-.2l.3.2v-.1h.1-.1c.2-.1 0-.2 0-.3zM50.6 21.8zM53.3 21.8zM47.7 21.8zM47.6 21.8zM53.3 21.8v.1-.1z"/><path class="st14" d="M53.8 21.8l.1.1-.1-.1m.6.4l-.2-.2v.1h-.1l.1.1v-.1l.2.1-.4.3.1-.1-.1.1.2-.1h-.1l.2-.1-.1.1h.1l.1-.2.2.1-.1.1h.2l-.4.3H54l.2.1-.1.1-.3.1h-.5l-.1-.1-.1-.1v.1l-.4.4c.1 0 0 .1 0 0l-.5.4h.1l-.1.1.1-.1h.1l-.1.1-.1.1.4-.3.2-.1.2-.1h-.1l.1-.1.1-.1-.1.1.1-.2h.1l-.1.1.1-.1h-.1l.2-.1h.1l-.3.2v.1l.2-.1.3-.2h.3l-.3.2-.2.2.1-.2.1-.1V23l-.5.4.1.1-.2.2-.2.1-.4.3-.2.2-.2.1-.4.3-.4.2c-.2.1-.4-.1-.5-.2v-.1l-.4-.3-.4-.4h-.1l.1-.1h.1l-.2-.1h-.2v-.1l-.6-.4v.1l-.2-.3h.1l.1.1v.1l.5.3c-.1-.2-.4-.5-.6-.5v-.1h-.1l-.2-.2c-.1-.1-.1-.3-.3-.3l.3.4-.3.2c0 .2.3 0 .4-.1l.2.2.6.5 1.1.8c.2.1.3.3.6.3s.6-.3.8-.5l1.6-1.3 1.2-1 .5-.5c-.2-.1-.3.2-.5.3-.1.6-.3.5-.4.5zM48 21.8zM48.4 21.9zM49.2 21.9zM50.7 21.8l.1.1-.1-.1zM48.1 21.9zM48.1 21.9zM49.5 21.9zM53.3 21.9l.1.1-.1-.1zM53.4 21.9zM48 21.9zM53.1 21.9zM55.4 21.9zM48 21.9z"/><path class="st14" d="M52.3 21.9l.4.6h-.5l-.3.1-.2.1-.3.3-.2.2-.3-.1c.1.3.4.1.5.1l.3-.4.2-.2.5-.1h.4l-.4-.6c.1.2.3.4.5.3l.2.2v-.1H53l-.4-.3-.2-.1-.1-.1zM52.5 21.9zM54 21.9zM47.4 21.9zM47.8 21.9zM48.2 21.9zM48 21.9zM53.2 21.9l.2.1v-.1h-.2zM49 22z"/><path class="st14" d="M52.4 21.9v.1h.1l-.1-.1zM53.4 22zM54.1 22zM47.4 22zM52.3 22zM47.7 22zM48.2 22zM49.4 22v.1-.1zM53.4 22.1zM47.7 22.1zM47.9 22.1zM49.7 22.1zM54.2 22.1zM48 22.1zM49.7 22.1l.1.1-.1-.1zM49.8 22.2zM52.5 22.1zM47.8 22.2l.2.2-.2-.2m6 .2h.1l.2-.1.1-.1c-.2-.1-.3.1-.4.2zM47.5 22.2zM47.8 22.2zM49.4 22.2v.6-.6zM55.1 22.2zM47.9 22.2zM53.6 22.2zM54.4 22.2zM54.5 22.2zM48.1 22.3zM54.1 22.400000000000002h.1-.1.1-.1l.2-.1-.2.1zM53.9 22.3zM54.599999999999994 22.3c.1 0 .2.1.2 0h-.2m-5.9 0l-.1.2h.1v-.2zM53.9 22.3zM54.5 22.299999999999997zM54.4 22.4l-.1.2h-.1s-.1 0 0 .1h.1l.4-.3h-.3zM47.7 22.4zM48.8 22.4l.1.2h.1l-.2-.2zM48.8 22.4z"/><path class="st14" d="M54.2 22.6h.1l.1-.1-.2.1zM48.8 22.4zM52.7 22.4zM54.4 22.4zM48.8 22.4zM48.7 22.5zM48.7 22.5l.1.1-.1-.1zM53.1 22.5l.1.1-.1-.1zM48.5 22.5l.2.2h.1v-.1h.1-.1v.1l.1.1h-.1l.1.1h.1v-.1h.1l-.3-.2h.2-.1l-.4-.1z"/><path class="st14" d="M48.9 22.5v.1h.1l-.1-.1zM54.1 22.5zM47.9 22.6zM48.5 22.5zM48.9 22.5zM49 22.6zM50.2 22.6zM52.4 22.6h.3-.3zM49 22.6zM50.199999999999996 22.6zM52.1 22.7zM54.5 22.7zM49 22.7zM50.3 22.7zM52.1 22.7zM54.5 22.7zM52 22.7zM48.7 22.7zM49.1 22.7zM49.1 22.7zM49.3 22.7zM51.9 22.7zM48.1 22.8zM49 22.7l.1.1-.1-.1c.1 0 .1 0 0 0zM50.3 22.7zM51.4 22.9l.2-.1c-.2-.1-.2 0-.2.1zM48.9 22.8l.2.2v-.1H49v-.1h-.1zM49.1 22.8zM50.4 22.8zM48.7 22.8zM49.1 22.8zM53.199999999999996 22.8zM51.8 22.8zM53.2 22.8zM49.4 22.9zM50.5 22.8zM53.2 22.8zM53.2 22.9zM53.2 22.9zM54 22.9l.1-.1-.1.1zM49.4 22.9zM49 22.9zM53.7 22.9zM50.6 22.9l.1.1-.1-.1zM53.1 22.9zM53.2 22.9zM53.4 22.9l-.2.1h.1l-.1.1V23l-.2.2h.1-.1l-.1.1h.1l.1-.1-.1.2.1-.1v-.1h.1-.1v-.1l.3-.2m.3 0zM53.5 23zM53.7 23v.1l-.1.1-.1.2.2-.2.3-.2h-.3m-4.6-.1v.1l.1.1V23h.1v-.1h-.2zM49.5 22.9zM53.9 22.9zM53.7 23l.1-.1-.1.1zM48.8 23c0 .2.1.2.2.3l.1.1.6.4v.1H50l-.1-.1-.1-.1-.4-.3.1.1-.4-.3-.2-.1V23h-.1zM48.9 23zM49.4 23zM49.4 23zM50.7 23l.1.1-.1-.1zM51.6 23zM50.7 23zM53.8 23zM51.1 23.1zM51.5 23.1zM53.1 23.1zM49 23.1zM49.5 23.1l.1.1-.1-.1zM52.9 23.1zM53.3 23.1zM49.6 23.1zM52.9 23.1zM52.9 23.1zM53.9 23.1zM49.2 23.1zM49.4 23.1l.1.1-.1-.1zM52.8 23.1zM52.9 23.1zM49.7 23.2zM52.9 23.2zM53.3 23.3l.2-.1-.2.1zM53.4 23.2zM48.7 23.2zM49.3 23.2zM49.8 23.2zM50.9 23.2zM49.6 23.2l.1.1-.1-.1zM49.8 23.2zM51.4 23.2zM53.4 23.2zM48.3 23.2zM49.5 23.2l.1.1-.1-.1m1.9 0h-.1c0 .1.1.1.1 0m1.2.3l.4-.3-.4.3zM53.1 23.3zM49.8 23.2zM51.4 23.2zM53.3 23.2zM48.5 23.3zM53.7 23.3zM49.4 23.3zM49.9 23.3zM49.1 23.3zM49.7 23.3c.1.1.1.2.3.2l-.3-.2zM49.8 23.3zM49.9 23.3zM51.2 23.3zM52.6 23.3zM52.6 23.3zM52.7 23.3zM53.3 23.3l-.1.2.1-.2m-4.8 0zM49.5 23.3zM49.3 23.3zM49.7 23.3v.1-.1zM50 23.3zM49.5 23.400000000000002zM53.2 23.4zM49.9 23.4l.1.1-.1-.1zM52.7 23.4l.1-.1-.1.1zM53.6 23.4zM53.1 23.4zM49.7 23.5zM50.1 23.4zM52.9 23.4zM49.6 23.4zM51.4 23.4v.4-.4zM50.1 23.5zM52.9 23.5z"/><path class="st14" d="M53 23.5v.1l-.2.1.1-.1-.2.2h.1l-.3.3h-.1V24l-.2.1h.1l-.3.3.1-.1-.1.1-.2.1h.1-.2.1l-.3.2-.5.1v-.1l-.3-.2h.1l-.2-.1h.1l-.2-.1h.1-.2l-.1-.1-.1-.1-.1.1v-.1L50 24l-.3-.1.2.1h.1l.4.4.4.3v.1c.2.1.4.3.6.2l.3-.2c.1-.2.2-.2.4-.3l.2-.1.6-.5.2-.2.2-.2H53m-3.1 0l.2.1h.1v.1l-.1.1h.1v.1h.1l.2.1-.2-.2-.3-.2h-.1c.2-.1.1-.2 0-.1zM52.4 23.5zM52.8 23.5z"/><path class="st14" d="M53 23.5l-.3.2.2-.1.1-.1zM49.8 23.5zM52.3 23.7l.1-.1c-.1-.1-.1 0-.1.1zM52.5 23.5zM53.400000000000006 23.5zM49.1 23.5zM49.8 23.5zM52.3 23.6zM52.5 23.6l-.1.1.1-.1-.1.1v.1h-.1l-.2.1v.1l.4-.4-.1.1v.1l-.2.1v.1l.4-.2-.1-.2h.1-.1m-2.6 0zM50.2 23.6zM50 23.6v.1l.1.1h.2l-.3-.2z"/><path class="st14" d="M52.3 23.6l-.5.4h.1l-.1.1.1-.1v-.1c.1.1-.3.1-.3.2 0 0-.1.1 0 .1v.1l.1-.1.1.1.2-.2.2-.1H52v.1l-.1-.1.2-.1-.1.1c.2 0 .3-.2.4-.3l-.3.2v-.1l.2-.1v-.1l-.4.2v-.1l.2-.1v.1l.2-.1zM49.6 23.6zM49.8 23.6zM52.2 23.6zM52.9 23.6zM49.9 23.6zM52.6 23.6zM52.9 23.6zM52.2 23.7zM49.6 23.7l.1.1-.1-.1zM50.3 23.7zM50.3 23.7l.1.1-.1-.1.1.1-.1-.1zM52.1 23.7zM53.2 23.7zM52.1 23.7zM52.6 23.7zM52.1 23.7zM52.1 23.7zM49.7 23.7l.1.1-.1-.1zM52.1 23.7zM49.7 23.8zM50.4 23.8zM50.3 23.8zM52.5 23.8zM52.7 23.8zM49.5 23.8zM50.3 23.8zM49.5 23.8zM52 23.8zM49.9 23.8zM50.1 23.9zM50.4 23.8zM50.6 23.8zM52.4 23.9zM52.5 24l-.3.2h.1l.3-.3-.1.1zM49.6 23.9zM50.2 23.9zM50.6 23.9zM52.4 23.9zM52.6 23.9zM53 23.9zM50 23.9zM50 23.9zM51.9 23.9zM52 23.9h.1-.1zM51.8 23.9zM52.3 23.9zM50.7 23.9zM51.8 23.9z"/><path class="st14" d="M51.9 24.1h.2-.1l.1-.1-.2.1zM51.8 24zM51.9 24l-.1.2.1-.2zM50.4 24l.2.1v.1h.1l.2.2-.5-.4zM51.8 24zM52.4 24zM52.9 24zM51.8 24zM52.4 24zM51.7 24zM51.7 24.1h.1V24l-.1.1zM51.8 24zM50.4 24zM50.8 24zM50.6 24zM50.1 24.1v.1c.1-.1.1-.1 0-.1zM50.4 24.1zM50.7 24.1zM51.6 24.1zM52.3 24.1zM50.9 24.1zM50.3 24.1l.1.1.1.1.1.1-.3-.3z"/><path class="st14" d="M51.6 24.3l.1-.1v.1l.1-.1h-.1v-.1h.1l.1-.1v-.1l-.3.4m-.8-.2zM50.8 24.2zM51.6 24.2l-.1.1.1-.1zM52 24.2zM52.2 24.2zM50.9 24.2l.2.1.2.1v-.1h-.1l-.3-.1m.5 0zM52 24.4l.2-.1c-.1-.1-.1 0-.2.1zM50.4 24.3zM51 24.3zM51.1 24.3zM51.5 24.3zM50.7 24.3zM51.2 24.3z"/><path class="st14" d="M51.5 24.3v.2l.2-.1-.1-.1h-.1l.1.1v-.1h-.1M50.9 24.4l.1.1-.1-.1zM50.5 24.4l.1.1-.1-.1zM51.7 24.4zM51.9 24.4h.1-.1zM52.3 24.4zM50.3 24.4zM50.900000000000006 24.5zM51.8 24.5h.1-.1zM50.3 24.5zM51.1 24.5l.2.1-.2-.1zM50.7 24.5zM50.8 24.5zM51.2 24.6l.2-.1-.2.1zM51.7 24.6l-.1.1-.1.1h-.2l-.4-.2.3.2v.1h.3l.4-.3c-.1-.1-.2-.1-.2 0zM50.6 24.5zM52.1 24.5zM51.5 24.5zM51.7 24.6zM51.5 24.6zM51.8 24.6zM51.1 24.6zM51.2 24.6l.1.1-.1-.1zM51.4 24.700000000000003zM51 24.7zM51.5 24.7zM51.1 24.8zM51.4 24.8zM51.2 24.8zM51.2 24.8h.1-.1zM50.8 24.9zM51.5 25zM51.4 25zM51.1 25.1zM51.4 25.1zM51.2 25.1zM51.3 25.1z"/></g></svg>