<?xml version="1.0" encoding="UTF-8"?>
<!DOCTYPE svg PUBLIC "-//W3C//DTD SVG 1.1//EN" "http://www.w3.org/Graphics/SVG/1.1/DTD/svg11.dtd">
<!-- Creator: CorelDRAW X8 -->
<svg xmlns="http://www.w3.org/2000/svg" xml:space="preserve" width="210mm" height="297mm" version="1.1" style="shape-rendering:geometricPrecision; text-rendering:geometricPrecision; image-rendering:optimizeQuality; fill-rule:evenodd; clip-rule:evenodd"
viewBox="0 0 21000 29700"
 xmlns:xlink="http://www.w3.org/1999/xlink">
 <defs>
  <style type="text/css">
   <![CDATA[
    .str0 {stroke:#3A828F;stroke-width:787.5}
    .str1 {stroke:black;stroke-width:525;stroke-linecap:round;stroke-linejoin:round}
    .fil3 {fill:none}
    .fil67 {fill:black}
    .fil92 {fill:#010101}
    .fil95 {fill:#020202}
    .fil68 {fill:#040204}
    .fil4 {fill:#1B1B1B}
    .fil5 {fill:#1C1C1C}
    .fil6 {fill:#1D1D1D}
    .fil7 {fill:#1E1E1E}
    .fil11 {fill:#202020}
    .fil9 {fill:#212121}
    .fil10 {fill:#222222}
    .fil17 {fill:#232323}
    .fil12 {fill:#242424}
    .fil8 {fill:#252525}
    .fil37 {fill:#262626}
    .fil22 {fill:#272727}
    .fil54 {fill:#282828}
    .fil87 {fill:#291B17}
    .fil14 {fill:#292929}
    .fil38 {fill:#2A2A2A}
    .fil19 {fill:#2B2B2B}
    .fil35 {fill:#2C2C2C}
    .fil32 {fill:#2D2D2D}
    .fil18 {fill:#2E2E2E}
    .fil13 {fill:#2F2F2F}
    .fil55 {fill:#313131}
    .fil41 {fill:#323232}
    .fil49 {fill:#333333}
    .fil30 {fill:#343434}
    .fil39 {fill:#363636}
    .fil63 {fill:#373737}
    .fil46 {fill:#383838}
    .fil16 {fill:#393939}
    .fil21 {fill:#3A3A3A}
    .fil2 {fill:#3A828F}
    .fil65 {fill:#3B3B3B}
    .fil25 {fill:#3C3C3C}
    .fil45 {fill:#3D3D3D}
    .fil75 {fill:#3E2B6A}
    .fil20 {fill:#404040}
    .fil73 {fill:#412E6D}
    .fil59 {fill:#424242}
    .fil86 {fill:#432F71}
    .fil24 {fill:#434343}
    .fil69 {fill:#443171}
    .fil52 {fill:#444444}
    .fil78 {fill:#453175}
    .fil58 {fill:#454545}
    .fil77 {fill:#473376}
    .fil40 {fill:#474747}
    .fil56 {fill:#484848}
    .fil57 {fill:#4B4B4B}
    .fil28 {fill:#4C4C4C}
    .fil82 {fill:#4F3980}
    .fil60 {fill:#505050}
    .fil51 {fill:#525252}
    .fil85 {fill:#533D83}
    .fil23 {fill:#545454}
    .fil83 {fill:#553D85}
    .fil61 {fill:#5D5D5D}
    .fil44 {fill:#606060}
    .fil74 {fill:#614795}
    .fil34 {fill:#626262}
    .fil0 {fill:#653F7F}
    .fil29 {fill:#666666}
    .fil48 {fill:#676767}
    .fil15 {fill:dimgray}
    .fil47 {fill:#6C6C6C}
    .fil33 {fill:#707070}
    .fil42 {fill:#717171}
    .fil50 {fill:#737373}
    .fil43 {fill:#777777}
    .fil79 {fill:#793629}
    .fil31 {fill:#7C7C7C}
    .fil66 {fill:#8C8C8C}
    .fil88 {fill:#8E7226}
    .fil1 {fill:#8E8E8E}
    .fil26 {fill:#909090}
    .fil53 {fill:#929292}
    .fil89 {fill:#D4D08E}
    .fil62 {fill:#DEDEDE}
    .fil64 {fill:#E6E6E6}
    .fil90 {fill:#EDDE41}
    .fil91 {fill:#EFE986}
    .fil80 {fill:#F19716}
    .fil93 {fill:#F4C83D}
    .fil27 {fill:#F4F4F4}
    .fil70 {fill:#FABB3B}
    .fil94 {fill:#FAFAFA}
    .fil76 {fill:#FB9301}
    .fil36 {fill:#FBFBFB}
    .fil84 {fill:#FDED78}
    .fil72 {fill:#FDFDFD}
    .fil71 {fill:#FEFEFE}
    .fil81 {fill:#FF9400}
   ]]>
  </style>
 </defs>
 <g id="Capa_x0020_1">
  <metadata id="CorelCorpID_0Corel-Layer"/>
  <g id="_1788231940848">
   <path class="fil0" d="M10448 24733c1811,-26 4383,-472 5880,-1050 -184,-1732 -709,-11944 -709,-11944 0,0 551,1339 840,2074 1234,-105 3229,-341 4016,-1627 -761,-1785 -1339,-3833 -1942,-5172 0,0 -2730,-997 -4883,-1680 0,0 -236,-78 -341,105 -788,1103 -1181,1864 -2940,1864l0 0c-1680,-26 -2100,-761 -2861,-1864 -132,-183 -368,-105 -368,-105 -2126,657 -4882,1680 -4882,1680l2940 4542c0,0 -578,10395 -735,12127 1522,578 4068,1050 5880,1050l0 0 105 0zm0 0l0 0 0 0z"/>
  </g>
  <g id="_1788231940496">
   <path class="fil1" d="M2363 6831c-604,1338 -1182,3386 -1943,5171 788,1286 2783,1522 4016,1627 289,-735 840,-2310 840,-2310l-2913 -4488zm0 0l0 0 0 0z"/>
  </g>
  <g id="_1788231941840">
   <path class="fil2" d="M15724 11372c0,0 551,1549 840,2284 1234,-105 3229,-342 4016,-1628 -761,-1811 -1339,-3859 -1942,-5197l-2914 4541zm0 0l0 0 0 0z"/>
  </g>
  <path class="fil3 str0" d="M13729 5256c0,1128 -1286,2310 -3229,2310 -1942,0 -3229,-1182 -3229,-2310"/>
  <g id="_1788149114832">
   <path class="fil4" d="M3487 12804l-24 -2c4,65 36,78 45,121 0,1 0,3 0,4 0,1 1,4 1,5 7,37 -3,85 -46,97 2,77 33,51 2,108 53,-6 19,-10 63,-11 35,38 12,30 63,56 4,2 26,16 28,17l28 -54c16,-24 43,-32 71,-32 25,30 -25,15 17,48 -35,8 -31,8 -51,23l67 90c15,-17 7,-24 22,-53 27,3 48,16 48,16 33,4 2,-5 51,-17 -11,55 13,78 -22,108 -2,-2 -2,-9 -2,-7l-5 -24c-1,-3 -2,-6 -3,-9 -1,-3 -3,-6 -4,-8 -1,-3 -3,-7 -4,-9 -1,-3 -2,-7 -4,-9 -19,35 -25,28 -35,69 35,19 -1,-3 47,12 14,4 13,4 24,10 2,1 8,4 9,5 1,1 4,3 4,3 1,0 3,2 4,3 -17,44 -9,93 13,131 24,-2 50,-3 38,-36 -16,-42 -73,-6 4,-109 27,-37 11,-31 49,-72 24,-26 35,2 8,-66 -13,-30 -6,23 -10,-25l80 -22c0,100 -25,26 -13,111l-2 23c-7,38 -11,4 0,60 -20,-11 -23,-14 -38,-23l71 129c42,-77 -67,-33 59,-185 14,23 20,21 43,33l19 7c1,0 4,0 5,1 23,7 1,-31 20,10 0,18 -3,58 3,74 19,60 30,18 47,14 14,-4 8,-26 54,12l45 44 -34 64c34,23 30,35 76,31 -13,-40 -20,-18 -18,-55 2,-29 -13,-7 12,-40 7,-10 17,-20 27,-34 -8,-6 -4,3 -17,-14 -7,-9 -18,-32 -24,-40 -73,21 -23,12 -79,-11 -20,-9 1,-6 -18,-4 -15,2 -20,14 -30,25 -5,-44 -16,-55 -16,-101 49,-8 66,-24 108,-2 -6,-85 -37,-13 -90,-79 -32,-40 -38,-35 -69,-63 0,0 -18,-26 -24,-32l-57 43 -5 -70 -39 30c-21,5 -23,-20 -70,-4 0,-42 -16,-51 29,-67 26,-34 61,-67 77,-96 -25,-31 -15,-27 -44,-20 -2,0 -5,1 -8,2 -80,23 -37,25 -80,44 -32,14 -4,-28 -28,14 -15,26 3,37 1,78 -32,-60 -48,-30 -52,-81l-14 -51c-3,-22 -2,3 3,-27 2,-11 6,-10 7,-36 -29,-29 -18,0 -46,-39 -19,-25 -18,-27 -33,-38 20,-35 17,-10 17,-55 -23,-7 -19,-1 -35,-14 -22,-18 -18,-30 -30,-42 -50,25 -45,-10 -81,29 -54,-103 -30,41 -82,-99 -20,-7 4,15 17,-26 -64,-20 19,-14 -64,-32 -2,-1 -5,-1 -7,-1 -2,-1 -5,-2 -7,-2l-55 -8c-45,-9 -4,-15 -64,-45 -3,-1 -14,-5 -17,-6 -3,-1 -6,-2 -8,-3 -44,-14 -20,-14 -50,6 18,42 3,3 17,29 26,52 16,56 69,66l27 4c81,14 68,-8 77,51l-73 -2c-12,40 -13,34 3,72l33 67 -21 13z"/>
   <path class="fil5" d="M4718 10547c45,-15 14,-9 35,-16l-391 -601 0 16c-51,15 -32,-10 -61,9 -39,26 6,20 -40,50 26,26 26,28 43,62 -51,15 -20,1 -35,-1 -67,-10 31,1 -19,-3 -1,-1 -19,-1 -23,-1 0,49 -22,76 -6,103 13,23 -5,8 73,23l-46 -70c4,-15 5,-24 6,-50 26,21 78,117 84,144l52 -22c2,144 -135,106 8,193 46,28 26,37 90,34 14,18 1,28 23,35 51,16 -4,-56 124,-73l-14 53c0,33 -8,25 -17,63 18,12 0,-1 18,17l22 22c24,28 17,-2 23,54l51 -41zm40 -7c0,22 -7,17 -30,40 68,38 27,-3 99,65l-69 -105zm-425 -655c-2,3 -5,8 -10,14 -28,-44 -78,-67 -119,-43l31 65c36,3 53,7 74,6 54,-2 14,4 40,-18l-16 -24z"/>
   <path class="fil5" d="M2586 9889c0,42 33,72 63,97 -14,100 -43,68 94,149l173 94c4,86 25,92 -34,150 2,-44 15,-41 -1,-75 -10,10 -6,3 -13,20 -21,47 -1,35 -27,65l54 23c-14,47 -28,98 3,152 7,14 24,41 32,55 27,48 25,23 40,64 32,-19 17,-21 51,-33 0,47 -4,67 25,110l9 -44c1,-1 1,-5 2,-7 16,6 21,25 78,30 0,-136 -18,-208 32,-251l8 13c0,2 -6,12 -6,13 26,-20 19,-29 26,-62 -29,1 -2,-4 -25,11 -51,33 -14,19 -76,24 -4,-56 -2,13 13,-44l-21 5c-1,1 -4,2 -5,2 -16,3 -24,3 -52,-10 20,-28 0,-7 28,-27 9,-6 96,-27 54,-41 -8,-3 -56,-5 -81,35l-12 22c-1,1 -3,5 -5,7 -60,-12 -14,-5 -50,-71 -31,-59 -7,-68 27,-104 -13,-56 -27,-18 -22,-80 2,-39 -22,-173 -40,-198 -2,-2 -24,-25 -28,-28 -13,-11 12,-9 -35,-19 30,-28 27,-29 18,-70 77,7 9,67 72,-37 33,-54 10,18 16,-30l8 -56c6,-17 7,-4 10,-30 -64,-26 3,42 -61,-60l-10 -14c-2,-3 -14,-20 -15,-21 -18,12 -31,0 -51,31 -15,22 -22,43 -27,74 8,-8 32,-26 42,-28 21,-4 19,-1 45,25 -27,22 -63,45 -108,24 -8,-28 11,-71 -2,-128 -28,-1 -9,1 -30,8 -58,18 -61,23 -92,2 -14,-10 -20,-36 -90,-24 -31,5 -5,-10 -25,10l51 34c2,201 18,90 46,155 2,6 6,66 9,88 -67,-3 -28,-14 -85,0z"/>
   <path class="fil5" d="M3685 12140l54 79c-5,-1 -10,-3 -15,-5 -3,-1 -8,-3 -12,-4l-27 -11c-3,41 14,46 31,73 33,-12 44,-11 69,-27l21 42c37,-12 34,-30 50,9 -25,20 -41,20 -63,15 -76,-18 44,-10 -25,-8 7,31 13,-1 17,46l-14 10c-1,1 -5,4 -6,5 -2,1 -5,4 -7,5l-33 22c-2,1 -5,3 -8,4 21,21 30,21 46,55 3,6 4,13 9,25 7,-45 3,-31 23,-51l20 7 15 27c43,-4 67,-24 86,-51 82,96 56,27 73,101 55,-21 13,-10 63,1l249 26c8,-16 6,-16 15,-36l18 -38 -79 -44c11,-24 45,-55 68,-71l21 50c25,-52 20,-36 64,-26l7 -41c-69,-64 -35,12 -96,-25 -29,-18 -6,-3 -29,-30 -7,-9 -27,-28 -33,-34l-40 30c-15,-22 -24,-58 -19,-83l-62 7c-7,-14 -1,-3 -7,-22 -10,-31 3,-7 -10,-31 -41,16 -15,-10 -37,35l-5 20c-3,9 3,3 -6,18 -19,34 -38,52 -89,51l2 -68c-4,-25 -15,-41 -48,-42 -57,-2 -17,6 -51,19 -18,7 4,4 -19,4 -129,1 -52,-69 -52,-70 -38,-10 -28,-2 -40,-33 -18,24 -9,24 -36,35 -21,-20 18,1 -23,-21 -24,-12 6,-21 -31,-2 -15,-10 -5,-12 -5,15 -23,16 5,19 26,25 -45,-4 -4,-3 -20,13z"/>
   <path class="fil5" d="M3861 9352c-5,18 2,-27 5,14 0,1 1,4 1,6 0,1 0,5 0,6 -5,28 0,5 -8,21 -1,2 -3,5 -4,7l-19 27c-18,30 -7,6 -18,36 48,9 62,0 37,49 24,15 -1,8 42,-10 -19,107 65,39 97,18 29,39 -1,26 38,52 49,32 0,11 49,-9 17,16 40,21 62,24l-124 -192c-6,4 -14,10 -26,22 -2,-2 -4,-8 -5,-7 -5,14 0,-2 -17,-25l-34 -44c-21,-24 -8,-19 -31,-21 -66,-3 -2,18 -45,26z"/>
   <path class="fil5" d="M3181 11963c-16,40 -12,8 -12,61l-33 1 -13 19c84,-21 65,9 51,44 -1,1 -3,4 -3,7 34,-3 6,8 36,-14 3,27 -45,129 103,48 1,2 0,3 0,5l24 61c50,78 22,39 61,18 49,76 76,8 127,92l26 -41 32 42c14,-20 84,-53 17,-98 -3,-1 -6,-3 -8,-4l-17 -7c10,-23 71,-118 -8,-149 -1,-1 -5,-2 -6,-3 -1,0 -5,-1 -7,-2l42 -46c-27,-26 -9,-10 -27,-50 -44,15 -17,-13 -60,6 -42,19 -14,33 -58,77 -11,10 2,-8 -15,16 -18,27 -10,26 -46,53 -9,-8 -15,-12 -27,-23 20,-48 40,23 16,-41 -25,10 -19,11 -42,22 -26,13 -17,28 -39,-2 5,-14 -8,16 12,-8l11 -16c9,-33 -37,-93 -63,-126 -6,12 -13,-2 1,40 27,80 -1,-40 10,24 8,51 -8,23 -29,73 -14,-24 -10,-41 -20,-105 -32,12 -21,-2 -36,26z"/>
   <path class="fil6" d="M3745 9001c12,28 13,14 24,64 3,-34 -3,-16 17,-23l-7 -11c-3,-1 -4,-4 -5,-7l-4 -6c-33,-14 6,-13 -25,-17zm111 150l-3 2 -25 25 -20 -50c-20,13 -6,1 -21,15 -18,18 -8,0 -13,20l-3 39c-1,20 -20,15 68,72 70,-19 -31,-4 74,-31l2 -1 -59 -91z"/>
   <path class="fil6" d="M4282 12595c1,34 10,31 -4,53l-48 35 -30 -56c-13,13 -24,17 -36,28 -9,9 -50,72 -63,34 -18,-52 3,21 17,-56 -113,-27 -33,-61 -134,-71l38 78c-31,59 -36,-19 -27,63l10 1c65,11 23,13 60,22 50,13 8,-18 77,4 -23,24 -16,6 -24,39 14,11 29,22 40,30l20 -41c6,9 3,2 8,21 5,18 -2,9 5,21 37,-45 -7,-34 35,-60 22,79 16,-11 26,109 4,49 8,30 28,38 88,37 106,-10 115,-14 41,-21 28,-5 68,-12 29,-6 4,1 22,-7l65 -63 -29 1c-8,32 -46,50 -59,52 -46,7 -39,-17 -40,-18 -2,-2 -4,-5 -5,-7l-40 -31c72,-67 -29,-80 -6,-128 2,-5 18,-5 35,-49 17,-46 2,-42 33,-70 -23,-21 -17,-24 -42,-44 9,-58 14,-19 21,-65 -25,-1 -12,-8 -35,5 -7,4 -16,-28 -8,33l-12 80c-15,80 -60,45 -81,45z"/>
   <path class="fil7" d="M2660 8479l7 -24c-27,-13 -48,22 -50,-66 -27,9 -21,11 -53,11 9,-56 19,-16 7,-43 -37,-76 -85,-34 -116,-90 -2,-3 -7,-14 -8,-17l-10 -18c-42,84 17,64 13,147 -45,16 -88,11 -125,-8 -22,-11 12,-26 -55,-9 -7,27 -16,64 0,90 28,44 14,-4 56,3 53,7 40,61 45,128 57,15 72,26 82,106l-79 1c-1,0 -4,1 -6,1l-11 -1c-1,0 -4,-1 -5,-2 -26,-7 2,-24 -17,-8 -34,34 -9,31 19,40 15,5 -4,-32 25,11 1,1 2,5 3,6 0,1 1,5 1,6l18 -33 51 36c31,-34 53,-37 55,-100 1,-43 11,-68 -30,-93 -102,-65 -16,-41 -89,-96l-26 -16c-47,-26 -27,-3 -43,-29 49,-23 20,21 66,-6l13 -10c10,35 4,29 33,50 16,12 29,18 50,19l14 -21c6,-13 7,9 12,-36 -30,8 -24,13 -37,4 33,-47 105,19 153,49l37 18z"/>
   <path class="fil6" d="M3342 11158c-12,9 -10,8 -32,15 -28,-35 -29,-29 -65,-51l25 -79c-7,-5 -23,-18 -28,-21 -97,-63 -34,-7 -25,-64 -18,-22 -22,-21 -37,-52 -22,-47 -3,-36 -13,-57 -26,11 -22,31 -36,59 -8,-36 18,-52 -60,-29l-15 5c-24,6 -11,-5 -28,4 12,42 -5,0 60,23 46,18 36,15 92,17 -29,61 -11,32 -71,43 6,24 11,31 17,47 1,3 5,12 7,15 9,19 7,15 12,21 14,19 43,29 42,76 -1,58 -22,6 -5,84 10,49 -5,42 -17,92 62,41 68,8 104,30 26,17 -20,-1 18,14 32,-85 -10,-18 1,-70l55 -23 11 27c13,21 -11,13 10,11 15,-1 17,-20 16,-42 -3,-90 -1,28 -38,-95z"/>
   <path class="fil6" d="M1716 10910c2,2 6,1 7,4 0,2 37,30 71,34 -1,3 -3,4 -4,9 -6,35 -1,-3 -9,18 -35,90 10,25 43,134l13 33c32,59 -5,-26 16,21 -19,35 -19,14 -30,55l21 15c7,3 14,3 23,8 -2,54 -23,34 3,85 26,51 19,41 37,49 -26,50 -10,-17 -26,43 16,8 46,21 74,17 15,-26 37,-81 25,-111 -9,-23 -28,15 -11,-40 18,-59 30,8 15,-44 -3,-1 -7,-5 -8,-2 -1,2 -7,-2 -8,-2 -2,1 -6,1 -7,1 -26,9 0,16 -41,28 -33,10 12,9 -35,14 0,-35 12,-31 12,-51 1,-61 -5,20 -17,-58 59,-23 44,-10 61,-80 -128,-72 -67,-61 -104,-115 -24,-36 -74,-41 -85,-82 54,-12 82,11 129,12l15 66 61 -18 -36 -64c-62,6 -31,10 -135,-31 -2,-1 -5,-3 -7,-3 -2,-1 -5,-3 -7,-4 -2,-1 -5,-3 -7,-4 -5,-2 -14,-12 -29,-10 -31,6 -20,32 -20,73z"/>
   <path class="fil4" d="M3354 10638c56,-22 3,-16 53,-24 -37,204 31,104 -31,186 27,47 25,-4 28,45 3,54 -8,-5 -22,48 20,-14 32,-20 67,-17 3,0 6,1 9,1 2,1 5,1 7,2l43 20c27,-44 22,-57 88,-47 -9,-44 -2,-48 -12,-94 -14,21 -10,62 -47,27 -44,-41 11,0 -5,-83l0 -45c0,-1 -1,-4 -1,-6 -1,-22 -15,21 1,-27 13,-39 24,20 12,-33 -16,-6 -1,0 -17,2 -18,1 -7,6 -23,0 -34,-12 32,22 -12,-7l-39 -32 -44 39c5,-59 26,-46 -11,-77 -47,22 -25,27 -26,54l-1 15c-6,39 -10,-20 -17,53z"/>
   <path class="fil6" d="M3193 11647l49 33c-2,2 -6,1 -7,4 -1,3 -5,3 -6,4 -13,9 -2,-3 -18,13 -21,20 -12,4 -21,34 34,37 31,10 47,26 27,26 -11,35 75,50 52,9 56,2 94,20 -12,-46 -58,-32 35,-64 23,-8 35,-16 60,-4 17,9 6,6 17,16 18,16 -7,11 26,22l-70 -89c-7,-9 -11,-6 -21,-11 -50,33 16,18 -43,44l-2 -103c-11,-2 -25,-8 -25,-8 -96,-20 -43,19 -92,-49 -18,11 -43,21 -56,32 -40,36 32,22 -42,30z"/>
   <path class="fil5" d="M3901 11990c3,1 7,1 8,4 7,19 62,-1 69,-2 -20,52 -26,-9 -21,79 136,79 161,78 227,-34 34,11 26,59 68,-35 -56,28 -209,27 -249,-66l-10 -26c-62,35 46,-47 -21,25 -26,27 -20,12 -39,23 -1,1 -3,2 -5,3l-21 23c-1,1 -3,4 -6,6z"/>
   <path class="fil7" d="M4555 12231l6 -67c-3,-3 -15,-10 -25,-15 -17,-11 -11,-8 -13,-9 -16,11 -52,18 3,90l-22 28 -16 -51c-29,32 -33,47 -3,72 61,51 27,2 43,61 1,3 2,6 3,9 8,26 -1,10 11,27 1,-2 61,-155 70,-122 4,13 59,-13 59,-13 4,0 7,21 34,-3 25,-21 10,-15 2,-49 41,3 37,12 83,19 -15,-19 -31,-23 -48,-33l-1 -48c-106,-37 -47,-63 -100,-81 -2,60 35,47 28,103 -1,3 -4,10 -4,13 -7,34 2,34 -8,52 -30,54 -4,-38 -102,17z"/>
   <path class="fil8" d="M1987 12075c-14,5 -27,-8 -56,18 -18,16 -11,7 -22,27 30,45 0,-5 23,18l31 45c8,-43 -5,-8 23,-48 4,41 1,76 5,116 2,21 4,30 5,44 1,3 4,22 4,23 8,28 0,10 12,28l37 -49c8,-18 17,-46 23,-67l-26 -22c-9,-10 -16,-22 -24,-33 32,-50 34,-5 47,-65 -21,13 -1,2 -20,14l-32 22c2,-56 -9,-32 26,-58 -15,-24 -10,-11 -25,-37 23,-26 33,-30 22,-80 -6,-27 -15,20 2,-57 -64,4 -37,16 -46,58 -20,88 -9,16 -9,103z"/>
   <path class="fil5" d="M1602 9305c4,19 3,43 11,59 20,38 -21,12 13,4l7 -4c0,0 2,-1 3,-1l35 21c22,2 45,-26 45,-26 0,-62 8,-53 -50,-116 -1,-2 -4,-5 -5,-6 -25,-27 -52,-63 -100,-79l-18 41c-1,3 -3,5 -4,8 -4,9 -22,2 -8,49 13,44 54,42 71,50z"/>
   <path class="fil6" d="M2398 8786c12,37 -2,9 18,19 0,0 -1,-8 19,3 -22,56 4,45 5,52 13,64 -20,-39 -4,55 60,-11 34,49 126,-15 5,-61 6,-47 -12,-93l-8 -38c-2,-27 25,21 -6,-38l45 -17c-22,-12 -19,-13 -41,-21 -46,69 -35,57 -61,63 -1,0 -4,1 -6,1 -81,16 -53,-7 -75,29z"/>
   <path class="fil5" d="M2775 7532c16,13 29,25 48,28l-39 -60c-1,10 -5,21 -9,32z"/>
   <path class="fil5" d="M2971 11867l65 45c55,31 24,-13 65,-29l109 -16 -50 -64c-9,21 15,20 -73,22 -12,-52 5,-26 -20,-57 -9,7 -30,21 -40,30 -4,-65 11,-46 -36,-55 -10,23 4,13 0,57 -6,60 -11,4 -20,67z"/>
   <path class="fil6" d="M3090 8917l22 -34c90,55 -10,-13 105,16 4,-44 -8,-28 24,-39 -39,-29 -3,2 -21,-28 -19,-32 3,-12 -27,-37l-83 -50c-21,20 -14,13 -26,34 -27,49 -42,62 6,138z"/>
   <path class="fil6" d="M2389 10074c69,36 33,35 117,35 3,47 5,36 19,69 25,57 -5,46 47,58 22,-37 14,1 11,-57 0,-2 -1,-5 -1,-8l4 -31c-42,-27 -41,-18 -46,-77 -29,-4 -30,42 -32,-35l-46 48c-15,-68 -6,-103 -89,-104l17 21c15,32 6,43 -1,81z"/>
   <path class="fil5" d="M1006 11658c-10,39 -11,49 1,84 2,-3 5,-11 6,-9 12,22 10,-14 12,-15l37 -28c17,-9 4,6 21,-13 -9,-36 -8,-8 -36,-54 -62,-103 -19,-103 -80,-122 -2,3 -4,4 -5,9 0,5 -7,14 -8,16l-15 28c-4,7 -26,3 -8,50 19,45 47,31 75,54z"/>
   <path class="fil7" d="M3435 12842c-32,-1 -43,8 -61,-14 -2,-2 -6,-8 -7,-6l-52 -26 -14 28c3,2 6,1 7,4 7,23 -6,-6 14,8 19,14 6,1 21,21l26 30c1,0 5,1 6,2 1,0 4,1 6,1 -35,41 -34,17 -65,33l17 62c44,-34 35,-56 103,-65l17 79c14,-32 22,-52 39,-87 -20,-33 2,-4 -28,-33 -33,-33 -18,-5 -29,-37z"/>
   <path class="fil6" d="M1936 12609c57,15 -2,-23 49,1 42,21 50,38 68,70 2,-1 3,-7 3,-5l8 -17c6,-13 4,-9 18,-26 49,-54 29,-120 -37,-74 -39,-62 -21,-26 -55,-35 -26,-7 -20,-8 -63,-46l12 36c1,3 3,5 4,8 19,34 21,17 15,48 0,3 -2,6 -3,8l-19 32z"/>
   <path class="fil7" d="M3054 8522c56,43 24,70 81,86 0,67 -10,82 21,107 9,-21 3,-13 7,-28l19 -35c0,0 17,3 34,-20 -19,-53 -38,-22 -60,-63 -14,-25 3,-16 -22,-45l-12 -11c-44,-44 25,-72 -32,-96 -24,40 10,36 -26,93l-10 12z"/>
   <path class="fil6" d="M4246 11493c-26,-9 -27,-14 -56,-19 16,18 21,15 31,34 28,60 -24,23 65,87l37 46c8,-13 7,2 14,-34 6,-27 -1,-19 1,-39 5,-56 13,-14 26,-64 -34,-16 -34,-8 -59,-37l-10 -13c-1,-2 -3,-5 -5,-7l-44 46z"/>
   <path class="fil8" d="M2557 11240c72,58 25,45 -33,83 -15,10 -17,16 -36,27 58,45 21,39 63,76l8 -31c32,10 34,26 76,13 1,-1 3,-2 5,-3l-50 -66c-1,-18 15,-19 24,-46 7,-20 7,-44 9,-64 5,-11 18,27 14,-22 -53,-24 -35,2 -57,24 -1,1 -4,3 -5,4 -2,1 -15,3 -18,5z"/>
   <path class="fil5" d="M3765 9689l18 56c1,2 3,5 4,7 18,24 1,16 65,27 5,-13 12,-23 17,-38 23,-62 -12,-16 29,-58 40,-40 15,6 29,-43 -68,-14 -46,-27 -162,49z"/>
   <path class="fil9" d="M1260 11667c-45,-61 -52,-53 -87,-51l1 69c34,1 31,-81 71,45l8 38c11,-15 23,-39 30,-47 15,-20 26,-21 38,-39l38 -108 -87 47c-19,15 -5,2 -7,10 0,1 2,11 1,13 0,6 -2,14 -6,23z"/>
   <path class="fil5" d="M1907 10811l47 69c2,1 5,3 6,4 2,2 5,4 7,5 1,2 4,4 6,5 30,29 10,32 77,49 1,-34 -3,-27 16,-51l-27 -53 -67 -7 -13 -93c-30,20 -39,35 -52,72z"/>
   <path class="fil5" d="M3027 8228c12,43 8,51 41,85l121 -32c-38,-92 -95,-76 -162,-53z"/>
   <path class="fil6" d="M1517 11436c0,1 -34,1 -8,40 27,41 83,-16 61,116 64,36 60,32 79,22 9,-29 -18,0 -15,-50 3,-58 14,-29 1,-82l-62 14c-11,-26 -29,-64 -56,-60z"/>
   <path class="fil5" d="M3081 12329c1,53 4,35 16,71 22,62 -11,47 48,56 9,-12 44,30 -9,-83 24,-14 59,-26 81,-44l-24 -32c-36,8 -22,-1 -37,28l-29 -28c-29,35 -11,9 -46,32z"/>
   <path class="fil6" d="M3169 10514c-19,12 -26,-4 -24,83 83,-5 79,11 126,28 -13,-48 -28,-79 -13,-81 1,0 9,-1 12,-1l27 -8c-15,-11 -43,-28 -59,-39 -8,11 -19,31 -27,46 -47,-14 -29,-10 -42,-28z"/>
   <path class="fil6" d="M4658 12378c-3,-29 -1,-11 -20,-25l-23 35c31,56 35,17 74,61 15,16 0,10 24,29 10,-37 -4,-35 -14,-72 16,-38 79,-94 -33,-96l-8 68z"/>
   <path class="fil7" d="M2103 9047l90 9 18 85c36,6 17,8 51,15 12,-12 13,-14 23,-29l-57 -42c0,0 -2,-1 -3,-2l10 -54c-42,-25 -6,4 -36,-31l-47 32c-18,-34 2,-9 -25,-30 -14,18 -22,20 -24,47z"/>
   <path class="fil10" d="M3697 11230c17,62 0,46 -2,107l71 6c16,-55 -15,27 4,-18 19,-46 14,-14 47,-52 -22,-10 -24,7 -34,0 -12,-18 -12,-30 -21,-41 -36,-42 32,25 -14,-8 -8,-6 -7,3 -16,-17l-11 13c-17,9 -7,4 -24,10z"/>
   <path class="fil11" d="M2545 10878c57,2 22,-14 50,19 2,-2 4,-9 5,-7l49 -24c2,-34 6,-43 -22,-55 -27,-10 -12,4 -38,-7 -10,-4 -57,-59 -47,16 7,53 31,3 3,58z"/>
   <path class="fil12" d="M3736 11549c37,-13 17,-10 42,-17 28,17 45,25 82,31l-1 -56c-29,12 1,21 -48,5l-55 -34c-38,-35 -4,-24 -38,-36 -27,48 6,62 18,107z"/>
   <path class="fil10" d="M1826 9190l25 106c-32,-8 -35,-12 -61,-6 22,43 62,42 110,32 -6,-32 -16,-14 -40,-63l45 -33c-21,-28 -38,-27 -36,-50l-43 14z"/>
   <path class="fil6" d="M4939 11274l8 12c19,32 16,25 18,72 59,2 56,41 80,-41 -12,-31 -18,-33 -40,-58 -20,4 -62,10 -66,15z"/>
   <path class="fil11" d="M4367 10825l49 -9 3 -38c-31,-28 -26,-3 -65,-43 -12,-13 -13,-18 -26,-30 -30,-27 -34,-13 -43,-9 11,32 -3,-6 21,23 22,26 8,8 14,37 8,36 26,49 28,51l19 18z"/>
   <path class="fil6" d="M926 11329c9,78 35,12 30,116 49,-22 48,-3 70,-62 -9,-16 -34,-47 -41,-52 -28,-23 -58,-4 -59,-2z"/>
   <path class="fil7" d="M4341 11053c-15,41 -25,22 -35,61 60,-2 57,0 93,-27 0,-77 -32,-66 -62,-81 -44,-22 11,-13 -51,-17 31,50 35,24 55,64z"/>
   <path class="fil13" d="M2652 9548c5,20 0,18 13,35l43 21 6 -28c10,-18 19,-20 40,-26 -2,-3 -6,-11 -7,-10l-13 -38c35,-16 37,-3 46,-44 -35,-1 -33,3 -71,47 -1,2 -3,4 -4,6 -13,14 0,4 -16,16l-37 21z"/>
   <path class="fil14" d="M3599 12408c25,12 31,6 59,26 34,23 22,30 45,44l-1 -77 -29 -19c-18,-9 -25,-10 -46,-15l-3 -46c-34,27 -25,43 -25,87z"/>
   <path class="fil5" d="M1526 8959c8,40 4,22 21,50l25 51c40,-13 41,-14 55,-54 -14,-16 -38,-43 -55,-65l-46 18z"/>
   <path class="fil9" d="M3271 8771c-57,-13 -31,-23 -79,-26 4,27 3,30 25,48l38 33c31,-15 0,0 27,-21 15,-12 27,-18 43,-30 -7,-24 -2,-15 -16,-30 -9,-9 -25,-18 -32,-23l-6 49z"/>
   <path class="fil7" d="M3793 11735c18,35 19,29 42,44 -40,42 -7,54 9,66 -18,24 -7,5 -18,35 66,-16 72,-37 41,-85 -23,-36 -23,-6 -19,-70 -14,6 -16,6 -31,8 -2,0 -6,0 -7,0l-17 2z"/>
   <path class="fil11" d="M3090 11251c-1,2 -4,2 -5,5 -1,5 -9,8 -11,11 -18,23 -7,0 -20,35l107 -62 -21 -27c-19,-35 21,-27 -60,-43 -8,42 -8,37 10,81z"/>
   <path class="fil10" d="M5038 11040c19,-56 -62,-130 -96,-138 80,134 14,144 96,138z"/>
   <path class="fil6" d="M2133 9126c-4,35 -2,13 -9,36 -7,21 -7,3 -9,31 27,38 12,31 51,34 23,-38 15,-79 14,-125 -2,3 -5,3 -6,8l-22 32 -19 -16z"/>
   <path class="fil15" d="M4138 12846l-16 22 33 14c49,10 17,-8 51,37 1,2 4,5 7,8 45,-60 -1,-26 0,-124 -53,40 -10,22 -45,45 -49,32 -1,-3 -30,-2z"/>
   <path class="fil6" d="M3954 10090l-40 -8 -7 55 68 6 29 -60c-37,-7 -27,-3 -46,-22 0,1 -28,5 -4,29z"/>
   <path class="fil16" d="M2586 9889l3 -42c-21,-6 -22,-7 -39,-18 7,-18 29,-35 -9,-86 -16,-21 2,-9 -23,-18 -18,33 18,27 31,165l37 -1z"/>
   <path class="fil8" d="M3800 11647c-41,24 -37,23 -62,12 11,42 33,51 75,39 10,-39 3,-58 -8,-88 31,-14 19,-5 40,-42 -63,8 -56,20 -45,79z"/>
   <path class="fil17" d="M2697 11354c-43,-17 -34,-13 -51,-4 39,87 101,27 116,0l-15 -9c-2,-1 -13,-6 -16,-8 -17,-9 -8,-2 -26,-20l-8 41z"/>
   <path class="fil6" d="M3304 11467l83 -50c-5,-31 -4,-31 -22,-53 -16,7 -50,-12 -61,103z"/>
   <path class="fil9" d="M3163 11493l88 1c7,-71 -27,-28 -10,-93 -20,19 -45,16 -78,92z"/>
   <path class="fil7" d="M3823 13644c37,76 54,60 61,62 31,-57 8,-74 -39,-94 -17,25 -5,1 -22,32z"/>
   <path class="fil12" d="M3927 13584c1,0 6,52 70,5 24,-17 39,-37 53,-60 -30,-42 -1,-20 -35,-33 -11,31 3,42 -22,65 -27,25 -31,3 -66,23z"/>
   <path class="fil7" d="M2702 11904c56,27 72,-32 24,-90l-10 -10c-24,31 -21,48 -14,100z"/>
   <path class="fil18" d="M4339 11270c26,35 22,15 20,35 -2,16 -9,12 -20,18 32,11 38,14 55,-22l17 -39c32,-43 20,20 23,-42 -82,20 -6,22 -95,50z"/>
   <path class="fil19" d="M4391 12958c29,5 4,-7 26,14 61,58 61,1 56,-27 -7,-38 -46,0 -55,-47 -18,75 1,13 -27,60z"/>
   <path class="fil7" d="M4643 10646c-4,40 -5,59 13,85l22 -28c19,-23 14,-47 18,-98 -50,24 -11,6 -34,28l-19 13z"/>
   <path class="fil9" d="M3601 9233l52 -25 -1 -110 -44 -1c53,100 -10,57 -7,136z"/>
   <path class="fil6" d="M3111 9832c20,35 30,29 56,48l46 -23c-20,-34 -34,-55 -74,-43l-28 18z"/>
   <path class="fil17" d="M4556 11470l64 -3 13 -39c5,-26 4,-36 4,-62 -31,18 -2,-12 -34,23 -35,39 8,41 -47,81z"/>
   <path class="fil8" d="M2676 9503c31,-95 18,-39 64,-64 -19,-25 -35,-29 -85,-31l0 70c13,46 0,8 21,25z"/>
   <path class="fil10" d="M3147 12826c55,-6 58,-16 76,-57l-69 -36c14,68 1,33 -7,93z"/>
   <path class="fil5" d="M3518 11702l31 56c24,-28 45,-33 44,-74l-29 -17 -46 35z"/>
   <path class="fil9" d="M3741 12648l31 36c16,-21 -6,-11 17,-23l13 -5c2,0 9,-3 12,-5 -36,-56 -14,-45 -30,-76 -34,26 -7,7 -43,73z"/>
   <path class="fil20" d="M2344 8159l40 51c2,2 4,6 7,9 25,-69 1,-48 -17,-105 -5,-16 -8,-37 -10,-40l-20 85z"/>
   <path class="fil11" d="M3356 9270c20,20 16,21 44,35l7 -84c-52,-15 -54,-9 -51,49z"/>
   <path class="fil21" d="M3024 11328l44 64c0,0 37,14 -8,-86l-30 -41 -6 63z"/>
   <path class="fil10" d="M4328 10641c6,-48 17,-21 -19,-39 -15,40 -35,71 15,76 55,6 51,-67 4,-37z"/>
   <path class="fil17" d="M4124 10250c1,0 4,-1 4,0l36 3c1,1 5,2 6,2 15,4 -3,22 4,2 37,-28 27,-34 9,-65 -57,17 -60,23 -59,58z"/>
   <path class="fil22" d="M2126 9445c16,-13 3,-9 25,-7 0,0 -2,7 37,7 -11,-49 3,-41 -33,-68 -16,9 -27,-22 -29,68z"/>
   <path class="fil10" d="M2122 11064c38,-2 35,-3 56,-19l-68 -58c-17,53 -5,6 3,66 2,13 -20,-1 9,11z"/>
   <path class="fil17" d="M1907 9245c6,23 -8,-1 19,24 17,17 10,13 20,16 18,-23 25,-37 11,-77 -39,3 -36,3 -50,37z"/>
   <path class="fil14" d="M4886 10788l-57 3c6,39 -6,28 51,27 5,-17 12,-44 18,-60l1 -2 -18 -27c-1,8 0,25 5,59z"/>
   <path class="fil23" d="M2979 8347c5,-54 -9,-34 21,-77 -64,-30 -30,-4 -80,-50 -1,39 9,34 28,58 24,34 11,36 31,69z"/>
   <path class="fil24" d="M3775 13488c2,-5 22,-59 23,-65 6,-26 7,-5 0,-30 -8,-30 -14,-26 -14,-28 -35,36 -4,17 -10,47 -4,19 -8,-1 -12,30 -7,58 8,38 13,46z"/>
   <path class="fil25" d="M2617 11472c145,-70 76,-5 131,-34 -19,-15 -23,-22 -43,-32 -48,21 -77,36 -88,66z"/>
   <path class="fil26" d="M3374 12828c18,22 29,13 61,14l7 -55c0,1 19,14 21,15l24 2c-22,-19 -17,-32 -69,-9l-22 10c-54,43 41,-14 -22,23z"/>
   <path class="fil27" d="M2809 9858c5,-1 27,-5 35,-8 42,-11 -6,5 18,-5 21,-8 13,-7 21,-13 -22,-26 -38,-31 -74,-29l0 55z"/>
   <path class="fil28" d="M3380 13351c75,66 38,51 80,42 -1,-24 0,-19 -12,-34 -1,0 -15,-14 -17,-16l-17 -10c-3,-2 -7,-4 -10,-6 -10,47 4,6 -24,24z"/>
   <path class="fil6" d="M2373 9898l35 42c30,-23 32,-14 44,-55 -35,-8 -48,-9 -79,13z"/>
   <path class="fil9" d="M4420 12383c50,-6 42,-26 79,-11 1,-39 1,-35 -14,-55 -24,-1 -55,45 -65,66z"/>
   <path class="fil29" d="M3978 10943c14,8 7,6 26,11l27 5c3,1 6,1 9,1 2,0 6,0 8,0l21 -1c11,2 1,-6 20,17l-2 -49 -53 9c-2,0 -5,-1 -7,-2 -51,-9 -25,-15 -49,9z"/>
   <path class="fil30" d="M4110 10518l49 -10c11,-45 -1,-78 -41,-78 24,40 8,46 -8,88z"/>
   <path class="fil31" d="M4732 12397l25 30c25,21 25,12 44,1l-36 -68 -28 32c-1,1 -4,4 -5,5z"/>
   <path class="fil32" d="M4828 10735c-1,-3 -3,-11 -4,-9l-13 -41c-6,-34 5,-24 -39,-32 6,47 2,77 56,82z"/>
   <path class="fil33" d="M3685 12199l27 11c4,1 9,3 12,4 5,2 10,4 15,5l-54 -79 -34 24 34 35z"/>
   <path class="fil10" d="M3501 10550l-10 -89c-26,11 -31,-9 -30,41 2,39 18,36 40,48z"/>
   <path class="fil34" d="M2115 9193c2,-28 2,-10 9,-31 7,-23 5,-1 9,-36l-33 -2c-7,18 -4,19 -10,28 -24,35 -5,-24 -20,28l45 13z"/>
   <path class="fil35" d="M3270 13217c26,-4 25,4 48,-20l-13 -42c-14,-28 2,-9 -25,-29 5,42 14,9 3,44 -9,28 -17,2 -13,47z"/>
   <path class="fil5" d="M3531 9591l15 -55c-34,-6 -23,-4 -54,-14 5,54 -3,55 39,69z"/>
   <path class="fil7" d="M1864 10606c-1,3 -2,4 -2,9 0,3 -2,6 -2,8 8,51 24,47 45,57 4,-48 1,-77 -41,-74z"/>
   <path class="fil6" d="M2877 7803l11 39c10,16 7,11 17,21l30 -27c2,-2 5,-5 7,-7 -6,-7 -17,-37 -65,-26z"/>
   <path class="fil9" d="M3603 13249l71 49c2,-10 4,-14 3,-23l-18 -39c-2,-1 -5,-4 -6,-5l-32 6c-10,8 7,2 -18,12z"/>
   <path class="fil30" d="M2459 10938c6,-20 14,-37 22,-54 19,-40 21,-20 25,-61 -32,25 -80,64 -47,115z"/>
   <path class="fil36" d="M4718 10547c5,-45 12,-43 16,-44l-17 -28c-26,7 -26,19 -23,61 18,22 -5,6 24,11z"/>
   <path class="fil37" d="M1361 11418c49,-12 75,-27 60,-78 -37,23 -10,1 -33,33l-14 19c-5,7 -7,7 -13,26z"/>
   <path class="fil6" d="M1494 11864c-34,24 -20,-8 -23,51l55 -5c-1,-41 -14,-46 -32,-46z"/>
   <path class="fil38" d="M4734 10853c15,15 -10,26 38,-1 13,31 57,59 42,17 -3,-9 -9,-10 -15,-16l-47 -31 -18 31z"/>
   <path class="fil28" d="M3166 10213c8,-15 12,-26 20,-40 -39,-37 -5,-18 -48,-37 -5,41 -1,49 28,77z"/>
   <path class="fil7" d="M1798 11241c-3,-49 1,-50 -39,-64 -31,43 4,53 39,64z"/>
   <path class="fil39" d="M2249 10298c35,-17 24,-2 36,-37l-7 -2c-47,-12 -27,-15 -44,-40 -11,59 -14,36 15,79z"/>
   <path class="fil40" d="M2016 11689c-43,15 -20,-28 -33,37l49 10c-17,-36 -7,-42 -10,-84 -40,-7 -21,9 -6,37z"/>
   <path class="fil13" d="M5141 11298c62,24 70,-47 62,-71l-62 71z"/>
   <path class="fil27" d="M3815 12431l49 10c-15,-30 -8,-15 -6,-60 -21,9 -16,8 -41,-1l-2 51z"/>
   <path class="fil41" d="M3709 10489c15,-7 21,-11 34,-19 -15,-45 11,-47 -25,-61 -17,26 -11,46 -9,80z"/>
   <path class="fil42" d="M2660 8479c12,29 -5,-1 15,14 1,0 4,1 5,2 52,43 -19,10 45,46l2 -60 -67 -2z"/>
   <path class="fil43" d="M3136 12025l33 -1c0,-53 -4,-21 12,-61 -53,8 -51,9 -45,62z"/>
   <path class="fil44" d="M2942 8489c35,58 23,-14 56,52 1,-23 0,-43 -13,-59 -34,-43 -37,2 -43,7z"/>
   <path class="fil7" d="M2425 10443l45 -26c1,0 3,-1 5,-2 -16,-14 -39,-30 -54,-25 -27,10 -6,18 4,53z"/>
   <path class="fil11" d="M2265 11024c13,6 -14,20 42,9 16,-4 17,-8 32,-17 -20,-9 -45,-21 -60,-27l-14 35z"/>
   <path class="fil45" d="M2358 10750c-2,-29 -23,-55 -56,-56 -4,35 -21,10 16,41 10,8 10,16 40,15z"/>
   <path class="fil7" d="M5021 11240c28,42 42,39 53,-11 -11,-6 20,-22 -32,-8 -31,8 -20,17 -21,19z"/>
   <path class="fil22" d="M3538 10998c6,1 9,1 10,3l47 8c-10,-34 -18,-50 -55,-54l-2 43z"/>
   <path class="fil37" d="M4662 11086c-21,-11 -50,-19 -75,-22 19,27 58,88 75,22z"/>
   <path class="fil30" d="M3942 11164l47 6c13,4 -5,9 46,17l-25 -52 -68 29z"/>
   <path class="fil17" d="M1798 12047c29,4 14,-3 31,15 7,-20 0,-32 -4,-48 -11,-44 14,-21 -27,-37l0 70z"/>
   <path class="fil30" d="M3266 9632c-1,-30 19,-18 -43,-55 -24,-15 1,-7 -36,-16 19,70 -11,6 39,38 40,27 -8,14 40,33z"/>
   <path class="fil7" d="M2782 12185c44,-6 6,17 42,-25 -28,-20 -14,-18 -50,-32 -4,42 -13,25 8,57z"/>
   <path class="fil46" d="M3133 9932l8 37 31 -11c31,-13 27,27 25,-35 -24,13 -23,5 -47,6 -17,1 -3,-3 -17,3z"/>
   <path class="fil47" d="M3789 10206c38,40 -16,32 54,43 -14,-35 -3,-11 -29,-43l27 -33c-32,8 -35,6 -52,33z"/>
   <path class="fil14" d="M1934 8990c54,-14 79,-43 55,-80 -6,9 -15,28 -24,38 -24,28 -19,5 -31,42z"/>
   <path class="fil30" d="M2858 8180c-19,-30 -47,-43 -79,-60 11,27 17,37 35,52 22,18 24,17 44,8z"/>
   <path class="fil19" d="M1495 11548c9,40 9,27 59,49 -1,-4 -1,-15 -2,-13 -2,6 4,-36 -37,-40 -29,-3 -9,-1 -20,4z"/>
   <path class="fil19" d="M2699 9364l50 16c-6,-39 8,-7 -14,-40 -15,-21 -7,-15 -30,-22l-6 46z"/>
   <path class="fil48" d="M2806 12339c3,0 8,-5 9,-2 3,6 10,-12 31,1 -17,-24 -8,-6 -13,-32 -13,-64 14,-15 -18,-44 -17,31 -11,35 -9,77z"/>
   <path class="fil12" d="M2595 10330c28,-13 28,-16 48,-58 -98,27 -55,45 -48,58z"/>
   <path class="fil12" d="M2099 11912c-9,-46 -14,-50 -56,-57 9,44 12,47 56,57z"/>
   <path class="fil12" d="M3118 11790c0,0 18,61 44,-36 -24,4 -56,2 -44,36z"/>
   <path class="fil37" d="M4494 12967c19,20 10,13 31,28l4 -45c-9,-28 -12,-19 -23,-31l-12 48z"/>
   <path class="fil12" d="M2720 8797c-33,-26 -36,-22 -86,-25 29,28 48,46 86,25z"/>
   <path class="fil7" d="M1784 12219c12,-33 -3,-41 -27,-68 -14,48 -11,50 27,68z"/>
   <path class="fil12" d="M4685 11250c3,-41 15,-39 -39,-50 0,24 -11,5 5,30 24,38 -2,13 34,20z"/>
   <path class="fil7" d="M2628 9231c28,-23 24,-24 37,-50l-48 0c0,7 -1,18 1,23 7,26 3,15 10,27z"/>
   <path class="fil28" d="M1921 11886c38,-11 26,-12 61,-19l-49 -37 -12 56z"/>
   <path class="fil49" d="M2473 9733c49,4 5,3 28,-11 10,-58 6,7 -23,-43 -23,34 -24,17 -5,54z"/>
   <path class="fil11" d="M3630 9485c54,-9 47,-4 36,-55 -36,24 -24,10 -36,55z"/>
   <path class="fil50" d="M2611 10388c35,-11 55,-20 69,-58 -44,3 -6,-15 -49,31l-20 27z"/>
   <path class="fil51" d="M2606 9382c24,-22 13,-7 23,-35 -28,-22 -16,-12 -41,-22 0,15 3,34 4,37l14 20z"/>
   <path class="fil37" d="M4172 11108c31,20 47,8 44,-21 -14,-9 22,-33 -27,-4 -19,11 -12,7 -17,25z"/>
   <path class="fil4" d="M4517 10504c-18,-59 0,-31 -44,-41 8,55 -17,35 44,41z"/>
   <path class="fil52" d="M2072 11275c-12,-40 -19,-41 -62,-45 14,47 -19,5 62,45z"/>
   <path class="fil52" d="M2517 9557l-14 -42c-1,-3 -3,-7 -4,-9 0,-2 -2,-6 -3,-9 -16,18 -12,-12 -13,26 -1,60 33,34 34,34z"/>
   <path class="fil13" d="M1504 11213c17,-14 12,6 19,-21 14,-46 -8,-40 -8,-40 -17,19 -27,26 -11,61z"/>
   <path class="fil13" d="M4964 11482c17,36 6,7 51,34 -2,-41 -13,-56 -51,-34z"/>
   <path class="fil14" d="M3971 9861c11,-15 9,24 9,-20 1,-32 -4,-20 -9,-30 -10,5 -18,-11 -21,22 -3,40 -14,9 21,28z"/>
   <path class="fil18" d="M4947 11185c15,26 8,25 36,40l10 -49 -46 9z"/>
   <path class="fil35" d="M2633 9146c16,17 19,24 50,28l-13 -44c-11,3 -36,4 -37,16z"/>
   <path class="fil53" d="M3940 12308c19,16 -4,8 31,12 15,-25 13,40 8,-44 -31,17 -30,3 -39,32z"/>
   <path class="fil10" d="M2103 10982c-12,-48 6,-37 -49,-40 19,32 4,30 49,40z"/>
   <path class="fil38" d="M4152 11552l48 17c0,-38 3,-19 -9,-41 -24,5 -31,3 -39,24z"/>
   <path class="fil16" d="M2451 12418c-21,-32 -23,-28 -57,-48 9,52 -5,33 57,48z"/>
   <path class="fil54" d="M2931 12126c36,0 39,-9 38,-47 -29,16 -37,11 -38,47z"/>
   <path class="fil32" d="M1462 9289c1,-1 13,8 6,-26 -12,-55 -2,-10 -17,-31 -12,45 -26,41 11,57z"/>
   <path class="fil54" d="M2407 10841c18,-21 23,16 11,-28 -10,-40 -9,-16 -24,-27 -11,28 -6,30 13,55z"/>
   <path class="fil45" d="M3270 10382c-9,-20 2,-3 -11,-25 -17,-27 -6,-9 -15,-18 -41,38 -25,37 26,43z"/>
   <path class="fil17" d="M2838 8482l45 -25c-11,-9 -2,-6 -22,-15 -10,-4 -14,-4 -24,-7l1 47z"/>
   <path class="fil9" d="M3090 9734c13,-7 17,5 21,-16 11,-62 1,-14 -15,-33 -18,30 -23,13 -6,49z"/>
   <path class="fil29" d="M3342 11158c6,-7 15,-5 20,-28l-48 -46c-5,30 23,17 28,74z"/>
   <path class="fil17" d="M2232 12259c9,10 -15,22 31,16 22,-3 20,4 20,-30l-51 14z"/>
   <path class="fil7" d="M2801 10463l50 -16 -35 -31c-13,30 -7,10 -15,47z"/>
   <path class="fil55" d="M2560 11171c-5,-45 -2,-41 -31,-53 -15,41 2,25 31,53z"/>
   <path class="fil22" d="M2747 9622c54,-31 30,-44 24,-56 -23,24 -19,18 -24,56z"/>
   <path class="fil54" d="M4351 10487c9,-36 1,-32 -33,-44 6,30 -2,35 33,44z"/>
   <path class="fil35" d="M1797 9006c11,12 -3,12 21,17 30,8 27,-6 27,-6 -10,-11 15,-7 -17,-16 -59,-16 -11,-3 -31,5z"/>
   <path class="fil13" d="M4125 10144l30 -27 -37 -16c-4,10 -9,2 -5,18 5,24 -4,8 12,25z"/>
   <path class="fil39" d="M4146 10899c21,32 20,37 50,6 -5,-2 -21,-10 -23,-10 -24,-5 -15,-2 -27,4z"/>
   <path class="fil19" d="M3190 10332c-10,-27 5,-6 -11,-28 -28,-41 -3,-6 -27,-26 8,49 -3,40 38,54z"/>
   <path class="fil21" d="M3191 9203c33,15 13,25 51,1 -3,-2 7,-12 -23,-15 -8,-1 -27,4 -28,14z"/>
   <path class="fil30" d="M3894 11282c1,-4 7,-9 7,-28 0,-12 -3,-15 -4,-20 -37,22 -42,13 -3,48z"/>
   <path class="fil37" d="M2145 12727c55,-3 31,21 33,-37 -34,16 -21,3 -33,37z"/>
   <path class="fil12" d="M2989 12917c32,-15 24,-6 36,-38 -48,3 -29,-13 -36,38z"/>
   <path class="fil14" d="M2965 8133c-3,-23 5,-11 -10,-26 -25,-25 1,-4 -33,-19 15,33 12,36 43,45z"/>
   <path class="fil54" d="M3473 13190c7,28 19,17 33,17 -3,-21 19,-7 -7,-23 -31,-19 -11,-6 -26,6z"/>
   <polygon class="fil35" points="3162,10000 3204,9999 3178,9959 "/>
   <path class="fil56" d="M4471 10692c4,-38 8,-32 -27,-47 13,63 5,29 27,47z"/>
   <path class="fil57" d="M3674 9008l11 -44c0,0 -4,-14 -24,12 -17,24 -3,23 13,32z"/>
   <path class="fil13" d="M3250 8445c56,-6 39,5 46,-29 -25,3 -35,4 -46,29z"/>
   <path class="fil58" d="M1968 9180c29,-9 41,1 11,-37 -18,17 -24,9 -11,37z"/>
   <path class="fil38" d="M3269 8644c-8,-45 10,-29 -36,-32 25,50 -4,21 36,32z"/>
   <path class="fil59" d="M3068 12967l11 -21 -43 -22c19,43 0,27 32,43z"/>
   <path class="fil60" d="M3288 12393c26,-7 12,18 19,-11 8,-32 3,-8 -9,-28 -2,2 -6,-6 -13,18 -12,43 -7,6 3,21z"/>
   <path class="fil13" d="M4441 11534c-3,-40 8,-23 -31,-32 6,27 -28,22 31,32z"/>
   <path class="fil61" d="M4938 11189c-9,-31 9,-17 -32,-39 6,47 -12,30 32,39z"/>
   <path class="fil16" d="M825 11560c-9,-74 -5,-36 -23,-47 -10,30 3,29 23,47z"/>
   <path class="fil62" d="M3882 13320c7,10 -26,17 20,16 2,0 20,-12 21,-13 -19,-14 -16,-19 -41,-3z"/>
   <path class="fil41" d="M2056 11546c44,-60 3,-33 0,-38 -16,32 -6,32 0,38z"/>
   <path class="fil25" d="M2404 12535c38,-25 14,-33 -6,-49l6 49z"/>
   <path class="fil63" d="M2320 10337c30,-13 29,1 11,-34 -17,11 -9,-16 -16,15 -5,23 -5,8 5,19z"/>
   <path class="fil19" d="M3465 11147c22,37 21,37 37,-8l-37 8z"/>
   <path class="fil18" d="M3161 11651l-48 -36c0,0 6,28 27,38 40,18 9,3 21,-2z"/>
   <path class="fil64" d="M3618 13100c2,1 6,1 7,4 1,3 6,3 7,3 20,-1 13,-2 24,-7 -14,-18 -35,-32 -38,0z"/>
   <path class="fil52" d="M2480 10701l-48 -23c10,22 17,42 48,23z"/>
   <path class="fil65" d="M1143 11722c-14,-29 -7,-20 -33,-30 8,30 -18,21 33,30z"/>
   <path class="fil54" d="M4694 10833c25,18 21,11 37,0 -15,-11 6,-26 -37,0z"/>
   <path class="fil38" d="M2072 8770c-11,-42 9,-19 -27,-28 10,33 -10,13 27,28z"/>
   <path class="fil55" d="M4038 13052c9,37 -11,13 27,31 -11,-38 7,-17 -27,-31z"/>
   <path class="fil52" d="M3726 10957c-14,4 -39,5 -22,20 15,13 16,-5 22,-20z"/>
   <path class="fil22" d="M4367 10591l13 6c17,-1 10,-1 20,-6 -25,-22 37,-15 -13,-10 -23,2 -5,-2 -20,10z"/>
   <path class="fil66" d="M3514 11093c37,-5 28,10 33,-24l-33 24z"/>
   <path class="fil22" d="M1424 11077c22,-19 16,-12 5,-27l-5 27z"/>
  </g>
  <g id="_1788153610000">
   <path class="fil67" d="M14185 20859l364 3125 124 -12 -351 -3128c894,-289 591,-1473 -242,-1385 -352,37 -645,357 -617,753 28,378 322,639 722,647zm-161 -1250c-742,212 -435,1273 277,1101 269,-65 510,-342 414,-703 -70,-261 -359,-493 -691,-398z"/>
   <path class="fil67" d="M13520 22186l259 2117 121 -13 -244 -2120c867,-236 626,-1476 -239,-1384 -352,37 -646,357 -617,753 27,378 320,638 720,647zm-160 -1250c-741,211 -436,1273 278,1101 268,-65 509,-343 413,-703 -70,-261 -358,-494 -691,-398z"/>
   <path class="fil67" d="M15191 22186c62,284 90,687 127,985l90 745c17,151 9,125 147,106l-226 -1840c113,-68 273,-89 404,-274 374,-527 -43,-1188 -647,-1122 -817,90 -852,1374 105,1400zm-160 -1250c-736,194 -441,1292 293,1097 259,-69 482,-350 402,-683 -66,-270 -348,-505 -695,-414z"/>
   <path class="fil6" d="M6631 20362l90 43 -126 54c-48,14 -16,-14 -52,30 -129,160 -201,218 -143,340 -100,30 -114,89 -168,157l-14 16c-137,151 5,95 -78,174 -29,28 -30,4 -53,40 -39,61 6,-36 13,45 10,109 -145,192 -189,265l-113 101c-4,2 -9,5 -13,7 -90,57 -27,-26 -74,63 13,27 26,-48 77,78 -38,72 -75,98 -159,87 24,30 50,37 47,71l-96 24c-4,64 -14,105 -20,179l-48 -126c-84,120 -40,90 -62,172l-13 62c72,406 -59,207 -186,504 -24,58 -51,10 35,74 -82,66 -80,133 -82,229 -1,67 7,50 -49,93l-20 185 82 51 -64 50c-61,26 -1,-21 -57,-8 99,253 24,137 153,232 52,39 1,-8 10,77 22,7 35,14 59,23 4,2 10,5 14,6l99 52c118,133 166,16 144,-107l-24 -146c-49,-157 141,-225 -39,-262 5,-4 14,-14 15,-10l32 -26c22,-46 -52,-101 3,-176 156,31 -76,-10 66,58 1,-90 -39,-26 45,-80 26,-17 90,-41 126,-47l-22 -183 84 -25c-54,-78 -21,-20 -97,-70 117,-91 7,57 126,-15 112,-67 20,-254 59,-348 234,-59 69,-39 193,-217l98 31c-3,12 -6,14 -6,17l-4 18c-4,20 -14,9 -3,31 65,-46 20,-15 48,-87l34 -95c-128,-10 -161,58 -170,-106 137,37 301,-45 152,-131 -44,-26 -5,-11 -62,-25 35,53 6,3 31,38 38,53 5,-14 37,57 -72,-5 -150,33 -157,-4 -16,-77 -64,78 32,-49 32,-42 21,-38 55,-75 55,6 154,24 174,25 12,-23 24,37 18,-71 -4,-71 1,-29 -33,-95l206 -32 -79 -84 25 -59c40,-74 110,-128 124,-211 6,-34 -54,-29 57,-79l-55 -27c-25,-28 22,-1 -23,-20l-38 -10c-3,-1 -10,-1 -15,-4 -6,-93 19,-114 77,-144 127,-67 15,-24 134,12 46,-42 64,-42 81,-114 -123,23 -128,75 -230,11 4,-4 12,-14 14,-10 3,4 11,-7 15,-9 76,-46 50,-14 91,-93l33 -37c3,-3 10,-8 14,-13l-113 -3c17,-51 21,-38 55,-77 23,-27 42,-59 131,-84 -70,-58 10,-67 -5,-135l-9 -19c-77,-146 12,101 -23,-34l115 -117c34,-38 18,-5 40,-61l-88 36c-88,10 -25,25 -56,-29l70 -15c28,-2 86,4 116,5 -39,-97 -49,-48 -62,-102 53,-66 7,7 59,-42 3,-3 9,-9 11,-12 2,-2 8,-7 10,-12 -63,-2 -55,-13 -94,-8 -176,22 11,26 -89,94 -57,39 -32,-3 -66,30 -24,23 -50,112 -74,152l-114 81z"/>
   <path class="fil6" d="M6473 19153c-20,65 -44,132 -79,180l-114 74 82 57c-168,69 -112,36 -230,161 -87,92 -141,106 -75,221 -87,22 -157,129 -214,196 -106,122 71,0 -62,133 -31,30 -34,6 -42,40 -8,34 53,-4 -23,105 -51,75 -100,109 -173,171l-53 44c-21,26 -10,17 -18,72 -14,97 15,31 -93,98 42,36 46,26 64,107 -49,42 -45,25 -82,78 -2,-1 -6,-8 -6,-5 -1,2 -6,-5 -7,-5 0,0 -10,-7 -13,-8 -8,-2 -16,-6 -48,5 14,25 46,38 49,70l-100 28c-5,72 1,145 -39,201l-27 -120 -77 72c5,83 19,60 20,77l-27 120c-9,15 -19,22 -23,28 -109,165 -31,74 -155,172 -144,113 33,110 -103,161 29,43 -33,14 64,56 -96,43 -76,153 -92,216 -21,79 -27,-3 -48,117 -18,98 11,69 -31,156l76 71c-23,19 -78,7 -79,8 95,240 133,203 171,289 15,36 -16,14 34,54l103 49c16,8 221,187 174,-59 0,-3 -2,-8 -2,-11l-17 -111c-28,-92 3,-131 41,-233 -36,-60 -9,-35 -87,-56 74,-68 43,-33 23,-149l111 37c-46,-95 -41,-40 23,-81 36,-22 94,-45 127,-54l-12 -168c-6,-3 2,-11 3,-7l70 -57 -100 -53c94,-53 59,9 119,-3 78,-16 47,-58 78,-125 -104,-65 -104,-41 -94,-259 122,-21 152,-40 187,-165 153,23 70,71 209,-15 -114,-76 -118,88 -166,-65l195 -45 16 -96c-61,2 -121,45 -196,4 -50,-28 -20,-11 0,-39 8,-11 53,-64 59,-70l151 42c4,0 11,1 15,0 106,-2 27,-107 2,-184 82,3 146,-16 210,-38 -45,-82 -23,-20 -82,-87l106 -190c11,-27 25,10 56,-48 55,-103 -75,49 0,-102l-91 9c21,-122 -23,119 3,-58 33,-224 215,-42 298,-224 -90,-18 -108,28 -224,-8 14,-55 13,-13 84,-65 55,-42 47,-24 24,-104l137 12c-82,-51 -84,-34 -155,-58 58,-71 104,-121 198,-147l-15 -145c-5,-72 -25,23 -17,-18 41,-103 129,-111 211,-202 -33,-70 14,-12 -60,-64 19,-45 10,-13 29,-36 29,-36 16,8 40,-50 -225,-78 -31,166 -211,96z"/>
   <path class="fil6" d="M13402 15270l-5 85c52,26 56,75 95,116 50,52 91,31 111,146 5,-5 11,-20 13,-15 10,23 34,-39 46,-44 38,133 -20,75 51,186 210,330 147,50 223,245 56,146 141,165 204,270 42,69 138,96 198,274l40 170c5,2 13,-2 15,5l95 38 4 136 80 -60c-5,156 41,128 173,173 -5,4 -13,0 -15,7 -9,23 -29,11 -64,28l-33 17c39,38 22,42 60,63l167 94c126,109 38,50 100,161 77,136 110,-38 132,129 87,-5 54,-22 110,-28 100,-11 158,108 243,140 207,78 96,-9 198,15l-1 17c0,1 -1,7 -1,9 0,29 -11,12 2,35 89,-43 102,-19 149,-33 128,-38 -8,-50 88,-94 19,-5 46,79 202,-72 44,-43 44,13 29,-95l-309 -65c-10,-7 -68,-61 -116,45 -41,-35 -53,-38 -130,-30 20,-76 30,-59 45,-142 -5,-2 -12,-12 -14,-8 -9,21 -38,-24 -63,-37l-163 -101c-3,-2 -8,-6 -11,-8l-21 -13c-60,-44 6,-109 -157,-123 -135,-11 -91,17 -85,-139 -3,-1 -9,-6 -10,-3l-115 -79 66 -123 -46 -68c-83,89 11,143 -92,132 -3,-5 -4,-19 -4,-16 -1,7 27,-108 -13,-158 -95,3 -88,60 -98,157 -5,-131 -48,-11 -2,-142 -76,32 -37,-15 -64,63 -19,-169 -102,-53 68,-289 -72,-6 -97,1 -156,38l22 -171c-79,23 -105,64 -134,65 -60,0 -90,-114 -91,-112 0,3 -8,0 -8,0 -29,-6 -16,34 -13,-16 2,-29 5,-52 -25,-69 -51,-22 40,115 -95,-36l-4 106c-64,-19 -85,-31 -106,-95 -41,-127 10,14 48,-125 -70,-112 -53,-78 -113,-20l-62 57c7,-142 45,-129 -78,-138l58 -111c-10,-5 -26,-12 -29,-14l-40 -33c2,81 -13,113 -38,174 -36,-46 -45,-151 -55,-210 -103,65 -172,-57 -183,-148 -3,6 -6,8 -8,19l-23 54c-27,56 31,2 -34,55 -34,-61 28,-96 39,-176 -56,13 -54,27 -82,57l-14 -36c-1,-2 -4,-8 -5,-10l-48 -96c-42,19 -60,30 -98,20z"/>
   <path class="fil6" d="M7202 21447c-38,-21 -24,-23 -26,-30 -13,-39 80,6 -28,-54 -119,142 64,41 -167,329 -41,53 -44,76 -42,150 -103,-28 -72,-9 -61,53l20 63 -95 31 85 55 -66 92c-2,3 -4,9 -6,12l-18 42c-3,3 -134,74 -156,83 63,34 32,-20 79,58 -34,72 -75,111 -146,90l78 54c-107,59 -138,67 -120,206 -5,-4 -11,-18 -13,-13 -3,5 -19,-18 -24,-22 -44,-33 2,-23 -33,-15l-38 86c-3,139 -11,-96 9,40 11,73 -51,27 -11,105l-135 2c15,176 -88,88 -137,234 -15,44 0,28 -44,68 65,75 58,25 44,71l-47 180c-1,3 -3,9 -5,12l-37 120c-5,52 3,50 -9,115 56,40 70,45 56,90l-12 28c-26,64 104,132 108,134l249 139c71,34 79,36 129,-21l-32 -124c-24,-84 -61,-50 18,-231l-80 -37c58,-25 42,-36 6,-104 105,-21 129,-55 214,-105 -80,-68 -16,-42 -58,-110 36,-70 -19,-13 72,-72l-74 -62c3,1 50,8 53,8 4,0 12,0 16,0l85 -31c-23,-133 -16,-185 -16,-314l104 -20c2,-5 3,-15 3,-13 1,3 3,-9 4,-12l43 -125c86,33 58,23 78,74l59 -150c-191,-18 -77,63 -158,-76 128,36 182,20 194,-118 -43,12 -133,46 -180,37 -103,-20 -4,5 24,-114 120,37 -27,-10 84,66 20,-97 77,12 97,-95 9,-47 -44,-58 -80,-100l225 -14c-38,-73 -18,-47 -84,-87 76,-88 81,-88 122,-185 30,-70 -20,-57 -65,-124 -27,-39 -3,-56 21,-82 91,-94 76,-36 173,-25 51,-117 24,-94 -25,-182 -49,-2 -42,-13 -79,10 -45,26 -9,2 -10,28l3 18c-72,5 -89,15 -142,-24 42,-40 50,-31 111,-53 18,-95 22,-28 -22,-101l127 8c-23,-31 -83,-35 -115,-46l-53 -22 193 -163c-67,15 -155,15 -202,61l-48 113c0,2 2,8 2,11l11 100z"/>
   <path class="fil6" d="M13513 14402l-11 97c4,2 10,-1 11,3l59 76c45,79 115,38 137,163 5,-4 12,-19 14,-14 14,31 22,-24 24,-25 27,-27 -5,-5 21,-19 26,87 51,246 157,298 60,29 76,21 100,2 23,115 40,97 100,154l41 46c3,3 8,7 11,10l47 42c15,18 29,44 32,46 2,2 6,6 8,8 2,1 7,4 10,5 2,2 8,3 10,4l51 17c4,2 9,6 13,8 4,4 18,16 22,21 70,74 72,214 114,268 46,57 178,-13 134,176 84,-19 4,26 83,-50 6,164 61,142 174,151 -5,2 -13,-2 -15,4l-78 45c85,75 59,13 149,52l23 13c91,55 119,108 144,219 135,9 117,25 191,31 27,3 5,-5 32,7l34 24c69,49 80,79 160,100 139,36 130,20 165,-43 35,38 13,46 76,60 98,-65 48,22 131,-54 41,-37 12,-28 43,-57 56,-50 -14,11 54,-23l64 -76c30,-41 -2,-5 31,-36 46,-42 86,-9 59,-115l-100 -8c-71,-5 -174,-8 -213,42 -27,-94 20,-38 -54,-81l-54 77c-13,-40 -42,-40 -82,-48 -116,-24 57,34 -28,-4l8 -168c-7,-2 -26,-9 -31,-10l-115 -32c-50,-24 -24,-4 -56,-52 -43,-62 -11,-5 -37,-70 -30,114 -21,103 -90,90 69,-83 26,-9 33,-136 -157,1 -218,40 -219,-135l-68 -29c-41,-33 -14,-9 -40,-35l79 -98c2,-2 7,-6 10,-9 -106,-59 -43,8 -102,-84 -3,4 -6,7 -7,15 -9,69 -42,120 -111,123 12,-28 22,-45 28,-81 5,-32 7,-24 4,-57 -7,-79 1,-32 -20,-67 -6,1 -13,0 -16,7l-46 24c-13,5 -24,27 -90,0 -3,-1 -9,-5 -12,-7l-46 -23 35 -164c-86,36 -169,173 -196,-85 -77,30 -70,32 -118,-2 -56,55 16,154 -86,72 -56,-46 -50,-75 -107,-101l8 -86c1,-2 14,-19 19,-28l-115 17c17,-61 38,-72 23,-111 -72,59 -52,80 -94,171 -15,-31 -37,-204 -42,-265 -49,40 -87,46 -157,38 -38,-70 -58,-135 -32,-211 -94,97 -29,42 -55,163 -63,4 -15,-5 -92,22 16,-63 48,-117 65,-185l-73 65c-11,-61 -37,-69 -57,-120 -46,21 -39,31 -76,28z"/>
   <path class="fil6" d="M13454 13429c3,3 10,1 11,6 13,59 17,10 19,13 69,67 -16,43 112,142 66,50 44,12 61,91 68,-41 12,-59 65,-38 21,73 -5,84 35,132l104 133c98,63 60,-26 119,55 14,19 6,27 39,64 67,75 37,17 70,48 63,62 90,126 169,166 67,33 77,55 120,112 37,49 65,84 80,146l108 -2c23,90 44,67 26,157 55,-33 11,36 57,-60 1,184 40,80 132,140 -68,33 -90,2 -85,55 8,82 123,43 213,98 95,59 42,-12 91,105 42,100 34,61 124,102l18 11c78,39 24,-20 132,18 59,21 78,34 101,86 58,-22 48,-26 84,-34 -23,73 -1,29 81,66 32,-20 36,-28 60,-59l7 20c0,2 2,9 3,11 7,25 -2,9 9,29 90,-64 118,-63 188,-131 42,-41 47,-23 67,-31 47,-20 57,-75 91,-109 51,-51 102,-13 65,-130l-65 0c-134,1 -202,12 -301,-45 -38,39 -41,54 -86,59 -2,0 -9,0 -11,1 -11,2 -35,14 -45,20l-14 -203c-42,19 16,8 -27,-1 -30,-6 -93,-25 -138,-6l-34 -81c-66,21 -53,23 -94,71 -3,-4 -4,-17 -5,-14 0,3 -3,-11 -3,-13 -17,-68 5,7 -9,-40 -37,-118 -117,-91 -233,-87l5 -120 -54 -9c-30,-15 -34,-22 -56,-45 43,-113 28,-42 89,-107l-124 -89c-9,99 6,127 -95,145 15,-60 53,-121 24,-192 -1,-2 -55,-67 -57,-71 -50,-70 -33,45 -29,-101 -116,60 -2,51 -116,46 -40,-44 -42,-65 -50,-138 -53,21 -86,9 -122,38 -58,49 42,-12 -42,45 -4,-4 -8,-15 -9,-12 -11,38 -15,-18 -23,-25l-30 -22c-25,-38 -12,-21 -22,-55 -34,37 -35,50 -64,82 -45,-71 44,-148 -91,-125 12,-35 40,-70 25,-102 -84,44 -25,43 -86,124l-45 -233c-61,53 -125,82 -206,38l-73 -60c-37,-40 -30,-61 -63,-106 -27,81 31,54 -30,137 -40,-27 -6,-8 -61,3 15,-81 38,-99 50,-181 -90,51 1,28 -86,60 28,-103 19,-26 -8,-121l-62 123z"/>
   <path class="fil6" d="M5648 19284c-13,0 -51,-6 -53,-6l-149 57c-5,73 -5,57 28,102 -72,13 -91,33 -160,56l-16 131c-14,61 -6,-64 -5,31 1,50 -24,3 27,57l-227 -38c-19,49 -4,10 -6,36 0,3 -1,11 -1,14l-2 29c-6,3 -64,21 -64,21 -68,32 12,-18 -39,34 -60,60 -78,11 -90,89 -8,48 18,56 -73,105 -5,4 -25,12 -31,15l-29 16c-45,24 -18,76 -22,126 -20,251 -105,148 -32,294l22 40c32,114 91,111 230,198 123,76 54,94 183,99 -14,-51 -27,-171 -23,-221 6,-71 -5,58 8,-37 5,-33 31,42 -2,-48 -4,-12 -33,-40 -53,-102 71,25 47,23 136,24l-13 -95c112,-25 18,-30 127,-2 -14,-66 -11,-77 -36,-139l27 -19c4,-2 22,-14 27,-17 39,-24 19,-12 56,-32 50,28 68,39 107,86l41 -25c22,-16 59,-43 37,-94 -41,-100 -107,-32 -138,-113 68,-26 167,45 244,71 -23,-62 -37,-96 -75,-131l153 24c-50,-110 -50,-6 -56,-114 45,-26 108,-43 153,-52 -49,-9 -44,2 -109,10 48,-72 42,-21 28,-61l-224 -18c66,-39 1,-1 31,-71 96,-9 89,13 150,37 47,-32 40,3 50,-66 0,0 -50,64 -171,-37 20,-12 -36,-26 53,-12 84,14 26,5 55,27l3 -42c0,-2 2,-9 2,-11 1,-2 4,-9 4,-11 1,-2 2,-8 4,-11 22,17 5,17 36,22l51 -9c-52,-56 -41,-54 -130,-62l122 -9c-31,-107 -38,-74 31,-138 -18,-10 16,-26 -58,-12 46,-54 57,-29 113,-67 -61,-40 -180,-105 -246,2 -55,89 -27,40 -6,69z"/>
   <path class="fil6" d="M14743 13287c-63,-31 9,31 -25,-26l-20 -49c-76,105 -37,52 -89,39l-79 -14 -13 -95c-58,54 -27,24 -84,52 10,65 23,130 91,150 17,5 -8,63 38,-13 5,157 -10,46 36,183l118 -25 121 166c37,32 -44,-13 24,23 45,23 19,11 79,-16 8,91 29,106 41,222 83,-48 38,-47 100,-2 4,2 9,6 12,9 36,36 32,36 35,92 86,-19 7,-6 83,-31 -1,5 -7,5 -8,12 -1,7 -67,129 44,99 38,-10 27,-2 50,-38 11,56 12,31 22,49l18 27c2,4 6,9 9,13 3,4 6,9 9,13 62,94 60,84 177,112l148 -3c-13,-42 17,-49 18,-49 67,-19 35,35 132,-120 41,-64 52,-70 66,-154l-76 40c-3,1 -12,-2 -18,1 4,-6 29,-33 29,-33l64 -26c55,-16 99,-52 76,-115 -69,6 -63,-11 -42,67 -5,-2 -13,-8 -16,-3l-66 2c-98,24 -2,-5 -68,34l-124 43c25,-77 46,-97 7,-173l-94 29c-43,-89 -44,-132 -161,-45 -6,-8 -82,-17 13,-61 -90,0 -52,21 -114,-29 28,-69 22,-62 85,-99 -2,-5 -6,-16 -7,-13l-52 -76c-21,70 -25,80 -57,119 -32,-67 -4,-11 -7,-72 0,-5 1,-11 1,-16l-11 -63c-58,31 -43,75 -78,142 -84,3 23,-6 -58,-11l-29 1c-57,3 32,37 -25,2 40,-82 104,-142 138,-231 -69,9 -109,35 -135,74l18 -153 -84 63c-42,-29 -52,-108 -133,-72 -69,30 47,6 -74,40 -1,-23 -6,-64 -6,-69 9,-112 -4,16 15,-61 15,-62 47,-38 -41,-87 -27,65 -19,143 -23,225z"/>
  </g>
  <path class="fil68" d="M9276 15305l21 -19c-36,-9 -45,-10 -69,-36l112 -7 -56 -21c42,-10 78,-8 117,-13 69,-7 43,-13 84,-32 78,-37 99,3 171,-74l-4 -80 -6 49 -88 9 -25 3c55,34 33,-19 54,38 -30,17 -48,13 -85,6 -4,-76 -11,-338 9,-397l35 -13c27,-42 10,-41 64,-44l6 166 52 6 3 -172c63,-7 102,8 145,4 62,-6 105,-7 167,-8l30 41c32,-35 44,-38 90,-34 11,47 21,90 52,124l7 -124 82 -4c10,329 49,392 -76,401 -31,-40 -26,-74 -60,-108l-5 103 -83 6c-10,-126 1,-220 -18,-351l-15 57 -52 12 -3 189c55,11 21,-4 60,21 -13,84 -15,76 -85,110 106,56 608,-13 701,29l124 -50 2 -38 -34 -10c-26,10 -27,28 -80,33 -40,4 -88,-2 -130,-1 -17,-25 -13,-28 -17,-46 -39,62 -128,55 -196,40l0 -74 54 -9c4,-269 14,-223 -52,-231 2,-107 110,-87 189,-82l17 33c42,-74 152,-43 222,-31l25 -35 165 -1c35,25 21,25 65,35l8 43c50,-65 127,-47 201,-46 30,-52 155,-43 200,-15 33,17 43,13 83,15l1 88 276 -27 13 83c199,8 600,43 671,-190 34,-109 15,-714 15,-872l-544 0 -4 -208 -84 -274c-75,-174 -288,-328 -210,-379 -13,-6 -29,-13 -41,-18 -34,-16 -37,2 -35,-67l180 83c97,33 144,11 220,33l1 802 144 0 0 -776c106,-82 304,0 502,-392 246,-486 -95,-1006 -539,-1070 -251,-37 -350,52 -507,151 -87,56 -55,-5 -143,95l-87 -84c110,-235 47,-599 -124,-785 -129,-139 -363,-220 -563,-205 -90,8 -146,37 -217,48l135 -53c-118,-47 -691,196 -635,853 134,-20 -17,-101 114,-439 42,-110 174,-269 283,-305 -51,75 -143,102 -237,292 -28,57 -50,129 -66,190 -25,99 5,165 -6,238 -35,28 -91,67 -131,45 -1,55 -3,26 -13,44 -82,28 -63,55 -115,86l7 -102c89,-60 40,-67 -54,-189 -43,-55 -57,-106 -107,-148 -74,-62 -243,-138 -340,-158 -289,-59 -530,54 -680,285 -252,387 -103,975 336,1147 75,29 136,16 198,58l24 885c23,-32 26,-74 39,-117 15,-50 10,-92 54,-74 -26,39 -30,-1 -57,97 -72,258 -12,266 -32,441 -160,61 -548,-170 -570,250l3 839c91,5 389,18 458,-16 128,-63 269,-40 456,-40l0 328c-106,36 -250,49 -337,106 29,64 125,85 192,77l-22 -23z"/>
  <path class="fil0" d="M9437 12293l-17 48c33,-6 22,-5 43,-45l-23 -18c49,-116 25,-206 74,-345 36,-99 82,-183 164,-246 -60,-145 -213,-387 -385,-391l87 6c-213,-147 -799,3 -771,520 10,174 119,356 260,441 51,31 208,82 268,83 81,2 212,-55 300,-53z"/>
  <path class="fil0" d="M11452 11925c17,10 8,9 30,4 46,283 88,217 86,588 0,173 20,79 71,149 25,-31 11,-18 34,-32l21 31 33 -24c96,60 113,51 224,50 92,0 165,16 245,-33 130,-80 203,-147 251,-295 47,-146 2,-311 -82,-434 -52,-75 -208,-215 -297,-241l101 7c-96,-45 -344,-53 -440,-2 -93,50 -150,126 -206,176 -44,40 -45,-3 -71,56z"/>
  <path class="fil69" d="M9946 11925c90,91 169,90 267,223 64,89 106,262 232,261 145,-2 183,-132 256,-239 67,-96 175,-148 265,-232 -10,-56 -30,-51 -31,-107 -11,-40 -102,-125 -141,-135 23,5 44,8 67,12l78 12c-18,-74 -137,-117 -206,-145 -38,-15 -85,-33 -133,-40 -45,-7 -98,-30 -131,-31 -92,-3 -401,101 -451,216l173 -17c-82,27 -181,132 -212,223l-33 -1z"/>
  <path class="fil0" d="M10043 11451c61,1 191,-35 265,-43 123,-14 175,-18 299,-6 119,12 295,37 401,90 43,21 58,55 103,41 52,-203 -33,-257 -66,-323 -82,-164 -174,-299 -404,-334 -158,-24 -339,25 -451,135 -102,99 -183,293 -147,440z"/>
  <path class="fil70" d="M10199 13214c-7,-62 -34,-69 -32,-133 69,65 71,188 246,350 37,-50 35,-154 64,-206l57 204c108,-92 172,-262 255,-355 6,90 -48,109 -69,185l40 -49 32 49c62,-17 104,-101 165,-150 57,-47 137,-84 198,-128 -100,-62 -220,-49 -315,17 77,-7 128,-39 205,14 -27,19 -180,25 -222,19 -3,-20 -11,-57 -11,-73 0,-36 9,-39 -5,-86 -19,-61 -52,-44 -83,-113 -42,-93 -72,-203 -185,-207l-2 80 40 25c-46,66 -46,195 -69,275 -29,-114 -1,-209 -91,-293 -44,37 -91,76 -133,113 3,-99 69,-109 134,-155l1 -68c-85,10 -119,126 -169,186 -41,50 -113,66 -74,274l-38 43c-104,-53 -142,2 -198,-46 46,-29 136,-19 195,-21 -90,-71 -212,-64 -312,-16l90 97c147,86 136,148 242,217l44 -49z"/>
  <path class="fil71" d="M10506 13871c0,195 -5,397 0,591 3,105 44,140 148,150 390,40 311,-100 311,-578 0,-78 16,-194 -76,-223 -25,-8 -262,-11 -292,-6 -26,22 -59,33 -91,66z"/>
  <path class="fil72" d="M11943 14354l260 4c17,61 7,107 -4,167l-109 5 -5 -110 -88 -5c-82,84 -62,199 -54,311 72,12 164,5 239,5 73,-1 147,-6 176,-81 24,-61 20,-415 11,-491 -238,-26 -296,82 -254,-172l112 -3 4 114c177,7 170,-52 140,-311 -64,-10 -179,-5 -247,-4 -70,1 -139,8 -169,82 -22,55 -16,412 -12,489z"/>
  <path class="fil71" d="M9099 14673l141 0c6,-127 -81,-397 125,-336 2,16 -13,235 -6,333 191,20 142,-91 142,-347 0,-170 0,-341 0,-511 -526,0 -361,4 -396,226 -24,152 -6,466 -6,635z"/>
  <path class="fil71" d="M8612 14755l138 4 4 -342 114 -2 1 370c220,13 145,-246 143,-393 -1,-126 16,-450 -5,-551l-133 0 -5 340 -113 4 -2 -370c-208,-22 -147,141 -143,381 3,181 -10,381 1,559z"/>
  <path class="fil71" d="M10995 14609l141 6 4 -287 82 284c197,21 174,-168 174,-312 0,-144 13,-350 -2,-486l-139 -2c4,101 -3,205 6,294 -50,-93 -105,-304 -155,-316 -178,9 -113,211 -112,336 2,160 -4,324 1,483z"/>
  <path class="fil73" d="M10846 13296c77,30 78,168 77,171l-22 68c-15,66 -26,52 -82,73l29 13c3,0 18,2 22,3 -33,36 -39,28 -85,35 -106,18 -28,-54 -127,14l15 21c36,10 92,9 115,31 -55,49 -106,3 -163,2l-5 52 313 5c26,-35 57,-96 90,-119l6 84c123,-34 218,-265 224,-387 52,-22 18,14 45,-36l38 104c120,-134 98,-510 56,-668 -74,96 -33,162 -82,259 -30,61 -91,177 -142,213l-7 -108c-97,28 -228,124 -315,170z"/>
  <path class="fil74" d="M9946 11925l33 1c31,-91 130,-196 212,-223l-173 17c50,-115 359,-219 451,-216 33,1 86,24 131,31 48,7 95,25 133,40 69,28 188,71 206,145l-78 -12c-23,-4 -44,-7 -67,-12 39,10 130,95 141,135 49,32 68,100 100,139l152 -51 -18 108c96,-8 217,-93 146,-194 -34,-46 -149,-142 -202,-180 -190,-137 -366,-170 -598,-167 -384,7 -567,48 -807,340 -45,55 -45,66 -1,121 50,63 46,57 131,54l-19 -108 127 32z"/>
  <path class="fil75" d="M10181 13686l-9 -28c-38,-15 -41,-3 -61,-41 32,-6 51,-14 77,14 26,28 -17,18 29,43l1 -49c0,-2 2,-10 3,-14 -57,-31 -112,-29 -141,-58 -26,-25 -41,-86 -19,-119 -22,-60 -28,-112 39,-131l14 86 -5 -95c-107,-39 -175,-135 -288,-139l-4 79c-36,-20 -58,-67 -77,-105 -44,-86 -33,-58 -39,-157 -66,-56 -67,-81 -111,-144 -29,141 -38,517 54,630l79 -171c14,84 32,455 207,430l17 -99c33,39 17,145 242,107l-8 -39z"/>
  <path class="fil76" d="M9546 14718l12 363 88 -9 6 -49 -7 -108c101,-4 64,95 57,158 61,5 37,4 81,-19l7 57 -102 8 119 -2c23,-21 66,-4 100,-4 70,-34 72,-26 85,-110 -39,-25 -5,-10 -60,-21l3 -189 52 -12 15 -57c19,131 8,225 18,351l83 -6 5 -103c34,34 29,68 60,108 125,-9 86,-72 76,-401l-82 4 -7 124c-31,-34 -41,-77 -52,-124 -46,-4 -58,-1 -90,34l-30 -41c-62,1 -105,2 -167,8 -43,4 -82,-11 -145,-4l-3 172 -52 -6 -6 -166c-54,3 -37,2 -64,44z"/>
  <path class="fil71" d="M11454 14672c328,6 410,39 400,-172l-261 1c-24,-61 -23,-111 -1,-166 61,-40 125,-3 197,-9l7 -165 -223 -5c-18,-58 -32,-132 7,-181 94,-2 169,11 273,-1l3 -158c-58,-9 -252,-9 -311,-2 -134,17 -78,130 -83,220 -13,212 -9,426 -8,638z"/>
  <path class="fil72" d="M10020 14612c88,12 185,4 275,4 113,-1 158,-18 151,-142l-253 -2 -3 -487 252 -4 7 -75 -86 -64c-200,-3 -339,-58 -345,203 -4,173 -10,398 2,567z"/>
  <path class="fil77" d="M10975 12163l15 -69c-117,31 -258,256 -306,368 21,7 5,12 24,-2 1,56 -2,97 30,145 140,27 205,-252 274,-318l-14 111c108,-13 340,-149 358,-246l-68 19c6,-86 115,-102 81,-223 -16,5 -138,94 -191,119 -70,33 -138,63 -203,96z"/>
  <path class="fil78" d="M9667 12142l-76 6c18,132 244,239 365,252l-17 -132c33,95 148,306 266,287 146,-64 -111,-455 -241,-462l15 71c-90,-23 -125,-49 -202,-90 -73,-39 -125,-87 -186,-123 -10,86 24,133 76,191z"/>
  <path class="fil79" d="M9276 15305c101,-1 157,47 252,64 157,28 161,16 278,11l-31 12c273,0 194,1 210,-40l33 56c67,-50 46,-78 56,-160l-28 -17 29 -29c-48,-28 -20,4 -46,-43 -45,39 -40,88 -48,144l-90 0 81 -35c-13,-57 0,-60 -33,-82l41 -21c-70,-8 -101,-36 -173,-48l-119 2c-54,5 -21,8 -32,-16 -72,77 -93,37 -171,74 -41,19 -15,25 -84,32 -39,5 -75,3 -117,13l56 21 -112 7c24,26 33,27 69,36l-21 19z"/>
  <path class="fil71" d="M9567 14058l16 -43c27,337 5,320 -19,598l421 3c7,-65 5,-103 -50,-139 -223,-26 -221,59 -205,-212 6,-113 9,-342 -2,-451 -161,-10 -177,106 -161,244z"/>
  <path class="fil80" d="M10707 14676l-12 48c2,34 2,76 7,109 9,70 14,16 29,66l-25 33 -6 112 34 10 -2 38c19,26 88,12 124,12l26 -35c47,-24 1,-12 58,-61 7,-170 -47,-271 82,-246l3 314 32 0c111,-100 -52,-303 112,-316l2 -88c-74,-1 -151,-19 -201,46l-8 -43c-44,-10 -30,-10 -65,-35l-165 1 -25 35z"/>
  <path class="fil81" d="M10700 15044l6 -112 -3 57 -140 -6 2 -79 113 -3 -2 -83 -111 -3 1 -83 129 -8 12 -48c-70,-12 -180,-43 -222,31l-17 -33c-79,-5 -187,-25 -189,82 66,8 56,-38 52,231l-54 9 0 74c68,15 157,22 196,-40 4,18 0,21 17,46 42,-1 90,5 130,1 53,-5 54,-23 80,-33z"/>
  <path class="fil82" d="M11284 12355c-7,239 -83,325 -240,425 -73,47 -127,6 -132,80 58,-4 128,-23 182,-24 88,-1 87,57 175,54 93,-138 104,-131 131,-302l75 113c10,-119 -46,-328 -53,-456 -26,16 -27,39 -54,60 -24,18 -56,29 -84,50z"/>
  <path class="fil83" d="M9509 12607c33,-30 30,-58 74,-78 31,185 42,187 145,333 99,3 205,-11 311,-8 -25,-83 -148,-3 -292,-195 -113,-153 -31,-318 -158,-340 -19,-60 -14,-39 -57,-78 -13,56 -33,315 -23,366z"/>
  <path class="fil81" d="M11220 15047l3 28 79 0c46,-84 -2,-122 23,-173l35 2 11 145 81 -28 3 -261 -1 -88c-40,-2 -50,2 -83,-15 -103,16 -145,-18 -147,117 -2,90 6,183 -4,273z"/>
  <path class="fil0" d="M9245 12577c-5,49 -13,525 -5,542 19,0 133,-88 160,-224 21,-110 7,-267 -13,-378 -37,33 -92,25 -142,60z"/>
  <path class="fil84" d="M10199 13214c26,74 199,316 255,366 91,-2 99,-74 148,-142 34,-46 101,-130 118,-179 21,-76 75,-95 69,-185 -83,93 -147,263 -255,355l-57 -204c-29,52 -27,156 -64,206 -175,-162 -177,-285 -246,-350 -2,64 25,71 32,133z"/>
  <path class="fil85" d="M11465 13720c22,2 247,12 251,11 19,-100 9,-197 -13,-296 -27,-119 18,-204 -48,-244 -15,112 -31,182 -79,283 -19,41 -25,87 -45,127 -21,42 -52,77 -66,119z"/>
  <path class="fil73" d="M9544 13649l17 75 191 -1c-6,-49 -34,-110 -73,-137l-32 45c-29,-37 -41,-92 -64,-136 -25,-49 -56,-86 -81,-128 -30,-49 -25,-281 -61,-344 -31,284 -22,279 43,511 6,21 15,50 23,71 17,40 16,33 37,44z"/>
  <path class="fil86" d="M11348 13633l-17 -37c-34,48 -81,100 -96,154l156 1c92,-169 205,-539 127,-734 -68,82 -31,467 -170,616z"/>
  <path class="fil82" d="M9218 13724c41,-9 20,32 53,-102 10,-39 18,-77 32,-114 41,30 -20,159 -25,213l214 1c-64,-147 -93,-133 -109,-155 -5,-6 -22,-44 -32,-60 -84,-125 -32,-176 -55,-308 -56,101 -121,416 -78,525z"/>
  <path class="fil87" d="M10856 15104l-6 30c-39,0 -97,10 -112,45 80,42 12,-50 242,-6 59,11 116,5 155,11l10 60c44,-44 -26,14 27,-75 -96,-18 -190,-12 -287,-27 47,-19 246,-8 310,-4l-33 13c62,15 130,24 143,-41 -93,-10 -216,0 -314,-3 -68,-3 -59,6 -66,-43l100 12 -3 -314c-129,-25 -75,76 -82,246 -57,49 -11,37 -58,61l-26 35z"/>
  <path class="fil79" d="M11371 15049l27 14c-19,27 -4,11 -35,35l29 21 -62 36c42,17 87,10 135,11 37,25 1,12 46,25 124,17 311,141 310,-31 -155,-36 -104,-49 -288,-41l-81 -98 -81 28z"/>
  <path class="fil88" d="M10608 15142c-38,15 -73,37 -93,73 59,-7 17,-25 61,-1 -47,14 -134,28 -188,29 -98,0 -94,22 -195,3l-11 -53c-90,2 -145,108 -60,167 10,-10 22,-21 28,-29 10,-12 8,-15 8,-16 70,20 176,-55 241,34l-4 -42 62 25 154 -78 3 -37c78,5 29,44 95,22 -26,-42 -11,-9 -37,-48 -45,16 -79,23 -98,-26l34 -23z"/>
  <path class="fil89" d="M10592 13686l1 6 80 2 -15 -21c99,-68 21,4 127,-14 46,-7 52,1 85,-35 -4,-1 -19,-3 -22,-3l-29 -13c56,-21 67,-7 82,-73l22 -68c1,-3 0,-141 -77,-171 2,239 -39,189 -79,215 -50,31 26,22 -54,60 -124,60 -154,27 -92,75l-29 40z"/>
  <path class="fil90" d="M10797 12695c40,146 445,92 424,-284 -79,21 -65,134 -144,205 -88,80 -171,64 -280,79z"/>
  <path class="fil91" d="M10181 13686c42,3 55,13 81,16 19,3 65,-6 92,-9 -19,-48 -6,9 12,-55 -28,-46 -48,-52 -98,-77 -21,-10 -44,-22 -66,-27 -65,-13 5,6 -53,9 -9,-89 -39,-50 7,-71 -53,-7 -46,-26 -42,-83l-14 -86c-67,19 -61,71 -39,131 -22,33 -7,94 19,119 29,29 84,27 141,58 -1,4 -3,12 -3,14l-1 49c-46,-25 -3,-15 -29,-43 -26,-28 -45,-20 -77,-14 20,38 23,26 61,41l9 28z"/>
  <path class="fil92" d="M10689 13999c-43,57 -11,123 -11,197 1,81 -3,163 2,243l89 3c6,-23 -4,-383 -6,-434 -33,-21 -35,-22 -74,-9z"/>
  <path class="fil90" d="M10168 12727c-422,-10 -222,-182 -404,-313 -18,116 16,229 107,296 68,50 263,130 297,17z"/>
  <path class="fil93" d="M10506 13871c32,-33 65,-44 91,-66l-4 -113 -1 -6c-97,-34 -75,43 -130,27l9 39 -49 4 28 -55c-20,-48 -10,-50 -51,-64l-21 52c-2,3 -8,11 -9,14 -14,32 -5,58 -8,100 15,11 37,33 48,37 78,34 39,30 97,31z"/>
  <path class="fil72" d="M11171 14672l-2 88 -12 280 63 7c10,-90 2,-183 4,-273 2,-135 44,-101 147,-117 -45,-28 -170,-37 -200,15z"/>
  <path class="fil92" d="M10706 14932l25 -33c-15,-50 -20,4 -29,-66 -5,-33 -5,-75 -7,-109l-129 8 -1 83 111 3 2 83 -113 3 -2 79 140 6 3 -57z"/>
  <path class="fil92" d="M11057 15076l166 -1 -3 -28 -63 -7 12 -280c-164,13 -1,216 -112,316z"/>
  <path class="fil94" d="M9558 15081l-12 -363 -35 13c-20,59 -13,321 -9,397 37,7 55,11 85,-6 -21,-57 1,-4 -54,-38l25 -3z"/>
  <polygon class="fil92" points="9271,14152 9382,14156 9386,13987 9274,13984 "/>
  <path class="fil72" d="M9652 15023l4 80c11,24 -22,21 32,16l102 -8 -7 -57c-44,23 -20,24 -81,19 7,-63 44,-162 -57,-158l7 108z"/>
  <path class="fil92" d="M10416 14981l58 11c7,-62 15,-183 -5,-233l-47 1c-6,70 -24,156 -6,221z"/>
  <polygon class="fil95" points="11310,14843 11367,14842 11365,14761 11313,14760 "/>
  <path class="fil68" d="M10271 12840l57 30c23,-39 27,-45 29,-86 -38,8 -67,16 -86,56z"/>
  <path class="fil3 str1" d="M10553 24576c1811,-27 4383,-473 5880,-1050 -184,-1733 -709,-11944 -709,-11944 0,0 551,1339 840,2074 1234,-105 3229,-342 4016,-1628 -761,-1785 -1339,-3832 -1942,-5171 0,0 -2730,-998 -4883,-1680 0,0 -236,-79 -341,105 -788,1102 -1181,1864 -2940,1864l0 0c-1680,-27 -2100,-762 -2861,-1864 -132,-184 -368,-105 -368,-105 -2126,656 -4882,1680 -4882,1680 -604,1339 -1182,3412 -1943,5171 788,1260 2730,1523 4016,1628 289,-735 840,-2074 840,-2074 0,0 -551,10211 -708,11944 1522,577 4068,1050 5880,1050l0 0"/>
 </g>
</svg>
