<?xml version="1.0" encoding="UTF-8" standalone="no"?><svg xmlns:dc="http://purl.org/dc/elements/1.1/" xmlns:cc="http://creativecommons.org/ns#" xmlns:rdf="http://www.w3.org/1999/02/22-rdf-syntax-ns#" xmlns:svg="http://www.w3.org/2000/svg" xmlns="http://www.w3.org/2000/svg" version="1.1" id="Layer_1" x="0px" y="0px" viewBox="0 0 80 77.1" style="enable-background:new 0 0 80 77.1;" xml:space="preserve" ><defs id="defs11"><clipPath clipPathUnits="userSpaceOnUse" id="clipPath802"><path d="M 0,1097.804 H 1412.57 V 0 H 0 Z" id="path800" /></clipPath></defs><style type="text/css" id="style2">.st0{fill:none;stroke:#000000;stroke-width:3;stroke-linecap:round;stroke-linejoin:round;}</style><path class="st0" d="M39.9,75.6L39.9,75.6c0.1,0,0.2,0,0.3,0" id="path4" /><g id="layer2" style="display:inline"><path class="st0" d="m 40.2,75.6 c 6.9,-0.1 16.7,-1.8 22.4,-4 -0.7,-6.6 -2.7,-45.5 -2.7,-45.5 0,0 2.1,5.1 3.2,7.9 4.7,-0.4 12.3,-1.3 15.3,-6.2 C 75.5,21 73.3,13.2 71,8.1000002 c 0,0 -10.4,-3.8 -18.6,-6.4 0,0 -0.9,-0.3 -1.3,0.4 -3,4.2 -4.5,7.1 -11.2,7.1 v 0 c -6.4,-0.1 -8,-2.9 -10.9,-7.1 -0.5,-0.7 -1.4,-0.4 -1.4,-0.4 -8.1,2.5 -18.6,6.4 -18.6,6.4 C 6.7,13.2 4.5,21.1 1.6,27.8 c 3,4.8 10.4,5.8 15.3,6.2 1.1,-2.8 3.2,-7.9 3.2,-7.9 0,0 -2.1,38.9 -2.7,45.5 5.8,2.2 15.5,4 22.4,4 v 0" id="path6" style="fill:#0d0d0d;fill-opacity:1;stroke:none;stroke-width:3;stroke-linecap:square;stroke-linejoin:bevel" /></g><g id="layer5" style="display:inline"><path style="display:inline;fill:#ad0f2d;fill-opacity:1;stroke:none;stroke-width:1px;stroke-linecap:butt;stroke-linejoin:miter;stroke-opacity:1" d="m 26.258687,2.654396 2.427109,4.4490554 C 24.946692,9.3994199 20.071075,11.850694 19.573809,19.903116 L 16.33533,33.118695 7.392056,32.342795 1.599609,27.800781 9,8.1 Z" id="path4731" /><path style="fill:#626263;fill-opacity:1;stroke:none;stroke-width:1px;stroke-linecap:butt;stroke-linejoin:miter;stroke-opacity:1" d="m 52.540598,7.8475986 c 1.956549,3.1502634 4.170477,6.7261244 3.561067,14.5776674 -0.436213,5.620105 -1.218149,14.898755 -1.964479,24.988134 -0.177918,2.405209 -0.846511,5.942891 0.508733,7.502768 2.228788,2.565321 6.475516,2.362058 6.475516,2.362058 l 0.245204,3.07751 c 0,0 -5.760852,0.125375 -7.704538,2.150123 -1.527447,1.591149 -3.724037,11.72626 -3.724037,11.72626 L 62.599606,71.599609 60.654297,27.609375 63.099609,34 67.565894,33.217191 C 65.976061,29.886387 65.093242,26.76172 62.732014,20.710607 60.374706,14.66954 55.586879,8.4584646 52.540598,7.8475986 Z" id="path4666" /><path style="fill:#626263;fill-opacity:1;stroke:none;stroke-width:1px;stroke-linecap:butt;stroke-linejoin:miter;stroke-opacity:1" d="m 27.459008,7.8479896 c -1.956549,3.1502634 -4.170477,6.7261244 -3.561067,14.5776674 0.436213,5.620105 1.218149,14.898755 1.964479,24.988134 0.177918,2.405209 0.846511,5.942891 -0.508733,7.502768 -2.228788,2.565321 -6.475516,2.362058 -6.475516,2.362058 l -0.245204,3.07751 c 0,0 5.760852,0.125375 7.704538,2.150123 1.527447,1.591149 3.724037,11.72626 3.724037,11.72626 L 17.4,71.6 19.345309,27.609766 16.899997,34.000391 12.433712,33.217582 c 1.589833,-3.330804 2.472652,-6.455471 4.83388,-12.506584 C 19.6249,14.669931 24.412727,8.4588556 27.459008,7.8479896 Z" id="path4666-3" /></g><g id="layer1" style="display:inline"><path style="fill:none;stroke:#ad0f2d;stroke-width:4.4000001;stroke-linecap:round;stroke-linejoin:round;stroke-miterlimit:4;stroke-dasharray:none;stroke-opacity:1" d="M 27.660114,3.4553566 C 33.084001,13.999453 47.481698,13.746845 52.338664,3.2326874" id="path4683" /><g transform="matrix(0.15860291,0,0,-0.15860291,22.419846,159.94485)" id="g796" style="stroke:#ad0f2d;stroke-width:5.63775492;stroke-miterlimit:4;stroke-dasharray:none;stroke-opacity:1"><g id="g798" clip-path="url(#clipPath802)" style="stroke:#ad0f2d;stroke-width:5.63775492;stroke-miterlimit:4;stroke-dasharray:none;stroke-opacity:1"><g id="g804" transform="translate(280.8316,623.0392)" style="stroke:#ad0f2d;stroke-width:5.63775492;stroke-miterlimit:4;stroke-dasharray:none;stroke-opacity:1"><path style="fill:#ac1125;fill-opacity:1;fill-rule:nonzero;stroke:#ad0f2d;stroke-width:5.63775492;stroke-miterlimit:4;stroke-dasharray:none;stroke-opacity:1" d="m -83.785848,185.16243 c 4.447378,-15.78992 16.718527,-27.56186 24.838467,-41.46313 6.151766,-9.33299 12.553029,-18.48538 19.050621,-27.5723 l -0.62804,12.64706 c -5.345242,6.78122 -10.724311,13.52898 -16.267533,20.1343 -7.86239,12.88489 -17.114906,24.86024 -26.993515,36.25407 z m -16.821692,-25.34336 c -1.70087,-0.96968 7.331242,-16.74851 8.386217,-19.98654 9.252491,-19.7024 21.446101,-37.85347 34.591597,-55.107648 6.361233,-11.227562 13.304435,-22.133074 20.934755,-32.522751 l -1.083681,21.636677 c -1.87402,1.955374 -3.840182,3.833158 -5.923303,5.61544 -21.664918,23.323822 -37.961674,50.887422 -53.777683,78.332912 -1.764583,1.69054 -2.735392,2.25568 -3.127902,2.03191 z m -10.27034,-28.24961 c 0.88696,-14.74024 13.763153,-24.6821 18.163974,-38.261329 8.690017,-19.66855 17.710003,-39.71455 32.990707,-55.267746 8.643681,-10.293745 16.918649,-20.912056 25.318734,-31.4267561 l -0.677301,13.4967571 c -3.156197,3.77466 -6.376668,7.492379 -9.765445,11.070787 -8.86306,14.296371 -18.709745,27.950351 -29.185505,41.069058 -12.988306,19.32879 -24.194878,39.775879 -36.845164,59.319229 z" id="path806" /></g><g id="g808" transform="translate(342.5321,604.1694)" style="stroke:#ad0f2d;stroke-width:5.63775492;stroke-miterlimit:4;stroke-dasharray:none;stroke-opacity:1" /><g id="g812" transform="translate(377.6352,619.6621)" style="stroke:#ad0f2d;stroke-width:5.63775492;stroke-miterlimit:4;stroke-dasharray:none;stroke-opacity:1" /><g id="g816" transform="translate(258.66,791.5231)" style="stroke:#ad0f2d;stroke-width:5.63775492;stroke-miterlimit:4;stroke-dasharray:none;stroke-opacity:1" /></g></g></g><g id="layer3" style="display:inline"><path class="st0" d="m 40.2,75.6 c 6.9,-0.1 16.7,-1.8 22.4,-4 -0.7,-6.6 -2.7,-45.5 -2.7,-45.5 0,0 2.1,5.1 3.2,7.9 4.7,-0.4 12.3,-1.3 15.3,-6.2 C 75.5,21 73.3,13.2 71,8.1 71,8.1 60.6,4.3 52.4,1.7 c 0,0 -0.9,-0.3 -1.3,0.4 -3,4.2 -4.5,7.1 -11.2,7.1 v 0 C 33.5,9.1 31.9,6.3 29,2.1 28.5,1.4 27.6,1.7 27.6,1.7 19.5,4.2 9,8.1 9,8.1 c -2.3000001,5.1 -4.5,13 -7.4,19.7 3,4.8 10.4,5.8 15.3,6.2 1.1,-2.8 3.2,-7.9 3.2,-7.9 0,0 -2.1,38.9 -2.7,45.5 5.8,2.2 15.5,4 22.4,4 v 0" id="path6-3" style="fill:none;stroke:#000000;stroke-width:3;stroke-linecap:round;stroke-linejoin:round" /></g></svg>