<?xml version="1.0" encoding="utf-8"?><svg version="1.1" id="Layer_1" xmlns="http://www.w3.org/2000/svg" xmlns:xlink="http://www.w3.org/1999/xlink" x="0px" y="0px" viewBox="0 0 80 77.1" style="enable-background:new 0 0 80 77.1;" xml:space="preserve"><style type="text/css"> .st0{fill:#6D0E3E;} .st1{fill:#FB2679;} .st2{fill:none;stroke:#000000;stroke-width:3;stroke-linecap:round;stroke-linejoin:round;}</style><g id="layer1" transform="translate(-165.70739,-125.68814)"><rect x="184.4" y="172.2" class="st0" width="42.7" height="17.9"/><path id="path4774" class="st1" d="M204.3,201.2c-5.6-0.2-12.7-1.4-18.1-3.1c-0.9-0.3-1.8-0.6-1.8-0.6s-0.9-0.7-0.8-1.4 c0.1-1.8,0.3-3.5,0.5-5.4c0.1-0.9,0.9-1.5,0.9-1.6c0-0.2,0-0.2,0.2-0.3c0.1,0,0.4-0.4,0.4-0.4v-0.1c0-0.1,0-0.2,0-0.6 c0-0.3,0-0.6,0-0.6s0.1,0.1,0.2,0.2c0.1,0.1,0.2,0.2,0.2,0.2s0.1,0,0.1,0.1c0,0,0.1,0.1,0.3,0.1h0.3l0.2-0.2 c0.1-0.1,0.2-0.2,0.2-0.2s0-0.1,0.1-0.2c0.1-0.3,0.1-0.4,0.2-0.6c0-0.1,0-0.2,0-0.2s0-0.2,0-0.4s0-0.4,0-0.4V185c0,0,0-0.2,0-0.4 c0-0.3,0-0.4,0-0.5s-0.1-0.2-0.1-0.6c0-0.3,0-0.5-0.1-0.6c0,0,0-0.2,0-0.3s0-0.2-0.1-0.3s-0.1-0.4,0-0.4c0,0,0.1,0,0.1,0.1v0.1v0.1 c0,0.2,0.6,0.8,0.7,0.8c0,0,0.1,0,0.1,0.1c0.1,0.1,0.1,0.1,0.5,0.1c0.3,0,0.5,0,0.5,0s-0.1,0.2-0.3,0.4s-0.3,0.4-0.3,0.4v0.1 c-0.1,0.1-0.2,0.3-0.3,0.5c-0.1,0.1-0.1,0.2-0.1,0.3c0,0-0.1,0.1-0.1,0.2c0,0.1,0,0.1,0,0.2c0,0,0,0.1,0,0.2c0,0.1,0,0.2,0,0.2 c-0.1,0.1-0.1,0.9,0,1c0,0,0,0.2,0.1,0.3c0,0.2,0,0.3,0.1,0.4c0,0,0.1,0.1,0.1,0.2c0.1,0.2,0.1,0.4,0.2,0.5v0.1c0,0,0,0.1,0.1,0.1 l0.1,0.1l0.1,0.1h0.1c0,0,0.1,0,0.2,0c0.1,0,0.2,0,0.2,0h0.1c0,0,0.1,0,0.2,0c0.1,0,0.1,0,0.2,0h0.1c0,0,0.1,0,0.2-0.1 s0.1-0.1,0.2-0.1s0.1,0,0.1,0s0.1,0,0.1-0.1c0,0,0.1,0,0.1-0.1c0.1-0.1,0.2-0.1,0.3-0.1s0.1-0.1,0.1-0.1s0,0,0.1,0h0.1h0.1 c0.1,0,0.2,0,0.2-0.1c0.1-0.1,0.1-0.1,0.7-0.1c0.5,0,0.6,0,0.6,0.1l0.1,0.1c0,0,0.1,0,0.2,0.1l0.2,0.1l0.2-0.1 c0.1-0.1,0.2-0.1,0.2-0.1s0.3-0.4,0.4-0.5c0,0,0.1-0.1,0.1-0.2s0.1-0.2,0.1-0.2c0-0.1,0-0.1,0-0.1s0-0.1,0-0.2c0-0.1,0-0.1,0-0.1 v-0.1c0-0.1,0-0.2,0-0.2s0-0.1,0-0.2s0-0.2,0-0.2v-0.1c0,0,0-0.1,0.1-0.2c0.1-0.1,0.1-0.2,0.1-0.2c0-0.1,0.1-0.2,0.2-0.2 c0,0,0.1,0,0.1,0.1c0,0,0.1,0.2,0.2,0.3c0.1,0.1,0.2,0.2,0.2,0.2s0,0.1,0.1,0.2c0.2,0.2,0.8,0.8,0.8,0.8s0,0,0.1,0l0.1,0.1 c0.1,0,0.2,0.1,0.3,0.2c0,0,0.1,0,0.2,0c0.1,0,0.2,0,0.3-0.1s0.1-0.1,0.1-0.1l0.2-0.2c0,0,0-0.1,0.1-0.2c0-0.1,0.1-0.1,0.1-0.2 v-0.1c0,0,0-0.1,0-0.2c0-0.1,0.1-0.1,0.1-0.2c0-0.1,0-0.1,0-0.1s0.1-0.1,0.1-0.2c0-0.1,0-0.2,0-0.2s0-0.1,0-0.2c0-0.1,0-0.2,0-0.2 s0-0.3,0.1-0.7c0-0.5,0-0.6,0.1-0.7c0,0,0-0.2,0-0.4c0-0.3,0-0.4,0-0.4s0-0.1,0.1-0.3c0-0.2,0-0.3,0-0.3s0-0.1,0-0.2 c0-0.2,0.1-0.3,0.2-0.3c0,0,0,0.1,0,0.7c0,0.5,0,0.7,0.1,0.7c0,0,0,0.1,0,0.3s0,0.3,0,0.3s0,0.1,0,0.3s0,0.2,0,0.3c0,0,0,0.1,0,0.2 c0,0.1,0,0.2,0,0.2s0,0.1,0,0.2c0,0.1,0,0.2,0.1,0.2v0.1v0.1c0,0,0,0.1,0.1,0.1c0,0.1,0.1,0.1,0.1,0.2s0.1,0.1,0.1,0.1 s0.3,0.4,0.4,0.5l0.1,0.1c0,0,0.1,0,0.1,0.1c0,0,0.1,0.1,0.2,0.1c0.1,0,0.1,0,0.1,0s0.1,0,0.2,0c0.1,0,0.2,0,0.2,0.1 c0.1,0.1,0.1,0.1,0.2,0c0-0.1,0.1-0.1,0.3-0.1s0.2,0,0.3,0c0,0,0.1,0,0.2,0c0.1,0,0.2,0,0.2-0.1l0.1-0.1l0,0c0,0,0,0,0.1-0.1 c0.1,0,0.7-0.8,0.8-0.9c0,0,0.1-0.1,0.1-0.2c0,0,0.1-0.1,0.1-0.2c0-0.1,0.8-1.1,0.9-1.1c0,0,0.1-0.1,0.2-0.1l0.1-0.1l0.1,0.1 c0.1,0.1,0.1,0.1,0.1,0.5s0,0.5,0.1,0.5c0,0.1,0,0.1,0,0.2c0,0.1,0,0.1,0,0.2v0.1c0,0,0,0.1,0.1,0.1v0.1c0,0.1,0.1,0.2,0.2,0.2h0.1 h0.1c0.1,0,0.1,0,0.1,0h0.1h0.1c0,0,0,0,0.1,0s0.1-0.1,0.2-0.1c0-0.1,0.1-0.1,0.1-0.1c0.1,0,0.7-0.8,0.7-0.9v-0.1v-0.1 c0-0.1,0.3-0.4,0.4-0.5c0,0,0.1-0.1,0.2-0.2c0.1-0.1,0.2-0.2,0.2-0.2h0.1h0.1c0,0,0.1,0,0.1-0.1c0.1-0.1,0.5-0.1,0.5,0 c0,0,0,0.1-0.1,0.1c-0.1,0.1-0.2,0.4-0.2,0.4s0,0.1-0.1,0.2c0,0.1-0.1,0.1-0.1,0.2c0,0,0,0.1-0.1,0.1c-0.1,0.1-0.1,0.2,0,0.3v0.1 v0.1c0,0,0,0.1,0,0.2s0,0.3,0,0.3s0.1,0.1,0.1,0.2c0,0.1,0.1,0.2,0.1,0.2c0,0.1,0,0.1,0,0.2s0.1,0.1,0.1,0.2c0,0.1,0,0,0-0.1 c0-0.2,0-0.2,0.3,0.2c0.1,0.1,0.2,0.2,0.2,0.2l0.1,0.1l0.1,0.1l0.1,0.1c0.1,0.1,0.1,0.1,0.2,0.1c0.1,0,0.1,0,0.1,0h0.1 c0.1,0,0.1,0,0.2,0.1c0.1,0.1,0.1,0.1,0.6,0.1c0.4,0,0.5,0,0.6,0l0.1-0.1l0.1-0.1c0-0.1,0.1-0.1,0.1-0.1s0.1,0,0.1-0.1 c0,0,0.1-0.2,0.2-0.3c0.1-0.1,0.1-0.2,0.1-0.2v-0.1c0,0,0-0.1,0.1-0.1c0-0.1,0-0.1,0.1-0.1s0.2,0.1,0.2,0.1s0.1,0.2,0.2,0.3 c0.1,0.1,0.4,0.4,0.5,0.6c0.2,0.2,0.3,0.4,0.4,0.4c0,0,0.1,0.1,0.2,0.1c0.1,0.1,0.1,0.1,0.2,0.1h0.1l0.1,0.1c0.1,0,0.1,0,0.1,0.1 c0,0,0,0,0.1,0c0,0,0.1,0,0.1,0.1s0.1,0.1,0.1,0.1s0.1,0,0.1,0.1c0,0,0.1,0.1,0.2,0.1c0.1,0,0.1,0,0.1,0s0.1,0.1,0.4,0.1 c0.6,0,0.8,0,0.8-0.1h0.1c0.1,0,0.3-0.3,0.3-0.4c0-0.1,0-0.1,0-0.2s0.1-0.1,0.1-0.2c0-0.1,0.1-0.2,0.1-0.2c0-0.1,0-0.1,0-0.1v-0.1 v-0.1c0,0,0-0.1,0-0.3c0-0.1,0-0.3,0-0.3s0-0.1,0.1-0.6c0-0.4,0-0.4,0.2-0.4c0.1,0,0.6,0.6,0.6,0.7c0,0,0.1,0.1,0.1,0.2 c0.1,0.1,0.1,0.2,0.1,0.2v0.1v0.1c0,0,0,0.1,0.1,0.2c0.1,0.1,0.1,0.2,0.1,0.2s0,0.1,0.1,0.2c0,0.1,0.1,0.2,0.1,0.2s0,0.1,0.1,0.2 s0.1,0.2,0.1,0.2s0,0.1,0.1,0.2c0,0.1,0.1,0.1,0.1,0.2c0,0.1,0.4,0.5,0.5,0.6s0.2,0.1,0.3,0.2c0,0,0.2,0,0.7,0s0.6,0,0.6,0h0.1 c0.1,0,0.1,0,0.2-0.2c0.1-0.1,0.2-0.2,0.2-0.2l0.1-0.1v-0.1V188c0-0.1,0.1-0.1,0.1,0h0.1h0.1h0.1c0,0,0.1,0,0.1,0.1 c0.1,0.1,0.2,0.1,0.3,0.2l0.1,0.1c0,0.1,0.1,0.1,0.1,0.1s0.1,0.1,0.2,0.1c0.1,0.1,0.1,0.1,0.2,0.1s0.1,0,0.1,0.1c0,0,0.1,0.1,0.1,0 c0,0,0.1,0,0.1,0.1c0.1,0.1,0.1,0.1,0.6,0.1s0.5,0,0.6-0.1c0,0,0.1-0.1,0.2,0c0.1,0,0.1,0,0.2-0.1c0-0.1,0.1-0.1,0.2-0.1 c0.1,0,0.2,0,0.2,0s0.1,0,0.2,0c0.1,0,0.1,0,0.1,0s0,0,0.1,0c0,0,0.2-0.1,0.3-0.3l0.2-0.3v-0.4c0-0.4,0-0.4-0.1-0.5 s-0.1-0.2-0.1-0.2c0-0.1-0.2-0.3-0.3-0.3c0,0-0.1-0.1-0.2-0.1c-0.1-0.1-0.1-0.1-0.2-0.1s-0.1,0-0.1,0s0,0-0.1,0s-0.1,0-0.1,0 s0,0-0.1,0s-0.1,0-0.1-0.1c0,0-0.1-0.1-0.2-0.1c0,0-0.1,0-0.1-0.1c0,0-0.1-0.1-0.1,0c-0.1,0-0.1,0-0.1-0.1l-0.1-0.1h-0.1h-0.1 c-0.1,0-0.1,0-0.1-0.1s0-0.1,0.3-0.1c0.2,0,0.3,0,0.3-0.1l0.1-0.1h0.1l0.1-0.1c0,0,0.1-0.1,0.2-0.1c0.1-0.1,0.1-0.2,0.1-0.3 s0-0.2,0.1-0.2c0,0,0-0.1,0-0.2c0-0.1,0-0.1,0.1-0.2v-0.1c0-0.1,0.1-0.3,0.2-0.3c0,0,0,0.3,0,0.5c0,0.4,0,0.5,0.1,0.6 c0,0.1,0,0.1,0,0.2c0,0.1,0,0.1,0,0.2c0,0,0,0.1,0.1,0.2c0,0.1,0,0.1,0.1,0.2v0.1v0.1v0.1v0.1v0.1c0,0.1,0.4,0.6,0.6,0.7l0.1,0.1 c0,0,0,0,0.1,0s0.1,0,0.1,0h0.1c0,0,0.1,0,0.1,0.1l0.1,0.1h0.1h0.1c0.1,0,0.2,0.1,0.4,0.2c0.1,0.1,0.3,0,0.4-0.1 c0.1-0.1,0.1-0.1,0.1,0s0.7,1.1,0.8,3.5c0.1,2.2,0.7,4.6,0.7,5s-0.8,2-0.8,2.1s-0.1,0.1-0.6,0.2c-2.1,0.7-4.4,1.3-7.1,1.8 c-4.1,0.8-8.1,1.4-12.1,1.6C207.7,201.2,205.1,201.2,204.3,201.2L204.3,201.2z"/><path id="path4792" d="M221.8,187.8c-0.1-0.2-0.4-0.5-0.6-0.8c-0.4-0.5-0.8-0.7-1-0.5c-0.8,0.6-1,0.7-1.6,0.7H218l-0.2-0.8 c-0.3-1.4-1-2.6-1.8-3.1c-0.5-0.4-1.7-1.7-2-2.2c-0.3-0.6-0.3-0.6-0.5-0.5c-0.3,0.3,0.1,2.8,0.5,3.3c0.1,0.1,0.1,0.4,0.1,1.1 c0,0.8,0,0.9-0.3,1.4c-0.3,0.4-0.4,0.5-0.6,0.5c-0.4,0-0.5-0.2-0.9-1.5c-0.2-0.5-0.4-1.2-0.6-1.5c-0.2-0.4-0.2-0.5-0.3-0.3 s-0.1,0.2-0.2,0.2c-0.1,0-0.2,0-0.3,0.3c-0.1,0.2-0.3,0.4-0.6,0.6c-0.4,0.2-0.6,0.3-1.1,0.3c-0.6,0-0.7,0-1-0.2 c-0.2-0.2-0.3-0.3-0.3-0.6c0-0.5,0-0.5,1-0.7s1.3-0.6,1.7-2.8c0.1-0.3,0.1-0.6,0.2-0.7c0.1-0.2,0.1-0.2,0-0.2 c-0.2-0.1-0.1-0.3,0.1-0.6c0.1-0.2,0.2-0.3,0.1-0.3c-0.2,0-0.7,0.3-0.9,0.5c-0.2,0.3-0.8,1.3-0.8,1.5c0,0-0.1,0.2-0.2,0.3 c-0.3,0.2-0.6,0.1-0.7-0.4c-0.1-0.4-0.1-3.1,0-3.7c0-0.2,0-0.4,0-0.4s-0.1-0.1-0.1-0.3v-0.3l-0.3,0.5c-0.6,0.9-1.2,2.1-1.3,2.7 c-0.1,0.4-0.1,0.8-0.1,1.2c0.2,1.9,0.2,1.8,0,1.9c-0.3,0.1-0.7-0.1-0.8-0.4l-0.1-0.3l-0.2,0.5c-0.1,0.4-0.2,0.5-0.4,0.5 c-0.8,0.1-1.1-0.3-1.1-1.6v-0.9l-0.2,0.1c-0.4,0.2-0.4,0.2-0.4-0.3v-0.4l-0.3,0.3c-0.2,0.2-0.5,0.8-0.7,1.4 c-0.5,1.2-0.7,1.5-1.2,1.7c-0.2,0.1-0.3,0.2-0.3,0.2s-0.1,0.1-0.2,0.1c-0.1,0-0.2,0.1-0.3,0.4c-0.3,0.7-0.7,0.9-1.1,0.4 c-0.2-0.2-0.2-0.4-0.2-1.2V182l0.4-0.1c0.2-0.1,0.5-0.1,0.6-0.1c0.3,0,0.8-0.2,1.2-0.4c0.6-0.5,0.9-2,0.5-3.4 c-0.1-0.4-0.1-0.9-0.1-1.1c0-0.3,0-0.5-0.1-0.5s-0.1-0.1-0.1-0.5c0-0.5,0-0.5-0.2-0.3c-0.3,0.2-0.7,1-0.9,2 c-0.1,0.5-0.3,1.1-0.3,1.2c-0.1,0.3-0.2,0.3-0.6,0.3c-0.7,0-0.8-0.1-0.8-1.3c0-0.5,0.1-1.3,0.1-1.8c0-0.7,0-1-0.1-1.4 c-0.1-0.3-0.2-0.5-0.2-0.5c-0.2,0-0.6,0.7-0.8,1.1c-0.1,0.4-0.9,1.5-1.3,1.9c-0.1,0.1-0.2,0.3-0.3,0.5c-0.2,0.5-0.2,1.7,0.2,2.7 c0.9,2.9,0.9,3.4,0.1,4.3c-0.3,0.3-0.8,0.2-1.1-0.2c-0.6-0.7-0.8-1.5-0.5-2.4c0.1-0.2,0.2-0.6,0.2-0.9c0.1-0.6-0.1-1.4-0.3-1.4 c-0.1,0-0.1-0.1-0.1-0.1c0-0.1-0.1,0.1-0.2,0.4c-0.1,0.3-0.3,0.8-0.5,1.1c-0.7,1.2-0.8,1.5-0.9,2.5c-0.2,1.5-0.5,2-1,1.7 c-0.3-0.1-0.3-0.1-0.4,0c-0.1,0.1-0.1,0.1-0.3,0s-0.4-0.1-0.4,0.2c0,0.2-0.7,1.2-0.9,1.3c-0.1,0-0.2,0.1-0.4,0.1 c-0.7,0-0.9-1.2-0.4-1.9c0.3-0.5,0.7-0.8,1.1-0.9c0.7-0.2,1-0.7,1.3-2c0.4-1.7,0.5-4.1,0.1-6.4c-0.1-0.6-0.4-1.1-0.5-0.9 c0,0.1-0.1,0.5-0.2,1.1c-0.2,1.2-0.6,3.3-0.8,3.9c-0.2,0.5-0.5,1.2-0.8,1.6c-0.2,0.3-0.3,0.3-0.7,0.3c-0.3,0-0.5-0.1-0.6-0.1 c-0.1-0.1-0.2-0.1-0.2-0.1c-0.2,0-0.5-0.5-0.6-0.8c0-0.3,0-0.4,0.3-0.7c0.2-0.2,0.5-0.5,0.7-0.6c0.3-0.2,0.4-0.4,0.5-0.8 c0.2-0.6,0.2-1.1,0.1-1.2c0,0-0.1-0.2-0.2-0.4l-0.1-0.3l-0.2,0.4c-0.1,0.2-0.3,0.6-0.5,0.7c-0.3,0.3-0.9,0.7-1.1,0.7 c-0.1,0-0.4,0.1-0.7,0.3c-0.7,0.4-1,0.8-1,1.3c0,0.2,0,0.2,0,0.1c0-0.1,0.1-2.7,0.3-5.8s0.5-9.6,0.8-14.3l-0.2-7l0.1-1 c-0.4-0.9,0,0.5,0,0s-0.1-1.2-2,3.6l-2.2,3.8l-1.5,0.3c-0.6,0-3.7-0.7-5-0.9c-2.2-0.5-4-1.6-5.3-2.4c-0.8-0.5-1.6-2.2-2.1-2.7 c-0.3-0.4-0.3-0.4-0.2-0.7c0.7-1.6,2-5.1,3.5-9.4c2.1-6.1,3.2-9,3.5-9.3s10.6-3.9,15.9-5.6c2.1-0.7,2.6-0.8,2.7-0.7 c0.1,0.1,0.4,0.6,0.8,1.1c2.9,4.2,5,5.7,8.8,6.4c1.2,0.2,4.6,0.2,5.7,0c2.4-0.4,3.5-1.7,5.1-3c1.1-0.9,1.6-1.8,3.7-4.8 c0.1-0.1,2,0.3,5.8,1.6c7.2,2.4,13.9,4.8,14,4.9c0.2,0.3,1.7,4.4,3.1,8.1c1.7,5,2.7,7.6,3.5,9.5c0.3,0.8,0.5,1.4,0.5,1.5 s-1.1,1.2-1.6,1.6c-2.1,1.5-6,4-10.2,4.5c-2.1,0.3-3-0.9-3.3-1.6c-0.1-0.3-0.7-2.1-1.3-3.8c-1.1-2.7-0.9-2.1-1.3-2.4 c-0.6-0.6,0-0.6-0.6,0c-0.2,0.2-0.1,1.1-0.2,1.3c-0.1,0.2-0.5-0.5-0.4,1c0.4,7.6,1.1,20.5,1.3,24.6c0.2,2.6,0.3,5.2,0.3,5.8 s0.1,1.1,0.1,1.2c0,0.1,0,0.3-0.1,0.3s-0.2,0.1-0.3,0.2c-0.2,0.1-0.4,0.2-0.6,0.2c-0.4,0-0.4,0-0.6-0.3c-0.2-0.4-0.2-1.5,0-2.4 c0.2-0.8,0.2-1.4,0-1.6c-0.2-0.3-1.2-1.1-1.4-1.1s-0.8-0.7-1-1.1c-0.2-0.4-0.3-0.4-0.3,0c0,0.2-0.1,0.3-0.1,0.4 c-0.2,0.1-0.2,0.2,0.3,1c0.4,0.7,0.4,0.8,0.4,1.5c0,1.1-0.4,1.6-1,1.3c-0.4-0.2-1-1-1.1-1.5c-0.1-0.6-0.5-1.4-0.7-1.7 c-0.7-0.9-2.1-2.1-1.7-1.5c0.1,0.2,0,0.5-0.1,0.5c0,0-0.1-0.1-0.2-0.1c-0.1-0.1-0.1,0,0,0.1s0.3,0.5,0.4,0.9 c0.2,0.6,0.3,0.9,0.4,1.9c0.1,1.5,0.3,2.3,0.6,2.6s1.6,1,2,1.1c0.3,0.1,0.8,0.6,1,0.9c0.1,0.1,0.1,0.5,0.1,0.8v0.6h-0.4 C222.1,188.1,222,188.1,221.8,187.8L221.8,187.8z"/><path id="path6537" class="st1" d="M186.6,156.4c-0.1-0.2-0.1-0.3,0-0.6c0.1-0.2,0.2-0.3,0.2-0.3c0.1,0,0.2-0.2,0.3-0.5 c0.1-0.2,0.3-0.6,0.5-0.8c0.1-0.2,0.3-0.5,0.4-0.7c0.1-0.1,0.2-0.5,0.4-0.7c0.1-0.2,0.3-0.6,0.3-0.9c0.1-0.3,0.3-0.7,0.5-1.1 c0.5-0.8,0.8-1.6,0.9-2.1c0-0.4,1-2.2,1.2-2.3s1.6-1.6,1.6-1.7c0-0.1,0.7-0.8,1.1-1c0.4-0.2,0.6-0.5,0.7-1.2 c0.1-0.7,0.4-1.2,0.9-1.4c0.2-0.1,0.5-0.2,0.6-0.3s0.4-0.2,0.6-0.2c0.4-0.1,0.4-0.2,0.5-0.5c0.1-0.4,0.2-0.5,0.8-0.7 c0.5-0.2,1.3-0.9,1.3-1.2c0-0.1,0-0.3,0.1-0.5c0.1-0.3,0.2-0.4,0.6-0.6c0.3-0.2,0.8-0.5,1.3-1c0.9-0.9,1.8-1.7,2-1.7 c0.1,0,0.1,0,0.1,0.3c0,0.2-0.2,0.5-0.3,0.7s-0.3,0.6-0.4,1.1c-0.2,0.8-0.3,1.2-0.4,1.2c-0.1,0-0.7,0.7-0.7,0.8 c0,0.2-0.4,1.1-0.5,1.1s-0.4,0.2-1.2,1c-0.4,0.4-0.8,0.6-1,0.7c-0.4,0.1-0.8,0.5-0.9,0.8c0,0.1-0.3,0.4-0.6,0.7s-0.6,0.6-0.7,0.9 c-0.1,0.3-0.4,0.7-1.1,1.3c-0.5,0.5-1,1-1.1,1.2c-0.6,1.1-0.8,1.5-1,1.5c-0.1,0-0.3,0.2-0.5,0.4c-0.4,0.4-0.6,0.8-0.6,1.3 c0,0.1-0.1,0.2-0.2,0.3c-0.2,0.1-0.2,0.2-0.3,0.6c-0.1,0.3-0.2,0.6-0.2,0.8c-0.1,0.1-0.1,0.3-0.1,0.4c0,0.1-0.1,0.2-0.1,0.4 c-0.1,0.1-0.2,0.3-0.2,0.5c-0.1,0.2-0.4,0.4-0.9,0.6c-0.4,0.2-0.8,0.5-0.9,0.6c-0.1,0.1-0.1,0.2-0.2,0.2c0,0-0.1,0.2-0.2,0.3 c-0.2,0.4-0.5,0.9-0.9,1.3c-0.1,0.1-0.3,0.4-0.3,0.5c-0.1,0.2-0.1,0.2-0.1,0.1c-0.1-0.1-0.1-0.1-0.4,0.2c-0.2,0.2-0.3,0.4-0.2,0.4 c0.1,0.1,0.1,0.1-0.1,0.1C186.8,156.6,186.7,156.5,186.6,156.4L186.6,156.4z"/><path id="path6539" class="st1" d="M189.1,164.2c-0.1-0.1-0.1-0.2,0-0.3c0.1-0.3,0.3-0.8,0.4-1c0-0.1,0.1-0.2,0.1-0.3 s0.2-0.3,0.5-0.6s0.5-0.5,0.5-0.6c0-0.2,0.4-0.8,0.7-1.2c0.1-0.1,0.3-0.4,0.4-0.6c0.2-0.5,0.5-0.9,1.1-1.5c0.5-0.5,0.8-1,0.8-1.4 c0-0.1,0-0.3,0.1-0.4c0-0.1,0.2-0.4,0.3-0.7s0.3-0.6,0.5-0.8c0.3-0.4,0.6-0.9,0.6-1.3c0-0.3,0.4-0.9,0.6-1c0,0,0.3-0.2,0.5-0.4 s0.4-0.4,0.5-0.4s0.1-0.1,0.2-0.1c0.1-0.1,0.2-0.1,0.4-0.1c0.3,0,0.5-0.3,0.7-1.1c0.1-0.3,0.2-0.5,0.2-0.5s0.1-0.1,0.1-0.2 c0-0.1,0.1-0.2,0.1-0.2c0.1,0,1.1-0.9,1.1-1.1c0-0.1,0-0.1,0.1-0.1c0,0,0.2-0.2,0.3-0.4s0.2-0.4,0.3-0.5c0,0,0.1-0.1,0.1-0.2 c0-0.2,1-1.2,1.6-1.7c0.3-0.2,0.5-0.4,0.5-0.4l0.1-0.1c0,0,0.2-0.1,0.2-0.2c0.1-0.3,0.5-0.9,0.8-1.2c0.2-0.2,0.5-0.5,0.7-0.8 s0.4-0.5,0.4-0.6c0,0,0-0.1,0.1-0.1c0.2,0,0.7-0.6,0.7-0.8s0.4-0.7,0.6-0.7c0.1,0,0.4-0.2,0.4-0.4c0-0.1,0.1-0.1,0.1-0.1 c0.2,0,0.8-1.3,0.9-1.8c0.1-0.4,0.4-1.1,0.5-1.3c0.1-0.1,0.2-0.2,0.2-0.3s0.1-0.1,0.2-0.1c0.1,0,0.2-0.1,0.3-0.2 c0.1-0.2,1-1.2,1.1-1.2s0.3-0.1,0.6-0.2c0.3-0.1,0.6-0.2,0.6-0.2c0.1,0,0.1,0,0.1-0.1c0,0,0.1-0.1,0.2-0.2c0.2-0.1,0.3-0.1,0.4,0.1 l0.2,0.2l-0.3,0.6c-0.3,0.6-0.3,0.7-0.4,1.4c0,0.4-0.1,0.8-0.1,1c-0.1,0.1-0.1,0.3-0.1,0.4c0,0.3-0.3,0.6-0.5,0.6 c-0.1,0-0.2,0.1-0.4,0.3c-0.3,0.3-0.9,1.1-0.9,1.3c0,0-0.1,0.2-0.2,0.3c-0.1,0.1-0.3,0.3-0.3,0.4c0,0.1-0.1,0.3-0.2,0.3 c-0.2,0.2-0.3,0.3-0.6,1c-0.1,0.2-0.2,0.4-0.3,0.4l-0.1,0.1c0,0-0.3,0.4-0.6,0.7c-0.6,0.6-1.2,1.5-1.2,1.9c0,0.3-0.3,0.8-0.5,0.8 c-0.1,0-0.3,0.2-0.4,0.3c-0.1,0.2-0.2,0.3-0.2,0.3c-0.1,0.1-0.3,0.4-0.4,0.6c-0.1,0.2-0.6,0.6-0.8,0.6c-0.1,0-0.2,0.2-0.3,0.3 c-0.2,0.4-0.6,0.9-0.7,0.9c-0.1,0-0.6,0.5-0.7,0.8c0,0.1-0.1,0.3-0.2,0.4c-0.1,0.2-0.1,0.3-0.1,0.4c0,0.2-0.7,0.8-1,0.8 s-0.7,0.4-0.7,0.7c0,0.1-0.1,0.3-0.3,0.6c-0.2,0.2-0.3,0.5-0.3,0.5c0,0.1-0.6,0.7-0.9,0.9c-0.4,0.2-1.2,1.1-1.4,1.5s-0.3,0.6-0.6,1 c-0.1,0.2-0.3,0.4-0.3,0.4c0,0.1-0.7,0.8-0.9,0.8c-0.1,0-0.2,0.1-0.2,0.1c0,0.1,0,0.1-0.1,0.1c0,0-0.1,0.1-0.1,0.2 c-0.1,0.3-0.5,1.3-0.6,1.3l-0.1,0.1c0,0.1-0.1,0.2-0.3,0.4c-0.2,0.1-0.3,0.3-0.3,0.4c0,0.1,0,0.1-0.1,0.1c0,0-0.1,0.1-0.2,0.2 c-0.1,0.1-0.4,0.6-0.9,1c-0.6,0.7-0.8,0.8-1.3,0.9c-0.4,0.1-0.7,0.3-1.5,1C189.3,164.4,189.2,164.4,189.1,164.2L189.1,164.2z"/><path id="path6541" class="st1" d="M194.2,167.5c0-0.3,0.1-0.6,0.1-0.7c0-0.1,0.2-0.3,0.3-0.6s0.2-0.5,0.2-0.6s0.1-0.2,0.1-0.3 s0.1-0.3,0.2-0.3l0.1-0.1c0-0.1,0.1-0.2,0.2-0.4c0.1-0.1,0.2-0.3,0.2-0.3s0.2-0.2,0.4-0.4s0.4-0.4,0.4-0.5s0.4-0.5,0.9-1 s0.9-0.9,0.9-1s0.1-0.2,0.3-0.4c0.2-0.1,0.3-0.3,0.3-0.4c0-0.1,0-0.1,0.1-0.1c0,0,0.2-0.1,0.2-0.3c0.1-0.2,0.2-0.3,0.2-0.3 s0.6-0.9,0.9-1.3c0.1-0.1,0.1-0.3,0.2-0.3c0-0.1,0.1-0.2,0.2-0.2c0.2,0,0.8-0.7,0.8-0.8s0.1-0.1,0.1-0.2c0.1,0,0.1-0.1,0.1-0.2 c0-0.1,0.1-0.2,0.3-0.4c0.9-0.8,1.2-1.1,1.2-1.2c0-0.1,0.6-1,0.7-1.1l0.1-0.1c0-0.1,0.5-0.6,0.6-0.6s0.1-0.1,0.1-0.1 c0-0.1,0.1-0.2,0.3-0.4s0.3-0.3,0.1-0.3s-0.2-0.1-0.1-0.2c0,0,0.1,0,0.2,0c0.2,0.1,0.3,0,0.3-0.2c0-0.1,0.1-0.2,0.2-0.3 c0.1-0.1,0.2-0.2,0.2-0.3s0.1-0.1,0.1-0.1c0.1,0,0.2-0.1,0.2-0.2c0.1-0.1,0.2-0.2,0.2-0.2c0.1,0,0.5-0.4,0.9-0.8 c0.6-0.6,0.8-0.8,0.7-1c0-0.2,0-0.2,0.2-0.1c0.2,0,0.2,0,0.3-0.2c0-0.1,0.2-0.3,0.2-0.3c0.2-0.1,0.4-0.5,0.3-0.6 c0-0.1,0-0.1,0.1-0.1s0.2,0.1,0.2,0.1c0,0.1,0,0,0.1-0.1s0.1-0.3,0.2-0.3l0.1-0.1c0-0.1,1.2-1.4,1.3-1.4s0.6-0.5,0.6-0.6 c0,0,0.2-0.2,0.4-0.4s0.4-0.5,0.4-0.6s0.1-0.3,0.1-0.3s0.2-0.2,0.3-0.4c0.3-0.5,0.4-0.8,0.5-0.8s0.1-0.3,0.1-0.7 c0-0.6,0.1-0.9,0.5-0.9c0.3,0,0.5-0.2,0.7-0.6c0-0.1,0.1-0.2,0.1-0.3s0.2-0.3,0.3-0.5s0.3-0.4,0.3-0.4c0.1,0,0.2-0.1,0.2-0.1 c0.1,0,0.2-0.2,0.3-0.3s0.3-0.3,0.4-0.4c0.1-0.1,0.2-0.3,0.3-0.3c0.1-0.1,0.2-0.1,0.2-0.2c0-0.1,0.1-0.1,0.3-0.1 c0.3,0,0.5-0.2,0.4-0.3c0-0.1,0-0.1,0-0.1c0.3,0,0.6,0.6,0.4,0.9c-0.1,0.1-0.1,0.2-0.2,0.3c-0.1,0,0,0.1,0,0.2 c0.1,0.2,0.1,0.2,0,0.3s-0.2,0.1-0.3,0.1s-0.1,0-0.1,0.2c0,0.1,0.1,0.3,0.1,0.3c0.1,0.1,0.1,0.5,0,0.6c-0.1,0-0.2,0.2-0.2,0.4 c-0.1,0.2-0.3,0.6-0.6,0.8c-0.2,0.3-0.4,0.5-0.4,0.6c0,0.2-0.4,0.9-0.5,0.9c0,0-0.1,0.1,0,0.2c0,0.1,0,0.1-0.1,0.1s-0.2,0-0.2,0.4 c0,0.3-0.1,0.5-0.1,0.5s-0.1,0.2-0.2,0.4c-0.1,0.2-0.3,0.4-0.6,0.7c-0.3,0.2-0.5,0.4-0.6,0.6c0,0.1-0.1,0.3-0.1,0.4 c0,0.1-0.1,0.2-0.1,0.3s-0.1,0.2-0.3,0.2c-0.4,0-0.5,0.2-0.6,0.8c-0.1,0.4-0.1,0.4-0.3,0.4s-0.3,0.1-0.3,0.2c0,0.1-0.1,0.2-0.2,0.2 c-0.2,0.1-0.5,0.4-0.5,0.5c0,0-0.1,0.2-0.2,0.3c-0.1,0.1-0.2,0.3-0.2,0.3c0,0.2-0.4,0.5-0.6,0.5c-0.1,0-0.2,0.1-0.2,0.3 c-0.1,0.4-0.1,0.9,0,1s0,0.3-0.1,0.1c0-0.1-0.2-0.1-0.3-0.1c-0.2,0-0.3,0-0.3,0.2c-0.1,0.2-0.3,0.5-0.4,0.5c-0.1,0-0.6,0.5-0.8,0.9 c-0.2,0.3-0.3,0.8-0.1,1c0.1,0.1,0.1,0.2,0.1,0.2c-0.1,0.1-0.7,0.3-0.9,0.3c-0.3,0-0.9,0.6-1,1c0,0.1-0.1,0.2-0.2,0.2 c-0.1,0-0.1,0-0.1,0.1c0,0-0.1,0.1-0.3,0.2c-0.4,0.2-0.7,0.5-0.9,0.9c0,0.1-0.3,0.4-0.5,0.6c-0.2,0.3-0.5,0.6-0.5,0.7 c0,0.1-0.1,0.2-0.1,0.2s-0.1,0.1-0.1,0.3c-0.1,0.8-0.3,1-0.7,1.1c-0.5,0.1-0.6,0.2-0.6,0.5c0,0.1,0,0.3-0.1,0.3s-0.1,0.1-0.1,0.2 c0,0.2-0.1,0.2-0.5,0.3s-0.6,0.2-0.9,0.6c-0.2,0.3-0.5,0.5-0.5,0.5c-0.1,0-0.6,0.5-0.6,0.6s-0.1,0.2-0.3,0.4 c-0.2,0.1-0.3,0.3-0.3,0.4s-0.1,0.2-0.3,0.4s-0.3,0.3-0.3,0.4c0,0-0.2,0.2-0.4,0.4s-0.4,0.4-0.4,0.5s0,0.1-0.1,0.1 s-0.2,0.1-0.4,0.3s-0.4,0.3-0.5,0.3s-0.1,0-0.1,0.1c0,0-0.1,0.1-0.2,0.2c-0.1,0.1-0.3,0.3-0.5,0.5c-0.2,0.3-0.4,0.4-0.5,0.4 s-0.4,0.1-0.7,0.3c-0.2,0.1-0.4,0.2-0.5,0.2C194.1,168,194.1,167.8,194.2,167.5L194.2,167.5z"/><path id="path6543" class="st1" d="M201.3,168.6c0.1-0.1,0.5-0.6,1-1.1s0.9-1,1-1.2s0.4-0.5,0.6-0.8c0.3-0.3,0.5-0.5,0.5-0.5 c0-0.1,0.4-0.7,0.6-0.8c0,0,0.1-0.1,0.1-0.2c0-0.1,0.2-0.3,0.3-0.5s0.2-0.5,0.2-0.6c0-0.3,0.4-0.8,0.8-1c0.4-0.3,0.6-0.6,0.8-1.2 c0.1-0.3,0.2-0.4,0.5-0.5c0.2-0.1,0.4-0.2,0.4-0.2s0-0.1,0.1-0.1c0.2,0,0.6-0.5,0.6-0.8c0-0.2,0.1-0.4,0.4-0.8 c0.2-0.3,0.5-0.6,0.6-0.8c0.1-0.1,0.3-0.4,0.5-0.5c0.6-0.4,0.9-0.8,1.1-1.2c0.1-0.2,0.2-0.4,0.2-0.4s0.1-0.1,0.1-0.2 c0-0.3,0.5-0.7,0.9-0.8c0.3-0.1,0.4-0.2,0.3-0.3c0-0.1,0-0.2,0.1-0.1c0.1,0,0.1,0,0.1-0.1s0.1-0.2,0.1-0.2c0.1-0.1,0.2-0.3,0.3-0.5 s0.2-0.4,0.2-0.4s0.1-0.1,0.1-0.2c0-0.1,0.3-0.4,0.5-0.7s0.5-0.6,0.5-0.8c0.1-0.5,0.3-0.7,0.6-0.7c0.3,0.1,0.6,0,0.6-0.1 c0-0.3,0.8-1.9,1.1-2.1c0.1-0.1,0.2-0.2,0.1-0.3c-0.1-0.1-0.1-0.1,0-0.2c0,0,0.1,0,0.2,0.1c0.2,0.2,0.3,0.2,0.7-0.3 c0.2-0.2,0.5-0.4,0.5-0.4c0.1,0,0.2-0.1,0.3-0.2c0.1-0.1,0.2-0.3,0.2-0.3l0.1-0.1c0-0.1,0.1-0.2,0.3-0.4c0.2-0.1,0.4-0.3,0.4-0.3 c0.1-0.1,0.2-0.1,0.2-0.1s0.1,0,0.1-0.1s0.2-0.1,0.4-0.1c0.3,0,0.5,0,0.6,0.2c0.2,0.2,0.2,0.3,0.2,1.2v1l-0.4,0.3 c-0.7,0.6-0.8,0.7-0.8,0.9c0,0.1-0.1,0.2-0.2,0.2c-0.2,0-0.6,0.3-0.6,0.5c0,0.1-0.6,0.8-0.9,1.1c-0.3,0.3-0.5,0.6-0.3,0.7 c0.1,0,0.1,0.1,0.1,0.1c0,0.1-0.1,0.1-0.1,0c-0.1,0-0.2,0.1-0.3,0.2c-0.1,0.2-0.2,0.3-0.3,0.2c-0.1,0-0.2,0-0.2,0.1 s-0.3,0.3-0.5,0.4c-0.5,0.4-0.7,0.6-1,1.2c-0.3,0.6-0.3,0.6-0.6,1.1c-0.1,0.2-0.2,0.4-0.3,0.5c0,0.1-0.1,0.2-0.2,0.1 c-0.1,0-0.2,0.1-0.4,0.4c-0.1,0.2-0.3,0.5-0.4,0.5c-0.1,0-0.2,0.2-0.2,0.3s-0.1,0.4-0.2,0.6c-0.1,0.3-0.2,0.3-0.4,0.3 c-0.3,0-0.3,0-0.3,0.4c0,0.3-0.1,0.5-0.2,0.5c-0.1,0.1-0.3,0.2-0.4,0.3c-0.1,0.1-0.4,0.2-0.6,0.3c-0.3,0.1-0.4,0.2-0.3,0.3 c0,0.1,0,0.1-0.1,0.1s-0.4,0.2-0.8,0.6c-0.4,0.4-0.7,0.7-0.7,0.8c0,0-0.1,0.2-0.3,0.4s-0.3,0.3-0.3,0.4c0,0.1-0.4,0.6-0.9,1.2 c-0.5,0.6-0.6,0.7-0.6,0.8c0,0-0.2,0.3-0.5,0.6c-0.6,0.5-0.9,0.9-1.9,1.9c-0.3,0.3-0.7,0.7-0.9,0.8s-0.5,0.4-0.7,0.6 c-0.2,0.2-0.7,0.5-1.1,0.7c-0.4,0.2-0.7,0.4-0.8,0.4c-0.1,0.1-0.3,0.1-0.4,0.1C201.2,168.8,201.2,168.8,201.3,168.6L201.3,168.6z" /></g><path class="st2" d="M40.2,75.6c6.9-0.1,16.7-1.8,22.4-4c-0.7-6.6-2.7-45.5-2.7-45.5s2.1,5.1,3.2,7.9c4.7-0.4,12.3-1.3,15.3-6.2 C75.5,21,73.3,13.2,71,8.1c0,0-10.4-3.8-18.6-6.4c0,0-0.9-0.3-1.3,0.4c-3,4.2-4.5,7.1-11.2,7.1l0,0c-6.4-0.1-8-2.9-10.9-7.1 c-0.5-0.7-1.4-0.4-1.4-0.4C19.5,4.2,9,8.1,9,8.1c-2.3,5.1-4.5,13-7.4,19.7c3,4.8,10.4,5.8,15.3,6.2c1.1-2.8,3.2-7.9,3.2-7.9 S18,65,17.4,71.6c5.8,2.2,15.5,4,22.4,4l0,0"/></svg>