<?xml version="1.0" encoding="UTF-8" standalone="no"?>
<svg
   version="1.1"
   id="Layer_1"
   x="0px"
   y="0px"
   viewBox="0 0 80 77.1"
   style="enable-background:new 0 0 80 77.1;"
   xml:space="preserve"
   sodipodi:docname="innsbruck_glacier_giants.svg"
   inkscape:version="1.2.1 (9c6d41e410, 2022-07-14)"
   xmlns:inkscape="http://www.inkscape.org/namespaces/inkscape"
   xmlns:sodipodi="http://sodipodi.sourceforge.net/DTD/sodipodi-0.dtd"
   xmlns:xlink="http://www.w3.org/1999/xlink"
   xmlns="http://www.w3.org/2000/svg"
   xmlns:svg="http://www.w3.org/2000/svg"><defs
   id="defs18"><linearGradient
     inkscape:collect="always"
     id="linearGradient13104"><stop
       style="stop-color:#606060;stop-opacity:1;"
       offset="0"
       id="stop13100" /><stop
       style="stop-color:#54d3cf;stop-opacity:1;"
       offset="0.19822387"
       id="stop14605" /><stop
       style="stop-color:#ffffff;stop-opacity:1;"
       offset="1"
       id="stop13102" /></linearGradient><inkscape:path-effect
     effect="spiro"
     id="path-effect12523"
     is_visible="true"
     lpeversion="1" /><inkscape:path-effect
     effect="spiro"
     id="path-effect12519"
     is_visible="true"
     lpeversion="1" /><inkscape:path-effect
     effect="spiro"
     id="path-effect12515"
     is_visible="true"
     lpeversion="1" /><inkscape:path-effect
     effect="spiro"
     id="path-effect12511"
     is_visible="true"
     lpeversion="1" /><inkscape:path-effect
     effect="spiro"
     id="path-effect12507"
     is_visible="true"
     lpeversion="1" /><inkscape:path-effect
     effect="spiro"
     id="path-effect12503"
     is_visible="true"
     lpeversion="1" /><inkscape:path-effect
     effect="spiro"
     id="path-effect7162"
     is_visible="true"
     lpeversion="1" /><inkscape:path-effect
     effect="spiro"
     id="path-effect5759"
     is_visible="true"
     lpeversion="1" /><inkscape:path-effect
     effect="spiro"
     id="path-effect7162-8"
     is_visible="true"
     lpeversion="1" /><inkscape:path-effect
     effect="spiro"
     id="path-effect7162-8-7"
     is_visible="true"
     lpeversion="1" /><inkscape:path-effect
     effect="spiro"
     id="path-effect7162-8-7-2"
     is_visible="true"
     lpeversion="1" /><inkscape:path-effect
     effect="spiro"
     id="path-effect7162-8-7-2-1"
     is_visible="true"
     lpeversion="1" /><linearGradient
     inkscape:collect="always"
     xlink:href="#linearGradient13104"
     id="linearGradient13106"
     x1="38.245216"
     y1="74.953445"
     x2="39.835266"
     y2="56.303505"
     gradientUnits="userSpaceOnUse" /><filter
     inkscape:collect="always"
     style="color-interpolation-filters:sRGB"
     id="filter15333"
     x="-0.0063829529"
     y="-0.0080169894"
     width="1.0127397"
     height="1.0195254"><feGaussianBlur
       inkscape:collect="always"
       stdDeviation="0.054220047"
       id="feGaussianBlur15335" /></filter></defs><sodipodi:namedview
   id="namedview16"
   pagecolor="#ffffff"
   bordercolor="#000000"
   borderopacity="0.25"
   inkscape:showpageshadow="2"
   inkscape:pageopacity="0.0"
   inkscape:pagecheckerboard="0"
   inkscape:deskcolor="#d1d1d1"
   showgrid="false"
   inkscape:zoom="5.6568543"
   inkscape:cx="-8.7504464"
   inkscape:cy="37.653436"
   inkscape:window-width="1920"
   inkscape:window-height="1017"
   inkscape:window-x="1912"
   inkscape:window-y="-8"
   inkscape:window-maximized="1"
   inkscape:current-layer="Layer_1" />
<style
   type="text/css"
   id="style11">
	.st0{fill:none;stroke:#000000;stroke-width:3;stroke-linecap:round;stroke-linejoin:round;}
</style>
<path
   style="display:inline;fill:#62afd0;fill-opacity:1;stroke-width:0.0921147"
   d="M 38.135483,74.005553 C 32.830649,73.81558 26.202142,72.692836 20.644472,71.042907 l -1.601226,-0.475363 0.05809,-0.832877 c 0.395174,-5.665795 1.093994,-17.425989 1.952231,-32.85338 l 0.612958,-11.018353 -0.18775,-0.424441 c -0.395382,-0.893826 -1.58477,-1.171138 -2.330762,-0.543427 -0.355763,0.299355 -0.542176,0.705263 -2.061813,4.489521 -0.65103,1.621219 -1.188235,2.95626 -1.193789,2.966758 -0.0056,0.0105 -0.650918,-0.06304 -1.434141,-0.163413 C 10.702797,31.706643 7.7814599,30.849745 5.7812044,29.642741 4.91344,29.119112 3.9832317,28.370867 3.6390614,27.919636 L 3.3923581,27.596192 4.1274723,25.726949 C 4.8882091,23.792553 5.7952762,21.302366 6.9557738,17.962365 8.6128297,13.193232 9.9054027,9.7433159 10.156768,9.4188164 10.266315,9.2773974 12.472301,8.461798 17.686021,6.6350935 20.310373,5.7156126 27.671318,3.2700716 27.814553,3.2700716 c 0.04779,0 0.282465,0.2797984 0.5215,0.6217742 1.011211,1.4466895 2.024084,2.7510714 2.638581,3.3979776 2.372204,2.4973138 5.453581,3.5720606 9.786036,3.4132516 1.741229,-0.06382 2.781375,-0.234649 4.099186,-0.67321 2.675278,-0.8903197 4.08656,-2.1852655 7.236051,-6.6395637 0.08317,-0.1176312 0.547352,0.011433 3.224014,0.8964278 4.226236,1.3973372 14.44444,4.9630684 14.539584,5.0737145 0.158708,0.1845652 1.60998,4.0717954 2.970739,7.9571184 1.401727,4.002299 2.516369,7.062264 3.201584,8.789128 l 0.599984,1.512068 -0.286139,0.330226 c -1.810541,2.089502 -5.572252,3.595024 -10.483667,4.1958 -0.633289,0.07746 -1.281574,0.158351 -1.440635,0.179747 l -0.289202,0.0389 -1.353782,-3.331716 c -0.744579,-1.832444 -1.44347,-3.497522 -1.553091,-3.700174 -0.273233,-0.505114 -0.866047,-0.809341 -1.47275,-0.755802 -0.496625,0.04382 -0.831671,0.252119 -1.155269,0.718214 -0.215052,0.309753 -0.217233,0.335999 -0.163827,1.971996 0.106997,3.27764 1.62695,30.506779 2.087619,37.398566 0.236382,3.536366 0.370577,5.36361 0.411192,5.5989 0.05154,0.298593 0.08119,0.283564 -1.518284,0.769769 -4.978798,1.513447 -12.448787,2.764709 -17.547849,2.939354 -0.810609,0.02776 -1.577464,0.06102 -1.704122,0.07391 -0.126657,0.01289 -1.038593,-0.0055 -2.026523,-0.04089 z"
   id="path264" /><path
   style="enable-background:new 0 0 80 77.1;mix-blend-mode:normal;fill:url(#linearGradient13106);fill-opacity:1;fill-rule:nonzero;stroke:#ff0000;stroke-width:0.3;stroke-linecap:round;stroke-linejoin:bevel;stroke-dasharray:none;stroke-opacity:1;paint-order:stroke fill markers;filter:url(#filter15333)"
   d="m 19.975767,62.225397 4.24264,-8.662058 2.872843,0.03768 2.141653,5.651825 3.672459,-3.725647 5.094111,4.536231 6.09128,-2.161969 2.106289,3.631014 3.063528,2.312282 6.215445,-12.522778 0.899817,4.700408 1.715985,-1.158099 1.835483,7.361109 1.502601,0.530332 0.883884,7.247844 -0.883884,1.944544 c 0,0 -22.700415,8.648721 -42.161241,0.265165 -2.260325,-0.973729 0.707107,-9.987883 0.707107,-9.987883 z"
   id="path13075"
   sodipodi:nodetypes="ccccccccccccccccsc" />
<g
   id="g12458"
   style="display:inline"><path
     style="fill:none;fill-opacity:1;stroke:#4b0082;stroke-linecap:round;stroke-linejoin:bevel;stroke-opacity:1;paint-order:stroke fill markers"
     d="m 4.1221325,27.634408 c 0.7117951,0.697359 1.5202467,1.295924 2.3949821,1.773208 1.4301583,0.780341 3.0168282,1.228387 4.6074764,1.580697 1.466743,0.324867 2.950322,0.573711 4.442792,0.745199"
     id="path5757"
     inkscape:path-effect="#path-effect5759"
     inkscape:original-d="m 4.1221325,27.634408 c 1.5515974,0.707213 1.060026,1.265797 2.3949821,1.773208 1.1849026,0.450377 2.7905222,1.170477 4.6074764,1.580697 1.816953,0.410219 3.794527,0.807847 4.442792,0.745199"
     sodipodi:nodetypes="cssc" /><path
     style="fill:none;fill-opacity:1;stroke:#0000ff;stroke-linecap:round;stroke-linejoin:bevel;stroke-opacity:1;paint-order:stroke fill markers"
     d="m 4.3984766,26.529031 c 1.024528,1.063469 2.2610136,1.92192 3.6155018,2.510125 1.3610117,0.591038 2.8239456,0.906382 4.2833326,1.174463 1.207848,0.221875 2.421187,0.413859 3.638531,0.575717"
     id="path7160"
     inkscape:path-effect="#path-effect7162"
     inkscape:original-d="m 4.3984766,26.529031 c 1.1984911,0.745594 2.3518076,1.936976 3.6155018,2.510125 1.2502245,0.567041 2.8642316,0.745594 4.2833326,1.174463 1.419102,0.428868 2.426687,0.384811 3.638531,0.575717"
     sodipodi:nodetypes="cssc" /><path
     style="fill:none;fill-opacity:1;stroke:#008000;stroke-linecap:round;stroke-linejoin:bevel;stroke-opacity:1;paint-order:stroke fill markers"
     d="m 4.8705643,25.527284 c 0.9788292,1.157882 2.2261169,2.087389 3.6155021,2.694354 1.3619554,0.594982 2.8377486,0.877112 4.3063606,1.105377 1.200643,0.186615 2.406418,0.340217 3.615502,0.460574"
     id="path7160-8"
     inkscape:path-effect="#path-effect7162-8"
     inkscape:original-d="m 4.8705643,25.527284 c 1.1984911,0.745594 2.5181069,1.845151 3.6155021,2.694354 1.250224,0.967468 2.8872596,0.712246 4.3063606,1.105377 1.428682,0.395786 2.403658,0.269668 3.615502,0.460574"
     sodipodi:nodetypes="cssc" /><path
     style="fill:none;fill-opacity:1;stroke:#ffff00;stroke-linecap:round;stroke-linejoin:bevel;stroke-opacity:1;paint-order:stroke fill markers"
     d="m 5.3541668,24.537051 c 0.876892,1.112179 2.0134783,2.018268 3.2931006,2.625268 1.3980986,0.6632 2.9378346,0.96415 4.4675616,1.197492 1.207815,0.184238 2.421471,0.330184 3.638531,0.437545"
     id="path7160-8-3"
     inkscape:path-effect="#path-effect7162-8-7"
     inkscape:original-d="m 5.3541668,24.537051 c 1.1984911,0.745594 1.8094482,1.87731 3.2931006,2.625268 1.2258418,0.617987 3.0484606,0.768623 4.4675616,1.197492 1.419102,0.428868 2.426687,0.246639 3.638531,0.437545"
     sodipodi:nodetypes="cssc" /><path
     style="fill:none;fill-opacity:1;stroke:#ffa500;stroke-linecap:round;stroke-linejoin:bevel;stroke-opacity:1;paint-order:stroke fill markers"
     d="m 5.6765685,23.408646 c 0.8830019,1.231134 2.0841204,2.232065 3.4543013,2.878584 1.2995852,0.613208 2.7257322,0.90441 4.1451592,1.128405 1.305777,0.20606 2.619818,0.359749 3.937904,0.460574"
     id="path7160-8-3-9"
     inkscape:path-effect="#path-effect7162-8-7-2"
     inkscape:original-d="m 5.6765685,23.408646 c 1.198491,0.745594 2.3197898,2.374508 3.4543013,2.878584 1.1492342,0.510617 2.9959202,0.915303 4.1451592,1.128405 1.457643,0.27029 2.72606,0.269668 3.937904,0.460574"
     sodipodi:nodetypes="cssc" /><path
     style="fill:none;fill-opacity:1;stroke:#ff0000;stroke-linecap:round;stroke-linejoin:bevel;stroke-opacity:1;paint-order:stroke fill markers"
     d="m 6.0450271,22.30327 c 0.8075569,1.26719 1.9680917,2.306836 3.3161294,2.970699 1.2914595,0.636 2.7238075,0.923141 4.1451605,1.151434 1.344573,0.215961 2.696686,0.384975 4.053047,0.506631"
     id="path7160-8-3-9-2"
     inkscape:path-effect="#path-effect7162-8-7-2-1"
     inkscape:original-d="m 6.0450271,22.30327 c 1.198491,0.745594 2.5670595,2.544171 3.3161294,2.970699 0.8883595,0.50584 2.6531095,0.859885 4.1451605,1.151434 1.896986,0.370674 3.283558,-0.684383 4.053047,0.506631"
     sodipodi:nodetypes="cssc" /></g><g
   id="g12499"
   style="display:inline"
   transform="matrix(-1,0,0,1,80.072723,-0.07276335)"><path
     style="fill:none;fill-opacity:1;stroke:#4b0082;stroke-linecap:round;stroke-linejoin:bevel;stroke-opacity:1;paint-order:stroke fill markers"
     d="m 4.1221325,27.634408 c 0.7117951,0.697359 1.5202467,1.295924 2.3949821,1.773208 1.4301583,0.780341 3.0168282,1.228387 4.6074764,1.580697 1.466743,0.324867 2.950322,0.573711 4.442792,0.745199"
     id="path12487"
     inkscape:path-effect="#path-effect12503"
     inkscape:original-d="m 4.1221325,27.634408 c 1.5515974,0.707213 1.060026,1.265797 2.3949821,1.773208 1.1849026,0.450377 2.7905222,1.170477 4.6074764,1.580697 1.816953,0.410219 3.794527,0.807847 4.442792,0.745199"
     sodipodi:nodetypes="cssc" /><path
     style="fill:none;fill-opacity:1;stroke:#0000ff;stroke-linecap:round;stroke-linejoin:bevel;stroke-opacity:1;paint-order:stroke fill markers"
     d="m 4.3984766,26.529031 c 1.024528,1.063469 2.2610136,1.92192 3.6155018,2.510125 1.3610117,0.591038 2.8239456,0.906382 4.2833326,1.174463 1.207848,0.221875 2.421187,0.413859 3.638531,0.575717"
     id="path12489"
     inkscape:path-effect="#path-effect12507"
     inkscape:original-d="m 4.3984766,26.529031 c 1.1984911,0.745594 2.3518076,1.936976 3.6155018,2.510125 1.2502245,0.567041 2.8642316,0.745594 4.2833326,1.174463 1.419102,0.428868 2.426687,0.384811 3.638531,0.575717"
     sodipodi:nodetypes="cssc" /><path
     style="fill:none;fill-opacity:1;stroke:#008000;stroke-linecap:round;stroke-linejoin:bevel;stroke-opacity:1;paint-order:stroke fill markers"
     d="m 4.8705643,25.527284 c 0.9788292,1.157882 2.2261169,2.087389 3.6155021,2.694354 1.3619554,0.594982 2.8377486,0.877112 4.3063606,1.105377 1.200643,0.186615 2.406418,0.340217 3.615502,0.460574"
     id="path12491"
     inkscape:path-effect="#path-effect12511"
     inkscape:original-d="m 4.8705643,25.527284 c 1.1984911,0.745594 2.5181069,1.845151 3.6155021,2.694354 1.250224,0.967468 2.8872596,0.712246 4.3063606,1.105377 1.428682,0.395786 2.403658,0.269668 3.615502,0.460574"
     sodipodi:nodetypes="cssc" /><path
     style="fill:none;fill-opacity:1;stroke:#ffff00;stroke-linecap:round;stroke-linejoin:bevel;stroke-opacity:1;paint-order:stroke fill markers"
     d="m 5.3541668,24.537051 c 0.876892,1.112179 2.0134783,2.018268 3.2931006,2.625268 1.3980986,0.6632 2.9378346,0.96415 4.4675616,1.197492 1.207815,0.184238 2.421471,0.330184 3.638531,0.437545"
     id="path12493"
     inkscape:path-effect="#path-effect12515"
     inkscape:original-d="m 5.3541668,24.537051 c 1.1984911,0.745594 1.8094482,1.87731 3.2931006,2.625268 1.2258418,0.617987 3.0484606,0.768623 4.4675616,1.197492 1.419102,0.428868 2.426687,0.246639 3.638531,0.437545"
     sodipodi:nodetypes="cssc" /><path
     style="fill:none;fill-opacity:1;stroke:#ffa500;stroke-linecap:round;stroke-linejoin:bevel;stroke-opacity:1;paint-order:stroke fill markers"
     d="m 5.6765685,23.408646 c 0.8830019,1.231134 2.0841204,2.232065 3.4543013,2.878584 1.2995852,0.613208 2.7257322,0.90441 4.1451592,1.128405 1.305777,0.20606 2.619818,0.359749 3.937904,0.460574"
     id="path12495"
     inkscape:path-effect="#path-effect12519"
     inkscape:original-d="m 5.6765685,23.408646 c 1.198491,0.745594 2.3197898,2.374508 3.4543013,2.878584 1.1492342,0.510617 2.9959202,0.915303 4.1451592,1.128405 1.457643,0.27029 2.72606,0.269668 3.937904,0.460574"
     sodipodi:nodetypes="cssc" /><path
     style="fill:none;fill-opacity:1;stroke:#ff0000;stroke-linecap:round;stroke-linejoin:bevel;stroke-opacity:1;paint-order:stroke fill markers"
     d="m 6.0450271,22.30327 c 0.8075569,1.26719 1.9680917,2.306836 3.3161294,2.970699 1.2914595,0.636 2.7238075,0.923141 4.1451605,1.151434 1.344573,0.215961 2.696686,0.384975 4.053047,0.506631"
     id="path12497"
     inkscape:path-effect="#path-effect12523"
     inkscape:original-d="m 6.0450271,22.30327 c 1.198491,0.745594 2.5670595,2.544171 3.3161294,2.970699 0.8883595,0.50584 2.6531095,0.859885 4.1451605,1.151434 1.896986,0.370674 3.283558,-0.684383 4.053047,0.506631"
     sodipodi:nodetypes="cssc" /></g><path
   class="st0"
   d="m 40.2,75.6 c 6.9,-0.1 16.7,-1.8 22.4,-4 -0.7,-6.6 -2.7,-45.5 -2.7,-45.5 0,0 2.1,5.1 3.2,7.9 4.7,-0.4 12.3,-1.3 15.3,-6.2 C 75.5,21 73.3,13.2 71,8.1 71,8.1 60.6,4.3 52.4,1.7 c 0,0 -0.9,-0.3 -1.3,0.4 -3,4.2 -4.5,7.1 -11.2,7.1 v 0 C 33.5,9.1 31.9,6.3 29,2.1 28.5,1.4 27.6,1.7 27.6,1.7 19.5,4.2 9,8.1 9,8.1 c -2.3,5.1 -4.5,13 -7.4,19.7 3,4.8 10.4,5.8 15.3,6.2 1.1,-2.8 3.2,-7.9 3.2,-7.9 0,0 -2.1,38.9 -2.7,45.5 5.8,2.2 15.5,4 22.4,4 v 0"
   id="path13"
   style="display:inline" /></svg>
