<?xml version="1.0" encoding="utf-8"?>
<!-- Generator: Adobe Illustrator 22.0.0, SVG Export Plug-In . SVG Version: 6.00 Build 0)  -->
<svg version="1.1" id="Layer_1" xmlns="http://www.w3.org/2000/svg" xmlns:xlink="http://www.w3.org/1999/xlink" x="0px" y="0px"
	 viewBox="0 0 80 77.1" style="enable-background:new 0 0 80 77.1;" xml:space="preserve">
<style type="text/css">
	.st0{fill:#0066D3;}
	.st1{fill:#363744;}
	.st2{fill:#FFF212;}
	.st3{fill:#1B1B1B;}
	.st4{fill:none;stroke:#000000;stroke-width:3;stroke-miterlimit:10;}
	.st5{fill:none;stroke:#000000;stroke-width:2;stroke-linecap:round;stroke-linejoin:round;}
</style>
<g>
	<path class="st0" d="M40.2,75.4c6.9-0.1,16.7-1.8,22.4-4c-0.7-6.6-2.7-45.5-2.7-45.5s2.1,5.1,3.2,7.9c4.7-0.4,12.3-1.3,15.3-6.2
		C75.5,20.8,73.3,13,71,7.9c0,0-10.4-3.8-18.6-6.4c0,0-0.9-0.3-1.3,0.4C48.1,6.1,46.6,9,39.9,9l0,0c-6.4-0.1-8-2.9-10.9-7.1
		c-0.5-0.7-1.4-0.4-1.4-0.4C19.5,4,9,7.9,9,7.9c-2.3,5.1-4.5,13-7.4,19.7c3,4.8,10.4,5.8,15.3,6.2c1.1-2.8,3.2-7.9,3.2-7.9
		S18,64.8,17.4,71.4C23.2,73.6,33.3,75.4,40.2,75.4L40.2,75.4L40.2,75.4z"/>
	<g>
		<path class="st1" d="M51.7,1.5c0,0,1.2,2.2,2.4,3.3c1.2,1.1,3,1,3,1S55,7,52.2,7.5c-0.6,0.1-1.2,0.2-1.8,0.2
			c-2.1,0-3.5-0.3-3.5-0.3S48.5,6.6,51.7,1.5L51.7,1.5z"/>
		<path class="st1" d="M70.8,8.1L78,27.6c0,0-0.9,1.8-2.1,2.6c-1.2,0.8-4.5,1.9-4.5,1.9l-5.1-21.2l3-1.7l-6.8-3.9L70.8,8.1L70.8,8.1
			z"/>
		<path class="st1" d="M63.3,14c0,0-1.6,1.9-2.1,3.8c-0.5,1.8-0.6,2.4-0.6,2.4l4.2,1.8C64.9,22,64.6,11.7,63.3,14z"/>
		<path class="st1" d="M43.7,18.8l17.4,0c0,0-0.9,2.4-1.2,3.7c-0.2,1.3,0,3.7,0,3.7l-8.9,3.6l-9.6,0L28.2,30l-7.8-3.6
			c0,0,0-2.4-0.2-3.7c-0.2-1.3-1-3.9-1-3.9L43.7,18.8L43.7,18.8z"/>
		<path class="st1" d="M59.8,28.7l-6.3,4.2c0,0,1,1.3,2.1,1.1c1.2-0.2,4.2-3.4,4.2-3.4L59.8,28.7L59.8,28.7z"/>
		<path class="st1" d="M60,33.2l-3.2,2.1c0,0,0.5,0.7,1.1,0.6c0.6-0.1,2.2-1.7,2.2-1.7L60,33.2L60,33.2z"/>
		<path class="st1" d="M28.4,1.4c0,0-1.2,2.2-2.4,3.3c-1.2,1.1-3,1-3,1s2.2,1.3,5,1.8c0.6,0.1,1.2,0.2,1.8,0.2
			c2.1,0,3.5-0.3,3.5-0.3S31.6,6.5,28.4,1.4L28.4,1.4z"/>
		<path class="st1" d="M9.3,8L2,27.5c0,0,0.9,1.8,2.1,2.6C5.3,30.8,8.7,32,8.7,32l5.1-21.2l-3-1.7l6.8-3.9L9.3,8L9.3,8z"/>
		<path class="st1" d="M16.8,13.9c0,0,1.6,1.9,2.1,3.8s0.6,2.4,0.6,2.4l-4.2,1.8C15.2,21.9,15.5,11.6,16.8,13.9z"/>
		<path class="st1" d="M20.3,28.6l6.3,4.2c0,0-1,1.3-2.1,1.1c-1.2-0.2-4.2-3.4-4.2-3.4L20.3,28.6L20.3,28.6z"/>
		<path class="st1" d="M20.1,33.1l3.2,2.1c0,0-0.5,0.7-1.1,0.6c-0.6-0.1-2.2-1.7-2.2-1.7L20.1,33.1L20.1,33.1z"/>
	</g>
	<path d="M40.3,31.4c-1.9,0-3.4,1.5-3.4,3.4c0,1.9,1.5,3.4,3.4,3.4s3.4-1.5,3.4-3.4C43.7,32.9,42.2,31.4,40.3,31.4z M40.3,37.2
		c-1.3,0-2.4-1.1-2.4-2.4c0-1.3,1.1-2.4,2.4-2.4s2.4,1.1,2.4,2.4C42.7,36.1,41.6,37.2,40.3,37.2z"/>
	<path d="M46.1,35.8c-1.9,0-3.4,1.5-3.4,3.4c0,1.9,1.5,3.4,3.4,3.4c1.9,0,3.4-1.5,3.4-3.4C49.6,37.3,48,35.8,46.1,35.8z M46.1,41.6
		c-1.3,0-2.4-1.1-2.4-2.4c0-1.3,1.1-2.4,2.4-2.4c1.3,0,2.4,1.1,2.4,2.4C48.5,40.5,47.5,41.6,46.1,41.6z"/>
	<path d="M34.5,36c-1.9,0-3.4,1.5-3.4,3.4c0,1.9,1.5,3.4,3.4,3.4c1.9,0,3.4-1.5,3.4-3.4C37.9,37.5,36.4,36,34.5,36z M34.5,41.8
		c-1.3,0-2.4-1.1-2.4-2.4c0-1.3,1.1-2.4,2.4-2.4c1.3,0,2.4,1.1,2.4,2.4C36.9,40.8,35.8,41.8,34.5,41.8z"/>
	<rect x="33.9" y="41.8" width="1.1" height="32.4"/>
	<rect x="45.6" y="41.8" width="1.1" height="32.4"/>
	<rect x="39.7" y="37.5" width="1.1" height="38.3"/>
	<g>
		<circle class="st2" cx="40" cy="57.7" r="14"/>
		<g>
			<g>
				<g>
					<g>
						<g>
							<path class="st3" d="M48.8,49c0.1,0,0.1-0.1,0-0.2l-0.2,0.1L48.8,49z"/>
							<path class="st3" d="M48.4,48.3c-0.2,0-0.4,0-0.4,0.1c0.2,0,0.2,0,0.4,0c0.1,0.1,0.1,0.2,0.1,0.2c0.1,0,0.1,0.1,0.2,0.1
								C48.7,48.5,48.5,48.4,48.4,48.3C48.3,48.3,48.4,48.3,48.4,48.3z"/>
							<path class="st3" d="M37.8,45L37.8,45C37.8,45,37.8,45,37.8,45z"/>
							<path class="st3" d="M31.3,48C31.3,47.9,31.3,47.9,31.3,48C31.3,47.9,31.3,48,31.3,48z"/>
							<path class="st3" d="M30.3,48.7C30.3,48.7,30.3,48.7,30.3,48.7C30.3,48.7,30.3,48.7,30.3,48.7z"/>
							<path class="st3" d="M37.8,45l-0.2,0C37.6,45,37.7,45,37.8,45z"/>
							<path class="st3" d="M46.9,47.6c0,0,0.1,0,0.1,0L46.9,47.6L46.9,47.6z"/>
							<path class="st3" d="M40.9,44.7L40.9,44.7c0.1,0,0.1,0,0.1-0.1L40.9,44.7z"/>
							<path class="st3" d="M43.4,45.1c-0.1,0-0.1,0.1-0.1,0.2c0,0,0.1-0.1,0.1-0.1C43.4,45.2,43.4,45.1,43.4,45.1z"/>
							<path class="st3" d="M46.8,46.9L46.8,46.9C46.9,46.9,46.8,46.9,46.8,46.9z"/>
							<path class="st3" d="M39.2,44.7C39.2,44.7,39.2,44.6,39.2,44.7C39.2,44.6,39.2,44.7,39.2,44.7z"/>
							<path class="st3" d="M50.2,51.3C50.2,51.3,50.2,51.3,50.2,51.3C50.2,51.3,50.2,51.3,50.2,51.3z"/>
							<path class="st3" d="M49,48.8L49,48.8C49.1,48.8,49.1,48.7,49,48.8L49,48.8z"/>
							<path class="st3" d="M28.7,50.4C28.7,50.4,28.7,50.4,28.7,50.4C28.7,50.3,28.7,50.4,28.7,50.4z"/>
							<path class="st3" d="M32.7,69.1c-0.1-0.2,0.4,0.1,0.2-0.2C32.9,68.9,32.5,68.9,32.7,69.1z"/>
							<path class="st3" d="M46.9,47.6L46.9,47.6C46.8,47.6,46.9,47.6,46.9,47.6z"/>
							<path class="st3" d="M32.9,68.8L32.9,68.8L32.9,68.8C32.9,68.8,32.9,68.8,32.9,68.8z"/>
							<path class="st3" d="M26.8,55.3C26.8,55.3,26.8,55.3,26.8,55.3C26.8,55.3,26.8,55.3,26.8,55.3z"/>
							<path class="st3" d="M28.2,51.7L28.2,51.7C28.2,51.7,28.2,51.7,28.2,51.7z"/>
							<path class="st3" d="M26.7,57.4c0,0.1,0,0.1,0,0.1l0,0C26.7,57.5,26.7,57.4,26.7,57.4z"/>
							<polygon class="st3" points="26.8,59.5 26.9,59.5 26.9,59.4 							"/>
							<path class="st3" d="M52.1,56.8c0,0,0.1-0.1,0.1-0.1C52.1,56.8,52.1,56.5,52.1,56.8z"/>
							<path class="st3" d="M47,47.6C46.9,47.6,46.9,47.6,47,47.6L47,47.6C47,47.6,47,47.6,47,47.6z"/>
							<path class="st3" d="M27.9,57.5l0,0.3C27.8,57.7,27.8,57.6,27.9,57.5z"/>
							<path class="st3" d="M45.9,68.5L45.9,68.5C45.9,68.5,45.9,68.5,45.9,68.5z"/>
							<path class="st3" d="M27.9,58.7c0,0.1-0.1,0.1-0.1,0.2c0,0,0,0,0,0L27.9,58.7z"/>
							<path class="st3" d="M52.2,56.7L52.2,56.7L52.2,56.7z"/>
							<path class="st3" d="M51.5,54.8c0.1,0.3,0.2,0.1,0.3,0.1c0.1,0.3-0.1,0.2-0.2,0.3c0.1,0.2,0.3,0.3,0.3,0.5c0,0,0,0.1-0.1,0
								c0.2,0.2,0.1,0.7,0.3,0.9c0,0,0,0,0,0c0.1-0.1,0.2-0.1,0.3-0.1c0,0.1,0.1,0.2,0,0.3c0-0.1,0-0.1-0.1-0.1l0.1,0.1
								c-0.2,0.1-0.1-0.2-0.2-0.2c0.1,0.3,0.2,0.6,0.2,0.8c-0.2,0-0.1-0.5-0.2-0.2l0-0.3c-0.3,0.3,0-0.2-0.3,0
								c0,0.4,0.1,0.5,0.1,0.9c0.1,0.1,0.1,0,0.2,0.1c0.1,0.6-0.4,0.5-0.2,0.9c0.1,0.1,0.3,0.2,0.1,0.5L52,59.3
								c-0.1,0.4,0.2,0.3,0.1,0.7c-0.1-0.1,0-0.3,0-0.3c-0.2,0.3,0.1,0.2,0,0.4l-0.2,0c-0.1,0.4,0,0.9-0.2,1.4c0,0-0.1-0.1-0.1,0
								c-0.1,0.3-0.2,0.6-0.3,0.9c-0.2,0.3-0.3,0.5-0.5,0.8l0,0.3c0,0-0.1,0.1-0.1,0c-0.2,0.2,0.1,0.1,0.1,0.2
								c-0.1,0.1-0.2,0.1-0.2,0c-0.1,0.4-0.4,1.1-0.8,1.4l0-0.1c-0.2,0.2,0,0.5-0.3,0.7l0-0.1c-0.5,0.5-1,1.2-1.5,1.4
								c0.1,0.2-0.6,0.4-0.5,0.6c-0.4,0.1-0.4,0-0.9,0.3c-0.1,0.1-0.1,0.3-0.2,0.4l-0.1-0.1l-0.1,0.3L46,68.4l-0.1,0.1
								c0.1,0,0.2,0,0.2,0c-0.2,0.2-0.6,0.2-0.7,0.2l-0.5,0.4c0-0.1,0.1-0.1,0.1-0.2c-0.3,0.3-0.1-0.1-0.4,0.1c0.1,0,0,0.1,0,0.1
								c-0.2,0-0.5,0.1-0.8,0.2l0-0.1c-0.5,0.2-1,0.3-1.5,0.5c0.2,0,0.2,0.2,0,0.2l-0.1-0.1c-0.1,0.1,0.2,0,0,0.2
								c-0.2,0-0.2-0.2-0.1-0.2L42,69.9c0,0,0-0.1,0-0.1c-0.1,0.1-0.4-0.1-0.6,0.1l0,0c-0.5,0.1-0.8,0.1-1.2,0.2
								c0,0.1-0.2,0.1-0.3,0.2c-0.3-0.1-0.7-0.2-1.1-0.2c-0.3,0-0.1,0.1-0.2,0.2c0-0.1-0.4-0.2-0.2-0.2c-0.5-0.1-0.6,0-1.2-0.1
								c0.1,0.1,0.1,0.1,0.1,0.1c-0.1,0-0.2-0.1-0.2-0.2l0,0c-0.7,0-1.4-0.8-2-0.8l0,0L34.6,69c-0.2-0.1,0.2,0,0-0.2
								c-0.7,0-0.8-0.5-1.3-0.6c-0.1-0.2-0.3-0.5-0.6-0.6c-0.3-0.2-0.6-0.4-0.7-0.7l0,0.1c-0.2,0-0.1-0.1-0.1-0.2
								c0,0.1,0.1,0.2,0,0.1c-0.9-0.7-1.5-1.8-2-2.8c-0.2-0.4-0.5,0-0.6-0.5l0.2,0.1c-0.3-0.3-0.5-0.7-0.6-1.1
								c-0.1-0.4-0.3-0.8-0.5-1.2c0,0,0.1,0,0.1,0.1c0.1-0.2-0.2-0.6-0.3-0.6c0-0.1,0.1-0.1,0.1-0.1c0-0.2-0.3-0.4-0.2-0.5
								c0,0,0,0,0.1,0.1c-0.1-0.1-0.1-0.5-0.2-0.4c0-0.3-0.2-0.6-0.1-0.8c-0.2-0.2,0-0.5-0.2-0.6c0.2,0,0.1-0.6,0.1-0.8
								c0.1,0.1,0.1-0.2,0.2-0.1c0-0.2,0-0.4-0.1-0.4c0.3-0.4-0.1-0.9,0.2-1.1c0-0.3,0-0.7,0-1c0-0.3,0.1-0.6,0.1-0.9
								c0.2,0.1-0.2,0.7,0.1,0.7c0-0.6,0-1,0.2-1.5c0.1-0.1,0.1,0.1,0.1,0.2c0.1-0.6,0.5-1,0.6-1.5c0,0,0,0.1,0,0.1
								c0-0.1,0.1-0.2,0.1-0.2l0,0.1c-0.2,0.1-0.1-0.5-0.1-0.6c0.2,0.3,0.3-0.4,0.5,0c0-0.1,0-0.2,0-0.2c0.1-0.1,0.1-0.1,0.1,0
								c0.1-0.3,0-0.3,0.2-0.6c0,0,0,0.1,0,0.2c0-0.2,0-0.4,0.2-0.6c0,0,0.1,0,0,0.1c0.3-0.4,0.3-0.8,0.8-1.1c0.1,0.3,0.2-0.1,0.3,0
								c0-0.1,0.1-0.2,0.2-0.2l-0.1,0c0.2-0.2,0.3-0.4,0.5-0.5l-0.1,0.2l0.3-0.3l-0.2,0.1c0.1-0.2-0.2-0.2,0.1-0.3
								c0,0.1,0.2-0.2,0.4-0.2l0,0c0.1-0.1,0.1-0.2,0.3-0.3c0.1,0,0.1,0.2,0.1,0.2c0-0.2,0.4-0.4,0.5-0.6c0,0.1,0,0.1,0.1,0.2l0-0.2
								c0.1,0,0.1,0,0.2,0.1c0.3-0.2-0.2-0.1,0.2-0.3c0,0,0,0,0,0.1c0.4-0.2,0.7-0.5,1-0.6c0.2,0.1-0.3,0.2-0.1,0.3
								c0.5-0.3,0.9-0.7,1.5-0.8l-0.1,0c0-0.3,0.4,0,0.6-0.2c-0.1,0,0,0.2,0,0.1c0.4,0,0.7-0.2,1.2-0.4l-0.1,0.1c0.2,0,0.6,0,0.8,0
								c0.1-0.1,0.2-0.1,0.1-0.2c0.7,0.3,1.4-0.3,2,0c-0.1,0-0.2,0.1-0.1,0.1l0.5,0c0-0.1-0.1-0.1-0.2-0.2c0.1-0.1,0.2-0.1,0.4-0.1
								c-0.3,0.1,0,0.2,0.1,0.3c0,0,0-0.1,0-0.1c0.3,0.2,0.1-0.2,0.4,0l0,0.1c0.1,0,0.3-0.1,0.5,0c0,0.1-0.2,0-0.2,0.1
								c0.2,0,0.5-0.2,0.7,0c-0.1,0-0.2,0-0.3,0c0.2,0.2,0.2,0.2,0.4,0.2l0,0l0.3,0.2l-0.1-0.1c0.4-0.3,0.6,0,1,0
								c-0.4,0.1-0.1,0.1-0.2,0.2c0.1,0.1,0.2,0.2,0.1,0.2c0.2-0.1,0.2,0.2,0.5,0.1c0,0,0.2,0.1,0.1,0.2c0.2,0,0-0.1,0-0.1
								c0.4,0,0.7,0.5,1.2,0.5c0.4,0.1,0.6,0,1,0.2c0.1,0.1-0.2,0.1-0.2,0.1c0.2,0.2,0.3,0.2,0.5,0.3c-0.1,0,0,0.1,0,0.1
								c0.1,0.1,0.2-0.1,0.3,0.1c-0.1,0-0.2,0.1-0.2,0.1c0.2,0.1,0.4,0.1,0.6,0.2c0,0.1-0.2,0-0.3,0c0.2,0.1,0.5,0.3,0.7,0.2
								L47.9,48c0.1,0.1,0,0.1-0.1,0.1c-0.2,0-0.2-0.2-0.2-0.2l0.1,0.1c0.1-0.3-0.5-0.3-0.7-0.5l0.2-0.1l-0.3,0c0-0.1,0-0.2,0.1-0.1
								c-0.1-0.2-0.2,0-0.3-0.2c0,0,0,0,0,0l-0.2-0.1c0.1,0,0-0.1,0.1-0.1c-0.3-0.3-0.6-0.2-0.7-0.4l0,0c-0.5-0.2-0.1,0.1-0.5,0.1
								L45.5,46l-0.1,0.1c0,0-0.1-0.1-0.1-0.1c-0.2,0,0,0.1-0.1,0.1c-0.2-0.3-0.7-0.2-0.7-0.5c-0.1,0.1,0.2,0.2-0.1,0.2
								c0-0.3-0.3-0.1-0.5-0.3c0.1-0.1,0.3,0,0.1-0.2c-0.2,0.2-0.4-0.2-0.6-0.2c-0.1,0.2-0.4,0-0.8-0.1c0-0.1-0.6-0.2-0.9-0.3l0,0
								c-0.1,0.2-0.4,0.1-0.6,0.1c0-0.1,0.1-0.2,0.2-0.2l-0.2,0c-0.1,0.1-0.1,0.1-0.3,0.1l0.1-0.1c-0.3,0-0.6,0.1-1,0
								c0,0.1,0.3,0.3-0.1,0.4c0-0.1,0-0.2,0.1-0.2c0,0-0.1,0.1-0.2,0l0.2-0.1c-0.2,0-0.1,0.1-0.2,0.1c0-0.1-0.1-0.1-0.1-0.1
								c0,0,0.1,0,0.2,0c-0.2,0-0.4-0.1-0.4-0.1c0,0.1,0,0.1-0.1,0.2c-0.3,0-0.1-0.1-0.3-0.2c-0.1,0.1-0.3,0-0.3,0.2
								c-0.1,0-0.1-0.1-0.1-0.1c-0.1,0.1-0.7,0.1-0.5,0.3l0,0l0,0l0,0l0,0c-0.5,0.2-1,0.1-1.5,0.3l0,0c-0.3,0.1-0.6,0.2-0.8,0.4
								c-0.1,0-0.2,0-0.2-0.1c-0.2,0.1-0.2,0.2-0.5,0.2c0.2-0.2-0.1,0,0.2-0.2c-0.3,0.1-0.4,0-0.6,0.3c0-0.2-0.3,0-0.4,0l0.2,0
								c-0.1,0.1-0.3,0.1-0.4,0.2l0-0.2c-0.6,0.1-0.8,0.8-1.4,0.8c-0.1,0.2,0.3-0.1,0.3,0.1c-0.2,0.1-0.6,0.1-0.7,0.2
								c-0.4,0.2-0.2,0.4-0.5,0.6c0.1,0,0.2,0.1,0,0.3c-0.2,0.2-0.4,0-0.3-0.1c0,0,0.1-0.1,0.1,0c0.1-0.1,0.1-0.2,0-0.2l0,0.1
								c-0.1,0-0.4,0.3-0.4,0.2c-0.1,0.2,0,0.1,0.1,0c-0.3,0.2-0.4,0.4-0.7,0.6c0.1,0,0.2,0,0.1,0c-0.4,0.4-0.1,0.3-0.3,0.5
								c-0.2,0.1-0.1-0.2-0.3,0.1c-0.2,0.1-0.2-0.1-0.1-0.2c-0.2,0.3-0.5,0.5-0.6,0.6l0.1-0.2c0,0.1-0.1,0.2-0.2,0.3l0.2,0
								C29.1,49.9,29,50,29,50c0,0.1,0.2,0,0.2,0.3c-0.1,0.1-0.2,0.4-0.4,0.3c0.3-0.3-0.2,0,0-0.4c0,0.1-0.1,0.1-0.2,0.2
								c0,0,0,0,0-0.1c-0.3,0.3,0,0.3-0.2,0.6c0-0.1-0.2,0-0.2,0.1c0.1-0.2,0.2,0,0.1,0.2c-0.2,0.2-0.1,0.3-0.2,0.4l0.1-0.1
								c0,0.1,0,0.2-0.1,0.4c-0.1,0,0-0.2,0-0.1c0,0.3-0.4,0.4-0.4,0.7c-0.1,0.1-0.2-0.1-0.2,0c0,0.4-0.3,0.3-0.3,0.7
								c0.1-0.1,0.1-0.1,0.2,0.2l0.1-0.6l0,0.4c0.1-0.2,0-0.4,0.1-0.5c0,0.2,0,0.2,0.1,0.1c-0.2,0.2-0.1,0.5-0.3,0.7l-0.3-0.1
								c-0.3,0.4-0.1,0.8-0.3,1.3l0.1-0.2c0.1,0.1-0.1,0.3-0.1,0.5c-0.1,0-0.2,0.1-0.2,0.1c0.1,0-0.1,0.4,0.1,0.5L26.8,56
								c-0.1,0.4,0.2,0.5,0.1,0.9c-0.1-0.1-0.2,0.1-0.2-0.2c0,0.1,0,0.3,0,0.3c-0.1,0.1,0.1,0.4,0,0.5c0,0.1,0.1,0.1,0.1,0.2
								c0,0,0,0,0,0c0,0,0.1,0.2,0.2,0.1c-0.3,0.4,0,1.2-0.1,1.6c0.1,0.3,0.2,0.7,0.2,0.9c0,0,0,0-0.1,0c0,0.4,0.3,0.2,0.3,0.6
								c-0.1,0.3-0.1-0.2-0.2-0.1c-0.3,0.1,0.2,0.5,0.1,0.8l0-0.1c0,0.3,0.3,0.5,0.4,0.8c0,0,0,0,0,0c0.2,0.2,0.5,0.6,0.7,0.9
								c-0.2,0-0.1-0.1-0.2,0c0.1,0.1,0.2-0.1,0.3,0.1c0,0.1,0,0.4-0.1,0.4c-0.1-0.1-0.1-0.2-0.1-0.3c-0.1,0.2,0.2,0.3,0.2,0.5
								l-0.1,0c0.3,0.4,0.4,0.3,0.7,0.7l0-0.1c0.3,0.1,0,0.2,0.3,0.4l-0.1,0.2c0.1,0.1,0.5,0.4,0.7,0.6c-0.2,0-0.5-0.3-0.7-0.4
								c0.1,0.1,0.4,0.5,0.5,0.5c-0.1,0-0.1-0.1-0.2-0.2c0.2,0.1,0.5,0.2,0.7,0.5c-0.3,0.2,0.5,0.7,0.5,1.1c0.3,0.2,0.5,0.4,0.7,0.6
								c0.2,0.2,0.5,0.5,0.8,0.7c0-0.4,0.2,0.1,0.3-0.2c0.1,0.1,0.2,0.1,0.2,0.1l0.3,0.4c0.1,0.1-0.2,0-0.2,0
								c0.3,0.2,0.1,0.2,0.2,0.4c0-0.1,0.2-0.1,0.4,0.1l-0.2-0.3c0.5,0.1,0.3,0.4,0.8,0.5l-0.2,0c0.3,0.1,0.9,0.4,1.3,0.3
								c0,0,0.1,0.1-0.1,0.1c0.6,0.3,1.5,0.2,1.9,0.4l-0.1,0.1c0.1,0,0.2-0.1,0.4,0c0,0-0.1,0.1,0,0.1c0.1,0,0.3-0.1,0.5,0l-0.1,0.1
								c0.6,0.2,1-0.1,1.5-0.1c0,0.2,0.5,0.3,0.7,0.3l0,0c0.8,0,1.3-0.2,1.9-0.4c0.5,0.2,1.4-0.2,2.1-0.3c-0.1,0,0-0.2,0.1-0.2
								c0.2,0,0.4-0.3,0.4-0.1l-0.1,0c0.2,0.1,0.5,0,0.7-0.1L45.2,70c0.4,0,0.8-0.2,1.1-0.4c0.3-0.2,0.6-0.5,0.9-0.4
								c0.1-0.1,0.3-0.3,0.4-0.4l0.1,0.1c0.4-0.2,0.6-0.3,1-0.7l0,0.2c0.2-0.2,0-0.6,0.2-0.8l0.2,0.1c0.4-0.3,0.9-0.7,1.1-1.2
								c0,0,0.1,0.1,0,0.1c0.2-0.2,0.7-0.7,0.4-0.8c0.2,0.1,0.4-0.4,0.4-0.7l0.1,0.1c0-0.3-0.1-0.3,0.1-0.7c0.1-0.1,0.1,0,0,0.1
								c0.2-0.2,0-0.2,0.2-0.5l0,0.1c0.1-0.2,0.1-0.2,0.1-0.4c0-0.2,0.3-0.5,0.4-0.4c-0.1-0.1-0.1-0.2,0-0.4c0.1,0,0.1,0.1,0.1,0.1
								c0.3-0.4,0.1-0.7,0.3-1c0,0,0.1,0,0.1,0c-0.1,0.3-0.2,0.6-0.2,0.6c0.1,0,0.2-0.2,0.3,0.1c0-0.3-0.1-0.7,0.1-1c0,0,0,0,0.1,0
								l0,0c0-0.1,0-0.1,0-0.2c0-0.1,0.1-0.1,0.1-0.2c0.1,0,0.1-0.3,0.2-0.5c-0.1,0-0.1-0.2-0.2-0.1c0,0,0,0,0,0.1c0,0,0,0,0,0.1
								l0,0c0,0.1,0,0.2-0.1,0.4c0-0.1-0.1-0.3,0-0.4c-0.1-0.1-0.1-0.2-0.2-0.3c0.2-0.1,0.4-0.5,0.6-0.6c0-0.5,0.1-1.1-0.1-1.4
								c0-0.1,0.1-0.1,0.1-0.2c0,0.1,0,0.2,0.1,0.2c-0.1-0.3,0-0.8-0.2-0.8c0.1-0.3,0.2,0.2,0.1-0.3l0.1,0.1c0.1-0.4,0-0.8-0.1-1.2
								c-0.1-0.4-0.3-0.7-0.2-1.2c0,0.1,0,0.1,0,0.1c-0.1-1.1-0.7-2.2-0.9-3.2c-0.1-0.3-0.2-0.3-0.4-0.4l0.1-0.1l-0.3-0.2
								c-0.4-0.3-0.1-0.9-0.6-1.2l0,0.1c-0.1-0.2-0.4-0.5-0.3-0.5c0,0-0.1,0-0.1-0.1l0.1-0.1c-0.1-0.1-0.3-0.2-0.4-0.3
								c-0.2-0.3,0.3-0.2-0.1-0.6c-0.2-0.1-0.6-0.3-0.6-0.2c0.1,0.1,0.1,0.2,0.1,0.3L49,48.8c-0.2,0.1-0.5,0.2-0.3,0.7l0.3,0.1
								l0,0.2l-0.2-0.2c0,0.2,0.2,0.2,0.3,0.2c0,0.1,0,0.1,0,0.2l0.4,0.1c0,0.1-0.2,0-0.1,0.2c0.2,0.1,0.1-0.2,0.3-0.1
								c0,0.2-0.1,0.2,0.1,0.3c0,0.1-0.1,0-0.1,0c0.2,0.1,0.3,0.3,0.4,0.3c0,0.2,0.3,0.4,0.1,0.5c0.1,0,0.3,0.1,0.4,0.3
								c-0.4-0.1,0.3,0.5,0,0.6c0.3,0.1,0.4,0.6,0.7,0.8c0,0-0.1,0-0.1-0.1c0.1,0.2,0,0.3,0,0.4c0.2-0.1,0.3,0.2,0.5,0.3
								c-0.1,0.3-0.3-0.1-0.4,0.1c0.1-0.1,0.3,0.3,0.4,0.2c-0.1,0.2,0,0.2-0.1,0.3c0.2,0,0.1,0.1,0.3,0.3c-0.1,0.3-0.2,0.1-0.1,0.4
								C51.7,55,51.5,54.8,51.5,54.8z M51.8,61.6L51.8,61.6c0-0.1,0-0.1,0-0.1C51.8,61.5,51.8,61.5,51.8,61.6z M51.6,62.2
								c0-0.1,0.1-0.2,0.1-0.2c0.1,0,0.1,0,0.1,0.1C51.7,62,51.6,62.1,51.6,62.2z M52.9,61.2c0,0.1,0,0.1-0.1,0.1
								C52.8,61.3,52.8,61.3,52.9,61.2L52.9,61.2C52.9,61.2,52.9,61.2,52.9,61.2z"/>
							<path class="st3" d="M52.8,61C52.8,61,52.8,61,52.8,61C52.7,61,52.7,61,52.8,61L52.8,61L52.8,61z"/>
							<path class="st3" d="M37.9,45L37.9,45C37.9,45,37.9,45,37.9,45C37.9,45,37.9,45,37.9,45z"/>
							<polygon class="st3" points="46.4,68.1 46.4,68.2 46.4,68.1 							"/>
							<path class="st3" d="M41.2,45.4C41.2,45.4,41.2,45.4,41.2,45.4C41.2,45.4,41.2,45.4,41.2,45.4z"/>
							<path class="st3" d="M42.6,45.6l0.2,0.1C42.7,45.7,42.6,45.7,42.6,45.6z"/>
							<path class="st3" d="M43.6,46C43.6,46,43.7,45.9,43.6,46L43.6,46L43.6,46z"/>
							<path class="st3" d="M29.1,52.1C29.1,52.1,29.1,52.1,29.1,52.1C29.1,52.2,29.1,52.1,29.1,52.1z"/>
							<path class="st3" d="M32.1,48c0,0.1-0.1,0.1-0.1,0.2C32.1,48.1,32.2,48,32.1,48z"/>
							<polygon class="st3" points="27.9,57.5 27.9,57.5 27.9,57.5 							"/>
							<path class="st3" d="M31.9,48.3c0.1,0,0.1-0.1,0.2-0.2C32,48.2,31.9,48.2,31.9,48.3z"/>
							<path class="st3" d="M47.7,48.2L47.7,48.2C47.7,48.2,47.7,48.2,47.7,48.2L47.7,48.2z"/>
							<path class="st3" d="M47.8,48.2L47.8,48.2C47.8,48.2,47.8,48.2,47.8,48.2z"/>
							<path class="st3" d="M47.9,48.3l-0.1-0.1C47.8,48.3,47.9,48.3,47.9,48.3z"/>
							<path class="st3" d="M46.6,47.3L46.6,47.3C46.5,47.4,46.6,47.4,46.6,47.3z"/>
							<path class="st3" d="M46.2,47.1c0.1,0.1,0.2,0.2,0.3,0.3l0,0C46.4,47.4,46.3,47.1,46.2,47.1z"/>
							<path class="st3" d="M44.8,45.7c0.1,0.1,0.2,0.1,0.3,0.2c0-0.1-0.1-0.2,0.1-0.1C44.8,45.5,45.3,46,44.8,45.7z"/>
							<path class="st3" d="M43.7,45.3c0.2,0,0-0.1,0-0.1C43.6,45.2,43.6,45.2,43.7,45.3z"/>
							<path class="st3" d="M35.2,45.6l0-0.1C35.1,45.5,35.2,45.5,35.2,45.6z"/>
							<path class="st3" d="M34.1,46.8c0.1,0,0.1,0,0.2,0l0-0.1C34.2,46.8,34.1,46.8,34.1,46.8z"/>
							<polygon class="st3" points="32.8,46.5 32.8,46.5 32.6,46.7 							"/>
							<path class="st3" d="M26.7,59.1l0.2-0.1C26.8,59,26.6,59,26.7,59.1z"/>
							<path class="st3" d="M28.9,65c0,0.1,0,0.3,0.2,0.3C29,65.2,28.9,65,28.9,65z"/>
							<polygon class="st3" points="45.5,70 45.5,70.1 45.7,70 							"/>
						</g>
					</g>
				</g>
			</g>
		</g>
		<g>
			<g>
				<g>
					<g>
						<g>
							<path class="st3" d="M47.7,49.9c0.1,0,0.1-0.1,0-0.1l-0.2,0.1L47.7,49.9z"/>
							<path class="st3" d="M47.4,49.2c-0.1,0-0.3,0-0.4,0.2c0.2,0,0.2,0,0.4,0c0.1,0.1,0.1,0.2,0,0.2c0.1,0,0.1,0.1,0.2,0.1
								C47.6,49.5,47.5,49.3,47.4,49.2C47.3,49.3,47.3,49.2,47.4,49.2z"/>
							<path class="st3" d="M38,46.3L38,46.3C38.1,46.3,38.1,46.3,38,46.3z"/>
							<path class="st3" d="M32.3,48.9C32.3,48.9,32.4,48.9,32.3,48.9C32.3,48.9,32.3,48.9,32.3,48.9z"/>
							<path class="st3" d="M31.4,49.6C31.4,49.5,31.4,49.5,31.4,49.6C31.4,49.5,31.4,49.5,31.4,49.6z"/>
							<path class="st3" d="M38,46.3l-0.2,0C37.8,46.3,37.9,46.3,38,46.3z"/>
							<path class="st3" d="M46.1,48.7C46.1,48.7,46.1,48.7,46.1,48.7L46.1,48.7L46.1,48.7z"/>
							<path class="st3" d="M40.8,46L40.8,46c0.1,0,0.1,0,0.1-0.1L40.8,46z"/>
							<path class="st3" d="M43,46.4c0,0-0.1,0.1-0.1,0.2c0,0,0.1-0.1,0.1-0.1C43,46.5,43,46.4,43,46.4z"/>
							<path class="st3" d="M46,48L46,48C46,48,46,48,46,48z"/>
							<path class="st3" d="M39.3,46C39.3,46,39.3,46,39.3,46C39.2,46,39.3,46,39.3,46z"/>
							<path class="st3" d="M48.9,51.9L48.9,51.9C48.9,51.9,48.9,51.9,48.9,51.9z"/>
							<polygon class="st3" points="47.9,49.6 47.9,49.7 48,49.6 							"/>
							<path class="st3" d="M30,51L30,51C30,51,30,51,30,51z"/>
							<path class="st3" d="M33.5,67.6c-0.1-0.2,0.4,0,0.2-0.2C33.7,67.4,33.3,67.4,33.5,67.6z"/>
							<path class="st3" d="M46,48.7L46,48.7C46,48.6,46,48.6,46,48.7z"/>
							<path class="st3" d="M33.7,67.3L33.7,67.3L33.7,67.3C33.7,67.3,33.7,67.3,33.7,67.3z"/>
							<path class="st3" d="M28.3,55.4C28.3,55.4,28.3,55.4,28.3,55.4C28.3,55.4,28.3,55.4,28.3,55.4z"/>
							<path class="st3" d="M29.6,52.2L29.6,52.2C29.6,52.3,29.6,52.2,29.6,52.2z"/>
							<path class="st3" d="M28.3,57.2c0,0,0,0.1,0,0.1l0,0C28.3,57.3,28.3,57.3,28.3,57.2z"/>
							<polygon class="st3" points="28.4,59.1 28.4,59.1 28.4,59 							"/>
							<path class="st3" d="M50.6,56.8c0,0,0.1-0.1,0.1-0.1C50.6,56.7,50.5,56.4,50.6,56.8z"/>
							<path class="st3" d="M46.1,48.6C46.1,48.7,46.1,48.7,46.1,48.6L46.1,48.6C46.1,48.7,46.1,48.7,46.1,48.6z"/>
							<path class="st3" d="M29.4,57.3l0,0.3C29.4,57.5,29.4,57.4,29.4,57.3z"/>
							<path class="st3" d="M45.1,67L45.1,67C45.1,66.9,45.1,67,45.1,67z"/>
							<path class="st3" d="M29.4,58.4c0,0.1-0.1,0.1-0.1,0.2c0,0,0,0,0,0L29.4,58.4z"/>
							<path class="st3" d="M50.7,56.7L50.7,56.7L50.7,56.7z"/>
							<path class="st3" d="M50,55c0.1,0.2,0.2,0.1,0.3,0.1c0.1,0.3-0.1,0.2-0.2,0.3c0.1,0.2,0.3,0.3,0.3,0.4c0,0,0,0-0.1,0
								c0.2,0.2,0.1,0.6,0.3,0.8c0,0,0,0,0,0c0.1,0,0.2-0.1,0.3-0.1c0,0.1,0.1,0.2,0,0.3c0-0.1,0-0.1-0.1-0.1l0.1,0.1
								c-0.2,0.1-0.1-0.2-0.2-0.2c0.1,0.2,0.2,0.5,0.2,0.7c-0.2,0-0.1-0.4-0.2-0.2l0.1-0.3c-0.3,0.2,0-0.2-0.3,0
								c0,0.4,0.1,0.4,0.1,0.8c0.1,0.1,0.1,0,0.2,0.1c0.1,0.5-0.4,0.4-0.2,0.8c0.1,0.1,0.3,0.2,0.2,0.4l-0.2-0.1
								c-0.1,0.3,0.2,0.2,0.1,0.6c-0.1-0.1,0-0.3-0.1-0.2c-0.2,0.2,0.1,0.2,0.1,0.4l-0.2,0c-0.1,0.4,0,0.8-0.1,1.2
								c0,0-0.1-0.1-0.1,0c0,0.3-0.1,0.5-0.3,0.8c-0.1,0.2-0.3,0.5-0.5,0.7l0,0.2c0,0-0.1,0-0.1,0c-0.2,0.1,0.1,0.1,0.1,0.2
								c0,0.1-0.2,0.1-0.2,0c-0.1,0.4-0.3,1-0.7,1.2l0-0.1c-0.2,0.2,0,0.4-0.2,0.6l0-0.1c-0.5,0.4-0.8,1.1-1.4,1.2
								c0.1,0.2-0.5,0.3-0.4,0.6c-0.4,0.1-0.3,0-0.8,0.2c-0.1,0.1-0.1,0.3-0.2,0.4l-0.1-0.1l-0.1,0.3l-0.2-0.1l-0.1,0.1
								c0.1,0,0.1,0,0.2,0c-0.2,0.2-0.6,0.2-0.6,0.1l-0.5,0.4c0-0.1,0.1-0.1,0.1-0.2c-0.2,0.3-0.1-0.1-0.3,0.1c0,0,0,0.1,0,0.1
								c-0.2,0-0.5,0.1-0.7,0.2l0-0.1c-0.4,0.1-0.8,0.3-1.3,0.4c0.2,0,0.2,0.2,0,0.2L42,68.1c-0.1,0.1,0.2,0,0,0.2
								c-0.2,0-0.2-0.2-0.1-0.2l-0.2,0.1c0,0,0-0.1,0-0.1c-0.1,0.1-0.4-0.1-0.5,0.1l0,0c-0.5,0.1-0.7,0.1-1.1,0.1
								c0,0.1-0.2,0.1-0.3,0.2c-0.3-0.1-0.6-0.2-1-0.2c-0.2,0-0.1,0.1-0.2,0.2c0-0.1-0.4-0.2-0.2-0.2c-0.4-0.1-0.5,0-1.1-0.1
								c0,0.1,0.1,0.1,0.1,0.1c-0.1,0-0.2-0.1-0.2-0.2l0,0c-0.6,0.1-1.2-0.7-1.7-0.7l0,0l-0.5-0.1c-0.2-0.1,0.2,0,0-0.2
								c-0.6,0-0.7-0.4-1.2-0.5c-0.1-0.5-1-0.6-1.2-1.2l0,0.1c-0.1,0-0.1-0.1-0.1-0.2c0,0.1,0,0.1,0,0.1c-0.8-0.6-1.3-1.6-1.8-2.5
								c-0.2-0.3-0.5,0.1-0.6-0.5l0.2,0c-0.3-0.3-0.4-0.6-0.6-1c-0.1-0.4-0.2-0.7-0.4-1c0,0,0.1,0,0.1,0.1c0.1-0.2-0.1-0.6-0.2-0.5
								c0-0.1,0.1,0,0.1-0.1c0-0.2-0.2-0.3-0.1-0.5c0,0,0,0,0.1,0.1c-0.1-0.1-0.1-0.5-0.2-0.3c0-0.3-0.1-0.5-0.1-0.7
								c-0.2-0.1,0.1-0.5-0.2-0.5c0.2,0,0.1-0.5,0.1-0.7c0.1,0.1,0.1-0.1,0.2-0.1c0-0.2,0-0.4-0.1-0.4c0.3-0.3-0.1-0.8,0.2-0.9
								c0-0.3,0-0.6,0-0.9c0-0.3,0-0.6,0.1-0.8c0.2,0.1-0.1,0.6,0.1,0.6c0-0.5,0-0.8,0.2-1.3c0.1-0.1,0.1,0.1,0.1,0.2
								c0.1-0.5,0.4-0.9,0.5-1.3c0,0,0,0.1,0,0.1c0-0.1,0.1-0.2,0-0.2l0,0.1c-0.2,0.1-0.1-0.5-0.1-0.5c0.2,0.3,0.3-0.4,0.5,0.1
								c0-0.1,0-0.1-0.1-0.2c0.1-0.1,0.1-0.1,0.1,0.1c0.1-0.3,0-0.3,0.1-0.5c0,0,0,0.1,0.1,0.1c0-0.2,0-0.4,0.2-0.5c0,0,0.1,0,0,0.1
								c0.2-0.4,0.3-0.7,0.6-1c0.1,0.3,0.2-0.1,0.3,0c0-0.1,0.1-0.1,0.1-0.2l-0.1,0c0.2-0.1,0.2-0.4,0.4-0.5l-0.1,0.2l0.3-0.3
								l-0.2,0.1c0.1-0.2-0.2-0.2,0.1-0.3c0,0.1,0.2-0.2,0.3-0.1l0,0c0.1-0.1,0.1-0.2,0.3-0.3c0.1,0,0.1,0.2,0.1,0.2
								c0-0.2,0.4-0.3,0.4-0.6c0,0.1,0,0.1,0.1,0.1l0-0.2c0.1,0,0.1,0,0.2,0.1c0.3-0.1-0.2-0.2,0.2-0.3c0,0,0,0,0,0.1
								c0.3-0.1,0.6-0.4,0.9-0.5c0.2,0.1-0.2,0.2-0.1,0.3c0.4-0.2,0.8-0.6,1.3-0.7l-0.1,0c0-0.3,0.4,0,0.6-0.2c-0.1,0,0,0.2,0,0.1
								c0.3,0,0.6-0.2,1.1-0.4l0,0.1c0.2,0,0.5,0,0.7,0c0.1-0.1,0.2-0.1,0.1-0.2c0.7,0.3,1.2-0.3,1.8,0.1c-0.1,0-0.2,0.1-0.1,0.1
								l0.5,0c0-0.1-0.1-0.1-0.2-0.2c0.1-0.1,0.2-0.1,0.3-0.1c-0.2,0.1,0,0.2,0.1,0.3c0,0,0-0.1,0-0.1c0.2,0.2,0.1-0.2,0.4,0l0,0.1
								c0.1,0,0.3-0.1,0.4,0c0,0.1-0.1,0-0.2,0.1c0.2,0,0.4-0.2,0.6,0c-0.1,0-0.2,0-0.3,0c0.2,0.2,0.2,0.2,0.3,0.2l0,0l0.3,0.1
								L42.5,47c0.3-0.3,0.5,0,0.9-0.1c-0.4,0.1-0.1,0.1-0.2,0.2c0.1,0.1,0.2,0.2,0.1,0.2c0.2-0.1,0.2,0.2,0.5,0.1
								c0,0,0.2,0.1,0.1,0.2c0.2,0,0-0.1,0-0.1c0.4-0.1,0.6,0.5,1.1,0.5c0.4,0.1,0.5,0,0.9,0.1c0.1,0.1-0.2,0.1-0.2,0.1
								c0.1,0.2,0.3,0.2,0.4,0.3c-0.1,0,0,0.1,0,0.1c0.1,0.1,0.2-0.1,0.3,0.1c-0.1,0-0.1,0.1-0.2,0.1c0.2,0.1,0.4,0.1,0.5,0.2
								c0,0.1-0.2,0-0.2,0c0.2,0.1,0.5,0.2,0.6,0.2L47,49c0.1,0,0,0.1-0.1,0.1c-0.2,0-0.2-0.2-0.1-0.2l0.1,0.1
								c0.1-0.3-0.4-0.3-0.6-0.4l0.2-0.1l-0.3,0c0-0.1,0-0.2,0.1-0.1C46.1,48,46,48.2,46,48c0,0,0,0,0,0l-0.2,0c0.1,0,0-0.1,0.1-0.1
								c-0.2-0.3-0.5-0.1-0.6-0.3l0,0c-0.4-0.2-0.1,0.1-0.5,0.1l0-0.4l-0.1,0.1c0,0-0.1-0.1-0.1-0.1c-0.2,0,0,0.1-0.1,0.1
								c-0.1-0.2-0.6-0.2-0.6-0.4c-0.1,0.1,0.2,0.2-0.1,0.2c0-0.3-0.3-0.1-0.4-0.2c0.1-0.1,0.3,0,0.1-0.2c-0.2,0.2-0.4-0.2-0.6-0.2
								c-0.1,0.2-0.4,0-0.7,0c0-0.1-0.5-0.2-0.8-0.3l0,0c-0.1,0.2-0.4,0.1-0.6,0.1c0-0.1,0.1-0.2,0.2-0.2l-0.2,0
								c-0.1,0.1-0.1,0.1-0.2,0.1l0.1-0.1c-0.3,0-0.5,0.1-0.9,0c0,0.1,0.3,0.3-0.1,0.4c0-0.1,0-0.2,0.1-0.2c0,0-0.1,0.1-0.2,0
								l0.1-0.1c-0.2,0-0.1,0.1-0.2,0.1c0-0.1-0.1-0.1-0.1-0.1c0,0,0.1,0,0.2,0c-0.1,0-0.3-0.1-0.4-0.1c0,0.1,0,0.1-0.1,0.2
								c-0.3,0-0.1-0.1-0.3-0.2c-0.1,0.1-0.2,0-0.2,0.2c-0.1,0-0.1-0.1-0.1-0.1c-0.1,0.1-0.6,0.1-0.5,0.2l0,0l0,0l0,0l0,0
								c-0.4,0.2-0.9,0.1-1.3,0.3l0,0c-0.2,0.1-0.5,0.2-0.7,0.4c-0.1,0-0.2,0-0.2-0.1c-0.2,0.1-0.2,0.1-0.5,0.2
								c0.2-0.2-0.1,0,0.2-0.1c-0.3,0.1-0.3,0-0.5,0.3c0-0.2-0.3-0.1-0.3,0l0.2,0c-0.1,0.1-0.2,0.1-0.4,0.2l0-0.2
								c-0.6,0.1-0.7,0.8-1.2,0.7c-0.1,0.2,0.3-0.1,0.3,0.1c-0.2,0.1-0.6,0.1-0.6,0.1c-0.3,0.1-0.1,0.4-0.4,0.6c0.1,0,0.2,0.1,0,0.3
								c-0.2,0.1-0.4,0-0.3-0.1c0,0,0.1,0,0.1,0c0-0.1,0.1-0.2,0-0.1l0,0.1c-0.1,0-0.4,0.3-0.4,0.1c-0.1,0.2,0,0.1,0.1,0.1
								c-0.3,0.2-0.4,0.3-0.6,0.5c0.1,0,0.1,0,0.1,0c-0.4,0.3-0.1,0.2-0.3,0.5c-0.2,0.1-0.1-0.2-0.3,0.1c-0.2,0.1-0.2-0.1-0.1-0.2
								c-0.1,0.3-0.4,0.4-0.5,0.5l0.1-0.2c0,0.1-0.1,0.2-0.1,0.2l0.2,0c-0.1,0.1-0.1,0.1-0.2,0.1c0,0.1,0.2,0.1,0.2,0.3
								c-0.1,0.1-0.2,0.3-0.3,0.3c0.3-0.3-0.2-0.1,0-0.3c0,0.1-0.1,0.1-0.1,0.2c0,0,0,0,0-0.1c-0.3,0.3,0.1,0.2-0.1,0.6
								c-0.1-0.1-0.2,0-0.2,0.1c0.1-0.1,0.2,0,0.2,0.2c-0.2,0.2-0.1,0.3-0.2,0.4l0.1-0.1c0.1,0.1,0,0.2-0.1,0.4c-0.1,0,0-0.2,0-0.1
								c0.1,0.2-0.3,0.3-0.3,0.6c-0.1,0.1-0.2-0.1-0.2,0c0,0.3-0.2,0.3-0.3,0.6c0.1,0,0.1-0.1,0.2,0.2l0.1-0.5l0.1,0.4
								c0.1-0.1,0-0.3,0.1-0.4c0,0.2,0,0.2,0.1,0.1c-0.2,0.1,0,0.4-0.2,0.6l-0.3-0.1c-0.3,0.3-0.1,0.7-0.2,1.1l0.1-0.1
								c0.1,0.1-0.1,0.3,0,0.5c-0.1,0-0.2,0.1-0.2,0.1c0.1,0-0.1,0.4,0.1,0.4L28.3,56c-0.1,0.4,0.2,0.5,0.2,0.8
								c-0.1-0.1-0.2,0-0.2-0.2c0,0.1,0,0.2,0,0.2c-0.1,0.1,0.1,0.4,0,0.5c0,0.1,0.1,0.1,0.1,0.2c0,0,0,0,0,0c0,0,0.1,0.2,0.2,0.1
								c-0.3,0.4,0,1.1-0.1,1.4c0.1,0.3,0.1,0.6,0.2,0.8c0,0,0,0,0,0c0,0.4,0.3,0.1,0.3,0.5c-0.1,0.2-0.1-0.2-0.2,0
								c-0.3,0.1,0.1,0.4,0,0.7l0-0.1c0,0.2,0.3,0.4,0.4,0.7c0,0,0,0,0,0c0.2,0.2,0.5,0.5,0.6,0.8c-0.2,0-0.1-0.1-0.2,0
								c0.1,0.1,0.2-0.1,0.3,0.1c0,0.1,0,0.3-0.1,0.4c0-0.1-0.1-0.2-0.1-0.2c-0.1,0.2,0.2,0.3,0.2,0.4l-0.1,0
								c0.2,0.3,0.4,0.2,0.6,0.6l0-0.1c0.3,0.1,0,0.2,0.3,0.3l-0.1,0.2c0.1,0.1,0.5,0.3,0.7,0.5c-0.2,0-0.5-0.3-0.7-0.4
								c0.1,0.1,0.3,0.4,0.5,0.4c-0.1,0-0.1-0.1-0.2-0.1c0.2,0.1,0.5,0.2,0.7,0.4c-0.3,0.2,0.5,0.7,0.4,1c0.3,0.1,0.4,0.3,0.6,0.5
								c0.2,0.2,0.4,0.4,0.7,0.6c0-0.4,0.2,0.1,0.3-0.2c0.1,0.1,0.2,0.1,0.2,0.1l0.3,0.4c0,0.1-0.2,0-0.2,0.1
								c0.3,0.2,0.1,0.2,0.2,0.4c0-0.1,0.2-0.1,0.3,0.1l-0.2-0.3c0.5,0.1,0.2,0.4,0.7,0.5l-0.2,0c0.2,0.1,0.8,0.4,1.1,0.2
								c0,0,0.1,0.1-0.1,0.1c0.5,0.3,1.3,0.1,1.7,0.4l-0.1,0.1c0.1,0,0.2-0.1,0.3,0c0,0-0.1,0.1,0,0.1c0.1,0,0.3-0.1,0.4,0l-0.1,0.1
								c0.5,0.2,0.9-0.1,1.3-0.1c0,0.2,0.4,0.3,0.7,0.3l0,0c0.7,0,1.1-0.2,1.7-0.4c0.4,0.2,1.3-0.1,1.9-0.2c-0.1,0,0-0.2,0.1-0.2
								c0.1,0,0.3-0.3,0.4-0.1l0,0c0.2,0.1,0.4,0,0.6-0.1l-0.1-0.3c0.3,0,0.7-0.1,1-0.3c0.3-0.2,0.5-0.4,0.8-0.4
								c0.1-0.1,0.2-0.2,0.3-0.4l0.1,0.1c0.3-0.2,0.5-0.3,0.9-0.6l0,0.1c0.2-0.2,0-0.5,0.2-0.7l0.2,0.1c0.4-0.3,0.8-0.6,1-1
								c0,0,0.1,0.1,0,0.1c0.2-0.2,0.7-0.6,0.4-0.7c0.2,0.1,0.3-0.4,0.4-0.6l0.1,0.1c0-0.3-0.1-0.3,0-0.6c0.1-0.1,0.1,0,0,0.1
								c0.2-0.2,0-0.2,0.2-0.4l0,0.1c0.1-0.2,0.1-0.2,0.1-0.4c0-0.2,0.2-0.4,0.4-0.4c-0.1-0.1-0.1-0.2,0-0.3c0.1,0,0.1,0.1,0.1,0.1
								c0.3-0.3,0.1-0.6,0.3-0.8c0,0,0.1,0,0.1,0c-0.1,0.3-0.2,0.6-0.2,0.5c0.1,0,0.2-0.2,0.3,0.1c0-0.2-0.1-0.7,0-0.9
								c0,0,0,0,0.1,0l0,0c0-0.1,0-0.1,0-0.2c0-0.1,0.1-0.1,0.1-0.2c0.1,0,0.1-0.3,0.2-0.4c-0.1,0-0.1-0.2-0.2-0.1c0,0,0,0,0,0.1
								c0,0,0,0,0,0.1c0,0,0,0,0,0c0,0.1,0,0.2-0.1,0.3c0-0.1-0.1-0.2,0-0.4c-0.1-0.1-0.1-0.2-0.2-0.2c0.2-0.1,0.4-0.4,0.5-0.5
								c0-0.4,0.1-1-0.2-1.2c0-0.1,0.1-0.1,0.1-0.2c0,0.1,0,0.1,0.1,0.2c-0.1-0.2,0-0.7-0.2-0.7c0.1-0.3,0.2,0.2,0.1-0.2l0.1,0.1
								c0.1-0.4,0-0.7-0.1-1c-0.1-0.3-0.3-0.6-0.2-1.1c0,0.1,0,0.1,0,0.1c0-1-0.6-1.9-0.8-2.9c-0.1-0.3-0.2-0.2-0.3-0.4l0.1-0.1
								l-0.3-0.2c-0.3-0.3,0-0.8-0.5-1.1l0,0.1c-0.1-0.2-0.4-0.4-0.3-0.5c0,0-0.1,0-0.1-0.1l0.1-0.1c-0.1-0.1-0.3-0.2-0.4-0.3
								c-0.2-0.3,0.3-0.2-0.1-0.6c-0.2-0.1-0.5-0.2-0.5-0.2c0,0.1,0.1,0.2,0,0.2l-0.1-0.1c-0.2,0.1-0.4,0.2-0.3,0.6l0.3,0.1l0,0.1
								l-0.2-0.2c0,0.2,0.1,0.2,0.2,0.2c0,0.1,0,0.1,0,0.2l0.4,0.1c-0.1,0.1-0.2,0-0.1,0.2c0.2,0,0.1-0.2,0.3-0.1
								c0,0.2-0.1,0.2,0.1,0.3c0,0.1-0.1,0.1-0.1,0c0.1,0.1,0.2,0.3,0.4,0.3c0,0.2,0.3,0.4,0.1,0.5c0.1,0,0.3,0.1,0.3,0.2
								c-0.3-0.1,0.2,0.4,0,0.5c0.3,0,0.4,0.5,0.6,0.7c0,0-0.1,0-0.1-0.1c0.1,0.2,0,0.2,0,0.4c0.2-0.1,0.3,0.2,0.5,0.3
								c-0.1,0.3-0.3,0-0.4,0.1c0.1-0.1,0.3,0.3,0.4,0.2c-0.1,0.2,0,0.1-0.1,0.3c0.2,0,0.1,0.1,0.3,0.2c-0.1,0.3-0.2,0.1-0.1,0.3
								C50.2,55.2,50,55,50,55z M50.3,60.9L50.3,60.9c0-0.1,0-0.1,0-0.1C50.3,60.8,50.3,60.9,50.3,60.9z M50.1,61.4
								c0-0.1,0.1-0.1,0.1-0.2c0.1,0,0.1,0,0.1,0.1C50.3,61.3,50.2,61.4,50.1,61.4z M51.4,60.6c0,0.1,0,0.1-0.1,0.1
								C51.3,60.7,51.3,60.7,51.4,60.6L51.4,60.6C51.4,60.6,51.4,60.6,51.4,60.6z"/>
							<path class="st3" d="M51.3,60.4C51.3,60.4,51.3,60.4,51.3,60.4L51.3,60.4L51.3,60.4L51.3,60.4z"/>
							<path class="st3" d="M38.1,46.3L38.1,46.3C38.1,46.3,38.1,46.3,38.1,46.3C38.1,46.3,38.1,46.3,38.1,46.3z"/>
							<polygon class="st3" points="45.6,66.6 45.6,66.7 45.6,66.6 							"/>
							<path class="st3" d="M41,46.7C41.1,46.7,41.1,46.7,41,46.7C41.1,46.7,41.1,46.7,41,46.7z"/>
							<path class="st3" d="M42.3,46.9l0.2,0.1C42.4,47,42.3,47,42.3,46.9z"/>
							<path class="st3" d="M43.2,47.2C43.2,47.2,43.2,47.2,43.2,47.2L43.2,47.2L43.2,47.2z"/>
							<path class="st3" d="M30.5,52.6C30.5,52.6,30.5,52.6,30.5,52.6C30.4,52.7,30.5,52.7,30.5,52.6z"/>
							<path class="st3" d="M33.1,49c0,0,0,0.1-0.1,0.1C33.1,49.1,33.1,49,33.1,49z"/>
							<polygon class="st3" points="29.4,57.3 29.4,57.3 29.4,57.3 							"/>
							<path class="st3" d="M32.8,49.3c0.1,0,0.1-0.1,0.2-0.1C33,49.1,32.9,49.2,32.8,49.3z"/>
							<path class="st3" d="M46.7,49.2L46.7,49.2C46.8,49.2,46.8,49.2,46.7,49.2L46.7,49.2z"/>
							<path class="st3" d="M46.8,49.2L46.8,49.2C46.8,49.2,46.8,49.2,46.8,49.2z"/>
							<path class="st3" d="M46.9,49.3l-0.1,0C46.9,49.3,46.9,49.3,46.9,49.3z"/>
							<path class="st3" d="M45.7,48.4L45.7,48.4C45.7,48.5,45.7,48.5,45.7,48.4z"/>
							<path class="st3" d="M45.4,48.3c0.1,0.1,0.1,0.2,0.3,0.2l0,0C45.6,48.5,45.5,48.2,45.4,48.3z"/>
							<path class="st3" d="M44.2,47c0.1,0.1,0.2,0.1,0.3,0.2c0-0.1-0.1-0.2,0.1-0.1C44.3,46.7,44.6,47.2,44.2,47z"/>
							<path class="st3" d="M43.3,46.5c0.2,0,0-0.1,0-0.1C43.2,46.5,43.1,46.5,43.3,46.5z"/>
							<path class="st3" d="M35.8,46.8l0-0.1C35.6,46.8,35.8,46.7,35.8,46.8z"/>
							<path class="st3" d="M34.8,48c0,0,0.1,0,0.1,0l0-0.1C34.9,47.9,34.8,48,34.8,48z"/>
							<polygon class="st3" points="33.6,47.6 33.6,47.6 33.5,47.8 							"/>
							<path class="st3" d="M28.2,58.8l0.2-0.1C28.3,58.6,28.1,58.6,28.2,58.8z"/>
							<path class="st3" d="M30.2,63.9c0,0.1,0,0.3,0.1,0.3C30.2,64.1,30.2,64,30.2,63.9z"/>
							<polygon class="st3" points="44.9,68.4 44.8,68.5 45,68.4 							"/>
						</g>
					</g>
				</g>
			</g>
		</g>
		<path d="M40,71.7c0,0,1.7-0.1,3.4-0.4c0.8-0.2,1.6-0.5,2.2-0.8c1-0.3,2.3-1.2,3.4-2.1c1-0.8,1.7-1.6,1.7-1.6l-1.9-1.6l-1.6-2.9
			l0-0.2l4.4,1.6l-5.5-6.9l-0.1-0.4c0,0,0.9-0.2,0.6-1.6c-0.4-1.4-0.7-1.7-0.7-1.7s-1.1-1.2-2-1.8c-0.9-0.6-1.9-0.9-1.9-0.9l-0.4,0
			l0.1-1l-1.3-5.3l-1.6,5.3l0.1,1l-0.4,0c0,0-1,0.4-1.9,0.9c-0.9,0.6-2,1.8-2,1.8s-0.4,0.4-0.7,1.7s0.6,1.6,0.6,1.6l0,0.1l-5.8,7.3
			l4.6-1.7l-0.1,0.2l-1.6,2.9l-1.9,1.6c0,0,0.9,1.1,2.2,2c0.9,0.7,2.1,1.3,2.9,1.7C36.2,71.5,39.9,71.9,40,71.7L40,71.7z"/>
		<g>
			<path class="st2" d="M40.8,60.7c0,0,0.4-0.9,1.1-1.1c0.8-0.2,2.4-1,2.5-1.2c0.1-0.2-0.9-0.1-1.8,0.1c-0.9,0.2-1.9,0.6-2,1.4
				s0,1,0,1L40.8,60.7L40.8,60.7z"/>
			<path class="st2" d="M40.1,63.5l1.2-1c0,0,0,0.5-0.3,0.9c-0.3,0.3-0.7,0.8-0.9,0.8c-0.3,0-1-0.7-1.2-0.9
				c-0.2-0.2-0.3-0.6-0.1-0.6C38.9,62.7,40.1,63.5,40.1,63.5L40.1,63.5z"/>
			<path class="st2" d="M39.1,60.7c0,0-0.4-0.9-1.1-1.1c-0.8-0.2-2.4-1-2.5-1.2c-0.1-0.2,0.9-0.1,1.8,0.1c0.9,0.2,1.9,0.6,2,1.4
				s0,1,0,1L39.1,60.7L39.1,60.7z"/>
			<path class="st2" d="M40.2,57.9c0.2,0,0.6-0.3,0.8-0.5c0.1-0.2,0.8-1.4,1-1.9c0.2-0.5,0.2-1.1-0.1-1.3c-0.2-0.2-2-0.3-2-0.3
				s-1.5,0-1.7,0.3c-0.2,0.2-0.2,0.8-0.1,1.3c0.2,0.5,0.9,1.7,1,1.9C39.2,57.5,39.5,57.9,40.2,57.9L40.2,57.9z M40.2,58.3
				c0,0-0.7,0.1-0.9-0.1C39.1,58,39,57.8,39,57.8s-1.4-0.2-2.2-0.4c-0.8-0.3-2-0.8-2.2-0.9c-0.2-0.1-0.4-0.2-0.6-0.1
				c-0.1,0.1-0.2-0.1-0.2-0.1s0.3-0.4,0.4-0.3c0.1,0,1,0.4,1.7,0.6c0.7,0.2,2,0.6,2.4,0.7c0.3,0.1,0-0.3-0.3-0.7
				c-0.3-0.4-0.4-1.3-0.4-1.4s0-0.3,0-0.3s-0.8-0.2-1.4-0.3c-0.5-0.1-1.2-0.5-1.4-0.6s-0.7-0.6-0.7-0.6l0.2-0.1c0,0,0.2,0.3,0.7,0.4
				c0.5,0.2,1.1,0.4,1.5,0.4c0.3,0.1,0.9,0.2,0.9,0.2s0.1-0.5,0.7-0.6c0.6-0.1,1.1-0.2,1.1-0.2s-0.7-0.8-0.7-1.2
				c-0.1-0.4-0.3-2-0.3-2l0.3-0.1c0,0,0.2,1.1,0.3,1.5s0.4,1.3,0.6,1.5c0.2,0.2,0,0.3,0.6,0.3c0.6,0,0.6-0.1,0.7-0.3
				c0.2-0.2,0.4-1.1,0.6-1.5c0.1-0.4,0.3-1.5,0.3-1.5l0.3,0.1c0,0-0.2,1.6-0.3,2c-0.1,0.4-0.7,1.2-0.7,1.2s0.5,0.1,1.1,0.2
				c0.6,0.1,0.7,0.6,0.7,0.6s0.6-0.1,0.9-0.2c0.3-0.1,0.9-0.3,1.5-0.4c0.5-0.2,0.7-0.4,0.7-0.4l0.2,0.1c0,0-0.5,0.4-0.7,0.6
				s-0.9,0.5-1.4,0.6c-0.5,0.1-1.4,0.3-1.4,0.3s0,0.1,0,0.3s-0.2,0.9-0.4,1.4s-0.6,0.8-0.3,0.7s1.7-0.5,2.4-0.7
				c0.7-0.2,1.6-0.6,1.7-0.6c0.1,0,0.4,0.3,0.4,0.3s-0.1,0.2-0.2,0.1c-0.1-0.1-0.3-0.1-0.6,0.1c-0.2,0.1-1.4,0.7-2.2,0.9
				c-0.8,0.3-2.2,0.4-2.2,0.4s-0.2,0.2-0.3,0.4C40.6,58.4,40.2,58.3,40.2,58.3L40.2,58.3z"/>
			<path class="st2" d="M40.1,68.4l1.3,0c0,0,1.2-1,1.6-1.5c0.5-0.5,1-1,1-1l-0.1,2.1l-0.3,2.8l0.4,0l0.2-2.1l1.4,1.6L46,70
				l-1.5-1.9l0.1-2.8l0.4-0.4l-0.1-3c0,0,0.3-0.3,0.4-0.6c0.2-0.2,0.3-0.8,0.3-1.2c0-0.4-0.2-1.9-0.2-2.2c0-0.3,0-1.5,0-1.5
				l-0.4,0.1c0,0,0,1.7,0,1.9c0,0.2,0.1,1,0.2,1.3c0,0.3,0.1,1-0.1,1.2c-0.2,0.2-0.7,0.9-1,1.1c-0.3,0.3-0.8,0.7-0.9,1
				S43,63.8,43.1,64c0.1,0.2,0.4,0.1,0.4-0.1c0.1-0.2,0-0.6,0.2-0.8c0.2-0.2,0.7-0.7,0.7-0.7l0,1.9c0,0-0.3,0.7-0.8,1.2
				c-0.5,0.5-1.9,1.8-1.9,1.8s-0.4,0.5-0.6,0.5c-0.2,0.1-1.1,0-1.1,0s-1.1,0-1.3,0s-0.6-0.5-0.6-0.5s-1.4-1.3-1.9-1.8
				s-0.8-1.2-0.8-1.2l0-1.9c0,0,0.5,0.5,0.7,0.7c0.2,0.2,0.2,0.5,0.2,0.8s0.3,0.3,0.4,0.1s0-0.6-0.1-0.9s-0.5-0.7-0.9-1
				c-0.3-0.3-0.9-0.9-1-1.1c-0.2-0.2-0.1-0.9-0.1-1.2c0-0.3,0.2-1.1,0.2-1.3s0-1.9,0-1.9l-0.4-0.1c0,0,0,1.2,0,1.5
				c0,0.3-0.2,1.8-0.2,2.2s0.1,1,0.3,1.2c0.2,0.2,0.4,0.6,0.4,0.6l-0.1,3l0.4,0.4l0.1,2.8L33.9,70l0.4,0.3l1.4-1.6l0.2,2.1l0.4,0
				L36,67.9l-0.1-2.1c0,0,0.6,0.4,1,1c0.5,0.5,1.6,1.5,1.6,1.5L40.1,68.4L40.1,68.4z"/>
		</g>
	</g>
	<polygon points="33.6,75.6 32.7,72.7 36.2,72.7 35.3,75.8 	"/>
	<polygon points="45.2,75.7 44.2,72.7 47.8,72.7 46.9,75.5 	"/>
	<polygon points="39.1,75.9 38.5,74.1 42,74.1 41.6,75.6 	"/>
</g>
<path class="st4" d="M52.3,1.6c0,4.3-4.9,8.8-12.3,8.8S27.7,5.9,27.7,1.6"/>
<path class="st5" d="M40.2,75.6c6.9-0.1,16.7-1.8,22.4-4c-0.7-6.6-2.7-45.5-2.7-45.5s2.1,5.1,3.2,7.9c4.7-0.4,12.3-1.3,15.3-6.2
	C75.5,21,73.3,13.2,71,8.1c0,0-10.4-3.8-18.6-6.4c0,0-0.9-0.3-1.3,0.4c-3,4.2-4.5,7.1-11.2,7.1l0,0c-6.4-0.1-8-2.9-10.9-7.1
	c-0.5-0.7-1.4-0.4-1.4-0.4C19.5,4.2,9,8.1,9,8.1c-2.3,5.1-4.5,13-7.4,19.7c3,4.8,10.4,5.8,15.3,6.2c1.1-2.8,3.2-7.9,3.2-7.9
	S18,65,17.4,71.6c5.8,2.2,15.5,4,22.4,4l0,0"/>
</svg>
