<?xml version="1.0" encoding="utf-8"?><svg version="1.1" id="Layer_1" xmlns="http://www.w3.org/2000/svg" xmlns:xlink="http://www.w3.org/1999/xlink" x="0px" y="0px" viewBox="0 0 79.8 77" style="enable-background:new 0 0 79.8 77;" xml:space="preserve"><style type="text/css"> .st0{fill:#335FCA;} .st1{fill:#000033;} .st2{fill:#C8C8C8;} .st3{fill:#1F3B7D;} .st4{fill:#FFFFFF;} .st5{fill:#F9F9F9;} .st6{fill:#5F8DD3;} .st7{fill:none;} .st8{fill:none;stroke:#000000;stroke-width:3;stroke-linecap:round;stroke-linejoin:round;} </style><g id="Hintergrund"><path class="st0" d="M40.1,75.5c6.9-0.1,16.7-1.8,22.4-4C61.8,64.9,59.8,26,59.8,26s2.1,5.1,3.2,7.9c4.7-0.4,12.3-1.3,15.3-6.2 c-2.9-6.8-5.1-14.6-7.4-19.7c0,0-10.4-3.8-18.6-6.4c0,0-0.9-0.3-1.3,0.4c-3,4.2-4.5,7.1-11.2,7.1l0,0C33.4,9,31.8,6.2,28.9,2 c-0.3-0.4-0.9-0.6-1.4-0.4C19.4,4.1,8.9,8,8.9,8c-2.3,5.1-4.5,13-7.4,19.7c3,4.8,10.4,5.8,15.3,6.2C17.9,31.1,20,26,20,26 s-2.1,38.9-2.7,45.5c7.2,2.5,14.8,3.8,22.4,4l0,0"/></g><g id="Logo"><g><g><g id="layer1"><g id="g4333"><path id="path4366-0" class="st1" d="M41.4,56.1c0,0.1-0.1,0.2-0.1,0.3c0,0.1-0.1,0.1-0.2,0.1s-0.7,0.2-1.8,0.6l0,0 c-0.4,0.2-0.7,0.5-0.8,0.9c-0.1,0.4,0,0.9,0.1,1.3c0.1,0.4,0.4,0.8,0.7,1.2c0.3,0.3,0.6,0.5,1,0.6c0.1,0,0.1,0,0.1-0.1 c0,0,0-0.1,0-0.1c-0.2-0.3-0.3-0.7-0.3-1.1c0-0.1,0-0.2,0-0.3c0.1,0.2,0.1,0.4,0.3,0.6c0.2,0.3,0.5,0.6,0.8,0.8 c0,0,0.1,0,0.2,0c0,0,0-0.1,0-0.1c0-0.3-0.1-0.5-0.1-0.8c0-0.4,0-0.8,0.2-1.2c0.2-0.2,0.4-0.4,0.7-0.5c0.2-0.1,0.5-0.1,0.7,0 c0.2,0.2,0.3,0.4,0.4,0.6c0.1,0.4,0.2,0.8,0.2,1.2c0,0.1,0,0.1,0.1,0.1c0.3,0.1,0.7,0.1,1,0.2c0.3,0,0.5,0,0.8-0.1 c0.2-0.1,0.4-0.3,0.5-0.5c0.4-0.1,0.7-0.3,1.1-0.5c0.2-0.1,0.3-0.4,0.2-0.6c-0.1-0.2-0.3-0.5-0.5-0.6c-0.3-0.2-0.6-0.4-0.9-0.6 c-0.8-0.4-1.6-0.7-2.4-1c-0.8-0.3-1.5-0.5-1.7-0.6l0,0C41.5,56,41.4,56,41.4,56.1C41.4,56.1,41.4,56.1,41.4,56.1z"/><path id="path4170-5-6-9-6-3-3-5" class="st2" d="M39.3,58.7c-0.1,0.5,0.1,1.1,0.5,1.5c-0.2-0.2,0.1-0.9,0.2-1.2 C39.9,58.7,39.5,58.6,39.3,58.7z"/><path id="path4170-5-6-9-66-5-7" class="st3" d="M40.5,57.5c-0.3,0.1-0.6,0.2-0.8,0.4c-0.2,0.2-0.4,0.4-0.5,0.7 c0.3-0.1,0.9,0,0.9,0.2c0.1-0.2,0.1-0.3,0.5-0.6c0,0.2-0.1,0.4-0.2,0.5c0.1,0,0.3-0.1,0.3,0.1c0-0.2,0.1-0.3,0.3-0.4 c1.4-0.9,2-0.5,2-0.5c0.4,0.3,0.7,0.7,0.8,1.2c0.1-0.3,0.4-0.6,0.6-0.5c-0.3-0.3-0.6-0.6-0.9-0.9c-0.3-0.2-0.5-0.3-0.8-0.4 C42.1,57.3,41.3,57.3,40.5,57.5L40.5,57.5z M45,59.5L45,59.5z"/><path id="path4170-5-6-9-6-6-2-7-6" class="st2" d="M40.5,58.8c-0.1,0.4,0,0.8,0.3,1.2c-0.1-0.3-0.1-0.6-0.1-0.9 C40.7,58.9,40.6,58.8,40.5,58.8z"/><path id="path4170-5-6-9-6-3-0-8-5" class="st4" d="M39.3,58.7c-0.1,0.4,0,0.8,0.3,1.2c-0.1-0.4-0.1-0.8,0-1.2 C39.5,58.6,39.4,58.6,39.3,58.7z"/><path id="path4170-5-6-9-6-6-2-0-0-4" class="st5" d="M40.6,58.8c0,0-0.1,0-0.1,0c0,0.4,0.1,0.7,0.2,1.1 C40.6,59.5,40.6,59.2,40.6,58.8L40.6,58.8z"/><path id="path4368-0" class="st1" d="M47.5,57.9c0,0.1,0,0.1-0.1,0.2c0,0-0.1,0.1-0.1,0.1c-0.2,0-0.4,0-0.5,0 c-0.9-0.1-1.7,0.2-2.5,0.7l0,0c-0.8,0.5-1.1,1.5-0.7,2.4c0.4,0.9,1.2,1.5,2.2,1.6c0,0,0.1,0,0.1-0.1c0,0,0-0.1-0.1-0.1 c-0.3-0.2-0.5-0.6-0.5-1c0-0.2,0-0.4,0-0.5c0.1,0.3,0.2,0.5,0.4,0.7c0.3,0.3,0.7,0.6,1.2,0.7h0.1c0,0,0-0.1,0-0.1c0,0,0,0,0,0 c-0.2-0.3-0.3-0.6-0.4-0.9c-0.2-0.5-0.1-1,0.1-1.5c0.4-0.3,0.8-0.6,1.2-0.7c0.1,0,0.1,0,0.2,0l0.2,0.1c0.1,0.1,0.2,0.2,0.3,0.3 c0.2,0.2,0.3,0.3,0.4,0.5c0.1,0.2,0.2,0.4,0.2,0.6c0,0.2-0.2,0.4-0.4,0.5c0,0-0.1,0-0.1,0.1c0,0,0,0.1,0.1,0.1 c0.5,0.1,0.9,0.1,1.4,0c0.8-0.1,1.5-0.6,1.8-1.4c0-0.1,0.1-0.2,0.1-0.3c0-0.1,0-0.1-0.1-0.2C50.5,58.1,48.9,58.1,47.5,57.9 L47.5,57.9C47.5,57.9,47.5,57.9,47.5,57.9C47.5,57.9,47.5,57.9,47.5,57.9z"/><path id="path4170-5-6-8" class="st1" d="M52,59.7c-1.5-1.6-3.1-1.5-4.5-1.8c-0.1,0.9-1-0.5-3.2,0.9c-1.7,1.2-0.6,3.7,1.5,4 c-0.8-0.5-0.6-1.6-0.5-2.3c-0.1,1.2,0.7,1.6,1.5,2c0,0-0.9-1.6-0.2-2.5c1.4-1,1.4-0.8,1.7-0.6s1.6,1.3,0.5,2 c0,0,2.6,0.3,3.2-1.4C52.1,59.9,52.1,59.8,52,59.7z"/><path id="path4170-5-6-9-6-3-38" class="st2" d="M44.1,60.5c0,0.6,0.4,1.2,0.9,1.6c-0.3-0.2-0.1-1.1-0.1-1.4 C44.8,60.4,44.3,60.4,44.1,60.5z"/><path id="path4574-7" class="st1" d="M33,33.9c-0.2,0.4-0.5,1.2-0.5,1.2c0.1,0.6,0.3,1.1,0.6,1.6l0,0c1.7,1.2,3.2,2.7,4.4,4.4 c6.8-0.6,3.9-7.7,7-10.4c0.1-0.1,0.1-0.3,0.2-0.3c0.5-1.1,2.9-6.5,0.7-8.8c-0.8,1.5-1.8,2.9-3,4c1.5-5.2,0.2-7-1-8.9 c-0.7,1.3-1.5,2.6-2.4,3.8c1-2.2-0.5-7.1-3.4-7.5C35.7,20.3,35.9,26.9,33,33.9z"/><path id="path4170-5-54-6-4" class="st3" d="M33.5,35c0,0.8,0.2,1.6,0.5,2.3c1.3,1.1,2.4,2.3,3.4,3.7c6.6-1,5.4-4.9,5.6-7.7 c-1,0.7-2,1.5-2.3,1.4c1.4-2.2,4.5-6.7,3.6-9.6c-1.1,2-2.7,3.5-4.7,4.6c1.3-4.3,2.3-8.8,1.3-10.4c-0.1,1.8-2.6,4.3-3.2,4.6 c0.3-2.3,0.7-4.9-1.1-7.2C36.8,22.8,37.1,29.5,33.5,35z"/><path id="path4170-5-51" class="st1" d="M44.5,30.5c-3.4,3,0.6,10-7,10.1c-1.1-1.7-2.5-3.1-4.2-4.3c-1.8-1.1-4-1.4-6.1-1.1 c-0.9,0.2-1.8,0.7-2.3,1.5c-1.4-0.4-3.3,1-3.3,1c0.7,0.7,1.5,1.2,2.5,1.6c1.9,0.9,3.4,3.4,5,5.9c4.5,6.5,12.5,12.7,20,14.4 c4.5,0.9,8.6,1.2,12.7,2.3c0.9,0.2,1.5-2.9-0.1-3.7c-2.1-1.1-3.8-2.1-5.5-3.6c-1.5-1.3-2.9-2.9-4-4.5c2.6-1.2,6.3-3.5,6.1-5.5 c-0.8,0-3.9,1.2-5.1,0.8c4.2-2.4,7.9-4.8,8.4-6.5c0.1-0.2-4.5,0.7-5,0.5c2.6-1.6,3.1-4.4,4.3-5.6c1-1,2.9-0.4,3.3-1.7 c-0.8,0.1-4.6,1.5-5.4,1.4c0.4-0.2,7-5.1,5.9-9.2c-1,0.8-4.4,2.6-5.5,2.6c4.5-4.7,4.2-7.4,3.9-10.2c-1.5,1-3.1,1.9-4.7,2.7 c2.3-1.9,3.4-7.9,0.5-10C55,17.5,51.4,24.7,44.5,30.5z"/><path id="path4170-5-5-3" class="st3" d="M45.2,31.5c-1.9,3.4,1.1,10.4-8,10.4c-1.3-1.7-2.9-3.2-4.5-4.6 c-1.1-0.7-5.1-2.5-7.4-0.2l0.3,0.4l4.2-1.1c-0.3,0.3-0.7,0.6-1.1,0.8c1.2,0.5,2.4,1,3.6,1.4c-1.5,0-3,0.2-4.5,0.5 c1,0.6,2.1,1.1,3.3,1.5c-0.5,0-1,0.2-1.4,0.5c0.4,0.3,1.3,1,1.7,1.3c0.5,1.2,1.2,2.3,1.9,3.4c0.4,0.3,0.9,0.7,1.4,0.9 c0.5,0.2,1,0.5,1.5,0.7c0.5,0.2,1.1,0.5,1.5,0.8l-2.9-0.5l0.8,1.4c-0.7-0.5-1.1-0.8-1.5-1.1c2.4,3.1,5.4,6.1,8.4,7.3 c5.4,2.2,3.1,2.4,16.4,4.5l3.8,0.7c-2.4-1.1,0.3-0.3-1.2-0.9c-0.5-0.2-1-0.4-1.2-0.5c-3.3-1.7-9.2-5.2-11.1-8.9 c2.2-1,4.2-1.5,6.5-4c-2.8,0.8-5.7,0.8-6.4-0.8c3.2-0.8,9.2-3.8,9.6-5.2c-1.6,0.1-7.5,1.8-8.4,0.5c3.5-1.7,9.5-4.4,10.8-6.5 c-0.7,0.4-7.3,1.7-8,1c2.7-1.6,8.6-4.6,9.2-8.3c-2.2,1.5-4.9,2.3-7.6,2.3c3.8-3.9,7.4-8.1,7.2-10.4c-1.1,1.9-5.2,3.2-6,3.1 c1.6-2.3,3.3-5,2.7-8.5C55.3,20.1,52.1,27.7,45.2,31.5z M51.7,35.2c-1.2,1-3.6,1.9-3.7,2.9c-0.9,2.1-1.4,6-2,7.2 c-1.9-0.1-3.7-0.4-5.5-1.1c0,0,1.3,0.5,5,0c0.4-2.3,1-4.6,1.7-6.9c1.2-1,2.5-1.9,3.9-2.7C52,33,53,31.4,54.2,30 C54,30.6,52.5,33.5,51.7,35.2z M39.7,43.7c0.6,1,1.2,3.2,1.8,3.4c1.2,0.9,6.1,2.4,6.8,3l-3.1-0.7c-1.5-0.5-3-1-4.5-1.6 c-0.7-1.8-0.9-2.7-1.4-3.8c-0.6-0.5-1.1-1.1-1.6-1.6C38.4,42.8,39.1,43.2,39.7,43.7L39.7,43.7z"/><path id="path4203-0" class="st2" d="M28.4,37.3c-0.3,0.1-0.7,0.1-1,0.2c-0.1,0-0.2,0.1-0.2,0.2c0,0.1,0.1,0.2,0.2,0.2l0,0 c-0.1,0.1-0.2,0.2-0.4,0.2c-0.2,0-0.4-0.1-0.4-0.2c-0.1-0.1-0.1-0.2,0-0.3l-0.5,0.1c0.1,0.5,0.6,0.7,1.2,0.7 C27.9,38.3,28.3,37.9,28.4,37.3L28.4,37.3z"/><path id="path4203-7-5" class="st4" d="M27.1,38.1c-0.3,0-0.4-0.1-0.4-0.1c0.1,0.2,0.3,0.3,0.5,0.2c0.3,0,0.5-0.3,0.5-0.6 c0,0,0,0,0,0c0-0.1,0-0.2-0.1-0.2h-0.2c-0.1,0-0.2,0.1-0.2,0.2c0,0,0,0,0,0c0,0.1,0.1,0.2,0.2,0.2l0,0 C27.3,38,27.2,38.1,27.1,38.1L27.1,38.1z"/><path id="path4170-5-5-9-6" class="st6" d="M45.1,31.5c-0.7,1.5-1.5,7.5-2.2,8.5c0,0-3.1,1.9-5.7,1.9c0.5,0.3,1,0.6,1.5,1 c2.8-0.1,3.6,0,5.6-0.6c0.6-3.6,1.9-7.5,2.5-9.8c3.8-3.2,6.6-4.7,10.1-15.4C53.9,22.9,51,28.2,45.1,31.5z M63.7,58.2L63.7,58.2 L63.7,58.2z"/><path id="path4170-5-0-0-4" class="st2" d="M25.1,37.5c-0.9-0.2-1.8-0.1-2.6,0.4c0.6,0.4,1.2,0.7,1.9,1l0.7-0.3l-1.4-0.4 c1,0.1,2.3,0.4,2.3,0.4L25.1,37.5z"/><path id="path4193-7" class="st7" d="M25.1,37.5c0,0.1-0.1,0.1-0.4,0.2c-0.3,0-0.5,0.1-0.8,0.1c-0.5,0-0.7,0-1.4,0.1H23 c1,0,1.7,0,2.3,0.1C25.1,37.7,25,37.5,25.1,37.5c0.1-0.1,0.3,0.1,0.4,0.5c-0.6,0-1.5-0.1-2.6-0.1h-0.4c0.4-0.4,0.9-0.6,1.4-0.8 c0.3,0,0.6,0,0.9,0.2C25.1,37.3,25.1,37.4,25.1,37.5L25.1,37.5z"/><path id="path4170-5-0-0-1-0" class="st4" d="M25.1,38.5c-0.6-0.2-1.2-0.4-1.4-0.4c0.5,0.2,0.4,0.2,1.2,0.5L25.1,38.5z"/><path id="path4193-9-3" class="st7" d="M25.1,37.5c0,0.1-0.1,0.1-0.4,0.2c-0.3,0-0.5,0.1-0.8,0.1c-0.5,0-0.7,0-1.4,0.1H23 c1,0,1.7,0,2.3,0.1C25.1,37.7,25,37.5,25.1,37.5c0.1-0.1,0.3,0.1,0.4,0.5c-0.6,0-1.5-0.1-2.6-0.1h-0.4c0.4-0.4,0.9-0.6,1.4-0.8 c0.3,0,0.6,0,0.9,0.2C25,37.3,25.1,37.4,25.1,37.5L25.1,37.5z"/><path id="path4170-5-0-0-7-5-8" class="st4" d="M25.1,37.5c-0.9-0.2-1.8-0.1-2.6,0.3c1-0.4,2.1-0.3,3,0.1L25.1,37.5z"/><path id="path4170-5-5-9-9-6" class="st6" d="M35.2,31c-0.4,1.4-1,2.7-1.7,4c0,0.6,0.2,1.3,0.4,1.9c0.3,0.3,1.3,1.1,1.6,1.4 c-0.3-1.2-0.6-2.1-0.8-3c1.5-3.5,3.1-6,2-14.9C36.9,23.9,36.4,27.5,35.2,31z"/><path id="path4170-5-5-8-7" class="st6" d="M25.2,37.2l0.3,0.4c1.4-0.2,2.8-0.6,4.2-1.1C28.8,36.7,28.5,36.6,25.2,37.2z"/><path id="path4170-5-6-9-66-57" class="st3" d="M44.4,59.5C44.2,59.7,44,60,44,60.3c0.3-0.1,1-0.2,1.1,0c0-0.3,0.1-0.4,0.5-0.8 c0,0.2-0.1,0.5-0.1,0.7c0.1-0.1,0.3-0.1,0.4,0.1c0-0.2,0.1-0.4,0.2-0.5c1.4-1.3,2.2-1,2.2-1c0.5,0.2,0.9,0.6,1.2,1 c0.1-0.3,0.4-0.5,0.7-0.5c-0.3-0.2-0.5-0.5-0.7-0.7c-0.1-0.1,0.4-0.6,0.4-0.6c-1.1-0.5-2.3-0.9-3.5-1.1c-0.1,0,1.7,1.3,1.5,1.3 c-0.1,0.5-1.6,0.2-2.6,0.7C44.9,59,44.6,59.2,44.4,59.5z M50.8,60L50.8,60z"/><path id="path4170-5-6-9-6-6-2-5" class="st2" d="M45.6,60.4c0,0.5,0.2,0.9,0.6,1.2c-0.2-0.3-0.3-0.6-0.3-1 C45.8,60.4,45.7,60.3,45.6,60.4z"/><path id="path4170-5-6-9-6-8-3-6" class="st2" d="M50.4,59.6c0.3,0.2,0.5,0.4,0.7,0.6c0,0.5-1,0.9-1.5,0.7 c0.3-0.2,0.5-0.4,0.1-1C49.8,59.7,50.1,59.5,50.4,59.6z"/><path id="path4170-5-6-9-6-3-0-9" class="st4" d="M44.1,60.5c0,0.5,0.2,1,0.6,1.3c-0.2-0.5-0.3-0.9-0.3-1.4 C44.3,60.5,44.2,60.5,44.1,60.5z"/><path id="path4170-5-6-9-6-6-2-0-9" class="st5" d="M45.7,60.4c0,0-0.1,0-0.1,0c0,0.4,0.2,0.8,0.5,1.2 C45.8,61.2,45.7,60.8,45.7,60.4L45.7,60.4z"/><path id="path4170-5-5-9-3_2_" class="st6" d="M61.4,60.2c-2.3-0.5-5-1-8.3-1.4c2.7,0.6,5.5,1.2,8.3,2"/><path id="path4170-5-0-0-7-3-3-3-6-64" class="st1" d="M53,56c-0.8-0.8-2.5-1.9-3.2-3.3c1.9,1.7,3.9,3.2,6,4.5 c-1.8-0.8-3.2-0.4-5.3,0C52.7,56.1,53.1,56,53,56L53,56z"/><path id="path4170-5-0-0-7-3-3-3-6-6-3" class="st6" d="M27.4,40.5c0.5,0.7,0.7,1.2,1.1,1.8c3.2,6.4,11.5,12.9,17.4,15.2 c0.7,0.2,1.6,0.3,1.6,0.3c-1.2-1.5-2.5-2.8-4-4c-1.8-1.1-6-2.2-8.1-4.9l0,0c-1.9-1.4-2-1.7-3.2-2.6c-0.7-1.8-0.9-2.7-1.4-3.8 c-0.5-0.4-1-0.8-1.7-1.4C28.6,40.8,28,40.6,27.4,40.5L27.4,40.5z"/></g></g></g></g></g><g id="Layer_1_1_"><path class="st8" d="M40.1,75.5c6.9-0.1,16.7-1.8,22.4-4C61.8,64.9,59.8,26,59.8,26s2.1,5.1,3.2,7.9c4.7-0.4,12.3-1.3,15.3-6.2 c-2.9-6.8-5.1-14.6-7.4-19.7c0,0-10.4-3.8-18.6-6.4c0,0-0.9-0.3-1.3,0.4c-3,4.2-4.5,7.1-11.2,7.1l0,0C33.4,9,31.8,6.2,28.9,2 c-0.3-0.4-0.9-0.6-1.4-0.4C19.4,4.1,8.9,8,8.9,8c-2.3,5.1-4.5,13-7.4,19.7c3,4.8,10.4,5.8,15.3,6.2C17.9,31.1,20,26,20,26 s-2.1,38.9-2.7,45.5c7.2,2.5,14.8,3.8,22.4,4l0,0"/></g></svg> 