<?xml version="1.0" encoding="utf-8"?><svg version="1.1" id="Layer_1" xmlns="http://www.w3.org/2000/svg" xmlns:xlink="http://www.w3.org/1999/xlink" x="0px" y="0px" viewBox="0 0 80 77.1" style="enable-background:new 0 0 80 77.1;" xml:space="preserve"><style type="text/css"> .st0{fill:#32B3A1;} .st1{fill:none;} .st2{fill:#3D7368;} .st3{fill:none;stroke:#000000;stroke-width:3;stroke-linecap:round;stroke-linejoin:round;} </style><path class="st0" d="M52.7,2.2l-1.9,1.2c-4.9,2.3-3.9,5.9-10.5,6.2C33.4,9.4,31.7,6.6,29,2.7l-2.5-0.3C19.5,4.4,11.3,7.3,9,8.1 c-1,2.3-2.4,6.3-3.5,9.3C4.3,20.7,3.1,24.7,1.7,28c2.6,3.3,10.6,5,15,5.5c1.1-2.8,2.4-7.2,2.4-7.3c0.3-0.7,0.4-1.2,1.1-1 s0.5,1,0.5,1.7c-0.1,1.5-2.1,35.7-2.8,44.6c5.8,2,14.7,3.7,20.8,3.7c0.1,0,0.9,0,1,0c0.1,0,0.5,0,0.6,0c5.4,0.8,16.8-1.7,22.3-3.6 c-0.8-9-3.2-43.8-3.3-45.3c0-0.7-0.4-1.1,0.3-1.2c0.7-0.2,0.7,0,1,0.7c0,0,1.9,5.2,3,8.1c3.6-0.3,11.8-2.5,14.6-6.1 c-1.3-3.2-2.3-6.8-3.5-10.1c-1.1-3.1-2.8-7.2-3.9-9.6C68.5,7.4,59.6,4.4,52.7,2.2z"/><g><path class="st1" d="M40.4,27.7c-0.6,0.6-1.2,1.2-1.8,1.8c-0.8,0.9-2.4,1-3.5,2.8c-2.9,4.8-1.9,11.5-0.3,17c0.5,1.6,1.2,3.2,2,4.7 c-0.3-6.8,2.4-12.4,11.1-16.4c1.3-0.5,5.2-1.6,5.9-1.7c1.1-0.2,2.3-0.4,3.4-0.6c0.4-0.1,0.6,0.1,0.6,0.5c-0.5,0.1-4.5,0.8-5.8,1.2 c-1.1,0.3-3.8,0.6-7.5,3.4c-1.2,0.9-3.1,2.5-5.1,6.2c1.2-1.2,2.4-1.7,3.8-2.1c0.8-1.2,3.9-4.5,8-5.9c3.5-1.1,6-1.3,7.4-1.5 c0.4-0.1,0.5-0.2,0.6-0.6c0.2-0.7-0.1-2-0.4-2.6c-0.2-0.4-0.5-0.5-0.9-0.4c-0.8,0.3-7,1.7-7.5,1.6c-1.4-0.1-3.8-0.8-4.8-1.9 c-0.5-0.4-4-4.8-4.8-5.7C40.7,27.5,40.6,27.5,40.4,27.7z"/><path class="st1" d="M55.6,22.2c-0.2-0.1-0.4-0.1-0.5-0.2c-0.2-0.1-0.3-0.1-0.6,0.1c-1,0.6-1.2,1-1.6,1.3l-1,1.1c0,0-0.3,0.3,0,0.4 c0,0,0.4,0.1,0.8-0.2c0,0,0.5-1,0.5-1.1c0,0,0,0,0-0.1l0,0c1,0.7,0.7,2,0.3,2.7C52.8,27.5,51,28,49.9,27c0.1-0.2,0.2-0.5,0.3-0.9 c-0.6,0.6-1,1.1-1.6,1.7c0.4,0.1,0.8,0.2,1.1,0.2c1.3,0.2,2.6-0.1,3.8-0.6s2.2-1.1,3-2.2C57.6,23.8,57.3,22.8,55.6,22.2z"/><path class="st2" d="M58.7,5.4h-8.1c-0.1,0.1-0.2,0.2-0.3,0.4h7.5c0.4-0.1,0.8-0.2,1.2-0.2C58.9,5.5,58.8,5.5,58.7,5.4z"/><path class="st2" d="M41.4,10.7c-0.3,0-0.7,0-1,0l-0.6,0.7h5.5c0.3-0.2,0.7-0.5,1-0.7H41.4z"/><path class="st2" d="M35.9,16L35,17.1h4.1c0.3-0.4,0.6-0.7,0.9-1.1H35.9z"/><path class="st2" d="M31.5,21.3l-1.2,1.4h4.9c0.3-0.5,0.5-0.9,0.8-1.4H31.5z"/><path class="st2" d="M27,26.6l-1.5,1.8h7.3c0.2-0.6,0.4-1.2,0.6-1.8H27z"/><path class="st2" d="M22.5,31.9l-1.3,1.6c0,0.2,0,0.4,0,0.5h10.2c0.1-0.7,0.2-1.4,0.4-2.1H22.5z"/><path class="st2" d="M31,37.2H21c0,0.8-0.1,1.6-0.1,2.5H31C31,38.8,31,38,31,37.2z"/><path class="st2" d="M20.7,42.5c-0.1,0.9-0.1,1.9-0.2,2.8h11c-0.2-0.9-0.3-1.9-0.4-2.8H20.7z"/><path class="st2" d="M20.4,47.8c-0.1,1.1-0.1,2.1-0.2,3.2H33c-0.4-1-0.7-2.1-1-3.2H20.4z"/><path class="st2" d="M20.1,53.1c-0.1,1.2-0.1,2.4-0.2,3.5h15.8c-0.7-1.1-1.3-2.3-1.8-3.5H20.1z"/><path class="st2" d="M36.8,58.3h-17c-0.1,1.3-0.2,2.6-0.2,3.9h20.2c-0.4-0.5-0.8-1-1.2-1.5C37.9,60,37.3,59.2,36.8,58.3z"/><path class="st2" d="M19.4,63.6c-0.1,1.6-0.2,3-0.3,4.2h27.1c-1.8-1.2-3.6-2.6-5.2-4.2C41,63.6,19.4,63.6,19.4,63.6z"/><path class="st2" d="M19.1,68.9c0,0.6-0.1,1.2-0.1,1.7c5.8,2,14.7,3.5,20.8,3.5c0.1,0,0.1,0,0.2,0c0.1,0,0.1,0,0.2,0 c4.6-0.1,10.4-0.9,15.4-2c-2.7-0.8-5.2-1.9-7.6-3.3H19.1V68.9z"/></g><g><path d="M51.3,41.7c3.2-0.1,5.9,1,8.2,2.7l0.1-1.4C55.7,41.4,53.1,41.5,51.3,41.7z"/><path d="M41.4,33c-0.4-0.1-0.8,0.1-1.3,0.1c0.2,0.4,0.3,0.8,0.8,0.9c0.5,0,0.7,0.3,0.9,0.7c0.3,0.5,1.1,0.8,1.6,0.4 c-0.1-0.3-0.2-0.5-0.3-0.8C42.8,33.6,42.2,33.2,41.4,33z"/><path d="M62.2,72.1L62,70.3c0,0-1.9-0.3-3.6-0.5c-1.3-0.1-5.4-0.8-9-2.6c-2-1.1-3.9-2.5-5.6-4.1c-1.8-1.7-3.7-4-4.4-6.6 c-2.3-8,3.1-11,8.5-11.2C53.8,45,57.1,48.2,59,52l1,2.4l0.1-2.9l-0.2-1.7l-0.8-0.9c-1.2-1.6-2.6-2.8-4.2-3.6 c-2.3-1.2-6.5-1.6-9-0.8c4.8-6.3,11.8-5.1,12.5-5.2c0.6-0.1,1.1-0.2,1.4-0.5l0.2-2.4l0.1-2v-0.2c-0.3-0.7-0.6-1.3-0.7-1.4 c-0.3-0.4-1.2-0.5-1.7-0.2c-1.1,0.8-6.6,1.2-8,1c-1.7-0.3-4.6-2.3-4.7-3.8c0,0-0.1,0-0.1,0.1c0.1-0.1,0.2-0.2,0.4-0.2 c1.8-0.4,3.7-0.7,5.5,0.2c1.3,0.6,2.7,0.8,4.1,0.6c2-0.3,3.7-1.2,4.5-3.3c0.1-0.2,0.1-0.4,0.2-0.7c-0.4,0.3-1.7,1.3-2.5,1.6 c-0.3,0.1-2.7,0.9-3.5,0.8c0,0-0.1,0-0.2-0.1c0.2-0.1,0.4-0.1,0.6-0.1c2-0.5,3.6-1.5,4.6-3.4c0.5-0.9,0.5-2,0.2-3 c-0.1-0.2-0.3-0.6-0.4-0.7c2.2-0.5,4.5-1.2,6.2-2.8c-1,0.2-1.9,0.5-2.9,0.7c-0.5,0.1-1.1,0.2-1.6,0.3c-1.1,0.2-2.2,0.4-3.4,0.4 c-1.1,0.1-2.2,0-3.3,0c-0.1,0-0.2,0.1-0.3,0.2c-1.4,1.8-2.9,3.4-4.7,4.7c-0.7,0.5-1.4,1.1-2.2,1.4c-1,0.4-2,0.6-3.1,0.2 c-0.7-0.3-1-1.1-0.8-1.9c0.8-3.7,4.1-5.7,4.2-5.8c-2.3,0.9-3.3,1.7-4.7,3.3c-0.7,0.8-1.3,1.4-1.8,2.4c-0.6,1.1-1,2.3-1.9,3.1 c-0.4,0.4-1.1,0.7-1.8,0.8c0-1.2,0.4-2.9,1.2-4.8c2-3.6,4.7-6.9,8-9.5c5.7-4.6,12.7-7.1,19.9-7.1l-4-1.6l-0.6-0.2 C54.7,6.2,49,8.7,44.1,12.6c-7.1,5.7-11.6,13.9-12.6,23c-1,9.1,1.6,18.1,7.4,25.2C44,67.2,51.2,71.5,59.1,73L62.2,72.1z M50.2,26.2 c-0.1,0.4-0.2,0.6-0.3,0.9c1.1,1,2.9,0.5,3.7-0.7c0.4-0.7,0.7-2-0.3-2.7l0,0c0,0,0,0,0,0.1c0,0.2-0.5,1.1-0.5,1.1 C52.4,25.2,52,25,52,25c-0.3-0.1,0-0.4,0-0.4l1-1.1c0.3-0.4,0.5-0.7,1.6-1.3c0.3-0.2,0.4-0.2,0.6-0.1c0.2,0.1,0.4,0.2,0.5,0.2 c1.7,0.7,1.9,1.6,0.8,3.1c-0.8,1-1.9,1.7-3,2.2c-1.2,0.5-2.5,0.8-3.8,0.6c-0.3,0-0.6-0.1-1.1-0.2C49.2,27.3,49.6,26.8,50.2,26.2z M36.9,54.2c-0.8-1.5-1.5-3.1-2-4.7c-1.7-5.5-2.7-12.2,0.3-17c1.1-1.8,2.7-1.9,3.5-2.8c0.6-0.6,1.2-1.2,1.8-1.8 c0.2-0.2,0.4-0.2,0.6,0c0.8,0.9,4.2,5.3,4.8,5.7c1.1,1.1,3.5,1.9,4.8,1.9c0.5,0,6.7-1.4,7.5-1.6c0.4-0.2,0.7,0,0.9,0.4 c0.3,0.6,0.6,1.9,0.4,2.6c-0.1,0.3-0.2,0.5-0.6,0.6c-1.4,0.2-4,0.5-7.4,1.5c-4.1,1.4-7.2,4.6-8,5.9c-1.5,0.4-2.6,0.9-3.8,2.1 c2-3.7,3.9-5.3,5.1-6.2c3.6-2.8,6.4-3.1,7.5-3.4c1.3-0.4,5.3-1,5.8-1.2c0-0.4-0.2-0.6-0.6-0.5c-1.1,0.2-2.3,0.4-3.4,0.6 c-0.7,0.1-4.6,1.2-5.9,1.7C39.3,41.9,36.6,47.4,36.9,54.2z"/></g><path class="st3" d="M40.2,75.6c6.9-0.1,16.7-1.8,22.4-4c-0.7-6.6-2.7-45.5-2.7-45.5s2.1,5.1,3.2,7.9c4.7-0.4,12.3-1.3,15.3-6.2 C75.5,21,73.3,13.2,71,8.1c0,0-10.4-3.8-18.6-6.4c0,0-0.9-0.3-1.3,0.4c-3,4.2-4.5,7.1-11.2,7.1l0,0c-6.4-0.1-8-2.9-10.9-7.1 c-0.5-0.7-1.4-0.4-1.4-0.4C19.5,4.2,9,8.1,9,8.1c-2.3,5.1-4.5,13-7.4,19.7c3,4.8,10.4,5.8,15.3,6.2c1.1-2.8,3.2-7.9,3.2-7.9 S18,65,17.4,71.6c5.8,2.2,15.5,4,22.4,4l0,0"/></svg> 