<?xml version="1.0" encoding="utf-8"?>
<!-- Generator: Adobe Illustrator 22.0.0, SVG Export Plug-In . SVG Version: 6.00 Build 0)  -->
<svg version="1.1"
	 id="Layer_1" inkscape:version="0.92.4 (5da689c313, 2019-01-14)" sodipodi:docname="flying_foxes_Karlsruhe_jersey.svg" xmlns:cc="http://creativecommons.org/ns#" xmlns:dc="http://purl.org/dc/elements/1.1/" xmlns:inkscape="http://www.inkscape.org/namespaces/inkscape" xmlns:rdf="http://www.w3.org/1999/02/22-rdf-syntax-ns#" xmlns:sodipodi="http://sodipodi.sourceforge.net/DTD/sodipodi-0.dtd" xmlns:svg="http://www.w3.org/2000/svg"
	 xmlns="http://www.w3.org/2000/svg" xmlns:xlink="http://www.w3.org/1999/xlink" x="0px" y="0px" viewBox="0 0 80 77.1"
	 style="enable-background:new 0 0 80 77.1;" xml:space="preserve">
<style type="text/css">
	.st0{fill:url(#path10768_1_);}
	.st1{fill:none;stroke:#000000;stroke-width:0.1188;}
	.st2{fill:#FF6600;stroke:#000000;stroke-width:0.1188;}
	.st3{fill:none;stroke:#D45500;stroke-width:0.1188;}
	.st4{fill:#D45500;stroke:#D45500;stroke-width:0.1188;}
	.st5{fill:#FF7F2A;stroke:#FF7F2A;stroke-width:0.1188;}
	.st6{fill:#FF7F2A;fill-opacity:0.9618;stroke:#000000;stroke-width:0.1188;}
	.st7{fill:#FF6A00;stroke:#FF6A00;stroke-width:0.1188;}
	.st8{fill:#F13E00;stroke:#030303;stroke-width:0.1188;}
	.st9{fill:#F13E00;stroke:#000000;stroke-width:0.1188;}
	.st10{stroke:#000000;stroke-width:0.1188;}
	.st11{fill:#FF5F00;stroke:#000000;stroke-width:0.1188;}
	.st12{fill:#FFA300;stroke:#000000;stroke-width:0.1188;}
	.st13{fill:#F87E2E;stroke:#000000;stroke-width:0.1188;}
	.st14{fill:#FF5F00;stroke:#FF5F00;stroke-width:0.1188;}
	.st15{fill:#F13E00;stroke:#F13E00;stroke-width:0.1188;}
	.st16{fill:#FE7E29;stroke:#000000;stroke-width:0.1188;}
	.st17{fill:#E53C21;stroke:#E53C21;stroke-width:0.1188;}
	.st18{fill:#F87E2E;stroke:#F87E2E;stroke-width:0.1188;}
	.st19{fill:#FF5F00;stroke:#F13E00;stroke-width:1.050019e-02;}
	.st20{fill:#E53C21;stroke:#F13E00;stroke-width:5.250100e-03;}
	.st21{fill:#F87E2E;stroke:#F87E2E;stroke-width:1.732668e-02;}
	.st22{fill:#F87E2E;stroke:#3D7FB7;stroke-width:1.531470e-03;}
	.st23{fill:#F87E2E;stroke:#3D7FB7;stroke-width:4.640400e-04;}
	.st24{fill:#FFA300;stroke:#FFA300;stroke-width:0.1188;}
	.st25{fill:none;stroke:#000000;stroke-width:3.0051;stroke-linecap:round;stroke-linejoin:round;}
</style>
<sodipodi:namedview  bordercolor="#666666" borderopacity="1" gridtolerance="10" guidetolerance="10" id="namedview7" inkscape:current-layer="Layer_1" inkscape:cx="4.0020936" inkscape:cy="51.16782" inkscape:pageopacity="0" inkscape:pageshadow="2" inkscape:window-height="1719" inkscape:window-maximized="1" inkscape:window-width="2736" inkscape:window-x="-13" inkscape:window-y="-13" inkscape:zoom="8" objecttolerance="10" pagecolor="#ffffff" showgrid="false">
	</sodipodi:namedview>
<linearGradient id="path10768_1_" gradientUnits="userSpaceOnUse" x1="1365.8701" y1="-1507.61" x2="1042.1482" y2="-1951.61" gradientTransform="matrix(0.1115 0 0 -0.1266 -89.386 -193.2232)">
	<stop  offset="0" style="stop-color:#3D7FB7"/>
	<stop  offset="1" style="stop-color:#3D7FB7;stop-opacity:0"/>
</linearGradient>
<path id="path10768" inkscape:connector-curvature="0" sodipodi:nodetypes="ccccccccccccccccccc" class="st0" d="M40.2,75.6
	c6.9-0.1,16.7-1.8,22.5-4C62,65,60,26,60,26s2.1,5.1,3.2,7.9c4.7-0.4,12.3-1.3,15.3-6.2c-2.9-6.8-5.1-14.6-7.4-19.7
	c0,0-10.4-3.8-18.6-6.4c0,0-0.9-0.3-1.3,0.4c-3.2,3.6-4.8,6.8-11.2,7.1l0,0C33.5,9,31.9,6.2,29,2c-0.5-0.7-1.4-0.4-1.4-0.4
	C19.5,4.1,8.9,8,8.9,8c-2.3,5.1-4.5,13-7.4,19.7c3,4.8,10.4,5.8,15.3,6.2c1.1-2.8,3.2-7.9,3.2-7.9S18,65,17.4,71.6
	c5.8,2.2,15.5,4,22.5,4l0,0"/>
<path id="path1185" inkscape:connector-curvature="0" class="st1" d="M33,67.1c0.7,4.1,0.7,4.1,0.7,4.1"/>
<path id="path1187" inkscape:connector-curvature="0" class="st2" d="M33.4,61C33,67.1,33,67.1,33,67.1l0,0"/>
<path id="path1189" inkscape:connector-curvature="0" class="st1" d="M42.2,51.7C33.4,61,33.4,61,33.4,61"/>
<path id="path1191" inkscape:connector-curvature="0" class="st1" d="M46.5,49.2l-4.2,2.5"/>
<path id="path1193" inkscape:connector-curvature="0" class="st1" d="M46.5,49.2L46.5,49.2l0.7-1.9l-0.3-0.7l0.9-3.7L47.2,42
	l-1.4,0.2l-1.4,1.2l0.4,1.1l2.5,0.2l0,0"/>
<path id="path1195" inkscape:connector-curvature="0" class="st1" d="M44.4,43.4l-2,1.1h2.5"/>
<path id="path1197" inkscape:connector-curvature="0" class="st1" d="M45.8,42.2l-5.3,0.8l1.9,1.5"/>
<path id="path1199" inkscape:connector-curvature="0" class="st1" d="M34,41.4l-5.4-2.6l-0.3,2.1l0.6,1.7L34,41.4z"/>
<path id="path1201" inkscape:connector-curvature="0" class="st1" d="M34,41.4l6.5,1.5"/>
<path id="path1203" inkscape:connector-curvature="0" class="st1" d="M28.9,42.6l-8.3-3.4l3.8,9.9l4.8,1.1l0.8-3L28.9,42.6"/>
<path id="path1205" inkscape:connector-curvature="0" class="st1" d="M42.4,44.5L36.2,50L30,47.3"/>
<path id="path1207" inkscape:connector-curvature="0" class="st1" d="M34.2,47.2l2.3-0.8l1.1-1.2l-1.4-0.4l-0.8,0.6L34.2,47.2z"/>
<path id="path1209" inkscape:connector-curvature="0" class="st1" d="M28.9,42.6l11.7,0.3"/>
<path id="path1211" inkscape:connector-curvature="0" class="st1" d="M24.4,49.2l0.7,4.4l4.1-3.3"/>
<path id="path1213" inkscape:connector-curvature="0" class="st1" d="M29.2,50.2l2.6,3.8l-6.7-0.5"/>
<path id="path1215" inkscape:connector-curvature="0" class="st1" d="M36.2,50l-4.4,4"/>
<path id="path1217" inkscape:connector-curvature="0" class="st1" d="M38.6,55.4l-6.9-1.3"/>
<path id="path1219" inkscape:connector-curvature="0" class="st1" d="M24.8,60.9l7-6.9"/>
<path id="path1221" inkscape:connector-curvature="0" class="st1" d="M25.1,53.5l-0.3,7.4l13.9-5.5"/>
<path id="path1223" inkscape:connector-curvature="0" class="st1" d="M24.8,60.9L19,67.3"/>
<path id="path1225" inkscape:connector-curvature="0" class="st1" d="M24.8,60.9l2.6,3.3h-5.7l-1.4,6.3l0.6,0.7"/>
<path id="path1227" inkscape:connector-curvature="0" class="st1" d="M33,67.1l-5.7-2.8"/>
<path id="path1233" inkscape:connector-curvature="0" class="st1" d="M41.3,61l-0.4,4.6"/>
<path id="path1235" inkscape:connector-curvature="0" class="st1" d="M40.8,65.6l-0.7-0.5L38.6,65l1.4,1.5L39.8,67l-0.3,0.3
	l-0.2,0.5l-0.3,0.4l-0.3,0.4l-0.5,0.5l-0.5,0.4L37.3,70l-0.4,0.5l0,0h-0.4L36,70.2l-0.8-0.6L35,69.9l1,1.6l-2.3-0.2"/>
<path id="path1237" inkscape:connector-curvature="0" class="st3" d="M60.8,68.6V69L60,69.2l-0.4-0.6l-0.1-1.2L58,68.7h-1l-0.2-0.2
	l1.5-0.5l0-0.2l-1.7,0.1l-0.1-0.2l0.1-0.7l0.7-0.3l-0.6-0.1l-0.1-1l-0.6,0.8l-0.6,0.2h-0.2L54.5,67l-1.1-0.7l-0.2,0l0.5,1.2l-0.4,0
	l-0.8,0.7l-0.5-0.8l1-2.2l-1.9,1.2l-0.4-0.2l0.1,0.5L50,67.6l-2.4-1.4l0.3-1.3l-0.7,0.6l-1.4-1.2l0.2,1.3l-2-1l-1.4-1.2l-0.3,0v0.1
	l0.8,1.1l-0.4,0.1l-1.2-1.4"/>
<path id="path1239" inkscape:connector-curvature="0" sodipodi:nodetypes="cccccc" class="st4" d="M40.8,65.6l1.6,1.7l1.2,2.4l0.7,4
	l-1.9-3.2L40,66.5L40.8,65.6z"/>
<path id="path1241" inkscape:connector-curvature="0" class="st5" d="M40.6,69.6l0.1,0.6l-2,1.5l-0.2-0.1l0-0.5L40.6,69.6z"/>
<path id="path1243" inkscape:connector-curvature="0" sodipodi:nodetypes="ccccc" class="st5" d="M43.3,68.8l1.7,0.7l1.3-1l0.4-1.4
	L43.3,68.8z"/>
<path id="path1245" inkscape:connector-curvature="0" sodipodi:nodetypes="ccccc" class="st5" d="M51.6,74.6l7.9-7.1v1.5L57,73.3
	C55.3,73.7,53.3,74.2,51.6,74.6z"/>
<path id="path1247" inkscape:connector-curvature="0" class="st4" d="M40.8,65.6l-0.7-0.5L38.6,65l1.4,1.5L40.8,65.6"/>
<path id="path1249" inkscape:connector-curvature="0" sodipodi:nodetypes="cccccccccccccccccccc" class="st6" d="M40.6,57.1l1.7-5.4
	L33.4,61L33,67.1l0.7,4.1l2.3,0.2l-1-1.6l0.3-0.2l0.8,0.6l0.5,0.2h0.4l2.4-2.6l0.2-0.5l0.3-0.3l0.2-0.6l0.5-0.2l0.2-0.3l0.1-0.3
	l0.4-4.6L40.6,57.1z"/>
<path id="path1251" inkscape:connector-curvature="0" class="st1" d="M41.4,63.3L41.4,63.3"/>
<path id="path1253" inkscape:connector-curvature="0" sodipodi:nodetypes="cccccccccccccccccccccccccccccccccccccccccccccccccccccccccccccccccccccccccccccccccccccc" class="st7" d="
	M58,68.7h-1l-0.2-0.2l1.5-0.5l0-0.2l-1.7,0.1l-0.1-0.2l0.1-0.7l0.7-0.3l-0.6-0.1l-0.1-1l-0.6,0.8l-0.8,0.2L54.5,67l-1.1-0.7l-0.2,0
	l0.5,1.2l-0.4,0l-0.8,0.7l-0.5-0.8l1-2.2l-1.9,1.2l-0.4-0.2l0.1,0.5l-3.3-0.5l0.3-1.3l-0.7,0.6l-1.4-1.2l0.2,1.3l-2-1l-1.4-1.2
	l-0.3,0l0.8,1.2l-0.4,0.1l-1.2-1.4l-0.5,2.3l1.6,1.7l0.8,1.5l3.5-1.8l-0.4,1.4l-1.3,1l-1.8-0.7l0.5,1l0.7,4l-4.2-7L40,66.5L39.8,67
	l-0.3,0.3l-2.7,3.1h-0.4L36,70.2l-0.8-0.6L35,69.9l-1.3,1.3L33,67.1l-5.7-2.8h-5.7l0.1,6.5l-3.5-0.6l2.3,2.1l2.5,0.4l1.4,0.3
	l1.5,0.3l1.2,0.4l1.5,0.2l1.1,0.2l0.7,0.2l1.1,0.2l1.2,0.2l1.1,0.1l1,0.3l1.1-0.1l1.2,0.2l1.3,0.1l1.7,0.3l2.2-0.6h1.1l1.2-0.2
	l0.8,0.2l1.3-0.4l1.2,0l1.1,0l1.5-0.5l1-0.3l0.2,0.7L58,68.7z"/>
<path id="path1255" inkscape:connector-curvature="0" class="st8" d="M33,67.1l-5.7-2.8l-2.6-3.3l13.9-5.5L33.4,61L33,67.1"/>
<path id="path1257" inkscape:connector-curvature="0" sodipodi:nodetypes="cccc" class="st9" d="M24.8,60.9l-3.2,3.6l5.7-0.3
	L24.8,60.9z"/>
<path id="path1259" inkscape:connector-curvature="0" sodipodi:nodetypes="cccccc" class="st9" d="M21.7,64.5l-1.6,6.1l0.3,0.3
	l-1.6-0.4l0.1-2.7L21.7,64.5z"/>
<path id="path1261" inkscape:connector-curvature="0" class="st9" d="M24.8,60.9l7-6.9l-6.7-0.5L24.8,60.9l7-6.9"/>
<path id="path1263" inkscape:connector-curvature="0" class="st9" d="M31.8,54.1l-2.6-3.8l-4.1,3.3L31.8,54.1z"/>
<path id="path1265" inkscape:connector-curvature="0" class="st9" d="M29.2,50.2l-4.8-1.1l0.7,4.4L29.2,50.2z"/>
<path id="path1267" inkscape:connector-curvature="0" class="st9" d="M29.2,50.2l0.8-3l-1.2-4.6l5.2-1.2l-5.4-2.6l-0.3,2.1l0.6,1.7
	l-8.1-3.3l3.6,9.8L29.2,50.2"/>
<path id="path1269" inkscape:connector-curvature="0" class="st10" d="M44.9,44.5l2.5,0.2l0.4-1.8L47.2,42l-1.4,0.2l-1.4,1.2
	L44.9,44.5z"/>
<path id="path1271" inkscape:connector-curvature="0" class="st11" d="M28.9,42.6l1.2,4.6l6.2,2.8l-4.4,4l-2.6-3.8l0.8-3l6.2,2.8
	l6.2-5.6l2-1.1l0.4,1.1h-2.5l-1.9-1.5L28.9,42.6z"/>
<path id="path1273" inkscape:connector-curvature="0" class="st10" d="M37.6,45.1l-1.1,1.2l-2.3,0.8l1.3-1.9l0.8-0.6L37.6,45.1z"/>
<path id="path1275" inkscape:connector-curvature="0" class="st10" d="M47.2,47.3l-2.8,1.9l-1.7,0.4l-3.3,1.5l-0.2-0.1l3.2-2.1
	l1.9-0.4l1.6-1.8l1-0.1L47.2,47.3"/>
<path id="path1277" inkscape:connector-curvature="0" class="st12" d="M42.4,44.5h2.5l2.5,0.2l-0.5,1.9l-1,0.1l-1.6,1.8l-1.9,0.4
	l-3.2,2.1l0.2,0.1l3.3-1.5l1.7-0.4l2.8-1.9c0,0-0.5,1.4-0.7,1.9c-0.2,0.5-4.2,2.5-4.2,2.5l-3.6,3.7l-6.9-1.3L42.4,44.5z"/>
<path id="path1279" inkscape:connector-curvature="0" class="st13" d="M24.8,60.9l7-6.9l6.9,1.3L24.8,60.9z"/>
<path id="path1281" inkscape:connector-curvature="0" sodipodi:nodetypes="ccccc" class="st14" d="M39.9,66.4l-1.4-1.5l1.5,0.2
	l0.7,0.5L39.9,66.4"/>
<path id="path1283" inkscape:connector-curvature="0" class="st1" d="M33,67.1l0.7,4.1"/>
<path id="path1285" inkscape:connector-curvature="0" sodipodi:nodetypes="ccccccccccccccccccscccccccccscccccccccccccccccccccccccccccccccccccccccccccccccccccccccccccccccccccc" class="st7" d="
	M19,67.8l5.8-6.8l0.3-7.4l-0.7-4.4l-3.6-9.8l8.1,3.3l-0.6-1.7l0.3-2.1L31,40l1.2-2.2L31.4,38l-0.1-0.2l1.7-1l-1.5-0.2l0.6-2
	l-0.3,0.2L31,36.6l-0.3,0.5c0,0-1.4,0.6-1.3,0.6h0.1l-0.3,0.8L29,37.9l-0.8,0.3l0.8-0.7l0.4-0.7l1.1,0.1l-0.7-0.9L30,36
	c0,0,1-0.3,1-0.3v-0.1l0-0.2l-0.8-0.2l0-1.4l-0.8,1.1l-0.5,0l-1-1.2l1.4,0l-1.4-1.3L29,33l1.4,0l-2.2-2.1v-1.2l-0.4-1.1l-0.1-0.3
	l0.8-1.6l-0.3-0.2L27,28.2l-0.7-2.5l0.2-0.4l1.2,0.9l1.7,0.2L26.2,23l0.2-0.4l-0.7-0.8l0-0.8l2,0.2l-2.5-2.4l0.5-2.3L24.7,17
	l-0.6-0.4l0.9-1.9l2.7,1.5l-0.4-1.3l-1.6-1.4L27,11l-0.9-1.7l2.2,0.2L28.6,9l-2.5-1.1l-0.2-1l1.4-2.4l-0.7-0.2l-1,1.1l-1.8-2.4
	L9.9,9.2L3.2,27.5L4,28.3l0.6,0.6c0,0,1,0.6,1,0.6c0,0,1.7,0.8,1.7,0.8l1.4,0.5l1.3,0.3l1.2,0.3l1.2,0.2l1.1,0.2l1.3,0.2l1.3,0.1
	l3-6.1l0.5-0.1l0.5-0.8l0,0l0.6,0.4l0.2,0.2l-0.2-0.2l0.2,0.2l0,0l0.7,0.3L21.5,27L19,67.8z"/>
<path id="path1287" inkscape:connector-curvature="0" sodipodi:nodetypes="ccccccccccccccccccc" class="st15" d="M33.3,68.9
	l-3.1,3.6l-1,0.2l-1.7-0.2l0.7-1l-0.6,0l2-2l-0.1-0.1l-3.3,1.4l-2-2.3l-0.1,0.3l0.1,1l-1.8,1l-1.8,0l-0.3-0.3l1.7-6.1l5.5-0.3
	l5.7,2.8L33.3,68.9z"/>
<path id="path1289" inkscape:connector-curvature="0" sodipodi:nodetypes="ccccccc" class="st1" d="M33.3,68.9L33,67.1l-5.7-2.8
	l-5.6,0.2l-1.6,6.1l0.3,0.3c0,0,0,0-1.6-0.4"/>
<path id="path1291" inkscape:connector-curvature="0" class="st16" d="M28.9,42.6l5.2-1.2l6.5,1.5l5.3-0.8l-1.4,1.2l-2,1.1l-1.9-1.5
	L28.9,42.6z"/>
<path id="path1293" inkscape:connector-curvature="0" class="st14" d="M52.9,5l-1,1.1L51.4,7l-0.5,1.2v0.9l-0.3,0.8l-0.5,0.9
	l-0.3,1.7l-0.2,0.1L49.6,11l-0.1-0.7l-0.1-0.7l0.3-1l0.2-0.8l0.4-0.5l0.4-0.8l0.5-0.8l1.1-0.9L52.9,5z"/>
<path id="path1295" inkscape:connector-curvature="0" class="st14" d="M54.6,9.5l1.2-0.3l0.6-0.8l1-0.5l0.6-0.2l0.8-0.5l0.8-0.7
	l0.6-0.7v0.8l-0.7,1.1l-0.8,1l-1.4,0.8L57,9.6l-1.1-0.1l-1.2,0.2L54.6,9.5z"/>
<path id="path1297" inkscape:connector-curvature="0" class="st14" d="M50.7,31.7l0-0.4l0.4-1.3l0.2-0.4l-0.1-1.1l0.8-1.6l0.8-1
	l1-0.9l0.8-0.8l1.2-0.2l0.1,0.3l-1.1,1.2l-1.4,2v0.5l-0.5,0.7l-1,1.5l-0.4,0.3l-0.2,1.4l-0.2,0.3L50.7,31.7z"/>
<path id="path1299" inkscape:connector-curvature="0" class="st14" d="M36.5,35.3l1.7-0.8l0.8-1.1l2.1-1.9l0.6,0v-0.5
	c0,0,0.8-0.7,0.9-0.7c0.1,0,0.9-1.2,0.9-1.2l0.6-0.6l0.3-0.8l0.3,0l0.1,0.9l-0.2,1L43.9,31l-1,1.3l-0.8,1l-1,0.9l-0.9,0.5l-1.6,0.1
	l-0.4,0l-1.6,0.8l-0.2-0.1L36.5,35.3z"/>
<path id="path1301" inkscape:connector-curvature="0" class="st14" d="M52.9,62.4l-1.2-1.7l-1.8-1.3l-1-1.6l-0.5-2l0.2-0.1l-0.3-0.4
	l-0.1-2.4l0.8-2l0.5,2.5l0.8,2.2l0,0.6l0.2,0l1.2,2.3l0.3,1.6l1.1,1.8v0.2L52.9,62.4z"/>
<path id="path1303" inkscape:connector-curvature="0" sodipodi:nodetypes="cccccccccc" class="st17" d="M59.5,68.9l0.1-0.3l0.4,0.6
	l0.8-0.2v-0.4l0,0l1.9,3C61.7,72,58,73,57,73.3L59.5,68.9L59.5,68.9"/>
<path id="path1405" inkscape:connector-curvature="0" sodipodi:nodetypes="cccccccccc" class="st1" d="M31.1,40l-2.5-1.2l-0.3,2.1
	l0.6,1.7l-8.1-3.3l3.6,9.8l0.7,4.4l-0.3,7.4l-3,3.6L19,67.8"/>
<path id="path1407" inkscape:connector-curvature="0" sodipodi:nodetypes="cccccccccccccccccccccccccccccc" class="st7" d="
	M19.1,23.1l0.4-1.1l0.3-0.9l0.3-0.9l0.2-1.3l0-1.1l-0.1-1.4v-1.2l-0.1-1.1L20,12.9l-0.1-1.3L19.4,10l-0.3-1.1l-0.3-1.2l-0.3-1
	l-0.4-1.2l-0.1-0.5L9,8L0.7,26.5l1.8,2.2l1.8,1.1L6.7,31l2.5,0.8l2.4,0.4l1.6,0.2l2.8,0.3l2.1-8.9l0.2-0.2l0.3-0.2L19.1,23.1z"/>
<path id="path1409" inkscape:connector-curvature="0" class="st18" d="M25.8,13.4l1.5,1.5l0.4,1.3L25,14.7l-1.9-0.9l-0.4-0.5
	l-0.9-0.7l0.1-1.1L25.8,13.4"/>
<path id="path1411" inkscape:connector-curvature="0" class="st15" d="M26.6,4.2l0.7,0.2L26,6.8l-1.3,2.3l-0.2,0.4L24,9.7l-0.7-0.3
	l0.5-1.4l0.4-0.7l1.4-2L26.6,4.2z"/>
<path id="path1413" inkscape:connector-curvature="0" class="st19" d="M26.1,19.7c-0.5-0.5-0.9-0.9-0.9-0.9c0,0,0.4-1.8,0.4-1.8
	c0,0,0,0.1-0.1,0.7c-0.1,0.7-0.2,1-0.2,1.2v0.1l0.1,0.1c0.2,0.2,0.8,0.8,1.5,1.4c0.1,0.1,0.2,0.2,0.2,0.2c0,0,0,0,0,0
	C27.1,20.6,26.7,20.2,26.1,19.7L26.1,19.7z"/>
<path id="path1415" inkscape:connector-curvature="0" class="st14" d="M27.6,21.2l-2-0.2l-1.2-0.7l-1.5-1l-0.4-0.6L22,18.2l-0.9-0.3
	l0,0l0-0.7l1.1,0.4l0.6-0.1l2.4,1.3L27.6,21.2z"/>
<path id="path1417" inkscape:connector-curvature="0" class="st14" d="M28.2,9.5L28.6,9l-2.5-1.1l-0.6-0.1l-0.4,0.9l1,0.6L28.2,9.5z
	"/>
<path id="path1419" inkscape:connector-curvature="0" class="st15" d="M30.6,33.1L29,33l-1.2-0.7l-2.5-1.9l-0.4-0.8l-0.6-0.5v-0.6
	l0.8,0.4l0.6,0.1l0.9,0.5l1.8,1.2L30.6,33.1L30.6,33.1L30.6,33.1L30.6,33.1z"/>
<path id="path1431" inkscape:connector-curvature="0" class="st20" d="M61,69.6c-0.1-0.4-0.1-0.8-0.1-0.8c0,0,0,0.2,0.1,0.4
	C61,69.4,61,69.5,61,69.6c0-0.1,0-0.7-0.1-2.1c0-0.3-0.1-0.8-0.1-1.1c0-0.3,0-0.5,0-0.5c0,0,0,0,0,0c0,0,0,0,0,0.1
	c0,0.3,0.1,1.7,0.2,2.4c0.1,0.8,0.1,2,0.2,2c0,0,0,0,0,0C61.1,70.4,61.1,70,61,69.6L61,69.6z"/>
<path id="path1478" inkscape:connector-curvature="0" class="st21" d="M33.7,71c0,0-0.1-0.9-0.3-2l-0.3-2l0.2-3l0.2-3l0.2-0.2
	c1.8-1.9,5.1-5.4,5.1-5.4c0,0,0,0,0,0c0,0,0.6-0.7,1.6-1.7c0.9-0.9,1.6-1.7,1.6-1.7c0,0-0.4,1.2-0.8,2.6c-0.7,2.2-0.8,2.6-0.8,2.6
	c0,0,0.2,0.9,0.4,2l0.3,1.9L41,63.2c-0.1,1.2-0.2,2.2-0.2,2.2c0,0.1,0,0.1-0.3-0.2l-0.3-0.2L39.3,65c-0.5-0.1-0.9-0.1-0.9-0.1
	c0,0,0.3,0.3,0.7,0.8c0.4,0.4,0.7,0.8,0.7,0.8c0,0,0,0.1-0.1,0.3L39.8,67l-0.2,0.3c-0.1,0.1-0.5,0.6-0.8,1c-0.3,0.4-0.9,1.1-1.2,1.5
	l-0.6,0.7h-0.2h-0.2l-0.2-0.1c-0.2-0.1-0.3-0.2-0.6-0.4c-0.2-0.2-0.4-0.3-0.4-0.3c0,0-0.3,0.2-0.4,0.3C34.8,69.9,33.8,71,33.7,71
	C33.7,71,33.7,71,33.7,71L33.7,71z"/>
<path id="path1480" inkscape:connector-curvature="0" class="st22" d="M33.5,61.4c0,0,0-0.4,0-0.4l0,0l0.1-0.1
	c0.7-0.7,1.4-1.5,2.3-2.4c0.2-0.2,0.6-0.6,0.6-0.7l0,0h0.6h0.6v1.8v1.8h-2.1C34.4,61.4,33.5,61.4,33.5,61.4L33.5,61.4z"/>
<path id="path1482" inkscape:connector-curvature="0" class="st22" d="M33.5,61.4c0,0,0-0.3,0-0.3l0-0.1l0,0c0,0,0.5-0.5,0.8-0.8
	c0.6-0.6,1.2-1.3,2-2.1l0.3-0.3l0.6,0l0.6,0v1.8v1.8h-2.1C34.4,61.4,33.5,61.4,33.5,61.4L33.5,61.4z"/>
<path id="path1505" inkscape:connector-curvature="0" class="st23" d="M38.2,56.1L38.2,56.1L38.2,56.1c0.4-0.4,0.5-0.6,0.6-0.6
	c0,0,0,0,0,0c0,0,0,0,0,0c0,0,0,0,0,0c0,0,0,0,0,0l0,0l0,0c0,0,0,0,0,0c0,0,0.1-0.1,0.2-0.2c0,0,0,0,0,0c0,0,0,0,0,0c0,0,0,0,0,0
	l0,0l0,0c0,0,0,0,0,0l0,0l0,0c0,0,0,0,0,0c-0.1,0.1-0.2,0.2-0.2,0.3c0,0,0,0,0,0c0,0,0,0,0,0c0,0,0,0,0,0c0,0,0,0,0,0
	c0,0,0,0-0.1,0.1C38.6,55.6,38.4,55.9,38.2,56.1L38.2,56.1L38.2,56.1z M38.2,56.1C38.2,56.1,38.2,56.1,38.2,56.1
	C38.2,56.1,38.2,56.1,38.2,56.1C38.2,56.1,38.2,56.1,38.2,56.1L38.2,56.1z M38.2,56C38.2,56,38.2,56,38.2,56
	C38.2,56,38.2,56,38.2,56C38.2,56,38.2,56,38.2,56L38.2,56z M38.2,56C38.2,56,38.2,56,38.2,56C38.2,56,38.2,56,38.2,56
	C38.2,56,38.2,56,38.2,56C38.2,56,38.2,56,38.2,56z M38.2,56C38.2,56,38.2,56,38.2,56C38.2,56,38.2,56,38.2,56
	C38.2,56,38.2,56,38.2,56C38.2,56,38.2,56,38.2,56z M38.2,56C38.2,56,38.2,56,38.2,56C38.2,56,38.2,56,38.2,56
	C38.2,56,38.2,56,38.2,56C38.2,56,38.2,56,38.2,56z M38.3,56C38.3,56,38.3,56,38.3,56C38.3,56,38.3,56,38.3,56
	C38.3,56,38.3,56,38.3,56L38.3,56z M38.3,56C38.3,56,38.3,56,38.3,56C38.3,56,38.3,56,38.3,56C38.3,56,38.3,56,38.3,56L38.3,56z
	 M38.3,56C38.3,56,38.3,56,38.3,56C38.3,56,38.3,56,38.3,56C38.3,56,38.3,56,38.3,56L38.3,56z M38.3,56C38.3,56,38.3,56,38.3,56
	C38.3,56,38.3,56,38.3,56C38.3,56,38.3,56,38.3,56C38.3,56,38.3,56,38.3,56z M38.3,56C38.3,56,38.3,56,38.3,56
	C38.3,56,38.3,56,38.3,56C38.3,56,38.3,56,38.3,56C38.3,56,38.3,56,38.3,56z M38.3,56L38.3,56L38.3,56C38.3,56,38.3,56,38.3,56
	C38.3,56,38.3,56,38.3,56L38.3,56z M38.3,55.9L38.3,55.9L38.3,55.9C38.3,55.9,38.3,55.9,38.3,55.9C38.3,55.9,38.3,55.9,38.3,55.9
	L38.3,55.9z M38.3,55.9C38.3,55.9,38.3,55.9,38.3,55.9C38.3,55.9,38.3,55.9,38.3,55.9C38.3,55.9,38.3,55.9,38.3,55.9
	C38.3,55.9,38.3,55.9,38.3,55.9z M38.3,55.9L38.3,55.9L38.3,55.9C38.3,55.9,38.3,55.9,38.3,55.9C38.3,55.9,38.3,55.9,38.3,55.9
	L38.3,55.9z M38.3,55.9C38.3,55.9,38.3,55.9,38.3,55.9C38.3,55.9,38.3,55.9,38.3,55.9C38.3,55.9,38.3,55.9,38.3,55.9
	C38.3,55.9,38.3,55.9,38.3,55.9z M38.3,55.9C38.3,55.9,38.3,55.9,38.3,55.9C38.3,55.9,38.3,55.9,38.3,55.9
	C38.3,55.9,38.3,55.9,38.3,55.9C38.3,55.9,38.3,55.9,38.3,55.9z M38.3,55.9C38.3,55.9,38.3,55.9,38.3,55.9
	C38.3,55.9,38.3,55.9,38.3,55.9C38.3,55.9,38.3,55.9,38.3,55.9C38.3,55.9,38.3,55.9,38.3,55.9z M38.3,55.9
	C38.3,55.9,38.3,55.9,38.3,55.9C38.3,55.9,38.3,55.9,38.3,55.9C38.3,55.9,38.3,55.9,38.3,55.9C38.3,55.9,38.3,55.9,38.3,55.9z
	 M38.3,55.9C38.3,55.9,38.3,55.9,38.3,55.9C38.3,55.9,38.3,55.9,38.3,55.9C38.3,55.9,38.3,55.9,38.3,55.9
	C38.3,55.9,38.3,55.9,38.3,55.9z M38.3,55.9C38.3,55.9,38.3,55.9,38.3,55.9C38.3,55.9,38.3,55.9,38.3,55.9
	C38.3,55.9,38.3,55.9,38.3,55.9C38.3,55.9,38.3,55.9,38.3,55.9z M38.4,55.9C38.4,55.9,38.4,55.9,38.4,55.9
	C38.4,55.9,38.4,55.9,38.4,55.9C38.4,55.9,38.4,55.9,38.4,55.9C38.4,55.9,38.4,55.9,38.4,55.9z M38.4,55.9L38.4,55.9L38.4,55.9
	C38.4,55.9,38.4,55.9,38.4,55.9C38.4,55.9,38.4,55.9,38.4,55.9L38.4,55.9z M38.4,55.9C38.4,55.9,38.4,55.9,38.4,55.9
	C38.4,55.9,38.4,55.9,38.4,55.9C38.4,55.9,38.4,55.9,38.4,55.9C38.4,55.9,38.4,55.9,38.4,55.9z M38.4,55.9L38.4,55.9L38.4,55.9
	C38.4,55.9,38.4,55.9,38.4,55.9C38.4,55.9,38.4,55.9,38.4,55.9L38.4,55.9z M38.4,55.9L38.4,55.9L38.4,55.9
	C38.4,55.9,38.4,55.9,38.4,55.9C38.4,55.9,38.4,55.9,38.4,55.9L38.4,55.9z M38.4,55.9C38.4,55.9,38.4,55.9,38.4,55.9
	C38.4,55.9,38.4,55.9,38.4,55.9C38.4,55.9,38.4,55.9,38.4,55.9C38.4,55.9,38.4,55.9,38.4,55.9z M38.4,55.9
	C38.4,55.9,38.4,55.9,38.4,55.9C38.4,55.9,38.4,55.9,38.4,55.9C38.4,55.9,38.4,55.9,38.4,55.9C38.4,55.9,38.4,55.9,38.4,55.9z
	 M38.4,55.9C38.4,55.9,38.4,55.9,38.4,55.9C38.4,55.9,38.4,55.9,38.4,55.9C38.4,55.9,38.4,55.9,38.4,55.9
	C38.4,55.9,38.4,55.9,38.4,55.9z M38.4,55.8C38.4,55.8,38.4,55.8,38.4,55.8C38.4,55.8,38.4,55.8,38.4,55.8
	C38.4,55.8,38.4,55.8,38.4,55.8C38.4,55.8,38.4,55.8,38.4,55.8z M38.4,55.8C38.4,55.8,38.4,55.8,38.4,55.8
	C38.4,55.8,38.4,55.8,38.4,55.8C38.4,55.8,38.4,55.8,38.4,55.8C38.4,55.8,38.4,55.8,38.4,55.8z M38.4,55.8
	C38.4,55.8,38.4,55.8,38.4,55.8C38.4,55.8,38.4,55.8,38.4,55.8C38.4,55.8,38.4,55.8,38.4,55.8C38.4,55.8,38.4,55.8,38.4,55.8z
	 M38.4,55.8C38.4,55.8,38.4,55.8,38.4,55.8C38.4,55.8,38.4,55.8,38.4,55.8C38.4,55.8,38.4,55.8,38.4,55.8
	C38.4,55.8,38.4,55.8,38.4,55.8z M38.4,55.8C38.4,55.8,38.4,55.8,38.4,55.8C38.4,55.8,38.4,55.8,38.4,55.8
	C38.4,55.8,38.4,55.8,38.4,55.8C38.4,55.8,38.4,55.8,38.4,55.8z M38.4,55.8C38.4,55.8,38.4,55.8,38.4,55.8
	C38.4,55.8,38.4,55.8,38.4,55.8C38.4,55.8,38.4,55.8,38.4,55.8C38.4,55.8,38.4,55.8,38.4,55.8z M38.4,55.8
	C38.4,55.8,38.4,55.8,38.4,55.8C38.4,55.8,38.4,55.8,38.4,55.8C38.4,55.8,38.4,55.8,38.4,55.8C38.4,55.8,38.4,55.8,38.4,55.8z
	 M38.4,55.8C38.4,55.8,38.4,55.8,38.4,55.8C38.4,55.8,38.4,55.8,38.4,55.8C38.4,55.8,38.4,55.8,38.4,55.8
	C38.4,55.8,38.4,55.8,38.4,55.8z M38.4,55.8C38.4,55.8,38.4,55.8,38.4,55.8C38.4,55.8,38.4,55.8,38.4,55.8
	C38.4,55.8,38.4,55.8,38.4,55.8C38.4,55.8,38.4,55.8,38.4,55.8z M38.4,55.8C38.4,55.8,38.4,55.8,38.4,55.8
	C38.4,55.8,38.4,55.8,38.4,55.8C38.4,55.8,38.4,55.8,38.4,55.8C38.4,55.8,38.4,55.8,38.4,55.8z M38.4,55.8
	C38.4,55.8,38.4,55.8,38.4,55.8C38.4,55.8,38.4,55.8,38.4,55.8C38.4,55.8,38.4,55.8,38.4,55.8C38.4,55.8,38.4,55.8,38.4,55.8z
	 M38.4,55.8C38.5,55.8,38.5,55.8,38.4,55.8C38.5,55.8,38.4,55.8,38.4,55.8C38.4,55.8,38.4,55.8,38.4,55.8
	C38.4,55.8,38.4,55.8,38.4,55.8z M38.5,55.8C38.5,55.8,38.5,55.8,38.5,55.8C38.5,55.8,38.5,55.8,38.5,55.8
	C38.5,55.8,38.5,55.8,38.5,55.8C38.5,55.8,38.5,55.8,38.5,55.8z M38.5,55.8L38.5,55.8L38.5,55.8C38.5,55.8,38.5,55.8,38.5,55.8
	C38.5,55.8,38.5,55.8,38.5,55.8L38.5,55.8z M38.5,55.8L38.5,55.8L38.5,55.8C38.5,55.8,38.5,55.8,38.5,55.8
	C38.5,55.8,38.5,55.8,38.5,55.8L38.5,55.8z M38.5,55.8C38.5,55.8,38.5,55.8,38.5,55.8C38.5,55.8,38.5,55.8,38.5,55.8
	C38.5,55.8,38.5,55.8,38.5,55.8C38.5,55.8,38.5,55.8,38.5,55.8z M38.5,55.8C38.5,55.8,38.5,55.8,38.5,55.8
	C38.5,55.8,38.5,55.8,38.5,55.8C38.5,55.8,38.5,55.8,38.5,55.8C38.5,55.8,38.5,55.8,38.5,55.8z M38.5,55.7
	C38.5,55.7,38.5,55.7,38.5,55.7C38.5,55.7,38.5,55.7,38.5,55.7C38.5,55.7,38.5,55.8,38.5,55.7C38.5,55.8,38.5,55.7,38.5,55.7z
	 M38.5,55.7C38.5,55.7,38.5,55.7,38.5,55.7C38.5,55.7,38.5,55.7,38.5,55.7C38.5,55.7,38.5,55.7,38.5,55.7
	C38.5,55.7,38.5,55.7,38.5,55.7z M38.5,55.7C38.5,55.7,38.5,55.7,38.5,55.7C38.5,55.7,38.5,55.7,38.5,55.7
	C38.5,55.7,38.5,55.7,38.5,55.7C38.5,55.7,38.5,55.7,38.5,55.7z M38.5,55.7C38.5,55.7,38.5,55.7,38.5,55.7
	C38.5,55.7,38.5,55.7,38.5,55.7C38.5,55.7,38.5,55.7,38.5,55.7C38.5,55.7,38.5,55.7,38.5,55.7z M38.5,55.7
	C38.5,55.7,38.5,55.7,38.5,55.7C38.5,55.7,38.5,55.7,38.5,55.7C38.5,55.7,38.5,55.7,38.5,55.7C38.5,55.7,38.5,55.7,38.5,55.7z
	 M38.5,55.7C38.5,55.7,38.5,55.7,38.5,55.7C38.5,55.7,38.5,55.7,38.5,55.7C38.5,55.7,38.5,55.7,38.5,55.7
	C38.5,55.7,38.5,55.7,38.5,55.7z M38.5,55.7C38.5,55.7,38.5,55.7,38.5,55.7L38.5,55.7L38.5,55.7C38.5,55.7,38.5,55.7,38.5,55.7z
	 M38.5,55.7C38.5,55.7,38.5,55.7,38.5,55.7L38.5,55.7L38.5,55.7C38.5,55.7,38.5,55.7,38.5,55.7z M38.5,55.7
	C38.5,55.7,38.5,55.7,38.5,55.7C38.5,55.7,38.5,55.7,38.5,55.7C38.5,55.7,38.5,55.7,38.5,55.7C38.5,55.7,38.5,55.7,38.5,55.7z
	 M38.5,55.7C38.5,55.7,38.5,55.7,38.5,55.7L38.5,55.7L38.5,55.7C38.5,55.7,38.5,55.7,38.5,55.7z M38.5,55.7
	C38.5,55.7,38.5,55.7,38.5,55.7C38.5,55.7,38.5,55.7,38.5,55.7C38.5,55.7,38.5,55.7,38.5,55.7C38.5,55.7,38.5,55.7,38.5,55.7z
	 M38.5,55.7C38.5,55.7,38.5,55.7,38.5,55.7C38.5,55.7,38.5,55.7,38.5,55.7C38.5,55.7,38.5,55.7,38.5,55.7
	C38.5,55.7,38.5,55.7,38.5,55.7z M38.5,55.7L38.5,55.7L38.5,55.7C38.5,55.7,38.5,55.7,38.5,55.7C38.5,55.7,38.5,55.7,38.5,55.7
	L38.5,55.7z M38.5,55.7L38.5,55.7L38.5,55.7C38.5,55.7,38.5,55.7,38.5,55.7C38.5,55.7,38.5,55.7,38.5,55.7L38.5,55.7z M38.5,55.7
	C38.5,55.7,38.5,55.7,38.5,55.7C38.5,55.7,38.5,55.7,38.5,55.7C38.5,55.7,38.5,55.7,38.5,55.7C38.5,55.7,38.5,55.7,38.5,55.7z
	 M38.6,55.7C38.6,55.7,38.6,55.7,38.6,55.7C38.6,55.7,38.6,55.7,38.6,55.7C38.6,55.7,38.6,55.7,38.6,55.7
	C38.6,55.7,38.6,55.7,38.6,55.7z M38.6,55.7C38.6,55.7,38.6,55.7,38.6,55.7C38.6,55.7,38.6,55.7,38.6,55.7
	C38.6,55.7,38.6,55.7,38.6,55.7C38.6,55.7,38.6,55.7,38.6,55.7z M38.6,55.7L38.6,55.7L38.6,55.7C38.6,55.7,38.6,55.7,38.6,55.7
	C38.6,55.7,38.6,55.7,38.6,55.7L38.6,55.7z M38.6,55.7C38.6,55.7,38.6,55.7,38.6,55.7C38.6,55.7,38.6,55.7,38.6,55.7
	C38.6,55.7,38.6,55.7,38.6,55.7C38.6,55.7,38.6,55.7,38.6,55.7z M38.6,55.6C38.6,55.6,38.6,55.6,38.6,55.6
	C38.6,55.6,38.6,55.6,38.6,55.6C38.6,55.6,38.6,55.6,38.6,55.6C38.6,55.6,38.6,55.6,38.6,55.6z M38.6,55.6
	C38.6,55.6,38.6,55.6,38.6,55.6C38.6,55.6,38.6,55.6,38.6,55.6C38.6,55.6,38.6,55.6,38.6,55.6C38.6,55.6,38.6,55.6,38.6,55.6z
	 M38.6,55.6C38.6,55.6,38.6,55.6,38.6,55.6C38.6,55.6,38.6,55.6,38.6,55.6C38.6,55.6,38.6,55.6,38.6,55.6
	C38.6,55.6,38.6,55.6,38.6,55.6z M38.6,55.6C38.6,55.6,38.6,55.6,38.6,55.6C38.6,55.6,38.6,55.6,38.6,55.6
	C38.6,55.6,38.6,55.6,38.6,55.6C38.6,55.6,38.6,55.6,38.6,55.6z M38.6,55.6C38.6,55.6,38.6,55.6,38.6,55.6
	C38.6,55.6,38.6,55.6,38.6,55.6C38.6,55.6,38.6,55.6,38.6,55.6C38.6,55.6,38.6,55.6,38.6,55.6z M38.6,55.6
	C38.6,55.6,38.6,55.6,38.6,55.6C38.6,55.6,38.6,55.6,38.6,55.6C38.6,55.6,38.6,55.6,38.6,55.6C38.6,55.6,38.6,55.6,38.6,55.6z
	 M38.6,55.6C38.6,55.6,38.6,55.6,38.6,55.6C38.6,55.6,38.6,55.6,38.6,55.6C38.6,55.6,38.6,55.6,38.6,55.6
	C38.6,55.6,38.6,55.6,38.6,55.6z M38.6,55.6L38.6,55.6L38.6,55.6C38.6,55.6,38.6,55.6,38.6,55.6C38.6,55.6,38.6,55.6,38.6,55.6
	L38.6,55.6z M38.6,55.6L38.6,55.6L38.6,55.6C38.6,55.6,38.6,55.6,38.6,55.6C38.6,55.6,38.6,55.6,38.6,55.6L38.6,55.6z M38.6,55.6
	C38.6,55.6,38.6,55.6,38.6,55.6C38.6,55.6,38.6,55.6,38.6,55.6C38.6,55.6,38.6,55.6,38.6,55.6C38.6,55.6,38.6,55.6,38.6,55.6z
	 M38.6,55.6C38.6,55.6,38.6,55.6,38.6,55.6C38.6,55.6,38.6,55.6,38.6,55.6C38.6,55.6,38.6,55.6,38.6,55.6
	C38.6,55.6,38.6,55.6,38.6,55.6z M38.6,55.6C38.6,55.6,38.6,55.6,38.6,55.6C38.6,55.6,38.6,55.6,38.6,55.6
	C38.6,55.6,38.6,55.6,38.6,55.6C38.6,55.6,38.6,55.6,38.6,55.6z M38.6,55.6C38.6,55.6,38.6,55.6,38.6,55.6
	C38.6,55.6,38.6,55.6,38.6,55.6C38.6,55.6,38.6,55.6,38.6,55.6C38.6,55.6,38.6,55.6,38.6,55.6z M38.6,55.6
	C38.6,55.6,38.6,55.6,38.6,55.6C38.6,55.6,38.6,55.6,38.6,55.6C38.6,55.6,38.6,55.6,38.6,55.6C38.6,55.6,38.6,55.6,38.6,55.6z
	 M38.6,55.6L38.6,55.6L38.6,55.6C38.6,55.6,38.6,55.6,38.6,55.6C38.6,55.6,38.6,55.6,38.6,55.6L38.6,55.6z M38.6,55.6
	C38.6,55.6,38.6,55.6,38.6,55.6C38.6,55.6,38.6,55.6,38.6,55.6C38.6,55.6,38.6,55.6,38.6,55.6C38.6,55.6,38.6,55.6,38.6,55.6z
	 M38.7,55.6C38.7,55.6,38.7,55.6,38.7,55.6C38.7,55.6,38.7,55.6,38.7,55.6C38.7,55.6,38.7,55.6,38.7,55.6
	C38.7,55.6,38.7,55.6,38.7,55.6z M38.7,55.6L38.7,55.6L38.7,55.6C38.7,55.6,38.7,55.6,38.7,55.6C38.7,55.6,38.7,55.6,38.7,55.6
	L38.7,55.6z M38.7,55.6C38.7,55.6,38.7,55.5,38.7,55.6C38.7,55.5,38.7,55.6,38.7,55.6C38.7,55.6,38.7,55.6,38.7,55.6
	C38.7,55.6,38.7,55.6,38.7,55.6z M38.7,55.5C38.7,55.5,38.7,55.5,38.7,55.5C38.7,55.5,38.7,55.5,38.7,55.5
	C38.7,55.5,38.7,55.5,38.7,55.5C38.7,55.5,38.7,55.5,38.7,55.5z M38.7,55.5C38.7,55.5,38.7,55.5,38.7,55.5
	C38.7,55.5,38.7,55.5,38.7,55.5C38.7,55.5,38.7,55.5,38.7,55.5C38.7,55.5,38.7,55.5,38.7,55.5z M38.7,55.5
	C38.7,55.5,38.7,55.5,38.7,55.5C38.7,55.5,38.7,55.5,38.7,55.5C38.7,55.5,38.7,55.5,38.7,55.5C38.7,55.5,38.7,55.5,38.7,55.5z
	 M38.7,55.5C38.7,55.5,38.7,55.5,38.7,55.5C38.7,55.5,38.7,55.5,38.7,55.5C38.7,55.5,38.7,55.5,38.7,55.5L38.7,55.5z M38.7,55.5
	L38.7,55.5L38.7,55.5C38.7,55.5,38.7,55.5,38.7,55.5C38.7,55.5,38.7,55.5,38.7,55.5L38.7,55.5z M38.7,55.5
	C38.7,55.5,38.7,55.5,38.7,55.5C38.7,55.5,38.7,55.5,38.7,55.5C38.7,55.5,38.7,55.5,38.7,55.5C38.7,55.5,38.7,55.5,38.7,55.5z
	 M38.7,55.5C38.7,55.5,38.7,55.5,38.7,55.5C38.7,55.5,38.7,55.5,38.7,55.5C38.7,55.5,38.7,55.5,38.7,55.5
	C38.7,55.5,38.7,55.5,38.7,55.5z M38.7,55.5C38.7,55.5,38.7,55.5,38.7,55.5C38.7,55.5,38.7,55.5,38.7,55.5
	C38.7,55.5,38.7,55.5,38.7,55.5L38.7,55.5z M38.7,55.5C38.7,55.5,38.7,55.5,38.7,55.5C38.7,55.5,38.7,55.5,38.7,55.5
	C38.7,55.5,38.7,55.5,38.7,55.5L38.7,55.5z M38.7,55.5C38.7,55.5,38.7,55.5,38.7,55.5C38.7,55.5,38.7,55.5,38.7,55.5
	C38.7,55.5,38.7,55.5,38.7,55.5C38.7,55.5,38.7,55.5,38.7,55.5z M38.7,55.5C38.7,55.5,38.7,55.5,38.7,55.5
	C38.7,55.5,38.7,55.5,38.7,55.5C38.7,55.5,38.7,55.5,38.7,55.5C38.7,55.5,38.7,55.5,38.7,55.5z M38.7,55.5
	C38.7,55.5,38.7,55.5,38.7,55.5C38.7,55.5,38.7,55.5,38.7,55.5C38.7,55.5,38.7,55.5,38.7,55.5C38.7,55.5,38.7,55.5,38.7,55.5z
	 M38.7,55.5C38.7,55.5,38.7,55.5,38.7,55.5C38.7,55.5,38.7,55.5,38.7,55.5C38.7,55.5,38.7,55.5,38.7,55.5
	C38.7,55.5,38.7,55.5,38.7,55.5z M38.7,55.5C38.7,55.5,38.7,55.5,38.7,55.5C38.7,55.5,38.7,55.5,38.7,55.5
	C38.7,55.5,38.7,55.5,38.7,55.5L38.7,55.5z M38.8,55.5C38.8,55.5,38.8,55.5,38.8,55.5C38.8,55.5,38.8,55.5,38.8,55.5
	C38.8,55.5,38.8,55.5,38.8,55.5L38.8,55.5z M38.8,55.5C38.8,55.5,38.8,55.5,38.8,55.5C38.8,55.5,38.8,55.5,38.8,55.5
	C38.8,55.5,38.8,55.5,38.8,55.5C38.8,55.5,38.8,55.5,38.8,55.5z M38.8,55.5C38.8,55.4,38.8,55.4,38.8,55.5
	C38.8,55.4,38.8,55.4,38.8,55.5C38.8,55.5,38.8,55.5,38.8,55.5C38.8,55.5,38.8,55.5,38.8,55.5z M38.8,55.4L38.8,55.4L38.8,55.4
	C38.8,55.4,38.8,55.4,38.8,55.4C38.8,55.4,38.8,55.4,38.8,55.4L38.8,55.4z M38.8,55.4C38.8,55.4,38.8,55.4,38.8,55.4
	C38.8,55.4,38.8,55.4,38.8,55.4C38.8,55.4,38.8,55.4,38.8,55.4C38.8,55.4,38.8,55.4,38.8,55.4z M38.8,55.4
	C38.8,55.4,38.8,55.4,38.8,55.4C38.8,55.4,38.8,55.4,38.8,55.4C38.8,55.4,38.8,55.4,38.8,55.4C38.8,55.4,38.8,55.4,38.8,55.4
	C38.8,55.4,38.8,55.4,38.8,55.4C38.8,55.4,38.8,55.4,38.8,55.4L38.8,55.4z M38.8,55.4C38.8,55.4,38.9,55.4,38.8,55.4
	C38.9,55.3,38.9,55.3,38.8,55.4C38.8,55.4,38.8,55.4,38.8,55.4C38.8,55.4,38.8,55.4,38.8,55.4L38.8,55.4L38.8,55.4
	C38.8,55.4,38.8,55.4,38.8,55.4L38.8,55.4z M38.9,55.3C38.9,55.3,38.9,55.3,38.9,55.3L38.9,55.3L38.9,55.3
	C38.9,55.3,38.9,55.3,38.9,55.3z M38.9,55.3C38.9,55.3,38.9,55.3,38.9,55.3C38.9,55.3,38.9,55.3,38.9,55.3
	C38.9,55.3,38.9,55.3,38.9,55.3C38.9,55.3,38.9,55.3,38.9,55.3z M38.9,55.3C38.9,55.3,38.9,55.3,38.9,55.3
	C38.9,55.3,38.9,55.3,38.9,55.3C38.9,55.3,38.9,55.3,38.9,55.3C38.9,55.3,38.9,55.3,38.9,55.3z M38.9,55.3
	C38.9,55.3,38.9,55.3,38.9,55.3C38.9,55.3,38.9,55.3,38.9,55.3C38.9,55.3,38.9,55.3,38.9,55.3L38.9,55.3z M38.9,55.3
	C38.9,55.3,38.9,55.3,38.9,55.3C38.9,55.3,38.9,55.3,38.9,55.3C38.9,55.3,38.9,55.3,38.9,55.3L38.9,55.3z M38.9,55.3
	C38.9,55.3,38.9,55.2,38.9,55.3C38.9,55.2,38.9,55.3,38.9,55.3C38.9,55.3,38.9,55.3,38.9,55.3C38.9,55.3,38.9,55.3,38.9,55.3z
	 M39,55.2C39,55.2,39,55.2,39,55.2C38.9,55.2,39,55.2,39,55.2C39,55.2,39,55.2,39,55.2L39,55.2z M39,55.2C39,55.2,39,55.2,39,55.2
	C39,55.2,39,55.2,39,55.2C39,55.2,39,55.2,39,55.2z M39,55.1C39,55.1,39,55.1,39,55.1L39,55.1L39,55.1C39,55.1,39,55.1,39,55.1z
	 M39.1,55.1C39.1,55.1,39.1,55.1,39.1,55.1C39.1,55.1,39.1,55.1,39.1,55.1C39.1,55.1,39.1,55.1,39.1,55.1L39.1,55.1z"/>
<path id="path1519" inkscape:connector-curvature="0" class="st1" d="M33.7,71.2L33,67.1"/>
<path id="path1523" inkscape:connector-curvature="0" sodipodi:nodetypes="cccccc" class="st14" d="M43.7,69.8l0.7,4L40,66.4
	l0.8-0.8l1.6,1.7L43.7,69.8"/>
<path id="path1529" inkscape:connector-curvature="0" class="st14" d="M31,35.5l0-0.2l-0.8-0.2l-0.8-0.2l-0.5,0l-1.4,0l-0.8,0.2
	l0.3,0.9l1.5-0.3l0.5,0.1l0.9,0L31,35.5l0-0.2"/>
<path id="path1531" inkscape:connector-curvature="0" class="st15" d="M22.4,34l1.3,1.9l0.8,0.8h0.3l0.1-0.2l-0.5-1.1l-1.5-2
	L22.4,34z"/>
<path id="path1533" inkscape:connector-curvature="0" sodipodi:nodetypes="ccccccccccc" class="st24" d="M22.2,24.4l1.5,1.1l1.1,0.5
	l0.2-0.2l-0.3-0.6l-1.3-1.2l-0.9-0.9l-1.2-0.7L21,22.2l-0.5,1.2L22.2,24.4z"/>
<path id="path1535" inkscape:connector-curvature="0" class="st18" d="M20.1,57.4l3.1-0.8l0.6-0.4v-0.5l-0.9-0.1l-2.7,0.9L20.1,57.4
	L20.1,57.4z"/>
<path id="path1537" inkscape:connector-curvature="0" class="st24" d="M20.9,49.6l1.9,3.2l0.6,0.4l0.3-0.3l-0.4-1.3l-0.4-0.5
	l-0.5-1.1L21.6,49L20.9,49.6z"/>
<path id="path1539" inkscape:connector-curvature="0" class="st14" d="M21.7,59.6l-0.8-2.2l0.8-0.2l0.8,2.1l0.4,1.4l-0.2,0.4
	L21.7,59.6z"/>
<path id="path1541" inkscape:connector-curvature="0" class="st15" d="M47.6,69.9l-0.8,2l0,0.8l0.4,0.2l0.3-0.7l1-1.8l0.6-1.7V68
	l-0.2-0.3l-0.4,0.3L47.6,69.9z"/>
<path id="path1525" inkscape:connector-curvature="0" sodipodi:nodetypes="ccccccccccccccccccc" class="st25" d="M40.2,75.6
	c6.9-0.1,16.7-1.8,22.5-4C62,65,60,26,60,26s2.1,5.1,3.2,7.9c4.7-0.4,12.3-1.3,15.3-6.2c-2.9-6.8-5.1-14.6-7.4-19.7
	c0,0-10.4-3.8-18.6-6.4c0,0-0.9-0.3-1.3,0.4C46.8,7,42.2,9,39.9,9.1l0,0C33.5,9,31.9,6.2,29,2c-0.5-0.7-1.4-0.4-1.4-0.4
	C19.5,4.1,8.9,8,8.9,8c-2.3,5.1-4.5,13-7.4,19.7c3,4.8,10.4,5.8,15.3,6.2c1.1-2.8,3.2-7.9,3.2-7.9S18,65,17.4,71.6
	c5.8,2.2,15.5,4,22.5,4l0,0"/>
</svg>
