<?xml version="1.0" encoding="utf-8"?><svg version="1.1" id="Layer_1" xmlns="http://www.w3.org/2000/svg" xmlns:xlink="http://www.w3.org/1999/xlink" x="0px" y="0px" viewBox="0 0 80 77.1" style="enable-background:new 0 0 80 77.1;" xml:space="preserve"><style type="text/css"> .st0{fill:#FFFFFF;} .st1{fill:#214478;} .st2{fill:#FF0000;} .st3{fill:none;stroke:#000000;stroke-width:3;stroke-linecap:round;stroke-linejoin:round;}</style><path class="st0" d="M19.8,25.1l11-5.1c9.8,0.7,9.8-5.2,17.8-6l13.3-8.6l4,1.5L50.7,19.4c-8.7,1.1-7.2,8.2-18,7.1l-12.3,2.4 L19.8,25.1z"/><path id="path81" class="st1" d="M13.3,33.1c-2.9-0.5-5.4-1.2-7.3-2.2c-0.9-0.5-2.3-1.6-2.8-2.1 l-0.3-0.4l1-2.6c0.5-1.4,1.7-4.8,2.7-7.5c2.1-6.1,3.3-9.4,3.5-9.5c0.6-0.4,18.3-7.1,18.4-7c0,0,0.8,0.9,1.2,1.5 c2.2,3.2,3.1,4.3,5.2,5.1c1.5,0.7,3,0.8,5,1c2.7,0.2,3.6-0.3,5.7-1.1c2-0.9,3-1.8,5.1-4.7c0.6-0.8,1.7-1.6,2.8-1.1 c0.1,0,9.1,3.1,9.1,3.1c0,0,0,0.2-0.1,0.5c-1.1,3.5-15.2,10.6-38,19l-3.5,1.2l0,0c-0.6-0.4-0.5-1.1-1.1-1c-0.9,0.1-1.1,0.6-2.7,4.4 l-1.5,3.7l-0.6,0C14.7,33.2,13.9,33.2,13.3,33.1z"/><path id="path75_1_" class="st2" d="M55.1,74c-0.1,0-5.8,0.9-6.1,0.7l0,0c-0.3-0.1-1,0.4-1.5,0 c-2.7,0.2-0.6,0-3.5,0.2c-1.6,1.3-3.2,2.7-5.4,0.8c-1.4-1.2-1.7-0.1-2.2-0.1c-0.6,0-1.2-1.2-2-0.3c-0.9,1.1-1.5-0.4-1.9-0.4 c-0.6,0-1.4,1.2-2.9-0.5c-0.8-0.9-1.7,0.1-1.8,0c-0.6-0.3-1.2-1.2-1.7-0.6c-0.3,0.3-0.4-1.5-0.7-1.2c-0.3,0.3-0.6,0.6-0.8,0.6 c-0.7,0.1-4.1,0.7-6.3-2.3v-3.5l0.4-9.7c0.3-5.3,0.6-14.3,0.9-19.9s0.6-10.5,0.6-10.8l1.4-0.4L23,26c17.4-6.4,30.7-12.3,36.6-16.2 c2.5-1.7,3.7-3.4,3.7-4.3c0-0.1,0.6-0.2,0.7-0.2c1.1,0.4,8.1,3,8.4,3.1c0.4,0.2,0.5,0.5,1.4,2.7c0.5,1.4,1.6,4.4,2.4,6.7 c0.8,2.3,2,5.7,2.7,7.5l1.3,3.4l-0.3,0.4c-0.9,1.1-2.9,2.4-4.7,3.1c-2.2,0.8-5.5,1.5-7.2,1.6L63.1,34l-1.3-3.4 c-1.6-4.1-0.1-4.1-1.2-4.2c-0.7-0.1,0.3-0.6,0,0c-0.1,0.3-0.1,1.4,0,4.1c0.3,6.4,1.4,27,1.7,31.9l0.3,4.7L62,68.8 c-1.1,3-2.1,4.4-2.9,4.4c-0.3,0-1.3,0.3-2.4,0.5C55.1,74,55.6,74,55.1,74"/><path class="st0" d="M61.8,28.4l4.8-1.2c3.3-0.9,2.8-0.7,5.4-2l3.9-2l0.6,0.9l-3.6,2c-2.7,1.4-2.7,1.4-6.4,2.3L62,29.4L61.8,28.4z" /><path class="st0" d="M4.5,23.1L9,25.2c3.2,1.4,2.7,1.2,5.4,1.9l4.3,0.9l-0.1,1l-4-0.7c-3-0.6-3-0.6-6.4-2.2L4,24L4.5,23.1z"/><path class="st0" d="M18.4,61.4l14,1.5c9.8,0.7,8.4,0.8,16.4,0l12.5-1.5l0.7,2.9l-11.6,1.8c-8.7,1.1-8.7,1.1-19.5,0.1l-13-1.9 L18.4,61.4z"/><path class="st3" d="M40.2,75.6c6.9-0.1,16.7-1.8,22.4-4c-0.7-6.6-2.7-45.5-2.7-45.5s2.1,5.1,3.2,7.9c4.7-0.4,12.3-1.3,15.3-6.2 C75.5,21,73.3,13.2,71,8.1c0,0-10.4-3.8-18.6-6.4c0,0-0.9-0.3-1.3,0.4c-3,4.2-4.5,7.1-11.2,7.1l0,0c-6.4-0.1-8-2.9-10.9-7.1 c-0.5-0.7-1.4-0.4-1.4-0.4C19.5,4.2,9,8.1,9,8.1c-2.3,5.1-4.5,13-7.4,19.7c3,4.8,10.4,5.8,15.3,6.2c1.1-2.8,3.2-7.9,3.2-7.9 S18,65,17.4,71.6c5.8,2.2,15.5,4,22.4,4l0,0"/></svg>