<?xml version="1.0" encoding="UTF-8" standalone="no"?><svg xmlns:dc="http://purl.org/dc/elements/1.1/" xmlns:cc="http://creativecommons.org/ns#" xmlns:rdf="http://www.w3.org/1999/02/22-rdf-syntax-ns#" xmlns:svg="http://www.w3.org/2000/svg" xmlns="http://www.w3.org/2000/svg" xmlns:sodipodi="http://sodipodi.sourceforge.net/DTD/sodipodi-0.dtd" xmlns:inkscape="http://www.inkscape.org/namespaces/inkscape" version="1.1" id="Layer_1" x="0px" y="0px" viewBox="0 0 80 77.1" style="enable-background:new 0 0 80 77.1;" xml:space="preserve" ><style type="text/css" id="style2"> .st0{fill:none;stroke:#000000;stroke-width:3;stroke-linecap:round;stroke-linejoin:round;} </style><path style="opacity:1;fill:#002255;fill-opacity:1;stroke:#002255;stroke-width:0.5;stroke-linecap:butt;stroke-linejoin:miter;stroke-miterlimit:4;stroke-dasharray:none;stroke-dashoffset:0;stroke-opacity:1;paint-order:markers fill stroke" d="M 47.862952,59.344258 40.040633,46.685432 46.29869,35.288447 c 3.441931,-6.268342 6.240722,-11.41432 6.219535,-11.435508 -0.02119,-0.02119 -2.33227,0.02419 -5.135738,0.100846 C 24.877749,24.569112 26.114393,24.546729 25.963555,24.341468 25.733556,24.028483 15.53083,7.5601822 15.50721,7.4637994 15.49514,7.4145634 16.227772,7.1111499 17.135272,6.789548 c 1.4803,-0.524592 10.652765,-3.5862279 10.74411,-3.5862279 0.02045,0 0.423568,0.5547243 0.895827,1.2327207 2.642055,3.7930535 4.579291,5.2477361 7.966701,5.9822462 0.910211,0.197366 1.330501,0.226238 3.293362,0.226238 1.952049,0 2.385735,-0.02946 3.275014,-0.222499 1.407451,-0.305514 2.552533,-0.7376809 3.486754,-1.3159414 1.584883,-0.981004 2.607973,-2.0299256 4.354095,-4.4640286 l 1.012381,-1.4112641 1.090426,0.3415074 c 1.930425,0.6045839 7.809649,2.6092124 11.87587,4.0492946 2.175503,0.7704701 4.13546,1.4644942 4.35546,1.5422758 0.350542,0.123935 0.428782,0.2123949 0.632781,0.7154357 0.600058,1.4796846 1.581641,4.1294256 2.509398,6.7740146 1.414843,4.033038 2.720276,7.625693 3.423302,9.421201 0.468003,1.195264 0.573783,1.562008 0.493695,1.711653 -0.05606,0.104748 -0.362308,0.429112 -0.680551,0.720809 -2.07567,1.90252 -5.294986,3.064765 -10.22457,3.691296 -0.85027,0.108066 -1.55086,0.187159 -1.556865,0.175762 -0.006,-0.0114 -0.543596,-1.348221 -1.194645,-2.970721 -1.862253,-4.640983 -1.888443,-4.684764 -2.858115,-4.777937 -0.734919,-0.07062 -1.433926,0.411366 -1.585543,1.093272 -0.04093,0.184066 -0.03825,1.009665 0.0059,1.834665 1.390658,25.956832 1.762524,32.353604 2.445218,42.062173 l 0.06766,0.962172 -0.788859,0.261468 c -0.939643,0.311446 -4.115281,1.164237 -4.334781,1.164069 -0.09671,-7.3e-5 -3.066504,-4.713285 -7.976397,-12.658944 z" id="path4496" /><path style="fill:#ffffff;stroke:#ffffff;stroke-width:1px;stroke-linecap:butt;stroke-linejoin:miter;stroke-opacity:1;fill-opacity:1" d="m 14.2,6.2999985 11.6,18.6999995 26,-0.7 -12.3,22.4 16.5,26.7 C 53.785212,74.653396 46.000301,75.649703 40.2,75.6 34.880895,75.756179 27.497594,75.297595 17.4,71.6 L 20.1,26.1 16.9,34 C 12.016325,34.196258 4.0662415,31.42498 1.6,27.8 L 9,8.1 Z" id="path4490" /><path style="fill:none;stroke:#000000;stroke-width:3;stroke-linecap:round;stroke-linejoin:round" class="st0" d="m 40.2,75.6 c 6.9,-0.1 16.7,-1.8 22.4,-4 -0.7,-6.6 -2.7,-45.5 -2.7,-45.5 0,0 2.1,5.1 3.2,7.9 4.7,-0.4 12.3,-1.3 15.3,-6.2 C 75.5,21 73.3,13.2 71,8.1 71,8.1 60.6,4.3 52.4,1.7 c 0,0 -0.9,-0.3 -1.3,0.4 -3,4.2 -4.5,7.1 -11.2,7.1 v 0 C 33.5,9.1 31.9,6.3 29,2.1 28.5,1.4 27.6,1.7 27.6,1.7 19.5,4.2 9,8.1 9,8.1 c -2.3,5.1 -4.5,13 -7.4,19.7 3,4.8 10.4,5.8 15.3,6.2 1.1,-2.8 3.2,-7.9 3.2,-7.9 0,0 -2.1,38.9 -2.7,45.5 5.8,2.2 15.5,4 22.4,4 v 0" id="path4" /></svg>