<?xml version="1.0" encoding="UTF-8" standalone="no"?><svg xmlns:dc="http://purl.org/dc/elements/1.1/" xmlns:cc="http://creativecommons.org/ns#" xmlns:rdf="http://www.w3.org/1999/02/22-rdf-syntax-ns#" xmlns:svg="http://www.w3.org/2000/svg" xmlns="http://www.w3.org/2000/svg" xmlns:sodipodi="http://sodipodi.sourceforge.net/DTD/sodipodi-0.dtd" xmlns:inkscape="http://www.inkscape.org/namespaces/inkscape" version="1.1" id="Layer_1" x="0px" y="0px" viewBox="0 0 80 77.1" style="enable-background:new 0 0 80 77.1;" xml:space="preserve" ><style type="text/css" id="style2"> .st0{fill:none;stroke:#000000;stroke-width:3;stroke-linecap:round;stroke-linejoin:round;} </style><path style="opacity:1;fill:#003380;fill-opacity:1;stroke:#003380;stroke-width:1;stroke-linecap:butt;stroke-linejoin:miter;stroke-miterlimit:4;stroke-dasharray:none;stroke-dashoffset:0;stroke-opacity:1;paint-order:markers fill stroke" d="M 37.534048,74.020344 C 31.267452,73.595396 25.309184,72.541856 20.332427,70.978755 19.06819,70.581683 18.938254,70.520731 18.97405,70.341553 c 0.02177,-0.108972 0.06346,-0.582544 0.09264,-1.052382 0.02918,-0.469839 0.159229,-2.498687 0.289001,-4.508553 0.325988,-5.048827 0.806912,-13.259228 1.423296,-24.298723 0.287107,-5.142122 0.589095,-10.533446 0.671084,-11.98072 0.146649,-2.588664 0.146002,-2.638345 -0.03987,-3.058538 -0.243536,-0.550552 -0.659069,-0.811152 -1.293399,-0.811152 -0.52097,0 -0.987079,0.22424 -1.222205,0.587989 -0.07754,0.119952 -0.703724,1.606254 -1.391529,3.302893 -1.751482,4.32046 -1.537171,3.889908 -1.911105,3.839406 -0.173757,-0.02347 -0.828474,-0.107676 -1.454925,-0.18713 C 9.2619818,31.556335 5.8120063,30.208369 3.7675088,28.123086 L 3.2693387,27.614978 3.970323,25.861856 c 0.7683959,-1.921716 1.5144839,-3.9699 3.3354712,-9.156641 1.2899501,-3.674181 2.2549062,-6.262897 2.6181727,-7.02385 L 10.150526,9.2067806 12.048863,8.5196525 c 4.93526,-1.7863811 11.770124,-4.129621 14.821939,-5.081499 l 1.058989,-0.3303047 0.459282,0.6765437 c 3.023825,4.4542298 5.168992,6.0313053 9.050058,6.6533865 1.330796,0.213308 3.875784,0.212726 5.220428,-0.0012 3.873958,-0.6163068 6.053068,-2.2330452 9.112022,-6.7604469 0.182715,-0.2704272 0.391503,-0.4927872 0.463974,-0.4941333 0.208203,-0.00387 8.220003,2.6938256 12.397264,4.1743442 2.088171,0.7400967 4.11702,1.4592104 4.508552,1.5980305 0.68187,0.2417611 0.721426,0.2724046 0.938436,0.7269846 0.356375,0.7465179 1.361481,3.4287109 2.543146,6.7865579 1.825634,5.187765 2.670022,7.511834 3.404573,9.370642 l 0.703732,1.780819 -0.638957,0.647639 c -2.158444,2.187773 -5.713562,3.426379 -11.732343,4.08756 -0.322477,0.03543 -0.133084,0.425793 -1.85925,-3.832216 -0.687804,-1.696639 -1.313992,-3.182941 -1.391529,-3.302893 -0.235126,-0.363749 -0.701235,-0.587989 -1.222204,-0.587989 -0.633394,0 -1.049915,0.260717 -1.292442,0.808988 -0.184634,0.417395 -0.185357,0.473587 -0.04055,3.153455 0.08109,1.500668 0.318363,5.910576 0.527284,9.799796 0.696708,12.969774 1.180793,21.259234 1.57696,27.003854 0.136806,1.983763 0.25416,3.967499 0.260788,4.408301 l 0.01205,0.801459 -0.996627,0.315284 c -1.506136,0.476467 -5.330035,1.405171 -7.334328,1.781277 -5.535194,1.03868 -11.489636,1.558968 -15.066057,1.316445 z" id="path4487" /><g id="g4580"><path id="path4495" d="m 21.428836,26.194917 38.660998,1.423753 -0.02982,10.251023 z" style="fill:#ffff00;fill-opacity:1;stroke:none;stroke-width:0;stroke-linecap:butt;stroke-linejoin:miter;stroke-miterlimit:4;stroke-dasharray:none;stroke-opacity:1" /><path id="path4495-6" d="m 21.428836,26.194917 40.012212,25.894482 -0.02982,13.478197 z" style="fill:#ffff00;fill-opacity:1;stroke:none;stroke-width:0;stroke-linecap:butt;stroke-linejoin:miter;stroke-miterlimit:4;stroke-dasharray:none;stroke-opacity:1" /><path id="path4495-3" d="m 21.428836,26.194917 22.07292,49.528786 -15.501273,-1.23392 z" style="fill:#ffff00;fill-opacity:1;stroke:none;stroke-width:0;stroke-linecap:butt;stroke-linejoin:miter;stroke-miterlimit:4;stroke-dasharray:none;stroke-opacity:1" /><path id="path4495-7" d="m 21.428836,26.194917 38.968127,16.592627 0.160014,3.796675 z" style="fill:#ffff00;fill-opacity:1;stroke:none;stroke-width:0;stroke-linecap:butt;stroke-linejoin:miter;stroke-miterlimit:4;stroke-dasharray:none;stroke-opacity:1" /><path id="path4495-7-0" d="M 21.428836,26.194917 62.6,71.6 58.669827,72.9622 Z" style="fill:#ffff00;fill-opacity:1;stroke:none;stroke-width:0;stroke-linecap:butt;stroke-linejoin:miter;stroke-miterlimit:4;stroke-dasharray:none;stroke-opacity:1" /></g><path style="fill:none;stroke:#000000;stroke-width:3;stroke-linecap:round;stroke-linejoin:round" class="st0" d="m 40.2,75.6 c 6.9,-0.1 16.7,-1.8 22.4,-4 -0.7,-6.6 -2.7,-45.5 -2.7,-45.5 0,0 2.1,5.1 3.2,7.9 4.7,-0.4 12.3,-1.3 15.3,-6.2 C 75.5,21 73.3,13.2 71,8.1 71,8.1 60.6,4.3 52.4,1.7 c 0,0 -0.9,-0.3 -1.3,0.4 -3,4.2 -4.5,7.1 -11.2,7.1 v 0 C 33.5,9.1 31.9,6.3 29,2.1 28.5,1.4 27.6,1.7 27.6,1.7 19.5,4.2 9,8.1 9,8.1 c -2.3,5.1 -4.5,13 -7.4,19.7 3,4.8 10.4,5.8 15.3,6.2 1.1,-2.8 3.2,-7.9 3.2,-7.9 0,0 -2.1,38.9 -2.7,45.5 5.8,2.2 15.5,4 22.4,4 v 0" id="path4" /></svg>