<svg version="1.1" id="Layer_1" xmlns="http://www.w3.org/2000/svg" x="0" y="0" viewBox="0 0 80 77.1" xml:space="preserve"><style>.st1{fill:#c41232}.st2{fill:#ec268f}.st4{fill:#373435}.st11{fill:#b5053c}.st12{fill:#750014}.st13{fill:#5b5b5b}.st14{fill:#858585}.st15{fill:#535353}.st16{fill:#8e8e8e}.st17{fill:#757575}.st18{fill:#b5b5b5}.st19{fill:#ebebeb}.st20{fill:#333}.st21{fill:#eee}.st22{fill:#c4c4c4}.st23{fill:#b0b0b0}.st24{fill:#989898}.st25{fill:#979797}.st26{fill:#ededed}.st28{fill:#7b7b7b}.st29{fill:#777}.st30{fill:#767676}.st31{fill:#bfbfbf}.st32{fill:#656565}.st33{fill:#adadad}.st34{fill:#818181}.st35{fill:#696969}.st36{fill:#9c9c9c}.st37{fill:#909090}.st38{fill:#7a7a7a}.st39{fill:#a7a7a7}.st40{fill:#828282}.st41{fill:#626262}.st42{fill:#606060}.st43{fill:#c1c1c1}.st44{fill:#9e9e9e}.st45{fill:#888}.st46{fill:#9b9b9b}.st47{fill:#515151}.st48{fill:#b7b7b7}.st49{fill:#9f9f9f}.st50{fill:#cfcfcf}.st51{fill:#737373}.st52{fill:#b1b1b1}.st53{fill:#7d7d7d}.st54{fill:#5c5c5c}.st55{fill:#a4a4a4}.st56{fill:#838383}.st57{fill:#929292}.st58{fill:#939393}.st59{fill:#363636}.st60{fill:#bdbdbd}.st61{fill:#a2a2a2}.st62{fill:#525252}.st63{fill:#898989}.st64{fill:#717171}.st65{fill:#6b6b6b}.st66{fill:#ababab}.st67{fill:#4f4f4f}.st68{fill:#bababa}.st69{fill:#575757}.st70{fill:#cecece}.st71{fill:#a9a9a9}.st72{fill:#4e4e4e}.st73{fill:#a0a0a0}.st74{fill:#8d8d8d}.st75{fill:#585858}.st76{fill:#646464}.st77{fill:#545454}.st78{fill:#959595}.st79{fill:#424242}.st80{fill:#9d9d9d}.st81{fill:#454545}.st82{fill:#565656}.st83{fill:#4d4d4d}.st84{fill:#a6a6a6}.st85{fill:#aaa}.st86{fill:#a5a5a5}.st87{fill:#999}.st88{fill:#acacac}.st89{fill:#595959}.st90{fill:#afafaf}.st92{fill:#919191}.st93{fill:#868686}.st94{fill:#666}.st95{fill:#cdcdcd}.st96{fill:#3e3e3e}.st97{fill:#969696}.st98{fill:#aeaeae}.st99{fill:#949494}.st100{fill:#7c7c7c}.st101{fill:#8a8a8a}.st102{fill:#bcbcbc}.st103{fill:#555}.st104{fill:#9a9a9a}.st106{fill:#bbb}.st107{fill:#8c8c8c}.st108{fill:#6e6e6e}.st109{fill:#676767}.st110{fill:#505050}.st111{fill:#787878}.st113{fill:#383838}.st115{fill:#4b4b4b}.st116{fill:#494949}.st117{fill:#343434}.st118{fill:#b9b9b9}.st119{fill:#6c6c6c}.st120{fill:#d1d1d1}.st122{fill:#6a6a6a}.st123{fill:#464646}.st124{fill:#5f5f5f}.st125{fill:#4a4a4a}.st126{fill:gray}.st127{fill:silver}.st128{fill:#797979}.st129{fill:#6f6f6f}.st130{fill:#636363}.st133{fill:#474747}.st134{fill:#5d5d5d}.st135{fill:#8b8b8b}.st136{fill:#ececec}.st138{fill:#c8c8c8}.st140{fill:#c2c2c2}.st141{fill:#747474}.st142{fill:#5e5e5e}.st143{fill:#404040}.st144{fill:#4c4c4c}.st145{fill:#a1a1a1}.st146{fill:#707070}.st147{fill:#6d6d6d}.st148{fill:#5a5a5a}.st149{fill:#c6c6c6}.st150{fill:#616161}.st151{fill:#7e7e7e}.st152{fill:#cacaca}.st153{fill:#a8a8a8}.st154{fill:#7f7f7f}.st155{fill:#c7c7c7}.st156{fill:#b4b4b4}.st157{fill:#a3a3a3}.st158{fill:#848484}.st159{fill:#bebebe}.st160{fill:#b3b3b3}.st161{fill:#cbcbcb}.st162{fill:#727272}.st163{fill:#434343}.st165{fill:#3b3b3b}.st168{fill:#c9c9c9}.st169{fill:#efefef}.st170{fill:#8f8f8f}.st171{fill:#e0828c}.st172{fill:#3d3d3d}.st173{fill:#686868}.st174{fill:#c5c5c5}.st175{fill:#b2b2b2}.st176{fill:#878787}.st177{fill:#414141}.st178{fill:#444}.st180{fill:#d0d0d0}.st185{fill:#c3c3c3}.st187{fill:#dcdcdc;stroke:#c41232;stroke-width:.25;stroke-miterlimit:10}.st188{fill:#0c0c0c}.st189{fill:#0b0b0b}.st190{fill:#0a0a0a}</style><g id="_1020962336"><path d="M40.2 75.9a75 75 0 0022.7-4.1c-.7-6.7-2.7-46-2.7-46l3.2 8c4.7-.4 12.4-1.3 15.5-6.3-2.9-6.9-5.2-14.7-7.5-19.9 0 0-10.5-3.8-18.8-6.4 0 0-.9-.3-1.3.4-2.7 3.8-4.2 6.5-9.2 7l-2.2.1c-6.4-.1-8.1-2.9-11-7.2-.5-.7-1.4-.4-1.4-.4C19.3 3.8 8.7 7.7 8.7 7.7c-2.3 5.2-4.6 13.1-7.5 19.9 3 4.8 10.5 5.8 15.5 6.3l3.2-8s-2.1 39.3-2.7 46a77 77 0 0023 4z" fill="#7d0f1e"/><path class="st1" d="M28.4 1.6c-.5-.4-1.7.3-2.5.5L35 69.4l5.9-10-4.6-50.7c-4.8-1.3-5.4-4.1-7.9-7.1zM42 58.1L37.9 9c3.8.6 6.5-.4 7.8-1.1l2 40.2-5.7 10z"/><path class="st2" d="M47.7 48.2L42 58.1l19.4-2.2-.5-9.2zM40.9 59.3L35 69.4l27-4.2-.5-8.2z"/><path d="M31.6 44.5l-1.2-1-1.2 1.4-1.8-2-.8.6-1.3-.8-.8.6-1.9 1.5s-.2 3.2-.5 4.4c-.3 1.2-1.6 3.3-1.3 5.1.3 1.8 1.2 4 1.7 4.5s1.2 2 1.2 2-.4 1.8-.2 2.4c.2.6 1.1 1.3 1.1 1.3s.7.7 1 1.8c.2 1.2.6 2.4.6 3.3s-.4 2.3.5 2.5c.8.3 3 .6 4.1.5 1.2 0 2.7-.4 2.7-.4l1.6-2.9-3.5-24.8z" fill="#c0344e"/><path class="st4" d="M31.6 64.6s.3 1.6.8 1.9c.5.3.7.4 1.5.3l.7-.1-.1-.7s-.2.2-1.1.1c-.8-.1-1.8-1.5-1.8-1.5z"/><path d="M24.3 42.8l-1.7-1.7c-.7-.6-3.1-1.1-3.1-1.1l.4-6.7.8-.5V31c-.1-.6.2-1.5.2-1.5s2.5.7 4.5 1c2 .3 4.8 2.1 4.8 2.1l1.6 11.9-1.2-1-1.2 1.4-1.8-2-.8.6-1.3-.8-.6.4-.6-.3z" fill="none"/><path class="st1" d="M33.1 72.8l-1.2 2.1s-4-.5-6.2-1L20 72.4l-2.3-.7.8-14.8.2-8 .6-5.8.4.8.9 1.2 1.1.6.5.1-.1 1.8c0 .4-.3 1.5-.7 2.4-.4 1-1.6 3.1-.8 5.7.7 2.5 1.3 2.9 1.3 2.9s.8.8.9 1.1l.5 1.2s-.2 1.5-.1 2.1c.1.6.6 1.2.6 1.2s1.2.9 1.5 2.2l.6 2.2v1.5c0 .5-.6 1.8-.1 2.3s2.6.6 3.5.8c.7.1 3.2-.1 3.8-.4z"/><path fill="#f06277" d="M32.1 47.8l-1.1.7-2.4-1.5v1.1l-2.1-.6.3.8h-1.7l.6.9-.6.8 3 2.1.8 6.4-1.3-.5 1.5 1.3 2.4.1 2-.6z"/><path class="st4" d="M28.6 56.1l-.8-2.3-4.1-1.1.9-1.7 3.5 1.1zM33.5 58.8l.4 2.5-2.5 1.7-4.3-3 1.5.1.5-.8 2.4.1zM24.5 64.5l2.6 1.3s1 .8 2.1.6c1.2-.2 2-1.5 1.9-2 0-.5.2 1.4-.5 2.1s-1.9 1-2.7.8c-.7-.1-1.5-.9-1.5-.9l-1.1.2c.2 0 0-1.4-.8-2.1z"/><path class="st2" d="M24.5 43.1l-.3-.3-1.7-1.7a8 8 0 00-3.1-1.1l-.2 2.7s.9 1.7 1.4 2.1c.6.5 1.8.8 1.8.8v-.9l2.1-1.6zM19.8 33.3l-.1 1.5 1.9-1.3-.1-2v-.6l1.7.4 2 .4c.2 0 2 .9 2.6 1.4.6.5 2.5 1.2 2.5 1.2l-.3-1.7s-2-1.2-2.7-1.4c-.7-.3-2-.8-3.6-.9-.5 0-1-.2-1.4-.3-1-.2-1.6-.5-1.6-.5l-.2 1 .1 1.7v.6l-.8.5z"/></g><path d="M52.3 1.6c0 4.3-4.9 8.8-12.3 8.8S27.7 5.9 27.7 1.6" fill="none" stroke="#c41232" stroke-width="3" stroke-miterlimit="10"/><path d="M40.2 75.6c6.9-.1 16.7-1.8 22.4-4-.7-6.6-2.7-45.5-2.7-45.5l3.2 7.9c4.7-.4 12.3-1.3 15.3-6.2C75.5 21 73.3 13.2 71 8.1c0 0-10.4-3.8-18.6-6.4 0 0-.9-.3-1.3.4-3 4.2-4.5 7.1-11.2 7.1h0c-6.4-.1-8-2.9-10.9-7.1-.5-.7-1.4-.4-1.4-.4C19.5 4.2 9 8.1 9 8.1c-2.3 5.1-4.5 13-7.4 19.7 3 4.8 10.4 5.8 15.3 6.2l3.2-7.9S18 65 17.4 71.6c5.8 2.2 15.5 4 22.4 4h0" fill="none" stroke="#000" stroke-width="2" stroke-linecap="round" stroke-linejoin="round"/><path d="M34.4 21.9l-.1.4v.9c.1.5.5.9.6 1.4l-.1.4c-.1.1-.2.2-.1.4l.2.1h.7l.1.1.1.3h-.5c-.3 0-.7 0-.9.3v.2h0l-.1-.1c-.2-.3-.4-.2-.7-.2h-.5c-.2 0-.3.1-.4.3-.1.3 0 .6 0 .8v1.7c0 .3 0 .6.2.8h.6l1-.1 2-.1.2-.1.1-.1h.7l.5-.1.2-.1.1.1h.4v.7h1.1l1.5-.1.2-.1.5-.1h.8v-.9h-.1l.1-.1.2.1V29.6h.8c0-.1.2 0 .2 0l.8-.1c0-.3-.1-.6 0-.8H44l.2-.1.3-.2c.3-.3.4-.8.3-1.2l-.2-.3c.2-.1.3-.5.3-.7l-.1-.2-.1-.3a1 1 0 00-.9-.5h-.4l-.5.1c-.1 0-.1.1-.2 0 .1 0 .2-.1.2-.3l-.1-.2-.1-.4c.1-.5.4-.9.6-1.3.2-.5.1-.9-.1-1.4l.5-.2v-.3l-.2-.1-.3-.3-.2-.5-.1-.2-.1-.3-.1-.1v-.1-.3c-.1-.5-.5-1-.9-1.2l-.5-.3-.3-.1v-.2c0-.2 0-.5-.3-.5l-.6.2-.9.2-.3.2-.1.1-.1-.1-.3-.2-1-.3c-.2 0-.4-.2-.5-.1-.2 0-.2.4-.2.5v.2h-.2l-.4.1-.7.5c-.2.2-.5.6-.5.9v.5l-.1.1-.1.2-.2.6-.3.4-.3.2.1.3c0 .4.2.4.4.4z" fill="#ededed" stroke="#000" stroke-width=".3" stroke-miterlimit="10"/><path d="M37 17.4l-.1.7c-.7 0-1.4.6-1.7 1.2l-.1.5v.1l-.1.2-.2.4a3 3 0 01-.4.8l-.3.2-.1.1.2.2.4-.4.4-.8.2-.2.1-.1v-.2l.1-.5c.2-.5.6-1 1.2-1.1h.4v-.7l.5.1.6.2.3.2.1.1.2.2c.2-.3.6-.5.9-.5h.3l.5-.1v.7h.4c.5.1 1 .5 1.2 1l.1.5V20.5l.2.2.3.4.1.2.1.3.1.2.3.3.1.1.2-.2-.2-.1c-.3-.3-.4-.6-.6-1l-.1-.3-.1-.2v-.2l-.1-.5c-.2-.5-.7-.9-1.2-1.2l-.3-.1h-.2v-.2-.4-.1h-.1l-.3.1-.6.1-.6.2-.3.2-.1.1-.2-.1-.3-.2-.9-.2c0-.4-.2-.5-.3-.5z" fill="#b71f4d"/><path class="st11" d="M41.2 21.6l-.1-.1v-.1-.1L41 21l.3-.4c.2-.4.1-.9-.1-1.3h-.3-.1l-.4.2-.3.2v.1h-.4l-.2.1-.2.1-.2.1H39a.2.2 0 01-.2-.2l-.1-.1-.2.1-.1.1-.1.1-.2-.1H38l-.3-.1h-.3-.1l-.1-.1c-.1-.1-.3-.3-.5-.3l-.1-.1-.3-.1h-.1l-.1.3-.1.6v.4l.1.1v.1l.1.1.1.1h.1v.5l-.1.2-.2.3v.5l.1.3.1.1.3.3.1.1.2.3-.1.2v.4l.2.2h.1l.1.2.2.4.1.6v.2l.4.2.4.1h.8l.5-.1.1-.1v-.1-.3l.2-.7.2-.4c.3 0 .4-.3.4-.5l-.1-.3.1-.1.4-.5.3-.4v-.4-.1-.5z"/><path class="st12" d="M36.8 21l.1-.2.2-.5.1-.1.1-.2-.2.1H37l.2-.1-.2.1.1-.1-.1.1.1-.2-.2.1h-.1l.1-.2-.1.1v-.2l-.1.1v-.2l-.1.1v-.2l-.1.1-.1.3c0 .3-.1.6.1.9l.3.2z"/><path class="st13" d="M36.6 19.6v.2-.2z"/><path class="st14" d="M36.6 19.6z"/><path class="st15" d="M36.6 19.6v.1-.1z"/><path class="st16" d="M41.1 19.6v.1-.1z"/><path class="st17" d="M41.2 19.6v0z"/><path class="st12" d="M41.2 19.6v.2l-.2-.2v.2l-.1-.1.1.2-.1-.1.1.2-.1-.1-.1-.1.1.2h-.1l-.2-.1.2.2-.2-.1.1.1h-.1l-.2-.1.1.2.1.1c.2.1.2.3.2.5l.1.2.2-.2c.1-.3.2-.6.1-.9v-.3z"/><path class="st18" d="M36.6 19.6v.2-.2z"/><path class="st19" d="M36.6 19.6v.2-.2z"/><path class="st20" d="M41.1 19.6v.1-.1z"/><path class="st21" d="M41.1 19.6v.2-.2z"/><path class="st22" d="M41.2 19.6v0z"/><path class="st23" d="M36.6 19.6v.1-.1z"/><path class="st24" d="M36.7 19.6z"/><path class="st25" d="M41 19.6z"/><path class="st26" d="M41 19.6l.1.2-.1-.2z"/><path class="st21" d="M36.7 19.6v0z"/><path d="M36.7 19.6z" fill="#484848"/><path class="st28" d="M36.9 19.6z"/><path class="st29" d="M40.8 19.7c0-.1 0-.1 0 0z"/><path class="st30" d="M36.7 19.6z"/><path class="st31" d="M36.9 19.7z"/><path class="st21" d="M40.8 19.6l.1.2-.1-.2z"/><path class="st32" d="M41 19.6z"/><path class="st19" d="M36.9 19.6l-.1.2.1-.2z"/><path class="st33" d="M36.7 19.7z"/><path class="st23" d="M36.8 19.7z"/><path class="st34" d="M36.9 19.7z"/><path class="st35" d="M40.8 19.7z"/><path class="st36" d="M40.9 19.7z"/><path class="st37" d="M36.9 19.7z"/><path class="st38" d="M40.9 19.7z"/><path class="st39" d="M40.9 19.7z"/><path class="st40" d="M41 19.7z"/><path class="st41" d="M37 19.7z"/><path class="st42" d="M40.7 19.7z"/><path class="st43" d="M40.9 19.7z"/><path class="st44" d="M41 19.7z"/><path class="st45" d="M36.8 19.7z"/><path class="st46" d="M36.9 19.7z"/><path class="st47" d="M36.9 19.7z"/><path class="st48" d="M37 19.7z"/><path class="st49" d="M40.7 19.7z"/><path class="st35" d="M36.7 19.7z"/><path class="st50" d="M40.7 19.7z"/><path class="st25" d="M41 19.7z"/><path class="st51" d="M36.6 19.7z"/><path class="st52" d="M36.7 19.7z"/><path class="st35" d="M37 19.7z"/><path class="st26" d="M37 19.7l-.1.3.1-.3z"/><path class="st40" d="M36.9 19.8z"/><path class="st53" d="M37 19.7z"/><path class="st54" d="M40.8 19.7z"/><path class="st26" d="M40.8 19.7l.1.2-.1-.2z"/><path class="st55" d="M40.8 19.7z"/><path class="st41" d="M40.9 19.7z"/><path class="st30" d="M36.7 19.7z"/><path class="st56" d="M36.8 19.7z"/><path class="st57" d="M36.8 19.7z"/><path class="st28" d="M37 19.7z"/><path class="st58" d="M40.8 19.7z"/><path class="st46" d="M40.9 19.7z"/><path class="st59" d="M40.6 19.7z"/><path class="st13" d="M40.9 19.7z"/><path class="st60" d="M40.9 19.7z"/><path class="st40" d="M41.1 19.7z"/><path class="st61" d="M36.8 19.8z"/><path class="st62" d="M36.8 19.8z"/><path class="st63" d="M37 19.8z"/><path class="st47" d="M37.1 19.8z"/><path class="st64" d="M40.8 19.8z"/><path class="st18" d="M36.7 19.8z"/><path class="st65" d="M36.7 19.8z"/><path class="st13" d="M36.8 19.8z"/><path class="st66" d="M37 19.9l.1-.1-.1.1z"/><path class="st23" d="M40.6 19.8z"/><path class="st67" d="M41 19.8z"/><path class="st68" d="M37 19.8z"/><path class="st65" d="M40.9 19.8z"/><path class="st24" d="M41 19.8z"/><path class="st69" d="M36.7 19.8z"/><path class="st70" d="M36.8 19.8z"/><path class="st71" d="M36.8 19.8z"/><path class="st14" d="M40.8 19.8z"/><path class="st41" d="M40.9 19.8z"/><path class="st24" d="M41.1 19.8z"/><path class="st19" d="M37.1 19.8l-.2.2.2-.2z"/><path class="st72" d="M40.7 19.8z"/><path class="st35" d="M36.9 19.8z"/><path class="st73" d="M36.9 19.8z"/><path class="st26" d="M40.6 19.8l.2.2-.2-.2z"/><path class="st74" d="M40.8 19.8z"/><path class="st75" d="M40.8 19.8z"/><path class="st76" d="M40.9 19.8z"/><path class="st77" d="M40.7 19.8z"/><path class="st78" d="M40.9 19.8z"/><path class="st65" d="M36.8 19.8z"/><path class="st79" d="M37.1 19.8z"/><path class="st80" d="M40.8 19.8z"/><path class="st81" d="M40.6 19.8z"/><path class="st82" d="M40.9 19.8z"/><path class="st35" d="M36.8 19.8z"/><path class="st72" d="M37.2 19.8z"/><path class="st83" d="M40.5 19.9z"/><path class="st84" d="M40.8 19.8z"/><path class="st85" d="M41 19.8z"/><path class="st56" d="M37.1 19.8z"/><path class="st86" d="M37.2 19.9z"/><path class="st46" d="M36.8 19.9z"/><path class="st87" d="M36.9 19.9z"/><path class="st88" d="M40.5 19.9z"/><path class="st89" d="M40.8 19.9z"/><path class="st90" d="M40.8 19.9z"/><path class="st57" d="M36.9 19.9z"/><path class="st90" d="M40.7 19.9z"/><path class="st14" d="M36.9 19.9z"/><path d="M37 20.1l.2-.2-.2.2z" fill="#eaeaea"/><path class="st92" d="M40.8 19.9z"/><path class="st93" d="M36.9 19.9z"/><path class="st94" d="M37 19.9z"/><path class="st95" d="M40.6 19.9z"/><path class="st81" d="M40.6 19.9z"/><path class="st96" d="M40.7 19.9z"/><path class="st97" d="M40.9 19.9z"/><path class="st98" d="M40.7 19.9z"/><path class="st99" d="M40.8 19.9z"/><path class="st100" d="M36.9 19.9z"/><path class="st87" d="M36.9 19.9z"/><path class="st92" d="M40.9 19.9z"/><path class="st101" d="M36.9 19.9z"/><path class="st102" d="M37 19.9l-.1.1.1-.1z"/><path class="st103" d="M37 19.9c0 .1 0 .1 0 0z"/><path class="st104" d="M37.1 19.9z"/><path class="st83" d="M40.6 19.9z"/><path d="M40.6 19.9l.2.2-.2-.2z" fill="#e1e1e1"/><path class="st40" d="M40.7 19.9z"/><path class="st106" d="M40.7 19.9z"/><path class="st93" d="M40.9 19.9z"/><path class="st63" d="M37.3 19.9c0 .1 0 .1 0 0z"/><path class="st107" d="M40.4 19.9c0 .1 0 .1 0 0z"/><path class="st108" d="M36.8 20z"/><path class="st85" d="M37.1 20z"/><path class="st77" d="M40.7 19.9z"/><path class="st109" d="M37.1 20z"/><path class="st52" d="M40.9 19.9z"/><path class="st110" d="M40.7 19.9z"/><path class="st23" d="M40.8 19.9z"/><path class="st111" d="M40.9 19.9z"/><path class="st34" d="M37.3 20z"/><path d="M37.1 20.1l.2-.2-.2.2z" fill="#e6e6e6"/><path class="st113" d="M37.2 20z"/><path d="M40.5 20l.2.2-.2-.2z" fill="#e4e4e4"/><path class="st69" d="M40.5 20z"/><path class="st115" d="M40.6 20z"/><path class="st84" d="M37 20z"/><path class="st90" d="M40.8 20z"/><path class="st36" d="M37.2 20z"/><path class="st51" d="M40.5 20z"/><path class="st116" d="M37.4 20z"/><path class="st65" d="M40.3 20c.1 0 0 0 0 0z"/><path class="st67" d="M40.5 20z"/><path class="st117" d="M37.2 20z"/><path class="st102" d="M37.3 20z"/><path class="st118" d="M40.4 20z"/><path class="st44" d="M37 20z"/><path class="st119" d="M37.1 20z"/><path class="st71" d="M40.8 20z"/><path class="st120" d="M37.1 20.3l.2-.2-.2.2z"/><path d="M37.2 20.2l.2-.2-.2.2z" fill="#e7e7e7"/><path class="st62" d="M40.4 20z"/><path class="st80" d="M40.5 20z"/><path class="st106" d="M37.1 20.1z"/><path class="st19" d="M40.4 20l.2.2-.2-.2z"/><path class="st122" d="M40.6 20z"/><path class="st123" d="M37.2 20.2l.2-.1-.2.1z"/><path class="st81" d="M40.4 20l.1.1-.1-.1z"/><path class="st124" d="M40.7 20.1z"/><path class="st77" d="M40.6 20.1z"/><path class="st101" d="M37 20.1z"/><path class="st24" d="M40.7 20.1z"/><path class="st125" d="M37.1 20.1z"/><path class="st126" d="M40.7 20.1c.1 0 .1 0 0 0z"/><path class="st60" d="M37 20.2z"/><path class="st127" d="M40.7 20.1z"/><path class="st94" d="M40.5 20.1z"/><path class="st57" d="M40.7 20.1z"/><path class="st49" d="M40.7 20.2z"/><path class="st128" d="M37 20.2z"/><path class="st51" d="M40.7 20.2z"/><path class="st129" d="M37.8 20.2z"/><path class="st130" d="M39.9 20.2z"/><path class="st73" d="M37.8 20.2z"/><path class="st60" d="M39.9 20.2z"/><path class="st32" d="M37.5 20.2z"/><path d="M37.8 20.2l.1.1.2.2-.3-.3z" fill="#e3e3e3"/><path class="st64" d="M37.8 20.2z"/><path class="st19" d="M39.7 20.4l.2-.2.1-.1-.3.3z"/><path class="st13" d="M40.2 20.2z"/><path d="M37.5 20.2z" fill="#d3d3d3"/><path class="st133" d="M37.5 20.2z"/><path class="st44" d="M40.099999999999994 20.2c.1 0 .1 0 0 0z"/><path class="st134" d="M37.9 20.2z"/><path class="st26" d="M39.8 20.6l.2-.2.2-.2-.4.4z"/><path class="st122" d="M37.6 20.2z"/><path class="st135" d="M39.8 20.3l.1-.1-.1.1z"/><path class="st136" d="M37.6 20.2l.2.1.2.2-.4-.3z"/><path class="st80" d="M40.6 20.2z"/><path class="st11" d="M37.8 20.2l.1.2.1.3-.4-.4.2.4.1.1-.5-.4.1.1.2.2.1.1c-.1-.1-.3-.3-.5-.3l.1.1.2.2.1.1a.8.8 0 00-.4-.2l.2.2.1.1-.3-.1.2.2h.1-.3l.2.1.1.1h-.2.1-.1l.1.1h-.3l.2.1h-.1.1-.3l.2.1h-.1.1l-.4.1h.3-.1.1l-.4.1.3.1h-.2.2l-.3.1h.4-.3.2-.1l-.3.1h.4-.2.2-.3.4-.1.2-.3l.3.1h-.2.2-.1.2-.1.1l-.3.1.1.1.2-.2-.1.1v.4l.3.3c.3.2.6.5 1 .5l.2-.1-.1.1.1-.1.1-.1-.1.3-.1.2c-.1.2-.4.2-.6.1l-.2-.1h-.2H38h-.1.2-.1l-.1 1.2h.2-.1l-.1.1h.1-.1.1v.2h.1-.1H38.3l-.3.1h.2l-.1.1h.1l-.2.1h.2l-.1.1h.2l-.2.1h.2-.1.1l-.2.1h.2-.1.2l-.2.1H38.5l-.1.1h.2s-.1.1 0 .1h.1v-.1H39v-.3H39.3l-.2-.1h.2-.1l.3.1-.2-.1h.1l-.1-.1h.2l-.1-.1h.2l-.1-.1h.2l-.2-.1h.1l-.1-.1h.2l-.2-.1h.2l-.1-.1h.1l-.1-.1h.1l-.1-.1-.1-.1h.1l.1.3h.1-.1.2-.1.1-.1.2-.2l-.2.1c-.3.1-.6 0-.7-.3l-.1-.3.1.2-.1-.2c.1.2.3.2.4.2l.7-.4.4-.3.1-.3s-.1-.1 0-.1l-.1-.2.3.2.1-.1-.3-.1h.1-.1.2-.1.1-.1.3-.3.2-.2.4-.4.2-.2.3-.3.2-.2.3l-.3-.1H40.8l-.3-.1h.1-.1l.3-.1-.3-.1h.2-.1l.3-.1h-.3-.1.1-.1c.1-.1.2 0 .2 0l-.3-.1h.1-.1l.2-.1h-.3.1-.1l.2-.1h-.3l.1-.1h-.1.1-.2l.1-.1.2-.1-.3.1.1-.1.2-.2-.3.1.1-.1.2-.2-.4.2.1-.1.3-.3-.2.1-.3.2.1-.3.1-.2-.3.3-.1.1c0-.2.2-.3.3-.5l-.3.3-.1.1v-.1l.1-.4-.3.3-.1.1V21.4l-.3.2-.1.1-.1-.1-.2-.2h-.1l-.3.2-.4-.3V21.6c.3-1.1.2-1.3 0-1.4z"/><path class="st45" d="M40.1 20.2z"/><path d="M40.2 20.2z" fill="#3c3c3c"/><path class="st138" d="M37.9 20.2z"/><path d="M37.9 20.2z" fill="#3a3a3a"/><path class="st25" d="M37.1 20.3z"/><path class="st37" d="M39.8 20.2z"/><path class="st48" d="M40.1 20.3z"/><path class="st46" d="M37.6 20.3z"/><path class="st39" d="M39.7 20.3z"/><path class="st48" d="M39.9 20.4l.2-.2-.2.2z"/><path class="st33" d="M37.6 20.3z"/><path class="st140" d="M37.9 20.3z"/><path class="st141" d="M40 20.4l.2-.1-.2.1z"/><path class="st142" d="M37.1 20.3z"/><path class="st67" d="M37.3 20.3z"/><path class="st143" d="M37.7 20.3z"/><path class="st144" d="M40.4 20.3z"/><path class="st53" d="M37.3 20.3c.1 0 0 0 0 0z"/><path class="st130" d="M39.8 20.3z"/><path class="st76" d="M40.4 20.3z"/><path class="st86" d="M40.4 20.3z"/><path class="st19" d="M37.3 20.3l.2.1.3.2.1.1-.2-.2-.4-.2z"/><path class="st93" d="M37.6 20.3z"/><path class="st122" d="M40.3 20.3z"/><path class="st26" d="M40 20.6l.3-.2.2-.1-.4.2-.1.1z"/><path class="st108" d="M40.3 20.3z"/><path class="st145" d="M37.4 20.3z"/><path class="st64" d="M38 20.3z"/><path class="st23" d="M38 20.3z"/><path class="st49" d="M39.7 20.3z"/><path class="st146" d="M40.3 20.3z"/><path class="st15" d="M37.4 20.3z"/><path class="st22" d="M37.7 20.3z"/><path class="st147" d="M39.7 20.4z"/><path class="st148" d="M40.3 20.3z"/><path class="st73" d="M37.4 20.3z"/><path class="st124" d="M37.4 20.3z"/><path class="st88" d="M40.3 20.3z"/><path class="st80" d="M40.3 20.3z"/><path class="st37" d="M37.4 20.4z"/><path class="st34" d="M37.5 20.4z"/><path class="st149" d="M37.7 20.4z"/><path class="st85" d="M40.2 20.4z"/><path class="st46" d="M39.7 20.4z"/><path class="st80" d="M40.3 20.4z"/><path class="st134" d="M37.5 20.4z"/><path class="st146" d="M40.3 20.4z"/><path class="st45" d="M37.4 20.4z"/><path class="st42" d="M37.5 20.4z"/><path class="st150" d="M38 20.4z"/><path class="st55" d="M40.2 20.4z"/><path class="st74" d="M37.5 20.4z"/><path class="st125" d="M37.8 20.4z"/><path class="st42" d="M39.9 20.5l.1-.1-.1.1z"/><path class="st44" d="M40.1 20.5z"/><path class="st111" d="M40.3 20.4z"/><path class="st151" d="M37.2 20.4z"/><path class="st80" d="M37.5 20.4z"/><path class="st72" d="M37.5 20.4z"/><path class="st51" d="M38.2 20.4c0 .1 0 0 0 0z"/><path class="st151" d="M40.3 20.4z"/><path class="st72" d="M40.5 20.4z"/><path class="st37" d="M40.6 20.4z"/><path class="st136" d="M37.2 20.4l.2.1.2.2.1.1-.1-.1-.4-.3z"/><path class="st51" d="M37.2 20.4z"/><path class="st61" d="M37.5 20.4z"/><path class="st152" d="M39.7 20.4l-.1.2.1-.2z"/><path class="st75" d="M39.7 20.4z"/><path class="st87" d="M40.2 20.4z"/><path class="st109" d="M40.5 20.4z"/><path class="st19" d="M40.1 20.8l.4-.3.1-.1-.4.2-.1.2z"/><path class="st153" d="M37.2 20.4z"/><path class="st93" d="M39.6 20.4z"/><path class="st39" d="M39.6 20.4z"/><path class="st154" d="M40.5 20.4z"/><path class="st48" d="M37.2 20.4z"/><path class="st18" d="M37.5 20.4z"/><path class="st81" d="M37.6 20.4z"/><path class="st89" d="M37.8 20.4l.1.1-.1-.1z"/><path class="st39" d="M38.1 20.4z"/><path class="st109" d="M40.1 20.5z"/><path class="st134" d="M40.5 20.5z"/><path class="st130" d="M37.3 20.4z"/><path class="st38" d="M40.5 20.4z"/><path class="st54" d="M37.3 20.4z"/><path class="st38" d="M40.5 20.4z"/><path class="st15" d="M37.2 20.4z"/><path class="st42" d="M37.3 20.4z"/><path class="st66" d="M37.5 20.4z"/><path class="st155" d="M38.1 20.5l.1.2v-.1l-.1-.1c.1 0 0 0 0 0z"/><path class="st84" d="M39.9 20.4z"/><path class="st129" d="M40.4 20.5z"/><path class="st118" d="M37.2 20.5z"/><path class="st31" d="M40 20.6l.2-.2-.2.2z"/><path class="st156" d="M37.6 20.5z"/><path class="st25" d="M38.2 20.5z"/><path class="st33" d="M40.4 20.5z"/><path class="st90" d="M40.5 20.5z"/><path class="st124" d="M37.2 20.5z"/><path class="st73" d="M39.6 20.5z"/><path class="st157" d="M40.4 20.5z"/><path class="st158" d="M37.3 20.5z"/><path class="st159" d="M37.6 20.5z"/><path class="st104" d="M38.1 20.5z"/><path class="st98" d="M39.8 20.5z"/><path class="st75" d="M39.9 20.7l.2-.2-.2.2z"/><path class="st128" d="M40.3 20.5z"/><path class="st33" d="M40.5 20.5z"/><path class="st100" d="M37.3 20.5z"/><path class="st110" d="M37.7 20.5z"/><path class="st102" d="M37.9 20.5z"/><path class="st101" d="M40.4 20.5z"/><path class="st160" d="M37.3 20.5z"/><path class="st149" d="M37.6 20.5z"/><path class="st161" d="M37.7 20.5z"/><path class="st75" d="M38.2 20.5z"/><path class="st55" d="M39.5 20.5v.1-.1z"/><path class="st134" d="M39.5 20.5z"/><path class="st57" d="M39.8 20.5z"/><path class="st162" d="M40.4 20.5z"/><path class="st163" d="M37.4 20.5z"/><path class="st73" d="M40.2 20.6l.1-.1-.1.1z"/><path class="st43" d="M37.9 20.5l.1.2-.1-.2z"/><path class="st68" d="M39.8 20.5l-.1.2.1-.2z"/><path class="st128" d="M40.4 20.5z"/><path class="st61" d="M37.4 20.5z"/><path class="st104" d="M40.4 20.5z"/><path class="st108" d="M37.4 20.5z"/><path class="st156" d="M37.4 20.5z"/><path class="st15" d="M37.4 20.5z"/><path class="st77" d="M37.7 20.5l.1.1-.1-.1z"/><path class="st64" d="M40.3 20.6z"/><path class="st36" d="M37 20.6z"/><path d="M37.5 20.6z" fill="#373737"/><path class="st49" d="M37.9 20.6z"/><path class="st46" d="M40.7 20.6z"/><path class="st15" d="M40.7 20.6z"/><path class="st26" d="M37.1 20.6l.3.2.1.1c-.1-.2-.3-.3-.4-.3z"/><path class="st157" d="M37.1 20.6z"/><path class="st84" d="M37.4 20.6z"/><path class="st17" d="M38 20.6z"/><path class="st89" d="M39.7 20.6z"/><path class="st32" d="M40.6 20.6z"/><path class="st26" d="M40.3 20.8l.3-.2.1-.1-.4.3z"/><path class="st29" d="M38.2 20.6z"/><path class="st162" d="M40.6 20.6z"/><path class="st72" d="M37 20.6z"/><path class="st74" d="M37.1 20.6z"/><path class="st98" d="M37.4 20.6z"/><path class="st32" d="M39.5 20.6z"/><path class="st40" d="M40.6 20.6z"/><path class="st113" d="M37.5 20.6z"/><path class="st58" d="M39.7 20.6z"/><path class="st47" d="M40.7 20.6z"/><path class="st78" d="M37.1 20.6z"/><path class="st31" d="M37.5 20.6z"/><path class="st165" d="M37.8 20.6z"/><path class="st18" d="M40.3 20.6z"/><path class="st45" d="M40.6 20.6z"/><path class="st93" d="M40.6 20.6z"/><path class="st85" d="M37.1 20.6z"/><path d="M39.9 20.8l.1-.1c-.1-.1-.1 0-.1.1z" fill="#dadada"/><path class="st92" d="M40.2 20.6z"/><path class="st14" d="M40.5 20.6z"/><path class="st109" d="M40.6 20.6z"/><path class="st135" d="M37.2 20.6z"/><path class="st155" d="M37.5 20.6z"/><path class="st127" d="M40.1 20.7z"/><path class="st34" d="M40.5 20.6z"/><path class="st45" d="M40.6 20.7z"/><path class="st128" d="M40.2 20.7z"/><path class="st154" d="M40.5 20.6z"/><path class="st74" d="M37.1 20.7z"/><path class="st28" d="M37.2 20.6z"/><path class="st17" d="M40.5 20.7z"/><path class="st56" d="M37.1 20.7z"/><path class="st149" d="M37.5 20.7z"/><path class="st59" d="M37.6 20.7z"/><path class="st33" d="M39.9 20.7z"/><path class="st119" d="M40.5 20.7z"/><path class="st101" d="M40.4 20.7z"/><path class="st24" d="M37.2 20.7z"/><path class="st14" d="M38 20.7z"/><path class="st30" d="M39.7 20.7z"/><path class="st39" d="M40.5 20.7z"/><path class="st88" d="M40.1 20.7z"/><path class="st151" d="M40.5 20.7z"/><path class="st36" d="M37.2 20.7z"/><path class="st45" d="M40.4 20.7z"/><path class="st111" d="M37.2 20.7z"/><path class="st147" d="M37.3 20.7z"/><path class="st17" d="M37.3 20.7z"/><path class="st87" d="M40.4 20.7z"/><path class="st101" d="M37.3 20.7z"/><path class="st16" d="M37.3 20.7z"/><path class="st56" d="M37.4 20.7z"/><path class="st104" d="M37.3 20.7z"/><path class="st128" d="M40.4 20.7z"/><path class="st80" d="M37.3 20.7z"/><path class="st146" d="M37.4 20.7z"/><path class="st64" d="M40.1 20.8z"/><path class="st17" d="M40.3 20.7z"/><path class="st97" d="M40.4 20.7z"/><path class="st88" d="M37.3 20.7z"/><path class="st17" d="M37.4 20.7z"/><path class="st104" d="M37.9 20.8z"/><path class="st107" d="M39.8 20.7z"/><path d="M40.1 20.7z" fill="#d4d4d4"/><path class="st84" d="M37.3 20.8z"/><path class="st147" d="M37.9 20.8z"/><path class="st89" d="M39.8 20.8z"/><path class="st22" d="M40.3 20.8s-.1 0 0 0z"/><path class="st126" d="M40.4 20.8z"/><path class="st54" d="M37 20.8z"/><path class="st22" d="M37.7 20.8z"/><path class="st142" d="M40.7 20.8z"/><path class="st145" d="M37 20.8z"/><path class="st16" d="M37.4 20.8z"/><path class="st168" d="M37.4 20.8z"/><path class="st119" d="M40.1 20.8z"/><path class="st80" d="M40.3 20.8z"/><path class="st98" d="M40.7 20.8z"/><path class="st15" d="M40.8 20.8z"/><path class="st94" d="M37 20.8z"/><path class="st19" d="M37 20.8l.3.1-.3-.1z"/><path class="st159" d="M37.1 20.8z"/><path class="st78" d="M40 20.8z"/><path class="st99" d="M40.6 20.8z"/><path class="st169" d="M40.5 20.9l.2-.1h0l-.2.1z"/><path class="st57" d="M37.1 20.8z"/><path class="st157" d="M37.4 20.8z"/><path class="st80" d="M37.7 20.8z"/><path class="st37" d="M40.7 20.8z"/><path class="st98" d="M37.4 20.8z"/><path class="st141" d="M37.7 20.8z"/><path class="st17" d="M40.3 20.8z"/><path class="st39" d="M37.1 20.8z"/><path class="st88" d="M37.4 20.8z"/><path class="st51" d="M40.6 20.8z"/><path class="st99" d="M40.6 20.8z"/><path class="st24" d="M37 20.8z"/><path class="st141" d="M37.2 20.8z"/><path class="st55" d="M37.5 20.8z"/><path class="st107" d="M40.7 20.8z"/><path class="st36" d="M40.2 20.9z"/><path class="st45" d="M40.5 20.8z"/><path class="st34" d="M37.1 20.8z"/><path class="st156" d="M40.5 20.9z"/><path class="st118" d="M40.6 20.8z"/><path class="st158" d="M37.1 20.9z"/><path class="st15" d="M37.2 20.9z"/><path class="st75" d="M40.2 20.9z"/><path class="st88" d="M40.6 20.9z"/><path class="st147" d="M37.1 20.9z"/><path class="st84" d="M40.6 20.9z"/><path class="st140" d="M37.2 20.9z"/><path class="st36" d="M40.6 20.9z"/><path class="st170" d="M37.2 20.9z"/><path class="st171" d="M38.3 20.9v.2l-.5-.1v.2h-.3l.1.2-.2.2.1.1.3.2.2.1h.1v.3l.1 1-.4-.1.2.1.1.1.2.1H39.3l.2-.1.2-.1-.4.1.1-1v-.2-.1l.1-.1.4-.3.2-.2-.2-.1.1-.2h-.3V21l-.5.2V21l-.6.4-.2-.2c.2-.1.1-.3-.1-.3z"/><path class="st97" d="M40.6 20.9z"/><path class="st156" d="M37.2 20.9z"/><path class="st44" d="M40.5 20.9z"/><path class="st84" d="M37.2 20.9z"/><path class="st151" d="M40.5 20.9z"/><path class="st87" d="M37.2 20.9z"/><path class="st23" d="M40.5 20.9z"/><path class="st135" d="M37.3 20.9z"/><path class="st53" d="M40.4 20.9z"/><path class="st172" d="M40.7 21h.1-.1z"/><path class="st33" d="M36.9 21c.1 0 0 0 0 0z"/><path class="st148" d="M37 21z"/><path class="st17" d="M40.8 21z"/><path class="st26" d="M40.5 21.1l.3-.1-.3.1zM36.9 21l.3.1-.3-.1z"/><path class="st173" d="M37 21z"/><path class="st56" d="M40.6 21h.1-.1z"/><path class="st87" d="M37.1 21z"/><path class="st126" d="M37.1 21zM37.1 21z"/><path class="st86" d="M40.5 21z"/><path class="st100" d="M37.2 21z"/><path class="st80" d="M37 21z"/><path class="st160" d="M40.6 21.1h.1-.1z"/><path class="st75" d="M37 21h.1-.1z"/><path class="st174" d="M37 21z"/><path class="st106" d="M37.1 21.1z"/><path class="st156" d="M37.1 21.1z"/><path class="st102" d="M37.2 21.1z"/><path class="st122" d="M40.5 21.1z"/><path class="st107" d="M37.1 21.1z"/><path class="st54" d="M37.2 21.1z"/><path class="st14" d="M40.5 21.1z"/><path class="st81" d="M40.7 21.2h.1c.1-.1 0 0-.1 0z"/><path class="st125" d="M36.9 21.2h.1-.1z"/><path class="st38" d="M40.8 21.2z"/><path class="st134" d="M36.9 21.2z"/><path class="st101" d="M36.9 21.2z"/><path class="st160" d="M36.9 21.2z"/><path class="st147" d="M37 21.2h.1-.1z"/><path class="st111" d="M40.6 21.2z"/><path class="st68" d="M40.7 21.2h.1-.1z"/><path class="st65" d="M40.9 21.2z"/><path class="st136" d="M36.9 21.2l.3.1-.3-.1z"/><path class="st138" d="M37 21.2h.1-.1z"/><path class="st93" d="M37.1 21.2z"/><path class="st22" d="M40.6 21.2h.1-.1z"/><path class="st19" d="M40.6 21.2h.3-.3z"/><path class="st30" d="M36.9 21.2z"/><path class="st37" d="M37.1 21.2z"/><path class="st99" d="M40.6 21.2z"/><path class="st61" d="M40.8 21.2z"/><path class="st41" d="M36.9 21.2z"/><path class="st60" d="M40.6 21.2z"/><path class="st80" d="M40.8 21.2z"/><path class="st77" d="M36.9 21.2z"/><path class="st84" d="M36.9 21.2z"/><path class="st25" d="M37.1 21.2z"/><path class="st57" d="M40.8 21.2z"/><path class="st72" d="M36.9 21.2z"/><path class="st86" d="M40.8 21.2z"/><path class="st138" d="M37.1 21.2z"/><path class="st92" d="M40.5 21.2z"/><path class="st71" d="M40.7 21.2z"/><path class="st85" d="M37 21.2h.1-.1z"/><path class="st72" d="M37.2 21.2H37s.2.1.2 0z"/><path class="st87" d="M40.6 21.2z"/><path class="st65" d="M36.8 21.3h0m3.9 0h0z"/><path class="st174" d="M36.8 21.3h.2-.2z"/><path class="st16" d="M37 21.3z"/><path class="st174" d="M40.7 21.3h.2-.2z"/><path class="st136" d="M36.8 21.3h0z"/><path class="st25" d="M37.1 21.3z"/><path class="st55" d="M40.7 21.3z"/><path class="st136" d="M40.6 21.4h.3-.3z"/><path class="st29" d="M36.8 21.3z"/><path class="st88" d="M37.1 21.3z"/><path class="st40" d="M40.6 21.3z"/><path class="st56" d="M37.1 21.3z"/><path class="st170" d="M40.6 21.3z"/><path class="st25" d="M37.1 21.3c0 .1 0 .1 0 0h-.3.3z"/><path class="st97" d="M40.6 21.4h.3-.3z"/><path class="st101" d="M40.9 21.3z"/><path class="st29" d="M36.8 21.4z"/><path class="st93" d="M40.9 21.4z"/><path class="st103" d="M36.8 21.5h.2-.2z"/><path class="st111" d="M40.8 21.5z"/><path class="st40" d="M36.9 21.5h-.1.1c0-.1-.1-.1-.1 0s0 0 .1 0z"/><path class="st136" d="M36.8 21.5h.3-.3z"/><path class="st151" d="M37 21.5z"/><path class="st140" d="M40.7 21.5c.1 0 .1 0 0 0z"/><path class="st135" d="M40.8 21.5h.1-.1z"/><path class="st142" d="M40.9 21.5c.1 0 .1 0 0 0z"/><path class="st175" d="M37 21.5z"/><path class="st104" d="M40.7 21.5z"/><path class="st26" d="M40.7 21.5h.3-.3z"/><path class="st120" d="M40.8 21.5h.1-.1z"/><path class="st94" d="M36.7 21.5z"/><path class="st154" d="M40.7 21.5z"/><path class="st84" d="M37 21.5z"/><path class="st63" d="M37.1 21.5H37h.1z"/><path class="st156" d="M40.7 21.5z"/><path class="st176" d="M40.6 21.5z"/><path class="st93" d="M41 21.5z"/><path class="st100" d="M41 21.5z"/><path class="st18" d="M36.9 21.5z"/><path class="st173" d="M37 21.5z"/><path class="st36" d="M40.7 21.5h.1-.1z"/><path class="st53" d="M40.9 21.5z"/><path class="st76" d="M36.9 21.5z"/><path class="st158" d="M40.8 21.5h.2-.2z"/><path class="st12" d="M38.2 22.8v-.4.4-.8l-.4-.1h.3l-.1-.1-.3-.1.4.1-.4-.2-.3-.1h-.1l-.1.1c-.1.1-.2.2-.1.3l.3.1.5.2h.2l.1.1v.5zM39.6 21.9l.4-.1-.4.1h.3l-.3.1v.8l.1-.3v-.1V22.6l.1-.3.1-.2h.2l.6-.2.2-.1-.2-.3-.1-.1-.2.1-.4.2-.4.2z"/><path class="st37" d="M36.9 21.6z"/><path class="st135" d="M40.7 21.7z"/><path class="st63" d="M36.8 21.7z"/><path class="st19" d="M36.6 21.7h.4-.3-.1z"/><path class="st109" d="M37 21.7z"/><path class="st168" d="M40.7 21.7h.2c-.1-.1-.2 0-.2 0z"/><path class="st126" d="M40.8 21.7z"/><path class="st177" d="M40.9 21.7z"/><path class="st76" d="M37 21.7z"/><path class="st136" d="M40.7 21.7l.4.1H41c-.1-.1-.2-.2-.3-.1z"/><path class="st161" d="M40.9 21.7z"/><path class="st96" d="M36.8 21.7z"/><path class="st92" d="M36.7 21.7z"/><path class="st140" d="M37 21.7z"/><path class="st151" d="M37 21.7z"/><path class="st52" d="M41 21.7z"/><path class="st144" d="M41 21.7z"/><path class="st108" d="M36.7 21.7z"/><path class="st61" d="M41 21.7z"/><path class="st97" d="M36.6 21.7z"/><path class="st24" d="M40.7 21.7z"/><path class="st25" d="M41 21.7z"/><path class="st86" d="M36.9 21.7z"/><path class="st52" d="M40.8 21.7z"/><path class="st47" d="M36.6 21.7z"/><path class="st60" d="M36.8 21.7z"/><path class="st140" d="M40.8 21.7z"/><path class="st107" d="M41.1 21.7z"/><path class="st98" d="M40.9 21.7z"/><path class="st140" d="M36.7 21.7z"/><path class="st75" d="M36.8 21.7z"/><path class="st82" d="M41 21.7z"/><path class="st106" d="M36.7 21.7z"/><path class="st18" d="M41 21.7z"/><path class="st12" d="M37.7 21.8l.3.1.1.1h-.3l.3.1V22H38c0-.2-.1-.2-.3-.2zM39.6 21.9l-.1.3v-.1l.3-.2h-.2l.4-.1-.4.1z"/><path class="st122" d="M36.8 21.8z"/><path class="st129" d="M40.9 21.8h.1-.1z"/><path class="st145" d="M36.7 21.8z"/><path class="st155" d="M36.8 21.8z"/><path class="st96" d="M38.1 21.8z"/><path class="st174" d="M40.9 21.8z"/><path class="st44" d="M36.7 21.8z"/><path class="st136" d="M36.5 21.9h.1l.3-.1-.4.1z"/><path class="st38" d="M36.9 21.8z"/><path class="st161" d="M40.8 21.9h.1c0-.1-.1-.1-.1 0z"/><path class="st136" d="M40.8 21.9l.3.1h.1c-.1-.1-.2-.2-.4-.1z"/><path class="st78" d="M41 21.8z"/><path class="st178" d="M36.6 21.9z"/><path class="st119" d="M36.9 21.9z"/><path class="st130" d="M40.8 21.9z"/><path class="st60" d="M41 21.9z"/><path class="st68" d="M36.5 21.9h.1-.1z"/><path class="st90" d="M36.9 21.9z"/><path class="st41" d="M41.1 21.9z"/><path class="st69" d="M36.6 21.9z"/><path class="st13" d="M41.1 21.9z"/><path class="st147" d="M40.8 21.9z"/><path class="st159" d="M40.8 21.9z"/><path class="st170" d="M41.2 21.9z"/><path class="st104" d="M36.9 21.9z"/><path class="st31" d="M40.9 21.9z"/><path class="st104" d="M36.5 21.9z"/><path class="st64" d="M36.8 21.9z"/><path class="st155" d="M40.9 21.9z"/><path class="st151" d="M41.2 21.9z"/><path class="st80" d="M40.9 21.9z"/><path d="M36.7 21.9z" fill="#b8b8b8"/><path class="st61" d="M41 21.9z"/><path class="st103" d="M36.5 21.9z"/><path class="st46" d="M41.2 21.9z"/><path class="st80" d="M36.6 21.9z"/><path class="st73" d="M41.1 21.9z"/><path class="st46" d="M36.7 22z"/><path class="st36" d="M40.9 22z"/><path class="st54" d="M36.7 22z"/><path class="st136" d="M36.5 22.1h.4c-.1-.1-.3 0-.4 0z"/><path class="st111" d="M36.8 22z"/><path class="st136" d="M40.8 22.1l.3.1h.1L41 22l-.2.1z"/><path class="st69" d="M41 22z"/><path class="st87" d="M36.6 22z"/><path class="st161" d="M36.8 22z"/><path class="st62" d="M38.2 22v.1-.1z"/><path class="st90" d="M40.8 22.1z"/><path class="st129" d="M41.1 22z"/><path class="st51" d="M36.6 22.1z"/><path class="st65" d="M41.1 22.1z"/><path class="st83" d="M36.5 22.1z"/><path class="st86" d="M36.5 22.1z"/><path class="st170" d="M36.9 22.1z"/><path class="st123" d="M41.2 22.1z"/><path class="st29" d="M36.5 22.1z"/><path class="st28" d="M41.2 22.1z"/><path class="st116" d="M41.2 22.1z"/><path class="st63" d="M36.8 22.1z"/><path class="st175" d="M41.2 22.1z"/><path class="st51" d="M41.3 22.1z"/><path class="st129" d="M36.5 22.1z"/><path class="st107" d="M40.9 22.1z"/><path class="st158" d="M36.7 22.1z"/><path class="st33" d="M41 22.1z"/><path class="st67" d="M41.3 22.1z"/><path class="st154" d="M36.7 22.1z"/><path class="st122" d="M41 22.1z"/><path class="st129" d="M36.7 22.1z"/><path class="st53" d="M41 22.1z"/><path class="st73" d="M41.1 22.1z"/><path class="st142" d="M41.2 22.1z"/><path class="st37" d="M36.5 22.1z"/><path class="st141" d="M36.6 22.1z"/><path class="st29" d="M36.5 22.1z"/><path class="st30" d="M41.1 22.1z"/><path class="st125" d="M39.5 22.2z"/><path class="st143" d="M38.3 22.2v.1-.1z"/><path class="st34" d="M36.7 22.2z"/><path class="st56" d="M40.9 22.2z"/><path class="st40" d="M36.7 22.2z"/><path class="st136" d="M36.5 22.3h.4c-.1-.1-.3 0-.4 0z"/><path class="st111" d="M36.8 22.2z"/><path class="st71" d="M40.9 22.2z"/><path class="st19" d="M40.8 22.3h.5-.5z"/><path class="st45" d="M41 22.2z"/><path class="st117" d="M41 22.2z"/><path class="st56" d="M36.7 22.2z"/><path class="st58" d="M36.8 22.2z"/><path class="st57" d="M40.8 22.2z"/><path class="st36" d="M41 22.2z"/><path class="st151" d="M36.6 22.2z"/><path class="st122" d="M36.9 22.2c0 .1 0 .1 0 0z"/><path class="st47" d="M39.5 22.2z"/><path class="st14" d="M40.8 22.3z"/><path class="st146" d="M41.1 22.2z"/><path class="st93" d="M36.5 22.3z"/><path class="st55" d="M41.1 22.3z"/><path class="st115" d="M36.5 22.3z"/><path class="st109" d="M41.2 22.3z"/><path class="st13" d="M40.9 22.3z"/><path class="st74" d="M41.2 22.3z"/><path class="st72" d="M36.4 22.3z"/><path class="st85" d="M36.8 22.3z"/><path class="st88" d="M41.2 22.3z"/><path class="st125" d="M41.3 22.3z"/><path class="st159" d="M36.4 22.3z"/><path class="st39" d="M36.7 22.3z"/><path class="st16" d="M41 22.3z"/><path class="st52" d="M36.7 22.3z"/><path class="st92" d="M41 22.3z"/><path class="st90" d="M36.5 22.3z"/><path class="st127" d="M41 22.3z"/><path class="st54" d="M36.5 22.3z"/><path class="st106" d="M36.5 22.3h.1-.1z"/><path class="st51" d="M41 22.3z"/><path class="st68" d="M41.1 22.3z"/><path class="st63" d="M41.2 22.3z"/><path class="st13" d="M36.6 22.3z"/><path class="st62" d="M39.5 22.3v.1-.1z"/><path class="st134" d="M41.1 22.3z"/><path class="st79" d="M38.3 22.4z"/><path class="st76" d="M36.7 22.4z"/><path class="st101" d="M36.7 22.4z"/><path class="st130" d="M36.7 22.4z"/><path class="st14" d="M40.9 22.4h.1-.1z"/><path class="st136" d="M36.4 22.5h.4c-.1-.1-.2-.1-.4 0z"/><path class="st85" d="M36.7 22.4z"/><path class="st155" d="M40.9 22.4h.1-.1z"/><path class="st136" d="M40.9 22.4l.4.1-.3-.1h-.1z"/><path class="st172" d="M41.1 22.4z"/><path class="st97" d="M36.8 22.4z"/><path class="st129" d="M36.9 22.4c-.1 0 0 0 0 0z"/><path class="st28" d="M40.8 22.4z"/><path class="st160" d="M41.1 22.4z"/><path class="st163" d="M41.1 22.4z"/><path class="st28" d="M36.6 22.4z"/><path class="st153" d="M41.1 22.4z"/><path class="st65" d="M41.1 22.4z"/><path class="st15" d="M36.5 22.4z"/><path class="st78" d="M36.6 22.4z"/><path class="st98" d="M41.2 22.4z"/><path class="st141" d="M36.5 22.4z"/><path class="st92" d="M36.5 22.4z"/><path class="st98" d="M36.8 22.4z"/><path class="st85" d="M41.2 22.4z"/><path class="st143" d="M41.2 22.4z"/><path class="st52" d="M36.4 22.5c.1-.1 0 0 0 0z"/><path class="st44" d="M41.2 22.4zM36.7 22.5z"/><path class="st81" d="M38.3 22.5z"/><path class="st78" d="M41.3 22.5z"/><path class="st148" d="M36.4 22.5z"/><path class="st87" d="M41 22.5z"/><path class="st38" d="M41.3 22.5z"/><path class="st33" d="M36.6 22.5z"/><path class="st102" d="M41.1 22.5z"/><path class="st46" d="M36.6 22.5z"/><path class="st103" d="M41.1 22.5z"/><path class="st155" d="M41.1 22.5z"/><path class="st63" d="M36.4 22.5z"/><path class="st25" d="M41.2 22.5h.1-.1z"/><path class="st148" d="M36.5 22.5z"/><path class="st58" d="M36.5 22.5z"/><path class="st81" d="M41.2 22.5z"/><path class="st125" d="M38.3 22.5v.2-.2z"/><path class="st56" d="M36.7 22.6z"/><path class="st92" d="M40.9 22.6z"/><path class="st67" d="M41 22.6z"/><path class="st147" d="M36.6 22.6z"/><path class="st19" d="M36.5 22.6h.4-.4z"/><path class="st87" d="M36.8 22.6z"/><path class="st129" d="M40.9 22.6z"/><path class="st26" d="M40.9 22.6c.1.1.2 0 .4 0h-.4z"/><path class="st122" d="M41.1 22.6z"/><path class="st119" d="M36.6 22.6z"/><path class="st104" d="M36.8 22.6z"/><path class="st106" d="M40.8 22.6h0z"/><path class="st32" d="M41.1 22.6z"/><path class="st126" d="M36.5 22.6z"/><path class="st107" d="M36.8 22.6h.1-.1z"/><path class="st162" d="M41.2 22.6z"/><path class="st49" d="M36.5 22.6c0 .1 0 .1 0 0z"/><path class="st28" d="M41.2 22.6z"/><path class="st72" d="M36.5 22.6z"/><path class="st97" d="M40.8 22.6z"/><path class="st41" d="M41.2 22.6z"/><path class="st158" d="M36.8 22.6z"/><path class="st103" d="M39.4 22.6v.3-.3z"/><path class="st93" d="M40.9 22.6h.2-.2z"/><path class="st40" d="M36.7 22.7z"/><path class="st63" d="M41.1 22.7z"/><path class="st133" d="M36.5 22.7z"/><path class="st93" d="M36.5 22.7z"/><path class="st95" d="M36.6 22.7z"/><path class="st30" d="M36.7 22.7z"/><path class="st162" d="M36.6 22.7z"/><path class="st154" d="M36.7 22.8h.2c-.1-.1-.1 0-.2 0z"/><path class="st57" d="M40.8 22.8h.1-.1z"/><path class="st26" d="M36.6 22.8h.4c-.1-.1-.3 0-.4 0m4.1 0h.4-.4z"/><path class="st173" d="M41 22.8z"/><path class="st14" d="M36.7 22.8z"/><path class="st158" d="M36.9 22.8z"/><path class="st46" d="M40.7 22.8h.1-.1z"/><path class="st14" d="M41 22.8z"/><path class="st32" d="M36.6 22.8z"/><path class="st85" d="M37 22.8z"/><path class="st150" d="M37 22.8z"/><path class="st54" d="M40.7 22.8z"/><path class="st94" d="M41.1 22.8z"/><path class="st47" d="M36.6 22.8z"/><path class="st149" d="M41.1 22.8z"/><path class="st106" d="M41.1 22.8z"/><path class="st141" d="M40.8 22.8z"/><path class="st34" d="M36.8 22.8z"/><path class="st135" d="M40.9 22.8z"/><path class="st14" d="M36.6 22.8z"/><path class="st180" d="M36.7 22.8z"/><path class="st80" d="M36.7 22.8z"/><path class="st50" d="M41 22.8z"/><path class="st73" d="M41 22.8z"/><path class="st51" d="M36.7 22.8z"/><path class="st146" d="M41 22.8z"/><path class="st80" d="M36.9 22.9z"/><path class="st88" d="M40.7 22.9h0z"/><path class="st54" d="M36.8 22.9z"/><path class="st153" d="M36.9 22.9z"/><path class="st136" d="M36.8 23H37.1h-.3z"/><path class="st86" d="M37 22.9z"/><path class="st76" d="M37 22.9z"/><path class="st100" d="M40.7 22.9z"/><path class="st26" d="M40.6 23h.3-.3z"/><path class="st66" d="M36.8 23c0-.1 0 0 0 0z"/><path class="st58" d="M37 23z"/><path class="st48" d="M40.6 23z"/><path class="st163" d="M40.9 23z"/><path class="st106" d="M37.1 23z"/><path class="st16" d="M37.1 23z"/><path class="st39" d="M40.9 23z"/><path class="st149" d="M37 23z"/><path class="st119" d="M37.1 23z"/><path class="st102" d="M36.8 23h.1-.1z"/><path class="st73" d="M37 23z"/><path class="st107" d="M40.7 23h.1-.1z"/><path class="st34" d="M36.8 23z"/><path class="st47" d="M36.9 23h.2-.2z"/><path class="st38" d="M40.9 23z"/><path class="st110" d="M36.8 23z"/><path class="st118" d="M40.8 23z"/><path class="st103" d="M40.9 23z"/><path class="st32" d="M37 23.1z"/><path class="st30" d="M40.7 23.1z"/><path class="st69" d="M37 23.1z"/><path class="st26" d="M36.9 23.2h.3-.3z"/><path class="st119" d="M37.1 23.1z"/><path class="st44" d="M40.6 23.1z"/><path class="st26" d="M40.6 23.1h.3-.3z"/><path class="st69" d="M40.7 23.1z"/><path class="st54" d="M36.9 23.1c0 .1 0 .1 0 0z"/><path class="st85" d="M37.1 23.1z"/><path class="st94" d="M37.1 23.1z"/><path class="st71" d="M40.5 23.1h.2-.2z"/><path class="st98" d="M40.8 23.1z"/><path class="st145" d="M37.1 23.1z"/><path class="st31" d="M36.9 23.1z"/><path class="st45" d="M40.8 23.1z"/><path class="st69" d="M37.1 23.2z"/><path class="st156" d="M37 23.2h.1-.1z"/><path class="st82" d="M38 23.2z"/><path class="st28" d="M40.7 23.2z"/><path class="st103" d="M37 23.2z"/><path class="st15" d="M40.6 23.2z"/><path class="st24" d="M37.1 23.2z"/><path class="st146" d="M37.2 23.2z"/><path class="st24" d="M40.5 23.2z"/><path class="st110" d="M37.1 23.2z"/><path class="st26" d="M37 23.4l.2-.1c0-.1-.2-.1-.2.1z"/><path class="st157" d="M37.2 23.2z"/><path class="st18" d="M40.4 23.3z"/><path class="st136" d="M40.5 23.3h.3-.3z"/><path class="st31" d="M40.6 23.2z"/><path class="st124" d="M37.1 23.3z"/><path class="st153" d="M37.1 23.3z"/><path class="st119" d="M37.1 23.3z"/><path class="st145" d="M37.3 23.3z"/><path class="st100" d="M40.6 23.3z"/><path class="st107" d="M37.1 23.3z"/><path class="st14" d="M37.1 23.3h.1-.1z"/><path class="st128" d="M40.5 23.3z"/><path class="st140" d="M40.6 23.3z"/><path class="st64" d="M37 23.3z"/><path class="st106" d="M37.2 23.3z"/><path class="st38" d="M40.7 23.3z"/><path class="st128" d="M37 23.3z"/><path class="st173" d="M40.5 23.3z"/><path class="st170" d="M40.7 23.3z"/><path class="st117" d="M38.5 23.3h.1-.1z"/><path class="st163" d="M39.2 23.3z"/><path class="st135" d="M40.5 23.3z"/><path class="st97" d="M40.7 23.3z"/><path d="M37 23.3z" fill="#b6b6b6"/><path d="M38.1 23.4l.1.1-.3-.1.3.2-.4-.2.1.1.3.2.5.3.2.1.2-.1.4-.3.3-.2.1-.1-.4.1.3-.2-.3.1h.1-.2l-.2-.1H38.3l-.2.1z" fill="#191919"/><path class="st177" d="M39 23.3h.1-.1z"/><path class="st110" d="M37 23.3z"/><path class="st79" d="M38.7 23.3h.2-.2z"/><path class="st42" d="M40.6 23.3z"/><path class="st103" d="M40.7 23.3z"/><path class="st175" d="M37.1 23.3z"/><path class="st17" d="M37.1 23.3z"/><path class="st44" d="M37.1 23.3z"/><path class="st171" d="M38.8 24.4l-.2.1h-.1c-.3 0-.6-.3-.8-.5l-.3-.3c-.1-.1 0-.3 0-.4l-.1.1-.1.6.3.2c.3.2.5.4.8.4.2.1.4 0 .5-.2z"/><path class="st97" d="M40.6 23.3z"/><path class="st115" d="M40.7 23.3z"/><path class="st92" d="M37.1 23.3z"/><path class="st41" d="M40.6 23.3z"/><path class="st49" d="M37 23.4z"/><path class="st97" d="M40.7 23.4z"/><path class="st72" d="M37.2 23.4c0 .1 0 0 0 0z"/><path class="st171" d="M40.5 23.4v.3c0 .2-.2.3-.4.4l-.5.3c-.2.1-.6.3-.7 0l.1.3h.4l.4-.2.4-.2.4-.2v-.5l-.1-.2z"/><path class="st178" d="M37.2 23.5zM37.1 23.7v.2-.2z"/><path class="st15" d="M40.6 23.7v.2-.2z"/><path class="st20" d="M40.6 23.8v.2-.2z"/><path class="st67" d="M37.1 23.9z"/><path class="st143" d="M37.1 24.1z"/><path class="st133" d="M37.2 24.2z"/><path class="st178" d="M37.3 24.2z"/><path class="st163" d="M40.4 24.2z"/><path class="st115" d="M37.3 24.2z"/><path class="st79" d="M37.4 24.3z"/><path class="st178" d="M40.3 24.3z"/><path class="st96" d="M37.5 24.3z"/><path class="st178" d="M40.1 24.4z"/><path class="st81" d="M37.7 24.4z"/><path class="st133" d="M37.7 24.5z"/><path class="st110" d="M39 24.5l.1.1-.1-.1z"/><path class="st96" d="M39.8 24.6z"/><path class="st115" d="M37.9 24.5z"/><path class="st165" d="M38.1 24.7c.2.1.5.1.6-.1l-.2.1h-.4z"/><path class="st144" d="M39.1 24.6z"/><path class="st163" d="M40 24.7z"/><path class="st99" d="M37.7 24.7z"/><path class="st46" d="M40 24.7z"/><path class="st26" d="M37.6 24.7h.2c0-.1-.1 0-.2 0z"/><path class="st124" d="M37.8 24.7z"/><path class="st165" d="M39.2 24.7h.4-.4z"/><path class="st21" d="M39.9 24.7h.2c-.1 0-.2-.1-.2 0z"/><path class="st126" d="M40 24.7z"/><path class="st115" d="M37.7 24.7z"/><path class="st118" d="M37.7 24.7z"/><path class="st75" d="M37.8 24.7z"/><path class="st160" d="M40 24.7z"/><path class="st146" d="M37.6 24.7z"/><path class="st115" d="M37.6 24.7z"/><path class="st134" d="M40.1 24.7z"/><path class="st135" d="M37.8 24.7z"/><path class="st72" d="M37.8 24.7z"/><path class="st109" d="M39.9 24.7h.1-.1z"/><path class="st145" d="M37.7 24.7z"/><path class="st156" d="M40 24.7z"/><path class="st109" d="M40 24.7z"/><path class="st143" d="M37.7 24.7z"/><path class="st128" d="M37.7 24.7z"/><path class="st153" d="M37.7 24.8h.1-.1.2-.2z"/><path class="st73" d="M39.9 24.8h.1-.1z"/><path class="st120" d="M37.7 24.8h.1-.1z"/><path class="st128" d="M37.8 24.8z"/><path class="st152" d="M39.9 24.8z"/><path class="st69" d="M40 24.8z"/><path class="st36" d="M40 24.8z"/><path class="st83" d="M40.1 24.8z"/><path class="st123" d="M37.7 24.8z"/><path class="st54" d="M39.9 24.8z"/><path class="st101" d="M37.9 24.9z"/><path class="st16" d="M37.800000000000004 24.9h.1-.1z"/><path class="st168" d="M39.8 24.9z"/><path class="st39" d="M39.8 24.9z"/><path class="st13" d="M39.9 24.9z"/><path class="st82" d="M37.8 24.9z"/><path d="M37.7 24.9h0z" fill="#f0f0f0"/><path class="st169" d="M39.8 24.9h.2-.2z"/><path class="st24" d="M39.9 24.9z"/><path class="st76" d="M37.7 24.9z"/><path class="st99" d="M37.9 24.9z"/><path class="st30" d="M37.7 24.9z"/><path d="M37.8 24.9z" fill="#d2d2d2"/><path class="st145" d="M39.8 24.9z"/><path class="st180" d="M39.8 24.9h.1-.1z"/><path class="st100" d="M40 24.9z"/><path class="st185" d="M37.7 24.9z"/><path class="st78" d="M37.8 24.9z"/><path class="st82" d="M37.9 24.9z"/><path class="st62" d="M39.8 24.9z"/><path class="st168" d="M40 24.9z"/><path class="st17" d="M40 24.9z"/><path class="st126" d="M37.7 24.9z"/><path class="st14" d="M37.8 24.9z"/><path class="st115" d="M37.8 24.9z"/><path class="st158" d="M39.9 24.9h.1-.1z"/><path class="st56" d="M38 25z"/><path class="st158" d="M39.7 25z"/><path class="st49" d="M37.9 25h.1-.1z"/><path class="st127" d="M38 25z"/><path class="st48" d="M39.7 25z"/><path class="st51" d="M39.8 25z"/><path class="st19" d="M37.7 25h.3-.3z"/><path class="st26" d="M39.7 25h.3-.3z"/><path class="st33" d="M39.8 25h.1-.1z"/><path d="M43.2 21.6c0-.1 0-.1 0 0l-.3-.2-.1-.2-.1-.3-.2-.4-.2-.2-.1-.1v-.1-.2l-.1-.4-.1-.1-.2-.4a2 2 0 00-.9-.5h-.4v-.7l-.4.1-.5.1-.5.2-.3.3-.2-.2-.1-.1-.3-.2-.8-.2-.3-.1v.7h-.3c-.3 0-.6.2-.8.3l-.2.3h.1l-.2.2-.2.7V20.2l-.1.1-.2.2-.2.3-.2.4-.2.3-.2.2-.2.2.1.1h.4l-.2.3-.1.6h.5-.5v-.1l.1.9.1.3.1.3.1.1.2.7-.1.2-.2.3h.6l.2-.1.2.5.1.2s.2 1 1 1.1c3.6 0 3.1-1.3 3.1-1.3l-2.1-.1-.3-.1-.1-.6-.2-.4-.1-.2-.3-.1c.2-.4.2-.5.1-.5v-.1-.2s.1-.1 0-.2l-.1-.1-.3-.4-.2-.2-.1-.1-.1-.1-.1-.4.1-.3.2-.3.1-.1V21h-.1l-.1-.1-.1-.1v-.1l-.1-.1V20.3l.1-.7.1-.3c0-.1.1 0 .1 0h.1l.2.1h.1l.3.1.2.2.1.1h.2l.3.1.2.1h.1l.2.1.1-.1.1-.1.2-.1.3.2.2-.2.2-.1.2-.1h.4v-.1l.1-.1.2-.1h.1l.4-.2h.4l.1.3v.9l-.2.5-.1.1v.6-.1h.1l.2.2v.5l-.1.3-.1.2-.4.5-.1.2v.4l-.1.2-.3.2-.3.7-.1.3s-2.7 1.5-2 1.8c.6.3 1.6.2 2.2.1 1.6-.3 1.7-1.5 1.7-1.5l.1-.2v-.1H42.6l-.1-.1-.1-.2v-.7l.1-.2v-.1l.2-.2.3-.6v-.3-.5l-.1-.4-.2-.4h.4l.1-.1c.1.2.1.2 0 .2zm-.6.3zm-.1-1.4h-.2.2zm-6.5-.1zm-1.4 1.7c0-.1 0 0 0 0zm2.2 1.8zm-.7-.5s.1 0 0 0c.1 0 .1 0 0 0zm-1.4.2zm.3.3zm.7 1h-.1.1zm1.6 0zm-.8-3.6c-.1 0-.1 0 0 0zm1.9-2.3h2.5-2.5zm3.8 4.9h-.9.9zm0 1zm.2 0zm.2.3zm-.3-1.3h.4-.4zm.8-1.2s0-.1 0 0c0-.1 0-.1 0 0 0-.1 0-.1 0 0z" fill="#450505"/><path class="st64" d="M37.8 25z"/><path class="st37" d="M38 25z"/><path class="st130" d="M39.7 25z"/><path class="st93" d="M39.9 25z"/><path class="st53" d="M37.8 25z"/><path class="st78" d="M38 25z"/><path class="st85" d="M39.8 25z"/><path class="st176" d="M37.8 25z"/><path class="st86" d="M37.9 25z"/><path class="st38" d="M39.8 25z"/><path class="st104" d="M39.9 25z"/><path class="st135" d="M37.8 25z"/><path class="st25" d="M37.8 25z"/><path class="st77" d="M37.9 25z"/><path class="st35" d="M39.8 25z"/><path class="st17" d="M40 25z"/><path class="st71" d="M37.7 25z"/><path class="st185" d="M37.8 25z"/><path class="st107" d="M37.9 25z"/><path class="st77" d="M39.8 25z"/><path class="st86" d="M39.8 25z"/><path class="st36" d="M40 25z"/><path class="st93" d="M37.8 25z"/><path class="st116" d="M37.8 25z"/><path class="st65" d="M39.9 25z"/><path class="st75" d="M39.9 25z"/><path class="st116" d="M40 25.1z"/><path class="st29" d="M38 25.1z"/><path class="st61" d="M38 25.1z"/><path class="st74" d="M39.7 25.1z"/><path class="st15" d="M39.7 25.1z"/><path class="st1" d="M37.5 26.8l-.2.1v1.6l.3.2c.2 0 .2-.3.2-.4v-1-.4l-.3-.1z"/><path class="st187" d="M38.4 27.7v-.6-.3l-.1-.3c-.1-.2-.3-.2-.5-.2-.4 0-.9 0-1.2.4l-.1.5v.6c0 .3-.1.8.1 1.1.1.2.4.3.6.3.4 0 .8-.1 1.1-.5l.1-.4v-.6zm-.7-.6v-.2.2zm0 1.5c-.1.1-.4.2-.4 0v-.8.1-.7-.3c.1-.2.4-.2.5-.1V28l-.1.6zM44.7 27.7l-.1-.2-.3-.2-.2-.1-.5-.3-.1-.2c-.1-.2.2-.4.4-.3l.2.4h.6c0-.2 0-.5-.2-.6a1 1 0 00-.6-.2c-.4 0-.9.1-1.1.5-.2.3 0 .7.2.9l.2.1.1.1.2.1.1.1.2.1.1.3c0 .2-.3.3-.4.2l-.1-.2V28l-.7.1.1.6c.2.2.5.3.7.3.4 0 .8-.1 1-.4.2-.5.3-.7.2-.9zM41.9 28.3h-.3v-.5-.1h.2l.6-.1v-.5l-.8.1v-.4-.2h.2l.7-.1V26l-1.7.1v2.8l1.7-.1v-.5h-.6zM40.1 26.1v1.7l-.1-.3-.1-.3-.3-.7-.1-.2-.1-.1h-.8V29h.7v-1.4-.2s0-.1.1 0l.1.2.2.5.3.9.8-.1v-2.8h-.7zM35.7 28.8h-.2v-.7l.8-.1v-.5l-.8.1v-.4-.2c0-.1.2 0 .2 0l.7-.1v-.5l-1 .1-.7.1v2.8l1.7-.1v-.5h-.7zM33.9 29h-.2v-2.3H33v2.9l1.6-.1V29a.9.9 0 00-.7 0z"/><path class="st188" d="M44.4 29.6h.3c.1-.1 0-.3-.1-.3l.1-.2-.2-.1h-.1V29.6z"/><path class="st189" d="M43.5 29.4h-.1v.1h-.1v-.2-.2-.1l.1.1v.1h.1v-.1h-.1V29h-.1l-.2.1v.5l.3.1.1-.3z"/><path class="st188" d="M44.1 29V29.6c0 .1-.1 0-.1 0v-.5h-.1V29.7h.3V29h-.1z"/><path class="st190" d="M43.5 29.1v.6h.2v-.1h-.1v-.1-.4h-.1z"/><path class="st189" d="M42.1 29.1h-.2c-.1.1 0 .3 0 .4v.1h.3v-.2h-.1l-.1.2v-.3-.2s.1-.1.1 0v.1h.1v-.1h-.1c.1.1.1.1 0 0z"/><path class="st188" d="M42.6 29.1v.2h-.1v-.2h-.1v.6h.1v-.3h.1v.2h.1v-.2l-.1-.3z"/><path class="st189" d="M41.4 29.3h.1v.5l.1-.3c.1 0 0-.1 0-.1v-.1c0-.1-.1-.1-.2 0 0-.1 0 0 0 0z"/><path class="st190" d="M41.2 29.5v.4h.1v-.6h-.1v.2z"/><path class="st189" d="M40.7 29.3V29.9l.3-.1.1-.1v-.4-.1l-.4.1zM40.1 29.3v.6l.3-.1v-.1-.3-.1h-.3z"/><path class="st133" d="M42 29.3z"/><path class="st189" d="M39.6 29.3v.5c0 .1-.1 0-.1 0v-.3l.1-.2h-.2v.7c.1.1.3 0 .3-.1v-.1-.2-.1l-.1-.2zM39.1 30c.1 0 .1 0 0 0l.1-.1v-.5h-.1l-.2.2v.4c.1 0 .2-.1.2 0zM39.9 29.3v.6h.1v-.6h-.1z"/><path class="st70" d="M43.6 29.7h.1-.1z"/></svg>