<?xml version="1.0" encoding="utf-8"?>
<!-- Generator: Adobe Illustrator 22.0.0, SVG Export Plug-In . SVG Version: 6.00 Build 0)  -->
<svg version="1.1" id="Layer_1" xmlns="http://www.w3.org/2000/svg" xmlns:xlink="http://www.w3.org/1999/xlink" x="0px" y="0px"
	 viewBox="0 0 80 77.1" style="enable-background:new 0 0 80 77.1;" xml:space="preserve">
<style type="text/css">
	.st0{fill:#808080;}
	.st1{fill:none;stroke:#404040;}
	.st2{fill:#404040;}
	.st3{opacity:0.5;fill:#404040;enable-background:new    ;}
	.st4{fill:none;stroke:#000000;}
	.st5{fill:none;stroke:#000000;stroke-width:2;}
	.st6{fill:none;}
	.st7{fill:#FFD400;}
	.st8{fill:none;stroke:#FFB300;}
	.st9{fill:none;stroke:#FFFFFF;}
	.st10{stroke:#FFFFFF;stroke-opacity:0;}
	.st11{fill:#FFD400;stroke:#FFFFFF;stroke-opacity:0;}
	.st12{enable-background:new    ;}
	.st13{fill:none;stroke:#000000;stroke-width:3;stroke-linecap:round;stroke-linejoin:round;}
</style>
<g>
	<path id="svg_23" class="st0" d="M20,35.5L18.3,72l21.4,3.5l19.8-3"/>
	<line id="svg_38" class="st1" x1="19.8" y1="36.7" x2="57.5" y2="74.5"/>
	<line id="svg_37" class="st1" x1="19" y1="38.4" x2="54.7" y2="74"/>
	<path id="svg_21" class="st2" d="M58.4,73.1c-0.1,0-37.8-36.8-37.8-36.8L20.9,25l-4.6,8.4l-8.5-1.1l-5.3-4.6L9.3,8.9l18.1-6.5
		l31.5,32.1L63,65.2v7"/>
	<path id="svg_18" class="st3" d="M35.1,23.8"/>
	<path id="svg_25" d="M32.7,8.6l26.6,27.3l1-8.6l3.4,6.5l8.4-1.4l6.1-4.4L71.3,8L52.7,1.5l-6.1,6.6l-9.1,1
		C37.4,9.1,32.7,8.6,32.7,8.6z"/>
	<line id="svg_28" class="st4" x1="21.9" y1="3.2" x2="60.9" y2="42.2"/>
	<line id="svg_29" class="st4" x1="25.4" y1="2.1" x2="60.3" y2="37"/>
	<line id="svg_30" class="st4" x1="26.3" y1="1.2" x2="42" y2="17"/>
	<line id="svg_32" class="st4" x1="26" y1="2.2" x2="55.7" y2="31.9"/>
	<line id="svg_33" class="st5" x1="24" y1="2.1" x2="61.4" y2="39.4"/>
	<line id="svg_34" class="st6" x1="19.7" y1="4.6" x2="61.1" y2="46.1"/>
	<line id="svg_39" class="st4" x1="19.9" y1="4" x2="61" y2="45.1"/>
	<ellipse id="svg_40" class="st7" cx="47.4" cy="28.1" rx="10.5" ry="10.5"/>
	<line id="svg_43" class="st8" x1="32.9" y1="23.4" x2="25.5" y2="25.2"/>
	<line id="svg_44" class="st8" x1="34.5" y1="24.3" x2="26.1" y2="25.2"/>
	<ellipse id="svg_42" class="st7" cx="36.9" cy="23.4" rx="5.4" ry="5.4"/>
	<line id="svg_45" class="st9" x1="31.9" y1="22.7" x2="40.5" y2="20"/>
	<ellipse id="svg_46" class="st10" cx="33.2" cy="23.2" rx="0.9" ry="0.8"/>
	<path id="svg_47" class="st11" d="M42.4,20l3.4-5.9l-2.3-4.6l1.6-0.9l2.5,1.8l2,3.1l-0.3,4.3"/>
	<path id="svg_48" class="st11" d="M48.3,19.1l6.3-4.6L57.9,9l2.3-1.1l2,2.9L60.9,16l-3.6,2.8l-5.4,2.1"/>
	<g class="st12">
		<path class="st0" d="M24,34.9c-0.2,0.3-0.4,0.5-0.5,0.8c-0.1,0.5,0.1,1,0.6,1.5c0.2,0.2,0.5,0.4,0.7,0.5c0.5,0.2,0.9,0.2,1.2-0.2
			c0.2-0.2,0.4-0.5,0.3-0.8c0-0.3-0.2-0.6-0.4-1l-0.5-0.7c-0.3-0.5-0.5-0.9-0.5-1.1c-0.1-0.5,0.1-0.9,0.4-1.3
			c0.4-0.4,0.9-0.6,1.4-0.6c0.5,0,1.1,0.3,1.6,0.8c0.5,0.5,0.7,1,0.8,1.5c0.1,0.6-0.1,1.1-0.6,1.6L28,35.4c0.2-0.3,0.3-0.5,0.4-0.8
			c0.1-0.4-0.1-0.8-0.6-1.3c-0.3-0.3-0.7-0.5-1-0.5c-0.3,0-0.6,0.1-0.8,0.3c-0.2,0.2-0.3,0.5-0.2,0.8c0.1,0.2,0.2,0.5,0.6,1.1
			l0.5,0.8c0.2,0.4,0.4,0.7,0.4,1c0.1,0.5-0.1,0.9-0.5,1.4c-0.5,0.5-1,0.7-1.6,0.5s-1.1-0.4-1.6-0.9c-0.6-0.6-0.8-1.1-0.9-1.7
			c0-0.6,0.2-1.1,0.7-1.6L24,34.9z"/>
		<path class="st0" d="M34.3,39l-0.5,0.5L32.2,38l-4,4l-0.6-0.6l4-4L30,35.8l0.5-0.5L34.3,39z"/>
		<path class="st0" d="M34.9,39.6l3.3,3.3l-0.6,0.6l-2.7-2.7l-1.4,1.4l2.5,2.5l-0.5,0.5L33,42.7l-1.5,1.5l2.8,2.8l-0.5,0.5l-3.4-3.4
			L34.9,39.6z"/>
		<path class="st0" d="M39.1,43.9l3.3,3.3l-0.6,0.6L39.2,45l-1.4,1.4l2.5,2.5l-0.5,0.5l-2.5-2.5l-1.5,1.5l2.8,2.8l-0.5,0.5l-3.4-3.4
			L39.1,43.9z"/>
		<path class="st0" d="M43.3,48.1l0.6,0.6l-4,4l2.3,2.3l-0.5,0.5l-2.9-2.9L43.3,48.1z"/>
		<path class="st0" d="M49.8,55.2c0,0.6-0.2,1.1-0.5,1.6l-0.6-0.6c0.2-0.4,0.3-0.7,0.3-1.1s-0.2-0.7-0.6-1.1c-0.4-0.4-1-0.6-1.5-0.6
			s-1.2,0.4-1.9,1c-0.5,0.5-0.8,1.1-0.9,1.7c-0.1,0.6,0.1,1.1,0.6,1.6c0.4,0.4,1,0.6,1.5,0.5c0.3-0.1,0.6-0.2,1-0.4l0.6,0.6
			c-0.5,0.4-1.1,0.7-1.7,0.7c-0.8,0-1.4-0.3-2-0.9c-0.5-0.5-0.8-1.1-0.8-1.8c0-0.9,0.4-1.8,1.3-2.7c0.7-0.7,1.4-1,2.2-1.1
			c0.8-0.1,1.6,0.2,2.3,0.9C49.4,53.9,49.7,54.5,49.8,55.2z"/>
		<path class="st0" d="M51.6,56.3l0.6,0.6l-4.6,4.6L47,60.9L51.6,56.3z"/>
		<path class="st0" d="M56.5,61.3L56,61.8l-1.5-1.5l-4,4l-0.6-0.6l4-4l-1.5-1.5l0.5-0.5L56.5,61.3z"/>
		<path class="st0" d="M56.8,61.5l0.7,0.7l-0.9,3.5l3.5-0.9l0.7,0.7l-4.5,1l-1.8,1.8l-0.6-0.6l1.8-1.8L56.8,61.5z"/>
	</g>
	<path id="svg_1" class="st13" d="M40.3,75.5c6.9-0.1,16.7-1.8,22.4-4C62,64.9,60,26,60,26s2.1,5.1,3.2,7.9
		c4.7-0.4,12.3-1.3,15.3-6.2c-2.9-6.8-5.1-14.6-7.4-19.7c0,0-10.4-3.8-18.6-6.4c0,0-0.9-0.3-1.3,0.4c-3,4.2-4.5,7.1-11.2,7.1l0,0
		C33.6,9,32,6.2,29.1,2c-0.5-0.7-1.4-0.4-1.4-0.4C19.6,4.1,9.1,8,9.1,8c-2.3,5.1-4.5,13-7.4,19.7c3,4.8,10.4,5.8,15.3,6.2
		c1.1-2.8,3.2-7.9,3.2-7.9s-2.1,38.9-2.7,45.5c5.8,2.2,15.5,4,22.4,4l0,0"/>
</g>
</svg>
