<?xml version="1.0" encoding="utf-8"?><svg version="1.1" id="Layer_1" xmlns="http://www.w3.org/2000/svg" xmlns:xlink="http://www.w3.org/1999/xlink" x="0px" y="0px" viewBox="0 0 80 77.1" style="enable-background:new 0 0 80 77.1;" xml:space="preserve"><style type="text/css"> .st0{fill:#54046D;} .st1{fill:#53046C;} .st2{fill:#FCE700;} .st3{fill:#52046B;} .st4{fill:#52046A;} .st5{fill:#FBE600;} .st6{fill:#FAE500;} .st7{fill:#F8E300;} .st8{fill:#FAE600;} .st9{fill:#F8E200;} .st10{fill:#F6E100;} .st11{fill:#F8E400;} .st12{fill:#010001;} .st13{fill:#010002;} .st14{fill:#020003;} .st15{fill:#020004;} .st16{fill:none;stroke:#000000;stroke-width:3;stroke-linecap:round;stroke-linejoin:round;} </style><path d="M40.3,75.6c6.9-0.1,16.7-1.8,22.4-4C62,65,60,26.1,60,26.1s2.1,5.1,3.2,7.9c4.7-0.4,12.3-1.3,15.3-6.2 c-2.9-6.8-5.1-14.6-7.4-19.7c0,0-10.4-3.8-18.6-6.4c0,0-0.9-0.3-1.3,0.4c-3,4.2-4.5,7.1-11.2,7.1l0,0c-6.4-0.1-8-2.9-10.9-7.1 c-0.5-0.7-1.4-0.4-1.4-0.4C19.6,4.2,9.1,8.1,9.1,8.1c-2.3,5.1-4.5,13-7.4,19.7c3,4.8,10.4,5.8,15.3,6.2c1.1-2.8,3.2-7.9,3.2-7.9 S18.1,65,17.5,71.6c5.8,2.2,15.5,4,22.4,4l0,0"/><g><path class="st0" d="M48.9,32.8c0.2-0.2,0.4-0.3,0.5-0.5c1.5-3,4.3-4.6,6.8-6.5c0.7-0.6,2.7-0.4,3.4-1c0.4,0.4-0.3,0.5-0.4,1 c-0.6,3.7,0.2,6.9,0.3,10.6c0.1,1.6,0.6,3.4,0.7,5c0.3,5.2,0.7,10.3,1,15.6c0.2,4.1,0.6,8.7,0.9,12.9c0.1,1.8-0.9,2-2.6,2.5 C54.6,73.6,49,74.3,44,74.8c-8.4,0.8-16.1-0.1-24.1-2.4c-0.8-0.2-2.5-1.5-2.4-2.4c0.3-4.5,1.3-9.1,1.5-13.6 c0.2-3.1,0.1-6.2,0.3-9.3c0.3-6.5,0.4-12,0.8-18.5c0.1-1.1-0.1-2.7,0.4-3.8c1.7,1.4,5.1,1.9,7,2.9c1.3,0.7,2.2,1.9,2.9,3.1 c0.2,0.4,0.5,0.7,0.8,1c0.5,0.4,0.3,0.9,0.2,1.4c-0.2,1,0,1.7,1,2.2c0.6,0.2,0.7,0.7,0.6,1.3c-0.3,2.7,0.8,4.7,2.9,6.3 c0.8,0.6,1.7,1.2,2.6,1.8c1.5,1,2.6,1.1,4.1-0.1c2.3-1.8,4-3.9,4-7c0-0.8,0.1-1.5,1-1.8c0.7-0.2,0.8-1,0.9-1.7 C48.5,33.7,48.4,33.2,48.9,32.8z"/><path class="st1" d="M40.4,24.6c-2.1-3.3-5-5.9-7.5-8.7c-1.4-1.6-1.8-3.8-2.9-5.6c-0.2-0.3,0-0.5,0.2-0.6c0.4-0.2,0.4,0.2,0.5,0.3 c1,2.2,2.8,3.8,4.7,5.2c1.5,1.2,2.6,2.7,3.7,4.2c0.7,1.1,1.3,1.2,2,0.2c2-2.8,4.7-5,6.3-8.2c0.3-0.6,0.8-1.1,1.3-1.6 c0.3-0.3,0.5-1.1,1.2-0.4c0.5,0.5,0.8,0.7,0.3,1.5c-1.1,1.8-2,3.8-3,5.7c-0.3,0.7-0.8,1.3-1.4,1.6C43.2,19.8,41.8,22.1,40.4,24.6z" /><path class="st2" d="M48.9,32.8c0,0.5,0,1,0,1.6c-0.1,1-0.2,2-1.6,2c-0.3,0-0.4,0.2-0.4,0.5c0,0.3-0.1,0.6,0,1 c0.2,3.3-1.7,5.5-4.1,7.3c-1.6,1.2-2.7,1.1-4.4,0c-1-0.7-2-1.4-3-2.2c-1.9-1.5-2.8-3.6-2.5-6c0.1-0.7,0.1-1.1-0.8-1.3 c-0.7-0.1-0.9-0.7-0.9-1.4c0-0.8,0.1-1.6,0.1-2.4c0-0.7,0.1-1.4,0.1-2.1c0-0.6,0.2-1.1,0.7-1.4c0.7-0.8,1.5-0.1,2.2-0.2 c3.9,0.1,7.8,0.3,11.7,0.4c0.5,0,1,0.1,1.5,0.2c0.7,0.1,1.1,0.5,1.1,1.3C48.7,30.9,48.8,31.8,48.9,32.8z"/><path class="st1" d="M34.2,28c-0.7,0.1-1.5,0.1-2.2,0.2c-0.9-1.2-2-2.3-3.2-3.2c-2.3-1.5-3.7-3.8-4.9-6.2c-0.4-0.7,0-1.3,0.5-1.6 c0.6-0.4,1,0.3,1.1,0.8c0.2,0.9,1,1.2,1.6,1.7c1.2,1.1,2.4,2.3,3.8,3.2c1.3,0.8,1.9,2.3,2.3,3.8C33.4,27.3,33.4,27.9,34.2,28z"/><path class="st1" d="M36.2,26.1c-0.8-1-1.4-1.9-1.9-2.8c-0.5-1-1.2-1.8-2.4-2c-0.8-0.2-1.3-0.9-1.7-1.6c-0.4-0.8-0.8-1.4-1.6-1.9 c-1.2-0.7-1.7-2-2.3-3.1c-0.3-0.5,0.2-0.8,0.5-1.1c0.4-0.4,0.6,0.1,0.7,0.3c0.6,0.7,1.2,1.2,2.1,1.6c0.5,0.2,0.7,0.7,0.9,1.2 c0.4,1.2,1.2,2.1,2.4,2.7C35.6,20.6,36.7,22.7,36.2,26.1z"/><path class="st3" d="M44.8,25.8c0.8-2.2,0.9-4.6,2.9-6.4c1.7-1.6,3.4-3.3,5.1-5c0.3-0.3,0.5-1,1.1-0.6c0.6,0.4,0,0.8-0.3,1.2 c-0.8,1.2-1.4,2.5-2.9,3.1c0,0-0.1,0-0.1,0.1c-0.3,1.7-1.9,2.5-2.7,3.9C47.1,23.5,46.2,24.9,44.8,25.8z"/><path class="st4" d="M48.3,28c-0.1,0-0.1,0-0.2,0c1.1-2.5,1.6-5.5,4.7-6.7c1.1-0.4,1.9-1.1,2.1-2.3c0.1-0.5,0.3-0.9,0.5-1.3 c0.1-0.3,0.2-0.9,0.7-0.7c0.4,0.2,0.9,0.6,0.5,1.3c-0.8,1.4-1.6,2.8-2.9,3.9c-0.8,0.6-1.4,1.3-1.8,2.2C51.3,26.1,49.5,26.8,48.3,28 z"/><path class="st5" d="M7.7,13.9c0.9,0.7,2.6,1.8,3.7,2.3c0.9,0.4,1.7,1,2.2,1.9c0.4,0.8,1.2,1.3,2.1,1.6c0.7,0.3,1.3,0.7,1.7,1.4 c0.1,0.2,0.3,0.5,0,0.7c-0.2,0.2-0.4,0-0.6-0.1c-1.5-1-3.1-2.1-4.9-2.6c-0.1,0-0.3-0.1-0.3-0.2C11,17.8,8.8,17,7.9,16.3 C6.8,15.6,6.9,14.9,7.7,13.9z"/><path class="st6" d="M71.4,12.4c0.1,0.2-0.6,0.6-0.8,0.7c-1.1,0.9-2.1,1.8-3.2,2.7c-0.6,0.5-1.3,1.1-2.2,1.2 c-1.2,0.1-2,0.8-2.8,1.7c-0.2,0.3-0.5,0.7-0.8,0.4c-0.4-0.3-0.1-0.7,0.1-0.9c0.9-1,1.6-2.4,3.3-2.1c0.6,0.1,1-0.4,1.3-0.9 c1-1.2,2.9-2.6,4.1-3.4C71.2,11.2,71.4,11.7,71.4,12.4z"/><path class="st7" d="M64.1,21c-0.3-0.5,0-0.8,0.2-0.9c1.2-1,1.9-2.5,3.7-2.9c0.4-0.1,0.7-0.5,1-0.9c0.4-0.6,0.8-1.3,1.3-1.9 c0.3-0.4,0.9-1.3,1.5-1.2c0.4,0.1,0.9,1.2,0.6,1.6c-1.1,1.2-2.8,3.3-4.6,3.6c-0.3,0-0.4,0.2-0.5,0.5c-0.3,0.6-0.5,1-1.4,0.9 C65.1,19.8,64.7,20.8,64.1,21z"/><path class="st5" d="M70.3,9.4c-0.5,0.7-1.9,2-2.8,2.3c-1.9,0.7-3.5,1.6-5.1,2.8c-0.2,0.2-0.5,0.4-0.7,0.1 c-0.3-0.3-0.1-0.6,0.2-0.8c1.7-1.7,4.5-3.9,6.6-5.1C69,8.3,70.3,8.9,70.3,9.4z"/><path class="st8" d="M10.2,8.9c1,0.3,3,1.2,3.6,2c0.6,0.8,1.3,1.3,2.2,1.8c0.6,0.3,1.1,0.7,1.4,1.2c0.2,0.3,0.3,0.7-0.1,1 c-0.3,0.2-0.6,0.1-0.9-0.1c-1.6-1.5-3.6-2.5-5.5-3.5c-0.4-0.2-1.8-0.8-1.7-1.4C9.3,9.2,9.7,9,10.2,8.9z"/><path class="st9" d="M18.6,18.6c-0.5,0.4-0.8,0.2-1,0c-0.8-0.6-1.3-1.7-2.6-1.4c0,0-0.2-0.1-0.2-0.1c-0.8-1.8-2.5-1.9-4-2.5 c-0.6-0.2-1.1-0.6-1.6-1c-0.4-0.3-1.3-0.9-1.1-1.3c0.2-0.6,1.5,0.1,1.8,0.1c2.1,0.5,3.7,1.7,5,3.4c0.2,0.2,0.3,0.7,0.7,0.6 C17.4,16.1,17.3,18.2,18.6,18.6z"/><path class="st10" d="M6.3,18.2c0-0.4,0.2-1.1,0.5-1.5c1.4,1.8,4.1,3.1,5.6,4.7c0.3,0.3,0.9,0.6,0.5,1.2c-0.5,0.6-0.8-0.1-1.1-0.4 c-1.3-1.4-2.7-2.5-4.6-3C7.6,18.8,6.1,18.6,6.3,18.2z"/><path class="st11" d="M73.5,18.2c0,0.5-0.9,0.9-1.1,1c-1.2,0.4-2.2,1-3.2,1.8c-0.2,0.2-0.6,0.5-0.8,0.1c-0.3-0.3,0.1-0.6,0.3-0.8 c1-0.8,1.7-1.7,2.6-2.6c0.3-0.3,1.3-1.4,1.7-1.1C73.4,16.9,73.4,17.7,73.5,18.2z"/><path class="st12" d="M47.1,61.3c0.5-2.2,0.9-4.3,3.4-5.3c1.8-0.7,3.1-1.8,3.6-3.8c0.2-0.8,0.9-1.4,1.6-1.9 c0.2-0.2,0.4-0.3,0.7-0.1c0.3,0.2,0.2,0.6,0,0.8c-1.4,1.3-1.6,3.2-2.6,4.6c-0.9,1.4-2.4,2.5-3.8,3.5c-0.9,0.7-2,1.3-2,2.7 c0,0.4-0.3,0.4-0.6,0.4C47.1,61.9,47.1,61.6,47.1,61.3z"/><path class="st13" d="M45.1,59.7c0.2-2.2,0.6-4.3,2.4-5.6c2.2-1.7,4.1-3.6,5.9-5.6c0.2-0.2,0.5-0.8,0.8-0.5c0.5,0.3,0,0.7-0.2,1 c-1,1.7-2.3,3.3-3,5.1c-0.2,0.6-0.7,1-1.3,1.2C47.5,56.1,46.2,57.7,45.1,59.7z"/><path class="st13" d="M27.7,47.9c0.9,0.6,1.9,1.1,2.2,2.3c0.4,1.1,1.4,1.6,2.3,2.2c2.3,1.8,3.9,4,4.5,6.9c0.1,0.4,0.3,0.8-0.2,1 c-0.5,0.2-0.7-0.3-0.8-0.7c-0.1-0.3-0.2-0.6-0.3-0.9c-0.6-2-1.8-3.5-3.4-4.7c-1.5-1.1-2.8-2.4-3.4-4.2c-0.2-0.6-0.7-1.1-1.1-1.6 C27.5,48,27.6,47.9,27.7,47.9z"/><path class="st13" d="M25.6,51.6c0.8,0.6,1.3,1.4,1.8,2.2c0.9,1.1,2,1.9,3.2,2.4c2.4,1,3.2,3.1,3.8,5.3c0.1,0.3,0.1,0.6-0.2,0.7 c-0.4,0.1-0.5-0.2-0.5-0.5c-0.3-2-1.5-3-3.4-3.5c-0.8-0.2-1.5-0.9-2.1-1.6C27.1,55.2,26.3,53.4,25.6,51.6z"/><path class="st13" d="M49.3,64.5c0.3-1.7,0.7-3.5,2.3-4.6c1.4-0.9,2.3-2.3,3.3-3.6c0.4-0.5,0.9-1.5,1.6-1c0.6,0.5-0.2,1.2-0.6,1.7 c-1.2,1.7-2.3,3.5-4,4.7c-1,0.7-1.3,1.9-1.6,3c-0.1,0.4,0.1,0.9-0.5,0.9C49.1,65.6,49.3,65,49.3,64.5z"/><path class="st14" d="M41.6,57.8c0.2-1.7,0.6-3.2,1.8-4.4c1.8-1.7,3.7-3.2,5.3-5c0.2-0.2,0.4-0.5,0.7-0.2c0.3,0.3,0,0.5-0.1,0.7 c-0.7,0.8-1.3,1.8-2.1,2.4c-1.7,1.5-2.6,3.5-3.8,5.3c-0.3,0.5-0.5,1.1-0.8,1.6c-0.1,0.3,0,0.7-0.4,0.7c-0.3,0-0.4-0.5-0.5-0.8 C41.6,58.1,41.7,57.9,41.6,57.8z"/><path class="st13" d="M25,55.9c0.8,1.4,1.9,2.4,3.2,3.3c0.2,0.2,0.5,0.5,0.7,0.6c2.3,0.7,2.7,2.7,3.3,4.7c0.1,0.3,0.2,0.8-0.2,1 c-0.4,0.2-0.6-0.3-0.7-0.6c-0.5-1.5-1.5-2.5-3-3.3C26.1,60.4,25.1,58.4,25,55.9z"/><path class="st15" d="M32.7,48.9c1.5,2.3,4,3.5,5.6,5.6c0.9,1.2,1,2.6,1.1,4.1c-0.2,0-0.4-0.1-0.4-0.1c-0.4-2-1.8-3.2-3.2-4.5 C34.3,52.6,33.6,50.7,32.7,48.9z"/><path d="M39.8,29.2c2,0,3.9,0.1,5.9,0.3c2,0.2,2.4,0.6,2.2,2.5c0,0.5-0.1,1-0.1,1.6c0,0.9-0.3,1.7-1.4,1.7c-0.6,0-0.8,0.4-0.8,1 c0,1.2,0,2.4-0.2,3.6c-0.4,1.9-1.4,3.3-3.1,4.4c-1,0.6-2,0.6-3,0c-1.8-1.1-3.3-2.5-4.8-4c-1.1-1.1-1-2.6-1.1-4.1 c0-0.6-0.1-1.1-0.8-1.4c-1-0.5-0.7-4.9,0.3-5.5c0.4-0.2,0.8-0.2,1.2-0.2c1,0,1.9,0.1,2.9,0.1C38,29.2,38.9,29.2,39.8,29.2z"/></g><path class="st16" d="M40.2,75.6c6.9-0.1,16.7-1.8,22.4-4c-0.7-6.6-2.7-45.5-2.7-45.5s2.1,5.1,3.2,7.9c4.7-0.4,12.3-1.3,15.3-6.2 C75.5,21,73.3,13.2,71,8.1c0,0-10.4-3.8-18.6-6.4c0,0-0.9-0.3-1.3,0.4c-3,4.2-4.5,7.1-11.2,7.1l0,0c-6.4-0.1-8-2.9-10.9-7.1 c-0.5-0.7-1.4-0.4-1.4-0.4C19.5,4.2,9,8.1,9,8.1c-2.3,5.1-4.5,13-7.4,19.7c3,4.8,10.4,5.8,15.3,6.2c1.1-2.8,3.2-7.9,3.2-7.9 S18,65,17.4,71.6c5.8,2.2,15.5,4,22.4,4l0,0"/></svg> 