<?xml version="1.0" encoding="utf-8"?>
<!-- Generator: Adobe Illustrator 22.0.0, SVG Export Plug-In . SVG Version: 6.00 Build 0)  -->
<svg version="1.1" id="Layer_1" xmlns="http://www.w3.org/2000/svg" xmlns:xlink="http://www.w3.org/1999/xlink" x="0px" y="0px"
	 viewBox="0 0 80 77.1" style="enable-background:new 0 0 80 77.1;" xml:space="preserve">
<style type="text/css">
	.st0{fill:#10273B;}
	
		.st1{display:none;fill:#05395C;stroke:#000000;stroke-width:110.0242;stroke-linecap:round;stroke-linejoin:round;stroke-miterlimit:22.9256;}
	.st2{fill:#E31E24;fill-opacity:0.7098;}
	.st3{fill:#FFED00;fill-opacity:0.7098;}
	.st4{fill:none;stroke:#2B2A29;stroke-width:2.7943;stroke-miterlimit:22.9256;}
	.st5{fill:#B4B4B4;fill-opacity:0.349;}
	.st6{fill:#008DD2;}
	.st7{fill:#5E5971;}
	.st8{fill:none;stroke:#000000;stroke-width:3;stroke-linecap:round;stroke-linejoin:round;}
</style>
<g id="Capa_x0020_1">
	<polygon class="st0" points="1.6,27.8 9,8.1 27.6,1.7 32.5,6.6 37,9.1 43.1,8.8 47.8,6.1 51.1,2.1 71,8.1 78.4,27.8 72.1,32.5 
		63.1,34 60.3,29.3 62.6,71.6 43.4,75.8 30.8,75.3 17.4,71.6 19,45.9 20,30.2 16.9,34 8.1,32.5 	"/>
	<path class="st1" d="M39.6,77.4c7.2-0.1,17.4-1.9,23.3-4.2c-0.7-6.9-2.8-47.3-2.8-47.3s2.2,5.3,3.3,8.2c4.9-0.4,12.8-1.4,15.9-6.4
		c-3-7.1-5.3-15.2-7.7-20.5c0,0-10.8-4-19.3-6.7c0,0-0.9-0.3-1.4,0.4c-3.1,4.4-4.7,7.4-11.6,7.4l0,0C32.7,8.2,31,5.3,28,1
		c-0.5-0.7-1.5-0.4-1.5-0.4C18.1,3.1,7.2,7.2,7.2,7.2c-2.4,5.3-4.7,13.5-7.7,20.5c3.1,5,10.8,6,15.9,6.4c1.1-2.9,3.3-8.2,3.3-8.2
		s-2.2,40.4-2.8,47.3c6,2.3,16.1,4.2,23.3,4.2l0,0H39.6z"/>
	<g id="_2807733025456">
		<path class="st2" d="M5.9,21.9l6,2.5l-0.5,1.3l-6-2.5L5.9,21.9z M4.4,25.8l0.5-1.3l6,2.5l-0.5,1.3L4.4,25.8z"/>
		<polygon class="st3" points="5.4,23.1 11.4,25.6 11,27 4.9,24.5 		"/>
	</g>
	<line class="st4" x1="39.4" y1="0.5" x2="39.4" y2="0.5"/>
	<path class="st5" d="M19.9,32.7l0.2-2.4c0.2,0.3,0.4,0.5,0.6,0.7c1.9,2.1,5.7,3.4,7.7,5.3c0.9,0.9,1.9,2.3,2.1,3.9
		c0.3,1.7-0.1,3.9-1,5.2c-0.9,1.1-1.8,1.8-2.8,2.7c-0.2,0.2-0.2,0.2-0.4,0.4c-2.5,2-3.3,6.7-2.4,9.3c0,0.1,0.1,0.2,0.1,0.2l-0.1-0.2
		l-0.6-1.5c-0.6-2.2-0.2-4.5,0.6-6.6c0.5-1.3,1.4-2.1,2.3-2.9c1.9-1.7,3.7-4.4,2.5-7.1c-1.4-3.2-5.1-3.2-6-0.7
		c-0.3,0.7-0.2,1.6,0.2,2.1c0.4,0.5,1.3,0.6,2,0.6c-1.4,0.8-2.9,0.3-3.6-1.2c-0.1-0.1-0.1-0.2-0.1-0.3l0-0.1c-0.1-0.2,0-0.1-0.1-0.2
		c-0.4,1.5,0,2.3,0.7,3c0.9,0.8,1.7,1.1,3.1,0.8c2.1-0.4,2.2-3,1.1-3.7c-0.4-0.3-1.3-0.4-1.6-0.1c0.1-0.3,0.6-0.5,1-0.5
		c1.5-0.1,2.5,1.2,2.4,2.7c-0.1,2-1.5,2.3-2.8,3.1c-0.2,0.2-0.3,0.2-0.6,0.3c-2.2,1.3-3,5.1-3.1,7.8c0,1,0.1,2,0.1,3
		c-0.9-2-1-5.2-0.4-7.7c-0.9,0-1.6,0-2.1-0.4l0.2-3.5c0.1,0.1,0.2,0.3,0.3,0.4c0.9,0.2,1.6,0.2,1.6,1.2c-1.2-1.7-2.3,1.7,0.2,1.3
		c1-0.2,2.1-1.9-0.2-3.3c-0.8-0.5-1.3-1.2-1.6-2.1c0,0,0-0.1,0-0.1l0.2-3c0.2,0,0.3-0.1,0.5-0.2C23.8,37.6,23.3,33.7,19.9,32.7
		L19.9,32.7z M20.1,29.1l0.1-2.1c0.5,1.3,1.4,2.4,2.8,2.9c-0.2-0.7-0.3-1.7,0.2-2.3c0.1,0.3,0.1,0.8,0.2,1.1c0.3,1,1,2.3,2.1,2.7
		l-0.5-0.9c-0.5-1-0.9-2.2-0.9-3.2l0.1,0.1c0.6,1.5,0.8,2.1,2,3.4c0.2,0.3,0.4,0.4,0.7,0.7c0.6,0.8,1.7,1.4,2.4,2.1
		c2.3,2.3,3.3,4.4,3.1,7.8c0.6-3,0.4-5.1-0.9-6.9c-0.6-0.8-2.3-4.6-2.4-5.9c0.2,0.5,0.6,1.2,0.8,1.6c0.7,1.2,1.5,2.4,2.5,3.3
		c1.2,1.1,2.3,2,3.8,2.8c0.5,0.3,1.2,0.5,1.6,0.8c-1-0.1-1.8-0.5-2.7-0.7c0.3,0.3,2.4,1.5,3.8,3c1.1,1.2,1.9,2.4,2.2,4.2
		c0.2,1,0.4,2.7,0.1,3.8c0.1-0.6-0.1-1.6-0.3-2.2c-0.2-0.6-0.3-1-0.6-1.5l-0.3-0.4c0.1,1.8,0.6,2.2,0.3,4.9
		c-0.1,0.9-0.3,1.8-0.6,2.6c-0.2,0.6-0.5,1.4-1,1.9c-0.1,0.1-0.1,0.1-0.1,0.1c0.8-2.7,1.6-4.5,1-7.4c-0.2-1.1-0.7-2.2-1.2-3
		c-0.3-0.4-1.5-2-2.2-2.2c0,0.1,1,1.8,1.3,2.6c1.2,3.3,1,7.2-0.2,10.6c-0.9,2.7-2.5,4.7-4.3,6.3c-1,0.9-2,1.8-3.1,2.5l-0.4,0.1
		c0,0,0,0,0.1,0l2-1.8c2.1-2.3,3.6-4.7,4.3-8c0.6-2.5,0.7-4.6,0.3-6.9c-0.3-1.5-1.3-4.1-2.4-5c-0.2,0.2-0.5,1.3-0.7,1.7
		c-1.1,2.2-3,3.6-3,3.8c0.6-1.1,2.6-2.5,1.8-6.3c-0.5-2.2-1.5-3.6-3.3-5c-1.7-1.4-3.7-2.1-5.6-3.3C21.8,30.7,20.9,30,20.1,29.1
		L20.1,29.1z M39.9,43.1C39.9,43.1,39.9,43.1,39.9,43.1C39.9,43.1,39.9,43.1,39.9,43.1C39.9,43.1,39.9,43.1,39.9,43.1
		C39.9,43.1,39.9,43.1,39.9,43.1C39.9,43.1,40,43.3,39.9,43.1L39.9,43.1z M36.1,40.1C36.1,40.1,36.1,40.1,36.1,40.1
		C36.1,40.1,36.1,40.1,36.1,40.1C36.1,40.1,36.1,40.1,36.1,40.1L36.1,40.1L36.1,40.1z M25.9,36.2c-0.1-0.3-1.3-1.2-1.6-1.3
		c0.1,0.4,0,0.9,0,1.4L25.9,36.2z M35,36.4C34.9,36.4,34.7,36.4,35,36.4C34.9,36.4,35.1,36.4,35,36.4z M25.6,31.5L25.6,31.5
		L25.6,31.5z M24,72.9c-0.1-1.9,0.4-5,0.9-6.9c1.8-6.8,6.2-8.2,7.1-17.1c-0.4,0.1-0.6,0.4-1,0.6c-0.8,0.4-1.7,0.4-3,2.2
		c-0.5,0.7-0.9,1.7-1.2,2.6c-0.1,0.6-0.2,1.1-0.2,1.7c0,0.4,0.1,1.2,0,1.5c0-0.1-0.3-0.9-0.5-2c-0.2-2.6,0.7-4.7,2.3-6.4
		c1.6-1.7,4.6-4,5.1-6.3c0.6,0.6,1,2.9,1.1,3.6c0.5,4.6-1.2,8.4-3.8,11.8c-1.7,2.1-3.1,3.4-4.3,6.1C25.1,67.2,24.6,69.6,24,72.9
		L24,72.9z"/>
	<path class="st5" d="M17.2,25.5c0.3-1.1,1.3-1.3,1.9-1.1c0,0,0.2,0.1,0.3,0.1c0.1,0.1,0.3,0.2,0.3,0.2c-1.2-4.2,2.7-9.6-2.2-11.7
		c-0.6-0.4-1.7-1-2.3-1.2c1,0.6,2,1.7,2.5,2.5c0.6,1,0.7,2.6,0.3,4c-0.8,2.5-3.2,4.8-2.1,7.7c0.1-0.9-0.1-1.4,0.3-2.4
		c0.7-1.9,1.5-1.5,3.1-5.1C19,21.2,17.4,23,17.2,25.5L17.2,25.5z"/>
	<path class="st5" d="M15.1,30.6l0.5-1.3c-0.5,0.1-1,0.3-1.4,0.5c-1.9,0.9-3.4,1.5-5.7,0.5c0.5,0.5,1.4,0.9,2.2,1.1
		c1,0.2,1.6,0,2.5-0.3C13.8,30.9,14.4,30.7,15.1,30.6L15.1,30.6z"/>
	<path class="st5" d="M7.5,31.2L7.5,31.2l2,0.5c-0.5-0.2-1-0.7-1.4-1c-1.2-1.1-1-1.7-1.6-2.7C6.5,29.1,6.9,30.4,7.5,31.2L7.5,31.2z
		 M39.8,35.6c0.2-0.2-1.5-2.5-2.5-3.4c-1.1-0.9-2.5-1.2-3.8-2.5c0.3,1.3,2.5,2.3,3.8,3.8c-0.1,0.1-0.3-0.3-0.4-0.3
		c-0.1-0.1-0.3-0.2-0.5-0.4c-2.4-1.7-4.4-2.2-6-4.9c-0.1-0.1-0.1-0.3-0.2-0.5c-0.3,1.4,0.8,2.1,1.2,3.2l-1.6-1.8
		c-0.4-0.4-1.2-1.9-1.2-1.9c-0.4,0.4-0.3,1.6-0.2,2.1c0.1,0.3,0.1,0.6,0.2,0.9l0.3,0.7c0,0,0,0,0,0c0,0,0,0,0,0c0,0,0,0,0.3,0.5
		c-0.4-0.4-0.4-0.5-0.4-0.5c0,0,0,0,0,0c-0.1-0.1-0.1-0.1-0.1-0.2c-0.1-0.1-0.2-0.2-0.2-0.4c-0.3-0.5-0.7-1-0.9-1.6
		c-0.1-0.3-0.2-0.7-0.3-0.9c-0.5,1.9,0.9,2.8,1.2,3.2c0.1,0.2,0.5,0.8,0.5,1c-0.2-0.2-0.3-0.5-0.5-0.7c-0.2-0.2-0.5-0.5-0.7-0.7
		c-1.3-1.2-2.5-1.6-2.9-3.9c-0.1-0.4,0-0.9-0.1-1.1L23,26.7c-0.5,0.3-1.2,0.8-2,0.9c0.2-0.3,0.5-0.3,0.8-0.5
		c0.2-0.2,0.5-0.5,0.7-0.7c0.4-0.5,0.5-0.9,0.5-1.6c0-0.3,0.1-0.4,0.2-0.7c-0.9-0.1-2.2-0.8-2.7-1.6c0.2-0.5,2.4-1.6,2.5-1.7
		c0.8-0.6,2.5-1.2,2.7-1.3c0.3-0.3,0.7-0.8,1-1.1c1.7-1.4,3.6-2.1,5.8-2.3c0.5,0,0.4-0.1,0.7-0.3c0.6-0.4,1.6-0.5,2.1-0.9
		c0.2-0.2,0.3-0.3,0.6-0.5c1-0.7,0-1,2.2-0.9c0.7,0,1,0.4,1.3,0.8c0.2,0.3,0.1,0.4,0.1,0.9c0,0.8,0.5-0.2,0,2.8
		c0.5,0.6,0.3,1.2,0.7,1.6c0.3,0.2,0.3,0.4,0.3,0.8c0,0.3,0.1,0.7,0,1.1l-0.2-0.5c0-0.2,0-0.3-0.2-0.4c0.1,1.7-0.3,1-1.7,2.4
		c-0.6,0.6-1.6,1.3-1.8,2.6c-0.3,1.4,0.2,2.3,0.7,3.2c0.5,1,1.1,1.4,2,2.3c-1-0.3-2.3-1.1-2.9-1.8c0.1,0.4,0.6,1.1,0.8,1.4
		c0.2,0.2,0.3,0.4,0.5,0.6c1.3,1.4,3.1,2.4,4.1,4l0.8,1.4c0.4,0.9,1,2.2,1.1,3.2c-0.5-1.4-1-2.7-2-3.8c-0.3-0.3-0.6-0.8-1.1-0.9
		c0.7,0.7,1.8,3.1,2.1,4.2c0.7,2.2,0.7,4.8,0.9,5.3c0.6-0.9,0.8-4,0.8-5.2c0-1.6-0.2-3.2-0.6-4.7c-0.3-1.5-0.8-2.8-1.3-4.1
		c-0.4-0.9-1.2-2.9-1.8-3.7c0,0,0,0,0,0l0,0l1.2,1.4c2.6,4.4,3.9,8.3,4,13.7c0.1,4.9-1.8,8.5-5,11.7c-0.6,0.6-2.1,2-2.9,2.4
		c1.9-2.2,3.1-3.6,3.9-6.8c0.7-2.9,0.3-6.2-0.5-8.6c-0.9-2.4-2.7-4.1-4.6-5.6c-1.4-1.1-3.4-1.9-4.9-3.1c-0.3-0.2-0.5-0.4-0.7-0.6
		c-0.1-0.1-0.2-0.2-0.3-0.4c0,0,0,0,0-0.1l-0.1-0.1c0,0,0,0,0,0c-0.1-0.1-0.1-0.1-0.1-0.2l0.5,0.4c2.1,2,5.4,2.1,8.1,4.3
		c0.2,0.1,0.1,0,0.2,0.2L39.8,35.6L39.8,35.6z M38.7,18.9c0.6-0.4,1.1-3.4,0.4-3.8c-0.2-0.1-0.4-0.1-0.7-0.2
		c-0.1-0.1-0.3-0.2-0.5-0.3c-1-0.5-1.7-0.1-2.1,0.6c-0.7,1.1-0.2,2-0.2,2.5c-0.5-0.6-0.6-1.1-0.6-2.3c-0.4,0.2-1.3,0.8-1.6,1
		c-0.3,0.2-0.4,0.4-0.7,0.7c-0.3,0.3-0.3,0.5-0.6,0.7c0.1-0.6,0.3-0.5,0.3-1c-0.2-0.2-0.5-0.4-0.9-0.2c-0.4,0.1-0.6,0.1-1,0.2
		c-0.5,0.1-1.3,0.5-1.6,0.8c-0.8,0.6-2.1,1.2-2.6,2.7c0.5-0.1,0.5-0.5,1.4-0.6c-0.3,0.3-0.6,0.4-1,0.7c-1.2,1.2-1.3,2-2,3.3l0.1-0.1
		c0,0,0,0,0.1,0l0.5-0.4c0.5-0.4,1-0.3,2-1c-0.5,0.9-1.2,0.8-1.5,1.9c-0.3,1.1,0.4,1.3,0.3,2.6c0.2-0.2,0.4-0.5,0.6-0.8
		c0.5-0.6,1.5-1.2,1.9-2c0.1,0.3,0.2,0,0,0.4c-0.6,1-0.9,1.3-1.1,2.7l0.1-0.1c0,0,0,0,0-0.1c0,0,0,0,0-0.1l0.9-1.6
		c0.1,0.2,0,0.6,0.2,1c0.1,0.3,0.2,0.7,0.5,0.8c0-1-0.3-1.7,0-2.9c0.1,0.3,0.1,0.1,0.1,0.5c0.1,1.2,0.9,2,2.1,2.5
		c-0.1-1-0.4-1.6-0.1-2.7l0.1,0.4c0,0.1,0,0.2,0.1,0.4c0.1,0.8,0.3,1.1,0.8,1.7c0.2-0.8,0.1-1.4,0.5-2.5l0.4-0.6
		c-0.3,1.6-0.3,3.4,1.1,4.5l0.2-1.3c0.1,0.2,0.1,0.9,0.2,1.5c0,0.2,0.1,0.4,0.2,0.6c0.1,0.2,0.2,0.3,0.3,0.4
		c0.1-1.1-0.1-1.7,0.2-2.9c0.3-1.1,0.6-1.6,1.1-2.5c-0.5,0.3-0.7,0.7-1,0.9c0.3-1.1,0.8-1.2,0.7-1.4c-1.3,1.5-1,0.7-1.8,2.8
		c0.2-2.4,1.7-4.2,3.5-5.3c1.3-0.8,0.6-0.4,1.9-0.7c0.1-0.7-0.8-1.4-1.6-1.5c-0.5-0.1-0.5,0.1-0.7-0.1c0.2-0.2,0.2-0.2,0.5-0.3
		c-0.2-0.4-0.3-0.5-0.5-1c-1,1.6,0.2,0.7-1.1,2L36,20.5c-0.3-3.8,2.7-5.1,3.1-3.9C39.1,17.3,38.6,18.2,38.7,18.9L38.7,18.9z
		 M29.2,23.8c-0.2,0.3-0.2,0.2-0.3,0.3C29.1,23.8,29,23.9,29.2,23.8z M23.9,21.1c0-0.3,0.6-0.8,0.8-1c-1.1,0.4-0.7,1-1.9,1.3
		c-1.3,0.3-2,0.9-2,0.9c0,0,0,0,0,0l0.4,0.3c0.9,0.7,2.7,0.5,3.2-0.6L24,22.3c-0.5,0.2-0.4,0-0.8-0.2l-0.4,0.2
		c-0.4-0.2-0.3-0.4-0.7,0l0.4,0.3c-0.3,0.1-0.8-0.1-0.9-0.5c1.7-0.8,2.6,0.1,3.7-1.9c-0.8,0.2-0.8,0.4-1.1,0.8
		C23.9,21.4,23.9,21.1,23.9,21.1L23.9,21.1z M39.7,19.1c0-0.3,0-0.5-0.2-0.8l-0.3,0.5C39.3,19,39.4,19,39.7,19.1z M38.3,14.3
		c0-0.4-0.2-0.8-0.6-0.9c-0.5-0.1-0.8,0.1-0.9,0.6l1-0.2C38.1,14.2,37.8,14.3,38.3,14.3z M38.9,14c-0.1-0.3-0.3-0.5-0.7-0.5
		c0.2,0.2,0.2,0.2,0.3,0.4c0.2,0.4,0.1,0.3,0.3,0.4L38.9,14z M32.2,22.9c-0.8-0.4-1.8-1.1-2.3-1.8c-0.2-0.2-0.1-0.2-0.3-0.4
		c-0.3,1,0,1.6,0.5,2.2l0.4,0.7c-0.7-0.4-1.8-1.4-2.1-2C28,20.9,28,20,26.5,21.5l-0.2,0.2c0.2-0.7,0.6-1.2,1.1-1.3
		c0.3-0.1,0.7-0.1,1,0.1c0.2,0.1,0.3,0.4,0.5,0.7c0.1-0.7,0.2-1.5,0.6-1.9l0.2,0.5c0.1,0.5,0.2,0.8,0.6,1.1
		c-0.2-1.4,0.9-2.1,1.6-2.5c-0.4,1.1-1.1,1.9-0.2,3.7L32.2,22.9L32.2,22.9z M28.4,19.2L28.4,19.2c0.1-0.1,0.1-0.1,0.1-0.1
		c0,0,0,0,0,0c1.1-1,1.2-1.6,2.4-1.8c0.2,0,0.4,0,0.6-0.1c0.3-0.1,0.2-0.2,0.6-0.2c-0.3,1.1-1.1,0.7-1.9,1
		C29,18.4,29.4,18.8,28.4,19.2L28.4,19.2z"/>
	<g id="_2807733017200">
		<path class="st6" d="M31.9,72.3c0.3-0.1,0.1-0.1,0.4,0c0.3,0.1-0.3,0,0.5,0.3l0.7-0.6c0.4-0.5,1.3-0.2,1.9-0.9
			c0.4-0.5-0.2-0.5,0.6-0.6c0.9-0.2,0.4-1,0.9-1.6c0.3-0.4,0.2,0.1,0.7-0.4c0.4-0.4,0.4-0.7,0.4-1.2c0.5-0.2,0.4,0.2,0.9-0.9
			c0.3-0.9,0.2-0.4,0.8-0.9c0,0-0.1-0.1-0.1-0.1c0,0,0-0.1-0.1-0.1c-0.2-0.2,0,0-0.1-0.2c-0.2-0.5,0-0.5,0.3-0.6
			c0.8-0.3,0.5-0.4,1-0.5c0.6,0.5,0-0.1,1.4-0.1l0-0.6c0.1-0.2,0-0.1,0.1-0.2c0,0,0.1,0,0.1,0c0,0,0.1,0,0.1,0l0.2,0.3l0.2,0.4
			c0.4-0.3,0.1-1.3,0-1.9c-0.2-0.9,0.1-1-0.4-1.4l-0.4-0.3c0.2-0.4,0.6-0.6,0.9-0.9c0.3-0.3,0.4-0.8,0.7-1c0.2-0.4-0.2,0.5,0.4-0.1
			c0.1-0.1,0-0.2,0.1-0.5c0.2-0.8,0.7-1,1.3-1.9c0.3-0.4,0.6-0.4,1-0.7l-0.1-0.4c0-0.5,0.7-0.7,0.9-1c0.2-0.3,0.1-0.6,0.3-1
			c0.2-0.3,0.4-0.4,0.6-0.7l0-0.4l-0.2-0.1l0.3-0.3c0-0.4,0.1-0.9,0.3-1.3c0.3-0.7,0.5,0,1-0.7l1.3-1.8l0.1-0.4
			c0,0.1,0.1,0.1-0.1,0.1c-0.3,0-0.2-0.1-0.3-0.1l0.3-0.2l-0.1-0.4c0-0.1-0.2-0.1,0-0.4c0.3-0.3,0.1,0,0.3-0.5
			c0.4-1.2,0.8-1.2,1.3-2.1c0.3,0-0.5-0.3,0.4,0c0.2,0.2,0.2,0.3,0.4,0.5l0.2-0.2l0.2-0.1c0,0,0,0,0.1,0c-1-1.7,0.1-2.2,0.4-2.5
			l0.7-0.9c0-0.1-0.1-0.6-0.2-0.6c-0.1-0.2,0-0.1-0.4-0.2c0-0.6,0.2-0.5,0.2-1.1c-0.2-1.7-0.9-1.2,0.7-2.6c0.6-0.6,1.2-2,1.6-2.3
			c0.2-0.3,0.4-0.4,0.5-0.7c-0.4,0.3-0.8,0.8-1.2,0.8L55.5,33c0,0,0,0,0,0l0.3-0.6c0,0,0,0,0-0.1c0.1-0.2-0.1-0.3,0.1-0.5
			c0.4-0.6,0.7,0,1-2.3c0.1-0.6,0.6-1,0.1-1.6c-0.4-0.2-0.2,0-0.5-0.3c-0.8,0.6-0.3,0.8-0.8,1.5c-0.4,0.5-0.4,0-0.8,1
			c-0.5,1.4-0.9,1.1-1.2,1.9c-0.2,0.7-1.3,0.9-1.4,1.2c0.3,1.2,0.3,0.4-0.1,1.4c-0.6,1.5-0.3,0.6-0.7,1.2c-0.3,0.5,0.6,0.5,0,1.4
			c-0.5,0.8-0.5,0.2-1,1c-0.4,0.8-0.3-0.2-0.6,1.3c-0.1,0.4-0.7,0.7-0.8,1.2c-0.1,0.4,0,0.4-0.2,0.8l-0.8,2c0,0.7,0.7,1.6-1.2,2.4
			c-0.5,0.2-0.9,0.5-1,1c-0.3,1.4,1,1.2-0.5,2.8c-0.4,0.4-0.4,0.7-1,1c-0.7,0.3-0.7,0.3-0.7,1.2c0.1,1.9-1,1.3-0.8,2.9
			c0.1,0.7,0,0.4-0.5,1.4c-0.5,1.1-0.6,0.4-0.8,1.1c-0.4,1.2-0.8,1-1.2,1.7c-0.2,0.4,0.1,0.3-0.3,0.7c-1.2,1,0.3,1.7-0.8,2.9
			c-0.5,0.6-0.8,0.1-1.3,0.7c-1.2,1.6-1.4,0.5-1.7,1.2c-0.4,0.6,0.5,1.8-1,2.8c-1,0.7-0.7,0.7-1.7,1.3c-1.6,1.2,0.5,0.6-1.6,2.3
			c-0.3,0.3-0.8,0.8-0.7,1.2c0.2,0.1,0.1,0.3,0.5,0.1L31.9,72.3L31.9,72.3z"/>
		<path class="st7" d="M44.3,50c-0.2,0.2-0.3,0.1-0.5,0.2l-0.3,0.2c0,0,0,0.1,0,0.1c-0.2,0.2-0.2,1.2-0.3,1.7
			c-0.2,0.7-0.6,0.8-0.7,1.3c-0.1,0.7,0.3,0.4-0.2,1.3c-0.1,0.1-0.1,0.3-0.1,0.4c-0.3,1.3-0.6,0.9-1,1.1c0.3,1.7-1.2,0.7-1.2,2.7
			c-1.1-0.4,0.1-0.2-0.4-0.2c-0.3,0.7-0.4,2.1-0.2,2.9c-0.7,0.3-0.5,0.5-0.8,0.5L38.3,62c-0.4,0.2-1.3,1.5-1.6,1.6
			c0,0-0.1-0.1-0.1-0.1l-0.4-0.5c0,0,0-0.1-0.1-0.1c0,0.9-0.4,0.6-0.4,1.3c0,0.5,0.1,1.1,0,1.5l-0.6,0.7c-0.7,0.6-0.9,0.2-1,0.9
			l-0.6,0.5c-0.6,0.4-0.9,0.4-1.1,1.1c-0.2,0.7-0.3,0.1-0.4,0.6c-0.1,0.5,0.3,0.3-0.3,0.7c-0.3,0.2-0.4,0.2-0.5,0.5
			c-0.3,0.7-0.3,0-0.4,0.5c-0.1,0.3,0.3,0.6-0.4,1c-0.1,0-0.2,0.1-0.2,0.1l-0.2,0.1c0.6,0,1.3-0.1,1.9-0.2l0.1-0.1
			c-0.4,0.1-0.4,0-0.5-0.1c0-0.4,0.4-0.9,0.7-1.2c2-1.7-0.1-1.2,1.6-2.3c1-0.7,0.7-0.7,1.7-1.3c1.5-1,0.6-2.2,1-2.8
			c0.4-0.6,0.5,0.4,1.7-1.2c0.5-0.6,0.8-0.1,1.3-0.7c1.1-1.2-0.4-1.9,0.8-2.9c0.4-0.3,0.1-0.2,0.3-0.7c0.4-0.8,0.8-0.5,1.2-1.7
			c0.3-0.7,0.3,0,0.8-1.1c0.4-1,0.6-0.7,0.5-1.4c-0.2-1.6,0.8-1,0.8-2.9c0-0.9,0-0.9,0.7-1.2c0.6-0.3,0.6-0.6,1-1
			c1.6-1.6,0.3-1.4,0.5-2.8c0.1-0.4,0.5-0.8,1-1c1.9-0.8,1.1-1.7,1.2-2.4l0.8-2c0.2-0.4,0.1-0.3,0.2-0.8c0.1-0.4,0.7-0.7,0.8-1.2
			c0.3-1.4,0.2-0.5,0.6-1.3c0.4-0.8,0.5-0.2,1-1c0.5-0.9-0.4-0.9,0-1.4c0.4-0.6,0.1,0.2,0.7-1.2c0.4-1,0.4-0.2,0.1-1.4
			c0.1-0.3,1.2-0.5,1.4-1.2c0.2-0.8,0.7-0.6,1.2-1.9c0.4-1,0.5-0.5,0.8-1c0.4-0.7-0.1-0.9,0.8-1.5c0.3,0.3,0.1,0.1,0.5,0.3
			c0.3-0.9-0.3,0-0.2-0.8c0-0.1,0.3-0.5,0.3-0.6c0.2-0.3,0.6-1,0.5-1.2c-0.1,0.1-0.5,0.3-0.8,0.7c-0.2,0.4-0.3,0.5-0.6,0.9
			c-1.2,1.1-0.5,1.4-1.1,2c-0.4,0.4-0.5,0.4-0.7,1c0,0.1-0.3,0.9-0.5,1c-0.3,0.3-0.3,0-0.6,0.3c-0.2,0.4,0.1,0.9-0.5,1
			c-0.1,0-0.2,0.1-0.3-0.1c0,0,0,0,0,0c-0.5,1.2-0.7,0.5-0.9,1.2l0,0.3c0.2,0.1,0.3,0,0.4,0.1c0.2,0.1,0,0,0,0.1
			C52,33.9,52,33.9,51.8,34c-0.2,0.3-0.1-0.1-0.2,0.3c-0.1,0.5,0,0.4-0.4,0.8c-0.4,0.4-0.6,1.3-0.8,1.6c0.6-0.1,0.5,0,0.9-0.4
			c0,0.4-0.4,0.7-0.7,0.9c-0.7,0.4-0.2,0.5-0.6,0.9c-0.2,0.2-0.3,0-0.5,0.4c-0.2,0.6,0.5,0.1-0.7,1.4c-0.5,0.5-0.2,0-0.2,0.5
			c0,0.4-0.4,1.1-0.6,1.5c-0.1,0.4-0.4,0.5-0.5,0.9c0,0.3,0.1,0.1-0.1,0.5c-0.1,0.3-0.2,0.2,0,0.6c0.7,0.4-0.2-0.2,0.4,0
			c-0.1,0.4-0.3,0.8-0.7,1l-0.3,0.2c0,0-0.1,0-0.1,0c-0.5-0.2,0,0-0.3-0.4c-0.2,0.6-0.7,0.8-1,1.2c-0.3,0.6,0.5,1.1-0.4,1.4l0.7,0.4
			c-0.6,1.4-0.5,0.7-1.2,1.7C44.5,49.9,44.4,49.8,44.3,50L44.3,50z M38.3,62l0.1,0.3c0.4,0,0.1-0.2,0.8-0.5L39,61.5
			c-0.1-0.1-0.1-0.2-0.2-0.3l-0.1,1C38.5,62,38.3,62,38.3,62L38.3,62z M33.5,67.9l0.6-0.5c-0.1,0-0.2,0-0.3,0.1
			c-0.1-0.4,0-0.3-0.2-0.5L33.5,67.9z M53.2,43.8L53,44c-0.2-0.2-0.3-0.3-0.4-0.5c-0.9-0.3-0.1,0-0.4,0c1,0.4,0.1,0.3,1.1,0.8
			L53.2,43.8L53.2,43.8z M48.1,51.2l-0.3,0.3l0.2,0.1l0,0.4l0.2-0.3c0.1-0.2-0.2,0.2,0.1-0.2c-0.1-0.1,0,0-0.2-0.1c0,0-0.1,0-0.1,0
			L48.1,51.2L48.1,51.2z M43.5,50.6C43.5,50.6,43.5,50.5,43.5,50.6l0.3-0.3c0.2-0.1,0.3-0.1,0.5-0.2L44,50.1c0,0-0.1-0.1-0.1-0.1
			l-0.3-0.1c0,0,0,0,0,0.1L43.5,50.6z M50.6,47.5l0.3-0.4c-0.1-0.1,0.2-0.1-0.3-0.1l-0.3,0.2c0.1,0,0,0.1,0.3,0.1
			c0.3,0,0.1,0,0.1-0.1L50.6,47.5L50.6,47.5z M52,33.7c0-0.1,0.2,0,0-0.1c-0.1-0.1-0.1-0.1-0.4-0.1l0-0.3l-0.2,0.3L52,33.7L52,33.7z
			 M41.9,63.3l0.1-0.2c0,0,0.3,0.2,0.3,0.2L42.2,63c-0.1,0-0.1,0-0.1,0c0,0-0.1,0-0.1,0C41.9,63.2,42,63.1,41.9,63.3z"/>
	</g>
	<g id="_2807733014384">
		<path class="st6" d="M43.7,72.8l0.2-0.1l0.4,0.3c-0.1-0.3,0-0.1,0.1-0.3c0.1-0.1,0,0,0.1-0.1l0.1-0.1l0.3-0.4
			c0.6-0.2,0-0.3,0.7-0.6c0.8-0.4,0.1-0.4,0.9-0.6l-0.3,0.6c-0.1,0.1-0.3,0.1,0,0.2c0.3-0.4,0.5-1.5,0.7-1.8c0.5-0.1-0.1,0,0.3,0.1
			c0.5,0.1,0.1-0.5,0.1-0.6c-0.1-0.3,0-0.6-0.1-1c0.9,0,1,0.1,0.7-0.6c-0.3-0.6,0.2-0.2,0.3-1.3c0-0.4,0-0.2,0.3-0.4
			c0.5-0.3,0.4-0.3,1.4-0.2c0-0.3,0.2-0.4,0.2-0.6c-0.1-0.4-0.1,0.2-0.2-0.3c-0.1-0.3,0.4-0.6,0.7-0.5c0.3,0.1,0.2,0.3,0.5,0.6
			l0.3-0.6l0.5,0.2c0-1.3,0.3-0.6,0.5-1.1c0.2-0.5,0.9-1.2,0.9-1.7c0-0.8-0.3-0.5-0.1-1.1l0-0.3c0-0.6,0.1-0.4,0.2-0.8
			c0.1-0.4-0.3-0.7-0.3-1.1c0-0.2,0.1-0.3,0.2-0.5c0.1-0.5,0-0.5,0.4-0.7l0.2-0.1c0,0,0,0,0.1,0l0.4-0.4c-0.3-0.1,0.1,0-0.2,0
			c-0.7,0,0.4,0.1-0.2,0c0-0.1,0-0.1,0-0.3c0,0,0-0.1,0.1-0.1c0.3-0.5-0.4-0.2,0.5-0.5l1.6-1.1c-0.5,0.2,0,0.2-0.7,0.3
			c0-0.4,0.2-0.9,0.2-1.3c0-0.8,0.8-0.6,1.2-0.7l0.2-0.8c0.3,0,0.2,0,0.7,0.3c-0.1-2.3,0.7-1.4,1-2.1c0.1-0.3-0.1-0.4,0.3-0.7
			c-0.3-0.2-0.6-0.3-0.5-0.5c0.1-0.3,0.3-0.1,0.4-0.4c0.2-0.4-0.6-0.7-0.1-1.1c-0.4-0.1,0,0.1-0.6,0c0-0.4,0.2-0.3,0.1-0.6
			c-0.3-0.6-0.9-0.4-0.1-1.5c-0.1,0.1-0.3,0.2-0.4,0.3l-0.4,0.3c-0.2,0.4-0.2,0.9-0.8,1.2c-0.3,0.2-0.4,0.1-0.4,0.3
			c0,0.4,0.3,0.8,0.1,1.1c-0.2,0.2-0.8,0.3-1.2,0.5c-0.6,0.3-0.3,1.9-0.5,2.3c-0.2,0.3,0,0.1-0.5,0.3c0.2,1.3-1,0.7-0.9,1.6
			c0.1,0.3-0.6,1.4-0.7,1.8c-0.1,0.4-0.1,0.7-0.4,0.9c-0.8,0.5,0,0.6-0.6,1c-1.1,0.8,0,1.6-0.2,1.8c-0.8,0.4-0.6,0.2-0.8,0.8
			c-0.2,0.7-0.8,0.4-1,0.8c-0.2,0.3,0.3,0.9-0.4,1.4c-1.3,1-1.2,2.2-1.5,2.6c-0.3,0.4-0.6,0.1-0.6,0.6c0,0.4,0.1,0.5-0.5,0.6
			c-0.8-0.4-0.1-0.5-0.9-0.6c-0.3,0.3,0.3,0.6-0.2,1c-0.7,0.7,0.1,0-0.2,0.9c-0.1,0.2-0.4,0.8-0.4,0.9c0.1,0.4,0.7,0.3,0.4,1
			c-0.2,0.3-0.5,0.5-0.6,0.8c0,0.5,0.1,0.5-0.1,1c-0.1,0.3-0.2,0.6-0.4,0.9c-0.2,0.3-0.2,0.2-0.3,0.4C43.4,72.5,43.5,72.6,43.7,72.8
			z"/>
		<path class="st7" d="M55.9,48.7c0.1,0.6-0.1,0.1-0.7,0.5c-0.2,0.1,0.1,0.1-0.3,0.2c-0.3-0.1-0.2,0.1-0.4-0.3l-0.2,1.2
			c-0.5,0.1,0.5,0-0.1,0c-0.3,0,0.2-0.1-0.2,0c0.1,0.5,0.4,1.1,0,1.5c0,0-0.2-0.2-0.2-0.2c-0.2-0.2-0.1-0.1-0.3-0.2
			c0.1,0.6,0.3,1.3-0.5,1.6c-0.9,0.4-0.2,0.4-0.3,0.8c0,0.1-0.2,0.4-0.3,0.6l-0.7,1.8c-0.4-0.2-0.1-0.2-0.4-0.4l-0.2,1.5
			c-0.4,0-0.3,0-0.5,0c-0.1,0.4-0.4,0.8-0.3,1.1c0.2,0.5,0.7,0.5-0.2,0.9c-0.2,0-0.1,0-0.3-0.1c-0.4-0.2,0.2-0.1-0.1,0
			c-0.2,0.5,0.3,0.8-0.4,1.2c0,0-0.1,0-0.1,0l-0.7-0.1c0.1,0.4,0.2,1.4-0.1,1.7c-0.3,0.4-0.1,0.1-0.4-0.2c-0.1,0.4-0.1,0.5-0.4,0.9
			c-0.3-0.2-0.3-0.3-0.5-0.4c0.4,0.8,0.3,0.7,0,1.4c-0.2,0.5-0.2,0.9-0.7,1.1c-0.1-0.1-0.1-0.2-0.2-0.3L46,64.3
			c0.1,0.5,0.6,1.1,0.2,1.4c-0.2-0.2-0.1-0.1-0.3-0.3c-0.3-0.3-0.7-0.3-0.9-1.1c-0.4,0.3-0.4,0.6-0.3,1.1c0.2,0.8,0.1,0.7-0.4,0.9
			c0.1,0.4,0.3,0.2,0.2,0.6c-0.2,0.6-0.3,0.3-0.5,1.1c-0.1,0.4-0.2,0.1-0.3,0.4c0.4-0.2,0.1-0.1,0.8-0.1c0,0.3,0,0.5-0.3,0.8
			c-0.6,0.6-0.1,0.7-0.4,1.3l0,0.2c0,0.2-0.1,0.5-0.2,0.7c-0.1,0.2-0.1,0.1-0.2,0.3c-0.1,0.1-0.1,0.2-0.2,0.3
			c-0.3,0.3-0.1,0.4-0.3,0.7c-0.3,0.4-0.4,0-0.8,0.9C42,73.9,42,73.8,42,74c0.4-0.2,0.3-0.4,0.6-0.6c0.3-0.3,0.3-0.2,0.9-0.3
			l0.2-0.3c-0.2-0.2-0.2-0.3-0.1-0.5c0.1-0.2,0.2-0.2,0.3-0.4c0.2-0.3,0.3-0.5,0.4-0.9c0.2-0.5,0.1-0.5,0.1-1c0-0.4,0.4-0.5,0.6-0.8
			c0.3-0.7-0.2-0.6-0.4-1c0-0.1,0.3-0.7,0.4-0.9c0.3-0.9-0.5-0.2,0.2-0.9c0.4-0.4-0.1-0.7,0.2-1c0.8,0.2,0.2,0.3,0.9,0.6
			c0.7-0.1,0.6-0.2,0.5-0.6c0-0.5,0.2-0.2,0.6-0.6c0.3-0.4,0.3-1.5,1.5-2.6c0.6-0.5,0.1-1.1,0.4-1.4c0.2-0.4,0.8-0.1,1-0.8
			c0.2-0.7,0.1-0.4,0.8-0.8c0.2-0.2-0.9-1,0.2-1.8c0.6-0.5-0.1-0.6,0.6-1c0.4-0.2,0.3-0.5,0.4-0.9c0.1-0.4,0.8-1.5,0.7-1.8
			c-0.2-0.9,1.1-0.3,0.9-1.6c0.5-0.2,0.3,0.1,0.5-0.3c0.3-0.4,0-2,0.5-2.3c0.3-0.2,1-0.3,1.2-0.5c0.3-0.3-0.1-0.7-0.1-1.1
			c0-0.2,0.1-0.2,0.4-0.3c0.5-0.3,0.6-0.8,0.8-1.2l0.4-0.3c0.1-0.1,0.3-0.2,0.4-0.3c0-0.2,0.1-0.8,0.2-1.1l-1,1
			c-0.1,0.1-0.2,0.1-0.3,0.3c-0.2,0.2-0.2,0.5-0.3,0.8c-0.1,0.3-0.3,0.4-0.5,0.7c-0.2-0.1-0.3-0.3-0.4-0.4
			C55.8,47.9,55.6,47.8,55.9,48.7L55.9,48.7z M44.6,72.5c0.3-0.1,0.3,0,0.6-0.1l-0.3-0.1c0,0-0.1,0,0-0.2L44.6,72.5z M54.5,49.1
			c0.3,0.3,0.1,0.2,0.4,0.3c0.3-0.1,0.1,0,0.3-0.2c0.6-0.4,0.8,0.1,0.7-0.5L55.5,49l-0.2-0.2c0,0,0,0-0.1-0.1c0,0.3-0.1,0.3-0.1,0.5
			L54.5,49.1L54.5,49.1z M48.4,59.9c0.1,0.1,0.3,0.2,0.3,0.2c0-0.8-0.2-0.6-0.4-0.6C48.4,59.6,48.1,59.6,48.4,59.9L48.4,59.9z"/>
	</g>
	<g id="_2807733011344">
		<path class="st6" d="M29.3,63.3c0.2-0.2,0.3-0.1,0.6-0.3c0.1-0.1,0,0,0.2-0.1l0.5-0.2c1-0.5,0.3-0.3,0.7-0.7l0.9-0.7c0,0,0,0,0,0
			c0.3-0.3,0.1-0.3,0.4-0.7c0.1-0.2,0.3-0.4,0.5-0.5c0.8-0.3,0.4-0.5,0.8-1l0.9-0.7c0.7-0.5,0.2-0.4,0.9-0.6
			c-0.1-0.1-0.1-0.2-0.1-0.3c0-0.2,1-1,1.2-1.2c0.2-0.3-0.1-0.1,0.1-0.3c0.1-0.1,0.3-0.1,0.4-0.3c0.4-0.7,0.5-0.4,0.6-0.7
			c-0.2,0-0.3,0-0.4,0.1c0.2-0.2,0.3-0.3,0.4-0.5l0.5-0.4c0,0,0,0,0.1,0c1.5-0.9,0.6-1.2,1.4-1.9c0.6-0.5,1.3-0.5,1.3-0.7
			c0,0,0,0,0.1,0l-0.2,0c-0.2,0-0.1,0-0.1,0c-0.3-0.1-0.4,0.1-0.1-0.2l-0.1,0c-0.3,0.1-0.1,0.1-0.3,0.1c-0.6,0-0.4,0-0.4,0
			c0,0,0-0.1,0-0.1l0-0.1c0.1-0.3,0.1-0.1,0.4-0.3c0.1-0.1,0.1-0.2,0.2-0.4c0.1-0.2,0.4-0.5,0.4-0.6c0,0,0.1-0.1,0.1-0.1
			c0-0.1-0.1-0.1,0-0.3l0.5-0.9c0.2-0.2,0.1-0.1,0.3-0.3l0.7-1.3c-0.3-0.1-0.2,0-0.4-0.1c0.3-0.1,0.3-0.1,0.4-0.1l0.1,0l-0.1,0
			c-0.3,0-0.2,0-0.4-0.1c0-0.3,0-0.3,0.3-0.5l0.5-0.4c0.2-0.2,0.4-0.5,0.4-0.7c-0.2,0.2-0.1,0.3-0.6,0.3c-0.1,0-0.2,0.1-0.2-0.2
			l0.6-0.6c0.8-0.7,0.5-0.6,0.8-1c0.1-0.2,0,0,0.2-0.2c0.9-0.7,0.9-1.2,0.7-1.8c-0.2-0.6-0.2-0.2-0.4-0.4c-0.3-0.3,0.9-1.2,1.1-1.6
			c0.2-0.3,0.1-0.7,0-1c-0.2,0-0.2,0.1-0.5,0c0-0.2,0-0.3,0-0.5c0.2-1-0.7,0.1-0.1-1.5c-0.2-0.1-0.4-0.5-0.5-0.6
			c-0.7,0.1-0.7,0.5-0.8,0.8c0,1.2-1,0.8-0.9,1.7c0,0.6-0.2,0.4,0.1,1c0.2,0.4-0.1,0.7-0.3,1c-0.1,0.2,0,0.3-0.1,0.5
			c-0.1,0.2-0.3,0.1-0.3,0.4c0,1.2,0,0.8-0.7,1.3c-0.4,0.2-0.1,1.2-0.3,1.5c-0.1,0.2-0.3,0.2-0.5,0.4c-0.2,0.2-0.1,0-0.1,0.2
			l-0.2,0.7c-0.1,0.3-0.5,1-0.8,1.3c-0.4,0.3-0.3,0.5-0.3,0.9c0,0.2,0,0.9,0,1c-0.1,0.1-0.3,0.3-0.3,0.4c0,0.4,0.7,0.2-0.3,0.9
			c-0.2,0.2-0.2,0.2-0.3,0.4L37.5,51c-0.1,0.2-0.1,0.3-0.3,0.4c-0.2,0.2-0.3,0.1-0.2,0.5c0.2,0.5-0.1,0.5-0.3,0.9
			c-0.4,0.7,0.1,0.1-0.6,0.8c-0.4,0.4-0.2,0.5-0.7,0.6L35,54.2c-0.3,0.1-0.3,0.3-0.6,0.4c-0.4,0.2-0.5,0-0.6,0.3
			c-0.6,1.2,0,1.4-0.2,2c-0.3,0.6-0.2,0.3,0,0.5c0.7,0.5-0.2,0.5-0.9,1.2c-0.3,0.3-0.4,0.5-0.7,0.8c-0.4,0.3-1.4,1.2-1.6,1.5
			c-0.2,0.4,0.1,0.5-0.3,0.9c-0.1,0.1-0.3,0.2-0.4,0.4c-0.1,0.2-0.1,0.3-0.3,0.4c-0.3,0.2-0.4,0.1-0.4,0.4
			C29.1,63.4,29.2,62.9,29.3,63.3L29.3,63.3z"/>
		<path class="st7" d="M33.6,57.6l0.2-0.1c0,0,0,0,0,0c-0.3-0.1-0.1,0-0.2-0.1c-0.2-0.1-0.1,0-0.2-0.1l0-0.3c-0.5,0.3,0,0.1-0.2,0.4
			l0.5,0L33.6,57.6L33.6,57.6z M45.2,36.4c-0.2-0.7,0.1-0.7-0.3-1.1l-0.3,0.3c-0.2-0.6,0-0.3-0.3-0.5c-0.2,0.6-0.3,0.5-0.6,0.7
			c-0.3,0.3-0.4,0.4-0.7,0.7c0.4,0.1,0,0,0.3,0c0.2,1.1-1.1,1-0.9,1.9c0.1,0.1,0.1,0,0.1,0.1c0,0.1,0,0-0.1,0.1l-0.2,0.6
			c0.1,0.1,0.2,0.1-0.1,0.1l0,0c0.1,0.1,0.2,0.1,0,0.1l0.1,0.3l0.2-0.2c0-0.1-0.1-0.1,0.1-0.2c0.1-0.1,0,0,0.2-0.1
			c0.2,0.2,0.2,0.1,0,0.3c0,0.9-0.5,0.4-0.4,0.8c0.1,0.5-0.3,0.5-0.6,0.8c0.1,0.1,0.4,0.1,0.3,0.4c-0.2,1.1-0.7,0.4-0.9,1.2
			c-0.2,0.8,0.2,1.1-0.6,1.5c-0.1,0-0.2,0.1-0.3,0.1c-0.5,0.4,0.1-0.1,0,0.3c0,0.1-0.1,0.3-0.1,0.4l-0.8,1.2
			c-0.2,0.1-0.3,0.2-0.3,0.4L39,48.1c0.1,0.5-0.6,0.5-0.4,0.8c0.2,0.3-0.3-0.3,0.1,0.1l0.1,0.1c0.2,0.3-0.4,0.4-0.5,0.5
			c-0.2,0.2-0.1,0.2-0.3,0.4l-0.7,0.7c-0.1,0.1-0.1,0.3-0.2,0.4c-0.2,0.2-0.3,0.1-0.4,0.3c-0.1,0.4,0.4,0.4-0.1,0.9
			c-0.3,0.3-0.2,0.5-0.5,0.8c-0.2,0.2-0.5,0.4-0.6,0.7L35,53.8c0,0-0.1,0-0.1,0c-0.1,0.2-0.2,0.2-0.4,0.4c-0.2,0.3,0,0.2-0.6,0.3
			c-0.7,0.1-0.6,1.1-0.7,1.2c-0.1,0.3,0,0.2,0.1,0.4c0.1,0.2-0.1,0.7-0.1,0.9l0,0.3c0.1,0.1,0.1,0,0.2,0.1c0.2,0,0,0,0.2,0.1
			c0,0,0,0,0,0l-0.2,0.1c-0.2,0.4-0.5,0.3-0.8,0.6c-0.3,0.2-0.3,0.4-0.5,0.6c-0.3,0.3,0-0.1-0.3,0.2c-0.2,0.2-0.4,0.6-0.7,0.7
			c-0.5,0.2,0.4-0.2-0.1,0.1c-0.5,0.2,0.2-0.1-0.4,0.5c-0.7,0.6-0.3,1-0.6,1.4c-0.2,0.2-0.3,0.2-0.4,0.4c-0.2,0.3-0.1,0.2-0.5,0.4
			c-0.4,0.2,0.1,0.7,0.2,1l0.1,0c0.2-0.1,0.2-0.1,0.2-0.3c-0.1-0.3-0.2,0.1-0.2-0.3c-0.1-0.3,0.1-0.2,0.4-0.4
			c0.2-0.2,0.1-0.2,0.3-0.4c0.1-0.1,0.3-0.3,0.4-0.4c0.3-0.4,0.1-0.6,0.3-0.9c0.2-0.3,1.2-1.2,1.6-1.5c0.3-0.3,0.5-0.5,0.7-0.8
			c0.7-0.7,1.5-0.6,0.9-1.2c-0.2-0.2-0.3,0.2,0-0.5c0.2-0.6-0.4-0.8,0.2-2c0.1-0.3,0.2-0.1,0.6-0.3c0.3-0.1,0.2-0.3,0.6-0.4l0.4-0.1
			c0.6-0.1,0.4-0.2,0.7-0.6c0.7-0.7,0.2-0.1,0.6-0.8c0.2-0.4,0.5-0.4,0.3-0.9c-0.1-0.3,0-0.2,0.2-0.5c0.2-0.2,0.1-0.3,0.3-0.4
			l0.8-0.8c0.1-0.2,0.1-0.2,0.3-0.4c0.9-0.7,0.3-0.5,0.3-0.9c0-0.1,0.2-0.3,0.3-0.4c0.1-0.1,0-0.8,0-1c0-0.4,0-0.6,0.3-0.9
			c0.3-0.3,0.8-0.9,0.8-1.3l0.2-0.7c0.1-0.2-0.1-0.1,0.1-0.2c0.2-0.2,0.3-0.1,0.5-0.4c0.2-0.3,0-1.2,0.3-1.5
			c0.7-0.5,0.7-0.1,0.7-1.3c0-0.3,0.1-0.2,0.3-0.4c0.1-0.1,0.1-0.3,0.1-0.5c0.1-0.3,0.5-0.6,0.3-1c-0.3-0.6-0.1-0.4-0.1-1
			c-0.1-1,0.9-0.5,0.9-1.7c0-0.4,0-0.7,0.8-0.8C44.9,36,45,36.3,45.2,36.4L45.2,36.4z M29.3,63.7L29.3,63.7c-0.1-0.1,0-0.2-0.2,0
			c-0.2,0.2,0,0,0,0.2c0,0,0,0,0,0L29.3,63.7z M42.4,39.6l0.3-0.1c0.2-0.2,0.2-0.1,0-0.3c-0.1,0.1-0.1,0-0.2,0.1
			C42.4,39.5,42.4,39.4,42.4,39.6L42.4,39.6z M42.2,39.5C42.4,39.5,42.4,39.5,42.2,39.5L42.2,39.5z M42.2,39.4
			C42.5,39.4,42.4,39.4,42.2,39.4L42.2,39.4z M42.6,38.7c0.1-0.1,0.1,0,0.1-0.1c0-0.1,0-0.1-0.1-0.1l-0.4,0.1
			C42.3,38.6,42.2,38.6,42.6,38.7c0-0.1,0-0.1,0-0.1L42.6,38.7z M42.7,47.1c0.2-0.1,0.1-0.1,0.2-0.2l-0.1,0c-0.2,0-0.2,0-0.4,0.1
			C42.6,47.1,42.4,47,42.7,47.1L42.7,47.1z M40.1,51.2L40.1,51.2c0,0.1,0,0.1,0,0.2c0.1,0-0.1,0.1,0.4,0c0.2,0,0,0,0.3-0.1l0-0.3
			L40.1,51.2z M41,51.5l-0.1-0.2C40.6,51.6,40.8,51.4,41,51.5z M41.2,49.9l0.3-0.1c-0.1-0.2,0-0.1-0.2-0.3c-0.1,0.2,0,0.1,0,0.3
			C41.2,49.8,41.2,49.9,41.2,49.9L41.2,49.9z M29.3,63.6L29.3,63.6l-0.1-0.1c-0.3,0.1-0.4,0.2-0.4,0.5
			C29.3,63.9,29.2,63.9,29.3,63.6l-0.2,0.2c0,0,0,0,0,0c0-0.2-0.1,0,0-0.2C29.2,63.5,29.2,63.6,29.3,63.6L29.3,63.6z"/>
	</g>
</g>
<path class="st8" d="M40.2,75.6c6.9-0.1,16.7-1.8,22.4-4c-0.7-6.6-2.7-45.5-2.7-45.5s2.1,5.1,3.2,7.9c4.7-0.4,12.3-1.3,15.3-6.2
	C75.5,21,73.3,13.2,71,8.1c0,0-10.4-3.8-18.6-6.4c0,0-0.9-0.3-1.3,0.4c-3,4.2-4.5,7.1-11.2,7.1l0,0c-6.4-0.1-8-2.9-10.9-7.1
	c-0.5-0.7-1.4-0.4-1.4-0.4C19.5,4.2,9,8.1,9,8.1c-2.3,5.1-4.5,13-7.4,19.7c3,4.8,10.4,5.8,15.3,6.2c1.1-2.8,3.2-7.9,3.2-7.9
	S18,65,17.4,71.6c5.8,2.2,15.5,4,22.4,4l0,0"/>
</svg>
