<?xml version="1.0" encoding="UTF-8"?>
<!DOCTYPE svg PUBLIC "-//W3C//DTD SVG 1.1//EN" "http://www.w3.org/Graphics/SVG/1.1/DTD/svg11.dtd">
<!-- Creator: CorelDRAW X8 -->
<svg xmlns="http://www.w3.org/2000/svg" xml:space="preserve" width="210mm" height="297mm" version="1.1" style="shape-rendering:geometricPrecision; text-rendering:geometricPrecision; image-rendering:optimizeQuality; fill-rule:evenodd; clip-rule:evenodd"
viewBox="0 0 21000 29700"
 xmlns:xlink="http://www.w3.org/1999/xlink">
 <defs>
  <style type="text/css">
   <![CDATA[
    .str0 {stroke:white;stroke-width:262.5}
    .str1 {stroke:black;stroke-width:525;stroke-linecap:round;stroke-linejoin:round}
    .fil9 {fill:none}
    .fil4 {fill:#04BBD5}
    .fil2 {fill:#08CFC0}
    .fil1 {fill:#0EEBA1}
    .fil0 {fill:#141414}
    .fil3 {fill:#44B87C}
    .fil5 {fill:#659267}
    .fil6 {fill:#837056}
    .fil8 {fill:#A34C45}
    .fil7 {fill:#C12934}
    .fil10 {fill:white}
   ]]>
  </style>
 </defs>
 <g id="Capa_x0020_1">
  <metadata id="CorelCorpID_0Corel-Layer"/>
  <g>
   <path class="fil0" d="M10553 24576c1811,-27 4383,-473 5880,-1050 -184,-1733 -709,-11944 -709,-11944 0,0 551,1339 840,2074 1234,-105 3229,-342 4016,-1628 -761,-1785 -1339,-3832 -1942,-5171 0,0 -2730,-998 -4883,-1680 0,0 -236,-79 -341,105 -788,1102 -1181,1864 -2940,1864l0 0c-1680,-27 -2100,-762 -2861,-1864 -132,-184 -368,-105 -368,-105 -2126,656 -4882,1680 -4882,1680 -604,1339 -1182,3412 -1943,5171 788,1260 2730,1523 4016,1628 289,-735 840,-2074 840,-2074 0,0 -551,10211 -708,11944 1522,577 4068,1050 5880,1050l0 0 105 0zm0 0l0 0 0 0z"/>
  </g>
  <g>
   <path class="fil1" d="M10536 9780c-5,166 -390,1539 -475,1875 -24,96 -43,174 -63,263l-837 3182c-50,193 -92,349 -138,535 -45,182 -94,336 -134,519 -88,398 -260,937 -349,1342l-201 780c27,83 54,75 131,116 10,83 -4,44 -7,69 -14,148 32,52 2,182l-166 39c8,28 127,97 8,356 -69,151 21,175 38,363 -56,26 -57,25 -94,85 78,-31 34,-42 122,-54 113,229 -8,191 49,288 68,116 -8,-92 22,33l-111 62c34,55 59,39 69,101 7,40 -17,92 -25,133l-125 35c31,123 47,91 81,173 -221,249 16,112 -192,189l99 43c25,7 21,8 43,10 69,5 67,-86 173,46l-181 324c-74,12 -102,-6 -150,22 19,123 25,20 129,49l17 116c58,-43 49,-55 101,-103 19,28 36,54 50,88 -32,60 -63,61 -102,117 59,91 168,83 181,228 -176,40 -430,-229 -423,-77 1,20 3,18 11,36 109,241 26,166 67,254 18,36 140,111 159,119 -8,-100 -29,-53 -77,-135 28,-73 12,-13 58,-57 34,-32 23,-49 72,-67 87,-18 158,24 150,117 -73,41 -94,21 -158,-11 32,235 148,70 241,210 -46,43 -1,-4 -47,28 -90,63 -19,61 -85,125l51 27c91,63 16,71 83,138 61,-28 27,5 58,-69 83,-194 67,-24 233,-130 111,-72 39,-21 204,-48 -162,-171 -149,-95 -238,-71 -80,21 -30,-223 -17,-280 22,-97 86,-127 121,-205 81,46 64,84 156,92l-60 -154c162,51 163,-5 150,169 87,-25 57,-3 86,-65 57,119 28,-21 145,193 164,-60 -65,-39 119,-137 106,-57 106,-75 159,-169l125 -10c-18,-134 -52,-77 59,-100 -45,-35 -44,-26 -57,-103 17,-14 14,-8 39,-23 85,-51 48,-23 83,-81 63,46 127,106 211,73 -3,-124 1557,-6027 1744,-6738 99,-375 201,-741 297,-1126 40,-161 259,-1043 300,-1122l-78 5c-37,-150 -27,-3 -103,-121 -15,-23 20,1 -26,-52 -129,-5 -107,-14 -198,-38 -90,-23 -117,6 -196,-14 -50,-347 -14,-98 -155,-227l-39 -56c-53,-114 18,-24 -82,-92 25,-92 95,-152 60,-266l-44 54c-29,35 1,9 -37,40 -27,22 -68,40 -97,55 -2,-3 -3,-10 -4,-11 -54,-112 -41,14 -85,-79 27,-22 33,-36 91,-39 128,-7 -6,56 48,12 81,-58 51,-67 114,-141 70,-81 99,-32 149,-105 -5,-3 -12,-5 -16,-6 -63,-22 -132,-9 -80,-143 47,-7 -28,-9 31,1l112 -79c-58,40 -24,49 -99,23 -28,-58 -34,-46 2,-106l159 -192c-385,-393 -319,-125 -364,-31 -127,-71 -112,-214 -193,-299 -70,17 -48,5 -90,64 -34,-25 -103,-48 -131,-78 35,-61 55,-44 58,-96 3,-44 -21,-45 -30,-122 -95,51 -70,20 -165,8 43,46 28,18 53,78 -81,31 -54,64 -140,125 -40,-16 -7,-7 -34,-34 -48,-47 -36,-18 -119,-49 40,-107 262,-151 113,-248 -56,76 -6,168 -332,124l11 -95 -48 21z"/>
   <path class="fil2" d="M10179 20975c54,-39 73,-64 88,-138l100 48c-26,-102 -34,-98 15,-194 87,-17 207,73 222,165 24,146 -128,121 17,303 115,7 36,-26 159,-40 -19,88 -6,52 64,80 -11,121 27,241 -38,319 -64,77 -157,72 -134,167l25 1c220,-19 256,54 331,13 -6,-116 4,-49 -78,-97 10,-183 57,-25 -20,-189 124,-38 -33,19 107,9 50,-139 60,-254 -6,-353 42,-40 88,-61 117,-120 -103,-63 -89,-25 -144,-151 -85,8 -49,38 -111,-3 2,-106 -17,-21 39,-74 115,-107 134,-50 209,-34l42 -63c9,-8 -8,-35 69,-24 49,7 233,218 383,100 -25,-67 -116,-88 -179,-62 61,-250 -84,-58 4,-281 -62,-7 -146,5 -135,65 10,59 87,43 27,141 -38,-14 -10,1 -36,-20 -53,-42 -40,-37 -43,-76 -4,-52 38,-134 71,-163l131 -72c55,49 93,13 167,39 17,42 27,57 -35,144 -39,54 -73,61 -78,122 47,-23 110,-73 159,-79 124,-15 30,44 59,134 116,3 174,-84 258,-121l-8 106 -126 45c4,61 31,107 98,112 90,6 43,-54 175,-2 46,18 137,113 262,-74 -99,-73 -107,-96 -243,-151 30,-161 102,-53 152,-173 -4,-4 -10,-7 -13,-8 -174,-95 -76,-59 -162,-127 -41,-33 -70,-32 -100,-55 -81,-62 -9,-14 -34,-79 -71,-23 -156,-53 -198,-96 -72,-22 -207,-77 -247,-135 96,-57 144,-17 190,-115 -81,25 -186,64 -273,29l0 -97 -127 -43c10,-130 -4,0 43,-98 22,-46 12,-56 35,-104 98,42 18,56 96,159 38,50 83,87 146,104 -53,-112 -115,-63 -141,-171 -31,-125 49,-121 120,-78 -80,17 -67,5 -67,88 85,-7 105,-19 136,-78 -40,-100 -107,-62 -172,-192 21,-102 28,-3 45,-101 36,-204 -129,-160 -197,-192 -9,-129 79,-160 182,-137l-206 -122c-66,32 15,-6 -41,41l-21 11c-17,-62 15,-90 47,-131l154 5c-51,-91 -11,-15 -73,-47 23,-44 30,-33 37,-64 18,-79 -1,30 -5,-44 0,-3 -2,-5 -2,-7 36,15 199,239 320,136 64,-54 -93,15 26,-51 87,64 22,89 135,126 23,-32 16,0 13,-52 -1,-8 -15,-45 -19,-62l89 39c2,-84 144,-588 177,-724 233,-934 510,-1897 742,-2833l458 -1754c23,-93 52,-286 114,-319 -29,-77 45,-107 -26,-149l-350 -42c-52,-14 -57,-8 -41,-34l58 -30c-91,-61 -119,-62 -208,-84 34,-60 27,-4 44,-81l-90 -80c-65,21 -130,102 -61,-59 -40,-4 -64,-14 -103,5 -44,20 -35,51 -40,40 -1,-3 -4,9 -7,13 -32,-57 -22,-48 -24,-118 -79,21 -86,-40 -115,-132 -43,-138 48,-141 -39,-216 -41,79 -260,961 -300,1122 -96,385 -198,751 -297,1126 -187,711 -1747,6614 -1744,6738z"/>
   <path class="fil3" d="M9566 10665l-221 837c-33,148 -73,267 -108,411l-921 3539c-17,75 -38,125 -55,195l-409 1572c-13,52 -31,11 1,75 20,174 20,168 108,209l-85 109 58 11c-34,75 -45,77 -46,172 45,-46 88,-86 192,-57 56,17 94,65 114,116 -75,57 -31,-8 -83,19 33,173 60,106 113,205 55,102 17,113 115,198l201 -780c89,-405 261,-944 349,-1342 40,-183 89,-337 134,-519 46,-186 88,-342 138,-535l837 -3182c20,-89 39,-167 63,-263 85,-336 470,-1709 475,-1875 -112,-36 -84,-80 -85,-187 0,-7 -1,-9 -3,-13 -66,-18 -22,-1 -74,24 -107,51 12,-54 -89,30 9,101 56,32 72,164 -72,104 -50,-29 -94,136 -68,-24 -22,-54 -84,-72 -43,75 17,132 -7,239l-161 -7 50 -106c-126,15 17,33 -143,43l42 67c-62,6 -52,-6 -90,24l-29 39c-64,97 -31,33 -96,65 66,144 212,173 44,341 31,60 34,40 72,107 -183,-6 -61,-30 -164,-100 -76,13 -90,49 -131,91z"/>
   <path class="fil4" d="M12031 18586l139 27c-82,-83 -23,-22 -19,-49 7,-50 20,33 -4,-26 -23,-56 -5,48 -24,-50l126 -32c-16,247 -41,164 -218,269 -4,65 -1,76 32,124 88,-6 38,19 75,-67l118 -5 32 -73c41,72 40,96 100,123 63,-78 -19,-125 -55,-185 28,-67 49,-52 49,-147 0,-118 9,-38 25,-144 11,-80 -6,-154 181,-223 -20,-62 -21,-46 -47,-101 28,-59 14,-16 38,-62 5,-8 23,-50 24,-52 38,-62 2,-29 102,-54 -45,-40 -60,-24 -79,-59 44,-35 76,-65 62,-148 -29,35 -30,36 -83,45 11,-131 116,-176 260,-145 -32,60 -126,118 -33,187 48,-21 20,-2 41,-56l70 -183c10,-48 -44,-214 -65,-242 36,-39 0,1 40,-32l28 -27c52,-41 -18,-42 102,-32l-24 -108c150,4 80,9 161,-65l31 74 174 -28c-36,-116 -48,-24 -19,-69 44,51 25,56 62,109 18,25 55,57 69,76l80 -71 -46 -11c-7,-1 -26,3 -50,-2 88,-234 132,187 321,-25 -69,-42 -20,10 -86,-20 55,-71 15,-52 33,-92 51,-110 137,25 275,-43 -14,-74 24,-31 -70,-71l-119 -36c-71,-11 -61,-2 -67,-100l92 6 11 -78c131,4 138,-30 180,-150l38 73c19,42 7,23 30,65 90,-3 33,-27 82,-14 59,15 -22,19 95,42l-4 -135c42,44 15,52 72,33 -45,-138 -121,7 -227,-39 17,-75 -8,-22 78,-57 15,-104 55,-170 49,-266 -66,10 -76,49 -102,-42l80 -38 -5 -135c34,-32 23,-22 84,-43 -23,-139 3,-95 44,-206 28,-77 3,-65 18,-133 24,-115 12,3 44,-88 34,-99 -46,-273 230,-329 -14,-100 6,-121 27,-193l181 118c54,-39 180,-173 190,-239 -131,-29 -197,44 -334,85 12,-93 17,-120 79,-170 -44,-38 -77,-28 -63,-102 13,-71 44,-54 103,-77 -49,-28 -40,-23 -99,-42 -124,-39 -173,45 -302,-61 15,-56 28,-72 58,-121 48,-81 34,-86 13,-104 -78,-58 -43,64 -69,126 -176,20 -286,-259 -312,-299 -99,-145 -164,-125 -225,-275 -60,-147 -69,-28 -130,-162 -58,-128 -5,-27 25,-101 -39,-67 -35,-28 -70,-99 -60,-123 -66,-172 -204,-276 5,-39 17,-69 17,-113l-25 -90c-62,33 -91,226 -114,319l-458 1754c-232,936 -509,1899 -742,2833 -33,136 -175,640 -177,724z"/>
   <path class="fil5" d="M8717 10697c-64,55 -289,1030 -313,1113l-735 2822c-28,110 -50,180 -77,288 -23,91 -63,210 -66,300l-48 13c26,19 0,0 32,20l60 37c3,2 9,5 12,7 105,59 -31,-28 44,22l-42 92c-96,-46 34,-54 -114,-65 -45,-3 -123,20 -166,27l67 41c199,144 156,93 294,-8 39,-28 29,27 27,-97 104,48 165,127 232,199 -2,2 -6,2 -7,2l-65 11c-27,107 -16,128 -11,243l-105 73 72 99 -95 44c-10,-46 16,-26 -14,-93l-153 32c-22,49 21,4 0,48 -87,8 -55,-3 -115,42 -4,3 -8,7 -11,9l-30 24c-27,23 0,-8 -29,24 59,82 345,156 457,183 -42,154 -110,108 -196,194 -55,-47 -42,-95 -144,-63 72,47 75,19 49,111 -149,68 -74,-11 -167,-15 -21,84 -12,102 32,165 97,6 45,-13 138,-37 -1,207 9,108 31,182 29,96 -69,397 104,363 22,-74 -10,-43 -38,-123 122,11 116,156 154,268l72 0c-32,-64 -14,-23 -1,-75l409 -1572c17,-70 38,-120 55,-195l921 -3539c35,-144 75,-263 108,-411l221 -837 -61 15c-10,-135 -68,-259 -129,-362 -100,42 23,35 -111,47 24,76 29,37 12,59l-117 -25c-51,68 -30,40 -82,86 -28,25 -13,8 -38,39l-37 55 -170 -67c-27,81 -69,156 -98,228 -26,-19 -22,33 -18,-43z"/>
   <path class="fil6" d="M7599 10684c41,64 -4,153 -25,238l-442 1691c-32,128 -465,1834 -511,1918l18 73c17,65 -14,7 22,65 93,-25 17,-13 96,-46 39,20 15,2 59,38 33,28 21,19 38,40 -59,45 -48,12 -87,77 45,110 127,92 48,176 -66,-37 -68,-98 -168,-157 29,74 72,87 111,153 94,163 0,30 145,125 4,87 9,-3 -36,87l91 101c42,-40 86,-44 160,-35 92,12 107,69 110,63 2,-3 6,9 10,13 136,-90 53,-92 240,-71l48 -13c3,-90 43,-209 66,-300 27,-108 49,-178 77,-288l735 -2822c24,-83 249,-1058 313,-1113 13,-130 -14,5 -53,-246 -206,2 -156,174 -375,115 -6,116 -69,137 -104,180 -83,104 -18,133 -212,194 -4,1 -11,3 -14,4l-27 12c37,38 59,47 82,119 -71,-33 -45,-12 -116,-130 -28,-47 -68,-92 -99,-128 43,-51 32,-14 54,-77 -117,-153 -104,-63 -254,-56z"/>
   <path class="fil7" d="M5778 13896l835 -3224c23,-82 39,-140 61,-227 14,-56 17,-70 30,-124 17,-70 -1,-72 54,-109 115,-149 -63,-188 -9,-324 28,-70 14,18 38,-75 8,-33 -1,-46 16,-101 33,-104 -4,-28 48,-70 3,-2 8,-5 11,-7 3,-2 9,-5 11,-7 3,-2 9,-5 11,-6l21 -12c-12,55 -39,77 -27,124 14,55 42,57 94,61 9,-146 -30,-163 23,-260 74,-134 -22,-2 31,-100 131,7 30,67 194,93 -29,-52 -53,-47 -69,-106 -27,-98 3,-8 15,-166 6,-80 6,-35 12,-55 11,-38 24,45 10,-49 -12,-82 -13,-30 -27,-47 -94,92 -60,126 -113,188 -48,-56 -75,-118 -59,-225 62,-37 104,-33 184,-48l-8 -38c-152,-26 -206,16 -344,54 46,60 23,80 -12,140 -58,100 -49,129 -71,161 -156,6 -168,-37 -285,37 1,-58 16,-93 33,-136 107,24 16,43 137,47 -13,-198 -103,-26 -272,-22 4,-136 104,-68 9,-150 -72,132 36,113 -137,167 10,64 43,99 15,152 -12,22 -82,72 -112,83 -118,49 -200,-36 -210,-141 -1,-6 -2,-9 -5,-12 -53,54 -66,34 -82,129l94 13c51,15 52,30 78,73 -124,-4 -194,-20 -246,-104 -37,-59 -16,-45 -94,-82 -1,3 0,9 -1,10 0,1 0,8 -1,10l-5 32c-7,16 -4,2 -16,27 -2,3 -5,8 -7,11l-291 322c-31,41 -35,82 -77,136 -87,114 -195,208 -265,345 71,41 86,-7 135,100 26,58 31,132 41,189 84,9 93,-106 131,117 31,181 41,104 104,204l-57 56 -68 -90c-2,-7 -8,-7 -12,-11 -26,80 -75,125 -109,179 -33,-27 -64,-39 -115,-51l-44 87c-20,37 -26,-7 -27,72 202,-13 266,13 327,181 5,73 -68,39 -30,173 109,46 -92,-2 29,-2 39,0 19,-41 46,26 19,47 14,100 8,149 214,-101 185,190 187,221 242,187 103,275 100,433 45,27 89,45 160,50 32,292 71,255 -140,396 -3,2 -11,13 -13,10 -2,-4 -9,6 -12,10 94,60 79,54 176,-7l77 78c-168,204 93,185 -111,428 -91,107 -196,215 -285,310 69,69 148,130 179,223 -45,66 -115,66 -78,179 26,77 70,138 153,123 -84,-146 -123,-227 28,-221z"/>
   <path class="fil8" d="M6758 10212c-55,37 -37,39 -54,109 -13,54 -16,68 -30,124 -22,87 -38,145 -61,227l-835 3224c62,68 1,45 83,106 32,23 33,17 57,39 164,145 225,48 184,232 107,-24 18,-42 89,-18 48,17 20,37 109,35 112,-2 144,30 153,144 100,6 159,10 131,112l37 -15c46,-84 479,-1790 511,-1918l442 -1691c21,-85 66,-174 25,-238l-81 -77 22 -112c-112,-12 -77,39 -182,47l83 -109c-11,-34 -31,-79 -46,-121 -20,-54 -38,-11 -4,-108 30,-82 98,-184 -55,-194 41,82 44,18 53,114 -55,43 -42,29 -122,59 20,115 78,10 50,136 -19,86 -37,67 -14,184 64,321 73,170 146,158 0,111 -7,75 -71,137l87 37c-36,22 -55,29 -112,19 -32,-56 -27,-29 -6,-88 -9,1 -35,5 -40,4 -37,-5 -14,0 -31,-12l-45 -48c-46,-44 -58,-52 -105,-46 16,101 37,26 52,130 -67,-6 -63,-19 -112,-23 -196,-16 -78,-30 -96,-181 -32,33 -36,44 -96,57 34,-51 33,-55 -15,-103 -32,-32 -58,-56 -100,-87 1,-58 13,-117 37,-161l163 -9c-53,-55 -148,66 -201,-75z"/>
  </g>
  <ellipse class="fil0" cx="7166" cy="11766" rx="919" ry="1050"/>
  <path class="fil0" d="M8426 17541c0,1338 -131,4147 -341,5066 -210,971 -551,0 -892,0 -368,0 -709,1076 -919,0 -184,-893 -289,-3806 -289,-5066 0,-2783 551,-5067 1208,-5067 656,0 1233,2284 1233,5067z"/>
  <ellipse class="fil0" transform="matrix(0.5079 -0.8614 0.8614 0.5079 8177.86 15601.1)" rx="473" ry="1785"/>
  <ellipse class="fil0" cx="7166" cy="15152" rx="1365" ry="2362"/>
  <path class="fil0" d="M10369 12527l-1155 9476c-26,131 -131,236 -236,210l0 0c-105,-26 -210,-131 -184,-262l1155 -9477c26,-131 131,-236 236,-210l0 0c105,0 210,132 184,263z"/>
  <path class="fil9 str0" d="M13650 12054c-499,0 -997,-761 -1050,-1128 -52,-342 -26,-1313 -26,-1313 289,-131 341,-367 341,-367l1155 0 289 0c0,0 52,262 341,367 0,0 26,971 -26,1313 -79,367 -551,1128 -1024,1128l0 0z"/>
  <path class="fil10" d="M13676 9981c-393,0 -603,498 -603,498l0 420c0,0 315,342 236,394 -53,26 -131,-157 -131,-157l0 367 367 236 -52 -761c0,0 -368,-210 -289,-262 79,-27 394,131 394,131l105 289 131 -289c0,0 367,-210 394,-131 26,52 -315,262 -315,262l-53 735 368 -236 -27 -368c0,0 -78,210 -131,184 -105,-52 105,-394 210,-394l0 -420c0,27 -184,-498 -604,-498z"/>
  <path class="fil9 str1" d="M10553 24576c1811,-27 4383,-473 5880,-1050 -184,-1733 -709,-11944 -709,-11944 0,0 551,1339 840,2074 1234,-105 3229,-342 4016,-1628 -761,-1785 -1339,-3832 -1942,-5171 0,0 -2730,-998 -4883,-1680 0,0 -236,-79 -341,105 -788,1102 -1181,1864 -2940,1864l0 0c-1680,-27 -2100,-762 -2861,-1864 -132,-184 -368,-105 -368,-105 -2126,656 -4882,1680 -4882,1680 -604,1339 -1182,3412 -1943,5171 788,1260 2730,1523 4016,1628 289,-735 840,-2074 840,-2074 0,0 -551,10211 -708,11944 1522,577 4068,1050 5880,1050l0 0"/>
 </g>
</svg>
