<?xml version="1.0" encoding="utf-8"?><svg version="1.1" id="Layer_1" xmlns="http://www.w3.org/2000/svg" xmlns:xlink="http://www.w3.org/1999/xlink" x="0px" y="0px" viewBox="0 0 80 77.1" style="enable-background:new 0 0 80 77.1;" xml:space="preserve"><style type="text/css"> .st0{fill:url(#SVGID_1_);} .st1{opacity:0.87;} .st2{fill:#060660;} .st3{fill:#FBFBFB;} .st4{fill:#F9F9F7;} .st5{fill:#FCFDFD;} .st6{fill:#F8F9FB;} .st7{fill:#F4F3F5;} .st8{fill:#F5F9FF;} .st9{fill:#F8F9FD;} .st10{fill:#F8F9FA;} .st11{fill:#F6F8FA;} .st12{fill:#F9F9FB;} .st13{fill:#A67C1D;} .st14{fill:#090B3E;} .st15{fill:#040303;} .st16{fill:#F9D606;} .st17{fill:none;stroke:#000000;stroke-width:3;stroke-linecap:round;stroke-linejoin:round;} </style><g id="Layer_3"><linearGradient id="SVGID_1_" gradientUnits="userSpaceOnUse" x1="23.5453" y1="56.3118" x2="51.0814" y2="34.7654" gradientTransform="matrix(1 0 0 -1 0 80)"><stop offset="0.1639" style="stop-color:#FFD503"/><stop offset="0.2231" style="stop-color:#FFD60A"/><stop offset="0.307" style="stop-color:#FFD91C"/><stop offset="0.4058" style="stop-color:#FFDE3B"/><stop offset="0.5159" style="stop-color:#FFE565"/><stop offset="0.6353" style="stop-color:#FFEF9C"/><stop offset="0.7607" style="stop-color:#FFF9DE"/><stop offset="0.8197" style="stop-color:#FFFFFF"/></linearGradient><path class="st0" d="M40.2,75.6c6.9-0.1,16.7-1.8,22.4-4c-0.7-6.6-2.7-45.5-2.7-45.5s2.1,5.1,3.2,7.9c4.7-0.4,12.3-1.3,15.3-6.2 C75.5,21,73.3,13.2,71,8.1c0,0-10.4-3.8-18.6-6.4c0,0-0.9-0.3-1.3,0.4c-3,4.2-4.5,7.1-11.2,7.1l0,0c-6.4-0.1-8-2.9-10.9-7.1 c-0.5-0.7-1.4-0.4-1.4-0.4C19.5,4.2,9,8.1,9,8.1c-2.3,5.1-4.5,13-7.4,19.7c3,4.8,10.4,5.8,15.3,6.2c1.1-2.8,3.2-7.9,3.2-7.9 S18,65,17.4,71.6c5.8,2.2,15.5,4,22.4,4l0,0"/></g><g id="Layer_1_copy"><g><g class="st1"><path class="st2" d="M17.8,58.2h0.3h0.3c0.2-0.1,0.8,0,0.8,0c0.1,0,0.3,0,0.8-0.1c0.1,0,0.5-0.1,1-0.2c1.3-0.3,2.5-0.7,2.6-0.8 c0.8-0.3,1.3-0.6,1.4-0.6c0,0-0.1,0.1-0.2,0.2c-0.3,0.2-0.6,0.3-0.8,0.5c-0.3,0.2-0.2,0.1-0.8,0.5c-0.3,0.2-0.5,0.3-0.8,0.4 c-0.3,0.1-0.5,0.2-0.8,0.4l-1.8,0.8c-0.3,0.1-0.4,0.2-0.4,0.2c0,0.1,0.5,0.1,0.5,0.1c0.3,0,0.9,0,1.8-0.6 c0.5-0.2,0.5-0.2,0.5-0.2c0.8-0.4,1.8-1,2.1-1.2c0.1,0,0.2-0.1,0.3-0.2c0.3-0.2,0.3-0.2,0.4-0.2c0,0-0.1,0.1-0.2,0.3 c-0.1,0.1-0.2,0.3-0.3,0.3c0,0,0,0-0.1,0s0,0.1-0.1,0.2c0,0,0,0-0.1,0S24,58.1,24,58.2c0,0,0,0,0,0.1s-0.2,0.2-0.4,0.3 c-0.2,0.1-0.2,0.1-0.4,0.3c-0.2,0.2-0.4,0.3-0.7,0.6c-1.1,0.8-1,0.7-1.1,0.8c-1,0.7-1.9,1.1-2.4,1.3c-0.3,0.1-0.5,0.2-0.8,0.3 c-0.7,0.2-0.6,0.3-0.6,0.4l0.3,0.8l-0.3,0.4c0,0-0.8,0.1,0,0.3c1.1,0.2,1.1-0.5,2.1-0.7c0.5-0.1,0.8-0.2,1.4-0.4 c0.8-0.2,1.2-0.4,1.6-0.5c1.2-0.5,2.4-1.2,2.3-1.1l0.3-0.2c0.1-0.1,0.1-0.1,0.3-0.2c0.2-0.1,0.3-0.2,0.3-0.2s0.1-0.1,0.2-0.1 l0.2-0.1c0,0-0.1,0.1-0.1,0.2c-0.1,0.1-0.2,0.1-0.2,0.2c0,0,0,0,0.1,0s0.1,0,0.1,0v0.1c0,0.1,0,0.1,0.1,0.1 c0,0.1-0.1,0.2-0.3,0.4c-0.2,0.2-0.2,0.3-0.3,0.4l-0.2,0.3c0,0,0,0,0,0.1s0,0.1,0,0.1l-0.1,0.2l-0.1,0.1 c-0.1,0.1-0.1,0.1-0.2,0.1c-0.1,0.1-0.1,0.2-0.1,0.3c-0.1,0.3-0.3,0.5-0.7,0.8l-0.1,0.1c-0.1,0-0.1,0-0.2,0s-0.1,0.1-0.1,0.2 c0,0.1,0,0.2,0,0.2c0,0.2-0.2,0.2-0.4,0.4c-0.2,0.2-0.3,0.5-0.3,0.5s0.1,0,0.6-0.3s0.5-0.3,0.7-0.5c0.1-0.1,0.1-0.1,0.4-0.4 c0.2-0.3,0.4-0.4,0.5-0.5c0.7-0.7,1.1-1.5,1.2-1.5c0,0,0,0.1,0,0.2c0,0.1,0.1,0.1,0.1,0.2c0,0.1,0,0.2-0.1,0.2 c-0.1,0.1-0.1,0.1-0.2,0.1c-0.1,0.1-0.1,0.2-0.1,0.4c0,0.1-0.1,0.2-0.2,0.4c-0.9,1.3-1.2,2.6-2.4,3.7c0,0-0.7,0.6-1,1.4 c0,0.1-0.1,0.2,0,0.3c0,0,0.1,0,0.2,0c-0.1,0-0.1,0,0,0c0.1-0.1,0.3-0.2,0.5-0.3l0,0c0.3-0.2,0.9-0.6,1.7-1.2 c0.8-0.6,1.2-0.9,1.3-1c0,0,0.5-0.6,0.6-0.5c0,0,0,0,0.1,0.1c0,0.1,0,0.1,0.1,0.1c0,0,0.1-0.1,0.1-0.2s0-0.1,0-0.2 s0.1-0.2,0.3-0.4c0,0,0.1-0.1,0.3-0.4c0.2-0.2,0.2-0.3,0.3-0.3c0.1-0.2,0.2-0.3,0.2-0.3s0,0,0.1,0.1s0.1,0.1,0.1,0.1 s0-0.1-0.1-0.1c-0.1-0.1-0.1-0.1-0.1-0.1c0-0.1,0.1-0.1,0.1-0.2c0.1-0.1,0-0.2,0.1-0.2h0.1c0.1,0,0.2,0.1,0.3,0.1 c0.1,0,0.1-0.3,0-0.6c0-0.1-0.1-0.1,0-0.2c0,0,0.1,0,0.2,0.1c0.1,0,0.1,0.1,0.2,0.1l0,0c0.1,0,0,0.2,0,0.3s0,0.2-0.1,0.3 c0,0.2-0.1,0.3,0,0.3c0,0.2,0.3,0.3,0.4,0.4c0.2,0.1,0.2,0.1,0.4,0.2c0.2,0.1,0.3,0.2,0.4,0.2l0,0l1.3,2.9v0.1 c0,0.1,0.1,0.3,0,0.4c-0.1,0.3-0.2,0.6-0.3,0.9c-0.2,0.4-0.2,0.9-0.5,1.3c-0.4,0.6-0.9,1.1-1.1,1.8c-0.1,0.3-0.1,0.7-0.2,1 c0,0.2,0,0.4,0.1,0.6c0,0.4,0.2,0.7,0.4,1.1c0.1,0.2,0.3,0.4,0.5,0.5c-0.1-0.6-0.1-1.2,0-1.7c0.2-0.5,0.3-1.1,0.6-1.6 c-0.1,0.3-0.1,0.7-0.1,1c0,0.8,0.1,1.5,0.4,2.3c0.2,0.4,0.6,0.8,1,0.9c-0.1-0.2-0.2-0.3-0.2-0.5C32.1,75.4,32,75,32,74.5 c0-0.4,0-0.8,0-1.2c0-0.2,0.1-0.3,0.1-0.4c0.1,0.3,0.1,0.6,0.3,0.9c0.1,0.4,0.4,0.6,0.6,0.9c0.1,0.1,0.2,0.2,0.3,0.2 c0.1,0.1,0.2,0.2,0.2,0.2c0-0.2-0.1-0.3-0.2-0.4c-0.1-0.3-0.2-0.7-0.2-1c0-0.2-0.1-0.4,0-0.7c0-0.3,0-0.6,0.1-0.8 c0.1-0.3,0.2-0.7,0.3-1c0.1,0.1,0.2,0.2,0.3,0.4c-0.1,0.4-0.3,0.8-0.4,1.2c0.3-0.2,0.5-0.5,0.7-0.8c0.1,0.1,0-1.4,0.1-1.4 s1.8-0.2,2,0c3.8,3.5,4.7,2.5,5.1,2.5c1.7-0.1,1.6-1,1.6-1.2c0,0-0.2-0.3-0.4-0.6c0.6,0.2,1.2,0.4,1.2,0.5 c0.1,0.4,0.2,1.3,0.2,1.7l0,0l0,0c0.1,0,0.1,0.1,0.2,0.1c0.1,0.3,0,0.6-0.1,0.8l-0.1,0.3c0.2,0.2,0.1,0.3,0.1,0.5 c0.3-0.2,0.5-0.5,0.8-0.8c0.4-0.5,0.6-1.1,0.7-1.7c0.1,0.3,0.1,0.6,0.1,0.9c0,0.5,0,0.9-0.1,1.4s-0.3,1-0.5,1.4 c0.1-0.1,0.2-0.2,0.4-0.2c0.4-0.3,0.7-0.8,0.8-1.3c0.2-0.9,0.3-1.8,0.1-2.7c0.1,0.1,0.1,0.3,0.2,0.4c0.2,0.5,0.3,1,0.4,1.5 c0,0.5,0,1,0,1.5c0.2-0.2,0.3-0.4,0.4-0.6c0.4-0.5,0.5-1.1,0.5-1.7c0-0.3,0-0.6-0.1-0.9c-0.1-0.4-0.3-0.7-0.5-1.1 c0-0.1,0-0.1,0-0.2c0.2,0,0.3-0.1,0.5-0.1c-0.1-0.1-0.2-0.2-0.3-0.3c0,0-0.1,0-0.2,0c-0.1-0.7-0.3-1.8-0.6-3.1 c0-0.2,0.2-0.5,0.2-0.7c0.1-0.4,0-0.3,0.1-0.6c0-0.2,0.1-1,0.1-1.2c0,0.1,0.1-0.4,0.1-0.7c0,0.1,0.1,0.2,0.1,0.3l0.1-0.1 c0,0,0,0,0.1,0h0.1c0,0.1,0,0.2,0,0.3l0,0c0.1,0,0.2,0,0.3,0c0-0.1,0-0.3,0-0.4s0-0.1,0.1-0.1s0.1,0,0.2,0 c-0.1-0.1-0.1-0.1-0.2-0.1c0-0.2,0-0.4,0.1-0.7c0.1-0.2,0.2-0.3,0.4-0.4h0.1c0.1,0,0.2,0,0.4,0c0.1-0.1,0.2-0.2,0.4-0.3h-0.1 v-0.1c0.1,0,0.1,0.1,0.2,0.1c0-0.1-0.1-0.2-0.1-0.3c0.1,0,0.1-0.1,0.2-0.1l0,0h0.1c-0.1,0.1-0.2,0.1-0.2,0.3 c0.1,0,0.2-0.1,0.3-0.1l0.1,0.1c0,0.1,0.1,0.2,0.1,0.2l0.3,0.4c0.2,0.5,0.6,0.9,0.9,1.3l0.2,0.3c0.3,0.3,0.6,0.6,0.9,0.9 c0.1,0.1,0.7,0.6,1,0.7c-0.1,0.3,0.1,0.6,0.3,0.8c0-0.1,0.1-0.2,0.1-0.3V67c0.1,0.1,0.1,0.2,0.2,0.3c0.1,0,0.2,0,0.2,0 c0.2,0.1,0.4,0.2,0.5,0.4c0.1,0.1,0.2,0.1,0.2,0.2c0.2,0.2,0.5,0.3,0.7,0.5c0.3,0.2,0.6,0.3,0.9,0.4L56,68.1l-0.3-0.4 c-0.2-0.3-0.3-0.5-0.5-0.8c-0.3-0.4-0.6-0.8-0.8-1.2L54,65.2c-0.1-0.2-0.3-0.4-0.4-0.6c-0.1-0.1-0.2-0.2-0.2-0.4 c0-0.2-0.1-0.4-0.1-0.7c-0.1-0.1-0.2-0.2-0.2-0.3s0-0.2,0-0.2s0-0.1-0.1-0.1c-0.2,0-0.3,0-0.4,0.2c-0.1-0.2-0.3-0.4-0.4-0.7 c0-0.2,0-0.4-0.1-0.6c-0.1,0-0.1,0.1-0.2,0.1c-0.1-0.3-0.3-0.5-0.4-0.8l0,0c0-0.1,0-0.1,0.1-0.2c0.3,0.5,0.7,0.9,1,1.5 c0.2,0.2,0.4,0.4,0.6,0.6c0.2,0.2,0.3,0.4,0.6,0.6c0.2,0.1,0.3,0.2,0.4,0.4c0.2,0.2,0.4,0.4,0.6,0.6c0.2,0.2,0.5,0.4,0.7,0.5 c0-0.2-0.1-0.3-0.2-0.4c-0.3-0.3-0.6-0.7-0.9-1l-0.7-0.9c-0.1-0.1-0.1-0.3-0.3-0.3c0.1-0.1,0.2-0.2,0.3-0.3 c0.1,0,0.1-0.1,0.2-0.2c-0.1-0.1-0.1-0.3-0.2-0.4v-0.1c0.1,0,0.2,0,0.2,0h-0.1c-0.1,0-0.2-0.1-0.4-0.1c-0.1,0.1-0.2,0.2-0.3,0.3 c-0.1,0-0.2,0-0.4-0.1c0-0.2,0.2-0.4,0.1-0.6c-0.1-0.1-0.2-0.1-0.4-0.2c0,0.1,0,0.2-0.1,0.4C52.2,61.1,52.1,61,52,61 c0-0.2-0.1-0.4-0.2-0.5c0.1,0,0.2-0.1,0.3-0.2c-0.2,0-0.3,0.1-0.5,0.1c0.1-0.1,0.1-0.2,0.1-0.2c0-0.1-0.1-0.1-0.1-0.2l-0.1,0.1 c0,0,0,0,0,0.1c0,0,0.1,0,0.2,0c-0.1,0-0.2,0.1-0.3,0.1h-0.1h-0.1l-0.1-0.1c0.1,0.1,0.1,0.2,0.2,0.3c0.1,0,0.2-0.1,0.3-0.1 c0,0.1-0.1,0.1-0.1,0.2c0.1,0.1,0.2,0.1,0.3,0.2c-0.2,0.2-0.5,0-0.8,0.2c-0.1,0.1-0.3,0.1-0.4,0.2c0-0.1,0-0.1,0.1-0.2 c-0.1,0-0.2,0.1-0.4,0.1c0-0.1,0-0.2,0-0.3c-0.1,0-0.2,0-0.3,0c0-0.1,0.1-0.1,0.1-0.2c-0.2-0.1-0.3-0.2-0.5-0.2 c0-0.1,0.1-0.1,0.1-0.2c-0.1,0-0.3,0.1-0.4,0.1l0,0c-0.1,0-0.2,0-0.3,0.1v-0.1c0.4,0,0.7-0.1,1-0.3l1.5-0.2l0.7,0.4 c0.3,0.2,0.6,0.5,0.9,0.7c0.3,0.1,0.5,0.4,0.7,0.5c0.1,0,0.2,0.1,0.2,0.1c0.6,0.4,1.3,0.7,2,0.9c1.3,0.4,2.5,0.9,3.8,1.1 c0.5,0,1.1,0.2,1.6,0c0.6,0,1.1-0.2,1.6-0.6c-0.7-0.1-1.3-0.3-2-0.5c-0.5-0.2-1-0.3-1.5-0.6c-1.3-0.5-2.5-1.2-3.6-2l-0.2-0.2 c0,0-0.1,0-0.1-0.1c0,0,0,0-0.1,0l-0.1-0.1c-0.2-0.1-0.4-0.3-0.6-0.4c-0.2,0-0.2-0.2-0.3-0.1c0-0.1-0.1-0.1-0.1-0.2 c-0.1-0.2-0.2-0.2-0.2-0.4c0-0.1-0.1-0.1-0.1-0.1c-0.1,0-0.1-0.1-0.1-0.1c-0.3-0.2-0.5-0.5-0.7-0.8c0.5,0.3,1,0.7,1.6,0.9 c0.3,0.1,0.5,0.4,0.7,0.5s0.4,0.2,0.6,0.3c0.5,0.2,0.9,0.5,1.4,0.6c0.4,0.1,0.8,0.3,1.2,0.1c0-0.1,0-0.1,0-0.2 c-0.6-0.2-1.1-0.4-1.6-0.7c-1-0.5-1.9-1-2.9-1.5c-0.4-0.2-0.8-0.5-1.2-0.7c0.5,0.2,1,0.4,1.4,0.7c0.5,0.1,0.9,0.3,1.3,0.4l0,0 c0.1-0.1,0.3-0.1,0.4,0c0.6,0.3,1.3,0.3,1.9,0.4c0.5,0.1,1.1,0.1,1.7,0.1c0.8,0.1,1.6,0,2.3,0c0.4,0,0.1-0.1,0.4-0.1 c0.2,0-1.3,2.1-1.2,2c0.3-0.1,0.6-0.4,0.9-0.6c0.2-0.2,0.2-0.4,0.3-0.6c-0.1-0.1-0.1-0.1-0.1-0.2c-0.1,0-0.2,0-0.2,0 c0,0.1,0,0.3,0,0.4c-0.4,0-0.8,0.2-1.2,0.1c-0.4-0.1,1.6-2.4,1.2-2.5c-0.4-0.1-0.8-0.1-1.2-0.2v-0.1c-0.3,0.2-0.6,0-0.9-0.1 c-0.9-0.2-1.8-0.4-2.7-0.7c-0.4-0.2-0.8-0.3-1.2-0.5c-0.1,0-0.1-0.1-0.1-0.1s0,0,0,0.1c-0.2-0.1-0.6-0.3-0.8-0.4 c-0.2-0.1-0.4-0.2-0.6-0.3c0.1,0,0.2,0,0.3,0c0.3,0.1,0.7,0.3,1,0.4l0,0l0,0c0.3,0.1,0.7,0.2,1,0.3l0.2,0.1c0.1,0,0.1,0,0.2,0 l0.3,0.1c0.3,0,0.6,0.1,1,0.1c0.1,0,0.3,0,0.4,0.1c0.3-0.1,0.7-0.1,0.9-0.3c-0.1-0.1-0.2-0.1-0.2-0.2c-0.1,0-0.1,0-0.2,0h-0.2 c-0.5-0.1-1-0.1-1.4-0.3h-0.2c-0.3-0.1-0.6-0.2-1-0.3c-0.4,0-0.7-0.2-1-0.3c-0.2,0-0.3-0.1-0.4-0.2l-0.3-0.1 c-0.1,0-0.3-0.1-0.4-0.1c-0.1,0-0.4-0.1-0.4-0.2c-0.1-0.1,0.8,0.1,1.1,0.1c0.2,0,0.5,0.1,0.7,0c0.5,0.1,1,0.1,1.6,0 c0.1,0,0.2,0,0.2,0c0.1,0,0.3,0,0.4,0c0.1,0,0.2,0,0.2,0c0.4-0.1,0.7-0.1,1.1-0.1h0.1c0.2,0,0.5-0.1,0.7,0c0.1,0,0.1,0,0.2,0 c0-0.1,0-0.1,0-0.2c0.1,0,0.1,0,0.2,0c0.1,0,0.2,0.1,0.3,0.1c0-0.1,0-0.2,0-0.3c0.6-0.2,0.5-0.4,1.1-0.6c0.5-0.3-2.1,1.9-1.7,1.6 c0,0.1,0,0.2,0,0.3h0.1h0.1c0-0.1-0.1-0.2-0.1-0.3c0.1-0.1,0.1-0.1,0.2-0.2l0.1,0.1c0,0,0,0,0.1,0.1c0-0.1,0-0.2,0-0.2l0,0 c0,0,0.1,0,0.1-0.1c0.1,0.1,0.1,0.1,0.2,0.2c0,0.1,0.2-1.9,0.2-1.8l-0.2,2c0-0.1,0-0.2,0-0.3c0.1-0.1,0-0.2,0-0.3 c0.1,0,0.1,0,0.2,0.1c0.6-0.1,0.6-0.1,0.6-0.2c0.1-0.2-1.1-0.6-1-0.8c0-0.1,1.2,0.2,1.2,0.1c0-0.1,0.1-0.2,0.1-0.3 c-0.2,0-0.2,0.2-0.3,0.4c-0.2,0-0.1,0-0.3,0c0-0.1-0.3-0.2-0.3-0.3c-0.1,0.1-0.2,0.3-0.2,0.5c-0.7,0.2,1-2.2,0.3-2.1 c-0.1,0,0.7,0.1,0.6,0.1l0,0c0,0.1-0.3-0.1-0.3,0c-0.2,0,0.3,0,0.2-0.2c-0.1,0.1-0.1,0.1-0.2,0.2c-0.1,0-0.2-0.2-0.3-0.1 c-0.1,0-0.2,0-0.2,0.1c0.1,0,0.2-0.1,0.2-0.2c-0.1-0.1-0.3-0.3-0.5-0.2c-0.1-0.1-0.1-0.2-0.2-0.3c0.2-0.1,0.4-0.1,0.6-0.2 c0.3-0.3,0.7-0.4,0.9-0.8c-0.3,0.1-0.5,0.2-0.8,0.3c-0.4,0.1-0.8,0.2-1.2,0.2c-0.2-0.2-0.4-0.5-0.7-0.5c0.5-0.2,1-0.5,1.5-0.8 c0.8-0.5-0.7,0.1,0-0.6c0.8-0.7-0.4,3.1,0.1,2.1c0.2-0.4,0.3-0.8,0.5-1.1c0.1-0.3,0.1-0.6,0.2-1c0-0.5,0.1-1-0.1-1.5 c-0.1-0.2-0.1-0.5-0.3-0.6c0,0.2-0.1,0.3-0.2,0.5c-0.3,0.5-0.6,1-0.9,1.5c-1,1.4,1.9-3.2,0.7-2.1c-0.4,0.4-0.8,0.7-1.3,1 c-0.3,0.3-0.7,0.4-1.1,0.7c-0.1-0.2-0.3-0.1-0.5-0.2c-0.1,0.1-0.2,0.1-0.2,0.2c0,0.1-0.1,0.2-0.1,0.3c-0.2,0.1-0.4,0.1-0.6,0.2 c-0.1,0-0.1-0.1-0.2-0.1c0,0.2-0.2,0.2-0.3,0.2c0-0.1-0.1-0.1-0.1-0.2c-0.1,0.1-0.2,0.2-0.4,0.3h-0.1c-0.1-0.1-0.1-0.2-0.2-0.2 c-0.2-0.1-0.2-0.4-0.3-0.5c-0.2-0.1-0.4-0.2-0.6-0.3l0,0c-0.4-0.1-0.8-0.2-1.2-0.3h-0.2c-0.3,0-0.6,0-0.9,0c-0.1,0-0.2,0-0.3,0 c-0.2,0-0.3,0-0.5,0.2s-0.5,0.3-0.7,0.5c0-0.5-0.2-0.9-0.5-1.3c-0.1,0.3-0.1,0.6-0.2,1c-0.4-0.3-0.9-0.6-1.5-0.6 c-0.2,0-0.4,0.1-0.5,0.2c0.1,0,0.1,0,0.2,0c0.1,0.1,0.2,0.3,0.3,0.4l0.2,0.3c0.1,0.4,0.3,0.8,0.4,1.3c-0.2-0.2-0.4-0.4-0.7-0.5 c-0.4-0.2-0.9-0.2-1.3-0.1c0.1,0.1,0.2,0.1,0.3,0.2c0.2,0.2,0.4,0.4,0.5,0.7c0.2,0.5,0.4,0.9,0.6,1.4c-0.3-0.3-0.6-0.5-1-0.7 s-0.8-0.2-1.2,0c0.2,0.1,0.3,0.1,0.5,0.2c0.3,0.3,0.5,0.7,0.7,1.1c0.1,0.3,0.3,0.5,0.3,0.8c-0.2-0.1-0.4-0.3-0.7-0.3 c-0.1,0-0.2,0.1-0.3,0.1c0,0.1,0,0.1,0,0.2c0.1,0.1,0.1,0.2,0.2,0.3c-0.2,0-0.4,0-0.5,0.1c-0.1,0-0.2,0.1-0.2,0.1 c-0.1,0.1-0.1,0.1-0.1,0.2c0.1,0.1,0.1,0.1,0.2,0.2c0,0.1-0.1,0.1-0.1,0.2c-0.1,0.1-0.1,0.2-0.2,0.3c0.1,0,0.2,0,0.2,0 c-0.1,0-0.2,0-0.4,0.1c0.2,0.1,0.3,0.2,0.4,0.3c-0.1-0.1-0.2-0.2-0.3-0.3c-0.1,0.1-0.1,0.3-0.2,0.3c-0.1,0-0.2,0-0.3,0l0.1,0.1 c-0.1,0-0.3,0-0.4,0.1c0.1,0.1,0.2,0.1,0.3,0.2c-0.2,0.1-0.3,0.1-0.5,0c-0.2,0-0.7,0.8-0.9,0.7c-0.6,0-1,0-1.6,0 c-0.4,0-0.7-0.6-1-0.7c0.3-0.1,0.7-0.2,1-0.3c0.2-0.1,0.5-0.2,0.7-0.4c0.3-0.2,0.5-0.3,0.8-0.5c0.1-0.1,0.2-0.3,0.4-0.3 c0-0.1,0-0.2,0.1-0.3c0.3-0.3,0.5-0.7,0.8-1c0,0.1,0.1,0.3,0.2,0.4c0.1-0.1,0.2-0.2,0.3-0.3c0.1-0.2,0-0.4,0.1-0.5 c0.6-0.8,0.7-1.9,0.3-2.8c-0.1-0.2-0.2-0.3-0.3-0.5s-0.2-0.3-0.4-0.4c-0.3-0.5-0.5-1-0.9-1.4c-0.5-0.5-1-1-1.7-1.3 c-0.8-0.4-1.7-0.6-2.5-0.6c-0.2,0-0.4,0-0.6,0.1c-0.1-0.3-0.2-0.5-0.3-0.8c-0.2-0.3-0.3-0.7-0.6-1c-0.2-0.4-0.5-0.8-0.7-1.2 c-0.2-0.2-0.2-0.5-0.3-0.8c-0.1-0.1-0.1-0.2-0.2-0.3c-0.1-0.3-0.1-0.5-0.1-0.8s0-0.6,0-0.9c-0.3,0.3-0.5,0.7-0.5,1.1 c0.1-0.2-0.1,0.5,0,0.3l0,0c0,0.3,0,0.7-0.2,1c-0.6-0.2-1.2-0.6-1.6-1c-0.4-0.4-0.5-1-0.7-1.5c-0.1-0.2-0.1-0.5-0.1-0.7 c-0.1-0.6-0.1-1.2,0-1.9c-0.2,0.2-0.4,0.5-0.5,0.8c-0.1,0.4-0.2,0.7-0.3,1.1c0,0.3,0,0.6,0,0.9c0,0.2,0.1,0.4,0,0.5 c0,0.1-0.2,0.1-0.3,0.1c-0.2-0.1-0.4-0.3-0.6-0.4c-0.3-0.3-0.5-0.5-0.7-0.9c-0.2-0.5-0.4-1-0.4-1.5c0-0.7,0.2-1.4,0.5-2.1 c0.1-0.3,0.3-0.5,0.4-0.8c0.1-0.2,0.3-0.4,0.4-0.6c0.6-0.7,1.2-1.5,1.9-2.1c0.3-0.3,0.6-0.4,0.8-0.7c-0.3,0-0.5,0.1-0.7,0.2 c-0.3,0.2-0.7,0.3-1,0.6c-0.6,0.5-1.2,1-1.7,1.6c-0.2,0.1-0.4,0.3-0.6,0.2c-0.2-0.3-0.1-0.6,0-0.9c0.1-0.5,0.2-1,0.4-1.4 c0-0.1,0-0.2,0.1-0.3c0.2-0.3,0.3-0.7,0.5-1c0.1-0.2,0.2-0.4,0.3-0.6c0.2-0.3,0.3-0.6,0.5-0.9s0.5-0.6,0.7-0.9 c-0.2,0.1-0.4,0.2-0.6,0.4c-0.6,0.4-1,1-1.4,1.5c-0.3,0.6-0.7,1.2-0.9,1.8c-0.3,0.5-0.3,1.1-0.5,1.6c-0.1,0.7-0.3,1.4-0.3,2.2 c-0.1,0.7,0,1.4,0,2.1c0,0.5,0.1,1-0.2,1.4c-0.3,0.1-0.6,0-0.9-0.2c-0.5-0.2-0.8-0.6-1.1-1.1c-0.2-0.3-0.4-0.7-0.4-1 c-0.2-0.6-0.2-1.3,0-1.9c0.1-0.2,0-0.5,0.1-0.7s0.1-0.4,0.2-0.6c0.1-0.2,0.1-0.4,0.2-0.5c0.2-0.3,0.3-0.6,0.5-0.9 c0.1-0.2,0.3-0.5,0.4-0.7c-0.3,0.2-0.6,0.5-0.8,0.8c-0.2,0.2-0.4,0.4-0.5,0.7c-0.1,0.3-0.3,0.5-0.4,0.8c-0.1,0.2-0.2,0.4-0.3,0.6 c-0.1,0.2-0.3,0.4-0.5,0.5c0-0.1-0.1-0.2-0.1-0.2c-0.2-0.3-0.1-0.6-0.1-1c0-0.5,0-1,0.2-1.5l0,0c0.2-0.8,0.4-1.6,0.8-2.3 c0.2-0.4,0.4-0.7,0.6-1c0.1-0.2,0.3-0.4,0.4-0.6c-0.3,0.1-0.6,0.4-0.8,0.6c-0.7,0.6-1.2,1.4-1.5,2.3c-0.1,0.2-0.2,0.5-0.2,0.8 l0,0c-0.1,0.3-0.2,0.5-0.2,0.8c0,0.4-0.1,0.8-0.1,1.3c0,0.3,0,0.5,0.1,0.8s0.1,0.6,0.2,1c0.2,0.5,0.4,1.1,0.6,1.6 c0,0.1-0.1,0.1-0.1,0.2c-0.2,0-0.3-0.1-0.5-0.2c-0.3-0.2-0.6-0.4-0.8-0.6l0,0c-0.4-0.3-0.8-0.7-1.2-1.1c0,0.3,0.2,0.6,0.4,0.9 c0.1,0.3,0.3,0.5,0.5,0.7l0,0c0.3,0.3,0.6,0.6,0.9,0.9c0.6,0.5,1.3,1,2,1.4c0.3,0.2,0.7,0.3,1,0.6c0.5,0.3,1.1,0.5,1.6,0.9 c0.2,0.1,0.4,0.2,0.6,0.3c0.3,0.2,0.6,0.2,0.8,0.4c0.2,0.1,0.5,0.2,0.7,0.3c0.3,0.2,0.7,0.3,1,0.5c0.3,0.1,0.6,0.3,0.8,0.5 c0.3,0.2,0.7,0.4,1,0.6c0.2,0.2,0.5,0.3,0.7,0.4c0.5,0.3,0.9,0.7,1.3,1.2c-0.5-0.3-0.9-0.7-1.4-1c-0.3-0.2-0.6-0.3-0.9-0.5 c-0.7-0.3-1.5-0.6-2.2-0.8c-0.3-0.1-0.6-0.1-0.9-0.2c-0.6-0.1-1.1-0.2-1.7-0.2c-0.4,0-0.8,0.1-1.2,0.1c-1,0.1-1.9,0.3-2.8,0.8 c-0.3,0.2-0.5,0.3-0.7,0.5c-0.3,0.3-0.6,0.6-0.7,1.1c0.3-0.1,0.6-0.2,0.9-0.2s0.6-0.1,0.9-0.1s0.6,0,0.9,0 c-0.5,0.1-0.9,0.3-1.3,0.6c-0.5,0.3-1.1,0.8-1.2,1.4c0.2-0.1,0.5-0.2,0.7-0.2c0.2-0.1,0.4,0,0.6,0c0.7-0.1,1.3,0,2-0.1 c0.5,0,1,0,1.5,0.1c0.3,0,0.5,0,0.8,0.1c0.1-0.1,0.2-0.2,0.2-0.3s0-0.2,0.1-0.3c0,0.1,0,0.1,0,0.2l0.1,0.1 c0.1-0.1,0.1-0.2,0.2-0.3l-0.1-0.1c0.1-0.1,0.2-0.1,0.3-0.2c0,0.2,0.1,0.4,0.2,0.5c0.1-0.1,0.1-0.2,0.2-0.3 c0,0.2-0.3,0.4-0.2,0.6c0,0.1,0,0.2,0,0.2c0.4,0,0.7,0.1,1.1,0.2c0.3,0.1,0.5,0.2,0.8,0.3c0.4,0.1,0.8,0.3,1.2,0.5 c0.4,0.1,0.7,0.4,1,0.7c-0.1,0.3-0.3,0.6-0.4,0.9c-0.1,0.2-0.1,0.5-0.2,0.7c-0.1,0.2,0,0.5,0,0.7c0,0.4,0.1,0.8,0.1,1.2 c0.1,0.4,0.2,0.8,0.4,1.2c-0.4,0.6-0.8,1.2-1.2,1.7c-0.2,0.3-0.4,0.5-0.6,0.9c0.3,0-1,0.3-0.7,0.6c0.1,0.2-2.3,0.8-3.4,1 c0.1-0.1,0.1-0.2,0.2-0.2c-0.2,0-0.4,0-0.6-0.1l-0.1,0.1c-0.1,0.1-0.1,0.1-0.2,0.2c0.1,0,0.1,0.1,0.2,0.1l0,0 c-0.2,0-0.4,0-0.5-0.1c0,0.1-0.1,0.2-0.1,0.2c-0.1-0.1-0.2-0.1-0.2-0.2c0,0.1-0.1,0.2-0.1,0.3c-0.1,0-0.1,0-0.2,0.1 c0.1,0,0.2,0.1,0.3,0.1h0.1c-0.3,0.2-0.6,0.4-0.8,0.5c0,0,0,0-0.1,0c0,0,0,0,0,0.1c0,0,0,0-0.1,0l0,0c0-0.1-0.1-0.1-0.1-0.1l0,0 l0,0c0,0,0,0-0.1,0h-0.1c-0.1,0-0.1-0.2,0-0.3c0-0.1,0.1-0.2,0.1-0.2c0-0.1-0.1,0-0.3-0.1c0,0-0.2-0.1-0.2-0.2 c0-0.1,0.1-0.1,0.4-0.2c0.2-0.1,0.3-0.1,0.4-0.2c0,0,0,0,0.2-0.2s0.2-0.1,0.2-0.2c0.1-0.1,0.2-0.2,0.2-0.2s0,0,0.1,0 c0.1,0.1,0.2,0.2,0.2,0.2s-0.1,0-0.2,0s-0.1,0-0.2,0c0,0,0,0.1,0.1,0.2c0,0.1,0.1,0.1,0.1,0.1s0,0,0.1-0.1s0.1-0.1,0.1-0.1 s0,0,0-0.1s0-0.1,0-0.1c0-0.1,0.2-0.2,0.4-0.2c0.2,0,0.2,0,0.4,0c0.1,0,0.1,0,0.2-0.1c0.1,0,0.1,0,0.3,0c0.1,0,0.1,0,0.1,0 c0.1,0,0.2,0,0.2,0.1s0,0.2,0,0.2c-0.1,0.2-0.1,0.2-0.1,0.2l0,0c0,0,0.1,0,0.2,0s0.1,0,0.2,0c0,0,0,0,0-0.1v-0.1c0,0,0,0,0-0.1 v-0.1c0,0,0.1,0,0.2,0c0,0,0,0,0.2,0c0.1,0,0.1,0,0.2,0C31.9,55,31.9,55,32,55c0.2,0,0.2,0,0.3-0.1c0,0,0.1-0.1,0.2-0.1 c0.1-0.1,0.1-0.1,0.1-0.2c0,0,0,0,0-0.1c0,0,0,0,0-0.1c0,0,0,0,0-0.1s0-0.1,0-0.1s0,0-0.1,0s-0.1,0-0.1,0s0,0,0.1-0.1 c0.1,0,0.1-0.1,0.1-0.1s0,0-0.1,0s-0.1,0-0.1,0s0-0.1,0.1-0.2c0.1-0.1,0.1-0.1,0.1-0.1s0,0,0-0.1s0-0.1,0-0.1s0,0-0.1,0 s-0.1,0-0.1,0c-0.1,0-0.1,0.1-0.1,0.1C32,53.8,32,53.8,32,53.8s0,0,0.1-0.1s0.1-0.1,0.1-0.1c0-0.1-0.1-0.3-0.3-0.3h-0.1 c-0.1,0,0,0.1-0.1,0.3c0,0,0,0.1-0.1,0.1c-0.1,0.1-0.2,0.2-0.3,0.2c-0.1,0.1-0.2,0.2-0.3,0.4c0,0-0.2,0.3-0.3,0.3c0,0,0,0-0.1,0 c0,0,0,0-0.1,0c0,0,0-0.1,0-0.2c0-0.1,0.1-0.2,0.1-0.2s-0.2,0-0.4,0c-0.1,0-0.4,0-0.4,0s0.1-0.2,0.3-0.2c0.2-0.1,0.3,0,0.4-0.1 c0,0,0.1-0.1,0.1-0.3c0.1-0.2,0.1-0.3,0.1-0.3c0.1-0.2,0.2-0.3,0.3-0.6c0.2-0.4,0.3-0.5,0.4-0.5c0.1-0.1,0.2-0.1,0.2-0.1 c0.1-0.1,0.2-0.1,0.2-0.1s-0.3-0.1-0.6-0.1c-0.1,0-0.2,0.1-0.6,0.2c0-0.1,0-0.1-0.1-0.1c-0.2,0.1-0.2,0.2-0.3,0.1 c0,0,0-0.1,0.3-0.7c0.2-0.4,0.3-0.6,0.3-0.6c0.2-0.3,0.3-0.5,0.4-0.6c0.3-0.3,0.6-0.3,0.6-0.4c0-0.1-0.4-0.2-0.4-0.2 c-0.2,0-0.3,0-0.4,0c-0.2,0-0.4,0.1-0.7,0.3c-0.5,0.3-0.6,0.5-0.6,0.5c-0.1-0.1,0.1-1,0.7-1.7c0.4-0.4,0.7-0.4,0.7-0.5 c0-0.2-0.9-0.2-1.4,0.2c-0.3,0.2-0.4,0.5-0.5,0.5c0,0,0.1-0.2,0.1-0.5c0.1-0.3,0.1-0.5,0.2-0.5c0,0,0,0,0.2,0.1 c0.1,0.1,0.1,0.1,0.2,0.1s0.1-0.1,0.2-0.2c0-0.1,0.1-0.2,0-0.3c0-0.1-0.1-0.1-0.1-0.2c-0.1-0.1-0.2-0.1-0.2-0.1 c0-0.1,0.1-0.1,0.2-0.3s0.1-0.2,0.2-0.2s0.2,0.1,0.2,0.1v-0.1c0-0.1-0.1-0.1-0.2-0.1c-0.2-0.1-0.2-0.1-0.3-0.1 c-0.3-0.1-0.6,0.1-0.7,0.2c-0.4,0.2-0.6,0.5-0.7,0.4c0,0,0,0,0-0.1s-0.1-0.1,0-0.1c0,0,0,0,0.1,0s0.1,0,0.1,0s0,0,0-0.1 s0-0.1,0-0.1s0,0,0.1,0h0.1c0,0-0.2-0.1-0.4-0.1c-0.2,0-0.3,0-0.4,0.1s-0.1,0.1-0.2,0.1c0,0-0.1,0.1-0.1,0.2c0,0.1,0,0.1,0,0.3 c0,0.1,0,0.3,0,0.3s-0.1,0-0.2-0.1s-0.2-0.1-0.2-0.1c0-0.1,0-0.1,0-0.3c0-0.1,0-0.2-0.1-0.3c-0.1,0-0.1,0-0.2-0.1 s-0.2-0.1-0.2-0.1s0,0.1,0,0.2c0,0.1,0,0.2,0,0.2c-0.1,0.1-0.2,0-0.5-0.1c-0.3,0-0.4,0-0.5-0.1c0-0.1-0.1-0.2-0.1-0.2s0,0-0.1,0 v0.1c0,0.1,0,0.1,0,0.1s0,0-0.1,0s-0.1,0-0.1,0c-0.1,0-0.1-0.1-0.2-0.2c-0.1-0.2-0.3-0.2-0.4-0.3c0,0-0.2-0.1-0.2,0 c0,0,0.1,0.1,0.1,0.2c0,0.1,0,0.2,0.1,0.2c0,0,0,0,0.1,0s0.1,0,0.1,0s-0.1,0-0.2,0s-0.1,0-0.2,0c0,0,0-0.1,0-0.2c0,0,0,0,0-0.1 c0,0,0,0-0.1,0s-0.1,0-0.1,0s0,0,0,0.1s0,0.1,0,0.1s0,0-0.1,0s-0.1,0-0.1,0c-0.1,0,0-0.2-0.1-0.3c0-0.2-0.1-0.3-0.2-0.3 c0,0,0,0.2,0,0.3s0.1,0.2,0,0.3l-0.1,0.1c-0.1,0-0.1,0.1-0.1,0.1s0,0,0.1,0.1c0.1,0,0.1,0,0.1,0.1c0,0,0,0-0.1,0.1 s-0.1,0.1-0.2,0.1c0,0,0,0,0-0.1s0-0.1,0-0.1h-0.1c0,0,0,0,0,0.2c0,0.1,0,0.2,0,0.2s0,0-0.1-0.1s-0.1-0.1-0.1-0.1s-0.1,0-0.2,0 s-0.1,0-0.2,0s-0.2,0.3-0.2,0.6c0,0.2,0.1,0.3,0.1,0.4c-0.1,0.1-0.5,0-1.2-0.2s-1.1-0.3-1.1-0.3c-0.7-0.3-1.2-0.6-1.8-1.1 M18.8,53.9c0.6,0.1,1,0.1,1.1,0.1c0.4,0,0.5,0,1.3,0c1.3,0,1.2,0,1.7,0c0.8-0.1,1.3-0.2,1.4-0.1c0,0-0.1,0-0.4,0.2 c-0.2,0.1-0.4,0.2-0.4,0.2s0,0,0-0.1s0-0.1,0-0.1s0,0.1-0.1,0.1c0,0,0,0.1-0.1,0.1C23,54.2,22,54.4,22,54.4 c-0.2,0-0.5,0.1-1.1,0.3c-0.2,0-0.3,0.1-0.5,0.1c-0.2,0.1-0.4,0.1-0.5,0.1c0,0-0.1,0-0.2-0.1c-0.2-0.1-0.2-0.1-0.2-0.1 c-0.2,0-0.2,0.2-0.5,0.3s-0.5,0-0.6,0.1v0.1v0.1c0,0.1,0.1,0.1,0.3,0.1c0.2,0,0.2,0,0.3,0.1c0.1,0,0.2,0.1,0.3,0.2 c0.1,0.1,0.2,0.2,0.3,0.2c0,0,0,0,0.1,0s0.1,0,0.1,0s0,0,0-0.1s0-0.1,0-0.1c0-0.1,0.4-0.1,0.6-0.1c0.1,0,0.3,0,0.6-0.1 c0.2,0,0.4-0.1,0.9-0.3c0.7-0.2,0.6-0.2,0.8-0.3c0.8-0.3,1.2-0.5,1.2-0.5s-0.2,0.1-0.5,0.3c-0.6,0.3-1.3,0.8-1.6,0.8l-0.6,0.3 c-0.1,0.2-0.8,0.3-1,0.3c-0.4,0.1-0.7,0.1-1,0.2c-0.3,0.1-0.3,0.1-0.5,0.1s-0.4-0.1-0.5-0.1c0,0,0,0,0,0.1s0,0.1,0,0.1 c-0.1,0.1-0.3,0-0.3,0c-0.1-0.1-0.2-0.1-0.3-0.1c0,0,0,0-0.1,0s-0.1,0-0.1,0s0,0,0,0.1v0.1l0,0 M20.2,51.1c0.2,0,0.7,0.1,1.8,0.2 c0.3,0,0.4,0.1,0.5,0.1c0.2,0,0.5,0,0.5,0s0,0,0,0.1s0,0.1,0,0.1c0,0.1-0.5,0.1-0.6,0.1c-0.4,0-0.3,0-0.7,0.1c-0.2,0-0.3,0-1.1,0 c-0.4,0-0.6,0-0.8,0c-0.3,0-0.6-0.1-1.3-0.2 M18.5,48.8c0,0,0.2,0.6,2,1.3c0.3,0.1,0.4,0.1,0.5,0.2c0.2,0,0.3,0,0.5,0.1 c0,0,0.1,0.1,0.2,0.1s0.2,0.1,0.2,0.2c0,0.1-0.5-0.1-0.9-0.1c-0.4-0.1-0.1,0-1.7-0.3 M30,55.8L30,55.8L30,55.8L30,55.8L30,55.8z" /><path class="st2" d="M51.7,59.7"/><path class="st3" d="M41.6,46.7c0.8,0.2,1.6,0.5,2.4,0.7c-0.2,0.3-0.4,0.6-0.7,0.7c-0.4,0.1-0.7-0.1-1-0.3 C42.1,47.4,41.8,47.1,41.6,46.7L41.6,46.7z"/><path class="st4" d="M23.4,46.8c0,0.1,0.1,0.1,0.1,0.2c0.1,0,0.1,0,0.2,0.1c-0.1,0-0.2,0-0.3,0C23.4,47,23.4,46.9,23.4,46.8 L23.4,46.8L23.4,46.8z"/><path class="st5" d="M45.8,49.6c0.2-0.3,0.3-0.5,0.5-0.8c0.2,0.3,0.3,0.5,0.5,0.8C46.5,49.6,46.2,49.6,45.8,49.6L45.8,49.6z"/><path class="st6" d="M58,50.1c0.1,0,0.3-0.2,0.5-0.1c0.1,0.1,0.2,0.2,0.4,0.2c-0.1,0-0.3,0.1-0.5,0.1 C58.3,50.3,58.1,50.2,58,50.1L58,50.1z"/><path class="st4" d="M57.7,50.2c0.1,0,0.1,0,0.2,0.1c0,0,0,0.1,0,0.2C57.8,50.5,57.7,50.3,57.7,50.2L57.7,50.2z"/><path class="st7" d="M57.4,50.3c0.1,0,0.2,0,0.3,0.1c0,0.1-0.1,0.1-0.1,0.2C57.4,50.4,57.4,50.3,57.4,50.3L57.4,50.3z"/><path class="st8" d="M56.4,50.5c0.1,0,0.2,0,0.2,0c0,0.1,0,0.1,0,0.2c-0.1,0-0.2,0-0.3,0C56.4,50.6,56.4,50.6,56.4,50.5 L56.4,50.5z"/><path class="st9" d="M60.3,50.8c0.2,0.1,0.3,0.4,0.6,0.5c-0.1-0.1-0.3-0.2-0.4-0.1c-0.1-0.1-0.1-0.2-0.2-0.2 C60.3,51,60.3,50.9,60.3,50.8L60.3,50.8z"/><path class="st10" d="M59.3,51c0.1,0,0.1-0.1,0.2-0.1c0.2,0.1,0.2,0.4,0.3,0.6c-0.1,0-0.2,0-0.3-0.1C59.5,51.3,59.4,51.1,59.3,51 L59.3,51z"/><path class="st11" d="M58.5,51.1c0.1,0,0.2,0,0.2,0s0,0.1,0.1,0.1c0,0.1,0,0.2,0,0.3c-0.1,0-0.3-0.1-0.4,0 c-0.1-0.1-0.2-0.2-0.2-0.3c0.1,0.1,0.2,0.2,0.4,0.2C58.6,51.2,58.6,51.1,58.5,51.1L58.5,51.1z"/><path class="st12" d="M56.6,51.3c0.3-0.1,0.6-0.1,0.8-0.1c0,0.2,0.3,0.2,0.4,0.4c-0.2,0-0.4,0-0.6,0c-0.1,0-0.3,0.1-0.4,0.1 c0-0.1-0.1-0.1-0.1-0.2c0,0.1,0,0.1-0.1,0.2c-0.2,0-0.4,0-0.5-0.1C56.3,51.6,56.5,51.5,56.6,51.3L56.6,51.3z"/><path class="st4" d="M55.8,51.5c0.1,0,0.2-0.1,0.3-0.1C56,51.5,55.9,51.5,55.8,51.5L55.8,51.5z"/><path class="st4" d="M46.8,52.4c0.1,0,0.2,0,0.3,0.1c-0.1,0-0.2,0.1-0.3,0.1C46.7,52.5,46.8,52.4,46.8,52.4L46.8,52.4z"/><path class="st2" d="M31.6,55.1"/><path class="st4" d="M24.1,56.6"/><path class="st2" d="M21.4,58.8"/><path class="st4" d="M51.5,60.1L51.5,60.1c0.1-0.1,0.2-0.1,0.3-0.1C51.7,60.1,51.6,60.1,51.5,60.1L51.5,60.1z"/><path class="st13" d="M43.3,71.7"/><path class="st14" d="M58.5,71.8"/><path class="st15" d="M43.7,73.9"/><path class="st16" d="M44.6,61.6c0.4-0.1,0.9-0.2,1.3,0.1c0.2,0.2,0.3,0.4,0.3,0.6c0,0.2,0.1,0.4,0,0.5c-0.1,0.3-0.4,0.5-0.7,0.4 c-0.2,0-0.5-0.1-0.6-0.3s0-0.4,0.1-0.6c-0.2,0.2-0.3,0.5-0.3,0.7c-0.1,0.7,0,1.5,0.2,2.2c0.2,0.6,0.6,1,1.1,1.4 c0,0.1,0.1,0.1,0.1,0.2c0,0.2-0.1,0.3-0.2,0.4c0.1-0.1,0.3-0.1,0.4-0.2c0,0.2-0.1,0.4-0.1,0.6c0,0.4,0.2,0.8,0.4,1.2 c0.2,0.4,0.2,0.8,0.4,1.2c0.1,0.4,0.1,0.9-0.2,1.3c-0.3,0.5-0.9,0.8-1.3,1.2c-0.6,0.5-1.3,0.9-1.9,1.4c-0.3,0.2-0.7,0.4-1.1,0.6 c-0.2,0.1-0.4,0-0.6-0.1c-0.2-0.2-0.5-0.4-0.7-0.6c-0.1-0.1-0.3-0.3-0.5-0.4c-0.2,0.2-0.4,0.4-0.6,0.5c-0.4,0.2-0.7,0.5-1.1,0.7 c-0.1,0.1-0.3,0.1-0.4,0.1c-0.4-0.1-0.6-0.3-0.8-0.6c-0.2-0.2-0.4-0.4-0.7-0.6c-0.2,0.1-0.4,0.3-0.6,0.4 c-0.3,0.1-0.4-0.3-0.3-0.5c0.1-0.2,0.3-0.4,0.3-0.7c0-1.7,0-3.5,0-5.2c0-0.9,0-1.8,0-2.7c-0.1-0.2-0.3-0.3-0.5-0.5 s-0.4-0.1-0.6-0.1c0-0.1-0.1-0.3,0-0.4c0.4-0.4,0.8-0.7,1.2-1.1c0.2-0.2,0.5-0.3,0.7-0.1c0.3,0.3,0.7,0.7,1,1 c0.4,0.3,0.2,0.9,0.2,1.3c0,1.3-0.1,2.5-0.1,3.8c0,1,0.1,2.1,0.1,3.1c0,0.2,0.1,0.3,0.2,0.4c0.3,0.3,0.5,0.6,0.8,0.9 c0.1-0.1,0.2-0.2,0.4-0.3c0-2,0-4-0.1-6.1c0-1,0-2.1,0-3.1c-0.2-0.1-0.4-0.2-0.6-0.4c-0.1-0.2,0.2-0.3,0.4-0.3 c0.8-0.1,1.6-0.3,2.5-0.4c0.1,0,0.2,0,0.3,0.1c0.1,0.3-0.1,0.5-0.2,0.7C42,64,42,64.6,42,65.3c0,1.6,0,3.3,0.1,4.9 c0,0.5,0,1,0,1.5c0,0.1,0.1,0.2,0.1,0.3c0.2,0.3,0.5,0.6,0.8,0.8c0.2,0.1,0.4,0,0.6-0.1c0.3-0.2,0.6-0.5,0.9-0.8 c0.3-0.5,0.2-1,0.2-1.5c-0.1-0.9-0.6-1.6-1-2.4c-0.2-0.6-0.5-1.1-0.6-1.7c0-0.3-0.1-0.6-0.1-1c0-0.2,0-0.5,0-0.7 c0-0.4,0.1-0.8,0.1-1.1c0-0.2,0.2-0.4,0.3-0.6c0.1-0.2,0.2-0.4,0.4-0.6C44,62,44.3,61.7,44.6,61.6L44.6,61.6z"/><path class="st16" d="M38.8,64.9c0.1,0.2,0,0.5,0.2,0.7h0.1c0.3-0.1,0.5-0.3,0.8-0.4c0.1,0.4,0,0.8,0.1,1.2 c-0.3,0.1-0.5,0.1-0.8,0.2c-0.1,0-0.2,0-0.4,0C38.7,66,38.8,65.5,38.8,64.9L38.8,64.9z"/><path class="st16" d="M32.3,53.9c0.1-0.2,0.5-0.3,0.6,0c0,0.3,0,0.6,0,0.9c0,0.3,0,0.6,0,0.9c0,0.1,0,0.2,0.1,0.3 c0.2-0.2,0.4-0.3,0.6-0.5c0.2-0.2,0.5-0.4,0.7-0.6c0.2-0.2,0.4-0.3,0.6-0.5c0.4,0.2,0.7,0.7,0.9,1c0.3,0,0.4-0.2,0.6-0.4 c0.3-0.2,0.6-0.6,0.9-0.8c0.2-0.2,0.5-0.1,0.7,0c0.5,0.2,1,0.6,1.4,0.9c0.4,0.3,0.8,0.6,1.1,0.9c0.2,0.1,0.3,0.3,0.4,0.5 c0.1,0.4-0.1,0.8-0.3,1.2c-0.2,0.3-0.2,0.6-0.4,0.8c-0.2,0.5-0.4,0.9-0.6,1.4c-0.3,0.5-0.4,1-0.6,1.5c-0.1,0.4-0.3,0.8-0.3,1.2 c-0.1,0.4,0,0.8-0.1,1.2c-0.2-0.2-0.4-0.4-0.6-0.6c-0.3-0.2-0.5-0.5-0.7-0.7c-0.2-0.1-0.4-0.1-0.7,0c-0.1-0.3,0-0.5,0.1-0.8 s0.2-0.5,0.4-0.7c-0.1-0.1-0.1-0.1-0.2-0.2c0.1-0.5,0.4-1,0.7-1.4c0.3-0.5,0.7-1,1.1-1.4c0.1-0.1,0.2-0.3,0.1-0.4 c-0.3-0.4-0.6-0.8-0.9-1.2c-0.2-0.2-0.4-0.4-0.6-0.6c-0.1,0.1-0.2,0.1-0.4,0.2c-0.3,0.3-0.7,0.6-1,1c-0.1,0.1-0.1,0.1-0.1,0.2 c0,0.7,0,1.4,0,2c0,0.8,0,1.6,0,2.4c0,0.5,0,1,0,1.5c-0.2,0.3-0.5,0.5-0.7,0.8c0,0.2,0.1,0.3,0.1,0.5c0.2,0,0.4,0.1,0.6,0.1 c0,0.3,0,0.5,0.1,0.8c0.1,0.1,0.3,0.2,0.4,0.2c0,0.1,0,0.2,0,0.4c-0.3,0-0.6-0.1-0.9-0.2c-0.3,0.2-0.6,0.3-1,0.4 c-0.4,0-0.7,0.2-1,0.2c-0.1,0-0.2-0.1-0.2-0.1c0.1-0.3,0.4-0.4,0.6-0.6C34,65,34,64.5,34,64.1c0-1.1,0.1-2.2-0.1-3.3 c0-0.9,0-1.8,0-2.8c-0.1-0.5,0-1-0.1-1.5c-0.2,0-0.4,0.1-0.5,0.3c-0.2,0.1-0.4,0.2-0.5,0.4c-0.1,0.1-0.1,0.2-0.1,0.3 c0,0.8,0,1.6,0,2.3c0,0.3,0,0.7,0,1c0,1.1,0,2.1,0,3.2c0,0.7-0.1,1.4-0.4,2c-0.3,0.4-0.6,0.9-1,1.2c-0.6,0.5-1.4,1-2.2,1.1 c-0.5,0-1-0.1-1.3-0.5c-0.2-0.2-0.4-0.4-0.6-0.7c0-0.2,0.1-0.3,0.2-0.4c0.2-0.2,0.4-0.3,0.7-0.4c0.1,0.1,0.2,0.2,0.3,0.3l0,0 c0.1,0.3,0.2,0.5,0.4,0.7c0.2,0.1,0.4-0.1,0.6-0.2c0.5-0.5,0.9-1.1,1-1.8c0.1-0.5,0-1,0.1-1.6c0.1-0.2,0-0.4,0-0.6 c0-0.4,0-0.8,0-1.2c0-0.8,0-1.6,0-2.4c0-0.4,0-0.8,0-1.1s-0.1-0.6-0.1-0.8c-0.4-0.1-0.8,0-1.1-0.1c-0.4-0.1-0.8-0.3-1.1-0.6 c-0.2-0.3-0.4-0.6-0.5-0.9c0-0.3,0-0.7,0.3-0.9c0.2-0.2,0.6-0.2,0.9-0.2c0.2,0.1,0.2,0.5,0.2,0.7s-0.2,0.3-0.3,0.4 c0,0,0.1,0,0.2,0s0.2,0.1,0.3,0.1c-0.2,0-0.4,0-0.5,0c0.2,0.2,0.4,0.1,0.6,0.1c0.6,0,1.1-0.4,1.5-0.8 C31.3,55.1,31.8,54.5,32.3,53.9L32.3,53.9z"/></g></g></g><g id="Layer_1_copy_2"><path class="st17" d="M40.2,75.6c6.9-0.1,16.7-1.8,22.4-4c-0.7-6.6-2.7-45.5-2.7-45.5s2.1,5.1,3.2,7.9c4.7-0.4,12.3-1.3,15.3-6.2 C75.5,21,73.3,13.2,71,8.1c0,0-10.4-3.8-18.6-6.4c0,0-0.9-0.3-1.3,0.4c-3,4.2-4.5,7.1-11.2,7.1l0,0c-6.4-0.1-8-2.9-10.9-7.1 c-0.5-0.7-1.4-0.4-1.4-0.4C19.5,4.2,9,8.1,9,8.1c-2.3,5.1-4.5,13-7.4,19.7c3,4.8,10.4,5.8,15.3,6.2c1.1-2.8,3.2-7.9,3.2-7.9 S18,65,17.4,71.6c5.8,2.2,15.5,4,22.4,4l0,0"/></g></svg> 