<?xml version="1.0" encoding="UTF-8" standalone="no"?><svg xmlns:svg="http://www.w3.org/2000/svg" xmlns="http://www.w3.org/2000/svg" version="1.1" id="Layer_1" x="0px" y="0px" viewBox="0 0 80 77.1" style="enable-background:new 0 0 80 77.1;" xml:space="preserve" ><defs id="defs4526"><clipPath clipPathUnits="userSpaceOnUse" id="clipPath4582"><path style="display:inline;fill:none;fill-opacity:1;stroke:#000000;stroke-width:3.00094485;stroke-linecap:round;stroke-linejoin:round;stroke-miterlimit:4;stroke-dasharray:none;stroke-opacity:1" id="path4584" d="m 40.2,75.6 c 6.9,-0.1 16.7,-1.8 22.4,-4 -0.7,-6.6 -2.7,-45.5 -2.7,-45.5 0,0 2.1,5.1 3.2,7.9 4.7,-0.4 12.3,-1.3 15.3,-6.2 C 75.5,21 73.3,13.2 71,8.1 71,8.1 60.6,4.3 52.4,1.7 c 0,0 -0.9,-0.3 -1.3,0.4 -3,4.2 -4.5,7.1 -11.2,7.1 v 0 C 33.5,9.1 31.9,6.3 29,2.1 28.5,1.4 27.6,1.7 27.6,1.7 19.5,4.2 9,8.1 9,8.1 c -2.3,5.1 -4.5,13 -7.4,19.7 3,4.8 10.4,5.8 15.3,6.2 1.1,-2.8 3.2,-7.9 3.2,-7.9 0,0 -2.1,38.9 -2.7,45.5 5.8,2.2 15.5,4 22.4,4 v 0" class="st0" /></clipPath></defs><style type="text/css" id="style4517">.st0{fill:none;stroke:#000000;stroke-width:3;stroke-linecap:round;stroke-linejoin:round;}</style><path class="st0" d="m 40.2,75.6 c 6.9,-0.1 16.7,-1.8 22.4,-4 -0.7,-6.6 -2.7,-45.5 -2.7,-45.5 0,0 2.1,5.1 3.2,7.9 4.7,-0.4 12.3,-1.3 15.3,-6.2 C 75.5,21 73.3,13.2 71,8.1 71,8.1 60.6,4.3 52.4,1.7 c 0,0 -0.9,-0.3 -1.3,0.4 -3,4.2 -4.5,7.1 -11.2,7.1 v 0 C 33.5,9.1 31.9,6.3 29,2.1 28.5,1.4 27.6,1.7 27.6,1.7 19.5,4.2 9,8.1 9,8.1 c -2.3,5.1 -4.5,13 -7.4,19.7 3,4.8 10.4,5.8 15.3,6.2 1.1,-2.8 3.2,-7.9 3.2,-7.9 0,0 -2.1,38.9 -2.7,45.5 5.8,2.2 15.5,4 22.4,4 v 0" id="path4521" style="display:inline;fill:#71031e;fill-opacity:1;stroke:none;stroke-width:3;stroke-linecap:round;stroke-linejoin:round" /><path style="display:inline;fill:#d6bf86;fill-opacity:1;stroke:none;stroke-width:0.1511811;stroke-miterlimit:4;stroke-dasharray:none;stroke-opacity:1" d="M 28.177734,3.4277344 C 25.861887,4.187256 30.17813,6.20504 29.778122,5.2512959 28.807783,4.3332837 27.557632,4.9071644 28.177734,3.4277344 Z M 54.685505,3.679688 c -1.313078,-0.8370973 -1.422929,1.7845722 -0.628861,-9e-7 0.55379,0.3026237 2.698776,1.4222295 1.615279,0.6093738 C 55.280232,4.0840062 55.204054,3.7479219 54.685505,3.679688 Z m -1.652302,0.2148432 c -0.483027,0.4233768 0.553379,0.1966023 0,0 z m -0.421875,0.849609 c -2.747433,-0.011253 0.501715,1.4277398 0,0 z m 1.730469,0.013672 c 0.0043,1.8757767 2.956181,0.8318413 0.539062,0.4316409 C 54.444261,5.635879 54.521464,4.9200512 54.341797,4.7578122 Z m -26.804688,0.671875 c -1.10035,0.4999442 1.035498,1.447808 0,0 z m 22.40625,0.2285156 C 49.402372,6.626247 47.071852,7.5826365 49.209063,7.479466 48.55357,6.032081 52.089557,6.2809607 49.943359,5.6582028 Z m 3.9375,0.203125 c -0.511765,1.1609005 1.650163,2.8666043 1.232315,0.8492861 -0.480015,-0.1825582 -0.900275,-0.45307 -1.232315,-0.8492861 z M 29.931641,6.1347659 c -0.700583,1.1623376 -3.64036,0.4984085 -0.914059,0.9980437 0.962788,-0.1909149 1.355911,0.1693867 0.914059,-0.9980437 z m 0.201171,1.1875 c 0.213574,1.3991642 -2.592305,1.4489089 -0.14883,1.4592947 0.491894,-0.2981879 0.346062,-1.0301792 0.14883,-1.4592947 z m -2.080078,0.1640625 c -0.175678,0.8345514 0.837557,0.8142085 0,0 z m 3.035157,0.5839841 c -0.495709,0.629507 0.232413,0.3641376 0,0 z m 23.103515,0.00586 c 0.26146,0.9829846 -1.427855,1.7260258 -1.982426,1.6113285 0.887362,0.2259079 1.317779,1.38507 1.842843,0.215891 C 56.065818,10.735083 51.703515,8.2091916 54.90625,9.2792969 54.212572,8.1839616 55.917835,8.2364412 54.191406,8.0761725 Z M 47.474609,8.396485 c -1.158752,0.8990196 1.077705,3.139993 0.03124,0.2539012 L 47.525381,8.45898 47.474601,8.39648 Z M 46.580078,8.56836 c -1.316835,0.451497 0.449858,2.009511 0,0 z M 32.050781,9.15625 c -2.550796,1.242629 3.641268,0.1004968 0.04786,0.014695 z m -1.390625,0.4746094 c -1.789426,0.1535775 -2.467039,0.2763242 -1.728947,2.4083866 1.484184,0.732316 -1.425811,-2.7971289 1.360808,-1.742556 0.517776,0.02026 0.339683,-0.3308741 0.368139,-0.6658306 z m 2.486328,0.5605466 c 1.200565,1.661504 -2.612376,1.176104 -0.183597,1.841793 -0.08745,0.860083 -1.396182,2.075422 0.486327,1.095695 2.235222,0.288778 -1.64204,-0.791073 0.19772,-1.964591 l -0.07077,-0.490487 -0.429688,-0.482422 z m -2.273437,0.335938 c -0.391389,1.989377 0.895191,1.193337 0,0 z m -0.841797,0.46289 c -1.741423,0.738135 1.378281,0.386341 0,0 z m 23.833984,0.158204 c -1.92329,0.756146 0.578426,3.673635 -0.5722,3.361981 1.733288,2.150218 -0.429005,-1.758194 0.518927,-2.269677 0.430022,0.247233 0.142915,-1.25782 0.05327,-1.092304 z m -7.105468,0.259765 c 0.113131,1.241246 -2.036138,1.128771 0.333988,1.134764 L 46.949223,11.957029 46.75977,11.408201 Z M 10.21875,12.025391 c 0.289371,0.400767 0.07068,0.121482 0,0 z m 21.056641,0.398437 c -0.847029,1.338682 -2.945872,0.426298 -0.623042,1.123006 0.716396,-0.209205 0.936918,-0.437485 0.623042,-1.123006 z m -20.458985,0.378906 c -0.339273,0.787202 -1.9802051,0.84191 -0.13847,1.065964 -0.07701,1.517572 0.555802,-0.541246 0.13847,-1.065964 z m 36.142578,0.515625 c -1.449378,0.902479 1.231434,2.819012 0,0 z m -16.347656,0.636719 c -0.880932,0.809043 -1.230903,3.24123 0.68164,3.738292 0.198463,0.96049 1.685293,-3.555338 0.002,-0.882812 -2.161124,0.134076 -1.401191,-2.957853 0.603514,-2.349607 -0.07354,-0.659464 -0.858209,0.292317 -1.287116,-0.505873 z m 3.708984,0.298828 c 0.11219,0.637382 0.03228,0.22023 0,0 z M 32.810547,14.5625 c -0.674641,0.202953 0.254133,1.557397 0,0 z M 10.34375,14.773438 c -1.0799363,1.229142 0.344831,0.942096 0,0 z m 23.261719,0.08203 c -0.850862,0.189521 0.07015,0.473453 0,0 z m -22.841797,0.21289 c -0.609844,0.764504 1.958319,0.192679 0,0 z m 36.220703,0.04883 c 0.690661,0.64706 0.08967,0.839433 -1.382132,1.133892 0.871069,0.152567 3.473517,-0.182676 1.382132,-1.133892 z M 8.4960938,15.332031 c -2.4972897,0.09596 -1.3698973,2.006475 0,0 z m 25.3105472,0.251953 c -2.633587,1.063688 1.098454,1.216154 1.077126,0.575758 0.106797,-1.052488 -0.713762,0.06822 -1.077126,-0.575758 z m 19.628906,0.169922 c -1.695358,1.440922 2.440963,2.818761 0.595908,0.495428 l -0.359584,-0.364573 -0.236328,-0.13086 z m -43.083985,0.06055 c -1.2503302,1.931087 1.926274,0.626653 0.671876,0.615232 -0.353569,0.01319 -0.478871,-0.390816 -0.671876,-0.615232 z m 41.15625,0.07031 c -0.314973,0.459511 0.131559,0.669184 0,0 z M 8.8730469,16.369141 c -1.8756586,1.004998 -0.8690813,2.386055 -0.2031251,0.570312 1.0882861,0.186213 0.6084271,-0.62457 0.2031251,-0.570312 z m 38.9511721,0.679687 c -0.365398,0.430838 0.450485,0.358849 0,0 z m -35.953125,0.382813 c -1.073483,0.54501 -1.374342,1.263661 0.146484,0.462843 l -0.08398,-0.386719 z m 40.580078,0.05664 c -0.500285,0.270923 0.408277,0.264843 0,0 z M 34.167969,17.5625 c -1.067405,0.05157 -1.161384,1.938888 -0.008,0.420849 2.006033,0.604335 0.547998,0.04174 0.008,-0.420849 z m -1.794922,0.0918 c -0.967726,1.297315 0.863706,0.425587 0,0 z m 14.625,0.257812 c -0.617343,0.943547 -0.38766,1.234226 0.861337,0.466809 -0.434533,-0.01948 -0.668786,-0.0598 -0.861337,-0.466809 z m 6.251953,0.0918 c 0.5271,0.649963 1.612256,-0.202023 0,0 z m -44.1972656,0.0059 c -0.6136061,0.775366 -2.5086062,1.179197 -1.1640625,1.697261 -0.065707,-0.337764 2.1163431,-1.523961 1.1640625,-1.697261 z m 36.4707036,0.474609 c -0.213339,0.401771 1.135547,0.225805 0,0 z m 2.558593,0.04883 c -0.06122,0.975093 0.602092,0.329558 0,0 z m -17.701172,0.08203 c -0.617231,1.657737 2.330952,3.572773 0.5,1.427742 -0.114765,-0.532688 -0.23678,-1.066208 -0.5,-1.427742 z m 22.84375,0.05273 c -0.178065,1.332619 1.820216,1.155769 0,0 z m -2.148437,0.148437 c 1.095664,1.298621 2.789526,-0.163356 0,0 z M 11.8125,18.835978 c -1.791274,0.866778 1.891841,0.747929 0,0 z m 23.492188,0.398437 c -1.723021,-0.228572 -2.429042,1.850645 -0.453121,0.558637 0.541565,-0.172192 1.257651,0.0371 0.453121,-0.558637 z m -14.191407,0.416016 c -1.183451,1.074922 0.05612,2.290739 0,0 z M 9.4472656,20.033203 c -1.5917069,-0.08585 0.1411496,0.856512 -1.1093754,1.74024 2.3724238,-0.531419 1.1776725,-0.0902 0.8494658,-0.788418 0.095661,-0.295178 0.82533,-0.946884 0.2599096,-0.951822 z m 2.8964844,0.01172 c -0.957083,0.04167 0.05066,0.479986 0,0 z m 5.767578,0.01758 c -0.517574,0.449101 0.670219,0.68386 0,0 z m 28.742188,0.232422 c -0.592614,0.446273 0.929797,-0.120208 0,0 z m -0.871094,0.15039 c -1.456658,0.654921 0.837215,1.309142 0,0 z m -10.185547,0.0059 c 0.346976,1.070421 0.67181,0.514027 0,0 z m 16.6875,0.06445 c -0.368891,0.204047 0.215751,0.725046 -0.921871,0.576242 0.575821,0.849177 2.773542,-1.124716 0.921871,-0.576242 z m -39.373047,0.408203 c -1.462838,0.466985 0.215265,2.672298 -0.07226,0.16602 0.247,0.03652 1.188091,0.299196 0.07226,-0.16602 z m -1.28125,0.0098 c -0.89309,1.799082 0.533369,2.212432 0,0 z m 35.466797,0.453125 c -1.328473,0.50828 -1.54461,3.452522 -0.281606,1.287633 -1.498297,-0.636908 1.007425,-0.508047 0.281606,-1.287633 z m -11.132813,0.02539 C 34.68908,21.535545 34.864699,22.112523 36,22.21875 c 0.05787,-0.268243 0.123645,-0.534969 0.164062,-0.806567 z m 14.962891,0.06445 c -0.225316,1.166161 -2.737713,2.330089 -0.177733,2.347666 0.741911,0.08041 -1.136525,-2.344661 0.788566,-1.563232 -0.103789,-0.309617 -0.240543,-0.714594 -0.610833,-0.784434 z m -29.421875,0.101563 c -0.209206,1.025435 2.263387,2.212799 0.41015,0.427734 -0.246381,-0.03317 -0.238883,-0.308651 -0.41015,-0.427734 z M 18.84375,21.75 c 0.08347,1.153785 0.910108,0.986274 4e-6,-3e-6 z m 33.458984,0.05664 c -0.402106,0.595502 0.398038,0.50214 0,0 z m -3.804687,0.134765 c -1.314179,0.659854 0.424931,0.425718 -10e-7,4.9e-5 z m -3.921875,0.181641 c -0.920847,0.544679 0.500307,0.366024 0,0 z m -34.298828,0.26172 c -1.3294727,0.596377 -2.6452294,1.071225 -0.23646,0.863899 1.2332,0.510703 0.279478,-0.346608 0.23646,-0.863899 z m 9.228515,0.554687 c 0.09575,1.182766 1.213277,0.906244 0,0 z M 14.625,22.976562 c -0.123823,0.573662 0.123823,0.573662 0,0 z m 6.808594,0.212891 c -1.008224,0.13035 -1.052492,0.906064 0,0 z m 22.621094,0.154297 c -0.06076,0.341568 0.601311,0.194716 0,0 z M 13.298828,23.375 c -1.686053,0.708238 1.008851,0.01196 0,0 z m -7.9609374,0.01172 c -1.3407419,1.15034 -1.9866536,2.384083 0.062501,0.908204 0.6107972,0.128484 -0.1683235,-0.727596 -0.062501,-0.908204 z m 6.6777344,0.164062 c -1.697576,0.867315 2.40608,2.630895 -0.148893,0.684534 -0.142711,-0.157412 0.24562,-0.505991 0.148893,-0.684534 z m 24.353516,0.335938 c -1.088469,0.188021 0.07666,1.408282 0,1.3e-5 z m 9.875,0.01367 c -1.464968,1.457494 0.253778,1.823917 0.270189,0.297431 l -0.270185,-0.297433 z m -1.992188,0.01172 c -0.834188,0.003 -0.03592,0.501621 0,0 z m -33.359375,0.01367 c -2.8889969,0.436952 -1.6062768,1.728145 -0.0098,0.285156 l 0.0098,-0.285157 z m 3.705078,0.05078 c -0.433384,0.954056 0.269179,1.022376 0,0 z m 29.111328,0.564454 c -0.875522,0.95734 -1.882547,0.648349 0.01953,0.908198 -0.543959,-0.389414 0.302649,-0.579624 -0.01953,-0.908198 z m 6.06836,0.09375 c -1.342273,1.287683 1.970159,1.960928 0,0 z M 36.126953,24.91406 c -0.348149,1.268185 -4.031397,3.174096 -3.365235,3.679735 1.017905,-1.455085 3.423231,-2.450819 3.783204,-3.230471 0.0851,-0.281065 -0.190363,-0.455168 -0.417969,-0.449264 z m -25.087891,0.15625 c -0.701202,0.245553 -3.1582158,1.004076 -0.813028,0.83509 0.3347,-0.129618 1.155409,-0.29801 0.813028,-0.83509 z m 35.832032,0.216797 c 0.05323,0.516361 0.646361,0.319408 0,0 z M 4.8945312,25.498045 c 1.0548385,0.819593 1.7418637,2.258042 0.8320313,0.105471 -0.2769406,-0.03808 -0.5536707,-0.07898 -0.8320313,-0.105471 z m -1.3515623,1.396477 c 0.1162252,-1.025391 3.1342635,1.272737 0.953125,-0.583936 -0.7847781,-0.582804 -0.808607,-0.34152 -0.953125,0.583936 z M 42.644531,25.806634 c -1.579847,0.429738 1.293015,0.234739 0,0 z m 4.761719,0.0957 c -1.722379,0.543443 0.280357,1.228996 0,0 z m 3.361328,0.335937 c -2.283326,0.496166 1.594257,1.97148 0,-4e-6 z m -3.11914,0.462891 c -1.638129,1.478779 0.795741,0.37733 0,0 z m -4.66211,1.054687 c 0.327294,2.408183 1.37895,1.430433 0.243626,0.765331 -0.02828,-0.26321 -0.03465,-0.577456 -0.243626,-0.765331 z m -7.738281,0.158203 c 0.383407,1.283766 1.840926,0.731185 0,0 z m 12.900391,0.09375 c -1.265034,0.257472 1.806198,1.243947 0,0 z m 3.207031,0.189454 c -2.286659,1.014784 0.811256,0.979914 0,0 z m -29.6875,0.123046 c -0.05699,1.385854 2.381072,2.255358 0.547994,0.452507 l -0.547998,-0.452507 z m 15.792969,0.148438 c -0.497608,1.18548 -2.433097,1.690881 -1.158206,2.568359 -0.03191,-1.00093 1.550993,-1.88567 1.158206,-2.568359 z m -2.5625,0.724613 c -1.075975,0.669312 -3.153071,1.549694 -0.600887,1.017994 0.460608,-0.230534 0.745956,-0.502535 0.600887,-1.017994 z m 14.607421,0.0059 c -1.326911,0.102324 -0.110095,1.730102 0,0 z M 16.5,29.269531 c -0.420655,1.602563 1.936285,0.07024 0,0 z m -1.037109,0.08984 c -1.435812,0.008 -0.308797,2.19024 -0.296872,2.474606 2.2179,-0.58548 -1.097643,-0.703488 0.296872,-2.474606 z m 36.027343,0.173828 c -2.1769,0.586594 -1.398034,2.977403 -0.835884,1.025391 0.515816,0.546688 0.457567,-0.638405 0.835884,-1.025391 z m -7.113281,0.144531 c -1.036656,1.312117 1.63665,2.579513 0.002,0.417971 l -0.002,-0.417969 z m -30.302734,0.164063 c -1.263268,-0.253023 -1.83972,2.659046 -2.113277,0.634767 -0.370995,-0.406849 -2.4926178,0.863807 -0.636725,0.718755 0.59018,1.655802 1.512018,0.03869 2.416015,0.968765 0.70594,0.17534 -1.564923,-1.874895 0.333981,-2.322261 z m 23.697265,0.529297 c -0.637622,1.131909 -1.889044,3.871118 -0.12696,1.425777 1.071517,-0.366974 0.903136,0.360448 0.12696,-1.425777 z m -2.578125,0.113281 c 0.02313,1.084814 0.501679,0.04634 0,0 z m 16.451172,0.01758 c -0.737117,0.438398 0.884294,0.180318 0,0 z m -27.02539,0.392575 c -1.696649,0.622006 -1.747741,1.251673 0.04688,0.660203 -0.0133,-0.220232 -0.01895,-0.441006 -0.04688,-0.660203 z m 21.978515,0.779302 c -1.710092,0.450252 0.07704,1.821174 0,0 z m -1.083984,0.04297 c -1.811657,0.792209 0.108585,0.934592 0,0 z m 5.894531,0.07031 c -1.251157,0.761215 -1.276536,1.332172 0.415137,0.453228 l 0.114165,-0.150493 -0.529297,-0.302735 z m -17.335937,0.27344 c -1.308827,-0.06344 -0.104247,1.640099 0,0 z M 20.80078,37.808597 c 2.003955,2.229944 -1.105794,-1.883633 0.925776,-1.789016 0.266586,-0.172921 -1.719931,-1.043807 -0.932113,0.998161 l -2.92e-4,0.368035 0.0066,0.42282 z m 14.695314,-5.162115 c -1.703106,0.537592 -1.64922,1.882036 -0.03516,0.419965 0.849282,0.334446 1.173662,0.704028 0.03516,-0.419965 z m 2.191406,0.373047 c -0.377613,0.300403 0.756547,0.201838 0,0 z m 7.691406,0.0293 c -1.379102,0.257029 0.109591,0.840063 0,0 z m 5.953125,0.07813 c -2.313528,1.529679 0.92274,0.905307 0.416463,0.290599 l -0.416468,-0.290556 z m -12.591797,0.02539 c -1.49206,0.186227 0.759624,1.138548 0,0 z m 0.304688,0.796875 c -0.693797,0.783593 0.794436,1.264957 0,4e-6 z m -3.392578,0.43164 c -0.121335,0.449415 1.422328,0.172401 0,0 z m 15.767578,0.166016 c -0.392073,0.114229 0.874813,0.300532 0,0 z m -26.181641,0.162104 c -0.931725,1.032353 -3.816804,1.277632 -0.764798,1.025128 0.862751,0.06008 0.79345,-0.435033 0.764798,-1.025128 z m 19.826172,0.0059 c -0.6109,0.463007 0.93454,1.430044 0,0 z m -7.953125,0.390625 c -0.216724,0.490624 0.272601,0.267347 0,0 z m -2.90625,0.02148 c -0.375944,1.934962 4.52512,-0.520162 0.837891,0.337855 -0.369909,0.174492 -0.605155,-0.135726 -0.837891,-0.337855 z m 4.742188,0.07227 c -1.114318,0.733893 -2.59983,1.275294 -0.189455,0.837899 1.008078,1.371389 0.427872,-0.352831 0.189455,-0.837899 z m 13.46875,0.320312 c -2.262935,0.378786 0.469957,3.750075 -0.630822,1.687487 0.761889,-0.455209 0.28592,-0.802507 0.630822,-1.687487 z m -15.716797,0.589844 c -0.999229,0.380315 -0.281582,1.175718 0,0 z m 6.166015,0.164063 c -0.456624,0.523921 0.372617,0.166743 0,0 z m -19.214843,0.207031 c -1.696193,2.23684 1.245352,1.219306 0,0 z m 10.824218,0.197265 c 0.12754,1.278747 1.700438,1.816157 0,0 z m 10.78711,0.121094 c -0.666291,0.194846 0.902299,0.248349 0,0 z m -23.279297,0.144531 c -0.550497,1.094869 1.051801,2.669712 0.197267,0.494146 l -0.15625,-0.390625 -0.04102,-0.103516 z m 24.005859,0.447266 c -1.65677,-0.05824 0.02084,0.60233 0,0 z m -1.386719,0.201172 c -1.498411,0.0785 -0.734966,0.703252 -7e-6,-3e-6 z m -7.960937,0.826172 c -1.026594,0.807149 -1.740907,2.877586 0.0772,0.821375 0.615651,-0.40659 0.875314,-0.694367 -0.0772,-0.821375 z m 1.480469,0.02344 c -1.494166,2.134534 2.341549,0.33577 1.550785,0.04883 -0.764268,-0.229919 -1.960895,1.783788 -1.550785,-0.04883 z m 14.871094,0.232422 c -2.73536,0.659298 -0.776699,1.754071 0,0 z m -12.972657,0.523438 c -0.969195,1.054376 -0.73081,2.325072 0,0 z m 5.8125,0.607422 c -1.582195,0.698941 1.573546,0.925352 0,0 z m -8.53125,0.177734 c -1.236064,0.741517 -1.913362,2.816257 -0.460635,1.074338 0.843015,-0.108674 0.702858,-0.5012 0.460635,-1.074338 z M 52.3125,40.191449 c -2.226628,0.25644 1.453142,1.28964 0.158204,0.08203 z m -0.617188,1.623047 c 0.750757,1.076727 -0.406608,1.103236 1.515584,0.949261 1.979782,0.222942 -1.538193,-0.678097 -1.515584,-0.949261 z m -14.460937,0.154297 c 0.864028,1.4825 1.088245,-0.313462 0,0 z m 3.023437,0.138672 c -1.83911,-0.09991 -1.940334,1.309936 -0.286114,0.331324 0.403838,0.24007 0.993244,0.389214 0.286114,-0.331324 z m 6.021485,0.572266 c -1.149278,0.992964 0.888181,1.441794 -0.002,0.62499 l 0.09202,-0.383934 -0.09002,-0.241066 z m -5.527344,0.74414 c -0.952196,1.308432 -2.394771,0.471366 -0.725621,1.581723 -0.158672,0.11778 -0.998705,1.940401 -0.250946,1.52575 0.401541,-1.227969 2.570476,-0.675466 0.511717,-1.287102 -0.586859,-0.854551 1.171765,-1.105239 0.46485,-1.820371 z m -2.455078,0.21875 c -1.423996,-0.01643 -3.027924,0.748135 -0.595444,0.513638 0.242298,-0.189786 1.343615,0.522489 0.595444,-0.513638 z m 13.888672,0.355469 c -2.083613,1.43317 1.871815,1.191659 0.117185,0.472708 0.930988,-0.398228 0.337552,-0.151559 -0.117185,-0.472708 z m 1.089844,0.07227 c 0.150297,0.495468 0.04441,0.179336 0,0 z m 0.939453,0.232422 c -2.813948,2.30716 0.80844,1.797365 0,0 z M 38.638672,44.97661 c -1.063936,0.65843 -2.986091,0.529956 -0.611328,0.804722 0.32345,-0.151146 0.500385,-0.484232 0.611328,-0.804722 z m 16.917969,0.220704 c -0.469762,0.151673 0.719985,0.689927 0,0 z m -9.144532,0.800781 c -0.643154,0.01732 0.310484,0.112708 0,0 z m -7.396484,0.361328 c -1.81257,-0.197424 -2.67277,0.789228 -0.378906,0.361345 l 0.4375,-0.06055 -0.05859,-0.300781 z m 15.830078,0.07031 c -1.606899,0.07599 1.722351,0.974914 0.335478,1.727588 -0.0023,1.413987 0.03275,1.537341 1.488733,0.502881 -2.011468,-0.468125 1.25823,-1.73997 -1.257813,-1.841803 0.214164,-0.323592 0.147958,-0.733551 -0.566398,-0.388666 z m -13.492187,0.416015 c -0.02123,0.627477 0.847162,0.400789 0,0 z m -2.050782,0.365235 c -0.468796,1.073783 0.624846,0.965944 0,0 z m 0.673828,0.04492 c -0.640971,1.125374 0.461607,0.843341 0,0 z m -1.654296,0.109375 c -0.572051,1.237081 0.680412,0.355494 0,0 z m 2.351562,0.109375 c -0.451228,0.37564 0.526934,0.375873 0,0 z m 7.28125,0.351563 c -0.341617,1.132905 -3.645952,2.386133 -0.854328,1.559392 0.391035,-0.262207 1.803007,-1.200508 0.854328,-1.559392 z m -10.671875,0.195312 c -0.222093,0.284755 1.449591,1.412788 0,0 z M 41.917969,48.125 c -1.630281,0.491263 -2.189119,1.122178 -0.228516,0.53125 0.753345,0.547797 0.386785,0.02575 0.228516,-0.53125 z m -21.777344,0.08984 c -1.587509,3.416343 2.931554,-0.520465 0.04589,0.770947 -0.669202,-0.182324 0.370577,-0.413955 -0.04589,-0.770947 z m 22.025391,0.804692 c -0.436664,0.748106 0.423034,0.327743 0,0 z m 12.472656,0.07227 c -0.553749,0.242559 0.531898,0.149529 0,0 z m -16.814453,0.107422 c 0.02958,0.491272 0.782334,-0.01002 0,0 z m 19.390625,0.609375 c -2.346061,0.634822 -0.326482,1.029704 -0.09375,2.072266 -1.251197,1.266158 -1.503096,-1.290993 -1.871937,0.593304 -3.491577,-0.438774 5.115642,1.545471 0.576116,2.092626 -2.931773,-0.531735 0.703669,1.650347 1.766984,-0.109273 0.837949,-0.230146 3.641363,0.279642 1.37844,-0.514164 C 56.10845,53.780938 56.821023,52.412151 58.20819,52.069946 56.605186,51.375368 56.54847,50.735294 57.357387,49.83203 L 57.214809,49.80859 Z M 20.287109,50.10938 c 0.205459,1.277338 0.741571,4.118153 1.169922,1.794922 1.164779,-0.439075 -2.245465,-1.138188 -0.195316,-1.351596 1.517261,0.299484 -0.61308,-0.798336 -0.974606,-0.443326 z m 21.884766,0.03516 c -1.611703,0.0256 0.809651,1.519958 0,0 z m -19.847656,2.611328 c -1.115792,0.471482 0.819178,1.288084 -0.736473,1.609992 1.426924,0.521505 0.789538,-0.780235 0.736473,-1.609992 z m 27.839843,0.626946 c -1.130471,0.318731 0.06269,0.771082 0,0 z M 20.865234,53.625 c -0.659821,0.100618 -0.36657,0.638033 0,0 z m -0.402343,0.923828 c -2.585927,1.306437 -0.310788,1.409116 0.228517,0.0371 l -0.228515,-0.03711 z m 22.570312,0.09375 c -1.043164,0.291628 -4.849012,3.22914 -3.364063,2.832932 0.886584,-1.515923 3.602132,-2.426659 3.755818,-2.135947 0.0046,-0.240388 -0.06985,-0.669852 -0.391755,-0.696985 z m -20.453125,0.08789 c -1.772712,0.09902 0.692127,1.229958 0,0 z m 35.71875,0.757812 c -1.979727,0.345179 -0.471544,1.027164 0,0 z m 1.064453,0.423828 c 0.290717,0.971913 0.75581,0.199473 0,0 z m -36.30664,0.01367 c -1.585061,-0.125368 -1.571562,0.923122 -0.04688,1.095703 -0.464579,-0.474245 -0.214195,-0.768243 0.04688,-1.095703 z m -2.398438,0.214844 c -2.156602,1.868008 0.07679,1.374948 0.191403,-5e-6 l -0.182845,5e-6 z m 39.0625,0.6875 c -2.15529,1.006355 0.220157,2.586707 0.359375,3.181641 -0.195393,-0.795758 1.07314,-3.156607 -0.394781,-1.69172 -1.469824,0.210501 0.36348,-0.877901 0.03541,-1.489921 z m -38.759765,0.283203 c 0.585419,1.845794 4.081446,0.269659 0.916015,0.580066 -0.438404,0.03721 -0.58239,-0.390082 -0.916015,-0.580066 z m 20.617187,0.53711 c -2.692727,0.223097 0.275243,0.774942 -1.608932,2.304241 0.137217,1.338461 0.898279,-1.648463 2.001955,-0.778297 0.109528,-0.688427 -1.811393,0.170714 -0.697291,-1.203321 0.338959,0.217423 0.590705,0.15042 0.304268,-0.322623 z m 2.294922,0.271484 c 0.06148,0.742807 -2.084211,1.020008 -1.019529,1.519533 0.205399,-1.071891 2.119292,0.184677 1.019529,-1.519533 z M 30.314453,58.375 c -1.748952,1.523073 2.05851,1.151976 2.110168,0.900109 -0.857837,-0.0055 -1.748592,0.111182 -2.110168,-0.900109 z m -6.585937,0.224609 c -2.438238,0.749159 0.04314,0.244122 0.412113,1.228518 -0.198343,-0.386624 -0.280788,-0.817471 -0.412113,-1.228518 z m 26.427734,0.0625 c -1.776063,1.890469 0.838152,0.05503 2.035157,0.833934 -0.610165,-0.775963 -1.413791,-0.02251 -2.035157,-0.833934 z m -28.875,0.242188 c -0.931104,1.19325 -1.191479,1.897109 0.388604,0.262993 0.584827,-0.360054 -0.206016,-0.20835 -0.388604,-0.262993 z m 13.166016,0.208984 c -1.62625,0.200814 2.218311,0.781882 0.175325,0 z m 9.771484,0.925781 c -2.875948,0.125579 0.266036,1.321337 0.16992,0.04101 l -0.169922,-0.04102 z m -20.830078,0.05859 c -1.97406,0.772885 1.122141,0.466523 -0.447266,1.097651 1.367792,0.656244 2.003894,-0.299881 0.652332,-0.669916 L 23.38866,60.097652 Z m 6.96875,0.05859 c 0.329818,0.952707 1.321743,1.003798 0.117199,0.205044 l -0.117187,-0.205078 z m 11.68164,0.160156 c -0.172818,1.04577 -3.379874,0.859975 -0.703129,1.060596 0.970212,0.05713 1.005669,-0.290061 0.703129,-1.060596 z m -6.736328,0.146485 c -2.261304,0.720724 -0.312286,0.36368 -0.896484,1.576161 -1.088946,1.659696 3.50389,-0.394604 0.556065,-0.197358 -0.230188,-0.496181 0.38381,-0.892028 0.340419,-1.378803 z m -3.353515,0.509765 c -4.281692,1.028385 2.731709,0.645012 0,0 z m -9.708985,0.222656 c -1.410358,-0.09035 -2.014576,1.254066 -0.656256,0.69922 -0.294599,0.63935 -0.874027,3.183652 0.179688,2.298825 -1.348526,-0.819165 1.13731,-2.360455 0.476568,-2.998045 z m 20.947266,0.61329 c 0.04942,1.086261 0.898589,0.329812 0,0 z m -19.693359,0.08594 c -1.434164,0.667258 1.396564,0.949837 0,0 z m 19.013671,0.216797 c -0.669912,1.081655 0.584244,1.076492 0,0 z m -20.003906,0.06445 c -0.814301,0.894399 0.383045,0.978886 0,0 z m 9.451172,0.03711 c -2.652629,0.409675 0.09022,0.598983 1.267579,0.609384 -0.323402,-0.38161 -0.814956,-0.479043 -1.267579,-0.609384 z M 44.5,62.453125 c 0.454385,0.739816 -1.557282,3.513493 0.164605,1.393944 C 44.953918,63.169421 45.844259,62.590766 44.5,62.453125 Z m -4.058594,0.378906 c 0.792404,1.656199 1.241665,0.446258 0,0 z m -4.234375,0.0059 c -0.981988,0.112625 0.44979,1.230574 -1.2e-5,0 z m -12.007812,0.125 c -2.067948,1.217608 1.604203,0.435582 0,0 z m 7.480469,0.373047 c 0.26711,0.659759 -0.06215,0.10743 0,0 z m 0.736328,0.478515 c -2.082127,0.116349 -0.570561,2.962625 -0.385217,1.09544 0.07261,-0.522377 1.546068,-0.573093 0.385217,-1.09544 z m 9.648437,0.125 c -1.793138,0.989401 -0.326945,1.091868 0,0 z m 10.755859,0.152344 c -0.790213,1.296961 -0.03817,2.613093 0.536585,0.587636 0.148648,-0.348145 -0.863863,0.22525 -0.536585,-0.587636 z m -28.722656,0.06641 c -1.057599,2.292837 2.540073,0.420826 0.538293,0.51095 -0.175296,-0.174354 -0.347477,-0.353342 -0.538293,-0.51095 z m 5.808594,0.117188 c -0.901604,0.85932 -2.783757,0.26385 -1.275399,1.085937 -0.217628,1.336614 3.67957,0.723368 0.94531,0.205079 -0.09739,-0.409567 0.417173,-0.824195 0.330089,-1.291016 z m 5.691406,0.05664 c -0.583537,1.632205 2.084226,-0.159947 0,5.2e-5 z m 7.365235,0.04492 c -0.63396,0.462551 0.748029,0.811765 0,0 z m 2.333984,0.386759 c -0.871611,2.195495 -3.159166,1.263105 -4.29182,1.593048 0.016,1.555191 1.905868,-0.0744 2.629714,0.61208 0.510317,-0.307382 2.29739,-0.189516 0.615234,-0.216802 -0.0759,-0.793241 1.832789,-1.221411 1.046872,-1.988326 z m -22.244141,0.02734 c -1.950633,0.115296 -1.617295,4.393015 -3.265148,2.806906 0.457137,-1.857858 -1.690808,-1.101125 -0.348137,0.09349 -2.136766,1.095349 2.78345,1.216181 1.708988,-0.271486 0.716213,-1.085887 2.17217,1.443834 2.542959,0.390621 -2.621434,-0.902503 -1.565206,-1.355878 -0.638662,-3.019527 z m 11.832032,0.11914 c -0.402924,1.074011 0.747537,0.03527 0,0 z m -7.587891,0.132813 c -1.765769,0.02588 -0.867789,2.167495 -0.03125,0.517583 0.669834,2.118107 0.47166,-0.617326 0.03125,-0.517583 z m 15.738281,0.408203 c -0.654293,0.183852 0.996573,0.459659 0,0 z m -17.884765,0.21289 c 1.066519,1.065636 -2.208566,0.606842 -0.100698,2.03266 2.035451,-0.909276 -0.199148,2.147252 1.434682,-0.167396 -1.460146,-0.14101 -1.264183,-0.492225 -1.011716,-1.77347 l -0.322265,-0.0918 z m 10.625,0.02539 c -1.321634,1.606047 0.573175,0.921703 3e-5,5e-6 z m 18.001953,0.416016 c -1.371239,0.34342 0.323279,0.635063 0,0 z m -20.853516,0.386719 c -2.02368,2.156446 2.451823,1.489848 0.88477,3.121085 2.276303,-0.980941 -0.97264,-1.719994 -1.005856,-2.292985 -0.130897,-0.295413 0.0096,-0.567902 0.121086,-0.8281 z m 4.140625,0.36914 c -3.069646,0.204457 -0.551337,1.59084 0.135121,0.395309 l -0.135123,-0.395316 z m 8.521485,0.02344 c -0.367119,0.979733 0.53666,0.326143 0,0 z m -14.451172,0.380859 c -0.869004,2.246925 1.417244,1.637462 0,0 z m 28.882812,0.779297 c -1.714014,1.711606 2.78389,1.429693 -0.01367,1.238283 -0.703773,-0.969145 1.562977,-1.209649 0.01367,-1.238283 z m -5.537109,0.134766 c -0.434798,0.243062 1.298161,0.128691 0,0 z m -25.085938,0.05469 c -1.697577,-0.187464 -1.977158,1.872985 -0.926779,0.647043 0.604211,-0.12204 1.030775,0.942473 1.762706,-0.129455 -0.755998,0.315995 -0.721165,0.284914 -0.835927,-0.517588 z m -2.318359,0.115234 c -0.828805,0.656545 -1.614314,1.896138 0.322266,1.302779 -1.264854,-0.615835 -0.11902,-0.544638 -0.322266,-1.302779 z m 19.039062,0.0078 c -1.950128,0.108609 0.918301,2.575323 5.6e-5,1e-5 z m 7.744141,0.259766 c -0.770793,1.999701 2.611329,-0.225694 0.221339,0.05221 l -0.221339,-0.05217 z m -30.298828,0.09961 c -0.787391,0.594634 1.083513,0.755741 0,0 z m 12.371094,0 c -0.01603,1.107936 1.945736,1.011578 0.232428,0.349601 l -0.232421,-0.349609 z m -13.435547,0.341797 c -2.078846,0.5492 1.903128,2.979555 0.904297,2.228507 -1.255857,-1.104529 -0.328314,-1.088374 0.46875,-1.244137 -0.290828,-1.235948 -1.67766,0.630206 -1.373047,-0.98437 z m -2.548828,0.359375 c -0.04203,1.440242 -0.409941,1.090792 0.956105,1.147272 1.521932,1.285373 0.322711,-0.683585 -0.776414,-1.14728 H 19.94727 Z m 17.679687,0.250002 c -2.171909,1.227838 -0.86481,2.384478 0.310547,0.167967 l -0.310547,-0.167969 z m -3.089844,0.423828 c -1.024759,1.139105 1.553987,0.23983 0,0 z m -10.005859,0.05469 c -1.497991,0.562346 0.366173,0.907589 0,0 z m 2.451172,0.5 c -1.589419,0.641068 1.800706,0.278125 0,0 z m 19.291016,0.0957 c -0.591334,1.174226 -3.403291,2.291119 -0.521986,0.951248 0.457478,-0.125543 1.480298,-0.654419 0.521986,-0.951248 z m -7.980469,0.371093 c -2.448555,1.042917 -1.123051,2.734827 0.435547,2.236292 -2.341944,0.02996 -0.753876,-1.378656 -0.314691,-1.874238 l -0.12086,-0.362091 z m -14.046875,0.496094 c -0.158342,1.315897 1.410442,0.01915 0,0 z M 56.091797,71.625 c -2.805578,0.491066 0.273848,1.128641 0.283191,0.431634 -0.510646,0.187708 0.194172,-0.483447 -0.283191,-0.431634 z m -21.566406,0.01953 c 0.09509,0.717106 0.64037,1.93407 0.822263,0.326172 L 34.999485,71.746307 34.525389,71.64453 Z M 27.679688,71.75 C 26.907265,72.06029 25.983846,72.424395 27.25,72.978516 26.1846,72.347301 27.942442,72.256247 27.679688,71.75 Z m -0.355469,1.3125 c 7.79e-4,0.01127 0.0135,-0.004 0,0 z m 0.0059,0.002 c 0.969046,0.371746 0.84731,-0.766025 0,0 z M 46.78125,72.482422 c -3.077302,0.447258 -0.669439,1.293979 0,0 z m -2.806641,0.130859 c -1.261405,0.465183 -1.503439,1.398846 0,0 z m -8.533203,0.925781 c -1.472613,0.644328 0.555966,0.05477 0,0 z" id="path1458" /><path style="display:inline;fill:#d6bf86;fill-opacity:1;stroke:none;stroke-width:0.124;stroke-miterlimit:4;stroke-dasharray:none;stroke-opacity:1" d="m 33.2876,55.844111 c 7.76e-4,-0.443466 -0.0191,-0.570939 -0.217932,-1.413505 -0.05847,-0.247995 -0.135347,-0.604465 -0.17063,-0.79214 -0.07916,-0.421288 -0.07226,-0.401117 -0.13223,-0.385433 -0.04734,0.01241 -0.04898,0.02525 -0.03451,0.261523 l 0.0152,0.248567 -0.216736,0.05307 c -0.602834,0.147724 -2.081656,0.459724 -2.431169,0.512916 l -0.142667,0.02168 -0.03765,-0.08804 c -0.02071,-0.04843 -0.05576,-0.148528 -0.078,-0.222256 -0.03128,-0.10388 -0.05242,-0.135719 -0.09384,-0.141766 -0.03451,-0.0054 -0.0534,0.0054 -0.0534,0.02836 0,0.09136 0.324356,1.51579 0.392131,1.722038 0.33946,1.033196 1.027696,1.632452 1.874514,1.632182 0.632942,0 1.037986,-0.274985 1.257008,-0.852385 0.06591,-0.173758 0.06936,-0.202666 0.06989,-0.584917 z m -0.278921,-0.49998 c 0,0.701418 -0.285695,1.147097 -0.858641,1.339429 -0.860486,0.288857 -1.685395,-0.23275 -1.920769,-1.214461 -0.0261,-0.108775 -0.04757,-0.277508 -0.04757,-0.375036 0,-0.162259 0.0043,-0.179084 0.05534,-0.198437 0.238243,-0.09061 2.513757,-0.558157 2.58439,-0.531071 0.07745,0.02978 0.187285,0.604044 0.187285,0.979576 z m -0.07584,-2.750846 c -0.0011,-0.01083 -0.0043,-0.02373 -0.0088,-0.03764 -0.01334,-0.04208 -0.03604,-0.05059 -0.134044,-0.05059 h -0.117911 l -0.07486,-0.310766 c -0.107669,-0.44734 -0.235052,-1.040542 -0.304066,-1.415434 -0.03289,-0.178614 -0.0646,-0.32959 -0.07066,-0.335609 -0.0066,-0.0066 -0.03051,-0.0032 -0.05447,0.0054 -0.03916,0.01505 -0.04197,0.04046 -0.02783,0.255558 l 0.01564,0.23891 -0.103547,0.02784 c -0.545137,0.146777 -2.376707,0.529288 -2.587659,0.540432 l -0.119745,0.0066 -0.07336,-0.213325 c -0.06396,-0.186066 -0.08048,-0.213164 -0.130013,-0.213164 -0.03117,0 -0.05664,0.0032 -0.05664,0.0088 0,0.0043 0.03205,0.139084 0.07109,0.298553 0.09201,0.375164 0.343181,1.650899 0.343181,1.742719 0,0.0097 -0.06029,0.03096 -0.134029,0.04627 -0.120288,0.02493 -0.134044,0.0342 -0.134044,0.09019 0,0.06018 0.0043,0.0619 0.115744,0.04789 0.06365,-0.0077 0.302145,-0.02718 0.530022,-0.0425 0.227888,-0.01536 0.418043,-0.03128 0.422477,-0.03527 0.0043,-0.0043 -0.0043,-0.0302 -0.01921,-0.05814 -0.02426,-0.0453 -0.0493,-0.05092 -0.232957,-0.05092 h -0.205842 l -0.07336,-0.127935 c -0.09201,-0.16051 -0.203058,-0.489818 -0.278328,-0.825761 -0.0138,-0.06161 -0.0077,-0.0657 0.149802,-0.105271 0.473369,-0.118907 1.213545,-0.281575 1.23827,-0.272082 0.03548,0.01364 0.108145,0.470984 0.108145,0.680879 v 0.157233 l -0.15843,0.0299 c -0.14425,0.0272 -0.158429,0.03538 -0.158429,0.0903 0,0.05587 0.0066,0.05923 0.09147,0.04673 0.05026,-0.0077 0.200954,-0.01987 0.335013,-0.02774 0.372026,-0.02158 0.426631,-0.03268 0.426631,-0.08704 0,-0.03754 -0.01791,-0.04671 -0.09147,-0.04703 -0.05026,0 -0.103448,-0.0088 -0.118255,-0.01833 -0.03278,-0.02191 -0.133425,-0.326353 -0.212279,-0.642038 l -0.05857,-0.234295 0.453553,-0.08758 c 0.568576,-0.109979 0.782766,-0.146545 0.794081,-0.135223 0.02383,0.02383 0.06817,0.453217 0.07077,0.687116 0.0032,0.306998 0.0011,0.310375 -0.228934,0.355681 -0.133067,0.02621 -0.145784,0.0342 -0.145784,0.09158 0,0.05738 0.0066,0.06172 0.07917,0.04993 0.04358,-0.0077 0.254705,-0.03237 0.469183,-0.0561 0.21448,-0.02383 0.393643,-0.04596 0.398227,-0.04941 0.0023,-0.0023 0.0023,-0.0088 0.0011,-0.01921 z M 32.42096,49.546853 c -0.0011,-0.01083 -0.0043,-0.02383 -0.0088,-0.03775 -0.01473,-0.04616 -0.03496,-0.05059 -0.229678,-0.05059 h -0.213413 l -0.0043,-0.200972 c -0.01585,-0.722412 -0.218546,-1.38804 -0.556354,-1.827061 -0.582426,-0.756909 -1.686301,-0.871566 -2.351431,-0.244113 -0.23572,0.222365 -0.366718,0.450004 -0.473208,0.822039 -0.05749,0.200749 -0.03151,0.882816 0.04596,1.206438 0.06505,0.271846 0.21832,0.732831 0.320269,0.963363 0.05395,0.121869 0.0684,0.137346 0.116472,0.12421 0.12263,-0.03343 0.85,-0.186648 0.971991,-0.204695 l 0.130912,-0.0193 0.06289,0.183564 c 0.04983,0.145507 0.07378,0.18529 0.115729,0.191459 0.02913,0.0043 0.05296,-0.0054 0.05296,-0.02114 0,-0.01584 -0.04843,-0.24971 -0.107537,-0.519614 -0.05911,-0.269902 -0.121016,-0.569451 -0.137595,-0.665692 -0.0357,-0.206982 -0.0493,-0.23422 -0.106465,-0.212279 -0.03883,0.01488 -0.04142,0.04023 -0.02621,0.252882 l 0.01694,0.236376 -0.142512,0.03927 c -0.322791,0.08888 -0.815199,0.173803 -0.856558,0.147724 -0.119775,-0.07551 -0.248716,-0.493616 -0.248716,-0.806572 0,-0.241469 0.04703,-0.427394 0.173455,-0.685475 0.0795,-0.162346 0.14259,-0.246592 0.310453,-0.414298 0.219442,-0.219206 0.38362,-0.330777 0.642638,-0.436609 0.222107,-0.09071 0.626245,-0.106255 0.866819,-0.03322 0.595123,0.180759 0.933772,0.744286 0.901185,1.499642 -0.0088,0.197694 -0.026,0.307765 -0.06471,0.408493 -0.09472,0.245959 -0.13966,0.292148 -0.355684,0.366094 -0.142171,0.04865 -0.198429,0.08048 -0.213023,0.119901 -0.01083,0.02944 -0.01564,0.05771 -0.01083,0.06289 0.0054,0.0054 0.145351,-0.0178 0.311349,-0.05134 0.166012,-0.03343 0.471761,-0.08489 0.679531,-0.1141 0.207782,-0.02924 0.381604,-0.0562 0.386178,-0.05998 0.0023,-0.0023 0.0023,-0.0097 0.0011,-0.01964 z M 31.147881,45.35482 c 0.0023,-0.0023 -0.02244,-0.107227 -0.05447,-0.234586 -0.03205,-0.127343 -0.0918,-0.401536 -0.132849,-0.609309 -0.04099,-0.207779 -0.08005,-0.403177 -0.08662,-0.434233 -0.0077,-0.03712 -0.02632,-0.05372 -0.05372,-0.04854 -0.03409,0.0066 -0.04315,0.04066 -0.04898,0.184469 -0.0066,0.159639 -0.01194,0.176424 -0.05728,0.176424 -0.134401,0 -2.69499,-0.409577 -2.896934,-0.46338 -0.07832,-0.02082 -0.09147,-0.0383 -0.155592,-0.206336 -0.0493,-0.128988 -0.08243,-0.183413 -0.111587,-0.183413 -0.02276,0 -0.04639,0.0054 -0.05264,0.01133 -0.0066,0.0066 0.01866,0.133362 0.05534,0.282491 0.03667,0.149135 0.0919,0.413123 0.122723,0.586709 0.05092,0.287303 0.06029,0.315101 0.105072,0.308673 0.04541,-0.0066 0.04843,-0.02221 0.04131,-0.212129 l -0.0077,-0.204836 0.580453,0.0165 c 0.319243,0.0088 0.610096,0.02287 0.646362,0.03085 0.078,0.01706 0.09417,0.05942 0.238006,0.618531 l 0.0973,0.377699 -0.05329,0.04035 c -0.07011,0.05319 -1.10531,0.678648 -1.12327,0.678648 -0.0077,0 -0.04423,-0.09309 -0.08133,-0.207079 -0.05868,-0.180157 -0.07474,-0.207221 -0.123311,-0.207221 -0.03074,0 -0.05599,0.0088 -0.05599,0.02006 0,0.01106 0.0425,0.200543 0.0945,0.42114 0.052,0.220595 0.119963,0.543268 0.150996,0.717165 0.03107,0.17389 0.05891,0.320012 0.06202,0.324585 0.0032,0.0043 0.02967,8.64e-4 0.05891,-0.0088 0.05103,-0.01617 0.05264,-0.02556 0.03647,-0.219431 l -0.01682,-0.202274 0.282341,-0.203358 c 0.581434,-0.418721 2.25424,-1.45346 2.302039,-1.423915 0.01395,0.0088 0.04941,0.08143 0.07873,0.161709 0.04661,0.127902 0.05964,0.143954 0.104642,0.130152 0.02824,-0.0088 0.05296,-0.01705 0.05501,-0.01876 z m -0.43884,-0.786184 -0.584033,0.349578 c -0.321218,0.192259 -0.589913,0.343699 -0.596968,0.336644 -0.0077,-0.0066 -0.04941,-0.201933 -0.09395,-0.433188 -0.04466,-0.231232 -0.08122,-0.423145 -0.08122,-0.426488 0,-0.01334 0.08596,-0.0032 0.708538,0.08328 z m -0.0645,-1.579519 c 0,-0.0054 -0.03161,-0.140247 -0.07022,-0.298553 -0.03862,-0.158322 -0.09547,-0.430447 -0.126446,-0.604712 -0.03105,-0.174265 -0.05902,-0.320602 -0.06213,-0.325188 -0.0032,-0.0043 -0.02567,0.0032 -0.05015,0.0166 -0.03828,0.02147 -0.04446,0.05792 -0.04446,0.261674 v 0.236667 l -0.17063,0.05837 c -0.314346,0.107227 -2.010763,0.507639 -2.010763,0.474696 0,-0.01565 0.445743,-0.607183 0.824864,-1.094716 0.148654,-0.191159 0.459898,-0.573645 0.691571,-0.84986 0.231685,-0.276224 0.430814,-0.515364 0.442562,-0.53137 0.01302,-0.01781 -0.02534,-0.221752 -0.09925,-0.527199 -0.108056,-0.446575 -0.125343,-0.497261 -0.167502,-0.489722 -0.02589,0.0043 -0.05049,0.01163 -0.05468,0.01575 -0.0043,0.0043 0.0043,0.114349 0.01876,0.245009 0.01473,0.130648 0.02168,0.242374 0.01575,0.248274 -0.01473,0.01473 -1.275864,0.250553 -1.927922,0.360452 -0.294909,0.04972 -0.617171,0.09202 -0.716121,0.09373 l -0.179853,0.0032 -0.05933,-0.157383 c -0.03625,-0.09622 -0.06471,-0.236022 -0.07347,-0.360148 -0.01272,-0.180415 -0.0097,-0.206973 0.03194,-0.239053 0.355974,-0.277218 1.075093,-0.745926 1.996353,-1.301342 l 0.535828,-0.323106 0.04197,0.09373 c 0.02308,0.05157 0.05264,0.123948 0.06579,0.160813 0.01617,0.0453 0.0412,0.06688 0.07724,0.06688 0.06333,0 0.0646,0.01178 -0.05965,-0.523928 -0.04661,-0.201071 -0.103338,-0.471839 -0.125856,-0.601576 -0.03893,-0.224101 -0.04358,-0.234898 -0.0933,-0.216442 -0.048,0.01779 -0.05145,0.03377 -0.04358,0.193229 0.0043,0.09556 8.51e-4,0.17391 -0.0097,0.17391 -0.106465,0 -2.619566,-0.40073 -2.90333,-0.462938 -0.123918,-0.0272 -0.126229,-0.02935 -0.175538,-0.166176 -0.0274,-0.07626 -0.05307,-0.208492 -0.05706,-0.293796 l -0.0077,-0.155151 0.510983,-0.229236 c 0.596224,-0.267445 2.081075,-0.905306 2.131721,-0.915758 0.02297,-0.0043 0.05728,0.05069 0.101502,0.163489 0.03669,0.09384 0.07873,0.16968 0.0933,0.168246 0.01457,-0.0011 0.04056,-0.0043 0.05793,-0.0066 0.02373,-0.0032 0.01473,-0.07044 -0.03658,-0.277885 -0.03732,-0.15081 -0.09545,-0.421421 -0.128973,-0.601272 -0.03355,-0.179875 -0.0656,-0.331715 -0.07131,-0.337388 -0.0054,-0.0054 -0.02956,8.51e-4 -0.05307,0.01365 -0.03462,0.01942 -0.04154,0.0522 -0.03658,0.172852 0.0054,0.143179 0.0032,0.148919 -0.05329,0.148919 -0.07906,0 -1.041385,-0.171148 -1.720692,-0.305998 -0.30017,-0.05964 -0.552523,-0.108609 -0.560668,-0.108886 -0.02319,-8.62e-4 0.48173,-0.327485 1.24675,-0.80642 0.385487,-0.241339 0.710414,-0.432799 0.722076,-0.425605 0.01163,0.0077 0.04573,0.07358 0.07574,0.147569 0.0453,0.111634 0.06483,0.134463 0.114396,0.134463 0.04596,0 0.05653,-0.0097 0.04616,-0.04272 -0.03051,-0.09611 -0.182806,-0.790845 -0.223884,-1.020794 -0.04282,-0.239635 -0.04584,-0.246258 -0.09784,-0.222537 -0.05134,0.0234 -0.05296,0.03451 -0.03991,0.255265 l 0.01379,0.230886 -1.216254,-0.01737 c -0.668939,-0.0097 -1.329983,-0.02437 -1.468843,-0.03268 l -0.252451,-0.01536 -0.06084,-0.152328 c -0.05157,-0.129129 -0.0699,-0.152329 -0.120784,-0.152329 v 0 c -0.04607,0 -0.05696,0.0097 -0.04693,0.04271 0.03657,0.118909 0.136046,0.564122 0.184762,0.826659 0.05242,0.28275 0.0576,0.295738 0.107005,0.277432 0.04822,-0.01791 0.05115,-0.03343 0.04326,-0.22641 l -0.0088,-0.20737 0.191148,-0.02782 c 0.105172,-0.01536 0.307875,-0.03819 0.450447,-0.05071 0.299738,-0.02632 1.8235,-0.08328 1.838063,-0.06871 0.0054,0.0054 -0.272363,0.189409 -0.617205,0.408938 -0.34483,0.219527 -0.884711,0.568599 -1.199738,0.775634 -0.505902,0.332491 -0.566203,0.378768 -0.516786,0.397181 0.0588,0.02191 0.936803,0.195257 2.094818,0.413403 0.37869,0.0713 0.688602,0.135889 0.688602,0.143552 0,0.01287 -1.675663,0.713631 -2.105377,0.880356 -0.105603,0.04099 -0.20062,0.06548 -0.211094,0.05447 -0.01083,-0.01106 -0.04865,-0.115961 -0.08489,-0.233249 -0.05986,-0.193607 -0.07163,-0.213184 -0.126893,-0.213184 -0.05124,0 -0.05857,0.0088 -0.04628,0.0548 0.05242,0.195731 0.200155,0.859353 0.248125,1.114951 0.03151,0.167632 0.07885,0.392585 0.105492,0.49983 0.02654,0.107228 0.07248,0.326624 0.102046,0.487479 0.02956,0.160856 0.05695,0.296214 0.06084,0.300787 0.0043,0.0043 0.0288,0.0011 0.05533,-0.0066 0.04423,-0.01395 0.04713,-0.03117 0.03493,-0.208859 -0.01163,-0.169313 -0.0077,-0.195557 0.02944,-0.209896 0.03808,-0.01473 1.231777,0.03171 1.248527,0.04854 0.0165,0.0165 0.251112,0.909868 0.251112,0.956362 0,0.06118 -0.03559,0.08597 -0.670307,0.467554 -0.254694,0.15312 -0.470382,0.282763 -0.479304,0.288145 -0.0088,0.0054 -0.05157,-0.08899 -0.09483,-0.209744 -0.05696,-0.159325 -0.08975,-0.21943 -0.119745,-0.21943 -0.02276,0 -0.04693,0.0054 -0.05372,0.01226 -0.0066,0.0066 0.01844,0.13558 0.05599,0.286355 0.03743,0.150778 0.107756,0.477059 0.156196,0.725051 0.04843,0.247986 0.11948,0.582493 0.157825,0.743352 0.0384,0.160855 0.09774,0.439452 0.131951,0.619134 0.0342,0.179679 0.06698,0.331508 0.07293,0.337388 0.0054,0.0054 0.03117,0.0043 0.05642,-0.0043 0.04066,-0.01287 0.0438,-0.03032 0.02826,-0.154563 -0.0097,-0.07701 -0.01833,-0.190402 -0.01942,-0.252007 l -0.0023,-0.112007 0.175085,-0.05264 c 0.413706,-0.124367 2.281273,-0.577723 2.300561,-0.558437 0.0054,0.0054 -0.211881,0.287272 -0.481526,0.627473 -0.613977,0.774599 -1.847891,2.410287 -1.847891,2.449607 0,0.03668 0.0043,0.03613 1.267428,-0.194276 0.889643,-0.162346 1.437379,-0.251512 1.794474,-0.291867 l 0.124956,-0.01411 0.05576,0.140574 c 0.03062,0.07735 0.06613,0.154314 0.07896,0.171071 0.02157,0.02805 0.114984,0.04423 0.114984,0.01975 z m -1.511839,-5.565959 c -0.0023,0.02653 -0.119094,0.09924 -0.517231,0.339622 -0.311702,0.188158 -0.576957,0.343847 -0.589524,0.346156 -0.01256,0.0023 -0.05857,-0.176898 -0.102158,-0.398087 -0.09719,-0.492527 -0.09676,-0.482882 -0.0274,-0.472 0.0302,0.0043 0.296259,0.04165 0.591176,0.08209 0.294909,0.04046 0.571813,0.0795 0.615416,0.08673 0.01855,0.0032 0.03051,0.0066 0.02978,0.01535 z M 28.207433,29.8372 c 0,-0.0795 -0.03387,-0.09611 -0.195764,-0.09611 -0.165872,0 -0.166142,0 -0.191913,-0.07928 -0.04164,-0.127717 -0.287972,-1.252348 -0.368162,-1.680681 -0.04056,-0.216627 -0.078,-0.398259 -0.08328,-0.403588 -0.0054,-0.0054 -0.03051,0.0023 -0.05599,0.0152 -0.04066,0.02179 -0.04412,0.04174 -0.02858,0.166453 0.0097,0.07801 0.01866,0.186509 0.01975,0.241146 l 0.0023,0.09924 -0.286364,0.06698 c -0.521967,0.121745 -1.620275,0.355984 -2.064917,0.440468 -0.329719,0.06267 -0.442766,0.07605 -0.456845,0.05415 -0.01083,-0.01595 -0.04854,-0.119525 -0.08489,-0.230118 -0.05717,-0.17403 -0.07358,-0.200921 -0.121823,-0.200987 0,0 0,0 0,0 -0.03062,2.3e-5 -0.05576,0.0032 -0.05576,0.0077 0,0.0043 0.0424,0.188115 0.09417,0.408344 0.05176,0.220219 0.125358,0.568091 0.163337,0.773099 0.06365,0.343569 0.07293,0.372242 0.119016,0.365649 0.0465,-0.0066 0.04919,-0.02017 0.03927,-0.189971 -0.02125,-0.362142 -0.04197,-0.321065 0.193532,-0.383491 0.113943,-0.03019 0.404624,-0.09935 0.645919,-0.153679 0.241285,-0.05436 0.456714,-0.1041 0.47871,-0.110671 0.04573,-0.01364 0.07336,0.111742 0.120489,0.547142 0.03603,0.332058 0.0274,0.350255 -0.192647,0.404169 -0.145195,0.03559 -0.171719,0.05048 -0.18134,0.100743 -0.0066,0.03247 -0.0043,0.05891 0.0032,0.05857 0.0088,0 0.201278,-0.02752 0.429176,-0.06084 0.227876,-0.03332 0.450004,-0.06073 0.493574,-0.06073 0.07843,0 0.09837,-0.0299 0.06008,-0.08996 -0.0097,-0.01595 -0.07832,-0.03247 -0.151429,-0.03657 l -0.132835,-0.0077 -0.04498,-0.121389 c -0.09019,-0.243368 -0.206756,-0.7549 -0.176272,-0.773099 0.01574,-0.0097 0.258168,-0.06041 0.538642,-0.113216 0.748797,-0.141007 0.687053,-0.133656 0.701559,-0.0837 0.03581,0.123391 0.06883,0.546766 0.06041,0.775635 -0.01118,0.299944 -0.01411,0.30425 -0.238621,0.354043 -0.118909,0.02643 -0.145397,0.04165 -0.154409,0.08876 -0.0066,0.03128 -0.0043,0.06084 0.0043,0.0656 0.0088,0.0043 0.168601,-0.01683 0.356276,-0.04788 0.187662,-0.03107 0.431623,-0.06417 0.542223,-0.07347 0.110595,-0.0097 0.201125,-0.02556 0.201125,-0.03604 z m -0.734427,-2.900354 c 0.0011,-0.0077 8.63e-4,-0.01706 -0.0011,-0.02913 -0.0066,-0.04639 -0.02632,-0.05662 -0.128229,-0.06698 l -0.120505,-0.01226 -0.04369,-0.170631 c -0.0713,-0.277767 -0.306505,-1.369461 -0.351823,-1.632925 -0.02307,-0.134059 -0.04465,-0.247574 -0.04822,-0.252147 -0.0032,-0.0043 -0.02956,-8.64e-4 -0.05781,0.0088 -0.04941,0.01564 -0.05092,0.0261 -0.03506,0.25616 l 0.0165,0.239949 -0.106796,0.0289 c -0.443683,0.119467 -2.225276,0.497663 -2.582157,0.548178 l -0.110827,0.01575 -0.07453,-0.215407 c -0.06505,-0.188031 -0.0822,-0.216216 -0.135812,-0.222689 l -0.06149,-0.0077 0.08317,0.336491 c 0.08876,0.36001 0.325186,1.577924 0.325186,1.675623 0,0.05179 -0.0164,0.06213 -0.135517,0.08685 -0.118241,0.02448 -0.134509,0.03485 -0.127934,0.08089 0.0088,0.06118 -0.03819,0.06008 0.610797,0.01564 0.25135,-0.01726 0.456995,-0.03981 0.456995,-0.04994 0,-0.0822 -0.03248,-0.09546 -0.230434,-0.09546 -0.160944,0 -0.20858,-0.0088 -0.239797,-0.04315 -0.09514,-0.105162 -0.281446,-0.612395 -0.325036,-0.884961 -0.01427,-0.08965 -0.01256,-0.09234 0.07939,-0.118116 0.163371,-0.04563 1.249595,-0.294391 1.285573,-0.294391 0.05457,0 0.156377,0.63621 0.124816,0.779938 -0.01427,0.06494 -0.02774,0.07347 -0.137456,0.08803 -0.215138,0.02858 -0.263497,0.146173 -0.05576,0.135673 0.218578,-0.01106 0.727965,-0.05565 0.7368,-0.0645 0.0043,-0.0043 -0.0032,-0.03151 -0.01844,-0.05954 -0.0204,-0.03819 -0.05092,-0.05092 -0.122134,-0.05092 -0.09289,0 -0.09589,-0.0032 -0.145926,-0.136557 -0.06343,-0.169571 -0.20369,-0.717134 -0.187736,-0.733076 0.02029,-0.02029 1.207496,-0.237997 1.221453,-0.224038 0.03537,0.03538 0.06968,0.334432 0.07173,0.626276 0.0023,0.372693 0,0.378358 -0.208405,0.407007 -0.09308,0.01287 -0.126399,0.02901 -0.141767,0.06903 -0.01106,0.0288 -0.01319,0.05954 -0.0043,0.06861 0.0088,0.0088 0.180351,-0.0043 0.381422,-0.02956 0.20107,-0.02536 0.407416,-0.04661 0.458621,-0.04682 0.0618,-5.72e-4 0.08285,-0.0043 0.08662,-0.02643 z m -0.782915,-2.579482 -0.05814,-0.238901 c -0.08016,-0.328953 -0.252599,-1.179039 -0.252599,-1.245121 0,-0.06074 -0.0088,-0.06428 -0.07238,-0.0301 -0.04035,0.02158 -0.04346,0.048 -0.03151,0.265084 l 0.01334,0.241146 -0.228945,0.0534 c -0.696662,0.162505 -2.30879,0.496939 -2.493939,0.51738 -0.06979,0.0077 -0.07379,0.0023 -0.149507,-0.211535 -0.06395,-0.180414 -0.08748,-0.220811 -0.132835,-0.227608 v 0 c -0.06613,-0.0097 -0.06677,-0.01564 0.05718,0.507868 0.04596,0.194371 0.108907,0.496043 0.13983,0.670308 0.03095,0.174265 0.06344,0.325392 0.07216,0.335899 0.0088,0.01083 0.03409,0.0121 0.05642,0.0032 0.03452,-0.01334 0.03959,-0.05124 0.03452,-0.261812 l -0.0054,-0.246193 0.18283,-0.04369 c 0.612964,-0.146437 2.462636,-0.53106 2.553744,-0.53106 0.03216,0 0.06213,0.05415 0.118273,0.213314 0.06548,0.185441 0.08328,0.214156 0.136555,0.220608 z M 26.27386,22.407286 26.18163,22.010095 c -0.0507,-0.218502 -0.122071,-0.557972 -0.158581,-0.75435 -0.06516,-0.350601 -0.06741,-0.356664 -0.120489,-0.332479 -0.04423,0.02017 -0.05253,0.04077 -0.04541,0.113355 0.0043,0.04877 0.01364,0.15098 0.01975,0.227143 l 0.01106,0.138495 -0.260033,0.0619 c -0.424535,0.100856 -0.938012,0.209959 -0.946845,0.201124 -0.01364,-0.01364 -0.147352,-0.610248 -0.273572,-1.220569 -0.105172,-0.508719 -0.114007,-0.574444 -0.07865,-0.584919 0.07844,-0.02329 0.919977,-0.180627 1.053359,-0.19695 l 0.136107,-0.0166 0.07368,0.203358 c 0.05803,0.160189 0.08489,0.205105 0.125996,0.211232 0.0644,0.0097 0.06428,-8.62e-4 0.0011,-0.24753 -0.0684,-0.266689 -0.241438,-1.111405 -0.241438,-1.178478 0,-0.06365 -0.02956,-0.08673 -0.08403,-0.0658 -0.03451,0.01334 -0.03732,0.04639 -0.02308,0.254232 l 0.0164,0.238902 -0.107017,0.02934 c -0.430276,0.117853 -2.665874,0.579741 -2.689855,0.555762 -0.0077,-0.0077 -0.04584,-0.105603 -0.08511,-0.218222 -0.06052,-0.173469 -0.08037,-0.205885 -0.129873,-0.212131 l -0.05847,-0.0077 0.09029,0.38513 c 0.04972,0.211825 0.121156,0.54957 0.15872,0.750641 0.03755,0.201082 0.07098,0.369251 0.07443,0.373685 0.0032,0.0043 0.02708,-0.0032 0.05253,-0.0166 0.04142,-0.0221 0.04509,-0.04757 0.0357,-0.244261 l -0.01083,-0.21942 0.130896,-0.03754 c 0.150624,-0.04325 0.641045,-0.161611 0.955034,-0.230574 0.155754,-0.0342 0.2175,-0.03949 0.224177,-0.0191 0.06267,0.191686 0.478732,1.750873 0.469626,1.759964 -0.01395,0.01395 -1.228864,0.253001 -1.320231,0.259732 l -0.09472,0.0077 -0.07658,-0.20722 c -0.06161,-0.166702 -0.08704,-0.208676 -0.130617,-0.214953 -0.06764,-0.0097 -0.06764,-0.0054 0.0077,0.29275 0.05124,0.202258 0.254834,1.182264 0.254834,1.226966 0,0.0077 0.02267,8.61e-4 0.05049,-0.01395 0.04661,-0.02493 0.04994,-0.04497 0.04272,-0.260183 l -0.0077,-0.23325 0.15843,-0.04563 c 0.342198,-0.0987 2.024131,-0.455743 2.561618,-0.543713 0.05998,-0.0097 0.06721,0.0011 0.136557,0.201568 0.06344,0.183498 0.08144,0.212937 0.133734,0.219268 z m -0.552489,-4.342273 c 0,-0.07443 -0.03538,-0.09589 -0.157987,-0.09589 -0.07066,0 -0.161483,-0.0066 -0.201859,-0.01473 l -0.07336,-0.01457 -0.0165,-0.259581 c -0.05825,-0.916362 -0.272805,-1.466406 -0.747652,-1.916906 -0.4942,-0.468838 -1.187541,-0.581606 -1.797021,-0.292168 -0.13592,0.0645 -0.227359,0.132541 -0.368475,0.274316 -0.262136,0.263366 -0.420643,0.568662 -0.487026,0.937623 v 1.52e-4 c -0.01272,0.07055 -0.01855,0.250345 -0.01302,0.399562 0.01737,0.471159 0.150639,0.984225 0.357021,1.37379 0.143163,0.270259 0.204609,0.333224 0.343924,0.352564 l 0.116193,0.01617 -0.131206,-0.192798 c -0.308812,-0.453509 -0.444536,-1.119732 -0.324001,-1.589626 0.147878,-0.576473 0.597335,-1.03584 1.154661,-1.180259 0.190952,-0.0495 0.521144,-0.04941 0.690695,5.72e-4 0.48214,0.141614 0.818923,0.535179 0.917549,1.072257 0.06764,0.368508 -0.01749,0.789236 -0.203659,1.006802 -0.08016,0.09363 -0.125872,0.116534 -0.343934,0.172701 -0.08813,0.02275 -0.10356,0.03604 -0.10356,0.08942 0,0.05749 0.0066,0.06138 0.07917,0.04789 0.291672,-0.05437 0.895543,-0.139148 1.084597,-0.15247 0.123995,-0.0088 0.225527,-0.02437 0.225527,-0.03462 z m -0.787974,-3.681036 c -8.65e-4,-0.01256 -0.0066,-0.02774 -0.01606,-0.04596 -0.02286,-0.04261 -0.0507,-0.04919 -0.208267,-0.04919 h -0.181934 v -0.180594 c 0,-0.230921 -0.05523,-0.519108 -0.131207,-0.685036 -0.174158,-0.380415 -0.572308,-0.573731 -0.955184,-0.463682 -0.365381,0.105062 -0.567455,0.347809 -0.802701,0.964257 -0.211544,0.554337 -0.381666,0.730707 -0.704816,0.730707 -0.16816,0 -0.230347,-0.02416 -0.357764,-0.139085 -0.29657,-0.267358 -0.293139,-0.736434 0.0077,-1.037145 0.0877,-0.0877 0.13955,-0.115309 0.306148,-0.162745 0.181869,-0.05179 0.200672,-0.06279 0.200672,-0.117511 0,-0.05307 -0.0088,-0.05868 -0.06709,-0.04616 -0.242614,0.05157 -0.928272,0.16062 -1.090693,0.173458 -0.107118,0.0088 -0.219268,0.02059 -0.249171,0.02675 -0.04702,0.0097 -0.05059,0.01866 -0.02794,0.06828 0.02525,0.05534 0.03312,0.05684 0.255265,0.04519 l 0.229248,-0.01209 v 0.240984 c 8.53e-4,0.453574 0.119621,0.792245 0.363115,1.034178 0.313159,0.311154 0.723692,0.365995 1.148424,0.153507 0.285135,-0.142651 0.393199,-0.300504 0.636826,-0.930924 0.219636,-0.568329 0.323785,-0.69649 0.566332,-0.69649 0.181915,0 0.303829,0.08348 0.395995,0.271189 0.09341,0.190165 0.0945,0.402259 0.0032,0.58001 -0.08823,0.171482 -0.159012,0.227995 -0.363857,0.290377 -0.155928,0.04745 -0.179972,0.06245 -0.186391,0.116177 l -0.0077,0.06172 0.165723,-0.03139 c 0.221395,-0.04185 0.795493,-0.107868 0.938219,-0.107868 0.09556,-2.2e-5 0.135889,-0.01349 0.133578,-0.05103 z M 24.0807,12.135486 c 0.0077,-0.0077 -0.0204,-0.150483 -0.06118,-0.318488 -0.04077,-0.16802 -0.115062,-0.513681 -0.164968,-0.768051 -0.08662,-0.441137 -0.093,-0.461212 -0.138944,-0.436608 -0.04487,0.02395 -0.04714,0.0425 -0.03182,0.26465 l 0.01649,0.23875 -0.360452,0.08608 c -0.548531,0.131066 -2.336922,0.5034 -2.418074,0.5034 -0.01225,0 -0.05771,-0.09914 -0.100969,-0.220165 -0.08285,-0.231576 -0.09956,-0.255988 -0.159617,-0.232958 -0.02266,0.0088 -0.03161,0.03128 -0.02319,0.05781 0.03689,0.116193 0.185656,0.789171 0.24709,1.117626 0.06871,0.367452 0.06925,0.36892 0.125405,0.343334 0.04573,-0.02082 0.05415,-0.03993 0.04477,-0.100857 -0.0066,-0.04131 -0.01813,-0.148126 -0.02632,-0.237272 l -0.01488,-0.162001 0.275804,-0.06516 c 0.58316,-0.137642 2.430479,-0.524672 2.504209,-0.524672 0.01226,0 0.05739,0.09837 0.100425,0.218675 0.05468,0.152827 0.09256,0.223164 0.1257,0.233702 0.02609,0.0088 0.05339,0.0097 0.06052,0.0023 z M 23.596488,9.7615946 c -8.5e-4,-0.00542 -0.0032,-0.013028 -0.0066,-0.022443 -0.02967,-0.075403 -0.178849,-0.7517294 -0.210045,-0.9520559 -0.03267,-0.2097982 -0.04487,-0.2345774 -0.1041,-0.2118269 -0.03205,0.012254 -0.04056,0.048431 -0.04056,0.1713637 0,0.1357192 -0.0054,0.1559062 -0.04541,0.1559062 -0.06807,0 -0.931377,-0.1545946 -1.656723,-0.2966244 L 20.891236,8.4802146 21.167633,8.3000607 c 0.503089,-0.3279484 1.673304,-1.054998 1.698081,-1.054998 0.01334,0 0.04994,0.065912 0.08111,0.1463735 0.04714,0.1214672 0.06634,0.1462343 0.114239,0.1462343 0.0507,0 0.05556,-0.00762 0.04056,-0.067095 -0.05276,-0.2081696 -0.182668,-0.8067774 -0.219119,-1.009769 -0.04131,-0.2297862 -0.0438,-0.235298 -0.09698,-0.2110915 -0.03657,0.01661 -0.0522,0.042278 -0.04734,0.077452 0.0043,0.029018 0.0121,0.1267087 0.01791,0.217189 l 0.01083,0.1645248 h -1.065709 c -0.586138,0 -1.247893,-0.00762 -1.470624,-0.015867 L 19.825693,6.6769508 19.766373,6.5284823 C 19.718593,6.408612 19.695603,6.3785415 19.647063,6.3725869 v -1.505e-4 l -0.06008,-0.0076 0.06632,0.263303 c 0.03646,0.1448078 0.09169,0.4035765 0.122722,0.5751016 0.05187,0.2865801 0.06041,0.3112831 0.106797,0.3046587 0.04734,-0.00652 0.04994,-0.020176 0.04208,-0.2204646 -0.0043,-0.117295 -0.0043,-0.2131751 0.0023,-0.2131751 0.0054,0 0.124475,-0.015868 0.264197,-0.035061 0.480068,-0.066244 2.25536,-0.1416443 2.204016,-0.093515 -0.01334,0.012563 -0.298587,0.1966037 -0.633709,0.4090882 -0.335133,0.2124734 -0.867174,0.5559887 -1.182188,0.7634235 -0.55232,0.3636855 -0.570045,0.3779575 -0.499539,0.3980858 0.07163,0.020398 1.339561,0.2677899 2.324959,0.4535649 l 0.497145,0.093735 -0.423964,0.1738997 c -0.233173,0.095669 -0.742119,0.3049183 -1.130853,0.4650201 -0.388745,0.1600908 -0.730382,0.2981658 -0.75927,0.3068928 -0.048,0.01442 -0.05922,-0.0043 -0.13001,-0.2166047 -0.07012,-0.2105321 -0.08306,-0.2325058 -0.137907,-0.2325058 -0.04639,0 -0.05749,0.00972 -0.04734,0.042708 0.04228,0.1357502 0.191449,0.7968095 0.242483,1.0741895 0.03289,0.178613 0.06483,0.329728 0.07077,0.335747 0.0066,0.0066 0.02901,0.0043 0.05103,-0.0043 0.0327,-0.01256 0.04002,-0.05242 0.04002,-0.215851 v -0.200379 l 0.676254,-0.299601 c 0.957936,-0.4243537 1.982158,-0.8604752 1.993669,-0.8489658 0.0054,0.00542 0.03624,0.080366 0.0686,0.1667572 0.05081,0.1355335 0.06806,0.1581923 0.125857,0.1651295 0.04227,0.00542 0.05728,0.0032 0.05599,-0.01411 z" id="path844-5" /><path style="display:inline;fill:none;fill-opacity:1;stroke:#000000;stroke-width:3;stroke-linecap:round;stroke-linejoin:round" id="path4586" d="m 40.2,75.6 c 6.9,-0.1 16.7,-1.8 22.4,-4 -0.7,-6.6 -2.7,-45.5 -2.7,-45.5 0,0 2.1,5.1 3.2,7.9 4.7,-0.4 12.3,-1.3 15.3,-6.2 C 75.5,21 73.3,13.2 71,8.1 71,8.1 60.6,4.3 52.4,1.7 c 0,0 -0.9,-0.3 -1.3,0.4 -3,4.2 -4.5,7.1 -11.2,7.1 v 0 C 33.5,9.1 31.9,6.3 29,2.1 28.5,1.4 27.6,1.7 27.6,1.7 19.5,4.2 9,8.1 9,8.1 c -2.3,5.1 -4.5,13 -7.4,19.7 3,4.8 10.4,5.8 15.3,6.2 1.1,-2.8 3.2,-7.9 3.2,-7.9 0,0 -2.1,38.9 -2.7,45.5 5.8,2.2 15.5,4 22.4,4 v 0" class="st0" /></svg>