<?xml version="1.0" encoding="UTF-8"?>
<!DOCTYPE svg PUBLIC "-//W3C//DTD SVG 1.1//EN" "http://www.w3.org/Graphics/SVG/1.1/DTD/svg11.dtd">
<!-- Creator: CorelDRAW X8 -->
<svg xmlns="http://www.w3.org/2000/svg" xml:space="preserve" width="210mm" height="297mm" version="1.1" style="shape-rendering:geometricPrecision; text-rendering:geometricPrecision; image-rendering:optimizeQuality; fill-rule:evenodd; clip-rule:evenodd"
viewBox="0 0 21000 29700"
 xmlns:xlink="http://www.w3.org/1999/xlink">
 <defs>
  <style type="text/css">
   <![CDATA[
    .str1 {stroke:#681228;stroke-width:26.25}
    .str2 {stroke:#681228;stroke-width:52.5}
    .str4 {stroke:#681228;stroke-width:787.5}
    .str3 {stroke:#851930;stroke-width:787.5}
    .str0 {stroke:#681228;stroke-width:196.88}
    .str5 {stroke:#E6E7E8;stroke-width:7.62}
    .str6 {stroke:#E0E0E0;stroke-width:7.62}
    .str7 {stroke:black;stroke-width:525;stroke-linecap:round;stroke-linejoin:round}
    .fil2 {fill:none}
    .fil7 {fill:#E6E7E8}
    .fil4 {fill:#05607D}
    .fil3 {fill:#1FBBA5}
    .fil25 {fill:#503941}
    .fil23 {fill:#5A4548}
    .fil21 {fill:#611D32}
    .fil10 {fill:#63313E}
    .fil9 {fill:#651C34}
    .fil8 {fill:#67263A}
    .fil15 {fill:#673846}
    .fil14 {fill:#67444C}
    .fil0 {fill:#681228}
    .fil20 {fill:#6A4A53}
    .fil16 {fill:#6A5558}
    .fil6 {fill:#6B1D38}
    .fil13 {fill:#74414E}
    .fil19 {fill:#D4B4BB}
    .fil12 {fill:#D4C4C4}
    .fil11 {fill:#D6CAC8}
    .fil26 {fill:#D7A9B6}
    .fil18 {fill:#DBC3C6}
    .fil1 {fill:#E0E0E0}
    .fil24 {fill:#E2BBC5}
    .fil17 {fill:#E6B8C5}
    .fil22 {fill:#E7AFBE}
    .fil5 {fill:#FDDB00}
   ]]>
  </style>
 </defs>
 <g id="Capa_x0020_1">
  <metadata id="CorelCorpID_0Corel-Layer"/>
  <g>
   <path class="fil0" d="M10710 24576c1811,-27 4384,-473 5880,-1050 -184,-1733 -709,-11944 -709,-11944 0,0 552,1339 840,2074 1234,-105 3229,-342 4017,-1628 -762,-1785 -1339,-3832 -1943,-5171 0,0 -2730,-998 -4882,-1680 0,0 -237,-79 -342,105 -787,1102 -1181,1864 -2940,1864l0 0c-1680,-27 -2100,-762 -2861,-1864 -131,-184 -367,-105 -367,-105 -2127,656 -4883,1680 -4883,1680 -604,1339 -1181,3412 -1942,5171 787,1260 2730,1523 4016,1628 289,-735 840,-2074 840,-2074 0,0 -551,10211 -709,11944 1523,577 4069,1050 5880,1050l0 0 105 0zm0 0l0 0 0 0z"/>
  </g>
  <path class="fil1" d="M16013 12264c-27,-420 -27,-682 -27,-682 0,0 1654,-5198 158,-5696 -683,-237 -1444,-499 -2126,-709 0,0 -237,-79 -342,105 -787,1102 -1181,1864 -2913,1864l0 0c-1680,-27 -2100,-762 -2835,-1864 -132,-184 -368,-105 -368,-105 -1024,315 -2205,735 -3124,1050 -997,341 1182,5355 1182,5355 0,0 -237,2809 -420,6037 0,0 1680,-1260 3018,-1522 1864,-420 7902,-3623 7797,-3833z"/>
  <path class="fil0" d="M7061 7224c-78,158 -78,105 -105,158l53 -79c26,-52 79,-131 131,-236 0,26 -52,105 -79,157z"/>
  <polygon class="fil0" points="7166,7041 7140,7067 7166,7014 "/>
  <path class="fil0" d="M6904 7487l-53 79c0,26 0,-27 0,-27l-52 79c79,-105 79,-131 105,-131z"/>
  <path class="fil0" d="M6300 8406c-52,52 0,-53 0,-79 26,-53 53,-79 53,-53 -53,79 -53,105 -53,132z"/>
  <path class="fil0" d="M6668 7907c0,-26 105,-184 78,-184 0,0 -26,0 -26,26l-26 79c-105,210 26,-105 -53,26 -26,27 -26,53 -26,53 -26,79 -26,52 0,26 -105,184 -105,105 -157,210 -79,158 0,79 0,105 -27,-26 -184,236 -289,446 -79,210 -236,420 -341,683 -53,105 -132,236 -184,367l0 0 0 0c-53,79 -105,237 -131,315l-210 473 367 -420c26,-26 26,-26 53,-26l0 -27c78,-105 26,0 78,-52 79,-105 184,-236 184,-315l0 0 53 -79c0,0 0,-26 -27,-26 0,-26 0,-53 27,-79 52,-79 26,0 52,-26 105,-184 210,-420 315,-578 26,27 131,-210 158,-288 105,-158 157,-394 236,-525 -26,78 -105,210 -79,236l26 -26c53,-79 105,-210 105,-263 -26,53 -26,53 -52,53 0,-27 0,-53 26,-105 26,-79 53,-132 79,-132 0,53 -26,79 -53,105 0,27 53,-105 79,-157 -52,52 26,-131 -79,52l53 -105c26,-78 -184,342 -105,132 0,-27 -26,0 0,-53 -26,26 -53,105 -79,131 -52,27 -131,263 -157,237 -79,183 -158,236 -237,393 -105,184 -26,79 -26,132 -52,105 -105,210 -131,262 -26,53 -53,79 -53,53 -210,315 -420,630 -656,918l289 132c26,-79 52,-132 79,-210 78,-158 105,-342 236,-473l-26 26 0 -26 -53 79c26,-53 53,-105 79,-158 0,-78 131,-288 131,-367 131,-263 105,-158 236,-420 53,-158 132,-341 210,-499 27,-52 79,-105 79,-105 26,-79 79,-184 131,-262 79,-237 -131,131 -183,236z"/>
  <path class="fil0" d="M6300 9193c0,26 53,-52 79,-79l0 -52c26,-105 26,-105 -26,-53 52,53 0,132 -53,184z"/>
  <path class="fil0" d="M5906 9928l0 0 -78 79c26,26 52,-26 78,-79z"/>
  <path class="fil0" d="M6983 7513c-27,79 -79,158 -132,263l27 -27c52,-105 105,-236 157,-367 26,-79 -52,184 -52,131z"/>
  <path class="fil0" d="M6851 7723c79,-210 210,-420 263,-604 -26,53 -158,342 -210,447 -26,78 -79,157 -105,236 -26,105 26,-26 52,-79z"/>
  <path class="fil0" d="M7140 7093c0,-26 26,-52 26,-52 0,-27 0,0 -26,52 0,0 -26,53 0,0z"/>
  <path class="fil0" d="M8111 7067c-131,236 -105,157 -157,236l79 -105c52,-79 131,-210 210,-341 -27,26 -105,157 -132,210z"/>
  <path class="fil0" d="M8269 6804c0,27 -26,27 -26,53l26 -53 0 0z"/>
  <path class="fil0" d="M7849 7461l-79 105c-26,26 26,-27 26,-27l-78 105c105,-131 105,-157 131,-183z"/>
  <path class="fil0" d="M6878 8826c-53,78 26,-79 26,-105 52,-79 105,-132 79,-53 -53,79 -79,131 -105,158z"/>
  <path class="fil0" d="M7455 8091c0,-53 158,-289 131,-263 0,0 -26,26 -52,53l-79 131c-184,289 53,-131 -79,52 -26,53 -26,53 -52,79 -53,105 -26,79 0,26 -158,289 -131,158 -236,315 -132,210 -27,105 -53,158 -26,-26 -289,341 -472,682 -158,315 -394,630 -552,998 -78,157 -210,341 -315,551l0 0 0 0c-78,105 -183,341 -236,473l131 78c27,-26 53,-52 79,-52l26 -26c132,-184 27,0 105,-79 105,-158 289,-341 315,-446l0 0 79 -132c0,-26 0,-52 -26,-26 26,-26 26,-52 52,-105 79,-105 27,0 53,-26 157,-289 341,-604 525,-866 26,26 210,-289 289,-420 157,-263 288,-578 393,-762 -52,132 -157,315 -157,342l26 -53c79,-131 184,-315 210,-394 -52,53 -52,53 -79,79 27,-52 27,-79 53,-131 52,-105 105,-210 131,-210 -26,52 -52,105 -79,157 0,27 105,-157 132,-210 -79,105 52,-183 -105,79l78 -157c27,-53 -52,52 -105,157 -52,105 -105,184 -52,53 0,-27 -26,0 26,-79 -26,52 -105,131 -105,184 -52,52 -210,367 -262,367 -132,263 -237,368 -394,578 -184,288 -53,105 -79,210 -105,131 -184,288 -210,367 -52,79 -79,105 -52,53 -315,472 -683,945 -1024,1391l262 157c53,-105 105,-210 158,-288 131,-237 236,-473 394,-709l-27 26c0,0 0,-26 27,-52l-79 105c52,-79 79,-132 105,-210 0,-105 210,-420 236,-525 236,-394 158,-210 368,-630 105,-210 236,-473 393,-735 53,-79 105,-158 105,-158 53,-105 158,-262 210,-394 132,-236 132,-236 53,-131 -26,105 -131,289 -184,368z"/>
  <path class="fil0" d="M6694 9954c0,27 79,-78 105,-131l26 -52c79,-132 53,-158 0,-79 0,52 -79,184 -131,262z"/>
  <path class="fil0" d="M6038 11004l0 -26 -105 158c0,0 52,-53 105,-132z"/>
  <path class="fil0" d="M7928 7487c-79,157 -132,210 -210,394l26 -27c79,-157 184,-341 289,-525 52,-131 -132,237 -105,158z"/>
  <path class="fil0" d="M7718 7828c157,-289 341,-630 472,-866 -52,52 -262,472 -367,656 -53,131 -105,210 -184,341 -53,132 52,-52 79,-131z"/>
  <path class="fil0" d="M8243 6883c0,-26 26,-52 52,-79 0,-26 -26,27 -52,79 -27,0 -53,79 0,0z"/>
  <path class="fil0" d="M8794 7198c-184,289 -131,184 -210,289l79 -158c78,-131 183,-288 288,-446 0,53 -105,236 -157,315z"/>
  <path class="fil0" d="M9004 6857c-26,26 -26,26 -26,52l26 -52 0 0z"/>
  <path class="fil0" d="M8479 7723l-79 131c-26,27 26,-52 26,-52l-105 157c132,-210 132,-210 158,-236z"/>
  <path class="fil0" d="M7324 9508c-79,105 26,-79 52,-131 53,-79 105,-158 79,-79 -79,105 -105,158 -131,210z"/>
  <path class="fil0" d="M8006 8537c27,-53 210,-368 184,-341 0,0 -26,26 -52,52l-79 158c-236,393 79,-158 -79,78 -26,53 -52,79 -52,105 -79,132 -53,105 0,27 -210,367 -184,210 -289,393 -158,289 -26,132 -53,184 -26,-26 -367,473 -577,866 -210,394 -499,788 -709,1260 -105,184 -262,447 -394,709l0 0c0,0 0,0 0,26 -105,132 -236,420 -315,578l132 79c26,-53 52,-79 78,-79l27 -53c131,-210 26,0 105,-105 131,-210 341,-446 367,-577 0,-26 0,0 26,0l105 -184c0,-26 0,-52 -26,-26 26,-26 26,-79 79,-131 79,-132 26,0 52,-53 210,-367 447,-761 657,-1102 26,26 262,-368 341,-552 210,-315 367,-735 525,-971 -79,158 -210,420 -210,446l52 -78c79,-158 237,-394 263,-499 -53,79 -53,79 -79,105 26,-79 26,-79 79,-184 79,-131 157,-262 157,-262 -26,78 -78,157 -105,210 0,26 132,-210 158,-263 -105,131 79,-236 -131,105 26,-79 78,-131 105,-210 26,-79 -53,79 -132,210 -78,131 -157,236 -52,53 26,-27 -26,0 52,-105 -52,52 -105,183 -131,236 -79,79 -289,472 -315,472 -157,342 -289,473 -472,762 -237,367 -53,131 -105,262 -132,184 -210,368 -289,499 -53,105 -105,157 -79,79 -420,603 -814,1233 -1260,1863l263 158c78,-131 131,-263 210,-394 183,-315 315,-630 525,-919l-27 53c0,0 0,-26 27,-79l-105 131c52,-78 105,-183 157,-288 26,-132 289,-525 341,-683 289,-499 184,-289 473,-787 131,-289 315,-604 499,-919 78,-105 131,-210 131,-210 79,-131 184,-341 262,-499 158,-315 158,-315 79,-184 -184,237 -315,473 -394,578z"/>
  <path class="fil0" d="M6930 10873c0,26 105,-105 131,-157l27 -79c105,-184 78,-184 0,-79 26,26 -79,210 -158,315z"/>
  <path class="fil0" d="M6116 12238l0 -26 -131 210c26,0 79,-105 131,-184z"/>
  <path class="fil0" d="M8558 7723c-105,210 -158,289 -263,499l26 -26c105,-210 237,-420 368,-683 79,-184 -158,315 -131,210z"/>
  <path class="fil0" d="M8321 8169c184,-367 420,-813 604,-1128 -52,78 -341,630 -472,866 -79,157 -132,262 -237,446 -105,131 53,-105 105,-184z"/>
  <path class="fil0" d="M8951 6936c27,-27 53,-79 53,-105 26,-27 -26,52 -53,105 0,26 -52,131 0,0z"/>
  <path class="fil0" d="M9371 7513c-183,341 -131,236 -210,341l105 -157c79,-158 210,-341 289,-499 0,26 -105,210 -184,315z"/>
  <path class="fil0" d="M9608 7119c-27,27 -27,53 -53,79l53 -79 0 0z"/>
  <path class="fil0" d="M9030 8117l-105 157c-26,27 26,-52 26,-52l-105 184c158,-263 132,-263 184,-289z"/>
  <path class="fil0" d="M7718 10112c-79,105 26,-105 52,-158 53,-105 131,-183 79,-105 -79,158 -105,210 -131,263z"/>
  <path class="fil0" d="M8479 9036c26,-79 236,-420 210,-368 -26,0 -26,26 -53,53l-105 183c-262,420 105,-183 -105,105 -26,53 -52,105 -78,132 -79,157 -53,105 0,26 -237,420 -184,236 -315,446 -184,315 -53,131 -79,210 -26,-26 -394,525 -656,971 -237,447 -552,893 -814,1418 -131,210 -289,499 -446,787l0 0 0 27c-105,157 -263,498 -368,656l131 79c27,-53 79,-79 79,-105l26 -53c158,-262 27,0 105,-131 132,-236 368,-525 420,-656 27,-27 0,0 27,0l105 -184c0,-26 0,-53 -27,-26 27,-53 53,-79 79,-158 105,-157 26,0 79,-52 236,-394 499,-867 735,-1234 26,26 289,-420 394,-604 236,-367 420,-814 603,-1102 -78,183 -262,472 -262,498l52 -78c105,-184 263,-447 289,-552 -52,105 -79,105 -105,132 26,-79 53,-105 79,-184 79,-131 157,-289 184,-289 -27,79 -79,158 -132,236 0,27 132,-210 184,-315 -105,132 105,-262 -131,132 26,-79 79,-158 105,-237 26,-78 -53,79 -158,237 -78,157 -157,262 -78,78 26,-52 -27,0 52,-131 -52,79 -131,210 -157,263 -79,78 -315,551 -342,551 -183,367 -315,525 -525,840 -262,420 -78,157 -131,289 -131,210 -236,420 -315,551 -79,105 -131,184 -79,105 -446,709 -918,1417 -1391,2100l263 157c78,-131 157,-288 236,-420 210,-341 341,-682 577,-1023l-26 52c0,0 26,-52 26,-79l-105 158c53,-105 132,-210 184,-315 26,-131 315,-578 368,-761 315,-578 210,-315 525,-893 157,-315 367,-682 577,-1050 79,-131 158,-236 131,-210 79,-157 210,-394 315,-551 473,-761 0,26 -157,289z"/>
  <path class="fil0" d="M7271 11608c0,26 105,-131 158,-184l52 -78c105,-184 105,-210 0,-105 -26,52 -157,262 -210,367z"/>
  <path class="fil0" d="M9083 8117c-105,210 -184,341 -289,551l26 -26c131,-236 263,-473 394,-761 105,-210 -158,315 -131,236z"/>
  <path class="fil0" d="M8820 8589c210,-420 499,-892 683,-1260 -53,79 -394,709 -552,972 -105,183 -157,288 -262,498 -79,158 52,-105 131,-210z"/>
  <path class="fil0" d="M9555 7224c26,-26 53,-105 79,-131 26,-26 -26,53 -53,79 -52,52 -105,184 -26,52z"/>
  <path class="fil2 str0" d="M13886 11582c-498,0 -997,-656 -1050,-998 -52,-288 -26,-1155 -26,-1155 289,-105 341,-315 341,-315l1155 0 289 0c0,0 53,237 341,315 0,0 27,840 -26,1155 -79,315 -551,998 -1024,998l0 0z"/>
  <circle class="fil2 str1" cx="13519" cy="9587" r="262"/>
  <line class="fil2 str1" x1="13519" y1="10978" x2="13519" y2= "9849" />
  <circle class="fil2 str1" cx="14070" cy="9981" r="262"/>
  <line class="fil2 str1" x1="14070" y1="10742" x2="14070" y2= "10243" />
  <circle class="fil2 str1" cx="13046" cy="10138" r="262"/>
  <line class="fil2 str1" x1="13046" y1="11083" x2="13046" y2= "10401" />
  <path class="fil0 str1" d="M14595 11083c0,0 -472,604 -814,473 -210,-79 -315,-105 -446,-342 -157,-262 866,-656 1260,-656 394,0 0,525 0,525z"/>
  <path class="fil0" d="M13466 9849c0,79 -78,105 -210,105 -131,0 -262,-52 -262,-131 0,-79 79,-79 210,-79 157,0 262,27 262,105z"/>
  <path class="fil2 str2" d="M13545 10558c0,0 -892,315 -945,-367 -26,-420 263,-420 420,-368"/>
  <path class="fil0" d="M13361 10952c0,0 315,-814 368,-866 79,-27 499,-263 499,-263l393 -52 27 420 -53 131c0,0 -52,157 -26,236 26,26 -105,0 -105,0l26 -262 -131 52 -26 158 78 52 -210 53 27 -210 -289 0c0,0 79,105 52,288 0,27 -157,53 -157,53l0 -184c0,0 -79,26 -79,-79 0,-78 -236,210 -236,210l-105 289c0,0 -53,131 -131,79 -53,-79 78,-105 78,-105z"/>
  <path class="fil0" d="M15041 9666c0,236 -236,525 -446,525 -210,0 -420,-315 -420,-552 0,-236 210,-367 446,-367 237,0 420,157 420,394z"/>
  <rect class="fil3" x="394748" y="55288" width="7009" height="8925"/>
  <rect class="fil4" x="394748" y="66838" width="7009" height="8925"/>
  <rect class="fil5" x="394748" y="77679" width="7009" height="8925"/>
  <path class="fil2 str3" d="M13729 5151c0,1128 -1286,2310 -3229,2310 -1942,0 -3229,-1182 -3229,-2310"/>
  <path class="fil2 str4" d="M13729 5334c0,1129 -1286,2310 -3229,2310 -1942,0 -3229,-1181 -3229,-2310"/>
  <path class="fil0" d="M6038 15437l-119 36 266 80 35 343 -285 96c196,83 355,-59 326,272l-256 69 292 70 89 252 -130 166c145,-39 33,-39 168,-114 127,170 25,90 43,287 12,126 -88,60 -78,249 60,-30 152,-220 178,-276 62,162 105,17 299,7 -37,179 49,86 -162,208 104,54 360,-71 451,271 -97,66 -50,30 -112,47l-134 61c-120,-297 152,-19 -55,-260 -64,121 -123,104 -148,233 -191,78 28,215 -88,875 -188,44 -96,10 -195,-105 -9,-9 -16,18 -77,-67l54 116c-101,87 -205,170 -38,271l1 34 -157 28 23 -148c-190,105 6,116 -224,126 50,-222 61,13 268,-374l-167 -158c101,-93 71,-47 151,-17 29,-237 241,-64 292,-302 -132,-9 -42,94 -336,188 -145,46 -248,108 -355,244 -277,11 -31,-110 -271,-33 27,-209 -64,-33 -81,-247 163,-59 394,90 453,-130 -83,-54 32,20 -47,-7 -72,-25 -60,-44 -146,-134 -42,127 64,-3 -35,135 -65,-82 -99,-65 -230,29 -182,130 79,114 -160,203 -2,98 12,102 -99,113 -108,12 -17,-7 -54,-20 -232,-78 -291,56 -379,105 -5,-10 -9,-18 -12,-25l0 4182c103,-18 253,-50 279,-60l-75 -40 126 -217c1,-2 2,-10 3,-12l25 -74c141,-311 10,-213 200,-304 -151,-265 78,-286 99,-413l-138 55c-33,-156 -96,-209 -51,-315 1,-2 147,17 -63,-250 -111,-141 51,13 -160,-10 -59,-133 71,-7 -45,-116 -110,-104 -26,-13 -179,-77 120,-43 222,39 295,49 181,27 150,-37 304,69l7 -59c207,18 481,13 681,4 170,-9 497,-71 623,-60l-9 251c233,-156 -254,-740 107,-709l-62 129 95 53c5,206 20,315 -8,491 -31,189 78,410 -16,591 -91,-161 17,-355 -69,-527l2 414c-4,171 13,370 -7,527 -135,-21 -176,-18 -299,69 58,-2 238,-27 300,-40 248,-51 51,-60 153,-83 191,74 315,-33 492,-30l-21 -108c143,-64 74,-60 161,-120l100 103 -128 32 -37 101c146,-39 1402,-37 1573,-12l70 -91c-91,31 -132,100 -235,22 255,-142 52,-39 157,-258 -99,-144 -151,-2 -86,-125l-113 9c-8,-195 27,-232 173,-303l71 20c8,-262 84,-918 201,-1135 77,-145 175,-255 237,-430 56,-157 144,-329 239,-469l48 87 101 -289c393,-108 838,-360 1100,-674l81 182c31,-186 -16,-169 -30,-323l95 89c98,-119 60,-129 187,-97 2,-284 478,-599 711,-1619 79,-347 -23,-351 250,-544 1,-262 -104,-73 46,-306 -77,2 -139,-12 -148,1 -99,129 24,240 -57,362 -57,-59 -14,92 -56,-108 -76,-358 -199,-257 -15,-338 -136,-18 -98,15 -176,-67 -6,-6 -33,-42 -45,-58 -22,-31 -21,-27 -45,-74l69 -17 -43 -45 97 -31 -257 -41c-87,68 81,35 -114,63 -162,-188 39,65 -155,-64 159,-16 42,-2 93,47 -60,325 -4,385 -186,575l-64 65c24,-209 87,33 70,-261 -9,-146 -64,-130 -14,-270l-105 -101c-96,198 -51,68 -90,56 -122,-39 74,-57 -44,3 -5,2 0,117 -31,24 -2,-6 -11,12 -18,14 -15,-157 34,-230 194,-206 -95,-47 -127,-43 -235,-81 -145,-50 -171,-17 -233,86 -180,-40 105,-44 -133,-63 -71,-5 -130,14 -192,40 -132,57 -159,93 -221,214 183,-9 -30,-36 136,-69l79 79 -115 155c-42,-114 95,-71 -42,-105 -77,72 -44,280 11,371 -112,-33 -329,-591 166,-928 430,-293 671,545 908,15l-62 -69c-165,34 -83,79 -231,36 -83,-24 -156,-40 -194,-117l-35 17c-117,46 -31,35 -106,-1 44,-99 115,-130 99,-198 -41,-22 -20,26 -99,-2l-54 -26c-446,-115 -107,-52 -621,-265 -268,-111 -23,-39 -232,7 -74,-41 -199,-161 -232,-212 -95,88 -7,0 -53,102l-300 -107c-22,500 -380,383 -564,366 -394,-37 -246,-98 -496,-470l185 430c-161,70 -441,56 -710,156 -491,184 -319,70 -602,-23 6,-80 57,-47 7,-91 -97,-86 -113,-6 -114,-6 77,74 274,242 298,311 -72,71 -115,81 -204,122 -167,75 0,-19 -113,120 -90,111 -229,208 -371,234l58 47c-148,94 -103,40 -233,13l101 120c-73,141 -69,192 -223,218 116,67 8,338 -5,355 -22,-251 19,-147 -71,-343l-132 6zm-1241 2780c9,10 19,19 9,-17 -17,-63 46,4 -9,-12l0 29zm0 -148l283 14c-117,-158 -25,-142 -62,-242 -39,27 -124,58 -221,89l0 139z"/>
  <path class="fil1" d="M7323 13074c-34,60 -74,117 -96,206l177 120 -51 61 70 13 4 -124 377 -8c62,-78 39,47 37,-129 56,158 -12,59 79,102l22 -86c86,94 327,113 448,103l-39 -420c55,52 62,61 95,125 87,175 11,86 8,98 -3,10 -79,-112 18,92 46,97 40,47 68,172 112,-41 38,-97 226,41l137 38c-21,-161 -37,-76 -104,-203 196,189 273,380 590,453l-108 50 95 56c-125,-7 -77,-45 -149,38l300 107c46,-102 -42,-14 53,-102 33,51 158,171 232,212 209,-46 -36,-118 232,-7 514,213 175,150 621,265l54 26c79,28 58,-20 99,2 16,68 -55,99 -99,198 75,36 -11,47 106,1 102,-163 114,-144 288,-196l16 -141c248,-39 106,-256 403,-477 -96,-19 -36,50 -156,-6 139,-71 214,-97 239,-244 36,-208 -54,-81 -21,-226 17,-74 -4,-27 41,-85 -46,-69 -50,-61 -54,-158l-101 53c-233,-230 -458,-281 -730,-421 -66,97 -21,145 -47,168l-70 -37 -51 -125c-300,-89 -347,82 -361,-118 -133,17 -331,-61 -530,-14 -229,55 136,22 -367,57l-70 -181c-17,-26 -35,-52 -63,-87l-101 300c-288,-3 -1380,168 -1677,345 -149,89 -42,-2 -90,93z"/>
  <path class="fil1" d="M6170 14975c-56,81 -37,271 -25,394l-107 68 132 -6c90,196 49,92 71,343 13,-17 121,-288 5,-355 154,-26 150,-77 223,-218l-101 -120c130,27 85,81 233,-13l-58 -47c142,-26 281,-123 371,-234 113,-139 -54,-45 113,-120 89,-41 132,-51 204,-122 -24,-69 -221,-237 -298,-311 1,0 17,-80 114,6 50,44 -1,11 -7,91 283,93 111,207 602,23 269,-100 549,-86 710,-156l-185 -430c250,372 102,433 496,470 184,17 542,134 564,-366 -54,-27 -94,-43 -134,-101 -85,-122 -7,-22 -34,-114l-292 -53c52,-222 -70,24 -1,-164 -143,87 -136,59 -297,45l-64 -7c-136,-19 93,-11 -37,-7 -166,5 159,2 -76,30l-53 -140c-37,185 -121,147 -279,120 -19,-63 8,25 11,-98l-4 -37c-454,166 -273,207 -301,243 -110,73 -132,39 -252,105 -324,178 -204,32 -669,360 -58,41 -72,56 -114,85 -248,169 -413,381 -426,738 50,49 60,36 81,55 70,65 58,-48 23,34 -26,62 -103,19 -139,9z"/>
  <path class="fil1" d="M7650 20455l14 656c-1,231 32,203 105,240 112,57 59,104 104,259l261 39 11 -1101c-6,-268 11,-146 22,-295 -32,-35 5,-10 -21,14 -39,36 20,44 -25,24l-35 -421 -32 -112c-80,166 -114,208 -205,345 -103,154 -173,99 -199,352z"/>
  <path class="fil6" d="M11635 13199c-45,58 -24,11 -41,85 -33,145 57,18 21,226 -25,147 -100,173 -239,244 120,56 60,-13 156,6 -297,221 -155,438 -403,477l-16 141c-174,52 -186,33 -288,196l35 -17c81,-126 142,-98 255,-156l113 -81c49,-29 97,-37 147,-51l-61 60c120,46 85,29 138,134 2,-4 7,-63 8,-65 30,-58 -9,-29 58,-55 106,174 -9,243 -168,267l-3 97c133,-50 199,65 193,188 -124,-75 -185,-89 -299,0 -60,90 -4,-40 36,125 0,0 18,65 23,72l206 2c-51,-49 66,-63 -93,-47 194,129 -7,-124 155,64 195,-28 27,5 114,-63 -128,1 -46,45 -108,-36 53,-96 26,-105 19,-195 121,29 62,18 98,158 86,-83 4,-49 110,-56 191,195 290,114 338,287 -74,-21 -160,-33 -254,-41 67,49 177,77 239,125 100,78 102,91 233,152l-9 -103c-106,-41 -169,108 -188,-404 125,-99 177,-108 239,-268 -247,-108 -187,63 -274,-272 -38,-149 -88,-262 -112,-422 -115,-37 -1,110 -86,-26 82,-84 28,-118 75,-270 -117,-80 -19,24 -164,10 -115,-200 98,-319 68,-636 -154,234 -115,402 -175,474 8,-98 -69,-148 -96,-326z"/>
  <path class="fil7" d="M9092 20992c-12,168 -19,107 31,244 -104,59 -33,25 -162,30 -65,123 -13,-19 86,125 -105,219 98,116 -157,258 103,78 144,9 235,-22l-70 91 164 7 273 -95c-37,-115 -2,-21 10,-123 10,-87 5,-71 -15,-166l52 -40c-65,-417 55,-768 51,-1184 -3,-308 138,-775 227,-1072l-48 -87c-95,140 -183,312 -239,469 -62,175 -160,285 -237,430 -117,217 -193,873 -201,1135z"/>
  <path class="fil7" d="M8039 18321l178 -209 119 10c-86,-136 -66,7 -45,-240 -207,143 -250,-2 -306,117 -64,137 71,-13 -7,80l-109 -97c126,-87 65,6 179,-101 -9,-43 -85,-55 -76,-98 16,-86 56,6 176,-68 31,-132 -54,-283 -77,-415l-271 62c103,-99 192,-75 272,-195 -225,-209 -163,235 -498,-112 77,-71 77,-29 100,-111 10,-36 -95,-64 122,-69 81,-1 127,25 286,-148 -79,-94 -102,-115 -244,-121 -68,87 -43,98 -110,155 0,0 -438,227 -70,461 -52,32 -53,37 -97,68 -123,87 -200,167 -144,385 174,53 250,-144 338,71 -150,26 -97,-34 -279,-7l118 52c-62,84 -96,115 17,193 41,-76 32,-57 -1,-103 73,99 53,102 155,43l-19 137c-5,1 -14,-9 -15,-4 -29,95 -27,-5 -31,-5 -67,0 60,-86 -66,12 51,104 284,241 405,257z"/>
  <path class="fil1" d="M5076 22356c96,-19 16,22 84,-20 54,-33 17,-5 72,-67 100,-101 -31,-34 99,-135 100,44 -83,23 80,72 237,77 213,-73 245,-227 86,-419 157,-652 -90,-1114 -67,-126 -47,-131 -149,-164 -154,-106 -123,-42 -304,-69 -73,-10 -175,-92 -295,-49 153,64 69,-27 179,77 116,109 -14,-17 45,116 211,23 49,-131 160,10 210,267 64,248 63,250 -45,106 18,159 51,315l138 -55c-21,127 -250,148 -99,413 -190,91 -59,-7 -200,304l-25 74c-1,2 -2,10 -3,12l-126 217 75 40z"/>
  <path class="fil8" d="M7423 13474l-70 -13 51 -61 -177 -120c28,197 158,163 -19,288l119 14c-104,168 -325,128 -479,276 -105,101 -304,259 -436,308 10,-128 26,-71 40,-104 67,-161 -34,-34 67,-293 -128,-26 -249,-138 -343,-92l161 59c2,14 9,50 10,52 12,37 15,35 23,59 65,185 34,57 -89,475 -34,114 -151,540 -111,653 36,10 113,53 139,-9 35,-82 47,31 -23,-34 -21,-19 -31,-6 -81,-55 13,-357 178,-569 426,-738 42,-29 56,-44 114,-85 465,-328 345,-182 669,-360 120,-66 142,-32 252,-105 28,-36 -153,-77 301,-243l4 37c-3,123 -30,35 -11,98 158,27 242,65 279,-120l53 140c235,-28 -90,-25 76,-30 130,-4 -99,-12 37,7l64 7c161,14 154,42 297,-45 -188,-138 -114,-82 -226,-41 -28,-125 -22,-75 -68,-172 -97,-204 -21,-82 -18,-92 3,-12 79,77 -8,-98 -33,-64 -40,-73 -95,-125l39 420c-121,10 -362,-9 -448,-103l-22 86c-91,-43 -23,56 -79,-102 2,176 25,51 -37,129l-377 8 -4 124z"/>
  <path class="fil7" d="M10419 15199l-79 -79c-166,33 47,60 -136,69 62,-121 89,-157 221,-214 62,-26 121,-45 192,-40 238,19 -47,23 133,63 62,-103 88,-136 233,-86 108,38 140,34 235,81 -160,-24 -209,49 -194,206 7,-2 16,-20 18,-14 31,93 26,-22 31,-24 118,-60 -78,-42 44,-3 39,12 -6,142 90,-56l105 101c-50,140 5,124 14,270 17,295 -46,52 -70,261l64 -65c182,-190 126,-250 186,-575l-206 -2c-5,-7 -23,-72 -23,-72 -40,-165 -96,-35 -36,-125 114,-89 175,-75 299,0 6,-123 -60,-238 -193,-188 -237,530 -478,-308 -908,-15 -495,337 -278,895 -166,928 -55,-91 -88,-299 -11,-371 137,34 0,-9 42,105l115 -155z"/>
  <path class="fil1" d="M7672 21417c15,-101 4,-31 -13,-134 -24,-143 -56,-74 19,-172l-28 -656c-34,-228 80,-475 127,-702 26,-7 -22,52 59,37 99,-219 28,-273 49,-477 18,-171 11,-435 -200,-326 61,143 227,105 13,501 -180,335 55,143 -228,472 129,205 49,125 22,278 -30,165 12,10 26,150 9,85 -64,299 -2,668 36,215 66,128 60,376l96 -15z"/>
  <path class="fil1" d="M6873 13392l-144 12 90 260c-110,-86 -177,3 -256,60 -80,-18 -67,-34 -44,45 -101,259 0,132 -67,293 -14,33 -30,-24 -40,104 132,-49 331,-207 436,-308 154,-148 375,-108 479,-276l-119 -14c177,-125 47,-91 19,-288l-61 -57c-121,69 -139,138 -293,169z"/>
  <path class="fil7" d="M11112 16494c5,-237 -14,-38 -51,-176 -23,-88 1,-126 -23,-238 -132,42 8,160 -132,34 45,-167 109,28 99,-171 -64,30 -62,43 -120,91 -100,83 -93,75 -149,72 -2,0 -161,-111 -268,167 -36,-308 -4,-78 106,-250 -83,-18 -58,52 -162,-44 -8,-8 1,-22 -52,-65 -11,111 20,433 96,496l49 19c3,2 72,39 74,40 -29,163 -54,43 -53,189 139,91 171,88 333,60 -115,-75 -123,-4 -266,-99 0,0 0,-60 115,-8l40 23c-9,-230 -83,24 -32,-172 63,-1 41,173 265,-5 60,148 -56,0 29,146l102 -109z"/>
  <path class="fil1" d="M7395 15668c95,-60 -8,-10 141,-160 112,-113 62,-64 120,-212l468 -256 7 -237c125,-56 41,54 98,-55l-100 -70c-206,290 107,0 -379,248 -98,50 16,54 -137,-12l57 123 -219 -84c-11,164 97,111 240,219 -78,92 -61,33 -129,24 -61,99 -62,137 -186,165 78,-42 95,-73 118,-186 -109,32 -228,196 -290,265 -162,-72 86,9 -105,-73l-90 70c74,60 246,82 362,97 34,88 -37,12 24,134z"/>
  <path class="fil1" d="M6363 18658l-30 97 200 41c-63,107 -62,5 -63,192 -1,149 62,73 -32,165l134 63c-103,98 -132,107 -72,270l-111 100c7,2 18,-5 20,2 28,77 14,0 41,6 89,18 116,-14 62,111 77,14 100,3 129,7 55,8 7,-1 82,32l54 -185c-131,-35 116,-9 -49,2 -99,7 13,30 -67,-1 -17,-193 -18,-146 66,-309 -55,-11 -16,-4 -57,-1 -114,9 58,20 -32,6 -55,-455 59,-584 -34,-800 -203,2 -127,-20 -153,184l-88 18z"/>
  <path class="fil7" d="M10860 14557c38,77 111,93 194,117 148,43 66,-2 231,-36l62 69 3 -97c159,-24 274,-93 168,-267 -67,26 -28,-3 -58,55 -1,2 -6,61 -8,65 -53,-105 -18,-88 -138,-134l61 -60c-50,14 -98,22 -147,51l-113 81c-113,58 -174,30 -255,156z"/>
  <path class="fil9" d="M10240 13728c-219,-293 -944,-807 -1383,-812l164 101c236,136 704,377 870,524 91,81 225,203 349,187z"/>
  <path class="fil1" d="M9325 15137l-451 -52c-66,82 21,-13 -45,129l-235 -51 -165 135 74 132c146,-87 80,-55 123,-125 527,217 342,-79 672,-92l27 -76z"/>
  <path class="fil1" d="M8229 14748l65 63c-129,75 -42,12 -58,100 125,-12 149,-51 270,-51 240,1 -53,-41 362,-85l22 -67c-129,-25 -75,-18 -167,-108l-145 59c-85,-70 -72,-62 -165,-84 -178,-40 -39,-24 -214,40 52,116 59,18 30,133z"/>
  <path class="fil7" d="M8177 18419c23,148 412,311 619,343l-258 -221 47 -119c-105,-135 -51,-4 -131,-130l-118 -170 -6 67c-123,28 -107,-2 -159,116l195 -50 -189 164z"/>
  <path class="fil1" d="M8004 15937c215,2 73,63 249,-11 122,-50 99,-24 196,-3l88 -108c-132,6 -111,27 -222,-50l302 7 18 -124c-130,60 -198,28 -342,33 -187,6 -164,125 -371,3 -3,8 -3,13 -3,25 0,10 -1,19 -1,22 13,188 61,-49 -32,113l118 93z"/>
  <path class="fil1" d="M6719 20837c-20,98 -33,371 49,442l-2 -414c86,172 -22,366 69,527 94,-181 -15,-402 16,-591 28,-176 13,-285 8,-491l-95 -53 62 -129c-361,-31 126,553 -107,709z"/>
  <path class="fil7" d="M9229 18362c-34,106 -105,138 -186,212l171 118c79,-98 94,-94 213,-93 -65,97 -73,46 -35,115 169,-129 29,-57 123,-228 67,-124 145,-118 91,-277l-236 -10 91 124c-293,325 -50,50 -184,277 -87,-174 45,-103 -48,-238z"/>
  <path class="fil10" d="M10221 12561c14,200 61,29 361,118l51 125 70 37c26,-23 -19,-71 47,-168 272,140 497,191 730,421l101 -53 -3 -123 -86 111c-145,-101 -271,-196 -427,-262 -195,-82 -285,-94 -422,-251l-83 96c-71,-14 -140,-11 -196,-37 -115,-53 -6,-82 -172,-83l29 69z"/>
  <path class="fil7" d="M9229 18362l74 -131c-26,-92 -23,36 -30,-98l187 17c58,-101 23,-76 135,-47 -1,-163 -36,-140 -38,-153 0,-2 31,-95 38,-131 -275,-11 -200,116 -395,183 22,165 -26,151 -13,257 11,87 3,49 42,103z"/>
  <path class="fil7 str5" d="M12358 15464l-1 -22c-131,-61 -133,-74 -233,-152 -62,-48 -172,-76 -239,-125l-69 17c24,47 23,43 45,74 12,16 39,52 45,58 78,82 40,49 176,67 -184,81 -61,-20 15,338 42,200 -1,49 56,108 81,-122 -42,-233 56,-362 10,-13 72,1 149,-1z"/>
  <path class="fil9" d="M8766 13440c-69,188 53,-58 1,164l292 53c27,92 -51,-8 34,114 40,58 80,74 134,101 72,-83 24,-45 149,-38l-95 -56 108 -50c-317,-73 -394,-264 -590,-453 67,127 83,42 104,203l-137 -38z"/>
  <path class="fil7" d="M11973 14576c-136,85 -111,91 -248,48 118,-53 60,28 120,-80 -94,4 -174,47 -255,106 175,140 552,138 696,89 -92,-53 -45,-37 -173,-25l-40 -153 -100 15z"/>
  <path class="fil11" d="M10597 15123l202 57 -174 45c32,168 108,364 157,407 83,-180 112,-414 19,-545l-204 36z"/>
  <path class="fil7" d="M11817 14135c-8,145 41,204 1,306 156,92 75,-35 155,135l79 -56c-8,-143 -61,-335 -123,-461l-112 76z"/>
  <path class="fil7" d="M9555 16889c-62,150 47,45 -51,122 -120,-20 -5,-62 -211,-7l-79 182c113,-14 24,19 96,-39 20,-16 8,-44 83,-60 8,-2 101,-2 116,0 63,6 41,-8 80,42 52,-110 -21,15 30,-103 90,92 10,37 96,58l88 -230c-207,76 -31,69 -248,35z"/>
  <path class="fil7" d="M11682 15048l257 41 -97 31 43 45c94,8 180,20 254,41 -48,-173 -147,-92 -338,-287 -106,7 -24,-27 -110,56 -36,-140 23,-129 -98,-158 7,90 34,99 -19,195 62,81 -20,37 108,36z"/>
  <path class="fil7" d="M10057 14510c133,109 205,129 325,-3 -21,-218 -349,-315 -325,3z"/>
  <path class="fil10" d="M5600 17293c90,-24 290,-112 355,-179 93,-95 -35,-40 140,-125 130,-62 115,-34 133,-138 -243,191 -325,102 -581,61 44,96 143,72 249,160 -69,103 -197,142 -296,221z"/>
  <path class="fil1" d="M9290 17561c171,-1 422,-155 339,-345 -85,14 -323,258 -339,345z"/>
  <path class="fil7" d="M11548 14105c55,147 6,17 149,132l-81 262c185,-50 125,-233 201,-364l-5 -65c-130,50 -58,-42 -264,35z"/>
  <path class="fil1" d="M6739 20096c18,-37 12,-46 16,-63l24 -70c20,-49 33,-95 40,-158 -207,-33 -57,15 -127,23 -47,5 16,6 -47,-12 -30,-8 10,-13 -73,-22 -15,162 35,261 167,302z"/>
  <path class="fil7" d="M9434 14193c74,31 79,-30 119,79 -81,118 -60,56 -220,79 108,76 87,29 226,155 87,-148 -118,36 146,-326 -123,-63 -64,3 -179,-93l-92 106z"/>
  <path class="fil12" d="M8892 18151c138,19 65,0 135,47 -12,55 -33,149 -7,202 118,-136 15,-120 156,-235l-214 -179c-198,233 126,-4 -70,165z"/>
  <path class="fil1" d="M11112 16494l0 111c98,112 200,358 365,298 -126,-164 -225,-54 -197,-302 -102,-40 -21,15 -77,-25 -74,-53 28,-8 -91,-82z"/>
  <path class="fil1" d="M8907 17734l-110 133c214,2 54,39 226,91l-97 -145 78 -131c-129,-155 84,-226 -138,-211l41 263z"/>
  <path class="fil1" d="M8064 16370c3,8 7,21 8,24 7,15 11,26 23,50 146,-175 60,62 136,-113 -108,-59 -360,-59 -495,-23 48,180 -61,8 328,62z"/>
  <path class="fil1" d="M11316 17827c72,-167 27,-108 -39,-226 -79,-141 18,-92 -147,-191 -76,129 -10,95 52,185 70,103 23,145 134,232z"/>
  <path class="fil1" d="M11119 17202c91,56 48,10 110,47 58,35 41,57 116,78 -22,-103 -114,-329 -197,-394 -63,114 -20,35 -1,131 26,123 13,-21 -28,138z"/>
  <path class="fil8" d="M6563 13724c79,-57 146,-146 256,-60l-90 -260c-158,-44 1,8 -84,-71 -60,-56 -11,-36 -94,-37l133 278 -121 150z"/>
  <path class="fil7" d="M9918 18756c-30,-105 1,8 -157,-165 -137,249 -28,36 -197,189l80 89c113,-50 51,1 124,-139 92,69 17,38 150,26z"/>
  <path class="fil1" d="M8174 15634c-201,-10 -133,-143 -212,4 138,90 394,53 563,24 -78,-38 -184,-67 -293,-64l-58 36z"/>
  <path class="fil7" d="M10157 14771c-85,-59 -298,-128 -428,-134 30,94 74,112 187,143 181,50 188,24 241,-9z"/>
  <path class="fil13" d="M6873 13392c154,-31 172,-100 293,-169l61 57c22,-89 62,-146 96,-206 -68,29 -109,29 -145,51 -47,29 -18,37 -104,93 -180,118 -66,19 -201,174z"/>
  <path class="fil1" d="M7755 14758c-133,63 -115,9 -115,139 115,-6 240,-80 269,-192 -207,-105 24,86 -201,-22 17,53 5,36 47,75z"/>
  <path class="fil1" d="M8027 16255c135,19 143,23 267,-30 -56,-58 -21,-38 -128,-31l46 -176c-129,41 -138,123 -185,237z"/>
  <path class="fil1" d="M10135 15754c18,84 2,35 73,99l-162 37c182,114 180,-4 293,-87 -60,-37 -94,-69 -145,-94l-59 45z"/>
  <path class="fil1" d="M9685 16557c150,-11 319,-23 335,-183 -98,27 -293,85 -335,183z"/>
  <path class="fil1" d="M7407 21722l75 8 37 -101 128 -32 -100 -103c-87,60 -18,56 -161,120l21 108z"/>
  <path class="fil1" d="M9824 16068c30,181 232,121 323,25 -108,-52 -36,8 -158,-1 -158,-11 -30,-89 -165,-24z"/>
  <path class="fil7" d="M8890 14708l129 34c-28,-121 -166,-214 -280,-260 24,91 91,137 151,226z"/>
  <path class="fil1" d="M11150 16372c5,2 13,-2 14,3 22,80 -26,-47 80,31 30,22 45,49 94,84 -2,-86 -108,-239 -156,-320 -56,94 -24,73 -32,202z"/>
  <path class="fil14" d="M10810 13078l90 -184c21,128 5,203 49,306 50,-124 22,-322 -62,-418l-77 296z"/>
  <path class="fil14" d="M10075 13194l65 -227 73 270 -59 -459c-63,81 -109,338 -79,416z"/>
  <path class="fil7" d="M9271 14494c83,72 107,93 211,104 -31,-89 -27,-135 -103,-185 -60,23 -40,35 -108,81z"/>
  <path class="fil7" d="M5572 18990c180,-56 -52,-12 211,-135l-58 -133 -55 97c-104,163 -92,-27 -98,171z"/>
  <path class="fil1" d="M8755 15473c-65,95 -67,48 -28,128 79,-29 80,-29 116,-148 -96,-70 -75,-64 -190,-76l102 96z"/>
  <path class="fil1" d="M8004 15937c-227,92 -76,31 -269,31 60,57 80,90 127,134 99,-79 107,-53 142,-165z"/>
  <path class="fil7" d="M5397 18385c67,49 98,90 135,96l94 -201 -229 105z"/>
  <path class="fil1" d="M7812 21563c99,2 193,-46 203,-49l-143 -123c-73,80 -14,-14 -17,58 0,1 4,8 3,10 -6,49 -29,-15 -46,104z"/>
  <path class="fil1" d="M7241 21531c43,17 123,43 197,50 -10,-174 -100,-179 -197,-50z"/>
  <path class="fil7" d="M6749 15527c113,-39 42,-49 113,-93 111,-70 57,12 169,-54 -118,-80 -272,5 -282,147z"/>
  <path class="fil7" d="M7071 15138c92,59 177,-5 224,-92 -116,-77 -52,-36 -111,9 -36,28 -72,54 -113,83z"/>
  <path class="fil7" d="M9325 15137l161 37c-38,-91 -128,-122 -221,-132l60 95z"/>
  <path class="fil10" d="M8674 13083c55,-109 79,-175 -71,-235l71 235z"/>
  <path class="fil1" d="M7834 16269c103,-10 99,-8 176,-70 -98,-94 -148,-35 -176,70z"/>
  <path class="fil15" d="M6843 13742c94,-23 27,24 116,-79 44,-49 38,-30 56,-102 -103,33 -133,80 -172,181z"/>
  <path class="fil16" d="M5232 22269c88,0 -3,21 91,-12 125,-46 31,-10 88,-51 -163,-49 20,-28 -80,-72 -130,101 1,34 -99,135z"/>
  <path class="fil1" d="M7898 21613c79,99 46,76 158,67 -38,-114 -63,-130 -158,-67z"/>
  <polygon class="fil7" points="11548,14105 11580,13957 11390,14124 "/>
  <path class="fil1" d="M11513 17223c54,-96 3,-137 -84,-211 -5,97 28,141 84,211z"/>
  <path class="fil17" d="M7395 15668c-108,16 -116,97 -120,192 77,-42 95,-106 120,-192z"/>
  <path class="fil18" d="M10951 15279c54,-101 46,-62 3,-155 -107,74 -111,56 -3,155z"/>
  <path class="fil15" d="M5423 21662c124,-85 83,-40 94,-155 -118,62 -105,14 -94,155z"/>
  <path class="fil19" d="M10419 15199c155,-76 87,10 124,-92 -98,-76 -108,-13 -124,92z"/>
  <path class="fil20" d="M5321 22036c65,-21 76,-19 100,-102l-115 -23 15 125z"/>
  <path class="fil21" d="M10882 14275c43,76 14,103 123,12 -131,-133 -95,-33 -123,-12z"/>
  <path class="fil7" d="M9272 14098l122 -79c-118,-70 -143,-56 -122,79z"/>
  <path class="fil1" d="M9267 17719c84,-10 87,15 107,-106 -97,4 -97,6 -107,106z"/>
  <path class="fil1" d="M9544 17660c90,-100 93,-113 8,-178l-8 178z"/>
  <path class="fil7" d="M9657 14673c-55,-90 -38,-76 -127,-98 28,110 14,87 127,98z"/>
  <path class="fil7" d="M5510 19089c40,-84 60,-69 -31,-122 -53,87 -17,76 31,122z"/>
  <path class="fil22" d="M4946 18226c74,52 38,54 130,-3 -63,-35 -10,-67 -130,3z"/>
  <path class="fil1" d="M11409 17487c-3,-27 90,-60 -78,-74 18,81 -4,55 78,74z"/>
  <path class="fil23" d="M10672 13368c-19,-69 20,-28 -75,-95 11,120 -23,88 75,95z"/>
  <polygon class="fil24" points="8236,14911 8153,14925 8224,15009 "/>
  <path class="fil25" d="M9790 13976c4,58 80,96 53,11 -27,-84 -54,-16 -53,-11z"/>
  <path class="fil7" d="M5570 19256c-7,71 62,65 52,5 -14,-89 -51,-9 -52,-5z"/>
  <path class="fil1 str6" d="M11385 16500c-2,57 64,92 47,11 -17,-90 -47,-16 -47,-11z"/>
  <path class="fil1" d="M11676 16334c-10,54 58,46 53,-4 -10,-81 -48,-20 -53,4z"/>
  <path class="fil26" d="M7672 21417c-34,101 -40,36 13,77 35,-64 76,-23 -13,-77z"/>
  <path class="fil2 str7" d="M10553 24576c1811,-27 4383,-473 5880,-1050 -184,-1733 -709,-11944 -709,-11944 0,0 551,1339 840,2074 1234,-105 3229,-342 4016,-1628 -761,-1785 -1339,-3832 -1942,-5171 0,0 -2730,-998 -4883,-1680 0,0 -236,-79 -341,105 -788,1102 -1181,1864 -2940,1864l0 0c-1680,-27 -2100,-762 -2861,-1864 -132,-184 -368,-105 -368,-105 -2126,656 -4882,1680 -4882,1680 -604,1339 -1182,3412 -1943,5171 788,1260 2730,1523 4016,1628 289,-735 840,-2074 840,-2074 0,0 -551,10211 -708,11944 1522,577 4068,1050 5880,1050l0 0"/>
 </g>
</svg>
