<?xml version="1.0" encoding="utf-8"?>
<!-- Generator: Adobe Illustrator 22.0.0, SVG Export Plug-In . SVG Version: 6.00 Build 0)  -->
<svg version="1.1" id="Layer_1" xmlns="http://www.w3.org/2000/svg" xmlns:xlink="http://www.w3.org/1999/xlink" x="0px" y="0px"
	 viewBox="0 0 80 77.1" style="enable-background:new 0 0 80 77.1;" xml:space="preserve">
<style type="text/css">
	.st0{fill:#DE5B14;}
	.st1{fill:#201E1E;}
	.st2{fill:#F58634;}
	.st3{fill:none;stroke:#F58634;stroke-width:3;stroke-miterlimit:10;}
	.st4{fill:none;stroke:#000000;stroke-width:2;stroke-linecap:round;stroke-linejoin:round;}
</style>
<path class="st0" d="M40.2,75.8c6.9-0.1,16.7-1.8,22.5-4c-0.8-6.6-2.8-45.6-2.8-45.6s2.1,5.1,3.2,7.9c4.7-0.4,12.3-1.3,15.3-6.2
	c-2.9-6.8-5.1-14.6-7.4-19.7c0,0-10.4-3.8-18.6-6.4c0,0-0.9-0.3-1.3,0.4c-3,4.2-4.5,7.1-11.2,7.1l0,0c-6.4-0.1-8-2.9-10.9-7.1
	c-0.5-0.7-1.4-0.4-1.4-0.4C19.5,4.3,9,8.2,9,8.2c-2.3,5.1-4.5,13-7.4,19.7c3,4.8,10.4,5.8,15.3,6.2c1.1-2.8,3.2-7.9,3.2-7.9
	S18,65.1,17.4,71.7C23.3,74,33.3,75.8,40.2,75.8L40.2,75.8z"/>
<path class="st1" d="M19.9,35.2l40.2,0.4l-0.2-9.4l5.3-19.9L51.6,1.7c0,0-1.6,2.7-4.4,5.3c-2.6,2.3-6.8,2.2-6.8,2.2S35.1,10,31.7,6
	c-0.2-0.3-0.8-0.9-1.1-1.3c-1.9-2.5-2.3-3.1-2.3-3.1l-11.7,4L20,26.1L19.9,35.2L19.9,35.2z"/>
<g>
	<path class="st1" d="M62.7,32c0,0,4.3-0.8,8.3-2.6c4.2-1.8,6.2-3.8,6.2-3.8l0.4,1.2c0,0-2.2,2-6.3,3.8c-4.1,1.8-8.2,2.5-8.2,2.5
		L62.7,32L62.7,32z"/>
	<path class="st1" d="M61.6,29.6c0,0,4.3-0.8,8.4-2.6c4.2-1.8,6.2-3.8,6.2-3.8l0.5,1.2c0,0-2.2,2-6.3,3.8c-4.2,1.8-8.3,2.5-8.3,2.5
		L61.6,29.6L61.6,29.6z"/>
	<path class="st1" d="M60.6,27.1c0,0,4.3-0.8,8.4-2.6c4.2-1.8,6.3-3.8,6.3-3.8l0.4,1.2c0,0-2.3,2-6.4,3.9c-4.2,1.9-8.3,2.5-8.3,2.5
		L60.6,27.1z"/>
	<path class="st1" d="M59.9,24.6c0,0,4.4-0.8,8.5-2.6s6.1-3.7,6.1-3.7l0.5,1.2c0,0-2.1,1.9-6.2,3.7c-4.2,1.8-8.9,2.7-8.9,2.6V24.6
		L59.9,24.6z"/>
	<path class="st1" d="M59.2,21.9c0,0,4.4-0.8,8.5-2.6c4.2-1.8,5.9-3.5,5.9-3.5L74,17c0,0-1.9,1.7-6,3.6c-4.2,1.8-8.4,2.5-8.4,2.5
		L59.2,21.9z"/>
	<path class="st1" d="M58.6,19.2c0,0,4.4-0.8,8.5-2.6c4.1-1.9,5.6-3.3,5.6-3.3l0.5,1.2c0,0-1.5,1.3-5.7,3.3
		c-4.2,1.8-8.4,2.5-8.4,2.5L58.6,19.2L58.6,19.2z"/>
	<path class="st1" d="M58.6,16.1c0,0,4.4-0.8,8.5-2.6c3.5-1.5,4.7-2.6,4.7-2.6l0.5,1.2c0,0-1.2,1-4.9,2.6c-4.2,1.8-8.4,2.5-8.4,2.5
		L58.6,16.1L58.6,16.1z"/>
	<path class="st1" d="M58.4,13.4c0,0,4.4-0.8,8.5-2.6c2.9-1.2,4-2.1,4-2.1l0.5,1.1c0,0-1.1,0.8-4.1,2.3c-4.2,1.8-8.4,2.5-8.4,2.5
		L58.4,13.4L58.4,13.4z"/>
	<path class="st1" d="M57.9,10.5c0,0,4.4-0.8,8.5-2.6l1.2-0.5L69.2,8c0,0-0.9,0.5-2.5,1.2c-4.2,1.8-8.4,2.5-8.4,2.5L57.9,10.5z"/>
</g>
<g>
	<path class="st1" d="M17.4,32.1c0,0-4.3-0.8-8.3-2.6c-4.2-1.8-6.2-3.8-6.2-3.8l-0.4,1.2c0,0,2.2,2,6.3,3.8c4.1,1.8,8.2,2.5,8.2,2.5
		L17.4,32.1L17.4,32.1z"/>
	<path class="st1" d="M18.4,29.6c0,0-4.3-0.8-8.4-2.6c-4.2-1.8-6.2-3.8-6.2-3.8l-0.5,1.2c0,0,2.2,2,6.3,3.8c4.2,1.8,8.3,2.5,8.3,2.5
		L18.4,29.6z"/>
	<path class="st1" d="M19.4,27.1c0,0-4.3-0.8-8.4-2.6c-4.2-1.8-6.3-3.8-6.3-3.8l-0.4,1.2c0,0,2.3,2,6.4,3.9c4.2,1.8,8.3,2.5,8.3,2.5
		L19.4,27.1L19.4,27.1z"/>
	<path class="st1" d="M20.2,24.6c0,0-4.4-0.8-8.5-2.6c-4.2-1.8-6.1-3.7-6.1-3.7l-0.5,1.2c0,0,2.1,1.9,6.2,3.7
		c4.2,1.8,8.9,2.7,8.9,2.6V24.6z"/>
	<path class="st1" d="M20.9,21.9c0,0-4.4-0.8-8.5-2.6s-5.9-3.5-5.9-3.5L6.1,17c0,0,1.9,1.7,6,3.6c4.2,1.8,8.4,2.5,8.4,2.5L20.9,21.9
		z"/>
	<path class="st1" d="M21.5,19.2c0,0-4.4-0.8-8.5-2.6c-4.1-1.9-5.6-3.3-5.6-3.3l-0.5,1.2c0,0,1.5,1.3,5.7,3.3
		c4.2,1.8,8.4,2.5,8.4,2.5L21.5,19.2L21.5,19.2z"/>
	<path class="st1" d="M21.4,16.1c0,0-4.4-0.8-8.5-2.6c-3.5-1.5-4.7-2.6-4.7-2.6l-0.5,1.2c0,0,1.2,1,4.9,2.6c4.2,1.8,8.4,2.5,8.4,2.5
		L21.4,16.1z"/>
	<path class="st1" d="M21.6,13.4c0,0-4.4-0.8-8.5-2.6c-2.9-1.2-4-2.1-4-2.1L8.6,9.8c0,0,1.1,0.8,4.1,2.3c4.2,1.8,8.4,2.5,8.4,2.5
		L21.6,13.4L21.6,13.4z"/>
	<path class="st1" d="M22.2,10.5c0,0-4.4-0.8-8.5-2.6l-1.2-0.5L10.9,8c0,0,0.9,0.5,2.5,1.2c4.2,1.8,8.4,2.5,8.4,2.5L22.2,10.5
		L22.2,10.5z"/>
</g>
<polygon class="st1" points="19.9,35.1 19.8,38.3 48.6,37.6 "/>
<polygon class="st1" points="60.3,38.1 38.5,38.8 60.3,38.9 "/>
<polygon class="st1" points="20,33.9 19.9,37.1 48.7,36.5 "/>
<polygon class="st1" points="60.4,36.3 38.6,36.9 60.4,37.1 "/>
<polygon class="st1" points="60.4,39.4 60.5,42.7 31.7,42.1 "/>
<polygon class="st1" points="19.6,42.5 41.4,43.2 19.6,43.4 "/>
<polygon class="st0" points="60.2,34 29,34.4 60.2,34.5 "/>
<polygon class="st1" points="60.8,47.2 60.9,48.7 32.1,48.4 "/>
<polygon class="st1" points="60.7,44.8 38.9,45.5 60.7,45.7 "/>
<polygon class="st1" points="19.2,49.8 40.9,50.2 19.1,50.3 "/>
<polygon class="st1" points="19,52.5 58.8,52.9 19,53 "/>
<polygon class="st1" points="19.8,39.7 59.6,40 19.7,40.1 "/>
<polygon class="st0" points="20.1,36.5 41.9,36.8 20.1,36.9 "/>
<polygon class="st1" points="61.2,54.7 39.4,55.4 61.2,55.5 "/>
<polygon class="st1" points="18.8,56 40.6,56.7 18.8,56.8 "/>
<polygon class="st1" points="18.5,60.4 58.3,60.8 18.5,60.9 "/>
<polygon class="st1" points="61.6,61.9 21.8,62.3 61.7,62.4 "/>
<polygon class="st1" points="18.2,65.3 40,65.7 18.2,65.8 "/>
<polygon class="st1" points="61.9,66.9 40.2,67.2 62,67.3 "/>
<polygon class="st0" points="60,32.2 38.2,32.7 60,32.8 "/>
<polygon class="st0" points="20,31.6 41.8,31.9 20,32 "/>
<g>
	<path class="st1" d="M28.9,45.3c0,0-2.9-0.8-2.6-1.3s1.4,0.5,2.4,0.2c1.1-0.3,1.8-1.4,1.8-1.9s0.4-0.1,1.5-1.3s1-0.2,1.3-2.3
		s-0.1-2.9,0.2-4.4s1.6-2.8,2.4-1.6c0.8,1.1,2.8,3.7,2.6,5.1c-0.3,1.4,0,2.2-1.5,1.8s-2.5-0.4-3.1,0.6c-0.6,1.1-1.3,2.5-1.3,2.5
		s1.4-1.8,2.6-1.8c1.1,0.1,1.3-0.4,1.7,0.9c0.4,1.3,1.8,1.6,2.5,1.1s0.9-0.2,1.7,0.4c0.8,0.6,1.4-0.4,2.1-0.6
		c0.6-0.3,1.8-0.5,1.5,0.8s-0.8,1.6-0.8,1.6s1.3,0,1.5-0.9s0.1-2-0.7-2.4s-1.5-0.9-2.1-0.7s0.7-1.8,1.4-0.6c0.7,1.3,1.1,1.7,1.1,1.7
		s0.8-0.6,0.3-1.4c-0.6-0.8-0.8-1.8-1.6-1.7s-1.9,1-1.9,1s-0.4-1.1,0.3-1.6c0.6-0.5,1.2-1.4,1.7-0.4s0.7,1.2,0.7,1.2
		s0.6-1.5-0.2-2.4s-1.9-1.3-2.4-0.6s-0.9,2.4-0.9,2.4s-0.4-0.1-0.4-1.4c0.1-1.4-0.7-1.6,0.3-2.6s-1.1-0.3-1.2,1.3s0.1,2.6,0.1,2.6
		s-1.4-4.4-1.7-5.5c-0.3-1.3-1.6-2.3-2.7-1.9s-2.8,1.6-2.9,4.6c-0.1,2.9,0.3,4.3-0.9,4.8c-1.2,0.5-2.3,0.2-2.5,1.1
		c-0.2,0.9,0.3,1.4-0.8,1.3c-1.1-0.2-1.6-0.9-1.6-0.9s0.3,0.9,1-1.9s0.3-0.1-0.7,0.5s-0.7,0.1-1.8-0.2c-1.1-0.3-2.5-0.7-1.4-1.9
		s2.8-0.3,2.8-2.7s-1.3-2.8,0.6-3.7c1.8-0.9,2.7-1,2.9-0.4c0.2,0.6-1.1-1.5-2-0.6c-0.9,0.9-2.4-0.2-2.4,1.6c-0.1,1.8,0.8,1.9,0.1,3
		c-0.7,1.1-1.2,1.9-2.2,1.8s-1.7-0.8-2.2,0.7s-0.6,2.7-1.3,2.8c-0.6,0.1-0.8,1.4-0.8,1.4l1.3,0.4c0,0-0.2,0.5-0.6,2.6
		s0.1,7.2,0.8,9.3c0.6,2.1-1.2,7.6-1.1,9.8c0.1,2.2-0.9,5-0.2,5.4c0.8,0.5,1.9,0.3,1.9,0.3s0.1,0.6-0.3,1.3
		c-0.4,0.6-0.6,0.9-0.6,0.9s1.6-0.1,1.7-0.9s0.1-1.5,0.6-1.6c0.4-0.1,0.4,1,0.2,1.6c-0.2,0.6-0.6,1.3-0.6,1.3s1.1-0.3,1.3-1.2
		c0.1-0.9,0-2.3,0-2.3s0.7-0.5,1.1,0.9s0.3,2-0.3,2.6c-0.6,0.6,1.8,0,1.8-1.1s0.4-2.6-0.8-3.5c-1.1-0.9-0.6-1.4-2.6-1.1
		c-2,0.4-2.6,1.2-2.1-1.1s1.1-5.2,1.3-6.1c0.2-1-0.4-1.2,0.3-2.7c0.7-1.5,1.3-2.9,1.3-2s0.1,2.3,0.1,2.3l1.4-0.1
		c0,0,0.8,1.6,1.6,2.2c0.8,0.6,1.2,2.6,0.3,1.7c-0.9-0.9-1.2-1.1-1.3,0.4c-0.1,1.5,1.3,3.9,1.3,3.9l1.1,2.8c0,0-1.1,0.4-0.6,1.4
		c0.6,0.9-1.6,2.9,0.7,2.6s3.4-0.6,4.3-0.1c0.9,0.6,2.6,0.6,3.2,0.3s1.3-0.5,0.1-1.5s-1.9-1.1-2.3-1.2s-1-0.3-1.7-0.3
		s-1.6-0.4-1.6-0.4s-0.9,1.6-0.4-0.6c0.4-2.3,1.6-5.3,1.2-3c-0.4,2.3,0.2,3.1,0.2,3.1s0-1.3,0.6-2.4c0.6-1.2,1.6-2.2,1.2-0.1
		S32.8,69,32.8,69s0.3,1.1,1.1-0.8c0.9-1.9,1.1-4,1.7-2.2c0.6,1.8,1.2,2.8,1.2,3.1S36,70.2,36,70.2s0.6,0,1.4,1.1s2.2,1.8,2.8,1.2
		c0.6-0.6,0.9-1.2,1.9-1.3c0.9-0.1,0.9-0.7-0.1-0.7c-0.9,0,0.1-0.6-1.6-0.8s-2.3-0.5-3.2-2.6s-0.8-1.1,0.4-2.8
		c1.3-1.7,3.3-3.3,1.9-0.8c-1.4,2.5-2.8,4-1.1,4.5s2.9,0.9,1.7-0.7s-1.3-0.9-0.1-2.8c1.3-1.8,0.8-3.6-1.4-2.3
		c-2.1,1.3-1.5,2.4-3.1,1.6s-5.9-1.2-3.3-1.4c2.7-0.3,4.7,0.1,4.9-0.9c0.3-0.9-0.1-2.6-0.1-2.6s0.3-0.4,1.9,0.2
		c1.6,0.6,1.5,0.3,2-1.2s0.5-4.6,0.5-4.6s1.4,0.4,1,2s0.3,3.6,0.3,3.6s-0.1-0.8,0.6-2.1c0.7-1.4,1.1-2.8,1.1-2.8l0.3,1.6
		c0,0-0.1-0.9,0.4-1.9c0.6-1.1,0.7-3.1,0.3-4.3c-0.4-1.1-1.5-2-1.8-2.7S42,44,40.4,44.1c-1.6,0.2-2.1,0.2-2.4,0.4s-1,0.5-2.4,0.3
		c-1.4-0.3-2.1-0.7-2.7-0.8s-0.9,0.5-1.7,0.8C30.4,45.2,28.9,45.3,28.9,45.3L28.9,45.3z"/>
	<g>
		<path class="st2" d="M34.3,54l2.6,2c0,0-1.1,1.8-2.4,0.5C33.1,55.3,33.9,54.1,34.3,54L34.3,54z"/>
		<path class="st2" d="M39.2,53.5l-0.8,2.6c0,0,1.6,0.7,2-0.8C40.7,53.8,39.5,53.4,39.2,53.5z"/>
	</g>
</g>
<path class="st2" d="M34.4,58.7c0,0-1.9-0.1-2.8-1.5c-0.3-0.5-0.8-2.4-0.7-3.1c0.4-3.1,0.3-4,0.3-4l-0.8,4.6c0,0,0.2,1.7,0.8,2.8
	c0.2,0.4,1.5,0.8,1.7,1c0.2,0.3-4.2,0-3.6,0.2s2.2,0.3,3.4,0.3C33.7,59,34.4,58.7,34.4,58.7z"/>
<path class="st2" d="M27.7,49.1c0,0-0.7,4.5-0.4,5.7s-0.7-1.3-0.7-3C26.6,50.3,27.7,49.1,27.7,49.1L27.7,49.1z"/>
<path class="st2" d="M24.9,46.6c0,0-0.7,3.5-0.4,4.5c0.3,1-0.7-1-0.7-2.3S24.9,46.6,24.9,46.6L24.9,46.6z"/>
<path class="st2" d="M22.3,44.7c0,0-0.7,3-0.4,3.8c0.3,0.8-0.7-0.8-0.7-1.9C21.2,45.5,22.3,44.7,22.3,44.7z"/>
<path class="st2" d="M27.8,63.1c0,0,0.4,2.8,0.2,3.6c-0.2,0.8,0.4-0.8,0.4-1.8C28.4,63.9,27.8,63.1,27.8,63.1L27.8,63.1z"/>
<path class="st2" d="M40.1,50.2c0,0-0.6-2.1-1-2.6s0.6,0.4,0.9,1.1C40.3,49.5,40.1,50.2,40.1,50.2L40.1,50.2z"/>
<path class="st3" d="M52.3,1.6c0,4.3-4.9,8.8-12.3,8.8S27.7,5.9,27.7,1.6"/>
<path class="st4" d="M40.2,75.5c6.9-0.1,16.7-1.8,22.4-4C61.9,64.9,59.9,26,59.9,26s2.1,5.1,3.2,7.9c4.7-0.4,12.3-1.3,15.3-6.2
	C75.5,20.9,73.3,13.1,71,8c0,0-10.4-3.8-18.6-6.4c0,0-0.9-0.3-1.3,0.4c-3,4.2-4.5,7.1-11.2,7.1l0,0C33.5,9,31.9,6.2,29,2
	c-0.5-0.7-1.4-0.4-1.4-0.4C19.5,4.1,9,8,9,8c-2.3,5.1-4.5,13-7.4,19.7c3,4.8,10.4,5.8,15.3,6.2c1.1-2.8,3.2-7.9,3.2-7.9
	S18,64.9,17.4,71.5c5.8,2.2,15.5,4,22.4,4l0,0"/>
</svg>
