<?xml version="1.0" encoding="utf-8"?><svg version="1.1" id="Ebene_1" xmlns="http://www.w3.org/2000/svg" xmlns:xlink="http://www.w3.org/1999/xlink" x="0px" y="0px" viewBox="0 0 80 77.1" style="enable-background:new 0 0 80 77.1;" xml:space="preserve"><style type="text/css"> .st0{fill:#0053A5;} .st1{fill:#034991;} .st2{fill:#F29000;} .st3{fill:none;stroke:#000000;stroke-width:3;stroke-linecap:round;stroke-linejoin:round;} </style><g id="Ebene_3"><g id="Layer_1_1_"><path d="M40.2,75.6c6.9-0.1,16.7-1.8,22.4-4c-0.7-6.6-2.7-45.5-2.7-45.5s2.1,5.1,3.2,7.9c4.7-0.4,12.3-1.3,15.3-6.2 C75.5,21,73.3,13.2,71,8.1c0,0-10.4-3.8-18.6-6.4c0,0-0.9-0.3-1.3,0.4c-3,4.2-4.5,7.1-11.2,7.1l0,0c-6.4-0.1-8-2.9-10.9-7.1 c-0.5-0.7-1.4-0.4-1.4-0.4C19.5,4.2,9,8.1,9,8.1c-2.3,5.1-4.5,13-7.4,19.7c3,4.8,10.4,5.8,15.3,6.2c1.1-2.8,3.2-7.9,3.2-7.9 S18,65,17.4,71.6c5.8,2.2,15.5,4,22.4,4l0,0"/></g></g><g id="Ebene_2_1_"><path class="st0" d="M40.2,75.6c4.3-0.1,9.6-0.7,14.5-1.8c1.6-0.9,5.8-3.7,4.4-7.9c-2.2-6.8-28.6-3-27.7-8c0.5-3,12.9-0.2,19.5-5.4 c5-3.9,6.8-9.9,6.8-9.9s-2.3,5.6-7.7,8.1c-8.3,3.9-26.6-1.5-27.9,6.9c-1.4,8.9,20.7,7,21.3,10.1c0.3,1.7-3.4,3.6-12.1,3.3 c-9.3-0.4-12.9-2.7-13.7-3c-0.1,1.5-0.2,2.7-0.3,3.5c5.8,2.2,15.5,4,22.4,4h0.5V75.6z"/><path class="st1" d="M40.3,75.6c4.3-0.1,9.6-0.7,14.5-1.8c1.6-0.9,5.8-3.7,4.4-7.9c-2.2-6.8-28.6-3-27.7-8c0.5-3,12.9-0.2,19.5-5.4 c5-3.9,6.8-9.9,6.8-9.9s-2.3,5.6-7.7,8.1c-8.3,3.9-26.6-1.5-27.9,6.9c-1.4,8.9,20.7,7,21.3,10.1c0.3,1.7-3.4,3.6-12.1,3.3 c-9.3-0.4-12.9-2.7-13.7-3c-0.1,1.5-0.2,2.7-0.3,3.5c5.8,2.2,15.5,4,22.4,4h0.5V75.6z"/><path class="st1" d="M40.9,24c0-3.4-10.9-5.1-11.1-6.7s6-4.8,8.3-8.3l0,0c-4.9-0.6-6.5-3.2-9.1-7c-0.5-0.7-0.6,0.7-0.6,0.7 c-0.9,0.3,1-0.7,0-0.4c0.2,0.2-0.1,2.8-2,5.4c-3.6,4.9-6.8,5.4-6.4,9.4c0.5,4.8,12.7,5.4,12.7,7.1c0,1.1-2.8,2-6.1,4.9 c-3.6,3.2-4.8,7.6-4.8,7.6s2.2-3.3,6.4-5.6C33.6,28.3,40.9,27.3,40.9,24z"/></g><g id="Ebene_4"><path class="st2" d="M26.5,5.3l0.2,0.2l0,0l0.3,0.4c2.9,4.3,5.2,7.6,12.8,7.9c7.6,0,9.9-3.3,12.9-7.4l0.5-0.8l0,0l1.9-2.9 c-0.4-0.1-0.8-0.2-1.2-0.4c-1.1-0.3-2.5-0.1-3.3,1.1l-0.7,1c-2.7,3.9-4.3,6-10.2,6C34,10.2,32.6,8.1,29.7,4l-0.4-0.7 c-0.9-1.2-2.3-1.4-3.4-1.1c-0.3,0.1-0.7,0.2-1,0.3L26.5,5.3z"/></g><g id="Ebene_1_1_"><g id="Layer_1"><path class="st3" d="M40.2,75.6c6.9-0.1,16.7-1.8,22.4-4c-0.7-6.6-2.7-45.5-2.7-45.5s2.1,5.1,3.2,7.9c4.7-0.4,12.3-1.3,15.3-6.2 C75.5,21,73.3,13.2,71,8.1c0,0-10.4-3.8-18.6-6.4c0,0-0.9-0.3-1.3,0.4c-3,4.2-4.5,7.1-11.2,7.1l0,0c-6.4-0.1-8-2.9-10.9-7.1 c-0.5-0.7-1.4-0.4-1.4-0.4C19.5,4.2,9,8.1,9,8.1c-2.3,5.1-4.5,13-7.4,19.7c3,4.8,10.4,5.8,15.3,6.2c1.1-2.8,3.2-7.9,3.2-7.9 S18,65,17.4,71.6c5.8,2.2,15.5,4,22.4,4l0,0"/></g></g></svg> 