<?xml version="1.0" encoding="utf-8"?><svg version="1.1" id="Layer_1" xmlns:cc="http://creativecommons.org/ns#" xmlns:dc="http://purl.org/dc/elements/1.1/" xmlns:inkscape="http://www.inkscape.org/namespaces/inkscape" xmlns:rdf="http://www.w3.org/1999/02/22-rdf-syntax-ns#" xmlns:sodipodi="http://sodipodi.sourceforge.net/DTD/sodipodi-0.dtd" xmlns:svg="http://www.w3.org/2000/svg" xmlns="http://www.w3.org/2000/svg" xmlns:xlink="http://www.w3.org/1999/xlink" x="0px" y="0px" viewBox="0 0 80 77.1" style="enable-background:new 0 0 80 77.1;" xml:space="preserve"><style type="text/css">.st0{stroke:#000000;stroke-width:0.2021;}.st1{fill:#000080;}.st2{fill:#1BB94E;} .st3{fill:none;stroke:#000000;stroke-width:3;stroke-linecap:round;stroke-linejoin:round;}</style><path id="path4569" class="st0" d="M36.2,74.9c-3.3-0.3-6.3-0.9-7.8-1.1c-3.1-0.5-5.6-1.1-7.5-1.5 c-1.1-0.2-2.3-0.4-3.4-0.6c0.1-1.1,0.2-2.2,0.3-3.4c0.7-11.2,1.3-22.4,2-33.7l0,0c0.7-5.6,0.8-8.4,0.5-8.5c-0.3-0.1-0.8,1.3-1.7,4 c-0.5,1.3-1,2.6-1.5,3.9c-0.8-0.2-1.6-0.3-2.4-0.5c-2.1-0.6-4.2-1.3-6.4-2c-1.6-0.5-3.2-1.1-4.7-1.6l-1.3-2.1l0.7-2.8 c0.4-1,1.4-3.7,2.5-6.9s2.2-6.4,2.6-7.2L9,8.1l4.2-1.5c4.1-1.5,15.2-6,15.4-4.3c0,0.1,1.6,1.4,2.3,2.4c1.4,2,2.4,3.1,3.6,3.7 c1.6,0.8,3,0.9,5.4,0.8c2.1-0.1,4.8-0.1,7.3-1.8c1.6-1.1,2.9-2.5,3.4-3.1c0.9-1.1,1.2-1.6,1.5-1.9c1.1-1.2,4.6-1,15.1,4.8 c1.3,0.3,2.6,0.6,3.9,1c0.4,0.9,0.7,1.8,1.1,2.6c0.7,1.8,1.7,4.8,2.4,6.6c0.8,2.2,1.9,5.3,2.7,7.5c0.4,1,0.8,2,1.2,2.9 c-1,1-2,2-3.1,3c-1.8,0.6-4.2,1.4-8.1,2.7c-2.1,0.7-3.2,1.1-4.1,0.5c-0.7-0.5-0.7-1.2-2-5c-0.7-2-0.8-2.4-1-2.3 c-0.3,0.1-0.1,3,0,3.9c1.1,12.9,0.8,25.8,1.9,38.7c0,0.3,0.1,1.1-0.4,1.9c-0.8,1.4-2.6,1.7-3.5,1.8C47.6,74.7,42.2,75.5,36.2,74.9z" /><g id="layer2"><path id="path4581-9" class="st1" d=" M18.2,3.4l-10,3.4c1.9,5.6,6.4,14,14,23.8C27.9,38,35,45.6,43,52.3c6.3,5.3,12.5,9.5,18.6,12.6c1.7,0.9,2-5.4-0.5-7.8 C57.5,53.6,54,49.5,50.6,45c-5.7-7.7-10.4-15.9-14.1-23.4C31.7,11.4,29.7,4.2,28.2,0L18.2,3.4z"/></g><g id="layer3"><path id="path4581" class="st2" d=" M18.8,3l-4.6,1.6c1.5,4.4,4.5,11.1,9.4,19.1c4.9,8,11.5,16.8,19.5,24.7c6.1,6,12.5,11,18.9,14.8c0.9,0.5,1.3-1.8,0.2-2.7 c-5.5-4.2-10.7-9.4-15.5-15.4c-6.8-8.4-12-17.4-15.9-25.4c-3.8-7.9-6-14.3-7.3-18.3L18.8,3z"/></g><g id="layer4"><path id="path828" class="st3" d="M40.2,75.6c6.9-0.1,16.7-1.8,22.4-4 c-0.7-6.6-2.7-45.5-2.7-45.5s2.1,5.1,3.2,7.9c4.7-0.4,12.3-1.3,15.3-6.2C75.5,21,73.3,13.2,71,8.1c0,0-10.4-3.8-18.6-6.4 c0,0-0.9-0.3-1.3,0.4c-3,4.2-4.5,7.1-11.2,7.1l0,0c-6.4-0.1-8-2.9-10.9-7.1c-0.5-0.7-1.4-0.4-1.4-0.4C19.5,4.2,9,8.1,9,8.1 c-2.3,5.1-4.5,13-7.4,19.7c3,4.8,10.4,5.8,15.3,6.2c1.1-2.8,3.2-7.9,3.2-7.9S18,65,17.4,71.6c5.8,2.2,15.5,4,22.4,4l0,0"/></g><path class="st0" d="M94.5,52.2"/></svg> 