<?xml version="1.0" encoding="UTF-8" standalone="no"?><svg xmlns:dc="http://purl.org/dc/elements/1.1/" xmlns:cc="http://creativecommons.org/ns#" xmlns:rdf="http://www.w3.org/1999/02/22-rdf-syntax-ns#" xmlns:svg="http://www.w3.org/2000/svg" xmlns="http://www.w3.org/2000/svg" xmlns:xlink="http://www.w3.org/1999/xlink" xmlns:sodipodi="http://sodipodi.sourceforge.net/DTD/sodipodi-0.dtd" xmlns:inkscape="http://www.inkscape.org/namespaces/inkscape" version="1.1" id="Layer_1" x="0px" y="0px" viewBox="0 0 80 77.1" style="enable-background:new 0 0 80 77.1;" xml:space="preserve" ><defs id="defs9"><linearGradient id="linearGradient2583"><stop style="stop-color:#3e7deb;stop-opacity:1" offset="0" id="stop2579" /><stop style="stop-color:#000000;stop-opacity:1" offset="1" id="stop2581" /></linearGradient><linearGradient xlink:href="#linearGradient2583" id="linearGradient2587" gradientUnits="userSpaceOnUse" x1="40.550114" y1="77.897705" x2="40.550102" y2="22.988861" /></defs><style type="text/css" id="style2"> .st0{fill:none;stroke:#000000;stroke-width:3;stroke-linecap:round;stroke-linejoin:round;} </style><g id="layer4" style="display:inline"><path style="opacity:1;fill:url(#linearGradient2587);fill-opacity:1;fill-rule:nonzero;stroke:none;stroke-width:2;stroke-linecap:round;stroke-linejoin:round;stroke-miterlimit:4;stroke-dasharray:none;stroke-dashoffset:0;stroke-opacity:1;paint-order:markers fill stroke" d="m 28.113281,1.6367188 c -0.2875,-0.0125 -0.513672,0.0625 -0.513672,0.0625 C 19.499609,4.1992188 9,8.0996094 9,8.0996094 6.7,13.199609 4.4996094,21.100781 1.5996094,27.800781 c 3,4.8 10.4007816,5.799219 15.3007816,6.199219 1.1,-2.8 3.199218,-7.900391 3.199218,-7.900391 0,0 -2.099218,38.9 -2.699218,45.5 5.8,2.2 15.50039,4 22.40039,4 h 0.398438 c 6.9,-0.1 16.70039,-1.8 22.40039,-4 -0.7,-6.6 -2.699218,-45.5 -2.699218,-45.5 0,0 2.099218,5.100391 3.199218,7.900391 4.7,-0.4 12.300782,-1.299219 15.300782,-6.199219 C 75.500391,21.000781 73.3,13.199609 71,8.0996094 c 0,0 -10.399609,-3.8003907 -18.599609,-6.4003906 0,0 -0.900782,-0.2996094 -1.300782,0.4003906 -3,4.2 -4.499218,7.0996093 -11.199218,7.0996094 C 33.500391,9.0992188 31.9,6.2996094 29,2.0996094 c -0.25,-0.35 -0.599219,-0.4503907 -0.886719,-0.4628906 z" id="rect2567" /><path style="opacity:1;fill:#c0c0c0;fill-opacity:1;fill-rule:nonzero;stroke:none;stroke-width:0.2;stroke-linecap:round;stroke-linejoin:round;stroke-miterlimit:4;stroke-dasharray:none;stroke-dashoffset:0;stroke-opacity:1;paint-order:markers fill stroke" id="path3581" d="m 25.349178,13.87976 -0.226161,-0.114551 -0.222579,0.121365 0.03906,-0.25049 -0.184206,-0.174181 0.2503,-0.04026 0.108733,-0.229015 0.115636,0.225608 0.251407,0.03264 -0.178832,0.179693 z" /><path style="opacity:1;fill:#c0c0c0;fill-opacity:1;fill-rule:nonzero;stroke:none;stroke-width:0.2;stroke-linecap:round;stroke-linejoin:round;stroke-miterlimit:4;stroke-dasharray:none;stroke-dashoffset:0;stroke-opacity:1;paint-order:markers fill stroke" id="path3583" d="m 60.700594,9.0695241 -0.248601,-0.1600189 -0.272755,0.1140739 0.07537,-0.2858817 -0.192776,-0.2241547 0.295178,-0.016666 0.153613,-0.2526091 0.107065,0.2755817 0.287715,0.068034 -0.229009,0.1869845 z" /><path style="opacity:1;fill:#c0c0c0;fill-opacity:1;fill-rule:nonzero;stroke:none;stroke-width:0.2;stroke-linecap:round;stroke-linejoin:round;stroke-miterlimit:4;stroke-dasharray:none;stroke-dashoffset:0;stroke-opacity:1;paint-order:markers fill stroke" id="path3585" d="m 48.178709,28.692231 -0.180105,-0.250365 -0.308349,0.0064 0.182456,-0.248657 -0.101401,-0.291271 0.292869,0.09669 0.245681,-0.186445 -0.0015,0.308413 0.253239,0.176041 -0.293767,0.09392 z" /><path style="opacity:1;fill:#c0c0c0;fill-opacity:1;fill-rule:nonzero;stroke:none;stroke-width:0.2;stroke-linecap:round;stroke-linejoin:round;stroke-miterlimit:4;stroke-dasharray:none;stroke-dashoffset:0;stroke-opacity:1;paint-order:markers fill stroke" id="path3587" d="m 47.796945,12.887172 -0.157665,-0.204898 -0.258173,0.01372 0.146148,-0.213266 -0.09283,-0.241297 0.24799,0.07309 0.200801,-0.162851 0.0071,0.258439 0.216932,0.14065 -0.243591,0.08663 z" /><path style="opacity:1;fill:#c0c0c0;fill-opacity:1;fill-rule:nonzero;stroke:none;stroke-width:0.2;stroke-linecap:round;stroke-linejoin:round;stroke-miterlimit:4;stroke-dasharray:none;stroke-dashoffset:0;stroke-opacity:1;paint-order:markers fill stroke" id="path3589" d="m 57.493768,6.9316416 -0.226161,-0.1145515 -0.222578,0.121365 0.03906,-0.2504901 -0.184206,-0.1741812 0.2503,-0.04026 0.108734,-0.2290149 0.115636,0.2256081 0.251406,0.032642 -0.178832,0.1796934 z" /><path style="opacity:1;fill:#c0c0c0;fill-opacity:1;fill-rule:nonzero;stroke:none;stroke-width:0.2;stroke-linecap:round;stroke-linejoin:round;stroke-miterlimit:4;stroke-dasharray:none;stroke-dashoffset:0;stroke-opacity:1;paint-order:markers fill stroke" id="path3591" d="m 66.427062,15.406819 -0.294067,-0.13758 -0.280047,0.164251 0.03997,-0.32219 -0.24275,-0.215584 0.318773,-0.06154 0.130018,-0.297489 0.157039,0.284153 0.323106,0.03173 -0.221718,0.237161 z" /><path style="opacity:1;fill:#c0c0c0;fill-opacity:1;fill-rule:nonzero;stroke:none;stroke-width:0.2;stroke-linecap:round;stroke-linejoin:round;stroke-miterlimit:4;stroke-dasharray:none;stroke-dashoffset:0;stroke-opacity:1;paint-order:markers fill stroke" id="path3593" d="m 36.496709,17.391994 -0.22616,-0.114551 -0.222579,0.121365 0.03906,-0.250491 -0.184205,-0.174181 0.250299,-0.04026 0.108734,-0.229015 0.115636,0.225609 0.251407,0.03264 -0.178833,0.179693 z" /><path style="opacity:1;fill:#c0c0c0;fill-opacity:1;fill-rule:nonzero;stroke:none;stroke-width:0.2;stroke-linecap:round;stroke-linejoin:round;stroke-miterlimit:4;stroke-dasharray:none;stroke-dashoffset:0;stroke-opacity:1;paint-order:markers fill stroke" id="path3597" d="m 28.632354,9.0695244 -0.204931,-0.076723 -0.171192,0.1362948 0.0096,-0.2186097 -0.182525,-0.1206963 0.210889,-0.058386 0.05839,-0.2108892 0.120697,0.1825254 0.218609,-0.00964 -0.136294,0.1711925 z" /><path style="opacity:1;fill:#c0c0c0;fill-opacity:1;fill-rule:nonzero;stroke:none;stroke-width:0.2;stroke-linecap:round;stroke-linejoin:round;stroke-miterlimit:4;stroke-dasharray:none;stroke-dashoffset:0;stroke-opacity:1;paint-order:markers fill stroke" id="path3599" d="m 11.223883,20.827878 -0.247667,-0.170607 -0.273688,0.124662 0.08572,-0.288266 -0.203135,-0.22177 0.300648,-0.0076 0.148144,-0.261724 0.100086,0.283599 0.294693,0.06002 -0.23879,0.182826 z" /><path style="opacity:1;fill:#c0c0c0;fill-opacity:1;fill-rule:nonzero;stroke:none;stroke-width:0.2;stroke-linecap:round;stroke-linejoin:round;stroke-miterlimit:4;stroke-dasharray:none;stroke-dashoffset:0;stroke-opacity:1;paint-order:markers fill stroke" id="path3601" d="m 15.346942,15.025053 -0.132415,-0.166401 -0.210808,0.02798 0.117339,-0.177354 -0.09176,-0.191844 0.204933,0.05679 0.1541,-0.146548 0.0093,0.212453 0.186995,0.101271 -0.199175,0.07451 z" /><path style="opacity:1;fill:#c0c0c0;fill-opacity:1;fill-rule:nonzero;stroke:none;stroke-width:0.2;stroke-linecap:round;stroke-linejoin:round;stroke-miterlimit:4;stroke-dasharray:none;stroke-dashoffset:0;stroke-opacity:1;paint-order:markers fill stroke" id="path3603" d="m 26.570826,22.507642 -0.128209,-0.281654 -0.307487,-0.0349 0.22825,-0.208969 -0.06183,-0.303222 0.269275,0.152504 0.269274,-0.152504 -0.06183,0.303222 0.22825,0.208969 -0.307487,0.0349 z" /><path style="opacity:1;fill:#c0c0c0;fill-opacity:1;fill-rule:nonzero;stroke:none;stroke-width:0.2;stroke-linecap:round;stroke-linejoin:round;stroke-miterlimit:4;stroke-dasharray:none;stroke-dashoffset:0;stroke-opacity:1;paint-order:markers fill stroke" id="path3605" d="m 48.71318,26.019878 -0.157989,-0.09809 -0.165376,0.08505 0.04447,-0.180568 -0.131989,-0.131001 0.185472,-0.01351 0.0838,-0.166011 0.07016,0.172221 0.183782,0.0284 -0.142111,0.119945 z" /><path style="opacity:1;fill:#c0c0c0;fill-opacity:1;fill-rule:nonzero;stroke:none;stroke-width:0.2;stroke-linecap:round;stroke-linejoin:round;stroke-miterlimit:4;stroke-dasharray:none;stroke-dashoffset:0;stroke-opacity:1;paint-order:markers fill stroke" id="path3607" d="m 49.629413,13.650701 -0.157989,-0.09809 -0.165376,0.08505 0.04447,-0.180568 -0.131989,-0.131001 0.185472,-0.01351 0.0838,-0.16601 0.07016,0.17222 0.183781,0.0284 -0.142111,0.119945 z" /><path style="opacity:1;fill:#c0c0c0;fill-opacity:1;fill-rule:nonzero;stroke:none;stroke-width:0.2;stroke-linecap:round;stroke-linejoin:round;stroke-miterlimit:4;stroke-dasharray:none;stroke-dashoffset:0;stroke-opacity:1;paint-order:markers fill stroke" id="path3609" d="m 57.112003,17.5447 -0.251874,-0.05535 -0.177008,0.187542 -0.02519,-0.256651 -0.233063,-0.110392 0.236307,-0.103264 0.03297,-0.255769 0.171233,0.192831 0.253438,-0.04768 -0.130478,0.22244 z" /><path style="opacity:1;fill:#c0c0c0;fill-opacity:1;fill-rule:nonzero;stroke:none;stroke-width:0.2;stroke-linecap:round;stroke-linejoin:round;stroke-miterlimit:4;stroke-dasharray:none;stroke-dashoffset:0;stroke-opacity:1;paint-order:markers fill stroke" id="path3611" d="m 46.040826,20.446113 -0.183563,-0.02978 -0.119944,0.142111 -0.0284,-0.183781 -0.17222,-0.07016 0.16601,-0.0838 0.01351,-0.185472 0.131002,0.131989 0.180568,-0.04447 -0.08505,0.165376 z" /><path style="opacity:1;fill:#c0c0c0;fill-opacity:1;fill-rule:nonzero;stroke:none;stroke-width:0.2;stroke-linecap:round;stroke-linejoin:round;stroke-miterlimit:4;stroke-dasharray:none;stroke-dashoffset:0;stroke-opacity:1;paint-order:markers fill stroke" id="path3613" d="m 37.718355,26.55435 -0.204931,-0.07672 -0.171193,0.136295 0.0096,-0.21861 -0.182526,-0.120696 0.210889,-0.05839 0.05839,-0.210889 0.120696,0.182525 0.21861,-0.0096 -0.136295,0.171192 z" /><path style="opacity:1;fill:#c0c0c0;fill-opacity:1;fill-rule:nonzero;stroke:none;stroke-width:0.2;stroke-linecap:round;stroke-linejoin:round;stroke-miterlimit:4;stroke-dasharray:none;stroke-dashoffset:0;stroke-opacity:1;paint-order:markers fill stroke" id="path3615" d="m 52.072708,37.014703 -0.251874,-0.05535 -0.177009,0.187542 -0.02519,-0.256651 -0.233063,-0.110391 0.236307,-0.103265 0.03297,-0.255769 0.171233,0.192831 0.253438,-0.04768 -0.130478,0.22244 z" /><path style="opacity:1;fill:#c0c0c0;fill-opacity:1;fill-rule:nonzero;stroke:none;stroke-width:0.2;stroke-linecap:round;stroke-linejoin:round;stroke-miterlimit:4;stroke-dasharray:none;stroke-dashoffset:0;stroke-opacity:1;paint-order:markers fill stroke" id="path3617" d="m 56.348474,25.256349 -0.17515,-0.260286 -0.313304,0.01635 0.193422,-0.247011 -0.112366,-0.292917 0.294692,0.107625 0.243857,-0.197383 -0.01129,0.313527 0.263079,0.170927 -0.301671,0.08615 z" /><path style="opacity:1;fill:#c0c0c0;fill-opacity:1;fill-rule:nonzero;stroke:none;stroke-width:0.2;stroke-linecap:round;stroke-linejoin:round;stroke-miterlimit:4;stroke-dasharray:none;stroke-dashoffset:0;stroke-opacity:1;paint-order:markers fill stroke" id="path3619" d="m 39.550825,14.795994 -0.183563,-0.02978 -0.119945,0.142111 -0.0284,-0.183781 -0.172221,-0.07016 0.16601,-0.0838 0.01351,-0.185472 0.131001,0.131988 0.180568,-0.04447 -0.08505,0.165377 z" /><path style="opacity:1;fill:#c0c0c0;fill-opacity:1;fill-rule:nonzero;stroke:none;stroke-width:0.2;stroke-linecap:round;stroke-linejoin:round;stroke-miterlimit:4;stroke-dasharray:none;stroke-dashoffset:0;stroke-opacity:1;paint-order:markers fill stroke" id="path3621" d="m 33.748002,12.123642 -0.298815,-0.03399 -0.182825,0.238791 -0.06002,-0.294693 -0.283599,-0.100087 0.261724,-0.148144 0.0076,-0.300647 0.22177,0.203135 0.288266,-0.08572 -0.124662,0.273688 z" /><path style="opacity:1;fill:#c0c0c0;fill-opacity:1;fill-rule:nonzero;stroke:none;stroke-width:0.2;stroke-linecap:round;stroke-linejoin:round;stroke-miterlimit:4;stroke-dasharray:none;stroke-dashoffset:0;stroke-opacity:1;paint-order:markers fill stroke" id="path3623" d="m 65.281767,20.904232 -0.132415,-0.166402 -0.210808,0.02798 0.117339,-0.177354 -0.09176,-0.191843 0.204934,0.05679 0.1541,-0.146549 0.0093,0.212453 0.186995,0.101271 -0.199175,0.07451 z" /><path style="opacity:1;fill:#c0c0c0;fill-opacity:1;fill-rule:nonzero;stroke:none;stroke-width:0.2;stroke-linecap:round;stroke-linejoin:round;stroke-miterlimit:4;stroke-dasharray:none;stroke-dashoffset:0;stroke-opacity:1;paint-order:markers fill stroke" id="path3625" d="m 70.855533,17.010231 -0.13662,-0.05115 -0.114129,0.09086 0.0064,-0.14574 -0.121683,-0.08047 0.140592,-0.03892 0.03892,-0.140593 0.08046,0.121684 0.14574,-0.0064 -0.09086,0.114128 z" /><path style="opacity:1;fill:#c0c0c0;fill-opacity:1;fill-rule:nonzero;stroke:none;stroke-width:0.2;stroke-linecap:round;stroke-linejoin:round;stroke-miterlimit:4;stroke-dasharray:none;stroke-dashoffset:0;stroke-opacity:1;paint-order:markers fill stroke" id="path3627" d="m 71.084591,19.224466 -0.179357,-0.145033 -0.216624,0.07923 0.08251,-0.215396 -0.142293,-0.181538 0.230351,0.01191 0.128682,-0.191428 0.05985,0.222758 0.221823,0.06323 -0.193359,0.12576 z" /><path style="opacity:1;fill:#c0c0c0;fill-opacity:1;fill-rule:nonzero;stroke:none;stroke-width:0.2;stroke-linecap:round;stroke-linejoin:round;stroke-miterlimit:4;stroke-dasharray:none;stroke-dashoffset:0;stroke-opacity:1;paint-order:markers fill stroke" id="path3629" d="m 22.066002,12.505407 -0.157989,-0.09809 -0.165376,0.08505 0.04447,-0.180568 -0.131988,-0.131001 0.185472,-0.01351 0.0838,-0.16601 0.07016,0.172221 0.183781,0.0284 -0.142111,0.119945 z" /><path style="opacity:1;fill:#c0c0c0;fill-opacity:1;fill-rule:nonzero;stroke:none;stroke-width:0.2;stroke-linecap:round;stroke-linejoin:round;stroke-miterlimit:4;stroke-dasharray:none;stroke-dashoffset:0;stroke-opacity:1;paint-order:markers fill stroke" id="path3631" d="m 23.05859,11.360112 -0.200725,-0.191975 -0.267872,0.07342 0.120552,-0.250225 -0.152599,-0.232075 0.275231,0.03733 0.173561,-0.216845 0.04955,0.273295 0.259865,0.09806 -0.244607,0.131577 z" /><path style="opacity:1;fill:#c0c0c0;fill-opacity:1;fill-rule:nonzero;stroke:none;stroke-width:0.2;stroke-linecap:round;stroke-linejoin:round;stroke-miterlimit:4;stroke-dasharray:none;stroke-dashoffset:0;stroke-opacity:1;paint-order:markers fill stroke" id="path3633" d="m 13.056354,14.337877 -0.222093,-0.238917 -0.31912,0.0676 0.158594,-0.285053 -0.162903,-0.282612 0.320109,0.06275 0.218441,-0.242262 0.03924,0.323831 0.297907,0.132886 -0.295855,0.137393 z" /><path style="opacity:1;fill:#c0c0c0;fill-opacity:1;fill-rule:nonzero;stroke:none;stroke-width:0.2;stroke-linecap:round;stroke-linejoin:round;stroke-miterlimit:4;stroke-dasharray:none;stroke-dashoffset:0;stroke-opacity:1;paint-order:markers fill stroke" id="path3635" d="m 18.095647,9.5276417 -0.226299,-0.123665 -0.22244,0.1304786 0.04768,-0.253438 -0.19283,-0.1712333 0.255768,-0.032968 0.103265,-0.2363066 0.110391,0.2330625 0.256652,0.025188 -0.187543,0.1770088 z" /><path style="opacity:1;fill:#c0c0c0;fill-opacity:1;fill-rule:nonzero;stroke:none;stroke-width:0.2;stroke-linecap:round;stroke-linejoin:round;stroke-miterlimit:4;stroke-dasharray:none;stroke-dashoffset:0;stroke-opacity:1;paint-order:markers fill stroke" id="path3637" d="m 27.334354,24.034702 -0.157989,-0.09809 -0.165376,0.08505 0.04447,-0.180568 -0.131989,-0.131001 0.185472,-0.01351 0.0838,-0.16601 0.07016,0.172221 0.183782,0.0284 -0.142111,0.119945 z" /><path style="opacity:1;fill:#c0c0c0;fill-opacity:1;fill-rule:nonzero;stroke:none;stroke-width:0.2;stroke-linecap:round;stroke-linejoin:round;stroke-miterlimit:4;stroke-dasharray:none;stroke-dashoffset:0;stroke-opacity:1;paint-order:markers fill stroke" id="path3639" d="m 27.792473,30.066583 -0.179357,-0.145033 -0.216624,0.07923 0.08251,-0.215397 -0.142294,-0.181538 0.230352,0.01191 0.128682,-0.191427 0.05985,0.222757 0.221823,0.06323 -0.193359,0.125761 z" /><path style="opacity:1;fill:#c0c0c0;fill-opacity:1;fill-rule:nonzero;stroke:none;stroke-width:0.2;stroke-linecap:round;stroke-linejoin:round;stroke-miterlimit:4;stroke-dasharray:none;stroke-dashoffset:0;stroke-opacity:1;paint-order:markers fill stroke" id="path3641" d="m 38.023767,32.586231 -0.132414,-0.166401 -0.210808,0.02798 0.117338,-0.177354 -0.09176,-0.191843 0.204934,0.05679 0.154099,-0.146549 0.0093,0.212453 0.186995,0.101271 -0.199176,0.07451 z" /><path style="opacity:1;fill:#c0c0c0;fill-opacity:1;fill-rule:nonzero;stroke:none;stroke-width:0.2;stroke-linecap:round;stroke-linejoin:round;stroke-miterlimit:4;stroke-dasharray:none;stroke-dashoffset:0;stroke-opacity:1;paint-order:markers fill stroke" id="path3643" d="m 54.254991,22.080853 -0.230694,-0.0084 -0.125864,0.193517 -0.06328,-0.222004 -0.22294,-0.0599 0.191584,-0.128787 -0.01192,-0.23054 0.181687,0.14241 0.215573,-0.08258 -0.0793,0.216802 z" /><path style="opacity:1;fill:#c0c0c0;fill-opacity:1;fill-rule:nonzero;stroke:none;stroke-width:0.2;stroke-linecap:round;stroke-linejoin:round;stroke-miterlimit:4;stroke-dasharray:none;stroke-dashoffset:0;stroke-opacity:1;paint-order:markers fill stroke" id="path3645" d="m 38.436987,22.921424 -0.230694,-0.0084 -0.125864,0.193517 -0.06328,-0.222005 -0.22294,-0.0599 0.191584,-0.128788 -0.01192,-0.23054 0.181687,0.14241 0.215572,-0.08258 -0.0793,0.216802 z" /><path style="opacity:1;fill:#c0c0c0;fill-opacity:1;fill-rule:nonzero;stroke:none;stroke-width:0.2;stroke-linecap:round;stroke-linejoin:round;stroke-miterlimit:4;stroke-dasharray:none;stroke-dashoffset:0;stroke-opacity:1;paint-order:markers fill stroke" id="path3647" d="m 29.878452,16.349694 -0.25208,-0.0554 -0.177153,0.187696 -0.02521,-0.256862 -0.233253,-0.110482 0.2365,-0.103349 0.03299,-0.255978 0.171374,0.192989 0.253645,-0.04772 -0.130585,0.222623 z" /><path style="opacity:1;fill:#c0c0c0;fill-opacity:1;fill-rule:nonzero;stroke:none;stroke-width:0.2;stroke-linecap:round;stroke-linejoin:round;stroke-miterlimit:4;stroke-dasharray:none;stroke-dashoffset:0;stroke-opacity:1;paint-order:markers fill stroke" id="path3649" d="m 43.556822,12.299673 -0.209309,0.03856 -0.07457,0.199338 -0.101354,-0.187148 -0.212627,-0.0093 0.146668,-0.154225 -0.05684,-0.205102 0.192,0.09183 0.1775,-0.117435 -0.02801,0.21098 z" /><path style="opacity:1;fill:#c0c0c0;fill-opacity:1;fill-rule:nonzero;stroke:none;stroke-width:0.2;stroke-linecap:round;stroke-linejoin:round;stroke-miterlimit:4;stroke-dasharray:none;stroke-dashoffset:0;stroke-opacity:1;paint-order:markers fill stroke" id="path3651" d="m 31.941669,25.978042 -0.08554,-0.187923 -0.205159,-0.02328 0.152291,-0.139427 -0.04125,-0.202313 0.179663,0.101752 0.179664,-0.101752 -0.04125,0.202313 0.152291,0.139427 -0.205159,0.02328 z" /><path style="opacity:1;fill:#c0c0c0;fill-opacity:1;fill-rule:nonzero;stroke:none;stroke-width:0.2;stroke-linecap:round;stroke-linejoin:round;stroke-miterlimit:4;stroke-dasharray:none;stroke-dashoffset:0;stroke-opacity:1;paint-order:markers fill stroke" id="path3653" d="m 43.327578,22.692178 -0.183714,-0.0298 -0.120042,0.142227 -0.02843,-0.183932 -0.172362,-0.07022 0.166146,-0.08387 0.01352,-0.185624 0.131108,0.132097 0.180716,-0.04451 -0.08512,0.165511 z" /><path style="opacity:1;fill:#c0c0c0;fill-opacity:1;fill-rule:nonzero;stroke:none;stroke-width:0.2;stroke-linecap:round;stroke-linejoin:round;stroke-miterlimit:4;stroke-dasharray:none;stroke-dashoffset:0;stroke-opacity:1;paint-order:markers fill stroke" id="path3655" d="m 32.47658,34.765822 -0.205099,-0.07679 -0.171333,0.136407 0.0096,-0.218789 -0.182675,-0.120795 0.211062,-0.05843 0.05843,-0.211062 0.120795,0.182675 0.218789,-0.0096 -0.136407,0.171333 z" /><path style="opacity:1;fill:#c0c0c0;fill-opacity:1;fill-rule:nonzero;stroke:none;stroke-width:0.2;stroke-linecap:round;stroke-linejoin:round;stroke-miterlimit:4;stroke-dasharray:none;stroke-dashoffset:0;stroke-opacity:1;paint-order:markers fill stroke" id="path3657" d="m 45.161547,30.792218 -0.205099,-0.07679 -0.171333,0.136406 0.0096,-0.218788 -0.182675,-0.120795 0.211062,-0.05843 0.05843,-0.211062 0.120795,0.182675 0.218789,-0.0096 -0.136407,0.171333 z" /><path style="opacity:1;fill:#c0c0c0;fill-opacity:1;fill-rule:nonzero;stroke:none;stroke-width:0.2;stroke-linecap:round;stroke-linejoin:round;stroke-miterlimit:4;stroke-dasharray:none;stroke-dashoffset:0;stroke-opacity:1;paint-order:markers fill stroke" id="path3659" d="m 56.165377,28.57617 -0.205099,-0.07679 -0.171333,0.136406 0.0096,-0.218789 -0.182675,-0.120795 0.211062,-0.05843 0.05843,-0.211062 0.120795,0.182675 0.218789,-0.0096 -0.136407,0.171332 z" /><path style="opacity:1;fill:#c0c0c0;fill-opacity:1;fill-rule:nonzero;stroke:none;stroke-width:0.2;stroke-linecap:round;stroke-linejoin:round;stroke-miterlimit:4;stroke-dasharray:none;stroke-dashoffset:0;stroke-opacity:1;paint-order:markers fill stroke" id="path3661" d="m 18.186884,19.253482 -0.162328,0.01718 -0.06875,0.148049 -0.0665,-0.149075 -0.162048,-0.01964 0.12123,-0.10931 -0.0314,-0.160185 0.141422,0.08152 0.142643,-0.07936 -0.03383,0.159691 z" /><path style="opacity:1;fill:#c0c0c0;fill-opacity:1;fill-rule:nonzero;stroke:none;stroke-width:0.2;stroke-linecap:round;stroke-linejoin:round;stroke-miterlimit:4;stroke-dasharray:none;stroke-dashoffset:0;stroke-opacity:1;paint-order:markers fill stroke" id="path3663" d="m 23.306721,33.848839 -0.128314,-0.281884 -0.307739,-0.03493 0.228437,-0.209141 -0.06188,-0.30347 0.269496,0.152629 0.269495,-0.152629 -0.06188,0.30347 0.228437,0.209141 -0.307739,0.03493 z" /><path style="opacity:1;fill:#c0c0c0;fill-opacity:1;fill-rule:nonzero;stroke:none;stroke-width:0.2;stroke-linecap:round;stroke-linejoin:round;stroke-miterlimit:4;stroke-dasharray:none;stroke-dashoffset:0;stroke-opacity:1;paint-order:markers fill stroke" id="path3665" d="m 52.650264,33.848837 -0.132523,-0.166538 -0.21098,0.02801 0.117434,-0.1775 -0.09183,-0.192 0.205101,0.05684 0.154226,-0.146668 0.0093,0.212627 0.187148,0.101354 -0.199338,0.07457 z" /><path style="opacity:1;fill:#c0c0c0;fill-opacity:1;fill-rule:nonzero;stroke:none;stroke-width:0.2;stroke-linecap:round;stroke-linejoin:round;stroke-miterlimit:4;stroke-dasharray:none;stroke-dashoffset:0;stroke-opacity:1;paint-order:markers fill stroke" id="path3667" d="m 41.578945,35.784207 -0.127577,-0.137242 -0.183313,0.03883 0.0911,-0.163744 -0.09358,-0.162342 0.183882,0.03604 0.125479,-0.139163 0.02254,0.18602 0.171127,0.07633 -0.169949,0.07892 z" /><path style="opacity:1;fill:#c0c0c0;fill-opacity:1;fill-rule:nonzero;stroke:none;stroke-width:0.2;stroke-linecap:round;stroke-linejoin:round;stroke-miterlimit:4;stroke-dasharray:none;stroke-dashoffset:0;stroke-opacity:1;paint-order:markers fill stroke" id="path3669" d="m 27.894736,40.170174 -0.210889,-0.03421 -0.1378,0.163266 -0.03263,-0.21114 -0.197858,-0.0806 0.190723,-0.09628 0.01552,-0.213082 0.150503,0.151637 0.207449,-0.05109 -0.09771,0.189995 z" /><path style="opacity:1;fill:#c0c0c0;fill-opacity:1;fill-rule:nonzero;stroke:none;stroke-width:0.2;stroke-linecap:round;stroke-linejoin:round;stroke-miterlimit:4;stroke-dasharray:none;stroke-dashoffset:0;stroke-opacity:1;paint-order:markers fill stroke" id="path3671" d="m 71.424484,23.155411 -0.207134,-0.07755 -0.173034,0.137761 0.0097,-0.220961 -0.184489,-0.121994 0.213157,-0.05901 0.05901,-0.213157 0.121994,0.184488 0.22096,-0.0097 -0.13776,0.173033 z" /><path style="opacity:1;fill:#c0c0c0;fill-opacity:1;fill-rule:nonzero;stroke:none;stroke-width:0.2;stroke-linecap:round;stroke-linejoin:round;stroke-miterlimit:4;stroke-dasharray:none;stroke-dashoffset:0;stroke-opacity:1;paint-order:markers fill stroke" id="path3673" d="m 66.331001,10.190188 -0.129587,-0.2846825 -0.310793,-0.035273 0.230704,-0.2112163 -0.06249,-0.3064822 0.27217,0.1541435 0.272171,-0.1541436 -0.06249,0.3064823 0.230704,0.2112163 -0.310794,0.035273 z" /><path style="opacity:1;fill:#c0c0c0;fill-opacity:1;fill-rule:nonzero;stroke:none;stroke-width:0.2;stroke-linecap:round;stroke-linejoin:round;stroke-miterlimit:4;stroke-dasharray:none;stroke-dashoffset:0;stroke-opacity:1;paint-order:markers fill stroke" id="path3675" d="m 7.7559815,16.788561 -0.1683608,-0.181115 -0.2419135,0.05124 0.1202243,-0.216088 -0.1234911,-0.214239 0.2426636,0.04756 0.1655918,-0.18365 0.02975,0.245485 0.2258324,0.100737 -0.2242769,0.104153 z" /><path style="opacity:1;fill:#c0c0c0;fill-opacity:1;fill-rule:nonzero;stroke:none;stroke-width:0.2;stroke-linecap:round;stroke-linejoin:round;stroke-miterlimit:4;stroke-dasharray:none;stroke-dashoffset:0;stroke-opacity:1;paint-order:markers fill stroke" id="path3677" d="m 14.701636,25.239108 -0.129587,-0.284683 -0.310793,-0.03527 0.230704,-0.211216 -0.06249,-0.306482 0.27217,0.154143 0.272171,-0.154143 -0.06249,0.306482 0.230704,0.211216 -0.310794,0.03527 z" /><path style="opacity:1;fill:#c0c0c0;fill-opacity:1;fill-rule:nonzero;stroke:none;stroke-width:0.2;stroke-linecap:round;stroke-linejoin:round;stroke-miterlimit:4;stroke-dasharray:none;stroke-dashoffset:0;stroke-opacity:1;paint-order:markers fill stroke" id="path3679" d="m 63.900025,24.19726 -0.343099,-0.187492 -0.337248,0.197823 0.07229,-0.384245 -0.292356,-0.259612 0.387778,-0.04998 0.156563,-0.358271 0.167367,0.353353 0.389117,0.03819 -0.284339,0.268368 z" /></g><g id="layer5" style="display:inline"><path style="display:inline;fill:#020203;fill-opacity:1;stroke:#c0c0c0;stroke-width:0.2;stroke-linecap:round;stroke-linejoin:round;stroke-opacity:1;stroke-miterlimit:4;stroke-dasharray:none" d="m 58.492188,33.810547 c -7.029182,8.557272 -20.781231,13.429724 -21.001954,14.703125 -0.220724,1.273403 1.646153,1.476981 1.96875,3.480469 0.384872,2.399807 -0.308864,4.111032 -0.814453,4.986328 0.25123,-0.594674 0.479401,-1.450799 0.421875,-2.197266 -0.0076,0.0031 -0.01407,0.0047 -0.02148,0.0078 -0.0011,-0.02123 -0.0023,-0.04338 -0.0039,-0.06445 -1.304716,0.53913 -0.49852,-0.942797 -2.337891,-0.841796 0.279254,-0.132869 0.712138,-0.472966 0.890625,-1.332032 -0.01572,0.0077 -0.03239,0.0151 -0.04883,0.02148 0.0064,-0.02728 0.01361,-0.05559 0.01953,-0.08398 -0.909066,0.443946 -3.045995,-1.309305 -4.226562,-0.880859 0.125696,-0.171235 0.262797,-0.480153 0.197265,-0.980469 -0.0095,0.01345 -0.01854,0.02718 -0.0293,0.03906 -0.0029,-0.03418 -0.007,-0.06932 -0.01172,-0.105469 -0.477474,0.682458 -2.684333,-0.711274 -4.576172,0.002 -0.293559,-0.41482 -0.93913,-1.219687 -1.835938,-1.695312 0.271661,0.848936 0.167969,2.296875 0.167969,2.296875 -0.461506,0.184605 -4.331273,6.3323 -4.365234,6.671875 -0.03397,0.373529 0.255378,1.292016 0.628906,1.818359 0.203749,0.288637 0.848234,0.287267 1.085937,0.236328 0.407487,-0.0679 0.559576,-0.661913 1.306641,-1.154297 0.747063,-0.492387 3.197069,-1.66853 3.689453,-2.126953 0.761255,-0.812423 0.593872,-1.856866 0.355469,-2.455078 1.033146,1.603435 -0.04297,2.787109 -0.04297,2.787109 0.0849,0.271657 0.623319,1.001604 0.962891,1.544922 0.339576,0.543326 0.454925,1.265763 0.505859,1.435547 0.05094,0.169788 0.342825,2.148227 0.648438,2.861328 -0.526342,-0.101866 -3.44604,0.210026 -3.632813,0.294922 -0.186757,0.101867 -1.222286,1.823095 -1.195312,1.994141 0.03285,0.186963 1.563356,4.671478 1.658203,4.78125 0.07891,0.115645 1.191326,1.11712 2.578125,1.980469 0.716256,0.224213 1.239014,0.267195 1.972656,0.195312 L 32.009767,69.23441 c 0,0 -1.148273,1.545916 -2.054688,-0.417969 -0.202457,-0.450113 -0.604281,-2.076372 -0.828125,-3.02539 -0.08753,-0.383964 0.02941,-0.537258 0.419922,-0.486328 0.441447,0.05093 1.086764,0.152478 1.884766,0.322265 1.595997,0.356557 4.680291,0.596022 6.164062,-0.882812 -0.608677,1.182756 -2.603723,1.511718 -2.800781,1.511718 0,0 4.25443,2.124 8.835937,2.841797 1.614872,0.302992 3.259451,0.545312 4.322266,0.779297 -0.368104,-0.457922 -0.531318,-1.537937 -0.421875,-2.716797 0.234231,2.959077 3.10407,5.076281 5.814453,6.935547 0.856908,-0.167413 1.693625,-0.34436 2.517578,-0.533203 -0.83053,-0.867131 -1.615047,-1.561994 -2.142578,-2.216797 1.452536,-1.388201 2.160428,-2.75718 2.275391,-4.134765 0.01215,-0.396664 -0.03008,-0.768207 -0.107422,-1.111329 2.433288,0.336547 3.729096,4.226003 5.125,3.613282 -0.480846,-0.240582 -0.624438,-0.557981 -0.597656,-0.951172 0.732234,0.161104 1.175974,1.356258 2.169922,2.675781 -0.127449,-1.239153 -0.301713,-3.662974 -0.492188,-6.533203 -0.625228,-0.02375 -1.330487,0.05136 -2.128906,0.296875 0.365376,-0.302585 0.622745,-0.405138 0.632812,-0.927734 -0.55105,0.951818 -3.333366,-0.476902 -5.285156,0.404296 -0.299141,-0.49597 -0.625554,-0.846156 -0.818359,-1.013672 -1.133537,-0.949693 -3.54891,-1.929721 -5.423829,-2.25 -1.93708,1.721452 -5.06001,1.366775 -5.960937,0.767579 0.984765,0.594251 5.298066,0.866315 7.046875,-2.699219 -1.595994,0.271665 -3.021484,-0.273438 -3.021484,-0.273438 0,0 4.6342,-0.576365 5.890625,-5.007812 -2.360044,0.764044 -5.16211,-0.05078 -5.16211,-0.05078 2.971274,-0.407496 6.588487,-1.273864 8.320313,-8.201172 -1.901611,1.273399 -6.503859,2.529719 -8.660156,2.818359 3.124082,-0.52634 11.512076,-3.530357 10.96875,-14.957031 z M 27.208984,53.34375 c 0.01695,0.01695 0.08468,0.440706 -0.152343,0.779297 -0.231883,0.338573 -0.765062,0.359475 -0.800782,0.541015 0.03956,-0.374771 0.03673,-0.527188 0.123047,-0.689453 0.155554,-0.390632 0.563158,-0.469738 0.830078,-0.630859 z m 2.123047,12.205078 c 0.140894,0.367578 1.575966,2.919231 1.835938,3.058594 0.187797,0.08426 2.109345,1.197169 3.126953,1.355469 0.283306,0.04686 1.184095,0.07742 2.066406,-0.05664 l -1.783203,-2.529297 c 0,0 -0.920917,1.945195 -2.623047,0.01563 -0.380803,-0.440371 -0.671875,-1.332031 -0.671875,-1.332031 -1.033092,-0.269181 -1.304868,-0.297797 -1.951172,-0.511719 z m 25.828125,4.462891 c -0.386131,0.685211 -0.728501,0.951776 -1.142578,1.308593 0.664232,0.813253 1.438036,1.533377 2.06836,2.189454 0.23266,-0.05409 0.466339,-0.106458 0.695312,-0.16211 -0.321235,-0.210165 -0.748668,-0.503003 -1.494141,-1.115234 -0.313613,-0.276075 -0.227051,-0.895407 -0.126953,-2.220703 z" id="path4-4-8" /><path style="display:inline;opacity:1;fill:#c0c0c0;fill-opacity:1;stroke:none;stroke-width:0.11902296px;stroke-linecap:butt;stroke-linejoin:miter;stroke-opacity:1" d="m 49.368541,41.982146 c 0.156701,2.728245 -1.519852,6.765757 -6.383123,8.380465 2.362596,0.569922 5.785228,-0.721369 6.481526,-1.10533 -0.449205,3.618952 -3.272354,5.226922 -5.791887,5.434415 1.404036,0.544492 3.738603,0.416947 4.633662,0.05505 -0.651822,2.778967 -3.677187,3.47465 -5.838481,3.560838 0.831065,0.758477 2.319404,0.837179 3.356432,0.843664 -1.751321,2.434381 -5.322174,1.606799 -6.571537,1.240007 0.897882,0.240166 4.217871,0.892268 5.997452,-1.020352 -0.483172,-0.02805 -1.959222,-0.04972 -3.039874,-1.15981 1.731156,0.0595 4.753506,-0.891545 5.55135,-3.03208 -1.086282,0.273165 -3.700763,0.0577 -4.455371,-0.544835 2.180788,-0.33593 5.173295,-1.684261 5.566516,-4.723898 -3.110416,1.373465 -5.5473,0.794572 -6.319407,0.460584 3.008036,-0.913969 6.692417,-4.598602 6.812742,-8.388718 z" id="path1959-3" /><path style="display:inline;opacity:1;fill:#c0c0c0;fill-opacity:1;stroke:none;stroke-width:0.12244187px;stroke-linecap:butt;stroke-linejoin:miter;stroke-opacity:1" d="m 23.752852,58.865945 c 0.316698,-0.09084 0.435356,-0.884371 0.112338,-0.922402 -0.255141,-0.03004 -0.38221,0.276159 -0.368582,0.367438 -0.09156,-0.419388 0.277512,-0.585243 0.458497,-0.565929 0.40657,0.124938 0.305691,1.094928 -0.202253,1.120893 z" id="path1965-5" /><path style="display:inline;opacity:1;fill:none;fill-opacity:1;stroke:none;stroke-width:0.11902296px;stroke-linecap:butt;stroke-linejoin:miter;stroke-opacity:1" d="m 24.524302,58.406043 c 0.01201,-0.291345 -0.334762,-0.723855 -0.154241,-0.874024 0.550028,-0.472052 0.840514,-0.629111 1.208183,-1.092073 1.301288,-2.035087 1.66053,-1.556507 2.151028,-2.191395 -0.133842,0.484083 -0.980571,0.451514 -1.852028,1.961251 -0.251181,0.447423 -0.926437,0.979744 -1.424335,1.436937 -0.09797,0.117592 0.08022,0.268331 0.07139,0.759304 z" id="path1967" /><path style="display:inline;opacity:1;fill:#c0c0c0;fill-opacity:1;stroke:none;stroke-width:0.11902296px;stroke-linecap:butt;stroke-linejoin:miter;stroke-opacity:1" d="m 29.337247,50.758069 c 1.663984,-0.545086 3.145757,0.70403 3.917056,0.286099 0.07301,0.503237 -0.348424,0.889878 -0.604112,1.067855 1.778573,-0.875723 2.865589,0.963895 4.559146,0.805245 -0.578555,1.00572 -0.670305,0.901334 -1.383647,1.188095 2.541855,-0.311464 1.746301,1.396864 2.966953,1.047356 0.08066,0.786082 -0.426068,1.959113 -0.95709,2.367167 0.430955,-0.585567 0.629806,-1.30656 0.653671,-2.069864 -1.27007,0.129982 -0.20479,-1.254008 -3.30008,-1.260461 0.537727,-0.140667 1.28372,-0.502186 1.558313,-1.06707 -1.522599,0.404847 -2.076888,-1.74284 -4.657721,-0.633875 0.106693,-0.09788 0.910343,-0.646145 0.849466,-1.141144 -0.897884,0.311301 -1.921792,-0.784026 -3.601955,-0.589403 z" id="path2139-8" /></g><g id="layer1" style="display:inline"><path style="fill:none;fill-opacity:1;stroke:#000000;stroke-width:3;stroke-linecap:round;stroke-linejoin:round" class="st0" d="m 40.2,75.6 c 6.899995,-0.1 16.699995,-1.8 22.399995,-4 -0.7,-6.6 -2.7,-45.5 -2.7,-45.5 0,0 2.1,5.1 3.2,7.9 4.7,-0.4 12.3,-1.3 15.3,-6.2 -2.9,-6.8 -5.1,-14.6 -7.4,-19.7 0,0 -10.4,-3.8 -18.6,-6.3999999 0,0 -0.9,-0.3 -1.3,0.4 C 48.099995,6.3 46.599995,9.2 39.9,9.2 v 0 C 33.5,9.1 31.9,6.3 29,2.1000001 c -0.5,-0.7 -1.4,-0.4 -1.4,-0.4 C 19.5,4.2 9,8.1 9,8.1 c -2.3,5.1 -4.5,13 -7.4,19.7 3,4.8 10.4,5.8 15.3,6.2 1.1,-2.8 3.2,-7.9 3.2,-7.9 0,0 -2.1,38.9 -2.7,45.5 5.8,2.2 15.5,4 22.4,4 v 0" id="path4-4" /></g></svg>