<?xml version="1.0" encoding="UTF-8"?>
<!DOCTYPE svg PUBLIC "-//W3C//DTD SVG 1.1//EN" "http://www.w3.org/Graphics/SVG/1.1/DTD/svg11.dtd">
<!-- Creator: CorelDRAW X8 -->
<svg xmlns="http://www.w3.org/2000/svg" xml:space="preserve" width="210mm" height="297mm" version="1.1" style="shape-rendering:geometricPrecision; text-rendering:geometricPrecision; image-rendering:optimizeQuality; fill-rule:evenodd; clip-rule:evenodd"
viewBox="0 0 21000 29700"
 xmlns:xlink="http://www.w3.org/1999/xlink">
 <defs>
  <style type="text/css">
   <![CDATA[
    .str0 {stroke:#7F1818;stroke-width:787.5}
    .str1 {stroke:black;stroke-width:525;stroke-linecap:round;stroke-linejoin:round}
    .fil1 {fill:none}
    .fil4 {fill:#2D0001}
    .fil3 {fill:#A71825}
    .fil2 {fill:#B62729}
    .fil6 {fill:#D85001}
    .fil8 {fill:#E89205}
    .fil7 {fill:#F6D651}
    .fil5 {fill:#FAE470}
    .fil31 {fill:#2C0304;fill-opacity:0.588235}
    .fil9 {fill:#2D0001;fill-opacity:0.588235}
    .fil22 {fill:#35060A;fill-opacity:0.588235}
    .fil14 {fill:#44020A;fill-opacity:0.588235}
    .fil19 {fill:#4A0706;fill-opacity:0.588235}
    .fil20 {fill:#61001A;fill-opacity:0.588235}
    .fil16 {fill:#630115;fill-opacity:0.588235}
    .fil29 {fill:#65001B;fill-opacity:0.588235}
    .fil34 {fill:#690D12;fill-opacity:0.588235}
    .fil24 {fill:#6B011A;fill-opacity:0.588235}
    .fil17 {fill:#730314;fill-opacity:0.588235}
    .fil15 {fill:#74021A;fill-opacity:0.588235}
    .fil25 {fill:#790A14;fill-opacity:0.588235}
    .fil28 {fill:#7B0414;fill-opacity:0.588235}
    .fil37 {fill:#850A14;fill-opacity:0.588235}
    .fil30 {fill:#8F6E34;fill-opacity:0.588235}
    .fil11 {fill:#A7151B;fill-opacity:0.588235}
    .fil38 {fill:#AF8E8F;fill-opacity:0.588235}
    .fil33 {fill:#B40722;fill-opacity:0.588235}
    .fil12 {fill:#B91725;fill-opacity:0.588235}
    .fil10 {fill:#BA0821;fill-opacity:0.588235}
    .fil36 {fill:#D0B48B;fill-opacity:0.588235}
    .fil26 {fill:#D3AD52;fill-opacity:0.588235}
    .fil21 {fill:#D4CA92;fill-opacity:0.588235}
    .fil32 {fill:#E6B658;fill-opacity:0.588235}
    .fil18 {fill:#EA3638;fill-opacity:0.588235}
    .fil40 {fill:#EAC859;fill-opacity:0.588235}
    .fil39 {fill:#EBD293;fill-opacity:0.588235}
    .fil35 {fill:#F2353A;fill-opacity:0.588235}
    .fil27 {fill:#F53A3C;fill-opacity:0.588235}
    .fil23 {fill:#F93D3C;fill-opacity:0.588235}
    .fil13 {fill:#F93E41;fill-opacity:0.588235}
    .fil0 {fill:url(#id0)}
   ]]>
  </style>
  <linearGradient id="id0" gradientUnits="userSpaceOnUse" x1="10500" y1="23635.9" x2="10500" y2="7464.67">
   <stop offset="0" style="stop-opacity:1; stop-color:#BF2000"/>
   <stop offset="0.2" style="stop-opacity:1; stop-color:#9E1A00"/>
   <stop offset="0.639216" style="stop-opacity:1; stop-color:#4A0C00"/>
   <stop offset="1" style="stop-opacity:1; stop-color:black"/>
  </linearGradient>
 </defs>
 <g id="Capa_x0020_1">
  <metadata id="CorelCorpID_0Corel-Layer"/>
  <path class="fil0" d="M10553 24549c1811,-26 4383,-472 5880,-1050 -184,-1732 -709,-11943 -709,-11943 0,0 551,1338 840,2073 1234,-105 3229,-341 4016,-1627 -761,-1785 -1339,-3833 -1942,-5171 0,0 -2730,-998 -4883,-1680 0,0 -236,-79 -341,105 -788,1102 -1181,1863 -2940,1863l0 0c-1680,-26 -2100,-761 -2861,-1863 -132,-184 -368,-105 -368,-105 -2126,656 -4882,1680 -4882,1680 -604,1338 -1182,3412 -1943,5171 788,1260 2730,1522 4016,1627 289,-735 840,-2073 840,-2073 0,0 -551,10211 -708,11943 1522,578 4068,1050 5880,1050l0 0m105 0l0 0 0 0z"/>
  <path class="fil1 str0" d="M13755 5282c0,1129 -1286,2310 -3229,2310 -1942,0 -3228,-1181 -3228,-2310"/>
  <g id="_2112589702272">
   <path class="fil2" d="M12667 11382c22,64 -1,134 -40,199 -50,84 -82,63 -87,200 102,46 125,69 254,19 28,-169 -99,-73 -42,-229 54,69 188,270 246,324 41,38 67,59 103,101 99,113 331,273 468,343 5,-3 6,-17 7,-15 0,2 25,-16 -13,-86 -63,-116 -131,-105 -288,-230 -51,-41 -106,-120 -164,-175 -54,-52 -122,-107 -159,-185l-108 -152c4,-3 10,-6 14,-8l40 -19c326,-138 174,-138 249,-188 86,-21 79,29 192,35l-65 91c-2,-3 -7,6 -15,15l79 79 -27 154c-99,35 -91,-9 -108,120l9 50c0,0 44,-21 28,-53 55,73 60,51 224,50l130 -46c4,0 19,1 22,0l126 -72 -15 -55c-55,-57 -52,-35 -120,-75 -57,-34 -5,7 -55,-47 -29,-31 -17,-14 -42,-45l46 -113c81,12 111,3 164,23l-57 -116c-1,-1 -4,-5 -5,-6 -2,-3 -8,-11 -10,-14 -111,-143 -23,-7 5,-199l10 -65c8,-31 11,-34 16,-56l14 -39c15,-28 35,-44 9,-115l-7 -15c-17,-35 23,15 -15,-24 -48,29 -128,107 -118,162 -38,50 -19,35 -68,54l-41 -72c-2,-8 -7,-9 -10,-13l52 -73c17,-49 21,-56 15,-115 -4,-50 -15,-62 -39,-100l-59 -75c34,153 127,188 18,332 -63,3 -111,1 -165,-11 -313,-75 -172,78 -374,14 -22,33 -27,32 5,53 52,34 38,-7 39,-8l-23 32c-10,16 -6,10 -18,33 4,63 -12,166 -22,232 -15,92 -22,119 -110,124 -89,-153 -278,-854 -169,-1090 -61,-23 -1,-4 -81,-25 2,120 30,218 11,366l79 464c8,24 13,47 22,78l69 171c49,85 62,-2 27,88 -39,99 -26,31 -53,18z"/>
   <path class="fil3" d="M12667 11382c27,13 14,81 53,-18 35,-90 22,-3 -27,-88l-69 -171c-9,-31 -14,-54 -22,-78l-79 -464c19,-148 -9,-246 -11,-366 80,21 20,2 81,25l95 -51c35,-24 57,-39 93,-60 191,-112 457,-224 687,-248 -111,193 111,-53 208,-7 77,81 190,203 72,312 -51,-10 -48,-64 -113,-49 -38,9 -51,55 -90,90 -59,24 -769,-84 -809,481 -9,132 32,301 158,266 12,-23 8,-17 18,-33l23 -32c-1,1 13,42 -39,8 -32,-21 -27,-20 -5,-53 -129,-112 -34,-329 62,-428 151,-155 233,-120 473,-147l10 24c38,116 -101,130 -114,206l3 48c33,-37 48,-39 87,-38l59 75c24,38 35,50 39,100 6,59 2,66 -15,115l-52 73c3,4 8,5 10,13l41 72c49,-19 30,-4 68,-54l-38 -55c-13,-49 71,-154 170,-183l119 -51c-97,-80 -188,-162 -82,-271 45,58 46,70 52,149 90,-165 5,-171 -16,-280 92,-100 113,-223 -4,-322 -91,-39 -50,2 -80,-82 455,26 789,335 934,401 136,565 -253,1225 -259,1355l45 36c-8,-122 360,-598 295,-1296 -15,-161 -41,-149 -154,-227 -322,-225 -629,-330 -1031,-363 -60,-5 -30,-16 -86,8 -139,58 -213,55 -375,115 -155,58 -564,237 -594,392 -10,49 -11,134 -12,186 -2,255 107,884 221,965z"/>
   <path class="fil4" d="M13763 9892c28,-17 -23,-18 61,-11l172 50c291,100 381,201 579,314 10,445 -48,839 -233,1151l28 -185c6,-57 43,-17 8,-133 44,-12 -29,18 30,0l-24 -65c0,-1 -13,-41 -13,-42 -52,-187 -18,4 -47,-111 -15,-61 -12,-5 -55,-80 -37,-65 -15,-78 -74,-110l-382 -54 -119 51c-99,29 -183,134 -170,183l38 55c-10,-55 70,-133 118,-162 38,39 -2,-11 15,24l7 15c26,71 6,87 -9,115l-14 39c-5,22 -8,25 -16,56l-10 65c-28,192 -116,56 -5,199 2,3 8,11 10,14 1,1 4,5 5,6l57 116 60 93c3,2 11,7 14,9l123 36c2,1 6,1 8,2l39 20c-15,-40 -40,-73 -20,-112 4,-7 5,-8 12,-10 21,-7 11,29 29,37l89 -113c18,-29 20,-7 28,-52l-84 79c-3,3 -8,8 -12,12 -30,-66 -50,-55 -109,-23 -50,-169 -15,-38 4,-257 91,8 64,33 121,2 195,-106 198,148 123,255 -24,34 -46,61 -67,106 -37,82 -14,59 -91,95 2,1 6,0 6,2l19 17c149,-53 71,-42 113,-61 3,-1 3,-5 21,-5 2,0 7,-1 9,0 3,0 8,0 11,1l95 51c-4,4 -9,4 -10,11 -2,7 -8,9 -10,12 -3,2 -7,7 -10,10 -2,3 -6,7 -9,10 -24,27 -21,23 -39,47 -86,117 -200,199 -204,292 151,-69 278,-303 302,-324 2,-1 6,-4 7,-5l-3 -82c78,4 74,9 122,53l-4 2 -45 -36c6,-130 395,-790 259,-1355 -145,-66 -479,-375 -934,-401 30,84 -11,43 80,82z"/>
   <path class="fil5" d="M13813 10616l382 54c59,32 37,45 74,110 43,75 40,19 55,80 29,115 -5,-76 47,111 0,1 13,41 13,42l24 65c-59,18 14,-12 -30,0 35,116 -2,76 -8,133l-28 185c185,-312 243,-706 233,-1151 -198,-113 -288,-214 -579,-314l-172 -50c-84,-7 -33,-6 -61,11 117,99 96,222 4,322 21,109 106,115 16,280 -6,-79 -7,-91 -52,-149 -106,109 -15,191 82,271z"/>
   <path class="fil5" d="M12593 10222c-109,236 80,937 169,1090 88,-5 95,-32 110,-124 10,-66 26,-169 22,-232 -126,35 -167,-134 -158,-266 40,-565 750,-457 809,-481 39,-35 52,-81 90,-90 65,-15 62,39 113,49 118,-109 5,-231 -72,-312 -97,-46 -319,200 -208,7 -230,24 -496,136 -687,248 -36,21 -58,36 -93,60l-95 51z"/>
   <path class="fil6" d="M14012 11590c18,48 43,52 64,86 -73,53 -16,32 -57,91 -55,2 -76,-30 -90,-42l-29 -62c-86,48 -58,4 -104,-19 -59,-28 -5,-7 -69,5l15 55 -126 72c-3,1 -18,0 -22,0l-130 46c-164,1 -169,23 -224,-50 16,32 -28,53 -28,53l-9 -50c-3,-3 -5,-8 -7,-10 -35,-44 -136,-87 -164,-93 -55,-13 -23,5 -80,-24 37,78 105,133 159,185 58,55 113,134 164,175 157,125 225,114 288,230 38,70 13,88 13,86 -1,-2 -2,12 -7,15 136,-24 639,-454 714,-627 5,2 11,2 13,8 2,7 10,7 13,9 94,65 77,56 252,48l26 51 15 -82c71,32 -2,31 66,-4l1 -106c-38,-18 -189,-12 -262,-36 -48,-44 -44,-49 -122,-53l3 82c-1,1 -5,4 -7,5 -24,21 -151,255 -302,324 4,-93 118,-175 204,-292 18,-24 15,-20 39,-47 3,-3 7,-7 9,-10 3,-3 7,-8 10,-10 2,-3 8,-5 10,-12 1,-7 6,-7 10,-11l-95 -51c-3,-1 -8,-1 -11,-1 -2,-1 -7,0 -9,0 -18,0 -18,4 -21,5 -42,19 36,8 -113,61z"/>
   <path class="fil7" d="M12891 10846c202,64 61,-89 374,-14 54,12 102,14 165,11 109,-144 16,-179 -18,-332 -39,-1 -54,1 -87,38l-3 -48c13,-76 152,-90 114,-206l-10 -24c-240,27 -322,-8 -473,147 -96,99 -191,316 -62,428z"/>
   <path class="fil8" d="M12952 11648c57,29 25,11 80,24 28,6 129,49 164,93 2,2 4,7 7,10 17,-129 9,-85 108,-120l27 -154 -79 -79c8,-9 13,-18 15,-15l65 -91c-113,-6 -106,-56 -192,-35 -75,50 77,50 -249,188l-40 19c-4,2 -10,5 -14,8l108 152z"/>
   <path class="fil8" d="M13727 11649c64,-12 10,-33 69,-5 46,23 18,67 104,19l29 62c14,12 35,44 90,42 41,-59 -16,-38 57,-91 -21,-34 -46,-38 -64,-86l-19 -17c0,-2 -4,-1 -6,-2 -29,0 -23,8 -23,-19l-39 -20c-2,-1 -6,-1 -8,-2l-123 -36c-3,-2 -11,-7 -14,-9l-60 -93c-53,-20 -83,-11 -164,-23l-46 113c25,31 13,14 42,45 50,54 -2,13 55,47 68,40 65,18 120,75z"/>
   <path class="fil2" d="M13964 11552c0,27 -6,19 23,19 77,-36 54,-13 91,-95 21,-45 43,-72 67,-106 75,-107 72,-361 -123,-255 -57,31 -30,6 -121,-2 -19,219 -54,88 -4,257 59,-32 79,-43 109,23 4,-4 9,-9 12,-12l84 -79c-8,45 -10,23 -28,52l-89 113c-18,-8 -8,-44 -29,-37 -7,2 -8,3 -12,10 -20,39 5,72 20,112z"/>
  </g>
  <g id="_2077052458912">
   <path class="fil9" d="M9670 16441c-32,33 -96,-24 73,130 -193,-10 -342,-138 -564,-110 78,85 189,98 332,183 -71,22 -122,-1 -198,-4 -142,-6 -84,15 -187,30 -108,16 -327,-11 -448,-14l-90 19c84,68 118,38 207,89 -165,66 -358,68 -521,189l122 55c-117,138 -251,150 -364,253l180 12c-86,61 -169,119 -275,132l119 65c-85,89 -134,49 -219,118 122,15 170,-14 291,18 -33,49 -186,132 -232,134 59,2 100,9 135,49l-128 55 80 38 -122 116c79,-28 114,-40 180,-20l47 -32c44,-150 282,-480 394,-589 163,-160 373,-411 601,-180l-91 58c-27,55 -41,6 -12,54 139,-6 285,32 357,149 -123,-16 -117,-42 -258,-19 69,83 195,64 232,194l-260 5 35 65c-108,10 -103,6 -212,-10l203 133 -379 239 155 18c-44,94 -170,158 -252,247l143 49 -67 97c127,21 60,9 159,-4 -63,106 -179,170 -217,318l198 -36c-86,111 -174,137 -236,295l122 -6 -190 212c64,38 51,56 110,20 -107,74 -233,193 -252,317l127 -52 -143 305c111,-18 81,-90 229,-111 -35,166 -117,225 -92,427 72,-36 136,-93 230,-82 -6,67 -114,603 -45,701l48 -132c1,-119 27,-171 125,-208l31 462 85 -130c79,99 175,331 205,454l41 -70 172 295 60 -109c225,79 323,150 352,402l28 80 18 -316c168,38 259,356 321,507l30 -218 46 -53c-91,-160 -108,-160 -117,-350l-16 -167 97 -26c17,-170 63,-444 -160,-643l-8 194c-162,-84 -96,-217 -122,-327 -25,-102 -115,-118 -126,-329 40,-86 83,-122 111,-206 39,-116 14,-88 110,-180l97 63 -37 -34c-49,-123 -13,-144 -13,-147l-121 -118c9,-145 63,-204 201,-214l76 97c47,-89 -3,-29 48,-114l90 104c73,50 24,9 82,-28l51 194c70,-83 258,-240 357,-329l17 83 208 -150c25,50 22,4 18,58 0,1 -15,57 -16,59 157,-9 163,-65 352,-14 -37,88 -29,12 -21,70l189 84 -78 47 132 121 -78 51 117 201 -136 46c74,101 73,126 97,250l-84 13 82 233 -123 -38 49 260 -70 -17 -14 170 -63 -36 -14 143c-169,48 -157,91 -252,224 -69,97 -167,188 -219,289 -58,116 -95,246 -155,359 -123,236 -229,130 -292,238 104,108 33,109 103,212l110 -221 18 152c1,6 4,14 6,21l117 -140 36 95c139,-115 143,-211 189,-366 13,-80 49,-166 129,-201 -1,122 -23,86 4,214 109,-66 163,-364 363,-468 50,73 46,24 51,135l83 -195c73,108 45,109 69,236 75,-98 156,-321 258,-363l10 181 153 -367c62,147 -9,350 123,450l23 -67c-30,-165 -108,-145 -37,-247 39,84 20,126 89,164 16,-157 5,-402 91,-542 73,96 38,125 86,218 100,-588 -20,-352 16,-643l211 147c-37,-121 -232,-359 -168,-481 152,50 106,173 185,268 39,-218 -52,-301 -67,-481l197 88c-27,-115 -46,-11 -158,-273 -45,-108 -98,-223 -108,-338 134,49 158,164 238,266 40,-376 -193,-415 -307,-619 155,-6 154,57 276,83l-282 -296c98,2 151,28 237,79 -27,-147 -229,-187 -311,-294 96,-47 162,-22 213,-124 -152,-17 -252,-28 -369,-133l57 -22c1,0 41,-7 49,-9l-140 -115c159,-22 177,44 301,49 -321,-308 -246,-160 -400,-300 40,-87 68,-79 96,-182l-171 27c-14,-160 24,-194 -15,-371l-68 150c-84,-168 6,-261 -160,-481 -15,110 13,104 -41,182 -79,-152 -21,-183 -184,-320 21,83 24,130 -2,222 -85,-29 -46,-31 -111,-122 -116,-166 -264,-296 -475,-325 117,92 197,115 224,270 -131,-41 -164,-161 -330,-192 80,80 41,49 46,104 -130,-49 -487,-166 -557,-263l49 131c-180,-27 -282,-94 -480,-80l155 100c-214,10 -350,-52 -535,-70z"/>
   <path class="fil10" d="M7466 15728l35 17c25,165 36,77 25,266 186,151 245,515 277,751 42,305 58,333 -73,569 -25,45 -4,37 -43,92 -47,68 -37,21 -131,109 -377,352 -995,130 -1418,-30 -98,-37 -96,-46 -153,-124 -115,68 -90,34 -236,34 -345,-2 -417,165 -604,117l6 69c-331,156 -251,305 -246,642 126,-174 431,-515 704,-413 11,84 -16,142 -58,219 -104,193 -157,465 -127,691 -99,65 -26,1 -86,82l90 45c37,477 -186,808 -610,987 -9,103 -42,335 -39,412 5,134 14,276 -5,410 314,-149 582,-343 783,-640 88,-130 226,-238 341,-374 87,-104 262,-301 385,-339 -116,127 -213,183 -240,377 102,132 478,350 644,306 114,-148 37,-427 231,-634 -129,-154 -183,-157 -299,-360 -87,-153 -176,-267 -318,-371l71 7c385,257 365,460 743,698 433,272 486,-540 698,-703 -103,540 -300,512 -210,842 32,116 17,230 15,349l77 70c-68,58 -51,53 -90,112 -125,-203 -30,-316 -73,-544 -86,-14 -130,30 -229,40 -115,13 -206,-16 -315,-24 -126,139 -153,595 -169,790 -179,-67 -303,-87 -475,-185 -170,-97 -343,-204 -546,-176 77,57 317,144 441,215 110,63 412,174 466,228l-32 138c161,-39 5,-82 128,-113 -20,122 -89,800 -158,838l54 75c-62,116 -70,274 -146,403 -166,281 -92,126 -26,383 -108,89 -182,85 -258,211l247 23 98 -81 150 108c-20,157 -77,406 25,525 86,-75 193,-405 197,-436 -23,226 -57,529 280,400 31,-109 17,-331 -28,-430 17,148 -43,320 -210,275 -38,-141 0,-376 139,-433 89,132 -25,59 76,142 8,-75 83,-98 160,-133 178,129 147,399 155,600 436,57 159,-494 204,-503l28 -104c-115,-46 -131,-42 -244,-38 -27,-89 -92,-357 -65,-436 31,-94 71,-126 109,-280l55 -134 2 -16c-83,-59 -59,-58 40,-363 28,-85 120,-219 91,-309 -110,-51 -120,-64 -209,1 -67,-139 -284,-141 -333,-348 8,-148 -13,-17 62,-71l-156 -251c-49,-108 -90,-197 -63,-316 223,-2 304,350 435,511 302,371 510,0 699,72l13 126 -292 15 -74 139 -95 0c89,40 349,7 473,9l116 -80c-190,-109 -44,-433 -14,-601 -161,32 -114,188 -294,269 23,-180 183,-340 187,-575 4,-253 -238,-692 12,-1270 117,-270 -5,-407 139,-636l20 15c114,-82 133,-238 308,-203 8,138 14,139 -89,207 68,108 -100,299 -229,300l16 -283c-71,111 -74,227 -13,349 175,-12 215,-173 329,-255 2,184 -79,206 -173,325l93 -6c-10,123 -42,112 -111,199 5,125 28,49 5,165l206 -117 -143 -49c82,-89 208,-153 252,-247l-155 -18 379 -239 -203 -133c109,16 104,20 212,10l-35 -65 -164 -133c115,-30 65,46 161,-67 -79,-91 -142,-63 -268,-87l212 -96 91 -58c-228,-231 -438,20 -601,180 -112,109 -350,439 -394,589l-84 187c-93,14 -24,-54 -139,107 -7,-99 12,-77 -38,-164l-157 136c1,-101 14,-102 76,-184l-92 -50 143 -103 -231 -39 183 -97 -199 0c69,-161 60,-25 176,-132 -12,-30 35,-8 -98,-74 7,-7 15,-15 22,-21 84,-65 182,-97 287,-107 106,-13 189,-71 275,-132l-180 -12c113,-103 247,-115 364,-253l-122 -55c163,-121 356,-123 521,-189 -89,-51 -123,-21 -207,-89l90 -19 52 -84c101,34 95,60 194,40 -51,-33 -64,-37 -123,-52 -221,-59 12,82 -139,-71 39,-31 17,-15 61,-46 1,0 40,-26 45,-28 229,-110 779,45 795,45 -78,-20 -169,-92 -215,-164 -151,-237 -530,-577 -553,-644 -84,-249 167,-400 100,-587 -150,178 -79,310 -383,423 -253,93 -414,38 -562,-163 -65,64 -57,89 -108,147 -100,114 -320,210 -376,256z"/>
   <path class="fil11" d="M7722 11227c128,-1 43,4 158,-27l21 65c58,49 343,556 363,627l-316 425 -93 10 -106 -60 -90 60c293,334 481,-113 691,-181 136,-45 151,-8 254,-128l87 -91c524,34 704,287 916,816 188,470 256,916 -274,1169 1,4 5,6 6,13 8,86 -34,-95 15,29 29,72 14,-23 26,96 -376,63 -321,209 -501,271l-12 -94 -54 42c-61,-101 -33,-96 -25,-157l7 -88c5,-94 62,43 -17,-106 107,-8 85,-6 55,-95l124 13c1,-90 11,-107 108,-120l-10 286c36,-71 27,-74 23,-167l99 -62 12 -128 -16 -59c-188,-37 -290,-141 -497,-43 -123,58 -201,236 -285,343l-166 164c-574,-9 -1158,-101 -1734,-54 -811,65 -839,184 -1418,340l-20 435c310,-70 575,-494 1918,-428 367,18 618,-51 761,60 -75,109 -137,159 -236,236l29 11c96,34 130,51 172,145 -26,39 -303,255 -351,281 -161,227 -388,307 -589,469 100,57 87,-12 184,91 -92,123 -286,256 -368,394 91,-10 337,-215 400,-290 61,-73 68,-109 87,-118 -20,-27 -20,-107 -129,-77l681 -412c97,-69 108,-146 224,-166 151,463 -409,533 -484,561 -58,22 -24,6 -72,40 86,87 -102,-8 46,42 153,52 -49,6 53,16l324 -80c188,-81 153,-148 235,-308 47,34 74,197 354,201 111,2 112,-1 168,-63l-237 6 -48 -103c-96,44 -90,30 -167,-44 36,-65 56,-141 73,-166l114 -4 8 155 81 -93c46,5 383,60 400,67 -22,102 31,25 -68,101 -42,33 -70,54 -111,92 204,-45 365,-287 398,-494 32,-12 56,3 66,-60 -75,62 -75,152 -74,232 67,187 -184,338 -100,587 23,67 402,407 553,644 46,72 137,144 215,164 -16,0 -566,-155 -795,-45 -5,2 -44,28 -45,28 -44,31 -22,15 -61,46 151,153 -82,12 139,71 59,15 72,19 123,52 -99,20 -93,-6 -194,-40l-52 84c121,3 340,30 448,14 103,-15 45,-36 187,-30 76,3 127,26 198,4 -143,-85 -254,-98 -332,-183 222,-28 371,100 564,110 -169,-154 -105,-97 -73,-130 -173,-169 39,118 -265,-242 -360,-427 -650,-615 -436,-868 -126,-74 15,-129 41,-230 40,-157 -23,-88 82,-251 163,-257 77,-154 116,-319l159 -220c48,-58 44,-98 51,-173l51 48 -1 -89c379,-243 580,-502 505,-1003 -71,-475 -436,-1086 -879,-1325 -180,-96 -354,-119 -493,-259 -161,-162 -307,-133 -486,-268 -75,-57 -499,-267 -393,-15z"/>
   <path class="fil12" d="M10105 19753c22,152 -20,128 7,280 6,-6 15,-13 20,-17 151,-133 68,-81 142,-225l33 95c108,-7 87,-34 168,3 -130,72 -104,1 -148,142 127,75 166,22 301,-31 241,-94 338,83 405,172l-82 21c-4,-8 -18,8 -29,13l18 71 86 3 -11 115c105,15 64,87 64,200 4,608 -122,430 -244,609 -99,146 -119,437 -482,359 -140,-30 -86,-40 -162,-91l62 -27c-121,-27 -48,46 -131,-71 9,190 26,190 117,350l-46 53c127,53 105,203 157,292 66,-67 60,-71 85,-169l50 8c63,-108 169,-2 292,-238 60,-113 97,-243 155,-359 52,-101 150,-192 219,-289 95,-133 83,-176 252,-224l14 -143 63 36 14 -170 70 17 -49 -260 123 38 -82 -233 84 -13c-24,-124 -23,-149 -97,-250l136 -46 -117 -201 78 -51 -132 -121 78 -47 -189 -84c-8,-58 -16,18 21,-70 -189,-51 -195,5 -352,14 1,-2 16,-58 16,-59 4,-54 7,-8 -18,-58l-208 150 -17 -83c-99,89 -287,246 -357,329l-51 -194c-58,37 -9,78 -82,28l-90 -104c-51,85 -1,25 -48,114l-76 -97c-138,10 -192,69 -201,214l121 118c0,3 -36,24 13,147l37 34z"/>
   <path class="fil13" d="M7324 15709c112,369 284,668 348,1067 61,379 -153,847 -580,822 -265,-15 -373,-59 -613,-126 -456,-126 -658,-329 -1123,-148 -129,50 -352,167 -449,246l-131 3180 -2 -77c19,-134 10,-276 5,-410 -3,-77 30,-309 39,-412 424,-179 647,-510 610,-987l-90 -45c60,-81 -13,-17 86,-82 -30,-226 23,-498 127,-691 42,-77 69,-135 58,-219 -273,-102 -578,239 -704,413 -5,-337 -85,-486 246,-642l-6 -69c187,48 259,-119 604,-117 146,0 121,34 236,-34 57,78 55,87 153,124 423,160 1041,382 1418,30 94,-88 84,-41 131,-109 39,-55 18,-47 43,-92 131,-236 115,-264 73,-569 -32,-236 -91,-600 -277,-751 11,-189 0,-101 -25,-266l-35 -17 -142 -19z"/>
   <path class="fil12" d="M12132 21977c-10,110 -4,25 -37,130 70,87 121,149 126,250 -82,-45 -163,-175 -222,-262 -86,-129 -100,-162 -213,-251 24,-75 9,-85 -56,-162 -52,78 -84,131 -165,192 71,125 324,386 432,528 62,82 135,203 165,304 41,140 1,246 139,337 33,-55 187,-18 256,-19 192,-3 42,-24 204,41 142,58 356,93 513,66l16 -137c53,-204 -5,-283 -8,-471 90,-9 148,-45 235,4 71,-41 -18,-40 152,-99 -251,-4 -748,-122 -937,-282 -7,54 57,3 -20,55 -152,-183 -307,-631 -400,-865l-106 79 8 -98c5,-50 7,-23 8,-91 -39,38 -102,261 -314,525l126 252 98 -26z"/>
   <path class="fil14" d="M7760 22349c-45,9 232,560 -204,503 -8,-201 23,-471 -155,-600 -77,35 -152,58 -160,133l-5 16c45,99 59,321 28,430 -337,129 -303,-174 -280,-400 -4,31 -111,361 -197,436 -102,-119 -45,-368 -25,-525 -75,-35 -18,-41 -83,-2 1,111 -69,380 -106,583 -136,32 -26,7 -81,58l31 38 73 201 35 -174c192,-31 217,52 364,-107 88,67 49,106 164,137 107,29 142,-12 250,10 31,102 -6,35 50,109l57 -191c169,66 283,68 418,-46l39 -169c220,-11 183,213 278,337 32,-172 2,-267 13,-421 206,-35 400,7 602,-83 34,-226 -317,-587 -515,-689 -266,-138 -502,-317 -685,-544 -58,43 -36,-57 -49,58 69,134 418,440 571,499 183,70 515,340 502,536 -222,95 -311,-3 -404,155 -152,-307 -158,-530 -526,-288z"/>
   <path class="fil15" d="M7763 20547c-155,-31 -406,-154 -467,-296 -75,54 -54,-77 -62,71 49,207 266,209 333,348 89,-65 99,-52 209,-1 29,90 -63,224 -91,309 -99,305 -123,304 -40,363 72,-190 175,-591 293,-734 94,13 233,53 316,56 143,6 204,-35 323,-53l54 191c54,7 6,12 46,-41 -69,-98 39,-634 45,-701 -94,-11 -158,46 -230,82 -25,-202 57,-261 92,-427 -148,21 -118,93 -229,111l143 -305 -127 52c19,-124 145,-243 252,-317 -59,36 -46,18 -110,-20l190 -212 -122 6c62,-158 150,-184 236,-295l-198 36c38,-148 154,-212 217,-318 -99,13 -32,25 -159,4l67 -97 -206 117 -104 147 84 65 -109 178 35 142c-113,188 -15,169 -89,285 -77,-32 -70,-20 -91,-131 -64,-333 -93,-929 287,-1044 94,-119 175,-141 173,-325 -114,82 -154,243 -329,255 -61,-122 -58,-238 13,-349l-6 -21 -20 -15c-144,229 -22,366 -139,636 -250,578 -8,1017 -12,1270 -4,235 -164,395 -187,575 180,-81 133,-237 294,-269 -30,168 -176,492 14,601l-116 80c-124,-2 -384,31 -473,-9z"/>
   <path class="fil16" d="M4774 20673l2 77c149,-20 421,-224 527,-323 197,-183 259,-256 405,-499l90 -14c203,-28 376,79 546,176 172,98 296,118 475,185 16,-195 43,-651 169,-790 109,8 200,37 315,24 99,-10 143,-54 229,-40 43,228 -52,341 73,544 39,-59 22,-54 90,-112l-77 -70c2,-119 17,-233 -15,-349 -90,-330 107,-302 210,-842 -212,163 -265,975 -698,703 -378,-238 -358,-441 -743,-698l-71 -7c142,104 231,218 318,371 116,203 170,206 299,360 -194,207 -117,486 -231,634 -166,44 -542,-174 -644,-306 27,-194 124,-250 240,-377 -123,38 -298,235 -385,339 -115,136 -253,244 -341,374 -201,297 -469,491 -783,640z"/>
   <path class="fil17" d="M11064 21661l65 6 -29 248 222 -297c112,94 126,190 243,256 81,-61 113,-114 165,-192 65,77 80,87 56,162 113,89 127,122 213,251 59,87 140,217 222,262 -5,-101 -56,-163 -126,-250 33,-105 27,-20 37,-130l-98 26 -126 -252c212,-264 275,-487 314,-525 -1,68 -3,41 -8,91l-8 98 106 -79c93,234 248,682 400,865 77,-52 13,-1 20,-55 -23,-97 -152,-333 -199,-455 -52,-138 -122,-377 -203,-475l-23 67c-132,-100 -61,-303 -123,-450l-153 367 -10 -181c-102,42 -183,265 -258,363 -24,-127 4,-128 -69,-236l-83 195c-5,-111 -1,-62 -51,-135 -200,104 -254,402 -363,468 -27,-128 -5,-92 -4,-214 -80,35 -116,121 -129,201z"/>
   <path class="fil18" d="M10106 21207l145 151c31,-236 107,-375 195,-583l-83 -69 -114 187 -22 -130c-10,-107 -19,-93 0,-202 -129,-135 -83,75 -182,-138 29,-12 23,-37 137,-7l-174 -31 89 -74c-77,-70 -121,-201 -112,-303 143,19 71,92 208,105 99,10 119,-35 267,-4 -40,162 -173,111 -289,241 225,60 207,46 133,80l170 49 -3 86 55 -70c126,1 181,-38 230,29 -72,-86 -15,-21 -13,-96 38,-14 82,-32 120,-56 75,-47 65,-43 77,-95l-18 -71c11,-5 25,-21 29,-13l82 -21c-67,-89 -164,-266 -405,-172 -135,53 -174,106 -301,31 44,-141 18,-70 148,-142 -81,-37 -60,-10 -168,-3l-33 -95c-74,144 9,92 -142,225 -5,4 -14,11 -20,17 -27,-152 15,-128 -7,-280l-97 -63c-96,92 -71,64 -110,180 -28,84 -71,120 -111,206 11,211 101,227 126,329 26,110 -40,243 122,327l8 -194c223,199 177,473 160,643l-97 26z"/>
   <path class="fil19" d="M10526 20495l-55 70 -38 52c-49,-66 -26,-60 -89,-69 -48,-7 -65,-10 -117,13 -19,109 -10,95 0,202l22 130 114 -187 83 69c-88,208 -164,347 -195,583l218 25 16 -152c74,42 154,154 124,258l-356 -44 -62 27c76,51 22,61 162,91 363,78 383,-213 482,-359 122,-179 248,-1 244,-609 0,-113 41,-185 -64,-200 -196,109 -149,158 -364,225l-13 254c-116,-45 -126,-271 -112,-379z"/>
   <path class="fil20" d="M7760 22349c368,-242 374,-19 526,288 93,-158 182,-60 404,-155 13,-196 -319,-466 -502,-536 -153,-59 -502,-365 -571,-499 13,-115 -9,-15 49,-58l-23 -32 -55 134c-38,154 -78,186 -109,280 -27,79 38,347 65,436 113,-4 129,-8 244,38l-28 104z"/>
   <path class="fil21" d="M5073 14336c579,-156 607,-275 1418,-340 576,-47 1160,45 1734,54l166 -164c-78,0 -118,7 -184,12l-607 -52c-531,-103 -1669,-28 -2193,155 8,67 -5,17 30,75 -234,53 -92,62 -343,44l-21 216z"/>
   <path class="fil13" d="M6526 18540l158 40c6,54 18,70 45,117 -117,36 -61,-35 -102,49 94,65 80,15 203,49l-20 143c135,31 98,-7 204,-10l-6 186 167 -34 18 132c237,57 415,-438 376,-555 -76,-39 -123,-15 -198,-2l18 -174 -192 30 25 -167c-117,-4 -77,5 -171,28l24 -139c-198,-25 -553,122 -549,307z"/>
   <path class="fil22" d="M13290 22994l-16 137c-157,27 -371,-8 -513,-66 -162,-65 -12,-44 -204,-41 -69,1 -223,-36 -256,19 75,30 149,71 212,97 86,36 207,42 303,62 199,41 384,105 558,-16l224 18 80 341c35,-157 28,-367 118,-486 211,17 178,235 228,468 72,-165 58,-346 97,-518 89,102 23,189 106,292 59,-283 57,-686 -103,-928l-247 -2 194 10c55,130 89,215 83,358 -72,-63 0,-26 -97,-59 -13,161 64,154 -11,297 -190,-30 -65,-23 -161,-164l-150 -21 -8 230 -95 -80c-110,-122 -34,7 -283,-196 -17,101 15,204 -59,248z"/>
   <path class="fil16" d="M6267 22292l-212 -53c-198,174 -235,730 -142,916 42,-136 53,-329 190,-384 160,218 53,259 420,248l-31 -38c55,-51 -55,-26 81,-58 37,-203 107,-472 106,-583 65,-39 8,-33 83,2l-150 -108 -98 81 -247 -23z"/>
   <path class="fil22" d="M8969 15331c221,-301 78,-504 313,-559 67,88 43,100 51,216l56 -76 72 340c124,8 28,-8 95,35 -23,146 -78,329 15,456l121 -609 49 57c40,-174 -15,-344 -109,-479l81 -26c-51,-75 -136,-156 -169,-223 -47,-93 -25,-169 -75,-277l-51 -48c-7,75 -3,115 -51,173l-159 220c-39,165 47,62 -116,319 -105,163 -42,94 -82,251 -26,101 -167,156 -41,230z"/>
   <path class="fil23" d="M7835 19282c-151,209 -56,67 -79,449 -8,141 -27,306 46,429 264,20 332,-491 313,-697 -12,-135 -43,-271 -58,-409 -17,-156 17,-341 -26,-485 -159,-28 -178,278 -222,481 -31,147 -12,115 26,232z"/>
   <path class="fil24" d="M8505 15387l-45 -11c-56,62 -57,65 -168,63 -280,-4 -307,-167 -354,-201 -82,160 -47,227 -235,308l-324 80c-102,-10 100,36 -53,-16 -148,-50 40,45 -46,-42 48,-34 14,-18 72,-40 75,-28 635,-98 484,-561 -116,20 -127,97 -224,166l-681 412c109,-30 109,50 129,77 -19,9 -26,45 -87,118 -63,75 -309,280 -400,290l-355 222c203,-38 385,-156 543,-275 116,-88 384,-302 508,-352l55 84 142 19c56,-46 276,-142 376,-256 51,-58 43,-83 108,-147 148,201 309,256 562,163 304,-113 233,-245 383,-423 -1,-80 -1,-170 74,-232 -10,63 -34,48 -66,60 -33,207 -194,449 -398,494z"/>
   <path class="fil25" d="M13669 22428c-170,59 -81,58 -152,99 -87,-49 -145,-13 -235,-4 3,188 61,267 8,471 74,-44 42,-147 59,-248 249,203 173,74 283,196l95 80 8 -230 150 21c96,141 -29,134 161,164 75,-143 -2,-136 11,-297 97,33 25,-4 97,59 6,-143 -28,-228 -83,-358l-194 -10 -208 57z"/>
   <path class="fil26" d="M8604 12018c246,-32 373,28 536,144l185 235c45,59 86,17 56,145l92 44 -8 95c82,39 97,67 62,157 133,62 64,85 85,170 23,95 84,277 17,452 -71,184 -280,365 -418,366l-22 -181 -12 128 -99 62c4,93 13,96 -23,167 -133,225 -71,56 -188,225l12 94c180,-62 125,-208 501,-271 -12,-119 3,-24 -26,-96 -49,-124 -7,57 -15,-29 -1,-7 -5,-9 -6,-13 530,-253 462,-699 274,-1169 -212,-529 -392,-782 -916,-816l-87 91z"/>
   <path class="fil27" d="M6712 21972c214,230 330,-84 327,-133l-51 -107c130,-102 96,-31 191,-363l-72 -109 116 -40c39,-175 183,-467 116,-619 -195,-43 -267,597 -475,1027 -64,133 -162,187 -152,344z"/>
   <path class="fil27" d="M7296 20251c61,142 312,265 467,296l95 0 74 -139 292 -15 -13 -126c-189,-72 -397,299 -699,-72 -131,-161 -212,-513 -435,-511 -27,119 14,208 63,316l156 251z"/>
   <path class="fil23" d="M8538 18476c23,-116 0,-40 -5,-165 69,-87 101,-76 111,-199l-93 6c-380,115 -351,711 -287,1044 21,111 14,99 91,131 74,-116 -24,-97 89,-285l-35 -142 109 -178 -84 -65 104 -147z"/>
   <path class="fil28" d="M8088 17946l-47 32c-66,-20 -101,-8 -180,20l122 -116 -80 -38 128 -55c-35,-40 -76,-47 -135,-49 46,-2 199,-85 232,-134 -121,-32 -169,-3 -291,-18 85,-69 134,-29 219,-118l-119 -65c-105,10 -203,42 -287,107 -7,6 -15,14 -22,21 133,66 86,44 98,74 -116,107 -107,-29 -176,132l199 0 -183 97 231 39 -143 103 92 50c-62,82 -75,83 -76,184l157 -136c50,87 31,65 38,164 115,-161 46,-93 139,-107l84 -187z"/>
   <path class="fil29" d="M6673 20495c-45,31 -91,90 -158,131 -76,47 -134,57 -196,117 -34,180 187,440 324,477 69,-38 138,-716 158,-838 -123,31 33,74 -128,113z"/>
   <path class="fil30" d="M6906 15036c-189,-28 -1080,404 -1128,479 128,17 884,-239 1118,-313 71,-22 287,-99 345,-130l2 -72c-64,5 -52,7 -115,6 -68,-1 1,-46 -84,29l-138 1z"/>
   <path class="fil31" d="M8023 11773c-9,255 -113,274 -239,464l71 90 93 -10 316 -425c-20,-71 -305,-578 -363,-627l-117 96c48,87 83,83 136,184 36,69 73,158 103,228z"/>
   <path class="fil25" d="M8725 20628l62 -35c18,135 9,478 146,541l39 -220c131,179 105,369 170,530l83 -165c57,91 174,309 269,334l-20 -196c180,46 204,206 322,307 -29,-252 -127,-323 -352,-402l-60 109 -172 -295 -41 70c-30,-123 -126,-355 -205,-454l-85 130 -31 -462c-98,37 -124,89 -125,208z"/>
   <path class="fil13" d="M8978 16313c-11,-33 -118,-709 -453,-703 -7,87 94,776 453,703z"/>
   <path class="fil23" d="M12841 22753c-13,212 89,236 279,263l150 -111c25,-125 1,-238 -139,-266 -187,-37 -187,6 -290,114z"/>
   <path class="fil27" d="M8460 15376l45 11c41,-38 69,-59 111,-92 99,-76 46,1 68,-101 -17,-7 -354,-62 -400,-67l-81 93 -8 -155 -114 4c-17,25 -37,101 -73,166 77,74 71,88 167,44l48 103 237 -6z"/>
   <path class="fil23" d="M12132 21977c164,168 58,248 324,426l166 -157c-81,-150 -309,-314 -448,-409 -16,49 -15,23 -70,76l28 64z"/>
   <path class="fil32" d="M6906 15036l138 -1c85,-75 16,-30 84,-29 63,1 51,-1 115,-6l-2 72 66 -21 39 25c48,-26 325,-242 351,-281 -42,-94 -76,-111 -172,-145 5,97 -47,86 -116,121 -78,40 -43,55 -156,103 -115,48 -268,74 -347,162z"/>
   <path class="fil33" d="M11451 18940c94,9 69,3 163,-31 9,28 7,30 8,58 12,178 -23,-100 3,56 220,14 110,-88 245,-155 55,128 15,348 -8,409 -20,53 -57,24 13,136 128,-111 136,-506 48,-645 -170,-51 -373,35 -472,172z"/>
   <path class="fil19" d="M7900 14366c-48,84 -120,125 -110,235 128,37 242,23 368,-4 79,-129 138,-211 -3,-339 -85,85 -122,103 -255,108z"/>
   <path class="fil34" d="M10182 20416l122 14c74,-34 92,-20 -133,-80 116,-130 249,-79 289,-241 -148,-31 -168,14 -267,4 -137,-13 -65,-86 -208,-105 -9,102 35,233 112,303l-89 74 174 31z"/>
   <path class="fil13" d="M8402 17678l6 21 -16 283c129,-1 297,-192 229,-300 103,-68 97,-69 89,-207 -175,-35 -194,121 -308,203z"/>
   <path class="fil35" d="M12355 22784l126 122c21,8 325,66 268,-226 -164,-100 -143,-2 -276,-79 -86,74 -96,53 -118,183z"/>
   <path class="fil31" d="M8867 14227c117,-169 55,0 188,-225l10 -286c-97,13 -107,30 -108,120l-124 -13c30,89 52,87 -55,95 79,149 22,12 17,106l-7 88c-8,61 -36,56 25,157l54 -42z"/>
   <path class="fil36" d="M10526 20495c-14,108 -4,334 112,379l13 -254c215,-67 168,-116 364,-225l11 -115 -86 -3c-12,52 -2,48 -77,95 -38,24 -82,42 -120,56 -2,75 -59,10 13,96 -49,-67 -104,-28 -230,-29z"/>
   <path class="fil16" d="M9051 17618l260 -5c-37,-130 -163,-111 -232,-194 141,-23 135,3 258,19 -72,-117 -218,-155 -357,-149 -29,-48 -15,1 12,-54l-212 96c126,24 189,-4 268,87 -96,113 -46,37 -161,67l164 133z"/>
   <path class="fil37" d="M7814 22361c-7,74 15,192 62,239 141,-33 80,-156 299,57 8,-153 -28,-263 -137,-364l-224 68z"/>
   <path class="fil38" d="M7722 11227c-86,173 -246,58 -220,264 66,-5 20,27 85,-51 14,28 1,33 59,68 64,-16 126,-31 129,-68 115,83 138,245 248,333 -30,-70 -67,-159 -103,-228 -53,-101 -88,-97 -136,-184l117 -96 -21 -65c-115,31 -30,26 -158,27z"/>
   <path class="fil36" d="M10628 21353c99,-33 15,25 92,-60 155,-171 190,-296 264,-452 46,-94 101,-96 24,-196 -5,8 -11,11 -15,25 -3,13 -10,17 -14,22l-38 48c-63,77 -45,102 -85,182l-230 305c-33,57 -20,59 2,126z"/>
   <path class="fil33" d="M9979 18629c-58,123 -50,312 6,428 102,-110 0,-91 34,-333 85,54 -9,89 186,155l-20 -107 119 60c24,-119 7,-108 -108,-173 -87,-48 -126,-71 -217,-30z"/>
   <path class="fil23" d="M7236 22401l5 -16c-101,-83 13,-10 -76,-142 -139,57 -177,292 -139,433 167,45 227,-127 210,-275z"/>
   <path class="fil39" d="M10122 21374c83,117 10,44 131,71l356 44c30,-104 -50,-216 -124,-258l-16 152 -218 -25 -145 -151 16 167z"/>
   <path class="fil40" d="M7817 14558c181,29 377,-24 349,-242 -108,17 -276,123 -349,242z"/>
   <path class="fil39" d="M10227 20561c52,-23 69,-20 117,-13 63,9 40,3 89,69l38 -52 3 -86 -170 -49 -122 -14c-114,-30 -108,-5 -137,7 99,213 53,3 182,138z"/>
  </g>
  <path class="fil1 str1" d="M10553 24576c1811,-27 4383,-473 5880,-1050 -184,-1733 -709,-11944 -709,-11944 0,0 551,1339 840,2074 1234,-105 3229,-342 4016,-1628 -761,-1785 -1339,-3832 -1942,-5171 0,0 -2730,-998 -4883,-1680 0,0 -236,-79 -341,105 -788,1102 -1181,1864 -2940,1864l0 0c-1680,-27 -2100,-762 -2861,-1864 -132,-184 -368,-105 -368,-105 -2126,656 -4882,1680 -4882,1680 -604,1339 -1182,3412 -1943,5171 788,1260 2730,1523 4016,1628 289,-735 840,-2074 840,-2074 0,0 -551,10211 -708,11944 1522,577 4068,1050 5880,1050l0 0"/>
 </g>
</svg>
