<?xml version="1.0" encoding="utf-8"?>
<!-- Generator: Adobe Illustrator 22.0.0, SVG Export Plug-In . SVG Version: 6.00 Build 0)  -->
<svg version="1.1" id="Layer_1" xmlns="http://www.w3.org/2000/svg" xmlns:xlink="http://www.w3.org/1999/xlink" x="0px" y="0px"
	 viewBox="0 0 80 77.1" style="enable-background:new 0 0 80 77.1;" xml:space="preserve">
<style type="text/css">
	.st0{fill:#00365A;}
	.st1{fill:#D5AF30;}
	.st2{fill:#0F5B78;}
	.st3{clip-path:url(#SVGID_2_);}
	.st4{fill:#244982;}
	.st5{fill:#117493;}
	.st6{fill:none;stroke:#0DB3F0;stroke-miterlimit:10;}
	.st7{fill:#ECD4A0;}
	.st8{fill:none;stroke:#ECD4A0;stroke-width:0.25;stroke-miterlimit:10;}
	.st9{fill:none;stroke:#032A3F;stroke-width:3;stroke-miterlimit:10;}
	.st10{fill:none;stroke:#000000;stroke-width:2;stroke-linecap:round;stroke-linejoin:round;}
</style>
<g>
	<g>
		<path class="st0" d="M40.2,75.6c6.9-0.1,16.7-1.8,22.4-4c-0.7-6.6-2.7-45.5-2.7-45.5s2.1,5.1,3.2,7.9c4.7-0.4,12.3-1.3,15.3-6.2
			C75.5,21,73.3,13.2,71,8.1c0,0-10.4-3.8-18.6-6.4c0,0-0.9-0.3-1.3,0.4c-3,4.2-4.5,7.1-11.2,7.1l0,0c-6.4-0.1-8-2.9-10.9-7.1
			c-0.5-0.7-1.4-0.4-1.4-0.4C19.5,4.2,9,8.1,9,8.1c-2.3,5.1-4.5,13-7.4,19.7c3,4.8,10.4,5.8,15.3,6.2c1.1-2.8,3.2-7.9,3.2-7.9
			S18,65,17.4,71.6c5.8,2.2,15.5,4,22.4,4l0,0"/>
		<g>
			<path class="st1" d="M59.9,26.1c0,0,2.1,5.1,3.2,7.9c4.7-0.4,12.3-1.3,15.3-6.2C75.5,21,73.3,13.2,71,8.1c0,0-3.7-1.4-8.5-3"/>
			<path class="st1" d="M66.7,9.2c-9.4,0-12.4,12.2-12.4,12.2s-1-11.8,7.8-16.2C63.3,4.6,69.3,9.2,66.7,9.2z"/>
			<path class="st1" d="M64.4,15.7c-6.6-0.1-8.6,12-8.6,12S55,15.9,61.1,11.6C62,11,66.3,15.7,64.4,15.7z"/>
		</g>
		<g>
			<path class="st2" d="M17.5,5.1c-4.7,1.6-8.5,3-8.5,3C6.7,13.2,4.5,21,1.6,27.8c3,4.9,10.6,5.8,15.3,6.2c1.1-2.8,3.2-7.9,3.2-7.9"
				/>
			<path class="st2" d="M13.3,9.2c9.4,0,12.4,12.2,12.4,12.2s1-11.8-7.8-16.2C16.7,4.6,10.7,9.2,13.3,9.2z"/>
			<path class="st2" d="M15.6,15.7c6.6-0.1,8.6,12,8.6,12s0.8-11.8-5.3-16.1C18,11,13.7,15.7,15.6,15.7z"/>
		</g>
	</g>
	<g>
		<g>
			<g>
				<g>
					<g>
						<g>
							<g>
								<g>
									<g>
										<g>
											<g>
												<g>
													<g>
														<g>
															<defs>
																<path id="SVGID_1_" d="M40.2,75.6c6.9-0.1,16.7-1.8,22.4-4c-0.7-6.6-2.7-45.5-2.7-45.5s2.1,5.1,3.2,7.9
																	c4.7-0.4,12.3-1.3,15.3-6.2C75.5,21,73.3,13.2,71,8.1c0,0-10.4-3.8-18.6-6.4c0,0-0.9-0.3-1.3,0.4
																	c-3,4.2-4.5,7.1-11.2,7.1l0,0c-6.4-0.1-8-2.9-10.9-7.1c-0.5-0.7-1.4-0.4-1.4-0.4C19.5,4.2,9,8.1,9,8.1
																	c-2.3,5.1-4.5,13-7.4,19.7c3,4.8,10.4,5.8,15.3,6.2c1.1-2.8,3.2-7.9,3.2-7.9S18,65,17.4,71.6c5.8,2.2,15.5,4,22.4,4
																	l0,0"/>
															</defs>
															<clipPath id="SVGID_2_">
																<use xlink:href="#SVGID_1_"  style="overflow:visible;"/>
															</clipPath>
															<g class="st3">
																<g>
																	<path class="st1" d="M41.6,48.8C48,49.3,51,44,51,44s-4.3,8.1-10.4,9.2C39.8,53.4,39.9,48.6,41.6,48.8z"/>
																	<path class="st1" d="M40,52.1c5.9,2.3,10.7-1.8,10.7-1.8s-7.2,6.5-13.3,5.8C36.6,55.9,38.5,51.5,40,52.1z"/>
																	<path class="st1" d="M38.4,55c5,3.5,10.9,0.6,10.9,0.6s-8.8,4.7-14.5,2.7C34,58,37.1,54.1,38.4,55z"/>
																	<path class="st1" d="M24.8,39.8c-3.4-4.7,0.7-9.4,0.7-9.4s-6.5,7-4.9,12.1C20.8,43.2,25.7,41,24.8,39.8z"/>
																	<path class="st1" d="M22.7,65.2c2.7,5.4,6.5,5.7,6.5,5.7s-5.7-0.2-9-4.6C19.8,65.7,22,63.8,22.7,65.2z"/>
																	<path class="st1" d="M21.7,65.5c-3.8,7.7,0.7,11.1,0.7,11.1s-5.2-5.2-3-12.5C19.7,63,22.7,63.5,21.7,65.5z"/>
																	<path class="st1" d="M22.7,42.6C17,40,18,34.1,18,34.1s-1.8,8.8,2.5,12.6C21.2,47.3,24.2,43.3,22.7,42.6z"/>
																	<path class="st1" d="M23.2,46.3c-6.5-0.4-8.2-6.1-8.2-6.1s2.4,8.6,8.2,10.6C24,51.1,24.9,46.4,23.2,46.3z"/>
																	<path class="st1" d="M24.7,57.4c-1.4,0.5-2.1,1.7-2.5,2.9c-1.1,3.6,2.3,9.3,2.3,9.3s-7.7-7.8-4.1-12.2
																		C24.5,52.4,26.3,56.8,24.7,57.4z"/>
																	<path class="st1" d="M21.4,63.1c-0.1,1.3,2.4,7.2,3.5,8c3.3,2.4,10.7,2.1,10.7,2.1S24.1,76,21.1,71.3
																		c-1.6-2.5-2-10.5-1.5-12C20.1,57.6,21.5,62.4,21.4,63.1z"/>
																	<path class="st1" d="M37.7,49.2c0,0.3-0.4-0.4-1.8-0.2c-1.4,0.2-3.8,1.5-4,0.3c-0.2-1.1,0.8-2.2,2.2-2.4
																		C35.6,46.7,37.5,48,37.7,49.2z"/>
																	<path class="st1" d="M31.4,51.3c0.3,1.6-1.8,4.9-3.8,5.2s-4.7,2.2-5,0.6S25,51,27,50.7
																		C29.1,50.4,31.1,49.7,31.4,51.3z"/>
																	<path class="st1" d="M33.2,47.8c0,0-2.6,0.2-3.6-0.5s1.4,1.5,1.4,1.5l-3.1,0.5l1.9,1.9l0.8,2.9c0,0,1.7-4,3.3-4.9
																		S33.2,47.8,33.2,47.8z"/>
																	<path class="st1" d="M45.7,40.8c0.5-0.8,3.7-4.7,1.8-0.1c-2.2,5.5-5.4,17.6-8.4,18.2c-5.2,0.9-14.8-1.4-17.2-5.6
																		c-4.2-7.6-3.1-11.9,3.2-16.8c10-7.8,2.9-1.6,0,5.1c-1.2,2.8-0.6,5.2,0.6,7.5c1.6,3,6.1,3.6,8.4,3.8
																		C37.8,53.2,37.1,54.3,45.7,40.8z"/>
																</g>
																<path class="st0" d="M29.3,55.5c-1.7,1.4-3.8,1.2-3.3,1.7s2.6,0.2,4.3-1.3c1.7-1.4,2.2-3.6,1.7-4
																	C31.5,51.4,31.1,54.1,29.3,55.5z"/>
															</g>
														</g>
													</g>
												</g>
											</g>
										</g>
									</g>
								</g>
							</g>
						</g>
					</g>
				</g>
			</g>
		</g>
	</g>
	<g>
		<path class="st4" d="M46.1,22c0,0,4-2.2,7.4,0.3c0,0-1.1,7.2-3.6,7.4C48.8,29.7,46.3,27,46.1,22z"/>
		<polygon class="st5" points="51.8,26.8 47.9,26.8 48.7,23.5 51.2,23.5 		"/>
		<path class="st6" d="M46.1,22c0,0,4-2.2,7.4,0.3c0,0-1.1,7.2-3.6,7.4C48.8,29.7,46.3,27,46.1,22z"/>
		<g>
			<path class="st7" d="M52.3,23c0.3,0.4,0.2,1.5-0.7,2.2c-1,0.7-2-0.1-1.6-0.3c1-0.4,0-0.3,0.6-0.7c0.2-0.1,0.6-0.2,0.8-0.4
				C52.3,23.1,52,22.6,52.3,23z"/>
			<path class="st7" d="M47.5,23c-0.3,0.4-0.2,1.5,0.7,2.2c1,0.7,2-0.1,1.6-0.3c-1-0.4,0-0.3-0.6-0.7c-0.2-0.1-0.6-0.2-0.8-0.4
				C47.4,23.1,47.7,22.6,47.5,23z"/>
		</g>
		<g>
			<path class="st7" d="M49.9,27.3c0,0-1,0.9-0.7,1.3h1.5C50.8,28.2,50.3,27.7,49.9,27.3z"/>
			<path class="st7" d="M49.1,27.7c0,0-0.4,0.5-0.3,0.7h0.6C49.5,28.2,49.3,28,49.1,27.7z"/>
			<path class="st7" d="M50.6,27.7c0,0-0.4,0.5-0.3,0.7h0.6C51,28.2,50.8,28,50.6,27.7z"/>
		</g>
		<ellipse transform="matrix(0.982 -0.1887 0.1887 0.982 -3.711 9.8165)" class="st7" cx="49.7" cy="24.4" rx="0.2" ry="0.1"/>
		<ellipse class="st7" cx="49.9" cy="24.7" rx="0.1" ry="0.4"/>
		<g>
			<ellipse class="st7" cx="49.9" cy="25.3" rx="0.4" ry="0.5"/>
			<g>
				
					<ellipse transform="matrix(0.2042 -0.9789 0.9789 0.2042 13.8607 69.3773)" class="st7" cx="49.6" cy="26.2" rx="0.6" ry="0.1"/>
				<ellipse transform="matrix(0.9789 -0.2042 0.2042 0.9789 -4.251 10.7984)" class="st7" cx="50.2" cy="26" rx="0.1" ry="0.6"/>
			</g>
		</g>
		<circle class="st8" cx="49.2" cy="23" r="0.5"/>
		<line class="st8" x1="49.1" y1="24.5" x2="49.1" y2="23.4"/>
		<circle class="st8" cx="50" cy="22.5" r="0.5"/>
		<line class="st8" x1="50" y1="25.1" x2="50" y2="23"/>
		<circle class="st8" cx="50.8" cy="23" r="0.5"/>
		<line class="st8" x1="50.8" y1="24.5" x2="50.8" y2="23.5"/>
	</g>
</g>
<path class="st9" d="M52.3,1.6c0,4.3-4.9,8.8-12.3,8.8S27.7,5.9,27.7,1.6"/>
<path class="st10" d="M40.2,75.5c6.9-0.1,16.7-1.8,22.4-4C61.9,64.9,59.9,26,59.9,26s2.1,5.1,3.2,7.9c4.7-0.4,12.3-1.3,15.3-6.2
	C75.5,20.9,73.3,13.1,71,8c0,0-10.4-3.8-18.6-6.4c0,0-0.9-0.3-1.3,0.4c-3,4.2-4.5,7.1-11.2,7.1l0,0C33.5,9,31.9,6.2,29,2
	c-0.5-0.7-1.4-0.4-1.4-0.4C19.5,4.1,9,8,9,8c-2.3,5.1-4.5,13-7.4,19.7c3,4.8,10.4,5.8,15.3,6.2c1.1-2.8,3.2-7.9,3.2-7.9
	S18,64.9,17.4,71.5c5.8,2.2,15.5,4,22.4,4l0,0"/>
</svg>
