<?xml version="1.0" encoding="utf-8"?><svg version="1.1" id="Layer_1" xmlns="http://www.w3.org/2000/svg" xmlns:xlink="http://www.w3.org/1999/xlink" x="0px" y="0px" viewBox="0 0 80 77.1" style="enable-background:new 0 0 80 77.1;" xml:space="preserve"><style type="text/css"> .st0{fill:#130D0B;} .st1{fill:#330A10;} .st2{fill:#B5242B;} .st3{fill:#F5A643;} .st4{fill:#A82126;} .st5{fill:none;stroke:#000000;stroke-width:3;stroke-linecap:round;stroke-linejoin:round;} </style><g><g><polygon class="st0" points="28.4,1.3 30.5,4.2 33.5,7.4 38.2,9.1 44.7,8.5 48.3,5.9 50.6,2.7 51.8,1.6 71,8.1 78.4,27.8 72.5,32.2 63.1,34 59.9,26.1 62.6,71.6 55.8,73.6 49.1,74.8 44.7,75.7 39.8,75.6 17.4,71.6 20.1,26.1 16.9,34 8,32.4 2.1,27.8 9,8.1 "/><rect x="18.2" y="35.7" class="st1" width="42.4" height="33.1"/><polygon class="st2" points="20,45.3 29.6,41.3 39.2,24.8 21.8,23.8 "/><path class="st2" d="M34.1,73.5h-6c0-0.3-0.3-0.3-0.4-0.6s0.1-0.9-0.2-1.3c0-0.1,0-0.2-0.1-0.2s-0.1,0.1-0.1,0.2 c-0.1,0.3,0.3,0.4,0.2,0.6c-0.1,0.2-0.2,0.5-0.1,0.8c0.1,0.1,0.1,0.2,0.1,0.3h-2.1c-0.1-0.4-0.3-0.8-0.4-1.1 c-0.2-0.4-0.2-0.8,0-1.2c0.2-0.3,0.2-0.8,0-1.1c-0.1-0.4-0.4-0.7-0.1-1.2c0.1-0.1,0-0.2-0.2-0.3s-0.4,0.2-0.5,0.2 c-0.5-0.2-0.8-0.7-0.8-1.2c-0.2-0.7-0.5-1.3-0.9-1.9c0,0,0.1-0.4-0.2-0.2l0,0c0.1-0.2,0-0.5-0.2-0.6c-0.1-0.1-0.2,0.1-0.2,0.2 c0,0.4,0,0.8,0.1,1.2c0.1,0.4,0.2,0.8,0.2,1.2c-0.1,0.5,0,1.1,0.3,1.5c0.4,0.7,0.5,1.4,0.4,2.2v0.1c-0.1,0.8-0.1,1.5,0,2.3h-3.7 c-0.5-0.1-2.2-8.1-2-8.4c0.1-0.4-0.1-0.8,0.3-1.1c0.3-0.2,0.4-0.5,0.4-0.8c0-0.1,0.1-0.2,0.2-0.3c0.5-0.4,0.9-1,1-1.7V61l0.1,0.1 c0.1,0.7,0.5,1.2,1.1,1.5c0.4,0.2,0.9,0.1,1.2,0.5c0,0,0.7,0.4,0.8-0.3c0-0.3,0.4-0.1,0.5-0.2c0.1,0.1,0.1,0.2,0.2,0.3 c0.2,0.3,0.1,0.6,0.6,0.7c0.3,0,0.5,0.1,0.7,0.3c0.1,0.2,0.2,0.2,0.3,0.1l0,0c0,0.1,0.1,0.1,0.1,0v-0.3c-0.3-0.4-0.4-0.9-0.4-1.4 c0-0.2,0-0.4-0.2-0.4c-0.4,0-0.9-0.2-1.3,0.1h-0.2v-0.1c0.6-0.2,0.4-0.8,0.4-1.1c0-0.7-1.2-1.9-2.1-1.7c-0.2,0-0.9,0.2-0.6-0.6 v-0.3c-0.2-0.5,0-0.8,0.3-1.2s0.8-0.5,1.2-0.8s0-0.7,0.3-1c0.7-0.6,1.4-1.4,1.9-2.2c0-0.1,0.2-0.2,0.4-0.3c0.4-0.2,1,0,1.2-0.4 c0.4-0.7,1.1-1,1.5-1.6c0.1-0.1,0.2-0.2,0.4-0.3c0.2-0.1,0.5-0.4,0.4-0.5s-0.2-0.9-0.8-0.6h-0.3c-0.1-0.1,0-0.1,0-0.2 s0-0.2-0.1-0.2c-0.5-0.2-0.6-0.5-0.7-1c0-0.1-0.1-0.1-0.2-0.1c-0.4-0.1-0.9-0.1-1.1-0.6c0-0.1-0.2-0.2-0.3-0.2 c-0.2,0.3-0.7,0.3-0.8,0.8c0,0.1-0.1,0.2-0.1,0.3c-0.6,1.1-1.8,1.5-2.6,2.2c-0.2,0.1-0.6,0.2-0.7,0.1c-0.4-0.4-0.6-0.2-0.9,0.1 c-0.1,0.3-0.4,0.4-0.7,0.3c0,0,0,0,0,0c-0.1,0-0.1,0-0.1-0.1c-0.1-0.1,0.4-3.7,0.7-4.2c0.2-0.4,0.6-0.7,1-0.8l0,0 c0.7-0.4,0.5-1.3,1.2-1.6l0,0c-0.2-0.3,0.1-0.4,0.2-0.4c0.2,0,0.4,0.1,0.5,0.2c0.4,0.4,0.8,0.4,1,0c0.1-0.2,0.3-0.5,0.4-0.7 c0.1-0.5,0.7-0.2,0.9-0.6c0.1-0.2,0.5,0,0.8,0.1c0.1,0.1,0.4,0,0.4-0.3c-0.2-0.5,0.2-0.5,0.5-0.5c0.3-0.1,0.5-0.1,0.8-0.1 c0.1,0,0.1-0.1,0.2-0.1v-0.1c-0.3,0-0.3-0.2-0.3-0.5c-0.1-0.5,0.2-1.1,0.8-1.2c0,0,0,0,0,0l0,0c0.1,0,0.1,0,0.1-0.1l-0.1-0.1 c0-0.1-0.2,0-0.2-0.1s0.2-0.1,0.2-0.1c0.2,0,0.6,0.2,0.7,0.1c0.4-0.5,1-0.9,1.6-1.1c0.2-0.1,0.3-0.3,0.5-0.4 c0.3-0.3,0.4-0.6,0.3-0.8c-0.5-0.8-0.1-1.2,0.5-1.5c0.3-0.1,0.6-0.5,1-0.2c0.2,0.2,0.8,0.3,0.7,0c-0.1-0.6,0.5-1.2-0.1-1.7 c-0.1-0.2-0.2-0.3-0.3-0.5c0.1-0.7,0-1.3-0.4-1.9c-0.2-0.5-0.3-1-0.4-1.5c-0.1-0.6-0.4-1.1-0.5-1.6c-0.2-0.5-0.4-1-0.6-1.4 c-0.1-0.5-0.2-0.9-0.3-1.4c-0.1-0.2-0.3-0.3-0.5-0.3c-0.2,0-0.4,0.1-0.3,0.4l0,0c-0.2,0-0.3,0.2-0.4,0.3c-0.4,0.3-1,0.4-1.2,1 s-0.5,0.4-0.9,0.5s-1,0.3-1.1,0.8s-0.3,0.7-0.4,1.1s0.1,0.6-0.1,0.7c-0.5,0.5-1.3,0.5-1.7,1.3c-0.1,0.2-0.7,0.4-1,0.7L22.6,32l0,0 l0.1,0.1c0,0.1,0.3,0.2-0.1,0.3c-0.2,0.1-0.5-0.2-0.6,0.2c0,0.1-0.3,0.4-0.4-0.1c0-0.1-0.1-0.2-0.2-0.1c-0.2,0.1-0.3,0.3-0.4,0.5 l0,0c-0.1,0-0.2-0.1-0.3-0.1c-0.6,0-1.1,0.6-1.7,0.1c-0.1-0.1-0.3-0.1-0.3-0.3c-0.4,0.3-0.8-0.4-1.3-0.1c-0.2,0.1-0.2,0.3-0.3,0.4 c-0.3,0.2-0.4,0.5-0.5,0.8c-0.4,0.5-1.1-14.4-1.1-14.4c0.2,0.2,0.4,0.3,0.6,0.5c0.1,0.2,0.3,0.3,0.5,0.2c0,0,0,0,0,0 c0.1,0,0.2-0.1,0.2-0.2c0.1-0.1,0.2-0.1,0.4,0c0.6,0.6,0.2,1.2,0.2,1.9c0,0.1-0.2,0.3,0,0.4s0.4,0.2,0.6-0.1 c0.2-0.3,0.6-0.4,0.9-0.4c0.2,0,0.5,0.1,0.7-0.2l0,0c0.2-0.1,0.1-0.4,0.3-0.4c0.4,0.1,0.4-0.2,0.5-0.4s0-0.1,0.1-0.2 s0.1,0.1,0.2,0.1c0.4,0.4,0.8,1,1.4,0.9c0.4-0.1,0.7,0.2,0.8,0.6l0,0c0,0.5,0.3,0.7,0.6,0.7c0.3,0,0.6-0.1,0.8-0.4 c0.2-0.3,0.6-0.1,0.8-0.2c0,0.6,0.4,0.4,0.7,0.4s0.5-0.2,0.8-0.2l0,0c-0.1-0.4,0.3,0.1,0.3-0.2l0,0c0.2,0,0.3-0.2,0.5-0.3l0,0 c0-0.1-0.1-0.3-0.1-0.4l0,0c-0.2-0.3,0.1-0.6,0.2-0.9s1-0.6,0.2-1.1c-0.1-0.1-0.3,0-0.4-0.2l0,0c-0.3,0.3-0.5,0-0.7-0.2 c-0.4-0.2-1.3,0.3-1.1-0.7c-0.1,0-0.1,0-0.1-0.1l0,0c-0.2-0.5-0.7-0.3-1-0.4s-0.2-0.5-0.5-0.3c-0.2,0.1-0.5,0.2-0.8,0.1 c-0.6-0.1-1.3-0.2-1.9-0.4h-0.1c-0.5-0.1-0.8-0.5-1.4-0.5l0,0c-0.2-0.1-0.5-0.3-0.7-0.4c0.3-0.4-0.2-0.6-0.3-0.8s-0.6,0.1-0.8-0.1 l0.1-0.1l0,0v0.1c-0.1-0.2-0.1-0.3-0.3-0.1s-0.2,0-0.3,0c-0.5,0.1-1-0.4-1.6-0.2v-2c0.1,0.1,0.1,0.1,0.2,0.1 c0.4,0.1,0.6,0.7,1.2,0.6c0.2,0,0.2-0.5,0.5-0.3s0.4,0.4,0.8,0.3c0.7-0.1,1.1,0.4,1.4,0.9c0.2,0.2,0.4,0.3,0.7,0.3l0,0 c0.1,0.1,0.1,0.2,0.2,0.2c0.4,0.1,0.7,0.5,1.3,0.4s0.7-0.2,0.6-0.6c-0.1-0.7,0.1-1,0.7-1.2c0.4-0.1,0.8-0.1,1.1,0.1 c0.8,0,1.6,0.2,2.4,0.5c0.6,0.2,0.9,1.1,1.8,0.7c0.1,0,0.1,0,0.1,0.1l0,0c0.1,0.4,0.4,0.1,0.6,0.2l0,0c0,0.2,0.3,0.1,0.4,0.3l0,0 l0.6-0.3l0,0c0.2-0.4-0.1-0.8-0.1-1.3c0-0.2-0.1-0.3,0.1-0.5c0.5-0.6,0.9-1.3,0.9-2.1c0.1-0.4,0.4-0.6,0.8-0.6 c0.5,0,0.9,0.4,1.1,0.8c0.1,0.2,0.4,0.1,0.4,0.5v0.2c0.1,0,0.2,0,0.2-0.1c0.2-0.2,0.3-0.1,0.5-0.1c0.5,0.1,1,0.5,1.3-0.2 c0.1-0.1,0.1-0.1,0.2,0l0,0c0.6,0.5,1.3,0.9,2,1.2c0.5,0.2,0.8,0.7,1.4,0.7c0,0,0.2-0.1,0.2,0c-0.3,0.5,0.2,0.4,0.3,0.4 c0.7,0.3,1.3,0.7,1.7,1.3c0.2,0.2,0.7,0.5,0.6,0.8c-0.1,0.5-0.4,1-0.8,1.4C41,18,41,18.1,41.1,18.2s0.5,0,0.7,0.3 c0-0.1,0.1-0.1,0.1-0.2l0,0c0.5,0.1,0.9,0.1,1.4,0c0.2,0,0.2,0.2,0.3,0.1c0.2-0.2,0.5-0.3,0.8-0.2c0.4,0.1,0.5-0.4,0.9-0.3 c-0.1-0.1-0.1-0.1-0.2-0.1s-0.2,0-0.2-0.1l0,0c0.3-0.6,0-1-0.5-1.3s-0.6-0.8-1-1.1c-0.1-0.1-0.2-0.3-0.1-0.5 c0-0.1,0.1-0.2,0.3-0.2c0.4,0,0.9-0.1,1.3-0.2l0,0c0.2-0.6,0.5-1.3-0.5-1.6c0,0-0.1-0.2,0-0.2c0.5-0.3,0.6-1,1.2-1.1 c0.1,0,0.3,0,0.4-0.1c0.2-0.2,0.3-0.1,0.5-0.1l0.1,0.1c-0.1,0.2,0,0.4-0.3,0.5c-0.1,0-0.1,0-0.1,0.1s0.1,0.2,0.1,0.3 c0.2-0.1,0.5,0,0.7,0s0.2-0.1,0.3-0.1v0.1c-0.1,0.1-0.2,0.2-0.4,0.3c-0.1,0-0.2-0.1-0.2,0.1s0.1,0.3,0.2,0.3 c0.4-0.2,0.9-0.2,1.3,0.1c0.3,0.2,0.8,0.4,0.7,0.8c-0.2,0.7-0.2,0.9,0.6,1l0,0c0,0.2,0,0.4,0.1,0.6c0.4,0.1,0.6,0.4,0.9,0.6 c0.3,0.2,0.1,0.3,0,0.5s-0.4,0.1-0.3,0.4c0.2-0.1,0.2,0.5,0.5,0.1h0.1c0.1,0.5,0.6,0.3,0.8,0.4c0.8,0.4,1.6,0.9,2.3,1.4 c0.5,0.2,1,0.6,1.4,0.6c0.6-0.1,1,0.7,1.7,0.4c0,0.1,0,0.1,0.1,0.1s0,0.1,0.1,0.2l0.1-0.1c0.2-0.1,0.4-0.3,0.6-0.1l0,0 c0.1,0,0.3,0.1,0.4,0.1c0.3,0.1,0.8,0.3,1-0.1c0.1-0.2,0.8-0.6,0-0.8c0-0.1,0-0.1,0.1-0.1c0.4-0.1,0.9-0.4,1.3,0.2 c0.1,0.1,0.1,0.1,0.2,0.1s0.1,0,0.1-0.1l0,0c0-0.2,0.1-0.3,0.1-0.5l0,0c0.4-0.2,0.8,0.1,1.2,0.1s1.1-0.6,1.5,0.3v1.5 c-0.3,0-0.8-0.1-0.7,0.5L63,21.3l0,0c-0.2-0.1-0.2,0.1-0.3,0.1s-0.1,0-0.2,0.1s-0.2-0.1-0.1-0.2l0,0c-0.1-0.3-0.3-0.5-0.5-0.1 c0,0.1-0.1,0.1-0.2,0l0,0c-0.1,0-0.2,0-0.2-0.1l0,0c-0.2,0-0.4-0.3-0.6,0s-0.2,0.2-0.4,0s-0.2,0-0.2,0.1c-0.1,0.1-0.1,0.2,0,0.3 c0,0,0,0,0,0l0,0c0.2,0.1,0.3,0.2,0.4,0.4l0,0c0.1-0.2,0.3-0.1,0.4,0c0.1,0.2,0.4,0.3,0.6,0.3c0.4-0.2,0.8-0.3,1.2-0.3l0,0 c-0.1,0.2-0.2,0.4-0.4,0.5c-0.4,0.4-0.6,0.7,0.2,0.8c0.2,0,0.3-0.2,0.4-0.3s0.1-0.1,0.2-0.1s0.2,0.2,0.2,0.3s-0.1,0.2-0.2,0.3 c-0.6,0.1-0.3,0.6-0.5,1s0.4,0.2,0.4,0.5l0,0c0,0.5,0.5,0.6,0.7,0.9v1.1c-0.2,0.1-0.1,0.3-0.3,0.5c-0.4,0.6-0.4,1.4-0.1,2 c0.1,0.1,0.1,0.3,0.1,0.5l0,0c0,0.4,0,0.8,0.2,1.2h0.1l-1.7,2.1c-0.9-0.4-1,1-1,1c0,0.1-0.1,1.7-0.8,2.8c-0.8,1.3-0.4,2.6-0.5,2.6 c-0.2,0.1,0,0.2,0,0.4s0,0.4-0.3,0.4c-0.4,0-0.7,0.2-0.8,0.6c-0.1,0.8-0.8,1-1.2,1.4c0-0.1,0.1-0.2-0.1-0.2h-0.1 c0,0.1,0,0.2,0.1,0.2c-0.2,0.2-0.4,0-0.5,0s-0.4-0.3-0.6-0.1s-0.4,0.5,0.2,0.5V43c-0.1,0.3-0.1,0.6,0.1,0.9V44h0.1 c-0.1,0.4-0.1,0.8-0.2,1.1s-0.1,0.6-0.3,0.6s-0.6,0.1-0.8-0.3c-0.1-0.2-0.1-0.4,0-0.6c0.2-0.2,0.5-0.5,0.8-0.4s0.2-0.1,0.3-0.1 s0-0.2-0.1-0.3c-0.3-0.4-0.8-0.5-1.1-0.7c-0.5-0.4-1.2-0.2-1.6,0.3c0,0,0,0,0,0c-0.1,0.1-0.1,0.1-0.1,0.2l0,0 c-0.1,0.1-0.3,0.2-0.3,0.3s0-0.2-0.2-0.2h-0.1c-0.4,0.6-0.4,0.1-0.5-0.2c-0.2-0.8-0.4-1.6-0.4-2.4c0-0.2,0.1-0.5-0.1-0.5 s-0.2,0.3-0.2,0.4c0,0.6-0.1,1.2-0.3,1.7l0,0c0,0.1,0,0.1,0.1,0.2c-0.3,0.2-0.3,0.7-0.1,0.9c0,0,0,0,0.1,0.1v0.2 c-0.6-0.1-0.2,0.3-0.3,0.5c-0.2,1,0.2,1.9-0.1,2.9c-0.2,0.5,0.3,1.1,0.1,1.6c0,0.2,0.1,0.2,0.2,0.1s0.2,0,0.3,0 c0.3,0.1,0.6,0.3,0.8,0.6c0.6,0.3,1.1,0.9,1.4,1.5c0.1,0.2,0.3,0.2,0.5,0.1s0.7-0.3,0.9-0.1c0.2,0.2,0.1,0.6-0.1,0.7 c-0.1,0-0.1,0.1-0.2,0.1c-0.4,0.1-0.7,0.4-0.9-0.1l-0.1-0.1v0.1c0.4,0.6-0.2,0-0.2,0.1c-0.4-0.2-0.6,0.3-0.9,0.3 c-0.6,0-1.1-0.4-1.8-0.5c-0.1,0-0.2-0.3-0.5-0.2s-0.7,0.2-0.7,0.6c-0.1,0,0.2,0.4-0.2,0.2c0,0-0.2,0-0.2,0.1c0,0.3-0.2,0.1-0.2,0 c-0.3-0.3-0.4-0.8-1-0.9c-0.2,0-0.6-0.2-0.8-0.2c-0.5,0-0.6-0.3-0.7-0.7s0.2-0.4,0.3-0.5s0.3,0.1,0.5,0.2c0.4,0.2,0.8,0.6,1.2-0.2 c0.2-0.4-0.2-1,0.4-1.1c0.3-0.1,0.5-0.2,0.7-0.5c0.3-0.3,0-0.7,0.2-1.1c0.1-0.1,0.1-0.2,0-0.4c0.2,0.5,0.1,0.5-0.1,0.5l0,0v-0.2 l0,0c-0.2-0.5,0.1-0.8,0.3-1.2s0.5-0.5,0.3-0.9c-0.1-0.2-0.6-0.1-0.5-0.5h-0.1c-0.3,0.1-0.6,0.2-0.9,0.4c-0.1,0.1-0.4-0.1-0.3,0.2 l0,0c-0.2,0.1-0.5,0.2-0.7,0.3c-0.5-0.1-0.9,0.1-1.3,0s-1,0.2-1.4,0s-0.9,0.2-1.3,0.2c-0.3,0-0.6-0.1-0.9-0.3 c-0.2-0.2-0.2-0.5-0.5-0.5c-0.3,0-0.5,0.2-0.6,0.5c-0.1,0.1-0.1,0.2-0.2,0.1c-0.3-0.5-1-0.7-1.6-0.4c0,0,0,0,0,0h-0.3 c0-0.1,0-0.1,0.1-0.1c0.5-0.3,0.4-0.8,0.4-1.2c0.1-0.9-0.8-1.1-1.3-1.6c-0.3-0.2-0.7-0.1-0.9-0.7c-0.1-0.3,0.3-0.4,0.2-0.7 c-0.1-0.3,0-0.5,0.2-0.7c0.1-0.1,0.2-0.3,0-0.4s-0.4-0.6-0.7-0.5s-0.5,0.4-0.9,0.1c0,0-0.4-0.2-0.6-0.1c-0.3,0.2-0.7,0.2-1,0.2 c-0.1,0-0.2-0.1-0.3-0.1c0.1-0.1,0.1-0.1,0.2-0.1c0.4-0.1,0.8-0.4,0.7-0.9c0,0,0,0,0,0l0,0c0-0.5-0.1-1,0.2-1.3s0.5-0.5,0.3-0.6 c-0.3-0.1-0.6-0.1-0.9,0c-0.2,0.2-0.5,0.2-0.8,0.1c-0.4-0.1-0.9-0.3-1.1,0.2c-0.2,0.7-0.8,1.1-1.1,1.7s-1,0.9-1.5,1.5 c-0.7,0.6-1.2,1.3-1.4,2.2c0,0.3-0.1,0.5-0.3,0.7c-0.5,0.5-0.4,0.8,0.2,1.1c0.2,0.1,0.3,0.3,0.3,0.5c-0.1,0.6,0,1.3,0.5,1.7 c0.3,0.3,0.6,0.7,0.5,0.9c-0.3,0.6,0.2,0.8,0.3,1.1c0.3,0.6,0.9,0.3,1.5,0.4c0.2,0,0.3-0.3,0.5-0.2c0.9,0.4,0.6-0.3,0.6-0.7V48 l0.1,0.1c0.2,0.3,0.5,0.6,0.7,0.9c0.1,0.1,0.4,0,0.3,0.2h0.3c0.4-0.1,0.6-0.2,0.7,0.3c0,0.2-0.1,0.6,0.3,0.6 c0.2,0,0.4,0.1,0.6,0.2l0,0c0.4,0.1,0.4,0.3,0.5,0.6V51l0.1-0.1c0.1-0.2,0.3-0.5,0.4,0c0.1,0.1,0.1,0.1,0.2,0.1 c0.4-0.2,0.2,0.1,0.2,0.2s0,0.1,0.1,0.1c0.4,0.4,0.7,0.1,1.1-0.1s0.9-0.3,1-0.8s0.4-1-0.1-1.5c-0.3-0.3-0.4-0.7-0.2-0.9 s0.7-0.1,1,0.1c0.6,0.3,1.4,0.3,1.9-0.2c0.1-0.1,0.3-0.2,0.4,0s0.6,0.5,0.5,1c0,0.1-0.1,0.5,0.3,0.5c0.1,0,0.4,0.1,0.4,0.3 c0,0.5,0.3,0.5,0.7,0.4c0.1,0,0.4-0.1,0.5,0.2c0,0.1,0.1,0.2-0.1,0.3v-0.1l0,0v0.1c0.1,0-0.3,0.5,0.2,0.2l0.2,0.1 c0.1,0.4,0.1,0.9-0.1,1.3c0,0.1-0.1,0.1-0.2,0.1c-0.2,0.1-0.3,0.2-0.3,0.4c0,0.6,0.5,1,1.1,0.9c0,0,0.1,0,0.1,0 c0.3,0,0.3,0.1,0.3,0.2c0.1,0.3,0.2,0.5,0.3,0.8c0,0.1,0.1,0.1,0.2,0.1v-0.1c0,0-0.2-0.1,0-0.1s0.1,0,0.1,0.1s0,0.4,0.2,0.5 s0.2,0.3,0.4,0.3s0.3,0.2,0.5,0.3s0.6,0.1,0.8,0.2s0.5,0.1,0.6-0.1s0.4-0.3,0.8-0.2c0.1,0,0.1,0.2,0.3,0.1c0.4-0.1,0.7-0.3,1-0.6 c0.2-0.3,0.3-0.2,0.5-0.1c0.6,0.4,1.1,0.8,1.6,1.3c0.6,0.6,1.4,1,1.8,1.8c0.2,0.3,0.5,0.6,0.8,0c0.1-0.1,0.2-0.2,0.4-0.2 c0.2,0.1,0,0.2,0,0.3c-0.1,0.2,0,0.5,0.2,0.6c0.2,0.1,0.2-0.2,0.3-0.3c0.1-0.2,0.3-0.3,0.5-0.4c0.4-0.1,0.7-0.6,0.6-1 c0-0.3,0.3-0.4,0.4-0.6s0.2,0,0.2,0.1c0.1,0.4,0.4,0.8,0.1,1.3c-0.1,0.1,0,0.2,0.1,0.3c0.3,0.5,1.1,0.5,1.2,1.2 c0.1,0.2,0.3,0.4,0.1,0.7c-0.1,0.1,0.1,0.2,0.2,0.2s0.4-0.1,0.5,0.1s0.1,0.1,0.1,0.2l0.2-0.2c0.1-0.1,0.1-0.4,0.3-0.3 s0.2,0.2,0.2,0.5v0.5c0.1,0,0.3,0.1,0.4,0v9.2c0,0.2,0,0.3-0.3,0.3s-0.7-0.1-0.9,0.2h-0.1c0,0,0-0.2-0.1-0.1s-0.4,0.3-0.2,0.5 c0.3,0.2,0.7,0.2,1.1,0.1h0.4c0.1,0.2,0.1,0.3,0,0.5c0,0.1-0.1,0.1-0.2,0.1c-0.4,0.1-0.8,0.1-1.2,0.2c-0.1,0-0.1,0.1-0.2,0.2 c0.1,0,0.1,0,0.2,0.1c0.4,0,0.8,0.1,1.3,0.1c0.1,0,0.1,0,0.2,0.1c-0.1,0-0.1,0.1-0.2,0.1c-0.8,0-1.6-0.1-2.4-0.1 c-0.1,0-0.3,0-0.2,0.1s0.6,0.4,0.8,0.3c0.5-0.3,0.7,0.1,1,0.3h-9.3c0-0.1,0.1-0.2-0.1-0.2c-0.4,0-0.4-0.4-0.4-0.6 c0-0.2,0-0.3,0.1-0.5c0-0.1,0-0.2-0.1-0.1c-0.4,0.2-0.8-0.1-1.1-0.1c-0.9-0.1-1.7-0.3-2.5-0.7c-0.3-0.1-0.5,0-0.8-0.2 c-0.5-0.3-1-0.4-1.6-0.3l-2,0.3c-0.4-0.1-0.7-0.4-1.2-0.3s-0.9,0.2-1.1-0.4l0,0c-0.1-0.1-0.2-0.4-0.3-0.4c-0.6,0-0.9,0.6-1.3,0.9 s-0.6,0.3-0.9,0.1c-0.5-0.3-1.2,0.1-1.7-0.3s-1.1,0.2-1.7,0.2c-0.6,0-1.1,0.2-1.6,0.4c-0.3,0.1-0.9,0-0.8,0.5S34,72.9,34.1,73.5z M43.9,18.1L43.9,18.1c0.1,0,0.1,0.1,0.2,0.1l0,0C44,18.2,44,18.1,43.9,18.1z M32.8,58.5L32.8,58.5c-0.1,0.2-0.1,0.2,0,0.2 M41.1,50.3L41.1,50.3c0.1-0.2,0-0.2,0-0.3V50.3z"/><path class="st3" d="M20,46.4c-0.4,0.3-0.8,0.5-1,0.9c-0.2,0.6,1-14.7,1.5-14.7c0.1,0,0.2,0,0.3,0.1l0,0c0.1-0.2,0.3-0.3,0.4-0.5 s0.2,0,0.2,0.1c0.1,0.5,0.3,0.1,0.4,0.1c0.1-0.4,0.4-0.1,0.6-0.2c0.4-0.1,0-0.2,0.1-0.3l0,0c0.3-0.3,1-0.5,1.1-0.7 c0.4-0.8,1.2-0.8,1.8-1.3c0.2-0.2,0-0.5,0.1-0.7c0.1-0.4,0.4-0.7,0.4-1.1c0.2-0.5,0.7-0.9,1.2-0.9c0.4,0,0.8,0,0.9-0.5 s0.9-0.7,1.3-1c0.1-0.1,0.2-0.3,0.4-0.3l0,0c0-0.2,0.1-0.4,0.3-0.4h0.1c0.2,0,0.5,0.2,0.5,0.3l0.3,1.5l0.6,1.5 c0.2,0.6,0.4,1.1,0.6,1.7c0.1,0.5,0.2,1.1,0.4,1.6c0.3,0.6,0.5,1.3,0.4,2c0,0.2,0.1,0.4,0.3,0.5c0.6,0.6,0,1.2,0.1,1.8 c0,0.3-0.5,0.2-0.7,0c-0.4-0.3-0.7,0.1-1,0.2c-0.7,0.3-1.1,0.8-0.6,1.6c0.1,0.3,0,0.6-0.3,0.8c-0.2,0.2-0.3,0.4-0.5,0.4 c-0.6,0.2-1.2,0.6-1.6,1.1c-0.1,0.1-0.4-0.1-0.7-0.1c-0.1,0-0.2,0-0.2,0.1s0.1,0.1,0.2,0.1l0.1,0.1c-0.1,0-0.1,0.1-0.2,0.1 c-0.6,0.1-0.9,0.7-0.8,1.3c0,0,0,0,0,0l0,0c0,0.3,0,0.5,0.3,0.5v0.1c-0.1,0.1-0.1,0.1-0.2,0.1c-0.3,0-0.5,0-0.8,0.1 c-0.3,0.1-0.6,0.1-0.5,0.6c0.1,0.3-0.2,0.3-0.4,0.3s-0.7-0.3-0.8-0.1c-0.3,0.3-0.8,0.1-1,0.6c-0.1,0.2-0.3,0.5-0.4,0.7 c-0.2,0.4-0.7,0.4-1.1,0c-0.1-0.1-0.3-0.2-0.5-0.2c-0.1,0-0.4,0.2-0.2,0.4l0,0C20.5,45.1,20.7,46.1,20,46.4L20,46.4 C20,46.3,19.9,46.3,20,46.4L20,46.4z"/><path class="st3" d="M27.1,54.3c0.7,0,1.4,0.2,1.9-0.4c0.1-0.2,0.3,0.1,0.4,0.1c0.6,0,0.6-0.5,0.8-0.8c0-0.1,0-0.1-0.3,0h-0.3 c0.1-0.1,0.1-0.2,0.2-0.2c0.3-0.1,0.6-0.2,0.8,0.1s0,0.4-0.1,0.6c-0.4,0.8-0.2,1.7-0.6,2.5c-0.2,0.7-0.6,1.5-1,2.1 c-0.3,0.4-0.8,0.4-1.1,0.8c-0.2,0.2-0.2,0.6-0.4,0.8c-0.3,0.4-0.5,0.3-0.9,0.2c-0.1,0,0-0.2-0.1-0.3c-0.4-0.5-0.7-1-0.2-1.7v-0.3 c0-0.2,0-0.2,0.1-0.2c0.3-0.1,0.3-0.5,0.3-0.7c0.3-0.5,0.3-1.1,0.2-1.6c0-0.1,0-0.1-0.1-0.1h-0.4C26.6,54.6,26.7,54.2,27.1,54.3z" /><path class="st3" d="M22.9,71.1c0.1-0.8,0-1.5-0.4-2.2c-0.3-0.4-0.4-1-0.3-1.5c0-0.4-0.2-0.8-0.2-1.2c-0.1-0.4-0.1-0.8-0.1-1.2 c0-0.1,0.1-0.3,0.2-0.2c0.2,0.1,0.3,0.4,0.2,0.6l0,0c0.3-0.2,0.1,0.1,0.2,0.2c0.4,0.6,0.7,1.2,0.9,1.9c0.1,0.5,0.4,0.9,0.8,1.2 c0.1,0,0.2-0.3,0.5-0.2s0.2,0.2,0.2,0.3c-0.3,0.4,0,0.8,0.1,1.2c0.1,0.4,0.1,0.7,0,1.1c-0.2,0.4-0.2,0.8,0,1.2 c0.2,0.3,0.3,0.7,0.4,1.1H23C22.7,72.7,22.6,71.8,22.9,71.1z"/><path class="st3" d="M35.6,52.1c0.2-0.5,0.2-1.1,0.2-1.6v-0.1c0.1,0,0.2,0,0.2,0.1c0.3,0.5,0.6,1.2,0.6,1.8c0,0.2,0.1,0.3,0.3,0.5 s0.2,0.7,0.2,1.1c0,0.7,0.2,1.3,0.5,1.9c0.1,0.1,0.3,0.4,0.6,0.1c0,0,0.1-0.2,0.1,0s0.2,0.3,0.3,0.4c-0.2,0.2-0.3,0.5-0.1,0.8 c0.2,0.4,0.4,0.7,0.6,1.1c0,0.1,0,0.1,0.1,0.1c0.4-0.1,0.7,0.3,1.1,0.4c0.2,0,0.4,0.3,0.5,0.6s0.1,0.5,0.4,0.5v0.1 c-0.1,0.5,0.2,1,0,1.5c0,0-0.1,0.4,0.2,0.2c0.1,0,0.4,0.3,0.5,0.4c-0.1,0.1-0.1,0.1-0.1,0.2c-0.2-0.1-0.5,0.1-0.6,0 c-0.5-0.3-1.2,0-1.7-0.3c-0.3-0.2-0.6-0.4-1-0.4h-0.1v1.2c0.1,0.3,0.5,0.5,0.8,0.4c0.1,0,0.3,0,0.3,0.1v0.3 c-0.1,0.2-0.3,0.2-0.5,0.2c-0.6-0.3-1.1-0.5-1.2-1.3c0-0.5-0.2-0.9-0.6-1.2c-0.4-0.3-0.8-0.7-1.1-1.2c-0.2-0.3-0.3-0.8-0.5-1.2 c-0.3-0.6,0.3-1,0-1.5c-0.1-0.2,0-0.3-0.3-0.4s-0.2-0.7-0.1-0.9c0.1-0.5,0.2-0.9,0.1-1.4c0-0.3,0.2-0.4,0.3-0.6l0.1,0.1v0.1l0,0 v-0.1h0.2c0.1,0.2,0.2,0.3,0.3,0.5c0.2-0.2,0.2,0.2,0.3,0.1c-0.1,0.5,0.1,0.4,0.4,0.2c0,0.1,0,0.1,0.1,0.1h-0.1 c-0.1-0.3-0.4-0.6-0.2-1c-0.1-0.1-0.1-0.1-0.2-0.1c-0.3,0.2-0.2,0-0.2-0.2s0-0.3-0.2-0.4c0,0.1-0.1,0.2-0.2,0.3s0.2,0.3,0,0.4 c0-0.1-0.1-0.2-0.1-0.3l0,0c-0.1-0.4-0.1-0.8-0.2-1.2C35.6,52.3,35.5,52.2,35.6,52.1z"/><path class="st3" d="M51.9,31.2c-0.1-0.2-0.1-0.4-0.2-0.6c-0.2,0.3-0.3-0.2-0.5-0.1c-0.1-0.3-0.6,0-0.7-0.4h-0.3 c0,0.1,0,0.3,0.1,0.4c0.1,0,0.1,0.2,0.1,0.2c-0.1-0.1-0.1-0.1-0.2-0.1l-0.1,0.1c0,0.2,0,0.3,0.2,0.4h0.2c0.1,0,0.3,0.2,0.3,0.3 c-0.1,0-0.3-0.1-0.4-0.1c-0.3-0.1-0.5-0.4-0.4-0.7c0,0,0,0,0,0v-0.1c0.1-0.7-0.5-0.7-0.8-0.7c-0.6,0-0.5-0.7-1-0.8 c-0.3-0.1-0.4-0.4-0.8-0.3c-0.1,0-0.1,0-0.1-0.1c-0.2-0.8-1.5-1.2-0.9-2.3c0.1-0.1-0.2-0.6-0.1-0.9l0,0l-0.1,0.1 c-0.1,0.1-0.1,0.3-0.3,0.2s-0.2-0.3-0.2-0.6c0.2-0.6-0.1-1-0.5-1.5c0-0.1-0.1-0.1-0.2-0.2l0,0c-0.1,0.1-0.2,0-0.2-0.1 c-0.1-0.5-0.2-0.9,0.2-1.3c0.1-0.1,0.3-0.1,0.4,0v0.1c0.1,0.1,0.1,0.2,0.3,0.1s0.1-0.2,0.1-0.3h0.3c-0.1-0.1-0.2-0.3-0.3-0.4 s-0.3-0.2-0.2-0.3c0.1-0.1,0.3-0.1,0.4,0c0.2,0.2,0.6,0.2,0.8,0.5c0.1,0.1,0.1,0.1,0.2,0l0,0c0.1-0.1,0.1-0.1,0-0.2s0-0.1-0.1-0.2 H47c0.1,0,0.1,0.3,0.3,0.2c-0.1-0.2-0.2-0.4-0.5-0.4s-0.3-0.1-0.5-0.2c0.1-0.1,0.1-0.2,0.2-0.3s0.3,0.3,0.4,0l0,0 c0.1,0.1,0.2,0.3,0.3,0.4s0.2,0.4,0.3,0c0-0.1,0.1-0.1,0.2,0s0.1,0.3,0.2,0.4s0.2,0.3,0.3,0.4v-0.1c0.2-0.2,0.5-0.4,0.2-0.8 l-0.3-0.3l0.1-0.1c0.2,0.1,0.5,0,0.6,0.2c0.1,0.3,0.4,0.4,0.7,0.4l0,0c0.3,0,0.5,0.2,0.7,0.4c0.3,0.7,1,0.9,1.4,1.5 c0.1,0.2,0.4,0.8,0.9,0.6c0.1,0,0.2,0.1,0.3,0.2s0.3,0.5,0.7,0.3c0.1-0.1,0.1,0.1,0.1,0.1c0,0.2,0.1,0.4,0.3,0.4h0.2 c0,0.1-0.1,0.1-0.1,0.2l0,0c-0.1,0.1-0.2-0.2-0.3,0s0.2,0.1,0.3,0.2c0.2,0.2,0.4,0.4,0.5,0.7c0.1,0.4,0.6,0.7,0.5,1.3 c0,0.1,0,0.2-0.1,0.3c-0.1,0.1-0.1,0-0.2-0.1h-0.3c-0.1,0.1-0.1,0.2-0.1,0.3c0,0.4,0.1,0.9,0.1,1.3l0,0c0.2,0.7,0.4,1.3,0.7,1.9 l0,0c0.2,0.5,0.3,1,0.3,1.5c0,0.3,0.3,0.6,0.5,0.9c0.1,0.1,0.1,0.2,0.1,0.4l0,0c-0.1,0.1,0,0.2-0.2,0.2s-0.3-0.1-0.4-0.3 c-0.4-0.7-0.8-0.9-1.3-0.6c0-0.1,0-0.1-0.1-0.2l0,0l0.1,0.1c0,0.1-0.1,0.2-0.1,0.3c-0.1-0.1-0.1-0.2-0.2-0.3 c-0.2-0.6-0.5-1.2-1-1.6C53.1,31,52.4,30.7,51.9,31.2z"/><path class="st3" d="M47.8,39.8c-0.2,0.8-0.3,1.6-0.5,2.4c0,0.2-0.2,0.1-0.3,0.2c-0.1-0.2-0.3-0.1-0.4-0.1 c-0.6,0.1-0.8-0.1-0.8-0.7c0-0.4-0.9-0.8-1.3-0.6c-0.2,0.1-0.4,0.2-0.6-0.1s-0.2-0.9-0.4-1.1c-0.2-0.1-0.3-0.3-0.4-0.5 c-0.1-0.2-0.1-0.5,0.1-0.6h0.1c0.1-0.1-0.1-0.3,0.1-0.4c0.2-0.3,0.6-0.5,1-0.3c0.1,0,0.1,0.1,0.1,0.1l0.3,0.3 c0,0.1,0.1,0.1,0.2,0.2c0-0.2,0.4,0,0.3-0.3s0.1-0.2,0.2-0.2c0.2,0,0.3,0.1,0.4,0.2c0,0-0.1,0.2,0.1,0.2s0.3,0.4,0.6,0.3 s0.5,0,0.4-0.4c0.1,0,0.1,0,0.1-0.1C47.1,38.9,47.9,39.1,47.8,39.8z"/><path class="st3" d="M63.1,68.5c-0.3,1.4-0.6,2.8-0.8,4.1c-0.1,0.3-0.4,0.2-0.6,0.3c-0.2-0.3-0.5-0.1-0.7-0.1 c-1,0.2-1.4-0.1-1.4-1.1c0-0.7-1.6-1.4-2.2-1c-0.4,0.2-0.6,0.3-1.1-0.2S56,69,55.5,68.6c-0.3-0.2-0.5-0.5-0.6-0.8 c-0.1-0.4-0.2-0.8,0.3-1.1c0.2-0.1-0.2-0.4,0.1-0.7c0.4-0.6,1.3-0.8,1.9-0.4c0,0,0.1,0.1,0.1,0.1c0.2,0.1,0.4,0.3,0.5,0.5l0.3,0.3 c0-0.3,0.7-0.1,0.5-0.6c-0.1-0.3,0.2-0.4,0.4-0.4c0.3,0,0.5,0.2,0.6,0.4c0.1,0.2-0.1,0.4,0.1,0.3c0.6-0.2,0.5,0.6,1,0.5 s0.9,0,0.7-0.6c0.1-0.1,0.1-0.1,0.2-0.1C61.9,67,63.3,67.3,63.1,68.5z"/><polygon class="st0" points="17.2,6.6 28.9,3.6 25.1,14.4 19,31.9 3.9,24 "/><path class="st4" d="M12.7,33.3c-0.1-0.2-0.4-0.1-0.6-0.1c-1.1-0.1-2.1-0.4-3-1.1c-0.7-0.5-1.7-0.2-2.3-1c0-0.2-0.2-0.2-0.3-0.4 c-1.1-1.4-1-1.3-2.3-0.1c-0.8,0.7-1.2-0.3-1.4-0.8c-0.2-0.4-0.4-0.7-0.7-1c0.3,0,0.6-0.1,1-0.1c-0.2-0.6-0.5-1.2-0.9-1.8 c0,0,1-1.6,1-1.3c0,0.1,0,0.1-0.1,0.2c0,0.1,0,0.1-0.1,0.2c-0.1,0.2,0.1,0.4,0.4,0.4c0.4,0,0.7,0,1.1,0.1c0.4,0.1,1.1,0.4,0.8,1 c-0.5,0.9,0,1.4,0.6,1.9s1.2-0.1,1.7-0.5c0.4-0.2,0.6-0.5,1.1-0.3s1,0.5,1.6,0.7c0.3,0.1,0.7,0.4,0.7-0.4c0-0.3,0.1-0.6,0.5-0.3 c0.1,0.1,0.3,0,0.5,0c-0.1-0.1-0.1-0.2-0.2-0.3l-0.1-0.1c0.2-0.2,0.5,0.2,0.8-0.2s0.5-0.2,0.8,0.2s0.8,0.6,0.9,1.1l0,0 c0.4-0.2,0.8,0,1,0.3c0,0,0,0,0,0.1v0.1c0.1,0.4,0.5,0.4,0.8,0.2s0-0.4-0.1-0.6s0-0.2,0-0.4c0.1,0.1,0.2,0.1,0.3,0.2 c0.6,0.6,1.1,1.2,1.7,1.9c0.1,0.1,0.1,0.2,0.2,0.2h-0.7c0.2,0.2-1.4,2.6-1.5,2.6C15.9,33.9,12.7,33.5,12.7,33.3z"/><path class="st4" d="M61.5,31.8c0.1-0.1,0.1-0.2,0.2-0.2c0.6-0.6,1.1-1.2,1.7-1.9c0.1-0.1,0.2-0.1,0.3-0.2v0.4 c-0.1,0.2-0.4,0.4-0.1,0.6c0.3,0.2,0.6,0.1,0.8-0.1v-0.1c0.2-0.4,0.6-0.6,1-0.5l0,0c0.1-0.5,0.7-0.7,0.9-1.1s0.5-0.6,0.8-0.2 s0.5,0,0.8,0.2c0,0.1,0,0.1-0.1,0.1s-0.1,0.2-0.2,0.3h0.5c0.4-0.2,0.6,0.1,0.5,0.3c-0.1,0.7,0.4,0.5,0.7,0.4 c0.5-0.2,1-0.4,1.6-0.7c0.4-0.2,0.7,0,1.1,0.3s1,1,1.7,0.5s1.1-1,0.6-1.9c-0.3-0.6,0.3-0.9,0.8-1c0.3-0.1,0.7,0,1.1-0.1 s0.5-0.3,0.4-0.4c-0.2-0.3-0.2-0.7,0.1-1c0.1-0.1,0.2-0.1,0.3-0.1c0.5-0.2,1.2-0.3,1.4,0.5l0,0c-0.2,0.5-0.5,1-0.9,1.5 c-0.4,0.6-0.7,1.2-0.9,1.8c0.3,0,0.6,0.1,1,0.1c-0.3,0.3-0.5,0.6-0.7,1c-0.3,0.5-0.6,1.6-1.4,0.8c-1.3-1.2-1.3-1.2-2.3,0.1 c-0.1,0.1-0.3,0.2-0.4,0.4c-0.5,0.8-1.5,0.5-2.3,1c-0.8,0.7-1.9,1.1-3,1.1c-0.2,0-0.5-0.1-0.6,0.1C66.8,34,61.5,31.8,61.5,31.8z" /></g></g><path class="st5" d="M40.2,75.6c6.9-0.1,16.7-1.8,22.4-4c-0.7-6.6-2.7-45.5-2.7-45.5s2.1,5.1,3.2,7.9c4.7-0.4,12.3-1.3,15.3-6.2 C75.5,21,73.3,13.2,71,8.1c0,0-10.4-3.8-18.6-6.4c0,0-0.9-0.3-1.3,0.4c-3,4.2-4.5,7.1-11.2,7.1l0,0c-6.4-0.1-8-2.9-10.9-7.1 c-0.3-0.4-0.9-0.6-1.4-0.4C19.5,4.2,9,8.1,9,8.1c-2.3,5.1-4.5,13-7.4,19.7c3,4.8,10.4,5.8,15.3,6.2c1.1-2.8,3.2-7.9,3.2-7.9 S18,65,17.4,71.6c7.2,2.5,14.8,3.8,22.4,4l0,0"/></svg> 