<?xml version="1.0" encoding="utf-8"?><svg version="1.1" id="Layer_1_xA0_Image_1_" xmlns="http://www.w3.org/2000/svg" xmlns:xlink="http://www.w3.org/1999/xlink" x="0px" y="0px" viewBox="0 0 489.6 472.1" style="enable-background:new 0 0 489.6 472.1;" xml:space="preserve"><style type="text/css"> .st0{fill:#010100;} .st1{fill:#1B9F00;} .st2{fill:#1CA600;} .st3{fill:#EDFD08;} </style><g><path class="st0" d="M239.6,472.4c-9.1-0.2-18.1-0.8-27.1-1.6c-11.3-1.1-22.6-2.5-33.7-4.4c-25.5-4.3-50.7-9.9-75-18.9 c-4.8-1.8-6.9-5.4-6.4-10.5c0.9-9.6,1.5-19.3,2.1-28.9c0.6-9.5,1.2-19,1.8-28.6c0.6-9,1.1-18,1.6-27c0.6-10.9,1.3-21.8,1.9-32.7 c0.6-10.6,1.2-21.2,1.8-31.8c0.7-12.2,1.4-24.3,2.1-36.5c0.6-9.7,1.1-19.5,1.6-29.2c0.2-2.8,0.3-5.6,0.5-8.7 c-2.3,2.6-4.9,3.8-8.1,3.6c-1.9-0.1-3.8-0.3-5.7-0.5c-7.9-0.8-15.7-1.7-23.5-3.1c-16.3-2.9-32.1-7.1-46.5-15.4 c-10-5.7-18.5-13.1-24.8-22.8c-1.9-2.9-2.4-6-1-9.2c7-16.2,13-32.8,18.9-49.4c6.2-17.5,12.1-35.1,18.7-52.5 c2.4-6.2,4.9-12.5,7.6-18.6c1.2-2.6,3-4.4,5.8-5.4c22.1-8.1,44.3-16,66.6-23.7c15.7-5.4,31.5-10.6,47.4-15.5 c7.4-2.3,15.4-0.2,19.8,6.8c1.6,2.5,3.4,5,5.1,7.4c3.8,5.4,7.7,10.8,12.2,15.7c6.9,7.5,15.3,12.1,25.2,14 c11.8,2.2,23.6,2.2,35.4-0.2c10.6-2.2,19.1-7.9,26-16.2c5.7-6.8,10.7-14,15.6-21.2c4.1-6.2,11.2-8.4,17.9-6.5 c9.2,2.7,18.3,5.8,27.4,8.9c29.3,9.8,58.4,20,87.4,30.5c2.7,1,4.6,2.7,5.8,5.4c6.4,14.4,11.7,29.2,17,44 c6.9,19.7,13.6,39.4,21.1,58.8c2.2,5.8,4.5,11.5,7,17.2c0.4,0.8,0.6,1.7,1,2.5c0,1.1,0,2.2,0,3.4c-1,3.3-3,5.9-5.1,8.6 c-6.9,8.9-15.7,15.5-25.7,20.5c-12.5,6.3-25.9,9.9-39.6,12.5c-8.8,1.6-17.6,2.6-26.5,3.5c-1.8,0.2-3.6,0.4-5.4,0.5 c-3.4,0.2-6.1-1.1-8.4-3.8c0,0.7,0,1.1,0,1.6c0.8,14.5,1.6,29,2.4,43.5c0.7,13,1.4,26,2.2,39c0.6,10.8,1.2,21.7,1.9,32.5 c0.6,10.3,1.2,20.6,1.8,30.9c0.5,8.9,1.1,17.7,1.6,26.5c0.6,9,1.2,17.9,1.8,26.9c0.5,7.6,1,15.1,1.9,22.7c0.5,4.8-1.7,8.6-6.3,10.4 c-11.5,4.4-23.3,7.8-35.2,10.7c-12.6,3.1-25.2,5.6-38,7.7c-11,1.8-22,3.3-33.1,4.4c-8.7,0.9-17.3,1.6-26.1,1.9 c-1.9,0-3.8-0.1-5.7,0.2C245.5,472.4,242.6,472.4,239.6,472.4z M124.2,302.5c-0.3,4.2-0.6,8.5-0.8,12.7c-0.1,2.7-0.3,5.4-0.5,8.1 c-0.2,4.2-0.5,8.4-0.7,12.6c-0.2,4-0.5,7.9-0.7,11.9c-0.2,4-0.5,8.1-0.7,12.1c-0.2,4-0.5,7.9-0.7,11.9c-0.2,3.9-0.4,7.9-0.7,11.8 c-0.2,3.3-0.3,6.6-0.5,9.9c-0.1,1.5-0.1,2.9-0.2,4.4c-0.3,4.1-0.6,8.2-0.9,12.4c-0.2,3-0.3,6-0.6,9c-0.1,1.2-0.1,2.5-0.2,3.7 c-0.2,2.8-0.4,5.6-0.7,8.4c-0.1,0.7,0.2,1,0.8,1.2c7.6,2.5,15.2,4.8,22.9,6.8c6.8,1.8,13.6,3.3,20.4,4.8c5.4,1.1,10.8,2.2,16.3,3.1 c4.7,0.8,9.4,1.6,14.2,2.2c3.9,0.5,7.8,1.2,11.6,1.6c4.1,0.5,8.2,0.9,12.3,1.3c4.7,0.5,9.3,0.9,14,1.1c5.9,0.2,11.9,0.5,17.8,0.4 c4.4-0.1,8.8-0.2,13.3-0.5c4.4-0.3,8.7-0.6,13.1-1c5.3-0.4,10.5-1.1,15.7-1.7c5.5-0.6,10.9-1.4,16.4-2.2c6.5-1,12.9-2.1,19.3-3.4 c6.3-1.2,12.5-2.6,18.8-4.1c10-2.3,19.9-5,29.6-8.3c0.8-0.3,1.2-0.6,1.1-1.5c-0.2-1.8-0.4-3.5-0.5-5.3c-0.2-2.7-0.3-5.4-0.5-8.1 c-0.3-3.9-0.7-7.7-0.9-11.6c-0.2-3.5-0.5-7-0.7-10.6c-0.2-3.8-0.5-7.5-0.7-11.3c-0.3-3.3-0.2-6.6-0.5-9.9c-0.1-1.4-0.1-2.9-0.2-4.3 c-0.2-3.1-0.6-6.2-0.7-9.4c0-2.1-0.2-4.1-0.4-6.2c-0.1-1.5-0.1-2.9-0.2-4.4c-0.2-3.2-0.5-6.4-0.7-9.6c-0.1-2.1,0-4.3-0.3-6.4 c-0.2-1.5-0.1-2.9-0.2-4.4c-0.2-3.4-0.5-6.9-0.7-10.3c-0.1-2.1-0.2-4.2-0.3-6.3c-0.2-3.2-0.5-6.5-0.4-9.8c0-0.3,0-0.6-0.1-0.8 c0-0.6,0-1.1,0-1.7c-0.3-5.2-0.6-10.5-0.9-15.7c-0.5-10.2-1.1-20.4-1.6-30.7c-0.1-1.3-0.4-1.6-1.7-1.6c-77.8,0-155.5,0-233.2,0 c-0.2,0-0.5,0-0.7,0c-0.7-0.1-0.9,0.2-0.9,0.9c-0.2,4.3-0.4,8.5-0.7,12.8c-0.4,8.3-0.9,16.5-1.3,24.8 C124.5,295.2,124.4,298.9,124.2,302.5z M126.8,151.2c0.1,0,0.2,0,0.3,0.1l0.1,0c0.2,0.1,0.4,0.2,0.6,0.4c2.6,1.7,4.3,3.8,4.1,7.2 c-0.3,3.9-0.5,7.8-0.7,11.7c-0.4,8.6-0.8,17.2-1.3,25.8c-0.1,1.2,0.2,1.4,1.4,1.4c14.4-0.1,28.7,0.1,43.1,0 c11.8-0.1,23.7,0.1,35.5,0.1c39.2,0,78.4,0.1,117.6,0.1c10.6,0,21.1,0,31.7,0.1c1,0,1.2-0.2,1.2-1.2c-0.5-8.7-0.9-17.3-1.4-26 c-0.2-3.6-0.3-7.3-0.6-10.9c-0.3-3.2,2.2-7.4,5.1-8.4c0.6-0.2,1.3-0.3,1.8-0.9c1.5,0,3-0.3,4.4,0.1c3.2,0.9,5.2,2.9,6.4,5.9 c4,9.8,8,19.5,11.9,29.3c1.5,3.8,3,7.6,4.6,11.3c0.2,0.5,0.3,1.1,1.1,0.9c1.4-0.2,2.8-0.3,4.2-0.4c7.7-0.9,15.4-2,22.9-3.6 c9.9-2.1,19.6-4.9,28.8-9.3c7.7-3.7,14.6-8.4,20.1-15c0.6-0.8,0.6-1.3,0.3-2.1c-4.2-10.1-8.1-20.3-11.8-30.6 c-5.6-15.7-11.1-31.4-16.6-47.1c-3.9-10.9-7.9-21.8-12.5-32.5c-0.3-0.7-0.6-1.1-1.3-1.4c-13.9-4.9-27.8-9.9-41.6-14.8 c-8.9-3.1-17.9-6.2-26.8-9.2c-12.8-4.4-25.6-8.6-38.4-12.7c-0.7-0.2-1.2-0.1-1.6,0.6c-1.6,2.3-3.2,4.6-4.9,7 c-4.2,5.9-8.5,11.7-13.4,17c-7.5,8-16.3,13.8-26.7,17.2c-8.2,2.6-16.7,3.7-25.3,3.9c-7.6,0.3-15.1-0.3-22.5-1.6 c-9.1-1.7-17.6-4.8-25.3-10c-7.4-5-13.3-11.5-18.6-18.5c-3.6-4.7-7-9.6-10.3-14.6c-0.7-1-1.2-1.4-2.5-0.9 c-3.4,1.2-6.9,2.2-10.4,3.3C145.7,27,132.3,31.4,119,36C101,42.2,83.2,48.6,65.3,55c-2.6,0.9-4.5,2.1-5.1,4.8 c-0.1,0.4-0.3,0.7-0.5,1.1c-7.2,17.6-13.2,35.5-19.5,53.4c-6,17.2-12,34.4-19.1,51.2c-1.2,2.8-0.7,4.4,1.3,6.4 c5.6,5.7,12.1,9.9,19.2,13.3c8.9,4.2,18.3,6.9,28,8.9c8.7,1.8,17.4,3,26.3,3.9c1,0.1,1.5,0,1.9-1c3.8-9.5,7.6-19,11.5-28.4 c1.7-4.2,3.4-8.4,5.2-12.6c1.7-3.9,5-5.8,9.3-5.6C124.9,150.5,125.8,151.1,126.8,151.2z"/><path class="st1" d="M127.2,151.2C127.2,151.2,127.1,151.2,127.2,151.2c-0.1-0.2-0.3-0.2-0.4-0.1c-1-0.1-1.9-0.7-2.9-0.7 c-4.3-0.2-7.6,1.6-9.3,5.6c-1.8,4.2-3.5,8.4-5.2,12.6c-3.8,9.5-7.7,18.9-11.5,28.4c-0.4,1-0.9,1.1-1.9,1 c-8.8-0.9-17.6-2.1-26.3-3.9c-9.6-2-19.1-4.7-28-8.9c-7.1-3.4-13.6-7.6-19.2-13.3c-2-2-2.4-3.6-1.3-6.4c7.1-16.8,13.1-34,19.1-51.2 C46.6,96.5,52.6,78.5,59.8,61c0.2-0.4,0.4-0.7,0.5-1.1c0.6-2.8,2.5-3.9,5.1-4.8C83.2,48.7,101,42.2,119,36 c13.3-4.6,26.7-9.1,40.1-13.4c3.5-1.1,7-2.1,10.4-3.3c1.3-0.5,1.8,0,2.5,0.9c3.3,4.9,6.7,9.9,10.3,14.6c5.4,7,11.3,13.5,18.6,18.5 c7.7,5.2,16.2,8.4,25.3,10c7.4,1.4,15,1.9,22.5,1.6c8.6-0.3,17.1-1.3,25.3-4c10.5-3.3,19.2-9.2,26.7-17.2c5-5.3,9.2-11.1,13.4-17 c1.6-2.3,3.3-4.6,4.9-7c0.4-0.6,0.9-0.8,1.6-0.6c12.9,4.1,25.7,8.4,38.4,12.7c9,3.1,17.9,6.1,26.8,9.2c13.9,4.9,27.8,9.9,41.6,14.8 c0.7,0.3,1.1,0.7,1.3,1.4c4.5,10.7,8.6,21.6,12.5,32.5c5.6,15.7,11,31.4,16.6,47.1c3.7,10.3,7.6,20.5,11.8,30.6 c0.3,0.8,0.3,1.4-0.3,2.1c-5.5,6.6-12.4,11.3-20.1,15c-9.1,4.4-18.8,7.2-28.8,9.3c-7.6,1.6-15.2,2.6-22.9,3.6 c-1.4,0.2-2.8,0.2-4.2,0.4c-0.8,0.1-0.9-0.4-1.1-0.9c-1.5-3.8-3-7.6-4.6-11.3c-4-9.8-8-19.5-11.9-29.3c-1.2-3-3.2-5.1-6.4-5.9 c-1.5-0.4-2.9-0.1-4.4-0.1c-10.4,0.1-20.8,0.1-31.2,0.2c-35.8,0.2-71.6-0.1-107.4,0.2c-8.8,0.1-17.7,0-26.5,0 c-23.9,0-47.8,0.1-71.6,0.1C128,151.1,127.6,151,127.2,151.2z"/><path class="st2" d="M365.8,302.7c0,0.3,0.1,0.6,0.1,0.8c0,3.3,0.3,6.5,0.4,9.8c0.1,2.1,0.2,4.2,0.3,6.3c0.1,3.4,0.4,6.9,0.7,10.3 c0.1,1.5,0,2.9,0.2,4.4c0.2,2.1,0.2,4.3,0.3,6.4c0.2,3.2,0.5,6.4,0.7,9.6c0.1,1.5,0.1,2.9,0.2,4.4c0.1,2.1,0.3,4.1,0.4,6.2 c0.1,3.1,0.5,6.2,0.7,9.4c0.1,1.4,0.1,2.9,0.2,4.3c0.3,3.3,0.3,6.6,0.5,9.9c0.3,3.8,0.5,7.5,0.7,11.3c0.2,3.5,0.5,7,0.7,10.6 c0.2,3.9,0.6,7.7,0.9,11.6c0.2,2.7,0.3,5.4,0.5,8.1c0.1,1.8,0.3,3.5,0.5,5.3c0.1,0.9-0.3,1.2-1.1,1.5c-9.7,3.2-19.6,6-29.6,8.3 c-6.2,1.5-12.5,2.8-18.8,4.1c-6.4,1.2-12.9,2.4-19.3,3.4c-5.4,0.8-10.9,1.6-16.4,2.2c-5.2,0.6-10.5,1.2-15.7,1.7 c-4.4,0.4-8.7,0.7-13.1,1c-4.4,0.3-8.8,0.4-13.3,0.5c-5.9,0.1-11.9-0.1-17.8-0.4c-4.7-0.2-9.3-0.6-14-1.1 c-4.1-0.4-8.2-0.8-12.3-1.3c-3.9-0.4-7.8-1.1-11.6-1.6c-4.7-0.6-9.5-1.4-14.2-2.2c-5.4-1-10.9-2-16.3-3.1c-6.8-1.4-13.6-3-20.4-4.8 c-7.7-2-15.4-4.2-22.9-6.8c-0.6-0.2-0.9-0.5-0.8-1.2c0.2-2.8,0.4-5.6,0.7-8.4c0.1-1.2,0.1-2.5,0.2-3.7c0.3-3,0.3-6,0.6-9 c0.3-4.1,0.6-8.2,0.9-12.4c0.1-1.5,0.1-2.9,0.2-4.4c0.3-3.3,0.3-6.6,0.5-9.9c0.3-3.9,0.5-7.9,0.7-11.8c0.2-4,0.5-7.9,0.7-11.9 c0.2-4,0.5-8.1,0.7-12.1c0.2-4,0.5-7.9,0.7-11.9c0.2-4.2,0.5-8.4,0.7-12.6c0.1-2.7,0.3-5.4,0.5-8.1c0.2-4.2,0.5-8.5,0.8-12.7 c0.5-0.2,1-0.1,1.5-0.1c36.6,0,73.3,0.1,109.9,0c22,0,43.9,0.3,65.9-0.1c3.5-0.1,7,0.2,10.5,0.2c17.3,0,34.6,0,51.9,0.1 C364.6,302.5,365.2,302.4,365.8,302.7z"/><path class="st3" d="M365.8,302.7c-0.6-0.3-1.2-0.2-1.8-0.2c-17.3,0-34.6,0-51.9-0.1c-3.5,0-7-0.2-10.5-0.2 c-22,0.5-43.9,0.1-65.9,0.1c-36.6,0-73.3,0-109.9,0c-0.5,0-1-0.1-1.5,0.1c0.2-3.6,0.3-7.3,0.5-10.9c0.4-8.3,0.9-16.5,1.3-24.8 c0.2-4.3,0.5-8.5,0.7-12.8c0-0.7,0.2-0.9,0.9-0.9c0.2,0,0.5,0,0.7,0c77.8,0,155.5,0,233.2,0c1.3,0,1.6,0.3,1.7,1.6 c0.5,10.2,1,20.4,1.6,30.7c0.3,5.2,0.6,10.5,0.9,15.7C365.8,301.6,365.8,302.2,365.8,302.7z"/><path class="st3" d="M127.2,151.2c0.4-0.3,0.8-0.2,1.3-0.2c23.9,0,47.8-0.1,71.6-0.1c8.8,0,17.7,0.1,26.5,0 c35.8-0.3,71.6-0.1,107.4-0.2c10.4-0.1,20.8-0.1,31.2-0.2c-0.4,0.6-1.1,0.7-1.8,0.9c-3,0.9-5.4,5.2-5.1,8.4 c0.3,3.6,0.4,7.3,0.6,10.9c0.5,8.7,0.9,17.3,1.4,26c0.1,1-0.1,1.2-1.2,1.2c-10.6-0.1-21.1-0.1-31.7-0.1c-39.2,0-78.4-0.1-117.6-0.1 c-11.8,0-23.7-0.2-35.5-0.1c-14.4,0.1-28.7-0.1-43.1,0c-1.2,0-1.4-0.2-1.4-1.4c0.5-8.6,0.9-17.2,1.3-25.8c0.2-3.9,0.4-7.8,0.7-11.7 c0.2-3.3-1.5-5.5-4.1-7.2C127.6,151.5,127.3,151.4,127.2,151.2z"/><path class="st3" d="M126.8,151.2c0.1-0.1,0.2-0.1,0.3,0.1C127,151.2,126.9,151.2,126.8,151.2z"/></g></svg> 