<?xml version="1.0" encoding="utf-8"?><svg version="1.1" id="Layer_1" xmlns="http://www.w3.org/2000/svg" xmlns:xlink="http://www.w3.org/1999/xlink" x="0px" y="0px" viewBox="0 0 80 77.1" style="enable-background:new 0 0 80 77.1;" xml:space="preserve"><style type="text/css"> .st0{fill:url(#SVGID_1_);} .st1{fill:#262D40;} .st2{fill:#22242D;} .st3{fill:#13131B;} .st4{fill:#2C2E38;} .st5{fill:#FFFFFF;} .st6{fill:#1F212A;} .st7{fill:none;stroke:#000000;stroke-width:3;stroke-linecap:round;stroke-linejoin:round;}</style><radialGradient id="SVGID_1_" cx="40.4697" cy="85.9746" r="103.0462" gradientTransform="matrix(3.205112e-03 -1 0.6143 1.968812e-03 -12.4715 126.2748)" gradientUnits="userSpaceOnUse"><stop offset="0" style="stop-color:#CECCD0"/><stop offset="0.1953" style="stop-color:#828FAA"/><stop offset="0.3596" style="stop-color:#575F78"/><stop offset="0.4928" style="stop-color:#393F56"/><stop offset="0.5649" style="stop-color:#2E3349"/><stop offset="0.7861" style="stop-color:#182134"/><stop offset="1" style="stop-color:#131019"/></radialGradient><path class="st0" d="M40.2,75.6c6.9-0.1,16.7-1.8,22.4-4c-0.7-6.6-2.7-45.5-2.7-45.5s2.1,5.1,3.2,7.9c4.7-0.4,12.3-1.3,15.3-6.2 C75.5,21,73.3,13.2,71,8.1c0,0-10.4-3.8-18.6-6.4c0,0-0.9-0.3-1.3,0.4c-3,4.2-4.5,7.1-11.2,7.1l0,0c-6.4-0.1-8-2.9-10.9-7.1 c-0.5-0.7-1.4-0.4-1.4-0.4C19.5,4.2,9,8.1,9,8.1c-2.3,5.1-4.5,13-7.4,19.7c3,4.8,10.4,5.8,15.3,6.2c1.1-2.8,3.2-7.9,3.2-7.9 S18,65,17.4,71.6c5.8,2.2,15.5,4,22.4,4l0,0"/><g><path class="st1" d="M33.6,60c0-1.7-1.4-3.2-3.2-3.2c-1.7,0-3.2,1.4-3.2,3.2c0,1.6,1.3,3,2.9,3.2v12.6h0.6V63.1 C32.3,63,33.6,61.6,33.6,60 M30.4,62.6c-1.4,0-2.6-1.2-2.6-2.6c0-1.4,1.2-2.6,2.6-2.6c1.4,0,2.6,1.2,2.6,2.6 C33,61.4,31.8,62.6,30.4,62.6"/><path class="st1" d="M39.3,63.7c0-1.7-1.4-3.2-3.2-3.2c-1.7,0-3.2,1.4-3.2,3.2c0,1.6,1.3,3,2.9,3.2v8.8h0.6v-8.8 C38,66.7,39.3,65.4,39.3,63.7 M36.1,66.3c-1.4,0-2.6-1.2-2.6-2.6c0-1.4,1.2-2.6,2.6-2.6c1.4,0,2.6,1.2,2.6,2.6 C38.7,65.1,37.6,66.3,36.1,66.3"/><path class="st1" d="M25.1,63c-1.7,0-3.2,1.4-3.2,3.2c0,1.6,1.3,3,2.9,3.2v5.4h0.6v-5.4c1.6-0.1,2.9-1.5,2.9-3.2 C28.3,64.4,26.8,63,25.1,63 M25.1,68.7c-1.4,0-2.6-1.2-2.6-2.6c0-1.4,1.2-2.6,2.6-2.6c1.4,0,2.6,1.2,2.6,2.6 C27.7,67.6,26.5,68.7,25.1,68.7"/><g><path class="st2" d="M29,28.5c0,0-0.5,0-0.5,0S29,28.5,29,28.5c0-0.1-0.1-0.3-0.1-0.3c0,0-0.1-0.1-0.1-0.1s0,0,0.1,0 c0-0.1-0.1-0.3-0.1-0.4c0,0-0.7-0.4-0.8-0.5c0,0-0.5,0.3-0.5,0.3s0.3-0.3,0.5-0.4c0,0-0.1-0.1-0.1-0.1c-0.1-0.1-0.2-0.2-0.3-0.2 c0,0,0-0.1,0-0.1c-0.1-0.1-0.1-0.2-0.2-0.3c0,0-1.1,1.1-1.2,1.6c-0.1,0.5,0.3,1.2,0.6,1.6c0.5,0.5,1,1.7,1,2.2c0,0.6,0,0.8,0,0.8 l0.1,0.5l0.1,0c-0.1-0.5,0.2-1.2,0.4-1.7c0,0,0-0.1,0-0.1s0,0,0,0c0.1-0.3,0.2-0.6,0.3-0.9c-0.1-0.1-0.2-0.2-0.3-0.3 c0,0,0.2,0.1,0.3,0.2c0,0,0-0.1,0-0.1c-0.1-0.1-0.5-0.4-0.6-0.4c0,0,0.6,0.4,0.7,0.3c0.2-0.3,0.3-0.6,0.4-0.8 C29.5,29.5,29.1,28.6,29,28.5"/><path class="st3" d="M28.1,33.1c0-0.1-0.2-0.5-0.1-0.8c0-0.3,0-1.2-0.4-1.9c-0.3-0.5-1.1-1.4-1.1-1.6c0,0,1.2,0,2.2,0.2 c0.2,0,1,0.5,1,0.5s-0.4-0.4-1-0.6c-0.6-0.2-2.1-0.3-2.1-0.3s1-0.7,1.1-0.8c0.3-0.2,1.3-0.1,1.3-0.1c-0.3-0.1-1.1-0.2-1.4,0 c-0.6,0.4-1.1,0.7-1.1,0.7c0-0.1,0-0.1,0-0.3c0.2-0.7,1.1-1.7,1.1-1.7c-1,0.9-1.3,1.9-1.3,1.9C26,28.2,26,28,26,28 c-0.2,0.4,0.4,1.3,0.8,1.7c0.2,0.2,0.7,0.7,0.9,1.3c0.2,0.6,0,1.7,0,1.7c0,0,0,0,0,0c0.1,0.2,0.3,0.4,0.6,0.5c0,0,0,0,0.1,0 C28.2,33.2,28.1,33.1,28.1,33.1"/><path class="st3" d="M29,34.4c-0.1,0.3-0.1,0.7,0,0.9c0.2,0.2,0.3,0.4,0.2,0.4c-0.1,0-0.8,0.2-0.8,0.3c-0.1,0.1-0.1,0.1-0.1,0.2 c0,0.1,0.1,0.4,0.1,0.5c0,0,0.3-0.1,0.3-0.3l0-0.1l0.1,0l-0.2-0.1c0,0,0-0.1,0.2-0.2c0.2-0.1,0.9-0.1,1-0.2c0.1-0.1,0-1.3,0-1.3 L29,34.4z"/><path class="st3" d="M27.1,33.2c-0.3,0-1.1-0.4-1.2-0.4c-0.1,0-0.3,0.2-0.3,0.2c0,0,0,0.3-0.2,0.6c-0.1,0.3-0.1,0.5,0,0.6 c0,0.1,0.2,0.4,0.2,0.5c0,0,0.2-0.2,0.3-0.4l-0.1-0.1l0.1-0.1l-0.3,0c0,0,0-0.1,0-0.2c0-0.1,0.1-0.5,0.2-0.7c0,0,0.2,0,0.3,0 c0,0,0.5,0.3,0.8,0.5C27.2,34,27.1,33.2,27.1,33.2"/><path d="M29.8,35.8c0.1-0.1,0-1.3,0-1.3L29,34.4c0,0,0,0.1,0,0.1c0.2,0,0.4,0.2,0.4,0.2c-0.1,0.6,0.1,1,0.3,1.2 C29.7,35.8,29.8,35.8,29.8,35.8"/><path class="st3" d="M29.3,34.7c0,0,0.1,0.1,0.1,0.1c0,0,0,0,0,0c0.1-0.3,0.2-0.5,0.4-0.6c0.2-0.1,0.4-0.1,0.5-0.1 c0.4,0.1,0.7,0.5,0.7,1.1c0,0.4,0.2,0.7,0.5,0.8c0.1,0,0.2,0,0.3,0c0.1,0,0.3-0.3,0.3-0.3c0,0-0.3,0.4-0.6,0.2 c-0.1,0-0.3-0.2-0.4-0.3c-0.1-0.1-0.1-0.3-0.1-0.5c0-0.3-0.1-0.5-0.2-0.7c-0.2-0.2-0.4-0.4-0.6-0.4c-0.2,0-0.4,0-0.6,0.1 C29.6,34.3,29.3,34.5,29.3,34.7"/><path d="M26.7,33.1c0,0.1-0.1,0.2-0.1,0.2c-0.1,0.1-0.1,0.1-0.1,0.2c0.1,0.1,0.2,0.1,0.3,0.2c0.3,0.3,0.2-0.5,0.2-0.5 C27,33.2,26.9,33.2,26.7,33.1"/><path class="st4" d="M32,30.3c0,0-0.4-0.6-0.4-0.6S32,30.2,32,30.3c0.1-0.1,0.1-0.3,0.1-0.4c0-0.1,0-0.2,0-0.2s0,0,0.1,0.1 c0.1-0.2,0.2-0.3,0.2-0.4c0,0-0.3-1-0.2-1.3c0-0.1-0.7-0.3-0.7-0.3s0.5,0.1,0.7,0.2c0-0.1,0-0.1,0-0.2c0-0.2,0-0.3-0.1-0.4 c0,0,0.1,0,0.1,0c0-0.2,0-0.3,0.1-0.5c0,0-1.8-0.2-2.2,0.1c-0.5,0.3-0.7,1.3-0.7,2c0,1.1-0.5,2.6-0.9,3c-0.5,0.5-0.6,0.7-0.6,0.7 l-0.3,0.5l0.1,0.1c0.3-0.6,1.1-0.8,1.7-1.1c0-0.1,0-0.1,0-0.1s0,0,0,0.1c0.3-0.2,0.7-0.3,1-0.4c0-0.1,0-0.4,0-0.6 c0,0,0.1,0.3,0.1,0.5c0,0,0.1,0,0.1-0.1c0-0.2-0.1-0.8-0.1-1c0,0,0.1,0.9,0.3,1c0.4-0.1,0.7-0.3,1-0.2C31.6,31.6,32,30.3,32,30.3" /><path class="st3" d="M28.1,32.8c0,0.1,0.5,0.3,0.8,0.5c0.3,0.1,0.9,0.4,1.2,0.7c0.3,0.4,0.6,0.6,0.4,0.7c-0.2,0.1-0.5,0.3-0.4,0.8 c0.1,0.4,0.2,0.6,0.4,0.7c0.2,0.1,0.2,0.1,0,0.3c-0.2,0.2-0.4,0.6-0.4,0.7l0.2,0.1l-0.1,0l0.1,0.1c0,0-0.1,0.2-0.4,0.3 c0,0,0-0.1,0-0.3c0-0.1,0-0.3,0.1-0.5c0.1-0.2,0.3-0.4,0.3-0.6c0-0.1-0.1-0.3-0.3-0.5c-0.3-0.2-0.6-0.6-0.5-1.4 c0,0-0.4-0.2-0.6-0.2c-0.3,0.1-0.9,0.2-1.1,0.2c-0.2,0-0.6-0.5-0.8-0.7c-0.2-0.3-0.3-0.3-0.2-0.5c0.1-0.1,0.2-0.4,0.1-0.5 c-0.1-0.1-0.1-0.2,0-0.5c0.1-0.3,0.1-0.6,0-0.8c0,0,0,0.1-0.1,0.2c-0.1,0.1,0,0.3,0,0.4c0,0.1-0.1,0.1-0.1,0.1 c0,0.1,0.1,0.1,0.1,0.1c0,0-0.2,0.1-0.2,0.1c0,0-0.1-0.1-0.2-0.2c-0.1-0.1,0-0.2-0.1-0.4c0-0.2-0.2-0.6-0.2-0.8 c0-0.2,0.1-0.3,0.2-0.4c0.1-0.1,0.2-0.2,0.4-0.3c0,0-0.1,0.1-0.1,0.2l0,0c0.5,0,0.9,0.2,1,0.9c0.1,0.5,0,0.7,0.2,0.7"/><path class="st3" d="M27.7,33.2c0-0.1,0.3-0.6,0.5-0.8c0.2-0.2,0.9-1.1,1.1-2.1c0.1-0.8,0.2-2.4,0.3-2.5c0,0,1,1.3,1.6,2.5 c0.1,0.3,0.4,1.4,0.4,1.4s0-0.8-0.3-1.6c-0.3-0.8-1.5-2.5-1.5-2.5s1.3,0.4,1.5,0.5c0.4,0.1,1.1,1.3,1.1,1.3 c-0.1-0.4-0.7-1.3-1.1-1.5c-0.8-0.3-1.4-0.6-1.4-0.6c0-0.1,0.1-0.2,0.2-0.2c0.7-0.4,2.2-0.3,2.2-0.3c-1.5-0.4-2.5,0.2-2.5,0.2 c0-0.2,0.2-0.4,0.2-0.4c-0.4,0.1-0.7,1.6-0.7,2.3c0,0.4-0.1,1.3-0.3,2.1c-0.3,0.7-1.3,1.5-1.3,1.5c0,0,0,0,0,0 c-0.1,0.3-0.1,0.6,0,1c0,0,0,0.1,0,0.1C27.7,33.4,27.7,33.2,27.7,33.2"/><path class="st5" d="M26.4,31.5c0,0-0.1,0-0.1-0.1c0-0.1,0.1-0.2,0.1-0.2s0,0.1,0,0.1C26.4,31.4,26.4,31.4,26.4,31.5 C26.4,31.5,26.4,31.5,26.4,31.5"/><path d="M28,33.6c-0.2-0.3-0.6-0.6-0.6-0.6c-0.4,0.3-0.6,0.4-0.5,0.7c0,0.1,0,0.2,0.1,0.2c0.1,0.1,0.2,0.3,0.4,0.4 c0,0,0.1,0,0.1,0C27.8,34.1,28.3,33.9,28,33.6"/><path class="st3" d="M27.4,33c-0.3,0.3-0.6,0.5-0.5,0.7C27,34,27,34,27,34.1c0,0-0.5,0.3-0.6,0.4c0,0.1,0,0.3,0.1,0.4 c0.2,0.1,0.3,0.2,0.4,0.4c0.1,0.2,0.3,0.5,0.5,0.5c0.1,0,0.3,0,0.4,0c0,0-0.1-0.3-0.2-0.4l-0.1,0l0-0.2c0,0-0.1,0.3-0.1,0.3 c0,0,0-0.1-0.1-0.2C27.1,35.2,27,35,27,34.9c0-0.1-0.1-0.3-0.1-0.4c0,0,0.2-0.1,0.6-0.3c0.4-0.2,0.7-0.3,0.6-0.6 C27.9,33.4,27.4,33,27.4,33"/><path d="M28.3,33.2c0,0.3,0,0.8-0.5,1.1c0,0,0.3-0.1,0.4-0.5C28.4,33.4,28.3,33.2,28.3,33.2"/><path d="M28.5,33.4c0,0.3,0,0.7-0.4,1c0,0,0.3-0.1,0.4-0.4C28.5,33.6,28.5,33.4,28.5,33.4"/><path d="M28.6,33.5c0,0.2,0,0.6-0.4,0.9c0,0,0.3-0.1,0.3-0.4C28.7,33.7,28.6,33.5,28.6,33.5"/><path d="M26.8,31.6L26.8,31.6C26.8,31.6,26.8,31.6,26.8,31.6C26.8,31.6,26.8,31.6,26.8,31.6"/><path d="M26.6,30.9c0.2,0.3,0.3,0.5,0.2,0.7c0,0,0,0,0,0c0,0,0-0.1,0.1-0.2C26.9,31.3,26.6,30.9,26.6,30.9"/><path d="M26.9,31.1c0.2,0.2,0.4,0.6,0.3,0.8c-0.1,0.2-0.1,0.5,0.1,0.7c0,0-0.1-0.3-0.1-0.5c0.1-0.2,0.1-0.4,0-0.7 C27.1,31.3,26.9,31.1,26.9,31.1"/><path d="M29.4,34.6c0-0.1,0-0.1,0-0.2c0.1-0.2,0-0.5-0.1-0.6c0,0,0.2,0.3,0,0.6C29.4,34.5,29.4,34.5,29.4,34.6 C29.4,34.6,29.4,34.6,29.4,34.6"/><path d="M28.8,33.6c0,0,0.3,0,0.4,0.1C29.2,33.7,29.1,33.6,28.8,33.6"/><path d="M27.5,32.8c0,0.1,0,0.2,0,0.2c0-0.2,0-0.3,0.1-0.5c0-0.1,0.1-0.1,0.1-0.2c0,0,0,0-0.1,0c0,0,0,0.1-0.1,0.1 C27.6,32.5,27.5,32.7,27.5,32.8"/></g><path class="st2" d="M45.5,26.8c-0.1-0.1-1.5-0.3-1.5-0.3s1.5,0.1,1.5,0.1c0,0-0.1-0.6-0.1-0.8c0-0.1-0.3-0.3-0.3-0.3s0.1,0,0.3,0 c0-0.4-0.1-0.8,0-1.2c0,0-1.8-1.4-2.1-2.1C43,22.2,41.4,23,41.4,23s1.1-0.7,1.6-0.9c-0.1-0.1-0.2-0.2-0.2-0.3 c-0.3-0.4-0.4-0.6-0.7-0.6c0,0,0.1-0.2,0.2-0.3c-0.2-0.3-0.3-0.7-0.4-1.1c0,0-4,2.8-4.5,4.2c-0.6,1.5,0.1,3.8,1,5.1 c1.4,1.9,2.2,5.6,1.8,7.4c-0.4,1.7-0.4,2.5-0.4,2.5l0,1.6l0.4,0.1c-0.1-1.7,1.4-3.5,2.2-5c-0.1-0.1-0.1-0.3-0.1-0.3s0,0.1,0.1,0.1 c0.5-0.9,1-1.8,1.6-2.6c-0.2-0.2-0.6-0.7-0.8-1c0,0,0.6,0.5,0.9,0.8c0,0,0.1-0.2,0-0.3c-0.3-0.4-1.2-1.4-1.4-1.7 c0,0,1.5,1.5,1.9,1.4c0.6-0.8,1.1-1.8,1.8-2.2C46.3,30,45.6,26.9,45.5,26.8"/><path class="st3" d="M40,40.1c-0.1-0.2-0.2-1.6,0-2.4c0.2-0.8,0.6-3.7-0.2-6c-0.6-1.7-2.6-4.9-2.5-5.4c0-0.1,3.6,0.7,6.5,1.8 c0.6,0.2,2.6,2,2.6,2s-0.9-1.4-2.7-2.3c-1.7-0.9-6.2-2-6.2-2s3.3-1.5,3.9-1.8c1-0.5,3.9,0.5,3.9,0.5c-0.7-0.6-3.2-1.2-4.1-0.8 c-2.2,0.9-3.8,1.6-3.8,1.6c-0.1-0.2,0-0.4,0.2-0.8c1.1-2.1,4.3-4.6,4.3-4.6c-3.7,2-5.1,4.9-5.1,4.9c-0.2-0.3-0.2-1.1-0.2-1.1 c-0.7,1,0.5,4.2,1.5,5.6c0.6,0.8,1.6,2.6,1.9,4.5c0.3,1.8-0.8,5.2-0.8,5.2c0,0-0.1,0-0.1,0c0.2,0.7,0.7,1.3,1.4,1.8 c0.1,0,0.1,0.1,0.2,0.1C40.3,40.4,40,40.2,40,40.1"/><path class="st3" d="M47.3,40.1c1.2,0,2.1-0.3,2,0.2c-0.1,0.5,0,1.4,0.9,1.8c0.9,0.5,1.5,0.4,1.8,0.2c0.3-0.2,0.5-0.2,0.6,0.4 c0.1,0.6,0.6,1.6,0.9,1.8l0.4-0.2l-0.2,0.3l0.4,0.1c0,0,0.2,0.5,0,1.1c0,0-0.2-0.2-0.5-0.4c-0.3-0.1-0.6-0.4-0.7-0.9 c-0.1-0.5-0.5-1.1-0.7-1.3c-0.2-0.2-0.7-0.3-1.4,0c-0.7,0.3-2,0.3-3.3-1C47.5,42.3,46.2,40.2,47.3,40.1"/><path d="M49.5,42.4c-0.2-0.5-0.2-0.9-0.2-1.2c-0.1-0.3-0.1-0.6,0-0.8c0.1-0.5-0.8-0.3-2-0.2c-0.3,0-0.5,0.2-0.5,0.4 c0.1,0,0.1,0,0.1,0c0.1,0.7,0.3,1.2,0.5,1.6c1,0.9,1.9,1.2,2.6,1.1C49.9,43.2,49.7,42.9,49.5,42.4"/><path class="st4" d="M53.6,30.3c0-0.1-1.2-1.7-1.2-1.7s1.3,1.4,1.3,1.4c0.1,0,0.3-0.7,0.4-0.9c0-0.2-0.1-0.6-0.1-0.6 s0.1,0.1,0.3,0.3c0.2-0.5,0.5-0.9,0.7-1.3c0,0-0.8-3.1-0.7-4.1c0-0.2-2-0.9-2-0.9s1.4,0.2,2,0.5c0-0.2,0-0.4,0-0.6 c0-0.7,0-1-0.3-1.3c0,0,0.2-0.1,0.3-0.1c0.1-0.5,0.1-1,0.3-1.5c0,0-5.4-0.7-6.8,0.3c-1.4,1-2.2,4.1-2.2,6.2 c0.1,3.2-1.4,7.8-2.9,9.3c-1.5,1.4-1.9,2.2-1.9,2.2l-1,1.6l0.3,0.4c1-1.8,3.4-2.3,5.1-3.2c0-0.2,0.1-0.3,0.1-0.3s0,0.1,0.1,0.2 c1-0.5,2-1,3-1.3c0-0.4-0.1-1.3-0.1-1.7c0,0,0.2,1,0.3,1.6c0,0,0.2-0.1,0.2-0.2c0-0.7-0.3-2.5-0.3-3c0,0,0.4,2.9,0.9,3.2 c1.1-0.3,2.1-0.8,3-0.7C52.4,34.3,53.6,30.5,53.6,30.3"/><path class="st3" d="M40.4,39.1c0-0.3,0.8-1.8,1.5-2.5c0.7-0.7,2.9-3.3,3.5-6.4c0.4-2.3,0.6-7.4,1-7.8c0.1-0.1,2.9,3.9,4.9,7.6 c0.4,0.8,1.2,4.4,1.2,4.4s0-2.3-1-4.8c-1-2.5-4.5-7.7-4.5-7.7s3.9,1.4,4.7,1.6c1.2,0.3,3.3,4,3.3,4c-0.3-1.3-2.2-4.1-3.3-4.5 c-2.5-1-4.4-1.7-4.4-1.7c0.1-0.3,0.2-0.5,0.6-0.7c2.3-1.3,6.8-0.9,6.8-0.9c-4.6-1.2-7.7,0.5-7.7,0.5c0-0.5,0.5-1.3,0.5-1.3 c-1.3,0.4-2.1,4.8-2,7.1c0,1.3-0.2,4.1-1,6.3c-0.8,2.2-4,4.6-4,4.6c0,0,0-0.1-0.1-0.1c-0.2,1-0.1,2,0.2,3.2c0,0.1,0.1,0.2,0.1,0.3 C40.5,39.7,40.4,39.3,40.4,39.1"/><path class="st6" d="M51.1,47.6l-0.3-0.3l0.4-0.2L50.7,47c-0.1-0.4,0.2-1.6,0.4-2.3c0.2-0.6,0.1-0.7-0.3-0.8c-0.5,0-1-0.4-1.5-1.4 c-0.5-1,0-1.9,0.4-2.3c0.5-0.4-0.6-0.8-1.7-1.6c-1.1-0.8-2.9-1-3.8-1c-0.5,0-1.4-0.2-1.9-0.3c-0.1,0-0.2-0.1-0.3-0.1 c-1-0.3-1.8-1-2.4-2.8c-0.5-1.5-1.2-2.3-2.2-2.2c0.3,0.7-0.8,0.7-0.7,1.1c0.6,0.3,1.7,2.6,1.5,3.5c-0.2,1.1,0,1.2,0.3,1.4 c0.3,0.3,0.3,0.9,0,1.4c-0.3,0.5,0,0.5,0.8,1.1c0.8,0.6,2.1,1.5,2.7,1.3c0.6-0.1,2.2-1,2.8-1.3c0.6-0.3,1.8-0.1,1.8-0.1 c0.3,2.1,1.6,3,2.4,3.2c0.8,0.2,1.2,0.6,1.3,1c0.1,0.3,0,1.1-0.3,1.7c-0.2,0.5-0.1,1,0,1.4c0.1,0.3,0.2,0.7,0.2,0.7 C51,48.3,51.1,47.6,51.1,47.6"/><path d="M35.7,33.4C35.7,33.4,35.7,33.4,35.7,33.4C35.7,33.4,35.7,33.4,35.7,33.4"/><path class="st6" d="M35.8,33.3C35.8,33.3,35.8,33.3,35.8,33.3C35.8,33.3,35.8,33.3,35.8,33.3"/><path class="st3" d="M39.2,32.7c0-0.5-1.4-1.3-1.9-1.3c-0.5,0-1.7,0.3-2.2,0.3c-0.5,0-0.8-0.1-1.1,0.1c-0.3,0.2-0.5,0.4-0.5,0.5 c0,0.1,0,0.4,0.1,0.5c0,0,0-0.1,0.2-0.2c0,0,0,0.3,0.3,0.3c0.3,0,1-0.1,1.2,0.1c0.2,0.2,0.4,0.3,0.4,0.4l0,0c0,0,0,0,0,0 c0,0,0,0,0,0c0,0,0,0,0,0c0.4,0.3,1,0.1,1.8-0.4c0,0,1.3,0.9,1.2,0.3c-0.1-0.6-0.7-0.9-0.7-0.9C38.8,32.3,39.2,32.7,39.2,32.7"/><path class="st3" d="M51.1,47.6l-0.3-0.3l0.4-0.2L50.7,47c-0.1-0.4,0.2-1.6,0.4-2.3c0.2-0.6,0.1-0.7-0.3-0.8c-0.5,0-1-0.4-1.5-1.4 c-0.5-1,0-1.9,0.4-2.3c0.5-0.4-0.6-0.8-1.7-1.6c-1.1-0.8-2.9-1-3.8-1c-0.5,0-1.4-0.2-1.9-0.3c-0.1,0-0.2-0.1-0.3-0.1 c-1-0.3-1.8-1-2.4-2.8c-0.5-1.5-1.2-2.3-2.2-2.2c0.3,0.7-0.8,0.7-0.7,1.1c0.6,0.3,1.7,2.6,1.5,3.5c-0.2,1.1,0,1.2,0.3,1.4 c0.3,0.3,0.3,0.9,0,1.4c-0.3,0.5,0,0.5,0.8,1.1c0.8,0.6,2.1,1.5,2.7,1.3c0.6-0.1,2.2-1,2.8-1.3c0.6-0.3,1.8-0.1,1.8-0.1 c0.3,2.1,1.6,3,2.4,3.2c0.8,0.2,1.2,0.6,1.3,1c0.1,0.3,0,1.1-0.3,1.7c-0.2,0.5-0.1,1,0,1.4c0.1,0.3,0.2,0.7,0.2,0.7 C51,48.3,51.1,47.6,51.1,47.6"/><path class="st5" d="M36.2,32.1c0,0,0.1-0.1,0.3-0.2c0.2,0,0.5,0.2,0.5,0.2s-0.2,0-0.3,0c-0.1,0-0.2,0.1-0.3,0.1 C36.3,32.2,36.2,32.1,36.2,32.1"/><path class="st3" d="M38.7,38.2c-0.8,0.4-3.2,0.5-3.5,0.7c-0.2,0.2-0.5,0.8-0.5,0.9c0,0.2,0.3,0.8,0.4,1.6c0.1,0.9,0.5,1.4,0.7,1.5 c0.2,0.1,1.1,0.7,1.2,0.8c0.1,0,0.3-0.8,0.1-1.3l-0.3,0l0.1-0.4l-0.6,0.5c0,0-0.1-0.2-0.3-0.4c-0.2-0.2-0.5-1.4-0.4-1.9 c0,0,0.6-0.2,0.7-0.4c0,0,1.6-0.1,2.7,0C40,39.8,38.7,38.2,38.7,38.2"/><path d="M42.3,39.3c-0.8-0.6-2.1-1.1-2.1-1.1c-0.8,1.1-1.2,1.6-0.9,2.2c0.1,0.2,0.2,0.4,0.3,0.5c0.4,0.3,0.8,0.6,1.3,0.8 c0.1,0,0.1-0.1,0.2-0.2C42,40.8,43.2,39.9,42.3,39.3"/><path class="st3" d="M40.2,38.1c-0.6,1.1-1.1,1.8-0.7,2.3c0.3,0.5,0.5,0.7,0.4,0.8c0,0.1-1.2,1.2-1.1,1.5c0,0.3,0.1,0.8,0.6,0.9 c0.5,0.1,0.8,0.2,1.3,0.7c0.5,0.5,1.3,1,1.5,0.9c0.3-0.1,0.9-0.2,1-0.2c0.1-0.1-0.6-0.7-0.9-0.8l-0.2,0.1L42,43.8 c0,0-0.1,0.8,0,0.9c0,0,0-0.4-0.4-0.5c-0.5-0.1-1-0.6-1.1-0.8c-0.1-0.2-0.5-0.8-0.6-0.9c0,0,0.4-0.5,1.2-1.2 c0.9-0.7,1.7-1.3,1.1-1.9C41.7,38.7,40.2,38.1,40.2,38.1"/><path d="M42.8,38c0.1,0.8,0.6,2-0.5,3.3c0,0,0.8-0.6,0.8-1.7C43.1,38.5,42.8,38,42.8,38"/><path d="M43.3,38.4c0.1,0.7,0.5,1.8-0.4,2.8c0,0,0.7-0.5,0.7-1.4C43.5,38.9,43.3,38.4,43.3,38.4"/><path d="M43.8,38.6c0.1,0.6,0.4,1.6-0.4,2.6c0,0,0.6-0.4,0.6-1.3C44.1,39,43.8,38.6,43.8,38.6"/><path d="M37.6,33.1c0.6,0.4,1.5,1.2,1.5,1.8c0,0.6,0.1,1.5,0.8,1.9c0,0-0.6-0.7-0.6-1.2c0-0.6,0-1.2-0.6-1.7 C38.2,33.4,37.6,33.1,37.6,33.1"/><path d="M46.8,40.7c0-0.2,0-0.3,0-0.5c0.1-0.6-0.3-1.2-0.7-1.6c0,0,0.7,0.7,0.5,1.6c0,0.1,0,0.3,0,0.4 C46.7,40.7,46.7,40.7,46.8,40.7"/><path d="M44.4,38.6c0,0,0.7-0.1,1.1,0.1C45.6,38.7,45.2,38.3,44.4,38.6"/><path d="M40.9,36.5c0,0-0.1-0.1-0.1-0.1c0,0-0.1,0.1-0.1,0.1c-0.2,0.2-0.4,0.5-0.6,0.8c-0.1,0.3-0.2,0.6-0.2,0.6 c0.1-0.4,0.4-0.8,0.8-1.2C40.8,36.7,40.8,36.6,40.9,36.5"/><path class="st3" d="M46.9,40.4c0,0,0.4,0.4,0.5,0.5c0.1,0,0.1,0,0.1,0c0.3-0.8,0.7-1.3,1.4-1.5c0.6-0.2,1.2-0.1,1.9,0.2 c1.3,0.6,2.9,2.4,3,4.1c0.1,1.2,1.1,2.3,2.2,3c0.4,0.2,0.8,0.4,1.2,0.4c0.4,0,1.1-0.6,1-0.6c0,0-0.9,0.9-2.2,0.2 c-0.5-0.3-1-0.8-1.4-1.3c-0.4-0.5-0.5-1.1-0.6-1.6C54,43,53.6,42,53,41.2c-0.6-0.8-1.4-1.5-2.2-1.8c-0.8-0.3-1.6-0.5-2.2-0.3 C47.9,39.3,47.2,39.8,46.9,40.4"/><path d="M36.8,33.4L36.8,33.4C36.8,33.4,36.8,33.4,36.8,33.4C36.8,33.4,36.8,33.4,36.8,33.4"/><path d="M37.9,32.4c-0.4,0.6-0.7,0.9-1.1,1c0,0,0,0,0,0c0,0,0,0,0.1,0c0,0,0,0,0.1,0.1c0.1,0,0.2-0.1,0.3-0.1 C37.5,33.1,37.9,32.4,37.9,32.4"/><path class="st3" d="M48.2,50.3c0.1,0.4,0.4,0.8,0.7,0.9c0.3,0.1,0.6,0.2,0.5,0.2c-0.1,0.1-0.7,0.7-0.7,0.9c0,0.2,0,0.2,0.1,0.3 c0.1,0.1,0.4,0.4,0.5,0.5c0,0,0.2-0.3,0.1-0.5l-0.1,0l0.1-0.1L49,52.4c0,0-0.1-0.2,0.1-0.3c0.1-0.2,0.9-0.7,0.9-0.9 c0.1-0.2-0.9-1.3-0.9-1.3L48.2,50.3z"/><path class="st4" d="M45.3,51.2c0.1,0,0.7,0.1,0.9,0.1c0,0,0.1-0.1,0.1-0.1c-0.2,0-0.5-0.1-0.5-0.1c0.1,0,0.4,0.1,0.6,0.1 c0.2-0.3,0.4-0.6,0.6-0.9c0,0-0.2-0.2-0.2-0.2s0,0,0.1,0c0.3-0.5-0.2-1.2,0.2-1.5c0,0-0.1,0-0.1-0.1l-0.1,0c0,0-0.2,0.1-0.7,0.6 c-0.5,0.5-1.9,1-2.8,0.9c-0.6,0-1.6,0.2-1.9,0.7c-0.4,0.5-0.4,2.2-0.4,2.2c0.1,0,0.3-0.1,0.5-0.1c0,0,0.1-0.1,0.1-0.1 c0.1,0.1,0.2,0.1,0.4,0.1c0.1,0,0.1,0,0.2,0c-0.1-0.2-0.1-0.7-0.1-0.7s0.1,0.7,0.2,0.7c0.3,0,1.2,0.2,1.2,0.2 c0.1-0.1,0.3-0.2,0.4-0.2c0,0-0.1-0.1-0.1-0.1s0.1,0,0.2,0c0,0,0.3-0.1,0.3-0.1c0,0-0.4-0.4-0.4-0.4s0.4,0.4,0.5,0.4 c0,0,1.2-0.4,1.2-0.4c0.3-0.3,0.7-0.6,0.9-0.9C46.1,51.3,45.3,51.2,45.3,51.2"/><path class="st3" d="M44.1,52c-1-0.6-2.1-1.6-2-1.6c0.1-0.1,1.6-0.2,2.3-0.3c0.9-0.2,1.8-0.9,2-1.1c0.1-0.2,0.3-0.2,0.5-0.3 c-0.1,0,0-0.1-0.1-0.1c-0.1,0-0.2-0.1-0.3-0.1c0,0,0,0,0,0c0,0-0.9,1-1.5,1.3c-0.7,0.3-1.5,0.3-1.9,0.3c-0.7,0-2,0.2-2.2,0.7 c0,0,0.2-0.1,0.4-0.2c0,0-0.6,1-0.4,2.5c0,0,0.1-1.5,0.5-2.2c0.1-0.1,0.1-0.2,0.2-0.2c0,0,0.1,0.6,0.3,1.5c0.1,0.3,0.8,1,1.2,1.1 c0,0-1-0.7-1.1-1.1c0-0.2-0.3-1.5-0.3-1.5s1.4,1.1,2.1,1.5c0.7,0.3,1.4,0.3,1.4,0.3S44.3,52.1,44.1,52"/><path class="st3" d="M49.1,49.9c0.2-0.1,0.5-0.2,0.7-0.1c0.5,0.1,1.1,0.7,1.2,1.4c0.1,0.5,0.4,0.8,0.8,1c0.2,0.1,0.3,0.1,0.5,0 c0.2,0,0.4-0.3,0.4-0.4c0,0-0.3,0.5-0.8,0.3c-0.2-0.1-0.4-0.2-0.5-0.4c-0.1-0.2-0.2-0.4-0.2-0.6c0-0.3-0.2-0.7-0.4-0.9 c-0.2-0.3-0.6-0.5-0.8-0.5c-0.3-0.1-0.6,0-0.8,0.1C48.7,49.9,48.8,50,49.1,49.9"/><path d="M49.1,51.7c0,0.1,0.1,0.2,0.2,0.2c0.2-0.1,0.4-0.3,0.5-0.5c0-0.2,0-0.4,0.1-0.5c-0.2-0.4-0.8-1-0.8-1l-0.9,0.4 c0,0.1,0,0.1,0.1,0.2c0.3,0,0.5,0.1,0.5,0.1c0,0.2,0,0.4,0.1,0.5c0,0,0,0,0,0c0.3,0.1,0.6,0.2,0.5,0.2 C49.3,51.4,49.2,51.5,49.1,51.7"/><path class="st3" d="M50.5,52.2c-0.2,0-0.4-0.2-0.6-0.7c-0.1-0.5,0.1-0.9,0.4-1c0.2-0.1-0.2-0.4-0.6-0.8c-0.4-0.4-1.2-0.6-1.6-0.7 c-0.2,0-0.7-0.2-0.8-0.3c-0.4-0.2-0.7-0.3-0.8-0.6c-0.1-0.2-0.1-0.4-0.2-0.9c-0.1-0.4-0.3-0.7-0.6-0.9l0,0c0.1,0,0.3,0.1,0.3,0.1 c-0.1-0.2-0.3-0.3-0.5-0.4c-0.2-0.1-0.3-0.1-0.6,0c-0.2,0.1-0.6,0.4-0.8,0.6c-0.2,0.1-0.4,0.1-0.4,0.2c-0.1,0.1-0.1,0.2-0.1,0.3 c0,0,0.1,0.2,0.1,0.2c0,0,0-0.1,0.1-0.1c0,0,0.1,0.1,0.2,0.1c0.1-0.1,0.4-0.3,0.5-0.2c0.1,0,0.2,0.1,0.3,0.1l0,0c0,0,0,0,0,0 c0,0,0,0,0,0c0,0,0,0,0,0c0.2,0,0.3-0.1,0.5-0.3c0.2,0.4,0.4,1.2,0.3,1.5c-0.2,0.5-0.1,0.5,0,0.7c0.1,0.1,0.1,0.4-0.1,0.6 c-0.2,0.2,0,0.2,0.3,0.6c0.3,0.3,0.8,0.8,1.1,0.8c0.3,0,1-0.3,1.3-0.4c0.3-0.1,0.8,0.1,0.8,0.1c0,1,0.5,1.4,0.8,1.6 c0.3,0.2,0.5,0.4,0.5,0.5c0,0.1-0.1,0.5-0.2,0.7c-0.1,0.2-0.1,0.5-0.1,0.6c0,0.1,0,0.3,0,0.3c0.3-0.1,0.4-0.4,0.4-0.4l-0.1-0.2 l0.2-0.1l-0.2-0.1c0-0.2,0.2-0.7,0.4-1C50.7,52.3,50.7,52.3,50.5,52.2"/><path class="st5" d="M44.6,46.4c0,0,0-0.1,0.1-0.1c0.1-0.1,0.2,0,0.2,0s-0.1,0-0.1,0c0,0-0.1,0.1-0.1,0.1 C44.7,46.4,44.6,46.4,44.6,46.4"/><path class="st3" d="M45.5,48.8c-0.4,0.1-1.5,0-1.6,0.1c-0.1,0.1-0.3,0.3-0.3,0.4c0,0.1,0.1,0.4,0.1,0.7c0,0.4,0.1,0.7,0.2,0.7 c0.1,0.1,0.4,0.4,0.5,0.4c0,0,0.2-0.3,0.1-0.6l-0.1,0l0.1-0.2l-0.3,0.2c0,0,0-0.1-0.1-0.2c-0.1-0.1-0.1-0.7-0.1-0.9 c0,0,0.3-0.1,0.3-0.1c0,0,0.7,0.1,1.2,0.2C46,49.6,45.5,48.8,45.5,48.8"/><path d="M46.8,50c-0.1-0.5-0.3-1-0.3-1c-0.6,0.1-0.9,0.1-1,0.4c0,0.1-0.1,0.3-0.1,0.4c0.1,0.1,0.1,0.1,0.2,0.2 c0.1,0.1,0.2,0.2,0.4,0.3C46.5,50.4,46.9,50.4,46.8,50"/><path class="st3" d="M46.5,48.9c-0.5,0.1-0.9,0.2-1,0.5c-0.1,0.3-0.1,0.4-0.1,0.4c-0.1,0-0.7,0-0.8,0.1c-0.1,0.1-0.2,0.3-0.1,0.5 c0.1,0.2,0.2,0.3,0.2,0.6c0,0.3,0.1,0.7,0.2,0.8c0.1,0,0.3,0.2,0.4,0.3c0.1,0,0-0.4,0-0.6l-0.1,0l0.1-0.2c0,0-0.3,0.2-0.3,0.3 c0,0,0.1-0.1,0-0.3c-0.1-0.2-0.1-0.5-0.1-0.6c0-0.1,0.1-0.4,0.1-0.5c0,0,0.3,0,0.8,0c0.5,0.1,0.9,0.1,1-0.2 C46.8,49.6,46.5,48.9,46.5,48.9"/><path d="M47.6,49.2c0,0.3,0.1,0.8-0.4,1.2c0,0,0.4-0.2,0.4-0.6C47.6,49.5,47.6,49.2,47.6,49.2"/><path d="M47.8,49.4c0,0.3,0.1,0.7-0.3,1.1c0,0,0.3-0.1,0.4-0.5C47.8,49.6,47.8,49.4,47.8,49.4"/><path d="M45.3,46.7c0.2,0.2,0.6,0.6,0.5,0.9c0,0.3-0.1,0.7,0.2,0.9c0,0-0.2-0.3-0.2-0.6c0-0.2,0.1-0.5-0.1-0.8 C45.5,46.8,45.3,46.7,45.3,46.7"/><path d="M48.9,50.5c0-0.1,0-0.1,0-0.2c0.1-0.3,0-0.6-0.2-0.7c0,0,0.3,0.4,0.1,0.7C48.9,50.3,48.8,50.4,48.9,50.5 C48.9,50.5,48.9,50.5,48.9,50.5"/><path d="M48,49.4c0,0,0.3,0,0.5,0.1C48.5,49.5,48.4,49.3,48,49.4"/><path d="M47.2,50.7c0.1,0,0.1,0,0.2-0.1c0-0.6-0.1-1.2-0.2-1.4c0-0.1,0-0.2-0.1-0.3c-0.2,0-0.3-0.1-0.4-0.1 C46.7,49.1,47.1,50,47.2,50.7"/><path d="M50.1,53.2c0,0.1-0.1,0.1-0.1,0.2c0,0.1-0.1,0.1-0.1,0.2c0.2-0.2,0.3-0.3,0.4-0.5c0-0.1,0.1-0.1,0.1-0.2 C50.4,52.9,50.2,53,50.1,53.2"/><path class="st2" d="M50.5,54.3c0,0,0.1-0.1,0.1-0.2c0-0.1,0-0.4,0-0.4c0,0-0.7,0.3-0.7,0.3s0.7-0.3,0.7-0.4c0,0,0.1-1.7,0.1-1.7 c-0.4-0.2-0.7-0.5-1.1-0.9c-0.2,0-0.8,1-0.8,1c0.1-0.2,0.5-0.8,0.6-1c0,0,0-0.1,0-0.1c-0.1,0.2-0.4,0.5-0.4,0.5 c0.1-0.2,0.2-0.4,0.3-0.6c-0.4-0.3-0.7-0.7-1-1.1c0,0-0.1,0.1-0.1,0.1s0-0.1,0-0.1c-0.3-0.3-0.9-0.7-0.9-0.7 c-0.1-0.1-0.4-0.1-0.4-0.1c-0.1,0,0.1,0.5,0.2,0.7c0.4,0.8,0.2,2.8-0.3,3.9c-0.3,0.8-0.5,2-0.1,2.7c0.4,0.6,2.7,1.5,2.7,1.5 c0-0.2,0.1-0.4,0.1-0.6c-0.1,0-0.1-0.1-0.1-0.1c0.1,0,0.2-0.2,0.3-0.4c0-0.1,0.1-0.1,0.1-0.2c-0.3,0-0.9-0.2-0.9-0.2 s0.9,0.2,0.9,0.1c0.1-0.4,0.9-1.3,0.9-1.3c0-0.2-0.1-0.4-0.1-0.6C50.6,54.2,50.5,54.3,50.5,54.3"/><path class="st3" d="M48.8,55.6c-0.3-0.1-2.1-0.4-2.1-0.4s2.2-1.2,3-1.9c0.8-0.7,1.2-1.5,1.2-1.5S50,53,49.7,53.2 c-1.3,0.9-3.1,1.8-3.1,1.8c-0.1-0.2,0.6-2.1,0.8-3c0.2-1.2-0.2-2.6-0.4-3c0-0.1-0.1-0.2-0.1-0.2c-0.2,0-0.3,0-0.4-0.1 c0.2,0.3,0.8,1.6,0.8,2.4c0,1-0.3,2-0.6,2.5c-0.4,0.8-0.7,2.6-0.3,3c0,0-0.1-0.4,0-0.6c0,0,1,1.2,3,1.7c0,0-1.9-0.8-2.6-1.7 c-0.1-0.2-0.2-0.3-0.1-0.4c0,0,0.9,0.1,2,0.3c0.5,0.1,1.7-0.6,2-1C50.8,54.8,49.4,55.8,48.8,55.6"/><path d="M45,46.8L45,46.8C45,46.8,45,46.8,45,46.8C45,46.8,45,46.8,45,46.8"/><path d="M45.4,46.3c-0.1,0.2-0.1,0.3-0.2,0.4c0,0,0,0,0,0c0,0,0,0,0,0C45.3,46.6,45.4,46.3,45.4,46.3"/></g><path class="st7" d="M40.2,75.6c6.9-0.1,16.7-1.8,22.4-4c-0.7-6.6-2.7-45.5-2.7-45.5s2.1,5.1,3.2,7.9c4.7-0.4,12.3-1.3,15.3-6.2 C75.5,21,73.3,13.2,71,8.1c0,0-10.4-3.8-18.6-6.4c0,0-0.9-0.3-1.3,0.4c-3,4.2-4.5,7.1-11.2,7.1l0,0c-6.4-0.1-8-2.9-10.9-7.1 c-0.5-0.7-1.4-0.4-1.4-0.4C19.5,4.2,9,8.1,9,8.1c-2.3,5.1-4.5,13-7.4,19.7c3,4.8,10.4,5.8,15.3,6.2c1.1-2.8,3.2-7.9,3.2-7.9 S18,65,17.4,71.6c5.8,2.2,15.5,4,22.4,4l0,0"/></svg>