<?xml version="1.0" encoding="utf-8"?>
<!-- Generator: Adobe Illustrator 22.0.0, SVG Export Plug-In . SVG Version: 6.00 Build 0)  -->
<svg version="1.1" id="Layer_1" xmlns="http://www.w3.org/2000/svg" xmlns:xlink="http://www.w3.org/1999/xlink" x="0px" y="0px"
	 viewBox="0 0 80 77.1" style="enable-background:new 0 0 80 77.1;" xml:space="preserve">
<style type="text/css">
	.st0{fill:#3E4095;stroke:#373435;stroke-width:0.25;stroke-linecap:round;stroke-linejoin:round;stroke-miterlimit:22.9256;}
	.st1{fill:#99344B;}
	.st2{fill:#C8C5E2;}
	.st3{fill:#ED3237;}
	.st4{fill:#FEFEFE;}
	.st5{fill:none;stroke:#000000;stroke-width:2;stroke-linecap:round;stroke-linejoin:round;}
	.st6{fill:none;stroke:#FFFFFF;stroke-width:0.5;stroke-miterlimit:10;}
	.st7{fill:#7A2427;}
	.st8{fill:#B6AA99;}
</style>
<g>
	<path class="st0" d="M40.2,75.4c6.9-0.1,16.7-1.8,22.3-4c-0.7-6.6-2.7-45.3-2.7-45.3s2.1,5.1,3.2,7.9c4.7-0.4,12.2-1.3,15.2-6.2
		c-2.9-6.8-5.1-14.5-7.4-19.6c0,0-10.4-3.8-18.5-6.4c0,0-0.9-0.3-1.3,0.4c-2.7,3.7-4.1,6.4-9,6.9c-0.6,0.1-1.3,0.1-2.1,0.1l0,0
		c-6.4-0.1-8-2.9-10.9-7.1c-0.5-0.7-1.4-0.4-1.4-0.4C19.6,4.3,9.2,8.2,9.2,8.2c-2.3,5.1-4.5,12.9-7.4,19.6c3,4.8,10.4,5.8,15.2,6.2
		c1.1-2.8,3.2-7.9,3.2-7.9s-2.1,38.7-2.7,45.3C23.3,73.6,33.3,75.4,40.2,75.4L40.2,75.4L40.2,75.4z"/>
	<path class="st1" d="M28.4,1.8l1.9,2.5C30.6,4.4,31,9,31.1,9.5c0.2,1-0.2,3.2-0.1,4.6s-0.5,1.5,0.9,2.1c1.3,0.6,3.1,1.1,2.6,0.2
		c-0.5-1-3.4-4.6-3.4-4.6s-1.1-1,0-0.4c1.1,0.6,4,2.9,4,2.9s0.4,0.1,0.7,0.1c0.3,0,2.9-0.7,2.9-0.7l-0.1,0.6c0,0,2.3-0.5,2.7-0.7
		c0.4-0.2,0.4,0.1-0.2,0.7c-0.5,0.6-1.7,1.1-2.3,1.2c-0.5,0.1-1.7-0.1-1.6,0.3c0.1,0.4,0.6,0.8,0.6,0.8s1.6-0.7,1.9-0.9
		s1.2-0.6,1.2-0.6s-0.2-0.4,0.6-0.4c0.8,0,1.2-0.1,2.7,0.2c1.5,0.2,3.9,0.7,5.3-0.1c1.4-0.8,2.1-1.3,2.1-1.3S50,16,48.5,16.8
		c-1.6,0.8-1,1,0.5,0.6c1.5-0.4,3.8-1,4.1-1.4c0.3-0.4-0.2,1-1,1.5s-1.6,1-1.3,1.4c0.4,0.4,1.7,1.5,0.8,1.7
		c-0.9,0.2-0.2,0.4-1.8-0.2c-1.6-0.6-2.9-0.6-3.3-0.3c-0.5,0.4,0.1,0.6,0.4,0.5c0.4-0.1-0.5,0.4-1.4,0.6c-1,0.3-2.1,0.7-2.1,0.7
		s0.6,0.7,0.9,0.7s-0.2,0.3-1.5,0.5c-1.2,0.2-1.8-0.1-2.2,0.4c-0.4,0.5-0.6,0.7-0.6,1.4c-0.1,0.6,0.2,2.2,0.2,2.2s0.1,2.7,1.3,3.7
		c1.2,1,2.7,1.4,3.5,2.5c0.8,1.1,1.9,2.4,2.3,3c0.5,0.6,1.3,1.5,1.3,1.5s2.6,3.3,1.1,2.2c-1.5-1.2-3-2.6-3.7-3.4
		c-0.7-0.8-2.7-2.8-2.7-2.8s-1.3-0.3-0.1,0.9c1.2,1.2,2.8,2.6,2.8,2.6s1.6,2.1,2.3,3s-1.6,0.7-2.5,0.2c-0.9-0.6-1.5-1.7-1.6-0.5
		c-0.1,1.2-1,2.9-1,2.9s-0.9-1.2-1.1-1.4c-0.2-0.2-0.3-0.4-1.4-0.2s-1.2,0.1-1.7-1.3c-0.4-1.3-1.3-0.6-2-1c-0.6-0.4-0.6,0.1-1.1-1.3
		c-0.5-1.4-2.2-6.9-2.8-8.3c-0.6-1.4-1.3-3.7-1.3-3.7s-0.4,0.3-0.5,0.7C31.1,27,30.4,26,30,26.2c-0.5,0.2-0.1,0.4-0.6,0.7
		c-0.5,0.3-0.5,0.7-0.4,1.5s0.9,2.5,0.9,2.5l0.6-1.7c0,0,0.6,1.5,0.3,2.7c-0.3,1.2,0.1,3.9-0.4,6.1c-0.5,2.2-1.8,5.3-2.8,6.1
		c-0.9,0.8-1.8,0.6-2.1,1.3c-0.3,0.7-0.6,0.7-0.9,1c-0.4,0.2-0.6,0.4-0.6,0.8c0,0.4,0.2,0.3-0.1,0.8c-0.2,0.5-0.4,0.9-0.2,1.7
		s0.7-1.4,1.1-1.2s-0.1,0.3,0.2,0.7c0.3,0.4,1-0.7,1.3-0.4s-0.7,2.4-0.3,3.3c0.4,0.9,0.2,1.5,0.5,1.8c0.3,0.3,0.9-0.4,1.2-1.1
		c0.3-0.6,0.8-1.7,0.8-1.7s-0.1,1.1,0.3,1.3c0.4,0.2,1.2-0.5,1.2-0.5s-0.8,1.3-0.4,2c0.4,0.7,2.8-0.9,3-1.4c0.2-0.5-1.4,1.6-1.5,3.1
		s-0.1,2.4,0.2,2.5c0.4,0.2,1.6-2,1.6-2l0.2,1l1.4-0.5c0,0-2.9,2.7-2.8,4.1c0.2,1.4,0.5,1.6,1.4,2.1c0.9,0.5,1.2,0.3,1.2,0.3
		s1.2-1.6,1.6-1.4c0.4,0.2,0.2,1.2,0.2,1.2l1.4,0.2c0,0-0.1,0.8-0.6,1.1c-0.5,0.3-2,1.1-3.3,1.1c-1.2,0.1-2.2,0.1-2.2,0.1L30.5,67
		c0,0-0.6,0.8-0.9,0.8c-0.3,0-0.1,0.8-0.1,1.2c0,0.4-0.1,0.5-0.1,0.5S29,69.5,29,70s0.1,2.3,0.1,2.3l1.2,0.8c0,0,0.4-2,1-2.7
		s1.4-1.1,1.4-1.1s-0.2,1.2-0.1,2c0.1,0.7,0.3,2.1,0.6,2.8c0.3,0.7,5.8,1.7,0.7,1c-5.1-0.7-9.8-1.4-16.3-3.6l2.7-45.3
		c0,0,1-4.7,0.5-9.4c-0.5-4.7-4.6-11-4.6-11L28.4,1.8L28.4,1.8z"/>
	<path class="st2" d="M25.2,2.8l0.3,4.3c0,0-1.7-0.2-2,0.6c-0.2,0.8-0.2,1.2-0.2,1.2h0.6l0.3,0.7l0.6-0.7c0,0,0.8,1.4,0.9,2.4
		c0.1,1,0.1,2.9,0.1,2.9s0.7-1.4,0.8-1.2c0.1,0.3,0.7,5.4,0.7,5.4l0.8-4.3l0.7,4.1l0.7-0.8l1,3.1l0.3-2.5l0.3,0.5l-0.1-0.3l1,2.3
		c0,0-2,0.4-4,1s-0.9-0.2-3,2.2c-0.1,0.2-2.3,1.4-2.3,1.9c0,0.2,0.2,3.3,0.1,4.9c0,0.6-0.1,1.1-0.1,1.2l2.3-0.3l0.2-0.7l-0.6,0.1
		c0,0-0.7,0.2-0.3-0.3c0.4-0.5,0.6-0.3,0.6-0.3l1-0.4l-0.6-0.1l-0.6,0c0,0-0.3-0.3,0.6-0.5c0.9-0.2,1.5-1.2,1.5-1.2l-1,0.1
		c-0.8,0.1,1.4-0.9,1.2-0.9l-0.7,0l1.1-0.8c0,0-1.3,0.2-1.8,0.8c-0.5,0.6-0.3-0.6-0.3-0.6s0.9-0.5,2-0.7c1.1-0.2,1.5-0.4,1.5-0.4
		l-1.7-0.4c0,0,1.3-1.5,3.6-1.6s2.4-0.4,2.4-0.4s0.8,2.3,1.7,3.8c0.8,1.5,3,5.7,3,5.7l2.2,3l2.2,2.6l-0.3-2.9l1.5,1.1
		c0,0,0.1,0.4-0.6-2.1c-0.7-2.5-1.5-4.5-2.6-5.6c-1.1-1.1-2.5-2.8-2.5-2.8s-1.1-2.8-1.2-3c-0.1-0.2,0.8-0.3,1.1-0.2
		c0.3,0.1,0.3-0.3,0.6-0.2c0.3,0.1,1.3-0.1,1.4-0.2c0.1-0.1,0.3-0.1,0.8-0.1c0.5,0.1,1.3-0.1,1.3-0.1l-1.1-0.5c0,0,1.4-0.4,2.1-0.7
		s1.7-0.7,1.7-0.7l-0.6-0.2l3.2-1.7l4-2.3c0,0-3.5,0.8-5.9,1.6c-2.3,0.8-6.6,1.9-6.6,1.9s2.4-0.8,2.8-1.5c0.5-0.7,1.2-0.7-1.3,0.3
		c-2.5,1-4.6,1.4-4.6,1.4s-2.2-5.8-2.8-7.8c-0.5-2-1.7-3-2-4c-0.3-1-1.5-2.2-1.5-3s-0.7-3.3-0.7-3.3L25.2,2.8L25.2,2.8z"/>
	<path class="st3" d="M20.1,27.4l-2.6,44c3,1.3,6,2,9.4,2.5c-2.5-3.4-4.4-4.3-6.5-4.8C20.2,69,22.8,57,22,44.2
		C21.2,31.5,20.1,27.4,20.1,27.4L20.1,27.4z"/>
	<path class="st3" d="M17.5,32.6c0,0-1.3-2.7-5.8-6s-7.9-4-7.9-4L9.1,8.2l7-2.5c0,0,3.1,5.5,3.7,7.5c1.2,3.6,1.3,7.5,0.4,12.9
		C20.2,26.1,18,32.2,17.5,32.6L17.5,32.6z"/>
	<path class="st4" d="M1.8,27.8c0.2-0.4,2-5.1,2-5.1s4.1,1.1,6.8,3.2s4.5,3.5,5.6,4.9c1,1.4,1.3,1.9,1.3,1.9L17,34
		c0,0-5.1-0.3-7.6-1.2C6.8,31.8,3.7,30.7,1.8,27.8L1.8,27.8z"/>
	<path class="st4" d="M78.2,27.8c-0.2-0.4-2-5.1-2-5.1s-4.1,1.1-6.8,3.2s-4.5,3.5-5.6,4.9c-1,1.4-1.3,1.9-1.3,1.9L63,34
		c0,0,5.1-0.3,7.6-1.2C73.2,31.8,76.3,30.7,78.2,27.8L78.2,27.8z"/>
</g>
<path class="st5" d="M40.2,75.6c6.9-0.1,16.7-1.8,22.4-4c-0.7-6.6-2.7-45.5-2.7-45.5s2.1,5.1,3.2,7.9c4.7-0.4,12.3-1.3,15.3-6.2
	C75.5,21,73.3,13.2,71,8.1c0,0-10.4-3.8-18.6-6.4c0,0-0.9-0.3-1.3,0.4c-3,4.2-4.5,7.1-11.2,7.1l0,0c-6.4-0.1-8-2.9-10.9-7.1
	c-0.5-0.7-1.4-0.4-1.4-0.4C19.5,4.2,9,8.1,9,8.1c-2.3,5.1-4.5,13-7.4,19.7c3,4.8,10.4,5.8,15.3,6.2c1.1-2.8,3.2-7.9,3.2-7.9
	S18,65,17.4,71.6c5.8,2.2,15.5,4,22.4,4l0,0"/>
<path class="st6" d="M55.7,18.1c0,0-1.9-0.6-3.5-0.7l0,0c0,0,0,0-0.1,0c0,0,0,0-0.1,0l0,0c-1.6,0.1-3.5,0.7-3.5,0.7s0,5,0.4,5.7
	c0.4,0.6,2.3,2.7,3.2,2.8h0.1c0.8-0.1,2.8-2.2,3.2-2.8C55.7,23.1,55.7,18.1,55.7,18.1z"/>
<g>
	<path class="st7" d="M55.7,18.1c0,0-1.9-0.6-3.5-0.7l0,0c0,0,0,0-0.1,0c0,0,0,0-0.1,0l0,0c-1.6,0.1-3.5,0.7-3.5,0.7s0,5,0.4,5.7
		c0.4,0.6,2.3,2.7,3.2,2.8l0,0c0,0,0,0,0,0c0,0,0,0,0,0l0,0c0.8-0.1,2.8-2.2,3.2-2.8C55.7,23.1,55.7,18.1,55.7,18.1z"/>
	<path class="st8" d="M54.2,20.4c-0.1,0-0.3,0.1-0.3,0.3v1.6c0,0,0,0.1,0,0.1c0,0,0,0,0,0l-0.5,0.6l-0.3-0.1c0-0.1-0.1-0.2-0.2-0.2
		c0.2-0.2,0.3-0.5,0.3-0.8c0-0.2,0-0.4-0.1-0.5l0.4-0.3c0.1-0.1,0.1-0.2,0-0.3c-0.1-0.1-0.2-0.1-0.3,0l-0.4,0.3c0,0-0.1-0.1-0.1-0.1
		l0.2-0.3c0-0.1,0-0.2-0.1-0.2v0c-0.1,0-0.2,0-0.2,0.1l-0.2,0.4c0,0,0,0,0,0c0,0,0,0-0.1,0v-0.4c0-0.1-0.1-0.2-0.2-0.2
		c-0.1,0-0.2,0.1-0.2,0.2v0.6l-0.3-0.6c0-0.1-0.2-0.1-0.2-0.1v0c-0.1,0-0.1,0.2-0.1,0.2l0.4,0.6l-0.6-0.5c-0.1-0.1-0.2,0-0.3,0
		c-0.1,0.1,0,0.2,0,0.3l0.8,0.6c0,0.1,0,0.1,0,0.2c0,0.3,0.1,0.6,0.3,0.8c-0.1,0-0.2,0.1-0.2,0.2v0h-0.3c-0.3,0-0.6,0.2-0.8,0.5
		v-2.5c0-0.2-0.2-0.4-0.4-0.4s-0.4,0.2-0.4,0.4v3.1c0,0.2,0.2,0.4,0.4,0.4c0.1,0,0.2-0.1,0.3-0.1c0.1,0.3,0.3,0.5,0.6,0.6
		c0,0,0,0,0,0v0.1c0,0.2,0.2,0.4,0.4,0.4c0.2,0,0.4-0.2,0.4-0.4v-0.1h0.5c0.1,0,0.1,0,0.2,0V25c0,0.2,0.2,0.4,0.4,0.4
		c0.2,0,0.4-0.2,0.4-0.4v-0.5c0-0.1,0-0.1-0.1-0.2c0.1-0.1,0.1-0.3,0.1-0.5v0c0-0.1,0-0.1,0-0.2l0.7-0.7v1.5c0,0.1,0.1,0.1,0.1,0.1
		c0.1,0,0.1-0.1,0.1-0.1v-1.8c0,0,0,0,0-0.1c0.1,0,0.2-0.1,0.2-0.2v-1.6C54.4,20.5,54.3,20.4,54.2,20.4z M52.7,21.8
		c0,0.1-0.1,0.2-0.2,0.2s-0.2-0.1-0.2-0.2v-0.1c0-0.1,0.1-0.2,0.2-0.2s0.2,0.1,0.2,0.2V21.8z"/>
	<g>
		<path class="st8" d="M49.1,18.5C49.1,18.5,49.1,18.5,49.1,18.5c0.1,0,0.1,0,0.1,0c0,0,0,0,0,0c0,0,0,0,0.1,0l0.1,0.5
			c0-0.1,0-0.2,0.1-0.3c0-0.1,0-0.2,0.1-0.2c0,0,0,0,0,0c0,0,0,0,0,0c0,0,0,0,0,0s0,0,0,0l0.1,0.5l0.1-0.5c0,0,0,0,0,0c0,0,0,0,0,0
			c0,0,0,0,0,0c0,0,0,0,0.1,0l-0.2,0.8c0,0,0,0,0,0c0,0,0,0-0.1,0c0,0,0,0-0.1,0c0,0,0,0,0,0l-0.1-0.5l-0.1,0.5c0,0,0,0,0,0
			c0,0,0,0-0.1,0s0,0-0.1,0c0,0,0,0,0,0L49.1,18.5z"/>
		<path class="st8" d="M50.4,18.9C50.4,18.9,50.4,18.9,50.4,18.9C50.4,18.9,50.4,18.9,50.4,18.9C50.3,18.9,50.3,18.9,50.4,18.9
			c-0.1-0.1-0.1-0.1-0.1-0.1c0,0,0,0-0.1,0c0,0,0,0-0.1,0c0,0,0,0,0,0c0,0,0,0,0,0c0,0,0,0,0,0c0,0,0,0,0,0c0,0,0.1,0,0.1,0
			c0,0,0.1,0,0.1,0c0,0,0.1,0,0.1,0c0,0,0.1,0,0.1,0c0,0,0,0,0.1,0.1c0,0,0,0.1,0,0.1v0.3c0,0-0.1,0-0.1,0c0,0-0.1,0-0.1,0
			c0,0-0.1,0-0.1,0c0,0-0.1,0-0.1,0s0,0-0.1-0.1c0,0,0-0.1,0-0.1c0,0,0-0.1,0-0.1c0,0,0,0,0.1-0.1c0,0,0.1,0,0.1,0
			C50.3,18.9,50.3,18.9,50.4,18.9L50.4,18.9z M50.4,19.1L50.4,19.1c-0.1,0-0.1,0-0.1,0c0,0,0,0,0,0c0,0,0,0,0,0c0,0,0,0,0,0
			c0,0,0,0,0,0c0,0,0,0,0,0c0,0,0,0,0,0c0,0,0,0,0,0V19.1z"/>
		<path class="st8" d="M50.8,19.1l-0.2-0.4c0,0,0,0,0,0c0,0,0,0,0.1,0c0,0,0,0,0.1,0c0,0,0,0,0,0l0.1,0.2l0.1-0.2c0,0,0,0,0,0
			c0,0,0,0,0.1,0c0,0,0,0,0.1,0c0,0,0,0,0,0L51,19.1v0.2c0,0,0,0-0.1,0c0,0,0,0,0,0c0,0,0,0,0,0c0,0,0,0-0.1,0V19.1z"/>
		<path class="st8" d="M51.5,18.9C51.5,18.9,51.5,18.9,51.5,18.9C51.5,18.9,51.5,18.9,51.5,18.9C51.5,18.9,51.5,18.9,51.5,18.9
			c-0.1-0.1-0.1-0.1-0.1-0.1c0,0,0,0-0.1,0c0,0,0,0-0.1,0c0,0,0,0,0,0c0,0,0,0,0,0c0,0,0,0,0,0c0,0,0,0,0,0c0,0,0.1,0,0.1,0
			c0,0,0.1,0,0.1,0c0,0,0.1,0,0.1,0c0,0,0.1,0,0.1,0c0,0,0,0,0.1,0.1c0,0,0,0.1,0,0.1v0.3c0,0-0.1,0-0.1,0c0,0-0.1,0-0.1,0
			c0,0-0.1,0-0.1,0c0,0-0.1,0-0.1,0s0,0-0.1-0.1c0,0,0-0.1,0-0.1c0,0,0-0.1,0-0.1c0,0,0,0,0.1-0.1c0,0,0.1,0,0.1,0
			C51.4,18.9,51.4,18.9,51.5,18.9L51.5,18.9z M51.5,19.1L51.5,19.1c-0.1,0-0.1,0-0.1,0c0,0,0,0,0,0c0,0,0,0,0,0c0,0,0,0,0,0
			c0,0,0,0,0,0c0,0,0,0,0,0c0,0,0,0,0,0c0,0,0,0,0,0V19.1z"/>
		<path class="st8" d="M51.9,19.1l-0.2-0.4c0,0,0,0,0,0c0,0,0,0,0.1,0c0,0,0,0,0.1,0c0,0,0,0,0,0L52,19l0.1-0.2c0,0,0,0,0,0
			c0,0,0,0,0.1,0c0,0,0,0,0.1,0c0,0,0,0,0,0l-0.2,0.4v0.2c0,0,0,0-0.1,0c0,0,0,0,0,0c0,0,0,0,0,0c0,0,0,0-0.1,0V19.1z"/>
		<path class="st8" d="M52.6,19.3c0,0-0.1,0-0.1,0c0,0-0.1,0-0.1-0.1c0,0,0-0.1-0.1-0.1c0,0,0-0.1,0-0.1c0,0,0-0.1,0-0.1
			c0,0,0-0.1,0.1-0.1c0,0,0.1,0,0.1-0.1c0,0,0.1,0,0.1,0c0,0,0.1,0,0.1,0c0,0,0.1,0,0.1,0.1c0,0,0,0.1,0.1,0.1c0,0,0,0.1,0,0.1
			c0,0,0,0.1,0,0.1c0,0,0,0.1-0.1,0.1c0,0-0.1,0-0.1,0.1C52.7,19.3,52.7,19.3,52.6,19.3z M52.6,19.2C52.6,19.2,52.7,19.2,52.6,19.2
			c0.1-0.1,0.1-0.1,0.1-0.1c0,0,0-0.1,0-0.1c0,0,0,0-0.1,0c0,0-0.1,0-0.1,0c0,0,0,0.1,0,0.1C52.5,19.1,52.5,19.1,52.6,19.2
			C52.5,19.2,52.6,19.2,52.6,19.2z"/>
		<path class="st8" d="M53.1,19.1C53.1,19.1,53,19,53.1,19.1C53,19,53,19,53,18.9c0,0,0-0.1,0-0.1s0,0,0-0.1c0,0,0,0,0.1,0
			c0,0,0.1,0,0.1,0c0,0,0.1,0,0.1,0c0,0,0.1,0,0.1,0c0,0,0,0,0,0.1c0,0,0,0.1,0,0.1c0,0,0,0-0.1,0c0,0-0.1,0-0.1,0c0,0-0.1,0-0.1,0
			c0,0,0,0,0,0c0,0,0,0,0,0l0.1,0c0,0,0,0,0.1,0c0,0,0,0,0,0c0,0,0,0,0,0c0,0,0,0,0,0.1c0,0,0,0.1,0,0.1c0,0,0,0-0.1,0.1
			c0,0,0,0-0.1,0c0,0-0.1,0-0.1,0c0,0-0.1,0-0.1,0c0,0-0.1,0-0.1,0c0,0,0-0.1,0-0.2C53,19.1,53,19.2,53.1,19.1
			C53.1,19.2,53.1,19.2,53.1,19.1C53.1,19.2,53.2,19.2,53.1,19.1C53.2,19.2,53.2,19.2,53.1,19.1c0.1,0.1,0.1,0.1,0.1,0.1
			c0,0,0,0,0,0c0,0,0,0,0,0C53.2,19.1,53.2,19.1,53.1,19.1L53.1,19.1z"/>
		<path class="st8" d="M54.1,19.3c-0.1,0-0.1,0-0.2,0c0,0-0.1,0-0.1-0.1c0,0,0-0.1-0.1-0.1c0,0,0-0.1,0-0.2c0-0.1,0-0.1,0-0.2
			c0-0.1,0-0.1,0.1-0.1c0,0,0.1-0.1,0.1-0.1c0,0,0.1,0,0.2,0c0.1,0,0.1,0,0.2,0c0,0,0.1,0,0.1,0.1c0,0,0,0.1,0.1,0.1
			c0,0.1,0,0.1,0,0.2c0,0.1,0,0.1,0,0.2c0,0,0,0.1-0.1,0.1c0,0-0.1,0.1-0.1,0.1C54.2,19.3,54.1,19.3,54.1,19.3z M54.1,19.2
			c0.1,0,0.1-0.1,0.1-0.2c0-0.2,0-0.2-0.1-0.2c-0.1,0-0.1,0.1-0.1,0.2c0,0.1,0,0.1,0,0.2C54,19.1,54,19.2,54.1,19.2z M54.4,19.4
			C54.4,19.4,54.4,19.4,54.4,19.4c0,0.1,0,0.1,0,0.2L54,19.5c0,0,0,0,0,0c0,0,0,0,0,0c0,0,0-0.1,0-0.1L54.4,19.4z"/>
		<path class="st8" d="M55,19.1c0,0.1,0,0.1,0,0.2c0,0,0,0-0.1,0c0,0,0,0-0.1,0c0,0,0,0,0,0c0,0,0,0-0.1,0c-0.1,0-0.1,0-0.2,0
			c0,0-0.1,0-0.1-0.1c0,0-0.1-0.1-0.1-0.1c0,0,0-0.1,0-0.2c0-0.1,0-0.1,0-0.2c0-0.1,0-0.1,0.1-0.1c0,0,0.1-0.1,0.1-0.1
			c0,0,0.1,0,0.2,0c0,0,0.1,0,0.1,0c0,0,0.1,0,0.1,0c0,0,0,0.1,0,0.1c0,0,0,0.1,0,0.1c0,0,0,0,0,0c0,0,0,0,0,0c0,0,0,0,0,0
			c0,0,0,0,0,0c-0.1,0-0.1,0-0.1,0.1c0,0,0,0.1,0,0.2c0,0.2,0.1,0.2,0.2,0.2C54.9,19.1,55,19.1,55,19.1C55,19.1,55,19.1,55,19.1z"/>
	</g>
</g>
</svg>
