<?xml version="1.0" encoding="UTF-8"?>
<!DOCTYPE svg PUBLIC "-//W3C//DTD SVG 1.1//EN" "http://www.w3.org/Graphics/SVG/1.1/DTD/svg11.dtd">
<!-- Creator: CorelDRAW X8 -->
<svg xmlns="http://www.w3.org/2000/svg" xml:space="preserve" width="210mm" height="297mm" version="1.1" style="shape-rendering:geometricPrecision; text-rendering:geometricPrecision; image-rendering:optimizeQuality; fill-rule:evenodd; clip-rule:evenodd"
viewBox="0 0 21000 29700"
 xmlns:xlink="http://www.w3.org/1999/xlink">
 <defs>
  <style type="text/css">
   <![CDATA[
    .str0 {stroke:black;stroke-width:525;stroke-linecap:round;stroke-linejoin:round}
    .fil8 {fill:none}
    .fil2 {fill:black}
    .fil1 {fill:#252524}
    .fil0 {fill:#2E602F}
    .fil4 {fill:#45432B}
    .fil3 {fill:#4C492A}
    .fil6 {fill:#CCCCCB}
    .fil7 {fill:#D9D9D9}
    .fil5 {fill:#EBB11E}
    .fil10 {fill:white}
    .fil9 {fill:#0F0E0D;fill-opacity:0.749020}
   ]]>
  </style>
 </defs>
 <g id="Capa_x0020_1">
  <metadata id="CorelCorpID_0Corel-Layer"/>
  <path class="fil0" d="M4883 16963c288,1076 52,1943 26,2914 -53,1234 -210,2467 -420,3675 341,157 1234,341 1391,367 315,53 604,132 893,210 1102,263 2205,473 3307,473 1260,0 2441,-79 3675,-394 814,-210 2651,-551 2678,-682 52,-394 -79,-919 -79,-1313 -53,-735 -158,-1470 -210,-2205 -79,-1076 -289,-2389 -158,-3544l-10920 79 -183 420z"/>
  <path class="fil1" d="M20318 11083c-158,-105 -289,-262 -315,-499 0,-78 -27,-157 -27,-236 -236,-315 -315,-735 -236,-1129 -79,-288 -184,-551 -262,-813 -27,-53 -79,-105 -105,-158 -27,0 -53,-26 -79,-26 -394,-131 -499,-525 -420,-840 -236,-289 -525,-578 -814,-814 -157,53 -315,26 -472,-52 -1234,-657 -2652,-840 -3964,-1339l-158 0c0,26 0,26 -26,52 -289,788 -735,1470 -1575,1733 -761,236 -1575,131 -2362,184 -315,0 -525,-158 -604,-394 -263,-53 -420,-236 -473,-446 -105,-27 -551,-709 -656,-814 -709,-709 -919,-105 -1654,52 -183,105 -420,184 -682,184 0,0 0,0 -26,0 -27,0 -79,26 -105,26 -132,27 -263,53 -394,105 -210,210 -499,342 -893,342 -131,105 -315,183 -498,210 -53,157 -210,288 -420,341 -184,52 -315,79 -447,79 -183,183 -367,341 -525,551 0,210 -52,420 -157,604 -53,288 -131,603 -289,866 -52,79 -105,157 -184,210 -52,262 -183,499 -393,682 -27,105 -53,237 -105,342 0,367 -105,735 -342,997 0,105 0,210 0,289l0 0c0,420 53,814 132,1181 78,26 131,79 183,131 289,105 473,289 604,499 105,-26 210,-26 315,0 53,26 131,26 184,53 184,0 341,52 472,105 368,78 735,131 1103,236 79,-26 184,-26 289,-26 157,0 288,26 420,52 26,-52 78,-105 131,-131 -105,-236 0,-578 341,-578 420,0 499,552 210,735 79,158 53,342 -52,473 236,341 288,787 183,1181 53,446 27,893 -26,1365 -26,210 -105,420 -184,604 604,184 1234,289 1890,289l7245 0c525,0 998,-79 1497,-184 78,-158 210,-289 341,-394 26,-236 79,-446 184,-630 -53,-157 -53,-341 -27,-525 -288,-472 -262,-1102 27,-1549 0,-52 0,-78 0,-131 -420,-79 -394,-787 78,-787 263,0 394,210 368,420 52,0 79,26 105,52 105,-79 236,-131 394,-105 551,26 1128,-184 1627,-367 210,-79 1234,-499 1234,-683 0,-236 420,-394 577,-499 27,-236 -262,-525 -262,-787l0 0c79,-131 79,-210 79,-289z"/>
  <g id="_2112584774368">
   <path class="fil2" d="M6015 17700c-27,60 45,52 -45,29 -62,-16 -44,-154 -42,-194 7,-108 22,-266 90,-352 15,-20 31,-39 47,-65 14,-22 44,-80 52,-100 22,-52 11,-44 30,-105 100,-45 85,-15 169,-76 219,-160 589,-269 602,-366l258 -337c57,-39 189,-7 271,8 269,52 223,54 368,165l26 18c86,61 90,65 110,182 10,65 13,81 10,134 -19,422 45,472 -232,472 -96,-109 -4,-170 -151,-221 14,78 16,67 46,126 14,29 47,46 36,163 -9,110 -46,161 -128,176 -21,3 -95,1 -115,1l25 -293c2,-34 3,-33 -6,-63 -101,-10 -125,-7 -121,80 -70,-173 -408,-301 -500,-170l8 4c122,56 448,-59 482,375 -137,-77 -103,-135 -205,-180 92,0 161,160 162,166 12,58 -13,81 -13,80 -1,-3 -6,16 -11,23 -89,-46 -66,25 -67,-133 22,105 67,149 90,267 -191,-30 -119,-19 -192,-148 -52,-91 -62,-32 -122,-162 -127,-274 -353,-116 -355,-113 -3,-4 -70,-18 13,-16 52,2 16,-2 46,10 159,65 6,-3 85,128 251,413 -199,661 -279,1134 -47,277 2,164 -88,237 -1,-104 -16,-91 -18,-195 0,-46 -6,-118 -3,-185 -133,441 -117,112 -46,576l-149 -188c-78,-169 -180,-516 -123,-696 -57,-40 -17,-13 -40,-3 -29,240 96,894 360,993 92,35 163,141 278,186 -74,-307 -161,-551 28,-826 155,-227 313,24 633,-436 87,-125 117,-433 316,-370 12,84 -76,69 -111,196 -33,118 25,196 50,269 162,0 137,21 232,-60 25,29 69,89 109,114 71,-29 45,-26 80,-108l113 495 41 -118c62,135 162,288 283,330 5,-201 -74,-335 151,-666 53,-79 108,-145 178,-222 165,-179 98,-48 308,-117 -34,102 -153,193 -150,354l160 23c26,-80 -2,-108 61,-154 107,51 58,122 78,263 13,92 44,192 97,251 30,-161 -8,-359 329,-484l-37 313c82,-107 149,-355 287,-377 -8,326 -100,266 -178,307l4 313c76,-65 126,-319 348,-425 -84,170 -165,287 -258,449 -51,89 -60,163 -115,240 -61,85 -114,127 -139,255 33,-24 15,-9 43,-37 1,0 32,-35 34,-37 123,-152 132,-230 320,-413 60,-58 95,-70 162,-117 -150,245 -154,220 -213,311 -137,214 -156,144 -246,290 -86,141 -53,321 -139,255l-81 -140c-2,-4 -5,-11 -9,-16 21,295 53,146 148,307 65,109 131,180 182,265 16,-24 25,-12 20,-106 -8,-160 -32,-208 19,-405 38,-149 108,-270 191,-381 82,-10 151,-3 233,-20 90,-18 118,-49 202,-75 -49,140 -247,280 -324,398l432 -128 -116 418c105,-94 288,-339 400,-402l30 438 292 -666c40,-71 3,-46 88,-71 51,-15 106,-14 158,-8 -26,43 -73,131 -110,170 -30,53 -56,63 -101,96 28,17 -2,2 33,14l31 8c-97,381 73,170 -376,738 -157,197 -398,355 -783,354 87,158 234,206 414,254 359,97 790,116 1137,-41 168,-76 50,-60 231,-50 101,6 197,-25 276,-66 246,-128 399,-526 573,-765 96,-130 258,-188 389,-279 120,-83 72,-123 145,-191 58,-54 161,-49 237,-88 -22,-171 -85,-159 22,-294 55,30 13,-1 58,44 22,22 34,42 49,63l253 346 -182 -825c-27,-130 -9,-181 52,-269l432 102c-51,-27 -185,-174 -238,-230l-117 -153c-25,-60 1,-119 11,-189l146 -6c56,-242 186,-136 186,-405l242 46c-27,-87 -71,-203 -116,-268 -60,-85 -164,-112 -171,-236 145,-25 517,22 571,1l-214 -152c-29,-28 -21,-23 -27,-44 0,-1 -22,-130 -26,-150l434 -54c-74,-60 -309,-177 -406,-212l143 -340c73,-138 175,-85 409,-85 -85,-52 -216,-149 -302,-207l107 -70 -153 -113 82 -43c-103,-195 51,-92 -214,-329 29,-105 25,-41 60,-102 43,-75 16,-57 24,-150 11,-127 4,-55 54,-128 47,-67 23,-34 40,-136l189 -17c-18,-96 -100,-77 -120,-209 -42,-292 -61,-761 -78,-1062l-110 105c-3,149 -25,197 -82,309 -74,145 -39,166 -233,170 264,374 194,179 61,509 -181,-7 -394,-56 -556,-102 -19,-109 -53,-151 -47,-259 148,-19 171,29 254,96 54,44 163,115 173,152l-128 -483c160,-6 161,33 196,-114 36,-155 29,-104 139,-172l1 -200c74,-29 415,-213 481,-260 128,-91 197,-295 275,-445 -190,87 -405,334 -624,320 55,-19 48,-20 84,-59 -123,9 -489,90 -581,141 -88,48 -10,12 -90,89 -18,18 -74,65 -96,82 -46,37 -65,36 -103,76 -138,144 -82,102 -253,-4 -119,-74 -97,20 -138,-122l440 -27c-95,-11 -500,-185 -625,-224l30 -27c4,-3 11,-9 15,-12 4,-3 11,-7 15,-11 126,-90 58,-200 159,-220 273,-57 59,64 525,-222 -154,-37 -149,-4 -178,-107 73,-50 133,-45 213,-92 197,-116 463,-205 658,-316 -171,-9 -453,-15 -620,3 -99,10 -162,30 -242,68 -102,49 -105,25 -250,19 -96,139 -15,137 -235,178l-272 -474 66 586c-211,6 -125,19 -228,-73 -125,-45 -12,126 -640,-189 68,155 186,380 321,491 3,3 10,8 14,12 -84,39 -73,63 -143,109l-200 -114 12 198c-84,-41 -104,-11 -179,-67 -62,-46 -100,-82 -161,-123 33,118 118,276 114,397 -63,76 -181,157 -296,185 -110,-80 -210,-213 -296,-310l-7 136 -171 -29c48,99 92,118 128,228l-327 -160c-69,-49 -56,21 -42,-114l139 41c-19,-59 -92,-220 -115,-262 35,-25 76,-17 129,-8l-21 -130 104 -76c2,-2 7,-7 11,-10l311 105c-102,-347 -122,-153 -9,-540 122,43 166,159 246,226l28 -305 166 33c16,-110 33,-169 94,-267 46,-74 113,-111 163,-183 -95,-1 -194,-13 -287,-5 -147,14 -139,81 -223,80 -142,-1 33,-76 -180,27l-201 75c-89,-161 -30,-70 -106,-101 -40,-16 -82,-76 -103,-139 -12,129 -11,282 -49,398 -15,47 6,-5 -29,17l-88 112 -278 30 -79 134 -538 -123c76,102 159,152 211,270 -27,0 -71,-3 -98,-1 -90,7 -110,55 -220,2 -104,-49 -124,-117 -187,-221 -64,-105 -257,-391 -294,-489 29,141 118,356 134,491 10,85 5,137 25,248 25,144 39,150 83,267 -234,12 -200,128 -289,42l-48 149c-82,-41 -190,-86 -301,-115l31 297c-72,-31 -58,-40 -124,-80 3,110 -62,142 -185,231 39,74 51,68 69,170 -207,0 -288,-50 -476,-74l153 243c-250,61 -107,192 -277,249 -158,52 -396,-181 -477,194 -20,94 -48,113 -56,203 -10,112 18,233 -20,339l-28 160c-117,-46 -98,-45 -184,-102 18,146 64,189 13,330 -56,-46 -61,-67 -102,-107l-3 334 -179 57 2 103 -169 8c25,49 53,85 90,135 54,72 78,91 108,174 -299,139 -477,483 -640,557l290 -67c-23,163 17,230 -4,395 -21,157 -140,106 -265,163 41,35 249,297 273,347 -143,183 -158,152 -364,254 -310,153 -567,337 -623,712 -44,292 32,351 138,512 40,-42 49,-93 54,-156z"/>
   <path class="fil3" d="M6015 17700c34,-90 -2,-17 54,-52l-39 248c-57,180 45,527 123,696l149 188c-71,-464 -87,-135 46,-576 -3,67 3,139 3,185 2,104 17,91 18,195 90,-73 41,40 88,-237 80,-473 530,-721 279,-1134 -79,-131 74,-63 -85,-128 -30,-12 6,-8 -46,-10 -83,-2 -16,12 -13,16 2,-3 228,-161 355,113 60,130 70,71 122,162 73,129 1,118 192,148 -23,-118 -68,-162 -90,-267 1,158 -22,87 67,133 5,-7 10,-26 11,-23 0,1 25,-22 13,-80 -1,-6 -70,-166 -162,-166 102,45 68,103 205,180 -34,-434 -360,-319 -482,-375l-8 -4c92,-131 430,-3 500,170 -4,-87 20,-90 121,-80 9,30 8,29 6,63l-25 293c20,0 94,2 115,-1 82,-15 119,-66 128,-176 11,-117 -22,-134 -36,-163 -30,-59 -32,-48 -46,-126 147,51 55,112 151,221 277,0 213,-50 232,-472 3,-53 0,-69 -10,-134 -20,-117 -24,-121 -110,-182l-26 -18c-145,-111 -99,-113 -368,-165 -82,-15 -214,-47 -271,-8l-258 337c-13,97 -383,206 -602,366 -84,61 -69,31 -169,76 -19,61 -8,53 -30,105 -8,20 -38,78 -52,100 -16,26 -32,45 -47,65 -68,86 -83,244 -90,352 -2,40 -20,178 42,194 90,23 18,31 45,-29z"/>
   <path class="fil3" d="M9511 16667c239,-36 107,-135 345,-30 -41,8 -235,-16 -247,52l-35 81c-8,26 -12,70 -21,110 -8,36 -22,72 -21,98 6,230 -11,71 68,135l41 -76c17,-26 43,-59 93,-58 17,58 -25,110 -56,175 -62,128 -31,40 -124,131 48,31 -16,10 57,14 21,1 71,-5 103,-4 -115,19 -183,94 -292,125 5,0 32,48 8,-13 -1,-2 32,13 -5,-14 -75,-53 -109,24 -148,92l-89 175c-11,36 -5,42 -24,99 5,3 13,3 14,9 6,28 38,7 21,14 -30,80 -22,79 -22,178l227 -198c3,-4 5,-11 7,-16 26,-56 35,-84 91,-109 228,-101 608,-98 728,89l15 28c34,53 47,35 74,114 12,35 16,75 22,108 12,73 14,50 7,139 -10,112 -109,347 93,302 196,-44 147,-419 150,-592 3,-125 55,-169 -74,-248 84,25 112,11 145,119 21,70 59,184 111,233 -9,-114 50,-208 25,-386 38,30 18,-24 66,72 46,93 9,68 8,71l21 -176c100,112 244,163 123,321 -4,6 -19,21 -23,29 -26,47 -18,-12 -33,100 239,-72 1,-62 394,-163l-63 -103 -152 -29c0,88 29,43 30,-11l-7 -71c32,-15 29,-10 49,-7l-54 -1c7,-110 -5,-247 25,-328l-31 -13c-29,-18 -43,33 -15,-12 46,-77 -46,25 29,-13l29 -14c151,-91 88,-109 60,-208l-2 -22c10,-70 58,-66 -25,-146 -70,4 -64,17 -89,69 17,-87 19,-55 0,-131 -83,66 -34,48 -89,149l-134 4c39,-79 91,-100 137,-167l-92 -35 -45 94 -172 -8 127 -127c-127,6 -225,54 -304,119 -179,149 -181,55 -219,82 -56,66 5,47 -92,90l-65 23c-131,46 -254,67 -340,175 -47,-50 -11,-200 9,-264 42,-135 9,-57 73,-100 19,36 57,80 72,100l48 -155c58,-18 73,-27 107,3l47 -207 -89 -116c-45,-77 -39,-41 -147,-70l92 -91 -38 -123c-44,39 -36,87 -55,145l-15 -138c-63,22 -106,55 -146,91 -56,49 -28,16 -51,59 -107,196 50,-59 -30,65l-27 37c-3,6 -14,24 -17,29 -21,34 -25,45 -54,75 -111,111 -92,7 -118,171z"/>
   <path class="fil4" d="M11242 18711c15,73 -27,37 89,92 -134,17 -97,29 -126,137 171,-47 41,-70 207,-125 82,-27 183,-38 278,-19 -83,24 -91,-7 -146,27 -82,49 -9,-17 -72,72 385,60 314,91 369,185 83,140 46,-21 151,166 3,5 6,11 8,15 3,5 7,10 9,15 64,100 75,-23 9,309l-56 180c138,-22 78,-20 204,-88 129,-71 156,-117 244,-289 65,-127 94,-206 228,-286 223,-133 169,-69 417,-254 40,-29 1,-17 65,-55 -16,-95 -10,-18 -16,-31l6 -131c5,-98 -21,-165 -52,-232 -45,118 -6,116 -102,144 -30,-87 -39,-173 52,-205 -5,-7 -12,-26 -15,-21 -3,4 -10,-16 -14,-21l-53 -57c-39,-31 -55,-33 -117,-51 -83,55 -90,117 -156,84 16,7 25,60 62,-33 22,-56 36,55 3,-50 -25,-83 -153,-64 -199,16 68,-37 70,-55 89,-156 -188,28 -76,24 -259,184 -91,81 -56,-6 -163,109 -125,136 -45,-74 -185,235l-46 -59 459 -438c68,-46 32,0 66,-52 11,-16 20,-75 31,-106 -169,8 -287,272 -283,288 31,-122 85,-149 130,-263 -58,24 -55,-2 -124,131 -262,512 -177,247 -541,383l-46 18c-182,49 -63,2 -265,120 -57,33 -106,49 -140,112z"/>
   <path class="fil5" d="M9336 14922c-92,-121 -186,-218 -293,-349l-289 -362c-101,201 -58,466 -112,606 -129,-41 -184,-266 -203,-396 -33,-233 -1,-329 42,-539 -45,-44 -79,-76 -119,-121 -65,-72 -354,-337 -475,-212 -141,149 -223,610 -97,829 119,209 371,319 626,419 300,117 564,141 920,125z"/>
   <path class="fil5" d="M13611 15423c-56,117 -73,285 -230,457 -55,60 -286,286 -399,257 -8,-47 210,-437 240,-596 -297,127 -869,261 -906,284 232,138 328,244 674,348 217,65 656,130 864,23 236,-121 412,-240 437,-579 15,-202 -34,-251 -235,-253 -146,-1 -310,21 -445,59z"/>
   <path class="fil6" d="M11368 19419c34,-47 27,-59 65,-117 26,-40 52,-63 74,-117l-50 -94c-70,40 -96,88 -141,163 -81,133 -45,59 -150,155 23,-55 57,-96 89,-158 -61,43 -42,42 -92,94 -75,78 -170,121 -290,289 -33,46 -131,153 -180,198l-244 164 148 4c-145,47 -218,20 -372,36 102,72 393,130 535,140 131,9 93,17 176,-49 56,11 12,-2 22,12 2,2 6,8 8,11 2,2 6,11 8,13 2,3 5,12 8,17 344,-37 447,-96 677,-274 86,-67 128,-57 229,-104 -80,-60 -87,-24 -81,-173 119,-72 127,-53 163,-132 -46,-64 -78,-67 -112,-83 -63,-28 5,-18 -71,-19l-43 13c-2,-44 -7,-103 10,-146 26,-71 180,-111 66,-174 -85,-47 -276,209 -452,331z"/>
   <path class="fil7" d="M7971 17781c88,28 -15,-52 77,-22l20 180c26,-70 16,-110 61,-178 1,168 -72,219 -13,417 25,-77 45,-155 77,-222 11,-21 47,-80 50,-94 31,-123 -50,85 -3,-82 144,-51 -27,44 93,-14l-28 166c89,-57 130,-218 318,-370 112,-91 297,-210 282,-424l-295 137c47,-152 216,-325 284,-403 38,-44 30,-9 1,-50l-14 -16c-1,-2 -5,-8 -6,-9l-10 -19c-61,39 -60,48 -136,81 8,-141 21,-121 66,-153l34 -18c-194,-56 -142,118 -382,251 63,-115 178,-170 259,-275 -381,-35 -432,185 -550,365 -119,182 -207,508 -185,752z"/>
  </g>
  <path class="fil8 str0" d="M10553 24576c1811,-27 4383,-473 5880,-1050 -184,-1733 -709,-11944 -709,-11944 0,0 551,1339 840,2074 1234,-105 3229,-342 4016,-1628 -761,-1785 -1339,-3832 -1942,-5171 0,0 -2730,-998 -4883,-1680 0,0 -236,-79 -341,105 -788,1102 -1181,1864 -2940,1864l0 0c-1680,-27 -2100,-762 -2861,-1864 -132,-184 -368,-105 -368,-105 -2126,656 -4882,1680 -4882,1680 -604,1339 -1182,3412 -1943,5171 788,1260 2730,1523 4016,1628 289,-735 840,-2074 840,-2074 0,0 -551,10211 -708,11944 1522,577 4068,1050 5880,1050l0 0"/>
  <polygon class="fil9" points="6956,15624 6956,15624 6956,15624 6956,15624 "/>
  <g id="_2112584777888">
   <path class="fil10" d="M5381 21268l0 0c0,0 27,53 105,131 79,158 132,315 184,473l53 131c131,-289 183,-472 183,-525 27,-79 53,-131 53,-184l0 0 0 0c105,79 157,132 157,184 0,26 -52,184 -157,420 -184,446 -289,735 -341,840 -53,79 -105,210 -132,341 0,27 -26,27 -52,27l-26 0c-53,0 -132,-53 -210,-158l0 -26c0,-26 52,-53 131,-131 52,-105 157,-315 289,-604 -53,-210 -105,-368 -158,-499 -52,-105 -105,-184 -184,-236 0,0 0,0 0,-26l0 -27c0,-52 53,-105 105,-131z"/>
   <path class="fil10" d="M6799 21268c26,0 52,26 52,79l0 26c0,0 0,0 0,0l0 0c0,53 0,79 0,79l0 26 0 26 0 27 0 105 0 0 0 26 0 52c0,0 0,53 0,105l0 27 0 26 0 184c0,0 27,52 27,131 0,0 0,0 0,0l0 26 0 0 0 0c0,184 0,289 26,289l0 105c0,0 26,0 26,0l0 0 0 26 0 0 0 53c0,78 26,105 26,105 0,0 27,0 27,26 52,26 78,52 78,105l0 0c-26,26 -26,52 -26,52 -26,27 -52,53 -79,53l-78 0c-53,0 -79,-26 -132,-79 -26,0 -52,-131 -52,-394 0,0 0,-26 0,-52l0 -105 0 -53 0 -26c0,-26 -26,-52 -79,-52 -79,0 -105,0 -105,26 -26,26 -26,79 -52,157l-27 0 0 0c0,0 0,27 -26,27l-52 157c0,0 -27,53 -27,131 0,27 -26,53 -52,105l-53 27 79 0c-26,-27 -52,-27 -52,-27l0 -52 52 26c26,-26 53,-79 79,-157 26,-27 26,-53 26,-105l53 -184 52 -105c0,-26 0,-26 0,-26l0 0 0 -27c26,-52 53,-105 79,-210l26 -131c0,0 26,-26 26,-79l0 -26c0,0 27,-26 27,-105l0 0 0 -26c26,-79 26,-131 26,-184l0 0 0 0c0,-52 0,-79 26,-79l0 -26c0,0 0,-26 0,-26 53,-53 79,-79 79,-79zm-105 578l-26 131 0 26 -27 53 0 78c0,0 0,0 27,27 52,0 78,0 78,-27l0 0 0 0c0,-52 0,-105 0,-183 0,0 0,0 -26,-27l0 0c0,-52 0,-52 -26,-78l0 0 0 0z"/>
   <path class="fil10" d="M7324 21268l131 0c53,0 53,26 53,79 -27,79 -27,131 -27,184l0 26 0 26 0 105c0,0 27,79 27,236l0 27 0 341 0 79 26 210 0 52 0 0 52 -79c0,0 27,-26 27,-78l0 -27c26,-52 52,-78 78,-78 0,0 0,-27 27,-53 0,0 0,-26 26,-26 0,-26 26,-53 52,-79 0,0 0,-26 27,-26 0,-26 0,-26 26,-53 0,-26 26,-78 52,-105 0,-26 27,-52 53,-78 0,-27 26,-53 52,-79 0,-26 0,-53 27,-53 0,0 0,-26 26,-52 0,0 26,-53 52,-105 0,0 27,-26 27,-53 0,0 26,0 26,-26l0 -26c26,0 26,-26 52,-105 27,0 27,-26 27,-79 26,-26 52,-52 52,-52l0 0c53,0 79,0 79,26 0,0 26,26 26,105 0,52 26,105 26,157l0 105c0,27 0,105 27,210l0 27 0 157 0 735 0 53 0 26c-27,105 -27,157 -53,157l-105 0c-79,0 -105,0 -105,-26l0 0c0,-26 26,-52 53,-79l26 -78 0 -132 0 -26 0 -262 0 -184 0 -236 0 -53c-26,-210 -26,-289 -53,-289l0 0c-26,27 -52,53 -52,79l-53 79c0,26 0,26 -26,52 -52,79 -79,158 -131,237 0,26 0,52 -26,78 0,0 0,27 -27,53 -26,52 -26,79 -52,79 -53,105 -79,157 -79,183 0,27 0,53 -26,53 -26,26 -53,52 -53,105 0,26 -26,52 -52,79 0,26 0,26 0,26l0 26c0,53 -26,53 -26,53l0 26c0,26 -27,52 -27,79l-26 0 0 26c-26,0 -26,26 -26,52l-26 53 -27 0c-26,0 -26,-26 -52,-53 0,0 0,0 0,-26 0,0 -26,0 -26,-26l0 0 0 -53 0 0 0 -262 0 -105 26 -210 0 -26 0 -184c0,-79 26,-184 26,-289l0 0 0 -26 0 -79 0 -157 0 -53 0 -26 0 -26c0,-53 -26,-105 -52,-132l0 -26c-132,-79 -105,-79 -79,-105 -26,0 -26,0 0,0z"/>
   <path class="fil10" d="M9056 21268c27,0 53,26 53,79l0 26c0,0 0,0 0,0l0 0c0,53 0,79 0,79l0 26 0 26 0 27 0 105 0 0 0 26 0 52c0,0 0,53 0,105l0 27 0 26 0 184c0,0 26,52 26,131 0,0 0,0 0,0l0 26 0 0 0 0c0,184 0,289 26,289l0 105c0,0 27,0 27,0l0 0 0 26 0 0 0 53c0,78 26,105 26,105 0,0 26,0 26,26 53,26 79,52 79,105l0 0c-26,26 -26,52 -26,52 -27,27 -53,53 -79,53l-79 0c-52,0 -79,-26 -131,-79 -26,0 -53,-131 -53,-394 0,0 0,-26 0,-52l0 -105 0 -53 0 -26c0,-26 -26,-52 -78,-52 -79,0 -105,0 -105,26 -27,26 -27,79 -53,157l-26 0 0 0c0,0 0,27 -26,27l-53 157c0,0 -26,53 -26,131 0,27 -26,53 -53,105l-52 27 -26 0c-27,-27 -53,-27 -53,-27l0 -52 53 -79c26,-26 52,-79 78,-157 27,-27 27,-53 27,-105l52 -184 53 -105c0,-26 0,-26 0,-26l0 0 0 -27c26,-52 52,-105 78,-210l27 -131c0,0 26,-26 26,-79l0 -26c0,0 26,-26 26,-105l0 0 0 -26c105,52 105,-26 105,-79l0 0 0 0c0,-52 0,-79 26,-79l0 -26c0,0 0,-26 0,-26 53,-53 79,-79 105,-79zm-105 578l-26 131 0 26 -26 53 0 78c0,0 0,0 26,27 53,0 79,0 79,-27l0 0 0 0c0,-52 0,-105 0,-183 0,0 0,0 -26,-27l0 0c0,-52 -27,-52 -27,-78l0 0 0 0z"/>
   <path class="fil10" d="M10579 21268c26,0 52,26 52,79l0 26c0,0 0,0 0,0l0 0c0,53 0,79 0,79l0 26 0 26 0 27 0 105 0 0 0 26 0 52c0,0 0,53 0,105l0 27 0 26 0 184c0,0 27,52 27,131 0,0 0,0 0,0l0 26 0 0 0 0c0,184 0,289 26,289l0 105c0,0 26,0 26,0l0 0 0 26 0 0 0 53c0,78 26,105 26,105 0,0 27,0 27,26 52,26 78,52 78,105l0 0c-26,26 -26,52 -26,52 -26,27 -52,53 -79,53l27 0c-53,0 -79,-26 -132,-79 -26,0 -52,-131 -52,-394 0,0 0,-26 0,-52l0 -105 0 -53 0 -26c0,-26 -26,-52 -79,-52 -79,0 -105,0 -105,26 -26,26 -26,79 -52,157l-27 0 0 0c0,0 0,27 -26,27l-52 262c0,0 -27,53 -27,131 0,27 -26,53 -52,105l-53 27 -26 0c-26,-27 -52,-27 -52,-27l0 -52 52 -79c26,-26 53,-79 79,-157 26,-27 26,-53 26,-105l53 -184 52 -105c0,-26 0,-26 0,-26l0 0 0 -27c26,-52 53,-105 79,-210l26 -131c0,0 26,-26 26,-79l0 -26c0,0 27,-26 27,-105l0 0 0 -26c26,-79 26,-131 26,-184l0 0 0 0c0,-52 0,-79 26,-79l0 -26c0,0 0,-26 0,-26 53,-53 79,-79 79,-79zm-105 578l-26 131 0 26 -27 53 0 78c0,0 0,0 27,27 52,0 78,0 78,-27l0 0 0 0c0,-52 0,-105 0,-183 0,0 0,0 -26,-27l0 0c0,-52 0,-52 -26,-78l0 0 0 0z"/>
   <path class="fil10" d="M11314 21268c26,0 52,26 79,53 52,26 78,78 78,131 27,0 27,52 53,157 26,79 52,132 52,184l0 0c0,0 27,0 27,0l0 53 26 52 0 53 26 105 0 0c0,0 0,0 0,26 0,0 26,0 26,26l0 53c0,0 27,26 27,78l0 0c0,0 26,0 26,27 26,0 26,26 26,105l26 26c27,0 27,-53 53,-131l26 -79c0,0 26,-26 26,-53 0,0 0,-26 27,-52 0,0 26,-53 26,-131l52 -132c0,0 0,0 27,-26 0,0 0,0 0,-26 0,0 26,0 26,-26 0,0 26,-27 26,-105 0,0 26,-53 53,-158 0,-52 0,-79 26,-105 0,-26 0,-52 26,-52 0,-27 26,-27 53,-79l52 -26c79,0 105,26 131,78l27 53 0 52 0 79 -27 53 0 0 0 26c0,79 -26,157 -26,210l0 79 0 236c0,0 0,0 26,26l0 26 27 53 -27 341 0 53 0 0 0 0c0,0 0,26 27,52l0 0 0 131 0 27 0 52c0,105 0,158 -27,158 0,0 -26,26 -52,26l-53 0c-26,-26 -26,-26 -26,-79l0 -52 0 -27 0 -26c0,-26 0,-52 -26,-105l26 -79 0 -26c0,0 -26,-26 -26,-52l-26 -27 0 -78 0 -27 0 -183 0 -27c-27,-26 -27,-157 -27,-367 -26,-26 -26,-26 -52,-26l0 0 -79 183c0,27 0,27 -26,53 -26,105 -53,157 -53,184l-26 52 -26 105 0 79c-26,26 -53,79 -53,105 -26,26 -26,52 -52,105 0,26 -26,52 -26,105l0 26c0,0 -27,53 -27,79 -26,52 -52,79 -78,105 0,0 0,26 -27,26 0,0 0,26 0,26l-26 0c0,-26 -26,-26 -52,-26 -27,-26 -27,-79 -27,-157l0 0 53 -53 0 0c0,-26 0,-79 -26,-105l-27 -105c0,0 -26,-26 -26,-52 -26,-53 -52,-105 -52,-105l0 -27c0,0 0,-26 -27,-78 0,0 0,0 0,-27l0 -26c0,0 -26,-26 -26,-52 0,0 0,0 0,-27 -26,0 -26,-52 -52,-131l0 0 0 -26c0,-26 0,-26 -27,-53l0 -52 -26 -26 0 0 0 26 0 210 0 52 0 0c-26,27 -26,79 -26,105l0 27 0 26 0 105 0 0 0 157 0 158 0 0 0 26c0,26 0,53 -26,53l0 157c0,0 -27,26 -53,26l-52 0c-27,0 -53,-26 -53,-52l-26 -26 0 0c0,0 -26,0 -26,0l0 -53 52 -79 0 -105 26 -157 0 0c0,-53 0,-79 27,-105l0 -26 0 -53c0,0 0,-52 0,-131l0 -79 0 -26 0 -79 0 -26 0 -53 0 -157c0,0 0,-26 0,-26l0 -27 0 -210c0,-52 0,-131 -27,-210 0,-52 27,-105 79,-131l79 0z"/>
   <path class="fil10" d="M13125 21268c26,0 53,26 53,79l0 26c0,0 0,0 0,0l0 0c0,53 0,79 0,79l0 26 0 26 0 27 0 105 0 0 0 26 0 52c0,0 0,53 0,105l0 27 0 26 0 184c0,0 26,52 26,131 0,0 0,0 0,0l0 26 0 0 0 0c0,184 0,289 26,289l0 105c0,0 26,0 26,0l0 0 0 26 0 0 0 53c0,78 27,105 27,105 0,0 26,0 26,26 52,26 79,52 79,105l0 0c-27,26 -27,52 -27,52 -26,27 -52,53 -78,53l-79 0c-53,0 -79,-26 -131,-79 -27,0 -53,-131 -53,-394 0,0 0,-26 0,-52l0 -105 0 -53 0 -26c0,-26 -26,-52 -79,-52 -78,0 -105,0 -105,26 -26,26 -26,79 -52,157l-26 0 0 0c0,0 0,27 -27,27l-52 157c0,0 -26,53 -26,131 0,27 -27,53 -53,105l-52 27 -27 0c-26,-27 -52,-27 -52,-27l0 -52 52 -79c27,-26 53,-79 79,-157 26,-27 26,-53 26,-105l53 -184 52 -105c0,-26 0,-26 0,-26l0 0 0 -27c27,-52 53,-105 79,-210l26 -131c0,0 27,-26 27,-79l0 -26c0,0 26,-26 26,-105l0 0 0 -26c26,-79 26,-131 26,-184l0 0 0 0c0,-52 0,-79 26,-79l0 -26c0,0 0,-26 0,-26 132,52 158,26 184,26zm-105 578l-26 131 0 26 -26 53 0 78c0,0 0,0 26,27 52,0 79,0 79,-27l0 0 0 0c0,-52 0,-105 0,-183 0,0 0,0 -27,-27l0 0c0,-52 0,-52 -26,-78l0 0 0 0z"/>
   <path class="fil10" d="M13624 21268l105 0 105 0 157 0c105,26 184,53 237,79l26 52 52 132 0 26 0 0 27 210 0 52c0,0 26,0 26,27l0 0 0 0 0 26 0 0 0 79 0 0 0 0 0 105c0,52 0,131 -26,183l0 27c0,26 0,52 -27,105 0,52 -26,78 -52,78 0,27 -26,27 -26,27 0,26 -27,52 -27,78l-26 79c0,53 26,79 53,131 26,79 52,132 52,132 26,26 53,52 79,78l26 53 0 26c0,0 -52,26 -131,26l-26 0c-79,-26 -105,-78 -132,-105 0,-26 0,-26 -26,-26 -26,-26 -26,-79 -52,-157 -27,-79 -79,-158 -79,-184l-26 0 -27 0 -26 52c0,53 26,105 26,158l0 26c0,131 0,210 -26,210 0,0 -26,26 -79,53l0 0c-52,0 -105,-27 -131,-53 0,-105 26,-184 53,-210l0 -26 0 -236 0 -27 0 -26 0 -79 0 -26 0 -26 0 -131 0 -27 0 0 0 0 -27 -105c0,-26 0,-26 0,-78l0 -27c0,-157 -26,-288 -26,-341l0 -262c-52,-53 -52,-105 -26,-158zm184 210l0 79 -27 52 0 132 27 26 0 52 -27 27 0 131 0 26c0,0 27,0 27,0l0 105 26 79c0,26 26,52 26,79l0 26 0 26 0 0c0,79 26,131 53,131l52 0c26,-26 26,-52 53,-52 26,-26 26,-53 26,-79 0,0 26,0 26,-26 0,0 26,-26 26,-53 0,0 27,-52 27,-131l0 0 0 -131 0 -53 0 0 0 -52 0 -79c0,0 -27,-26 -27,-79 0,0 -26,-26 -26,-78 -26,-79 -52,-105 -79,-132 0,0 0,-26 -26,-26 0,-26 -26,-26 -79,-26l0 0c0,0 -26,26 -26,26l0 0c-26,-52 -52,-26 -52,0z"/>
   <path class="fil10" d="M15356 21268l342 0 0 0 0 0 -53 105c-26,105 -52,263 -52,473l0 682 0 79c0,0 0,0 -27,0 -26,131 -78,210 -105,262 0,0 0,27 -26,53 -26,0 -52,0 -52,26 -27,53 -27,79 -53,79l-105 0c-26,26 -52,26 -79,26l0 0c-105,-26 -157,-26 -157,-52 -79,-132 -105,-184 -105,-184 0,0 -26,0 -26,0l0 -53c-27,-26 -53,-52 -53,-52l-26 -236c-26,0 -26,0 -26,-27l-27 -157 27 -473c0,-183 -53,-288 -158,-315 -26,-26 -52,-52 -52,-78 26,-27 52,-53 105,-132 52,-26 78,-52 131,-52l26 0c26,26 53,26 105,26l131 0 0 26c-105,105 -157,184 -157,237l0 315c0,157 0,367 26,656 26,0 26,0 26,0l0 52c27,0 27,0 27,0l0 105 78 79 0 79c27,0 53,26 53,52 26,27 52,27 52,27l0 26 132 26 0 -26c78,-53 105,-79 105,-131 26,-132 52,-184 52,-184l26 0 0 -158c0,0 0,0 27,0l-27 -446 0 -394c-26,0 -26,0 -26,-26l-52 -184 -27 0c-26,-52 -52,-78 -52,-105l0 0 79 0 -27 -26 0 0z"/>
  </g>
 </g>
</svg>
